<svg width="28" height="29" viewBox="0 0 28 29" fill="none" xmlns="http://www.w3.org/2000/svg">
<path d="M10.2366 5.18033C10.4141 4.96879 10.7295 4.9412 10.9411 5.1187C11.1526 5.2962 11.1802 5.61158 11.0027 5.82311L9.02474 8.18035C8.84724 8.39188 8.53186 8.41948 8.32032 8.24198C8.10879 8.06447 8.0812 7.7491 8.2587 7.53756L10.2366 5.18033Z" fill="#1A1A1A"/>
<path d="M16.6128 5.8234C16.4353 5.61186 16.4629 5.29648 16.6744 5.11898C16.8859 4.94148 17.2013 4.96907 17.3788 5.18061L19.3568 7.53784C19.5343 7.74938 19.5067 8.06476 19.2951 8.24226C19.0836 8.41976 18.7682 8.39217 18.5907 8.18063L16.6128 5.8234Z" fill="#1A1A1A"/>
<path d="M20.4706 11.5533L19.1317 20.1949C19.0563 20.6823 18.6367 21.0416 18.1435 21.0416V20.0416L19.3568 12.2604H8.68011L9.85635 20.0416V21.0416C9.36323 21.0415 8.94354 20.6823 8.86807 20.1949L7.52628 11.5289L20.4706 11.5533ZM18.1435 20.0416V21.0416H9.85635V20.0416H18.1435Z" fill="#1A1A1A"/>
<path d="M20.3826 11.2604V12.2604H13.9999H7.61717V11.2604H20.3826ZM21.0779 10.5651V9.33961C21.0779 9.0039 20.8398 8.7229 20.5233 8.658L20.3826 8.64433H7.61717C7.23338 8.64433 6.92186 8.95584 6.92186 9.33961V10.5651C6.92186 10.9489 7.23338 11.2604 7.61717 11.2604V12.2604L7.44334 12.2516C6.58874 12.1648 5.92188 11.4426 5.92188 10.5651V9.33961C5.92188 8.46213 6.58875 7.74002 7.44334 7.65316L7.61717 7.64437H20.3826C21.3187 7.64437 22.0779 8.40358 22.0779 9.33961V10.5651L22.0691 10.739C21.988 11.5364 21.3539 12.1705 20.5565 12.2516L20.3826 12.2604V11.2604C20.7664 11.2604 21.0779 10.9489 21.0779 10.5651Z" fill="#1A1A1A"/>
<path d="M13.0771 16.6952C13.0771 16.9713 12.8532 17.1952 12.5771 17.1952C12.3009 17.1952 12.0771 16.9713 12.0771 16.6952V14.618C12.0771 14.3419 12.3009 14.118 12.5771 14.118C12.8532 14.118 13.0771 14.3419 13.0771 14.618V16.6952Z" fill="#1A1A1A"/>
<path d="M16.1544 16.6952C16.1544 16.9713 15.9306 17.1952 15.6544 17.1952C15.3783 17.1952 15.1544 16.9713 15.1544 16.6952V14.618C15.1544 14.3419 15.3783 14.118 15.6544 14.118C15.9306 14.118 16.1544 14.3419 16.1544 14.618V16.6952Z" fill="#1A1A1A"/>
</svg>
