<svg width="28" height="29" viewBox="0 0 28 29" fill="none" xmlns="http://www.w3.org/2000/svg">
<path d="M6.90039 19.6987V16.7993H7.90039V19.6987L7.91016 19.8003C7.9569 20.028 8.15888 20.1987 8.40039 20.1987H21.6006C21.8766 20.1986 22.1006 19.9748 22.1006 19.6987V6.59912C22.1006 6.32304 21.8766 6.09923 21.6006 6.09912H8.40039C8.12425 6.09912 7.90039 6.32298 7.90039 6.59912V9.59912H6.90039V6.59912C6.90039 5.77069 7.57196 5.09912 8.40039 5.09912H21.6006C22.4289 5.09923 23.1006 5.77076 23.1006 6.59912V19.6987C23.1006 20.5271 22.4289 21.1986 21.6006 21.1987H8.40039C7.62359 21.1987 6.98482 20.6086 6.9082 19.8521L6.90039 19.6987Z" fill="#1A1A1A"/>
<path d="M16.8737 12.8098C16.8737 11.6693 17.7405 10.7313 18.8513 10.6184L19.0769 10.6067H22.9333V15.012H19.0769V14.012H21.9333V11.6067H19.0769C18.4125 11.6067 17.8737 12.1455 17.8737 12.8098C17.8739 13.474 18.4126 14.012 19.0769 14.012V15.012L18.8513 15.0012C17.8144 14.8959 16.9906 14.0713 16.8854 13.0344L16.8737 12.8098Z" fill="#1A1A1A"/>
<path d="M13.3252 13.2332C13.3252 11.2121 11.6862 9.57306 9.66406 9.573C7.64191 9.573 6.00293 11.2121 6.00293 13.2332C6.00307 15.2541 7.642 16.8923 9.66406 16.8923V17.8923L9.42383 17.8865C7.04056 17.7656 5.12946 15.8552 5.00879 13.4724L5.00293 13.2332C5.00293 10.6596 7.08985 8.573 9.66406 8.573L9.90332 8.57886C12.3663 8.70342 14.3252 10.7398 14.3252 13.2332L14.3193 13.4724C14.1946 15.9347 12.1579 17.8923 9.66406 17.8923V16.8923C11.6861 16.8923 13.3251 15.2541 13.3252 13.2332Z" fill="#1A1A1A"/>
<path d="M10.1851 15.0127L10.1753 15.1133C10.1286 15.341 9.92661 15.5127 9.68506 15.5127C9.4435 15.5127 9.24152 15.341 9.19482 15.1133L9.18506 15.0127L9.18506 11.1572C9.18506 10.8811 9.40892 10.6572 9.68506 10.6572C9.9612 10.6572 10.1851 10.8811 10.1851 11.1572L10.1851 15.0127Z" fill="#1A1A1A"/>
<path d="M7.75781 13.5845C7.48167 13.5845 7.25781 13.3606 7.25781 13.0845C7.25781 12.8083 7.48167 12.5845 7.75781 12.5845L11.6133 12.5845C11.8894 12.5845 12.1133 12.8083 12.1133 13.0845C12.1133 13.3606 11.8894 13.5845 11.6133 13.5845H7.75781Z" fill="#1A1A1A"/>
</svg>
