<svg width="28" height="29" viewBox="0 0 28 29" fill="none" xmlns="http://www.w3.org/2000/svg">
<path d="M20.5737 8.27002L13.9741 5.93408L7.37549 8.27002V11.1089C7.3756 15.2923 10.0382 18.9971 13.9741 20.3462C17.9105 18.9973 20.5736 15.2926 20.5737 11.1089V8.27002ZM21.5649 11.5503C21.3798 16.0932 18.3499 20.0526 13.9741 21.3999L13.5552 21.2612C9.40617 19.7964 6.56346 15.9466 6.38428 11.5503L6.37549 11.1089V7.56299L13.9741 4.87451L21.5737 7.56299V11.1089L21.5649 11.5503Z" fill="#1A1A1A"/>
<path d="M16.6609 10.5023C16.8561 10.307 17.1727 10.3071 17.3679 10.5023C17.5632 10.6975 17.5632 11.014 17.3679 11.2093L13.4353 15.1419C13.1739 15.4034 12.7495 15.4034 12.488 15.1419L10.5818 13.2357C10.3866 13.0404 10.3865 12.7239 10.5818 12.5286C10.7771 12.3334 11.0936 12.3334 11.2888 12.5286L12.9617 14.2015L16.6609 10.5023Z" fill="#1A1A1A"/>
</svg>
