<svg width="28" height="29" viewBox="0 0 28 29" fill="none" xmlns="http://www.w3.org/2000/svg">
<path d="M17.1438 9.45703V6.59961C17.1438 6.32356 16.9198 6.09976 16.6438 6.09961H7.50024C7.2241 6.09961 7.00024 6.32347 7.00024 6.59961V19.5996C7.00024 19.8758 7.2241 20.0996 7.50024 20.0996H16.6438C16.9198 20.0995 17.1438 19.8757 17.1438 19.5996V16.7422C17.1439 16.4662 17.3677 16.2422 17.6438 16.2422C17.9197 16.2423 18.1436 16.4663 18.1438 16.7422V19.5996C18.1438 20.4279 17.4721 21.0995 16.6438 21.0996H7.50024C6.67182 21.0996 6.00024 20.428 6.00024 19.5996V6.59961C6.00024 5.77118 6.67182 5.09961 7.50024 5.09961H16.6438C17.4721 5.09976 18.1438 5.77128 18.1438 6.59961V9.45703C18.1436 9.73295 17.9197 9.95688 17.6438 9.95703C17.3677 9.95703 17.1439 9.73305 17.1438 9.45703Z" fill="#1A1A1A"/>
<path d="M14.2346 13.2106C13.9584 13.2106 13.7346 12.9868 13.7346 12.7106C13.7348 12.4347 13.9586 12.2106 14.2346 12.2106L20.1936 12.2106L18.6496 10.6667C18.4544 10.4714 18.4544 10.1549 18.6496 9.95963C18.8449 9.76448 19.1614 9.76441 19.3567 9.95963L22.1076 12.7106L19.3567 15.4626L19.2776 15.527C19.0836 15.6548 18.8204 15.6331 18.6496 15.4626C18.4787 15.2916 18.4569 15.0277 18.5852 14.8337L18.6496 14.7555L20.1936 13.2106L14.2346 13.2106Z" fill="#1A1A1A"/>
</svg>
