<svg width="28" height="29" viewBox="0 0 28 29" fill="none" xmlns="http://www.w3.org/2000/svg">
<path d="M9.87831 17.9014L9.86855 18.002C9.82196 18.2299 9.61997 18.4014 9.37831 18.4014C9.13666 18.4014 8.93467 18.2299 8.88808 18.002L8.87831 17.9014L8.87831 10.7569C8.87831 10.4807 9.10217 10.2569 9.37831 10.2569C9.65445 10.2569 9.87831 10.4807 9.87831 10.7569L9.87831 17.9014Z" fill="#1A1A1A"/>
<path d="M11.6021 17.9007L11.6118 18.0022C11.6586 18.2299 11.8605 18.4007 12.1021 18.4007C12.3782 18.4007 12.6021 18.1768 12.6021 17.9007V15.2219C12.6021 14.9458 12.3782 14.7219 12.1021 14.7219C11.8259 14.7219 11.6021 14.9458 11.6021 15.2219V17.9007Z" fill="#1A1A1A"/>
<path d="M5.89941 19.6992V6.51756C5.89941 5.68913 6.57099 5.01756 7.39941 5.01756H13.1035L13.2041 5.02733C13.432 5.07393 13.6035 5.27591 13.6035 5.51756C13.6035 5.75921 13.432 5.96119 13.2041 6.00779L13.1035 6.01756H7.39941C7.12327 6.01756 6.89941 6.24142 6.89941 6.51756V19.6992C6.89941 19.9753 7.12327 20.1992 7.39941 20.1992H20.5693C20.8455 20.1992 21.0693 19.9753 21.0693 19.6992V15.7871C21.0696 15.5112 21.2934 15.2871 21.5693 15.2871C21.8453 15.2871 22.0691 15.5112 22.0693 15.7871V19.6992C22.0693 20.5276 21.3978 21.1992 20.5693 21.1992H7.39941C6.57099 21.1992 5.89941 20.5276 5.89941 19.6992Z" fill="#1A1A1A"/>
<path d="M21.025 12.6287V6.29568C21.025 6.1051 20.8709 5.94982 20.6803 5.94802L15.4898 5.89919L15.3893 5.88845C15.1619 5.83968 14.9924 5.63593 14.9947 5.39431C14.9974 5.11826 15.2235 4.89658 15.4996 4.89919L20.69 4.94802C21.4291 4.95507 22.025 5.55653 22.025 6.29568V12.6287C22.0249 12.9046 21.8009 13.1285 21.525 13.1287C21.2489 13.1287 21.0251 12.9048 21.025 12.6287Z" fill="#1A1A1A"/>
<path d="M20.8071 5.53274C20.9903 5.32618 21.3065 5.30763 21.5131 5.49075C21.7197 5.67391 21.7392 5.99016 21.5561 6.1968L15.2241 13.3404C15.0409 13.547 14.7247 13.5665 14.518 13.3833C14.3116 13.2001 14.2929 12.8839 14.476 12.6773L20.8071 5.53274Z" fill="#1A1A1A"/>
</svg>
