<svg width="28" height="29" viewBox="0 0 28 29" fill="none" xmlns="http://www.w3.org/2000/svg">
<path d="M5.84571 19.6795V7.92848C5.84571 7.65234 6.06957 7.42848 6.34571 7.42848C6.62185 7.42848 6.84571 7.65234 6.84571 7.92848V19.6795C6.84587 19.9555 7.06967 20.1795 7.34571 20.1795H19.2481L19.3486 20.1892C19.5766 20.2357 19.7481 20.4377 19.7481 20.6795C19.7479 20.921 19.5765 21.1222 19.3486 21.1687L19.2481 21.1795H7.34571C6.51738 21.1795 5.84587 20.5077 5.84571 19.6795Z" fill="#1A1A1A"/>
<path d="M8.75899 9.25281L8.82051 9.33289C8.94085 9.53198 8.9083 9.79498 8.73067 9.95886C8.55306 10.1227 8.28855 10.1338 8.09981 9.99793L8.02462 9.93054L6.3459 8.11023L4.66719 9.93054C4.47994 10.1333 4.16403 10.146 3.96114 9.95886C3.75821 9.77164 3.74565 9.45577 3.93282 9.25281L6.3459 6.6366L8.75899 9.25281Z" fill="#1A1A1A"/>
<path d="M22.0938 6.49927V18.2502C22.0938 18.5264 21.8699 18.7502 21.5938 18.7502C21.3176 18.7502 21.0938 18.5264 21.0938 18.2502V6.49927C21.0936 6.22326 20.8698 5.99927 20.5938 5.99927H8.69141L8.59083 5.9895C8.36285 5.94298 8.19141 5.74099 8.19141 5.49927C8.19155 5.25771 8.36298 5.05654 8.59083 5.01001L8.69141 4.99927H20.5938C21.4221 4.99927 22.0936 5.67098 22.0938 6.49927Z" fill="#1A1A1A"/>
<path d="M19.181 16.926L19.1194 16.8459C18.9991 16.6468 19.0316 16.3838 19.2093 16.22C19.3869 16.0562 19.6514 16.045 19.8401 16.1809L19.9153 16.2483L21.594 18.0686L23.2728 16.2483C23.46 16.0455 23.7759 16.0328 23.9788 16.22C24.1817 16.4072 24.1943 16.7231 24.0071 16.926L21.594 19.5422L19.181 16.926Z" fill="#1A1A1A"/>
<path d="M15.644 16.8001C15.644 17.0763 15.4202 17.3001 15.144 17.3001C14.8679 17.3001 14.644 17.0763 14.644 16.8001V10.1478C14.644 9.87165 14.8679 9.64779 15.144 9.64779C15.4202 9.64779 15.644 9.87165 15.644 10.1478V16.8001Z" fill="#1A1A1A"/>
<path d="M12.1245 16.7991C12.1245 17.0752 11.9007 17.2991 11.6245 17.2991C11.3484 17.2991 11.1245 17.0752 11.1245 16.7991V13.4729C11.1245 13.1968 11.3484 12.9729 11.6245 12.9729C11.9007 12.9729 12.1245 13.1968 12.1245 13.4729V16.7991Z" fill="#1A1A1A"/>
</svg>
