<svg width="28" height="29" viewBox="0 0 28 29" fill="none" xmlns="http://www.w3.org/2000/svg">
<path d="M4.90039 20.6987V7.49854C4.90039 6.67011 5.57196 5.99854 6.40039 5.99854H13.2998V6.99854H6.40039C6.12425 6.99854 5.90039 7.22239 5.90039 7.49854V20.6987C5.9005 20.9748 6.12431 21.1987 6.40039 21.1987H19.6006C19.8765 21.1986 20.1005 20.9747 20.1006 20.6987L20.0996 13.6313H21.0996L21.1006 20.6987C21.1005 21.527 20.4288 22.1986 19.6006 22.1987H6.40039C5.57203 22.1987 4.9005 21.5271 4.90039 20.6987Z" fill="#1A1A1A"/>
<path d="M12.0001 11.5977L5.0001 11.5996V10.5996L12.0001 10.5977V11.5977Z" fill="#1A1A1A"/>
<path d="M12.3994 10.1968C12.3994 7.7115 14.4141 5.69678 16.8994 5.69678C19.3847 5.69678 21.3994 7.7115 21.3994 10.1968C21.3994 12.6821 19.3847 14.6968 16.8994 14.6968V15.6968C19.937 15.6968 22.3994 13.2343 22.3994 10.1968C22.3994 7.15921 19.937 4.69678 16.8994 4.69678C13.8618 4.69678 11.3994 7.15921 11.3994 10.1968C11.3994 13.2343 13.8618 15.6968 16.8994 15.6968V14.6968C14.4141 14.6968 12.3994 12.6821 12.3994 10.1968Z" fill="#1A1A1A"/>
<path d="M16.4625 7.63745C16.4625 7.36132 16.6864 7.13747 16.9625 7.13745C17.2386 7.13745 17.4625 7.36131 17.4625 7.63745V11.7273L18.5953 10.5945C18.7906 10.3992 19.1071 10.3993 19.3023 10.5945C19.4976 10.7897 19.4976 11.1063 19.3023 11.3015L16.9625 13.6414L14.6227 11.3015C14.4274 11.1062 14.4274 10.7897 14.6227 10.5945C14.8179 10.3993 15.1344 10.3993 15.3297 10.5945L16.4625 11.7273V7.63745Z" fill="#1A1A1A"/>
</svg>
