<svg width="28" height="29" viewBox="0 0 28 29" fill="none" xmlns="http://www.w3.org/2000/svg">
<path d="M19.9692 11.2112V8.15356L12.9839 5.55103L5.99951 8.15356V12.054C5.9997 16.3319 8.91603 20.0511 13.0571 21.0813L15.0649 20.5178L15.1997 20.9993L15.3354 21.4807L13.1997 22.0803L13.0757 22.1155L12.9497 22.0862C8.29225 20.993 4.99971 16.8379 4.99951 12.054V7.46021L12.8101 4.54907L12.9849 4.48462L13.1587 4.54907L20.9692 7.46021V11.2112C20.9692 12.5135 20.7692 13.8083 20.3765 15.05L19.8999 14.8987L19.4233 14.7483C19.7852 13.6041 19.9692 12.4112 19.9692 11.2112Z" fill="#1A1A1A"/>
<path d="M9.85049 15.8128C9.71213 16.0515 9.40675 16.1326 9.16787 15.9945C8.92886 15.8562 8.84702 15.5509 8.98525 15.3119L9.85049 15.8128ZM13.1161 12.9271C14.4748 12.9271 15.7021 13.4956 16.5702 14.4066L16.2079 14.7513L15.8466 15.097C15.1593 14.3758 14.19 13.9271 13.1161 13.9271C11.7215 13.9273 10.503 14.6848 9.85049 15.8128L9.41787 15.5619L8.98525 15.3119C9.80917 13.8876 11.3501 12.9273 13.1161 12.9271ZM16.5702 14.4066C16.7607 14.6065 16.7525 14.9231 16.5526 15.1136C16.3529 15.3038 16.0371 15.2965 15.8466 15.097L16.5702 14.4066Z" fill="#1A1A1A"/>
<path d="M14.2509 10.3919C14.2508 9.76521 13.7429 9.25718 13.1161 9.25718C12.4894 9.25728 11.9815 9.76528 11.9813 10.3919C11.9813 11.0187 12.4894 11.5266 13.1161 11.5267V12.5267C11.9371 12.5266 10.9813 11.571 10.9813 10.3919C10.9815 9.21299 11.9372 8.25728 13.1161 8.25718C14.2952 8.25718 15.2508 9.21293 15.2509 10.3919C15.2509 11.571 14.2952 12.5267 13.1161 12.5267V11.5267C13.7429 11.5267 14.2509 11.0188 14.2509 10.3919Z" fill="#1A1A1A"/>
<path d="M18.5008 13.6702L19.8738 14.1682L21.4168 14.7317L22.2391 16.1526L23.0594 17.5764L22.7752 19.1936L22.5203 20.6321L22.4891 20.8108L22.3494 20.928L21.2322 21.8674L20.1121 22.8059L19.9725 22.9221H16.6883L16.5486 22.8059L14.3104 20.928L14.1717 20.8108L14.1404 20.6321L13.8855 19.1936L13.6014 17.5764L13.6922 17.4192L14.4207 16.1536L14.4217 16.1526L15.2439 14.7317L15.4139 14.6692L16.7859 14.1682L18.16 13.6702L18.3299 13.6077L18.5008 13.6702ZM17.1277 15.1067L17.1287 15.1077L15.9266 15.5461L15.2869 16.6516L14.6482 17.76L15.0926 20.2786L16.0711 21.1008L17.0506 21.9221H19.6092L20.5896 21.1008L21.5672 20.2786L21.7908 19.0198L22.0115 17.76L21.3729 16.6526L20.7332 15.5461L19.532 15.1077L18.3299 14.6711L17.1277 15.1067Z" fill="#1A1A1A"/>
<path d="M19.5385 18.4097C19.5385 17.7426 18.9976 17.2017 18.3305 17.2017C17.6633 17.2017 17.1225 17.7426 17.1225 18.4097C17.1225 19.0768 17.6633 19.6177 18.3305 19.6177C18.9976 19.6177 19.5384 19.0768 19.5385 18.4097ZM20.5385 18.4097C20.5384 19.6291 19.5499 20.6177 18.3305 20.6177C17.111 20.6177 16.1225 19.6291 16.1225 18.4097C16.1225 17.1903 17.111 16.2017 18.3305 16.2017C19.5499 16.2017 20.5385 17.1903 20.5385 18.4097Z" fill="#1A1A1A"/>
</svg>
