
<svg xmlns="http://www.w3.org/2000/svg" width="24" height="24" viewBox="0 0 24 24" fill="none">
  <path d="M19.433 7.60839C15.0247 7.16673 10.6247 7.00006 6.26635 7.44173L4.56635 7.60839C4.21635 7.64173 3.90802 7.39173 3.87469 7.04173C3.84135 6.69173 4.09135 6.39173 4.43302 6.35839L6.13302 6.19173C10.5664 5.74173 15.058 5.91673 19.558 6.35839C19.8997 6.39173 20.1497 6.70006 20.1164 7.04173C20.0914 7.36673 19.8164 7.60839 19.4997 7.60839C19.483 7.60839 19.458 7.60839 19.433 7.60839Z" fill="#C9221C"/>
  <path d="M8.97566 6.75817C8.64233 6.69984 8.40899 6.37484 8.46733 6.0415L8.65066 4.94984C8.78399 4.14984 8.96733 3.0415 10.909 3.0415H13.0923C15.0423 3.0415 15.2257 4.1915 15.3507 4.95817L15.534 6.0415C15.5923 6.38317 15.359 6.70817 15.0257 6.75817C14.684 6.8165 14.359 6.58317 14.309 6.24984L14.1257 5.1665C14.009 4.4415 13.984 4.29984 13.1007 4.29984H10.9173C10.034 4.29984 10.0173 4.4165 9.89233 5.15817L9.70066 6.2415C9.65066 6.54984 9.38399 6.7665 9.08399 6.7665C9.05066 6.7665 9.01733 6.7665 8.97566 6.75817Z" fill="#C9221C"/>
  <path d="M9.32536 20.9586C6.41703 20.9586 6.30036 19.3503 6.2087 18.0503L5.66703 9.65864C5.64203 9.31697 5.9087 9.01697 6.25036 8.99197C6.60036 8.97531 6.89203 9.23364 6.91703 9.57531L7.4587 17.967C7.55036 19.2336 7.5837 19.7086 9.32536 19.7086H14.6754C16.4254 19.7086 16.4587 19.2336 16.542 17.967L17.0837 9.57531C17.1087 9.23364 17.4087 8.97531 17.7504 8.99197C18.092 9.01697 18.3587 9.30864 18.3337 9.65864L17.792 18.0503C17.7004 19.3503 17.5837 20.9586 14.6754 20.9586H9.32536Z" fill="#C9221C"/>
  <path d="M10.6084 16.375C10.2667 16.375 9.9834 16.0917 9.9834 15.75C9.9834 15.4083 10.2667 15.125 10.6084 15.125H13.3834C13.7251 15.125 14.0084 15.4083 14.0084 15.75C14.0084 16.0917 13.7251 16.375 13.3834 16.375H10.6084Z" fill="#C9221C"/>
  <path d="M9.91663 13.0415C9.57496 13.0415 9.29163 12.7582 9.29163 12.4165C9.29163 12.0748 9.57496 11.7915 9.91663 11.7915H14.0833C14.425 11.7915 14.7083 12.0748 14.7083 12.4165C14.7083 12.7582 14.425 13.0415 14.0833 13.0415H9.91663Z" fill="#C9221C"/>
</svg>