<svg xmlns="http://www.w3.org/2000/svg" width="24" height="24" viewBox="0 0 24 24" fill="none">
  <path fill-rule="evenodd" clip-rule="evenodd" d="M3.04163 11.9998C3.04163 7.05817 7.05829 3.0415 12 3.0415C16.9416 3.0415 20.9583 7.05817 20.9583 11.9998C20.9583 16.9415 16.9416 20.9582 12 20.9582C7.05829 20.9582 3.04163 16.9415 3.04163 11.9998ZM4.29163 11.9998C4.29163 16.2498 7.74996 19.7082 12 19.7082C16.25 19.7082 19.7083 16.2498 19.7083 11.9998C19.7083 7.74984 16.25 4.2915 12 4.2915C7.74996 4.2915 4.29163 7.74984 4.29163 11.9998Z" fill="#6A7483"/>
  <path d="M11.375 12.8332V8.6665C11.375 8.32484 11.6583 8.0415 12 8.0415C12.3417 8.0415 12.625 8.32484 12.625 8.6665V12.8332C12.625 13.1748 12.3417 13.4582 12 13.4582C11.6583 13.4582 11.375 13.1748 11.375 12.8332Z" fill="#6A7483"/>
  <path d="M11.6833 16.0997C11.5833 16.0581 11.4916 15.9997 11.4083 15.9247C11.3333 15.8414 11.275 15.7581 11.2333 15.6497C11.1916 15.5497 11.1666 15.4414 11.1666 15.3331C11.1666 15.2247 11.1916 15.1164 11.2333 15.0164C11.275 14.9164 11.3333 14.8247 11.4083 14.7414C11.4916 14.6664 11.5833 14.6081 11.6833 14.5664C11.8833 14.4831 12.1166 14.4831 12.3166 14.5664C12.4166 14.6081 12.5083 14.6664 12.5916 14.7414C12.6666 14.8247 12.725 14.9164 12.7666 15.0164C12.8083 15.1164 12.8333 15.2247 12.8333 15.3331C12.8333 15.4414 12.8083 15.5497 12.7666 15.6497C12.725 15.7581 12.6666 15.8414 12.5916 15.9247C12.5083 15.9997 12.4166 16.0581 12.3166 16.0997C12.2166 16.1414 12.1083 16.1664 12 16.1664C11.8916 16.1664 11.7833 16.1414 11.6833 16.0997Z" fill="#6A7483"/>
</svg>