
<svg xmlns="http://www.w3.org/2000/svg" width="24" height="24" viewBox="0 0 24 24" fill="none">
  <path fill-rule="evenodd" clip-rule="evenodd" d="M3.04163 11.9998C3.04163 7.05817 7.05829 3.0415 12 3.0415C16.9416 3.0415 20.9583 7.05817 20.9583 11.9998C20.9583 16.9415 16.9416 20.9582 12 20.9582C7.05829 20.9582 3.04163 16.9415 3.04163 11.9998ZM4.29163 11.9998C4.29163 16.2498 7.74996 19.7082 12 19.7082C16.25 19.7082 19.7083 16.2498 19.7083 11.9998C19.7083 7.74984 16.25 4.2915 12 4.2915C7.74996 4.2915 4.29163 7.74984 4.29163 11.9998Z" fill="#299E47"/>
  <path d="M10.3745 14.8003L8.01621 12.442C7.77454 12.2003 7.77454 11.8003 8.01621 11.5587C8.25788 11.317 8.65788 11.317 8.89954 11.5587L10.8162 13.4753L15.0995 9.19199C15.3412 8.95033 15.7412 8.95033 15.9829 9.19199C16.2245 9.43366 16.2245 9.83366 15.9829 10.0753L11.2579 14.8003C11.1412 14.917 10.9829 14.9837 10.8162 14.9837C10.6495 14.9837 10.4912 14.917 10.3745 14.8003Z" fill="#299E47"/>
  <path opacity="0.01" fill-rule="evenodd" clip-rule="evenodd" d="M22 2V22H2V2H22Z" fill="#299E47"/>
</svg>