<?xml version="1.0" encoding="UTF-8"?>
<svg width="10px" height="11px" viewBox="0 0 10 11" version="1.1" xmlns="http://www.w3.org/2000/svg" xmlns:xlink="http://www.w3.org/1999/xlink">
    <title>icon/failed copy</title>
    <g id="✅-Watchlist" stroke="none" stroke-width="1" fill="none" fill-rule="evenodd">
        <g id="danger" transform="translate(0.000000, 0.500000)">
            <path d="M4.6875,5.83333333 L4.6875,3.75 C4.6875,3.57916667 4.82916667,3.4375 5,3.4375 C5.17083333,3.4375 5.3125,3.57916667 5.3125,3.75 L5.3125,5.83333333 C5.3125,6.00416667 5.17083333,6.14583333 5,6.14583333 C4.82916667,6.14583333 4.6875,6.00416667 4.6875,5.83333333 Z" id="Vector" fill="#B52A21" fill-rule="nonzero"></path>
            <path d="M4.91666675,7.49169072 C4.89166675,7.48752405 4.86666662,7.47919094 4.84166662,7.46669094 C4.81666662,7.4583576 4.79166649,7.44585754 4.76666649,7.42919087 C4.74583316,7.41252421 4.72499998,7.39585719 4.70416665,7.37919052 C4.62916665,7.30002386 4.58333333,7.1916909 4.58333333,7.08335757 C4.58333333,6.97502424 4.62916665,6.86669127 4.70416665,6.78752461 C4.72499998,6.77085794 4.74583316,6.75419092 4.76666649,6.73752425 C4.79166649,6.72085759 4.81666662,6.70835753 4.84166662,6.70002419 C4.86666662,6.68752419 4.89166675,6.67919108 4.91666675,6.67502441 C4.97083341,6.66252441 5.02916649,6.66252441 5.07916649,6.67502441 C5.10833316,6.67919108 5.13333338,6.68752419 5.15833338,6.70002419 C5.18333338,6.70835753 5.20833351,6.72085759 5.23333351,6.73752425 C5.25416684,6.75419092 5.27500002,6.77085794 5.29583335,6.78752461 C5.37083335,6.86669127 5.41666667,6.97502424 5.41666667,7.08335757 C5.41666667,7.1916909 5.37083335,7.30002386 5.29583335,7.37919052 C5.27500002,7.39585719 5.25416684,7.41252421 5.23333351,7.42919087 C5.20833351,7.44585754 5.18333338,7.4583576 5.15833338,7.46669094 C5.13333338,7.47919094 5.10833316,7.48752405 5.07916649,7.49169072 C5.05416649,7.49585738 5.025,7.50002424 5,7.50002424 C4.975,7.50002424 4.94583341,7.49585738 4.91666675,7.49169072 Z" id="Vector" fill="#B52A21" fill-rule="nonzero"></path>
            <path d="M2.47519334,9.23336983 C1.66269332,9.23336983 1.04186007,8.93753658 0.725193409,8.40420326 C0.412693409,7.87086993 0.454360048,7.1833698 0.850193376,6.47086978 L3.37519348,1.92920327 C3.79186014,1.17920329 4.36686019,0.766703288 5.00019352,0.766703288 C5.63352684,0.766703288 6.20852669,1.17920329 6.62519336,1.92920327 L9.15019274,6.47503654 C9.54602607,7.18753656 9.59185988,7.87087003 9.27519321,8.40837002 C8.95852655,8.93753668 8.33769292,9.23336983 7.5251929,9.23336983 L2.47519334,9.23336983 Z M3.92102679,2.23336995 L1.40019337,6.77920341 C1.11686004,7.28753676 1.07102674,7.75420325 1.26686007,8.09170326 C1.4626934,8.42920326 1.89602658,8.61253659 2.4793599,8.61253659 L7.52935966,8.61253659 C8.11269298,8.61253659 8.5418596,8.42920326 8.74185959,8.09170326 C8.94185959,7.75420325 8.89185973,7.29170342 8.60852639,6.77920341 L6.07936025,2.23336995 C5.77519357,1.6917033 5.39186018,1.39170324 5.00019352,1.39170324 C4.60852685,1.39170324 4.22519346,1.6917033 3.92102679,2.23336995 Z" id="Vector" fill="#B52A21"></path>
            <path d="M10,0 L10,10 L0,10 L0,0 L10,0 Z" id="Vector" opacity="0"></path>
        </g>
    </g>
</svg>