<svg width="18" height="8" viewBox="0 0 18 8" fill="none" xmlns="http://www.w3.org/2000/svg">
<path fill-rule="evenodd" clip-rule="evenodd" d="M8.625 2.27411C8.64221 2.26055 8.65912 2.24617 8.67676 2.23309C9.03549 1.96611 9.47783 1.83272 10.0039 1.8327C10.5267 1.8327 10.9796 1.96601 11.3623 2.23309C11.7482 2.49652 12.047 2.85794 12.2588 3.31708C12.4707 3.77292 12.5771 4.29357 12.5771 4.87762C12.5771 5.45445 12.473 5.97297 12.2646 6.43231C12.0562 6.8915 11.7619 7.25415 11.3828 7.52118C11.0035 7.78827 10.559 7.92255 10.0498 7.92255C9.51007 7.9225 9.05696 7.78822 8.69141 7.52118C8.61371 7.46439 8.5412 7.40209 8.47168 7.33661V7.76239H7.37988V0.0700073H8.625V2.27411ZM9.81934 2.98602C9.50504 2.98605 9.24894 3.067 9.05078 3.22723C8.85268 3.38392 8.70502 3.60452 8.60938 3.88934C8.51719 4.17061 8.47168 4.50028 8.47168 4.87762C8.4717 5.25146 8.51713 5.58106 8.60938 5.86591C8.705 6.15062 8.85424 6.37268 9.05566 6.5329C9.26066 6.68958 9.52896 6.76823 9.86035 6.76825C10.1816 6.76825 10.4469 6.68465 10.6553 6.51727C10.8636 6.34991 11.0173 6.12334 11.1162 5.83856C11.2187 5.55025 11.2695 5.22996 11.2695 4.87762C11.2695 4.52862 11.2188 4.21136 11.1162 3.92645C11.0137 3.63806 10.8548 3.41022 10.6396 3.24286C10.4243 3.07192 10.1508 2.98602 9.81934 2.98602Z" fill="#2A2A2A"/>
<path d="M15.627 1.8327C16.0573 1.83271 16.4381 1.90193 16.7695 2.04071C17.1043 2.1796 17.3751 2.37708 17.5801 2.63348C17.7851 2.88989 17.9112 3.19136 17.959 3.5368L16.6982 3.77118C16.6675 3.52565 16.5594 3.33152 16.375 3.18915C16.1939 3.04682 15.9514 2.96672 15.6475 2.94891C15.3571 2.93111 15.123 2.97728 14.9453 3.08759C14.7677 3.19438 14.6788 3.34593 14.6787 3.54169C14.6787 3.65201 14.7144 3.74657 14.7861 3.82489C14.8578 3.90324 15.0016 3.98189 15.2168 4.06024C15.4354 4.13857 15.76 4.23441 16.1904 4.34833C16.6311 4.46581 16.983 4.60151 17.2461 4.75458C17.5125 4.90404 17.7041 5.08371 17.8203 5.29364C17.9399 5.50375 18 5.75914 18 6.05829C17.9999 6.63861 17.7962 7.09434 17.3896 7.42548C16.9865 7.75652 16.4279 7.92255 15.7139 7.92255C15.0305 7.92253 14.4749 7.7616 14.0479 7.4411C13.621 7.12061 13.3618 6.66983 13.2695 6.08954L14.5303 5.88739C14.5952 6.17209 14.7389 6.3965 14.9609 6.56024C15.1829 6.72387 15.4629 6.80531 15.8008 6.80536C16.0981 6.80536 16.3277 6.7448 16.4883 6.62372C16.652 6.49913 16.7343 6.3303 16.7344 6.11688C16.7344 5.98511 16.7031 5.87979 16.6416 5.80145C16.5835 5.71958 16.4535 5.64086 16.252 5.5661C16.0503 5.49134 15.7408 5.39679 15.3242 5.2829C14.8598 5.15476 14.491 5.0177 14.2178 4.87177C13.9445 4.72223 13.7475 4.54635 13.6279 4.34344C13.5083 4.14048 13.4483 3.89455 13.4482 3.60614C13.4482 3.24651 13.5387 2.93277 13.7197 2.66571C13.9008 2.39868 14.1539 2.1939 14.4785 2.05145C14.8031 1.90543 15.1862 1.8327 15.627 1.8327Z" fill="#2A2A2A"/>
<path fill-rule="evenodd" clip-rule="evenodd" d="M6.46289 7.76239H5.19238L4.68262 6.0954H1.77539L1.27148 7.76239H0L2.32715 0.0700073H4.13672L6.46289 7.76239ZM2.13867 4.89325H4.31445L3.21875 1.31512L2.13867 4.89325Z" fill="#2A2A2A"/>
</svg>
