<svg width="10" height="10" viewBox="0 0 10 10" fill="none" xmlns="http://www.w3.org/2000/svg">
<path fill-rule="evenodd" clip-rule="evenodd" d="M2.17506 4.43802C0.973829 4.43785 8.40876e-05 3.44389 0 2.21859C0.000170165 0.993376 0.973882 0.000174497 2.17506 0C3.37637 0 4.35076 0.993268 4.35093 2.21859C4.35085 3.44399 3.37643 4.43802 2.17506 4.43802ZM2.17506 3.15159C2.67989 3.15159 3.08966 2.73352 3.08974 2.21859C3.08957 1.70375 2.67984 1.28643 2.17506 1.28643C1.67042 1.28661 1.26136 1.70385 1.26119 2.21859C1.26127 2.73341 1.67036 3.15142 2.17506 3.15159Z" fill="#2A2A2A"/>
<path d="M0.613351 8.92295L8.5631 0.150753L9.48928 1.02345L1.53954 9.79565L0.613351 8.92295Z" fill="#2A2A2A"/>
<path fill-rule="evenodd" clip-rule="evenodd" d="M7.82412 10C6.62284 9.99983 5.64907 9.00594 5.64907 7.78057C5.64943 6.55552 6.62307 5.56215 7.82412 5.56198C9.02532 5.56198 9.99964 6.55541 10 7.78057C10 9.00604 9.02555 10 7.82412 10ZM7.82412 8.71357C8.32901 8.71357 8.73881 8.29556 8.73881 7.78057C8.73845 7.26589 8.32879 6.84841 7.82412 6.84841C7.3196 6.84858 6.91062 7.266 6.91026 7.78057C6.91026 8.29546 7.31938 8.71339 7.82412 8.71357Z" fill="#2A2A2A"/>
</svg>
