<svg width="16" height="8" viewBox="0 0 16 8" fill="none" xmlns="http://www.w3.org/2000/svg">
<path fill-rule="evenodd" clip-rule="evenodd" d="M4.12793 0.0508423C4.24149 0.0545187 4.34957 0.065728 4.45215 0.0840454C4.89206 0.153699 5.25846 0.304295 5.55176 0.535217C5.84869 0.766162 6.07111 1.05735 6.21777 1.40924C6.3644 1.76115 6.43746 2.15006 6.4375 2.57526C6.4375 3.00425 6.36443 3.39514 6.21777 3.74713C6.07111 4.09913 5.84876 4.39015 5.55176 4.62115C5.25844 4.85214 4.89211 5.00266 4.45215 5.07233C4.34948 5.08699 4.2394 5.0982 4.12207 5.10553C4.00851 5.11286 3.91509 5.11627 3.8418 5.11627H1.79004V7.96002H0.640625V0.0401001H3.8418C3.91877 0.0401055 4.01435 0.0435145 4.12793 0.0508423ZM1.79004 4.0274H3.79785C3.87112 4.0274 3.95213 4.02399 4.04004 4.01666C4.13142 4.00933 4.21741 3.99684 4.29785 3.97858C4.53235 3.92362 4.72129 3.82234 4.86426 3.67584C5.00726 3.52551 5.11052 3.3526 5.17285 3.15826C5.23511 2.96405 5.2666 2.76947 5.2666 2.57526C5.26656 2.38106 5.23513 2.18864 5.17285 1.99811C5.11052 1.80377 5.00726 1.63306 4.86426 1.48639C4.72129 1.33622 4.53236 1.23374 4.29785 1.17877C4.21737 1.15684 4.13147 1.14216 4.04004 1.13483C3.95213 1.1275 3.87112 1.12409 3.79785 1.12408H1.79004V4.0274Z" fill="#2A2A2A"/>
<path d="M11.4473 5.99615L14.3018 0.0401001H15.3525V7.95416H14.2637V2.53717L11.7061 7.96002H11.1836L8.62109 2.53717V7.96002H7.53711V0.0401001H8.57617L11.4473 5.99615Z" fill="#2A2A2A"/>
</svg>
