<svg xmlns="http://www.w3.org/2000/svg" xmlns:xlink="http://www.w3.org/1999/xlink" width="95" height="80"><defs><circle id="a" cx="40" cy="40" r="40"/></defs><g fill="none" fill-rule="evenodd"><g transform="translate(7)"><mask id="b" fill="#fff"><use xlink:href="#a"/></mask><use xlink:href="#a" fill="#FFF"/><circle cx="40" cy="40" r="40" fill="#EAF9EE" mask="url(#b)"/><path fill="#FFF" fill-opacity=".302" d="M-21-3H98v69H-21z" mask="url(#b)"/></g><g transform="translate(0 3)"><path fill="#FFF" stroke="#33C659" stroke-linecap="round" stroke-width="4" d="M19 0 8 11M17.845 56.066 11 62.586M93 17 82 28"/><circle cx="87" cy="43" r="3" fill="#FFF"/><circle cx="3" cy="39" r="3" fill="#30DB5B" opacity=".5"/><circle cx="76" cy="5" r="3" fill="#30DB5B" opacity=".5"/><circle cx="76.5" cy="64.5" r="1.5" fill="#8CEAA4"/></g><g transform="translate(22 15)"><circle cx="25.5" cy="25.5" r="25.5" fill="#33C659"/><path fill="#FFF" fill-rule="nonzero" d="M22.432 27.458a.242.242 0 0 1-.34 0l-6.306-6.208-4.311 4.248 6.304 6.212 4.483 4.415L39.525 19.12l-4.314-4.245-12.779 12.583Z"/></g></g></svg>