<svg width="16" height="17" viewBox="0 0 16 17" fill="none" xmlns="http://www.w3.org/2000/svg">
<path d="M2.5371 4.15209C2.32129 3.93628 2.32129 3.57907 2.5371 3.36326L5.2385 0.66186C5.45431 0.446047 5.81152 0.446047 6.02734 0.66186C6.24315 0.877674 6.24315 1.23488 6.02734 1.4507L3.32594 4.15209C3.21431 4.25628 3.07292 4.31581 2.93152 4.31581C2.79013 4.31581 2.64129 4.25628 2.5371 4.15209Z" fill="#404040"/>
<path d="M12.6716 4.15209L9.97024 1.4507C9.75443 1.23488 9.75443 0.877674 9.97024 0.66186C10.1861 0.446047 10.5433 0.446047 10.7591 0.66186L13.4605 3.36326C13.6763 3.57907 13.6763 3.93628 13.4605 4.15209C13.3563 4.25628 13.2075 4.31581 13.0661 4.31581C12.9247 4.31581 12.7833 4.26372 12.6716 4.15209Z" fill="#404040"/>
<path fill-rule="evenodd" clip-rule="evenodd" d="M13.9537 7.4593H2.04676C1.52583 7.46674 0.930477 7.46674 0.498849 7.03512C0.156523 6.70023 0.000244141 6.1793 0.000244141 5.41279C0.000244141 3.36628 1.49606 3.36628 2.21048 3.36628H13.79C14.5044 3.36628 16.0002 3.36628 16.0002 5.41279C16.0002 6.18674 15.844 6.70023 15.5016 7.03512C15.1147 7.42209 14.5937 7.4593 14.11 7.4593C14.0579 7.4593 14.0058 7.4593 13.9537 7.4593ZM13.9612 6.34302C14.2961 6.35047 14.6086 6.35047 14.7128 6.24628C14.7649 6.19419 14.8765 6.01558 14.8765 5.41279C14.8765 4.57186 14.6682 4.48256 13.7826 4.48256H2.21048C1.3249 4.48256 1.11652 4.57186 1.11652 5.41279C1.11652 6.01558 1.23559 6.19419 1.28024 6.24628C1.38443 6.34302 1.70443 6.34302 2.03187 6.34302H13.9612Z" fill="#404040"/>
<path d="M5.77641 12.6302V9.98837C5.77641 9.68326 6.02943 9.43023 6.33455 9.43023C6.63966 9.43023 6.89269 9.68326 6.89269 9.98837V12.6302C6.89269 12.9428 6.63966 13.1884 6.33455 13.1884C6.02943 13.1884 5.77641 12.9353 5.77641 12.6302Z" fill="#404040"/>
<path d="M9.19795 12.6303V9.98845C9.19795 9.68333 9.45098 9.43031 9.75609 9.43031C10.0612 9.43031 10.3142 9.68333 10.3142 9.98845V12.6303C10.3142 12.9429 10.0612 13.1884 9.75609 13.1884C9.45098 13.1884 9.19795 12.9354 9.19795 12.6303Z" fill="#404040"/>
<path d="M5.66404 16.5005C2.99986 16.5005 2.40451 14.9154 2.17381 13.5387L1.12451 7.10147C1.07242 6.79636 1.28079 6.51357 1.5859 6.46147C1.89102 6.40938 2.17381 6.61775 2.2259 6.92287L3.27521 13.3526C3.49102 14.6698 3.93753 15.3843 5.66404 15.3843H10.1515C12.064 15.3843 12.2799 14.7145 12.5254 13.4196L13.7757 6.90799C13.8352 6.60287 14.1254 6.40194 14.4306 6.46892C14.7357 6.52845 14.9292 6.81868 14.8696 7.1238L13.6194 13.6354C13.3292 15.1461 12.8454 16.5005 10.1515 16.5005H5.66404Z" fill="#404040"/>
</svg>
