<svg width="16" height="16" viewBox="0 0 16 16" fill="none" xmlns="http://www.w3.org/2000/svg">
<path d="M6.15479 8.38318C6.3988 8.38318 6.6029 8.58547 6.60303 8.82947V9.43982H7.30908C7.55883 9.44003 7.75519 9.64229 7.75537 9.88611C7.75537 10.1301 7.553 10.3332 7.30908 10.3334H6.60303V10.9427C6.60303 11.1868 6.39888 11.39 6.15479 11.39C5.91088 11.3898 5.70752 11.1867 5.70752 10.9427V10.3334H5.00146C4.75747 10.3333 4.55518 10.1301 4.55518 9.88611C4.55536 9.64224 4.75758 9.43994 5.00146 9.43982H5.70752V8.82947C5.70764 8.57966 5.91094 8.38339 6.15479 8.38318Z" fill="white"/>
<path fill-rule="evenodd" clip-rule="evenodd" d="M11.0366 1.59998C13.3643 1.59998 14.4008 2.63567 14.4009 4.96326V7.46423C14.4008 9.79191 13.3644 10.8275 11.0366 10.8275H10.8286V11.0365C10.8285 13.3641 9.79205 14.3998 7.46436 14.3998H4.96436C2.63666 14.3998 1.60021 13.3641 1.6001 11.0365V8.53552C1.60014 6.20781 2.63659 5.17224 4.96436 5.17224H5.17236V4.96326C5.17246 2.63567 6.20891 1.59998 8.53662 1.59998H11.0366ZM4.96436 6.06482C3.11882 6.06482 2.49369 6.69005 2.49365 8.53552V11.0365C2.49373 12.8818 3.1189 13.5072 4.96436 13.5072H7.46436C9.30981 13.5072 9.93498 12.8818 9.93506 11.0365V8.53552C9.93503 6.69005 9.30989 6.06482 7.46436 6.06482H4.96436ZM8.53662 2.49255C6.69115 2.49255 6.06599 3.11792 6.06592 4.96326V5.17224H7.46436C9.79212 5.17224 10.8286 6.20781 10.8286 8.53552V9.93494H11.0366C12.8821 9.93494 13.5073 9.30966 13.5073 7.46423V4.96326C13.5073 3.11792 12.8821 2.49255 11.0366 2.49255H8.53662Z" fill="white"/>
</svg>
