<svg xmlns="http://www.w3.org/2000/svg" xmlns:xlink="http://www.w3.org/1999/xlink" width="80" height="80"><defs><circle id="a" cx="40" cy="40" r="40"/></defs><g fill="none" fill-rule="evenodd"><mask id="b" fill="#fff"><use xlink:href="#a"/></mask><use xlink:href="#a" fill="#FFF"/><circle cx="40" cy="40" r="40" fill="#ECF0FE" mask="url(#b)"/><path fill="#FFF" fill-opacity=".302" d="M-21-3H98v69H-21z" mask="url(#b)"/><g mask="url(#b)"><g transform="translate(16 18)"><path stroke="#879EF5" stroke-linecap="round" stroke-width="3.5" d="m31.136 0 9.626 9.531M18.15 0 8.522 9.531"/><path fill="#436AF5" d="M33.472 47.353H13.595a6 6 0 0 1-5.925-5.05l-3.572-22.28H2a2 2 0 0 1-2-2V12a2 2 0 0 1 2-2h44a2 2 0 0 1 2 2v7.163a2 2 0 0 1-2 2h-2.458L39.36 42.507a6 6 0 0 1-5.888 4.846Z"/><g fill="#FFF"><path d="M18 33c0-3.31 2.69-6 6-6s6 2.69 6 6-2.69 6-6 6-6-2.69-6-6Zm1.895 0A4.113 4.113 0 0 0 24 37.105 4.113 4.113 0 0 0 28.105 33 4.113 4.113 0 0 0 24 28.895 4.113 4.113 0 0 0 19.895 33Z"/><path fill-rule="nonzero" d="m22.182 34.478-.82-.821a.953.953 0 0 1 0-1.339.953.953 0 0 1 1.338 0l.606.606 2.034-1.87a.954.954 0 0 1 1.339.051.954.954 0 0 1-.05 1.34l-2.249 2.07c-.316.291-.707.43-1.086.43-.404 0-.809-.151-1.112-.467Z"/></g><rect width="49" height="13" y="9" fill="#879EF5" rx="3"/></g></g></g></svg>