<svg width="84" height="71" viewBox="0 0 84 71" fill="none" xmlns="http://www.w3.org/2000/svg">
<path d="M14.0309 24.0534C13.6972 22.6176 14.7872 21.2452 16.2612 21.2452H73.447C74.921 21.2452 76.011 22.6176 75.6773 24.0534L66.0206 65.5985C65.3535 68.4686 62.7957 70.5 59.8491 70.5H29.8592C26.9125 70.5 24.3548 68.4686 23.6876 65.5985L14.0309 24.0534Z" fill="url(#paint0_linear_6_6260)"/>
<path d="M75.7222 5.02375C76.555 4.19097 76.555 2.84077 75.7222 2.00799C74.8894 1.17521 73.5392 1.17521 72.7065 2.00799L54.6739 20.0405C53.8412 20.8733 53.8412 22.2235 54.6739 23.0563C55.5067 23.889 56.8569 23.889 57.6897 23.0563L75.7222 5.02375Z" fill="url(#paint1_linear_6_6260)"/>
<rect width="76.4416" height="15.738" rx="6.54975" transform="matrix(-1 0 0 1 83.2156 13.2326)" fill="url(#paint2_linear_6_6260)"/>
<path d="M13.7195 5.02372C12.8868 4.19094 12.8868 2.84074 13.7195 2.00796C14.5523 1.17518 15.9025 1.17518 16.7353 2.00796L34.7678 20.0405C35.6006 20.8733 35.6006 22.2235 34.7678 23.0562C33.935 23.889 32.5848 23.889 31.7521 23.0562L13.7195 5.02372Z" fill="url(#paint3_linear_6_6260)"/>
<circle cx="78.0629" cy="49.2954" r="2.86145" fill="#D1AFE9"/>
<path d="M51.4194 4.53236C50.9702 6.09747 51.4218 7.78271 52.5933 8.91354C51.0282 8.46434 49.343 8.91589 48.2122 10.0875C48.6614 8.52236 48.2098 6.83712 47.0382 5.70629C48.6033 6.15549 50.2886 5.70394 51.4194 4.53236Z" fill="#D1AFE9"/>
<path d="M6.70574 53.9854C8.33237 56.6783 11.3128 58.2532 14.4541 58.0797C11.7612 59.7063 10.1863 62.6867 10.3598 65.828C8.73316 63.1351 5.75272 61.5602 2.61145 61.7337C5.30436 60.1071 6.87925 57.1267 6.70574 53.9854Z" fill="#D1AFE9"/>
<defs>
<linearGradient id="paint0_linear_6_6260" x1="94.0987" y1="22.7857" x2="12.8372" y2="27.2374" gradientUnits="userSpaceOnUse">
<stop stop-color="#F6EFFB"/>
<stop offset="1" stop-color="#AC6CDA"/>
</linearGradient>
<linearGradient id="paint1_linear_6_6260" x1="77.2258" y1="-0.434953" x2="78.8694" y2="1.43611" gradientUnits="userSpaceOnUse">
<stop stop-color="#F6EFFB"/>
<stop offset="1" stop-color="#F6EFFB"/>
</linearGradient>
<linearGradient id="paint2_linear_6_6260" x1="50.1256" y1="-1.47543" x2="42.4323" y2="15.4046" gradientUnits="userSpaceOnUse">
<stop stop-color="#F6EFFB"/>
<stop offset="1" stop-color="#F6EFFB"/>
</linearGradient>
<linearGradient id="paint3_linear_6_6260" x1="12.2159" y1="-0.434983" x2="10.5724" y2="1.43608" gradientUnits="userSpaceOnUse">
<stop stop-color="#F6EFFB"/>
<stop offset="1" stop-color="#F6EFFB"/>
</linearGradient>
</defs>
</svg>
