<svg width="16" height="16" viewBox="0 0 16 16" fill="none" xmlns="http://www.w3.org/2000/svg">
<g clip-path="url(#clip0_252_1827)">
<g clip-path="url(#clip1_252_1827)">
<path d="M0 2C0 0.895431 0.895431 0 2 0H14C15.1046 0 16 0.895431 16 2V14C16 15.1046 15.1046 16 14 16H2C0.895431 16 0 15.1046 0 14V2Z" fill="#436AF5"/>
<path d="M6.0475 11.2851L3.2175 8.52128C2.9275 8.23805 2.9275 7.76927 3.2175 7.48605C3.5075 7.20283 3.9875 7.20283 4.2775 7.48605L6.5775 9.7323L11.7175 4.71242C12.0075 4.42919 12.4875 4.42919 12.7775 4.71242C13.0675 4.99564 13.0675 5.46442 12.7775 5.74765L7.1075 11.2851C6.9675 11.4219 6.7775 11.5 6.5775 11.5C6.3775 11.5 6.1875 11.4219 6.0475 11.2851Z" fill="#ECF0FE"/>
</g>
</g>
<defs>
<clipPath id="clip0_252_1827">
<rect width="16" height="16" fill="white"/>
</clipPath>
<clipPath id="clip1_252_1827">
<rect width="16" height="16" fill="white"/>
</clipPath>
</defs>
</svg>
