<svg width="16" height="16" viewBox="0 0 16 16" fill="none" xmlns="http://www.w3.org/2000/svg">
<g clip-path="url(#clip0_252_1957)">
<g clip-path="url(#clip1_252_1957)">
<mask id="path-1-inside-1_252_1957" fill="white">
<path d="M0 2C0 0.895431 0.895431 0 2 0H14C15.1046 0 16 0.895431 16 2V14C16 15.1046 15.1046 16 14 16H2C0.895431 16 0 15.1046 0 14V2Z"/>
</mask>
<path d="M0 2C0 0.895431 0.895431 0 2 0H14C15.1046 0 16 0.895431 16 2V14C16 15.1046 15.1046 16 14 16H2C0.895431 16 0 15.1046 0 14V2Z" fill="#ECF0FE"/>
<path d="M2 0V1H14V0V-1H2V0ZM16 2H15V14H16H17V2H16ZM14 16V15H2V16V17H14V16ZM0 14H1V2H0H-1V14H0ZM2 16V15C1.44772 15 1 14.5523 1 14H0H-1C-1 15.6569 0.343146 17 2 17V16ZM16 14H15C15 14.5523 14.5523 15 14 15V16V17C15.6569 17 17 15.6569 17 14H16ZM14 0V1C14.5523 1 15 1.44772 15 2H16H17C17 0.343146 15.6569 -1 14 -1V0ZM2 0V-1C0.343146 -1 -1 0.343146 -1 2H0H1C1 1.44772 1.44772 1 2 1V0Z" fill="#436AF5" mask="url(#path-1-inside-1_252_1957)"/>
</g>
</g>
<defs>
<clipPath id="clip0_252_1957">
<rect width="16" height="16" fill="white"/>
</clipPath>
<clipPath id="clip1_252_1957">
<rect width="16" height="16" fill="white"/>
</clipPath>
</defs>
</svg>
