<svg width="24" height="24" viewBox="0 0 24 24" fill="none" xmlns="http://www.w3.org/2000/svg">
<g clip-path="url(#clip0_538_19950)">
<g clip-path="url(#clip1_538_19950)">
<rect width="24" height="24" fill="white"/>
<rect width="24" height="24" fill="#436AF5"/>
<rect x="0.0533248" y="0.0533248" width="23.8934" height="23.8934" stroke="black" stroke-opacity="0.05" stroke-width="0.10665" stroke-linejoin="bevel"/>
<path d="M11.34 7.57031C11.5471 7.57031 11.715 7.73821 11.715 7.94531V18.9704L10.1705 16.4697V12.8291H8.35011C8.15577 12.8291 7.9752 12.7287 7.87253 12.5637L7.0079 11.1742H10.1705V9.74002H6.34204C6.20796 9.74002 6.08407 9.66842 6.01712 9.55225L4.875 7.57031H11.34Z" fill="white"/>
<path d="M17.9829 9.55225C17.9159 9.66842 17.792 9.74002 17.658 9.74002H13.8295V11.1742H16.9553L16.1263 12.556C16.0246 12.7254 15.8415 12.8291 15.6439 12.8291H13.8295V16.4697L12.285 18.9704V7.94531C12.285 7.73821 12.4529 7.57031 12.66 7.57031H19.125L17.9829 9.55225Z" fill="white"/>
<path d="M11.3398 7.42969C11.6246 7.42969 11.8555 7.66055 11.8555 7.94531V19.4658L11.5957 19.0439L10.0508 16.5439L10.0303 16.5098V12.9697H8.35059C8.13813 12.9697 7.93817 12.8739 7.80566 12.7119L7.75293 12.6377L6.88867 11.249L6.75488 11.0332H10.0303V9.88086H6.3418C6.18069 9.88078 6.03035 9.8053 5.93359 9.67969L5.89551 9.62207L4.75293 7.64062L4.63184 7.42969H11.3398ZM19.3682 7.42969L19.2471 7.64062L18.1045 9.62207C18.0125 9.78173 17.8425 9.88077 17.6582 9.88086H13.9697V11.0332H17.2041L17.0762 11.2471L16.2471 12.6279C16.1358 12.8133 15.9464 12.9362 15.7354 12.9639L15.6436 12.9697H13.9697V16.5098L13.9492 16.5439L12.4043 19.0439L12.1445 19.4658V7.94531L12.1553 7.8418C12.2032 7.6067 12.4109 7.42969 12.6602 7.42969H19.3682Z" stroke="black" stroke-opacity="0.1" stroke-width="0.28125"/>
<mask id="path-6-outside-1_538_19950" maskUnits="userSpaceOnUse" x="3.875" y="6.57031" width="16" height="13" fill="black">
<rect fill="white" x="3.875" y="6.57031" width="16" height="13"/>
<path d="M11.3398 7.57031C11.5469 7.57031 11.7147 7.7383 11.7148 7.94531V18.9707L10.1709 16.4697V12.8291H8.35059C8.15624 12.8291 7.97474 12.7285 7.87207 12.5635L7.00781 11.1748H10.1709V9.74023H6.3418C6.20797 9.74014 6.08453 9.66859 6.01758 9.55273L4.875 7.57031H11.3398ZM17.9824 9.55273C17.9154 9.66851 17.792 9.74015 17.6582 9.74023H13.8291V11.1738H16.9551L16.126 12.5557C16.0243 12.7251 15.8411 12.8291 15.6436 12.8291H13.8291V16.4697L12.2852 18.9707V7.94531C12.2852 7.73821 12.4531 7.57031 12.6602 7.57031H19.125L17.9824 9.55273Z"/>
</mask>
<path d="M11.3398 7.57031C11.5469 7.57031 11.7147 7.7383 11.7148 7.94531V18.9707L10.1709 16.4697V12.8291H8.35059C8.15624 12.8291 7.97474 12.7285 7.87207 12.5635L7.00781 11.1748H10.1709V9.74023H6.3418C6.20797 9.74014 6.08453 9.66859 6.01758 9.55273L4.875 7.57031H11.3398ZM17.9824 9.55273C17.9154 9.66851 17.792 9.74015 17.6582 9.74023H13.8291V11.1738H16.9551L16.126 12.5557C16.0243 12.7251 15.8411 12.8291 15.6436 12.8291H13.8291V16.4697L12.2852 18.9707V7.94531C12.2852 7.73821 12.4531 7.57031 12.6602 7.57031H19.125L17.9824 9.55273Z" fill="white"/>
<path d="M11.7148 7.94531L11.8086 7.94531L11.8086 7.94526L11.7148 7.94531ZM11.7148 18.9707L11.6351 19.02L11.8086 19.301V18.9707H11.7148ZM10.1709 16.4697H10.0771V16.4963L10.0911 16.519L10.1709 16.4697ZM10.1709 12.8291H10.2646V12.7354H10.1709V12.8291ZM7.87207 12.5635L7.95167 12.5139L7.95166 12.5139L7.87207 12.5635ZM7.00781 11.1748V11.0811H6.83904L6.92822 11.2243L7.00781 11.1748ZM10.1709 11.1748V11.2686H10.2646V11.1748H10.1709ZM10.1709 9.74023H10.2646V9.64648H10.1709V9.74023ZM6.3418 9.74023L6.34173 9.83398H6.3418V9.74023ZM6.01758 9.55273L5.93635 9.59955L5.93641 9.59964L6.01758 9.55273ZM4.875 7.57031V7.47656H4.71276L4.79378 7.61713L4.875 7.57031ZM17.9824 9.55273L18.0636 9.59968L18.0636 9.59955L17.9824 9.55273ZM17.6582 9.74023L17.6582 9.83398L17.6583 9.83398L17.6582 9.74023ZM13.8291 9.74023V9.64648H13.7354V9.74023H13.8291ZM13.8291 11.1738H13.7354V11.2676H13.8291V11.1738ZM16.9551 11.1738L17.0355 11.2221L17.1207 11.0801H16.9551V11.1738ZM16.126 12.5557L16.2064 12.6039L16.2064 12.6039L16.126 12.5557ZM13.8291 12.8291V12.7354H13.7354V12.8291H13.8291ZM13.8291 16.4697L13.9089 16.519L13.9229 16.4963V16.4697H13.8291ZM12.2852 18.9707H12.1914V19.301L12.3649 19.02L12.2852 18.9707ZM12.2852 7.94531L12.1914 7.94531V7.94531H12.2852ZM19.125 7.57031L19.2062 7.61713L19.2872 7.47656H19.125V7.57031ZM11.3398 7.57031V7.66406C11.4951 7.66406 11.621 7.79004 11.6211 7.94536L11.7148 7.94531L11.8086 7.94526C11.8085 7.68656 11.5987 7.47656 11.3398 7.47656V7.57031ZM11.7148 7.94531H11.6211V18.9707H11.7148H11.8086V7.94531H11.7148ZM11.7148 18.9707L11.7946 18.9215L10.2507 16.4205L10.1709 16.4697L10.0911 16.519L11.6351 19.02L11.7148 18.9707ZM10.1709 16.4697H10.2646V12.8291H10.1709H10.0771V16.4697H10.1709ZM10.1709 12.8291V12.7354H8.35059V12.8291V12.9229H10.1709V12.8291ZM8.35059 12.8291V12.7354C8.18856 12.7354 8.03719 12.6514 7.95167 12.5139L7.87207 12.5635L7.79247 12.613C7.91229 12.8056 8.12392 12.9229 8.35059 12.9229V12.8291ZM7.87207 12.5635L7.95166 12.5139L7.08741 11.1253L7.00781 11.1748L6.92822 11.2243L7.79248 12.613L7.87207 12.5635ZM7.00781 11.1748V11.2686H10.1709V11.1748V11.0811H7.00781V11.1748ZM10.1709 11.1748H10.2646V9.74023H10.1709H10.0771V11.1748H10.1709ZM10.1709 9.74023V9.64648H6.3418V9.74023V9.83398H10.1709V9.74023ZM6.3418 9.74023L6.34187 9.64648C6.24162 9.64641 6.14902 9.59282 6.09875 9.50583L6.01758 9.55273L5.93641 9.59964C6.02004 9.74436 6.17433 9.83386 6.34173 9.83398L6.3418 9.74023ZM6.01758 9.55273L6.0988 9.50592L4.95622 7.5235L4.875 7.57031L4.79378 7.61713L5.93635 9.59955L6.01758 9.55273ZM4.875 7.57031V7.66406H11.3398V7.57031V7.47656H4.875V7.57031ZM17.9824 9.55273L17.9013 9.50579C17.8509 9.59278 17.7583 9.64642 17.6581 9.64648L17.6582 9.74023L17.6583 9.83398C17.8257 9.83388 17.9799 9.74425 18.0636 9.59968L17.9824 9.55273ZM17.6582 9.74023V9.64648H13.8291V9.74023V9.83398H17.6582V9.74023ZM13.8291 9.74023H13.7354V11.1738H13.8291H13.9229V9.74023H13.8291ZM13.8291 11.1738V11.2676H16.9551V11.1738V11.0801H13.8291V11.1738ZM16.9551 11.1738L16.8747 11.1256L16.0456 12.5074L16.126 12.5557L16.2064 12.6039L17.0355 11.2221L16.9551 11.1738ZM16.126 12.5557L16.0456 12.5074C15.9608 12.6487 15.8081 12.7354 15.6436 12.7354V12.8291V12.9229C15.8742 12.9229 16.0878 12.8015 16.2064 12.6039L16.126 12.5557ZM15.6436 12.8291V12.7354H13.8291V12.8291V12.9229H15.6436V12.8291ZM13.8291 12.8291H13.7354V16.4697H13.8291H13.9229V12.8291H13.8291ZM13.8291 16.4697L13.7493 16.4205L12.2054 18.9215L12.2852 18.9707L12.3649 19.02L13.9089 16.519L13.8291 16.4697ZM12.2852 18.9707H12.3789V7.94531H12.2852H12.1914V18.9707H12.2852ZM12.2852 7.94531L12.3789 7.94532C12.3789 7.78999 12.5048 7.66406 12.6602 7.66406V7.57031V7.47656C12.4013 7.47656 12.1914 7.68644 12.1914 7.94531L12.2852 7.94531ZM12.6602 7.57031V7.66406H19.125V7.57031V7.47656H12.6602V7.57031ZM19.125 7.57031L19.0438 7.5235L17.9012 9.50592L17.9824 9.55273L18.0636 9.59955L19.2062 7.61713L19.125 7.57031Z" fill="black" fill-opacity="0.2" mask="url(#path-6-outside-1_538_19950)"/>
<g opacity="0.4" filter="url(#filter0_f_538_19950)">
<ellipse cx="12.045" cy="12.1336" rx="11.4864" ry="11.3977" fill="url(#paint0_linear_538_19950)"/>
</g>
<g opacity="0.4" filter="url(#filter1_f_538_19950)">
<path d="M21.6967 22.3985V3.18936C21.6967 2.64297 21.2504 2.20004 20.6997 2.20004H1.34113C0.859329 2.20004 0.46875 1.81248 0.46875 1.3344C0.46875 0.856313 0.859329 0.46875 1.34113 0.46875H20.6997C22.214 0.46875 23.4415 1.68681 23.4415 3.18936V22.3985C23.4415 22.8766 23.0509 23.2641 22.5691 23.2641C22.0873 23.2641 21.6967 22.8766 21.6967 22.3985Z" fill="url(#paint1_linear_538_19950)"/>
</g>
<g opacity="0.2" filter="url(#filter2_f_538_19950)">
<path d="M0.513221 1.33284C0.513221 0.85562 0.900084 0.468757 1.3773 0.468757C1.85453 0.468757 2.24139 0.85562 2.24139 1.33284V16.8485C2.24139 19.4373 4.34006 21.536 6.92889 21.536H22.4445C22.9217 21.536 23.3086 21.9228 23.3086 22.4C23.3086 22.8773 22.9217 23.2641 22.4445 23.2641H1.39888C0.924745 23.2641 0.513226 22.8824 0.513221 22.3787V1.33284Z" fill="url(#paint2_linear_538_19950)"/>
</g>
</g>
</g>
<defs>
<filter id="filter0_f_538_19950" x="-3.19141" y="-3.01413" width="30.4727" height="30.2954" filterUnits="userSpaceOnUse" color-interpolation-filters="sRGB">
<feFlood flood-opacity="0" result="BackgroundImageFix"/>
<feBlend mode="normal" in="SourceGraphic" in2="BackgroundImageFix" result="shape"/>
<feGaussianBlur stdDeviation="1.875" result="effect1_foregroundBlur_538_19950"/>
</filter>
<filter id="filter1_f_538_19950" x="-3.28125" y="-3.28125" width="30.4727" height="30.2954" filterUnits="userSpaceOnUse" color-interpolation-filters="sRGB">
<feFlood flood-opacity="0" result="BackgroundImageFix"/>
<feBlend mode="normal" in="SourceGraphic" in2="BackgroundImageFix" result="shape"/>
<feGaussianBlur stdDeviation="1.875" result="effect1_foregroundBlur_538_19950"/>
</filter>
<filter id="filter2_f_538_19950" x="-3.23682" y="-3.28125" width="30.2954" height="30.2954" filterUnits="userSpaceOnUse" color-interpolation-filters="sRGB">
<feFlood flood-opacity="0" result="BackgroundImageFix"/>
<feBlend mode="normal" in="SourceGraphic" in2="BackgroundImageFix" result="shape"/>
<feGaussianBlur stdDeviation="1.875" result="effect1_foregroundBlur_538_19950"/>
</filter>
<linearGradient id="paint0_linear_538_19950" x1="16.5939" y1="22.1953" x2="15.1587" y2="19.7473" gradientUnits="userSpaceOnUse">
<stop stop-color="white" stop-opacity="0.5"/>
<stop offset="1" stop-color="white" stop-opacity="0"/>
</linearGradient>
<linearGradient id="paint1_linear_538_19950" x1="21.2109" y1="2.50781" x2="11.1118" y2="17.9078" gradientUnits="userSpaceOnUse">
<stop stop-color="white"/>
<stop offset="1" stop-color="white" stop-opacity="0"/>
</linearGradient>
<linearGradient id="paint2_linear_538_19950" x1="2.38967" y1="-0.365219" x2="2.59817" y2="17.38" gradientUnits="userSpaceOnUse">
<stop stop-opacity="0"/>
<stop offset="1"/>
</linearGradient>
<clipPath id="clip0_538_19950">
<rect width="24" height="24" rx="4" fill="white"/>
</clipPath>
<clipPath id="clip1_538_19950">
<rect width="24" height="24" fill="white"/>
</clipPath>
</defs>
</svg>
