<svg width="25" height="24" viewBox="0 0 25 24" fill="none" xmlns="http://www.w3.org/2000/svg">
<g id="Group 39953">
<g id="Group 753">
<path id="Vector 31" d="M1.0829 9.58948L10.245 15.3158L18.2619 7.87158" stroke="#FF8C00" stroke-width="1.2"/>
<path id="Intersect" d="M1.73898 14.269L9.98845 20.2404L10.3954 20.535L10.7569 20.1861L13.4894 17.5488V23.3601C13.1792 23.3865 12.8652 23.4 12.548 23.4C7.11795 23.4 2.6099 19.4513 1.73898 14.269ZM17.3797 22.591C17.312 22.6313 17.2216 22.6736 17.1 22.7176V13.8022L17.526 13.4865V22.4604C17.5041 22.4996 17.4649 22.5402 17.3797 22.591Z" stroke="#FF8C00" stroke-width="1.2"/>
<path id="Vector 32" d="M14.8261 7.87158H18.2619V11.3074" stroke="#FF8C00" stroke-width="1.2"/>
<path id="Ellipse 1" d="M19.9925 21.1451C21.3802 19.9546 22.4626 18.4493 23.1494 16.7549C23.8363 15.0605 24.1074 13.2263 23.9403 11.4056C23.7731 9.58495 23.1725 7.83077 22.1886 6.28975C21.2048 4.74873 19.8663 3.46564 18.2851 2.54779C16.7039 1.62993 14.9259 1.10398 13.0998 1.01391C11.2737 0.923836 9.45258 1.27226 7.78871 2.03005C6.12484 2.78785 4.66657 3.93298 3.53584 5.3697C2.40512 6.80642 1.63479 8.49297 1.28928 10.2883" stroke="#FF8C00" stroke-width="1.2"/>
</g>
</g>
</svg>
