<svg width="28" height="28" viewBox="0 0 28 28" fill="none" xmlns="http://www.w3.org/2000/svg">
<path d="M8.77913 16.2598H6.53303L9.94123 19.9766L13.659 16.2598H11.0731V6H8.77913V16.2598ZM12.0731 15.2598H14.6678C15.1866 15.2598 15.4468 15.887 15.0799 16.2539L10.3397 20.9932C10.1052 21.2274 9.72283 21.219 9.49885 20.9746L5.15413 16.2354C4.81173 15.8618 5.07711 15.2598 5.58381 15.2598H7.77913V5.58203C7.7793 5.26055 8.03964 5 8.36116 5H11.4901C11.8116 5 12.0729 5.26055 12.0731 5.58203V15.2598Z" fill="#1A1A1A"/>
<path d="M19.4213 9.94023H21.6674L18.2602 6.22246L14.5405 9.94023H17.1274V20.199H19.4213V9.94023ZM16.1274 10.9402H13.5327C13.0139 10.9402 12.7538 10.313 13.1206 9.94609L17.8608 5.20585C18.0953 4.97185 18.4777 4.98015 18.7016 5.22441L23.0463 9.96464C23.3884 10.3382 23.1233 10.9402 22.6166 10.9402H20.4213V20.617C20.4212 20.9385 20.1608 21.199 19.8393 21.199H16.7104C16.3889 21.199 16.1276 20.9385 16.1274 20.617V10.9402Z" fill="#1A1A1A"/>
</svg>
