<svg width="24" height="24" viewBox="0 0 24 24" fill="none" xmlns="http://www.w3.org/2000/svg">
<path d="M9 22.75C3.57 22.75 1.25 20.43 1.25 15V9C1.25 3.57 3.57 1.25 9 1.25H15C20.43 1.25 22.75 3.57 22.75 9V13C22.75 13.41 22.41 13.75 22 13.75C21.59 13.75 21.25 13.41 21.25 13V9C21.25 4.39 19.61 2.75 15 2.75H9C4.39 2.75 2.75 4.39 2.75 9V15C2.75 19.61 4.39 21.25 9 21.25H13C13.41 21.25 13.75 21.59 13.75 22C13.75 22.41 13.41 22.75 13 22.75H9Z" fill="#436AF5"/>
<path d="M9 22.75C3.57 22.75 1.25 20.43 1.25 15V9C1.25 3.57 3.57 1.25 9 1.25H15C20.43 1.25 22.75 3.57 22.75 9V13C22.75 13.41 22.41 13.75 22 13.75C21.59 13.75 21.25 13.41 21.25 13V9C21.25 4.39 19.61 2.75 15 2.75H9C4.39 2.75 2.75 4.39 2.75 9V15C2.75 19.61 4.39 21.25 9 21.25H13C13.41 21.25 13.75 21.59 13.75 22C13.75 22.41 13.41 22.75 13 22.75H9Z" fill="#436AF5"/>
<path d="M9 22.75C3.57 22.75 1.25 20.43 1.25 15V9C1.25 3.57 3.57 1.25 9 1.25H15C20.43 1.25 22.75 3.57 22.75 9V13C22.75 13.41 22.41 13.75 22 13.75C21.59 13.75 21.25 13.41 21.25 13V9C21.25 4.39 19.61 2.75 15 2.75H9C4.39 2.75 2.75 4.39 2.75 9V15C2.75 19.61 4.39 21.25 9 21.25H13C13.41 21.25 13.75 21.59 13.75 22C13.75 22.41 13.41 22.75 13 22.75H9Z" fill="#436AF5"/>
<path d="M11 13.96V10.75C11 10.34 11.34 10 11.75 10C12.16 10 12.5 10.34 12.5 10.75V13.96C12.5 14.38 12.16 14.71 11.75 14.71C11.34 14.71 11 14.37 11 13.96Z" fill="#436AF5"/>
<path d="M7 16.43V9.75C7 9.34 7.34 9 7.75 9C8.16 9 8.5 9.34 8.5 9.75V16.43C8.5 16.84 8.16 17.18 7.75 17.18C7.34 17.18 7 16.84 7 16.43Z" fill="#436AF5"/>
<path d="M14 9.96V6.75C14 6.34 14.34 6 14.75 6C15.16 6 15.5 6.34 15.5 6.75V9.96C15.5 10.38 15.16 10.71 14.75 10.71C14.34 10.71 14 10.37 14 9.96Z" fill="#436AF5"/>
<path fill-rule="evenodd" clip-rule="evenodd" d="M16.735 22.3195C16.36 22.1795 16.12 21.8295 16.12 21.4295V18.2045H14.95C14.57 18.2045 14.24 17.9895 14.085 17.6445C13.93 17.2995 13.99 16.9095 14.24 16.6245L18.025 12.3245C18.29 12.0245 18.7 11.9195 19.075 12.0645C19.45 12.2045 19.69 12.5545 19.69 12.9545V16.1795H20.86C21.24 16.1795 21.57 16.3945 21.725 16.7395C21.88 17.0845 21.82 17.4745 21.57 17.7595L17.785 22.0595C17.6 22.2695 17.34 22.3795 17.075 22.3795C16.96 22.3795 16.845 22.3595 16.735 22.3195ZM18.585 12.8195L14.8 17.1245C14.72 17.2145 14.75 17.3045 14.765 17.3395C14.78 17.3745 14.83 17.4595 14.95 17.4595H16.495C16.7 17.4595 16.87 17.6295 16.87 17.8345V21.4345C16.87 21.5595 16.96 21.6095 17 21.6245C17.04 21.6395 17.14 21.6645 17.22 21.5695L21.005 17.2645C21.085 17.1745 21.055 17.0845 21.04 17.0495C21.025 17.0145 20.975 16.9295 20.855 16.9295H19.31C19.105 16.9295 18.935 16.7595 18.935 16.5545V12.9545C18.935 12.8295 18.845 12.7795 18.805 12.7645C18.79 12.7545 18.76 12.7495 18.73 12.7495C18.685 12.7495 18.63 12.7645 18.585 12.8195Z" fill="#436AF5"/>
<path d="M16.735 22.3195L16.6476 22.5537L16.6496 22.5544L16.735 22.3195ZM16.12 18.2045H16.37V17.9545H16.12V18.2045ZM14.24 16.6245L14.0524 16.4593L14.0521 16.4596L14.24 16.6245ZM18.025 12.3245L17.8377 12.159L17.8374 12.1593L18.025 12.3245ZM19.075 12.0645L18.9849 12.2977L18.9876 12.2987L19.075 12.0645ZM19.69 16.1795H19.44V16.4295H19.69V16.1795ZM21.57 17.7595L21.7577 17.9247L21.758 17.9243L21.57 17.7595ZM17.785 22.0595L17.9726 22.2247L17.9727 22.2247L17.785 22.0595ZM18.585 12.8195L18.7729 12.9847L18.7785 12.9778L18.585 12.8195ZM14.8 17.1245L14.9869 17.2906L14.9878 17.2896L14.8 17.1245ZM17.22 21.5695L17.0322 21.4044L17.0288 21.4085L17.22 21.5695ZM21.005 17.2645L20.8182 17.0984L20.8173 17.0994L21.005 17.2645ZM18.805 12.7645L18.6663 12.9725L18.6903 12.9885L18.7172 12.9986L18.805 12.7645ZM16.8225 22.0853C16.5464 21.9822 16.37 21.7264 16.37 21.4295H15.87C15.87 21.9326 16.1737 22.3768 16.6476 22.5537L16.8225 22.0853ZM16.37 21.4295V18.2045H15.87V21.4295H16.37ZM16.12 17.9545H14.95V18.4545H16.12V17.9545ZM14.95 17.9545C14.6689 17.9545 14.4279 17.7976 14.3131 17.542L13.857 17.7469C14.0521 18.1813 14.4712 18.4545 14.95 18.4545V17.9545ZM14.3131 17.542C14.1986 17.2872 14.2419 17.0015 14.428 16.7893L14.0521 16.4596C13.7382 16.8175 13.6615 17.3118 13.857 17.7469L14.3131 17.542ZM14.4277 16.7897L18.2127 12.4897L17.8374 12.1593L14.0524 16.4593L14.4277 16.7897ZM18.2124 12.49C18.4097 12.2666 18.7096 12.1912 18.9849 12.2977L19.1652 11.8313C18.6904 11.6477 18.1703 11.7824 17.8377 12.159L18.2124 12.49ZM18.9876 12.2987C19.2637 12.4018 19.44 12.6576 19.44 12.9545H19.94C19.94 12.4514 19.6364 12.0072 19.1625 11.8303L18.9876 12.2987ZM19.44 12.9545V16.1795H19.94V12.9545H19.44ZM19.69 16.4295H20.86V15.9295H19.69V16.4295ZM20.86 16.4295C21.1412 16.4295 21.3821 16.5863 21.497 16.8419L21.9531 16.637C21.7579 16.2026 21.3389 15.9295 20.86 15.9295V16.4295ZM21.497 16.8419C21.6115 17.0968 21.5682 17.3825 21.3821 17.5946L21.758 17.9243C22.0719 17.5665 22.1486 17.0722 21.9531 16.637L21.497 16.8419ZM21.3824 17.5943L17.5974 21.8943L17.9727 22.2247L21.7577 17.9247L21.3824 17.5943ZM17.5974 21.8942C17.4616 22.0484 17.2708 22.1295 17.075 22.1295V22.6295C17.4092 22.6295 17.7385 22.4905 17.9726 22.2247L17.5974 21.8942ZM17.075 22.1295C16.989 22.1295 16.903 22.1145 16.8205 22.0845L16.6496 22.5544C16.7871 22.6044 16.931 22.6295 17.075 22.6295V22.1295ZM18.3973 12.6544L14.6123 16.9594L14.9878 17.2896L18.7728 12.9846L18.3973 12.6544ZM14.6132 16.9584C14.4353 17.1585 14.507 17.3722 14.5352 17.438L14.9948 17.241C14.9938 17.2386 14.9971 17.2447 14.9969 17.2567C14.9967 17.2637 14.9954 17.2718 14.9925 17.2797C14.9894 17.2878 14.9862 17.2913 14.9869 17.2906L14.6132 16.9584ZM14.5352 17.438C14.5664 17.5107 14.682 17.7095 14.95 17.7095V17.2095C14.9499 17.2095 14.9513 17.2095 14.9539 17.21C14.9565 17.2105 14.9599 17.2113 14.9636 17.2128C14.9713 17.2158 14.9778 17.2201 14.9825 17.2242C14.9869 17.2281 14.9895 17.2314 14.9908 17.2335C14.9921 17.2354 14.9934 17.2377 14.9948 17.241L14.5352 17.438ZM14.95 17.7095H16.495V17.2095H14.95V17.7095ZM16.495 17.7095C16.562 17.7095 16.62 17.7676 16.62 17.8345H17.12C17.12 17.4914 16.8381 17.2095 16.495 17.2095V17.7095ZM16.62 17.8345V21.4345H17.12V17.8345H16.62ZM16.62 21.4345C16.62 21.7133 16.8312 21.8282 16.9122 21.8586L17.0878 21.3904C17.0911 21.3917 17.0932 21.3927 17.0949 21.3938C17.0967 21.3949 17.1002 21.3973 17.1043 21.4018C17.1087 21.4066 17.1134 21.4133 17.1166 21.4214C17.12 21.4297 17.12 21.435 17.12 21.4345H16.62ZM16.9122 21.8586C16.9824 21.8849 17.2254 21.9512 17.4112 21.7305L17.0288 21.4085C17.0293 21.4078 17.0343 21.4025 17.0444 21.3973C17.0542 21.3923 17.064 21.39 17.0717 21.3893C17.0788 21.3887 17.0834 21.3894 17.085 21.3896C17.0866 21.3899 17.0874 21.3902 17.0878 21.3904L16.9122 21.8586ZM17.4078 21.7346L21.1928 17.4296L20.8173 17.0994L17.0323 21.4044L17.4078 21.7346ZM21.1919 17.4306C21.3697 17.2305 21.298 17.0169 21.2698 16.951L20.8102 17.148C20.8113 17.1504 20.808 17.1443 20.8082 17.1323C20.8083 17.1252 20.8096 17.1171 20.8126 17.1092C20.8156 17.1012 20.8188 17.0977 20.8182 17.0984L21.1919 17.4306ZM21.2698 16.951C21.2386 16.8783 21.1231 16.6795 20.855 16.6795V17.1795C20.8552 17.1795 20.8538 17.1795 20.8512 17.179C20.8485 17.1785 20.8452 17.1776 20.8415 17.1762C20.8337 17.1732 20.8273 17.1689 20.8226 17.1648C20.8181 17.1609 20.8156 17.1575 20.8142 17.1555C20.8129 17.1536 20.8117 17.1513 20.8102 17.148L21.2698 16.951ZM20.855 16.6795H19.31V17.1795H20.855V16.6795ZM19.31 16.6795C19.2431 16.6795 19.185 16.6214 19.185 16.5545H18.685C18.685 16.8976 18.967 17.1795 19.31 17.1795V16.6795ZM19.185 16.5545V12.9545H18.685V16.5545H19.185ZM19.185 12.9545C19.185 12.6757 18.9739 12.5608 18.8928 12.5304L18.7172 12.9986C18.7139 12.9973 18.7119 12.9963 18.7101 12.9952C18.7083 12.9941 18.7048 12.9916 18.7007 12.9872C18.6963 12.9823 18.6917 12.9756 18.6884 12.9676C18.6851 12.9593 18.685 12.954 18.685 12.9545H19.185ZM18.9437 12.5565C18.8953 12.5242 18.8457 12.5126 18.8199 12.5077C18.7888 12.5017 18.7578 12.4995 18.73 12.4995V12.9995C18.7322 12.9995 18.7313 12.9998 18.7264 12.9988C18.7237 12.9983 18.7176 12.997 18.7091 12.994C18.7013 12.9913 18.6853 12.9851 18.6663 12.9725L18.9437 12.5565ZM18.73 12.4995C18.6257 12.4995 18.4931 12.537 18.3915 12.6612L18.7785 12.9778C18.7754 12.9816 18.7675 12.9887 18.7553 12.9939C18.7442 12.9986 18.735 12.9995 18.73 12.9995V12.4995Z" fill="#436AF5"/>
</svg>
