<svg width="28" height="29" viewBox="0 0 28 29" fill="none" xmlns="http://www.w3.org/2000/svg">
<path d="M21 20.0991V21.0991H8V20.0991H21ZM21 6.09912H7V19.0991C7 19.6514 7.44772 20.0991 8 20.0991V21.0991C6.89543 21.0991 6 20.2037 6 19.0991V6.09912C6 5.58144 6.39333 5.15534 6.89746 5.104L7 5.09912H21C21.5523 5.09912 22 5.54684 22 6.09912V20.0991C22 20.6514 21.5523 21.0991 21 21.0991V6.09912Z" fill="#1A1A1A"/>
<path d="M5.99902 19.0972V18.0972C5.99902 16.9926 6.89445 16.0972 7.99902 16.0972H21.999V20.0972C21.999 20.6495 21.5513 21.0972 20.999 21.0972V17.0972H7.99902C7.44674 17.0972 6.99902 17.5449 6.99902 18.0972V19.0972C6.99902 19.6495 7.44674 20.0972 7.99902 20.0972V21.0972C6.96337 21.0972 6.11203 20.3099 6.00977 19.3013L5.99902 19.0972ZM20.999 20.0972V21.0972H7.99902V20.0972H20.999Z" fill="#1A1A1A"/>
<path d="M13.778 15.2732C13.018 15.2732 12.392 15.1092 11.9 14.7812C11.412 14.4532 11.112 13.9972 11 13.4132L11.9 13.2632C11.996 13.6312 12.214 13.9252 12.554 14.1452C12.898 14.3612 13.322 14.4692 13.826 14.4692C14.318 14.4692 14.706 14.3672 14.99 14.1632C15.274 13.9552 15.416 13.6732 15.416 13.3172C15.416 13.1172 15.37 12.9552 15.278 12.8312C15.19 12.7032 15.008 12.5852 14.732 12.4772C14.456 12.3692 14.044 12.2412 13.496 12.0932C12.908 11.9332 12.448 11.7732 12.116 11.6132C11.784 11.4532 11.548 11.2692 11.408 11.0612C11.268 10.8492 11.198 10.5912 11.198 10.2872C11.198 9.91921 11.302 9.59721 11.51 9.32121C11.718 9.04121 12.006 8.82521 12.374 8.67321C12.742 8.51721 13.17 8.43921 13.658 8.43921C14.146 8.43921 14.582 8.51921 14.966 8.67921C15.354 8.83521 15.666 9.05521 15.902 9.33921C16.138 9.62321 16.278 9.95321 16.322 10.3292L15.422 10.4912C15.362 10.1112 15.172 9.81121 14.852 9.59121C14.536 9.36721 14.134 9.25121 13.646 9.24321C13.186 9.23121 12.812 9.31921 12.524 9.50721C12.236 9.69121 12.092 9.93721 12.092 10.2452C12.092 10.4172 12.144 10.5652 12.248 10.6892C12.352 10.8092 12.54 10.9232 12.812 11.0312C13.088 11.1392 13.48 11.2572 13.988 11.3852C14.584 11.5372 15.052 11.6972 15.392 11.8652C15.732 12.0332 15.974 12.2312 16.118 12.4592C16.262 12.6872 16.334 12.9692 16.334 13.3052C16.334 13.9172 16.106 14.3992 15.65 14.7512C15.198 15.0992 14.574 15.2732 13.778 15.2732Z" fill="#1A1A1A"/>
</svg>
