<?xml version="1.0" encoding="UTF-8"?>
<svg width="17px" height="17px" viewBox="0 0 17 17" version="1.1" xmlns="http://www.w3.org/2000/svg" xmlns:xlink="http://www.w3.org/1999/xlink">
    <title>theme</title>
    <g id="Icons" stroke="none" stroke-width="1" fill="none" fill-rule="evenodd">
        <g id="Icons-for-chart-page" transform="translate(-457.000000, -179.000000)">
            <g id="moon" transform="translate(457.000000, 179.000000)">
                <path d="M8.46489259,16.1075809 C4.49822599,15.9304976 1.18322585,12.7359141 0.906975859,8.84008074 C0.666142523,5.49674755 2.5998921,2.37299777 5.71655883,1.06258108 C6.6019755,0.694247764 7.06947622,0.977581059 7.26780955,1.18299772 C7.46614288,1.38133105 7.7423926,1.84174766 7.37405928,2.68466437 C7.04822594,3.43549766 6.88530906,4.23591432 6.8923924,5.05758097 C6.90655906,8.19549751 9.51322627,10.8588312 12.6936428,10.9863312 C13.1540594,11.0075812 13.6073927,10.9721645 14.0465593,10.8942478 C14.9815594,10.7242478 15.3711426,11.0996646 15.5198926,11.3404979 C15.6686426,11.5813312 15.8386424,12.0984143 15.2719757,12.8634143 C13.7703091,14.917581 11.383226,16.1146644 8.82614275,16.1146644 C8.70572608,16.1146644 8.58530925,16.1146644 8.46489259,16.1075809 Z M8.50739288,15.0450809 C10.8378095,15.1584142 13.0478095,14.0959148 14.4078095,12.2400815 C14.5140595,12.0913316 14.5636428,11.9850812 14.5848928,11.9284145 C14.5211428,11.9213312 14.4078095,11.9142483 14.2307262,11.949665 C13.7136428,12.0417483 13.1753097,12.0771647 12.6440597,12.0559147 C8.90405951,11.9071647 5.84405924,8.76924747 5.82280924,5.07174762 C5.82280924,4.09424762 6.01405901,3.15216443 6.40364236,2.26674776 C6.47447569,2.11091443 6.48864244,2.00466439 6.49572577,1.94799773 C6.43197577,1.94799773 6.31864227,1.96216448 6.13447561,2.04008114 C3.43572565,3.17341449 1.7640592,5.87924753 1.96239254,8.76216431 C2.20322587,12.1338311 5.07905944,14.8963309 8.50739288,15.0450809 Z" id="Vector" fill="#1A1A1A"></path>
                <path d="M17,0 L17,17 L0,17 L0,0 L17,0 Z" id="Vector" opacity="0"></path>
            </g>
        </g>
    </g>
</svg>