<svg width="11" height="10" viewBox="0 0 11 10" fill="none" xmlns="http://www.w3.org/2000/svg">
<path d="M3.26764 5.78135C3.08457 5.78135 2.93275 5.62953 2.93275 5.44646C2.93275 5.26339 3.08457 5.11158 3.26764 5.11158H5.94671C6.12978 5.11158 6.28159 5.26339 6.28159 5.44646C6.28159 5.62953 6.12978 5.78135 5.94671 5.78135H3.26764Z" fill="#404040"/>
<path d="M2.93275 7.23251C2.93275 7.41558 3.08457 7.56739 3.26764 7.56739H5.05368C5.23675 7.56739 5.38857 7.41558 5.38857 7.23251C5.38857 7.04944 5.23675 6.89762 5.05368 6.89762H3.26764C3.08457 6.89762 2.93275 7.04944 2.93275 7.23251Z" fill="#404040"/>
<path fill-rule="evenodd" clip-rule="evenodd" d="M0.700195 6.33949C0.700195 8.76404 1.7361 9.79995 4.16066 9.79995H6.83973C9.26429 9.79995 10.3002 8.76404 10.3002 6.33949V4.10693C10.3002 4.04593 10.2833 3.98841 10.2541 3.93881C10.2398 3.91392 10.2222 3.89081 10.2017 3.87027L6.62961 0.298174C6.62231 0.291202 6.61476 0.284577 6.60699 0.278306C6.54873 0.229524 6.47402 0.199951 6.39322 0.199951H4.16066C1.7361 0.199951 0.700195 1.23586 0.700195 3.66042V6.33949ZM6.05808 0.869719H4.16066C2.10224 0.869719 1.36996 1.602 1.36996 3.66042V6.33949C1.36996 8.3979 2.10224 9.13018 4.16066 9.13018H6.83973C8.89815 9.13018 9.63043 8.3979 9.63043 6.33949V4.4418H8.17901C6.65194 4.4418 6.05808 3.84794 6.05808 2.32087V0.869719ZM8.17901 3.77203C7.02701 3.77203 6.72784 3.47287 6.72784 2.32087V1.34301L9.15687 3.77203H8.17901Z" fill="#404040"/>
</svg>
