<svg width="16" height="16" viewBox="0 0 16 16" fill="none" xmlns="http://www.w3.org/2000/svg">
<path d="M5.34985 0.700049C5.34985 0.341064 5.64087 0.0500488 5.99985 0.0500488H9.99985C10.3588 0.0500488 10.6499 0.341064 10.6499 0.700049C10.6499 1.05903 10.3588 1.35005 9.99985 1.35005L5.99985 1.35005C5.64087 1.35005 5.34985 1.05903 5.34985 0.700049Z" fill="#404040"/>
<path fill-rule="evenodd" clip-rule="evenodd" d="M1.3999 9.00005C1.3999 5.35497 4.35482 2.40005 7.9999 2.40005C11.645 2.40005 14.5999 5.35497 14.5999 9.00005V12.4H14.9999C15.3313 12.4 15.5999 12.6687 15.5999 13C15.5999 13.3314 15.3313 13.6 14.9999 13.6H10.5923C10.4902 14.9425 9.36855 16 7.9999 16H6.3999V13.6H0.999902C0.668532 13.6 0.399902 13.3314 0.399902 13C0.399902 12.6687 0.668532 12.4 0.999902 12.4H1.3999V9.00005ZM13.3999 12.4V9.00005C13.3999 6.01771 10.9822 3.60005 7.9999 3.60005C5.01756 3.60005 2.5999 6.01771 2.5999 9.00005V12.4H13.3999ZM7.5999 13.6V14.8H7.9999C8.7052 14.8 9.28868 14.2785 9.38572 13.6H7.5999Z" fill="#404040"/>
</svg>
