<svg width="20" height="16" viewBox="0 0 20 16" fill="none" xmlns="http://www.w3.org/2000/svg">
<path fill-rule="evenodd" clip-rule="evenodd" d="M3.0563 8.79105H18.822C19.2475 8.79105 19.6004 8.43197 19.6004 7.99897C19.6004 7.56596 19.2475 7.20689 18.822 7.20689H3.05819L8.02847 2.1491C8.32944 1.84283 8.32944 1.3359 8.02847 1.02963C7.7275 0.723359 7.22934 0.723359 6.92837 1.02963L0.628713 7.44019C0.473038 7.59861 0.400391 7.79927 0.400391 7.99993C0.400391 8.20059 0.473038 8.40125 0.628713 8.55966L6.92837 14.9702C7.22934 15.2765 7.7275 15.2765 8.02847 14.9702C8.32944 14.664 8.32944 14.157 8.02847 13.8508L3.0563 8.79105Z" fill="#404040"/>
</svg>
