<svg width="16" height="16" viewBox="0 0 16 16" fill="none" xmlns="http://www.w3.org/2000/svg">
<path fill-rule="evenodd" clip-rule="evenodd" d="M3.20987 10.4883C3.1605 10.9481 3.29763 11.3735 3.58286 11.6551C3.80775 11.8793 4.1204 12 4.45499 12C4.51125 12 4.56524 11.9953 4.62132 11.9903C4.65274 11.9876 4.6848 11.9848 4.71828 11.9827L6.4845 11.6666C6.81909 11.6091 7.24693 11.3677 7.47731 11.1091L11.9806 6.1142C13.1051 4.86692 13.0722 3.63688 11.8819 2.45857C10.6916 1.28027 9.51778 1.31476 8.39333 2.56204L3.89003 7.5569C3.65416 7.80981 3.45121 8.27538 3.41282 8.626L3.20987 10.4883ZM7.7343 4.53828L4.48791 8.14318C4.3782 8.26388 4.25204 8.55128 4.2301 8.71796L4.02715 10.5803C4.00521 10.7699 4.04909 10.9251 4.14783 11.0228C4.24656 11.1206 4.39466 11.155 4.57567 11.1263L6.34189 10.8102C6.50095 10.7814 6.76424 10.632 6.87394 10.5113L10.1216 6.90916C9.02174 6.54487 8.13992 5.6701 7.7343 4.53828ZM10.771 6.18883L11.3772 5.51642C12.0574 4.75771 12.3042 4.05647 11.3114 3.07934C10.8726 2.63676 10.4941 2.45283 10.1541 2.45283C9.73171 2.45283 9.3642 2.72872 8.99121 3.14257L8.38952 3.8107C8.64869 5.03713 9.59006 5.97882 10.771 6.18883Z" fill="white"/>
<path d="M1.99998 13.6C1.77906 13.6 1.59998 13.7791 1.59998 14C1.59998 14.2209 1.77906 14.4 1.99998 14.4H14C14.2209 14.4 14.4 14.2209 14.4 14C14.4 13.7791 14.2209 13.6 14 13.6H1.99998Z" fill="white"/>
</svg>
