<svg width="22" height="22" xmlns="http://www.w3.org/2000/svg"><g fill="none" fill-rule="evenodd"><path d="m13.716 17.708.78 1.2c-.245.033-.518.05-.82.05h-5.35c-2.909 0-3.026-1.608-3.117-2.908l-.542-8.392a.63.63 0 0 1 .583-.666.631.631 0 0 1 .667.583l.542 8.392c.091 1.266.125 1.741 1.866 1.741h5.39ZM16.75 6.992a.626.626 0 0 1 .584.666l-.542 8.392c-.018.25-.036.51-.075.769l-1.12-1.724.487-7.52a.637.637 0 0 1 .666-.583ZM4.95 4.209l.773 1.189a47.67 47.67 0 0 0-.457.044l-1.7.166a.63.63 0 0 1-.133-1.25l1.518-.15Zm7.142-3.167c1.811 0 2.098.991 2.23 1.747l.212 1.253c1.34.077 2.682.185 4.024.316a.626.626 0 0 1 .558.684.617.617 0 0 1-.616.566h-.067c-3.095-.31-6.186-.484-9.26-.408l-1.51-2.322.018-.104c.138-.777.425-1.732 2.228-1.732h2.183Zm.009 1.258H9.917l-.277.006c-.57.028-.631.176-.727.728l-.162.922c1.5-.046 3.005-.032 4.513.027l-.177-1.049C12.99 2.41 12.88 2.3 12.1 2.3Z" fill="#FFEBEA" fill-rule="nonzero"/><path d="M5.289 2.315a.708.708 0 0 0-.969-.204.682.682 0 0 0-.25.876l.042.076 11.6 17.622c.21.32.643.411.968.204.3-.19.402-.568.25-.876l-.042-.076-11.6-17.622Z" fill="#FFEBEA" fill-rule="nonzero"/><path d="M0 0h22v22H0z"/></g></svg>