<svg width="12" height="17" viewBox="0 0 12 17" fill="none" xmlns="http://www.w3.org/2000/svg">
<path fill-rule="evenodd" clip-rule="evenodd" d="M4.58675 15.0824C4.59243 15.0782 4.59895 15.0735 4.60628 15.0682C4.6725 15.0205 4.80479 14.9253 4.9854 14.7173L10.6177 8.31862L10.6194 8.31666C10.6475 8.28448 10.6723 8.25394 10.6942 8.22512C10.8149 8.0664 10.8477 7.95961 10.8543 7.9171C10.8552 7.91175 10.8556 7.90742 10.8557 7.90413L10.8558 7.90196L10.8538 7.90097C10.8316 7.88954 10.6963 7.82012 10.3945 7.82012H8.09545C7.7904 7.82012 7.53743 7.56715 7.53743 7.2621V1.90508C7.54342 1.60522 7.49625 1.44554 7.46213 1.36761C7.45883 1.36006 7.45564 1.35327 7.45264 1.3472L7.45004 1.34201C7.44661 1.3353 7.44346 1.32957 7.4407 1.32474C7.4382 1.32808 7.43401 1.33197 7.42821 1.33666C7.42527 1.33904 7.42191 1.34161 7.41815 1.34442C7.41182 1.34915 7.40433 1.35454 7.39573 1.36074C7.3298 1.40821 7.19835 1.50284 7.01894 1.70895L7.0166 1.71163L1.3843 8.11029C1.35553 8.14318 1.33016 8.17436 1.3078 8.20376C1.19416 8.35323 1.15843 8.45664 1.14909 8.5037C1.14808 8.50882 1.14738 8.51327 1.14692 8.51704C1.14642 8.52116 1.14621 8.52446 1.14621 8.52695L1.14815 8.52793C1.17041 8.53936 1.30565 8.60879 1.60751 8.60879H3.90656C4.21161 8.60879 4.46458 8.86176 4.46458 9.16681V14.5239C4.46458 14.8158 4.50583 14.9795 4.53797 15.0579C4.54059 15.0644 4.54315 15.0702 4.54562 15.0755C4.54714 15.0787 4.54862 15.0818 4.55006 15.0846C4.55418 15.0927 4.55797 15.0992 4.56131 15.1042C4.56455 15.0999 4.57062 15.0946 4.57938 15.0879L4.58101 15.0867C4.58277 15.0853 4.58479 15.0838 4.58675 15.0824ZM5.82444 15.4558C5.69706 15.601 5.57359 15.7201 5.45495 15.8174L5.45295 15.8191C5.08107 16.1234 4.75684 16.2128 4.50922 16.2128C4.36042 16.2128 4.24137 16.183 4.15209 16.1458C4.00294 16.0899 3.80147 15.9704 3.63758 15.72C3.47515 15.4718 3.34963 15.095 3.34855 14.5239C3.34854 14.5214 3.34854 14.5189 3.34854 14.5164V9.71739H1.60751C1.18425 9.71739 0.876313 9.63291 0.652387 9.51462C0.348852 9.35427 0.199683 9.13178 0.126895 8.97336C0.0784398 8.86505 0.0321682 8.71415 0.0303301 8.52695C0.0273802 8.22651 0.138867 7.83255 0.539417 7.37101L0.543552 7.36626L6.17585 0.967604C6.30812 0.817177 6.4361 0.694777 6.55884 0.595793C6.56058 0.594392 6.56231 0.592995 6.56405 0.591603C7.14308 0.127199 7.60491 0.183779 7.84992 0.275656C8.01247 0.336613 8.23716 0.473033 8.40763 0.772201C8.54927 1.02078 8.65347 1.38172 8.65347 1.90508V6.70407H10.3945C10.8196 6.70407 11.1283 6.78929 11.3525 6.9084C11.6541 7.06863 11.8025 7.29019 11.8751 7.4481C11.9242 7.55785 11.971 7.71131 11.9717 7.90196C11.9727 8.20237 11.8591 8.59512 11.4589 9.05468L5.82616 15.4539L5.82444 15.4558Z" fill="#404040"/>
</svg>
