<svg width="32" height="9" viewBox="0 0 32 9" fill="none" xmlns="http://www.w3.org/2000/svg">
<path d="M1.36409 8.73622C1.78192 8.89607 2.25301 8.976 2.77734 8.976C3.3918 8.976 3.93662 8.87609 4.4118 8.67627C4.88698 8.46846 5.25565 8.18472 5.51782 7.82504C5.77999 7.45738 5.91107 7.04175 5.91107 6.57817C5.91107 6.13857 5.80047 5.7709 5.57927 5.47517C5.35806 5.17145 5.0918 4.93166 4.78047 4.75582C4.47734 4.57998 4.0718 4.38016 3.56385 4.15637C3.18698 3.99651 2.88795 3.86063 2.66674 3.74874C2.44554 3.62884 2.2612 3.48897 2.11373 3.32912C1.97445 3.16127 1.90482 2.96545 1.90482 2.74165C1.90482 2.38197 2.04409 2.09823 2.32265 1.89042C2.60939 1.67461 2.99036 1.56671 3.46554 1.56671C3.91614 1.56671 4.26023 1.67861 4.49782 1.90241C4.73541 2.11821 4.83782 2.38997 4.80505 2.71767H6.27975C6.30433 2.26208 6.20601 1.86644 5.98481 1.53074C5.7718 1.18706 5.45228 0.923295 5.02626 0.739461C4.60843 0.547635 4.10867 0.451721 3.52698 0.451721C2.9453 0.451721 2.42096 0.551631 1.95397 0.75145C1.49518 0.951269 1.1347 1.23901 0.872528 1.61467C0.61036 1.98233 0.479276 2.41394 0.479276 2.9095C0.479276 3.35709 0.585782 3.72875 0.798794 4.02449C1.02 4.32022 1.28217 4.55201 1.5853 4.71986C1.88843 4.8877 2.29397 5.07553 2.80192 5.28335C3.18698 5.43521 3.48602 5.56709 3.69903 5.67899C3.92023 5.79089 4.10047 5.93076 4.23975 6.09861C4.38722 6.25846 4.46096 6.45429 4.46096 6.68608C4.46096 7.06973 4.31758 7.36546 4.03084 7.57327C3.74409 7.77309 3.34674 7.873 2.83879 7.873C2.36361 7.873 1.99903 7.75311 1.74506 7.51333C1.49108 7.26555 1.38048 6.95783 1.41325 6.59016H0.0245783C0.00819274 6.73403 0 6.83394 0 6.88989C0 7.3215 0.122891 7.69716 0.368674 8.01687C0.614457 8.32859 0.946263 8.56837 1.36409 8.73622Z" fill="#2434E7"/>
<path d="M29.493 7.05761C29.4766 7.16951 29.4684 7.24145 29.4684 7.27342C29.4684 7.44127 29.5217 7.56515 29.6282 7.64508C29.7347 7.71702 29.9108 7.75298 30.1566 7.75298H31.0169L30.808 8.89195H29.7019C29.1612 8.89195 28.7475 8.78804 28.4607 8.58023C28.174 8.36443 28.0306 8.02474 28.0306 7.56116C28.0306 7.38532 28.047 7.21747 28.0798 7.05761L28.7434 3.40092H28.5635L28.5285 3.59292H28.1721C27.6313 3.59292 27.1971 3.7248 26.8694 3.98856C26.5417 4.25232 26.3123 4.70791 26.1812 5.35532L25.5422 8.89212H24.1412L25.3333 2.2861H26.7342L26.5253 3.44905C26.8039 3.04941 27.1316 2.7377 27.5085 2.5139C27.8935 2.2901 28.3195 2.1782 28.7865 2.1782L28.7669 2.28594H28.9523L29.2472 0.643422H30.6605L30.3655 2.28594H32L31.8034 3.40092H30.1566L29.493 7.05761Z" fill="#2434E7"/>
<path d="M17.4656 4.39427L17.1327 5.08729L17.4656 4.39295C17.4656 4.39339 17.4656 4.39383 17.4656 4.39427Z" fill="#2434E7"/>
<path d="M17.3329 3.49198L16.7684 4.66712L16.0202 4.86956C16.0257 4.80899 16.0284 4.7591 16.0284 4.7199C16.0284 4.2803 15.9014 3.9446 15.6474 3.71281C15.4017 3.48102 15.0576 3.36513 14.6152 3.36513C14.0826 3.36513 13.632 3.52498 13.2634 3.84469C12.9029 4.15641 12.6735 4.608 12.5752 5.19947L11.8993 8.89212H10.5106L11.1865 5.19947C11.2193 4.97567 11.2356 4.81581 11.2356 4.7199C11.2356 4.2803 11.1087 3.9446 10.8547 3.71281C10.6089 3.48102 10.2648 3.36513 9.82239 3.36513C9.28986 3.36513 8.83926 3.52498 8.47059 3.84469C8.11011 4.15641 7.88071 4.608 7.7824 5.19947V5.1635L7.10649 8.89212H5.70553L6.89758 2.2861H8.29854L8.16336 3.05341C8.43372 2.78166 8.75734 2.56985 9.1342 2.41798C9.51926 2.25813 9.91661 2.1782 10.3262 2.1782C10.867 2.1782 11.3299 2.2901 11.7149 2.5139C12.1082 2.7377 12.3826 3.0614 12.5383 3.48502C12.8087 3.08538 13.1814 2.76967 13.6566 2.53788C14.1318 2.29809 14.6193 2.1782 15.119 2.1782C15.8318 2.1782 16.4012 2.36603 16.8272 2.74169C17.0587 2.94578 17.2272 3.19588 17.3329 3.49198Z" fill="#2434E7"/>
<path d="M18.6083 3.14698C18.8473 2.9359 19.1089 2.75685 19.3931 2.60981C19.9338 2.32207 20.4991 2.1782 21.089 2.1782C21.6215 2.1782 22.068 2.28211 22.4285 2.48992C22.789 2.68974 23.0593 2.94151 23.2396 3.24524L23.4116 2.2861H24.8249L23.6328 8.89212H22.2196L22.4039 7.90901C22.109 8.22073 21.7362 8.48049 21.2856 8.68831C20.8432 8.89612 20.3598 9.00002 19.8355 9.00002C19.3275 9.00002 18.8728 8.88813 18.4714 8.66433C18.3888 8.61732 18.3098 8.56626 18.2344 8.51114L18.8992 7.12743L18.9555 7.11219C19.0113 7.19565 19.0752 7.27343 19.1473 7.34552C19.475 7.65724 19.8805 7.8131 20.3639 7.8131C20.7244 7.8131 21.0767 7.72518 21.4208 7.54934C21.7649 7.3735 22.0639 7.11773 22.3179 6.78203C22.5718 6.43834 22.7398 6.03871 22.8217 5.58312C22.8545 5.43126 22.8709 5.2674 22.8709 5.09156C22.8709 4.55605 22.707 4.13643 22.3793 3.8327C22.0598 3.52099 21.6584 3.36513 21.175 3.36513C20.8145 3.36513 20.4622 3.45305 20.1181 3.62889C19.774 3.79674 19.475 4.04851 19.221 4.3842C19.1539 4.47079 19.0928 4.56185 19.0377 4.65736L18.6083 3.14698Z" fill="#2434E7"/>
<path d="M16.863 7.95736L16.692 8.89212H15.3033L15.7317 6.55203L16.5728 6.93664L16.863 7.95736Z" fill="#2434E7"/>
<path d="M17.0033 6.58179L17.0711 6.82002L17.0712 6.81902L17.0033 6.58179Z" fill="#2434E7"/>
<path d="M18.0706 3.13037L18.6626 5.21286L20.6684 6.12999L18.5338 6.70755L17.5938 8.66438L17.0017 6.5819L14.9959 5.66477L17.1305 5.08721L18.0706 3.13037Z" fill="#A0A8FF"/>
</svg>
