<svg width="20" height="20" viewBox="0 0 20 20" fill="none" xmlns="http://www.w3.org/2000/svg">
<path fill-rule="evenodd" clip-rule="evenodd" d="M8.58675 16.8696C8.59244 16.8654 8.59895 16.8607 8.60628 16.8554C8.6725 16.8077 8.8048 16.7125 8.98541 16.5045L14.6177 10.1058C14.6183 10.1052 14.6189 10.1045 14.6194 10.1039C14.6475 10.0717 14.6723 10.0412 14.6942 10.0123C14.8149 9.85363 14.8477 9.74684 14.8544 9.70433C14.8552 9.69898 14.8556 9.69465 14.8558 9.69136C14.8558 9.69058 14.8558 9.68986 14.8558 9.68919C14.8553 9.68894 14.8547 9.68861 14.8539 9.6882C14.8316 9.67677 14.6964 9.60735 14.3945 9.60735H12.0955C11.7904 9.60735 11.5374 9.35438 11.5374 9.04933V3.69231C11.5434 3.39245 11.4962 3.23277 11.4621 3.15484C11.4588 3.14729 11.4556 3.1405 11.4526 3.13443C11.4518 3.13264 11.4509 3.13091 11.45 3.12924C11.4466 3.12253 11.4435 3.1168 11.4407 3.11197C11.4382 3.11531 11.434 3.1192 11.4282 3.12389C11.4253 3.12627 11.4219 3.12884 11.4182 3.13165C11.4118 3.13638 11.4043 3.14177 11.3957 3.14797C11.3298 3.19544 11.1984 3.29007 11.0189 3.49618C11.0188 3.49632 11.0191 3.49603 11.0189 3.49618C11.0183 3.49692 11.0173 3.49811 11.0166 3.49886L5.38431 9.89752C5.35553 9.93041 5.33016 9.96159 5.30781 9.99099C5.19417 10.1405 5.15844 10.2439 5.1491 10.2909C5.14808 10.296 5.14738 10.3005 5.14692 10.3043C5.14642 10.3084 5.14622 10.3117 5.14622 10.3142C5.14672 10.3144 5.14737 10.3148 5.14815 10.3152C5.17041 10.3266 5.30565 10.396 5.60751 10.396H7.90657C8.21162 10.396 8.46459 10.649 8.46459 10.954V16.3111C8.46459 16.603 8.50583 16.7667 8.53797 16.8451C8.5406 16.8516 8.54315 16.8574 8.54563 16.8627C8.54714 16.8659 8.54862 16.869 8.55006 16.8718C8.55418 16.8799 8.55798 16.8864 8.56131 16.8914C8.56455 16.8871 8.57062 16.8818 8.57939 16.8751C8.57992 16.8747 8.58046 16.8743 8.58102 16.8739C8.58096 16.8739 8.58107 16.8738 8.58102 16.8739C8.58277 16.8725 8.58479 16.871 8.58675 16.8696ZM9.82444 17.243C9.69707 17.3882 9.57359 17.5073 9.45495 17.6046C9.45428 17.6052 9.45362 17.6057 9.45295 17.6063C9.08108 17.9106 8.75684 18 8.50923 18C8.36042 18 8.24138 17.9702 8.15209 17.933C8.00295 17.8771 7.80148 17.7576 7.63759 17.5072C7.47515 17.259 7.34963 16.8822 7.34855 16.3111C7.34855 16.3086 7.34854 16.3061 7.34854 16.3036V11.5046H5.60751C5.18425 11.5046 4.87631 11.4201 4.65239 11.3018C4.34885 11.1415 4.19968 10.919 4.1269 10.7606C4.07844 10.6523 4.03217 10.5014 4.03033 10.3142C4.02738 10.0137 4.13887 9.61978 4.53942 9.15824C4.54014 9.15741 4.54087 9.15657 4.5416 9.15574C4.54225 9.15499 4.5429 9.15424 4.54355 9.15349L10.1759 2.75484C10.3081 2.60441 10.4361 2.48201 10.5588 2.38302C10.5606 2.38162 10.5623 2.38023 10.5641 2.37883C11.1431 1.91443 11.6049 1.97101 11.8499 2.06289C12.0125 2.12384 12.2372 2.26026 12.4076 2.55943C12.5493 2.80801 12.6535 3.16895 12.6535 3.69231V8.4913H14.3945C14.8196 8.4913 15.1284 8.57652 15.3526 8.69563C15.6541 8.85586 15.8026 9.07742 15.8751 9.23533C15.9242 9.34508 15.9711 9.49854 15.9717 9.68919C15.9728 9.9896 15.8592 10.3824 15.4589 10.8419C15.4588 10.8421 15.4591 10.8417 15.4589 10.8419L9.82616 17.2411C9.82559 17.2417 9.82502 17.2424 9.82444 17.243Z" fill="#B0B0B0"/>
</svg>
