<svg width="14" height="14" viewBox="0 0 14 14" fill="none" xmlns="http://www.w3.org/2000/svg"><path fill-rule="evenodd" clip-rule="evenodd" d="M.729 7A6.276 6.276 0 0 1 6.999.728a6.275 6.275 0 0 1 6.271 6.27A6.275 6.275 0 0 1 7 13.269 6.276 6.276 0 0 1 .728 7m.875 0a5.4 5.4 0 0 0 5.395 5.395A5.4 5.4 0 0 0 12.395 7 5.4 5.4 0 0 0 7 1.604a5.4 5.4 0 0 0-5.395 5.395" fill="#6A7483"/><path d="M2.55 11.392a.44.44 0 0 1 0-.618l8.166-8.167a.44.44 0 0 1 .618 0c.17.17.17.45 0 .619l-8.167 8.166a.43.43 0 0 1-.309.129.43.43 0 0 1-.309-.129" fill="#6A7483"/><path opacity=".01" fill-rule="evenodd" clip-rule="evenodd" d="M14 0v14H0V0z" fill="#6A7483"/></svg>