<svg width="16" height="17" viewBox="0 0 16 17" fill="none" xmlns="http://www.w3.org/2000/svg">
<path fill-rule="evenodd" clip-rule="evenodd" d="M11.7998 13.5657C11.7998 13.8055 11.5849 13.9999 11.3198 13.9999C11.0547 13.9999 10.8398 13.8055 10.8398 13.5657L10.8398 3.43447C10.8398 3.19467 11.0547 3.00027 11.3198 3.00027C11.5849 3.00027 11.7998 3.19467 11.7998 3.43447V13.5657ZM9.26646 8.93994L7.03312 11.1733C6.93313 11.2733 6.80646 11.3199 6.67979 11.3199C6.55313 11.3199 6.41979 11.2733 6.32646 11.1733C6.13312 10.9799 6.13312 10.6599 6.32646 10.4666L7.70635 9.08671H2.42702C2.19358 9.08671 2 8.86004 2 8.58671C2 8.31338 2.19358 8.08671 2.42702 8.08671H7.70656L6.32646 6.70661C6.13312 6.51327 6.13312 6.19327 6.32646 5.99994C6.51979 5.80661 6.83979 5.80661 7.03312 5.99994L9.26646 8.23327C9.45979 8.42661 9.45979 8.74661 9.26646 8.93994Z" fill="#6A7483"/>
</svg>
