<svg width="12" height="12" viewBox="0 0 12 12" fill="none" xmlns="http://www.w3.org/2000/svg">
<path d="M9.30001 1.05005C9.85001 1.05005 10.3 1.50005 10.3 2.05005V3.15005C10.3 3.55005 10.05 4.05005 9.80001 4.30005L7.65001 6.20005C7.35001 6.45005 7.15001 6.95005 7.15001 7.35005V9.50005C7.15001 9.80005 6.95001 10.2 6.70001 10.35L6.00001 10.8C5.35001 11.2 4.45001 10.75 4.45001 9.95005V7.30005C4.45001 6.95005 4.25001 6.50005 4.05001 6.25005L2.15001 4.25005C1.90001 4.00005 1.70001 3.55005 1.70001 3.25005V2.10005C1.70001 1.50005 2.15001 1.05005 2.70001 1.05005H9.30001Z" stroke="#6A7483" stroke-linecap="round" stroke-linejoin="round"/>
</svg>