<svg width="40" height="40" viewBox="0 0 40 40" fill="none" xmlns="http://www.w3.org/2000/svg">
<circle cx="20" cy="20" r="20" fill="#D9D9D9"/>
<circle cx="20" cy="20" r="20" fill="url(#paint0_linear_2763_27355)"/>
<path fill-rule="evenodd" clip-rule="evenodd" d="M5.70312 20.0067C5.70312 12.1164 12.1164 5.70312 20.0067 5.70312C27.8969 5.70312 34.3102 12.1164 34.3102 20.0067C34.3102 27.8969 27.8836 34.3102 20.0067 34.3102C12.1164 34.3102 5.70312 27.8969 5.70312 20.0067ZM7.69897 20.0067C7.69897 26.7925 13.2208 32.3144 20.0067 32.3144C26.7925 32.3144 32.3144 26.7925 32.3144 20.0067C32.3144 13.2208 26.7925 7.69897 20.0067 7.69897C13.2208 7.69897 7.69897 13.2208 7.69897 20.0067Z" fill="white"/>
<path d="M5.95312 20.0067C5.95312 12.2545 12.2545 5.95312 20.0067 5.95312V5.45312C11.9784 5.45312 5.45312 11.9784 5.45312 20.0067H5.95312ZM20.0067 5.95312C27.7588 5.95312 34.0602 12.2545 34.0602 20.0067H34.5602C34.5602 11.9784 28.035 5.45312 20.0067 5.45312V5.95312ZM34.0602 20.0067C34.0602 27.7587 27.7457 34.0602 20.0067 34.0602V34.5602C28.0215 34.5602 34.5602 28.0351 34.5602 20.0067H34.0602ZM20.0067 34.0602C12.2545 34.0602 5.95312 27.7588 5.95312 20.0067H5.45312C5.45312 28.035 11.9784 34.5602 20.0067 34.5602V34.0602ZM7.44897 20.0067C7.44897 26.9306 13.0827 32.5644 20.0067 32.5644V32.0644C13.3589 32.0644 7.94897 26.6545 7.94897 20.0067H7.44897ZM20.0067 32.5644C26.9306 32.5644 32.5644 26.9306 32.5644 20.0067H32.0644C32.0644 26.6545 26.6545 32.0644 20.0067 32.0644V32.5644ZM32.5644 20.0067C32.5644 13.0827 26.9306 7.44897 20.0067 7.44897V7.94897C26.6545 7.94897 32.0644 13.3589 32.0644 20.0067H32.5644ZM20.0067 7.44897C13.0827 7.44897 7.44897 13.0827 7.44897 20.0067H7.94897C7.94897 13.3589 13.3589 7.94897 20.0067 7.94897V7.44897Z" fill="white"/>
<path d="M22.3609 20.9783L11.4769 10.0677C11.091 9.68185 11.091 9.04318 11.4769 8.65732C11.8628 8.27145 12.5014 8.27145 12.8873 8.65732L22.0815 17.8648L22.0948 14.2191C22.0948 13.6735 22.5472 13.2211 23.0927 13.2211C23.6382 13.1812 24.0906 13.6735 24.0906 14.2191L24.0773 20.2731C24.0773 20.6723 23.8378 21.0448 23.4653 21.1912C23.3322 21.2444 23.1991 21.271 23.0661 21.271C22.8 21.271 22.5472 21.1646 22.3609 20.9783Z" fill="white" stroke="white" stroke-width="0.5"/>
<path d="M27.1123 31.343L17.9181 22.1355L17.9048 25.7812C17.9048 26.3267 17.4524 26.7791 16.9069 26.7791C16.3613 26.7791 15.9089 26.3267 15.9089 25.7812L15.9222 19.7272C15.9222 19.328 16.1617 18.9554 16.5343 18.8091C16.9069 18.6494 17.3326 18.7425 17.6254 19.022L28.5094 29.9326C28.8952 30.3184 28.8952 30.9571 28.5094 31.343C28.3364 31.5425 28.0703 31.6357 27.8175 31.6357C27.5647 31.6357 27.3118 31.5425 27.1123 31.343Z" fill="white" stroke="white" stroke-width="0.5"/>
<defs>
<linearGradient id="paint0_linear_2763_27355" x1="9.16107" y1="4.41399" x2="43.0248" y2="52.0173" gradientUnits="userSpaceOnUse">
<stop stop-color="#436AF5"/>
<stop offset="1" stop-color="white"/>
</linearGradient>
</defs>
</svg>
