<svg width="14" height="14" viewBox="0 0 14 14" fill="none" xmlns="http://www.w3.org/2000/svg"><path d="M5.184 1.01c2.59 0 3.839 1.02 4.055 3.308a.438.438 0 1 1-.875.081c-.17-1.831-1.033-2.514-3.185-2.514h-.076c-2.374 0-3.214.84-3.214 3.214v3.804c0 2.374.84 3.214 3.214 3.214h.076c2.164 0 3.027-.695 3.185-2.561a.442.442 0 0 1 .88.076c-.198 2.321-1.452 3.36-4.06 3.36H5.11c-2.865 0-4.09-1.225-4.09-4.09V5.1c0-2.864 1.225-4.089 4.09-4.089z" fill="#6A7483"/><path d="M11.889 6.563a.44.44 0 0 1 .437.437.44.44 0 0 1-.437.438H5.25A.44.44 0 0 1 4.813 7a.44.44 0 0 1 .438-.437z" fill="#6A7483"/><path d="m10.897 4.736 1.954 1.954c.17.169.17.449 0 .618l-1.954 1.954a.44.44 0 0 1-.618 0 .44.44 0 0 1 0-.618l1.645-1.645-1.645-1.645a.44.44 0 0 1 0-.618.42.42 0 0 1 .309-.129c.11 0 .222.041.309.129" fill="#6A7483"/><path opacity=".01" fill-rule="evenodd" clip-rule="evenodd" d="M0 14V0h14v14z" fill="#6A7483"/></svg>