<svg width="40" height="40" viewBox="0 0 40 40" fill="none" xmlns="http://www.w3.org/2000/svg"><circle cx="20" cy="20" r="20" fill="url(#a)"/><path d="M18.21 8.589c4.934 0 7.312 1.944 7.723 6.3a.835.835 0 0 1-.755.91.85.85 0 0 1-.912-.755c-.322-3.489-1.966-4.789-6.066-4.789h-.145c-4.522 0-6.122 1.6-6.122 6.123v7.244c0 4.522 1.6 6.122 6.122 6.122h.145c4.122 0 5.767-1.322 6.067-4.878.055-.455.444-.8.91-.755.467.033.8.444.767.9-.377 4.422-2.766 6.4-7.733 6.4h-.144c-5.456 0-7.79-2.333-7.79-7.789v-7.244c0-5.456 2.334-7.79 7.79-7.79z" fill="#fff" stroke="#fff"/><path d="M30.978 19.167a.84.84 0 0 1 .833.833.84.84 0 0 1-.833.833H18.334A.84.84 0 0 1 17.5 20a.84.84 0 0 1 .834-.833z" fill="#fff" stroke="#fff"/><path d="m29.092 15.689 3.723 3.722a.84.84 0 0 1 0 1.178l-3.723 3.722a.84.84 0 0 1-1.177 0 .84.84 0 0 1 0-1.178L31.048 20l-3.133-3.134a.84.84 0 0 1 0-1.177.8.8 0 0 1 .588-.245c.212 0 .423.078.59.245Z" fill="#fff" stroke="#fff"/><defs><linearGradient id="a" x1="9.161" y1="4.414" x2="43.025" y2="52.017" gradientUnits="userSpaceOnUse"><stop stop-color="#FB2A23"/><stop offset="1" stop-color="#fff"/></linearGradient></defs></svg>