<svg width="16" height="17" viewBox="0 0 16 17" fill="none" xmlns="http://www.w3.org/2000/svg">
<path fill-rule="evenodd" clip-rule="evenodd" d="M4.2002 13.5658C4.2002 13.8056 4.4151 14 4.6802 14C4.94529 14 5.1602 13.8056 5.1602 13.5658L5.16019 3.43453C5.16019 3.19473 4.94529 3.00033 4.68019 3.00033C4.4151 3.00033 4.2002 3.19473 4.2002 3.43453L4.2002 13.5658ZM6.73354 8.94L8.96688 11.1733C9.06687 11.2733 9.19354 11.32 9.32021 11.32C9.44687 11.32 9.58021 11.2733 9.67354 11.1733C9.86688 10.98 9.86688 10.66 9.67354 10.4667L8.29365 9.08677H13.573C13.8064 9.08677 14 8.8601 14 8.58677C14 8.31344 13.8064 8.08677 13.573 8.08677H8.29344L9.67354 6.70667C9.86688 6.51333 9.86688 6.19333 9.67354 6C9.48021 5.80667 9.16021 5.80667 8.96688 6L6.73354 8.23333C6.54021 8.42667 6.54021 8.74667 6.73354 8.94Z" fill="#6A7483"/>
</svg>
