<svg width="16" height="16" viewBox="0 0 16 16" fill="none" xmlns="http://www.w3.org/2000/svg"><path fill-rule="evenodd" clip-rule="evenodd" d="M2.192 13.25C1.388 13.25 1 12.796 1 11.858V4.142c0-.938.392-1.392 1.192-1.392h1.616C4.612 2.75 5 3.204 5 4.142v7.716c0 .938-.392 1.392-1.192 1.392zM1.6 4.142v7.716c0 .493.084.66.592.66h1.616c.508 0 .592-.167.592-.66V4.142c0-.493-.084-.66-.592-.66H2.192c-.508 0-.592.167-.592.66m5.592 9.108C6.388 13.25 6 12.796 6 11.858V4.142c0-.938.392-1.392 1.192-1.392h1.616c.804 0 1.192.454 1.192 1.392v7.716c0 .938-.392 1.392-1.192 1.392zM6.6 4.142v7.716c0 .493.084.66.592.66h1.616c.508 0 .592-.167.592-.66V4.142c0-.493-.084-.66-.592-.66H7.192c-.508 0-.592.167-.592.66m5.592 9.108c-.804 0-1.192-.454-1.192-1.392V4.142c0-.938.392-1.392 1.192-1.392h1.616c.804 0 1.192.454 1.192 1.392v7.716c0 .938-.392 1.392-1.192 1.392zM11.6 4.142v7.716c0 .493.084.66.592.66h1.616c.508 0 .592-.167.592-.66V4.142c0-.493-.084-.66-.592-.66h-1.616c-.508 0-.592.167-.592.66" fill="#6A7483"/></svg>