<svg width="14" height="14" viewBox="0 0 14 14" fill="none" xmlns="http://www.w3.org/2000/svg">
<path d="M11 12.7057V6.23512C11 5.99395 11.2125 5.79395 11.4688 5.79395C11.725 5.79395 11.9375 5.99395 11.9375 6.23512V12.7057C11.9375 12.9469 11.725 13.1469 11.4688 13.1469C11.2125 13.1469 11 12.9469 11 12.7057Z" fill="#6A7483" stroke="#6A7483" stroke-width="0.4"/>
<path d="M11 3.88235V0.941176C11 0.7 11.2125 0.5 11.4688 0.5C11.725 0.5 11.9375 0.7 11.9375 0.941176V3.88235C11.9375 4.12353 11.725 4.32353 11.4688 4.32353C11.2125 4.32353 11 4.12353 11 3.88235Z" fill="#6A7483" stroke="#6A7483" stroke-width="0.4"/>
<path d="M6.625 12.7056V9.76442C6.625 9.52324 6.8375 9.32324 7.09375 9.32324C7.35 9.32324 7.5625 9.52324 7.5625 9.76442V12.7056C7.5625 12.9468 7.35 13.1468 7.09375 13.1468C6.8375 13.1468 6.625 12.9468 6.625 12.7056Z" fill="#6A7483" stroke="#6A7483" stroke-width="0.4"/>
<path d="M6.625 7.41176V0.941176C6.625 0.7 6.8375 0.5 7.09375 0.5C7.35 0.5 7.5625 0.7 7.5625 0.941176V7.41176C7.5625 7.65294 7.35 7.85294 7.09375 7.85294C6.8375 7.85294 6.625 7.65294 6.625 7.41176Z" fill="#6A7483" stroke="#6A7483" stroke-width="0.4"/>
<path d="M2.25 12.7057V6.23512C2.25 5.99395 2.4625 5.79395 2.71875 5.79395C2.975 5.79395 3.1875 5.99395 3.1875 6.23512V12.7057C3.1875 12.9469 2.975 13.1469 2.71875 13.1469C2.4625 13.1469 2.25 12.9469 2.25 12.7057Z" fill="#6A7483" stroke="#6A7483" stroke-width="0.4"/>
<path d="M2.25 3.88235V0.941176C2.25 0.7 2.4625 0.5 2.71875 0.5C2.975 0.5 3.1875 0.7 3.1875 0.941176V3.88235C3.1875 4.12353 2.975 4.32353 2.71875 4.32353C2.4625 4.32353 2.25 4.12353 2.25 3.88235Z" fill="#6A7483" stroke="#6A7483" stroke-width="0.4"/>
<path d="M1.46875 6.6763C1.2125 6.6763 1 6.4763 1 6.23512C1 5.99395 1.2125 5.79395 1.46875 5.79395H3.96875C4.225 5.79395 4.4375 5.99395 4.4375 6.23512C4.4375 6.4763 4.225 6.6763 3.96875 6.6763H1.46875Z" fill="#6A7483" stroke="#6A7483" stroke-width="0.4"/>
<path d="M10.2187 6.6763C9.9625 6.6763 9.75 6.4763 9.75 6.23512C9.75 5.99395 9.9625 5.79395 10.2187 5.79395H12.7187C12.975 5.79395 13.1875 5.99395 13.1875 6.23512C13.1875 6.4763 12.975 6.6763 12.7187 6.6763H10.2187Z" fill="#6A7483" stroke="#6A7483" stroke-width="0.4"/>
<path d="M5.84375 7.85306C5.5875 7.85306 5.375 7.65306 5.375 7.41188C5.375 7.1707 5.5875 6.9707 5.84375 6.9707H8.34375C8.6 6.9707 8.8125 7.1707 8.8125 7.41188C8.8125 7.65306 8.6 7.85306 8.34375 7.85306H5.84375Z" fill="#6A7483" stroke="#6A7483" stroke-width="0.4"/>
</svg>
