<svg width="16" height="17" viewBox="0 0 16 17" fill="none" xmlns="http://www.w3.org/2000/svg"><path d="M9.5 3.5V7H13c.273 0 .5.227.5.5s-.227.5-.5.5H9a.504.504 0 0 1-.5-.5v-4c0-.273.227-.5.5-.5s.5.227.5.5ZM7 9c.273 0 .5.227.5.5v4c0 .273-.227.5-.5.5a.504.504 0 0 1-.5-.5V10H3a.504.504 0 0 1-.5-.5c0-.273.227-.5.5-.5z" fill="#959CA6" stroke="#959CA6" stroke-width=".2"/><path d="M8.646 7.854a.503.503 0 0 1 0-.707l5-5a.503.503 0 0 1 .707 0 .503.503 0 0 1 0 .707l-5 5c-.1.1-.227.146-.353.146a.5.5 0 0 1-.354-.146Zm-7 7a.503.503 0 0 1 0-.707l5-5a.503.503 0 0 1 .707 0 .503.503 0 0 1 0 .707l-5 5c-.1.1-.227.146-.353.146a.5.5 0 0 1-.354-.146Z" fill="#959CA6" stroke="#959CA6" stroke-width=".2"/></svg>