<svg width="40" height="40" viewBox="0 0 40 40" fill="none" xmlns="http://www.w3.org/2000/svg">
<circle cx="20" cy="20" r="20" fill="url(#paint0_linear_2763_27216)"/>
<path fill-rule="evenodd" clip-rule="evenodd" d="M9.26665 31.8928C8.57332 31.2395 8.23998 30.2528 8.35998 29.1861L8.85332 24.8661C8.94665 24.0528 9.43998 22.9728 10.0133 22.3861L20.96 10.7995C23.6933 7.90612 26.5466 7.82612 29.44 10.5595C32.3333 13.2928 32.4133 16.1461 29.68 19.0395L18.7333 30.6261C18.1733 31.2261 17.1333 31.7861 16.32 31.9195L12.0266 32.6528C11.8 32.6661 11.6 32.6928 11.3866 32.6928C10.5733 32.6928 9.81332 32.4128 9.26665 31.8928ZM22.4133 12.1461L11.4666 23.7461C11.2 24.0261 10.8933 24.6928 10.84 25.0795L10.3466 29.3995C10.2933 29.8395 10.4 30.1995 10.64 30.4261C10.88 30.6528 11.24 30.7328 11.68 30.6661L15.9733 29.9328C16.36 29.8661 17 29.5195 17.2666 29.2395L28.2133 17.6528C29.8666 15.8928 30.4667 14.2661 28.0533 11.9995C26.9867 10.9728 26.0667 10.5461 25.24 10.5461C24.2133 10.5461 23.32 11.1861 22.4133 12.1461Z" fill="white"/>
<path d="M9.26665 31.8928L9.43895 31.7116L9.4381 31.7108L9.26665 31.8928ZM8.35998 29.1861L8.1116 29.1578L8.11155 29.1582L8.35998 29.1861ZM8.85332 24.8661L8.60495 24.8376L8.60493 24.8378L8.85332 24.8661ZM10.0133 22.3861L10.1921 22.5609L10.195 22.5578L10.0133 22.3861ZM20.96 10.7995L21.1417 10.9711L21.1417 10.9711L20.96 10.7995ZM29.68 19.0395L29.8617 19.2111L29.8617 19.2111L29.68 19.0395ZM18.7333 30.6261L18.5516 30.4544L18.5506 30.4555L18.7333 30.6261ZM16.32 31.9195L16.2795 31.6727L16.2779 31.673L16.32 31.9195ZM12.0266 32.6528L12.0413 32.9024L12.0551 32.9015L12.0687 32.8992L12.0266 32.6528ZM22.4133 12.1461L22.2316 11.9745L22.2315 11.9745L22.4133 12.1461ZM11.4666 23.7461L11.6477 23.9185L11.6485 23.9177L11.4666 23.7461ZM10.84 25.0795L10.5923 25.0453L10.5916 25.0511L10.84 25.0795ZM10.3466 29.3995L10.5948 29.4295L10.595 29.4278L10.3466 29.3995ZM11.68 30.6661L11.7174 30.9133L11.7221 30.9126L11.68 30.6661ZM15.9733 29.9328L16.0154 30.1792L16.0158 30.1792L15.9733 29.9328ZM17.2666 29.2395L17.4477 29.4119L17.4484 29.4111L17.2666 29.2395ZM28.2133 17.6528L28.395 17.8245L28.3955 17.824L28.2133 17.6528ZM28.0533 11.9995L27.8799 12.1796L27.8822 12.1817L28.0533 11.9995ZM9.4381 31.7108C8.80931 31.1183 8.49603 30.2131 8.60841 29.2141L8.11155 29.1582C7.98394 30.2925 8.33732 31.3606 9.0952 32.0747L9.4381 31.7108ZM8.60837 29.2145L9.1017 24.8945L8.60493 24.8378L8.1116 29.1578L8.60837 29.2145ZM9.10169 24.8946C9.14456 24.521 9.28155 24.0739 9.48006 23.6464C9.67873 23.2186 9.93086 22.8282 10.1921 22.5609L9.83452 22.2114C9.52244 22.5307 9.24124 22.9736 9.02657 23.4358C8.81175 23.8984 8.65541 24.3979 8.60495 24.8376L9.10169 24.8946ZM10.195 22.5578L21.1417 10.9711L20.7783 10.6278L9.83159 22.2144L10.195 22.5578ZM21.1417 10.9711C22.4813 9.55315 23.8194 8.85684 25.147 8.81936C26.4747 8.78187 27.8503 9.40158 29.2683 10.7412L29.6117 10.3777C28.1364 8.984 26.6386 8.27704 25.1329 8.31955C23.6272 8.36207 22.172 9.15243 20.7783 10.6278L21.1417 10.9711ZM29.2683 10.7412C30.6863 12.0808 31.3826 13.4189 31.4201 14.7465C31.4576 16.0742 30.8379 17.4497 29.4983 18.8678L29.8617 19.2111C31.2554 17.7358 31.9624 16.2381 31.9199 14.7324C31.8774 13.2267 31.087 11.7715 29.6117 10.3777L29.2683 10.7412ZM29.4983 18.8678L18.5516 30.4544L18.915 30.7978L29.8617 19.2111L29.4983 18.8678ZM18.5506 30.4555C18.0279 31.0155 17.0378 31.5484 16.2795 31.6727L16.3604 32.1662C17.2288 32.0238 18.3187 31.4368 18.9161 30.7967L18.5506 30.4555ZM16.2779 31.673L11.9846 32.4064L12.0687 32.8992L16.3621 32.1659L16.2779 31.673ZM12.012 32.4032C11.7596 32.4181 11.5926 32.4428 11.3866 32.4428V32.9428C11.6074 32.9428 11.8404 32.9142 12.0413 32.9024L12.012 32.4032ZM11.3866 32.4428C10.6296 32.4428 9.93372 32.1823 9.43895 31.7116L9.09435 32.0739C9.69291 32.6433 10.5171 32.9428 11.3866 32.9428V32.4428ZM22.2315 11.9745L11.2848 23.5745L11.6485 23.9177L22.5951 12.3177L22.2315 11.9745ZM11.2856 23.5737C11.125 23.7424 10.968 24.0073 10.8468 24.2671C10.7251 24.5278 10.6238 24.8169 10.5923 25.0453L11.0876 25.1136C11.1095 24.9554 11.1882 24.7177 11.2999 24.4785C11.412 24.2383 11.5417 24.0298 11.6477 23.9185L11.2856 23.5737ZM10.5916 25.0511L10.0983 29.3711L10.595 29.4278L11.0884 25.1078L10.5916 25.0511ZM10.0985 29.3694C10.0387 29.8622 10.154 30.311 10.4683 30.6079L10.8116 30.2444C10.646 30.0879 10.5479 29.8168 10.5948 29.4295L10.0985 29.3694ZM10.4683 30.6079C10.7837 30.9057 11.2325 30.9868 11.7174 30.9133L11.6425 30.4189C11.2475 30.4788 10.9763 30.3999 10.8116 30.2444L10.4683 30.6079ZM11.7221 30.9126L16.0154 30.1792L15.9312 29.6864L11.6379 30.4197L11.7221 30.9126ZM16.0158 30.1792C16.2473 30.1392 16.5313 30.0219 16.7834 29.8863C17.0357 29.7506 17.2883 29.5792 17.4477 29.4119L17.0856 29.067C16.9783 29.1797 16.7776 29.3216 16.5465 29.446C16.3153 29.5703 16.086 29.6597 15.9308 29.6864L16.0158 30.1792ZM17.4484 29.4111L28.395 17.8245L28.0316 17.4811L17.0849 29.0678L17.4484 29.4111ZM28.3955 17.824C29.2297 16.936 29.8473 16.0338 29.9079 15.0312C29.9693 14.0148 29.4563 12.9742 28.2245 11.8172L27.8822 12.1817C29.0637 13.2914 29.4573 14.1974 29.4088 15.001C29.3594 15.8184 28.8503 16.6096 28.0311 17.4816L28.3955 17.824ZM28.2267 11.8193C27.1372 10.7707 26.1581 10.2961 25.24 10.2961V10.7961C25.9752 10.7961 26.8361 11.1748 27.8799 12.1796L28.2267 11.8193ZM25.24 10.2961C24.1033 10.2961 23.1466 11.0056 22.2316 11.9745L22.5951 12.3178C23.4933 11.3667 24.3233 10.7961 25.24 10.7961V10.2961Z" fill="white"/>
<path d="M27.0272 21.2665C22.8672 20.8531 19.5205 17.6931 18.8805 13.5598C18.8005 13.0131 19.1739 12.5065 19.7205 12.4131C20.2672 12.3331 20.7739 12.7065 20.8672 13.2531C21.3739 16.4798 23.9872 18.9598 27.2405 19.2798C27.7872 19.3331 28.1872 19.8265 28.1339 20.3731C28.0672 20.8798 27.6272 21.2665 27.1205 21.2665C27.0939 21.2665 27.0539 21.2665 27.0272 21.2665Z" fill="white" stroke="white" stroke-width="0.5"/>
<defs>
<linearGradient id="paint0_linear_2763_27216" x1="9.16107" y1="4.41399" x2="43.0248" y2="52.0173" gradientUnits="userSpaceOnUse">
<stop stop-color="#FB2A23"/>
<stop offset="1" stop-color="white"/>
</linearGradient>
</defs>
</svg>
