<svg width="9" height="10" viewBox="0 0 9 10" fill="none" xmlns="http://www.w3.org/2000/svg">
<path fill-rule="evenodd" clip-rule="evenodd" d="M4.5 0.6875C4.70711 0.6875 4.875 0.855393 4.875 1.0625V8.9375C4.875 9.14461 4.70711 9.3125 4.5 9.3125C4.29289 9.3125 4.125 9.14461 4.125 8.9375V1.0625C4.125 0.855393 4.29289 0.6875 4.5 0.6875Z" fill="white"/>
<path fill-rule="evenodd" clip-rule="evenodd" d="M0.1875 4.0625C0.1875 3.44118 0.69118 2.9375 1.3125 2.9375H4.875V7.90625H1.3125C0.69118 7.90625 0.1875 7.40257 0.1875 6.78125V4.0625ZM1.3125 3.6875C1.10539 3.6875 0.9375 3.85539 0.9375 4.0625V6.78125C0.9375 6.98836 1.10539 7.15625 1.3125 7.15625H4.125V3.6875H1.3125Z" fill="white"/>
<path fill-rule="evenodd" clip-rule="evenodd" d="M4.5 5.11104H0.5625V4.36104H4.5V5.11104Z" fill="white"/>
<path fill-rule="evenodd" clip-rule="evenodd" d="M4.5 6.51729H0.5625V5.76729H4.5V6.51729Z" fill="white"/>
<path fill-rule="evenodd" clip-rule="evenodd" d="M8.8125 2.9375C8.8125 2.31618 8.30882 1.8125 7.6875 1.8125H4.125V6.78125H7.6875C8.30882 6.78125 8.8125 6.27757 8.8125 5.65625V2.9375ZM7.6875 2.5625C7.89461 2.5625 8.0625 2.73039 8.0625 2.9375V5.65625C8.0625 5.86336 7.89461 6.03125 7.6875 6.03125H4.875V2.5625H7.6875Z" fill="white"/>
<path fill-rule="evenodd" clip-rule="evenodd" d="M4.5 3.96875H8.4375V3.21875H4.5V3.96875Z" fill="white"/>
<path fill-rule="evenodd" clip-rule="evenodd" d="M4.5 5.375H8.4375V4.625H4.5V5.375Z" fill="white"/>
</svg>
