<svg width="13" height="12" viewBox="0 0 13 12" fill="none" xmlns="http://www.w3.org/2000/svg">
<path fill-rule="evenodd" clip-rule="evenodd" d="M3.33306 7.90909C3.66443 7.90909 3.93306 7.64046 3.93306 7.30909V1.8H5.25306V9.57181L3.11922 7.90909H3.33306ZM5.85306 1.32V10.0393V10.0885V10.4004V10.5544C5.85306 10.6543 5.73811 10.7104 5.6593 10.649L5.53783 10.5544L5.29186 10.3627L5.25306 10.3325L2.14305 7.90909L2.0167 7.81063L1.72229 7.58122L1.64853 7.52374C1.55844 7.45355 1.60808 7.30909 1.72229 7.30909H1.81579H2.18903H2.34922H2.73305H3.33306V6.70909V1.32C3.33306 1.25372 3.38678 1.2 3.45306 1.2H5.73306C5.79933 1.2 5.85306 1.25372 5.85306 1.32ZM10.1731 4.09091C9.84171 4.09091 9.57308 4.35954 9.57308 4.69091V10.2H8.25308V2.42818L10.3869 4.09091H10.1731ZM7.65307 10.68V1.96065V1.91146V1.59963V1.44563C7.65307 1.34573 7.76802 1.28957 7.84683 1.35098L7.96831 1.44563L8.21428 1.6373L8.25308 1.66753L11.3631 4.09091L11.4894 4.18937L11.7838 4.41878L11.8576 4.47625C11.9477 4.54645 11.8981 4.69091 11.7838 4.69091H11.6903H11.3171H11.1569H10.7731H10.1731V5.29091V10.68C10.1731 10.7463 10.1194 10.8 10.0531 10.8H7.77307C7.7068 10.8 7.65307 10.7463 7.65307 10.68Z" fill="#0C1C0D"/>
</svg>
