<svg width="16" height="16" viewBox="0 0 16 16" fill="none" xmlns="http://www.w3.org/2000/svg"><mask id="b" fill="#fff"><path fill-rule="evenodd" clip-rule="evenodd" d="M6.344 15.106c-.267-.1-.72-.426-.72-1.46v-2.74a1.56 1.56 0 0 0-1.56-1.56c-.894 0-1.214-.42-1.327-.666-.113-.254-.213-.767.373-1.44l5.047-5.734c.68-.773 1.233-.72 1.5-.62s.72.427.72 1.46v2.74c0 .862.698 1.56 1.56 1.56.893 0 1.213.42 1.327.667.113.253.213.767-.374 1.44l-5.046 5.733c-.474.54-.887.68-1.18.68a.8.8 0 0 1-.32-.06M8.91 2.173 3.864 7.906l-.008.01c-.17.196-.052.437.208.437h2.06c.273 0 .5.227.5.5v4.817c.001.251.301.347.466.156l5.047-5.733.008-.01c.17-.196.051-.437-.208-.437h-2.06a.504.504 0 0 1-.5-.5V2.33c.003-.243-.307-.34-.467-.156"/></mask><path d="m6.344 15.106 1.153-2.769-.05-.02-.05-.02zM2.737 8.68-.001 9.905l.006.014.006.013zm.373-1.44L.858 5.258l-.005.005-.005.006zm5.047-5.734 2.252 1.983v-.002zm5.107 5.807 2.738-1.225-.006-.014-.006-.013zm-.374 1.44 2.252 1.982.005-.005.005-.006zm-5.046 5.733-2.252-1.982-.004.005zm-3.98-6.58L1.612 5.924l-.006.007zm8.273.187 2.252 1.982.006-.006zm-2.76-5.747-3-.06v.06zm0-.017-3-.038zm-1.98 9.968c.364.137.738.393.994.783.247.376.233.645.233.566h-6c0 .955.212 1.904.752 2.727a3.95 3.95 0 0 0 1.914 1.542zm1.227 1.35v-2.74h-6v2.74zm-4.56-7.3c.038 0 .333.015.696.255.358.236.579.555.703.825L.011 9.932c.238.517.675 1.17 1.444 1.678.776.511 1.677.736 2.609.736zm1.411 1.108c.122.272.217.651.157 1.078-.06.43-.241.656-.26.678L.848 5.269C.243 5.964-.182 6.784-.31 7.702A4 4 0 0 0 0 9.905zm-.113 1.767 5.047-5.733L5.905-.476.858 5.258zm5.048-5.735c.051-.058-.116.154-.55.274a2.05 2.05 0 0 1-1.256-.066l2.106-5.618a3.95 3.95 0 0 0-2.446-.1c-.947.261-1.732.834-2.36 1.548zm-1.806.208a2.05 2.05 0 0 1-.995-.782c-.247-.376-.232-.645-.232-.567h6c0-.954-.212-1.904-.752-2.726a3.95 3.95 0 0 0-1.915-1.543zM7.377 2.346v2.74h6v-2.74zm4.56 7.3c-.038 0-.333-.015-.697-.255a2 2 0 0 1-.702-.825L15.99 6.06a4 4 0 0 0-1.445-1.678c-.775-.511-1.676-.737-2.608-.737zm-1.412-1.108a2 2 0 0 1-.157-1.078c.06-.43.242-.656.26-.678l4.524 3.942c.605-.695 1.03-1.515 1.159-2.433a4 4 0 0 0-.309-2.203zm.113-1.767-5.046 5.733 4.504 3.965 5.046-5.734zm-5.05 5.738c-.039.044.028-.046.225-.148.21-.107.502-.195.85-.195v6c1.365 0 2.546-.686 3.437-1.702zm1.076-.343c.275 0 .56.057.833.171L5.19 17.876c.434.18.932.29 1.474.29zM6.658.191 1.612 5.924 6.116 9.89l5.046-5.734zM1.606 5.93l-.022.025 4.543 3.92-.006.006zm2.458 5.422h2.06v-6h-2.06zm2.06 0a2.496 2.496 0 0 1-2.5-2.5h6c0-1.93-1.57-3.5-3.5-3.5zm-2.5-2.5v4.8h6v-4.8zm0 4.8v.035l6-.037v.002zm5.718 2.156 5.047-5.734L9.885 6.11l-5.047 5.733zm5.053-5.74.022-.026-4.544-3.919.006-.006zm-2.458-5.423h-2.06v6h2.06zm-2.06 0c1.383 0 2.5 1.117 2.5 2.5h-6c0 1.93 1.57 3.5 3.5 3.5zm2.5 2.5v-4.8h-6v4.8zm0-4.74v-.038l-6-.077v-.005zm0-.038c.02-1.602-1.064-2.746-2.244-3.13a3.28 3.28 0 0 0-3.488.968l4.53 3.934a2.73 2.73 0 0 1-2.898.804c-.986-.321-1.917-1.295-1.9-2.653zm2.04 7.675c.736-.853 1.127-2.225.488-3.552-.624-1.297-1.891-1.845-2.968-1.845v6a2.72 2.72 0 0 1-2.439-1.554 2.74 2.74 0 0 1 .375-2.968zm-7.04-4.957a4.56 4.56 0 0 0 4.56 4.56v-6c.795 0 1.44.645 1.44 1.44zm-3.753 8.602a3.25 3.25 0 0 0 2.235 3.076 3.27 3.27 0 0 0 3.496-.97l-4.53-3.935a2.73 2.73 0 0 1 2.908-.795 2.75 2.75 0 0 1 1.89 2.588zm-2.04-7.732C.847 6.81.457 8.182 1.095 9.51c.624 1.297 1.892 1.844 2.969 1.844v-6c.817 0 1.896.427 2.438 1.555a2.74 2.74 0 0 1-.375 2.967zm7.04 4.95a4.56 4.56 0 0 0-4.56-4.56v6a1.44 1.44 0 0 1-1.44-1.44z" fill="url(#a)" mask="url(#b)"/><defs><linearGradient id="a" x1="12.142" y1=".714" x2="2.474" y2="10.456" gradientUnits="userSpaceOnUse"><stop stop-color="#F82020"/><stop offset="1" stop-color="#FDD443"/></linearGradient></defs></svg>