<svg width="40" height="40" viewBox="0 0 40 40" fill="none" xmlns="http://www.w3.org/2000/svg">
<circle cx="20" cy="20" r="20" fill="url(#paint0_linear_5497_46612)"/>
<path d="M12.9811 27.7755L12.4773 28.3311H12.4773L12.9811 27.7755ZM11.129 25.7669L11.7228 25.3088H11.7228L11.129 25.7669ZM10.6445 25.0994L10.0235 25.5198L10.0235 25.5198L10.6445 25.0994ZM10.5173 24.9064L9.88533 25.3103L9.88533 25.3103L10.5173 24.9064ZM10.483 24.8521L9.84512 25.2466L9.8462 25.2483L10.483 24.8521ZM10.4733 24.8365L9.83363 25.228L9.83543 25.2309L10.4733 24.8365ZM10.4703 24.8316L9.82981 25.2217L9.83066 25.2231L10.4703 24.8316ZM10.4693 24.8299L9.82844 25.2195L9.82879 25.2201L10.4693 24.8299ZM10.4689 24.8293L9.82783 25.2185L9.82804 25.2188L10.4689 24.8293ZM11.4988 25.0814C11.853 24.8667 11.9661 24.4055 11.7514 24.0512C11.5367 23.697 11.0755 23.5839 10.7212 23.7986L11.4988 25.0814ZM10.4686 24.8288L9.82723 25.2175C10.0419 25.5717 10.5031 25.6848 10.8574 25.4701L10.4686 24.8288ZM10.4565 24.0719L9.80305 23.7039L9.80305 23.7039L10.4565 24.0719ZM12.5871 25.19V24.44C12.297 24.44 12.0328 24.6074 11.9089 24.8697C11.785 25.1321 11.8236 25.4424 12.0079 25.6664L12.5871 25.19ZM13.9889 26.6645L14.4927 26.1089L14.4927 26.1089L13.9889 26.6645ZM27.9817 12.2041L27.5012 12.78V12.78L27.9817 12.2041ZM29.9614 14.2231L30.5474 13.755L30.5474 13.755L29.9614 14.2231ZM30.4628 14.8974L29.8439 15.3211L29.8439 15.3211L30.4628 14.8974ZM30.593 15.0938L29.961 15.4976L29.961 15.4976L30.593 15.0938ZM30.6282 15.1496L31.2674 14.7573L31.2661 14.7552L30.6282 15.1496ZM30.6383 15.1661L31.2797 14.7774L31.2775 14.7738L30.6383 15.1661ZM30.6415 15.1714L31.2838 14.7842L31.2829 14.7826L30.6415 15.1714ZM30.6426 15.1733L31.2858 14.7875L31.2849 14.7861L30.6426 15.1733ZM30.6431 15.174L29.9999 15.5598L30.0005 15.5609L30.6431 15.174ZM29.6146 14.9166C29.2593 15.1294 29.1437 15.59 29.3566 15.9454C29.5694 16.3007 30.03 16.4163 30.3854 16.2034L29.6146 14.9166ZM30.6434 15.1746L31.2868 14.7893C31.074 14.4339 30.6134 14.3184 30.2581 14.5312L30.6434 15.1746ZM30.3854 16.2034L30 15.56V15.56L30.3854 16.2034ZM29.3573 15.9465L28.7138 16.3317L28.7146 16.3331L29.3573 15.9465ZM29.3571 15.9462L28.7134 16.3311L28.7135 16.3313L29.3571 15.9462ZM29.3569 15.9459L30.0005 15.5609C29.9915 15.5458 29.982 15.5311 29.972 15.5167L29.3569 15.9459ZM29.3568 15.9458L28.7104 16.3261C28.7202 16.3428 28.7307 16.3591 28.7417 16.3749L29.3568 15.9458ZM29.3566 15.9454L30.003 15.565C30.0004 15.5607 29.9978 15.5564 29.9952 15.5521L29.3566 15.9454ZM29.3523 15.9385L29.9909 15.5452L29.9902 15.544L29.3523 15.9385ZM29.329 15.9014L29.961 15.4976L29.961 15.4976L29.329 15.9014ZM29.225 15.7448L28.6062 16.1685L28.6062 16.1685L29.225 15.7448ZM28.7895 15.1594L28.2035 15.6275L28.2035 15.6275L28.7895 15.1594ZM27.0208 13.3559L27.5013 12.78V12.78L27.0208 13.3559ZM12.61 24.44C12.61 23.6116 11.9384 22.94 11.11 22.94V24.44H12.61ZM12.61 29.44V24.44H11.11V29.44H12.61ZM11.11 30.94C11.9384 30.94 12.61 30.2684 12.61 29.44H11.11V30.94ZM9.61 29.44C9.61 30.2684 10.2816 30.94 11.11 30.94V29.44H9.61ZM9.61 24.44V29.44H11.11V24.44H9.61ZM11.11 22.94C10.2816 22.94 9.61 23.6116 9.61 24.44H11.11V22.94ZM31.5 20C31.5 19.1716 30.8284 18.5 30 18.5V20H31.5ZM20 31.5C26.3484 31.5 31.5 26.3484 31.5 20H30C30 25.52 25.52 30 20 30V31.5ZM12.4773 28.3311C14.1513 29.8495 16.7189 31.5 20 31.5V30C17.2401 30 15.0177 28.6101 13.485 27.22L12.4773 28.3311ZM10.5352 26.2251C10.9777 26.7985 11.6305 27.5631 12.4773 28.3311L13.485 27.22C12.7187 26.525 12.125 25.83 11.7228 25.3088L10.5352 26.2251ZM10.0235 25.5198C10.1419 25.6947 10.3132 25.9373 10.5352 26.2251L11.7228 25.3088C11.5217 25.0481 11.3685 24.8309 11.2656 24.6789L10.0235 25.5198ZM9.88533 25.3103C9.9181 25.3616 9.96424 25.4323 10.0235 25.5198L11.2656 24.6789C11.2141 24.6029 11.1752 24.5432 11.1492 24.5024L9.88533 25.3103ZM9.8462 25.2483C9.85589 25.2639 9.86894 25.2847 9.88533 25.3103L11.1492 24.5024C11.1362 24.4821 11.1264 24.4665 11.1198 24.4559L9.8462 25.2483ZM9.83543 25.2309L9.84513 25.2466L11.1209 24.4577L11.1112 24.442L9.83543 25.2309ZM9.83066 25.2231L9.83363 25.228L11.113 24.4449L11.11 24.4401L9.83066 25.2231ZM9.82879 25.2201L9.82981 25.2217L11.1109 24.4414L11.1099 24.4398L9.82879 25.2201ZM9.82804 25.2188L9.82844 25.2195L11.1102 24.4404L11.1098 24.4397L9.82804 25.2188ZM10.7212 23.7986C10.4006 23.993 10.2399 24.0904 10.1594 24.1394C10.1195 24.1636 10.098 24.1768 10.0862 24.184C10.082 24.1866 10.0733 24.1919 10.0648 24.1974C10.0622 24.1991 10.0572 24.2023 10.0511 24.2064C10.0469 24.2092 10.0324 24.2189 10.0146 24.2325C10.0058 24.2392 9.98826 24.2528 9.96741 24.2716C9.95149 24.2859 9.90526 24.3281 9.8589 24.3929C9.81446 24.4551 9.71476 24.614 9.71906 24.8433C9.72121 24.9582 9.74923 25.0532 9.77856 25.1223C9.79225 25.1546 9.80561 25.1797 9.81414 25.195C9.81748 25.2009 9.8226 25.2097 9.82433 25.2127C9.82607 25.2156 9.82783 25.2185 9.82783 25.2185L11.11 24.4401C11.1007 24.4247 11.2145 24.5868 11.2188 24.8152C11.2231 25.0445 11.1234 25.2034 11.079 25.2655C11.0326 25.3303 10.9864 25.3725 10.9705 25.3868C10.9497 25.4055 10.9322 25.4191 10.9235 25.4258C10.9059 25.4392 10.8916 25.4488 10.8878 25.4514C10.882 25.4552 10.8775 25.4582 10.8755 25.4594C10.8694 25.4633 10.8657 25.4656 10.8715 25.462C10.8797 25.457 10.8981 25.4457 10.9384 25.4212C11.0181 25.3728 11.178 25.2758 11.4988 25.0814L10.7212 23.7986ZM10.8574 25.4701L11.4988 25.0814L10.7212 23.7986L10.0799 24.1874L10.8574 25.4701ZM9.80305 23.7039C9.53725 24.1758 9.5465 24.7543 9.82723 25.2175L11.11 24.44L11.11 24.44L9.80305 23.7039ZM11.11 22.94C10.5684 22.94 10.0688 23.232 9.80305 23.7039L11.11 24.44H11.11V22.94ZM15.63 22.94H11.11V24.44H15.63V22.94ZM17.13 24.44C17.13 23.6116 16.4584 22.94 15.63 22.94V24.44H17.13ZM15.63 25.94C16.4584 25.94 17.13 25.2684 17.13 24.44H15.63V25.94ZM12.5871 25.94H15.63V24.44H12.5871V25.94ZM14.4927 26.1089C13.9543 25.6205 13.5086 25.1297 13.1663 24.7136L12.0079 25.6664C12.3871 26.1275 12.8826 26.6736 13.485 27.22L14.4927 26.1089ZM20 28.5C17.7608 28.5 15.8833 27.3702 14.4927 26.1089L13.485 27.22C15.0177 28.6102 17.2402 30 20 30V28.5ZM28.5 20C28.5 24.6916 24.6916 28.5 20 28.5V30C25.52 30 30 25.52 30 20H28.5ZM30 18.5C29.1716 18.5 28.5 19.1716 28.5 20H30V18.5ZM11.5 20C11.5 15.3046 15.2723 11.5 20 11.5V10C14.44 10 10 14.48 10 20H11.5ZM10 21.5C10.8284 21.5 11.5 20.8284 11.5 20H10V21.5ZM8.5 20C8.5 20.8284 9.17157 21.5 10 21.5V20H8.5ZM20 8.5C13.6076 8.5 8.5 13.6555 8.5 20H10C10 14.48 14.44 10 20 10V8.5ZM28.4621 11.6282C26.6088 10.0821 23.7805 8.5 20 8.5V10C23.3349 10 25.8349 11.3899 27.5012 12.78L28.4621 11.6282ZM30.5474 13.755C30.0818 13.1722 29.3879 12.4005 28.4621 11.6282L27.5012 12.78C28.3344 13.475 28.9591 14.17 29.3755 14.6913L30.5474 13.755ZM31.0816 14.4737C30.9588 14.2944 30.7809 14.0472 30.5474 13.755L29.3755 14.6913C29.5837 14.9519 29.7398 15.1691 29.8439 15.3211L31.0816 14.4737ZM31.225 14.69C31.1908 14.6365 31.1431 14.5635 31.0816 14.4737L29.8439 15.3211C29.8959 15.3971 29.935 15.4568 29.961 15.4976L31.225 14.69ZM31.2661 14.7552C31.2558 14.7386 31.2421 14.7167 31.225 14.6899L29.961 15.4976C29.974 15.5179 29.9837 15.5335 29.9903 15.5441L31.2661 14.7552ZM31.2775 14.7738L31.2674 14.7573L29.989 15.542L29.9991 15.5585L31.2775 14.7738ZM31.2829 14.7826L31.2797 14.7774L29.9969 15.5549L30.0001 15.5602L31.2829 14.7826ZM31.2849 14.7861L31.2838 14.7842L29.9991 15.5586L30.0003 15.5605L31.2849 14.7861ZM31.2862 14.7882L31.2858 14.7875L29.9995 15.5591L29.9999 15.5598L31.2862 14.7882ZM30.3854 16.2034C30.707 16.0108 30.8683 15.9141 30.9492 15.8655C30.9891 15.8415 31.011 15.8283 31.0232 15.8209C31.0272 15.8184 31.0371 15.8124 31.0469 15.8061C31.05 15.8042 31.0558 15.8004 31.063 15.7955C31.0679 15.7922 31.085 15.7806 31.1057 15.7644C31.116 15.7563 31.1363 15.74 31.1601 15.7173C31.179 15.6993 31.2299 15.6497 31.278 15.5733C31.3298 15.4909 31.4088 15.328 31.3904 15.1107C31.3817 15.008 31.3534 14.9255 31.328 14.8684C31.3158 14.8412 31.3044 14.82 31.2972 14.8071C31.2943 14.8021 31.29 14.7946 31.2885 14.7921C31.2871 14.7896 31.2856 14.7872 31.2856 14.7872L30.0005 15.5609C30.0005 15.5609 29.999 15.5584 29.9976 15.5559C29.9961 15.5534 29.9918 15.546 29.989 15.541C29.9817 15.5281 29.9703 15.5068 29.9582 15.4797C29.9327 15.4226 29.9044 15.3401 29.8957 15.2374C29.8773 15.02 29.9564 14.8572 30.0081 14.7748C30.0562 14.6984 30.107 14.6488 30.1259 14.6309C30.1496 14.6083 30.1699 14.592 30.1802 14.584C30.2007 14.5678 30.2176 14.5564 30.2222 14.5533C30.229 14.5487 30.2344 14.5452 30.2368 14.5437C30.2442 14.5389 30.2491 14.536 30.2431 14.5397C30.2353 14.5444 30.217 14.5554 30.1766 14.5797C30.0968 14.6277 29.9364 14.7239 29.6146 14.9166L30.3854 16.2034ZM30.2581 14.5312L29.6146 14.9166L30.3854 16.2034L31.0288 15.8181L30.2581 14.5312ZM30.7707 16.8469C31.4814 16.4212 31.7125 15.5 31.2868 14.7893L30 15.56V15.56L30.7707 16.8469ZM28.7146 16.3331C29.1409 17.0419 30.0608 17.272 30.7707 16.8469L30 15.56L30 15.56L28.7146 16.3331ZM28.7135 16.3313L28.7138 16.3317L30.0008 15.5614L30.0006 15.561L28.7135 16.3313ZM28.7132 16.3308L28.7134 16.3311L30.0007 15.5612L30.0005 15.5609L28.7132 16.3308ZM28.7417 16.3749L28.7418 16.375L29.972 15.5167L29.9719 15.5167L28.7417 16.3749ZM28.7102 16.3257L28.7104 16.3261L30.0033 15.5655L30.003 15.565L28.7102 16.3257ZM28.7137 16.3317L28.718 16.3386L29.9952 15.5521L29.9909 15.5452L28.7137 16.3317ZM28.6969 16.3052C28.7059 16.3191 28.7117 16.3285 28.7144 16.3329L29.9902 15.544C29.9837 15.5335 29.974 15.518 29.961 15.4976L28.6969 16.3052ZM28.6062 16.1685C28.6488 16.2307 28.6791 16.2772 28.6969 16.3052L29.961 15.4976C29.935 15.4568 29.8959 15.3971 29.8439 15.3211L28.6062 16.1685ZM28.2035 15.6275C28.3865 15.8565 28.5208 16.0437 28.6062 16.1685L29.8439 15.3211C29.7398 15.1691 29.5837 14.9519 29.3755 14.6912L28.2035 15.6275ZM26.5404 13.9318C27.2808 14.5495 27.8363 15.1678 28.2035 15.6275L29.3755 14.6913C28.9591 14.17 28.3344 13.475 27.5013 12.78L26.5404 13.9318ZM20 11.5C22.8897 11.5 25.0614 12.6981 26.5404 13.9318L27.5013 12.78C25.8349 11.3899 23.3349 10 20 10V11.5ZM31.5 10.56C31.5 9.73157 30.8284 9.06 30 9.06V10.56H31.5ZM31.5 15.56V10.56H30V15.56H31.5ZM30 17.06C30.8284 17.06 31.5 16.3884 31.5 15.56H30V17.06ZM28.5 15.56C28.5 16.3884 29.1716 17.06 30 17.06V15.56H28.5ZM28.5 10.56V15.56H30V10.56H28.5ZM30 9.06C29.1716 9.06 28.5 9.73157 28.5 10.56H30V9.06ZM25.56 14.06C24.7316 14.06 24.06 14.7316 24.06 15.56H25.56V14.06ZM30 14.06H25.56V15.56H30V14.06ZM31.5 15.56C31.5 14.7316 30.8284 14.06 30 14.06V15.56H31.5ZM30 17.06C30.8284 17.06 31.5 16.3884 31.5 15.56H30V17.06ZM25.56 17.06H30V15.56H25.56V17.06ZM24.06 15.56C24.06 16.3884 24.7316 17.06 25.56 17.06V15.56H24.06Z" fill="white"/>
<defs>
<linearGradient id="paint0_linear_5497_46612" x1="9.16107" y1="4.41399" x2="43.0248" y2="52.0173" gradientUnits="userSpaceOnUse">
<stop stop-color="#FB2A23"/>
<stop offset="1" stop-color="white"/>
</linearGradient>
</defs>
</svg>
