<svg width="17" height="16" viewBox="0 0 17 16" fill="none" xmlns="http://www.w3.org/2000/svg">
<rect x="1" y="0.5" width="15" height="15" rx="1.5" stroke="white"/>
<g clip-path="url(#clip0_5236_127348)">
<path d="M8.85343 3.81827C8.75966 3.72453 8.63251 3.67188 8.49993 3.67188C8.36735 3.67188 8.24019 3.72453 8.14643 3.81827L5.31793 6.64677C5.27017 6.69289 5.23208 6.74806 5.20588 6.80907C5.17967 6.87007 5.16588 6.93568 5.1653 7.00207C5.16473 7.06846 5.17738 7.1343 5.20252 7.19575C5.22766 7.25719 5.26478 7.31302 5.31173 7.35997C5.35868 7.40691 5.4145 7.44404 5.47595 7.46918C5.5374 7.49432 5.60324 7.50697 5.66963 7.50639C5.73602 7.50582 5.80163 7.49202 5.86263 7.46582C5.92363 7.43961 5.9788 7.40152 6.02493 7.35377L7.99993 5.37877V12.0003C7.99993 12.1329 8.05261 12.2601 8.14637 12.3538C8.24014 12.4476 8.36732 12.5003 8.49993 12.5003C8.63254 12.5003 8.75971 12.4476 8.85348 12.3538C8.94725 12.2601 8.99993 12.1329 8.99993 12.0003V5.37877L10.9749 7.35377C11.0692 7.44485 11.1955 7.49524 11.3266 7.49411C11.4577 7.49297 11.5831 7.44038 11.6758 7.34768C11.7685 7.25497 11.8211 7.12957 11.8223 6.99847C11.8234 6.86737 11.773 6.74107 11.6819 6.64677L8.85343 3.81827Z" fill="white"/>
</g>
<defs>
<clipPath id="clip0_5236_127348">
<rect width="12" height="12" fill="white" transform="translate(2.5 2)"/>
</clipPath>
</defs>
</svg>
