<svg width="24" height="24" xmlns="http://www.w3.org/2000/svg"><g fill="#FFF" fill-rule="evenodd"><path d="M12 1.25c5.93 0 10.75 4.82 10.75 10.75S17.93 22.75 12 22.75 1.25 17.93 1.25 12 6.07 1.25 12 1.25m0 1.5C6.9 2.75 2.75 6.9 2.75 12S6.9 21.25 12 21.25s9.25-4.15 9.25-9.25S17.1 2.75 12 2.75"/><path d="M7.25 12c0-.41.34-.75.75-.75h8c.41 0 .75.34.75.75s-.34.75-.75.75H8c-.41 0-.75-.34-.75-.75" fill-rule="nonzero"/><path d="M11.25 8c0-.41.34-.75.75-.75s.75.34.75.75v8c0 .41-.34.75-.75.75s-.75-.34-.75-.75z" fill-rule="nonzero"/></g></svg>