<svg width="18" height="18" viewBox="0 0 18 18" fill="none" xmlns="http://www.w3.org/2000/svg"><g fill="#6A7483"><path d="M5.438 3.75V1.5c0-.308.255-.562.562-.562s.563.254.563.562v2.25A.567.567 0 0 1 6 4.313a.567.567 0 0 1-.562-.563m6 0V1.5c0-.308.255-.562.562-.562s.563.254.563.562v2.25a.567.567 0 0 1-.563.563.567.567 0 0 1-.562-.563M2.625 7.383a.567.567 0 0 1-.562-.563c0-.307.254-.562.562-.562h12.75c.307 0 .563.255.563.562a.567.567 0 0 1-.563.563z"/><path fill-rule="evenodd" clip-rule="evenodd" d="M6 17.063c-2.737 0-4.312-1.575-4.312-4.313V6.375c0-2.737 1.575-4.312 4.312-4.312h6c2.738 0 4.313 1.575 4.313 4.312v6.375c0 2.738-1.575 4.313-4.313 4.313zM2.813 6.374v6.375c0 2.145 1.042 3.188 3.187 3.188h6c2.145 0 3.188-1.043 3.188-3.188V6.375c0-2.145-1.043-3.187-3.188-3.187H6c-2.145 0-3.187 1.042-3.187 3.187"/><path d="M6.09 10.815a.9.9 0 0 1-.247-.157.9.9 0 0 1-.158-.248.8.8 0 0 1-.06-.285c0-.195.083-.39.218-.532a.9.9 0 0 1 .247-.158.72.72 0 0 1 .57 0q.068.023.135.068l.112.09c.03.037.068.075.09.112q.045.068.068.135.034.067.045.135c.008.053.015.098.015.15 0 .195-.083.39-.218.533a.8.8 0 0 1-.532.217.8.8 0 0 1-.285-.06m2.378-.158-.09-.113a.6.6 0 0 1-.068-.135.5.5 0 0 1-.045-.135c-.008-.052-.015-.097-.015-.15a.7.7 0 0 1 .06-.285.9.9 0 0 1 .158-.247.75.75 0 0 1 .817-.158c.098.038.172.09.247.158a.8.8 0 0 1 .218.532c0 .053-.007.098-.015.15a.5.5 0 0 1-.045.135.6.6 0 0 1-.068.135l-.09.113a.8.8 0 0 1-.247.157.8.8 0 0 1-.285.06.8.8 0 0 1-.532-.217M6.09 13.44a.9.9 0 0 1-.247-.158.8.8 0 0 1-.158-.248.8.8 0 0 1-.06-.285c0-.195.083-.39.218-.532a.9.9 0 0 1 .247-.158.75.75 0 0 1 .817.158c.03.037.068.075.09.112q.045.067.068.135c.023.045.038.09.045.143a1 1 0 0 1 .015.142c0 .195-.083.39-.218.533a.8.8 0 0 1-.532.217.8.8 0 0 1-.285-.06"/></g></svg>