<svg width="20" height="20" viewBox="0 0 20 20" fill="none" xmlns="http://www.w3.org/2000/svg"><path fill-rule="evenodd" clip-rule="evenodd" d="M18.958 10.001c0-4.941-4.016-8.958-8.958-8.958S1.042 5.06 1.042 10.001c0 4.942 4.016 8.959 8.958 8.959s8.958-4.017 8.958-8.959m-1.25 0c0 4.25-3.458 7.709-7.708 7.709S2.292 14.25 2.292 10 5.75 2.293 10 2.293s7.708 3.458 7.708 7.708" fill="#436AF5"/><path d="m9.392 13.385 2.942-2.941a.63.63 0 0 0 0-.884L9.392 6.62a.63.63 0 0 0-.883 0 .63.63 0 0 0 0 .883l2.5 2.5-2.5 2.5a.63.63 0 0 0 0 .883.6.6 0 0 0 .441.184.62.62 0 0 0 .442-.184" fill="#436AF5"/></svg>