<svg width="16" height="16" viewBox="0 0 16 16" fill="none" xmlns="http://www.w3.org/2000/svg"><g fill="#2A394E"><path fill-rule="evenodd" clip-rule="evenodd" d="M4.173 15.168a3.007 3.007 0 0 1-3.006-3.007V7.675a3.007 3.007 0 0 1 3.006-3.007h7.654a3.007 3.007 0 0 1 3.006 3.007v.96c0 .273-.226.5-.5.5h-1.346a.82.82 0 0 0-.6.246l-.007.007a.84.84 0 0 0-.253.68c.04.44.46.793.94.793h1.266c.274 0 .5.227.5.5v.794a3.01 3.01 0 0 1-3.006 3.013zM2.167 7.675v4.486c0 1.107.9 2.007 2.006 2.007h7.654c1.106 0 2.006-.9 2.006-2.007v-.293h-.766c-1.007 0-1.86-.747-1.94-1.707a1.82 1.82 0 0 1 .546-1.48 1.82 1.82 0 0 1 1.314-.546h.846v-.46c0-1.107-.9-2.007-2.006-2.007H4.173c-1.106 0-2.006.9-2.006 2.007"/><path d="M1.167 8.272V5.225A2.42 2.42 0 0 1 2.72 2.98l5.293-2a1.75 1.75 0 0 1 1.627.2c.48.333.76.873.76 1.453v2.533c0 .274-.227.5-.5.5a.504.504 0 0 1-.5-.5V2.632A.76.76 0 0 0 9.067 2a.75.75 0 0 0-.707-.087l-5.293 2c-.54.207-.907.733-.907 1.313v3.047a.49.49 0 0 1-.493.5.504.504 0 0 1-.5-.5"/><path fill-rule="evenodd" clip-rule="evenodd" d="M11.127 10.16a1.83 1.83 0 0 1 .547-1.487c.34-.347.806-.54 1.306-.54h1.387c.66.02 1.167.54 1.167 1.18v1.373c0 .64-.507 1.16-1.147 1.18h-1.32c-1.007 0-1.86-.746-1.94-1.707m1.86-1.027a.82.82 0 0 0-.6.246.84.84 0 0 0-.26.694c.04.44.46.793.94.793h1.307c.086 0 .166-.08.166-.18V9.313c0-.1-.08-.174-.186-.18z"/><path d="M4.667 8.5a.504.504 0 0 1-.5-.5c0-.273.226-.5.5-.5h4.666c.274 0 .5.227.5.5s-.226.5-.5.5z"/></g></svg>