<svg width="16" height="16" viewBox="0 0 16 16" fill="none" xmlns="http://www.w3.org/2000/svg"><g fill="#2A394E"><path fill-rule="evenodd" clip-rule="evenodd" d="M10.667 7.832a.504.504 0 0 1-.5-.5v-4.66c0-.493.193-.953.54-1.3.346-.347.806-.54 1.3-.54h.006c.834.007 1.62.333 2.22.927.6.606.927 1.406.927 2.24v1.613c.007 1.327-.887 2.22-2.213 2.22zm2.28-1c.773 0 1.22-.447 1.22-1.22V3.999c0-.574-.227-1.12-.634-1.534a2.2 2.2 0 0 0-1.52-.633h-.006a.84.84 0 0 0-.594.247.83.83 0 0 0-.246.593v4.16z"/><path fill-rule="evenodd" clip-rule="evenodd" d="m5.173 15.205-1.106-1.113a.164.164 0 0 0-.22-.013l-1.147.853c-.353.267-.82.313-1.22.113S.833 14.445.833 14V4C.833 1.985 1.987.832 4 .832h8c.273 0 .5.227.5.5s-.227.5-.5.5a.834.834 0 0 0-.833.833V14c0 .446-.247.846-.647 1.046s-.867.16-1.22-.106l-1.14-.854a.16.16 0 0 0-.213.014l-1.12 1.12c-.22.213-.514.333-.827.333s-.607-.12-.827-.347m-.4-1.813 1.107 1.113c.04.04.093.047.12.047s.08-.007.12-.047l1.12-1.12a1.16 1.16 0 0 1 1.527-.1l1.133.847c.073.053.14.033.173.013.034-.02.094-.06.094-.146V2.665c0-.3.073-.586.2-.833H4c-1.48 0-2.167.687-2.167 2.167v10c0 .093.06.133.094.153.04.02.106.033.173-.02l1.14-.853a1.174 1.174 0 0 1 1.533.113"/><path d="M6 9.172a.504.504 0 0 1-.5-.5c0-.273.227-.5.5-.5h2c.273 0 .5.227.5.5s-.227.5-.5.5zm0-2.664a.504.504 0 0 1-.5-.5c0-.274.227-.5.5-.5h2c.273 0 .5.226.5.5 0 .273-.227.5-.5.5zm-2.686-.501c0-.367.3-.667.667-.667.366 0 .666.3.666.667 0 .366-.3.666-.666.666a.67.67 0 0 1-.667-.666m0 2.667c0-.366.3-.666.667-.666.366 0 .666.3.666.666s-.3.667-.666.667a.67.67 0 0 1-.667-.667"/></g></svg>