<svg width="16" height="16" viewBox="0 0 16 16" fill="none" xmlns="http://www.w3.org/2000/svg"><g fill="#2A394E"><path d="M10.667 4.832a.504.504 0 0 1-.5-.5c0-.273.226-.5.5-.5h4c.273 0 .5.227.5.5s-.227.5-.5.5zm-9.334 0a.504.504 0 0 1-.5-.5c0-.273.227-.5.5-.5H4c.273 0 .5.227.5.5s-.227.5-.5.5z"/><path fill-rule="evenodd" clip-rule="evenodd" d="M3.833 4.333A2.84 2.84 0 0 1 6.667 1.5 2.84 2.84 0 0 1 9.5 4.333a2.84 2.84 0 0 1-2.833 2.834 2.84 2.84 0 0 1-2.834-2.834m1 0a1.832 1.832 0 1 0 3.667 0 1.832 1.832 0 1 0-3.667 0"/><path d="M12 12.168a.504.504 0 0 1-.5-.5c0-.273.227-.5.5-.5h2.667c.273 0 .5.227.5.5s-.227.5-.5.5zm-10.667 0a.504.504 0 0 1-.5-.5c0-.273.227-.5.5-.5h4c.274 0 .5.227.5.5s-.226.5-.5.5z"/><path fill-rule="evenodd" clip-rule="evenodd" d="M6.5 11.667a2.84 2.84 0 0 1 2.833-2.833 2.84 2.84 0 0 1 2.834 2.833 2.84 2.84 0 0 1-2.834 2.834A2.84 2.84 0 0 1 6.5 11.667m1 0a1.832 1.832 0 1 0 3.667 0 1.832 1.832 0 1 0-3.667 0"/></g></svg>