<svg width="14" height="14" viewBox="0 0 14 14" fill="none" xmlns="http://www.w3.org/2000/svg"><path fill="#fff" d="M0 .98h14v13H0z"/><g fill="#C93400"><path fill-rule="evenodd" clip-rule="evenodd" d="M.729 6.982A6.277 6.277 0 0 1 6.999.71a6.277 6.277 0 0 1 6.272 6.27A6.277 6.277 0 0 1 7 13.252a6.276 6.276 0 0 1-6.271-6.27m.875 0A5.4 5.4 0 0 0 7 12.378a5.4 5.4 0 0 0 5.396-5.396A5.4 5.4 0 0 0 7 1.586a5.4 5.4 0 0 0-5.396 5.396"/><path d="M6.563 7.565V4.648A.44.44 0 0 1 7 4.211a.44.44 0 0 1 .438.437v2.917A.44.44 0 0 1 7 8.003a.44.44 0 0 1-.437-.438m.215 2.286a.7.7 0 0 1-.192-.122.6.6 0 0 1-.123-.193.6.6 0 0 1-.046-.221.6.6 0 0 1 .046-.222q.044-.105.123-.192a.7.7 0 0 1 .192-.123.58.58 0 0 1 .444 0q.105.044.192.123a.7.7 0 0 1 .123.192.6.6 0 0 1 .046.222.6.6 0 0 1-.046.221.6.6 0 0 1-.123.193.7.7 0 0 1-.192.122.6.6 0 0 1-.222.047.6.6 0 0 1-.222-.047"/></g></svg>