<svg width="16" height="16" viewBox="0 0 16 16" fill="none" xmlns="http://www.w3.org/2000/svg"><g fill="#2A394E"><path fill-rule="evenodd" clip-rule="evenodd" d="M6 15.165C2.38 15.165.833 13.62.833 10V6C.833 2.379 2.38.832 6 .832h4c3.62 0 5.167 1.547 5.167 5.167v4c0 3.62-1.547 5.166-5.167 5.166zM1.833 6v4c0 3.073 1.094 4.166 4.167 4.166h4c3.073 0 4.167-1.093 4.167-4.166V6c0-3.074-1.094-4.167-4.167-4.167H6C2.927 1.833 1.833 2.926 1.833 6"/><path d="M6.167 14.665V1.332c0-.273.226-.5.5-.5.273 0 .5.227.5.5v13.333c0 .274-.227.5-.5.5a.504.504 0 0 1-.5-.5"/><path d="M6.667 6.168a.504.504 0 0 1-.5-.5c0-.273.226-.5.5-.5h8c.273 0 .5.227.5.5s-.227.5-.5.5zm0 4.664a.504.504 0 0 1-.5-.5c0-.273.226-.5.5-.5h8c.273 0 .5.227.5.5s-.227.5-.5.5z"/></g></svg>