<svg width="16" height="16" viewBox="0 0 16 16" fill="none" xmlns="http://www.w3.org/2000/svg"><g fill="#2A394E"><path fill-rule="evenodd" clip-rule="evenodd" d="M6 15.165C2.38 15.165.833 13.62.833 10V6C.833 2.379 2.38.832 6 .832h4c3.62 0 5.167 1.547 5.167 5.167v4c0 3.62-1.547 5.166-5.167 5.166zM1.833 6v4c0 3.073 1.094 4.166 4.167 4.166h4c3.073 0 4.167-1.093 4.167-4.166V6c0-3.074-1.094-4.167-4.167-4.167H6C2.927 1.833 1.833 2.926 1.833 6"/><path d="M9.887 12.334v-2.6c0-.273.226-.5.5-.5.273 0 .5.227.5.5v2.6c0 .274-.227.5-.5.5a.504.504 0 0 1-.5-.5m0-7.366v-1.3c0-.273.226-.5.5-.5.273 0 .5.227.5.5v1.3c0 .273-.227.5-.5.5a.504.504 0 0 1-.5-.5"/><path fill-rule="evenodd" clip-rule="evenodd" d="M8.154 6.7a2.233 2.233 0 1 1 4.466 0 2.233 2.233 0 0 1-4.466 0m1 0a1.234 1.234 0 0 0 2.466 0c0-.68-.56-1.233-1.233-1.233-.68 0-1.233.553-1.233 1.233"/><path d="M5.113 12.333v-1.3c0-.273.227-.5.5-.5.274 0 .5.227.5.5v1.3a.5.5 0 1 1-1 0m0-6.065v-2.6c0-.273.227-.5.5-.5.274 0 .5.227.5.5v2.6a.5.5 0 1 1-1 0"/><path fill-rule="evenodd" clip-rule="evenodd" d="M3.38 9.3a2.233 2.233 0 1 1 4.467 0 2.233 2.233 0 0 1-4.467 0m1 0a1.234 1.234 0 0 0 2.467 0 1.23 1.23 0 0 0-1.234-1.234c-.68 0-1.233.554-1.233 1.234"/></g></svg>