<svg width="24" height="24" viewBox="4.8 4.7 14.4 14.6" fill="none" xmlns="http://www.w3.org/2000/svg"><path fill-rule="evenodd" clip-rule="evenodd" d="M9.5 12a2.5 2.5 0 0 1 5 0 2.5 2.5 0 0 1-5 0m1 0c0 .827.673 1.5 1.5 1.5s1.5-.673 1.5-1.5-.673-1.5-1.5-1.5-1.5.673-1.5 1.5" fill="#6A7483"/><path fill-rule="evenodd" clip-rule="evenodd" d="M13.72 18.74a1.64 1.64 0 0 1-.98-.74l-.08-.134c-.393-.68-.933-.68-1.326 0l-.074.127a1.6 1.6 0 0 1-.98.747c-.42.113-.853.053-1.22-.167l-1.147-.66A1.766 1.766 0 0 1 7.26 15.5c.194-.34.247-.647.134-.84-.114-.194-.4-.307-.794-.307a1.77 1.77 0 0 1-1.766-1.767v-1.173A1.77 1.77 0 0 1 6.6 9.647c.394 0 .68-.114.794-.307s.066-.5-.134-.84a1.77 1.77 0 0 1-.173-1.34c.12-.46.413-.84.827-1.073l1.153-.66c.753-.447 1.746-.187 2.2.58l.08.133c.393.68.933.68 1.327 0l.073-.127a1.61 1.61 0 0 1 2.207-.58l1.146.66a1.766 1.766 0 0 1 .653 2.414c-.193.34-.246.646-.133.84s.4.306.793.306a1.77 1.77 0 0 1 1.767 1.767v1.173a1.77 1.77 0 0 1-1.767 1.767c-.393 0-.68.113-.793.306-.113.194-.067.5.133.84.234.407.3.887.174 1.34-.12.46-.413.84-.827 1.074l-1.153.66a1.66 1.66 0 0 1-1.227.16m-.193-1.38.073.127c.08.14.213.24.373.28s.32.02.454-.06l1.153-.667a.77.77 0 0 0 .287-1.047c-.38-.653-.427-1.327-.134-1.84.294-.513.9-.806 1.66-.806.427 0 .767-.34.767-.767v-1.174c0-.42-.34-.766-.767-.766-.76 0-1.366-.293-1.66-.807-.293-.513-.246-1.186.134-1.84a.78.78 0 0 0-.28-1.047l-1.153-.66a.613.613 0 0 0-.84.22l-.074.127c-.38.66-.933 1.034-1.527 1.034s-1.146-.374-1.526-1.034l-.074-.133a.61.61 0 0 0-.826-.213l-1.153.666A.77.77 0 0 0 8.127 8c.38.653.426 1.327.133 1.84s-.9.806-1.66.806a.763.763 0 0 0-.766.767v1.173c0 .42.34.767.766.767.76 0 1.367.293 1.66.807.293.513.247 1.187-.133 1.84a.76.76 0 0 0-.074.58c.054.2.18.36.354.467l1.153.66a.6.6 0 0 0 .46.066.63.63 0 0 0 .38-.287l.073-.126c.38-.654.934-1.033 1.527-1.033.594 0 1.147.373 1.527 1.033" fill="#6A7483"/></svg>