<svg width="20" height="20" viewBox="0 0 20 20" fill="none" xmlns="http://www.w3.org/2000/svg">
<path fill-rule="evenodd" clip-rule="evenodd" d="M18.9583 10.0013C18.9583 5.05964 14.9416 1.04297 9.99992 1.04297C5.05825 1.04297 1.04159 5.05964 1.04159 10.0013C1.04159 14.943 5.05825 18.9596 9.99992 18.9596C14.9416 18.9596 18.9583 14.943 18.9583 10.0013ZM17.7083 10.0013C17.7083 14.2513 14.2499 17.7096 9.99992 17.7096C5.74992 17.7096 2.29159 14.2513 2.29159 10.0013C2.29159 5.7513 5.74992 2.29297 9.99992 2.29297C14.2499 2.29297 17.7083 5.7513 17.7083 10.0013Z" fill="#436AF5"/>
<path d="M9.39185 13.3854L12.3335 10.4438C12.5752 10.2021 12.5752 9.80208 12.3335 9.56042L9.39185 6.61875C9.15019 6.37708 8.75019 6.37708 8.50852 6.61875C8.26685 6.86042 8.26685 7.26042 8.50852 7.50208L11.0085 10.0021L8.50852 12.5021C8.26685 12.7438 8.26685 13.1438 8.50852 13.3854C8.62519 13.5104 8.78352 13.5688 8.95019 13.5688C9.10852 13.5688 9.26685 13.5104 9.39185 13.3854Z" fill="#436AF5"/>
</svg>
