<svg width="13" height="14" viewBox="0 0 13 14" fill="none" xmlns="http://www.w3.org/2000/svg">
<path d="M7.48648 11.9684C7.4269 11.7518 7.5569 11.5297 7.77898 11.4701C9.97815 10.8905 11.5111 8.89719 11.5111 6.62219C11.5111 3.85969 9.26315 1.61177 6.50065 1.61177C4.15523 1.61177 2.6169 2.98219 1.89648 3.81094H3.48898C3.71107 3.81094 3.89523 3.9951 3.89523 4.21719C3.89523 4.43927 3.71648 4.62885 3.48898 4.62885H1.0894C1.06232 4.62885 1.01357 4.62344 0.975651 4.6126C0.926901 4.59635 0.883568 4.57469 0.845651 4.5476C0.796901 4.5151 0.758984 4.47177 0.731901 4.42302C0.704818 4.37427 0.683151 4.31469 0.677734 4.2551C0.677734 4.23885 0.677734 4.22802 0.677734 4.21177V1.7526C0.677734 1.53052 0.861901 1.34635 1.08398 1.34635C1.30607 1.34635 1.49023 1.53052 1.49023 1.7526V3.04719C2.37315 2.09927 4.03607 0.804688 6.50065 0.804688C9.71273 0.804688 12.3236 3.41552 12.3236 6.6276C12.3236 9.27094 10.5415 11.5893 7.98482 12.2609C7.95232 12.2664 7.9144 12.2718 7.8819 12.2718C7.70315 12.2718 7.53523 12.1526 7.48648 11.9684Z" fill="white"/>
<path fill-rule="evenodd" clip-rule="evenodd" d="M6.08898 12.4356C5.50398 12.3977 4.92982 12.2677 4.38815 12.0564C4.23107 11.9968 4.12273 11.8397 4.12815 11.6718C4.12815 11.6231 4.13898 11.5743 4.15523 11.531C4.23648 11.3252 4.48023 11.2222 4.68065 11.2981C5.1519 11.4822 5.64482 11.5906 6.14315 11.6285C6.3544 11.6393 6.52232 11.8235 6.52232 12.0402L6.5169 12.0618C6.50607 12.2731 6.32732 12.441 6.11607 12.441C6.10523 12.441 6.0944 12.4356 6.08898 12.4356ZM2.8769 11.1897C2.4219 10.8214 2.02107 10.3935 1.69607 9.91682C1.64732 9.84641 1.62023 9.77057 1.62023 9.68932C1.62023 9.55391 1.68523 9.42932 1.79898 9.35349C1.97773 9.22891 2.23773 9.27766 2.36232 9.45099C2.36232 9.45641 2.36232 9.45641 2.36232 9.45641C2.36773 9.46182 2.37315 9.47266 2.37857 9.47807C2.66023 9.88432 3.00148 10.2472 3.38607 10.5506C3.47815 10.6264 3.53773 10.7402 3.53773 10.8647C3.53773 10.9568 3.51065 11.0489 3.45107 11.1247C3.36982 11.2222 3.25607 11.2764 3.13148 11.2764C3.0394 11.2764 2.95273 11.2439 2.8769 11.1897ZM0.937734 8.35141C0.764401 7.79349 0.677734 7.21391 0.677734 6.62891V6.62349C0.683151 6.40141 0.861901 6.22266 1.08398 6.22266C1.30607 6.22266 1.49023 6.40682 1.49023 6.62891C1.49023 7.13807 1.56607 7.63641 1.71232 8.10766C1.72315 8.15099 1.72857 8.18891 1.72857 8.23224C1.72857 8.40557 1.61482 8.56266 1.44148 8.61682C1.40357 8.62766 1.36565 8.63307 1.32232 8.63307C1.14357 8.63307 0.986484 8.51932 0.937734 8.35141Z" fill="white"/>
</svg>
