<svg width="76" height="76" viewBox="0 0 76 76" fill="none" xmlns="http://www.w3.org/2000/svg">
<ellipse cx="38.2697" cy="38" rx="32.2697" ry="32" fill="#FFAF4D"/>
<mask id="path-2-inside-1_1613_76265" fill="white">
<path d="M47.9511 51.7754H30.2433V30.7507L41.5119 19.4297L43.5241 21.4513C43.7119 21.64 43.8665 21.896 43.9878 22.2195C44.109 22.543 44.1691 22.8529 44.1681 23.1494V23.7155L42.3973 30.7507H52.7805C53.639 30.7507 54.3903 31.0741 55.0342 31.721C55.6781 32.368 56.0001 33.1227 56.0001 33.9852V37.2198C56.0001 37.4085 55.9732 37.6107 55.9196 37.8263C55.8659 38.0419 55.8123 38.2441 55.7586 38.4328L50.9292 49.8346C50.6877 50.3737 50.2853 50.8319 49.7219 51.2093C49.1584 51.5867 48.5682 51.7754 47.9511 51.7754ZM33.4629 48.5408H47.9511L52.7805 37.2198V33.9852H38.2923L40.4655 25.0902L33.4629 32.1254V48.5408ZM30.2433 30.7507V33.9852H25.4139V48.5408H30.2433V51.7754H22.1943V30.7507H30.2433Z"/>
</mask>
<path d="M47.9511 51.7754H30.2433V30.7507L41.5119 19.4297L43.5241 21.4513C43.7119 21.64 43.8665 21.896 43.9878 22.2195C44.109 22.543 44.1691 22.8529 44.1681 23.1494V23.7155L42.3973 30.7507H52.7805C53.639 30.7507 54.3903 31.0741 55.0342 31.721C55.6781 32.368 56.0001 33.1227 56.0001 33.9852V37.2198C56.0001 37.4085 55.9732 37.6107 55.9196 37.8263C55.8659 38.0419 55.8123 38.2441 55.7586 38.4328L50.9292 49.8346C50.6877 50.3737 50.2853 50.8319 49.7219 51.2093C49.1584 51.5867 48.5682 51.7754 47.9511 51.7754ZM33.4629 48.5408H47.9511L52.7805 37.2198V33.9852H38.2923L40.4655 25.0902L33.4629 32.1254V48.5408ZM30.2433 30.7507V33.9852H25.4139V48.5408H30.2433V51.7754H22.1943V30.7507H30.2433Z" fill="white"/>
<path d="M47.9511 51.7754V44.7754V51.7754ZM41.5119 19.4297L46.4731 14.4914L41.5119 9.50714L36.5507 14.4914L41.5119 19.4297ZM43.5241 21.4513L38.5629 26.3895L38.5629 26.3895L43.5241 21.4513ZM44.1681 23.1494L37.1681 23.1241L37.1681 23.1368V23.1494H44.1681ZM44.1681 23.7155L50.9563 25.4241L51.1681 24.5829V23.7155H44.1681ZM42.3973 30.7507L35.609 29.042L33.417 37.7507H42.3973V30.7507ZM56.0001 33.9852L63.0001 33.9852L56.0001 33.9852ZM55.7586 38.4328L62.2042 41.1629L62.3731 40.7641L62.4916 40.3476L55.7586 38.4328ZM50.9292 49.8346L57.3176 52.6961L57.3469 52.6307L57.3749 52.5648L50.9292 49.8346ZM49.7219 51.2093L45.8265 45.3933L49.7219 51.2093ZM33.4629 48.5408H26.4629V55.5408H33.4629V48.5408ZM47.9511 48.5408V55.5408H52.5753L54.3897 51.2874L47.9511 48.5408ZM52.7805 37.2198L59.2191 39.9664L59.7805 38.6505V37.2198H52.7805ZM52.7805 33.9852H59.7805V26.9852H52.7805V33.9852ZM38.2923 33.9852L31.4923 32.3239L29.3762 40.9852H38.2923V33.9852ZM40.4655 25.0902L47.2655 26.7515L53.2284 2.34542L35.5043 20.1519L40.4655 25.0902ZM33.4629 32.1254L28.5017 27.1871L26.4629 29.2354V32.1254H33.4629ZM30.2433 33.9852V40.9852H37.2433V33.9852H30.2433ZM25.4139 33.9852V26.9852H18.4139V33.9852H25.4139ZM25.4139 48.5408H18.4139V55.5408H25.4139V48.5408ZM30.2433 48.5408H37.2433V41.5408H30.2433V48.5408ZM22.1943 51.7754H15.1943V58.7754H22.1943V51.7754ZM22.1943 30.7507V23.7507H15.1943V30.7507H22.1943ZM47.9511 44.7754H30.2433V58.7754H47.9511V44.7754ZM37.2433 51.7754V30.7507H23.2433V51.7754H37.2433ZM35.2045 35.6889L46.4731 24.3679L36.5507 14.4914L25.2821 25.8124L35.2045 35.6889ZM36.5507 24.3679L38.5629 26.3895L48.4854 16.513L46.4731 14.4914L36.5507 24.3679ZM38.5629 26.3895C37.8738 25.6973 37.5614 25.0187 37.4333 24.6769L50.5422 19.7621C50.1716 18.7734 49.5501 17.5827 48.4854 16.513L38.5629 26.3895ZM37.4333 24.6769C37.3052 24.3354 37.1656 23.8028 37.1681 23.1241L51.168 23.1748C51.1726 21.9031 50.9128 20.7506 50.5422 19.7621L37.4333 24.6769ZM37.1681 23.1494V23.7155H51.1681V23.1494H37.1681ZM37.3798 22.0069L35.609 29.042L49.1856 32.4593L50.9563 25.4241L37.3798 22.0069ZM42.3973 37.7507H52.7805V23.7507H42.3973V37.7507ZM52.7805 37.7507C52.306 37.7507 51.7615 37.656 51.2196 37.4226C50.6861 37.1929 50.3075 36.8949 50.073 36.6593L59.9954 26.7828C58.1299 24.9086 55.6277 23.7507 52.7805 23.7507V37.7507ZM50.073 36.6593C49.8382 36.4234 49.5449 36.0463 49.32 35.5189C49.0917 34.9838 49.0001 34.4488 49.0001 33.9852L63.0001 33.9852C63.0001 31.1556 61.8607 28.6568 59.9954 26.7828L50.073 36.6593ZM49.0001 33.9852V37.2198H63.0001V33.9852H49.0001ZM49.0001 37.2198C49.0001 36.7485 49.0664 36.3783 49.1267 36.1359L62.7124 39.5166C62.88 38.843 63.0001 38.0685 63.0001 37.2198H49.0001ZM49.1267 36.1359C49.0894 36.2861 49.0555 36.4128 49.0256 36.518L62.4916 40.3476C62.569 40.0754 62.6425 39.7978 62.7124 39.5166L49.1267 36.1359ZM49.3129 35.7026L44.4836 47.1045L57.3749 52.5648L62.2042 41.1629L49.3129 35.7026ZM44.5408 46.9731C44.9124 46.1435 45.4632 45.6366 45.8265 45.3933L53.6172 57.0253C55.1074 56.0273 56.4631 54.6039 57.3176 52.6961L44.5408 46.9731ZM45.8265 45.3933C46.2967 45.0784 47.0447 44.7754 47.9511 44.7754L47.9511 58.7754C50.0917 58.7754 52.0202 58.095 53.6172 57.0253L45.8265 45.3933ZM33.4629 55.5408H47.9511V41.5408H33.4629V55.5408ZM54.3897 51.2874L59.2191 39.9664L46.3418 34.4732L41.5124 45.7942L54.3897 51.2874ZM59.7805 37.2198V33.9852H45.7805V37.2198H59.7805ZM52.7805 26.9852H38.2923V40.9852H52.7805V26.9852ZM45.0923 35.6466L47.2655 26.7515L33.6655 23.4288L31.4923 32.3239L45.0923 35.6466ZM35.5043 20.1519L28.5017 27.1871L38.4241 37.0636L45.4267 30.0284L35.5043 20.1519ZM26.4629 32.1254V48.5408H40.4629V32.1254H26.4629ZM23.2433 30.7507V33.9852H37.2433V30.7507H23.2433ZM30.2433 26.9852H25.4139V40.9852H30.2433V26.9852ZM18.4139 33.9852V48.5408H32.4139V33.9852H18.4139ZM25.4139 55.5408H30.2433V41.5408H25.4139V55.5408ZM23.2433 48.5408V51.7754H37.2433V48.5408H23.2433ZM30.2433 44.7754H22.1943V58.7754H30.2433V44.7754ZM29.1943 51.7754V30.7507H15.1943V51.7754H29.1943ZM22.1943 37.7507H30.2433V23.7507H22.1943V37.7507Z" fill="white" mask="url(#path-2-inside-1_1613_76265)"/>
</svg>
