<svg width="13" height="13" viewBox="0 0 13 13" fill="none" xmlns="http://www.w3.org/2000/svg">
<path d="M6.73473 6.63768C6.58973 6.49268 6.58973 6.25268 6.73473 6.10768L10.8347 2.00768C10.9797 1.86268 11.2197 1.86268 11.3647 2.00768C11.5097 2.15268 11.5097 2.39268 11.3647 2.53768L7.26473 6.63768C7.18973 6.71268 7.09473 6.74768 6.99973 6.74768C6.90473 6.74768 6.80973 6.71268 6.73473 6.63768Z" fill="#436AF5"/>
<path d="M11.1251 4.27256V2.24756H9.1001C8.8951 2.24756 8.7251 2.07756 8.7251 1.87256C8.7251 1.66756 8.8951 1.49756 9.1001 1.49756H11.5001C11.7051 1.49756 11.8751 1.66756 11.8751 1.87256V4.27256C11.8751 4.47756 11.7051 4.64756 11.5001 4.64756C11.2951 4.64756 11.1251 4.47756 11.1251 4.27256Z" fill="#436AF5"/>
<path d="M5.00049 12.2476C2.28549 12.2476 1.12549 11.0876 1.12549 8.37256V5.37256C1.12549 2.65756 2.28549 1.49756 5.00049 1.49756H6.00049C6.20549 1.49756 6.37549 1.66756 6.37549 1.87256C6.37549 2.07756 6.20549 2.24756 6.00049 2.24756H5.00049C2.69549 2.24756 1.87549 3.06756 1.87549 5.37256V8.37256C1.87549 10.6776 2.69549 11.4976 5.00049 11.4976H8.00049C10.3055 11.4976 11.1255 10.6776 11.1255 8.37256V7.37256C11.1255 7.16756 11.2955 6.99756 11.5005 6.99756C11.7055 6.99756 11.8755 7.16756 11.8755 7.37256V8.37256C11.8755 11.0876 10.7155 12.2476 8.00049 12.2476H5.00049Z" fill="#436AF5"/>
</svg>
