<svg width="38" height="38" viewBox="0 0 38 38" fill="none" xmlns="http://www.w3.org/2000/svg">
  <path d="M12.6178 25.3814C12.1586 24.9223 12.1586 24.1623 12.6178 23.7031L23.7011 12.6198C24.1603 12.1606 24.9203 12.1606 25.3795 12.6198C25.8386 13.0789 25.8386 13.8389 25.3795 14.2981L14.2961 25.3814C14.0586 25.6189 13.7578 25.7298 13.457 25.7298C13.1561 25.7298 12.8553 25.6189 12.6178 25.3814Z" fill="#2A394E"/>
  <path d="M23.7011 25.3814L12.6178 14.2981C12.1586 13.8389 12.1586 13.0789 12.6178 12.6198C13.077 12.1606 13.837 12.1606 14.2961 12.6198L25.3795 23.7031C25.8386 24.1623 25.8386 24.9223 25.3795 25.3814C25.142 25.6189 24.8411 25.7298 24.5403 25.7298C24.2395 25.7298 23.9386 25.6189 23.7011 25.3814Z" fill="#2A394E"/>
  <path opacity="0.01" fill-rule="evenodd" clip-rule="evenodd" d="M38 0V38H0V0H38Z" fill="#2A394E"/>
</svg>
