<svg width="14" height="14" viewBox="0 0 14 14" fill="none" xmlns="http://www.w3.org/2000/svg">
<path d="M11 13.2057V6.73512C11 6.49395 11.2125 6.29395 11.4688 6.29395C11.725 6.29395 11.9375 6.49395 11.9375 6.73512V13.2057C11.9375 13.4469 11.725 13.6469 11.4688 13.6469C11.2125 13.6469 11 13.4469 11 13.2057Z" fill="#404040" stroke="#404040" stroke-width="0.4"/>
<path d="M11 4.38235V1.44118C11 1.2 11.2125 1 11.4688 1C11.725 1 11.9375 1.2 11.9375 1.44118V4.38235C11.9375 4.62353 11.725 4.82353 11.4688 4.82353C11.2125 4.82353 11 4.62353 11 4.38235Z" fill="#404040" stroke="#404040" stroke-width="0.4"/>
<path d="M6.625 13.2056V10.2644C6.625 10.0232 6.8375 9.82324 7.09375 9.82324C7.35 9.82324 7.5625 10.0232 7.5625 10.2644V13.2056C7.5625 13.4468 7.35 13.6468 7.09375 13.6468C6.8375 13.6468 6.625 13.4468 6.625 13.2056Z" fill="#404040" stroke="#404040" stroke-width="0.4"/>
<path d="M6.625 7.91176V1.44118C6.625 1.2 6.8375 1 7.09375 1C7.35 1 7.5625 1.2 7.5625 1.44118V7.91176C7.5625 8.15294 7.35 8.35294 7.09375 8.35294C6.8375 8.35294 6.625 8.15294 6.625 7.91176Z" fill="#404040" stroke="#404040" stroke-width="0.4"/>
<path d="M2.25 13.2057V6.73512C2.25 6.49395 2.4625 6.29395 2.71875 6.29395C2.975 6.29395 3.1875 6.49395 3.1875 6.73512V13.2057C3.1875 13.4469 2.975 13.6469 2.71875 13.6469C2.4625 13.6469 2.25 13.4469 2.25 13.2057Z" fill="#404040" stroke="#404040" stroke-width="0.4"/>
<path d="M2.25 4.38235V1.44118C2.25 1.2 2.4625 1 2.71875 1C2.975 1 3.1875 1.2 3.1875 1.44118V4.38235C3.1875 4.62353 2.975 4.82353 2.71875 4.82353C2.4625 4.82353 2.25 4.62353 2.25 4.38235Z" fill="#404040" stroke="#404040" stroke-width="0.4"/>
<path d="M1.46875 7.1763C1.2125 7.1763 1 6.9763 1 6.73512C1 6.49395 1.2125 6.29395 1.46875 6.29395H3.96875C4.225 6.29395 4.4375 6.49395 4.4375 6.73512C4.4375 6.9763 4.225 7.1763 3.96875 7.1763H1.46875Z" fill="#404040" stroke="#404040" stroke-width="0.4"/>
<path d="M10.2187 7.1763C9.9625 7.1763 9.75 6.9763 9.75 6.73512C9.75 6.49395 9.9625 6.29395 10.2187 6.29395H12.7187C12.975 6.29395 13.1875 6.49395 13.1875 6.73512C13.1875 6.9763 12.975 7.1763 12.7187 7.1763H10.2187Z" fill="#404040" stroke="#404040" stroke-width="0.4"/>
<path d="M5.84375 8.35306C5.5875 8.35306 5.375 8.15306 5.375 7.91188C5.375 7.6707 5.5875 7.4707 5.84375 7.4707H8.34375C8.6 7.4707 8.8125 7.6707 8.8125 7.91188C8.8125 8.15306 8.6 8.35306 8.34375 8.35306H5.84375Z" fill="#404040" stroke="#404040" stroke-width="0.4"/>
</svg>
