<svg width="16" height="16" viewBox="0 0 16 16" fill="none" xmlns="http://www.w3.org/2000/svg">
<path d="M8 13.1591C8.63989 13.1591 9.15909 12.6399 9.15909 12C9.15909 11.3601 8.63989 10.8409 8 10.8409C7.36011 10.8409 6.84091 11.3601 6.84091 12C6.84091 12.6399 7.36011 13.1591 8 13.1591Z" fill="#404040" stroke="#404040" stroke-width="0.5"/>
<path fill-rule="evenodd" clip-rule="evenodd" d="M8 8.90909C8.50182 8.90909 8.90909 8.50182 8.90909 8C8.90909 7.49818 8.50182 7.09091 8 7.09091C7.49818 7.09091 7.09091 7.49818 7.09091 8C7.09091 8.50182 7.49818 8.90909 8 8.90909Z" fill="#404040" stroke="#404040"/>
<path fill-rule="evenodd" clip-rule="evenodd" d="M8 4.90909C8.50182 4.90909 8.90909 4.50182 8.90909 4C8.90909 3.49818 8.50182 3.09091 8 3.09091C7.49818 3.09091 7.09091 3.49818 7.09091 4C7.09091 4.50182 7.49818 4.90909 8 4.90909Z" fill="#404040" stroke="#404040"/>
</svg>
