<svg width="16" height="16" viewBox="0 0 16 16" fill="none" xmlns="http://www.w3.org/2000/svg">
<path fill-rule="evenodd" clip-rule="evenodd" d="M5.33381 15.1667C2.25381 15.1667 1.68048 13.7333 1.53381 12.34L1.03381 7.00002C0.960477 6.30002 0.940477 5.26668 1.63381 4.49335C2.23381 3.82668 3.22714 3.50668 4.66714 3.50668H11.3338C12.7805 3.50668 13.7738 3.83335 14.3671 4.49335C15.0605 5.26668 15.0405 6.30002 14.9671 7.00668L14.4671 12.3334C14.3205 13.7333 13.7471 15.1667 10.6671 15.1667H5.33381ZM2.37381 5.16002C2.04714 5.52002 1.94048 6.07335 2.02714 6.90002L2.52714 12.24C2.64048 13.2934 2.92714 14.1667 5.33381 14.1667H10.6671C13.0671 14.1667 13.3605 13.2934 13.4738 12.2334L13.9738 6.90668C14.0605 6.07335 13.9538 5.52002 13.6271 5.16002C13.2338 4.72002 12.4605 4.50002 11.3338 4.50002H4.66714C3.54048 4.50002 2.76714 4.72002 2.37381 5.16002Z" fill="#404040"/>
<path d="M10.1663 4.00001V3.46668C10.1663 2.28001 10.1663 1.83334 8.53301 1.83334H7.46634C5.83301 1.83334 5.83301 2.28001 5.83301 3.46668V4.00001C5.83301 4.27334 5.60634 4.50001 5.33301 4.50001C5.05967 4.50001 4.83301 4.27334 4.83301 4.00001V3.46668C4.83301 2.29334 4.83301 0.833344 7.46634 0.833344H8.53301C11.1663 0.833344 11.1663 2.29334 11.1663 3.46668V4.00001C11.1663 4.27334 10.9397 4.50001 10.6663 4.50001C10.393 4.50001 10.1663 4.27334 10.1663 4.00001Z" fill="#404040"/>
<path fill-rule="evenodd" clip-rule="evenodd" d="M6.16699 9.35333V8.66667C6.16699 7.72667 6.39366 7.5 7.33366 7.5H8.66699C9.60699 7.5 9.83366 7.72667 9.83366 8.66667V9.33333C9.83366 10.0267 9.83366 11.1667 8.00033 11.1667C6.16699 11.1667 6.16699 10.0333 6.16699 9.35333ZM7.16699 8.66667V9.35333C7.16699 10.04 7.16699 10.1667 8.00033 10.1667C8.83366 10.1667 8.83366 10.06 8.83366 9.34667V8.66667C8.83366 8.61333 8.83366 8.55333 8.83366 8.5C8.78033 8.5 8.72033 8.5 8.66699 8.5H7.33366C7.28033 8.5 7.22033 8.5 7.16699 8.5C7.16699 8.55333 7.16699 8.61333 7.16699 8.66667Z" fill="#404040"/>
<path d="M8.83967 9.40665C8.80634 9.13332 8.99967 8.87999 9.27301 8.84665C11.033 8.62665 12.7197 7.95999 14.1397 6.92665C14.3597 6.75999 14.673 6.81332 14.8397 7.03999C14.9997 7.25999 14.953 7.57332 14.7263 7.73999C13.1663 8.87332 11.3263 9.59999 9.39301 9.84665C9.37301 9.84665 9.35301 9.84665 9.33301 9.84665C9.08634 9.84665 8.86634 9.65999 8.83967 9.40665Z" fill="#404040"/>
<path d="M6.60715 9.85328C4.78048 9.64661 3.00048 8.97995 1.46048 7.92661C1.23382 7.77328 1.17382 7.45995 1.32715 7.23328C1.48048 7.00661 1.79382 6.94661 2.02048 7.09994C3.42715 8.05994 5.04715 8.66661 6.71381 8.85995C6.98715 8.89328 7.18715 9.13995 7.15381 9.41328C7.13381 9.66661 6.92048 9.85328 6.66715 9.85328C6.64715 9.85328 6.62715 9.85328 6.60715 9.85328Z" fill="#404040"/>
</svg>
