<svg width="18" height="16" viewBox="0 0 18 16" fill="none" xmlns="http://www.w3.org/2000/svg">
<path fill-rule="evenodd" clip-rule="evenodd" d="M8.28146 15.8826C5.09813 14.798 0.0397949 10.948 0.0397949 5.25983C0.0397949 2.36195 2.39813 0.0105286 5.29813 0.0105286C6.70646 0.0105286 8.02313 0.556986 8.99813 1.53399C9.97313 0.556986 11.2898 0.0105286 12.6981 0.0105286C15.5981 0.0105286 17.9565 2.37023 17.9565 5.25983C17.9565 10.9562 12.8981 14.798 9.71479 15.8826C9.50646 15.9571 9.25646 15.9903 8.99813 15.9903C8.73979 15.9903 8.48979 15.9571 8.28146 15.8826ZM1.28979 5.25983C1.28979 10.9148 6.76479 14.0611 8.68979 14.7152C8.8398 14.7649 9.16479 14.7649 9.31479 14.7152C11.2315 14.0611 16.7148 10.9231 16.7148 5.25983C16.7148 3.04916 14.9148 1.25248 12.7065 1.25248C11.4398 1.25248 10.2648 1.84033 9.50646 2.85873C9.27313 3.17336 8.73979 3.17336 8.50646 2.85873C7.73146 1.83205 6.56479 1.25248 5.29813 1.25248C3.08979 1.25248 1.28979 3.04916 1.28979 5.25983Z" fill="#404040"/>
</svg>
