<svg width="256" height="135" viewBox="0 0 256 135" fill="none" xmlns="http://www.w3.org/2000/svg">
<rect width="256" height="133.12" transform="translate(0 0.97052)" fill="white"/>
<circle cx="174.08" cy="73.9305" r="1.28" fill="#BFC3CA"/>
<rect x="200.104" y="101.347" width="11.4085" height="11.4085" transform="rotate(-45 200.104 101.347)" fill="#EAEBED"/>
<circle cx="19.1991" cy="39.4977" r="1.62979" fill="#BFC3CA"/>
<circle cx="61.5741" cy="16.6802" r="1.62979" fill="#BFC3CA"/>
<circle cx="35.4989" cy="90.0202" r="1.62979" fill="#BFC3CA"/>
<circle cx="218.034" cy="29.719" r="1.62979" fill="#BFC3CA"/>
<rect x="214.774" y="52.2554" width="6.51916" height="22.817" rx="3.25958" transform="rotate(-45 214.774 52.2554)" fill="#EAEBED"/>
<rect x="43.6445" y="50.9054" width="11.4085" height="11.4085" fill="#EAEBED"/>
<rect x="64.833" y="36.9079" width="127.124" height="81.4894" rx="10.24" fill="#EAEBED" fill-opacity="0.8"/>
<path d="M79.498 99.7991L86.1572 89.525C87.7076 87.133 91.2082 87.133 92.7585 89.525V89.525C94.4561 92.1441 98.3816 91.8375 99.652 88.9866L114.247 56.234C115.154 54.1974 118.051 54.2138 118.935 56.2605L127.302 75.625C128.844 79.1925 133.821 79.4101 135.668 75.9906V75.9906C137.503 72.5926 142.44 72.7804 144.012 76.308L146.714 82.3727C148.182 85.6654 152.715 86.0194 154.676 82.9945V82.9945C156.626 79.9865 161.128 80.3157 162.619 83.5753L166.56 92.1892C168.427 96.2693 173.402 97.8552 177.285 95.6082V95.6082" stroke="#BFC3CA" stroke-width="2.56" stroke-linecap="round"/>
<mask id="path-11-inside-1_10252_230398" fill="white">
<path d="M194.205 49.2446C195.204 50.2443 195.213 51.8817 194.086 52.7355C192.331 54.0651 190.349 55.078 188.229 55.7211C185.29 56.6127 182.176 56.7657 179.164 56.1665C176.151 55.5672 173.333 54.2343 170.959 52.2857C168.584 50.3371 166.727 47.8331 165.552 44.9953C164.376 42.1576 163.919 39.0737 164.22 36.0169C164.521 32.9602 165.571 30.0248 167.278 27.4709C168.984 24.917 171.294 22.8233 174.003 21.3754C175.957 20.3311 178.074 19.646 180.256 19.3451C181.656 19.1519 182.808 20.3161 182.808 21.73V36.7873C182.808 37.4662 183.077 38.1174 183.557 38.5975L194.205 49.2446Z"/>
</mask>
<path d="M194.205 49.2446C195.204 50.2443 195.213 51.8817 194.086 52.7355C192.331 54.0651 190.349 55.078 188.229 55.7211C185.29 56.6127 182.176 56.7657 179.164 56.1665C176.151 55.5672 173.333 54.2343 170.959 52.2857C168.584 50.3371 166.727 47.8331 165.552 44.9953C164.376 42.1576 163.919 39.0737 164.22 36.0169C164.521 32.9602 165.571 30.0248 167.278 27.4709C168.984 24.917 171.294 22.8233 174.003 21.3754C175.957 20.3311 178.074 19.646 180.256 19.3451C181.656 19.1519 182.808 20.3161 182.808 21.73V36.7873C182.808 37.4662 183.077 38.1174 183.557 38.5975L194.205 49.2446Z" fill="#F4F5F6" stroke="#BFC3CA" stroke-width="5.12" mask="url(#path-11-inside-1_10252_230398)"/>
<mask id="path-12-inside-2_10252_230398" fill="white">
<path d="M195.439 46.8176C196.445 47.8572 198.13 47.865 198.966 46.6846C200.419 44.6356 201.428 42.2752 201.911 39.7634C202.564 36.3706 202.229 32.854 200.948 29.6581C199.667 26.4622 197.498 23.7307 194.714 21.8088C192.643 20.3791 190.302 19.4452 187.86 19.0608C186.464 18.8409 185.311 20.0074 185.311 21.4212L185.311 35.3154C185.311 35.9798 185.569 36.6182 186.031 37.0956L195.439 46.8176Z"/>
</mask>
<path d="M195.439 46.8176C196.445 47.8572 198.13 47.865 198.966 46.6846C200.419 44.6356 201.428 42.2752 201.911 39.7634C202.564 36.3706 202.229 32.854 200.948 29.6581C199.667 26.4622 197.498 23.7307 194.714 21.8088C192.643 20.3791 190.302 19.4452 187.86 19.0608C186.464 18.8409 185.311 20.0074 185.311 21.4212L185.311 35.3154C185.311 35.9798 185.569 36.6182 186.031 37.0956L195.439 46.8176Z" fill="#F4F5F6" stroke="#BFC3CA" stroke-width="5.12" mask="url(#path-12-inside-2_10252_230398)"/>
</svg>
