<svg width="10" height="10" viewBox="0 0 10 10" fill="none" xmlns="http://www.w3.org/2000/svg">
<path d="M2.86606 5.23668L4.12969 6.50031C4.1922 6.56282 4.27704 6.59854 4.36634 6.59854C4.45564 6.59854 4.54048 6.56282 4.60299 6.50031L7.13471 3.96859C7.2642 3.8391 7.2642 3.62478 7.13471 3.49529C7.00523 3.3658 6.7909 3.3658 6.66141 3.49529L4.36634 5.79036L3.33936 4.76338C3.20988 4.63389 2.99555 4.63389 2.86606 4.76338C2.73657 4.89287 2.73657 5.1072 2.86606 5.23668Z" fill="white"/>
<path fill-rule="evenodd" clip-rule="evenodd" d="M5.0002 0.199997C2.35238 0.199997 0.200195 2.35218 0.200195 5C0.200195 7.64781 2.35238 9.8 5.0002 9.8C7.64801 9.8 9.8002 7.64781 9.8002 5C9.8002 2.35218 7.64801 0.199997 5.0002 0.199997ZM5.0002 9.13023C2.72299 9.13023 0.869963 7.27721 0.869963 5C0.869963 2.72279 2.72299 0.869764 5.0002 0.869764C7.27741 0.869764 9.13043 2.72279 9.13043 5C9.13043 7.27721 7.27741 9.13023 5.0002 9.13023Z" fill="white"/>
</svg>
