<svg width="16" height="16" viewBox="0 0 16 16" fill="none" xmlns="http://www.w3.org/2000/svg">
<path d="M13.9465 4.48669C10.4198 4.13336 6.89982 4.00002 3.41315 4.35336L2.05315 4.48669C1.77315 4.51336 1.52649 4.31336 1.49982 4.03336C1.47315 3.75336 1.67316 3.51336 1.94649 3.48669L3.30649 3.35336C6.85316 2.99336 10.4465 3.13336 14.0465 3.48669C14.3198 3.51336 14.5198 3.76002 14.4932 4.03336C14.4732 4.29336 14.2532 4.48669 13.9998 4.48669C13.9865 4.48669 13.9665 4.48669 13.9465 4.48669Z" fill="#F50000"/>
<path d="M5.58045 3.80671C5.31379 3.76004 5.12712 3.50004 5.17379 3.23337L5.32045 2.36004C5.42712 1.72004 5.57379 0.833374 7.12712 0.833374H8.87379C10.4338 0.833374 10.5805 1.75337 10.6805 2.36671L10.8271 3.23337C10.8738 3.50671 10.6871 3.76671 10.4205 3.80671C10.1471 3.85337 9.88712 3.66671 9.84712 3.40004L9.70045 2.53337C9.60712 1.95337 9.58712 1.84004 8.88045 1.84004H7.13379C6.42712 1.84004 6.41379 1.93337 6.31379 2.52671L6.16045 3.39337C6.12045 3.64004 5.90712 3.81337 5.66712 3.81337C5.64045 3.81337 5.61379 3.81337 5.58045 3.80671Z" fill="#F50000"/>
<path d="M5.86022 15.1667C3.53355 15.1667 3.44022 13.88 3.36688 12.84L2.93355 6.12672C2.91355 5.85338 3.12688 5.61338 3.40022 5.59338C3.68022 5.58005 3.91355 5.78672 3.93355 6.06005L4.36688 12.7734C4.44022 13.7867 4.46688 14.1667 5.86022 14.1667H10.1402C11.5402 14.1667 11.5669 13.7867 11.6336 12.7734L12.0669 6.06005C12.0869 5.78672 12.3269 5.58005 12.6002 5.59338C12.8736 5.61338 13.0869 5.84672 13.0669 6.12672L12.6336 12.84C12.5602 13.88 12.4669 15.1667 10.1402 15.1667H5.86022Z" fill="#F50000"/>
<path d="M6.88672 11.5C6.61339 11.5 6.38672 11.2733 6.38672 11C6.38672 10.7267 6.61339 10.5 6.88672 10.5H9.10672C9.38005 10.5 9.60672 10.7267 9.60672 11C9.60672 11.2733 9.38005 11.5 9.10672 11.5H6.88672Z" fill="#F50000"/>
<path d="M6.33337 8.83337C6.06004 8.83337 5.83337 8.60671 5.83337 8.33337C5.83337 8.06004 6.06004 7.83337 6.33337 7.83337H9.66671C9.94004 7.83337 10.1667 8.06004 10.1667 8.33337C10.1667 8.60671 9.94004 8.83337 9.66671 8.83337H6.33337Z" fill="#F50000"/>
</svg>
