<svg width="16" height="16" viewBox="0 0 16 16" fill="none" xmlns="http://www.w3.org/2000/svg"><path fill-rule="evenodd" clip-rule="evenodd" d="M2 7.833c-.64 0-1.166-.526-1.166-1.166V4.453c0-.453.313-.913.733-1.08l6-2.4c.254-.1.614-.1.867 0l6 2.4c.42.167.733.634.733 1.08v2.214c0 .64-.526 1.166-1.166 1.166zM7.935 1.9 1.941 4.3c-.04.02-.107.107-.107.153v2.214c0 .093.073.166.167.166h12a.165.165 0 0 0 .166-.166V4.453c0-.046-.06-.133-.106-.153l-6-2.4Q8.04 1.891 8 1.893c-.027 0-.054 0-.067.007M1.334 15.167a.504.504 0 0 1-.5-.5v-2c0-.64.527-1.167 1.167-1.167h12c.64 0 1.166.527 1.166 1.167v2c0 .273-.226.5-.5.5zm12.833-1v-1.5a.165.165 0 0 0-.166-.167H2a.165.165 0 0 0-.167.167v1.5z" fill="#2A394E"/><path d="M2.166 12V7.335c0-.273.227-.5.5-.5s.5.227.5.5v4.667c0 .273-.227.5-.5.5a.504.504 0 0 1-.5-.5M4.834 12V7.335c0-.273.227-.5.5-.5s.5.227.5.5v4.667c0 .273-.227.5-.5.5a.504.504 0 0 1-.5-.5M7.5 12V7.335c0-.273.227-.5.5-.5s.5.227.5.5v4.667c0 .273-.227.5-.5.5a.504.504 0 0 1-.5-.5M10.166 12V7.335c0-.273.227-.5.5-.5s.5.227.5.5v4.667c0 .273-.227.5-.5.5a.504.504 0 0 1-.5-.5M12.834 12V7.335c0-.273.227-.5.5-.5s.5.227.5.5v4.667c0 .273-.227.5-.5.5a.504.504 0 0 1-.5-.5M.666 15.166a.504.504 0 0 1-.5-.5c0-.273.227-.5.5-.5h14.667c.273 0 .5.227.5.5s-.227.5-.5.5z" fill="#2A394E"/><path fill-rule="evenodd" clip-rule="evenodd" d="M6.5 4.666c0-.827.673-1.5 1.5-1.5s1.5.673 1.5 1.5-.673 1.5-1.5 1.5-1.5-.673-1.5-1.5m1 0c0 .273.227.5.5.5s.5-.227.5-.5-.227-.5-.5-.5-.5.227-.5.5" fill="#2A394E"/></svg>