<svg width="14" height="14" viewBox="0 0 14 14" fill="none" xmlns="http://www.w3.org/2000/svg"><path fill-rule="evenodd" clip-rule="evenodd" d="M.73 7A6.276 6.276 0 0 1 7 .73 6.276 6.276 0 0 1 13.272 7a6.276 6.276 0 0 1-6.271 6.271A6.276 6.276 0 0 1 .73 7.001m.875 0A5.4 5.4 0 0 0 7 12.396 5.4 5.4 0 0 0 12.396 7a5.4 5.4 0 0 0-5.395-5.396A5.4 5.4 0 0 0 1.605 7" fill="#2A394E"/><path d="M4.667 12.688a.44.44 0 0 1-.438-.438c0-.24.187-.432.426-.437a17.2 17.2 0 0 1 0-9.625.434.434 0 0 1-.426-.438.44.44 0 0 1 .438-.437h.583c.14 0 .274.07.356.18a.44.44 0 0 1 .058.397 16.3 16.3 0 0 0 0 10.226.44.44 0 0 1-.058.396.46.46 0 0 1-.356.175zm3.943-.024a.435.435 0 0 1-.274-.554 16.3 16.3 0 0 0 0-10.226.437.437 0 1 1 .828-.28 17.1 17.1 0 0 1 0 10.774.434.434 0 0 1-.554.286" fill="#2A394E"/><path d="M2.188 9.344a.438.438 0 0 1-.876-.011v-.584a.438.438 0 0 1 .577-.414 16.3 16.3 0 0 0 10.227 0 .44.44 0 0 1 .396.059.43.43 0 0 1 .181.355v.584a.44.44 0 0 1-.437.437.435.435 0 0 1-.438-.426c-1.569.461-3.19.689-4.818.689s-3.25-.228-4.812-.689m9.922-3.68a16.3 16.3 0 0 0-10.226 0 .437.437 0 0 1-.554-.274.445.445 0 0 1 .28-.555 17.1 17.1 0 0 1 10.774 0 .435.435 0 0 1 .274.555.425.425 0 0 1-.548.274" fill="#2A394E"/></svg>