<svg width="16" height="16" viewBox="0 0 16 16" fill="none" xmlns="http://www.w3.org/2000/svg"><path d="M12.166 10.667V4.333a.834.834 0 0 0-.833-.833H7.666a.504.504 0 0 1-.5-.5c0-.273.227-.5.5-.5h3.667c1.013 0 1.833.82 1.833 1.833v6.334c0 .273-.227.5-.5.5a.504.504 0 0 1-.5-.5" fill="#2A394E"/><path d="m9.014 5.053-2-1.666a.508.508 0 0 1 0-.773l2-1.667a.5.5 0 0 1 .707.066.5.5 0 0 1-.067.707L8.114 3l1.54 1.28c.213.18.24.493.067.707a.506.506 0 0 1-.707.066" fill="#2A394E"/><path fill-rule="evenodd" clip-rule="evenodd" d="M10.166 12.666a2.5 2.5 0 0 1 5 0 2.5 2.5 0 0 1-5 0m1 0c0 .827.673 1.5 1.5 1.5s1.5-.673 1.5-1.5-.673-1.5-1.5-1.5-1.5.673-1.5 1.5" fill="#2A394E"/><path d="M4.667 13.5a1.83 1.83 0 0 1-1.833-1.833V5.334c0-.273.227-.5.5-.5s.5.227.5.5v6.333c0 .46.373.834.833.834h3.667c.273 0 .5.226.5.5 0 .273-.227.5-.5.5z" fill="#2A394E"/><path d="M6.28 14.986a.5.5 0 0 1 .067-.707L7.887 13l-1.54-1.28a.506.506 0 0 1-.066-.707.506.506 0 0 1 .706-.066l2 1.667a.508.508 0 0 1 0 .773l-2 1.666a.506.506 0 0 1-.707-.067" fill="#2A394E"/><path fill-rule="evenodd" clip-rule="evenodd" d="M.834 3.334a2.5 2.5 0 0 1 5 0 2.5 2.5 0 0 1-5 0m1 0c0 .827.673 1.5 1.5 1.5s1.5-.673 1.5-1.5-.673-1.5-1.5-1.5-1.5.673-1.5 1.5" fill="#2A394E"/></svg>