<svg width="16" height="16" viewBox="0 0 16 16" fill="none" xmlns="http://www.w3.org/2000/svg"><path d="M11.307 4.113a5.75 5.75 0 0 1 2.44 4.1m-11.421.033a5.73 5.73 0 0 1 2.4-4.1m.734 9.814a5.7 5.7 0 0 0 2.58.614c.894 0 1.734-.2 2.488-.566" stroke="#2A394E" stroke-width="1.5" stroke-linecap="round" stroke-linejoin="round"/><path clip-rule="evenodd" d="M8.04 5.132a1.853 1.853 0 1 1 0-3.706 1.853 1.853 0 0 1 0 3.706M3.22 13.28a1.853 1.853 0 1 1 0-3.706 1.853 1.853 0 0 1 0 3.707m9.56-.001a1.853 1.853 0 1 1 0-3.706 1.853 1.853 0 0 1 0 3.707" stroke="#2A394E" stroke-width="1.5" stroke-linecap="round" stroke-linejoin="round"/></svg>