<svg width="15" height="14" viewBox="0 0 15 14" fill="none" xmlns="http://www.w3.org/2000/svg"><path fill-rule="evenodd" clip-rule="evenodd" d="M4.082 12.168c-2.128 0-2.883-1.452-2.883-2.806V4.637c0-2.018.81-2.805 2.883-2.805H7.72c2.074 0 2.883.787 2.883 2.805v4.725c0 2.019-.809 2.806-2.883 2.806zM2.11 4.638v4.724c0 .718.258 1.92 1.972 1.92H7.72c1.565 0 1.972-.397 1.972-1.92V4.637c0-1.522-.407-1.919-1.972-1.919H4.082c-1.564 0-1.972.397-1.972 1.92" fill="#2A394E"/><path fill-rule="evenodd" clip-rule="evenodd" d="m11.491 10.226-1.6-1.091a.44.44 0 0 1-.192-.362V5.226c0-.145.072-.28.192-.361l1.6-1.091c.714-.484 1.235-.344 1.48-.222.246.129.666.461.666 1.307v4.276c0 .846-.42 1.184-.665 1.306a1.1 1.1 0 0 1-.516.123c-.257 0-.587-.082-.965-.338m.522-.73c.27.181.461.199.54.158.083-.04.173-.204.173-.52v-4.27c0-.32-.096-.478-.174-.518s-.27-.024-.54.157l-1.408.957v3.08zm-6.47-3.954c0-.724.605-1.313 1.349-1.313.743 0 1.348.59 1.348 1.313s-.605 1.312-1.348 1.312-1.349-.59-1.349-1.312m.899 0c0 .239.204.437.45.437.245 0 .45-.198.45-.437a.447.447 0 0 0-.45-.438.447.447 0 0 0-.45.438" fill="#2A394E"/></svg>