<svg width="20" height="20" fill="none" xmlns="http://www.w3.org/2000/svg"><path fill-rule="evenodd" clip-rule="evenodd" d="M10.042 11.275H9.96C8.067 11.216 6.65 9.74 6.65 7.925a3.364 3.364 0 0 1 3.359-3.359 3.364 3.364 0 0 1 3.358 3.359 3.345 3.345 0 0 1-3.242 3.35h-.083Zm-2.15-3.359a2.1 2.1 0 0 0 2.025 2.109.703.703 0 0 1 .192 0 2.113 2.113 0 0 0 2-2.109A2.11 2.11 0 0 0 10 5.808a2.11 2.11 0 0 0-2.108 2.108ZM3.96 16.609a.63.63 0 0 1-.2-.525c.109-.992.725-1.917 1.75-2.6 2.484-1.65 6.509-1.65 8.984 0 1.025.691 1.641 1.608 1.75 2.6.025.2-.05.391-.2.525a8.925 8.925 0 0 1-6.042 2.35 8.925 8.925 0 0 1-6.042-2.35Zm6.042 1.1c1.808 0 3.55-.634 4.933-1.792-.15-.508-.55-1-1.141-1.4-2.05-1.367-5.525-1.367-7.592 0-.592.4-.983.892-1.133 1.4a7.673 7.673 0 0 0 4.933 1.792Z" fill="#959CA6"/><path fill-rule="evenodd" clip-rule="evenodd" d="M1.043 10c0-4.942 4.017-8.959 8.958-8.959 4.942 0 8.959 4.017 8.959 8.958 0 4.942-4.017 8.959-8.959 8.959-4.941 0-8.958-4.017-8.958-8.959Zm1.25 0c0 4.25 3.458 7.708 7.708 7.708s7.709-3.459 7.709-7.709S14.25 2.291 10 2.291 2.293 5.749 2.293 9.999Z" fill="#959CA6"/></svg>