<svg width="20" height="20" fill="none" xmlns="http://www.w3.org/2000/svg"><path fill-rule="evenodd" clip-rule="evenodd" d="M5.207 5.833A4.798 4.798 0 0 1 9.999 1.04a4.798 4.798 0 0 1 4.791 4.792A4.798 4.798 0 0 1 10 10.624a4.798 4.798 0 0 1-4.792-4.791Zm1.25 0a3.55 3.55 0 0 0 3.542 3.541 3.55 3.55 0 0 0 3.541-3.541A3.55 3.55 0 0 0 10 2.29a3.55 3.55 0 0 0-3.542 3.542Z" fill="#436AF5"/><path d="M2.217 18.333c0-3.558 3.491-6.458 7.783-6.458.842 0 1.667.108 2.467.333a.62.62 0 0 1 .433.767.62.62 0 0 1-.767.433A7.889 7.889 0 0 0 10 13.125c-3.6 0-6.533 2.333-6.533 5.208a.63.63 0 0 1-.625.625.63.63 0 0 1-.625-.625Z" fill="#436AF5"/><path fill-rule="evenodd" clip-rule="evenodd" d="M11.618 17.033a3.843 3.843 0 0 1-.575-2.034c0-1.216.542-2.341 1.483-3.091A3.962 3.962 0 0 1 18.96 15c0 .724-.2 1.433-.574 2.041-.209.35-.475.667-.792.933a3.827 3.827 0 0 1-2.592.984 3.934 3.934 0 0 1-3.383-1.925Zm1.692-4.142a2.686 2.686 0 0 0-.625 3.5A2.703 2.703 0 0 0 15 17.708a2.66 2.66 0 0 0 1.775-.675c.217-.184.4-.4.534-.634.266-.425.4-.908.4-1.4A2.714 2.714 0 0 0 15 12.291c-.616 0-1.2.208-1.691.6Z" fill="#436AF5"/><path d="m14.082 16.267-.825-.825a.629.629 0 0 1 0-.883.629.629 0 0 1 .884 0l.4.4 1.333-1.233a.63.63 0 0 1 .883.033.63.63 0 0 1-.033.883l-1.775 1.642a.652.652 0 0 1-.425.167.618.618 0 0 1-.442-.184Z" fill="#436AF5"/></svg>