<svg width="20" height="20" fill="none" xmlns="http://www.w3.org/2000/svg"><path fill-rule="evenodd" clip-rule="evenodd" d="M2.501 9.792c-.8 0-1.458-.659-1.458-1.459V5.567c0-.567.392-1.142.917-1.35l7.5-3a1.612 1.612 0 0 1 1.083 0l7.5 3c.525.208.917.791.917 1.35v2.766c0 .8-.659 1.459-1.459 1.459h-15Zm7.417-7.417-7.492 3c-.05.025-.133.133-.133.192v2.766c0 .117.092.209.208.209h15a.206.206 0 0 0 .209-.209V5.567c0-.059-.075-.167-.134-.192l-7.5-3c-.016-.008-.041-.008-.075-.008-.033 0-.066 0-.083.008ZM1.668 18.958a.63.63 0 0 1-.625-.625v-2.5c0-.8.658-1.458 1.458-1.458h13.042c.8 0 1.458.658 1.458 1.458v2.5a.63.63 0 0 1-.625.625H1.668Zm16.042-1.25v-1.875a.206.206 0 0 0-.209-.208h-15a.206.206 0 0 0-.208.208v1.875H17.71Z" fill="#33C659"/><path d="M2.707 15V9.165a.63.63 0 0 1 .625-.625.63.63 0 0 1 .625.625v5.833a.63.63 0 0 1-.625.625.63.63 0 0 1-.625-.625ZM6.043 15V9.165a.63.63 0 0 1 .625-.625.63.63 0 0 1 .625.625v5.833a.63.63 0 0 1-.625.625.63.63 0 0 1-.625-.625ZM9.375 15V9.165A.63.63 0 0 1 10 8.541a.63.63 0 0 1 .625.625v5.833a.63.63 0 0 1-.625.625.63.63 0 0 1-.625-.625ZM12.707 15V9.165a.63.63 0 0 1 .625-.625.63.63 0 0 1 .625.625v5.833a.63.63 0 0 1-.625.625.63.63 0 0 1-.625-.625ZM16.043 15V9.165a.63.63 0 0 1 .625-.625.63.63 0 0 1 .625.625v5.833a.63.63 0 0 1-.625.625.63.63 0 0 1-.625-.625ZM.832 18.959a.63.63 0 0 1-.625-.625.63.63 0 0 1 .625-.625h16.167a.63.63 0 0 1 .625.625.63.63 0 0 1-.625.625H.832Z" fill="#33C659"/><path fill-rule="evenodd" clip-rule="evenodd" d="M8.125 5.834c0-1.033.842-1.875 1.875-1.875s1.875.842 1.875 1.875A1.878 1.878 0 0 1 10 7.709a1.878 1.878 0 0 1-1.875-1.875Zm1.25 0a.63.63 0 0 0 .625.625.63.63 0 0 0 .625-.625.63.63 0 0 0-.625-.625.63.63 0 0 0-.625.625Z" fill="#33C659"/><circle cx="16.5" cy="15.5" r="3.5" fill="#33C659"/><path d="m15 15.5 1 1 2-2" stroke="#fff" stroke-width=".8" stroke-linecap="round"/></svg>