<svg width="20" height="20" fill="none" xmlns="http://www.w3.org/2000/svg"><path fill-rule="evenodd" clip-rule="evenodd" d="M5.207 5.833A4.798 4.798 0 0 1 9.999 1.04a4.798 4.798 0 0 1 4.791 4.792A4.798 4.798 0 0 1 10 10.624a4.798 4.798 0 0 1-4.792-4.791Zm1.25 0a3.55 3.55 0 0 0 3.542 3.541 3.55 3.55 0 0 0 3.541-3.541A3.55 3.55 0 0 0 10 2.29a3.55 3.55 0 0 0-3.542 3.542Z" fill="#33C659"/><path d="M2.217 18.333c0-3.558 3.491-6.458 7.783-6.458.842 0 2.5.125 3.5.625a.62.62 0 0 1 .433.767.62.62 0 0 1-.766.433c-.667-.433-2.434-.575-3.167-.575-3.6 0-6.533 2.333-6.533 5.208a.63.63 0 0 1-.625.625.63.63 0 0 1-.625-.625ZM14.082 16.266l-.825-.825a.629.629 0 0 1 0-.883.629.629 0 0 1 .884 0l.4.4 1.333-1.233a.63.63 0 0 1 .883.033.63.63 0 0 1-.033.883l-1.775 1.642a.652.652 0 0 1-.425.167.618.618 0 0 1-.442-.184Z" fill="#33C659"/><circle cx="15.5" cy="15.5" r="3.5" fill="#33C659"/><path d="m14 15.5 1 1 2-2" stroke="#fff" stroke-width=".8" stroke-linecap="round"/></svg>