<svg width="20" height="20" fill="none" xmlns="http://www.w3.org/2000/svg"><path d="M7.501 18.958c-4.525 0-6.458-1.934-6.458-6.459v-5c0-4.525 1.933-6.458 6.458-6.458h4.167a.63.63 0 0 1 .625.625.63.63 0 0 1-.625.625H7.501c-3.841 0-5.208 1.367-5.208 5.208v5c0 3.842 1.367 5.209 5.208 5.209h5c3.842 0 5.209-1.367 5.209-5.209V8.333a.63.63 0 0 1 .625-.625.63.63 0 0 1 .625.625v4.166c0 4.525-1.934 6.459-6.459 6.459h-5Z" fill="#436AF5"/><path fill-rule="evenodd" clip-rule="evenodd" d="M15.001 8.958c-2.85 0-3.958-1.108-3.958-3.958V1.667c0-.25.15-.484.383-.575a.63.63 0 0 1 .684.133l6.666 6.667a.628.628 0 0 1-.441 1.066H15ZM12.293 5c0 2.15.558 2.708 2.708 2.708h1.825l-4.533-4.533V5Z" fill="#436AF5"/><path d="M5.832 11.459a.63.63 0 0 1-.625-.625.63.63 0 0 1 .625-.625h5a.63.63 0 0 1 .625.625.63.63 0 0 1-.625.625h-5ZM5.832 14.791a.63.63 0 0 1-.625-.625.63.63 0 0 1 .625-.625h3.333a.63.63 0 0 1 .625.625.63.63 0 0 1-.625.625H5.832Z" fill="#436AF5"/></svg>