<svg width="20" height="20" fill="none" xmlns="http://www.w3.org/2000/svg"><path d="M1.668 7.709a.63.63 0 0 1-.625-.625.63.63 0 0 1 .625-.625h16.667a.63.63 0 0 1 .625.625.63.63 0 0 1-.625.625H1.668ZM5 14.375a.63.63 0 0 1-.625-.625.63.63 0 0 1 .625-.625h1.667a.63.63 0 0 1 .625.625.63.63 0 0 1-.625.625H5ZM8.75 14.375a.63.63 0 0 1-.625-.625.63.63 0 0 1 .625-.625h3.333a.63.63 0 0 1 .625.625.63.63 0 0 1-.625.625H8.75Z" fill="#436AF5"/><path fill-rule="evenodd" clip-rule="evenodd" d="M5.368 17.708c-3.317 0-4.325-1-4.325-4.284v-6.85c0-3.283 1.008-4.283 4.325-4.283h9.258c3.317 0 4.325 1 4.325 4.283v6.842c.009 3.292-1 4.292-4.316 4.292H5.368ZM2.293 6.574v6.842c0 2.583.458 3.033 3.075 3.033h9.258c2.617 0 3.075-.45 3.075-3.033V6.574c0-2.583-.458-3.033-3.075-3.033H5.368c-2.617 0-3.075.45-3.075 3.033Z" fill="#436AF5"/></svg>