<svg width="82" height="64" viewBox="0 0 82 64" fill="none" xmlns="http://www.w3.org/2000/svg">
<rect width="44" height="11.541" rx="2.88525" transform="matrix(1 0 0 -1 38 63.541)" fill="url(#paint0_linear_9652_28161)"/>
<rect opacity="0.3" width="15.8689" height="1.6" rx="0.8" transform="matrix(1 0 0 -1 50.9844 60.6558)" fill="#D1AFE9"/>
<rect opacity="0.5" width="24.5246" height="1.6" rx="0.8" transform="matrix(1 0 0 -1 50.9844 57.6132)" fill="#D1AFE9"/>
<g opacity="0.5">
<circle opacity="0.6" cx="44.4188" cy="57.6998" r="3.53603" fill="#B57EDC"/>
</g>
<rect width="44" height="11.541" rx="2.88525" transform="matrix(1 0 0 -1 0 11.541)" fill="url(#paint1_linear_9652_28161)"/>
<rect opacity="0.3" width="15.8689" height="1.6" rx="0.8" transform="matrix(1 0 0 -1 12.9844 8.65576)" fill="#D1AFE9"/>
<rect opacity="0.5" width="24.5246" height="1.6" rx="0.8" transform="matrix(1 0 0 -1 12.9844 5.61316)" fill="#D1AFE9"/>
<g opacity="0.5">
<circle opacity="0.6" cx="6.41884" cy="5.69985" r="3.53603" fill="#B57EDC"/>
</g>
<path d="M14 19.8214C14 17.3756 15.9827 15.3928 18.4286 15.3928H71.5714C74.0173 15.3928 76 17.3756 76 19.8214V44.1785C76 46.6244 74.0173 48.6071 71.5714 48.6071H18.4286C15.9827 48.6071 14 46.6244 14 44.1785V19.8214Z" fill="url(#paint2_linear_9652_28161)"/>
<path d="M56.5976 36.7114C56.4866 38.7088 57.5297 42.7036 62.5897 42.7036C62.7007 41.261 61.6575 38.043 56.5976 36.7114Z" fill="#B57EDC"/>
<path opacity="0.5" d="M69.1737 40.0403C69.2598 41.5938 68.4506 44.7009 64.5251 44.7009C64.439 43.5789 65.2483 41.076 69.1737 40.0403Z" fill="#B57EDC"/>
<path opacity="0.7" d="M63.6172 36.1881H64.0168V48.6042H63.6172V36.1881Z" fill="#B57EDC"/>
<circle cx="64.2205" cy="30.7193" r="6.65798" fill="#B57EDC"/>
<path opacity="0.8" d="M62.3711 27.9449H63.9776C64.0386 27.9449 64.1068 27.9478 64.1822 27.9537C64.2606 27.9566 64.3404 27.9653 64.4217 27.9798C64.7468 28.032 65.0225 28.1481 65.2489 28.3281C65.4782 28.5051 65.6509 28.7286 65.767 28.9985C65.886 29.2656 65.9455 29.5631 65.9455 29.891C65.9455 30.3409 65.8352 30.7328 65.6146 31.0665C65.394 31.3974 65.0689 31.6267 64.6394 31.7544C64.5349 31.7834 64.4289 31.8038 64.3215 31.8154C64.2171 31.827 64.0966 31.8328 63.9602 31.8328H62.3711V31.2233H63.9602C64.0153 31.2233 64.0777 31.2204 64.1474 31.2146C64.2171 31.2088 64.2853 31.1986 64.352 31.1841C64.5639 31.1376 64.7395 31.0506 64.8788 30.9229C65.0181 30.7923 65.1212 30.637 65.1879 30.457C65.2547 30.2742 65.2881 30.0855 65.2881 29.891C65.2881 29.6966 65.2547 29.5094 65.1879 29.3294C65.1212 29.1466 65.0181 28.9898 64.8788 28.8592C64.7395 28.7257 64.5639 28.6372 64.352 28.5936C64.2853 28.5791 64.2171 28.5704 64.1474 28.5675C64.0777 28.5617 64.0153 28.5588 63.9602 28.5588H62.3711V27.9449ZM62.3711 31.8328L63.0154 31.589L65.989 34.2143H65.066L62.3711 31.8328ZM62.3842 30.1566V29.6211H66.555V30.1566H62.3842ZM63.9254 28.4804V27.9449H66.5463V28.4804H63.9254Z" fill="#F6EFFB"/>
<rect opacity="0.8" x="22.0391" y="22.4663" width="9.52137" height="6.61485" rx="2.04784" fill="#F6EFFB"/>
<rect opacity="0.64" x="22.0391" y="32.6913" width="19.0457" height="1.90457" rx="0.952285" fill="#F6EFFB"/>
<rect opacity="0.2" x="22.0391" y="36.0649" width="11.694" height="1.90457" rx="0.952285" fill="#F6EFFB"/>
<rect opacity="0.2" x="24.8047" y="57.4363" width="2.3074" height="2.3074" rx="1.1537" transform="rotate(-45 24.8047 57.4363)" fill="#AC6CDA"/>
<rect opacity="0.6" x="3" y="33.2122" width="1.7143" height="1.7143" rx="0.857148" transform="rotate(-45 3 33.2122)" fill="#AC6CDA"/>
<rect opacity="0.2" x="69" y="7.24097" width="4.58346" height="4.58346" rx="2.29173" transform="rotate(-45 69 7.24097)" fill="#AC6CDA"/>
<defs>
<linearGradient id="paint0_linear_9652_28161" x1="28.8525" y1="-1.08197" x2="22.3607" y2="10.0984" gradientUnits="userSpaceOnUse">
<stop stop-color="#F6EFFB"/>
<stop offset="1" stop-color="#F6EFFB"/>
</linearGradient>
<linearGradient id="paint1_linear_9652_28161" x1="28.8525" y1="-1.08197" x2="22.3607" y2="10.0984" gradientUnits="userSpaceOnUse">
<stop stop-color="#F6EFFB"/>
<stop offset="1" stop-color="#F6EFFB"/>
</linearGradient>
<linearGradient id="paint2_linear_9652_28161" x1="93.5" y1="22.5" x2="14" y2="30.3392" gradientUnits="userSpaceOnUse">
<stop stop-color="#F6EFFB"/>
<stop offset="1" stop-color="#AC6CDA"/>
</linearGradient>
</defs>
</svg>
