<svg width="16" height="16" viewBox="0 0 16 16" fill="none" xmlns="http://www.w3.org/2000/svg">
<path fill-rule="evenodd" clip-rule="evenodd" d="M15.168 8.0013C15.168 11.9546 11.9546 15.168 8.0013 15.168C4.04797 15.168 0.834635 11.9546 0.834635 8.0013C0.834635 4.04797 4.04797 0.834637 8.0013 0.834637C11.9546 0.834637 15.168 4.04797 15.168 8.0013ZM14.168 8.0013C14.168 4.6013 11.4013 1.83464 8.0013 1.83464C4.6013 1.83464 1.83463 4.6013 1.83463 8.0013C1.83463 11.4013 4.6013 14.168 8.0013 14.168C11.4013 14.168 14.168 11.4013 14.168 8.0013Z" fill="#B0B0B0"/>
<path d="M8.5 5.66797V9.66797C8.5 9.9413 8.27333 10.168 8 10.168C7.72667 10.168 7.5 9.9413 7.5 9.66797L7.5 5.66797C7.5 5.39464 7.72667 5.16797 8 5.16797C8.27333 5.16797 8.5 5.39464 8.5 5.66797Z" fill="#B0B0B0"/>
<path d="M6.35109 7.98036L7.99776 9.62703L9.64443 7.98036C9.83776 7.78703 10.1578 7.78703 10.3511 7.98036C10.5444 8.1737 10.5444 8.4937 10.3511 8.68703L8.35109 10.687C8.15776 10.8804 7.83776 10.8804 7.64443 10.687L5.64443 8.68703C5.45109 8.4937 5.45109 8.1737 5.64443 7.98036C5.74443 7.88036 5.87109 7.8337 5.99776 7.8337C6.12443 7.8337 6.25109 7.88036 6.35109 7.98036Z" fill="#B0B0B0"/>
</svg>
