<svg width="12" height="12" viewBox="0 0 12 12" fill="none" xmlns="http://www.w3.org/2000/svg">
<g id="vuesax/outline/paperclip-2">
<g id="paperclip-2">
<path id="Vector" d="M4.65953 10.0497C3.82953 9.21969 3.82953 7.87469 4.65953 7.04469L5.89953 5.80969C6.04453 5.66469 6.28453 5.66469 6.42953 5.80969C6.57453 5.95469 6.57453 6.19469 6.42953 6.33969L5.18953 7.57469C4.65453 8.10969 4.65453 8.98469 5.18953 9.51969C5.72453 10.0547 6.59953 10.0547 7.13453 9.51969L9.07953 7.57469C9.66953 6.98469 9.99453 6.19969 9.99453 5.36469C9.99453 4.52969 9.66953 3.74469 9.07953 3.15469C7.85953 1.93469 5.87953 1.93469 4.65953 3.15469L2.53953 5.27469C2.04453 5.76969 1.76953 6.42969 1.76953 7.12969C1.76953 7.82969 2.04453 8.48969 2.53953 8.98469C2.68453 9.12969 2.68453 9.36969 2.53953 9.51469C2.39453 9.65969 2.15453 9.65969 2.00953 9.51469C1.37453 8.87469 1.01953 8.02969 1.01953 7.12969C1.01953 6.22969 1.36953 5.37969 2.00953 4.74469L4.12953 2.62469C5.63953 1.11469 8.09953 1.11469 9.60953 2.62469C10.3395 3.35469 10.7445 4.32969 10.7445 5.36469C10.7445 6.39969 10.3395 7.37469 9.60953 8.10469L7.66453 10.0497C7.24953 10.4647 6.70953 10.6697 6.16453 10.6697C5.61953 10.6697 5.07453 10.4647 4.65953 10.0497Z" fill="#2A394E"/>
</g>
</g>
</svg>
