<svg width="20" height="20" viewBox="0 0 20 20" fill="none" xmlns="http://www.w3.org/2000/svg">
<path fill-rule="evenodd" clip-rule="evenodd" d="M10 18C14.4183 18 18 14.4183 18 10C18 5.58172 14.4183 2 10 2C5.58172 2 2 5.58172 2 10C2 14.4183 5.58172 18 10 18ZM8.05514 11.46V12.2638H8.87922V11.46H9.33516V10.7001H8.87922V9.43356H8.05514V10.7001H6.82916L8.38612 7.40039H7.45735L5.90039 10.7001V11.46H8.05514ZM11.2559 9.80507L9.60777 12.2638H10.6108L11.7591 10.4974L12.9041 12.2638H13.9004L12.259 9.80507L13.8599 7.40039H12.8568L11.7591 9.11271L10.6514 7.40039H9.65506L11.2559 9.80507Z" fill="#B89C00"/>
</svg>
