<svg width="60" height="60" viewBox="0 0 60 60" fill="none" xmlns="http://www.w3.org/2000/svg">
<rect width="60" height="60" fill="#333232"/>
<g id="LV&#226;&#156;&#133;" clip-path="url(#clip0_3148_122537)">
<rect width="1280" height="705" transform="translate(-366 -346)" fill="#292929"/>
<g id="Content fix" clip-path="url(#clip1_3148_122537)">
<rect width="1280" height="657" transform="translate(-366 -298)" fill="#1F1F1F"/>
<g id="Light - Beam">
<g id="Ellipse 3" filter="url(#filter0_f_3148_122537)">
<ellipse cx="12" cy="-168" rx="298" ry="120" fill="#430D82"/>
</g>
<g id="Ellipse 2" filter="url(#filter1_f_3148_122537)">
<ellipse cx="-143.5" cy="-224" rx="244.5" ry="90" fill="#4B231B"/>
</g>
</g>
<g id="Personal details" filter="url(#filter2_d_3148_122537)">
<g clip-path="url(#clip2_3148_122537)">
<path d="M-350 -242C-350 -246.418 -346.418 -250 -342 -250H890C894.418 -250 898 -246.418 898 -242V359H-350V-242Z" fill="black"/>
<g id="Scroll Area" clip-path="url(#clip3_3148_122537)">
<g id="RHS">
<rect width="1050" height="609" transform="translate(-152 -250)" fill="black"/>
<g id="Live verification_photo">
<g id="upload sec">
<rect x="-135.5" y="-63.5" width="330" height="227" rx="7.5" fill="url(#paint0_linear_3148_122537)"/>
<rect x="-135.5" y="-63.5" width="330" height="227" rx="7.5" stroke="#404040" stroke-dasharray="3 3"/>
<g id="Frame 1171276810">
<g id="Frame 40554">
<g id="Frame 40545">
<rect x="-2" y="-2" width="64" height="64" rx="12" fill="url(#paint1_linear_3148_122537)"/>
<g id="Component 7">
<path id="Rectangle 39485" d="M32.4265 17.019C32.7808 16.3892 33.4438 15.9995 34.1664 15.9995C35.8104 15.9995 38.8484 15.9995 41.0006 15.9995C42.1052 15.9995 43 16.8949 43 17.9995V21.9995C43 23.1041 42.1046 23.9995 41 23.9995H31.9197C30.39 23.9995 29.4266 22.3522 30.1765 21.019L32.4265 17.019Z" fill="#436AF5"/>
<rect id="Rectangle 39484" x="12" y="19.9995" width="36" height="21" rx="4" fill="url(#paint2_linear_3148_122537)"/>
<circle id="Ellipse 495" cx="30.5" cy="30.4995" r="6.5" fill="#436AF5"/>
<circle id="Ellipse 497" cx="33" cy="28.9995" r="2" fill="#ADADAD"/>
<circle id="Ellipse 496" cx="20.5" cy="23.4995" r="1.5" fill="#436AF5"/>
</g>
</g>
</g>
</g>
</g>
</g>
</g>
</g>
</g>
</g>
</g>
</g>
<defs>
<filter id="filter0_f_3148_122537" x="-736" y="-738" width="1496" height="1140" filterUnits="userSpaceOnUse" color-interpolation-filters="sRGB">
<feFlood flood-opacity="0" result="BackgroundImageFix"/>
<feBlend mode="normal" in="SourceGraphic" in2="BackgroundImageFix" result="shape"/>
<feGaussianBlur stdDeviation="225" result="effect1_foregroundBlur_3148_122537"/>
</filter>
<filter id="filter1_f_3148_122537" x="-548" y="-474" width="809" height="500" filterUnits="userSpaceOnUse" color-interpolation-filters="sRGB">
<feFlood flood-opacity="0" result="BackgroundImageFix"/>
<feBlend mode="normal" in="SourceGraphic" in2="BackgroundImageFix" result="shape"/>
<feGaussianBlur stdDeviation="80" result="effect1_foregroundBlur_3148_122537"/>
</filter>
<filter id="filter2_d_3148_122537" x="-352" y="-251" width="1254" height="615" filterUnits="userSpaceOnUse" color-interpolation-filters="sRGB">
<feFlood flood-opacity="0" result="BackgroundImageFix"/>
<feColorMatrix in="SourceAlpha" type="matrix" values="0 0 0 0 0 0 0 0 0 0 0 0 0 0 0 0 0 0 127 0" result="hardAlpha"/>
<feOffset dx="1" dy="2"/>
<feGaussianBlur stdDeviation="1.5"/>
<feColorMatrix type="matrix" values="0 0 0 0 0.164706 0 0 0 0 0.223529 0 0 0 0 0.305882 0 0 0 0.1 0"/>
<feBlend mode="normal" in2="BackgroundImageFix" result="effect1_dropShadow_3148_122537"/>
<feBlend mode="normal" in="SourceGraphic" in2="effect1_dropShadow_3148_122537" result="shape"/>
</filter>
<linearGradient id="paint0_linear_3148_122537" x1="40.7304" y1="168.56" x2="40.7304" y2="-62.176" gradientUnits="userSpaceOnUse">
<stop stop-color="#292929"/>
<stop offset="0.468643"/>
<stop offset="1"/>
</linearGradient>
<linearGradient id="paint1_linear_3148_122537" x1="30" y1="-2" x2="30" y2="62" gradientUnits="userSpaceOnUse">
<stop stop-color="#404040"/>
<stop offset="1" stop-color="#292929"/>
</linearGradient>
<linearGradient id="paint2_linear_3148_122537" x1="13" y1="21.9995" x2="47" y2="39.4995" gradientUnits="userSpaceOnUse">
<stop stop-color="#ADADAD"/>
<stop offset="1" stop-color="#ADADAD"/>
</linearGradient>
<clipPath id="clip0_3148_122537">
<rect width="1280" height="705" fill="white" transform="translate(-366 -346)"/>
</clipPath>
<clipPath id="clip1_3148_122537">
<rect width="1280" height="657" fill="white" transform="translate(-366 -298)"/>
</clipPath>
<clipPath id="clip2_3148_122537">
<path d="M-350 -242C-350 -246.418 -346.418 -250 -342 -250H890C894.418 -250 898 -246.418 898 -242V359H-350V-242Z" fill="white"/>
</clipPath>
<clipPath id="clip3_3148_122537">
<rect width="1050" height="609" fill="white" transform="translate(-152 -250)"/>
</clipPath>
</defs>
</svg>
