<svg width="20" height="20" viewBox="0 0 20 20" fill="none" xmlns="http://www.w3.org/2000/svg">
<path fill-rule="evenodd" clip-rule="evenodd" d="M9.75921 9.78604C9.72167 9.77853 9.66911 9.77853 9.62406 9.78604C7.44667 9.71847 5.80237 8.00659 5.80237 5.89677C5.79486 4.86064 6.20031 3.88457 6.93612 3.14876C7.67192 2.41295 8.64799 2 9.69164 2C11.839 2 13.5884 3.74942 13.5884 5.89677C13.5884 8.00659 11.9441 9.71096 9.8418 9.78604H9.75921ZM7.73199 3.93712C7.21392 4.4627 6.92861 5.15346 6.92861 5.88927C6.92861 7.39091 8.09989 8.60725 9.59403 8.6523C9.63908 8.64479 9.73669 8.64479 9.83429 8.6523C11.3134 8.58472 12.4622 7.3759 12.4622 5.88927C12.4622 4.3726 11.2158 3.12624 9.69164 3.12624C8.94832 3.12624 8.25756 3.41906 7.73199 3.93712Z" fill="#404040"/>
<path d="M12.2746 16.9038L11.1334 15.7626C10.9156 15.5448 10.9156 15.1844 11.1334 14.9667C11.3511 14.749 11.7115 14.749 11.9292 14.9667L12.6725 15.71L14.5571 13.8254C14.7748 13.6077 15.1352 13.6077 15.353 13.8254C15.5707 14.0432 15.5707 14.4036 15.353 14.6213L13.0705 16.9038C12.9579 17.0164 12.8152 17.069 12.6725 17.069C12.5299 17.069 12.3872 17.0164 12.2746 16.9038Z" fill="#404040"/>
<path d="M4 14.1858C4 15.2144 4.57063 16.168 5.61427 16.8663C6.71047 17.6021 8.15956 18 9.69124 18C9.99908 18 10.2469 17.7372 10.2469 17.4294C10.2469 17.1215 9.99157 16.8663 9.68373 16.8663C8.36979 16.8663 7.14595 16.5359 6.23745 15.9277C5.51666 15.4472 5.12624 14.824 5.12624 14.1858C5.12624 13.5476 5.51666 12.9394 6.23745 12.4589C8.107 11.2126 11.2605 11.2126 13.13 12.4589C13.3853 12.6316 13.7382 12.564 13.9109 12.3012C14.0836 12.046 14.0085 11.6931 13.7532 11.5204C11.5082 10.0187 7.85923 10.0187 5.61427 11.5204C4.57813 12.2111 4 13.1572 4 14.1858Z" fill="#404040"/>
</svg>
