<svg width="64" height="64" viewBox="0 0 64 64" fill="none" xmlns="http://www.w3.org/2000/svg">
<path opacity="0.4" fill-rule="evenodd" clip-rule="evenodd" d="M31.9997 58.6673C17.2721 58.6673 5.33301 46.7282 5.33301 32.0006C5.33301 17.2731 17.2721 5.33398 31.9997 5.33398C46.7273 5.33398 58.6663 17.2731 58.6663 32.0006C58.6663 46.7282 46.7273 58.6673 31.9997 58.6673Z" fill="#FFE085"/>
<path d="M40.882 42.1854L32.6153 37.2521C30.562 36.0254 29.042 33.3321 29.042 30.9587V20.0254C29.042 18.9321 29.9487 18.0254 31.042 18.0254C32.1353 18.0254 33.042 18.9321 33.042 20.0254V30.9587C33.042 31.9187 33.842 33.3321 34.6687 33.8121L42.9353 38.7454C43.8953 39.3054 44.1887 40.5321 43.6287 41.4921C43.2287 42.1321 42.562 42.4787 41.8953 42.4787C41.5487 42.4787 41.202 42.3987 40.882 42.1854Z" fill="#B88A00"/>
</svg>
