<svg width="21" height="20" viewBox="0 0 21 20" fill="none" xmlns="http://www.w3.org/2000/svg">
<path fill-rule="evenodd" clip-rule="evenodd" d="M7.86969 15.3951C5.86785 15.3951 4.93763 14.4649 4.93763 12.4631V10.4315C4.93763 8.43707 5.86785 7.50684 7.86969 7.50684H9.9013C11.8957 7.50684 12.8334 8.43707 12.8334 10.4389V12.4705C12.8259 14.4649 11.8957 15.3951 9.9013 15.3951H7.86969ZM6.0539 10.4389V12.4705C6.0539 13.8621 6.47808 14.2863 7.86969 14.2863H9.9013C11.2929 14.2863 11.7171 13.8621 11.7171 12.4705V10.4389C11.7171 9.04729 11.2929 8.62311 9.9013 8.62311H7.86969C6.47808 8.62311 6.0539 9.04729 6.0539 10.4389Z" fill="#608080"/>
<path fill-rule="evenodd" clip-rule="evenodd" d="M12.2681 12.4929C11.963 12.4929 11.7099 12.2399 11.7099 11.9348V10.4315C11.7099 9.03992 11.2858 8.61574 9.89415 8.61574H8.39835C8.09324 8.61574 7.84022 8.36272 7.84022 8.05761V7.53668C7.84022 5.54229 8.77044 4.60462 10.7723 4.60462H12.8039C14.7983 4.60462 15.7359 5.53485 15.7359 7.53668V9.56829C15.7285 11.5627 14.7983 12.4929 12.7964 12.4929H12.2681ZM9.9013 7.50684C11.8957 7.50684 12.8334 8.43707 12.8334 10.4389L12.8336 11.3841C14.2029 11.3766 14.6197 10.9525 14.6197 9.56829V7.53668C14.6197 6.14507 14.1955 5.72089 12.8039 5.72089H10.7723C9.38811 5.72089 8.96392 6.13763 8.95648 7.50692L9.9013 7.50684Z" fill="#608080"/>
<path d="M12.0819 17.7172C11.9851 17.5386 11.9851 17.3302 12.0893 17.1516L12.8707 15.8493C13.027 15.5814 13.3693 15.4996 13.6372 15.6558C13.9051 15.8121 13.987 16.1544 13.8307 16.4223L13.6298 16.7572C15.6837 16.2735 17.2242 14.4279 17.2242 12.2252C17.2242 11.9201 17.4772 11.667 17.7823 11.667C18.0874 11.667 18.3404 11.9201 18.3404 12.2252C18.333 15.4103 15.7432 18 12.5656 18C12.3647 18 12.1786 17.8884 12.0819 17.7172Z" fill="#608080"/>
<path d="M2.33301 7.76738C2.33301 4.58974 4.92275 2 8.10039 2C8.30131 2 8.48736 2.11163 8.5841 2.28279C8.68085 2.46139 8.68085 2.66976 8.57666 2.84836L7.79527 4.15067C7.639 4.41114 7.29667 4.50044 7.02877 4.33672C6.76831 4.18044 6.67901 3.83812 6.84273 3.57022L7.04365 3.23534C4.98228 3.71905 3.44927 5.56461 3.44927 7.76738C3.44927 8.07249 3.19625 8.32551 2.89114 8.32551C2.58603 8.32551 2.33301 8.07249 2.33301 7.76738Z" fill="#608080"/>
</svg>
