<svg width="80" height="80" viewBox="0 0 80 80" fill="none" xmlns="http://www.w3.org/2000/svg">
<g clip-path="url(#clip0_3408_26992)">
<path d="M0 16C0 7.16344 7.16344 0 16 0H64C72.8366 0 80 7.16344 80 16V64C80 72.8366 72.8366 80 64 80H16C7.16344 80 0 72.8366 0 64V16Z" fill="#290000"/>
<rect opacity="0.4" x="14.4922" y="35.7959" width="38" height="29" rx="4" transform="rotate(-20.9444 14.4922 35.7959)" fill="url(#paint0_linear_3408_26992)"/>
<rect x="17.3374" y="30.959" width="38" height="29" rx="4" transform="rotate(-15 17.3374 30.959)" fill="url(#paint1_linear_3408_26992)"/>
<path fill-rule="evenodd" clip-rule="evenodd" d="M48.3633 30.64C48.7527 30.679 49.0578 31.0434 49.0447 31.454C49.0195 32.2454 48.6657 32.7382 48.2271 33.0676C48.0263 33.2183 47.8087 33.3351 47.6205 33.4315C47.5683 33.4582 47.5188 33.4832 47.4712 33.5072C47.3339 33.5765 47.2126 33.6377 47.0896 33.7092C46.9139 33.8113 46.72 34.094 46.5037 34.6159C46.4217 34.8138 46.3477 35.0158 46.2709 35.2255C46.253 35.2746 46.2348 35.3242 46.2164 35.3742C46.1243 35.6239 46.0214 35.8955 45.9044 36.1253C45.2327 37.445 44.2792 37.7521 43.3439 38.0535C43.1885 38.1035 43.0335 38.1534 42.8805 38.2078C42.78 38.2435 42.6797 38.2766 42.5796 38.3096C42.3475 38.3862 42.1163 38.4625 41.8851 38.5704C41.5335 38.7346 41.4335 38.8671 41.4192 38.9065C41.3964 38.9696 41.3775 39.058 41.3596 39.1974C41.3557 39.2276 41.3497 39.2818 41.3427 39.3452C41.3303 39.4569 41.3147 39.5972 41.3021 39.6855C41.2497 40.0503 41.133 40.5742 40.6797 40.948C40.1723 41.3665 39.5655 41.3249 39.1353 41.2326C38.9134 41.185 38.6999 41.1156 38.522 41.0549C38.4727 41.0381 38.4273 41.0224 38.3849 41.0078C38.261 40.965 38.163 40.9311 38.0696 40.9046C38.0656 40.9034 38.0617 40.9024 38.0578 40.9013C38.0509 40.9883 38.0513 41.1098 38.0636 41.2729C38.0806 41.4969 38.1156 41.7485 38.1563 42.03C38.1595 42.052 38.1627 42.0743 38.166 42.0967C38.2027 42.3496 38.2427 42.6257 38.2673 42.8853C38.2935 43.1629 38.308 43.4746 38.2665 43.7617C38.2259 44.0431 38.1144 44.416 37.7898 44.6588C37.4547 44.9096 37.0522 44.9047 36.7014 44.8149C36.558 44.7782 36.3875 44.7263 36.222 44.676C36.1913 44.6666 36.1608 44.6573 36.1306 44.6482C35.928 44.5868 35.7225 44.5263 35.5218 44.4778C35.3194 44.4289 35.1401 44.3968 34.9908 44.3868C34.9424 44.3835 34.9017 44.3829 34.8679 44.3839C34.8474 44.4846 34.8321 44.6256 34.8247 44.804C34.8159 45.017 34.8196 45.2435 34.8253 45.4564C34.8262 45.4898 34.8272 45.5245 34.8282 45.5597C34.833 45.7232 34.8381 45.8989 34.833 46.0177C34.8292 46.1061 34.829 46.1803 34.8287 46.2693C34.8284 46.352 34.828 46.4474 34.8248 46.5787C34.8195 46.7925 34.8054 47.0728 34.7434 47.3237C34.6917 47.5333 34.5414 47.9917 34.0693 48.1345C33.6079 48.2742 33.1874 48.0041 32.929 47.7914C31.5809 46.6816 30.8875 44.6739 30.6275 43.2063C30.6005 43.0539 30.5717 42.8964 30.5422 42.7347C30.342 41.6396 30.1069 40.3538 30.1578 39.166C30.1641 39.0196 30.1861 38.8439 30.2573 38.6777C30.334 38.4987 30.4864 38.2953 30.7516 38.2122C30.9991 38.1347 31.2209 38.202 31.351 38.261C31.4837 38.3212 31.5921 38.4038 31.6685 38.4695C31.9523 38.714 32.2057 39.0915 32.291 39.2368C33.0149 40.4698 33.467 42.0074 33.6926 43.4219C33.7943 43.2521 33.9472 43.0863 34.179 42.9963C34.4523 42.8902 34.7454 42.8793 34.9949 42.8962C35.2514 42.9135 35.5144 42.9644 35.7551 43.0225C35.9974 43.0811 36.2355 43.1516 36.4411 43.2139C36.4762 43.2245 36.5099 43.2348 36.5424 43.2446C36.6742 43.2847 36.7852 43.3184 36.8803 43.3447C36.8842 43.246 36.8795 43.1142 36.8634 42.944C36.8427 42.7261 36.8084 42.489 36.7703 42.2262C36.7675 42.2067 36.7647 42.1871 36.7618 42.1674C36.722 41.8919 36.6789 41.5882 36.6572 41.3019C36.636 41.0224 36.6301 40.7045 36.6896 40.4119C36.7502 40.1142 36.8987 39.7531 37.2556 39.5424C37.6037 39.3368 38.0024 39.3627 38.357 39.4635C38.4921 39.5019 38.6426 39.554 38.7753 39.5999C38.8114 39.6124 38.8462 39.6244 38.879 39.6356C39.0476 39.693 39.1961 39.7398 39.3336 39.7693C39.6223 39.8312 39.7245 39.7872 39.7713 39.7487C39.8201 39.7084 39.8687 39.6388 39.9067 39.374C39.92 39.2815 39.9262 39.2216 39.9333 39.1522C39.9398 39.0893 39.9471 39.0185 39.9612 38.9085C39.9837 38.7329 40.0193 38.5153 40.0976 38.2991C40.3156 37.6973 40.8687 37.3762 41.2511 37.1976C41.5568 37.0549 41.9087 36.9388 42.1577 36.8566C42.2371 36.8304 42.306 36.8077 42.3596 36.7887C42.5656 36.7155 42.7518 36.6534 42.9213 36.5969C43.8179 36.2979 44.2462 36.155 44.6529 35.356C44.7268 35.2108 44.8034 35.0145 44.8976 34.7591C44.9136 34.7157 44.93 34.6707 44.947 34.6244C45.0242 34.4132 45.111 34.176 45.2058 33.9472C45.4232 33.4228 45.76 32.7348 46.3537 32.3897C46.5129 32.2971 46.6817 32.2121 46.8264 32.1391C46.868 32.1181 46.9077 32.0981 46.9446 32.0792C47.124 31.9873 47.2582 31.9119 47.3651 31.8317C47.5418 31.699 47.6262 31.5744 47.6345 31.3131C47.6476 30.9025 47.9738 30.6011 48.3633 30.64ZM36.8593 43.5055C36.8592 43.5054 36.8596 43.5041 36.8606 43.5019C36.8598 43.5044 36.8593 43.5055 36.8593 43.5055ZM37.0298 43.3779C37.0315 43.3778 37.0325 43.3778 37.0325 43.3779C37.0326 43.3779 37.0317 43.378 37.0298 43.3779ZM32.4153 44.5156C32.4144 44.4956 32.413 44.4761 32.4113 44.4568C32.3181 43.4268 32.0839 42.2876 31.7094 41.2701C31.7719 41.6813 31.8479 42.0999 31.9245 42.5219C31.9544 42.6869 31.9845 42.8525 32.0139 43.0184C32.1008 43.5093 32.2356 44.0239 32.4153 44.5156ZM31.5697 39.295C31.5697 39.295 31.5696 39.2959 31.5693 39.2975C31.5695 39.2958 31.5697 39.2949 31.5697 39.295ZM30.8144 39.6013C30.8128 39.6002 30.812 39.5995 30.812 39.5995C30.812 39.5995 30.8128 39.6 30.8144 39.6013ZM34.9036 44.2624C34.9038 44.2629 34.9019 44.2676 34.8975 44.2753C34.9012 44.2658 34.9034 44.262 34.9036 44.2624ZM37.9374 40.8809C37.9373 40.8809 37.9381 40.8808 37.9398 40.8807C37.9382 40.8809 37.9374 40.881 37.9374 40.8809Z" fill="#FF9999"/>
<circle cx="51" cy="53" r="9" fill="#FF9999"/>
<path fill-rule="evenodd" clip-rule="evenodd" d="M54.0272 56.026C54.3467 55.7064 54.3467 55.1883 54.0272 54.8687L52.2917 53.1333L54.026 51.3991C54.3455 51.0795 54.3455 50.5614 54.026 50.2418C53.7064 49.9222 53.1883 49.9222 52.8687 50.2418L51.1345 51.976L49.3981 50.2397C49.0786 49.9201 48.5604 49.9201 48.2409 50.2397C47.9213 50.5592 47.9213 51.0774 48.2409 51.3969L49.9772 53.1333L48.2397 54.8708C47.9201 55.1904 47.9201 55.7085 48.2397 56.0281C48.5592 56.3477 49.0774 56.3477 49.3969 56.0281L51.1345 54.2906L52.8699 56.026C53.1895 56.3455 53.7076 56.3455 54.0272 56.026Z" fill="#290000"/>
</g>
<defs>
<linearGradient id="paint0_linear_3408_26992" x1="14.4922" y1="50.7959" x2="65.9922" y2="50.7959" gradientUnits="userSpaceOnUse">
<stop stop-color="#F50000"/>
<stop offset="1" stop-color="#290000"/>
</linearGradient>
<linearGradient id="paint1_linear_3408_26992" x1="17.3374" y1="45.959" x2="68.8374" y2="45.959" gradientUnits="userSpaceOnUse">
<stop stop-color="#F50000"/>
<stop offset="1" stop-color="#290000"/>
</linearGradient>
<clipPath id="clip0_3408_26992">
<rect width="80" height="80" fill="white"/>
</clipPath>
</defs>
</svg>
