<svg width="80" height="80" viewBox="0 0 80 80" fill="none" xmlns="http://www.w3.org/2000/svg">
<g clip-path="url(#clip0_602_10377)">
<rect width="80" height="80" fill="white"/>
<path d="M0 16C0 7.16344 7.16344 0 16 0H64C72.8366 0 80 7.16344 80 16V64C80 72.8366 72.8366 80 64 80H16C7.16344 80 0 72.8366 0 64V16Z" fill="#F1F9F1"/>
<rect x="16.874" y="27.2656" width="42" height="32" rx="4" transform="rotate(-8.46394 16.874 27.2656)" fill="#7FC782"/>
<path fill-rule="evenodd" clip-rule="evenodd" d="M49.9457 34.5572C50.2961 34.6896 50.488 35.1022 50.3741 35.4786C50.1548 36.2042 49.7055 36.5722 49.2184 36.7681C48.9953 36.8578 48.7651 36.9118 48.5672 36.9543C48.5124 36.9661 48.4604 36.9769 48.4104 36.9873C48.2663 37.0174 48.139 37.0439 48.0075 37.0795C47.8198 37.1305 47.5705 37.3438 47.2411 37.7728C47.1162 37.9354 46.9978 38.1039 46.8749 38.2788C46.8461 38.3198 46.817 38.3611 46.7875 38.4028C46.6406 38.6109 46.4781 38.8365 46.313 39.02C45.3649 40.0738 44.4071 40.1216 43.4677 40.1685C43.3115 40.1763 43.1559 40.1841 43.0009 40.1964C42.8991 40.2045 42.7982 40.2103 42.6974 40.216C42.4639 40.2293 42.2311 40.2426 41.9906 40.2851C41.6249 40.3498 41.4995 40.4475 41.4766 40.4805C41.4398 40.5331 41.4005 40.6102 41.3494 40.7346C41.3383 40.7616 41.3193 40.8103 41.2971 40.8672C41.258 40.9673 41.2088 41.0932 41.1752 41.1717C41.0364 41.4961 40.7987 41.9516 40.287 42.1849C39.7141 42.4462 39.1634 42.2573 38.7884 42.0654C38.595 41.9665 38.4148 41.8493 38.2653 41.7492C38.2239 41.7215 38.1858 41.6957 38.1502 41.6716C38.0463 41.6014 37.964 41.5458 37.8843 41.4981C37.8808 41.496 37.8775 41.4941 37.8742 41.4922C37.8462 41.5709 37.8164 41.6833 37.7875 41.8372C37.7477 42.0486 37.7177 42.2899 37.6856 42.5602C37.6831 42.5814 37.6805 42.6028 37.678 42.6243C37.6492 42.8672 37.6179 43.1325 37.5763 43.3786C37.5318 43.6418 37.4679 43.9336 37.3584 44.1888C37.2511 44.4389 37.0556 44.7561 36.6954 44.9002C36.3234 45.0491 35.9524 44.9448 35.6502 44.7749C35.5267 44.7054 35.3819 44.6152 35.2413 44.5276C35.2153 44.5114 35.1894 44.4952 35.1638 44.4793C34.9916 44.3723 34.8166 44.2655 34.643 44.1709C34.468 44.0756 34.3101 44.0015 34.1746 43.9551C34.1306 43.9401 34.0932 43.9295 34.0617 43.922C34.0177 44.0101 33.9686 44.1367 33.9176 44.2998C33.8567 44.4946 33.804 44.705 33.7565 44.9032C33.749 44.9343 33.7414 44.9666 33.7336 44.9994C33.6975 45.1518 33.6587 45.3155 33.6246 45.4242C33.5992 45.5049 33.5806 45.5735 33.5582 45.6557C33.5375 45.7321 33.5135 45.8202 33.478 45.9408C33.4201 46.1373 33.3376 46.3929 33.2182 46.6096C33.1184 46.7905 32.8659 47.1772 32.394 47.1923C31.9327 47.2071 31.6107 46.8532 31.4245 46.5925C30.453 45.2323 30.3092 43.204 30.4324 41.7825C30.4452 41.6349 30.4577 41.4821 30.4704 41.3253C30.5566 40.2631 30.6579 39.0159 30.9992 37.9302C31.0412 37.7964 31.1052 37.6394 31.2122 37.5034C31.3275 37.3568 31.5187 37.2065 31.7846 37.1954C32.0327 37.185 32.221 37.3023 32.3267 37.389C32.4345 37.4775 32.5143 37.5808 32.5686 37.6605C32.7705 37.9569 32.9113 38.3687 32.9541 38.5242C33.318 39.8437 33.3551 41.3775 33.2133 42.7413C33.3493 42.6095 33.5318 42.4941 33.7684 42.4683C34.0474 42.4379 34.3212 42.5005 34.5477 42.5778C34.7806 42.6574 35.0112 42.7697 35.2193 42.883C35.4288 42.9972 35.6316 43.1215 35.8062 43.23C35.836 43.2485 35.8647 43.2663 35.8923 43.2835C36.0043 43.3532 36.0985 43.4119 36.1799 43.4598C36.208 43.3694 36.2363 43.2464 36.2636 43.085C36.2985 42.8785 36.3255 42.6506 36.3554 42.3982C36.3576 42.3795 36.3598 42.3607 36.3621 42.3417C36.3935 42.0771 36.4289 41.7857 36.4798 41.5155C36.5294 41.2518 36.6027 40.9564 36.7303 40.7006C36.86 40.4404 37.0868 40.1432 37.469 40.0368C37.8418 39.933 38.2041 40.0557 38.507 40.2368C38.6224 40.3057 38.7487 40.3912 38.86 40.4665C38.8903 40.487 38.9195 40.5068 38.9471 40.5252C39.0887 40.6201 39.2144 40.7001 39.3343 40.7615C39.5859 40.8903 39.6913 40.8749 39.7441 40.8509C39.7992 40.8257 39.8614 40.7734 39.9622 40.538C39.9974 40.4557 40.0179 40.4019 40.0417 40.3395C40.0633 40.2829 40.0876 40.2193 40.1279 40.121C40.1922 39.9643 40.279 39.7718 40.405 39.5913C40.7557 39.0889 41.3467 38.929 41.7446 38.8587C42.0626 38.8024 42.4168 38.7822 42.6673 38.768C42.7472 38.7634 42.8165 38.7595 42.8708 38.7551C43.0794 38.7385 43.267 38.7272 43.4378 38.7169C44.3409 38.6626 44.7723 38.6367 45.3464 37.9986C45.4507 37.8827 45.5702 37.7201 45.7205 37.5073C45.746 37.4711 45.7724 37.4336 45.7995 37.3949C45.9233 37.2188 46.0624 37.021 46.2067 36.8329C46.5377 36.4019 47.0195 35.8492 47.654 35.6771C47.8242 35.631 48.0013 35.5941 48.1531 35.5625C48.1969 35.5534 48.2385 35.5447 48.2773 35.5364C48.466 35.4959 48.6088 35.4595 48.7274 35.4117C48.9237 35.3328 49.0326 35.2385 49.1051 34.9989C49.2189 34.6225 49.5952 34.4247 49.9457 34.5572ZM36.1207 43.6032C36.1206 43.6031 36.1213 43.602 36.1228 43.6002C36.1214 43.6023 36.1207 43.6032 36.1207 43.6032ZM36.3099 43.5275C36.3116 43.5278 36.3125 43.5281 36.3125 43.5281C36.3125 43.5282 36.3117 43.528 36.3099 43.5275ZM31.7612 43.4362C31.7652 43.4175 31.7688 43.399 31.772 43.3808C31.9411 42.4053 32.0068 41.2939 31.9126 40.2602C31.8685 40.656 31.835 41.0618 31.8013 41.4711C31.7881 41.6311 31.7749 41.7916 31.761 41.9523C31.7197 42.4278 31.7169 42.937 31.7612 43.4362ZM32.2728 38.3993C32.2728 38.3993 32.2724 38.4001 32.2718 38.4016C32.2724 38.4 32.2727 38.3992 32.2728 38.3993ZM31.4985 38.4954C31.4973 38.494 31.4967 38.4932 31.4967 38.4931C31.4967 38.4931 31.4973 38.4938 31.4985 38.4954ZM34.1248 43.8186C34.1248 43.819 34.1219 43.8229 34.1159 43.8289C34.1217 43.8211 34.1247 43.8181 34.1248 43.8186ZM37.7678 41.4435C37.7678 41.4434 37.7686 41.4435 37.7701 41.4439C37.7686 41.4437 37.7678 41.4435 37.7678 41.4435Z" fill="#449C47"/>
<circle cx="52.3333" cy="53.3333" r="8.33333" fill="white"/>
<path fill-rule="evenodd" clip-rule="evenodd" d="M57.0659 50.4335C57.3783 50.746 57.3783 51.2525 57.0659 51.5649L51.5002 57.1306L48.4345 54.0649C48.1221 53.7525 48.1221 53.246 48.4345 52.9335C48.7469 52.6211 49.2535 52.6211 49.5659 52.9335L51.5002 54.8678L55.9345 50.4335C56.2469 50.1211 56.7535 50.1211 57.0659 50.4335Z" fill="#449C47"/>
</g>
<defs>
<clipPath id="clip0_602_10377">
<rect width="80" height="80" fill="white"/>
</clipPath>
</defs>
</svg>
