<svg fill="none" xmlns="http://www.w3.org/2000/svg" viewBox="0 0 324 140"><g filter="url(#a)"><ellipse cx="228.45" cy="8.36" rx="57.01" ry="17.07" fill="#FFF6C2"/></g><g filter="url(#b)"><ellipse cx="134.04" cy="68.64" rx="71.53" ry="21.42" transform="rotate(90 134.04 68.64)" fill="#DEF7DE"/></g><g filter="url(#c)"><ellipse cx="299.66" cy="112.34" rx="75.2" ry="11.55" transform="rotate(-45 299.66 112.34)" fill="#FF85FF"/></g><g clip-path="url(#d)"><rect x="115.58" y="53.49" width="108.22" height="27.87" rx="2.49" fill="#ECF0FE"/><rect opacity=".6" x="207.95" y="69.34" width="10.38" height="3.28" rx="1.64" fill="#ECF0FE"/><rect opacity=".6" x="194.65" y="61.67" width="23.63" height="3.17" rx="1.58" fill="#ECF0FE"/><path fill="#ECF0FE" d="M142.37 61.7h28.97v10.38h-28.97z"/><rect opacity=".6" x="142.37" y="61.69" width="28.97" height="3.28" rx="1.64" fill="#D8E0FD"/><rect opacity=".6" x="142.37" y="68.8" width="10.38" height="3.28" rx="1.64" fill="#D8E0FD"/><rect opacity=".6" x="156.58" y="68.8" width="10.38" height="3.28" rx="1.64" fill="#D8E0FD"/><path fill="#ECF0FE" d="M121.05 58.41h18.58v18.58h-18.58z"/><mask id="e" style="mask-type:alpha" maskUnits="userSpaceOnUse" x="122" y="59" width="17" height="17"><rect x="122.31" y="59.67" width="16.06" height="16.06" rx="3.44" fill="#fff" stroke="#F4F4F5" stroke-width=".46"/></mask><g mask="url(#e)"><path fill="#fff" d="M120.24 59.44h27.07v20.19h-27.07z"/><rect x="122.31" y="59.67" width="16.06" height="16.06" rx="3.44" stroke="#DCE3E5" stroke-width=".46"/></g><circle opacity=".6" cx="130.34" cy="67.76" r="5.12" fill="#D8E0FD"/><g opacity=".9"><rect x="159.25" y="22.01" width="94.72" height="24.4" rx="2.18" fill="#ECF0FE"/><rect opacity=".6" x="239.32" y="35.89" width="9.09" height="2.87" rx="1.44" fill="#ECF0FE"/><rect opacity=".6" x="227.68" y="29.17" width="20.68" height="2.77" rx="1.39" fill="#ECF0FE"/><path fill="#ECF0FE" d="M181.92 29.19h25.35v9.09h-25.35z"/><rect opacity=".6" x="181.92" y="29.19" width="25.35" height="2.87" rx="1.44" fill="#D8E0FD"/><rect opacity=".6" x="181.92" y="35.41" width="9.09" height="2.87" rx="1.44" fill="#D8E0FD"/><rect opacity=".6" x="194.36" y="35.41" width="9.09" height="2.87" rx="1.44" fill="#D8E0FD"/><path fill="#ECF0FE" d="M163.25 26.32h16.27v16.27h-16.27z"/><mask id="f" style="mask-type:alpha" maskUnits="userSpaceOnUse" x="164" y="27" width="15" height="15"><rect x="164.35" y="27.43" width="14.06" height="14.06" rx="3.01" fill="#fff" stroke="#F4F4F5" stroke-width=".4"/></mask><g mask="url(#f)"><path fill="#fff" d="M162.54 27.22h23.69v17.67h-23.69z"/><rect x="164.35" y="27.43" width="14.06" height="14.06" rx="3.01" stroke="#DCE3E5" stroke-width=".4"/></g><circle opacity=".6" cx="171.38" cy="34.5" r="4.48" fill="#D8E0FD"/></g><g opacity=".9"><rect x="234.19" y="63.78" width="95.73" height="24.66" rx="2.2" fill="#ECF0FE"/><rect opacity=".6" x="315.11" y="77.8" width="9.19" height="2.9" rx="1.45" fill="#ECF0FE"/><rect opacity=".6" x="303.35" y="71.01" width="20.9" height="2.8" rx="1.4" fill="#ECF0FE"/><path fill="#ECF0FE" d="M257.1 71.03h25.63v9.19H257.1z"/><rect opacity=".6" x="257.1" y="71.03" width="25.63" height="2.9" rx="1.45" fill="#D8E0FD"/><rect opacity=".6" x="257.1" y="77.32" width="9.19" height="2.9" rx="1.45" fill="#D8E0FD"/><rect opacity=".6" x="269.67" y="77.32" width="9.19" height="2.9" rx="1.45" fill="#D8E0FD"/><path fill="#ECF0FE" d="M238.23 68.13h16.44v16.44h-16.44z"/><mask id="g" style="mask-type:alpha" maskUnits="userSpaceOnUse" x="239" y="69" width="15" height="15"><rect x="239.35" y="69.25" width="14.21" height="14.21" rx="3.04" fill="#fff" stroke="#F4F4F5" stroke-width=".41"/></mask><g mask="url(#g)"><path fill="#fff" d="M237.53 69.04h23.95V86.9h-23.95z"/><rect x="239.35" y="69.25" width="14.21" height="14.21" rx="3.04" stroke="#DCE3E5" stroke-width=".41"/></g><circle opacity=".6" cx="246.45" cy="76.4" r="4.53" fill="#D8E0FD"/></g><rect x="178.74" y="91.08" width="93.67" height="24.13" rx="2.15" fill="#ECF0FE"/><rect opacity=".6" x="258.69" y="104.8" width="8.99" height="2.84" rx="1.42" fill="#ECF0FE"/><rect opacity=".6" x="247.17" y="98.15" width="20.45" height="2.74" rx="1.37" fill="#ECF0FE"/><path fill="#ECF0FE" d="M201.91 98.17h25.07v8.99h-25.07z"/><rect opacity=".6" x="201.91" y="98.17" width="25.07" height="2.84" rx="1.42" fill="#D8E0FD"/><rect opacity=".6" x="201.91" y="104.32" width="8.99" height="2.84" rx="1.42" fill="#D8E0FD"/><rect opacity=".6" x="214.21" y="104.32" width="8.99" height="2.84" rx="1.42" fill="#D8E0FD"/><path fill="#ECF0FE" d="M183.47 95.33h16.08v16.08h-16.08z"/><mask id="h" style="mask-type:alpha" maskUnits="userSpaceOnUse" x="184" y="96" width="15" height="15"><rect x="184.56" y="96.43" width="13.9" height="13.9" rx="2.98" fill="#fff" stroke="#F4F4F5" stroke-width=".4"/></mask><g mask="url(#h)"><path fill="#fff" d="M182.77 96.23h23.43v17.47h-23.43z"/><rect x="184.56" y="96.43" width="13.9" height="13.9" rx="2.98" stroke="#DCE3E5" stroke-width=".4"/></g><circle opacity=".6" cx="191.5" cy="103.42" r="4.43" fill="#D8E0FD"/><g filter="url(#i)"><rect x="123" y="82.01" width="68" height="22" rx="3.71" fill="#fff"/><path d="M132.35 96.9q-.67 0-1.23-.24a2 2 0 0 1-.86-.67q-.32-.44-.32-1.03h1.4q.01.4.28.63.25.23.7.23.46 0 .72-.21a.7.7 0 0 0 .26-.58q0-.3-.17-.47a1 1 0 0 0-.45-.3 6 6 0 0 0-.73-.24 9 9 0 0 1-1.03-.36q-.4-.18-.69-.55a1.6 1.6 0 0 1-.28-.99q0-.58.3-1 .29-.44.8-.66a3 3 0 0 1 1.2-.23q1.01 0 1.63.49.64.48.7 1.36h-1.44a.7.7 0 0 0-.28-.55q-.27-.22-.7-.22a1 1 0 0 0-.62.2q-.22.18-.22.56 0 .27.16.44.19.16.43.28.27.1.73.24.63.19 1.04.38.4.18.69.56.29.37.29.98a1.9 1.9 0 0 1-1.07 1.69q-.52.26-1.24.26m4.75-5.53v1.64h2.19v1.03h-2.2v1.73h2.48v1.06h-3.78v-6.52h3.78v1.06zm4.96 4.43h2.15v1.03h-3.46v-6.51h1.31zm4.28 0h2.15v1.03h-3.45v-6.51h1.3zm9.22-5.48v1.05h-2.71v1.67h2.08v1.04h-2.08v2.75h-1.3v-6.51zm4.93 5.27h-2.6l-.43 1.24h-1.37l2.34-6.52h1.52l2.34 6.52h-1.38zm-.36-1.04-.94-2.73-.94 2.73zm5.29 2.35q-.68 0-1.23-.24a2 2 0 0 1-.86-.67q-.31-.44-.33-1.03h1.4q.03.4.28.63.27.23.71.23.46 0 .72-.21a.7.7 0 0 0 .26-.58q0-.3-.18-.47a1 1 0 0 0-.44-.3 6 6 0 0 0-.73-.24 9 9 0 0 1-1.04-.36q-.4-.18-.68-.55a1.6 1.6 0 0 1-.28-.99q0-.58.29-1 .3-.44.81-.66a3 3 0 0 1 1.2-.23q1 0 1.63.49.63.48.7 1.36h-1.44a.7.7 0 0 0-.29-.55q-.25-.22-.7-.22a1 1 0 0 0-.61.2q-.23.18-.23.56 0 .27.17.44t.43.28q.26.1.73.24.63.19 1.03.38.4.18.7.56.28.37.28.98a1.9 1.9 0 0 1-1.06 1.69q-.52.26-1.24.26m7.87-6.58v1.05h-1.74v5.46h-1.3v-5.46h-1.74v-1.05zm2.26 1.05v1.64h2.19v1.03h-2.2v1.73h2.48v1.06h-3.78v-6.52h3.78v1.06zm7.02 5.46-1.44-2.54h-.62v2.54h-1.3v-6.51h2.44q.76 0 1.29.27.53.25.8.72.26.45.26 1 0 .65-.37 1.17t-1.11.71l1.56 2.64zm-2.06-3.52h1.1q.52 0 .79-.25a1 1 0 0 0 .26-.72q0-.44-.26-.69t-.8-.25h-1.09z" fill="#436AF5"/></g><rect x="229.68" y="10.69" width="32.83" height="16.09" rx="2.9" fill="#fff" stroke="#DCE3E5" stroke-width=".64"/><rect x="254.68" y="21.69" width="32.83" height="16.09" rx="2.9" fill="#fff" stroke="#DCE3E5" stroke-width=".64"/><path d="M241.16 15.25v.84h-1.67v5.43h-1.03v-5.43h-1.67v-.84zm5.42 1.87q0 .48-.23.9-.22.42-.72.7-.5.26-1.27.26h-1.14v2.54h-1.02v-6.27h2.16q.72 0 1.22.26.5.24.74.66.26.43.26.95m-2.22 1.02q.59 0 .88-.26.28-.28.28-.76 0-1.03-1.16-1.03h-1.14v2.05zm4.22-2.89v6.27h-1.02v-6.27zm6.5 6.27h-1.03l-3.09-4.68v4.68h-1.03v-6.27h1.03l3.1 4.66v-4.67h1.02z" fill="#AEC2C2"/><path d="M236.44 18.54h19.32V19h-19.32zm29.43 14.04a3.13 3.13 0 0 1-3.2-3.2q0-.93.42-1.66.44-.72 1.17-1.13.74-.42 1.61-.42a3.2 3.2 0 0 1 2.77 1.55q.43.73.43 1.65 0 .93-.43 1.66-.41.73-1.16 1.15-.72.4-1.61.4m0-.9q.62 0 1.1-.27.5-.3.76-.81.29-.54.28-1.23 0-.7-.27-1.21a2 2 0 0 0-.76-.8q-.5-.3-1.11-.29-.63 0-1.1.28-.5.29-.77.8-.28.53-.27 1.22 0 .69.26 1.23.3.53.77.8.49.3 1.11.29m8.26-5.43v.84h-1.67v5.43h-1.03V27.1h-1.68v-.84zm5.42 1.87q0 .48-.23.9-.22.42-.72.7-.5.26-1.27.26h-1.14v2.54h-1.02v-6.27h2.16q.72 0 1.22.26.5.24.74.66.26.43.26.95m-2.22 1.02q.58 0 .87-.26.3-.28.3-.76 0-1.03-1.17-1.03h-1.14v2.05z" fill="#AEC2C2"/><path d="M262.34 29.54h17.51V30h-17.51z" fill="#AEC2C2"/><path d="M171.54 65.83a26.9 26.9 0 0 1 26.92-26.93h52.7a26.92 26.92 0 0 1 0 53.85h-52.7a26.9 26.9 0 0 1-26.92-26.92" fill="#fff"/><path fill-rule="evenodd" clip-rule="evenodd" d="M251.16 40.96h-52.7a24.86 24.86 0 0 0 0 49.73h52.7a24.86 24.86 0 1 0 0-49.73m-52.7-2.06a26.92 26.92 0 0 0 0 53.85h52.7a26.92 26.92 0 0 0 0-53.85z" fill="url(#j)"/><path fill-rule="evenodd" clip-rule="evenodd" d="M232.3 57.4a10 10 0 0 0-4.42-.93h-6.97l-3.3 18.61h6.98q2.92 0 5.33-1.16a10.6 10.6 0 0 0 4-3.29 11 11 0 0 0 2.08-4.85q.18-1.17.18-1.94 0-2.22-1-3.87a6.5 6.5 0 0 0-2.87-2.57m-3.04 12.38a6.4 6.4 0 0 1-4.27 1.43h-2.15l1.91-10.87h2.18q2.2 0 3.39 1.09 1.2 1.05 1.2 3.02 0 .53-.14 1.33a6.4 6.4 0 0 1-2.12 4m22.71-7.32a7 7 0 0 1-1.24 2.97 7 7 0 0 1-2.68 2.15 9 9 0 0 1-3.95.82h-2.81l-1.2 6.68h-4.53l3.29-18.61h7.34q2.92 0 4.4 1.3 1.5 1.27 1.49 3.47 0 .66-.1 1.22m-7.6 2.39q2.54 0 2.99-2.39l.05-.6q0-.85-.56-1.3-.53-.49-1.64-.48h-2.47l-.82 4.77zm14.23-8.38-3.28 18.61h-4.54l3.29-18.61zm-48.66.05q2.57 0 4.43.93a6.5 6.5 0 0 1 2.86 2.57q1 1.65 1 3.87 0 .78-.18 1.94-.47 2.73-2.06 4.85a10.5 10.5 0 0 1-4.01 3.29q-2.4 1.17-5.33 1.17h-6.97l1.37-7.78-2.73-2.94 3.25.01.19-1.07h-4.35l-2.8-2.9 7.66-.01.18-1.03-9.15-.08-2.67-2.82zm-2.9 14.75q2.58 0 4.28-1.44a6.4 6.4 0 0 0 2.12-4q.13-.8.13-1.33 0-1.95-1.2-3.02a5 5 0 0 0-3.39-1.09h-2.17l-1.91 10.88z" fill="url(#k)"/><circle cx="287" cy="62.01" r="15" fill="#7FC782"/><path d="m284.33 66.17-3.32-3.28a.87.87 0 0 1 0-1.23.9.9 0 0 1 1.24 0l2.7 2.66 6.03-5.95a.9.9 0 0 1 1.24 0c.34.33.34.89 0 1.23l-6.65 6.57a.9.9 0 0 1-1.24 0Z" fill="#fff" stroke="#fff" stroke-width="1.01"/><path fill-rule="evenodd" clip-rule="evenodd" d="m265.03 78.58-1.77 9.76 6.25 7.7-9.76-1.77-7.7 6.25 1.77-9.76-6.25-7.7 9.76 1.77zm-7.23 8.1-5.95-1.09 3.81 4.7-1.08 5.95 4.7-3.81 5.95 1.08-3.81-4.7 1.08-5.95z" fill="#fff"/><path d="m262.5 82.86-1.08 5.95 3.8 4.7-5.94-1.09-4.7 3.82 1.09-5.95-3.82-4.7 5.95 1.08z" fill="url(#l)"/></g><defs><filter id="a" x="59.61" y="-120.54" width="337.68" height="257.8" filterUnits="userSpaceOnUse" color-interpolation-filters="sRGB"><feFlood flood-opacity="0" result="BackgroundImageFix"/><feBlend in="SourceGraphic" in2="BackgroundImageFix" result="shape"/><feGaussianBlur stdDeviation="55.92" result="effect1_foregroundBlur_562_22540"/></filter><filter id="b" x=".79" y="-114.73" width="266.51" height="366.73" filterUnits="userSpaceOnUse" color-interpolation-filters="sRGB"><feFlood flood-opacity="0" result="BackgroundImageFix"/><feBlend in="SourceGraphic" in2="BackgroundImageFix" result="shape"/><feGaussianBlur stdDeviation="55.92" result="effect1_foregroundBlur_562_22540"/></filter><filter id="c" x="134.03" y="-53.29" width="331.27" height="331.27" filterUnits="userSpaceOnUse" color-interpolation-filters="sRGB"><feFlood flood-opacity="0" result="BackgroundImageFix"/><feBlend in="SourceGraphic" in2="BackgroundImageFix" result="shape"/><feGaussianBlur stdDeviation="55.92" result="effect1_foregroundBlur_562_22540"/></filter><filter id="i" x="121.14" y="81.08" width="73.57" height="27.57" filterUnits="userSpaceOnUse" color-interpolation-filters="sRGB"><feFlood flood-opacity="0" result="BackgroundImageFix"/><feColorMatrix in="SourceAlpha" values="0 0 0 0 0 0 0 0 0 0 0 0 0 0 0 0 0 0 127 0" result="hardAlpha"/><feOffset dx=".93" dy="1.86"/><feGaussianBlur stdDeviation="1.39"/><feColorMatrix values="0 0 0 0 0.164706 0 0 0 0 0.223529 0 0 0 0 0.305882 0 0 0 0.1 0"/><feBlend in2="BackgroundImageFix" result="effect1_dropShadow_562_22540"/><feBlend in="SourceGraphic" in2="effect1_dropShadow_562_22540" result="shape"/></filter><linearGradient id="j" x1="268.86" y1="75.44" x2="175.31" y2="52.98" gradientUnits="userSpaceOnUse"><stop stop-color="#436AF5"/><stop offset=".41" stop-color="#7FC782"/><stop offset="1" stop-color="#449C47"/></linearGradient><linearGradient id="k" x1="192.88" y1="58.41" x2="258.38" y2="83.95" gradientUnits="userSpaceOnUse"><stop offset=".04" stop-color="#449C47"/><stop offset=".52" stop-color="#7FC782"/><stop offset="1" stop-color="#436AF5"/></linearGradient><linearGradient id="l" x1="262.5" y1="82.86" x2="254.58" y2="96.24" gradientUnits="userSpaceOnUse"><stop stop-color="#B89C00"/><stop offset="1" stop-color="#FFF6C2"/></linearGradient><clipPath id="d"><path fill="#fff" d="M108.89 7.9h221.03v116.74H108.89z"/></clipPath></defs></svg>