<svg width="80" height="80" viewBox="0 0 80 80" fill="none" xmlns="http://www.w3.org/2000/svg">
<g clip-path="url(#clip0_792_14916)">
<path d="M0 16C0 7.16344 7.16344 0 16 0H64C72.8366 0 80 7.16344 80 16V64C80 72.8366 72.8366 80 64 80H16C7.16344 80 0 72.8366 0 64V16Z" fill="#FFEBEB"/>
<rect opacity="0.4" x="14.4922" y="35.7949" width="38" height="29" rx="4" transform="rotate(-20.9444 14.4922 35.7949)" fill="url(#paint0_linear_792_14916)"/>
<rect x="17.3369" y="30.959" width="38" height="29" rx="4" transform="rotate(-15 17.3369 30.959)" fill="url(#paint1_linear_792_14916)"/>
<path fill-rule="evenodd" clip-rule="evenodd" d="M48.3633 30.641C48.7527 30.6799 49.0578 31.0443 49.0447 31.455C49.0195 32.2464 48.6657 32.7392 48.2271 33.0685C48.0263 33.2193 47.8087 33.3361 47.6205 33.4325C47.5683 33.4592 47.5188 33.4842 47.4712 33.5082C47.3339 33.5775 47.2126 33.6387 47.0896 33.7102C46.9139 33.8123 46.72 34.095 46.5037 34.6169C46.4217 34.8147 46.3477 35.0167 46.2709 35.2264C46.253 35.2756 46.2348 35.3252 46.2164 35.3752C46.1243 35.6249 46.0214 35.8965 45.9044 36.1263C45.2327 37.4459 44.2792 37.7531 43.3439 38.0544C43.1885 38.1045 43.0335 38.1544 42.8805 38.2088C42.78 38.2445 42.6797 38.2776 42.5796 38.3106C42.3475 38.3872 42.1163 38.4635 41.8851 38.5714C41.5335 38.7355 41.4335 38.8681 41.4192 38.9075C41.3964 38.9705 41.3775 39.059 41.3596 39.1984C41.3557 39.2286 41.3497 39.2828 41.3427 39.3462C41.3303 39.4579 41.3147 39.5981 41.3021 39.6864C41.2497 40.0513 41.133 40.5752 40.6797 40.949C40.1723 41.3675 39.5655 41.3258 39.1353 41.2336C38.9134 41.186 38.6999 41.1165 38.522 41.0559C38.4727 41.0391 38.4273 41.0234 38.3849 41.0088C38.261 40.966 38.163 40.9321 38.0696 40.9056C38.0656 40.9044 38.0617 40.9033 38.0578 40.9023C38.0509 40.9893 38.0513 41.1108 38.0636 41.2739C38.0806 41.4979 38.1156 41.7495 38.1563 42.0309C38.1595 42.053 38.1627 42.0753 38.166 42.0977C38.2027 42.3506 38.2427 42.6267 38.2673 42.8863C38.2935 43.1639 38.308 43.4756 38.2665 43.7627C38.2259 44.0441 38.1144 44.4169 37.7898 44.6598C37.4547 44.9106 37.0522 44.9056 36.7014 44.8159C36.558 44.7792 36.3875 44.7273 36.222 44.6769C36.1913 44.6676 36.1608 44.6583 36.1306 44.6492C35.928 44.5878 35.7225 44.5273 35.5218 44.4788C35.3194 44.4299 35.1401 44.3978 34.9908 44.3877C34.9424 44.3845 34.9017 44.3839 34.8679 44.3848C34.8474 44.4856 34.8321 44.6266 34.8247 44.805C34.8159 45.018 34.8196 45.2445 34.8253 45.4574C34.8262 45.4908 34.8272 45.5254 34.8282 45.5607C34.833 45.7242 34.8381 45.8999 34.833 46.0187C34.8292 46.107 34.829 46.1813 34.8287 46.2703C34.8284 46.353 34.828 46.4484 34.8248 46.5797C34.8195 46.7935 34.8054 47.0738 34.7434 47.3247C34.6917 47.5342 34.5414 47.9927 34.0693 48.1355C33.6079 48.2752 33.1874 48.0051 32.929 47.7924C31.5809 46.6826 30.8875 44.6749 30.6275 43.2073C30.6005 43.0549 30.5717 42.8973 30.5422 42.7356C30.342 41.6406 30.1069 40.3547 30.1578 39.1669C30.1641 39.0206 30.1861 38.8448 30.2573 38.6787C30.334 38.4997 30.4864 38.2962 30.7516 38.2132C30.9991 38.1356 31.2209 38.203 31.351 38.262C31.4837 38.3222 31.5921 38.4048 31.6685 38.4705C31.9523 38.715 32.2057 39.0925 32.291 39.2377C33.0149 40.4708 33.467 42.0084 33.6926 43.4229C33.7943 43.2531 33.9472 43.0873 34.179 42.9973C34.4523 42.8912 34.7454 42.8803 34.9949 42.8971C35.2514 42.9145 35.5144 42.9654 35.7551 43.0235C35.9974 43.082 36.2355 43.1526 36.4411 43.2149C36.4762 43.2255 36.5099 43.2358 36.5424 43.2456C36.6742 43.2857 36.7852 43.3194 36.8803 43.3457C36.8842 43.2469 36.8795 43.1152 36.8634 42.945C36.8427 42.7271 36.8084 42.4899 36.7703 42.2272C36.7675 42.2077 36.7647 42.1881 36.7618 42.1683C36.722 41.8929 36.6789 41.5892 36.6572 41.3029C36.636 41.0234 36.6301 40.7055 36.6896 40.4129C36.7502 40.1152 36.8987 39.7541 37.2556 39.5433C37.6037 39.3378 38.0024 39.3637 38.357 39.4645C38.4921 39.5029 38.6426 39.555 38.7753 39.6008C38.8114 39.6134 38.8462 39.6254 38.879 39.6366C39.0476 39.694 39.1961 39.7408 39.3336 39.7703C39.6223 39.8322 39.7245 39.7882 39.7713 39.7497C39.8201 39.7094 39.8687 39.6398 39.9067 39.375C39.92 39.2825 39.9262 39.2226 39.9333 39.1532C39.9398 39.0903 39.9471 39.0195 39.9612 38.9094C39.9837 38.7339 40.0193 38.5162 40.0976 38.3001C40.3156 37.6983 40.8687 37.3771 41.2511 37.1986C41.5568 37.0559 41.9087 36.9398 42.1577 36.8576C42.2371 36.8314 42.306 36.8087 42.3596 36.7897C42.5656 36.7165 42.7518 36.6544 42.9213 36.5978C43.8179 36.2988 44.2462 36.156 44.6529 35.357C44.7268 35.2118 44.8034 35.0155 44.8976 34.7601C44.9136 34.7167 44.93 34.6717 44.947 34.6254C45.0242 34.4142 45.111 34.1769 45.2058 33.9482C45.4232 33.4238 45.76 32.7358 46.3537 32.3906C46.5129 32.2981 46.6817 32.213 46.8264 32.1401C46.868 32.1191 46.9077 32.0991 46.9446 32.0802C47.124 31.9883 47.2582 31.9129 47.3651 31.8327C47.5418 31.7 47.6262 31.5754 47.6345 31.314C47.6476 30.9034 47.9738 30.6021 48.3633 30.641ZM36.8593 43.5064C36.8592 43.5064 36.8596 43.5051 36.8606 43.5029C36.8598 43.5054 36.8593 43.5065 36.8593 43.5064ZM37.0298 43.3789C37.0315 43.3788 37.0325 43.3788 37.0325 43.3789C37.0326 43.3789 37.0317 43.379 37.0298 43.3789ZM32.4153 44.5166C32.4144 44.4966 32.413 44.477 32.4113 44.4578C32.3181 43.4278 32.0839 42.2886 31.7094 41.2711C31.7719 41.6823 31.8479 42.1008 31.9245 42.5229C31.9544 42.6879 31.9845 42.8535 32.0139 43.0194C32.1008 43.5103 32.2356 44.0249 32.4153 44.5166ZM31.5697 39.2959C31.5697 39.296 31.5696 39.2968 31.5693 39.2985C31.5695 39.2967 31.5697 39.2959 31.5697 39.2959ZM30.8144 39.6023C30.8128 39.6012 30.812 39.6005 30.812 39.6005C30.812 39.6004 30.8128 39.601 30.8144 39.6023ZM34.9036 44.2634C34.9038 44.2638 34.9019 44.2686 34.8975 44.2762C34.9012 44.2668 34.9034 44.2629 34.9036 44.2634ZM37.9374 40.8819C37.9373 40.8819 37.9381 40.8818 37.9398 40.8817C37.9382 40.8819 37.9374 40.882 37.9374 40.8819Z" fill="#F50000"/>
<circle cx="51" cy="53" r="9" fill="#F50000"/>
<path fill-rule="evenodd" clip-rule="evenodd" d="M54.0272 56.026C54.3467 55.7064 54.3467 55.1883 54.0272 54.8687L52.2917 53.1333L54.026 51.3991C54.3455 51.0795 54.3455 50.5614 54.026 50.2418C53.7064 49.9222 53.1883 49.9222 52.8687 50.2418L51.1345 51.976L49.3981 50.2397C49.0786 49.9201 48.5604 49.9201 48.2409 50.2397C47.9213 50.5592 47.9213 51.0774 48.2409 51.3969L49.9772 53.1333L48.2397 54.8708C47.9201 55.1904 47.9201 55.7085 48.2397 56.0281C48.5592 56.3477 49.0774 56.3477 49.3969 56.0281L51.1345 54.2906L52.8699 56.026C53.1895 56.3455 53.7076 56.3455 54.0272 56.026Z" fill="#FFEBEB"/>
</g>
<defs>
<linearGradient id="paint0_linear_792_14916" x1="14.4922" y1="50.7949" x2="65.9922" y2="50.7949" gradientUnits="userSpaceOnUse">
<stop stop-color="#FF9999"/>
<stop offset="1" stop-color="#FFEBEB"/>
</linearGradient>
<linearGradient id="paint1_linear_792_14916" x1="17.3369" y1="45.959" x2="68.8369" y2="45.959" gradientUnits="userSpaceOnUse">
<stop stop-color="#FF9999"/>
<stop offset="1" stop-color="#FFEBEB"/>
</linearGradient>
<clipPath id="clip0_792_14916">
<rect width="80" height="80" fill="white"/>
</clipPath>
</defs>
</svg>
