<svg width="80" height="80" viewBox="0 0 80 80" fill="none" xmlns="http://www.w3.org/2000/svg">
<g clip-path="url(#clip0_3408_25135)">
<path d="M0 16C0 7.16344 7.16344 0 16 0H64C72.8366 0 80 7.16344 80 16V64C80 72.8366 72.8366 80 64 80H16C7.16344 80 0 72.8366 0 64V16Z" fill="#0C1C0D"/>
<rect opacity="0.4" x="14.4921" y="35.7949" width="38" height="29" rx="4" transform="rotate(-20.9444 14.4921 35.7949)" fill="url(#paint0_linear_3408_25135)"/>
<rect x="17.3372" y="30.9585" width="38" height="29" rx="4" transform="rotate(-15 17.3372 30.9585)" fill="url(#paint1_linear_3408_25135)"/>
<path fill-rule="evenodd" clip-rule="evenodd" d="M48.3631 30.6396C48.7526 30.6785 49.0577 31.0429 49.0446 31.4535C49.0194 32.2449 48.6656 32.7377 48.227 33.0671C48.0262 33.2179 47.8085 33.3346 47.6204 33.431C47.5682 33.4577 47.5187 33.4827 47.4711 33.5067C47.3338 33.576 47.2125 33.6372 47.0895 33.7087C46.9138 33.8108 46.7199 34.0935 46.5036 34.6154C46.4215 34.8133 46.3476 35.0153 46.2708 35.225C46.2528 35.2741 46.2347 35.3237 46.2162 35.3737C46.1242 35.6234 46.0212 35.895 45.9043 36.1248C45.2325 37.4445 44.2791 37.7517 43.3438 38.053C43.1883 38.103 43.0334 38.153 42.8804 38.2073C42.7799 38.243 42.6796 38.2761 42.5795 38.3091C42.3474 38.3857 42.1161 38.462 41.885 38.5699C41.5334 38.7341 41.4334 38.8666 41.4191 38.906C41.3963 38.9691 41.3774 39.0575 41.3595 39.1969C41.3556 39.2271 41.3496 39.2813 41.3426 39.3447C41.3302 39.4564 41.3146 39.5967 41.3019 39.685C41.2496 40.0498 41.1329 40.5737 40.6796 40.9475C40.1721 41.366 39.5654 41.3244 39.1352 41.2321C38.9133 41.1845 38.6998 41.1151 38.5219 41.0544C38.4726 41.0376 38.4272 41.0219 38.3848 41.0073C38.2609 40.9645 38.1628 40.9306 38.0695 40.9041C38.0655 40.903 38.0616 40.9019 38.0577 40.9008C38.0508 40.9878 38.0512 41.1093 38.0635 41.2725C38.0805 41.4965 38.1155 41.7481 38.1562 42.0295C38.1594 42.0515 38.1626 42.0738 38.1659 42.0962C38.2025 42.3491 38.2426 42.6252 38.2672 42.8848C38.2934 43.1624 38.3079 43.4741 38.2664 43.7612C38.2257 44.0427 38.1143 44.4155 37.7897 44.6583C37.4546 44.9091 37.0521 44.9042 36.7013 44.8144C36.5578 44.7777 36.3874 44.7258 36.2218 44.6755C36.1911 44.6661 36.1606 44.6568 36.1305 44.6477C35.9278 44.5863 35.7224 44.5258 35.5217 44.4773C35.3193 44.4285 35.14 44.3964 34.9906 44.3863C34.9423 44.383 34.9016 44.3824 34.8678 44.3834C34.8473 44.4841 34.8319 44.6252 34.8246 44.8036C34.8157 45.0165 34.8195 45.243 34.8251 45.4559C34.826 45.4893 34.827 45.524 34.8281 45.5592C34.8328 45.7227 34.838 45.8984 34.8329 46.0173C34.8291 46.1056 34.8289 46.1798 34.8285 46.2688C34.8282 46.3515 34.8279 46.4469 34.8247 46.5782C34.8194 46.792 34.8052 47.0724 34.7433 47.3232C34.6916 47.5328 34.5413 47.9912 34.0692 48.1341C33.6078 48.2737 33.1872 48.0036 32.9289 47.7909C31.5808 46.6811 30.8873 44.6734 30.6274 43.2058C30.6004 43.0534 30.5716 42.8959 30.542 42.7342C30.3419 41.6391 30.1068 40.3533 30.1577 39.1655C30.1639 39.0191 30.186 38.8434 30.2572 38.6772C30.3339 38.4982 30.4862 38.2948 30.7515 38.2117C30.999 38.1342 31.2208 38.2016 31.3509 38.2605C31.4835 38.3207 31.592 38.4033 31.6684 38.4691C31.9522 38.7135 32.2056 39.091 32.2909 39.2363C33.0147 40.4694 33.4669 42.0069 33.6925 43.4214C33.7942 43.2517 33.947 43.0859 34.1788 42.9959C34.4521 42.8897 34.7453 42.8788 34.9947 42.8957C35.2513 42.913 35.5143 42.9639 35.755 43.022C35.9972 43.0806 36.2354 43.1512 36.441 43.2134C36.476 43.224 36.5098 43.2343 36.5423 43.2442C36.6741 43.2842 36.7851 43.318 36.8801 43.3442C36.8841 43.2455 36.8793 43.1137 36.8632 42.9435C36.8426 42.7257 36.8083 42.4885 36.7702 42.2257C36.7674 42.2062 36.7645 42.1866 36.7617 42.1669C36.7218 41.8914 36.6788 41.5877 36.6571 41.3014C36.6359 41.0219 36.6299 40.704 36.6895 40.4114C36.75 40.1138 36.8986 39.7526 37.2555 39.5419C37.6036 39.3364 38.0023 39.3622 38.3569 39.463C38.4919 39.5014 38.6425 39.5535 38.7751 39.5994C38.8113 39.6119 38.8461 39.6239 38.8789 39.6351C39.0475 39.6926 39.1959 39.7393 39.3335 39.7688C39.6222 39.8307 39.7244 39.7868 39.7711 39.7482C39.82 39.7079 39.8686 39.6383 39.9066 39.3735C39.9199 39.281 39.926 39.2212 39.9332 39.1518C39.9397 39.0888 39.947 39.0181 39.9611 38.908C39.9836 38.7324 40.0192 38.5148 40.0975 38.2986C40.3154 37.6968 40.8686 37.3757 41.251 37.1971C41.5567 37.0544 41.9086 36.9383 42.1576 36.8561C42.2369 36.83 42.3058 36.8072 42.3594 36.7882C42.5654 36.715 42.7517 36.6529 42.9212 36.5964C43.8178 36.2974 44.2461 36.1545 44.6528 35.3555C44.7267 35.2104 44.8033 35.014 44.8974 34.7586C44.9134 34.7152 44.9299 34.6702 44.9468 34.6239C45.0241 34.4127 45.1109 34.1755 45.2057 33.9467C45.4231 33.4223 45.7599 32.7343 46.3536 32.3892C46.5128 32.2966 46.6815 32.2116 46.8262 32.1386C46.8679 32.1176 46.9076 32.0976 46.9445 32.0787C47.1239 31.9868 47.2581 31.9114 47.3649 31.8312C47.5416 31.6985 47.6261 31.5739 47.6344 31.3126C47.6474 30.902 47.9737 30.6006 48.3631 30.6396ZM36.8592 43.505C36.8591 43.5049 36.8595 43.5036 36.8605 43.5014C36.8597 43.5039 36.8592 43.505 36.8592 43.505ZM37.0296 43.3774C37.0314 43.3773 37.0324 43.3773 37.0324 43.3774C37.0324 43.3774 37.0315 43.3775 37.0296 43.3774ZM32.4152 44.5151C32.4142 44.4952 32.4129 44.4756 32.4111 44.4563C32.318 43.4263 32.0838 42.2871 31.7093 41.2696C31.7718 41.6808 31.8478 42.0994 31.9244 42.5214C31.9543 42.6865 31.9844 42.852 32.0138 43.0179C32.1007 43.5089 32.2355 44.0234 32.4152 44.5151ZM31.5696 39.2945C31.5696 39.2945 31.5695 39.2954 31.5692 39.2971C31.5694 39.2953 31.5696 39.2944 31.5696 39.2945ZM30.8143 39.6009C30.8127 39.5997 30.8119 39.599 30.8119 39.599C30.8119 39.599 30.8127 39.5995 30.8143 39.6009ZM34.9035 44.2619C34.9036 44.2624 34.9018 44.2671 34.8974 44.2748C34.9011 44.2653 34.9033 44.2615 34.9035 44.2619ZM37.9372 40.8805C37.9372 40.8804 37.938 40.8803 37.9397 40.8802C37.9381 40.8805 37.9373 40.8805 37.9372 40.8805Z" fill="#7FC782"/>
<circle cx="51" cy="53" r="9" fill="#449C47"/>
<path fill-rule="evenodd" clip-rule="evenodd" d="M56.2105 50.2914C56.601 50.682 56.601 51.3151 56.2105 51.7056L51.4158 56.5004C50.6347 57.2815 49.3681 57.2814 48.5871 56.5001L46.2952 54.2075C45.9048 53.8169 45.9049 53.1837 46.2954 52.7933C46.686 52.4028 47.3192 52.4029 47.7097 52.7935L50.0016 55.0862L54.7963 50.2914C55.1868 49.9009 55.82 49.9009 56.2105 50.2914Z" fill="#0C1C0D"/>
</g>
<defs>
<linearGradient id="paint0_linear_3408_25135" x1="14.4921" y1="50.7949" x2="65.9921" y2="50.7949" gradientUnits="userSpaceOnUse">
<stop stop-color="#449C47"/>
<stop offset="1" stop-color="#0C1C0D"/>
</linearGradient>
<linearGradient id="paint1_linear_3408_25135" x1="17.3372" y1="45.9585" x2="68.8372" y2="45.9585" gradientUnits="userSpaceOnUse">
<stop stop-color="#449C47"/>
<stop offset="1" stop-color="#0C1C0D"/>
</linearGradient>
<clipPath id="clip0_3408_25135">
<rect width="80" height="80" fill="white"/>
</clipPath>
</defs>
</svg>
