<svg width="164" height="144" viewBox="0 0 164 144" fill="none" xmlns="http://www.w3.org/2000/svg">
<rect x="71.6016" y="79.9141" width="79.0846" height="22.4614" rx="3.90486" fill="url(#paint0_linear_4276_25100)"/>
<rect opacity="0.5" x="136.354" y="92.6875" width="8.36781" height="2.64247" rx="1.32123" fill="#D1AFE9"/>
<rect opacity="0.5" x="125.637" y="86.5039" width="19.0411" height="2.5519" rx="1.27595" fill="#D1AFE9"/>
<rect opacity="0.5" x="93.1816" y="86.5195" width="26.6361" height="3.0154" rx="1.5077" fill="#D1AFE9"/>
<rect opacity="0.5" x="93.1816" y="93.0547" width="9.5486" height="3.01535" rx="1.50767" fill="#D1AFE9"/>
<rect opacity="0.5" x="106.248" y="93.0547" width="9.5486" height="3.01535" rx="1.50767" fill="#D1AFE9"/>
<circle opacity="0.1" cx="83.2792" cy="91.1542" r="7.29094" fill="#B57EDC"/>
<rect x="23" y="33" width="62.2294" height="17.6742" rx="3.07262" fill="url(#paint1_linear_4276_25100)"/>
<rect opacity="0.5" x="73.9512" y="43.0508" width="6.58439" height="2.07928" rx="1.03964" fill="#D1AFE9"/>
<rect opacity="0.5" x="65.5176" y="38.1836" width="14.9829" height="2.00801" rx="1.00401" fill="#D1AFE9"/>
<rect opacity="0.5" x="39.9805" y="38.1992" width="20.9591" height="2.37273" rx="1.18637" fill="#D1AFE9"/>
<rect opacity="0.5" x="39.9805" y="43.3398" width="7.51352" height="2.37269" rx="1.18634" fill="#D1AFE9"/>
<rect opacity="0.5" x="50.2637" y="43.3398" width="7.51352" height="2.37269" rx="1.18634" fill="#D1AFE9"/>
<circle opacity="0.1" cx="32.1882" cy="41.8464" r="5.73703" fill="#B57EDC"/>
<path d="M108.945 42.8867C121.33 42.887 131.371 52.9273 131.371 65.3125C131.371 77.6974 121.33 87.738 108.945 87.7383H65.0479C52.6629 87.738 42.6234 77.6974 42.623 65.3125C42.623 52.9273 52.6627 42.8869 65.0479 42.8867H108.945Z" fill="url(#paint2_linear_4276_25100)"/>
<path d="M51.5167 70.8633C52.6714 68.8633 55.5581 68.8633 56.7128 70.8633L66.8267 88.3811C67.9814 90.3811 66.5381 92.8811 64.2287 92.8811H44.0008C41.6914 92.8811 40.2481 90.3811 41.4028 88.3811L51.5167 70.8633Z" fill="url(#paint3_linear_4276_25100)"/>
<path d="M52.3593 72.0486C53.1174 70.6594 55.1122 70.6595 55.8704 72.0486L64.9628 88.7079C65.6902 90.0406 64.7255 91.666 63.2072 91.666H45.0224C43.5041 91.666 42.5395 90.0406 43.2669 88.7079L52.3593 72.0486Z" fill="url(#paint4_linear_4276_25100)"/>
<path d="M74.6094 57.5635C76.0376 57.5635 77.2671 57.8216 78.2979 58.3369C79.3434 58.8376 80.1387 59.5518 80.6836 60.4795C81.2432 61.3926 81.5234 62.468 81.5234 63.7051C81.5234 64.1321 81.4722 64.6696 81.3691 65.3174C81.1041 66.8343 80.5291 68.1822 79.6455 69.3604C78.7767 70.5383 77.6643 71.4517 76.3096 72.0996C74.9696 72.7474 73.4898 73.0713 71.8701 73.0713H66.0605L67.2051 66.5879H67.1973L64.9336 64.1465L67.6348 64.1514L67.792 63.2627H64.1768L61.8408 60.8496L68.2197 60.833L68.3711 59.9814L60.7461 59.9131L58.5273 57.5635H74.6094ZM89.5547 57.5195C90.983 57.5195 92.2124 57.7776 93.2432 58.293C94.2888 58.7937 95.085 59.5078 95.6299 60.4355C96.1894 61.3486 96.4688 62.4242 96.4688 63.6611C96.4687 64.0881 96.4175 64.6257 96.3145 65.2734C96.0494 66.7902 95.4744 68.1373 94.5908 69.3154C93.722 70.4935 92.6106 71.4067 91.2559 72.0547C89.9157 72.7027 88.4354 73.0273 86.8154 73.0273H81.0059L83.7451 57.5195H89.5547ZM104.81 57.5195C106.429 57.5196 107.652 57.88 108.477 58.6016C109.301 59.3085 109.713 60.2738 109.713 61.4961C109.713 61.8641 109.684 62.2026 109.625 62.5117C109.478 63.4101 109.132 64.2353 108.587 64.9863C108.042 65.7226 107.298 66.3189 106.355 66.7754C105.428 67.2318 104.331 67.4599 103.064 67.46H100.723L99.7285 73.0273H95.9512L98.6904 57.5195H104.81ZM112.409 73.0273H108.632L111.371 57.5195H115.148L112.409 73.0273ZM70.4121 69.8457H72.2012C73.6296 69.8457 74.8153 69.4485 75.7578 68.6533C76.7003 67.8581 77.2898 66.7459 77.5254 65.3174C77.599 64.8756 77.6357 64.5074 77.6357 64.2129C77.6357 63.1231 77.3043 62.2834 76.6416 61.6943C75.9789 61.0905 75.0358 60.7891 73.8135 60.7891H72.002L70.4121 69.8457ZM85.3574 69.8018H87.1465C88.575 69.8018 89.7606 69.4037 90.7031 68.6084C91.6455 67.8132 92.2351 66.7018 92.4707 65.2734C92.5443 64.8317 92.581 64.4634 92.5811 64.1689C92.5811 63.0792 92.2496 62.2395 91.5869 61.6504C90.9243 61.0467 89.9819 60.7452 88.7598 60.7451H86.9482L85.3574 69.8018ZM101.253 64.5H103.285C104.699 64.5 105.531 63.8371 105.781 62.5117C105.811 62.2762 105.825 62.107 105.825 62.0039C105.825 61.5327 105.671 61.1722 105.361 60.9219C105.067 60.6568 104.611 60.5235 103.992 60.5234H101.938L101.253 64.5Z" fill="white"/>
<circle cx="54.1149" cy="86.9645" r="1.24968" fill="white"/>
<path fill-rule="evenodd" clip-rule="evenodd" d="M54.1144 76.3438C54.7148 76.3438 55.2015 76.8305 55.2015 77.4308V83.3796C55.2015 83.9799 54.7148 84.4667 54.1144 84.4667C53.5141 84.4667 53.0273 83.9799 53.0273 83.3796V77.4308C53.0273 76.8305 53.5141 76.3438 54.1144 76.3438Z" fill="white"/>
<defs>
<linearGradient id="paint0_linear_4276_25100" x1="123.46" y1="77.8083" x2="110.35" y2="98.6609" gradientUnits="userSpaceOnUse">
<stop stop-color="#F6EFFB"/>
<stop offset="1" stop-color="#F6EFFB"/>
</linearGradient>
<linearGradient id="paint1_linear_4276_25100" x1="63.8062" y1="31.343" x2="53.4898" y2="47.7513" gradientUnits="userSpaceOnUse">
<stop stop-color="#F6EFFB"/>
<stop offset="1" stop-color="#F6EFFB"/>
</linearGradient>
<linearGradient id="paint2_linear_4276_25100" x1="156.42" y1="52.485" x2="42.7577" y2="64.3663" gradientUnits="userSpaceOnUse">
<stop stop-color="#F6EFFB"/>
<stop offset="1" stop-color="#AC6CDA"/>
</linearGradient>
<linearGradient id="paint3_linear_4276_25100" x1="66.0077" y1="76.9123" x2="44.5704" y2="86.4983" gradientUnits="userSpaceOnUse">
<stop stop-color="#F6EFFB"/>
<stop offset="1" stop-color="#AC6CDA"/>
</linearGradient>
<linearGradient id="paint4_linear_4276_25100" x1="73.6125" y1="73.718" x2="41.4485" y2="75.5727" gradientUnits="userSpaceOnUse">
<stop stop-color="#F6EFFB"/>
<stop offset="1" stop-color="#AC6CDA"/>
</linearGradient>
</defs>
</svg>
