<svg width="224" height="107" viewBox="0 0 224 107" fill="none" xmlns="http://www.w3.org/2000/svg">
<rect x="-0.000244141" y="41.6387" width="113.098" height="29.1313" rx="2.59957" fill="#ECF0FE"/>
<rect opacity="0.6" x="96.5315" y="58.2031" width="10.8526" height="3.42715" rx="1.71357" fill="#ECF0FE"/>
<rect opacity="0.6" x="82.6318" y="50.1836" width="24.6953" height="3.30968" rx="1.65484" fill="#ECF0FE"/>
<rect width="30.2737" height="10.8528" transform="translate(27.9912 50.207)" fill="#ECF0FE"/>
<rect opacity="0.6" x="27.9912" y="50.207" width="30.2737" height="3.42721" rx="1.71361" fill="#D8E0FD"/>
<rect opacity="0.6" x="27.991" y="57.6328" width="10.8526" height="3.42715" rx="1.71357" fill="#D8E0FD"/>
<rect opacity="0.6" x="42.8418" y="57.6328" width="10.8526" height="3.42715" rx="1.71357" fill="#D8E0FD"/>
<rect width="19.4205" height="19.4205" transform="translate(5.71118 46.7793)" fill="#ECF0FE"/>
<mask id="mask0_5115_29111" style="mask-type:alpha" maskUnits="userSpaceOnUse" x="6" y="47" width="19" height="19">
<rect x="7.02638" y="48.0972" width="16.7831" height="16.7831" rx="3.59639" fill="white" stroke="#F4F4F5" stroke-width="0.479518"/>
</mask>
<g mask="url(#mask0_5115_29111)">
<rect x="4.86865" y="47.8574" width="28.2916" height="21.0988" fill="white"/>
<rect x="7.02638" y="48.0972" width="16.7831" height="16.7831" rx="3.59639" stroke="#DCE3E5" stroke-width="0.479518"/>
</g>
<circle opacity="0.6" cx="15.4182" cy="56.5495" r="5.34641" fill="#D8E0FD"/>
<g opacity="0.9">
<rect x="45.6365" y="8.74023" width="98.9935" height="25.4983" rx="2.27538" fill="#ECF0FE"/>
<rect opacity="0.6" x="129.317" y="23.2402" width="9.49907" height="2.99971" rx="1.49985" fill="#ECF0FE"/>
<rect opacity="0.6" x="117.153" y="16.2207" width="21.6153" height="2.89689" rx="1.44845" fill="#ECF0FE"/>
<rect width="26.4979" height="9.49924" transform="translate(69.3281 16.2402)" fill="#ECF0FE"/>
<rect opacity="0.6" x="69.3281" y="16.2402" width="26.4979" height="2.99976" rx="1.49988" fill="#D8E0FD"/>
<rect opacity="0.6" x="69.3279" y="22.7402" width="9.49907" height="2.99971" rx="1.49985" fill="#D8E0FD"/>
<rect opacity="0.6" x="82.3264" y="22.7402" width="9.49907" height="2.99971" rx="1.49985" fill="#D8E0FD"/>
<rect width="16.9983" height="16.9983" transform="translate(49.8218 13.2402)" fill="#ECF0FE"/>
<mask id="mask1_5115_29111" style="mask-type:alpha" maskUnits="userSpaceOnUse" x="50" y="14" width="16" height="16">
<rect x="50.9684" y="14.3954" width="14.6899" height="14.6899" rx="3.14784" fill="white" stroke="#F4F4F5" stroke-width="0.419712"/>
</mask>
<g mask="url(#mask1_5115_29111)">
<rect x="49.0796" y="14.1855" width="24.763" height="18.4673" fill="white"/>
<rect x="50.9684" y="14.3954" width="14.6899" height="14.6899" rx="3.14784" stroke="#DCE3E5" stroke-width="0.419712"/>
</g>
<circle opacity="0.6" cx="58.3175" cy="21.7909" r="4.67959" fill="#D8E0FD"/>
</g>
<g opacity="0.9">
<rect x="123.949" y="52.3887" width="100.051" height="25.7706" rx="2.29968" fill="#ECF0FE"/>
<rect opacity="0.6" x="208.524" y="67.043" width="9.60052" height="3.03174" rx="1.51587" fill="#ECF0FE"/>
<rect opacity="0.6" x="196.231" y="59.9473" width="21.8461" height="2.92783" rx="1.46392" fill="#ECF0FE"/>
<rect width="26.7809" height="9.6007" transform="translate(147.894 59.9688)" fill="#ECF0FE"/>
<rect opacity="0.6" x="147.894" y="59.9688" width="26.7809" height="3.0318" rx="1.5159" fill="#D8E0FD"/>
<rect opacity="0.6" x="147.894" y="66.5371" width="9.60052" height="3.03174" rx="1.51587" fill="#D8E0FD"/>
<rect opacity="0.6" x="161.032" y="66.5371" width="9.60052" height="3.03174" rx="1.51587" fill="#D8E0FD"/>
<rect width="17.1799" height="17.1799" transform="translate(128.179 56.9355)" fill="#ECF0FE"/>
<mask id="mask2_5115_29111" style="mask-type:alpha" maskUnits="userSpaceOnUse" x="129" y="57" width="16" height="17">
<rect x="129.351" y="58.1027" width="14.8468" height="14.8468" rx="3.18146" fill="white" stroke="#F4F4F5" stroke-width="0.424195"/>
</mask>
<g mask="url(#mask2_5115_29111)">
<rect x="127.442" y="57.8906" width="25.0275" height="18.6646" fill="white"/>
<rect x="129.351" y="58.1027" width="14.8468" height="14.8468" rx="3.18146" stroke="#DCE3E5" stroke-width="0.424195"/>
</g>
<circle opacity="0.6" cx="136.767" cy="65.5772" r="4.72957" fill="#D8E0FD"/>
</g>
<rect x="66" y="80.918" width="97.8933" height="25.2149" rx="2.2501" fill="#ECF0FE"/>
<rect opacity="0.6" x="149.555" y="95.2559" width="9.39349" height="2.96637" rx="1.48318" fill="#ECF0FE"/>
<rect opacity="0.6" x="137.524" y="88.3145" width="21.375" height="2.86469" rx="1.43235" fill="#ECF0FE"/>
<rect width="26.2034" height="9.39366" transform="translate(90.2197 88.334)" fill="#ECF0FE"/>
<rect opacity="0.6" x="90.2197" y="88.334" width="26.2034" height="2.96642" rx="1.48321" fill="#D8E0FD"/>
<rect opacity="0.6" x="90.2197" y="94.7617" width="9.39349" height="2.96637" rx="1.48318" fill="#D8E0FD"/>
<rect opacity="0.6" x="103.074" y="94.7617" width="9.39349" height="2.96637" rx="1.48318" fill="#D8E0FD"/>
<rect width="16.8094" height="16.8094" transform="translate(70.9426 85.3672)" fill="#ECF0FE"/>
<mask id="mask3_5115_29111" style="mask-type:alpha" maskUnits="userSpaceOnUse" x="71" y="86" width="16" height="16">
<rect x="72.0837" y="86.5083" width="14.5266" height="14.5266" rx="3.11285" fill="white" stroke="#F4F4F5" stroke-width="0.415047"/>
</mask>
<g mask="url(#mask3_5115_29111)">
<rect x="70.2161" y="86.3008" width="24.4878" height="18.2621" fill="white"/>
<rect x="72.0837" y="86.5083" width="14.5266" height="14.5266" rx="3.11285" stroke="#DCE3E5" stroke-width="0.415047"/>
</g>
<circle opacity="0.6" cx="79.34" cy="93.8229" r="4.62758" fill="#D8E0FD"/>
<path fill-rule="evenodd" clip-rule="evenodd" d="M186.359 29.7959C182.944 28.8752 179.865 26.8549 177.666 24.0929C175.311 21.2029 174.018 17.6736 174.018 14.1188V8.5181C174.018 6.67674 175.26 4.80985 176.993 4.09377L184.212 1.17824C186.334 0.359857 188.636 0.359857 190.732 1.17824L197.977 4.09377C199.71 4.80985 200.978 6.67674 200.978 8.5181V14.1188C200.978 21.254 195.803 27.8523 188.688 29.7959C188.248 29.8726 187.834 29.9239 187.446 29.9239C187.058 29.9239 186.696 29.8726 186.359 29.7959Z" fill="#436AF5"/>
<path d="M184.715 18.3081L181.247 14.8801C180.892 14.5288 180.892 13.9474 181.247 13.5961C181.602 13.2449 182.191 13.2449 182.546 13.5961L185.365 16.3821L191.663 10.156C192.019 9.80476 192.607 9.80476 192.962 10.156C193.318 10.5073 193.318 11.0887 192.962 11.44L186.014 18.3081C185.842 18.4777 185.61 18.5746 185.365 18.5746C185.119 18.5746 184.887 18.4777 184.715 18.3081Z" fill="white" stroke="white" stroke-width="1.05915"/>
<g filter="url(#filter0_d_5115_29111)">
<rect x="9.68945" y="69.0781" width="46.5672" height="23.2836" rx="3.8806" fill="white"/>
<path d="M23.6782 85.9642C23.0172 85.9642 22.4196 85.851 21.8854 85.6247C21.3602 85.3983 20.9437 85.0723 20.6358 84.6468C20.3279 84.2212 20.1695 83.7186 20.1604 83.1391H22.1977C22.2249 83.5285 22.3607 83.8364 22.6052 84.0627C22.8587 84.2891 23.2028 84.4023 23.6374 84.4023C24.0811 84.4023 24.4297 84.2981 24.6833 84.0899C24.9368 83.8726 25.0636 83.5919 25.0636 83.2478C25.0636 82.9671 24.9775 82.7362 24.8055 82.5551C24.6335 82.374 24.4162 82.2337 24.1536 82.1341C23.9 82.0254 23.5469 81.9077 23.0942 81.7809C22.4784 81.5998 21.9759 81.4233 21.5865 81.2512C21.2062 81.0701 20.8758 80.803 20.5951 80.4499C20.3234 80.0877 20.1876 79.6078 20.1876 79.0102C20.1876 78.4488 20.3279 77.9598 20.6086 77.5433C20.8893 77.1268 21.2832 76.8099 21.7903 76.5926C22.2973 76.3662 22.8768 76.253 23.5288 76.253C24.5067 76.253 25.299 76.493 25.9057 76.9729C26.5214 77.4437 26.8609 78.1047 26.9243 78.9559H24.8327C24.8146 78.6299 24.6742 78.3628 24.4116 78.1545C24.1581 77.9372 23.8185 77.8285 23.393 77.8285C23.0217 77.8285 22.7229 77.9236 22.4965 78.1138C22.2792 78.3039 22.1706 78.5801 22.1706 78.9423C22.1706 79.1958 22.2521 79.4086 22.4151 79.5806C22.5871 79.7436 22.7954 79.8794 23.0398 79.9881C23.2934 80.0877 23.6465 80.2054 24.0992 80.3412C24.715 80.5223 25.2175 80.7034 25.6068 80.8845C25.9962 81.0656 26.3312 81.3372 26.6119 81.6994C26.8926 82.0616 27.033 82.537 27.033 83.1256C27.033 83.6326 26.9017 84.1035 26.6391 84.5381C26.3765 84.9727 25.9917 85.3213 25.4846 85.5839C24.9775 85.8374 24.3754 85.9642 23.6782 85.9642ZM30.583 77.9236V80.3005H33.7748V81.8081H30.583V84.3208H34.1822V85.8691H28.6815V76.3753H34.1822V77.9236H30.583ZM37.8117 84.3615H40.9356V85.8691H35.9102V76.3888H37.8117V84.3615ZM44.0457 84.3615H47.1696V85.8691H42.1442V76.3888H44.0457V84.3615Z" fill="#436AF5"/>
</g>
<rect x="183.952" y="40.4996" width="34.3105" height="16.8189" rx="3.0274" fill="white" stroke="#DCE3E5" stroke-width="0.672755"/>
<path d="M195.948 45.999V46.8749H194.206V52.5449H193.132V46.8749H191.38V45.999H195.948ZM201.613 47.9487C201.613 48.2814 201.535 48.5954 201.378 48.8905C201.221 49.1856 200.969 49.4274 200.624 49.6157C200.279 49.7978 199.836 49.8889 199.296 49.8889H198.109V52.5449H197.036V45.999H199.296C199.798 45.999 200.222 46.0869 200.568 46.2627C200.919 46.4323 201.18 46.6646 201.349 46.9597C201.525 47.2548 201.613 47.5845 201.613 47.9487ZM199.296 49.013C199.704 49.013 200.009 48.9219 200.21 48.7398C200.411 48.5514 200.511 48.2877 200.511 47.9487C200.511 47.2328 200.106 46.8749 199.296 46.8749H198.109V49.013H199.296ZM203.711 45.999V52.5449H202.637V45.999H203.711ZM210.499 52.5449H209.425L206.194 47.6567V52.5449H205.121V45.9896H206.194L209.425 50.8684V45.9896H210.499V52.5449Z" fill="#AEC2C2"/>
<path d="M191.013 49.4368H211.205V49.9077H191.013V49.4368Z" fill="#AEC2C2"/>
<path d="M58.4749 54.9144C58.4749 39.3758 71.0714 26.7793 86.6099 26.7793H141.683C157.221 26.7793 169.818 39.3758 169.818 54.9144C169.818 70.4529 157.221 83.0494 141.683 83.0494H86.6099C71.0714 83.0494 58.4749 70.4529 58.4749 54.9144Z" fill="white"/>
<path fill-rule="evenodd" clip-rule="evenodd" d="M141.683 28.9314H86.6099C72.2599 28.9314 60.627 40.5644 60.627 54.9144C60.627 69.2643 72.26 80.8973 86.6099 80.8973H141.683C156.033 80.8973 167.666 69.2643 167.666 54.9144C167.666 40.5644 156.033 28.9314 141.683 28.9314ZM86.6099 26.7793C71.0714 26.7793 58.4749 39.3758 58.4749 54.9144C58.4749 70.4529 71.0714 83.0494 86.6099 83.0494H141.683C157.221 83.0494 169.818 70.4529 169.818 54.9144C169.818 39.3758 157.221 26.7793 141.683 26.7793H86.6099Z" fill="url(#paint0_linear_5115_29111)"/>
<path fill-rule="evenodd" clip-rule="evenodd" d="M121.984 46.1067C120.691 45.4601 119.148 45.1367 117.356 45.1367H110.067L106.63 64.5922H113.919C115.952 64.5922 117.808 64.1857 119.49 63.3728C121.19 62.5598 122.585 61.4143 123.675 59.9362C124.783 58.4581 125.504 56.7675 125.836 54.8645C125.966 54.0515 126.03 53.3771 126.03 52.8413C126.03 51.2893 125.679 49.9405 124.977 48.795C124.294 47.631 123.296 46.7349 121.984 46.1067ZM118.797 59.0493C117.614 60.0471 116.127 60.5459 114.335 60.5459H112.09L114.086 49.183H116.358C117.892 49.183 119.074 49.5618 119.906 50.3193C120.737 51.0584 121.153 52.1115 121.153 53.4787C121.153 53.8483 121.106 54.3102 121.014 54.8645C120.718 56.6567 119.979 58.0516 118.797 59.0493ZM142.535 51.4002C142.35 52.5272 141.916 53.5619 141.233 54.5042C140.549 55.428 139.616 56.1763 138.434 56.749C137.27 57.3218 135.893 57.6082 134.304 57.6082H131.366L130.119 64.5922H125.38L128.817 45.1367H136.494C138.526 45.1367 140.059 45.5894 141.094 46.4947C142.129 47.3816 142.646 48.5918 142.646 50.1253C142.646 50.5872 142.609 51.0122 142.535 51.4002ZM134.581 53.8945C136.355 53.8945 137.399 53.063 137.713 51.4002C137.75 51.1045 137.768 50.8921 137.768 50.7627C137.768 50.1715 137.574 49.7188 137.186 49.4047C136.817 49.0722 136.244 48.9059 135.468 48.9059H132.891L132.031 53.8945H134.581ZM149.465 45.1367L146.028 64.5922H141.289L144.726 45.1367H149.465ZM98.605 45.1922C100.397 45.1922 101.94 45.5155 103.233 46.1622C104.545 46.7903 105.543 47.6864 106.226 48.8504C106.929 49.996 107.28 51.3447 107.28 52.8967C107.28 53.4326 107.215 54.1069 107.086 54.9199C106.753 56.823 106.032 58.5135 104.924 59.9916C103.834 61.4697 102.439 62.6153 100.739 63.4282C99.0577 64.2412 97.2008 64.6476 95.1685 64.6476H87.8796L89.3162 56.5142H89.3066L86.4663 53.451L89.8561 53.4578L90.0532 52.3424L85.5164 52.3421L82.5856 49.3145L90.5915 49.2946L90.7801 48.2271L81.2128 48.1402L78.4287 45.1921H92.2859V45.1922H98.605ZM95.5842 60.6013C97.3764 60.6013 98.8637 60.1025 100.046 59.1048C101.229 58.1071 101.968 56.7121 102.263 54.9199C102.356 54.3656 102.402 53.9037 102.402 53.5342C102.402 52.1669 101.986 51.1138 101.155 50.3747C100.323 49.6172 99.1409 49.2384 97.6073 49.2384H95.3347L93.3393 60.6013H95.5842Z" fill="url(#paint1_linear_5115_29111)"/>
<path fill-rule="evenodd" clip-rule="evenodd" d="M171.232 17.7759L168.518 32.6953L178.078 44.4667L163.158 41.7533L151.387 51.3128L154.1 36.3934L144.541 24.622L159.46 27.3354L171.232 17.7759ZM160.182 30.1496L151.087 28.4954L156.914 35.6716L155.26 44.7669L162.437 38.9391L171.532 40.5933L165.704 33.4171L167.358 24.3218L160.182 30.1496Z" fill="white"/>
<path d="M167.36 24.3204L165.706 33.4157L171.534 40.5919L162.438 38.9378L155.262 44.7655L156.916 35.6702L151.088 28.494L160.184 30.1482L167.36 24.3204Z" fill="url(#paint2_linear_5115_29111)"/>
<defs>
<filter id="filter0_d_5115_29111" x="7.74915" y="68.108" width="52.388" height="29.1041" filterUnits="userSpaceOnUse" color-interpolation-filters="sRGB">
<feFlood flood-opacity="0" result="BackgroundImageFix"/>
<feColorMatrix in="SourceAlpha" type="matrix" values="0 0 0 0 0 0 0 0 0 0 0 0 0 0 0 0 0 0 127 0" result="hardAlpha"/>
<feOffset dx="0.97015" dy="1.9403"/>
<feGaussianBlur stdDeviation="1.45522"/>
<feColorMatrix type="matrix" values="0 0 0 0 0.164706 0 0 0 0 0.223529 0 0 0 0 0.305882 0 0 0 0.1 0"/>
<feBlend mode="normal" in2="BackgroundImageFix" result="effect1_dropShadow_5115_29111"/>
<feBlend mode="normal" in="SourceGraphic" in2="effect1_dropShadow_5115_29111" result="shape"/>
</filter>
<linearGradient id="paint0_linear_5115_29111" x1="160.18" y1="64.9586" x2="62.4204" y2="41.4856" gradientUnits="userSpaceOnUse">
<stop stop-color="#436AF5"/>
<stop offset="0.410439" stop-color="#7FC782"/>
<stop offset="1" stop-color="#449C47"/>
</linearGradient>
<linearGradient id="paint1_linear_5115_29111" x1="80.7796" y1="47.1617" x2="149.228" y2="73.8567" gradientUnits="userSpaceOnUse">
<stop offset="0.04" stop-color="#449C47"/>
<stop offset="0.518455" stop-color="#7FC782"/>
<stop offset="1" stop-color="#436AF5"/>
</linearGradient>
<linearGradient id="paint2_linear_5115_29111" x1="167.36" y1="24.3204" x2="155.262" y2="44.7655" gradientUnits="userSpaceOnUse">
<stop stop-color="#B89C00"/>
<stop offset="1" stop-color="#FFF6C2"/>
</linearGradient>
</defs>
</svg>
