<svg width="20" height="20" viewBox="0 0 20 20" fill="none" xmlns="http://www.w3.org/2000/svg">
<rect width="20" height="20" rx="4" fill="white"/>
<mask id="mask0_7662_64860" style="mask-type:alpha" maskUnits="userSpaceOnUse" x="0" y="0" width="20" height="20">
<rect x="0.25641" y="0.25641" width="19.4872" height="19.4872" rx="4.74359" fill="white" stroke="#F4F4F5" stroke-width="0.512821"/>
</mask>
<g mask="url(#mask0_7662_64860)">
</g>
<g clip-path="url(#clip0_7662_64860)">
<rect width="20" height="20" rx="6" fill="white"/>
<rect y="-0.0693359" width="20.1367" height="20.1367" fill="white"/>
<mask id="mask1_7662_64860" style="mask-type:alpha" maskUnits="userSpaceOnUse" x="0" y="-1" width="21" height="22">
<rect y="-0.0693359" width="20.1367" height="20.1367" fill="white"/>
</mask>
<g mask="url(#mask1_7662_64860)">
<path fill-rule="evenodd" clip-rule="evenodd" d="M5.5 9.87507C5.02 9.87507 4.625 9.48007 4.625 9.00007V7.34006C4.625 7.00006 4.85999 6.65507 5.17499 6.53007L9.67499 4.73008C9.86499 4.65508 10.135 4.65508 10.325 4.73008L14.825 6.53007C15.14 6.65507 15.375 7.00506 15.375 7.34006V9.00007C15.375 9.48007 14.98 9.87507 14.5 9.87507H5.5ZM9.95001 5.42505L5.45499 7.22507C5.42499 7.24007 5.375 7.30506 5.375 7.34006V9.00007C5.375 9.07007 5.43 9.12507 5.5 9.12507H14.5C14.57 9.12507 14.625 9.07007 14.625 9.00007V7.34006C14.625 7.30506 14.58 7.24007 14.545 7.22507L10.045 5.42505C10.035 5.42005 10.02 5.42008 10 5.42008C9.98 5.42008 9.96001 5.42005 9.95001 5.42505Z" fill="#404040"/>
<path fill-rule="evenodd" clip-rule="evenodd" d="M5 15.375C4.795 15.375 4.625 15.205 4.625 15V13.5C4.625 13.02 5.02 12.625 5.5 12.625H14.5C14.98 12.625 15.375 13.02 15.375 13.5V15C15.375 15.205 15.205 15.375 15 15.375H5ZM14.625 14.625V13.5C14.625 13.43 14.57 13.375 14.5 13.375H5.5C5.43 13.375 5.375 13.43 5.375 13.5V14.625H14.625Z" fill="#404040"/>
<path d="M5.625 13V9.5C5.625 9.295 5.795 9.125 6 9.125C6.205 9.125 6.375 9.295 6.375 9.5V13C6.375 13.205 6.205 13.375 6 13.375C5.795 13.375 5.625 13.205 5.625 13Z" fill="#404040"/>
<path d="M7.625 13V9.5C7.625 9.295 7.795 9.125 8 9.125C8.205 9.125 8.375 9.295 8.375 9.5V13C8.375 13.205 8.205 13.375 8 13.375C7.795 13.375 7.625 13.205 7.625 13Z" fill="#404040"/>
<path d="M9.625 13V9.5C9.625 9.295 9.795 9.125 10 9.125C10.205 9.125 10.375 9.295 10.375 9.5V13C10.375 13.205 10.205 13.375 10 13.375C9.795 13.375 9.625 13.205 9.625 13Z" fill="#404040"/>
<path d="M11.625 13V9.5C11.625 9.295 11.795 9.125 12 9.125C12.205 9.125 12.375 9.295 12.375 9.5V13C12.375 13.205 12.205 13.375 12 13.375C11.795 13.375 11.625 13.205 11.625 13Z" fill="#404040"/>
<path d="M13.625 13V9.5C13.625 9.295 13.795 9.125 14 9.125C14.205 9.125 14.375 9.295 14.375 9.5V13C14.375 13.205 14.205 13.375 14 13.375C13.795 13.375 13.625 13.205 13.625 13Z" fill="#404040"/>
<path d="M4.5 15.375C4.295 15.375 4.125 15.205 4.125 15C4.125 14.795 4.295 14.625 4.5 14.625H15.5C15.705 14.625 15.875 14.795 15.875 15C15.875 15.205 15.705 15.375 15.5 15.375H4.5Z" fill="#404040"/>
<path fill-rule="evenodd" clip-rule="evenodd" d="M8.875 7.5C8.875 6.88 9.38 6.375 10 6.375C10.62 6.375 11.125 6.88 11.125 7.5C11.125 8.12 10.62 8.625 10 8.625C9.38 8.625 8.875 8.12 8.875 7.5ZM9.625 7.5C9.625 7.705 9.795 7.875 10 7.875C10.205 7.875 10.375 7.705 10.375 7.5C10.375 7.295 10.205 7.125 10 7.125C9.795 7.125 9.625 7.295 9.625 7.5Z" fill="#404040"/>
</g>
</g>
<rect x="0.25641" y="0.25641" width="19.4872" height="19.4872" rx="3.74359" stroke="#EAEBED" stroke-width="0.512821"/>
<defs>
<clipPath id="clip0_7662_64860">
<rect width="20" height="20" rx="6" fill="white"/>
</clipPath>
</defs>
</svg>
