<svg width="120" height="120" viewBox="0 0 120 120" fill="none" xmlns="http://www.w3.org/2000/svg">
<rect opacity="0.5" x="19.3486" y="32.1836" width="89.9427" height="56.2511" rx="4.66618" transform="rotate(0.0252256 19.3486 32.1836)" fill="url(#paint0_linear_3728_37177)"/>
<rect x="6.80078" y="40.1289" width="97.9897" height="60.6603" rx="4.66618" transform="rotate(-11.2135 6.80078 40.1289)" fill="url(#paint1_linear_3728_37177)"/>
<rect opacity="0.4" x="69.4795" y="44.3516" width="27.4138" height="30.9134" rx="4.66618" transform="rotate(-11.2135 69.4795 44.3516)" fill="#AC6CDA"/>
<mask id="mask0_3728_37177" style="mask-type:alpha" maskUnits="userSpaceOnUse" x="70" y="39" width="32" height="35">
<rect x="69.4795" y="44.3516" width="27.4138" height="30.9134" rx="4.66618" transform="rotate(-11.2135 69.4795 44.3516)" fill="#ADADAD"/>
</mask>
<g mask="url(#mask0_3728_37177)">
<ellipse opacity="0.4" cx="88.8233" cy="71.4388" rx="10.2073" ry="9.33235" transform="rotate(-11.2135 88.8233 71.4388)" fill="#2E1042"/>
</g>
<circle opacity="0.4" cx="85.59" cy="55.1312" r="5.54108" transform="rotate(-11.2135 85.59 55.1312)" fill="#2E1042"/>
<rect opacity="0.3" x="22.9873" y="73.7852" width="36.7461" height="2.33309" rx="1.16654" transform="rotate(-11.2135 22.9873 73.7852)" fill="url(#paint2_linear_3728_37177)"/>
<rect opacity="0.15" x="17.3174" y="45.1836" width="29.1636" height="2.33309" rx="1.16654" transform="rotate(-11.2135 17.3174 45.1836)" fill="#ADADAD"/>
<rect opacity="0.14" x="69.3818" y="34.8594" width="29.1636" height="2.33309" rx="1.16654" transform="rotate(-11.2135 69.3818 34.8594)" fill="url(#paint3_linear_3728_37177)"/>
<rect opacity="0.3" x="24.123" y="79.5078" width="36.7461" height="2.33309" rx="1.16654" transform="rotate(-11.2135 24.123 79.5078)" fill="#B57EDC"/>
<rect opacity="0.3" x="25.2559" y="85.2305" width="19.8312" height="2.33309" rx="1.16654" transform="rotate(-11.2135 25.2559 85.2305)" fill="#B57EDC"/>
<path d="M27.8386 62.3066C27.5682 61.9686 27.2404 61.7398 26.8552 61.6203C26.4685 61.4936 26.0469 61.4755 25.5903 61.5661C25.0903 61.6652 24.6669 61.8659 24.3201 62.1681C23.9733 62.4704 23.7285 62.8503 23.5857 63.3079C23.4502 63.7641 23.4363 64.264 23.5441 64.8075C23.6518 65.351 23.8561 65.8114 24.1568 66.1886C24.4634 66.5572 24.8346 66.815 25.2705 66.9621C25.7064 67.1091 26.1743 67.1331 26.6744 67.034C27.3483 66.9003 27.8581 66.6034 28.2038 66.1433C28.5494 65.6831 28.7054 65.1212 28.6717 64.4575L25.8345 65.02L25.6384 64.0308L29.8018 63.2054L29.9936 64.1728C30.0303 64.7757 29.9271 65.3572 29.6842 65.9176C29.4486 66.4764 29.0884 66.9583 28.6038 67.3632C28.125 67.7594 27.5558 68.0229 26.8963 68.1536C26.1861 68.2944 25.5052 68.26 24.8535 68.0502C24.2004 67.8332 23.6418 67.4657 23.1775 66.9477C22.7205 66.4282 22.4188 65.7988 22.2722 65.0596C22.1257 64.3204 22.1645 63.6236 22.3887 62.969C22.6202 62.313 22.9972 61.7638 23.5195 61.3213C24.0477 60.8701 24.6633 60.5749 25.3662 60.4355C26.1706 60.276 26.924 60.3338 27.6263 60.6088C28.3343 60.8752 28.9015 61.3427 29.3278 62.0114L27.8386 62.3066ZM35.9457 58.4398L34.4002 63.7511L34.9433 66.4905L33.704 66.7362L33.1609 63.9968L29.6951 59.679L31.0757 59.4053L33.5607 62.7652L34.576 58.7113L35.9457 58.4398ZM40.4096 57.7356L41.0712 58.5083L39.6919 59.3579L41.291 59.6171L40.9677 60.6076L39.5345 59.8749L40.0753 61.4059L39.0752 61.6042L38.9692 59.987L37.9283 61.2327L37.2233 60.4122L38.5918 59.5647L37.0078 59.3251L37.3311 58.3346L38.7969 59.0608L38.2649 57.5168L39.2758 57.3164L39.3513 58.9509L40.4096 57.7356ZM45.8874 56.6496L46.549 57.4223L45.1696 58.2719L46.7688 58.5311L46.4455 59.5216L45.0123 58.7889L45.553 60.3199L44.5529 60.5182L44.447 58.901L43.406 60.1468L42.701 59.3262L44.0695 58.4787L42.4855 58.2392L42.8089 57.2486L44.2747 57.9748L43.7426 56.4308L44.7536 56.2304L44.8291 57.8649L45.8874 56.6496ZM51.3652 55.5636L52.0267 56.3363L50.6474 57.186L52.2466 57.4451L51.9232 58.4356L50.49 57.703L51.0308 59.2339L50.0307 59.4322L49.9248 57.815L48.8838 59.0608L48.1788 58.2403L49.5473 57.3928L47.9633 57.1532L48.2866 56.1627L49.7524 56.8889L49.2204 55.3449L50.2314 55.1444L50.3068 56.779L51.3652 55.5636ZM56.8429 54.4777L57.5045 55.2503L56.1251 56.1L57.7243 56.3591L57.401 57.3497L55.9678 56.617L56.5086 58.148L55.5085 58.3462L55.4025 56.7291L54.3615 57.9748L53.6566 57.1543L55.0251 56.3068L53.4411 56.0672L53.7644 55.0767L55.2302 55.8029L54.6981 54.2589L55.7091 54.0585L55.7846 55.693L56.8429 54.4777Z" fill="#D0D0D0"/>
<defs>
<linearGradient id="paint0_linear_3728_37177" x1="107.417" y1="34.8204" x2="18.0793" y2="79.5753" gradientUnits="userSpaceOnUse">
<stop stop-color="#436AF5"/>
<stop offset="1" stop-color="#AC6CDA"/>
</linearGradient>
<linearGradient id="paint1_linear_3728_37177" x1="102.749" y1="42.9723" x2="5.8197" y2="92.0293" gradientUnits="userSpaceOnUse">
<stop stop-color="#436AF5"/>
<stop offset="1" stop-color="#AC6CDA"/>
</linearGradient>
<linearGradient id="paint2_linear_3728_37177" x1="22.9873" y1="74.9517" x2="59.7334" y2="74.9517" gradientUnits="userSpaceOnUse">
<stop stop-color="#B57EDC"/>
<stop offset="1" stop-color="#B57EDC"/>
</linearGradient>
<linearGradient id="paint3_linear_3728_37177" x1="97.6705" y1="36.0259" x2="72.5898" y2="36.0259" gradientUnits="userSpaceOnUse">
<stop stop-color="#404040"/>
<stop offset="0.895985" stop-color="#B57EDC"/>
</linearGradient>
</defs>
</svg>
