<svg width="120" height="120" viewBox="0 0 120 120" fill="none" xmlns="http://www.w3.org/2000/svg">
<rect x="19.3477" y="32.1836" width="89.9427" height="56.2511" rx="4.66618" transform="rotate(0.0252256 19.3477 32.1836)" fill="#F4F5F6"/>
<rect x="6.80078" y="40.1289" width="97.9897" height="60.6603" rx="4.66618" transform="rotate(-11.2135 6.80078 40.1289)" fill="url(#paint0_linear_3728_37177)"/>
<rect x="69.4785" y="44.3516" width="27.4138" height="30.9134" rx="4.66618" transform="rotate(-11.2135 69.4785 44.3516)" fill="#6290BF"/>
<mask id="mask0_3728_37177" style="mask-type:alpha" maskUnits="userSpaceOnUse" x="70" y="39" width="32" height="35">
<rect x="69.8213" y="44.5809" width="26.8305" height="30.3301" rx="4.37454" transform="rotate(-11.2135 69.8213 44.5809)" fill="#D9D9D9" stroke="white" stroke-width="0.583272"/>
</mask>
<g mask="url(#mask0_3728_37177)">
<ellipse opacity="0.6" cx="88.8233" cy="71.4388" rx="10.2073" ry="9.33235" transform="rotate(-11.2135 88.8233 71.4388)" fill="white"/>
</g>
<circle opacity="0.6" cx="85.589" cy="55.1312" r="5.54108" transform="rotate(-11.2135 85.589 55.1312)" fill="white"/>
<rect x="22.9863" y="73.7852" width="36.7461" height="2.33309" rx="1.16654" transform="rotate(-11.2135 22.9863 73.7852)" fill="url(#paint1_linear_3728_37177)"/>
<rect opacity="0.15" x="17.3164" y="45.1836" width="29.1636" height="2.33309" rx="1.16654" transform="rotate(-11.2135 17.3164 45.1836)" fill="url(#paint2_linear_3728_37177)"/>
<rect opacity="0.14" x="69.3809" y="34.8594" width="29.1636" height="2.33309" rx="1.16654" transform="rotate(-11.2135 69.3809 34.8594)" fill="url(#paint3_linear_3728_37177)"/>
<rect x="24.1211" y="79.5078" width="36.7461" height="2.33309" rx="1.16654" transform="rotate(-11.2135 24.1211 79.5078)" fill="#847FC5"/>
<rect x="25.2559" y="85.2305" width="19.8312" height="2.33309" rx="1.16654" transform="rotate(-11.2135 25.2559 85.2305)" fill="#847FC5"/>
<path d="M27.8366 62.3066C27.5662 61.9686 27.2384 61.7398 26.8532 61.6203C26.4666 61.4936 26.045 61.4755 25.5884 61.5661C25.0883 61.6652 24.6649 61.8659 24.3181 62.1681C23.9713 62.4704 23.7265 62.8503 23.5838 63.3079C23.4482 63.7641 23.4344 64.264 23.5421 64.8075C23.6499 65.351 23.8541 65.8114 24.1549 66.1886C24.4614 66.5572 24.8326 66.815 25.2685 66.9621C25.7044 67.1091 26.1724 67.1331 26.6724 67.034C27.3464 66.9003 27.8562 66.6034 28.2018 66.1433C28.5474 65.6831 28.7034 65.1212 28.6697 64.4575L25.8325 65.02L25.6364 64.0308L29.7998 63.2054L29.9917 64.1728C30.0283 64.7757 29.9252 65.3572 29.6823 65.9176C29.4466 66.4764 29.0865 66.9583 28.6018 67.3632C28.123 67.7594 27.5539 68.0229 26.8944 68.1536C26.1842 68.2944 25.5032 68.26 24.8516 68.0502C24.1985 67.8332 23.6398 67.4657 23.1756 66.9477C22.7186 66.4282 22.4168 65.7988 22.2703 65.0596C22.1237 64.3204 22.1626 63.6236 22.3868 62.969C22.6183 62.313 22.9952 61.7638 23.5176 61.3213C24.0457 60.8701 24.6613 60.5749 25.3643 60.4355C26.1687 60.276 26.922 60.3338 27.6243 60.6088C28.3324 60.8752 28.8996 61.3427 29.3259 62.0114L27.8366 62.3066ZM35.9438 58.4398L34.3982 63.7511L34.9413 66.4905L33.7021 66.7362L33.159 63.9968L29.6932 59.679L31.0737 59.4053L33.5588 62.7652L34.5741 58.7113L35.9438 58.4398ZM40.4077 57.7356L41.0693 58.5083L39.6899 59.3579L41.2891 59.6171L40.9658 60.6076L39.5325 59.8749L40.0733 61.4059L39.0732 61.6042L38.9673 59.987L37.9263 61.2327L37.2213 60.4122L38.5898 59.5647L37.0058 59.3251L37.3291 58.3346L38.795 59.0608L38.2629 57.5168L39.2739 57.3164L39.3494 58.9509L40.4077 57.7356ZM45.8854 56.6496L46.547 57.4223L45.1677 58.2719L46.7668 58.5311L46.4435 59.5216L45.0103 58.7889L45.5511 60.3199L44.551 60.5182L44.445 58.901L43.4041 60.1468L42.6991 59.3262L44.0676 58.4787L42.4836 58.2392L42.8069 57.2486L44.2727 57.9748L43.7407 56.4308L44.7516 56.2304L44.8271 57.8649L45.8854 56.6496ZM51.3632 55.5636L52.0248 56.3363L50.6454 57.186L52.2446 57.4451L51.9213 58.4356L50.4881 57.703L51.0288 59.2339L50.0288 59.4322L49.9228 57.815L48.8818 59.0608L48.1769 58.2403L49.5453 57.3928L47.9613 57.1532L48.2847 56.1627L49.7505 56.8889L49.2184 55.3449L50.2294 55.1444L50.3049 56.779L51.3632 55.5636ZM56.841 54.4777L57.5026 55.2503L56.1232 56.1L57.7224 56.3591L57.399 57.3497L55.9658 56.617L56.5066 58.148L55.5065 58.3462L55.4006 56.7291L54.3596 57.9748L53.6546 57.1543L55.0231 56.3068L53.4391 56.0672L53.7624 55.0767L55.2283 55.8029L54.6962 54.2589L55.7072 54.0585L55.7827 55.693L56.841 54.4777Z" fill="white"/>
<defs>
<linearGradient id="paint0_linear_3728_37177" x1="102.749" y1="42.9723" x2="5.8197" y2="92.0293" gradientUnits="userSpaceOnUse">
<stop stop-color="#8EC3EB"/>
<stop offset="1" stop-color="#9990D1"/>
</linearGradient>
<linearGradient id="paint1_linear_3728_37177" x1="22.9863" y1="74.9517" x2="59.7325" y2="74.9517" gradientUnits="userSpaceOnUse">
<stop stop-color="#7F83CF"/>
<stop offset="1" stop-color="#686CB0"/>
</linearGradient>
<linearGradient id="paint2_linear_3728_37177" x1="17.3164" y1="46.3501" x2="43.272" y2="46.3501" gradientUnits="userSpaceOnUse">
<stop stop-color="#6184B4" stop-opacity="0.4"/>
<stop offset="0.895985" stop-color="#2A394E"/>
</linearGradient>
<linearGradient id="paint3_linear_3728_37177" x1="97.6695" y1="36.0259" x2="72.5889" y2="36.0259" gradientUnits="userSpaceOnUse">
<stop stop-color="#6184B4" stop-opacity="0.2"/>
<stop offset="0.895985" stop-color="#2A394E"/>
</linearGradient>
</defs>
</svg>
