<svg width="20" height="20" viewBox="0 0 20 20" fill="none" xmlns="http://www.w3.org/2000/svg">
<path fill-rule="evenodd" clip-rule="evenodd" d="M11.1058 2.2391C10.5434 1.9203 9.85483 1.9203 9.29237 2.2391L6.59955 3.76539L3.93134 5.33429C3.37402 5.662 3.02974 6.2583 3.0246 6.90481L3 10L3.0246 13.0952C3.02974 13.7417 3.37402 14.338 3.93134 14.6657L6.59955 16.2346L9.29237 17.7609C9.85483 18.0797 10.5434 18.0797 11.1058 17.7609L13.7987 16.2346L16.4669 14.6657C17.0242 14.338 17.3685 13.7417 17.3736 13.0952L17.3982 10L17.3736 6.90481C17.3685 6.2583 17.0242 5.662 16.4669 5.33429L13.7987 3.76539L11.1058 2.2391ZM11.2259 6.34564L10.3106 5.79484L9.39526 6.34564C9.22086 6.45059 8.99465 6.39387 8.89001 6.21896C8.78537 6.04405 8.84192 5.81718 9.01632 5.71223L10.0756 5.07478C10.2202 4.98776 10.4009 4.98776 10.5455 5.07478L11.6048 5.71223C11.7792 5.81718 11.8358 6.04405 11.7312 6.21896C11.6265 6.39387 11.4003 6.45059 11.2259 6.34564ZM10.3106 7.87494C9.25303 7.87494 8.39567 8.73481 8.39567 9.79551C8.39567 10.8562 9.25303 11.7161 10.3106 11.7161C11.3682 11.7161 12.2256 10.8562 12.2256 9.79551C12.2256 8.73481 11.3682 7.87494 10.3106 7.87494ZM9.13219 9.79551C9.13219 9.14277 9.6598 8.61362 10.3106 8.61362C10.9615 8.61362 11.4891 9.14277 11.4891 9.79551C11.4891 10.4482 10.9615 10.9774 10.3106 10.9774C9.6598 10.9774 9.13219 10.4482 9.13219 9.79551ZM11.2259 13.2466L10.6788 13.5758V12.6765C10.6788 12.4725 10.5139 12.3072 10.3105 12.3072C10.1072 12.3072 9.94228 12.4725 9.94228 12.6765V13.5758L9.39526 13.2466C9.22086 13.1417 8.99465 13.1984 8.89001 13.3733C8.78537 13.5482 8.84192 13.7751 9.01632 13.88L10.0756 14.5175C10.0843 14.5227 10.0932 14.5276 10.1021 14.5322C10.1614 14.5731 10.2332 14.5971 10.3105 14.5971C10.3878 14.5971 10.4595 14.5732 10.5188 14.5324C10.5278 14.5277 10.5367 14.5228 10.5455 14.5175L11.6048 13.88C11.7792 13.7751 11.8358 13.5482 11.7312 13.3733C11.6265 13.1984 11.4003 13.1417 11.2259 13.2466ZM13.3922 7.58756L12.537 8.1594C12.3677 8.27255 12.322 8.50186 12.4348 8.67158C12.5476 8.84131 12.7763 8.88717 12.9455 8.77402L13.7586 8.23041L13.7479 8.86597C13.7445 9.06992 13.9066 9.23804 14.1099 9.24147C14.3133 9.2449 14.4809 9.08235 14.4843 8.8784L14.5051 7.6396C14.5079 7.47048 14.4176 7.31357 14.2702 7.23148L13.1901 6.63012C13.0122 6.53112 12.7881 6.59544 12.6893 6.77378C12.5906 6.95212 12.6548 7.17696 12.8326 7.27596L13.3922 7.58756ZM7.78865 12.3165L6.85538 11.7969L6.87333 10.7264C6.87675 10.5225 6.71467 10.3544 6.51131 10.3509C6.30796 10.3475 6.14033 10.5101 6.13691 10.714L6.11613 11.9528C6.11329 12.1219 6.20363 12.2788 6.35107 12.3609L7.43117 12.9623C7.60899 13.0613 7.83317 12.997 7.93189 12.8186C8.0306 12.6403 7.96647 12.4155 7.78865 12.3165ZM12.8325 12.3165L13.7658 11.7969L13.7478 10.7264C13.7444 10.5225 13.9065 10.3544 14.1098 10.3509C14.3132 10.3475 14.4808 10.5101 14.4842 10.714L14.505 11.9528C14.5078 12.1219 14.4175 12.2788 14.2701 12.3609L13.19 12.9623C13.0122 13.0613 12.788 12.997 12.6893 12.8186C12.5905 12.6403 12.6547 12.4155 12.8325 12.3165ZM7.18041 7.61464L8.06954 8.14967C8.24394 8.25462 8.30049 8.48149 8.19585 8.6564C8.09121 8.83131 7.865 8.88803 7.6906 8.78308L6.86366 8.28547L6.8734 8.86597C6.87682 9.06992 6.71474 9.23804 6.51138 9.24147C6.30802 9.2449 6.14039 9.08235 6.13697 8.87839L6.1162 7.6396C6.11336 7.47048 6.20369 7.31357 6.35114 7.23148L7.43123 6.63012C7.60906 6.53112 7.83324 6.59544 7.93195 6.77378C8.03067 6.95212 7.96654 7.17696 7.78871 7.27596L7.18041 7.61464Z" fill="#CA7868"/>
</svg>
