<svg width="120" height="120" viewBox="0 0 120 120" fill="none" xmlns="http://www.w3.org/2000/svg">
<rect x="41.4219" y="18.0938" width="70.6274" height="73.2414" rx="4" transform="rotate(11.2579 41.4219 18.0938)" fill="url(#paint0_linear_3800_397957)"/>
<rect x="41.4219" y="18.0938" width="70.6274" height="73.2414" rx="4" transform="rotate(11.2579 41.4219 18.0938)" fill="url(#paint1_linear_3800_397957)"/>
<rect x="8.02246" y="19.9609" width="65.6059" height="88.44" rx="4" transform="rotate(-16.4677 8.02246 19.9609)" fill="url(#paint2_linear_3800_397957)"/>
<g filter="url(#filter0_d_3800_397957)">
<rect x="24.3125" y="18.1895" width="74.9305" height="96.1458" rx="4" fill="white"/>
<path d="M68.4942 103.717C68.4942 103.019 69.2615 102.172 69.4959 101.498C69.9979 100.056 70.3235 98.2392 70.1266 96.7049C70.0947 96.4566 69.852 95.3747 69.4959 96.0708C68.9419 97.1539 68.6586 98.4804 68.3644 99.6517C68.0291 100.987 67.9173 102.79 68.587 104.035C69.1209 105.027 69.5445 103.772 69.8298 103.214C70.0216 102.839 70.5166 101.348 71.0355 101.368C71.6786 101.391 72.579 102.251 73.076 102.617C74.6821 103.801 74.2161 98.3715 75.9326 99.7076C76.4156 100.084 77.0341 100.812 77.7319 100.621C78.364 100.449 78.5161 99.7025 78.9283 99.288C79.4016 98.8121 80.5046 98.9884 81.0986 99.0269C82.3663 99.1091 83.1825 99.3492 84.2706 98.4954C84.9262 97.9809 85.798 96.7768 86.6913 96.677C87.552 96.5808 88.4069 96.7427 88.8615 95.8284" stroke="#747E8B" stroke-width="1.35417" stroke-linecap="round"/>
<rect x="32.4375" y="54.752" width="59.1319" height="2.70833" fill="#EAEBED"/>
<rect x="32" y="38" width="32" height="2" fill="#EAEBED"/>
<rect x="31.5625" y="32.249" width="32" height="2" fill="#EAEBED"/>
<rect x="32.4375" y="61.0713" width="59.1319" height="2.70833" fill="#EAEBED"/>
<rect x="32.4375" y="67.3909" width="59.1319" height="2.70833" fill="#EAEBED"/>
<rect x="32.4375" y="73.71" width="59.1319" height="2.70833" fill="#EAEBED"/>
<rect x="32.4375" y="80.0293" width="59.1319" height="2.70833" fill="#EAEBED"/>
<rect x="32.4375" y="86.3496" width="24.375" height="2.70833" fill="#EAEBED"/>
<circle cx="91.5694" cy="23.5694" r="16.5694" fill="white"/>
<path fill-rule="evenodd" clip-rule="evenodd" d="M91.8248 36.5706C84.7856 36.5706 79.0791 30.8641 79.0791 23.8248C79.0791 16.7856 84.7856 11.0791 91.8248 11.0791C98.8641 11.0791 104.571 16.7856 104.571 23.8248C104.571 30.8641 98.8641 36.5706 91.8248 36.5706Z" fill="#33C659"/>
<path d="M89.3384 28.107L85.7313 24.5C85.3617 24.1304 85.3617 23.5186 85.7313 23.149C86.1009 22.7793 86.7127 22.7793 87.0824 23.149L90.0139 26.0805L96.5652 19.5292C96.9348 19.1595 97.5466 19.1595 97.9162 19.5292C98.2859 19.8988 98.2859 20.5106 97.9162 20.8802L90.6894 28.107C90.511 28.2855 90.2688 28.3875 90.0139 28.3875C89.759 28.3875 89.5168 28.2855 89.3384 28.107Z" fill="white"/>
</g>
<defs>
<filter id="filter0_d_3800_397957" x="22.3125" y="6" width="89.8262" height="113.335" filterUnits="userSpaceOnUse" color-interpolation-filters="sRGB">
<feFlood flood-opacity="0" result="BackgroundImageFix"/>
<feColorMatrix in="SourceAlpha" type="matrix" values="0 0 0 0 0 0 0 0 0 0 0 0 0 0 0 0 0 0 127 0" result="hardAlpha"/>
<feOffset dx="1" dy="2"/>
<feGaussianBlur stdDeviation="1.5"/>
<feColorMatrix type="matrix" values="0 0 0 0 0.164706 0 0 0 0 0.223529 0 0 0 0 0.305882 0 0 0 0.1 0"/>
<feBlend mode="normal" in2="BackgroundImageFix" result="effect1_dropShadow_3800_397957"/>
<feBlend mode="normal" in="SourceGraphic" in2="effect1_dropShadow_3800_397957" result="shape"/>
</filter>
<linearGradient id="paint0_linear_3800_397957" x1="76.7356" y1="18.0938" x2="76.7356" y2="91.3352" gradientUnits="userSpaceOnUse">
<stop stop-color="#F6F8FF"/>
<stop offset="1" stop-color="#C7D2FC"/>
</linearGradient>
<linearGradient id="paint1_linear_3800_397957" x1="76.7356" y1="18.0938" x2="76.7356" y2="91.3352" gradientUnits="userSpaceOnUse">
<stop stop-color="#EBF9EE"/>
<stop offset="1" stop-color="#99E3AC"/>
</linearGradient>
<linearGradient id="paint2_linear_3800_397957" x1="40.8254" y1="19.9609" x2="40.8254" y2="108.401" gradientUnits="userSpaceOnUse">
<stop stop-color="#EBF9EE"/>
<stop offset="1" stop-color="#99E3AC"/>
</linearGradient>
</defs>
</svg>
