<svg width="206" height="190" viewBox="0 0 206 190" fill="none" xmlns="http://www.w3.org/2000/svg">
<path d="M25.8142 35H14C9.02944 35 5 39.0294 5 44V104C5 108.971 9.02944 113 14 113H61" stroke="black" stroke-width="6"/>
<path d="M25.8142 35H14C9.02944 35 5 39.0294 5 44V104C5 108.971 9.02944 113 14 113H61" stroke="url(#paint0_linear_3538_148657)" stroke-width="6"/>
<path d="M25.8142 35H14C9.02944 35 5 39.0294 5 44V104C5 108.971 9.02944 113 14 113H61" stroke="url(#paint1_linear_3538_148657)" stroke-width="6"/>
<path d="M120.186 35H132C136.971 35 141 39.0294 141 44V104C141 108.971 136.971 113 132 113H85" stroke="black" stroke-width="6"/>
<path d="M120.186 35H132C136.971 35 141 39.0294 141 44V104C141 108.971 136.971 113 132 113H85" stroke="url(#paint2_linear_3538_148657)" stroke-width="6"/>
<g filter="url(#filter0_d_3538_148657)">
<rect x="17" y="59.9648" width="155.867" height="103.659" rx="13.6195" fill="white"/>
</g>
<circle cx="49.6985" cy="89.6361" r="17.5658" fill="#BFC4CA"/>
<circle cx="49.8632" cy="84.751" r="4.44634" fill="white"/>
<ellipse cx="49.8632" cy="95.6202" rx="8.39865" ry="4.44634" fill="white"/>
<rect x="76.0177" y="80.3945" width="61.2876" height="5.29646" rx="2.64823" fill="url(#paint3_linear_3538_148657)"/>
<rect x="76.0177" y="91.7441" width="29.5089" height="5.29646" rx="2.64823" fill="#EAEBED"/>
<rect opacity="0.6" x="34" y="114" width="95" height="34" rx="6.80973" fill="url(#paint4_linear_3538_148657)"/>
<path d="M103 130C103 120.059 111.059 112 121 112H188C197.941 112 206 120.059 206 130C206 139.941 197.941 148 188 148H121C111.059 148 103 139.941 103 130Z" fill="url(#paint5_linear_3538_148657)"/>
<path d="M137.222 125.228V135H135.262V125.228H137.222ZM143.456 127.132C144.38 127.132 145.127 127.426 145.696 128.014C146.266 128.593 146.55 129.405 146.55 130.45V135H144.59V130.716C144.59 130.1 144.436 129.629 144.128 129.302C143.82 128.966 143.4 128.798 142.868 128.798C142.327 128.798 141.898 128.966 141.58 129.302C141.272 129.629 141.118 130.1 141.118 130.716V135H139.158V127.244H141.118V128.21C141.38 127.874 141.711 127.613 142.112 127.426C142.523 127.23 142.971 127.132 143.456 127.132ZM147.91 131.094C147.91 130.31 148.064 129.615 148.372 129.008C148.69 128.401 149.114 127.935 149.646 127.608C150.188 127.281 150.79 127.118 151.452 127.118C152.031 127.118 152.535 127.235 152.964 127.468C153.403 127.701 153.753 127.995 154.014 128.35V127.244H155.988V135H154.014V133.866C153.762 134.23 153.412 134.533 152.964 134.776C152.526 135.009 152.017 135.126 151.438 135.126C150.785 135.126 150.188 134.958 149.646 134.622C149.114 134.286 148.69 133.815 148.372 133.208C148.064 132.592 147.91 131.887 147.91 131.094ZM154.014 131.122C154.014 130.646 153.921 130.24 153.734 129.904C153.548 129.559 153.296 129.297 152.978 129.12C152.661 128.933 152.32 128.84 151.956 128.84C151.592 128.84 151.256 128.929 150.948 129.106C150.64 129.283 150.388 129.545 150.192 129.89C150.006 130.226 149.912 130.627 149.912 131.094C149.912 131.561 150.006 131.971 150.192 132.326C150.388 132.671 150.64 132.937 150.948 133.124C151.266 133.311 151.602 133.404 151.956 133.404C152.32 133.404 152.661 133.315 152.978 133.138C153.296 132.951 153.548 132.69 153.734 132.354C153.921 132.009 154.014 131.598 154.014 131.122ZM157.399 131.122C157.399 130.319 157.562 129.619 157.889 129.022C158.215 128.415 158.668 127.949 159.247 127.622C159.825 127.286 160.488 127.118 161.235 127.118C162.196 127.118 162.989 127.361 163.615 127.846C164.249 128.322 164.674 128.994 164.889 129.862H162.775C162.663 129.526 162.471 129.265 162.201 129.078C161.939 128.882 161.613 128.784 161.221 128.784C160.661 128.784 160.217 128.989 159.891 129.4C159.564 129.801 159.401 130.375 159.401 131.122C159.401 131.859 159.564 132.433 159.891 132.844C160.217 133.245 160.661 133.446 161.221 133.446C162.014 133.446 162.532 133.091 162.775 132.382H164.889C164.674 133.222 164.249 133.889 163.615 134.384C162.98 134.879 162.187 135.126 161.235 135.126C160.488 135.126 159.825 134.963 159.247 134.636C158.668 134.3 158.215 133.833 157.889 133.236C157.562 132.629 157.399 131.925 157.399 131.122ZM168.606 128.854V132.606C168.606 132.867 168.667 133.059 168.788 133.18C168.919 133.292 169.134 133.348 169.432 133.348H170.342V135H169.11C167.458 135 166.632 134.197 166.632 132.592V128.854H165.708V127.244H166.632V125.326H168.606V127.244H170.342V128.854H168.606ZM172.746 126.32C172.401 126.32 172.111 126.213 171.878 125.998C171.654 125.774 171.542 125.499 171.542 125.172C171.542 124.845 171.654 124.575 171.878 124.36C172.111 124.136 172.401 124.024 172.746 124.024C173.091 124.024 173.376 124.136 173.6 124.36C173.833 124.575 173.95 124.845 173.95 125.172C173.95 125.499 173.833 125.774 173.6 125.998C173.376 126.213 173.091 126.32 172.746 126.32ZM173.712 127.244V135H171.752V127.244H173.712ZM178.883 133.194L180.843 127.244H182.929L180.059 135H177.679L174.823 127.244H176.923L178.883 133.194ZM191.239 130.954C191.239 131.234 191.221 131.486 191.183 131.71H185.513C185.56 132.27 185.756 132.709 186.101 133.026C186.447 133.343 186.871 133.502 187.375 133.502C188.103 133.502 188.621 133.189 188.929 132.564H191.043C190.819 133.311 190.39 133.927 189.755 134.412C189.121 134.888 188.341 135.126 187.417 135.126C186.671 135.126 185.999 134.963 185.401 134.636C184.813 134.3 184.351 133.829 184.015 133.222C183.689 132.615 183.525 131.915 183.525 131.122C183.525 130.319 183.689 129.615 184.015 129.008C184.342 128.401 184.799 127.935 185.387 127.608C185.975 127.281 186.652 127.118 187.417 127.118C188.155 127.118 188.813 127.277 189.391 127.594C189.979 127.911 190.432 128.364 190.749 128.952C191.076 129.531 191.239 130.198 191.239 130.954ZM189.209 130.394C189.2 129.89 189.018 129.489 188.663 129.19C188.309 128.882 187.875 128.728 187.361 128.728C186.876 128.728 186.465 128.877 186.129 129.176C185.803 129.465 185.602 129.871 185.527 130.394H189.209Z" fill="#959CA6"/>
<circle cx="122.5" cy="130.5" r="6.5" fill="#959CA6"/>
<path d="M27.7013 42.2337H34.0128C34.6745 45.6917 37.3774 48.2811 40.611 48.2811H51.4866V21.0488H40.611C37.2812 21.0488 34.5142 23.7945 33.9593 27.407H27.7013C26.2094 27.407 25 28.7848 25 30.4845V38.8974V39.0268V39.1562C25 40.8558 26.2094 42.2337 27.7013 42.2337Z" fill="url(#paint6_linear_3538_148657)"/>
<path d="M51.9404 24.2246H56.4979C58.4316 24.2246 59.9992 25.7922 59.9992 27.7259C59.9992 29.6596 58.4316 31.2272 56.4979 31.2272H51.9404V24.2246Z" fill="url(#paint7_linear_3538_148657)"/>
<path d="M51.9404 38.0723H56.4979C58.4316 38.0723 59.9992 39.6398 59.9992 41.5736C59.9992 43.5073 58.4316 45.0749 56.4979 45.0749H51.9404V38.0723Z" fill="url(#paint8_linear_3538_148657)"/>
<path d="M51.9404 38.0723H56.4979C58.4316 38.0723 59.9992 39.6398 59.9992 41.5736C59.9992 43.5073 58.4316 45.0749 56.4979 45.0749H51.9404V38.0723Z" fill="url(#paint9_linear_3538_148657)"/>
<path d="M52.1859 20.3097C52.1859 19.2467 51.3241 18.3849 50.2611 18.3849H48.8776C47.8146 18.3849 46.9529 19.2467 46.9529 20.3097V49.1471C46.9529 50.2101 47.8146 51.0719 48.8776 51.0719H50.2611C51.3241 51.0719 52.1859 50.2101 52.1859 49.1471V20.3097Z" fill="url(#paint10_linear_3538_148657)" stroke="#BFC4CA" stroke-width="0.769886"/>
<path d="M125.298 42.2337H118.986C118.325 45.6917 115.622 48.2811 112.388 48.2811H101.513V21.0488H112.388C115.718 21.0488 118.485 23.7945 119.04 27.407H125.298C126.79 27.407 127.999 28.7848 127.999 30.4845V38.8974V39.0268V39.1562C127.999 40.8558 126.79 42.2337 125.298 42.2337Z" fill="url(#paint11_linear_3538_148657)"/>
<path d="M100.813 20.3097C100.813 19.2467 101.675 18.3849 102.738 18.3849H104.122C105.185 18.3849 106.046 19.2467 106.046 20.3097V49.1471C106.046 50.2101 105.185 51.0719 104.122 51.0719H102.738C101.675 51.0719 100.813 50.2101 100.813 49.1471V20.3097Z" fill="url(#paint12_linear_3538_148657)" stroke="#C2EECD" stroke-width="0.769886"/>
<path d="M44 8C44.6465 8 45.2867 7.79307 45.884 7.39104C46.4813 6.989 47.024 6.39972 47.4812 5.65685C47.9383 4.91399 48.3009 4.03207 48.5483 3.06147C48.7958 2.09086 48.9231 1.05058 48.9231 0L44 1.72661e-08L44 8Z" fill="#FFE580"/>
<path d="M80 44.5C80.5253 44.5 81.0454 44.6682 81.5307 44.9948C82.016 45.3215 82.457 45.8002 82.8284 46.4038C83.1999 47.0074 83.4945 47.724 83.6955 48.5126C83.8965 49.3012 84 50.1464 84 51L80 51L80 44.5Z" fill="#FD9491"/>
<path fill-rule="evenodd" clip-rule="evenodd" d="M81.0002 30.1743V30.1746L80.2305 31.1692C79.1625 32.5462 78.287 32.1747 78.287 30.3386V22.4696H75.3141C73.9672 22.4696 73.592 21.5297 74.4867 20.3821L80.9999 11.9671V11.9667L81.7695 10.9722C82.8375 9.59512 83.713 9.96671 83.713 11.8028V19.6718H86.6859C88.0328 19.6718 88.4081 20.6117 87.5133 21.7592L81.0002 30.1743Z" fill="#FFCC02"/>
<path d="M81.0002 30.1743L80.6736 29.9215L80.5873 30.0331V30.1743H81.0002ZM81.0002 30.1746L81.3267 30.4273L81.4131 30.3157V30.1746H81.0002ZM80.2305 31.1692L80.5568 31.4222L80.557 31.4219L80.2305 31.1692ZM78.287 22.4696H78.6999V22.0567H78.287V22.4696ZM74.4867 20.3821L74.8123 20.636L74.8132 20.6349L74.4867 20.3821ZM80.9999 11.9671L81.3264 12.2198L81.4128 12.1082V11.9671H80.9999ZM80.9999 11.9667L80.6733 11.714L80.587 11.8256V11.9667H80.9999ZM81.7695 10.9722L81.4433 10.7192L81.443 10.7195L81.7695 10.9722ZM83.713 19.6718H83.3001V20.0847H83.713V19.6718ZM87.5133 21.7592L87.1877 21.5053L87.1868 21.5065L87.5133 21.7592ZM80.5873 30.1743V30.1746H81.4131V30.1743H80.5873ZM80.6736 29.9219L79.904 30.9165L80.557 31.4219L81.3267 30.4273L80.6736 29.9219ZM79.9042 30.9161C79.6555 31.2369 79.4403 31.4254 79.2745 31.5183C79.1119 31.6094 79.0406 31.5877 79.0203 31.579C78.9899 31.5661 78.9065 31.5098 78.8285 31.2955C78.752 31.085 78.6999 30.7698 78.6999 30.3386H77.8741C77.8741 30.8253 77.9315 31.2451 78.0525 31.5777C78.1721 31.9065 78.3743 32.2013 78.6963 32.3386C79.0284 32.4802 79.3761 32.4079 79.6781 32.2388C79.9768 32.0714 80.2715 31.79 80.5568 31.4222L79.9042 30.9161ZM78.6999 30.3386V22.4696H77.8741V30.3386H78.6999ZM78.287 22.0567H75.3141V22.8825H78.287V22.0567ZM75.3141 22.0567C74.7154 22.0567 74.5026 21.8525 74.4435 21.7038C74.3742 21.5293 74.3987 21.1665 74.8123 20.636L74.1611 20.1283C73.68 20.7453 73.4447 21.4263 73.6761 22.0086C73.9176 22.6167 74.5659 22.8825 75.3141 22.8825V22.0567ZM74.8132 20.6349L81.3264 12.2198L80.6733 11.7144L74.1602 20.1294L74.8132 20.6349ZM81.4128 11.9671V11.9667H80.587V11.9671H81.4128ZM81.3264 12.2194L82.0961 11.2249L81.443 10.7195L80.6733 11.714L81.3264 12.2194ZM82.0958 11.2252C82.3446 10.9045 82.5597 10.7159 82.7256 10.623C82.8881 10.532 82.9595 10.5537 82.9798 10.5624C83.0101 10.5753 83.0935 10.6316 83.1715 10.8459C83.248 11.0564 83.3001 11.3715 83.3001 11.8028H84.1259C84.1259 11.316 84.0685 10.8962 83.9475 10.5636C83.828 10.2349 83.6257 9.9401 83.3037 9.80277C82.9717 9.66116 82.6239 9.73343 82.3219 9.90261C82.0233 10.07 81.7285 10.3514 81.4433 10.7192L82.0958 11.2252ZM83.3001 11.8028V19.6718H84.1259V11.8028H83.3001ZM83.713 20.0847H86.6859V19.2589H83.713V20.0847ZM86.6859 20.0847C87.2846 20.0847 87.4974 20.2888 87.5565 20.4376C87.6258 20.6121 87.6013 20.9749 87.1877 21.5053L87.8389 22.0131C88.3201 21.396 88.5553 20.7151 88.324 20.1327C88.0824 19.5247 87.4341 19.2589 86.6859 19.2589V20.0847ZM87.1868 21.5065L80.6736 29.9215L81.3267 30.427L87.8398 22.012L87.1868 21.5065Z" fill="#F4C508"/>
<defs>
<filter id="filter0_d_3538_148657" x="6.40708" y="49.3719" width="192.186" height="139.979" filterUnits="userSpaceOnUse" color-interpolation-filters="sRGB">
<feFlood flood-opacity="0" result="BackgroundImageFix"/>
<feColorMatrix in="SourceAlpha" type="matrix" values="0 0 0 0 0 0 0 0 0 0 0 0 0 0 0 0 0 0 127 0" result="hardAlpha"/>
<feOffset dx="7.56637" dy="7.56637"/>
<feGaussianBlur stdDeviation="9.07965"/>
<feComposite in2="hardAlpha" operator="out"/>
<feColorMatrix type="matrix" values="0 0 0 0 0.415686 0 0 0 0 0.454902 0 0 0 0 0.513726 0 0 0 0.2 0"/>
<feBlend mode="normal" in2="BackgroundImageFix" result="effect1_dropShadow_3538_148657"/>
<feBlend mode="normal" in="SourceGraphic" in2="effect1_dropShadow_3538_148657" result="shape"/>
</filter>
<linearGradient id="paint0_linear_3538_148657" x1="5" y1="40" x2="18" y2="115" gradientUnits="userSpaceOnUse">
<stop stop-color="#70D78B"/>
<stop offset="1" stop-color="#C2EECD"/>
</linearGradient>
<linearGradient id="paint1_linear_3538_148657" x1="70.9241" y1="58.154" x2="-5.65015" y2="67.2708" gradientUnits="userSpaceOnUse">
<stop stop-color="#959CA6"/>
<stop offset="1" stop-color="#EBEBEB"/>
</linearGradient>
<linearGradient id="paint2_linear_3538_148657" x1="141" y1="40" x2="128" y2="115" gradientUnits="userSpaceOnUse">
<stop stop-color="#70D78B"/>
<stop offset="1" stop-color="#C2EECD"/>
</linearGradient>
<linearGradient id="paint3_linear_3538_148657" x1="76.0177" y1="83.0428" x2="137.305" y2="83.0428" gradientUnits="userSpaceOnUse">
<stop stop-color="#BFC4CA"/>
<stop offset="1" stop-color="#EAEBED"/>
</linearGradient>
<linearGradient id="paint4_linear_3538_148657" x1="34" y1="131.378" x2="129" y2="131.378" gradientUnits="userSpaceOnUse">
<stop stop-color="#EAEBED"/>
<stop offset="1" stop-color="#F4F5F6"/>
</linearGradient>
<linearGradient id="paint5_linear_3538_148657" x1="191" y1="112" x2="108.5" y2="148" gradientUnits="userSpaceOnUse">
<stop stop-color="#EAEBED"/>
<stop offset="1" stop-color="#BFC4CA"/>
</linearGradient>
<linearGradient id="paint6_linear_3538_148657" x1="56.1804" y1="29.1326" x2="20.3807" y2="34.9068" gradientUnits="userSpaceOnUse">
<stop stop-color="#959CA6"/>
<stop offset="1" stop-color="#EBEBEB"/>
</linearGradient>
<linearGradient id="paint7_linear_3538_148657" x1="52.5" y1="25.5001" x2="59.5617" y2="29.388" gradientUnits="userSpaceOnUse">
<stop stop-color="#BFC4CA"/>
<stop offset="1" stop-color="#EBEBEB"/>
</linearGradient>
<linearGradient id="paint8_linear_3538_148657" x1="60.0064" y1="41.8496" x2="51.5619" y2="42.1461" gradientUnits="userSpaceOnUse">
<stop stop-color="#B0C1FF"/>
<stop offset="1" stop-color="#CFDAFF"/>
</linearGradient>
<linearGradient id="paint9_linear_3538_148657" x1="50.5" y1="39.4991" x2="59.577" y2="44.355" gradientUnits="userSpaceOnUse">
<stop stop-color="#BFC4CA"/>
<stop offset="1" stop-color="#EBEBEB"/>
</linearGradient>
<linearGradient id="paint10_linear_3538_148657" x1="49.6364" y1="18.7385" x2="57.1335" y2="49.2304" gradientUnits="userSpaceOnUse">
<stop stop-color="#BFC4CA"/>
<stop offset="1" stop-color="#EBEBEB"/>
</linearGradient>
<linearGradient id="paint11_linear_3538_148657" x1="103.499" y1="29.0007" x2="130.744" y2="36.174" gradientUnits="userSpaceOnUse">
<stop stop-color="#33C659"/>
<stop offset="1" stop-color="#C2EECD"/>
</linearGradient>
<linearGradient id="paint12_linear_3538_148657" x1="102.499" y1="19" x2="91.5151" y2="25.0467" gradientUnits="userSpaceOnUse">
<stop stop-color="#33C659"/>
<stop offset="1" stop-color="#C2EECD"/>
</linearGradient>
</defs>
</svg>
