<svg width="130" height="124" viewBox="0 0 130 124" fill="none" xmlns="http://www.w3.org/2000/svg">
<path d="M15.8505 20.8125H8.82314C5.86842 20.8125 3.47314 23.2078 3.47314 26.1625V61.846C3.47314 64.8007 5.86842 67.196 8.82314 67.196H36.7741" stroke="#D0D0D0" stroke-width="3.57"/>
<path d="M15.8505 20.8125H8.82314C5.86842 20.8125 3.47314 23.2078 3.47314 26.1625V61.846C3.47314 64.8007 5.86842 67.196 8.82314 67.196H36.7741" stroke="url(#paint0_linear_11489_109946)" stroke-width="3.57"/>
<path d="M71.9698 20.8125H78.9952C81.951 20.8125 84.3472 23.2086 84.3472 26.1644V61.8441C84.3472 64.7999 81.951 67.196 78.9952 67.196H51.0462" stroke="#D0D0D0" stroke-width="3.56796"/>
<path d="M71.9698 20.8125H78.9952C81.951 20.8125 84.3472 23.2086 84.3472 26.1644V61.8441C84.3472 64.7999 81.951 67.196 78.9952 67.196H51.0462" stroke="url(#paint1_linear_11489_109946)" stroke-width="3.56796"/>
<g filter="url(#filter0_d_11489_109946)">
<rect x="10.6094" y="35.6582" width="92.6881" height="61.6421" rx="13.6195" fill="#1F1F1F"/>
</g>
<circle cx="30.0536" cy="53.3031" r="10.4457" fill="#404040"/>
<circle cx="30.1519" cy="50.398" r="2.64406" fill="#ADADAD"/>
<ellipse cx="30.1516" cy="56.8609" rx="4.99434" ry="2.64406" fill="#ADADAD"/>
<rect x="45.7046" y="47.8066" width="36.4453" height="3.14959" rx="1.5748" fill="url(#paint2_linear_11489_109946)"/>
<rect x="45.7046" y="54.5566" width="17.5477" height="3.14959" rx="1.5748" fill="#404040"/>
<rect opacity="0.6" x="20.7183" y="67.791" width="56.4927" height="20.2184" rx="6.80973" fill="url(#paint3_linear_11489_109946)"/>
<path d="M61.75 77.3054C61.75 71.3939 66.5423 66.6016 72.4539 66.6016H112.296C118.208 66.6016 123 71.3939 123 77.3054C123 83.217 118.208 88.0093 112.296 88.0093H72.4539C66.5423 88.0093 61.75 83.217 61.75 77.3054Z" fill="url(#paint4_linear_11489_109946)"/>
<path d="M82.3554 73.9546V79.7656H81.1898V73.9546H82.3554ZM86.0628 75.0868C86.6122 75.0868 87.0562 75.2617 87.3948 75.6113C87.7334 75.9554 87.9026 76.4383 87.9026 77.0599V79.7656H86.7371V77.2181C86.7371 76.8518 86.6455 76.5715 86.4624 76.3773C86.2792 76.1774 86.0295 76.0775 85.7131 76.0775C85.3912 76.0775 85.1359 76.1774 84.9472 76.3773C84.764 76.5715 84.6724 76.8518 84.6724 77.2181V79.7656H83.5069V75.1534H84.6724V75.7279C84.8278 75.5281 85.0249 75.3727 85.2635 75.2617C85.5077 75.1451 85.7742 75.0868 86.0628 75.0868ZM88.7113 77.4429C88.7113 76.9767 88.8029 76.5632 88.986 76.2024C89.1747 75.8417 89.4273 75.5642 89.7436 75.3699C90.0655 75.1756 90.4235 75.0785 90.8176 75.0785C91.1617 75.0785 91.4614 75.1479 91.7167 75.2866C91.9776 75.4254 92.1857 75.6002 92.3411 75.8111V75.1534H93.515V79.7656H92.3411V79.0913C92.1912 79.3077 91.9831 79.4881 91.7167 79.6324C91.4558 79.7712 91.1534 79.8406 90.8093 79.8406C90.4207 79.8406 90.0655 79.7406 89.7436 79.5408C89.4273 79.341 89.1747 79.0608 88.986 78.7C88.8029 78.3337 88.7113 77.9146 88.7113 77.4429ZM92.3411 77.4595C92.3411 77.1765 92.2856 76.935 92.1746 76.7352C92.0636 76.5299 91.9137 76.3745 91.725 76.269C91.5363 76.158 91.3337 76.1025 91.1173 76.1025C90.9008 76.1025 90.701 76.1552 90.5179 76.2607C90.3347 76.3662 90.1849 76.5216 90.0683 76.7269C89.9573 76.9267 89.9018 77.1654 89.9018 77.4429C89.9018 77.7204 89.9573 77.9646 90.0683 78.1755C90.1849 78.3809 90.3347 78.539 90.5179 78.65C90.7066 78.761 90.9064 78.8165 91.1173 78.8165C91.3337 78.8165 91.5363 78.7638 91.725 78.6584C91.9137 78.5474 92.0636 78.392 92.1746 78.1922C92.2856 77.9868 92.3411 77.7426 92.3411 77.4595ZM94.3536 77.4595C94.3536 76.9822 94.4507 76.566 94.645 76.2107C94.8392 75.85 95.1084 75.5725 95.4525 75.3782C95.7966 75.1784 96.1907 75.0785 96.6347 75.0785C97.2064 75.0785 97.6781 75.2228 98.05 75.5114C98.4274 75.7945 98.6799 76.1941 98.8076 76.7103H97.5505C97.4839 76.5105 97.3701 76.3551 97.2092 76.244C97.0537 76.1275 96.8595 76.0692 96.6264 76.0692C96.2934 76.0692 96.0297 76.1913 95.8355 76.4355C95.6412 76.6742 95.5441 77.0155 95.5441 77.4595C95.5441 77.898 95.6412 78.2393 95.8355 78.4835C96.0297 78.7222 96.2934 78.8415 96.6264 78.8415C97.0982 78.8415 97.4062 78.6306 97.5505 78.2088H98.8076C98.6799 78.7083 98.4274 79.1052 98.05 79.3993C97.6726 79.6935 97.2008 79.8406 96.6347 79.8406C96.1907 79.8406 95.7966 79.7434 95.4525 79.5492C95.1084 79.3494 94.8392 79.0719 94.645 78.7166C94.4507 78.3559 94.3536 77.9368 94.3536 77.4595ZM101.018 76.1108V78.342C101.018 78.4974 101.055 78.6112 101.127 78.6833C101.204 78.7499 101.332 78.7832 101.51 78.7832H102.051V79.7656H101.318C100.336 79.7656 99.8446 79.2883 99.8446 78.3337V76.1108H99.2951V75.1534H99.8446V74.0129H101.018V75.1534H102.051V76.1108H101.018ZM103.48 74.604C103.275 74.604 103.103 74.5401 102.964 74.4125C102.831 74.2793 102.764 74.1156 102.764 73.9213C102.764 73.727 102.831 73.5661 102.964 73.4384C103.103 73.3052 103.275 73.2386 103.48 73.2386C103.686 73.2386 103.855 73.3052 103.988 73.4384C104.127 73.5661 104.196 73.727 104.196 73.9213C104.196 74.1156 104.127 74.2793 103.988 74.4125C103.855 74.5401 103.686 74.604 103.48 74.604ZM104.055 75.1534V79.7656H102.889V75.1534H104.055ZM107.129 78.6917L108.295 75.1534H109.535L107.829 79.7656H106.413L104.715 75.1534H105.964L107.129 78.6917ZM114.477 77.3596C114.477 77.5261 114.466 77.676 114.444 77.8092H111.072C111.1 78.1422 111.217 78.4031 111.422 78.5918C111.627 78.7805 111.88 78.8748 112.18 78.8748C112.613 78.8748 112.921 78.6889 113.104 78.317H114.361C114.228 78.761 113.972 79.1274 113.595 79.416C113.218 79.699 112.754 79.8406 112.205 79.8406C111.761 79.8406 111.361 79.7434 111.006 79.5492C110.656 79.3494 110.381 79.0691 110.182 78.7083C109.987 78.3476 109.89 77.9313 109.89 77.4595C109.89 76.9822 109.987 76.5632 110.182 76.2024C110.376 75.8417 110.648 75.5642 110.998 75.3699C111.347 75.1756 111.75 75.0785 112.205 75.0785C112.643 75.0785 113.034 75.1729 113.379 75.3616C113.728 75.5503 113.997 75.8195 114.186 76.1691C114.38 76.5132 114.477 76.9101 114.477 77.3596ZM113.27 77.0266C113.265 76.7269 113.157 76.4883 112.946 76.3106C112.735 76.1275 112.477 76.0359 112.171 76.0359C111.883 76.0359 111.639 76.1247 111.439 76.3023C111.244 76.4744 111.125 76.7158 111.081 77.0266H113.27Z" fill="#ADADAD"/>
<circle cx="73.3458" cy="77.6036" r="3.86529" fill="#ADADAD"/>
<path d="M16.9054 25.1528H20.6434C21.0352 27.2121 22.6359 28.7541 24.551 28.7541H30.9919V12.5371H24.551C22.579 12.5371 20.9403 14.1722 20.6116 16.3234H16.9054C16.0219 16.3234 15.3057 17.1439 15.3057 18.1561V23.166V23.2431V23.3201C15.3057 24.3323 16.0219 25.1528 16.9054 25.1528Z" fill="url(#paint5_linear_11489_109946)"/>
<path d="M31.2607 14.4277H33.9484C35.0999 14.4277 36.0334 15.3612 36.0334 16.5128C36.0334 17.6643 35.0999 18.5978 33.9484 18.5978H31.2607V14.4277Z" fill="url(#paint6_linear_11489_109946)"/>
<path d="M31.2607 22.6738H33.9484C35.0999 22.6738 36.0334 23.6073 36.0334 24.7589C36.0334 25.9104 35.0999 26.8439 33.9484 26.8439H31.2607V22.6738Z" fill="url(#paint7_linear_11489_109946)"/>
<path d="M31.2488 12.4983C31.2488 11.7291 30.6254 11.1056 29.8562 11.1056C29.0871 11.1056 28.4636 11.7291 28.4636 12.4983V28.8669C28.4636 29.636 29.0871 30.2595 29.8562 30.2595C30.6254 30.2595 31.2488 29.636 31.2488 28.8669V12.4983Z" fill="url(#paint8_linear_11489_109946)" stroke="#404040" stroke-width="0.769886"/>
<path d="M74.7059 25.1528H70.968C70.5761 27.2121 68.9754 28.7541 67.0603 28.7541H60.6194V12.5371H67.0603C69.0323 12.5371 70.671 14.1722 70.9997 16.3234H74.7059C75.5894 16.3234 76.3057 17.1439 76.3057 18.1561V23.166V23.2431V23.3201C76.3057 24.3323 75.5894 25.1528 74.7059 25.1528Z" fill="url(#paint9_linear_11489_109946)"/>
<path d="M60.3625 12.4983C60.3625 11.7291 60.986 11.1056 61.7551 11.1056C62.5242 11.1056 63.1477 11.7291 63.1477 12.4983V28.8669C63.1477 29.636 62.5242 30.2595 61.7551 30.2595C60.986 30.2595 60.3625 29.636 60.3625 28.8669V12.4983Z" fill="url(#paint10_linear_11489_109946)" stroke="#449C47" stroke-width="0.769886"/>
<path d="M26.558 4.76405C26.9409 4.76405 27.32 4.64082 27.6738 4.4014C28.0275 4.16199 28.3489 3.81107 28.6197 3.36869C28.8904 2.92631 29.1052 2.40112 29.2517 1.82312C29.3982 1.24512 29.4736 0.625623 29.4736 0L26.558 1.05631e-08L26.558 4.76405Z" fill="#B88A00"/>
<path d="M47.8786 26.5003C48.1897 26.5003 48.4978 26.6004 48.7852 26.795C49.0726 26.9895 49.3337 27.2746 49.5537 27.634C49.7737 27.9935 49.9482 28.4202 50.0672 28.8898C50.1863 29.3594 50.2476 29.8628 50.2476 30.3711L47.8786 30.3711L47.8786 26.5003Z" fill="#F50000"/>
<path fill-rule="evenodd" clip-rule="evenodd" d="M48.4709 17.9672V17.9675L48.0151 18.5598C47.3826 19.3798 46.8641 19.1585 46.8641 18.0651V13.3791H45.1035C44.3058 13.3791 44.0835 12.8194 44.6134 12.136L48.4707 7.12492V7.12457L48.9265 6.53231C49.559 5.71226 50.0775 5.93354 50.0775 7.02695V11.713H51.8381C52.6358 11.713 52.8581 12.2727 52.3282 12.9561L48.4709 17.9672Z" fill="#B88A00"/>
<path d="M48.4709 17.9672L48.2764 17.8174L48.2254 17.8836V17.9672H48.4709ZM48.4709 17.9675L48.6655 18.1173L48.7165 18.0511V17.9675H48.4709ZM48.0151 18.5598L48.2095 18.7097L48.2097 18.7095L48.0151 18.5598ZM46.8641 13.3791H47.1096V13.1336H46.8641V13.3791ZM44.6134 12.136L44.8075 12.2865L44.808 12.2858L44.6134 12.136ZM48.4707 7.12492L48.6652 7.27469L48.7162 7.20848V7.12492H48.4707ZM48.4707 7.12457L48.2761 6.97482L48.2251 7.04103V7.12457H48.4707ZM48.9265 6.53231L48.7321 6.38236L48.7319 6.38256L48.9265 6.53231ZM50.0775 11.713H49.832V11.9585H50.0775V11.713ZM52.3282 12.9561L52.1341 12.8056L52.1336 12.8063L52.3282 12.9561ZM48.2254 17.9672V17.9675H48.7165V17.9672H48.2254ZM48.2764 17.8178L47.8205 18.41L48.2097 18.7095L48.6655 18.1173L48.2764 17.8178ZM47.8207 18.4098C47.6733 18.6009 47.5459 18.7131 47.4479 18.7683C47.3519 18.8224 47.3104 18.8092 47.2992 18.8043C47.2817 18.7968 47.2322 18.7635 47.1859 18.6355C47.1405 18.51 47.1096 18.3221 47.1096 18.0651H46.6186C46.6186 18.3549 46.6526 18.6047 46.7241 18.8026C46.7948 18.9979 46.9145 19.1737 47.1057 19.2557C47.3031 19.3403 47.5099 19.297 47.6889 19.1961C47.866 19.0964 48.0406 18.9287 48.2095 18.7097L47.8207 18.4098ZM47.1096 18.0651V13.3791H46.6186V18.0651H47.1096ZM46.8641 13.1336H45.1035V13.6247H46.8641V13.1336ZM45.1035 13.1336C44.7498 13.1336 44.6241 13.0125 44.589 12.9236C44.5476 12.8189 44.5626 12.6023 44.8075 12.2865L44.4194 11.9856C44.1344 12.3532 43.9956 12.7581 44.1322 13.1041C44.2752 13.4659 44.6594 13.6247 45.1035 13.6247V13.1336ZM44.808 12.2858L48.6652 7.27469L48.2761 6.97516L44.4189 11.9863L44.808 12.2858ZM48.7162 7.12492V7.12457H48.2251V7.12492H48.7162ZM48.6653 7.27433L49.1211 6.68207L48.7319 6.38256L48.2761 6.97482L48.6653 7.27433ZM49.1209 6.68226C49.2683 6.4912 49.3957 6.37902 49.4937 6.3238C49.5897 6.2697 49.6312 6.28294 49.6424 6.28774C49.6599 6.29525 49.7094 6.32859 49.7557 6.45659C49.8011 6.58211 49.832 6.77 49.832 7.02695H50.323C50.323 6.73719 50.2891 6.4874 50.2175 6.28954C50.1468 6.09415 50.0271 5.91841 49.8359 5.83643C49.6385 5.75174 49.4317 5.79508 49.2527 5.89596C49.0756 5.99572 48.901 6.1634 48.7321 6.38236L49.1209 6.68226ZM49.832 7.02695V11.713H50.323V7.02695H49.832ZM50.0775 11.9585H51.8381V11.4674H50.0775V11.9585ZM51.8381 11.9585C52.1918 11.9585 52.3175 12.0796 52.3526 12.1685C52.394 12.2732 52.379 12.4898 52.1341 12.8056L52.5222 13.1065C52.8072 12.7389 52.946 12.334 52.8094 11.988C52.6664 11.6262 52.2822 11.4674 51.8381 11.4674V11.9585ZM52.1336 12.8063L48.2764 17.8174L48.6655 18.1169L52.5227 13.1058L52.1336 12.8063Z" fill="#B88A00"/>
<defs>
<filter id="filter0_d_11489_109946" x="0.0164542" y="25.0653" width="129.007" height="97.9612" filterUnits="userSpaceOnUse" color-interpolation-filters="sRGB">
<feFlood flood-opacity="0" result="BackgroundImageFix"/>
<feColorMatrix in="SourceAlpha" type="matrix" values="0 0 0 0 0 0 0 0 0 0 0 0 0 0 0 0 0 0 127 0" result="hardAlpha"/>
<feOffset dx="7.56637" dy="7.56637"/>
<feGaussianBlur stdDeviation="9.07965"/>
<feComposite in2="hardAlpha" operator="out"/>
<feColorMatrix type="matrix" values="0 0 0 0 0.415686 0 0 0 0 0.454902 0 0 0 0 0.513726 0 0 0 0.2 0"/>
<feBlend mode="normal" in2="BackgroundImageFix" result="effect1_dropShadow_11489_109946"/>
<feBlend mode="normal" in="SourceGraphic" in2="effect1_dropShadow_11489_109946" result="shape"/>
</filter>
<linearGradient id="paint0_linear_11489_109946" x1="42.6756" y1="34.5813" x2="-2.86008" y2="40.0027" gradientUnits="userSpaceOnUse">
<stop stop-color="#D0D0D0"/>
<stop offset="1" stop-color="#404040"/>
</linearGradient>
<linearGradient id="paint1_linear_11489_109946" x1="84.3472" y1="23.7858" x2="76.6166" y2="68.3853" gradientUnits="userSpaceOnUse">
<stop stop-color="#228B22"/>
<stop offset="1" stop-color="#D0D0D0"/>
</linearGradient>
<linearGradient id="paint2_linear_11489_109946" x1="45.7046" y1="49.3814" x2="82.1499" y2="49.3814" gradientUnits="userSpaceOnUse">
<stop stop-color="#404040"/>
<stop offset="1" stop-color="#ADADAD"/>
</linearGradient>
<linearGradient id="paint3_linear_11489_109946" x1="20.7183" y1="78.1249" x2="77.211" y2="78.1249" gradientUnits="userSpaceOnUse">
<stop stop-color="#292929"/>
<stop offset="1" stop-color="#404040"/>
</linearGradient>
<linearGradient id="paint4_linear_11489_109946" x1="114.08" y1="66.6016" x2="65.0206" y2="88.0093" gradientUnits="userSpaceOnUse">
<stop stop-color="#292929"/>
<stop offset="1" stop-color="#404040"/>
</linearGradient>
<linearGradient id="paint5_linear_11489_109946" x1="33.7717" y1="17.3511" x2="12.5641" y2="20.7529" gradientUnits="userSpaceOnUse">
<stop stop-color="#ADADAD"/>
<stop offset="1" stop-color="#404040"/>
</linearGradient>
<linearGradient id="paint6_linear_11489_109946" x1="31.5921" y1="15.1873" x2="35.785" y2="17.483" gradientUnits="userSpaceOnUse">
<stop stop-color="#ADADAD"/>
<stop offset="1" stop-color="#404040"/>
</linearGradient>
<linearGradient id="paint7_linear_11489_109946" x1="31.5921" y1="23.4334" x2="35.785" y2="25.7291" gradientUnits="userSpaceOnUse">
<stop stop-color="#ADADAD"/>
<stop offset="1" stop-color="#404040"/>
</linearGradient>
<linearGradient id="paint8_linear_11489_109946" x1="29.8959" y1="11.1605" x2="34.3823" y2="29.3071" gradientUnits="userSpaceOnUse">
<stop stop-color="#404040"/>
<stop offset="1" stop-color="#ADADAD"/>
</linearGradient>
<linearGradient id="paint9_linear_11489_109946" x1="61.796" y1="17.2725" x2="77.9424" y2="21.5004" gradientUnits="userSpaceOnUse">
<stop stop-color="#082108"/>
<stop offset="1" stop-color="#449C47"/>
</linearGradient>
<linearGradient id="paint10_linear_11489_109946" x1="61.2039" y1="11.3162" x2="54.6821" y2="14.8867" gradientUnits="userSpaceOnUse">
<stop stop-color="#0C1C0D"/>
<stop offset="1" stop-color="#449C47"/>
</linearGradient>
</defs>
</svg>
