<svg width="20" height="20" viewBox="0 0 20 20" fill="none" xmlns="http://www.w3.org/2000/svg">
<path fill-rule="evenodd" clip-rule="evenodd" d="M18.9595 10.0007C18.9595 14.9423 14.9428 18.959 10.0011 18.959C5.05947 18.959 1.0428 14.9423 1.0428 10.0007C1.0428 5.05898 5.05947 1.04232 10.0011 1.04232C14.9428 1.04232 18.9595 5.05898 18.9595 10.0007ZM17.7095 10.0007C17.7095 5.75065 14.2511 2.29232 10.0011 2.29232C5.75114 2.29232 2.2928 5.75065 2.2928 10.0007C2.2928 14.2507 5.75114 17.709 10.0011 17.709C14.2511 17.709 17.7095 14.2507 17.7095 10.0007Z" fill="#436AF5"/>
<path d="M10.625 7.08398V12.084C10.625 12.4257 10.3417 12.709 10 12.709C9.65833 12.709 9.375 12.4257 9.375 12.084V7.08398C9.375 6.74232 9.65833 6.45898 10 6.45898C10.3417 6.45898 10.625 6.74232 10.625 7.08398Z" fill="#436AF5"/>
<path d="M7.94082 9.97643L9.99915 12.0348L12.0575 9.97643C12.2992 9.73477 12.6992 9.73477 12.9408 9.97643C13.1825 10.2181 13.1825 10.6181 12.9408 10.8598L10.4408 13.3598C10.1992 13.6014 9.79915 13.6014 9.55749 13.3598L7.05749 10.8598C6.81582 10.6181 6.81582 10.2181 7.05749 9.97643C7.18249 9.85143 7.34082 9.7931 7.49915 9.7931C7.65749 9.7931 7.81582 9.85143 7.94082 9.97643Z" fill="#436AF5"/>
</svg>
