<svg width="14" height="14" viewBox="0 0 14 14" fill="none" xmlns="http://www.w3.org/2000/svg">
<path fill-rule="evenodd" clip-rule="evenodd" d="M13.2715 7.0026C13.2715 10.4618 10.4598 13.2734 7.00065 13.2734C3.54148 13.2734 0.729816 10.4618 0.729816 7.0026C0.729816 3.54344 3.54148 0.73177 7.00065 0.73177C10.4598 0.73177 13.2715 3.54344 13.2715 7.0026ZM12.3965 7.0026C12.3965 4.0276 9.97565 1.60677 7.00065 1.60677C4.02565 1.60677 1.60482 4.0276 1.60482 7.0026C1.60482 9.9776 4.02565 12.3984 7.00065 12.3984C9.97565 12.3984 12.3965 9.9776 12.3965 7.0026Z" fill="#436AF5"/>
<path d="M7.4375 4.96094L7.4375 8.46094C7.4375 8.7001 7.23917 8.89844 7 8.89844C6.76083 8.89844 6.5625 8.7001 6.5625 8.46094V4.96094C6.5625 4.72177 6.76083 4.52344 7 4.52344C7.23917 4.52344 7.4375 4.72177 7.4375 4.96094Z" fill="#436AF5"/>
<path d="M5.55867 6.98135L6.99951 8.42219L8.44034 6.98135C8.60951 6.81219 8.88951 6.81219 9.05867 6.98135C9.22784 7.15052 9.22784 7.43052 9.05867 7.59969L7.30867 9.34969C7.13951 9.51885 6.85951 9.51885 6.69034 9.34969L4.94034 7.59969C4.77117 7.43052 4.77117 7.15052 4.94034 6.98135C5.02784 6.89385 5.13867 6.85302 5.24951 6.85302C5.36034 6.85302 5.47117 6.89385 5.55867 6.98135Z" fill="#436AF5"/>
</svg>
