<svg width="14" height="14" viewBox="0 0 14 14" fill="none" xmlns="http://www.w3.org/2000/svg">
<path fill-rule="evenodd" clip-rule="evenodd" d="M4.08268 12.3932C1.95352 12.3932 0.728516 11.1682 0.728516 9.03906V4.95573C0.728516 2.82656 1.95352 1.60156 4.08268 1.60156H9.91602C12.0452 1.60156 13.2702 2.82656 13.2702 4.95573V9.03906C13.2702 11.1682 12.0452 12.3932 9.91602 12.3932H4.08268ZM1.60352 4.95573V9.03906C1.60352 10.7074 2.41435 11.5182 4.08268 11.5182H9.91602C11.5843 11.5182 12.3952 10.7074 12.3952 9.03906V4.95573C12.3952 3.2874 11.5843 2.47656 9.91602 2.47656H4.08268C2.41435 2.47656 1.60352 3.2874 1.60352 4.95573Z" fill="#436AF5"/>
<path d="M5.63528 7.04616L3.80944 5.58783C3.62278 5.43616 3.58778 5.16199 3.73945 4.97533C3.89111 4.78866 4.16528 4.75366 4.35195 4.90533L6.17778 6.36366C6.62111 6.7195 7.37361 6.7195 7.81694 6.36366L9.64278 4.90533C9.82944 4.75366 10.1094 4.78283 10.2553 4.97533C10.4069 5.16199 10.3778 5.442 10.1853 5.58783L8.35944 7.04616C7.98611 7.35533 7.49028 7.50699 7.00028 7.50699C6.51028 7.50699 6.01445 7.35533 5.63528 7.04616Z" fill="#436AF5"/>
</svg>
