<svg width="252" height="237" viewBox="0 0 252 237" fill="none" xmlns="http://www.w3.org/2000/svg">
<g clip-path="url(#clip0_4294_26210)">
<rect width="252" height="236" transform="translate(0 0.5)" fill="white"/>
<ellipse cx="202.997" cy="130.844" rx="7.78786" ry="4.72556" transform="rotate(-43.8542 202.997 130.844)" fill="#DCE3E5"/>
<path d="M164.07 99.0437L153.5 87.8621L154.112 88.4742C154.112 88.4742 154.112 86.0263 156.561 83.5776C159.009 81.1289 162.07 81.1289 162.07 81.1289L172.027 91.0863L164.07 99.0437Z" fill="#DCE3E5"/>
<path d="M176.212 54.3651C176.212 76.2846 152.97 99.8418 129.909 99.8418C106.848 99.8418 91.0469 82.4859 91.0469 60.5665C92.7006 31.2134 115.116 15.0898 138.177 15.0898C161.238 15.0898 176.212 32.4457 176.212 54.3651Z" fill="#608080"/>
<path d="M172.906 51.0565C172.906 72.976 149.663 96.5332 126.602 96.5332C103.541 96.5332 87.7402 79.1774 87.7402 57.2579C89.3939 27.9048 111.809 11.7812 134.871 11.7812C157.932 11.7812 172.906 29.1371 172.906 51.0565Z" fill="#DCE3E5"/>
<path d="M166.703 52.7101C166.703 71.9564 147.221 91.1585 127.07 91.1585C106.92 91.1585 93.1133 75.9193 93.1133 56.6729C94.5583 30.8994 114.145 16.7422 134.295 16.7422C155.54 18.3959 166.703 33.4637 166.703 52.7101Z" fill="white"/>
<path d="M134.295 16.7422C147.709 17.7863 157.101 24.1793 162.204 33.5938C156.839 26.4686 148.43 21.7559 137.14 20.877C117.216 20.8771 97.8496 34.8773 96.4209 60.3643C96.421 68.8591 99.1427 76.5628 103.926 82.4912C97.1052 76.2058 93.1133 67.0193 93.1133 56.6729C94.5583 30.8995 114.145 16.7423 134.295 16.7422Z" fill="#AEC2C2"/>
<path d="M134.295 16.7422C146.856 17.7199 155.891 23.3872 161.18 31.834C155.848 27.1055 148.669 24.0539 139.72 23.3574C119.343 23.3574 99.5366 37.6719 98.0752 63.7314C98.0752 69.8588 99.4604 75.5842 101.993 80.5537C96.3567 74.387 93.1133 66.0007 93.1133 56.6729C94.5583 30.8995 114.145 16.7423 134.295 16.7422Z" fill="#608080"/>
<path d="M164.459 101.494L197.513 136.384C197.513 136.384 197.513 132.712 201.186 129.039C204.858 125.366 208.531 125.366 208.531 125.366L175.477 91.6999C174.253 90.4757 170.825 89.0067 166.907 92.9241C162.99 96.8416 163.643 100.269 164.459 101.494Z" fill="#AEC2C2"/>
<path d="M165.474 94.5977C165.4 95.9355 165.758 96.9725 166.151 97.5547L199.013 131.815C197.516 134.353 197.512 136.371 197.512 136.383L164.459 101.493C163.761 100.447 163.184 97.7923 165.474 94.5977Z" fill="#608080"/>
<path d="M41.2037 83.3349C44.5986 101.807 61.4951 117.037 71.0598 123.392C71.7577 123.856 72.1067 124.087 72.5301 124.097C72.9535 124.107 73.3284 123.882 74.0782 123.432L105.079 104.829C106.729 103.839 107.554 103.344 107.616 102.596C107.678 101.849 106.928 101.209 105.427 99.9277C91.8611 88.3503 85.9591 76.2343 84.0373 69.0547C83.5503 67.2353 83.3068 66.3257 82.7323 66.0288C82.1578 65.7319 81.3497 66.0317 79.7336 66.6312L43.0201 80.2506C41.9678 80.641 41.4416 80.8361 41.1782 81.2995C40.9148 81.7629 41.0111 82.2869 41.2037 83.3349Z" fill="#F3F6F6"/>
<path d="M78.4733 78.926C79.0718 78.7625 79.7085 79.0766 79.9365 79.668C80.1643 80.2594 79.9027 80.9186 79.3492 81.1991L79.2345 81.2498L53.7628 91.0694C53.132 91.3124 52.4242 90.9981 52.181 90.3674C51.938 89.7366 52.2523 89.0288 52.883 88.7856L78.3547 78.966L78.4733 78.926Z" fill="#DCE3E5"/>
<path d="M81.0033 87.476C81.6316 87.2265 82.3435 87.5338 82.593 88.1622C82.8424 88.7906 82.5351 89.5025 81.9067 89.7519L58.8674 98.8986C58.239 99.148 57.5272 98.8407 57.2777 98.2123C57.0283 97.584 57.3356 96.8721 57.964 96.6226L81.0033 87.476Z" fill="#DCE3E5"/>
<path d="M78.8658 98.5394C79.5016 98.3097 80.203 98.6384 80.4329 99.2741C80.6625 99.9098 80.3338 100.611 79.6982 100.841L65.1342 106.103C64.4984 106.332 63.7971 106.004 63.5672 105.368C63.3375 104.732 63.6662 104.031 64.3019 103.801L78.8658 98.5394Z" fill="#DCE3E5"/>
<ellipse cx="198.736" cy="70.2742" rx="4.28476" ry="3.67265" fill="#DCE3E5"/>
<circle cx="62.7664" cy="41.1726" r="3.67265" fill="#DCE3E5"/>
<circle cx="53.6672" cy="133.933" r="2.44843" fill="#DCE3E5"/>
<ellipse cx="125.5" cy="201.5" rx="93.5" ry="9" fill="url(#paint0_linear_4294_26210)" fill-opacity="0.2"/>
<path d="M161.954 122.331C158.474 141.106 139.892 156.996 129.476 163.591C128.835 163.996 128.515 164.199 128.132 164.218C127.748 164.238 127.396 164.062 126.691 163.711L90.6719 145.766C88.7787 144.822 87.8322 144.351 87.7428 143.56C87.6533 142.77 88.4892 142.083 90.161 140.711L90.161 140.711C104.72 128.756 110.97 116.543 113.003 109.159C113.565 107.117 113.847 106.096 114.461 105.81C115.075 105.525 115.956 105.931 117.718 106.743C122.137 108.78 129.433 112.031 135.095 114C143.56 116.945 154.342 118.486 159.442 119.094C160.858 119.263 161.567 119.347 161.942 119.858C162.318 120.368 162.197 121.023 161.954 122.331Z" fill="#F3F6F6"/>
<path d="M119.566 118.547C119.092 118.463 118.639 118.858 118.527 119.475C118.408 120.132 118.722 120.792 119.229 120.95L148.381 130.03C148.888 130.188 149.395 129.783 149.514 129.125C149.634 128.468 149.32 127.808 148.813 127.65L119.661 118.57L119.566 118.547Z" fill="#DCE3E5"/>
<path d="M114.42 126.877C113.947 126.789 113.491 127.179 113.376 127.794C113.253 128.45 113.563 129.114 114.069 129.277L140.447 137.759L140.542 137.782C141.015 137.87 141.47 137.48 141.586 136.865C141.709 136.209 141.399 135.545 140.893 135.382L114.514 126.901L114.42 126.877Z" fill="#DCE3E5"/>
<path d="M109.453 133.356C108.979 133.283 108.531 133.686 108.426 134.304C108.322 134.923 108.598 135.536 109.052 135.732L109.145 135.766L125.801 140.599C126.309 140.747 126.812 140.332 126.923 139.672C127.035 139.012 126.713 138.357 126.204 138.21L109.549 133.377L109.453 133.356Z" fill="#DCE3E5"/>
<path opacity="0.3" d="M159.106 126.244C159.812 126.591 160.166 126.764 160.548 126.743C160.658 126.737 160.763 126.714 160.872 126.677C161.325 125.226 161.694 123.753 161.967 122.262C162.202 120.982 162.319 120.342 161.95 119.835C161.581 119.327 160.893 119.237 159.518 119.055C154.712 118.419 144.859 116.972 138.094 115.002C136.194 114.449 134.125 113.732 132.022 112.939L159.106 126.244Z" fill="#C5D1D3"/>
<mask id="mask0_4294_26210" style="mask-type:alpha" maskUnits="userSpaceOnUse" x="98" y="25" width="68" height="67">
<path d="M100.42 76.5472C104.942 86.0299 112.838 91.627 130.828 91.1289C131.001 91.1241 131.183 91.104 131.354 91.0708C163.496 84.8133 168.568 58.5722 164.036 44.5971C161.764 36.7491 154.31 20.4135 130.227 26.2431C100.123 33.53 94.9046 64.9816 100.42 76.5472Z" fill="#F3F6F6"/>
</mask>
<g mask="url(#mask0_4294_26210)">
<path d="M170.204 59.7603C169.257 80.6372 152.575 99.8673 143.033 108.035C142.448 108.536 142.155 108.786 141.773 108.843C141.391 108.9 141.024 108.739 140.291 108.416L103.04 92.048C101.423 91.3375 100.615 90.9822 100.474 90.306C100.333 89.6299 100.946 88.966 102.172 87.6384C116.091 72.5668 120.823 57.9331 121.75 49.889C121.945 48.1917 122.043 47.343 122.535 46.997C123.026 46.6511 123.797 46.8305 125.338 47.1895L168.186 57.1661C169.186 57.3989 169.686 57.5153 169.979 57.9017C170.271 58.2881 170.249 58.7788 170.204 59.7603Z" fill="#F3F6F6"/>
<path d="M120.088 77.1265C120.274 76.5762 120.845 76.2653 121.4 76.392L121.51 76.4233L137.322 81.7632L137.429 81.8059C137.947 82.0414 138.213 82.6354 138.027 83.1857C137.841 83.736 137.27 84.0468 136.715 83.9202L136.604 83.889L120.793 78.549L120.686 78.5063C120.168 78.2708 119.902 77.6769 120.088 77.1265ZM123.774 69.895C123.96 69.3038 124.59 68.9742 125.181 69.1595L150.85 77.2059L150.957 77.2463C151.48 77.4702 151.759 78.0579 151.585 78.6123C151.411 79.1664 150.847 79.4907 150.291 79.3766L150.179 79.3478L124.51 71.3003C123.919 71.115 123.589 70.4861 123.774 69.895ZM157.118 69.0497L157.226 69.0878C157.752 69.3036 158.04 69.8876 157.875 70.4445C157.71 71.0017 157.151 71.3342 156.592 71.2284L156.48 71.2017L128.568 62.9358L129.206 60.785L157.118 69.0497ZM127.811 61.5421C127.987 60.948 128.611 60.609 129.206 60.785L128.568 62.9358C127.974 62.7598 127.635 62.136 127.811 61.5421Z" fill="#DCE3E5"/>
</g>
<path d="M172.154 191.031C150.29 205.741 118.946 199.483 103.837 195.333L88.1266 188.554L88.1265 188.554C82.6485 186.191 79.9095 185.009 80.0915 184.2C80.2736 183.391 83.3112 183.498 89.3866 183.712L89.3866 183.712C112.806 184.538 128.207 177.955 134.374 173.368C134.869 173 135.117 172.816 135.379 172.783C135.64 172.751 135.909 172.862 136.447 173.085L171.761 187.713C173.178 188.301 173.887 188.594 173.947 189.189C174.006 189.785 173.389 190.2 172.154 191.031Z" fill="#F3F6F6"/>
<path d="M127.369 183.974C127.529 183.54 127.991 183.305 128.429 183.418L128.517 183.445L148.504 190.819L148.588 190.855C148.994 191.054 149.192 191.533 149.032 191.966C148.872 192.401 148.41 192.636 147.971 192.523L147.885 192.496L127.898 185.123L127.814 185.087C127.407 184.888 127.209 184.408 127.369 183.974ZM120.134 186.31C120.294 185.876 120.756 185.641 121.194 185.754L121.282 185.781L131.275 189.468L131.359 189.505C131.766 189.704 131.964 190.182 131.803 190.616C131.633 191.079 131.119 191.316 130.656 191.145L120.663 187.459L120.579 187.423C120.172 187.224 119.973 186.744 120.134 186.31ZM132.727 181.385C132.887 180.952 133.349 180.716 133.788 180.829L133.876 180.856L153.862 188.23L153.946 188.266C154.353 188.465 154.55 188.944 154.39 189.378C154.23 189.812 153.769 190.048 153.33 189.934L153.243 189.907L133.257 182.534L133.173 182.498C132.766 182.299 132.567 181.819 132.727 181.385Z" fill="#DCE3E5"/>
</g>
<defs>
<linearGradient id="paint0_linear_4294_26210" x1="131.468" y1="210.5" x2="131.468" y2="192.5" gradientUnits="userSpaceOnUse">
<stop stop-color="#F9FAFB" stop-opacity="0"/>
<stop offset="0.998768" stop-color="#C4C8CD"/>
</linearGradient>
<clipPath id="clip0_4294_26210">
<rect width="252" height="236" fill="white" transform="translate(0 0.5)"/>
</clipPath>
</defs>
</svg>
