<svg width="20" height="21" viewBox="0 0 20 21" fill="none" xmlns="http://www.w3.org/2000/svg">
<path d="M3.11642 14.9651V6.77907C3.11642 3.49721 4.11363 2.5 7.39549 2.5H12.6048C15.8867 2.5 16.8839 3.49721 16.8839 6.77907V14.2209C16.8839 14.34 16.8839 14.4516 16.8764 14.5707C16.8541 14.8758 16.5787 15.1139 16.2811 15.0916C15.976 15.0693 15.7378 14.8014 15.7601 14.4963C15.7676 14.407 15.7676 14.3102 15.7676 14.2209V6.77907C15.7676 4.12233 15.269 3.61628 12.6048 3.61628H7.39549C4.73131 3.61628 4.2327 4.12233 4.2327 6.77907V14.9651C4.2327 15.2702 3.97968 15.5233 3.67456 15.5233C3.36945 15.5233 3.11642 15.2702 3.11642 14.9651Z" fill="#8F7900"/>
<path fill-rule="evenodd" clip-rule="evenodd" d="M6.27921 18.5C4.53782 18.5 3.11642 17.0786 3.11642 15.3372V14.8535C3.11642 13.3726 4.32201 12.1744 5.79549 12.1744H16.3257C16.6308 12.1744 16.8839 12.4274 16.8839 12.7326V15.3372C16.8839 17.0786 15.4625 18.5 13.7211 18.5H6.27921ZM4.2327 14.8535V15.3372C4.2327 16.4684 5.14805 17.3837 6.27921 17.3837H13.7211C14.8522 17.3837 15.7676 16.4684 15.7676 15.3372V13.2907H5.79549C4.93224 13.2907 4.2327 13.9902 4.2327 14.8535Z" fill="#8F7900"/>
<path d="M7.0234 7.33721C6.71828 7.33721 6.46526 7.08418 6.46526 6.77907C6.46526 6.47395 6.71828 6.22093 7.0234 6.22093H12.9769C13.282 6.22093 13.535 6.47395 13.535 6.77907C13.535 7.08418 13.282 7.33721 12.9769 7.33721H7.0234Z" fill="#8F7900"/>
<path d="M7.0234 9.94186C6.71828 9.94186 6.46526 9.68883 6.46526 9.38372C6.46526 9.0786 6.71828 8.82558 7.0234 8.82558H10.7443C11.0494 8.82558 11.3025 9.0786 11.3025 9.38372C11.3025 9.68883 11.0494 9.94186 10.7443 9.94186H7.0234Z" fill="#8F7900"/>
</svg>
