<svg width="138" height="156" viewBox="0 0 138 156" fill="none" xmlns="http://www.w3.org/2000/svg">
<g opacity="0.5" filter="url(#filter0_d_14062_46102)">
<rect x="23.4609" y="42.4238" width="67.1569" height="76.8367" rx="4" transform="rotate(-16.3629 23.4609 42.4238)" fill="url(#paint0_linear_14062_46102)"/>
</g>
<g filter="url(#filter1_d_14062_46102)">
<rect x="38.3125" y="35.1895" width="74.9305" height="96.1458" rx="4" fill="url(#paint1_linear_14062_46102)"/>
<path d="M82.4942 120.717C82.4942 120.019 83.2615 119.171 83.4959 118.498C83.9979 117.056 84.3235 115.239 84.1266 113.705C84.0947 113.456 83.852 112.374 83.4959 113.071C82.9419 114.154 82.6586 115.48 82.3644 116.651C82.0291 117.987 81.9173 119.79 82.587 121.034C83.1209 122.027 83.5445 120.771 83.8298 120.214C84.0216 119.839 84.5166 118.348 85.0355 118.367C85.6786 118.391 86.579 119.25 87.076 119.617C88.6821 120.801 88.2161 115.371 89.9326 116.707C90.4156 117.083 91.0341 117.812 91.7319 117.621C92.364 117.449 92.5161 116.702 92.9283 116.288C93.4016 115.812 94.5046 115.988 95.0986 116.027C96.3663 116.109 97.1825 116.349 98.2706 115.495C98.9262 114.981 99.798 113.777 100.691 113.677C101.552 113.581 102.407 113.742 102.862 112.828" stroke="#D0D0D0" stroke-width="1.35417" stroke-linecap="round"/>
<rect opacity="0.8" x="46.4375" y="71.752" width="59.1319" height="2.70833" fill="#404040"/>
<rect opacity="0.8" x="46.4375" y="78.0713" width="59.1319" height="2.70833" fill="#404040"/>
<rect opacity="0.8" x="46.4375" y="84.3906" width="59.1319" height="2.70833" fill="#404040"/>
<rect opacity="0.8" x="46.4375" y="90.71" width="59.1319" height="2.70833" fill="#404040"/>
<rect opacity="0.8" x="46.4375" y="97.0293" width="59.1319" height="2.70833" fill="#404040"/>
<rect opacity="0.8" x="46.4375" y="103.35" width="24.375" height="2.70833" fill="#404040"/>
<path d="M55.8873 56.4972C55.8873 56.7003 55.8737 56.883 55.8467 57.0455H51.7344C51.7682 57.4516 51.9104 57.7698 52.1608 57.9999C52.4113 58.2301 52.7193 58.3452 53.0848 58.3452C53.6128 58.3452 53.9885 58.1184 54.2119 57.6649H55.7451C55.5827 58.2064 55.2713 58.6532 54.811 59.0052C54.3507 59.3504 53.7854 59.523 53.1153 59.523C52.5737 59.523 52.0864 59.4046 51.6531 59.1676C51.2267 58.9239 50.8916 58.5821 50.6479 58.1421C50.411 57.7021 50.2925 57.1944 50.2925 56.619C50.2925 56.0369 50.411 55.5258 50.6479 55.0858C50.8848 54.6458 51.2165 54.3073 51.643 54.0704C52.0694 53.8335 52.5602 53.715 53.1153 53.715C53.65 53.715 54.1273 53.8301 54.547 54.0603C54.9734 54.2904 55.3017 54.6187 55.5319 55.0452C55.7688 55.4649 55.8873 55.9489 55.8873 56.4972ZM54.415 56.091C54.4082 55.7255 54.2762 55.4344 54.019 55.2178C53.7617 54.9944 53.447 54.8827 53.0747 54.8827C52.7227 54.8827 52.4248 54.991 52.1811 55.2076C51.9442 55.4175 51.7987 55.7119 51.7445 56.091H54.415ZM61.2504 55.2076V56.4058H56.9452V55.2076H61.2504ZM65.2917 59.5027C64.7976 59.5027 64.3508 59.4181 63.9514 59.2489C63.5588 59.0796 63.2474 58.8359 63.0173 58.5178C62.7871 58.1996 62.6686 57.8239 62.6619 57.3907H64.185C64.2053 57.6818 64.3068 57.9119 64.4896 58.0812C64.6791 58.2504 64.9363 58.335 65.2613 58.335C65.593 58.335 65.8536 58.2572 66.0431 58.1015C66.2326 57.939 66.3274 57.7292 66.3274 57.4719C66.3274 57.2621 66.2631 57.0895 66.1345 56.9541C66.0059 56.8187 65.8434 56.7138 65.6471 56.6393C65.4576 56.5581 65.1936 56.4701 64.8551 56.3753C64.3948 56.2399 64.0191 56.1079 63.728 55.9793C63.4437 55.8439 63.1966 55.6443 62.9868 55.3803C62.7837 55.1095 62.6822 54.7507 62.6822 54.3039C62.6822 53.8843 62.7871 53.5187 62.997 53.2073C63.2068 52.8959 63.5013 52.659 63.8803 52.4966C64.2594 52.3273 64.6926 52.2427 65.18 52.2427C65.9111 52.2427 66.5034 52.4221 66.957 52.7809C67.4173 53.1329 67.6711 53.627 67.7185 54.2633H66.1548C66.1413 54.0196 66.0363 53.8199 65.84 53.6643C65.6505 53.5018 65.3966 53.4206 65.0785 53.4206C64.801 53.4206 64.5776 53.4916 64.4083 53.6338C64.2459 53.7759 64.1646 53.9824 64.1646 54.2532C64.1646 54.4427 64.2256 54.6018 64.3474 54.7304C64.476 54.8523 64.6317 54.9538 64.8145 55.035C65.004 55.1095 65.268 55.1975 65.6065 55.299C66.0668 55.4344 66.4425 55.5698 66.7336 55.7052C67.0246 55.8406 67.2751 56.0436 67.485 56.3144C67.6948 56.5852 67.7997 56.9406 67.7997 57.3806C67.7997 57.7596 67.7016 58.1116 67.5053 58.4366C67.309 58.7615 67.0213 59.0221 66.6422 59.2184C66.2631 59.4079 65.813 59.5027 65.2917 59.5027ZM69.7531 53.1363C69.5026 53.1363 69.2928 53.0584 69.1235 52.9027C68.9611 52.7403 68.8798 52.5406 68.8798 52.3036C68.8798 52.0667 68.9611 51.8704 69.1235 51.7147C69.2928 51.5523 69.5026 51.471 69.7531 51.471C70.0035 51.471 70.21 51.5523 70.3725 51.7147C70.5417 51.8704 70.6263 52.0667 70.6263 52.3036C70.6263 52.5406 70.5417 52.7403 70.3725 52.9027C70.21 53.0584 70.0035 53.1363 69.7531 53.1363ZM70.4537 53.8064V59.4316H69.0321V53.8064H70.4537ZM74.0616 53.715C74.4812 53.715 74.8502 53.7996 75.1683 53.9689C75.4865 54.1313 75.7369 54.3446 75.9197 54.6086V53.8064H77.3514V59.4723C77.3514 59.9935 77.2465 60.4572 77.0366 60.8633C76.8268 61.2763 76.512 61.6012 76.0923 61.8381C75.6726 62.0818 75.1649 62.2036 74.5692 62.2036C73.7705 62.2036 73.1139 62.0175 72.5994 61.6452C72.0917 61.2729 71.804 60.7652 71.7363 60.1221H73.1477C73.2222 60.3793 73.3812 60.5824 73.6249 60.7313C73.8754 60.887 74.1766 60.9649 74.5286 60.9649C74.9416 60.9649 75.2766 60.8396 75.5339 60.5892C75.7911 60.3455 75.9197 59.9732 75.9197 59.4723V58.599C75.7369 58.863 75.4831 59.083 75.1582 59.259C74.84 59.435 74.4745 59.523 74.0616 59.523C73.5877 59.523 73.1545 59.4012 72.7619 59.1575C72.3692 58.9138 72.0579 58.5719 71.8277 58.1319C71.6043 57.6852 71.4926 57.1741 71.4926 56.5987C71.4926 56.0301 71.6043 55.5258 71.8277 55.0858C72.0579 54.6458 72.3659 54.3073 72.7517 54.0704C73.1443 53.8335 73.5809 53.715 74.0616 53.715ZM75.9197 56.619C75.9197 56.2738 75.852 55.9793 75.7166 55.7356C75.5812 55.4852 75.3985 55.2956 75.1683 55.167C74.9382 55.0316 74.6911 54.9639 74.4271 54.9639C74.1631 54.9639 73.9194 55.0283 73.696 55.1569C73.4726 55.2855 73.2899 55.475 73.1477 55.7255C73.0123 55.9692 72.9446 56.2603 72.9446 56.5987C72.9446 56.9372 73.0123 57.235 73.1477 57.4923C73.2899 57.7427 73.4726 57.9356 73.696 58.071C73.9262 58.2064 74.1699 58.2741 74.4271 58.2741C74.6911 58.2741 74.9382 58.2098 75.1683 58.0812C75.3985 57.9458 75.5812 57.7563 75.7166 57.5126C75.852 57.2621 75.9197 56.9643 75.9197 56.619ZM81.857 53.7252C82.5272 53.7252 83.0687 53.9384 83.4816 54.3649C83.8945 54.7846 84.101 55.3735 84.101 56.1316V59.4316H82.6795V56.3246C82.6795 55.8778 82.5678 55.5359 82.3444 55.299C82.121 55.0553 81.8164 54.9335 81.4305 54.9335C81.0379 54.9335 80.7265 55.0553 80.4964 55.299C80.273 55.5359 80.1613 55.8778 80.1613 56.3246V59.4316H78.7398V53.8064H80.1613V54.507C80.3509 54.2633 80.5912 54.0738 80.8822 53.9384C81.1801 53.7963 81.505 53.7252 81.857 53.7252Z" fill="#F0F0F0"/>
</g>
<defs>
<filter id="filter0_d_14062_46102" x="-0.539062" y="-0.495605" width="134.084" height="140.644" filterUnits="userSpaceOnUse" color-interpolation-filters="sRGB">
<feFlood flood-opacity="0" result="BackgroundImageFix"/>
<feColorMatrix in="SourceAlpha" type="matrix" values="0 0 0 0 0 0 0 0 0 0 0 0 0 0 0 0 0 0 127 0" result="hardAlpha"/>
<feOffset/>
<feGaussianBlur stdDeviation="12"/>
<feColorMatrix type="matrix" values="0 0 0 0 0.164706 0 0 0 0 0.223529 0 0 0 0 0.305882 0 0 0 0.12 0"/>
<feBlend mode="normal" in2="BackgroundImageFix" result="effect1_dropShadow_14062_46102"/>
<feBlend mode="normal" in="SourceGraphic" in2="effect1_dropShadow_14062_46102" result="shape"/>
</filter>
<filter id="filter1_d_14062_46102" x="14.3125" y="11.1895" width="122.93" height="144.146" filterUnits="userSpaceOnUse" color-interpolation-filters="sRGB">
<feFlood flood-opacity="0" result="BackgroundImageFix"/>
<feColorMatrix in="SourceAlpha" type="matrix" values="0 0 0 0 0 0 0 0 0 0 0 0 0 0 0 0 0 0 127 0" result="hardAlpha"/>
<feOffset/>
<feGaussianBlur stdDeviation="12"/>
<feColorMatrix type="matrix" values="0 0 0 0 0.164706 0 0 0 0 0.223529 0 0 0 0 0.305882 0 0 0 0.12 0"/>
<feBlend mode="normal" in2="BackgroundImageFix" result="effect1_dropShadow_14062_46102"/>
<feBlend mode="normal" in="SourceGraphic" in2="effect1_dropShadow_14062_46102" result="shape"/>
</filter>
<linearGradient id="paint0_linear_14062_46102" x1="57.0394" y1="42.4238" x2="57.0394" y2="119.261" gradientUnits="userSpaceOnUse">
<stop stop-color="#404040"/>
<stop offset="1" stop-color="#1F1F1F"/>
</linearGradient>
<linearGradient id="paint1_linear_14062_46102" x1="75.7778" y1="35.1895" x2="75.7778" y2="131.335" gradientUnits="userSpaceOnUse">
<stop stop-color="#404040"/>
<stop offset="1" stop-color="#1F1F1F"/>
</linearGradient>
</defs>
</svg>
