<svg width="150" height="156" viewBox="0 0 150 156" fill="none" xmlns="http://www.w3.org/2000/svg">
<g opacity="0.4" filter="url(#filter0_d_3772_159741)">
<rect x="22.4609" y="54.4238" width="67.1569" height="76.8367" rx="4" transform="rotate(-16.3629 22.4609 54.4238)" fill="url(#paint0_linear_3772_159741)"/>
</g>
<g filter="url(#filter1_d_3772_159741)">
<rect x="41.3125" y="35.1895" width="74.9305" height="96.1458" rx="4" fill="url(#paint1_linear_3772_159741)"/>
<rect opacity="0.3" x="49.4375" y="71.752" width="59.1319" height="2.70833" fill="#B5A795"/>
<rect opacity="0.3" x="49" y="55" width="32" height="2" fill="#B5A795"/>
<rect opacity="0.3" x="48.5625" y="49.249" width="32" height="2" fill="#B5A795"/>
<rect opacity="0.3" x="49.4375" y="78.0713" width="59.1319" height="2.70833" fill="#B5A795"/>
<rect opacity="0.3" x="49.4375" y="84.3906" width="59.1319" height="2.70833" fill="#B5A795"/>
<rect opacity="0.3" x="49.4375" y="90.71" width="59.1319" height="2.70833" fill="#B5A795"/>
<rect opacity="0.3" x="49.4375" y="97.0293" width="59.1319" height="2.70833" fill="#B5A795"/>
<rect opacity="0.3" x="49.4375" y="103.35" width="24.375" height="2.70833" fill="#B5A795"/>
<circle cx="108.569" cy="40.5694" r="16.5694" fill="black"/>
<path fill-rule="evenodd" clip-rule="evenodd" d="M108.746 53.4915C101.706 53.4915 96 47.785 96 40.7457C96 33.7065 101.706 28 108.746 28C115.785 28 121.491 33.7065 121.491 40.7457C121.491 47.785 115.785 53.4915 108.746 53.4915Z" fill="#B88A00"/>
<path d="M109 33.5V41L113 43.5" stroke="black" stroke-width="2" stroke-linecap="round" stroke-linejoin="round"/>
</g>
<defs>
<filter id="filter0_d_3772_159741" x="-1.53906" y="11.5044" width="134.084" height="140.644" filterUnits="userSpaceOnUse" color-interpolation-filters="sRGB">
<feFlood flood-opacity="0" result="BackgroundImageFix"/>
<feColorMatrix in="SourceAlpha" type="matrix" values="0 0 0 0 0 0 0 0 0 0 0 0 0 0 0 0 0 0 127 0" result="hardAlpha"/>
<feOffset/>
<feGaussianBlur stdDeviation="12"/>
<feColorMatrix type="matrix" values="0 0 0 0 0.164706 0 0 0 0 0.223529 0 0 0 0 0.305882 0 0 0 0.12 0"/>
<feBlend mode="normal" in2="BackgroundImageFix" result="effect1_dropShadow_3772_159741"/>
<feBlend mode="normal" in="SourceGraphic" in2="effect1_dropShadow_3772_159741" result="shape"/>
</filter>
<filter id="filter1_d_3772_159741" x="17.3125" y="0" width="131.826" height="155.335" filterUnits="userSpaceOnUse" color-interpolation-filters="sRGB">
<feFlood flood-opacity="0" result="BackgroundImageFix"/>
<feColorMatrix in="SourceAlpha" type="matrix" values="0 0 0 0 0 0 0 0 0 0 0 0 0 0 0 0 0 0 127 0" result="hardAlpha"/>
<feOffset/>
<feGaussianBlur stdDeviation="12"/>
<feColorMatrix type="matrix" values="0 0 0 0 0.164706 0 0 0 0 0.223529 0 0 0 0 0.305882 0 0 0 0.12 0"/>
<feBlend mode="normal" in2="BackgroundImageFix" result="effect1_dropShadow_3772_159741"/>
<feBlend mode="normal" in="SourceGraphic" in2="effect1_dropShadow_3772_159741" result="shape"/>
</filter>
<linearGradient id="paint0_linear_3772_159741" x1="56.0394" y1="54.4238" x2="56.0394" y2="131.261" gradientUnits="userSpaceOnUse">
<stop stop-color="#404040"/>
<stop offset="1" stop-color="#1F1F1F"/>
</linearGradient>
<linearGradient id="paint1_linear_3772_159741" x1="78.7778" y1="35.1895" x2="78.7778" y2="131.335" gradientUnits="userSpaceOnUse">
<stop stop-color="#404040"/>
<stop offset="1" stop-color="#1F1F1F"/>
</linearGradient>
</defs>
</svg>
