<svg width="120" height="120" viewBox="0 0 120 120" fill="none" xmlns="http://www.w3.org/2000/svg">
<g opacity="0.6" filter="url(#filter0_d_14133_25602)">
<rect x="9.46094" y="25.4238" width="67.1569" height="76.8367" rx="4" transform="rotate(-16.3629 9.46094 25.4238)" fill="url(#paint0_linear_14133_25602)"/>
</g>
<g filter="url(#filter1_d_14133_25602)">
<rect x="24.3125" y="18.1895" width="74.9305" height="96.1458" rx="4" fill="url(#paint1_linear_14133_25602)"/>
<path d="M68.4938 103.717C68.4938 103.019 69.261 102.171 69.4955 101.498C69.9975 100.056 70.3231 98.2389 70.1262 96.7047C70.0943 96.4563 69.8516 95.3744 69.4955 96.0706C68.9415 97.1536 68.6581 98.4802 68.364 99.6514C68.0286 100.987 67.9168 102.79 68.5866 104.034C69.1205 105.027 69.544 103.771 69.8294 103.214C70.0212 102.839 70.5161 101.348 71.0351 101.367C71.6781 101.391 72.5786 102.25 73.0755 102.617C74.6817 103.801 74.2156 98.3713 75.9321 99.7074C76.4152 100.083 77.0337 100.812 77.7314 100.621C78.3635 100.449 78.5156 99.7022 78.9279 99.2878C79.4012 98.8119 80.5042 98.9881 81.0982 99.0267C82.3659 99.1089 83.182 99.349 84.2701 98.4951C84.9257 97.9806 85.7975 96.7765 86.6908 96.6767C87.5516 96.5806 88.4064 96.7424 88.8611 95.8281" stroke="#D0D0D0" stroke-width="1.35417" stroke-linecap="round"/>
<path opacity="0.3" d="M32.4375 56.1061C32.4375 55.3582 33.0438 54.752 33.7917 54.752H90.2153C90.9632 54.752 91.5694 55.3582 91.5694 56.1061C91.5694 56.854 90.9632 57.4603 90.2153 57.4603H33.7917C33.0438 57.4603 32.4375 56.854 32.4375 56.1061Z" fill="#FF9999"/>
<path opacity="0.3" d="M32.4375 62.4264C32.4375 61.6785 33.0438 61.0723 33.7917 61.0723H90.2153C90.9632 61.0723 91.5694 61.6785 91.5694 62.4264C91.5694 63.1743 90.9632 63.7806 90.2153 63.7806H33.7917C33.0438 63.7806 32.4375 63.1743 32.4375 62.4264Z" fill="#FF9999"/>
<path opacity="0.3" d="M32.4375 68.7448C32.4375 67.9969 33.0438 67.3906 33.7917 67.3906H90.2153C90.9632 67.3906 91.5694 67.9969 91.5694 68.7448C91.5694 69.4927 90.9632 70.099 90.2153 70.099H33.7917C33.0438 70.099 32.4375 69.4927 32.4375 68.7448Z" fill="#FF9999"/>
<path opacity="0.3" d="M32.4375 75.0651C32.4375 74.3172 33.0438 73.7109 33.7917 73.7109H90.2153C90.9632 73.7109 91.5694 74.3172 91.5694 75.0651C91.5694 75.813 90.9632 76.4193 90.2153 76.4193H33.7917C33.0438 76.4193 32.4375 75.813 32.4375 75.0651Z" fill="#FF9999"/>
<path opacity="0.3" d="M32.4375 81.3835C32.4375 80.6356 33.0438 80.0293 33.7917 80.0293H90.2153C90.9632 80.0293 91.5694 80.6356 91.5694 81.3835C91.5694 82.1313 90.9632 82.7376 90.2153 82.7376H33.7917C33.0438 82.7376 32.4375 82.1313 32.4375 81.3835Z" fill="#FF9999"/>
<path opacity="0.3" d="M32.4375 87.7038C32.4375 86.9559 33.0438 86.3496 33.7917 86.3496H55.4583C56.2062 86.3496 56.8125 86.9559 56.8125 87.7038C56.8125 88.4517 56.2062 89.0579 55.4583 89.0579H33.7917C33.0438 89.0579 32.4375 88.4517 32.4375 87.7038Z" fill="#FF9999"/>
<path d="M41.8866 39.4972C41.8866 39.7003 41.8731 39.883 41.846 40.0455H37.7337C37.7676 40.4516 37.9097 40.7698 38.1602 40.9999C38.4106 41.2301 38.7186 41.3452 39.0842 41.3452C39.6122 41.3452 39.9879 41.1184 40.2113 40.6649H41.7445C41.582 41.2064 41.2706 41.6532 40.8103 42.0052C40.35 42.3504 39.7848 42.523 39.1146 42.523C38.5731 42.523 38.0857 42.4046 37.6525 42.1676C37.226 41.9239 36.8909 41.5821 36.6473 41.1421C36.4103 40.7021 36.2919 40.1944 36.2919 39.619C36.2919 39.0369 36.4103 38.5258 36.6473 38.0858C36.8842 37.6458 37.2159 37.3073 37.6423 37.0704C38.0688 36.8335 38.5596 36.715 39.1146 36.715C39.6494 36.715 40.1266 36.8301 40.5463 37.0603C40.9728 37.2904 41.3011 37.6187 41.5313 38.0452C41.7682 38.4649 41.8866 38.9489 41.8866 39.4972ZM40.4143 39.091C40.4076 38.7255 40.2756 38.4344 40.0183 38.2178C39.7611 37.9944 39.4463 37.8827 39.074 37.8827C38.722 37.8827 38.4242 37.991 38.1805 38.2076C37.9436 38.4175 37.798 38.7119 37.7439 39.091H40.4143ZM47.2498 38.2076V39.4058H42.9445V38.2076H47.2498ZM51.2911 42.5027C50.7969 42.5027 50.3502 42.4181 49.9508 42.2489C49.5582 42.0796 49.2468 41.8359 49.0166 41.5178C48.7865 41.1996 48.668 40.8239 48.6612 40.3907H50.1843C50.2046 40.6818 50.3062 40.9119 50.4889 41.0812C50.6785 41.2504 50.9357 41.335 51.2606 41.335C51.5923 41.335 51.8529 41.2572 52.0425 41.1015C52.232 40.939 52.3268 40.7292 52.3268 40.4719C52.3268 40.2621 52.2625 40.0895 52.1339 39.9541C52.0052 39.8187 51.8428 39.7138 51.6465 39.6393C51.4569 39.5581 51.1929 39.4701 50.8545 39.3753C50.3942 39.2399 50.0185 39.1079 49.7274 38.9793C49.4431 38.8439 49.196 38.6443 48.9862 38.3803C48.7831 38.1095 48.6815 37.7507 48.6815 37.3039C48.6815 36.8843 48.7865 36.5187 48.9963 36.2073C49.2062 35.8959 49.5006 35.659 49.8797 35.4966C50.2588 35.3273 50.692 35.2427 51.1794 35.2427C51.9105 35.2427 52.5028 35.4221 52.9563 35.7809C53.4166 36.1329 53.6705 36.627 53.7179 37.2633H52.1542C52.1406 37.0196 52.0357 36.8199 51.8394 36.6643C51.6499 36.5018 51.396 36.4206 51.0779 36.4206C50.8003 36.4206 50.5769 36.4916 50.4077 36.6338C50.2452 36.7759 50.164 36.9824 50.164 37.2532C50.164 37.4427 50.2249 37.6018 50.3468 37.7304C50.4754 37.8523 50.6311 37.9538 50.8139 38.035C51.0034 38.1095 51.2674 38.1975 51.6059 38.299C52.0662 38.4344 52.4419 38.5698 52.7329 38.7052C53.024 38.8406 53.2745 39.0436 53.4843 39.3144C53.6942 39.5852 53.7991 39.9406 53.7991 40.3806C53.7991 40.7596 53.7009 41.1116 53.5046 41.4366C53.3083 41.7615 53.0206 42.0221 52.6415 42.2184C52.2625 42.4079 51.8123 42.5027 51.2911 42.5027ZM55.7524 36.1363C55.502 36.1363 55.2921 36.0584 55.1229 35.9027C54.9604 35.7403 54.8792 35.5406 54.8792 35.3036C54.8792 35.0667 54.9604 34.8704 55.1229 34.7147C55.2921 34.5523 55.502 34.471 55.7524 34.471C56.0029 34.471 56.2094 34.5523 56.3718 34.7147C56.541 34.8704 56.6257 35.0667 56.6257 35.3036C56.6257 35.5406 56.541 35.7403 56.3718 35.9027C56.2094 36.0584 56.0029 36.1363 55.7524 36.1363ZM56.453 36.8064V42.4316H55.0315V36.8064H56.453ZM60.0609 36.715C60.4806 36.715 60.8495 36.7996 61.1677 36.9689C61.4858 37.1313 61.7363 37.3446 61.9191 37.6086V36.8064H63.3508V42.4723C63.3508 42.9935 63.2458 43.4572 63.036 43.8633C62.8261 44.2763 62.5114 44.6012 62.0917 44.8381C61.672 45.0818 61.1643 45.2036 60.5686 45.2036C59.7698 45.2036 59.1132 45.0175 58.5988 44.6452C58.0911 44.2729 57.8034 43.7652 57.7357 43.1221H59.1471C59.2215 43.3793 59.3806 43.5824 59.6243 43.7313C59.8748 43.887 60.176 43.9649 60.528 43.9649C60.9409 43.9649 61.276 43.8396 61.5332 43.5892C61.7904 43.3455 61.9191 42.9732 61.9191 42.4723V41.599C61.7363 41.863 61.4824 42.083 61.1575 42.259C60.8394 42.435 60.4738 42.523 60.0609 42.523C59.5871 42.523 59.1538 42.4012 58.7612 42.1575C58.3686 41.9138 58.0572 41.5719 57.8271 41.1319C57.6037 40.6852 57.492 40.1741 57.492 39.5987C57.492 39.0301 57.6037 38.5258 57.8271 38.0858C58.0572 37.6458 58.3652 37.3073 58.7511 37.0704C59.1437 36.8335 59.5803 36.715 60.0609 36.715ZM61.9191 39.619C61.9191 39.2738 61.8514 38.9793 61.716 38.7356C61.5806 38.4852 61.3978 38.2956 61.1677 38.167C60.9375 38.0316 60.6904 37.9639 60.4264 37.9639C60.1624 37.9639 59.9188 38.0283 59.6954 38.1569C59.472 38.2855 59.2892 38.475 59.1471 38.7255C59.0117 38.9692 58.944 39.2603 58.944 39.5987C58.944 39.9372 59.0117 40.235 59.1471 40.4923C59.2892 40.7427 59.472 40.9356 59.6954 41.071C59.9255 41.2064 60.1692 41.2741 60.4264 41.2741C60.6904 41.2741 60.9375 41.2098 61.1677 41.0812C61.3978 40.9458 61.5806 40.7563 61.716 40.5126C61.8514 40.2621 61.9191 39.9643 61.9191 39.619ZM67.8564 36.7252C68.5265 36.7252 69.0681 36.9384 69.481 37.3649C69.8939 37.7846 70.1004 38.3735 70.1004 39.1316V42.4316H68.6788V39.3246C68.6788 38.8778 68.5671 38.5359 68.3438 38.299C68.1204 38.0553 67.8158 37.9335 67.4299 37.9335C67.0373 37.9335 66.7259 38.0553 66.4958 38.299C66.2724 38.5359 66.1607 38.8778 66.1607 39.3246V42.4316H64.7391V36.8064H66.1607V37.507C66.3502 37.2633 66.5905 37.0738 66.8816 36.9384C67.1794 36.7963 67.5044 36.7252 67.8564 36.7252Z" fill="#F0F0F0"/>
<circle cx="91.57" cy="20.57" r="16.57" fill="black"/>
<path fill-rule="evenodd" clip-rule="evenodd" d="M91.8249 33.5704C84.7854 33.5704 79.0788 27.8638 79.0788 20.8243C79.0788 13.7848 84.7854 8.07812 91.8249 8.07812C98.8644 8.07812 104.571 13.7848 104.571 20.8243C104.571 27.8638 98.8644 33.5704 91.8249 33.5704Z" fill="#FF9999"/>
<path d="M96.1068 17.892C96.4765 17.5224 96.4765 16.9105 96.1068 16.5409C95.7372 16.1713 95.1254 16.1713 94.7557 16.5409L91.8241 19.4725L88.8925 16.5409C88.5229 16.1713 87.9111 16.1713 87.5414 16.5409C87.1718 16.9105 87.1718 17.5224 87.5414 17.892L90.473 20.8236L87.5414 23.7552C87.1718 24.1249 87.1718 24.7367 87.5414 25.1063C87.7326 25.2975 87.9748 25.3867 88.217 25.3867C88.4591 25.3867 88.7013 25.2975 88.8925 25.1063L91.8241 22.1747L94.7557 25.1063C94.9469 25.2975 95.1891 25.3867 95.4313 25.3867C95.6735 25.3867 95.9156 25.2975 96.1068 25.1063C96.4765 24.7367 96.4765 24.1249 96.1068 23.7552L93.1752 20.8236L96.1068 17.892Z" fill="black"/>
</g>
<defs>
<filter id="filter0_d_14133_25602" x="7.46094" y="5.50391" width="92.0832" height="98.6445" filterUnits="userSpaceOnUse" color-interpolation-filters="sRGB">
<feFlood flood-opacity="0" result="BackgroundImageFix"/>
<feColorMatrix in="SourceAlpha" type="matrix" values="0 0 0 0 0 0 0 0 0 0 0 0 0 0 0 0 0 0 127 0" result="hardAlpha"/>
<feOffset dx="1" dy="2"/>
<feGaussianBlur stdDeviation="1.5"/>
<feColorMatrix type="matrix" values="0 0 0 0 0.164706 0 0 0 0 0.223529 0 0 0 0 0.305882 0 0 0 0.1 0"/>
<feBlend mode="normal" in2="BackgroundImageFix" result="effect1_dropShadow_14133_25602"/>
<feBlend mode="normal" in="SourceGraphic" in2="effect1_dropShadow_14133_25602" result="shape"/>
</filter>
<filter id="filter1_d_14133_25602" x="22.3125" y="3" width="89.8275" height="116.336" filterUnits="userSpaceOnUse" color-interpolation-filters="sRGB">
<feFlood flood-opacity="0" result="BackgroundImageFix"/>
<feColorMatrix in="SourceAlpha" type="matrix" values="0 0 0 0 0 0 0 0 0 0 0 0 0 0 0 0 0 0 127 0" result="hardAlpha"/>
<feOffset dx="1" dy="2"/>
<feGaussianBlur stdDeviation="1.5"/>
<feColorMatrix type="matrix" values="0 0 0 0 0.164706 0 0 0 0 0.223529 0 0 0 0 0.305882 0 0 0 0.1 0"/>
<feBlend mode="normal" in2="BackgroundImageFix" result="effect1_dropShadow_14133_25602"/>
<feBlend mode="normal" in="SourceGraphic" in2="effect1_dropShadow_14133_25602" result="shape"/>
</filter>
<linearGradient id="paint0_linear_14133_25602" x1="43.0394" y1="25.4238" x2="43.0394" y2="102.261" gradientUnits="userSpaceOnUse">
<stop stop-color="#290000"/>
<stop offset="1"/>
</linearGradient>
<linearGradient id="paint1_linear_14133_25602" x1="61.7778" y1="18.1895" x2="61.7778" y2="114.335" gradientUnits="userSpaceOnUse">
<stop stop-color="#290000"/>
<stop offset="1"/>
</linearGradient>
</defs>
</svg>
