<svg width="120" height="120" viewBox="0 0 120 120" fill="none" xmlns="http://www.w3.org/2000/svg">
<g opacity="0.6" filter="url(#filter0_d_14056_46058)">
<rect x="9.46094" y="25.4238" width="67.1569" height="76.8367" rx="4" transform="rotate(-16.3629 9.46094 25.4238)" fill="url(#paint0_linear_14056_46058)"/>
</g>
<g filter="url(#filter1_d_14056_46058)">
<rect x="24.3125" y="18.1895" width="74.9305" height="96.1458" rx="4" fill="url(#paint1_linear_14056_46058)"/>
<path d="M68.4942 103.717C68.4942 103.019 69.2615 102.171 69.4959 101.498C69.9979 100.056 70.3235 98.2389 70.1266 96.7047C70.0947 96.4563 69.852 95.3744 69.4959 96.0706C68.9419 97.1536 68.6586 98.4802 68.3644 99.6514C68.0291 100.987 67.9173 102.79 68.587 104.034C69.1209 105.027 69.5445 103.771 69.8298 103.214C70.0216 102.839 70.5166 101.348 71.0355 101.367C71.6786 101.391 72.579 102.25 73.076 102.617C74.6821 103.801 74.2161 98.3713 75.9326 99.7074C76.4156 100.083 77.0341 100.812 77.7319 100.621C78.364 100.449 78.5161 99.7022 78.9283 99.2878C79.4016 98.8119 80.5046 98.9881 81.0986 99.0267C82.3663 99.1089 83.1825 99.349 84.2706 98.4951C84.9262 97.9806 85.798 96.7765 86.6913 96.6767C87.552 96.5806 88.4069 96.7424 88.8615 95.8281" stroke="#D0D0D0" stroke-width="1.35417" stroke-linecap="round"/>
<path opacity="0.3" d="M32.4375 56.1061C32.4375 55.3582 33.0438 54.752 33.7917 54.752H90.2153C90.9632 54.752 91.5694 55.3582 91.5694 56.1061C91.5694 56.854 90.9632 57.4603 90.2153 57.4603H33.7917C33.0438 57.4603 32.4375 56.854 32.4375 56.1061Z" fill="#7FC782"/>
<path opacity="0.3" d="M32.4375 62.4255C32.4375 61.6776 33.0438 61.0713 33.7917 61.0713H90.2153C90.9632 61.0713 91.5694 61.6776 91.5694 62.4255C91.5694 63.1733 90.9632 63.7796 90.2153 63.7796H33.7917C33.0438 63.7796 32.4375 63.1733 32.4375 62.4255Z" fill="#7FC782"/>
<path opacity="0.3" d="M32.4375 68.7448C32.4375 67.9969 33.0438 67.3906 33.7917 67.3906H90.2153C90.9632 67.3906 91.5694 67.9969 91.5694 68.7448C91.5694 69.4927 90.9632 70.099 90.2153 70.099H33.7917C33.0438 70.099 32.4375 69.4927 32.4375 68.7448Z" fill="#7FC782"/>
<path opacity="0.3" d="M32.4375 75.0641C32.4375 74.3162 33.0438 73.71 33.7917 73.71H90.2153C90.9632 73.71 91.5694 74.3162 91.5694 75.0641C91.5694 75.812 90.9632 76.4183 90.2153 76.4183H33.7917C33.0438 76.4183 32.4375 75.812 32.4375 75.0641Z" fill="#7FC782"/>
<path opacity="0.3" d="M32.4375 81.3835C32.4375 80.6356 33.0438 80.0293 33.7917 80.0293H90.2153C90.9632 80.0293 91.5694 80.6356 91.5694 81.3835C91.5694 82.1313 90.9632 82.7376 90.2153 82.7376H33.7917C33.0438 82.7376 32.4375 82.1313 32.4375 81.3835Z" fill="#7FC782"/>
<path opacity="0.3" d="M32.4375 87.7038C32.4375 86.9559 33.0438 86.3496 33.7917 86.3496H55.4583C56.2062 86.3496 56.8125 86.9559 56.8125 87.7038C56.8125 88.4517 56.2062 89.0579 55.4583 89.0579H33.7917C33.0438 89.0579 32.4375 88.4517 32.4375 87.7038Z" fill="#7FC782"/>
<path d="M41.8873 39.4972C41.8873 39.7003 41.8737 39.883 41.8467 40.0455H37.7344C37.7682 40.4516 37.9104 40.7698 38.1608 40.9999C38.4113 41.2301 38.7193 41.3452 39.0848 41.3452C39.6128 41.3452 39.9885 41.1184 40.2119 40.6649H41.7451C41.5827 41.2064 41.2713 41.6532 40.811 42.0052C40.3507 42.3504 39.7854 42.523 39.1153 42.523C38.5737 42.523 38.0864 42.4046 37.6531 42.1676C37.2267 41.9239 36.8916 41.5821 36.6479 41.1421C36.411 40.7021 36.2925 40.1944 36.2925 39.619C36.2925 39.0369 36.411 38.5258 36.6479 38.0858C36.8848 37.6458 37.2165 37.3073 37.643 37.0704C38.0694 36.8335 38.5602 36.715 39.1153 36.715C39.65 36.715 40.1273 36.8301 40.547 37.0603C40.9734 37.2904 41.3017 37.6187 41.5319 38.0452C41.7688 38.4649 41.8873 38.9489 41.8873 39.4972ZM40.415 39.091C40.4082 38.7255 40.2762 38.4344 40.019 38.2178C39.7617 37.9944 39.447 37.8827 39.0747 37.8827C38.7227 37.8827 38.4248 37.991 38.1811 38.2076C37.9442 38.4175 37.7987 38.7119 37.7445 39.091H40.415ZM47.2504 38.2076V39.4058H42.9452V38.2076H47.2504ZM51.2917 42.5027C50.7976 42.5027 50.3508 42.4181 49.9514 42.2489C49.5588 42.0796 49.2474 41.8359 49.0173 41.5178C48.7871 41.1996 48.6686 40.8239 48.6619 40.3907H50.185C50.2053 40.6818 50.3068 40.9119 50.4896 41.0812C50.6791 41.2504 50.9363 41.335 51.2613 41.335C51.593 41.335 51.8536 41.2572 52.0431 41.1015C52.2326 40.939 52.3274 40.7292 52.3274 40.4719C52.3274 40.2621 52.2631 40.0895 52.1345 39.9541C52.0059 39.8187 51.8434 39.7138 51.6471 39.6393C51.4576 39.5581 51.1936 39.4701 50.8551 39.3753C50.3948 39.2399 50.0191 39.1079 49.728 38.9793C49.4437 38.8439 49.1966 38.6443 48.9868 38.3803C48.7837 38.1095 48.6822 37.7507 48.6822 37.3039C48.6822 36.8843 48.7871 36.5187 48.997 36.2073C49.2068 35.8959 49.5013 35.659 49.8803 35.4966C50.2594 35.3273 50.6926 35.2427 51.18 35.2427C51.9111 35.2427 52.5034 35.4221 52.957 35.7809C53.4173 36.1329 53.6711 36.627 53.7185 37.2633H52.1548C52.1413 37.0196 52.0363 36.8199 51.84 36.6643C51.6505 36.5018 51.3966 36.4206 51.0785 36.4206C50.801 36.4206 50.5776 36.4916 50.4083 36.6338C50.2459 36.7759 50.1646 36.9824 50.1646 37.2532C50.1646 37.4427 50.2256 37.6018 50.3474 37.7304C50.476 37.8523 50.6317 37.9538 50.8145 38.035C51.004 38.1095 51.268 38.1975 51.6065 38.299C52.0668 38.4344 52.4425 38.5698 52.7336 38.7052C53.0246 38.8406 53.2751 39.0436 53.485 39.3144C53.6948 39.5852 53.7997 39.9406 53.7997 40.3806C53.7997 40.7596 53.7016 41.1116 53.5053 41.4366C53.309 41.7615 53.0213 42.0221 52.6422 42.2184C52.2631 42.4079 51.813 42.5027 51.2917 42.5027ZM55.7531 36.1363C55.5026 36.1363 55.2928 36.0584 55.1235 35.9027C54.9611 35.7403 54.8798 35.5406 54.8798 35.3036C54.8798 35.0667 54.9611 34.8704 55.1235 34.7147C55.2928 34.5523 55.5026 34.471 55.7531 34.471C56.0035 34.471 56.21 34.5523 56.3725 34.7147C56.5417 34.8704 56.6263 35.0667 56.6263 35.3036C56.6263 35.5406 56.5417 35.7403 56.3725 35.9027C56.21 36.0584 56.0035 36.1363 55.7531 36.1363ZM56.4537 36.8064V42.4316H55.0321V36.8064H56.4537ZM60.0616 36.715C60.4812 36.715 60.8502 36.7996 61.1683 36.9689C61.4865 37.1313 61.7369 37.3446 61.9197 37.6086V36.8064H63.3514V42.4723C63.3514 42.9935 63.2465 43.4572 63.0366 43.8633C62.8268 44.2763 62.512 44.6012 62.0923 44.8381C61.6726 45.0818 61.1649 45.2036 60.5692 45.2036C59.7705 45.2036 59.1139 45.0175 58.5994 44.6452C58.0917 44.2729 57.804 43.7652 57.7363 43.1221H59.1477C59.2222 43.3793 59.3812 43.5824 59.6249 43.7313C59.8754 43.887 60.1766 43.9649 60.5286 43.9649C60.9416 43.9649 61.2766 43.8396 61.5339 43.5892C61.7911 43.3455 61.9197 42.9732 61.9197 42.4723V41.599C61.7369 41.863 61.4831 42.083 61.1582 42.259C60.84 42.435 60.4745 42.523 60.0616 42.523C59.5877 42.523 59.1545 42.4012 58.7619 42.1575C58.3692 41.9138 58.0579 41.5719 57.8277 41.1319C57.6043 40.6852 57.4926 40.1741 57.4926 39.5987C57.4926 39.0301 57.6043 38.5258 57.8277 38.0858C58.0579 37.6458 58.3659 37.3073 58.7517 37.0704C59.1443 36.8335 59.5809 36.715 60.0616 36.715ZM61.9197 39.619C61.9197 39.2738 61.852 38.9793 61.7166 38.7356C61.5812 38.4852 61.3985 38.2956 61.1683 38.167C60.9382 38.0316 60.6911 37.9639 60.4271 37.9639C60.1631 37.9639 59.9194 38.0283 59.696 38.1569C59.4726 38.2855 59.2899 38.475 59.1477 38.7255C59.0123 38.9692 58.9446 39.2603 58.9446 39.5987C58.9446 39.9372 59.0123 40.235 59.1477 40.4923C59.2899 40.7427 59.4726 40.9356 59.696 41.071C59.9262 41.2064 60.1699 41.2741 60.4271 41.2741C60.6911 41.2741 60.9382 41.2098 61.1683 41.0812C61.3985 40.9458 61.5812 40.7563 61.7166 40.5126C61.852 40.2621 61.9197 39.9643 61.9197 39.619ZM67.857 36.7252C68.5272 36.7252 69.0687 36.9384 69.4816 37.3649C69.8945 37.7846 70.101 38.3735 70.101 39.1316V42.4316H68.6795V39.3246C68.6795 38.8778 68.5678 38.5359 68.3444 38.299C68.121 38.0553 67.8164 37.9335 67.4305 37.9335C67.0379 37.9335 66.7265 38.0553 66.4964 38.299C66.273 38.5359 66.1613 38.8778 66.1613 39.3246V42.4316H64.7398V36.8064H66.1613V37.507C66.3509 37.2633 66.5912 37.0738 66.8822 36.9384C67.1801 36.7963 67.505 36.7252 67.857 36.7252Z" fill="#F0F0F0"/>
<circle cx="91.5694" cy="20.5694" r="16.5694" fill="black"/>
<path fill-rule="evenodd" clip-rule="evenodd" d="M91.8239 33.5706C84.7846 33.5706 79.0781 27.8641 79.0781 20.8248C79.0781 13.7856 84.7846 8.0791 91.8239 8.0791C98.8631 8.0791 104.57 13.7856 104.57 20.8248C104.57 27.8641 98.8631 33.5706 91.8239 33.5706Z" fill="#449C47"/>
<path d="M89.3374 25.107L85.7303 21.5C85.3607 21.1304 85.3607 20.5186 85.7303 20.149C86.1 19.7793 86.7118 19.7793 87.0814 20.149L90.0129 23.0805L96.5642 16.5292C96.9338 16.1595 97.5456 16.1595 97.9153 16.5292C98.2849 16.8988 98.2849 17.5106 97.9153 17.8802L90.6884 25.107C90.51 25.2855 90.2678 25.3875 90.0129 25.3875C89.758 25.3875 89.5158 25.2855 89.3374 25.107Z" fill="white"/>
</g>
<defs>
<filter id="filter0_d_14056_46058" x="7.46094" y="5.50439" width="92.084" height="98.644" filterUnits="userSpaceOnUse" color-interpolation-filters="sRGB">
<feFlood flood-opacity="0" result="BackgroundImageFix"/>
<feColorMatrix in="SourceAlpha" type="matrix" values="0 0 0 0 0 0 0 0 0 0 0 0 0 0 0 0 0 0 127 0" result="hardAlpha"/>
<feOffset dx="1" dy="2"/>
<feGaussianBlur stdDeviation="1.5"/>
<feColorMatrix type="matrix" values="0 0 0 0 0.164706 0 0 0 0 0.223529 0 0 0 0 0.305882 0 0 0 0.1 0"/>
<feBlend mode="normal" in2="BackgroundImageFix" result="effect1_dropShadow_14056_46058"/>
<feBlend mode="normal" in="SourceGraphic" in2="effect1_dropShadow_14056_46058" result="shape"/>
</filter>
<filter id="filter1_d_14056_46058" x="22.3125" y="3" width="89.8262" height="116.335" filterUnits="userSpaceOnUse" color-interpolation-filters="sRGB">
<feFlood flood-opacity="0" result="BackgroundImageFix"/>
<feColorMatrix in="SourceAlpha" type="matrix" values="0 0 0 0 0 0 0 0 0 0 0 0 0 0 0 0 0 0 127 0" result="hardAlpha"/>
<feOffset dx="1" dy="2"/>
<feGaussianBlur stdDeviation="1.5"/>
<feColorMatrix type="matrix" values="0 0 0 0 0.164706 0 0 0 0 0.223529 0 0 0 0 0.305882 0 0 0 0.1 0"/>
<feBlend mode="normal" in2="BackgroundImageFix" result="effect1_dropShadow_14056_46058"/>
<feBlend mode="normal" in="SourceGraphic" in2="effect1_dropShadow_14056_46058" result="shape"/>
</filter>
<linearGradient id="paint0_linear_14056_46058" x1="43.0394" y1="25.4238" x2="43.0394" y2="102.261" gradientUnits="userSpaceOnUse">
<stop stop-color="#104210"/>
<stop offset="1"/>
</linearGradient>
<linearGradient id="paint1_linear_14056_46058" x1="61.7778" y1="18.1895" x2="61.7778" y2="114.335" gradientUnits="userSpaceOnUse">
<stop stop-color="#104210"/>
<stop offset="1"/>
</linearGradient>
</defs>
</svg>
