<svg width="123" height="148" viewBox="0 0 123 148" fill="none" xmlns="http://www.w3.org/2000/svg">
<rect x="1.36553" y="8.86553" width="106.577" height="137.308" rx="4.25" fill="white" stroke="url(#paint0_linear_724_27096)" stroke-width="1.96154"/>
<path d="M64.3821 131.774C64.3821 130.763 65.4934 129.535 65.833 128.559C66.5602 126.47 67.0318 123.839 66.7466 121.616C66.7004 121.257 66.3488 119.689 65.833 120.698C65.0306 122.267 64.6201 124.188 64.194 125.885C63.7083 127.819 63.5464 130.431 64.5164 132.233C65.2899 133.671 65.9034 131.853 66.3167 131.045C66.5945 130.502 67.3114 128.342 68.0632 128.37C68.9946 128.405 70.2989 129.65 71.0188 130.18C73.3453 131.896 72.6703 124.03 75.1567 125.966C75.8564 126.511 76.7523 127.566 77.763 127.29C78.6786 127.039 78.8989 125.958 79.496 125.358C80.1817 124.669 81.7793 124.924 82.6398 124.98C84.4761 125.099 85.6583 125.447 87.2344 124.21C88.1841 123.465 89.4469 121.72 90.7408 121.576C91.9876 121.437 93.2259 121.671 93.8845 120.347" stroke="#747E8B" stroke-width="1.96154" stroke-linecap="round"/>
<path d="M36.6158 36.0674C36.6158 36.329 36.5984 36.5644 36.5635 36.7736H31.2674C31.3109 37.2967 31.494 37.7064 31.8166 38.0028C32.1391 38.2992 32.5358 38.4474 33.0066 38.4474C33.6866 38.4474 34.1704 38.1554 34.4581 37.5713H36.4327C36.2235 38.2687 35.8225 38.8441 35.2297 39.2974C34.6368 39.7421 33.9089 39.9644 33.0458 39.9644C32.3484 39.9644 31.7207 39.8118 31.1627 39.5067C30.6135 39.1928 30.182 38.7526 29.8681 38.1859C29.563 37.6192 29.4104 36.9654 29.4104 36.2244C29.4104 35.4746 29.563 34.8164 29.8681 34.2498C30.1733 33.6831 30.6004 33.2472 31.1497 32.9421C31.6989 32.6369 32.3309 32.4844 33.0458 32.4844C33.7345 32.4844 34.3491 32.6326 34.8897 32.929C35.4389 33.2254 35.8617 33.6482 36.1581 34.1974C36.4633 34.738 36.6158 35.3613 36.6158 36.0674ZM34.7197 35.5444C34.7109 35.0736 34.5409 34.6987 34.2097 34.4198C33.8784 34.1321 33.473 33.9882 32.9935 33.9882C32.5402 33.9882 32.1566 34.1277 31.8427 34.4067C31.5376 34.6769 31.3502 35.0562 31.2804 35.5444H34.7197ZM43.5229 34.4067V35.9498H37.9783V34.4067H43.5229ZM48.7276 39.9382C48.0912 39.9382 47.5158 39.8292 47.0014 39.6113C46.4958 39.3933 46.0948 39.0795 45.7984 38.6698C45.502 38.26 45.3494 37.7762 45.3407 37.2182H47.3022C47.3284 37.5931 47.4591 37.8895 47.6945 38.1074C47.9386 38.3254 48.2699 38.4344 48.6884 38.4344C49.1155 38.4344 49.4512 38.3341 49.6953 38.1336C49.9394 37.9244 50.0614 37.6541 50.0614 37.3228C50.0614 37.0526 49.9786 36.8303 49.813 36.6559C49.6473 36.4816 49.4381 36.3464 49.1853 36.2505C48.9412 36.1459 48.6012 36.0326 48.1653 35.9105C47.5725 35.7362 47.0886 35.5662 46.7138 35.4005C46.3476 35.2262 46.0294 34.969 45.7591 34.629C45.4976 34.2803 45.3668 33.8182 45.3668 33.2428C45.3668 32.7023 45.502 32.2316 45.7722 31.8305C46.0425 31.4295 46.4217 31.1244 46.9099 30.9151C47.3981 30.6972 47.9561 30.5882 48.5838 30.5882C49.5253 30.5882 50.2881 30.8192 50.8722 31.2813C51.465 31.7346 51.792 32.371 51.853 33.1905H49.8391C49.8217 32.8767 49.6866 32.6195 49.4338 32.419C49.1897 32.2098 48.8627 32.1051 48.453 32.1051C48.0955 32.1051 47.8079 32.1967 47.5899 32.3798C47.3807 32.5628 47.2761 32.8287 47.2761 33.1774C47.2761 33.4216 47.3545 33.6264 47.5114 33.7921C47.6771 33.949 47.8776 34.0798 48.113 34.1844C48.3571 34.2803 48.6971 34.3936 49.133 34.5244C49.7258 34.6987 50.2097 34.8731 50.5845 35.0474C50.9594 35.2218 51.282 35.4833 51.5522 35.8321C51.8225 36.1808 51.9576 36.6385 51.9576 37.2051C51.9576 37.6933 51.8312 38.1467 51.5784 38.5651C51.3255 38.9836 50.955 39.3192 50.4668 39.5721C49.9786 39.8162 49.3989 39.9382 48.7276 39.9382ZM54.4733 31.739C54.1507 31.739 53.8805 31.6387 53.6625 31.4382C53.4533 31.229 53.3487 30.9718 53.3487 30.6667C53.3487 30.3616 53.4533 30.1087 53.6625 29.9082C53.8805 29.699 54.1507 29.5944 54.4733 29.5944C54.7958 29.5944 55.0617 29.699 55.271 29.9082C55.4889 30.1087 55.5979 30.3616 55.5979 30.6667C55.5979 30.9718 55.4889 31.229 55.271 31.4382C55.0617 31.6387 54.7958 31.739 54.4733 31.739ZM55.3756 32.6021V39.8467H53.5448V32.6021H55.3756ZM60.0221 32.4844C60.5626 32.4844 61.0377 32.5933 61.4475 32.8113C61.8572 33.0205 62.1798 33.2951 62.4152 33.6351V32.6021H64.259V39.899C64.259 40.5703 64.1239 41.1674 63.8536 41.6905C63.5834 42.2223 63.178 42.6408 62.6375 42.9459C62.0969 43.2598 61.4431 43.4167 60.6759 43.4167C59.6472 43.4167 58.8016 43.1769 58.139 42.6974C57.4852 42.218 57.1146 41.5641 57.0275 40.7359H58.8452C58.941 41.0672 59.1459 41.3287 59.4598 41.5205C59.7823 41.721 60.1703 41.8213 60.6236 41.8213C61.1554 41.8213 61.5869 41.66 61.9182 41.3374C62.2495 41.0236 62.4152 40.5441 62.4152 39.899V38.7744C62.1798 39.1144 61.8528 39.3977 61.4344 39.6244C61.0246 39.851 60.5539 39.9644 60.0221 39.9644C59.4118 39.9644 58.8539 39.8074 58.3482 39.4936C57.8426 39.1798 57.4416 38.7395 57.1452 38.1728C56.8575 37.5974 56.7136 36.9392 56.7136 36.1982C56.7136 35.4659 56.8575 34.8164 57.1452 34.2498C57.4416 33.6831 57.8382 33.2472 58.3352 32.9421C58.8408 32.6369 59.4031 32.4844 60.0221 32.4844ZM62.4152 36.2244C62.4152 35.7798 62.328 35.4005 62.1536 35.0867C61.9793 34.7641 61.7439 34.52 61.4475 34.3544C61.151 34.18 60.8328 34.0928 60.4928 34.0928C60.1528 34.0928 59.839 34.1757 59.5513 34.3413C59.2636 34.5069 59.0282 34.751 58.8452 35.0736C58.6708 35.3874 58.5836 35.7623 58.5836 36.1982C58.5836 36.6341 58.6708 37.0177 58.8452 37.349C59.0282 37.6716 59.2636 37.92 59.5513 38.0944C59.8477 38.2687 60.1616 38.3559 60.4928 38.3559C60.8328 38.3559 61.151 38.2731 61.4475 38.1074C61.7439 37.9331 61.9793 37.689 62.1536 37.3751C62.328 37.0526 62.4152 36.669 62.4152 36.2244ZM70.0617 32.4974C70.9248 32.4974 71.6222 32.7721 72.154 33.3213C72.6858 33.8618 72.9517 34.6203 72.9517 35.5967V39.8467H71.1209V35.8451C71.1209 35.2698 70.9771 34.8295 70.6894 34.5244C70.4017 34.2105 70.0094 34.0536 69.5125 34.0536C69.0068 34.0536 68.6058 34.2105 68.3094 34.5244C68.0217 34.8295 67.8778 35.2698 67.8778 35.8451V39.8467H66.0471V32.6021H67.8778V33.5044C68.1219 33.1905 68.4314 32.9464 68.8063 32.7721C69.1899 32.589 69.6084 32.4974 70.0617 32.4974Z" fill="#747E8B"/>
<rect x="12.1543" y="60.8467" width="85.6538" height="3.92308" fill="#EAEBED"/>
<rect x="12.1543" y="70" width="85.6538" height="3.92308" fill="#EAEBED"/>
<rect x="12.1543" y="79.1543" width="85.6538" height="3.92308" fill="#EAEBED"/>
<rect x="12.1543" y="88.3076" width="85.6538" height="3.92308" fill="#EAEBED"/>
<rect x="12.1543" y="97.4619" width="85.6538" height="3.92308" fill="#EAEBED"/>
<rect x="12.1543" y="106.615" width="35.3077" height="3.92308" fill="#EAEBED"/>
<circle cx="101.404" cy="21.2891" r="21.25" fill="white"/>
<path fill-rule="evenodd" clip-rule="evenodd" d="M101.731 37.9618C92.7032 37.9618 85.3848 30.6434 85.3848 21.6157C85.3848 12.588 92.7032 5.26953 101.731 5.26953C110.759 5.26953 118.077 12.588 118.077 21.6157C118.077 30.6434 110.759 37.9618 101.731 37.9618Z" fill="#FB2A23"/>
<path d="M107.223 17.8568C107.697 17.3827 107.697 16.5981 107.223 16.1241C106.749 15.65 105.964 15.65 105.49 16.1241L101.731 19.8837L97.971 16.1241C97.497 15.65 96.7124 15.65 96.2383 16.1241C95.7643 16.5981 95.7643 17.3827 96.2383 17.8568L99.998 21.6164L96.2383 25.376C95.7643 25.85 95.7643 26.6347 96.2383 27.1087C96.4835 27.3539 96.7941 27.4683 97.1047 27.4683C97.4153 27.4683 97.7258 27.3539 97.971 27.1087L101.731 23.3491L105.49 27.1087C105.735 27.3539 106.046 27.4683 106.357 27.4683C106.667 27.4683 106.978 27.3539 107.223 27.1087C107.697 26.6347 107.697 25.85 107.223 25.376L103.463 21.6164L107.223 17.8568Z" fill="white"/>
<defs>
<linearGradient id="paint0_linear_724_27096" x1="18.2171" y1="138.385" x2="105.011" y2="118.95" gradientUnits="userSpaceOnUse">
<stop stop-color="#446BF6"/>
<stop offset="1" stop-color="#F8D376"/>
</linearGradient>
</defs>
</svg>
