<svg width="124" height="145" viewBox="0 0 124 145" fill="none" xmlns="http://www.w3.org/2000/svg">
<rect x="9.46094" y="31.4238" width="67.1569" height="76.8367" rx="4" transform="rotate(-16.3629 9.46094 31.4238)" fill="#F4F5F6"/>
<g filter="url(#filter0_d_3919_188173)">
<rect x="24.3125" y="24.1895" width="74.9305" height="96.1458" rx="4" fill="white"/>
<path d="M68.4942 109.717C68.4942 109.019 69.2615 108.171 69.4959 107.498C69.9979 106.056 70.3235 104.239 70.1266 102.705C70.0947 102.456 69.852 101.374 69.4959 102.071C68.9419 103.154 68.6586 104.48 68.3644 105.651C68.0291 106.987 67.9173 108.79 68.587 110.034C69.1209 111.027 69.5445 109.771 69.8298 109.214C70.0216 108.839 70.5166 107.348 71.0355 107.367C71.6786 107.391 72.579 108.25 73.076 108.617C74.6821 109.801 74.2161 104.371 75.9326 105.707C76.4156 106.083 77.0341 106.812 77.7319 106.621C78.364 106.449 78.5161 105.702 78.9283 105.288C79.4016 104.812 80.5046 104.988 81.0986 105.027C82.3663 105.109 83.1825 105.349 84.2706 104.495C84.9262 103.981 85.798 102.777 86.6913 102.677C87.552 102.581 88.4069 102.742 88.8615 101.828" stroke="#747E8B" stroke-width="1.35417" stroke-linecap="round"/>
<rect x="32.4375" y="60.752" width="59.1319" height="2.70833" fill="#EAEBED"/>
<rect x="32.4375" y="67.0723" width="59.1319" height="2.70833" fill="#EAEBED"/>
<rect x="32.4375" y="73.3906" width="59.1319" height="2.70833" fill="#EAEBED"/>
<rect x="32.4375" y="79.7109" width="59.1319" height="2.70833" fill="#EAEBED"/>
<rect x="32.4375" y="86.0293" width="59.1319" height="2.70833" fill="#EAEBED"/>
<rect x="32.4375" y="92.3496" width="24.375" height="2.70833" fill="#EAEBED"/>
<path d="M41.8863 45.4972C41.8863 45.7003 41.8728 45.883 41.8457 46.0455H37.7334C37.7672 46.4516 37.9094 46.7698 38.1598 46.9999C38.4103 47.2301 38.7183 47.3452 39.0838 47.3452C39.6118 47.3452 39.9875 47.1184 40.2109 46.6649H41.7441C41.5817 47.2064 41.2703 47.6532 40.81 48.0052C40.3497 48.3504 39.7845 48.523 39.1143 48.523C38.5728 48.523 38.0854 48.4046 37.6521 48.1676C37.2257 47.9239 36.8906 47.5821 36.6469 47.1421C36.41 46.7021 36.2915 46.1944 36.2915 45.619C36.2915 45.0369 36.41 44.5258 36.6469 44.0858C36.8838 43.6458 37.2155 43.3073 37.642 43.0704C38.0685 42.8335 38.5592 42.715 39.1143 42.715C39.6491 42.715 40.1263 42.8301 40.546 43.0603C40.9725 43.2904 41.3008 43.6187 41.5309 44.0452C41.7678 44.4649 41.8863 44.9489 41.8863 45.4972ZM40.414 45.091C40.4072 44.7255 40.2752 44.4344 40.018 44.2178C39.7608 43.9944 39.446 43.8827 39.0737 43.8827C38.7217 43.8827 38.4238 43.991 38.1801 44.2076C37.9432 44.4175 37.7977 44.7119 37.7435 45.091H40.414ZM47.2494 44.2076V45.4058H42.9442V44.2076H47.2494ZM51.2907 48.5027C50.7966 48.5027 50.3498 48.4181 49.9504 48.2489C49.5578 48.0796 49.2464 47.8359 49.0163 47.5178C48.7861 47.1996 48.6677 46.8239 48.6609 46.3907H50.184C50.2043 46.6818 50.3058 46.9119 50.4886 47.0812C50.6781 47.2504 50.9354 47.335 51.2603 47.335C51.592 47.335 51.8526 47.2572 52.0421 47.1015C52.2317 46.939 52.3264 46.7292 52.3264 46.4719C52.3264 46.2621 52.2621 46.0895 52.1335 45.9541C52.0049 45.8187 51.8424 45.7138 51.6461 45.6393C51.4566 45.5581 51.1926 45.4701 50.8541 45.3753C50.3938 45.2399 50.0181 45.1079 49.7271 44.9793C49.4427 44.8439 49.1957 44.6443 48.9858 44.3803C48.7827 44.1095 48.6812 43.7507 48.6812 43.3039C48.6812 42.8843 48.7861 42.5187 48.996 42.2073C49.2058 41.8959 49.5003 41.659 49.8794 41.4966C50.2584 41.3273 50.6917 41.2427 51.1791 41.2427C51.9101 41.2427 52.5024 41.4221 52.956 41.7809C53.4163 42.1329 53.6701 42.627 53.7175 43.2633H52.1538C52.1403 43.0196 52.0354 42.8199 51.8391 42.6643C51.6495 42.5018 51.3957 42.4206 51.0775 42.4206C50.8 42.4206 50.5766 42.4916 50.4074 42.6338C50.2449 42.7759 50.1637 42.9824 50.1637 43.2532C50.1637 43.4427 50.2246 43.6018 50.3464 43.7304C50.4751 43.8523 50.6307 43.9538 50.8135 44.035C51.0031 44.1095 51.2671 44.1975 51.6055 44.299C52.0658 44.4344 52.4415 44.5698 52.7326 44.7052C53.0237 44.8406 53.2741 45.0436 53.484 45.3144C53.6938 45.5852 53.7987 45.9406 53.7987 46.3806C53.7987 46.7596 53.7006 47.1116 53.5043 47.4366C53.308 47.7615 53.0203 48.0221 52.6412 48.2184C52.2621 48.4079 51.812 48.5027 51.2907 48.5027ZM55.7521 42.1363C55.5016 42.1363 55.2918 42.0584 55.1226 41.9027C54.9601 41.7403 54.8789 41.5406 54.8789 41.3036C54.8789 41.0667 54.9601 40.8704 55.1226 40.7147C55.2918 40.5523 55.5016 40.471 55.7521 40.471C56.0026 40.471 56.209 40.5523 56.3715 40.7147C56.5407 40.8704 56.6253 41.0667 56.6253 41.3036C56.6253 41.5406 56.5407 41.7403 56.3715 41.9027C56.209 42.0584 56.0026 42.1363 55.7521 42.1363ZM56.4527 42.8064V48.4316H55.0312V42.8064H56.4527ZM60.0606 42.715C60.4803 42.715 60.8492 42.7996 61.1673 42.9689C61.4855 43.1313 61.736 43.3446 61.9187 43.6086V42.8064H63.3504V48.4723C63.3504 48.9935 63.2455 49.4572 63.0357 49.8633C62.8258 50.2763 62.511 50.6012 62.0913 50.8381C61.6717 51.0818 61.164 51.2036 60.5683 51.2036C59.7695 51.2036 59.1129 51.0175 58.5984 50.6452C58.0907 50.2729 57.803 49.7652 57.7353 49.1221H59.1467C59.2212 49.3793 59.3803 49.5824 59.624 49.7313C59.8744 49.887 60.1757 49.9649 60.5277 49.9649C60.9406 49.9649 61.2757 49.8396 61.5329 49.5892C61.7901 49.3455 61.9187 48.9732 61.9187 48.4723V47.599C61.736 47.863 61.4821 48.083 61.1572 48.259C60.839 48.435 60.4735 48.523 60.0606 48.523C59.5867 48.523 59.1535 48.4012 58.7609 48.1575C58.3683 47.9138 58.0569 47.5719 57.8267 47.1319C57.6033 46.6852 57.4917 46.1741 57.4917 45.5987C57.4917 45.0301 57.6033 44.5258 57.8267 44.0858C58.0569 43.6458 58.3649 43.3073 58.7507 43.0704C59.1433 42.8335 59.58 42.715 60.0606 42.715ZM61.9187 45.619C61.9187 45.2738 61.851 44.9793 61.7157 44.7356C61.5803 44.4852 61.3975 44.2956 61.1673 44.167C60.9372 44.0316 60.6901 43.9639 60.4261 43.9639C60.1621 43.9639 59.9184 44.0283 59.695 44.1569C59.4717 44.2855 59.2889 44.475 59.1467 44.7255C59.0113 44.9692 58.9437 45.2603 58.9437 45.5987C58.9437 45.9372 59.0113 46.235 59.1467 46.4923C59.2889 46.7427 59.4717 46.9356 59.695 47.071C59.9252 47.2064 60.1689 47.2741 60.4261 47.2741C60.6901 47.2741 60.9372 47.2098 61.1673 47.0812C61.3975 46.9458 61.5803 46.7563 61.7157 46.5126C61.851 46.2621 61.9187 45.9643 61.9187 45.619ZM67.856 42.7252C68.5262 42.7252 69.0677 42.9384 69.4806 43.3649C69.8936 43.7846 70.1 44.3735 70.1 45.1316V48.4316H68.6785V45.3246C68.6785 44.8778 68.5668 44.5359 68.3434 44.299C68.12 44.0553 67.8154 43.9335 67.4296 43.9335C67.037 43.9335 66.7256 44.0553 66.4954 44.299C66.272 44.5359 66.1603 44.8778 66.1603 45.3246V48.4316H64.7388V42.8064H66.1603V43.507C66.3499 43.2633 66.5902 43.0738 66.8813 42.9384C67.1791 42.7963 67.504 42.7252 67.856 42.7252Z" fill="#747E8B"/>
</g>
<defs>
<filter id="filter0_d_3919_188173" x="0.3125" y="0.189453" width="122.931" height="144.146" filterUnits="userSpaceOnUse" color-interpolation-filters="sRGB">
<feFlood flood-opacity="0" result="BackgroundImageFix"/>
<feColorMatrix in="SourceAlpha" type="matrix" values="0 0 0 0 0 0 0 0 0 0 0 0 0 0 0 0 0 0 127 0" result="hardAlpha"/>
<feOffset/>
<feGaussianBlur stdDeviation="12"/>
<feColorMatrix type="matrix" values="0 0 0 0 0.164706 0 0 0 0 0.223529 0 0 0 0 0.305882 0 0 0 0.12 0"/>
<feBlend mode="normal" in2="BackgroundImageFix" result="effect1_dropShadow_3919_188173"/>
<feBlend mode="normal" in="SourceGraphic" in2="effect1_dropShadow_3919_188173" result="shape"/>
</filter>
</defs>
</svg>
