<svg width="133" height="159" viewBox="0 0 133 159" fill="none" xmlns="http://www.w3.org/2000/svg">
<rect x="9.46094" y="45.4238" width="67.1569" height="76.8367" rx="4" transform="rotate(-16.3629 9.46094 45.4238)" fill="#F4F5F6"/>
<g filter="url(#filter0_d_3919_188203)">
<rect x="24.3125" y="38.1895" width="74.9305" height="96.1458" rx="4" fill="white"/>
<path d="M68.4942 123.717C68.4942 123.019 69.2615 122.171 69.4959 121.498C69.9979 120.056 70.3235 118.239 70.1266 116.705C70.0947 116.456 69.852 115.374 69.4959 116.071C68.9419 117.154 68.6586 118.48 68.3644 119.651C68.0291 120.987 67.9173 122.79 68.587 124.034C69.1209 125.027 69.5445 123.771 69.8298 123.214C70.0216 122.839 70.5166 121.348 71.0355 121.367C71.6786 121.391 72.579 122.25 73.076 122.617C74.6821 123.801 74.2161 118.371 75.9326 119.707C76.4156 120.083 77.0341 120.812 77.7319 120.621C78.364 120.449 78.5161 119.702 78.9283 119.288C79.4016 118.812 80.5046 118.988 81.0986 119.027C82.3663 119.109 83.1825 119.349 84.2706 118.495C84.9262 117.981 85.798 116.777 86.6913 116.677C87.552 116.581 88.4069 116.742 88.8615 115.828" stroke="#747E8B" stroke-width="1.35417" stroke-linecap="round"/>
<rect x="32.4375" y="74.752" width="59.1319" height="2.70833" fill="#EAEBED"/>
<rect x="32.4375" y="81.0723" width="59.1319" height="2.70833" fill="#EAEBED"/>
<rect x="32.4375" y="87.3906" width="59.1319" height="2.70833" fill="#EAEBED"/>
<rect x="32.4375" y="93.7109" width="59.1319" height="2.70833" fill="#EAEBED"/>
<rect x="32.4375" y="100.029" width="59.1319" height="2.70833" fill="#EAEBED"/>
<rect x="32.4375" y="106.35" width="24.375" height="2.70833" fill="#EAEBED"/>
<path d="M41.8863 59.4972C41.8863 59.7003 41.8728 59.883 41.8457 60.0455H37.7334C37.7672 60.4516 37.9094 60.7698 38.1598 60.9999C38.4103 61.2301 38.7183 61.3452 39.0838 61.3452C39.6118 61.3452 39.9875 61.1184 40.2109 60.6649H41.7441C41.5817 61.2064 41.2703 61.6532 40.81 62.0052C40.3497 62.3504 39.7845 62.523 39.1143 62.523C38.5728 62.523 38.0854 62.4046 37.6521 62.1676C37.2257 61.9239 36.8906 61.5821 36.6469 61.1421C36.41 60.7021 36.2915 60.1944 36.2915 59.619C36.2915 59.0369 36.41 58.5258 36.6469 58.0858C36.8838 57.6458 37.2155 57.3073 37.642 57.0704C38.0685 56.8335 38.5592 56.715 39.1143 56.715C39.6491 56.715 40.1263 56.8301 40.546 57.0603C40.9725 57.2904 41.3008 57.6187 41.5309 58.0452C41.7678 58.4649 41.8863 58.9489 41.8863 59.4972ZM40.414 59.091C40.4072 58.7255 40.2752 58.4344 40.018 58.2178C39.7608 57.9944 39.446 57.8827 39.0737 57.8827C38.7217 57.8827 38.4238 57.991 38.1801 58.2076C37.9432 58.4175 37.7977 58.7119 37.7435 59.091H40.414ZM47.2494 58.2076V59.4058H42.9442V58.2076H47.2494ZM51.2907 62.5027C50.7966 62.5027 50.3498 62.4181 49.9504 62.2489C49.5578 62.0796 49.2464 61.8359 49.0163 61.5178C48.7861 61.1996 48.6677 60.8239 48.6609 60.3907H50.184C50.2043 60.6818 50.3058 60.9119 50.4886 61.0812C50.6781 61.2504 50.9354 61.335 51.2603 61.335C51.592 61.335 51.8526 61.2572 52.0421 61.1015C52.2317 60.939 52.3264 60.7292 52.3264 60.4719C52.3264 60.2621 52.2621 60.0895 52.1335 59.9541C52.0049 59.8187 51.8424 59.7138 51.6461 59.6393C51.4566 59.5581 51.1926 59.4701 50.8541 59.3753C50.3938 59.2399 50.0181 59.1079 49.7271 58.9793C49.4427 58.8439 49.1957 58.6443 48.9858 58.3803C48.7827 58.1095 48.6812 57.7507 48.6812 57.3039C48.6812 56.8843 48.7861 56.5187 48.996 56.2073C49.2058 55.8959 49.5003 55.659 49.8794 55.4966C50.2584 55.3273 50.6917 55.2427 51.1791 55.2427C51.9101 55.2427 52.5024 55.4221 52.956 55.7809C53.4163 56.1329 53.6701 56.627 53.7175 57.2633H52.1538C52.1403 57.0196 52.0354 56.8199 51.8391 56.6643C51.6495 56.5018 51.3957 56.4206 51.0775 56.4206C50.8 56.4206 50.5766 56.4916 50.4074 56.6338C50.2449 56.7759 50.1637 56.9824 50.1637 57.2532C50.1637 57.4427 50.2246 57.6018 50.3464 57.7304C50.4751 57.8523 50.6307 57.9538 50.8135 58.035C51.0031 58.1095 51.2671 58.1975 51.6055 58.299C52.0658 58.4344 52.4415 58.5698 52.7326 58.7052C53.0237 58.8406 53.2741 59.0436 53.484 59.3144C53.6938 59.5852 53.7987 59.9406 53.7987 60.3806C53.7987 60.7596 53.7006 61.1116 53.5043 61.4366C53.308 61.7615 53.0203 62.0221 52.6412 62.2184C52.2621 62.4079 51.812 62.5027 51.2907 62.5027ZM55.7521 56.1363C55.5016 56.1363 55.2918 56.0584 55.1226 55.9027C54.9601 55.7403 54.8789 55.5406 54.8789 55.3036C54.8789 55.0667 54.9601 54.8704 55.1226 54.7147C55.2918 54.5523 55.5016 54.471 55.7521 54.471C56.0026 54.471 56.209 54.5523 56.3715 54.7147C56.5407 54.8704 56.6253 55.0667 56.6253 55.3036C56.6253 55.5406 56.5407 55.7403 56.3715 55.9027C56.209 56.0584 56.0026 56.1363 55.7521 56.1363ZM56.4527 56.8064V62.4316H55.0312V56.8064H56.4527ZM60.0606 56.715C60.4803 56.715 60.8492 56.7996 61.1673 56.9689C61.4855 57.1313 61.736 57.3446 61.9187 57.6086V56.8064H63.3504V62.4723C63.3504 62.9935 63.2455 63.4572 63.0357 63.8633C62.8258 64.2763 62.511 64.6012 62.0913 64.8381C61.6717 65.0818 61.164 65.2036 60.5683 65.2036C59.7695 65.2036 59.1129 65.0175 58.5984 64.6452C58.0907 64.2729 57.803 63.7652 57.7353 63.1221H59.1467C59.2212 63.3793 59.3803 63.5824 59.624 63.7313C59.8744 63.887 60.1757 63.9649 60.5277 63.9649C60.9406 63.9649 61.2757 63.8396 61.5329 63.5892C61.7901 63.3455 61.9187 62.9732 61.9187 62.4723V61.599C61.736 61.863 61.4821 62.083 61.1572 62.259C60.839 62.435 60.4735 62.523 60.0606 62.523C59.5867 62.523 59.1535 62.4012 58.7609 62.1575C58.3683 61.9138 58.0569 61.5719 57.8267 61.1319C57.6033 60.6852 57.4917 60.1741 57.4917 59.5987C57.4917 59.0301 57.6033 58.5258 57.8267 58.0858C58.0569 57.6458 58.3649 57.3073 58.7507 57.0704C59.1433 56.8335 59.58 56.715 60.0606 56.715ZM61.9187 59.619C61.9187 59.2738 61.851 58.9793 61.7157 58.7356C61.5803 58.4852 61.3975 58.2956 61.1673 58.167C60.9372 58.0316 60.6901 57.9639 60.4261 57.9639C60.1621 57.9639 59.9184 58.0283 59.695 58.1569C59.4717 58.2855 59.2889 58.475 59.1467 58.7255C59.0113 58.9692 58.9437 59.2603 58.9437 59.5987C58.9437 59.9372 59.0113 60.235 59.1467 60.4923C59.2889 60.7427 59.4717 60.9356 59.695 61.071C59.9252 61.2064 60.1689 61.2741 60.4261 61.2741C60.6901 61.2741 60.9372 61.2098 61.1673 61.0812C61.3975 60.9458 61.5803 60.7563 61.7157 60.5126C61.851 60.2621 61.9187 59.9643 61.9187 59.619ZM67.856 56.7252C68.5262 56.7252 69.0677 56.9384 69.4806 57.3649C69.8936 57.7846 70.1 58.3735 70.1 59.1316V62.4316H68.6785V59.3246C68.6785 58.8778 68.5668 58.5359 68.3434 58.299C68.12 58.0553 67.8154 57.9335 67.4296 57.9335C67.037 57.9335 66.7256 58.0553 66.4954 58.299C66.272 58.5359 66.1603 58.8778 66.1603 59.3246V62.4316H64.7388V56.8064H66.1603V57.507C66.3499 57.2633 66.5902 57.0738 66.8813 56.9384C67.1791 56.7963 67.504 56.7252 67.856 56.7252Z" fill="#747E8B"/>
<circle cx="91.5694" cy="40.5694" r="16.5694" fill="white"/>
<path fill-rule="evenodd" clip-rule="evenodd" d="M91.8248 53.5696C84.7856 53.5696 79.0791 47.8631 79.0791 40.8239C79.0791 33.7846 84.7856 28.0781 91.8248 28.0781C98.8641 28.0781 104.571 33.7846 104.571 40.8239C104.571 47.8631 98.8641 53.5696 91.8248 53.5696Z" fill="#33C659"/>
<path d="M89.3384 45.1051L85.7313 41.4981C85.3617 41.1284 85.3617 40.5166 85.7313 40.147C86.1009 39.7774 86.7127 39.7774 87.0824 40.147L90.0139 43.0785L96.5652 36.5272C96.9348 36.1576 97.5466 36.1576 97.9162 36.5272C98.2859 36.8968 98.2859 37.5086 97.9162 37.8783L90.6894 45.1051C90.511 45.2835 90.2688 45.3855 90.0139 45.3855C89.759 45.3855 89.5168 45.2835 89.3384 45.1051Z" fill="white"/>
</g>
<defs>
<filter id="filter0_d_3919_188203" x="0.3125" y="0" width="131.826" height="158.336" filterUnits="userSpaceOnUse" color-interpolation-filters="sRGB">
<feFlood flood-opacity="0" result="BackgroundImageFix"/>
<feColorMatrix in="SourceAlpha" type="matrix" values="0 0 0 0 0 0 0 0 0 0 0 0 0 0 0 0 0 0 127 0" result="hardAlpha"/>
<feOffset/>
<feGaussianBlur stdDeviation="12"/>
<feColorMatrix type="matrix" values="0 0 0 0 0.164706 0 0 0 0 0.223529 0 0 0 0 0.305882 0 0 0 0.12 0"/>
<feBlend mode="normal" in2="BackgroundImageFix" result="effect1_dropShadow_3919_188203"/>
<feBlend mode="normal" in="SourceGraphic" in2="effect1_dropShadow_3919_188203" result="shape"/>
</filter>
</defs>
</svg>
