<svg width="54" height="54" viewBox="0 0 54 54" fill="none" xmlns="http://www.w3.org/2000/svg">
<circle cx="27" cy="27" r="27" fill="url(#paint0_linear_11351_88026)"/>
<path d="M25.4406 13.5C31.277 13.5 34.0901 15.8004 34.5764 20.9533C34.629 21.4922 34.2347 21.9786 33.6826 22.0312C33.1568 22.0837 32.6572 21.6762 32.6047 21.1373C32.2235 17.0097 30.278 15.4718 25.4274 15.4718L25.2566 15.4718C19.9065 15.4718 18.0136 17.3647 18.0136 22.7147L18.0136 31.2853C18.0136 36.6353 19.9065 38.5282 25.2566 38.5282L25.4274 38.5282C30.3043 38.5282 32.2497 36.964 32.6047 32.7575C32.6704 32.2186 33.1305 31.8111 33.6826 31.8637C34.2347 31.9031 34.629 32.3895 34.5896 32.9284C34.1426 38.1602 31.3164 40.5 25.4406 40.5L25.2697 40.5C18.8155 40.5 16.055 37.7395 16.055 31.2853L16.055 22.7147C16.055 16.2605 18.8155 13.5 25.2697 13.5L25.4406 13.5Z" fill="white" stroke="white" stroke-width="0.5"/>
<path d="M40.5488 26.0146C41.0877 26.0146 41.5347 26.4615 41.5347 27.0004C41.5347 27.5394 41.0877 27.9863 40.5488 27.9863L25.5897 27.9863C25.0507 27.9863 24.6038 27.5394 24.6038 27.0004C24.6038 26.4615 25.0507 26.0146 25.5897 26.0146L40.5488 26.0146Z" fill="white" stroke="white" stroke-width="0.5"/>
<path d="M38.3139 21.8963L42.7175 26.2999C43.0987 26.6811 43.0987 27.3121 42.7175 27.6933L38.3139 32.0969C37.9327 32.4781 37.3017 32.4781 36.9205 32.0969C36.5393 31.7157 36.5393 31.0847 36.9205 30.7035L40.6274 26.9966L36.9205 23.2897C36.5393 22.9085 36.5393 22.2775 36.9205 21.8963C37.1046 21.6991 37.3675 21.6071 37.6172 21.6071C37.867 21.6071 38.1167 21.6991 38.3139 21.8963Z" fill="white" stroke="white" stroke-width="0.5"/>
<defs>
<linearGradient id="paint0_linear_11351_88026" x1="12.3674" y1="5.95888" x2="58.0834" y2="70.2233" gradientUnits="userSpaceOnUse">
<stop stop-color="#FB2A23"/>
<stop offset="1" stop-color="white"/>
</linearGradient>
</defs>
</svg>
