<svg width="32" height="32" viewBox="0 0 32 32" fill="none" xmlns="http://www.w3.org/2000/svg">
<circle cx="16" cy="16" r="16" fill="url(#paint0_linear_6929_52712)"/>
<path d="M15.0758 8C18.5344 8 20.2014 9.36319 20.4896 12.4167C20.5208 12.7361 20.2871 13.0243 19.9599 13.0555C19.6483 13.0867 19.3523 12.8452 19.3212 12.5258C19.0953 10.0798 17.9424 9.16845 15.068 9.16845L14.9667 9.16845C11.7963 9.16845 10.6746 10.2902 10.6746 13.4606L10.6746 18.5394C10.6746 21.7098 11.7963 22.8315 14.9667 22.8315L15.068 22.8315C17.958 22.8315 19.1109 21.9046 19.3212 19.4119C19.3601 19.0925 19.6328 18.851 19.9599 18.8822C20.2871 18.9056 20.5208 19.1938 20.4974 19.5131C20.2326 22.6134 18.5578 24 15.0758 24L14.9745 24C11.1498 24 9.51397 22.3642 9.51397 18.5394L9.51397 13.4606C9.51397 9.63583 11.1498 8 14.9745 8L15.0758 8Z" fill="white" stroke="white" stroke-width="0.5"/>
<path d="M24.0281 15.4155C24.3475 15.4155 24.6123 15.6804 24.6123 15.9998C24.6123 16.3191 24.3475 16.584 24.0281 16.584L15.1634 16.584C14.844 16.584 14.5792 16.3191 14.5792 15.9998C14.5792 15.6804 14.844 15.4155 15.1634 15.4155L24.0281 15.4155Z" fill="white" stroke="white" stroke-width="0.5"/>
<path d="M22.7044 12.9752L25.314 15.5848C25.5399 15.8107 25.5399 16.1846 25.314 16.4105L22.7044 19.02C22.4785 19.2459 22.1046 19.2459 21.8787 19.02C21.6528 18.7941 21.6528 18.4202 21.8787 18.1943L24.0754 15.9976L21.8787 13.8009C21.6528 13.575 21.6528 13.2011 21.8787 12.9752C21.9878 12.8584 22.1436 12.8039 22.2916 12.8039C22.4396 12.8039 22.5876 12.8584 22.7044 12.9752Z" fill="white" stroke="white" stroke-width="0.5"/>
<defs>
<linearGradient id="paint0_linear_6929_52712" x1="7.32886" y1="3.53119" x2="34.4198" y2="41.6138" gradientUnits="userSpaceOnUse">
<stop stop-color="#FB2A23"/>
<stop offset="1" stop-color="white"/>
</linearGradient>
</defs>
</svg>
