<svg width="14" height="14" viewBox="0 0 14 14" fill="none" xmlns="http://www.w3.org/2000/svg">
<path fill-rule="evenodd" clip-rule="evenodd" d="M4.47461 6.99849C4.47461 5.60432 5.60628 4.47266 7.00044 4.47266C8.39461 4.47266 9.52628 5.60432 9.52628 6.99849C9.52628 8.39266 8.39461 9.52432 7.00044 9.52432C5.60628 9.52432 4.47461 8.39266 4.47461 6.99849ZM5.34961 6.99849C5.34961 7.90849 6.09044 8.64932 7.00044 8.64932C7.91044 8.64932 8.65128 7.90849 8.65128 6.99849C8.65128 6.08849 7.91044 5.34766 7.00044 5.34766C6.09044 5.34766 5.34961 6.08849 5.34961 6.99849Z" fill="#404040"/>
<path fill-rule="evenodd" clip-rule="evenodd" d="M1.31238 8.74995C0.694049 7.78745 0.694049 6.21828 1.31238 5.24995C2.74155 3.02161 4.81238 1.73828 6.99988 1.73828C9.18738 1.73828 11.2582 3.02161 12.6815 5.24995C13.2999 6.21245 13.2999 7.78161 12.6815 8.74995C11.2582 10.9783 9.18738 12.2616 6.99988 12.2616C4.80655 12.2616 2.73572 10.9783 1.31238 8.74995ZM2.05322 5.72245C1.61572 6.40495 1.61572 7.59495 2.05322 8.27745C3.31322 10.2549 5.11572 11.3866 6.99988 11.3866C8.88405 11.3866 10.6865 10.2549 11.9465 8.27745C12.384 7.59495 12.384 6.40495 11.9465 5.72245C10.6865 3.74495 8.88405 2.61328 6.99988 2.61328C5.11572 2.61328 3.31322 3.74495 2.05322 5.72245Z" fill="#404040"/>
</svg>
