<svg width="21" height="21" viewBox="0 0 21 21" fill="none" xmlns="http://www.w3.org/2000/svg">
<rect x="0.333333" y="1.33333" width="19.3333" height="19.3333" rx="1" fill="#ECF0FE" stroke="#ECF0FE" stroke-width="0.666667"/>
<rect width="14" height="14" transform="translate(3 4)" fill="#ECF0FE"/>
<path d="M12.3359 8.23438C12.0968 8.23438 11.8984 8.03604 11.8984 7.79688C11.8984 7.55771 12.0968 7.35938 12.3359 7.35938H15.8359C16.0751 7.35938 16.2734 7.55771 16.2734 7.79688C16.2734 8.03604 16.0751 8.23438 15.8359 8.23438H12.3359Z" fill="#436AF5"/>
<path d="M4.16406 8.23438C3.9249 8.23438 3.72656 8.03604 3.72656 7.79688C3.72656 7.55771 3.9249 7.35938 4.16406 7.35938H6.4974C6.73656 7.35938 6.9349 7.55771 6.9349 7.79688C6.9349 8.03604 6.73656 8.23438 6.4974 8.23438H4.16406Z" fill="#436AF5"/>
<path fill-rule="evenodd" clip-rule="evenodd" d="M6.35547 7.79557C6.35547 6.43057 7.46964 5.31641 8.83464 5.31641C10.1996 5.31641 11.3138 6.43057 11.3138 7.79557C11.3138 9.16057 10.1996 10.2747 8.83464 10.2747C7.46964 10.2747 6.35547 9.16057 6.35547 7.79557ZM7.23047 7.79557C7.23047 8.68224 7.94797 9.39974 8.83464 9.39974C9.7213 9.39974 10.4388 8.68224 10.4388 7.79557C10.4388 6.90891 9.7213 6.19141 8.83464 6.19141C7.94797 6.19141 7.23047 6.90891 7.23047 7.79557Z" fill="#436AF5"/>
<path d="M13.5 14.6484C13.2608 14.6484 13.0625 14.4501 13.0625 14.2109C13.0625 13.9718 13.2608 13.7734 13.5 13.7734H15.8333C16.0725 13.7734 16.2708 13.9718 16.2708 14.2109C16.2708 14.4501 16.0725 14.6484 15.8333 14.6484H13.5Z" fill="#436AF5"/>
<path d="M4.16406 14.6484C3.9249 14.6484 3.72656 14.4501 3.72656 14.2109C3.72656 13.9718 3.9249 13.7734 4.16406 13.7734H7.66406C7.90323 13.7734 8.10156 13.9718 8.10156 14.2109C8.10156 14.4501 7.90323 14.6484 7.66406 14.6484H4.16406Z" fill="#436AF5"/>
<path fill-rule="evenodd" clip-rule="evenodd" d="M8.6875 14.2135C8.6875 12.8485 9.80167 11.7344 11.1667 11.7344C12.5317 11.7344 13.6458 12.8485 13.6458 14.2135C13.6458 15.5785 12.5317 16.6927 11.1667 16.6927C9.80167 16.6927 8.6875 15.5785 8.6875 14.2135ZM9.5625 14.2135C9.5625 15.1002 10.28 15.8177 11.1667 15.8177C12.0533 15.8177 12.7708 15.1002 12.7708 14.2135C12.7708 13.3269 12.0533 12.6094 11.1667 12.6094C10.28 12.6094 9.5625 13.3269 9.5625 14.2135Z" fill="#436AF5"/>
<circle cx="19" cy="2" r="2" fill="#436AF5"/>
</svg>
