<svg width="20" height="20" viewBox="0 0 20 20" fill="none" xmlns="http://www.w3.org/2000/svg">
<path fill-rule="evenodd" clip-rule="evenodd" d="M7.92545 18.8845C7.59212 18.7595 7.02545 18.3512 7.02545 17.0595V11.6845H5.07545C3.95878 11.6845 3.55878 11.1595 3.41712 10.8512C3.27545 10.5345 3.15045 9.89283 3.88378 9.05116L10.1921 1.8845C11.0421 0.917832 11.7338 0.984498 12.0671 1.1095C12.4005 1.2345 12.9671 1.64283 12.9671 2.9345V8.3095H14.9171C16.0338 8.3095 16.4338 8.8345 16.5755 9.14283C16.7171 9.4595 16.8421 10.1012 16.1088 10.9428L9.80045 18.1095C9.20878 18.7845 8.69212 18.9595 8.32545 18.9595C8.15878 18.9595 8.02545 18.9262 7.92545 18.8845ZM11.1338 2.71783L4.82545 9.8845C4.59212 10.1512 4.55878 10.3178 4.55878 10.3512C4.57545 10.3595 4.72545 10.4428 5.07545 10.4428H7.65045C7.99212 10.4428 8.27545 10.7262 8.27545 11.0678V17.0678C8.27545 17.4845 8.35045 17.6678 8.38378 17.7178C8.40878 17.6845 8.58378 17.6012 8.85878 17.2845L15.1671 10.1178C15.4005 9.85117 15.4338 9.6845 15.4338 9.65117C15.4171 9.64283 15.2671 9.5595 14.9171 9.5595H12.3421C12.0005 9.5595 11.7171 9.27617 11.7171 8.9345V2.9345C11.7255 2.51783 11.6421 2.34283 11.6088 2.2845C11.5838 2.31783 11.4088 2.40116 11.1338 2.71783Z" fill="#E0BF00"/>
</svg>
