<svg width="21" height="20" viewBox="0 0 21 20" fill="none" xmlns="http://www.w3.org/2000/svg">
<path d="M16.7257 10.5594V7.79281C16.7257 6.75947 15.8841 5.91781 14.8507 5.91781H3.31738C2.97572 5.91781 2.69238 5.63447 2.69238 5.29281C2.69238 4.95114 2.97572 4.66781 3.31738 4.66781H14.8507C16.5757 4.66781 17.9757 6.06781 17.9757 7.79281V10.5594C17.9757 10.9094 17.6924 11.1844 17.3507 11.1844C17.0091 11.1844 16.7257 10.9011 16.7257 10.5594Z" fill="#CA7868"/>
<path d="M5.50905 8.37618L2.87572 5.74287C2.75905 5.6262 2.69238 5.46784 2.69238 5.30117C2.69238 5.13451 2.75905 4.9762 2.87572 4.85953L5.50905 2.22617C5.75072 1.98451 6.15072 1.98451 6.39239 2.22617C6.63405 2.46784 6.63405 2.86789 6.39239 3.10955L4.20074 5.30117L6.39239 7.49285C6.63405 7.73451 6.63405 8.13451 6.39239 8.37618C6.26739 8.49284 6.10905 8.55954 5.95072 8.55954C5.79239 8.55954 5.63405 8.50118 5.50905 8.37618Z" fill="#CA7868"/>
<path d="M5.81738 15.3262C4.09238 15.3262 2.69238 13.9262 2.69238 12.2012V9.43457C2.69238 9.0929 2.97572 8.80957 3.31738 8.80957C3.65905 8.80957 3.94238 9.0929 3.94238 9.43457V12.2012C3.94238 13.2346 4.78405 14.0762 5.81738 14.0762H17.3507C17.6924 14.0762 17.9757 14.3596 17.9757 14.7012C17.9757 15.0429 17.6924 15.3262 17.3507 15.3262H5.81738Z" fill="#CA7868"/>
<path d="M14.275 17.7763C14.0333 17.5347 14.0333 17.1346 14.275 16.8929L16.4666 14.7013L14.275 12.5096C14.0333 12.268 14.0333 11.868 14.275 11.6263C14.5167 11.3847 14.9167 11.3847 15.1583 11.6263L17.7917 14.2596C17.9083 14.3763 17.9757 14.5346 17.9757 14.7012C17.9757 14.8679 17.9083 15.0263 17.7917 15.143L15.1583 17.7763C15.0417 17.9013 14.8833 17.9596 14.7167 17.9596C14.5583 17.9596 14.4 17.9013 14.275 17.7763Z" fill="#CA7868"/>
</svg>
