<svg width="20" height="20" viewBox="0 0 20 20" fill="none" xmlns="http://www.w3.org/2000/svg">
<path d="M5.69961 10.4575C5.41069 10.4575 5.1711 10.2179 5.1711 9.929C5.1711 9.64008 5.41069 9.40049 5.69961 9.40049H10.6324C10.9214 9.40049 11.1609 9.64008 11.1609 9.929C11.1609 10.2179 10.9214 10.4575 10.6324 10.4575H5.69961Z" fill="#404040"/>
<path fill-rule="evenodd" clip-rule="evenodd" d="M3.64192 4.62138C2.66241 4.99487 2 5.94624 2 6.99622V14.9553C2 16.849 3.42347 18.3853 5.17814 18.3853H13.268C15.0226 18.3853 16.4461 16.849 16.4461 14.9477V14.4857C16.9111 14.3033 17.2374 13.8525 17.2374 13.3244L17.2373 11.6801C17.2373 11.1558 16.9156 10.7077 16.4461 10.5227V9.83698C16.4461 7.94327 15.0226 6.40699 13.268 6.40699H11.7599V4.25497C11.7599 3.64189 11.464 3.0711 10.9566 2.71876C10.4563 2.36641 9.81499 2.28886 9.23715 2.50732L3.64192 4.62138ZM13.8358 11.8098C13.8414 11.8037 13.8471 11.7976 13.8529 11.7915L13.8599 11.7839C14.022 11.6014 14.2475 11.5025 14.4941 11.5025H15.9176C15.9508 11.5025 15.9834 11.4991 16.015 11.4926C16.115 11.5087 16.1873 11.5823 16.1873 11.6801L16.1874 13.3244C16.1874 13.4301 16.1029 13.5147 16.0112 13.5147H14.623C14.1156 13.5147 13.6626 13.1322 13.6203 12.6671C13.595 12.4267 13.6719 12.031 13.8358 11.8098ZM10.7029 6.40699V4.25497C10.7029 3.98719 10.5761 3.74054 10.3506 3.58551C10.1251 3.43048 9.85727 3.39524 9.60359 3.4939L4.00836 5.60796C3.43756 5.82642 3.04999 6.38314 3.04999 6.99622V7.28992C3.61345 6.74117 4.35978 6.40699 5.17814 6.40699H10.7029ZM3.05703 14.9553V9.83698C3.05703 8.57451 4.00836 7.54778 5.17814 7.54778H13.268C14.4377 7.54778 15.3891 8.57451 15.3891 9.83698V10.3617H14.4941C13.9656 10.3617 13.4723 10.5823 13.1059 10.9854C12.6831 11.4341 12.4717 12.0501 12.528 12.6737C12.6126 13.7689 13.5146 14.6207 14.5787 14.6207H15.3891V14.9553C15.3891 16.2178 14.4377 17.2445 13.268 17.2445H5.17814C4.00836 17.2445 3.05703 16.2178 3.05703 14.9553Z" fill="#404040"/>
</svg>
