<svg width="18" height="18" viewBox="0 0 18 18" fill="none" xmlns="http://www.w3.org/2000/svg">
<path fill-rule="evenodd" clip-rule="evenodd" d="M6.75 17.0625C2.6775 17.0625 0.9375 15.3225 0.9375 11.25V6.75C0.9375 2.6775 2.6775 0.9375 6.75 0.9375H11.25C15.3225 0.9375 17.0625 2.6775 17.0625 6.75V11.25C17.0625 15.3225 15.3225 17.0625 11.25 17.0625H6.75ZM2.0625 6.75V11.25C2.0625 14.7075 3.2925 15.9375 6.75 15.9375H11.25C14.7075 15.9375 15.9375 14.7075 15.9375 11.25V6.75C15.9375 3.2925 14.7075 2.0625 11.25 2.0625H6.75C3.2925 2.0625 2.0625 3.2925 2.0625 6.75Z" fill="#404040"/>
<path fill-rule="evenodd" clip-rule="evenodd" d="M4.6875 6C4.6875 4.86 5.61 3.9375 6.75 3.9375C7.89 3.9375 8.8125 4.86 8.8125 6C8.8125 7.14 7.89 8.0625 6.75 8.0625C5.61 8.0625 4.6875 7.14 4.6875 6ZM5.8125 6C5.8125 6.5175 6.2325 6.9375 6.75 6.9375C7.2675 6.9375 7.6875 6.5175 7.6875 6C7.6875 5.4825 7.2675 5.0625 6.75 5.0625C6.2325 5.0625 5.8125 5.4825 5.8125 6Z" fill="#404040"/>
<path d="M1.53855 14.5294C1.36605 14.2744 1.43355 13.9219 1.69605 13.7494L5.39355 11.2669C6.20355 10.7194 7.32105 10.7869 8.05605 11.4094L8.30355 11.6269C8.67855 11.9494 9.31605 11.9494 9.68355 11.6269L12.8035 8.94938C13.5985 8.26687 14.851 8.26687 15.6535 8.94938L16.876 9.99937C17.1085 10.2019 17.1385 10.5544 16.936 10.7944C16.7335 11.0269 16.381 11.0569 16.141 10.8544L14.9185 9.80437C14.5435 9.48187 13.906 9.48187 13.531 9.80437L10.411 12.4819C9.61605 13.1644 8.36355 13.1644 7.56105 12.4819L7.31355 12.2644C6.96855 11.9719 6.39855 11.9419 6.01605 12.2044L2.31855 14.6869C2.22105 14.7469 2.10855 14.7769 2.00355 14.7769C1.82355 14.7769 1.64355 14.6869 1.53855 14.5294Z" fill="#404040"/>
</svg>
