<svg width="14" height="14" viewBox="0 0 14 14" fill="none" xmlns="http://www.w3.org/2000/svg">
<circle cx="7" cy="7" r="7" fill="white"/>
<g clip-path="url(#clip0_6059_43604)">
<path d="M12.1247 7.12098C12.1247 6.7641 12.0957 6.40529 12.034 6.0542H7.08203V8.07588H9.91778C9.80011 8.72791 9.42201 9.3047 8.86836 9.67123V10.983H10.5602C11.5536 10.0686 12.1247 8.71826 12.1247 7.12098Z" fill="#4285F4"/>
<path d="M7.08216 12.2513C8.4981 12.2513 9.69221 11.7864 10.5622 10.9839L8.87042 9.67212C8.39972 9.99235 7.79206 10.1737 7.08408 10.1737C5.71444 10.1737 4.55313 9.24965 4.13645 8.00732H2.39062V9.35961C3.28186 11.1324 5.09713 12.2513 7.08216 12.2513Z" fill="#34A853"/>
<path d="M4.13439 8.00644C3.91448 7.3544 3.91448 6.64836 4.13439 5.99633V4.64404H2.3905C1.64587 6.12751 1.64587 7.87526 2.3905 9.35872L4.13439 8.00644Z" fill="#FBBC04"/>
<path d="M7.08215 3.82798C7.83064 3.8164 8.55405 4.09805 9.09612 4.61504L10.595 3.11614C9.64591 2.22491 8.38621 1.73492 7.08215 1.75035C5.09713 1.75035 3.28186 2.86922 2.39062 4.64398L4.13452 5.99627C4.54927 4.75201 5.71251 3.82798 7.08215 3.82798Z" fill="#EA4335"/>
</g>
<defs>
<clipPath id="clip0_6059_43604">
<rect width="10.5" height="10.5" fill="white" transform="translate(1.75 1.75)"/>
</clipPath>
</defs>
</svg>
