<svg width="20" height="20" viewBox="0 0 20 20" fill="none" xmlns="http://www.w3.org/2000/svg">
<path d="M15.455 5.08945C14.2643 4.25107 12.8097 3.87653 11.3636 4.03592C9.91742 4.19532 8.57872 4.87772 7.598 5.95543C6.61728 7.03315 6.06174 8.43232 6.03534 9.89112C6.02795 10.2992 6.35181 10.636 6.75869 10.6434C7.16557 10.6508 7.5014 10.326 7.50878 9.91794C7.52868 8.81847 7.94738 7.76394 8.68653 6.95169C9.42568 6.13944 10.4346 5.62513 11.5246 5.50499C12.6145 5.38486 13.7108 5.66714 14.6082 6.29902C15.5056 6.93089 16.1427 7.86905 16.4002 8.93795C16.6577 10.0068 16.518 11.1332 16.0073 12.1063C15.4966 13.0794 14.6498 13.8325 13.6254 14.2247C12.601 14.6169 11.4692 14.6213 10.4418 14.2371C10.0605 14.0945 9.63613 14.2889 9.49395 14.6713C9.35177 15.0537 9.54562 15.4793 9.92692 15.6219C11.2901 16.1317 12.7918 16.1258 14.151 15.6054C15.5102 15.085 16.6337 14.0858 17.3114 12.7947C17.989 11.5036 18.1743 10.0091 17.8326 8.59084C17.491 7.17261 16.6457 5.92783 15.455 5.08945Z" fill="#AC6CDA"/>
<path d="M13.0003 10.3974L10.9704 8.56527L6.75267 12.9965L4.35467 10.6585L2.22702 12.7033C1.93321 12.9857 1.92328 13.4535 2.20485 13.7481C2.48642 14.0428 2.95286 14.0527 3.24667 13.7703L4.34731 12.7125L6.79175 15.0959L11.0483 10.6239L13.0537 12.434L15.364 10.1171C15.6517 9.82852 15.6517 9.36063 15.364 9.07205C15.0762 8.78347 14.6097 8.78347 14.3219 9.07205L13.0003 10.3974Z" fill="#AC6CDA"/>
</svg>
