<svg width="16" height="16" viewBox="0 0 16 16" fill="none" xmlns="http://www.w3.org/2000/svg">
<path fill-rule="evenodd" clip-rule="evenodd" d="M0 4.648C0 1.736 1.73687 0 4.65032 0H11.3577C14.2711 0 16.008 1.736 16 4.648V11.352C16 14.264 14.2631 16 11.3497 16H4.65032C1.73687 16 0 14.264 0 11.344V4.648ZM11.3572 5.58398C11.4293 5.58398 11.5013 5.59998 11.5653 5.62398C11.7014 5.67998 11.8134 5.79198 11.8695 5.92798C11.8939 5.97673 11.9043 6.03011 11.915 6.08461C11.9183 6.10166 11.9217 6.11882 11.9255 6.13598V7.63198C11.9255 7.94398 11.6774 8.19198 11.3652 8.19198C11.0531 8.19198 10.8049 7.94398 10.8049 7.63198V7.48798L8.62786 9.66398C8.5078 9.78399 8.35573 9.83998 8.17964 9.82398C8.01155 9.80798 7.86748 9.71198 7.77143 9.57598L6.95503 8.35998L5.05008 10.264C4.94603 10.368 4.80196 10.424 4.65788 10.424C4.51381 10.424 4.37774 10.376 4.26569 10.264C4.04958 10.04 4.04958 9.68798 4.26569 9.47198L6.65088 7.08798C6.77094 6.96798 6.92301 6.91198 7.0991 6.92798C7.26718 6.94398 7.41126 7.03999 7.5073 7.17598L8.32371 8.39198L10.0126 6.70398H9.86848C9.55632 6.70398 9.3082 6.45599 9.3082 6.14398C9.3082 5.83198 9.55632 5.58398 9.86848 5.58398H11.3572Z" fill="#937962"/>
</svg>
