<svg width="10" height="9" viewBox="0 0 10 9" fill="none" xmlns="http://www.w3.org/2000/svg">
<g id="Group">
<path id="Vector" fill-rule="evenodd" clip-rule="evenodd" d="M3.125 4.49951C3.125 4.00223 3.32254 3.52532 3.67417 3.17369C4.02581 2.82206 4.50272 2.62451 5 2.62451C5.49728 2.62451 5.97419 2.82206 6.32583 3.17369C6.67746 3.52532 6.875 4.00223 6.875 4.49951C6.875 4.99679 6.67746 5.47371 6.32583 5.82534C5.97419 6.17697 5.49728 6.37451 5 6.37451C4.50272 6.37451 4.02581 6.17697 3.67417 5.82534C3.32254 5.47371 3.125 4.99679 3.125 4.49951ZM5 3.37451C4.70163 3.37451 4.41548 3.49304 4.20451 3.70402C3.99353 3.915 3.875 4.20114 3.875 4.49951C3.875 4.79788 3.99353 5.08403 4.20451 5.29501C4.41548 5.50599 4.70163 5.62451 5 5.62451C5.29837 5.62451 5.58452 5.50599 5.7955 5.29501C6.00647 5.08403 6.125 4.79788 6.125 4.49951C6.125 4.20114 6.00647 3.915 5.7955 3.70402C5.58452 3.49304 5.29837 3.37451 5 3.37451Z" fill="#202020"/>
<path id="Vector_2" fill-rule="evenodd" clip-rule="evenodd" d="M4.30786 0.874756C4.05696 0.874756 3.81634 0.974423 3.63893 1.15183C3.46152 1.32924 3.36186 1.56986 3.36186 1.82076C3.36177 1.98135 3.30131 2.13604 3.19248 2.25413C3.08365 2.37222 2.93441 2.44508 2.77436 2.45826L1.65936 2.54826C1.55273 2.55684 1.45188 2.60027 1.37237 2.67183C1.29286 2.74339 1.23909 2.83912 1.21936 2.94426C0.99517 4.12922 0.97859 5.34412 1.17036 6.53476L1.21886 6.83676C1.26486 7.12176 1.49936 7.33926 1.78736 7.36276L2.75886 7.44176C4.25041 7.56276 5.74931 7.56276 7.24086 7.44176L8.21186 7.36276C8.35189 7.35143 8.48408 7.29344 8.58724 7.19808C8.69041 7.10271 8.75859 6.97547 8.78086 6.83676L8.82936 6.53476C9.02096 5.34409 9.00421 4.12919 8.77986 2.94426C8.76003 2.83921 8.70621 2.74359 8.62671 2.67213C8.5472 2.60067 8.44641 2.55732 8.33986 2.54876L7.22536 2.45826C7.06522 2.44531 6.91584 2.37251 6.80696 2.25437C6.69809 2.13623 6.63771 1.98141 6.63786 1.82076C6.63786 1.69653 6.61339 1.57351 6.56585 1.45874C6.5183 1.34396 6.44862 1.23968 6.36078 1.15183C6.27293 1.06399 6.16865 0.994307 6.05387 0.946766C5.9391 0.899225 5.81609 0.874756 5.69186 0.874756H4.30786ZM2.61486 1.71876C2.64096 1.28742 2.83069 0.882301 3.14531 0.586079C3.45993 0.289856 3.87573 0.124858 4.30786 0.124756H5.69186C6.59436 0.124756 7.33186 0.829756 7.38486 1.71876L8.40086 1.80126C8.67115 1.82307 8.92679 1.93311 9.12843 2.11442C9.33007 2.29574 9.46655 2.53829 9.51686 2.80476C9.75736 4.07476 9.77536 5.37726 9.56986 6.65376L9.52136 6.95626C9.47236 7.26056 9.32272 7.53963 9.09638 7.74885C8.87003 7.95806 8.58007 8.08531 8.27286 8.11026L7.30186 8.18926C5.76971 8.31367 4.23 8.31367 2.69786 8.18926L1.72686 8.11026C1.41965 8.08531 1.12968 7.95806 0.903335 7.74885C0.676993 7.53963 0.527354 7.26056 0.478356 6.95626L0.429856 6.65376C0.22444 5.37737 0.242373 4.075 0.482856 2.80476C0.533243 2.53833 0.669742 2.29582 0.871369 2.11452C1.073 1.93322 1.32859 1.82316 1.59886 1.80126L2.61486 1.71876Z" fill="#202020"/>
</g>
</svg>
