<svg width="16" height="16" viewBox="0 0 16 16" fill="none" xmlns="http://www.w3.org/2000/svg">
<path fill-rule="evenodd" clip-rule="evenodd" d="M4.66658 15.1673C1.72659 15.1673 0.833252 14.274 0.833252 11.334V4.66732C0.833252 1.72732 1.72659 0.833984 4.66658 0.833984H5.66658C6.83325 0.833984 7.19992 1.21398 7.66658 1.83398L8.66658 3.16732C8.88659 3.46065 8.91992 3.50065 9.33325 3.50065H11.3333C14.2733 3.50065 15.1666 4.39398 15.1666 7.33398V11.334C15.1666 14.274 14.2733 15.1673 11.3333 15.1673H4.66658ZM1.83325 4.66732V11.334C1.83325 13.714 2.28659 14.1673 4.66658 14.1673H11.3333C13.7133 14.1673 14.1666 13.714 14.1666 11.334V7.33398C14.1666 4.95398 13.7133 4.50065 11.3333 4.50065H9.33325C8.47992 4.50065 8.19992 4.20732 7.86658 3.76732L6.86659 2.43398C6.51992 1.97398 6.41992 1.83398 5.66658 1.83398H4.66658C2.28659 1.83398 1.83325 2.28732 1.83325 4.66732Z" fill="#6A7483"/>
</svg>
