<svg width="16" height="16" viewBox="0 0 16 16" fill="none" xmlns="http://www.w3.org/2000/svg">
<path fill-rule="evenodd" clip-rule="evenodd" d="M6 15.1667C2.38 15.1667 0.833328 13.62 0.833328 10V6.00004C0.833328 2.38004 2.38 0.833374 6 0.833374H10C13.62 0.833374 15.1667 2.38004 15.1667 6.00004V10C15.1667 13.62 13.62 15.1667 10 15.1667H6ZM1.83333 6.00004V10C1.83333 13.0734 2.92666 14.1667 6 14.1667H10C13.0733 14.1667 14.1667 13.0734 14.1667 10V6.00004C14.1667 2.92671 13.0733 1.83337 10 1.83337H6C2.92666 1.83337 1.83333 2.92671 1.83333 6.00004Z" fill="#6A7483"/>
<path fill-rule="evenodd" clip-rule="evenodd" d="M4.16667 5.33333C4.16667 4.32 4.98667 3.5 6.00001 3.5C7.01334 3.5 7.83334 4.32 7.83334 5.33333C7.83334 6.34667 7.01334 7.16667 6.00001 7.16667C4.98667 7.16667 4.16667 6.34667 4.16667 5.33333ZM5.16667 5.33333C5.16667 5.79333 5.54001 6.16667 6.00001 6.16667C6.46001 6.16667 6.83334 5.79333 6.83334 5.33333C6.83334 4.87333 6.46001 4.5 6.00001 4.5C5.54001 4.5 5.16667 4.87333 5.16667 5.33333Z" fill="#6A7483"/>
<path d="M1.3676 12.915C1.21427 12.6883 1.27427 12.375 1.5076 12.2217L4.79427 10.015C5.51427 9.52833 6.5076 9.58833 7.16094 10.1417L7.38094 10.335C7.71427 10.6217 8.28094 10.6217 8.6076 10.335L11.3809 7.955C12.0876 7.34833 13.2009 7.34833 13.9143 7.955L15.0009 8.88833C15.2076 9.06833 15.2343 9.38167 15.0543 9.595C14.8743 9.80167 14.5609 9.82833 14.3476 9.64833L13.2609 8.715C12.9276 8.42833 12.3609 8.42833 12.0276 8.715L9.25427 11.095C8.5476 11.7017 7.43427 11.7017 6.72094 11.095L6.50094 10.9017C6.19427 10.6417 5.6876 10.615 5.3476 10.8483L2.06094 13.055C1.97427 13.1083 1.87427 13.135 1.78094 13.135C1.62094 13.135 1.46094 13.055 1.3676 12.915Z" fill="#6A7483"/>
</svg>
