<svg width="12" height="12" viewBox="0 0 12 12" fill="none" xmlns="http://www.w3.org/2000/svg">
<g id="trash">
<path id="Vector" d="M10.4598 3.36523C7.81484 3.10023 5.17484 3.00023 2.55984 3.26523L1.53984 3.36523C1.32984 3.38523 1.14484 3.23523 1.12484 3.02523C1.10484 2.81523 1.25484 2.63523 1.45984 2.61523L2.47984 2.51523C5.13984 2.24523 7.83484 2.35023 10.5348 2.61523C10.7398 2.63523 10.8898 2.82023 10.8698 3.02523C10.8548 3.22023 10.6898 3.36523 10.4998 3.36523C10.4898 3.36523 10.4748 3.36523 10.4598 3.36523Z" fill="#436AF5"/>
<path id="Vector_2" d="M4.18537 2.855C3.98537 2.82 3.84537 2.625 3.88037 2.425L3.99037 1.77C4.07037 1.29 4.18037 0.625 5.34537 0.625H6.65537C7.82537 0.625 7.93537 1.315 8.01037 1.775L8.12037 2.425C8.15537 2.63 8.01537 2.825 7.81537 2.855C7.61037 2.89 7.41537 2.75 7.38537 2.55L7.27537 1.9C7.20537 1.465 7.19037 1.38 6.66037 1.38H5.35037C4.82037 1.38 4.81037 1.45 4.73537 1.895L4.62037 2.545C4.59037 2.73 4.43037 2.86 4.25037 2.86C4.23037 2.86 4.21037 2.86 4.18537 2.855Z" fill="#436AF5"/>
<path id="Vector_3" d="M4.39519 11.3748C2.65019 11.3748 2.58019 10.4098 2.52519 9.62979L2.20019 4.59479C2.18519 4.38979 2.34519 4.20979 2.55019 4.19479C2.76019 4.18479 2.93519 4.33979 2.95019 4.54479L3.27519 9.57979C3.33019 10.3398 3.35019 10.6248 4.39519 10.6248H7.60519C8.65519 10.6248 8.67519 10.3398 8.72519 9.57979L9.05019 4.54479C9.06519 4.33979 9.24519 4.18479 9.45019 4.19479C9.65519 4.20979 9.81519 4.38479 9.80019 4.59479L9.47519 9.62979C9.42019 10.4098 9.35019 11.3748 7.60519 11.3748H4.39519Z" fill="#436AF5"/>
<path id="Vector_4" d="M5.16504 8.625C4.96004 8.625 4.79004 8.455 4.79004 8.25C4.79004 8.045 4.96004 7.875 5.16504 7.875H6.83004C7.03504 7.875 7.20504 8.045 7.20504 8.25C7.20504 8.455 7.03504 8.625 6.83004 8.625H5.16504Z" fill="#436AF5"/>
<path id="Vector_5" d="M4.75 6.625C4.545 6.625 4.375 6.455 4.375 6.25C4.375 6.045 4.545 5.875 4.75 5.875H7.25C7.455 5.875 7.625 6.045 7.625 6.25C7.625 6.455 7.455 6.625 7.25 6.625H4.75Z" fill="#436AF5"/>
</g>
</svg>
