<svg width="12" height="12" viewBox="0 0 12 12" fill="none" xmlns="http://www.w3.org/2000/svg">
<g id="icon-camera">
<g id="Group">
<path id="Vector" fill-rule="evenodd" clip-rule="evenodd" d="M3.7207 6.10013C3.7207 5.49548 3.9609 4.9156 4.38844 4.48805C4.81599 4.06051 5.39587 3.82031 6.00052 3.82031C6.60516 3.82031 7.18504 4.06051 7.61259 4.48805C8.04013 4.9156 8.28033 5.49548 8.28033 6.10013C8.28033 6.70477 8.04013 7.28465 7.61259 7.7122C7.18504 8.13974 6.60516 8.37994 6.00052 8.37994C5.39587 8.37994 4.81599 8.13974 4.38844 7.7122C3.9609 7.28465 3.7207 6.70477 3.7207 6.10013ZM6.00052 4.73224C5.63773 4.73224 5.2898 4.87635 5.03327 5.13288C4.77674 5.38941 4.63263 5.73734 4.63263 6.10013C4.63263 6.46291 4.77674 6.81084 5.03327 7.06737C5.2898 7.3239 5.63773 7.46801 6.00052 7.46801C6.3633 7.46801 6.71123 7.3239 6.96776 7.06737C7.22429 6.81084 7.3684 6.46291 7.3684 6.10013C7.3684 5.73734 7.22429 5.38941 6.96776 5.13288C6.71123 4.87635 6.3633 4.73224 6.00052 4.73224Z" fill="#436AF5"/>
<path id="Vector_2" fill-rule="evenodd" clip-rule="evenodd" d="M5.15912 1.69318C4.85406 1.69318 4.56149 1.81436 4.34578 2.03007C4.13007 2.24579 4.00888 2.53835 4.00888 2.84342C4.00878 3.03868 3.93527 3.22677 3.80294 3.37035C3.67062 3.51394 3.48915 3.60254 3.29454 3.61855L1.93881 3.72798C1.80916 3.73843 1.68655 3.79122 1.58987 3.87823C1.49319 3.96525 1.42781 4.08164 1.40382 4.20948C1.13123 5.65027 1.11107 7.12748 1.34424 8.57517L1.40321 8.94237C1.45914 9.2889 1.74427 9.55336 2.09445 9.58194L3.27569 9.67799C5.08927 9.82512 6.91178 9.82512 8.72536 9.67799L9.906 9.58194C10.0763 9.56817 10.237 9.49766 10.3624 9.3817C10.4879 9.26574 10.5708 9.11104 10.5978 8.94237L10.6568 8.57517C10.8898 7.12744 10.8694 5.65024 10.5966 4.20948C10.5725 4.08175 10.5071 3.9655 10.4104 3.8786C10.3138 3.79171 10.1912 3.739 10.0616 3.72859L8.70651 3.61855C8.5118 3.60281 8.33017 3.5143 8.19779 3.37065C8.06541 3.227 7.99199 3.03876 7.99217 2.84342C7.99217 2.69237 7.96242 2.54279 7.90461 2.40324C7.84681 2.26368 7.76208 2.13688 7.65527 2.03007C7.54846 1.92326 7.42166 1.83854 7.28211 1.78073C7.14255 1.72293 6.99298 1.69318 6.84193 1.69318H5.15912ZM3.10061 2.7194C3.13235 2.19493 3.36304 1.70235 3.74558 1.34217C4.12813 0.981996 4.6337 0.781374 5.15912 0.78125H6.84193C7.93928 0.78125 8.83601 1.63846 8.90045 2.7194L10.1358 2.81971C10.4645 2.84624 10.7753 2.98002 11.0205 3.20049C11.2656 3.42095 11.4316 3.71587 11.4927 4.03986C11.7852 5.58406 11.8071 7.16777 11.5572 8.71986L11.4982 9.08767C11.4386 9.45767 11.2567 9.797 10.9815 10.0514C10.7063 10.3058 10.3537 10.4605 9.98017 10.4908L8.79953 10.5869C6.93659 10.7382 5.06446 10.7382 3.20152 10.5869L2.02089 10.4908C1.64735 10.4605 1.29478 10.3058 1.01957 10.0514C0.744356 9.797 0.562411 9.45767 0.502834 9.08767L0.443863 8.71986C0.194097 7.16791 0.215902 5.58435 0.508306 4.03986C0.569571 3.71591 0.73554 3.42105 0.980698 3.2006C1.22586 2.98016 1.53663 2.84633 1.86525 2.81971L3.10061 2.7194Z" fill="#436AF5"/>
</g>
</g>
</svg>
