<svg width="14" height="14" viewBox="0 0 14 14" fill="none" xmlns="http://www.w3.org/2000/svg">
<path d="M9.33594 4.23438C9.09677 4.23438 8.89844 4.03604 8.89844 3.79688C8.89844 3.55771 9.09677 3.35938 9.33594 3.35938H12.8359C13.0751 3.35938 13.2734 3.55771 13.2734 3.79688C13.2734 4.03604 13.0751 4.23438 12.8359 4.23438H9.33594Z" fill="#404040"/>
<path d="M1.16797 4.23438C0.928802 4.23438 0.730469 4.03604 0.730469 3.79688C0.730469 3.55771 0.928802 3.35938 1.16797 3.35938H3.5013C3.74047 3.35938 3.9388 3.55771 3.9388 3.79688C3.9388 4.03604 3.74047 4.23438 3.5013 4.23438H1.16797Z" fill="#404040"/>
<path fill-rule="evenodd" clip-rule="evenodd" d="M3.35547 3.79557C3.35547 2.43057 4.46964 1.31641 5.83464 1.31641C7.19964 1.31641 8.3138 2.43057 8.3138 3.79557C8.3138 5.16057 7.19964 6.27474 5.83464 6.27474C4.46964 6.27474 3.35547 5.16057 3.35547 3.79557ZM4.23047 3.79557C4.23047 4.68224 4.94797 5.39974 5.83464 5.39974C6.7213 5.39974 7.4388 4.68224 7.4388 3.79557C7.4388 2.90891 6.7213 2.19141 5.83464 2.19141C4.94797 2.19141 4.23047 2.90891 4.23047 3.79557Z" fill="#404040"/>
<path d="M10.502 10.6484C10.2628 10.6484 10.0645 10.4501 10.0645 10.2109C10.0645 9.97177 10.2628 9.77344 10.502 9.77344H12.8353C13.0745 9.77344 13.2728 9.97177 13.2728 10.2109C13.2728 10.4501 13.0745 10.6484 12.8353 10.6484H10.502Z" fill="#404040"/>
<path d="M1.16797 10.6484C0.928802 10.6484 0.730469 10.4501 0.730469 10.2109C0.730469 9.97177 0.928802 9.77344 1.16797 9.77344H4.66797C4.90714 9.77344 5.10547 9.97177 5.10547 10.2109C5.10547 10.4501 4.90714 10.6484 4.66797 10.6484H1.16797Z" fill="#404040"/>
<path fill-rule="evenodd" clip-rule="evenodd" d="M5.68945 10.2135C5.68945 8.84854 6.80362 7.73438 8.16862 7.73438C9.53362 7.73438 10.6478 8.84854 10.6478 10.2135C10.6478 11.5785 9.53362 12.6927 8.16862 12.6927C6.80362 12.6927 5.68945 11.5785 5.68945 10.2135ZM6.56445 10.2135C6.56445 11.1002 7.28195 11.8177 8.16862 11.8177C9.05529 11.8177 9.77279 11.1002 9.77279 10.2135C9.77279 9.32687 9.05529 8.60938 8.16862 8.60938C7.28195 8.60938 6.56445 9.32687 6.56445 10.2135Z" fill="#404040"/>
</svg>
