<svg width="102" height="66" viewBox="0 0 102 66" fill="none" xmlns="http://www.w3.org/2000/svg">
<path d="M50.5 8C63.7548 8 74.5 18.7452 74.5 32C74.5 45.2548 63.7548 56 50.5 56C37.2452 56 26.5 45.2548 26.5 32C26.5 18.7452 37.2452 8 50.5 8ZM46.3428 36.6338L41.4414 32.2441L38.5 35.1709L45.6406 41.3887C46.0361 41.7331 46.6311 41.7135 47.0029 41.3438L63.5 24.9268L60.5586 22L46.3428 36.6338Z" fill="#449C47"/>
<circle cx="80" cy="31" r="2.5" fill="#D1AFE9"/>
<circle cx="58" cy="63.5" r="2.5" fill="#D1AFE9"/>
<circle cx="30" cy="55.5" r="1.5" fill="#99FFFF"/>
<circle cx="43" cy="2.5" r="2.5" fill="#FF85FF"/>
<circle cx="58" cy="2.5" r="1.5" fill="#D1AFE9"/>
<circle cx="50.5" cy="60" r="1" fill="#FF9999"/>
<path d="M74.5 58.5L70.5 54.5C70.2239 54.2239 70.2239 53.7761 70.5 53.5C70.7761 53.2239 71.2239 53.2239 71.5 53.5L75.5 57.5C75.7761 57.7761 75.7761 58.2239 75.5 58.5C75.2239 58.7761 74.7761 58.7761 74.5 58.5Z" fill="#FFE085"/>
<path d="M77.5 8.5L75 11C74.7239 11.2761 74.7239 11.7239 75 12C75.2761 12.2761 75.7239 12.2761 76 12L78.5 9.5C78.7761 9.22386 78.7761 8.77614 78.5 8.5C78.2239 8.22386 77.7761 8.22386 77.5 8.5Z" fill="#FF9999"/>
<path d="M22.5 21L23.1752 22.8248L25 23.5L23.1752 24.1752L22.5 26L21.8248 24.1752L20 23.5L21.8248 22.8248L22.5 21Z" fill="#FFE085"/>
<path d="M1 29C1 34 10.5 37.5 12 38.5C13.5 39.5 14.3028 41 12.5 41C11 41 10 39.5 13 38.5C15.4 37.7 19.3333 40.1667 21 41.5" stroke="#436AF5"/>
<path d="M100.943 30.7305C100.76 35.7271 91.1389 38.878 89.6034 39.8226C88.0679 40.7672 87.2109 42.2369 89.0125 42.3027C90.5115 42.3574 91.5656 40.8949 88.6041 39.7861C86.2349 38.899 82.2141 41.2204 80.4999 42.492" stroke="#436AF5"/>
</svg>
