<svg width="105" height="81" viewBox="0 0 105 81" fill="none" xmlns="http://www.w3.org/2000/svg">
<rect opacity="0.3" x="12.478" y="23.3109" width="79.0549" height="48.7106" rx="5.58974" fill="#C7D2FC"/>
<rect x="7.68677" y="15.3254" width="88.6374" height="48.7106" rx="5.58974" fill="#C7D2FC"/>
<path d="M23.9433 40.6407C28.9379 40.6407 32.9868 36.5918 32.9868 31.5973C32.9868 26.6027 28.9379 22.5538 23.9433 22.5538C18.9488 22.5538 14.8999 26.6027 14.8999 31.5973C14.8999 36.5918 18.9488 40.6407 23.9433 40.6407Z" fill="#A1B5FA" fill-opacity="0.5"/>
<path opacity="0.4" d="M21.614 29.0973C21.614 30.2944 22.5503 31.2633 23.7707 31.3052C23.808 31.3005 23.8453 31.3005 23.8732 31.3052C23.8825 31.3052 23.8872 31.3052 23.8965 31.3052C23.9012 31.3052 23.9012 31.3052 23.9058 31.3052C25.0983 31.2633 26.0346 30.2944 26.0392 29.0973C26.0392 27.8768 25.047 26.8846 23.8266 26.8846C22.6062 26.8846 21.614 27.8768 21.614 29.0973Z" fill="white"/>
<path d="M21.4653 32.5444C20.8737 32.9403 20.5476 33.476 20.5476 34.049C20.5476 34.6219 20.8737 35.1529 21.4606 35.5442C22.1127 35.9821 22.9698 36.201 23.8269 36.201C24.684 36.201 25.5411 35.9821 26.1932 35.5442C26.7802 35.1483 27.1062 34.6173 27.1062 34.0397C27.1016 33.4667 26.7802 32.9357 26.1932 32.5444C24.8936 31.678 22.7742 31.678 21.4653 32.5444Z" fill="white"/>
<path d="M72.8337 25.5691H39.6116C38.8627 25.5691 38.2556 26.4629 38.2556 27.5654C38.2556 28.668 38.8627 29.5618 39.6116 29.5618H72.8337C73.5826 29.5618 74.1897 28.668 74.1897 27.5654C74.1897 26.4629 73.5826 25.5691 72.8337 25.5691Z" fill="white"/>
<path opacity="0.6" d="M59.0175 34.353H40.061C39.0639 34.353 38.2556 35.2468 38.2556 36.3493C38.2556 37.4518 39.0639 38.3456 40.061 38.3456H59.0175C60.0146 38.3456 60.8229 37.4518 60.8229 36.3493C60.8229 35.2468 60.0146 34.353 59.0175 34.353Z" fill="white"/>
<rect opacity="0.5" x="14.8735" y="48.0654" width="74.2637" height="7.18681" rx="1.59707" fill="white"/>
<path d="M89.7001 33.7542C96.1066 33.7542 101.3 28.5607 101.3 22.1542C101.3 15.7477 96.1066 10.5542 89.7001 10.5542C83.2936 10.5542 78.1001 15.7477 78.1001 22.1542C78.1001 28.5607 83.2936 33.7542 89.7001 33.7542Z" fill="#A1B5FA"/>
<path fill-rule="evenodd" clip-rule="evenodd" d="M84.4157 20.3566C83.7519 20.3566 83.2146 20.9003 83.2146 21.5577V22.6704C83.2146 23.3278 83.7519 23.8715 84.4157 23.8715C85.56 23.8715 86.0278 24.6807 85.4525 25.6732C85.1238 26.2421 85.3197 26.9818 85.895 27.3105L86.9887 27.9364C87.4881 28.2335 88.1329 28.0565 88.43 27.5571L88.4996 27.437C89.0748 26.4444 90.0105 26.4444 90.5794 27.437L90.649 27.5571C90.9461 28.0565 91.5909 28.2335 92.0903 27.9364L93.184 27.3105C93.7593 26.9818 93.9552 26.2485 93.6265 25.6732C93.0512 24.6807 93.519 23.8715 94.6633 23.8715C95.327 23.8715 95.8644 23.3278 95.8644 22.6704V21.5577C95.8644 20.894 95.3207 20.3566 94.6633 20.3566C93.519 20.3566 93.0512 19.5474 93.6265 18.5549C93.9552 17.986 93.7593 17.2463 93.184 16.9176L92.0903 16.2917C91.5909 15.9946 90.9461 16.1716 90.649 16.671L90.5794 16.7912C90.0041 17.7837 89.0685 17.7837 88.4996 16.7912L88.43 16.671C88.1329 16.1716 87.4881 15.9946 86.9887 16.2917L85.895 16.9176C85.3197 17.2463 85.1238 17.986 85.4525 18.5549C86.0278 19.5474 85.56 20.3566 84.4157 20.3566ZM87.4818 22.1153C87.4818 23.25 88.4016 24.1699 89.5363 24.1699C90.671 24.1699 91.5909 23.25 91.5909 22.1153C91.5909 20.9806 90.671 20.0607 89.5363 20.0607C88.4016 20.0607 87.4818 20.9806 87.4818 22.1153Z" fill="white"/>
</svg>
