<svg width="28" height="28" viewBox="0 0 28 28" fill="none" xmlns="http://www.w3.org/2000/svg">
<rect x="0.5" y="0.5" width="27" height="27" rx="7.5" stroke="#D0D0D0"/>
<path fill-rule="evenodd" clip-rule="evenodd" d="M10.1664 10.6683C10.1664 8.55496 11.8864 6.83496 13.9997 6.83496C16.113 6.83496 17.833 8.55496 17.833 10.6683C17.833 12.7816 16.113 14.5016 13.9997 14.5016C11.8864 14.5016 10.1664 12.7816 10.1664 10.6683ZM11.1664 10.6683C11.1664 12.2283 12.4397 13.5016 13.9997 13.5016C15.5597 13.5016 16.833 12.2283 16.833 10.6683C16.833 9.10829 15.5597 7.83496 13.9997 7.83496C12.4397 7.83496 11.1664 9.10829 11.1664 10.6683Z" fill="#B0B0B0"/>
<path d="M7.77335 20.6667C7.77335 17.82 10.5667 15.5 14 15.5C14.6733 15.5 15.3333 15.5867 15.9733 15.7667C16.24 15.84 16.3934 16.1133 16.32 16.38C16.2467 16.6467 15.9733 16.8 15.7067 16.7267C15.16 16.5734 14.5867 16.5 14 16.5C11.12 16.5 8.77335 18.3667 8.77335 20.6667C8.77335 20.94 8.54668 21.1667 8.27335 21.1667C8.00001 21.1667 7.77335 20.94 7.77335 20.6667Z" fill="#B0B0B0"/>
<path fill-rule="evenodd" clip-rule="evenodd" d="M15.2937 19.6283C14.9937 19.1483 14.8336 18.5816 14.8336 18.0016C14.8336 17.0283 15.267 16.1283 16.0203 15.5283C16.5803 15.0816 17.287 14.835 18.0003 14.835C19.747 14.835 21.167 16.255 21.167 18.0016C21.167 18.5816 21.007 19.1483 20.707 19.635C20.5403 19.915 20.327 20.1683 20.0736 20.3816C19.5203 20.8883 18.7803 21.1683 18.0003 21.1683C16.8936 21.1683 15.8537 20.5816 15.2937 19.6283ZM16.647 16.3149C16.1336 16.7216 15.8336 17.3416 15.8336 18.0016C15.8336 18.395 15.9403 18.7816 16.147 19.115C16.5336 19.7683 17.247 20.1683 18.0003 20.1683C18.527 20.1683 19.0337 19.975 19.4203 19.6283C19.5937 19.4816 19.7403 19.3083 19.847 19.1216C20.0603 18.7816 20.167 18.395 20.167 18.0016C20.167 16.8083 19.1936 15.835 18.0003 15.835C17.507 15.835 17.0403 16.0016 16.647 16.3149Z" fill="#B0B0B0"/>
<path d="M17.2658 19.0121L16.6058 18.3521C16.4125 18.1588 16.4125 17.8387 16.6058 17.6454C16.7992 17.4521 17.1192 17.4521 17.3125 17.6454L17.6325 17.9654L18.6992 16.9787C18.8992 16.7921 19.2192 16.8054 19.4058 17.0054C19.5925 17.2054 19.5792 17.5254 19.3792 17.7121L17.9592 19.0254C17.8592 19.1121 17.7392 19.1587 17.6192 19.1587C17.4925 19.1587 17.3658 19.1121 17.2658 19.0121Z" fill="#B0B0B0"/>
</svg>
