<svg width="24" height="24" viewBox="0 0 24 24" fill="none" xmlns="http://www.w3.org/2000/svg">
<path fill-rule="evenodd" clip-rule="evenodd" d="M6.24951 7C6.24951 3.83 8.82951 1.25 11.9995 1.25C15.1695 1.25 17.7495 3.83 17.7495 7C17.7495 10.17 15.1695 12.75 11.9995 12.75C8.82951 12.75 6.24951 10.17 6.24951 7ZM7.74951 7C7.74951 9.34 9.65951 11.25 11.9995 11.25C14.3395 11.25 16.2495 9.34 16.2495 7C16.2495 4.66 14.3395 2.75 11.9995 2.75C9.65951 2.75 7.74951 4.66 7.74951 7Z" fill="#404040"/>
<path d="M2.66016 22C2.66016 17.73 6.85015 14.25 12.0002 14.25C13.0102 14.25 14.0001 14.38 14.9601 14.65C15.3601 14.76 15.5902 15.17 15.4802 15.57C15.3702 15.97 14.9601 16.2 14.5602 16.09C13.7402 15.86 12.8802 15.75 12.0002 15.75C7.68015 15.75 4.16016 18.55 4.16016 22C4.16016 22.41 3.82016 22.75 3.41016 22.75C3.00016 22.75 2.66016 22.41 2.66016 22Z" fill="#404040"/>
<path fill-rule="evenodd" clip-rule="evenodd" d="M13.9405 20.44C13.4905 19.72 13.2505 18.87 13.2505 18C13.2505 16.54 13.9005 15.19 15.0305 14.29C15.8705 13.62 16.9305 13.25 18.0005 13.25C20.6205 13.25 22.7505 15.38 22.7505 18C22.7505 18.87 22.5105 19.72 22.0605 20.45C21.8105 20.87 21.4905 21.25 21.1105 21.57C20.2805 22.33 19.1705 22.75 18.0005 22.75C16.3405 22.75 14.7805 21.87 13.9405 20.44ZM15.9705 15.47C15.2005 16.08 14.7505 17.01 14.7505 18C14.7505 18.59 14.9105 19.17 15.2205 19.67C15.8005 20.65 16.8705 21.25 18.0005 21.25C18.7905 21.25 19.5505 20.96 20.1305 20.44C20.3905 20.22 20.6105 19.96 20.7705 19.68C21.0905 19.17 21.2505 18.59 21.2505 18C21.2505 16.21 19.7905 14.75 18.0005 14.75C17.2605 14.75 16.5605 15 15.9705 15.47Z" fill="#404040"/>
<path d="M16.8989 19.5196L15.9089 18.5296C15.6189 18.2396 15.6189 17.7595 15.9089 17.4695C16.1989 17.1795 16.6789 17.1795 16.9689 17.4695L17.4489 17.9496L19.0489 16.4695C19.3489 16.1895 19.8289 16.2096 20.1089 16.5096C20.3889 16.8096 20.3689 17.2896 20.0689 17.5696L17.9389 19.5396C17.7889 19.6696 17.6089 19.7396 17.4289 19.7396C17.2389 19.7396 17.0489 19.6696 16.8989 19.5196Z" fill="#404040"/>
</svg>
