<svg width="30" height="30" fill="none" xmlns="http://www.w3.org/2000/svg"><path fill-rule="evenodd" clip-rule="evenodd" d="M10.508 11.096A4.498 4.498 0 0 1 15 6.604a4.498 4.498 0 0 1 4.492 4.492A4.498 4.498 0 0 1 15 15.588a4.498 4.498 0 0 1-4.492-4.492Zm1.171 0a3.328 3.328 0 0 0 3.32 3.32 3.328 3.328 0 0 0 3.321-3.32A3.328 3.328 0 0 0 15 7.776a3.328 3.328 0 0 0-3.32 3.32Z" fill="#6A7483"/><path d="M7.703 22.813c0-3.336 3.274-6.055 7.297-6.055.79 0 1.563.101 2.313.312a.582.582 0 0 1 .406.72.582.582 0 0 1-.719.405 7.396 7.396 0 0 0-2-.265c-3.375 0-6.125 2.187-6.125 4.883a.59.59 0 0 1-.586.585.59.59 0 0 1-.586-.585Z" fill="#6A7483"/><path fill-rule="evenodd" clip-rule="evenodd" d="M16.516 21.596a3.604 3.604 0 0 1-.54-1.907c0-1.14.509-2.195 1.391-2.898a3.714 3.714 0 0 1 6.031 2.898 3.65 3.65 0 0 1-.538 1.915 3.45 3.45 0 0 1-.742.875 3.588 3.588 0 0 1-2.43.921 3.689 3.689 0 0 1-3.172-1.804Zm1.586-3.883a2.518 2.518 0 0 0-.586 3.281 2.534 2.534 0 0 0 2.172 1.235c.617 0 1.21-.227 1.664-.633a2.25 2.25 0 0 0 .5-.594 2.46 2.46 0 0 0 .375-1.313c0-1.398-1.14-2.539-2.54-2.539-.577 0-1.124.196-1.585.563Z" fill="#6A7483"/><path d="m18.827 20.875-.773-.773a.59.59 0 0 1 0-.828.59.59 0 0 1 .828 0l.375.375 1.25-1.156a.59.59 0 0 1 .828.03.59.59 0 0 1-.031.829l-1.664 1.54a.612.612 0 0 1-.399.155.58.58 0 0 1-.414-.172Z" fill="#6A7483"/><rect x=".469" y=".469" width="29.063" height="29.063" rx="7.531" stroke="#EAEBED" stroke-width=".938"/></svg>