<svg width="104" height="80" viewBox="0 0 104 80" fill="none" xmlns="http://www.w3.org/2000/svg">
<rect opacity="0.3" x="23.978" y="23.1562" width="79.0549" height="48.7106" rx="5.58974" fill="#C7D2FC"/>
<rect x="7.18701" y="15.1719" width="88.6374" height="48.7106" rx="5.58974" fill="#C7D2FC"/>
<path d="M30.2611 20.2709C28.5423 19.7709 27.3548 19.8125 26.5319 20.4271C25.5423 21.1667 25.4277 22.5 25.4277 23.448V26.0417C25.4277 28.6042 26.5944 29.9063 28.8861 29.9063H31.8757C32.8132 29.9063 34.1569 29.7917 34.8965 28.8021C35.5319 27.9896 35.584 26.8021 35.0736 25.0834C34.4069 22.823 32.5215 20.9375 30.2611 20.2709Z" fill="white"/>
<path opacity="0.4" d="M31.1245 31.2714H27.3953C25.562 31.2714 24.0724 29.7818 24.0724 27.9484V24.2193C24.0724 23.813 23.8953 23.4172 23.5828 23.1464C23.2807 22.8755 22.864 22.7505 22.4682 22.8026C20.0203 23.1151 17.7703 24.4589 16.3016 26.4797C14.8224 28.5109 14.2807 30.9901 14.7495 33.4693C15.4266 37.0526 18.2911 39.9172 21.8849 40.5943C22.4578 40.7089 23.0307 40.7609 23.6036 40.7609C25.489 40.7609 27.312 40.1776 28.864 39.0422C30.8849 37.5734 32.2286 35.3234 32.5411 32.8755C32.5932 32.4693 32.4682 32.063 32.1974 31.7609C31.9265 31.4484 31.5307 31.2714 31.1245 31.2714Z" fill="white"/>
<rect x="42.5" y="21.8457" width="42" height="35" rx="5.58974" fill="#F6F8FF" fill-opacity="0.8"/>
<rect x="13.5" y="44.8457" width="25" height="3" rx="1.5" fill="#F6F8FF" fill-opacity="0.5"/>
<rect x="13.5" y="50.8457" width="16" height="3" rx="1.5" fill="#F6F8FF" fill-opacity="0.3"/>
<rect x="49.5" y="38.8457" width="8" height="13" rx="1.59" fill="#C7D2FC"/>
<rect x="59.5" y="33.8457" width="8" height="18" rx="1.59" fill="#C7D2FC"/>
<rect x="69.5" y="26.8457" width="8" height="25" rx="1.59" fill="#C7D2FC"/>
<path d="M89.2001 29.6004C95.6066 29.6004 100.8 24.4069 100.8 18.0004C100.8 11.5939 95.6066 6.40039 89.2001 6.40039C82.7936 6.40039 77.6001 11.5939 77.6001 18.0004C77.6001 24.4069 82.7936 29.6004 89.2001 29.6004Z" fill="#A1B5FA"/>
<path d="M93.9358 14.7804L93.5189 16.2537H85.6987L86.1165 14.7804H93.9358ZM90.1304 24.0617L85.8594 18.8782L85.8482 17.7151H87.9654C88.4943 17.7151 88.942 17.6336 89.3076 17.4705C89.6733 17.3075 89.9519 17.0709 90.1424 16.7607C90.3338 16.4466 90.4286 16.0648 90.4286 15.6155C90.4286 14.9475 90.2304 14.4165 89.8322 14.0228C89.4349 13.6292 88.8121 13.4324 87.9654 13.4324H85.6987L86.1345 11.8457H87.9654C88.9514 11.8457 89.7647 12.0028 90.4047 12.317C91.0455 12.631 91.5222 13.0665 91.8366 13.6232C92.151 14.18 92.3074 14.8222 92.3074 15.5499C92.3074 16.198 92.1784 16.7846 91.9203 17.3095C91.6615 17.8344 91.2497 18.2619 90.6849 18.5919C90.121 18.922 89.3794 19.1149 88.4601 19.1705L88.4071 19.1825L92.3074 23.9603V24.0617H90.1304ZM93.9418 11.8457L93.5189 13.331L87.2674 13.2952L87.6912 11.8457H93.9418Z" fill="white"/>
</svg>
