<svg width="18" height="19" fill="none" xmlns="http://www.w3.org/2000/svg"><path fill-rule="evenodd" clip-rule="evenodd" d="M3.618 6.556a2.162 2.162 0 1 0 1.69-3.98 2.162 2.162 0 0 0-1.69 3.98ZM3.11 7.752A3.462 3.462 0 1 0 5.815 1.38 3.462 3.462 0 0 0 3.11 7.752Zm11.354-6.277a.65.65 0 0 1 .12.911L3.404 16.962a.65.65 0 0 1-1.031-.791l11.18-14.576a.65.65 0 0 1 .911-.12Zm.561 12.088a2.162 2.162 0 1 1-3.98-1.69 2.162 2.162 0 0 1 3.98 1.69Zm1.197.508a3.462 3.462 0 1 1-6.373-2.705 3.462 3.462 0 0 1 6.373 2.705Z" fill="#6A7483"/></svg>