<svg width="21" height="20" viewBox="0 0 21 20" fill="none" xmlns="http://www.w3.org/2000/svg">
<path fill-rule="evenodd" clip-rule="evenodd" d="M6.38792 11.4884C6.38792 13.0288 7.63815 14.2791 9.17862 14.2791H12.1554C13.6958 14.2791 14.9461 13.0288 14.9461 11.4884V8.51163C14.9461 6.97116 13.6958 5.72093 12.1554 5.72093H9.17862C7.63815 5.72093 6.38792 6.97116 6.38792 8.51163V11.4884ZM13.8298 8.51163V9.44186H11.2251V6.83721H12.1554C13.0782 6.83721 13.8298 7.58884 13.8298 8.51163ZM13.8298 10.5581H11.2251V13.1628H12.1554C13.0782 13.1628 13.8298 12.4112 13.8298 11.4884V10.5581ZM10.1089 6.83721V9.44186H7.5042V8.51163C7.5042 7.58884 8.25583 6.83721 9.17862 6.83721H10.1089ZM10.1089 10.5581H7.5042V11.4884C7.5042 12.4112 8.25583 13.1628 9.17862 13.1628H10.1089V10.5581Z" fill="#937962"/>
<path fill-rule="evenodd" clip-rule="evenodd" d="M2.66699 12.2326C2.66699 16.2735 4.3935 18 8.43443 18H12.8996C16.9405 18 18.667 16.2735 18.667 12.2326V7.76744C18.667 3.72651 16.9405 2 12.8996 2H8.43443C4.3935 2 2.66699 3.72651 2.66699 7.76744V12.2326ZM3.78327 12.2326V7.76744C3.78327 4.33674 5.00374 3.11628 8.43443 3.11628H12.8996C16.3302 3.11628 17.5507 4.33674 17.5507 7.76744V12.2326C17.5507 15.6633 16.3302 16.8837 12.8996 16.8837H8.43443C5.00374 16.8837 3.78327 15.6633 3.78327 12.2326Z" fill="#937962"/>
</svg>
