<svg width="14" height="14" viewBox="0 0 14 14" fill="none" xmlns="http://www.w3.org/2000/svg">
<g id="vuesax/outline/receive-square">
<g id="receive-square">
<path id="Vector" fill-rule="evenodd" clip-rule="evenodd" d="M5.37467 12.8231C2.43342 12.8231 1.17676 11.5664 1.17676 8.62516V5.37516C1.17676 2.43391 2.43342 1.17725 5.37467 1.17725H8.62467C11.5659 1.17725 12.8226 2.43391 12.8226 5.37516V8.62516C12.8226 11.5664 11.5659 12.8231 8.62467 12.8231H5.37467ZM1.98926 5.37516V8.62516C1.98926 11.1222 2.87759 12.0106 5.37467 12.0106H8.62467C11.1218 12.0106 12.0101 11.1222 12.0101 8.62516V5.37516C12.0101 2.87808 11.1218 1.98975 8.62467 1.98975H5.37467C2.87759 1.98975 1.98926 2.87808 1.98926 5.37516Z" fill="white"/>
<g id="Group 735">
<path id="Vector_2" d="M6.71254 3.73869L5.08754 5.36369C4.93046 5.52077 4.93046 5.78077 5.08754 5.93785C5.24462 6.09493 5.50462 6.09493 5.6617 5.93785L6.99962 4.59993L8.33754 5.93785C8.49462 6.09493 8.75462 6.09493 8.9117 5.93785C9.06879 5.78077 9.06879 5.52077 8.9117 5.36369L7.2867 3.73869C7.20545 3.65744 7.10254 3.61952 6.99962 3.61952C6.8967 3.61952 6.79379 3.65744 6.71254 3.73869Z" fill="white"/>
<path id="Vector_3" d="M6.59375 4.02604V8.35938C6.59375 8.58146 6.77792 8.76562 7 8.76562C7.22208 8.76562 7.40625 8.58146 7.40625 8.35938V4.02604C7.40625 3.79854 7.22208 3.61979 7 3.61979C6.77792 3.61979 6.59375 3.80396 6.59375 4.02604Z" fill="white"/>
</g>
</g>
</g>
</svg>
