<svg width="159" height="159" fill="none" xmlns="http://www.w3.org/2000/svg"><circle cx="80" cy="81" r="56" fill="#F2F5F9"/><mask id="a" style="mask-type:luminance" maskUnits="userSpaceOnUse" x="24" y="25" width="112" height="112"><circle cx="80" cy="81" r="56" fill="#fff"/></mask><g mask="url(#a)"><circle cx="80" cy="81" r="56" fill="url(#b)"/></g><g filter="url(#c)"><rect x="36" y="36" width="89" height="72" rx="7" fill="#fff"/></g><g opacity=".5" fill="#BFC4CA"><path d="M60.091 90.221v1.704h2.748v1.584h-2.748v1.848H63.2v1.644h-5.16v-8.424h5.16v1.644h-3.108ZM70.827 97.001l-1.752-3.18h-.492v3.18h-2.052v-8.424h3.444c.664 0 1.228.116 1.692.348.472.232.824.552 1.056.96.232.4.348.848.348 1.344 0 .56-.16 1.06-.48 1.5-.312.44-.776.752-1.392.936l1.944 3.336h-2.316Zm-2.244-4.632h1.272c.376 0 .656-.092.84-.276.192-.184.288-.444.288-.78 0-.32-.096-.572-.288-.756-.184-.184-.464-.276-.84-.276h-1.272v2.088ZM80.655 97.001l-1.752-3.18h-.492v3.18H76.36v-8.424h3.444c.664 0 1.228.116 1.692.348.472.232.824.552 1.056.96.232.4.348.848.348 1.344 0 .56-.16 1.06-.48 1.5-.312.44-.776.752-1.392.936l1.944 3.336h-2.316Zm-2.244-4.632h1.272c.376 0 .656-.092.84-.276.192-.184.288-.444.288-.78 0-.32-.096-.572-.288-.756-.184-.184-.464-.276-.84-.276h-1.272v2.088ZM90.171 97.085a4.43 4.43 0 0 1-2.184-.552 4.197 4.197 0 0 1-1.572-1.536c-.384-.664-.576-1.408-.576-2.232 0-.824.192-1.564.576-2.22a4.197 4.197 0 0 1 1.572-1.536 4.43 4.43 0 0 1 2.184-.552c.792 0 1.516.184 2.172.552.664.368 1.184.88 1.56 1.536.384.656.576 1.396.576 2.22 0 .824-.192 1.568-.576 2.232a4.108 4.108 0 0 1-1.56 1.536 4.363 4.363 0 0 1-2.172.552Zm0-1.872c.672 0 1.208-.224 1.608-.672.409-.448.612-1.04.612-1.776 0-.744-.204-1.336-.612-1.776-.4-.448-.935-.672-1.608-.672-.68 0-1.224.22-1.632.66-.4.44-.6 1.036-.6 1.788 0 .744.2 1.34.6 1.788.409.44.953.66 1.632.66ZM101.917 97.001l-1.752-3.18h-.492v3.18h-2.052v-8.424h3.444c.664 0 1.228.116 1.692.348.472.232.824.552 1.056.96.232.4.348.848.348 1.344 0 .56-.16 1.06-.48 1.5-.312.44-.776.752-1.392.936l1.944 3.336h-2.316Zm-2.244-4.632h1.272c.376 0 .656-.092.84-.276.192-.184.288-.444.288-.78 0-.32-.096-.572-.288-.756-.184-.184-.464-.276-.84-.276h-1.272v2.088Z"/></g><path opacity=".6" d="M36 43a7 7 0 0 1 7-7h75a7 7 0 0 1 7 7v8H36v-8Z" fill="#DFE5F1"/><circle cx="45" cy="44" r="3" fill="#FC6A65"/><circle cx="55" cy="44" r="3" fill="#FFDB4E"/><circle cx="65" cy="44" r="3" fill="#70D78B"/><path opacity=".3" d="M78.638 58.9c.745-1.289 2.605-1.289 3.35 0L92.766 77.57c.744 1.289-.186 2.9-1.675 2.9H69.535c-1.489 0-2.42-1.611-1.675-2.9L78.638 58.9Z" fill="#FC6A65" stroke="#FC6A65" stroke-width="1.5"/><path d="M80.47 65.293v7.602" stroke="#fff" stroke-width="2" stroke-linecap="round"/><path d="M81.316 76.849a.845.845 0 1 1-1.69 0 .845.845 0 0 1 1.69 0Z" fill="#fff" stroke="#fff" stroke-width=".845"/><defs><linearGradient id="b" x1="150.586" y1="137" x2="150.586" y2="-4.172" gradientUnits="userSpaceOnUse"><stop stop-color="#EDEFF7"/><stop offset="1" stop-color="#FBFDFF"/></linearGradient><filter id="c" x="28" y="34" width="105" height="88" filterUnits="userSpaceOnUse" color-interpolation-filters="sRGB"><feFlood flood-opacity="0" result="BackgroundImageFix"/><feColorMatrix in="SourceAlpha" values="0 0 0 0 0 0 0 0 0 0 0 0 0 0 0 0 0 0 127 0" result="hardAlpha"/><feOffset dy="6"/><feGaussianBlur stdDeviation="4"/><feColorMatrix values="0 0 0 0 0.45098 0 0 0 0 0.505882 0 0 0 0 0.72549 0 0 0 0.1586 0"/><feBlend in2="BackgroundImageFix" result="effect1_dropShadow_2877_297179"/><feBlend in="SourceGraphic" in2="effect1_dropShadow_2877_297179" result="shape"/></filter></defs></svg>