<svg width="60" height="60" viewBox="0 0 60 60" fill="none" xmlns="http://www.w3.org/2000/svg">
<g id="Component 7">
<path id="Vector 519" d="M12.7016 37.9555C12.7016 36.7205 14.0588 35.2208 14.4736 34.0294C15.3616 31.4782 15.9376 28.2643 15.5893 25.5502C15.5329 25.1108 15.1035 23.1969 14.4736 24.4284C13.4935 26.3444 12.9923 28.6911 12.4719 30.7631C11.8787 33.1249 11.6809 36.3145 12.8657 38.5164C13.8102 40.2719 14.5595 38.0515 15.0642 37.0647C15.4035 36.4014 16.2791 33.7642 17.1972 33.7984C18.3347 33.8408 19.9276 35.3607 20.8068 36.0089C23.6481 38.1039 22.8237 28.4984 25.8602 30.862C26.7147 31.5272 27.8089 32.8159 29.0432 32.4787C30.1614 32.1732 30.4305 30.8529 31.1597 30.1197C31.997 29.2778 33.9482 29.5896 34.999 29.6578C37.2417 29.8033 38.6855 30.228 40.6103 28.7175C41.7702 27.8073 43.3124 25.6772 44.8926 25.5007C46.4153 25.3306 47.9276 25.6169 48.7319 23.9995" stroke="#A1B5FA" stroke-width="2.39556" stroke-linecap="round"/>
</g>
</svg>
