<svg width="64" height="64" viewBox="0 0 64 64" fill="none" xmlns="http://www.w3.org/2000/svg">
<rect width="64" height="64" rx="12" fill="url(#paint0_linear_14356_10048)"/>
<path d="M14.7016 39.9555C14.7016 38.7205 16.0588 37.2208 16.4736 36.0294C17.3616 33.4782 17.9376 30.2643 17.5893 27.5502C17.5329 27.1108 17.1035 25.1969 16.4736 26.4284C15.4935 28.3444 14.9923 30.6911 14.4719 32.7631C13.8787 35.1249 13.6809 38.3145 14.8657 40.5164C15.8102 42.2719 16.5595 40.0515 17.0642 39.0647C17.4035 38.4014 18.2791 35.7642 19.1972 35.7984C20.3347 35.8408 21.9276 37.3607 22.8068 38.0089C25.6481 40.1039 24.8237 30.4984 27.8602 32.862C28.7147 33.5272 29.8089 34.8159 31.0432 34.4787C32.1614 34.1732 32.4305 32.8529 33.1597 32.1197C33.997 31.2778 35.9482 31.5896 36.999 31.6578C39.2417 31.8033 40.6855 32.228 42.6103 30.7175C43.7702 29.8073 45.3124 27.6772 46.8926 27.5007C48.4153 27.3306 49.9276 27.6169 50.7319 25.9995" stroke="#436AF5" stroke-width="2.39556" stroke-linecap="round"/>
<defs>
<linearGradient id="paint0_linear_14356_10048" x1="32" y1="0" x2="32" y2="64" gradientUnits="userSpaceOnUse">
<stop stop-color="#404040"/>
<stop offset="1" stop-color="#292929"/>
</linearGradient>
</defs>
</svg>
