<svg width="20" height="20" viewBox="0 0 20 20" fill="none" xmlns="http://www.w3.org/2000/svg">
<path fill-rule="evenodd" clip-rule="evenodd" d="M5.83219 17.7077C2.79053 17.7077 1.04053 15.9577 1.04053 12.916V7.08268C1.04053 4.04102 2.79053 2.29102 5.83219 2.29102H14.1655C17.2072 2.29102 18.9572 4.04102 18.9572 7.08268V12.916C18.9572 15.9577 17.2072 17.7077 14.1655 17.7077H5.83219ZM2.29053 7.08268V12.916C2.29053 15.2993 3.44886 16.4577 5.83219 16.4577H14.1655C16.5489 16.4577 17.7072 15.2993 17.7072 12.916V7.08268C17.7072 4.69935 16.5489 3.54102 14.1655 3.54102H5.83219C3.44886 3.54102 2.29053 4.69935 2.29053 7.08268Z" fill="#436AF5"/>
<path d="M8.05047 10.0657L5.44213 7.98233C5.17546 7.76567 5.12547 7.374 5.34214 7.10733C5.5588 6.84066 5.95047 6.79067 6.21714 7.00733L8.82546 9.09067C9.4588 9.599 10.5338 9.599 11.1671 9.09067L13.7755 7.00733C14.0421 6.79067 14.4421 6.83233 14.6505 7.10733C14.8671 7.374 14.8255 7.774 14.5505 7.98233L11.9421 10.0657C11.4088 10.5073 10.7005 10.724 10.0005 10.724C9.30047 10.724 8.59214 10.5073 8.05047 10.0657Z" fill="#436AF5"/>
</svg>
