<svg width="24" height="24" viewBox="0 0 24 24" fill="none" xmlns="http://www.w3.org/2000/svg">
<path fill-rule="evenodd" clip-rule="evenodd" d="M1.49805 12C1.49805 6.07 6.31805 1.25 12.248 1.25C18.178 1.25 22.998 6.07 22.998 12C22.998 17.93 18.178 22.75 12.248 22.75C6.31805 22.75 1.49805 17.93 1.49805 12ZM2.99805 12C2.99805 17.1 7.14805 21.25 12.248 21.25C17.348 21.25 21.498 17.1 21.498 12C21.498 6.9 17.348 2.75 12.248 2.75C7.14805 2.75 2.99805 6.9 2.99805 12Z" fill="#449C47"/>
<path d="M10.2975 15.3616L7.4675 12.5316C7.1775 12.2416 7.1775 11.7616 7.4675 11.4716C7.7575 11.1816 8.2375 11.1816 8.5275 11.4716L10.8275 13.7716L15.9675 8.63156C16.2575 8.34156 16.7375 8.34156 17.0275 8.63156C17.3175 8.92156 17.3175 9.40156 17.0275 9.69156L11.3575 15.3616C11.2175 15.5016 11.0275 15.5816 10.8275 15.5816C10.6275 15.5816 10.4375 15.5016 10.2975 15.3616Z" fill="#449C47"/>
</svg>
