<svg width="17" height="16" viewBox="0 0 17 16" fill="none" xmlns="http://www.w3.org/2000/svg">
<path fill-rule="evenodd" clip-rule="evenodd" d="M0.666992 8C0.666992 3.58698 4.25397 0 8.66699 0C13.08 0 16.667 3.58698 16.667 8C16.667 12.413 13.08 16 8.66699 16C4.25397 16 0.666992 12.413 0.666992 8ZM1.78327 8C1.78327 11.7953 4.87164 14.8837 8.66699 14.8837C12.4623 14.8837 15.5507 11.7953 15.5507 8C15.5507 4.20465 12.4623 1.11628 8.66699 1.11628C4.87164 1.11628 1.78327 4.20465 1.78327 8Z" fill="#B89C00"/>
<path d="M11.1457 10.8428L8.83869 9.46606C8.26566 9.12374 7.84148 8.37211 7.84148 7.70978V4.65862C7.84148 4.3535 8.0945 4.10048 8.39962 4.10048C8.70473 4.10048 8.95776 4.3535 8.95776 4.65862V7.70978C8.95776 7.97769 9.18101 8.37211 9.41171 8.50606L11.7187 9.88281C11.9866 10.0391 12.0685 10.3814 11.9122 10.6493C11.8005 10.8279 11.6145 10.9247 11.4285 10.9247C11.3317 10.9247 11.235 10.9023 11.1457 10.8428Z" fill="#B89C00"/>
</svg>
