<svg width="51" height="50" viewBox="0 0 51 50" fill="none" xmlns="http://www.w3.org/2000/svg">
<g id="Component 7">
<g id="Group 39939">
<g id="Group 39932">
<path id="Rectangle 2493" d="M10.5508 3.49854V39.4933C10.5508 40.0668 11.0157 40.5318 11.5892 40.5318H45.3605" stroke="#A1B5FA" stroke-width="1.03846" stroke-linecap="round"/>
<path id="Rectangle 2494" d="M40.5679 45.4985V10.4432C40.5679 9.86971 40.1029 9.40477 39.5294 9.40477H5.75818" stroke="#A1B5FA" stroke-width="1.03846" stroke-linecap="round"/>
</g>
<g id="Group 39938">
<path id="Subtract" fill-rule="evenodd" clip-rule="evenodd" d="M29.4312 13.9282L36.0913 20.5884V33.166C36.0913 34.3131 35.1614 35.243 34.0144 35.243H18.1857C17.0386 35.243 16.1087 34.3131 16.1087 33.166V16.0051C16.1087 14.8581 17.0386 13.9282 18.1857 13.9282H29.4312Z" fill="#436AF5"/>
<path id="Rectangle 2496" d="M29.4307 13.9282L36.0915 20.5891H30.4691C29.8956 20.5891 29.4307 20.1241 29.4307 19.5506V13.9282Z" fill="#C7D2FC"/>
<path id="Line 82" d="M30.7622 29.9126H21.437" stroke="white" stroke-width="2.07692" stroke-linecap="round"/>
<path id="Line 83" d="M26.7666 25.0767L21.4379 25.0767" stroke="white" stroke-width="2.07692" stroke-linecap="round"/>
</g>
</g>
</g>
</svg>
