<svg width="66" height="45" viewBox="0 0 66 45" fill="none" xmlns="http://www.w3.org/2000/svg">
<g opacity="0.2">
<rect x="22.6479" y="0.951172" width="44.8814" height="32.5924" rx="4.20834" transform="rotate(15 22.6479 0.951172)" fill="url(#paint0_linear_3919_181339)"/>
<path d="M33.6626 12.447L32.9314 13.6841L25.9605 11.8162L26.697 10.5806L33.6626 12.447ZM28.0421 19.4076L25.5163 14.1256L25.8146 12.9913L27.6321 13.4783C28.0664 13.5947 28.4476 13.6221 28.7756 13.5605C29.1081 13.4964 29.3838 13.357 29.6027 13.1422C29.8261 12.9249 29.9843 12.6428 30.0773 12.2958C30.2167 11.7753 30.1713 11.3146 29.9408 10.9138C29.7104 10.5129 29.2485 10.2196 28.5551 10.0338L26.5799 9.50456L27.4122 8.03752L28.9776 8.45698C29.8601 8.69345 30.5548 9.02178 31.0615 9.44197C31.5727 9.8597 31.9076 10.3469 32.0662 10.9035C32.2283 11.4611 32.2233 12.0613 32.051 12.7043C31.8988 13.2725 31.6561 13.7507 31.3231 14.1392C30.99 14.5276 30.5558 14.8032 30.0205 14.966C29.4852 15.1289 28.8335 15.1585 28.0655 15.0548L27.997 15.0583L30.2573 19.9027L30.2327 19.9946L28.0421 19.4076ZM34.3568 9.89833L33.6096 11.153L27.9627 9.61802L28.7045 8.38379L34.3568 9.89833Z" fill="white"/>
<rect x="51.7749" y="14.5645" width="8.41526" height="6.0109" rx="3.00545" transform="rotate(15 51.7749 14.5645)" fill="white"/>
</g>
<rect y="11.4219" width="44.8814" height="32.5924" rx="4.20834" fill="url(#paint1_linear_3919_181339)"/>
<path fill-rule="evenodd" clip-rule="evenodd" d="M6.96528 20.875C6.65111 20.875 6.39258 20.6165 6.39258 20.3023V19.2158C6.39258 18.9933 6.54638 18.7675 6.75256 18.6856L9.6979 17.5075C9.82226 17.4584 9.99899 17.4584 10.1234 17.5075L13.0687 18.6856C13.2749 18.7675 13.4287 18.9965 13.4287 19.2158V20.3023C13.4287 20.6165 13.1701 20.875 12.856 20.875H6.96528ZM9.87791 17.9624L6.93582 19.1405C6.91619 19.1504 6.88347 19.1929 6.88347 19.2158V20.3023C6.88347 20.3481 6.91947 20.3841 6.96528 20.3841H12.856C12.9018 20.3841 12.9378 20.3481 12.9378 20.3023V19.2158C12.9378 19.1929 12.9083 19.1504 12.8854 19.1405L9.94009 17.9624C9.93354 17.9591 9.92371 17.9591 9.91062 17.9591C9.89753 17.9591 9.88445 17.9591 9.87791 17.9624Z" fill="white"/>
<path fill-rule="evenodd" clip-rule="evenodd" d="M6.63802 24.4738C6.50385 24.4738 6.39258 24.3625 6.39258 24.2283V23.2465C6.39258 22.9324 6.65111 22.6738 6.96528 22.6738H12.856C13.1701 22.6738 13.4287 22.9324 13.4287 23.2465V24.2283C13.4287 24.3625 13.3174 24.4738 13.1832 24.4738H6.63802ZM12.9378 23.9829V23.2465C12.9378 23.2007 12.9018 23.1647 12.856 23.1647H6.96528C6.91947 23.1647 6.88347 23.2007 6.88347 23.2465V23.9829H12.9378Z" fill="white"/>
<path d="M7.04688 22.921V20.6302C7.04688 20.496 7.15814 20.3848 7.29232 20.3848C7.4265 20.3848 7.53776 20.496 7.53776 20.6302V22.921C7.53776 23.0552 7.4265 23.1665 7.29232 23.1665C7.15814 23.1665 7.04688 23.0552 7.04688 22.921Z" fill="white"/>
<path d="M8.35596 22.921V20.6302C8.35596 20.496 8.46723 20.3848 8.6014 20.3848C8.73558 20.3848 8.84685 20.496 8.84685 20.6302V22.921C8.84685 23.0552 8.73558 23.1665 8.6014 23.1665C8.46723 23.1665 8.35596 23.0552 8.35596 22.921Z" fill="white"/>
<path d="M9.66553 22.921V20.6302C9.66553 20.496 9.7768 20.3848 9.91097 20.3848C10.0451 20.3848 10.1564 20.496 10.1564 20.6302V22.921C10.1564 23.0552 10.0451 23.1665 9.91097 23.1665C9.7768 23.1665 9.66553 23.0552 9.66553 22.921Z" fill="white"/>
<path d="M10.9736 22.921V20.6302C10.9736 20.496 11.0849 20.3848 11.2191 20.3848C11.3533 20.3848 11.4645 20.496 11.4645 20.6302V22.921C11.4645 23.0552 11.3533 23.1665 11.2191 23.1665C11.0849 23.1665 10.9736 23.0552 10.9736 22.921Z" fill="white"/>
<path d="M12.2832 22.921V20.6302C12.2832 20.496 12.3945 20.3848 12.5286 20.3848C12.6628 20.3848 12.7741 20.496 12.7741 20.6302V22.921C12.7741 23.0552 12.6628 23.1665 12.5286 23.1665C12.3945 23.1665 12.2832 23.0552 12.2832 22.921Z" fill="white"/>
<path d="M6.31087 24.4753C6.1767 24.4753 6.06543 24.364 6.06543 24.2298C6.06543 24.0956 6.1767 23.9844 6.31087 23.9844H13.5106C13.6448 23.9844 13.756 24.0956 13.756 24.2298C13.756 24.364 13.6448 24.4753 13.5106 24.4753H6.31087Z" fill="white"/>
<path fill-rule="evenodd" clip-rule="evenodd" d="M9.17432 19.3184C9.17432 18.9126 9.50485 18.582 9.91065 18.582C10.3165 18.582 10.647 18.9126 10.647 19.3184C10.647 19.7242 10.3165 20.0547 9.91065 20.0547C9.50485 20.0547 9.17432 19.7242 9.17432 19.3184ZM9.66521 19.3184C9.66521 19.4525 9.77647 19.5638 9.91065 19.5638C10.0448 19.5638 10.1561 19.4525 10.1561 19.3184C10.1561 19.1842 10.0448 19.0729 9.91065 19.0729C9.77647 19.0729 9.66521 19.1842 9.66521 19.3184Z" fill="white"/>
<path opacity="0.01" fill-rule="evenodd" clip-rule="evenodd" d="M13.8376 17.0293V24.8835H5.9834V17.0293H13.8376Z" fill="white"/>
<path opacity="0.56" d="M37.3937 18.9488L37.1282 19.9536H32.165L32.4343 18.9488H37.3937ZM34.8991 24.8855L32.281 21.6564L32.2772 20.805H33.5713C33.8805 20.805 34.1386 20.7526 34.3455 20.6477C34.555 20.5403 34.7133 20.3908 34.8205 20.199C34.9302 20.0047 34.9851 19.7772 34.9851 19.5164C34.9851 19.1252 34.8729 18.8107 34.6485 18.573C34.4241 18.3352 34.065 18.2163 33.5713 18.2163H32.165L32.4568 17.0312H33.5713C34.1997 17.0312 34.7195 17.131 35.1309 17.3304C35.5449 17.5273 35.854 17.8059 36.0585 18.1664C36.2655 18.5269 36.3689 18.9488 36.3689 19.432C36.3689 19.859 36.2929 20.2399 36.1408 20.5749C35.9887 20.9098 35.7493 21.1846 35.4227 21.3994C35.096 21.6142 34.6684 21.7573 34.1398 21.8289L34.0949 21.8443L36.4587 24.8165V24.8855H34.8991ZM37.4012 17.0312L37.1282 18.0514L33.1038 18.036L33.3768 17.0312H37.4012Z" fill="white"/>
<defs>
<linearGradient id="paint0_linear_3919_181339" x1="41.4544" y1="7.51118" x2="67.3576" y2="32.7047" gradientUnits="userSpaceOnUse">
<stop stop-color="#FFCC02"/>
<stop offset="1" stop-color="white" stop-opacity="0.39"/>
</linearGradient>
<linearGradient id="paint1_linear_3919_181339" x1="18.8065" y1="17.9819" x2="44.7097" y2="43.1754" gradientUnits="userSpaceOnUse">
<stop stop-color="#FFCC02"/>
<stop offset="1" stop-color="white" stop-opacity="0.39"/>
</linearGradient>
</defs>
</svg>
