<svg xmlns="http://www.w3.org/2000/svg" width="16" height="16" viewBox="0 0 17 16" fill="none">
  <path fill-rule="evenodd" clip-rule="evenodd" d="M0.837646 7.66659C0.837646 3.89992 3.92264 0.833252 7.71182 0.833252C11.501 0.833252 14.586 3.89992 14.586 7.66659C14.586 11.4333 11.501 14.4999 7.71182 14.4999C3.92264 14.4999 0.837646 11.4333 0.837646 7.66659ZM1.84362 7.66659C1.84362 10.8799 4.47257 13.4999 7.71182 13.4999C10.9511 13.4999 13.58 10.8799 13.58 7.66659C13.58 4.45325 10.9511 1.83325 7.71182 1.83325C4.47257 1.83325 1.84362 4.45325 1.84362 7.66659Z" fill="#959CA6"/>
  <path d="M14.3998 15.0197L13.0585 13.6864C12.864 13.4931 12.864 13.1731 13.0585 12.9797C13.253 12.7864 13.5749 12.7864 13.7694 12.9797L15.1107 14.3131C15.3052 14.5064 15.3052 14.8264 15.1107 15.0197C15.0101 15.1197 14.8827 15.1664 14.7553 15.1664C14.6278 15.1664 14.5004 15.1197 14.3998 15.0197Z" fill="#959CA6"/>
  <path opacity="0.01" fill-rule="evenodd" clip-rule="evenodd" d="M16.0956 0V16H0V0H16.0956Z" fill="#959CA6"/>
</svg>