<svg width="12" height="12" viewBox="0 0 12 12" fill="none" xmlns="http://www.w3.org/2000/svg">
<path fill-rule="evenodd" clip-rule="evenodd" d="M1 6C1 3.24302 3.24302 1 6 1C8.75698 1 11 3.24302 11 6C11 8.75698 8.75698 11 6 11C3.24302 11 1 8.75698 1 6ZM10.25 6C10.25 3.64835 8.35165 1.75 6 1.75C3.64835 1.75 1.75 3.64835 1.75 6C1.75 8.35165 3.64835 10.25 6 10.25C8.35165 10.25 10.25 8.35165 10.25 6ZM6 3.5C5.72386 3.5 5.5 3.72386 5.5 4C5.5 4.27614 5.72386 4.5 6 4.5C6.27614 4.5 6.5 4.27614 6.5 4C6.5 3.72386 6.27614 3.5 6 3.5ZM5.625 5.625C5.62203 5.41808 5.78723 5.24786 5.99414 5.24463C6.09554 5.24304 6.19326 5.28259 6.26502 5.35426C6.33678 5.42592 6.37645 5.5236 6.375 5.625V8.375C6.37691 8.51024 6.30586 8.63603 6.18905 8.70421C6.07224 8.77239 5.92776 8.77239 5.81095 8.70421C5.69414 8.63603 5.62309 8.51024 5.625 8.375V5.625Z" fill="#949CA6"/>
</svg>
