<svg width="21" height="21" viewBox="0 0 21 21" fill="none" xmlns="http://www.w3.org/2000/svg">
<path fill-rule="evenodd" clip-rule="evenodd" d="M8.0345 19.5734C3.50951 19.5734 1.57617 17.6401 1.57617 13.1151V8.11507C1.57617 3.59007 3.50951 1.65674 8.0345 1.65674H13.0345C17.5595 1.65674 19.4928 3.59007 19.4928 8.11507V13.1151C19.4928 17.6401 17.5595 19.5734 13.0345 19.5734H8.0345ZM2.82617 8.11507V13.1151C2.82617 16.9567 4.19284 18.3234 8.0345 18.3234H13.0345C16.8762 18.3234 18.2428 16.9567 18.2428 13.1151V8.11507C18.2428 4.2734 16.8762 2.90674 13.0345 2.90674H8.0345C4.19284 2.90674 2.82617 4.2734 2.82617 8.11507Z" fill="#6A7483"/>
<path d="M9.04258 13.9987C8.80091 13.757 8.80091 13.357 9.04258 13.1154L11.5426 10.6154L9.04258 8.11536C8.80091 7.8737 8.80091 7.4737 9.04258 7.23203C9.28424 6.99036 9.68424 6.99036 9.92591 7.23203L12.8676 10.1737C13.1092 10.4154 13.1092 10.8154 12.8676 11.057L9.92591 13.9987C9.80091 14.1237 9.64258 14.182 9.48424 14.182C9.32591 14.182 9.16758 14.1237 9.04258 13.9987Z" fill="#6A7483"/>
</svg>