<svg width="21" height="21" viewBox="0 0 21 21" fill="none" xmlns="http://www.w3.org/2000/svg">
<path fill-rule="evenodd" clip-rule="evenodd" d="M13.0358 19.5734C17.5608 19.5734 19.4941 17.6401 19.4941 13.1151V8.11507C19.4941 3.59007 17.5608 1.65674 13.0358 1.65674H8.03581C3.51081 1.65674 1.57747 3.59007 1.57747 8.11507V13.1151C1.57747 17.6401 3.51081 19.5734 8.03581 19.5734H13.0358ZM18.2441 8.11507V13.1151C18.2441 16.9567 16.8775 18.3234 13.0358 18.3234H8.03581C4.19414 18.3234 2.82747 16.9567 2.82747 13.1151V8.11507C2.82747 4.2734 4.19414 2.90674 8.03581 2.90674H13.0358C16.8775 2.90674 18.2441 4.2734 18.2441 8.11507Z" fill="#BFC4CA"/>
<path d="M12.0277 13.9987C12.2694 13.757 12.2694 13.357 12.0277 13.1154L9.52773 10.6154L12.0277 8.11536C12.2694 7.8737 12.2694 7.4737 12.0277 7.23203C11.7861 6.99036 11.3861 6.99036 11.1444 7.23203L8.20273 10.1737C7.96107 10.4154 7.96107 10.8154 8.20273 11.057L11.1444 13.9987C11.2694 14.1237 11.4277 14.182 11.5861 14.182C11.7444 14.182 11.9027 14.1237 12.0277 13.9987Z" fill="#BFC4CA"/>
</svg>
