<svg width="14" height="14" viewBox="0 0 14 14" fill="none" xmlns="http://www.w3.org/2000/svg">
<path d="M4.23145 2.91211V1.16211C4.23145 0.922943 4.42978 0.724609 4.66895 0.724609C4.90811 0.724609 5.10645 0.922943 5.10645 1.16211V2.91211C5.10645 3.15128 4.90811 3.34961 4.66895 3.34961C4.42978 3.34961 4.23145 3.15128 4.23145 2.91211Z" fill="#959CA6" stroke="#959CA6" stroke-width="0.21"/>
<path d="M8.89355 2.91211V1.16211C8.89355 0.922943 9.09189 0.724609 9.33105 0.724609C9.57022 0.724609 9.76855 0.922943 9.76855 1.16211V2.91211C9.76855 3.15128 9.57022 3.34961 9.33105 3.34961C9.09189 3.34961 8.89355 3.15128 8.89355 2.91211Z" fill="#959CA6" stroke="#959CA6" stroke-width="0.21"/>
<path d="M5.25 13.2663C1.97167 13.2663 1.3125 11.7204 1.3125 9.22378V5.62461C1.3125 2.85961 2.24583 1.73378 4.64333 1.59961H9.33333C11.7542 1.73378 12.6875 2.85961 12.6875 5.62461V9.32878C12.6875 9.56794 12.4892 9.76628 12.25 9.76628C12.0108 9.76628 11.8125 9.56794 11.8125 9.32878V5.62461C11.8125 3.08128 10.9667 2.56794 9.31 2.47461H4.66667C3.03333 2.56794 2.1875 3.08128 2.1875 5.62461V9.22378C2.1875 11.4579 2.61333 12.3913 5.25 12.3913H8.75C8.98917 12.3913 9.1875 12.5896 9.1875 12.8288C9.1875 13.0679 8.98917 13.2663 8.75 13.2663H5.25Z" fill="#959CA6" stroke="#959CA6" stroke-width="0.21"/>
<path fill-rule="evenodd" clip-rule="evenodd" d="M8.58083 13.2365C8.4175 13.1665 8.3125 13.009 8.3125 12.834V11.084C8.3125 9.67232 9.08833 8.89648 10.5 8.89648H12.25C12.425 8.89648 12.5883 9.00148 12.6525 9.16482C12.7225 9.32815 12.6817 9.51482 12.5592 9.64315L9.05917 13.1432C8.9775 13.2248 8.86667 13.2715 8.75 13.2715C8.69167 13.2715 8.63917 13.2598 8.58083 13.2365ZM9.1875 11.084V11.7782L11.1942 9.77148H10.5C9.57833 9.77148 9.1875 10.1623 9.1875 11.084Z" fill="#959CA6"/>
<path d="M8.58083 13.2365L8.53946 13.333L8.54184 13.334L8.58083 13.2365ZM12.6525 9.16482L12.5547 9.20323L12.556 9.20618L12.6525 9.16482ZM12.5592 9.64315L12.6334 9.71742L12.6351 9.71565L12.5592 9.64315ZM9.05917 13.1432L8.98492 13.0689L9.05917 13.1432ZM9.1875 11.7782H9.0825V12.0316L9.26175 11.8524L9.1875 11.7782ZM11.1942 9.77148L11.2684 9.84573L11.4477 9.66648H11.1942V9.77148ZM8.62219 13.14C8.49669 13.0862 8.4175 12.9661 8.4175 12.834H8.2075C8.2075 13.0518 8.33831 13.2468 8.53947 13.333L8.62219 13.14ZM8.4175 12.834V11.084H8.2075V12.834H8.4175ZM8.4175 11.084C8.4175 10.3969 8.60603 9.88019 8.95112 9.53511C9.29621 9.19002 9.81287 9.00148 10.5 9.00148V8.79148C9.77546 8.79148 9.19837 8.99087 8.80263 9.38661C8.40688 9.78236 8.2075 10.3594 8.2075 11.084H8.4175ZM10.5 9.00148H12.25V8.79148H10.5V9.00148ZM12.25 9.00148C12.3844 9.00148 12.5073 9.0824 12.5548 9.20321L12.7502 9.12642C12.6694 8.92057 12.4656 8.79148 12.25 8.79148V9.00148ZM12.556 9.20618C12.6081 9.32776 12.5791 9.47021 12.4832 9.57065L12.6351 9.71565C12.7842 9.55942 12.8369 9.32854 12.749 9.12346L12.556 9.20618ZM12.4849 9.56891L8.98492 13.0689L9.13341 13.2174L12.6334 9.7174L12.4849 9.56891ZM8.98492 13.0689C8.92272 13.1311 8.8385 13.1665 8.75 13.1665V13.3765C8.89483 13.3765 9.03228 13.3185 9.13341 13.2174L8.98492 13.0689ZM8.75 13.1665C8.70737 13.1665 8.66814 13.1583 8.61983 13.139L8.54184 13.334C8.61019 13.3613 8.67596 13.3765 8.75 13.3765V13.1665ZM9.0825 11.084V11.7782H9.2925V11.084H9.0825ZM9.26175 11.8524L11.2684 9.84573L11.1199 9.69724L9.11325 11.7039L9.26175 11.8524ZM11.1942 9.66648H10.5V9.87648H11.1942V9.66648ZM10.5 9.66648C10.0273 9.66648 9.66547 9.76627 9.42388 10.0079C9.18229 10.2495 9.0825 10.6113 9.0825 11.084H9.2925C9.2925 10.635 9.38813 10.3406 9.57237 10.1564C9.75661 9.97211 10.051 9.87648 10.5 9.87648V9.66648Z" fill="#959CA6"/>
<path opacity="0.01" fill-rule="evenodd" clip-rule="evenodd" d="M14 0V14H0V0H14Z" fill="#959CA6"/>
<path d="M5.13916 10.5007V7.58398C5.13916 7.34482 5.33749 7.14648 5.57666 7.14648C5.81583 7.14648 6.01416 7.34482 6.01416 7.58398V10.5007C6.01416 10.7398 5.81583 10.9382 5.57666 10.9382C5.33749 10.9382 5.13916 10.7398 5.13916 10.5007Z" fill="#959CA6"/>
<path d="M4.08301 9.48438C3.84384 9.48438 3.64551 9.28604 3.64551 9.04688C3.64551 8.80771 3.84384 8.60938 4.08301 8.60938H6.99967C7.23884 8.60938 7.43717 8.80771 7.43717 9.04688C7.43717 9.28604 7.23884 9.48438 6.99967 9.48438H4.08301Z" fill="#959CA6"/>
</svg>
