<svg width="14" height="14" viewBox="0 0 14 14" fill="none" xmlns="http://www.w3.org/2000/svg">
<path d="M1.60419 10.4993V4.08268C1.60419 1.51018 2.38585 0.728516 4.95835 0.728516H9.04169C11.6142 0.728516 12.3959 1.51018 12.3959 4.08268V9.91602C12.3959 10.0093 12.3959 10.0968 12.39 10.1902C12.3725 10.4293 12.1567 10.616 11.9234 10.5985C11.6842 10.581 11.4975 10.371 11.515 10.1318C11.5209 10.0618 11.5209 9.98602 11.5209 9.91602V4.08268C11.5209 2.00018 11.13 1.60352 9.04169 1.60352H4.95835C2.87002 1.60352 2.47919 2.00018 2.47919 4.08268V10.4993C2.47919 10.7385 2.28085 10.9368 2.04169 10.9368C1.80252 10.9368 1.60419 10.7385 1.60419 10.4993Z" fill="#959CA6" stroke="#959CA6" stroke-width="0.2"/>
<path fill-rule="evenodd" clip-rule="evenodd" d="M4.08201 13.2708C2.71701 13.2708 1.60284 12.1567 1.60284 10.7917V10.4125C1.60284 9.25167 2.54784 8.3125 3.70284 8.3125H11.957C12.1962 8.3125 12.3945 8.51083 12.3945 8.75V10.7917C12.3945 12.1567 11.2803 13.2708 9.91535 13.2708H4.08201ZM2.47784 10.4125V10.7917C2.47784 11.6783 3.19534 12.3958 4.08201 12.3958H9.91535C10.802 12.3958 11.5195 11.6783 11.5195 10.7917V9.1875H3.70284C3.02618 9.1875 2.47784 9.73583 2.47784 10.4125Z" fill="#959CA6"/>
<path d="M11.5195 9.1875H11.6195V9.0875H11.5195V9.1875ZM4.08201 13.1708C2.77224 13.1708 1.70284 12.1014 1.70284 10.7917H1.50284C1.50284 12.2119 2.66178 13.3708 4.08201 13.3708V13.1708ZM1.70284 10.7917V10.4125H1.50284V10.7917H1.70284ZM1.70284 10.4125C1.70284 9.30708 2.60289 8.4125 3.70284 8.4125V8.2125C2.4928 8.2125 1.50284 9.19626 1.50284 10.4125H1.70284ZM3.70284 8.4125H11.957V8.2125H3.70284V8.4125ZM11.957 8.4125C12.141 8.4125 12.2945 8.56606 12.2945 8.75H12.4945C12.4945 8.4556 12.2514 8.2125 11.957 8.2125V8.4125ZM12.2945 8.75V10.7917H12.4945V8.75H12.2945ZM12.2945 10.7917C12.2945 12.1014 11.2251 13.1708 9.91535 13.1708V13.3708C11.3356 13.3708 12.4945 12.2119 12.4945 10.7917H12.2945ZM9.91535 13.1708H4.08201V13.3708H9.91535V13.1708ZM2.37784 10.4125V10.7917H2.57784V10.4125H2.37784ZM2.37784 10.7917C2.37784 11.7336 3.14012 12.4958 4.08201 12.4958V12.2958C3.25057 12.2958 2.57784 11.6231 2.57784 10.7917H2.37784ZM4.08201 12.4958H9.91535V12.2958H4.08201V12.4958ZM9.91535 12.4958C10.8572 12.4958 11.6195 11.7336 11.6195 10.7917H11.4195C11.4195 11.6231 10.7468 12.2958 9.91535 12.2958V12.4958ZM11.6195 10.7917V9.1875H11.4195V10.7917H11.6195ZM11.5195 9.0875H3.70284V9.2875H11.5195V9.0875ZM3.70284 9.0875C2.97095 9.0875 2.37784 9.68061 2.37784 10.4125H2.57784C2.57784 9.79106 3.08141 9.2875 3.70284 9.2875V9.0875Z" fill="#959CA6"/>
<path d="M4.66669 4.52148C4.42752 4.52148 4.22919 4.32315 4.22919 4.08398C4.22919 3.84482 4.42752 3.64648 4.66669 3.64648H9.33335C9.57252 3.64648 9.77085 3.84482 9.77085 4.08398C9.77085 4.32315 9.57252 4.52148 9.33335 4.52148H4.66669Z" fill="#959CA6" stroke="#959CA6" stroke-width="0.2"/>
<path d="M4.66669 6.5625C4.42752 6.5625 4.22919 6.36417 4.22919 6.125C4.22919 5.88583 4.42752 5.6875 4.66669 5.6875H7.58335C7.82252 5.6875 8.02085 5.88583 8.02085 6.125C8.02085 6.36417 7.82252 6.5625 7.58335 6.5625H4.66669Z" fill="#959CA6" stroke="#959CA6" stroke-width="0.2"/>
<path opacity="0.01" fill-rule="evenodd" clip-rule="evenodd" d="M14 0V14H0V0H14Z" fill="#E23030"/>
</svg>
