<svg width="21" height="21" viewBox="0 0 21 21" fill="none" xmlns="http://www.w3.org/2000/svg">
<path d="M10.4954 14.999C11.0935 14.999 11.5788 14.5138 11.5788 13.9157C11.5788 13.3176 11.0935 12.8324 10.4954 12.8324C9.89737 12.8324 9.41211 13.3176 9.41211 13.9157C9.41211 14.5138 9.89737 14.999 10.4954 14.999Z" fill="#747E8B" stroke="#747E8B" stroke-width="0.5"/>
<path fill-rule="evenodd" clip-rule="evenodd" d="M10.4954 11.0825C10.9554 11.0825 11.3288 10.7092 11.3288 10.2492C11.3288 9.78919 10.9554 9.41585 10.4954 9.41585C10.0354 9.41585 9.66211 9.78919 9.66211 10.2492C9.66211 10.7092 10.0354 11.0825 10.4954 11.0825Z" fill="#747E8B" stroke="#747E8B"/>
<path fill-rule="evenodd" clip-rule="evenodd" d="M10.4954 7.41553C10.9554 7.41553 11.3288 7.04219 11.3288 6.58219C11.3288 6.12219 10.9554 5.74886 10.4954 5.74886C10.0354 5.74886 9.66211 6.12219 9.66211 6.58219C9.66211 7.04219 10.0354 7.41553 10.4954 7.41553Z" fill="#747E8B" stroke="#747E8B"/>
</svg>
