<svg width="164" height="144" viewBox="0 0 164 144" fill="none" xmlns="http://www.w3.org/2000/svg"><path fill="#000" d="M0 0h164v144H0z"/><rect opacity=".42" x="28" y="43.285" width="79" height="51" rx="6.329" fill="url(#a)"/><rect x="37" y="52.285" width="8.7" height="6.044" rx="2" fill="#943ACF"/><rect opacity=".4" x="37" y="61.629" width="17.403" height="1.74" rx=".87" fill="#943ACF"/><path opacity=".4" fill-rule="evenodd" clip-rule="evenodd" d="M93 57.883 79.072 74.106c-3.508 4.086-9.72 4.658-13.946 1.285L62 72.896c-3.974-3.172-9.849-2.47-12.926 1.544L40.76 85.285l-.76-.558 8.314-10.845c3.401-4.437 9.894-5.213 14.287-1.706l3.126 2.495c3.824 3.052 9.443 2.534 12.617-1.163l13.929-16.223z" fill="#943ACF"/><circle opacity=".7" cx="98.165" cy="70.45" r="1.165" fill="#943ACF"/><circle opacity=".2" cx="124.165" cy="47.45" r="1.165" fill="#943ACF"/><rect opacity=".2" x="125" y="66.523" width="4.583" height="4.583" rx="2.292" transform="rotate(-45 125 66.523)" fill="#943ACF"/><circle cx="112.434" cy="61.717" transform="rotate(-2.339 112.434 61.717)" fill="url(#b)" r="11.342"/><path d="m107.463 67.32-2.342-5.95.996-.392 2.342 5.95zm2.233-.88-2.342-5.949 2.459-.968q.086-.034.226-.08.138-.048.262-.074.547-.124.986.008.443.13.763.473.324.336.517.827.192.487.186.958a1.73 1.73 0 0 1-.242.863q-.23.396-.712.677a3 3 0 0 1-.247.125q-.132.062-.215.095l-1.463.575.818 2.079zm-.188-3.4 1.421-.559q.082-.032.183-.081a1 1 0 0 0 .177-.108.8.8 0 0 0 .302-.372.96.96 0 0 0 .063-.435 1.4 1.4 0 0 0-.091-.413 1.4 1.4 0 0 0-.215-.364.95.95 0 0 0-.344-.28.8.8 0 0 0-.475-.066 1 1 0 0 0-.201.046 3 3 0 0 0-.189.065l-1.421.56zm8.031.456q-.893.352-1.682.214a2.8 2.8 0 0 1-1.408-.705q-.614-.565-.977-1.487-.363-.92-.298-1.753a2.76 2.76 0 0 1 .551-1.472q.481-.642 1.374-.994.892-.351 1.683-.21.794.137 1.407.702.618.563.981 1.485.363.921.294 1.754a2.74 2.74 0 0 1-.549 1.476q-.484.639-1.376.99m-.369-.937q.6-.233.891-.657a1.74 1.74 0 0 0 .302-.992q.01-.567-.247-1.22t-.648-1.052a1.74 1.74 0 0 0-.895-.516q-.502-.113-1.105.115-.6.231-.891.656a1.77 1.77 0 0 0-.302.992q-.006.566.251 1.219t.645 1.058q.387.4.89.513.506.11 1.109-.116" fill="#FAF2F0"/><path opacity=".8" d="M131.94 86.204v14.051h-19.837V86.204l8.265-9.919h19.837z" fill="#943ACF"/><path opacity=".7" d="M92.265 86.204v14.051h19.837V86.204l-8.265-9.919H84z" fill="#943ACF"/><rect x="146" y="100" width="1" height="74" rx=".5" transform="rotate(90 146 100)" fill="#451863"/><defs><linearGradient id="a" x1="28" y1="68.785" x2="117" y2="68.285" gradientUnits="userSpaceOnUse"><stop stop-color="#AC6CDA"/><stop offset="1" stop-color="#2E1042"/></linearGradient><linearGradient id="b" x1="101.093" y1="61.717" x2="133.695" y2="60.402" gradientUnits="userSpaceOnUse"><stop stop-color="#AC6CDA"/><stop offset="1" stop-color="#2E1042"/></linearGradient></defs></svg>