<svg width="164" height="144" viewBox="0 0 164 144" fill="none" xmlns="http://www.w3.org/2000/svg"><path fill="#fff" d="M0 0h164v144H0z"/><rect opacity=".42" x="28" y="43.286" width="79" height="51" rx="6.329" fill="url(#a)"/><rect x="37" y="52.286" width="8.7" height="6.044" rx="2" fill="#AC6CDA"/><rect opacity=".4" x="37" y="61.63" width="17.403" height="1.74" rx=".87" fill="#AC6CDA"/><path opacity=".4" fill-rule="evenodd" clip-rule="evenodd" d="M93 57.884 79.072 74.107c-3.508 4.086-9.72 4.658-13.946 1.285L62 72.897c-3.974-3.172-9.849-2.47-12.926 1.544L40.76 85.286 40 84.73l8.314-10.845c3.401-4.438 9.894-5.213 14.287-1.707l3.126 2.495c3.824 3.052 9.443 2.534 12.617-1.163l13.929-16.223z" fill="#AC6CDA"/><circle opacity=".7" cx="98.165" cy="70.451" r="1.165" fill="#AC6CDA"/><circle opacity=".2" cx="124.165" cy="47.451" r="1.165" fill="#AC6CDA"/><rect opacity=".2" x="125" y="66.525" width="4.583" height="4.583" rx="2.292" transform="rotate(-45 125 66.525)" fill="#AC6CDA"/><circle cx="112.432" cy="61.72" transform="rotate(-2.339 112.432 61.72)" fill="url(#b)" r="11.342"/><path d="m107.462 67.323-2.342-5.95.995-.392 2.342 5.95zm2.233-.88-2.342-5.949 2.458-.968q.087-.033.227-.08a2 2 0 0 1 .262-.073q.546-.126.986.007.442.132.763.473.323.336.517.827.192.487.186.958-.008.465-.243.863-.23.397-.712.677a4 4 0 0 1-.462.22l-1.462.576.818 2.078zm-.188-3.4 1.421-.559q.083-.032.183-.081.099-.05.177-.108a.8.8 0 0 0 .302-.372.96.96 0 0 0 .063-.435 1.4 1.4 0 0 0-.091-.413 1.4 1.4 0 0 0-.215-.364.96.96 0 0 0-.344-.28.8.8 0 0 0-.475-.065 1 1 0 0 0-.201.045 3 3 0 0 0-.189.065l-1.422.56zm8.031.457q-.893.351-1.682.213a2.8 2.8 0 0 1-1.409-.705q-.613-.565-.976-1.486-.362-.922-.299-1.753.069-.834.552-1.472.481-.644 1.374-.995.892-.351 1.683-.209.794.136 1.407.701.618.563.981 1.485.362.921.294 1.754a2.75 2.75 0 0 1-.55 1.477q-.483.638-1.375.99m-.37-.938q.601-.232.892-.657a1.73 1.73 0 0 0 .301-.992q.01-.567-.246-1.22-.257-.652-.648-1.052a1.74 1.74 0 0 0-.895-.516q-.502-.113-1.105.115-.6.232-.891.657a1.77 1.77 0 0 0-.302.991q-.007.567.251 1.219.256.653.645 1.058.387.401.89.514.506.11 1.108-.117" fill="#FAF2F0"/><path opacity=".8" d="M131.938 86.205v14.051h-19.837v-14.05l8.265-9.92h19.837z" fill="#AC6CDA"/><path opacity=".7" d="M92.265 86.205v14.051h19.837v-14.05l-8.265-9.92H84z" fill="#AC6CDA"/><rect x="146" y="100" width="1" height="74" rx=".5" transform="rotate(90 146 100)" fill="#D1AFE9"/><defs><linearGradient id="a" x1="28" y1="68.786" x2="117" y2="68.286" gradientUnits="userSpaceOnUse"><stop stop-color="#AC6CDA"/><stop offset="1" stop-color="#F6EFFB"/></linearGradient><linearGradient id="b" x1="101.09" y1="61.72" x2="133.692" y2="60.405" gradientUnits="userSpaceOnUse"><stop stop-color="#AC6CDA"/><stop offset="1" stop-color="#F6EFFB"/></linearGradient></defs></svg>