<svg width="120" height="80" viewBox="0 0 120 80" fill="none" xmlns="http://www.w3.org/2000/svg"><path fill="#fff" d="M0 0h120v80H0z"/><path opacity=".42" d="M34 29.753a6.33 6.33 0 0 1 6.329-6.33h53.342a6.33 6.33 0 0 1 6.329 6.33v19.496a6.33 6.33 0 0 1-6.329 6.329H40.329A6.33 6.33 0 0 1 34 49.248z" fill="url(#a)"/><rect opacity=".7" width="3.208" height="2.138" rx="1.069" transform="matrix(-1 0 0 1 94.664 41.897)" fill="#AC6CDA"/><rect opacity=".4" width="9.623" height="2.138" rx="1.069" transform="matrix(-1 0 0 1 94.664 47.243)" fill="#AC6CDA"/><rect x="40.77" y="30.332" width="9.299" height="6.46" rx="2" fill="#AC6CDA"/><rect opacity=".4" x="40.77" y="40.318" width="18.601" height="1.86" rx=".93" fill="#AC6CDA"/><circle opacity=".7" cx="96.165" cy="14.165" r="1.165" fill="#AC6CDA"/><rect opacity=".6" x="61" y="66.212" width="1.714" height="1.714" rx=".857" transform="rotate(-45 61 66.212)" fill="#AC6CDA"/><rect opacity=".6" x="21" y="36.861" width="2.633" height="2.633" rx="1.316" transform="rotate(-45 21 36.861)" fill="#AC6CDA"/><defs><linearGradient id="a" x1="34" y1="39.501" x2="105.011" y2="38.947" gradientUnits="userSpaceOnUse"><stop stop-color="#AC6CDA"/><stop offset="1" stop-color="#F6EFFB"/></linearGradient></defs></svg>