<svg width="120" height="80" viewBox="0 0 120 80" fill="none" xmlns="http://www.w3.org/2000/svg"><path fill="#000" d="M0 0h120v80H0z"/><path opacity=".42" d="M34 29.75a6.33 6.33 0 0 1 6.329-6.328h53.342A6.33 6.33 0 0 1 100 29.75v19.496a6.33 6.33 0 0 1-6.329 6.329H40.329A6.33 6.33 0 0 1 34 49.246z" fill="url(#a)"/><rect opacity=".7" width="3.208" height="2.138" rx="1.069" transform="matrix(-1 0 0 1 94.665 41.895)" fill="#943ACF"/><rect opacity=".4" width="9.623" height="2.138" rx="1.069" transform="matrix(-1 0 0 1 94.665 47.242)" fill="#943ACF"/><rect x="40.769" y="30.328" width="9.299" height="6.46" rx="2" fill="#943ACF"/><rect opacity=".4" x="40.769" y="40.313" width="18.601" height="1.86" rx=".93" fill="#943ACF"/><circle opacity=".7" cx="96.165" cy="14.165" r="1.165" fill="#943ACF"/><rect opacity=".6" x="61" y="66.211" width="1.714" height="1.714" rx=".857" transform="rotate(-45 61 66.21)" fill="#943ACF"/><rect opacity=".6" x="21" y="36.859" width="2.633" height="2.633" rx="1.316" transform="rotate(-45 21 36.86)" fill="#943ACF"/><defs><linearGradient id="a" x1="34" y1="39.499" x2="105.011" y2="38.945" gradientUnits="userSpaceOnUse"><stop stop-color="#AC6CDA"/><stop offset="1" stop-color="#2E1042"/></linearGradient></defs></svg>