<svg width="19" height="18" viewBox="0 0 19 18" fill="none" xmlns="http://www.w3.org/2000/svg">
<mask id="mask0_4931_149769" style="mask-type:luminance" maskUnits="userSpaceOnUse" x="0" y="0" width="19" height="18">
<rect x="0.5" width="18" height="18" fill="white"/>
</mask>
<g mask="url(#mask0_4931_149769)">
<path fill-rule="evenodd" clip-rule="evenodd" d="M1.60258 16.8977C1.46008 16.7552 1.40012 16.5452 1.45262 16.3502L2.39763 12.8177C1.76763 11.6477 1.4376 10.3277 1.4376 8.99268C1.4376 4.54518 5.0526 0.930176 9.5001 0.930176C13.9476 0.930176 17.5626 4.54518 17.5626 8.99268C17.5626 13.4402 13.9476 17.0552 9.5001 17.0552C8.1426 17.0552 6.81512 16.7177 5.63012 16.0727L2.15011 17.0402C2.09761 17.0552 2.0526 17.0627 2.0001 17.0627C1.8501 17.0627 1.70758 17.0027 1.60258 16.8977ZM5.99011 14.9852C7.04761 15.6077 8.2626 15.9377 9.5001 15.9377C13.3251 15.9377 16.4376 12.8252 16.4376 9.00018C16.4376 5.17518 13.3251 2.06268 9.5001 2.06268C5.6751 2.06268 2.5626 5.17518 2.5626 9.00018C2.5626 10.2227 2.8851 11.4152 3.4926 12.4652C3.5676 12.5927 3.59011 12.7502 3.55261 12.8927L2.80261 15.6977L5.5626 14.9327C5.6076 14.9177 5.66011 14.9102 5.70511 14.9102C5.80261 14.9102 5.90011 14.9402 5.99011 14.9852Z" fill="#C7D2FC"/>
<path fill-rule="evenodd" clip-rule="evenodd" d="M10.1077 12.9973C9.63518 12.7948 9.16268 12.5248 8.70518 12.1873C8.25518 11.8573 7.8127 11.4823 7.4077 11.0773C7.0027 10.6648 6.62767 10.2299 6.29767 9.77985C5.96017 9.30735 5.69016 8.84234 5.49516 8.38484C5.28516 7.88984 5.18018 7.40235 5.18018 6.93735C5.18018 6.60735 5.24016 6.29235 5.35266 5.99985C5.47266 5.69235 5.66767 5.41484 5.92267 5.17484C6.40267 4.70234 7.0927 4.52986 7.6402 4.79236C7.8277 4.87486 7.98519 5.00986 8.10519 5.18986L8.97517 6.41234C9.06517 6.53234 9.1327 6.65984 9.1852 6.78734C9.2452 6.93734 9.2827 7.08736 9.2827 7.22986C9.2827 7.42486 9.23018 7.61986 9.12518 7.79236C9.05768 7.90486 8.96017 8.03986 8.83267 8.16736L8.73517 8.27235C8.78017 8.33235 8.83266 8.40734 8.91516 8.49734C9.07266 8.67734 9.24516 8.87234 9.43266 9.05984C9.62016 9.23984 9.80766 9.41984 9.99516 9.57734C10.0852 9.65234 10.1602 9.71235 10.2202 9.74985L10.3252 9.64484C10.4602 9.50984 10.5952 9.40486 10.7302 9.33736C10.9777 9.17986 11.3602 9.14235 11.6977 9.28485C11.8177 9.32985 11.9377 9.39734 12.0652 9.48734L13.3177 10.3723C13.4902 10.4923 13.6252 10.6573 13.7152 10.8448C13.7902 11.0323 13.8202 11.1974 13.8202 11.3699C13.8202 11.5949 13.7677 11.8123 13.6702 12.0223C13.5727 12.2173 13.4602 12.3899 13.3252 12.5474C13.0852 12.8099 12.8077 13.0049 12.5077 13.1324C12.2077 13.2599 11.8852 13.3199 11.5552 13.3199C11.0902 13.3199 10.6102 13.2148 10.1077 12.9973ZM6.71021 5.99234C6.56771 6.12734 6.47018 6.26985 6.40268 6.42735C6.33518 6.58485 6.30518 6.76486 6.30518 6.94486C6.30518 7.25986 6.38017 7.59734 6.53017 7.95734C6.68767 8.33234 6.92018 8.72986 7.20518 9.12736C7.49768 9.52486 7.82769 9.92235 8.19519 10.2898C8.56269 10.6498 8.95268 10.9873 9.35768 11.2873C9.74768 11.5723 10.1452 11.7973 10.5427 11.9698C11.1127 12.2173 11.6377 12.2774 12.0652 12.0974C12.2152 12.0374 12.3502 11.9324 12.4852 11.7974C12.5527 11.7224 12.6052 11.6473 12.6502 11.5498C12.6727 11.4973 12.6877 11.4373 12.6877 11.3848C12.6877 11.3698 12.6877 11.3474 12.6652 11.3024L11.4127 10.4324C11.3602 10.3949 11.3077 10.3648 11.2627 10.3498C11.2327 10.3648 11.1877 10.3873 11.1052 10.4698L10.8202 10.7548C10.6027 10.9723 10.2577 11.0323 9.98019 10.9348L9.8452 10.8748C9.6727 10.7848 9.47768 10.6499 9.26018 10.4624C9.05018 10.2824 8.8477 10.0948 8.6302 9.88484C8.4202 9.66734 8.23269 9.46485 8.05269 9.25485C7.85769 9.02235 7.72269 8.83485 7.63269 8.67735L7.5502 8.48235C7.5277 8.40735 7.52017 8.32485 7.52017 8.24985C7.52017 8.03985 7.5952 7.85234 7.7377 7.70234L8.02271 7.40985C8.10521 7.32735 8.13519 7.28236 8.15019 7.25236C8.12769 7.19986 8.0977 7.15485 8.0602 7.10235L7.18266 5.86485L7.09267 5.80484C7.04767 5.80484 6.89771 5.80484 6.71021 5.99234Z" fill="#C7D2FC"/>
</g>
</svg>
