<svg width="14" height="15" viewBox="0 0 14 15" fill="none" xmlns="http://www.w3.org/2000/svg">
<path fill-rule="evenodd" clip-rule="evenodd" d="M0.729858 7.63753C0.729858 4.17837 3.54153 1.3667 7.00069 1.3667C10.4599 1.3667 13.2715 4.17837 13.2715 7.63753C13.2715 11.0967 10.4599 13.9084 7.00069 13.9084C3.54153 13.9084 0.729858 11.0967 0.729858 7.63753ZM1.60486 7.63753C1.60486 10.6125 4.02569 13.0334 7.00069 13.0334C9.97569 13.0334 12.3965 10.6125 12.3965 7.63753C12.3965 4.66253 9.97569 2.2417 7.00069 2.2417C4.02569 2.2417 1.60486 4.66253 1.60486 7.63753Z" fill="#959CA6"/>
<path d="M6.5625 8.22087V5.3042C6.5625 5.06503 6.76083 4.8667 7 4.8667C7.23917 4.8667 7.4375 5.06503 7.4375 5.3042V8.22087C7.4375 8.46003 7.23917 8.65837 7 8.65837C6.76083 8.65837 6.5625 8.46003 6.5625 8.22087Z" fill="#959CA6"/>
<path d="M6.77829 10.5077C6.70829 10.4785 6.64413 10.4377 6.58579 10.3852C6.53329 10.3269 6.49246 10.2685 6.46329 10.1927C6.43413 10.1227 6.41663 10.0469 6.41663 9.97104C6.41663 9.89521 6.43413 9.81937 6.46329 9.74937C6.49246 9.67937 6.53329 9.61521 6.58579 9.55688C6.64413 9.50438 6.70829 9.46354 6.77829 9.43437C6.91829 9.37604 7.08163 9.37604 7.22163 9.43437C7.29163 9.46354 7.35579 9.50438 7.41413 9.55688C7.46663 9.61521 7.50746 9.67937 7.53663 9.74937C7.56579 9.81937 7.58329 9.89521 7.58329 9.97104C7.58329 10.0469 7.56579 10.1227 7.53663 10.1927C7.50746 10.2685 7.46663 10.3269 7.41413 10.3852C7.35579 10.4377 7.29163 10.4785 7.22163 10.5077C7.15163 10.5369 7.07579 10.5544 6.99996 10.5544C6.92413 10.5544 6.84829 10.5369 6.77829 10.5077Z" fill="#959CA6"/>
</svg>
