<svg width="24" height="24" viewBox="0 0 24 24" fill="none" xmlns="http://www.w3.org/2000/svg">
<path d="M7.25603 16.744C6.91466 16.4026 6.91466 15.8376 7.25603 15.4962L15.4962 7.25603C15.8376 6.91466 16.4026 6.91466 16.744 7.25603C17.0853 7.59741 17.0853 8.16245 16.744 8.50382L8.50382 16.744C8.32725 16.9205 8.10359 17.0029 7.87993 17.0029C7.65627 17.0029 7.43261 16.9205 7.25603 16.744Z" fill="#6A7483"/>
<path d="M15.4962 16.744L7.25603 8.50382C6.91466 8.16245 6.91466 7.59741 7.25603 7.25603C7.59741 6.91466 8.16245 6.91466 8.50382 7.25603L16.744 15.4962C17.0853 15.8376 17.0853 16.4026 16.744 16.744C16.5674 16.9205 16.3437 17.0029 16.1201 17.0029C15.8964 17.0029 15.6728 16.9205 15.4962 16.744Z" fill="#6A7483"/>
</svg>
