<?xml version="1.0" encoding="UTF-8"?>
<svg width="6px" height="11px" viewBox="0 0 6 11" version="1.1" xmlns="http://www.w3.org/2000/svg" xmlns:xlink="http://www.w3.org/1999/xlink">
    <title>down</title>
    <g id="Updated-color" stroke="none" stroke-width="1" fill="none" fill-rule="evenodd">
        <g id="down">
            <path d="M3.42874646,0.714577438 L5.54565127,4.24275212 C5.68772535,4.47954226 5.61094282,4.78667238 5.37415269,4.92874646 C5.29644499,4.97537108 5.20752678,5 5.11690481,5 L0.883095189,5 C0.606952815,5 0.383095189,4.77614237 0.383095189,4.5 C0.383095189,4.40937803 0.407724106,4.32045982 0.454348727,4.24275212 L2.57125354,0.714577438 C2.71332762,0.477787305 3.02045774,0.401004773 3.25724788,0.543078853 C3.32762268,0.585303734 3.38652158,0.644202636 3.42874646,0.714577438 Z" id="Triangle" fill="#EAEBED"></path>
            <path d="M3.42874646,6.71457744 L5.54565127,10.2427521 C5.68772535,10.4795423 5.61094282,10.7866724 5.37415269,10.9287465 C5.29644499,10.9753711 5.20752678,11 5.11690481,11 L0.883095189,11 C0.606952815,11 0.383095189,10.7761424 0.383095189,10.5 C0.383095189,10.409378 0.407724106,10.3204598 0.454348727,10.2427521 L2.57125354,6.71457744 C2.71332762,6.47778731 3.02045774,6.40100477 3.25724788,6.54307885 C3.32762268,6.58530373 3.38652158,6.64420264 3.42874646,6.71457744 Z" id="Triangle" fill="#747E8B" transform="translate(3.000000, 8.500000) scale(1, -1) translate(-3.000000, -8.500000) "></path>
        </g>
    </g>
</svg>