<svg width="16" height="16" viewBox="0 0 16 16" fill="none" xmlns="http://www.w3.org/2000/svg">
<path d="M6.02614 12.3981L1.97947 8.35146C1.78614 8.15812 1.78614 7.83812 1.97947 7.64479L6.02614 3.59812C6.21947 3.40479 6.53947 3.40479 6.73281 3.59812C6.92614 3.79146 6.92614 4.11146 6.73281 4.30479L3.03947 7.99812L6.73281 11.6915C6.92614 11.8848 6.92614 12.2048 6.73281 12.3981C6.63947 12.4981 6.50614 12.5448 6.37947 12.5448C6.25281 12.5448 6.12614 12.4981 6.02614 12.3981Z" fill="#436AF5"/>
<path d="M2.44678 8.5C2.17344 8.5 1.94678 8.27333 1.94678 8C1.94678 7.72667 2.17344 7.5 2.44678 7.5H13.6668C13.9401 7.5 14.1668 7.72667 14.1668 8C14.1668 8.27333 13.9401 8.5 13.6668 8.5H2.44678Z" fill="#436AF5"/>
</svg>
