<svg width="14" height="16" viewBox="0 0 14 16" fill="none" xmlns="http://www.w3.org/2000/svg">
<path d="M8.54854 9.44639L4.74521 13.4734C4.57604 13.6526 4.29604 13.6526 4.12687 13.4734C3.95771 13.2943 3.95771 12.9979 4.12687 12.8187L7.93021 8.79169C8.21021 8.49521 8.21021 8.01345 7.93021 7.71698L4.12687 3.68992C3.95771 3.5108 3.95771 3.21433 4.12687 3.03521C4.29604 2.8561 4.57604 2.8561 4.74521 3.03521L8.54854 7.06227C8.85771 7.38963 9.01521 7.82198 9.01521 8.25433C9.01521 8.68669 8.85771 9.11904 8.54854 9.44639Z" fill="#B0B0B0" stroke="#B0B0B0" stroke-width="0.3"/>
<path opacity="0.01" fill-rule="evenodd" clip-rule="evenodd" d="M14 0.712811L0 0.712811V15.2672L14 15.2672V0.712811Z" fill="#B0B0B0"/>
</svg>
