<svg width="1370" height="866" fill="none" xmlns="http://www.w3.org/2000/svg"><g clip-path="url(#a)"><path fill="#F6F8FF" d="M0 0h1370v866H0z"/><g filter="url(#b)"><path d="m265.493 1101.5-.025-.01h-.025c-151.547-30.57-240.143-32.38-306.433-31.56-7.479.1-14.667.22-21.624.34-54.702.97-95.122 1.68-149.999-15.94-135.758-43.6-170.868-162.27-155.16-231.774 14.94-66.106 81.531-114.549 178.341-138.926 96.676-24.343 222.819-24.471 355.467 5.509 132.805 30.015 263.45 73.968 357.032 127.158 46.8 26.6 84.19 55.431 107.972 85.864 23.751 30.393 33.832 62.234 26.408 95.085-7.561 33.454-19.296 60.304-36.65 80.884-17.332 20.56-40.382 35-70.817 43.47-61.035 16.99-151.589 9.93-284.487-20.1Z" stroke="url(#c)" stroke-width="4.39"/><g filter="url(#d)"><path d="m265.356 1097.5-.06-.01-.06-.02c-151.14-30.51-239.544-32.48-305.702-31.79-7.455.08-14.613.19-21.533.3-54.457.84-94.184 1.46-148.324-15.88-133.568-42.78-167.92-158.356-152.759-225.438 14.339-63.444 78.972-110.666 174.919-134.465 95.609-23.714 220.652-23.645 352.36 6.122 132.084 29.852 261.87 73.414 354.742 125.9 46.457 26.256 83.333 54.555 106.704 84.196 23.296 29.548 32.918 60.051 25.861 91.276-7.389 32.699-18.847 58.659-35.648 78.439-16.746 19.72-39.083 33.63-68.833 41.79-59.897 16.44-149.357 9.48-281.667-20.42Z" stroke="url(#e)" stroke-width="10.66"/></g><mask id="f" style="mask-type:alpha" maskUnits="userSpaceOnUse" x="-296" y="659" width="781" height="433"><path d="M-295.29 961.71c-10.808-103.621 177.431-277.368 381.957-298.702 204.526-21.333 385.546 71.708 396.354 175.329 10.809 103.621-51.892 149.77-256.418 171.103-231.146 29.56-254.596 80.37-353.279 81.9-108.495 1.68-162.954-75.37-168.614-129.63Z" fill="#fff"/></mask><g mask="url(#f)"><g filter="url(#g)"><ellipse cx="324.491" cy="1107.26" rx="233.894" ry="162.045" transform="rotate(-167.265 324.491 1107.26)" fill="#FB2A23"/></g><g filter="url(#h)"><ellipse cx="453.548" cy="957.143" rx="198.206" ry="137.535" transform="rotate(-167.265 453.548 957.143)" fill="#8D78FF"/></g><g filter="url(#i)"><ellipse cx="-209.781" cy="659.323" rx="342.422" ry="237.607" transform="rotate(-167.265 -209.781 659.323)" fill="#436AF5"/></g></g></g><g filter="url(#j)"><path d="M1505.33 1058.56h-.03l-.03-.01c-126.82-32.83-202.53-35.83-259.39-35.87-6.42-.01-12.58.03-18.55.06-46.92.25-81.47.43-126.61-18.01-111.537-45.56-130.342-165.458-110.045-235.69 19.275-66.678 81.085-114.593 166.145-137.847 85.02-23.243 192.89-21.714 303.42 10.229 110.73 31.999 218.21 78.009 293.08 132.812 75 54.902 116.47 117.986 97.32 184.251-19.44 67.295-50.64 107.905-104.07 124.095-53.74 16.28-130.42 8.01-241.24-24.02Z" stroke="url(#k)" stroke-width="4.39"/><g filter="url(#l)"><path d="m1494.51 1127.61-.2-.06-.21-.05c-140.01-36.28-223.91-39.83-286.97-40.02-7.08-.02-13.83 0-20.34.01-51.43.13-86.77.22-133.79-18.94-114.215-46.53-134.535-168.742-113.647-241.017 19.208-66.464 81.867-116.154 172.557-140.568 90.38-24.329 206.03-22.617 325.2 11.823 120.46 34.814 236.63 84.538 317.04 143.049 81.38 59.221 120.64 122.982 102.25 186.613-20.43 70.68-52.24 110.13-105.02 125.88-54.97 16.42-135.75 8.28-256.87-26.72Z" stroke="url(#m)" stroke-width="30"/></g><g opacity=".5"><mask id="n" style="mask-type:alpha" maskUnits="userSpaceOnUse" x="1052" y="553" width="1111" height="609"><path d="M1061.28 750.393c49.58-171.573 317.56-244.834 598.53-163.632 280.98 81.202 546.25 233.689 496.66 405.262-49.58 171.577-160.08 209.937-441.06 128.737-320.9-83.07-382.86-15.15-513.04-68.33-143.13-58.457-167.06-212.188-141.09-302.037Z" fill="#fff"/></mask><g mask="url(#n)"><g filter="url(#o)"><ellipse cx="1494.79" cy="1027.64" rx="251.012" ry="209.599" transform="rotate(-163.881 1494.79 1027.64)" fill="#FB2A23"/></g><g filter="url(#p)"><ellipse cx="1653.25" cy="837.992" rx="212.712" ry="177.896" transform="rotate(-163.881 1653.25 837.992)" fill="#8D78FF"/></g><g filter="url(#q)"><ellipse cx="1106.61" cy="648.663" rx="180.374" ry="150.851" transform="rotate(-163.881 1106.61 648.663)" fill="#436AF5"/></g></g></g></g></g><defs><filter id="o" x="951.934" y="519.776" width="1085.71" height="1015.73" filterUnits="userSpaceOnUse" color-interpolation-filters="sRGB"><feFlood flood-opacity="0" result="BackgroundImageFix"/><feBlend in="SourceGraphic" in2="BackgroundImageFix" result="shape"/><feGaussianBlur stdDeviation="147.365" result="effect1_foregroundBlur_343_140842"/></filter><filter id="b" x="-497.441" y="535.934" width="1283.48" height="720.914" filterUnits="userSpaceOnUse" color-interpolation-filters="sRGB"><feFlood flood-opacity="0" result="BackgroundImageFix"/><feBlend in="SourceGraphic" in2="BackgroundImageFix" result="shape"/><feGaussianBlur stdDeviation="62" result="effect1_foregroundBlur_343_140842"/></filter><filter id="g" x="-201.193" y="646.227" width="1051.37" height="922.061" filterUnits="userSpaceOnUse" color-interpolation-filters="sRGB"><feFlood flood-opacity="0" result="BackgroundImageFix"/><feBlend in="SourceGraphic" in2="BackgroundImageFix" result="shape"/><feGaussianBlur stdDeviation="147.365" result="effect1_foregroundBlur_343_140842"/></filter><filter id="h" x="-55.716" y="502.475" width="1018.53" height="909.337" filterUnits="userSpaceOnUse" color-interpolation-filters="sRGB"><feFlood flood-opacity="0" result="BackgroundImageFix"/><feBlend in="SourceGraphic" in2="BackgroundImageFix" result="shape"/><feGaussianBlur stdDeviation="156.771" result="effect1_foregroundBlur_343_140842"/></filter><filter id="i" x="-842.64" y="120.782" width="1265.72" height="1077.08" filterUnits="userSpaceOnUse" color-interpolation-filters="sRGB"><feFlood flood-opacity="0" result="BackgroundImageFix"/><feBlend in="SourceGraphic" in2="BackgroundImageFix" result="shape"/><feGaussianBlur stdDeviation="147.365" result="effect1_foregroundBlur_343_140842"/></filter><filter id="j" x="793.174" y="429.645" width="1206.74" height="871.828" filterUnits="userSpaceOnUse" color-interpolation-filters="sRGB"><feFlood flood-opacity="0" result="BackgroundImageFix"/><feBlend in="SourceGraphic" in2="BackgroundImageFix" result="shape"/><feGaussianBlur stdDeviation="62" result="effect1_foregroundBlur_343_140842"/></filter><filter id="l" x="909.022" y="647.393" width="975.048" height="538.232" filterUnits="userSpaceOnUse" color-interpolation-filters="sRGB"><feFlood flood-opacity="0" result="BackgroundImageFix"/><feBlend in="SourceGraphic" in2="BackgroundImageFix" result="shape"/><feGaussianBlur stdDeviation="4.076" result="effect1_foregroundBlur_343_140842"/></filter><filter id="d" x="-379.883" y="659.653" width="1047.14" height="480.431" filterUnits="userSpaceOnUse" color-interpolation-filters="sRGB"><feFlood flood-opacity="0" result="BackgroundImageFix"/><feBlend in="SourceGraphic" in2="BackgroundImageFix" result="shape"/><feGaussianBlur stdDeviation="4.076" result="effect1_foregroundBlur_343_140842"/></filter><filter id="p" x="1129.43" y="343.583" width="1047.65" height="988.819" filterUnits="userSpaceOnUse" color-interpolation-filters="sRGB"><feFlood flood-opacity="0" result="BackgroundImageFix"/><feBlend in="SourceGraphic" in2="BackgroundImageFix" result="shape"/><feGaussianBlur stdDeviation="156.771" result="effect1_foregroundBlur_343_140842"/></filter><filter id="q" x="633.569" y="200.563" width="946.087" height="896.2" filterUnits="userSpaceOnUse" color-interpolation-filters="sRGB"><feFlood flood-opacity="0" result="BackgroundImageFix"/><feBlend in="SourceGraphic" in2="BackgroundImageFix" result="shape"/><feGaussianBlur stdDeviation="147.365" result="effect1_foregroundBlur_343_140842"/></filter><linearGradient id="c" x1="-171.114" y1="1075.19" x2="75.247" y2="627.865" gradientUnits="userSpaceOnUse"><stop stop-color="#8D78FF"/><stop offset=".231" stop-color="#FFC42C"/><stop offset="1" stop-color="#8D78FF"/></linearGradient><linearGradient id="e" x1="-169.942" y1="1073.79" x2="72.342" y2="631.423" gradientUnits="userSpaceOnUse"><stop stop-color="#9482F2" stop-opacity="0"/><stop offset=".231" stop-color="#FFC42C"/><stop offset="1" stop-color="#E7E2FF"/></linearGradient><linearGradient id="k" x1="1134.17" y1="1026.25" x2="1430.32" y2="608.139" gradientUnits="userSpaceOnUse"><stop stop-color="#8D78FF"/><stop offset=".231" stop-color="#FFC42C"/><stop offset="1" stop-color="#8D78FF"/></linearGradient><linearGradient id="m" x1="1084.89" y1="1103.69" x2="1405.3" y2="648.696" gradientUnits="userSpaceOnUse"><stop stop-color="#9482F2" stop-opacity="0"/><stop offset=".231" stop-color="#FFC42C"/><stop offset="1" stop-color="#E7E2FF"/></linearGradient><clipPath id="a"><path fill="#fff" d="M0 0h1370v866H0z"/></clipPath></defs></svg>