<svg width="20" height="20" viewBox="0 0 20 20" fill="none" xmlns="http://www.w3.org/2000/svg">
<path fill-rule="evenodd" clip-rule="evenodd" d="M2.5013 9.79178C1.7013 9.79178 1.04297 9.13344 1.04297 8.33345V5.56677C1.04297 5.00011 1.43462 4.42511 1.95962 4.21678L9.45962 1.2168C9.77628 1.0918 10.2263 1.0918 10.543 1.2168L18.043 4.21678C18.568 4.42511 18.9596 5.00844 18.9596 5.56677V8.33345C18.9596 9.13344 18.3013 9.79178 17.5013 9.79178H2.5013ZM9.91799 2.37509L2.42628 5.37512C2.37628 5.40012 2.29297 5.50844 2.29297 5.56677V8.33345C2.29297 8.45011 2.38464 8.54178 2.5013 8.54178H17.5013C17.618 8.54178 17.7096 8.45011 17.7096 8.33345V5.56677C17.7096 5.50844 17.6347 5.40012 17.5763 5.37512L10.0763 2.37509C10.0597 2.36676 10.0346 2.3668 10.0013 2.3668C9.96797 2.3668 9.93466 2.36676 9.91799 2.37509Z" fill="#436AF5"/>
<path fill-rule="evenodd" clip-rule="evenodd" d="M1.66797 18.9583C1.3263 18.9583 1.04297 18.675 1.04297 18.3333V15.8333C1.04297 15.0333 1.7013 14.375 2.5013 14.375H17.5013C18.3013 14.375 18.9596 15.0333 18.9596 15.8333V18.3333C18.9596 18.675 18.6763 18.9583 18.3346 18.9583H1.66797ZM17.7096 17.7083V15.8333C17.7096 15.7167 17.618 15.625 17.5013 15.625H2.5013C2.38464 15.625 2.29297 15.7167 2.29297 15.8333V17.7083H17.7096Z" fill="#436AF5"/>
<path d="M2.70703 14.9993V9.16602C2.70703 8.82435 2.99036 8.54102 3.33203 8.54102C3.6737 8.54102 3.95703 8.82435 3.95703 9.16602V14.9993C3.95703 15.341 3.6737 15.6243 3.33203 15.6243C2.99036 15.6243 2.70703 15.341 2.70703 14.9993Z" fill="#436AF5"/>
<path d="M6.04297 14.9993V9.16602C6.04297 8.82435 6.3263 8.54102 6.66797 8.54102C7.00964 8.54102 7.29297 8.82435 7.29297 9.16602V14.9993C7.29297 15.341 7.00964 15.6243 6.66797 15.6243C6.3263 15.6243 6.04297 15.341 6.04297 14.9993Z" fill="#436AF5"/>
<path d="M9.375 14.9993V9.16602C9.375 8.82435 9.65833 8.54102 10 8.54102C10.3417 8.54102 10.625 8.82435 10.625 9.16602V14.9993C10.625 15.341 10.3417 15.6243 10 15.6243C9.65833 15.6243 9.375 15.341 9.375 14.9993Z" fill="#436AF5"/>
<path d="M12.707 14.9993V9.16602C12.707 8.82435 12.9904 8.54102 13.332 8.54102C13.6737 8.54102 13.957 8.82435 13.957 9.16602V14.9993C13.957 15.341 13.6737 15.6243 13.332 15.6243C12.9904 15.6243 12.707 15.341 12.707 14.9993Z" fill="#436AF5"/>
<path d="M16.043 14.9993V9.16602C16.043 8.82435 16.3263 8.54102 16.668 8.54102C17.0096 8.54102 17.293 8.82435 17.293 9.16602V14.9993C17.293 15.341 17.0096 15.6243 16.668 15.6243C16.3263 15.6243 16.043 15.341 16.043 14.9993Z" fill="#436AF5"/>
<path d="M0.832031 18.959C0.490365 18.959 0.207031 18.6757 0.207031 18.334C0.207031 17.9923 0.490365 17.709 0.832031 17.709H19.1654C19.507 17.709 19.7904 17.9923 19.7904 18.334C19.7904 18.6757 19.507 18.959 19.1654 18.959H0.832031Z" fill="#436AF5"/>
<path fill-rule="evenodd" clip-rule="evenodd" d="M8.125 5.83398C8.125 4.80065 8.96667 3.95898 10 3.95898C11.0333 3.95898 11.875 4.80065 11.875 5.83398C11.875 6.86732 11.0333 7.70898 10 7.70898C8.96667 7.70898 8.125 6.86732 8.125 5.83398ZM9.375 5.83398C9.375 6.17565 9.65833 6.45898 10 6.45898C10.3417 6.45898 10.625 6.17565 10.625 5.83398C10.625 5.49232 10.3417 5.20898 10 5.20898C9.65833 5.20898 9.375 5.49232 9.375 5.83398Z" fill="#436AF5"/>
</svg>
