<svg width="12" height="12" viewBox="0 0 12 12" fill="none" xmlns="http://www.w3.org/2000/svg">
<g clip-path="url(#clip0_4054_25472)">
<path d="M6 0C2.69162 0 0 2.69162 0 6C0 9.30838 2.69162 12 6 12C9.30838 12 12 9.30838 12 6C12 2.69162 9.30838 0 6 0ZM6 0.9C8.82198 0.9 11.1 3.17802 11.1 6C11.1 8.82198 8.82198 11.1 6 11.1C3.17802 11.1 0.9 8.82198 0.9 6C0.9 3.17802 3.17802 0.9 6 0.9ZM7.9459 3.59355C7.82706 3.59636 7.71415 3.64607 7.63184 3.73184L6 5.36367L4.36816 3.73184C4.28342 3.64457 4.16696 3.59532 4.04531 3.59531C3.86212 3.59536 3.69723 3.70644 3.62838 3.8762C3.55952 4.04596 3.60044 4.24052 3.73184 4.36816L5.36367 6L3.73184 7.63184C3.61428 7.7447 3.56693 7.9123 3.60804 8.07C3.64915 8.2277 3.7723 8.35085 3.93 8.39196C4.0877 8.43307 4.2553 8.38572 4.36816 8.26816L6 6.63633L7.63184 8.26816C7.7447 8.38572 7.9123 8.43307 8.07 8.39196C8.2277 8.35085 8.35085 8.2277 8.39196 8.07C8.43307 7.9123 8.38572 7.7447 8.26816 7.63184L6.63633 6L8.26816 4.36816C8.4021 4.23961 8.44336 4.04201 8.37205 3.8706C8.30074 3.6992 8.13149 3.58917 7.9459 3.59355Z" fill="#B52A21"/>
</g>
<defs>
<clipPath id="clip0_4054_25472">
<rect width="12" height="12" fill="white"/>
</clipPath>
</defs>
</svg>
