<svg width="39" height="39" viewBox="0 0 39 39" fill="none" xmlns="http://www.w3.org/2000/svg">
<path d="M11.375 27.625V27.6412M11.375 11.375V11.3912M27.625 11.375V11.3912M27.625 22.75H22.75V27.625M32.5 22.75V22.7662M22.75 32.5H27.625M27.625 27.625H32.5V32.5M6.5 8.125C6.5 7.69402 6.67121 7.2807 6.97595 6.97595C7.2807 6.67121 7.69402 6.5 8.125 6.5H14.625C15.056 6.5 15.4693 6.67121 15.774 6.97595C16.0788 7.2807 16.25 7.69402 16.25 8.125V14.625C16.25 15.056 16.0788 15.4693 15.774 15.774C15.4693 16.0788 15.056 16.25 14.625 16.25H8.125C7.69402 16.25 7.2807 16.0788 6.97595 15.774C6.67121 15.4693 6.5 15.056 6.5 14.625V8.125ZM22.75 8.125C22.75 7.69402 22.9212 7.2807 23.2259 6.97595C23.5307 6.67121 23.944 6.5 24.375 6.5H30.875C31.306 6.5 31.7193 6.67121 32.024 6.97595C32.3288 7.2807 32.5 7.69402 32.5 8.125V14.625C32.5 15.056 32.3288 15.4693 32.024 15.774C31.7193 16.0788 31.306 16.25 30.875 16.25H24.375C23.944 16.25 23.5307 16.0788 23.2259 15.774C22.9212 15.4693 22.75 15.056 22.75 14.625V8.125ZM6.5 24.375C6.5 23.944 6.67121 23.5307 6.97595 23.2259C7.2807 22.9212 7.69402 22.75 8.125 22.75H14.625C15.056 22.75 15.4693 22.9212 15.774 23.2259C16.0788 23.5307 16.25 23.944 16.25 24.375V30.875C16.25 31.306 16.0788 31.7193 15.774 32.024C15.4693 32.3288 15.056 32.5 14.625 32.5H8.125C7.69402 32.5 7.2807 32.3288 6.97595 32.024C6.67121 31.7193 6.5 31.306 6.5 30.875V24.375Z" stroke="#6A7483" stroke-width="2.10485" stroke-linecap="round" stroke-linejoin="round"/>
<path d="M9.17969 9.74931C9.17969 9.43256 9.43647 9.17578 9.75322 9.17578H12.9076C13.2244 9.17578 13.4812 9.43256 13.4812 9.74931V12.9608C13.4812 13.2775 13.2244 13.5343 12.9076 13.5343H9.75322C9.43647 13.5343 9.17969 13.2775 9.17969 12.9608V9.74931Z" fill="#6A7483"/>
<path d="M9.17969 26.095C9.17969 25.7783 9.43647 25.5215 9.75322 25.5215H12.9076C13.2244 25.5215 13.4812 25.7783 13.4812 26.095V29.2494C13.4812 29.5662 13.2244 29.823 12.9076 29.823H9.75322C9.43647 29.823 9.17969 29.5662 9.17969 29.2494V26.095Z" fill="#6A7483"/>
<path d="M25.5156 9.74931C25.5156 9.43256 25.7724 9.17578 26.0892 9.17578H29.2436C29.5603 9.17578 29.8171 9.43256 29.8171 9.74931V12.9037C29.8171 13.2205 29.5603 13.4773 29.2436 13.4773H26.0892C25.7724 13.4773 25.5156 13.2205 25.5156 12.9037V9.74931Z" fill="#6A7483"/>
<rect x="13" y="9" width="14" height="22" rx="2" fill="#2A394E"/>
<rect x="14" y="10" width="12" height="20" rx="2" fill="white"/>
<rect x="17" y="9" width="6" height="2" rx="0.5" fill="#2A394E"/>
</svg>
