<svg width="13" height="14" viewBox="0 0 13 14" fill="none" xmlns="http://www.w3.org/2000/svg">
<path d="M11.3317 4.14551C8.46624 3.85842 5.60624 3.75009 2.77332 4.03717L1.66832 4.14551C1.44082 4.16717 1.2404 4.00467 1.21873 3.77717C1.19707 3.54967 1.35957 3.35467 1.58165 3.33301L2.68665 3.22467C5.56832 2.93217 8.4879 3.04592 11.4129 3.33301C11.635 3.35467 11.7975 3.55509 11.7758 3.77717C11.7596 3.98842 11.5808 4.14551 11.375 4.14551C11.3642 4.14551 11.3479 4.14551 11.3317 4.14551Z" fill="#2A394E"/>
<path d="M4.5335 3.59259C4.31683 3.55467 4.16517 3.34342 4.20308 3.12676L4.32225 2.41717C4.40892 1.89717 4.52808 1.17676 5.79017 1.17676H7.20933C8.47683 1.17676 8.596 1.92426 8.67725 2.42259L8.79642 3.12676C8.83433 3.34884 8.68267 3.56009 8.466 3.59259C8.24392 3.63051 8.03267 3.47884 8.00017 3.26217L7.881 2.55801C7.80517 2.08676 7.78892 1.99467 7.21475 1.99467H5.79558C5.22142 1.99467 5.21058 2.07051 5.12933 2.55259L5.00475 3.25676C4.97225 3.45717 4.79892 3.59801 4.60392 3.59801C4.58225 3.59801 4.56058 3.59801 4.5335 3.59259Z" fill="#2A394E"/>
<path d="M4.76178 12.8228C2.87137 12.8228 2.79554 11.7774 2.73595 10.9324L2.38387 5.47777C2.36762 5.25569 2.54095 5.06069 2.76304 5.04444C2.99054 5.03361 3.18012 5.20152 3.19637 5.42361L3.54845 10.8782C3.60804 11.7015 3.6297 12.0103 4.76178 12.0103H8.23928C9.37678 12.0103 9.39845 11.7015 9.45262 10.8782L9.8047 5.42361C9.82095 5.20152 10.016 5.03361 10.238 5.04444C10.4601 5.06069 10.6335 5.25027 10.6172 5.47777L10.2651 10.9324C10.2055 11.7774 10.1297 12.8228 8.23928 12.8228H4.76178Z" fill="#2A394E"/>
<path d="M5.5957 9.84375C5.37362 9.84375 5.18945 9.65958 5.18945 9.4375C5.18945 9.21542 5.37362 9.03125 5.5957 9.03125H7.39945C7.62154 9.03125 7.8057 9.21542 7.8057 9.4375C7.8057 9.65958 7.62154 9.84375 7.39945 9.84375H5.5957Z" fill="#2A394E"/>
<path d="M5.14648 7.67676C4.9244 7.67676 4.74023 7.49259 4.74023 7.27051C4.74023 7.04842 4.9244 6.86426 5.14648 6.86426H7.85482C8.0769 6.86426 8.26107 7.04842 8.26107 7.27051C8.26107 7.49259 8.0769 7.67676 7.85482 7.67676H5.14648Z" fill="#2A394E"/>
</svg>
