<svg width="20" height="18" viewBox="0 0 20 18" fill="none" xmlns="http://www.w3.org/2000/svg">
<g clip-path="url(#clip0_3676_169193)">
<path d="M11.0365 6.35593V0H5.15173C4.85173 0.000894206 4.56427 0.120467 4.35213 0.332603C4.14 0.544738 4.02043 0.832199 4.01953 1.1322V16.4407C4.02043 16.7407 4.14 17.0281 4.35213 17.2403C4.56427 17.4524 4.85173 17.572 5.15173 17.5729H17.8229C18.1229 17.572 18.4104 17.4524 18.6225 17.2403C18.8347 17.0281 18.9542 16.7407 18.9551 16.4407V6.35593H11.0365Z" fill="#6334FA"/>
<path d="M3.05053 15.2165C2.368 15.2125 1.70653 14.9797 1.17189 14.5554C0.637258 14.1311 0.260344 13.5398 0.101427 12.876C-0.0574902 12.2123 0.0107689 11.5144 0.295289 10.8939C0.579808 10.2735 1.06415 9.76645 1.67087 9.45378C1.69416 8.59713 1.99196 7.7706 2.5204 7.09595C3.04884 6.4213 3.77999 5.9342 4.60613 5.70641C5.43227 5.47861 6.30973 5.52216 7.10926 5.83064C7.90878 6.13912 8.5881 6.69622 9.04714 7.41988C9.40495 7.27988 9.78499 7.20525 10.1692 7.19954C10.8447 7.19782 11.5031 7.41245 12.0478 7.812C12.5925 8.21155 12.995 8.77502 13.1963 9.41988C13.7067 9.67312 14.136 10.0642 14.4356 10.5489C14.7351 11.0336 14.893 11.5925 14.8912 12.1623C14.8925 12.8954 14.6298 13.6044 14.1511 14.1597C13.6724 14.715 13.0097 15.0793 12.2844 15.186V15.2165H3.05053Z" fill="#6334FF"/>
<path d="M12.81 9.73629C12.7131 9.3297 12.5242 8.95076 12.2579 8.62864C11.9916 8.30651 11.6549 8.04978 11.2738 7.8782C10.8926 7.70663 10.4772 7.62478 10.0595 7.63897C9.64176 7.65315 9.23285 7.76299 8.86423 7.96002C8.50536 7.24202 7.91474 6.66609 7.18792 6.32541C6.46111 5.98472 5.64061 5.89922 4.85917 6.08272C4.07773 6.26622 3.38105 6.70799 2.88184 7.33657C2.38263 7.96515 2.11009 8.74376 2.1083 9.54646C2.1083 9.60409 2.1083 9.6651 2.1083 9.72273C1.53884 9.94303 1.06434 10.3555 0.766949 10.8888C0.469554 11.422 0.367986 12.0425 0.479829 12.6428C0.591673 13.243 0.909887 13.7853 1.37938 14.1756C1.84887 14.566 2.44009 14.7799 3.05068 14.7804H11.8439C12.4504 14.7775 13.0371 14.564 13.5037 14.1765C13.9702 13.789 14.2877 13.2514 14.4018 12.6557C14.5159 12.06 14.4195 11.4432 14.1292 10.9107C13.8388 10.3782 13.3725 9.96306 12.81 9.73629Z" fill="white"/>
<path opacity="0.6" d="M11.9121 5.62373H18.9562L11.9121 0V5.62373Z" fill="black"/>
<path d="M11.9121 5.62373H18.9562L11.9121 0V5.62373Z" fill="#6334FF"/>
<path d="M6.74902 11.1211C7.1066 11.1211 7.39648 10.8312 7.39648 10.4736C7.39648 10.116 7.1066 9.82617 6.74902 9.82617C6.39144 9.82617 6.10156 10.116 6.10156 10.4736C6.10156 10.8312 6.39144 11.1211 6.74902 11.1211Z" fill="#6334FA"/>
<path d="M6.93465 10.7129H6.55838L6.12109 12.5197H7.37533L6.93465 10.7129Z" fill="#6334FA"/>
</g>
<defs>
<clipPath id="clip0_3676_169193">
<rect width="20" height="17.6271" fill="white"/>
</clipPath>
</defs>
</svg>
