<svg width="142" height="43" viewBox="0 0 142 43" fill="none" xmlns="http://www.w3.org/2000/svg">
<g clip-path="url(#clip0_112_281)">
<path d="M136.738 42.0738H5.26187C2.36933 42.0738 0.00274658 39.7072 0.00274658 36.8146V5.25986C0.00274658 2.36732 2.36933 0.000732422 5.26187 0.000732422H136.738C139.631 0.000732422 141.997 2.36732 141.997 5.25986V36.8146C141.997 39.7072 139.631 42.0738 136.738 42.0738Z" fill="#100F0D"/>
<path d="M136.738 0.000732422H5.26187C2.36933 0.000732422 0.00274658 2.36732 0.00274658 5.25986V36.8146C0.00274658 39.7072 2.36933 42.0738 5.26187 42.0738H136.738C139.631 42.0738 141.997 39.7072 141.997 36.8146V5.25986C141.997 2.36732 139.631 0.000732422 136.738 0.000732422ZM136.738 0.841767C139.174 0.841767 141.156 2.82385 141.156 5.25986V36.8146C141.156 39.2506 139.174 41.2327 136.738 41.2327H5.26187C2.82586 41.2327 0.844649 39.2506 0.844649 36.8146V5.25986C0.844649 2.82385 2.82586 0.841767 5.26187 0.841767H136.738Z" fill="#100F0D"/>
<path d="M112.48 31.5555H114.442V18.4055H112.48V31.5555ZM130.158 23.1428L127.908 28.8436H127.841L125.506 23.1428H123.392L126.894 31.1106L124.897 35.5429H126.944L132.341 23.1432L130.158 23.1428ZM119.027 30.0618C118.385 30.0618 117.488 29.7401 117.488 28.9451C117.488 27.9302 118.605 27.5411 119.568 27.5411C120.431 27.5411 120.838 27.7268 121.362 27.9807C121.209 29.1989 120.161 30.0618 119.027 30.0618ZM119.264 22.8552C117.843 22.8552 116.372 23.4813 115.763 24.8685L117.505 25.5957C117.877 24.8685 118.57 24.6318 119.298 24.6318C120.313 24.6318 121.345 25.2403 121.362 26.3234V26.4585C121.006 26.2555 120.245 25.9511 119.315 25.9511C117.436 25.9511 115.525 26.9828 115.525 28.9114C115.525 30.6708 117.065 31.8043 118.79 31.8043C120.109 31.8043 120.838 31.2122 121.293 30.5183H121.362V31.534H123.257V26.4922C123.257 24.1576 121.513 22.8552 119.264 22.8552ZM107.134 24.7435H104.343V20.2364H107.134C108.602 20.2364 109.435 21.4509 109.435 22.4899C109.435 23.5089 108.602 24.7435 107.134 24.7435ZM107.084 18.4058H102.381V31.5558H104.343V26.5741H107.084C109.259 26.5741 111.398 24.9996 111.398 22.4904C111.398 19.9816 109.259 18.4058 107.084 18.4058ZM81.4396 30.064C80.0836 30.064 78.9488 28.9283 78.9488 27.37C78.9488 25.7935 80.0836 24.6418 81.4396 24.6418C82.7782 24.6418 83.8288 25.7935 83.8288 27.37C83.8288 28.9283 82.7782 30.064 81.4396 30.064ZM83.6932 23.8789H83.6253C83.1849 23.3537 82.3372 22.8792 81.2703 22.8792C79.0331 22.8792 76.9828 24.8452 76.9828 27.37C76.9828 29.8775 79.0331 31.8262 81.2703 31.8262C82.3372 31.8262 83.1849 31.3517 83.6253 30.8098H83.6932V31.4532C83.6932 33.1653 82.7782 34.0798 81.304 34.0798C80.1013 34.0798 79.3556 33.2158 79.0503 32.4872L77.3392 33.1989C77.8302 34.3846 79.1346 35.8424 81.304 35.8424C83.609 35.8424 85.5577 34.4865 85.5577 31.1819V23.1502H83.6933L83.6932 23.8789ZM86.9136 31.5551H88.8784V18.4051H86.9136V31.5551ZM91.7763 27.2172C91.7257 25.4886 93.1157 24.6077 94.115 24.6077C94.8948 24.6077 95.555 24.9976 95.7761 25.5564L91.7763 27.2172ZM97.8765 25.7257C97.5038 24.7265 96.3686 22.8792 94.0471 22.8792C91.7421 22.8792 89.8275 24.6923 89.8275 27.3528C89.8275 29.8607 91.7257 31.8263 94.267 31.8263C96.3172 31.8263 97.5039 30.5728 97.9956 29.8438L96.4704 28.827C95.9619 29.5727 95.2675 30.0641 94.267 30.0641C93.2678 30.0641 92.5557 29.6065 92.0989 28.7083L98.0798 26.2344L97.8765 25.7257ZM50.2205 24.2519V26.1497H54.7617C54.6261 27.2172 54.2703 27.9966 53.728 28.5389C53.0669 29.1996 52.0332 29.9285 50.2204 29.9285C47.4243 29.9285 45.2386 27.6749 45.2386 24.8789C45.2386 22.0829 47.4243 19.829 50.2204 19.829C51.7286 19.829 52.8298 20.4222 53.6432 21.1848L54.9823 19.8458C53.8466 18.7615 52.3387 17.9312 50.2204 17.9312C46.3902 17.9312 43.1707 21.0492 43.1707 24.8789C43.1707 28.7082 46.3902 31.8263 50.2204 31.8263C52.2874 31.8263 53.8467 31.1484 55.0665 29.8776C56.3206 28.6236 56.7104 26.8614 56.7104 25.4377C56.7104 24.9977 56.6763 24.591 56.6085 24.2519H50.2205ZM61.8739 30.064C60.518 30.064 59.3487 28.9456 59.3487 27.3528C59.3487 25.743 60.518 24.6418 61.8739 24.6418C63.2293 24.6418 64.3986 25.743 64.3986 27.3528C64.3986 28.9456 63.2293 30.064 61.8739 30.064ZM61.8739 22.8792C59.3992 22.8792 57.383 24.7601 57.383 27.3528C57.383 29.9285 59.3992 31.8263 61.8739 31.8263C64.3477 31.8263 66.3643 29.9285 66.3643 27.3528C66.3643 24.7601 64.3477 22.8792 61.8739 22.8792ZM71.6696 30.064C70.3146 30.064 69.1449 28.9456 69.1449 27.3528C69.1449 25.743 70.3147 24.6418 71.6696 24.6418C73.0255 24.6418 74.1944 25.743 74.1944 27.3528C74.1944 28.9456 73.0255 30.064 71.6696 30.064ZM71.6696 22.8792C69.1958 22.8792 67.1796 24.7601 67.1796 27.3528C67.1796 29.9285 69.1958 31.8263 71.6696 31.8263C74.1443 31.8263 76.1605 29.9285 76.1605 27.3528C76.1605 24.7601 74.1443 22.8792 71.6696 22.8792Z" fill="white"/>
<path d="M21.7907 20.431L10.5932 32.3164C10.5936 32.3189 10.5945 32.3209 10.5949 32.3235C10.9383 33.6141 12.1171 34.5644 13.5161 34.5644C14.0754 34.5644 14.6004 34.4132 15.0507 34.1478L15.0865 34.1268L27.6914 26.8533L21.7907 20.431Z" fill="#EB3131"/>
<path d="M33.12 18.4082L33.1092 18.4009L27.6673 15.2461L21.5363 20.7017L27.6886 26.8533L33.1018 23.7299C34.0509 23.2175 34.6951 22.217 34.6951 21.0633C34.6951 19.9178 34.0596 18.9222 33.12 18.4082Z" fill="#F6B60B"/>
<path d="M10.5917 9.75854C10.5244 10.0068 10.489 10.2668 10.489 10.5368V31.5394C10.489 31.8089 10.524 32.0698 10.5921 32.3171L22.1762 20.7354L10.5917 9.75854Z" fill="#5778C5"/>
<path d="M21.8735 21.0381L27.6697 15.2437L15.0791 7.94378C14.6214 7.66967 14.0873 7.51147 13.5157 7.51147C12.1167 7.51147 10.9363 8.46351 10.5928 9.75563C10.5924 9.75689 10.5924 9.75776 10.5924 9.75886L21.8735 21.0381Z" fill="#3BAD49"/>
<path d="M49.8522 10.2887H46.7838V11.048H49.0831C49.0206 11.6677 48.7741 12.1541 48.3583 12.5075C47.9425 12.8609 47.4116 13.0383 46.7838 13.0383C46.0952 13.0383 45.5117 12.7984 45.0336 12.3218C44.5651 11.8354 44.3269 11.2338 44.3269 10.5091C44.3269 9.78435 44.5651 9.18278 45.0336 8.69635C45.5118 8.21977 46.0952 7.98143 46.7838 7.98143C47.1372 7.98143 47.4741 8.04223 47.783 8.17538C48.0921 8.30844 48.3402 8.49419 48.5341 8.73254L49.1176 8.14909C48.8529 7.84827 48.5177 7.61823 48.1018 7.45058C47.686 7.28291 47.2522 7.20245 46.7837 7.20245C45.8651 7.20245 45.0861 7.52125 44.45 8.15732C43.814 8.79494 43.4952 9.58055 43.4952 10.5091C43.4952 11.4376 43.814 12.2249 44.45 12.861C45.0861 13.4969 45.8651 13.8159 46.7837 13.8159C47.7485 13.8159 48.5176 13.5068 49.1093 12.879C49.6303 12.3564 49.8965 11.6497 49.8965 10.7655C49.8965 10.616 49.8785 10.4564 49.8522 10.2887ZM51.0409 7.34365V13.6744H54.737V12.897H51.8544V10.8887H54.4544V10.1294H51.8544V8.12272H54.737V7.34363L51.0409 7.34365ZM59.9198 8.12274V7.34365H55.5695V8.12274H57.338V13.6744H58.1515V8.12274H59.9198ZM63.8584 7.34365H63.0449V13.6744H63.8584V7.34365ZM69.228 8.12274V7.34365H64.8778V8.12274H66.6461V13.6744H67.4596V8.12274H69.228ZM77.4372 8.16713C76.8094 7.52121 76.0402 7.20239 75.1215 7.20239C74.2012 7.20239 73.4321 7.5212 72.8042 8.15726C72.1764 8.7851 71.8675 9.57229 71.8675 10.509C71.8675 11.4457 72.1764 12.2331 72.8042 12.8609C73.432 13.4969 74.2012 13.8158 75.1215 13.8158C76.0319 13.8158 76.8093 13.4969 77.4372 12.8609C78.065 12.2331 78.3739 11.4458 78.3739 10.509C78.3739 9.5805 78.065 8.79484 77.4372 8.16713ZM73.3877 8.6963C73.856 8.21971 74.4313 7.98137 75.1215 7.98137C75.8101 7.98137 76.3854 8.21972 76.8455 8.6963C77.3139 9.16468 77.5439 9.77597 77.5439 10.509C77.5439 11.2437 77.3139 11.8534 76.8455 12.3218C76.3853 12.7984 75.8101 13.0383 75.1215 13.0383C74.4313 13.0383 73.856 12.7984 73.3877 12.3218C72.9291 11.8435 72.699 11.2437 72.699 10.509C72.699 9.77599 72.9291 9.17452 73.3877 8.6963ZM80.3067 9.73171L80.2722 8.51051H80.3067L83.5247 13.6743H84.3743V7.34359H83.5608V11.048L83.5953 12.2692H83.5608L80.4842 7.34359H79.4932V13.6743H80.3067V9.73171Z" fill="white" stroke="white" stroke-width="0.210365" stroke-miterlimit="10"/>
</g>
<defs>
<clipPath id="clip0_112_281">
<rect width="142" height="42.0738" fill="white"/>
</clipPath>
</defs>
</svg>
