<svg width="142" height="43" viewBox="0 0 142 43" fill="none" xmlns="http://www.w3.org/2000/svg">
<g clip-path="url(#clip0_112_290)">
<path d="M136.948 42.0741H4.97421C2.23203 42.0741 0 39.8357 0 37.0957V4.97105C0 2.22993 2.23203 0 4.97421 0H136.948C139.689 0 142 2.22993 142 4.97105V37.0957C142 39.8357 139.689 42.0741 136.948 42.0741Z" fill="black"/>
<path d="M140.982 37.0961C140.982 39.3218 139.179 41.1247 136.949 41.1247H4.97403C2.74516 41.1247 0.935974 39.3218 0.935974 37.0961V4.9694C0.935974 2.74473 2.74516 0.935547 4.97403 0.935547H136.948C139.179 0.935547 140.981 2.74473 140.981 4.9694L140.982 37.0961Z" fill="black"/>
<path d="M31.6902 20.8102C31.6597 17.4201 34.466 15.7708 34.5944 15.694C33.005 13.3767 30.5416 13.0601 29.6759 13.0349C27.6069 12.8172 25.6 14.2729 24.546 14.2729C23.471 14.2729 21.848 13.0559 20.0988 13.0917C17.8478 13.1264 15.742 14.4296 14.5871 16.4534C12.2036 20.5798 13.9812 26.6438 16.2648 29.9792C17.4071 31.6127 18.7419 33.4366 20.489 33.3724C22.1983 33.302 22.8368 32.2827 24.8995 32.2827C26.9432 32.2827 27.5428 33.3724 29.3246 33.3314C31.159 33.302 32.314 31.6905 33.4163 30.0423C34.7364 28.17 35.2665 26.3261 35.2875 26.2314C35.2444 26.2167 31.7249 24.8735 31.6902 20.8102Z" fill="white"/>
<path d="M28.3243 10.8401C29.2436 9.69041 29.8726 8.12631 29.698 6.53906C28.3674 6.59797 26.7034 7.45943 25.7452 8.58386C24.8974 9.57471 24.14 11.1988 24.3357 12.7261C25.8304 12.8376 27.365 11.9719 28.3243 10.8401Z" fill="white"/>
<path d="M56.4266 33.1384H54.0379L52.7294 29.0267H48.1812L46.9347 33.1384H44.6091L49.1152 19.1404H51.8984L56.4266 33.1384ZM52.3349 27.3017L51.1516 23.6465C51.0264 23.2731 50.7919 22.3938 50.4458 21.0095H50.4037C50.2659 21.6049 50.044 22.4842 49.7389 23.6465L48.5767 27.3017H52.3349Z" fill="white"/>
<path d="M68.0148 27.9673C68.0148 29.6839 67.551 31.0408 66.6232 32.0369C65.7923 32.9236 64.7604 33.3664 63.5287 33.3664C62.1991 33.3664 61.2441 32.8889 60.6624 31.9338H60.6203V37.2509H58.3778V26.3674C58.3778 25.2882 58.3494 24.1806 58.2947 23.0446H60.2669L60.3921 24.6445H60.4341C61.182 23.4391 62.317 22.8374 63.84 22.8374C65.0307 22.8374 66.0247 23.3076 66.8199 24.249C67.6172 25.1914 68.0148 26.4305 68.0148 27.9673ZM65.7302 28.0493C65.7302 27.0669 65.5093 26.257 65.0654 25.6196C64.5805 24.9548 63.9294 24.6224 63.1132 24.6224C62.5599 24.6224 62.0571 24.8075 61.608 25.1725C61.1578 25.5407 60.8633 26.0214 60.7255 26.6167C60.6561 26.8944 60.6214 27.1216 60.6214 27.3004V28.9834C60.6214 29.7176 60.8465 30.3371 61.2967 30.843C61.7469 31.349 62.3317 31.6014 63.0512 31.6014C63.8958 31.6014 64.5532 31.2754 65.0234 30.6253C65.4946 29.9742 65.7302 29.1159 65.7302 28.0493Z" fill="white"/>
<path d="M79.6243 27.9673C79.6243 29.6839 79.1604 31.0408 78.2316 32.0369C77.4017 32.9236 76.3698 33.3664 75.1381 33.3664C73.8086 33.3664 72.8535 32.8889 72.2729 31.9338H72.2308V37.2509H69.9883V26.3674C69.9883 25.2882 69.9598 24.1806 69.9052 23.0446H71.8774L72.0025 24.6445H72.0446C72.7914 23.4391 73.9264 22.8374 75.4505 22.8374C76.6402 22.8374 77.6342 23.3076 78.4315 24.249C79.2256 25.1914 79.6243 26.4305 79.6243 27.9673ZM77.3396 28.0493C77.3396 27.0669 77.1177 26.257 76.6738 25.6196C76.1889 24.9548 75.5399 24.6224 74.7226 24.6224C74.1683 24.6224 73.6666 24.8075 73.2164 25.1725C72.7662 25.5407 72.4727 26.0214 72.3349 26.6167C72.2666 26.8944 72.2308 27.1216 72.2308 27.3004V28.9834C72.2308 29.7176 72.4559 30.3371 72.904 30.843C73.3542 31.3479 73.939 31.6014 74.6606 31.6014C75.5052 31.6014 76.1626 31.2754 76.6328 30.6253C77.104 29.9742 77.3396 29.1159 77.3396 28.0493Z" fill="white"/>
<path d="M92.6041 29.2127C92.6041 30.4034 92.1907 31.3722 91.3608 32.12C90.4488 32.9373 89.1792 33.3454 87.5478 33.3454C86.0416 33.3454 84.834 33.0551 83.92 32.4734L84.4396 30.6043C85.4241 31.1997 86.5044 31.4984 87.6814 31.4984C88.526 31.4984 89.1835 31.3069 89.6557 30.9262C90.1259 30.5454 90.3605 30.0342 90.3605 29.3968C90.3605 28.8288 90.1669 28.3502 89.7788 27.9621C89.3928 27.5739 88.748 27.2131 87.8476 26.8797C85.3968 25.9656 84.1724 24.6266 84.1724 22.8658C84.1724 21.7151 84.6016 20.7716 85.461 20.0374C86.3172 19.3022 87.4595 18.9351 88.8879 18.9351C90.1617 18.9351 91.2198 19.157 92.0645 19.5998L91.5038 21.4279C90.7149 20.9988 89.823 20.7842 88.8248 20.7842C88.0359 20.7842 87.4195 20.9788 86.9777 21.3659C86.6043 21.7119 86.4171 22.1337 86.4171 22.6334C86.4171 23.1866 86.6306 23.6442 87.0598 24.0039C87.4332 24.3363 88.1116 24.6961 89.0962 25.0842C90.3005 25.5691 91.1851 26.136 91.7542 26.7861C92.3211 27.434 92.6041 28.245 92.6041 29.2127Z" fill="white"/>
<path d="M100.018 24.7267H97.5466V29.6273C97.5466 30.8738 97.982 31.4965 98.8551 31.4965C99.2558 31.4965 99.5882 31.4618 99.8512 31.3923L99.9132 33.0953C99.4715 33.2604 98.8898 33.3435 98.1693 33.3435C97.2836 33.3435 96.5915 33.0732 96.0919 32.5336C95.5943 31.9929 95.344 31.0862 95.344 29.8125V24.7246H93.8714V23.0417H95.344V21.1936L97.5466 20.5288V23.0417H100.018V24.7267Z" fill="white"/>
<path d="M111.171 28.0082C111.171 29.5597 110.728 30.8335 109.842 31.8296C108.913 32.8552 107.68 33.3664 106.144 33.3664C104.663 33.3664 103.483 32.8751 102.604 31.8927C101.725 30.9103 101.285 29.6702 101.285 28.1755C101.285 26.6114 101.737 25.3302 102.645 24.3341C103.551 23.337 104.773 22.8384 106.31 22.8384C107.791 22.8384 108.983 23.3296 109.882 24.3131C110.742 25.2671 111.171 26.4988 111.171 28.0082ZM108.845 28.0808C108.845 27.1499 108.646 26.3516 108.243 25.6857C107.773 24.88 107.101 24.4782 106.23 24.4782C105.328 24.4782 104.644 24.8811 104.174 25.6857C103.771 26.3526 103.572 27.1636 103.572 28.1229C103.572 29.0538 103.771 29.8521 104.174 30.5169C104.658 31.3226 105.336 31.7244 106.21 31.7244C107.066 31.7244 107.738 31.3142 108.223 30.4959C108.637 29.8174 108.845 29.0106 108.845 28.0808Z" fill="white"/>
<path d="M118.461 25.0168C118.239 24.9758 118.002 24.9548 117.754 24.9548C116.965 24.9548 116.355 25.2525 115.926 25.8489C115.552 26.3748 115.365 27.0395 115.365 27.8421V33.1382H113.124L113.145 26.2233C113.145 25.06 113.116 24.0008 113.06 23.0457H115.014L115.096 24.9769H115.158C115.394 24.3132 115.768 23.7788 116.279 23.3781C116.779 23.0173 117.318 22.8374 117.9 22.8374C118.107 22.8374 118.294 22.8521 118.461 22.8784V25.0168Z" fill="white"/>
<path d="M128.49 27.6147C128.49 28.0165 128.464 28.3552 128.408 28.6319H121.68C121.707 29.629 122.032 30.3916 122.656 30.9175C123.223 31.3877 123.957 31.6233 124.857 31.6233C125.853 31.6233 126.762 31.4645 127.579 31.1458L127.93 32.7025C126.975 33.1191 125.848 33.3263 124.547 33.3263C122.981 33.3263 121.753 32.8656 120.859 31.9452C119.967 31.0248 119.52 29.7889 119.52 28.2385C119.52 26.7164 119.935 25.449 120.767 24.4381C121.638 23.3589 122.815 22.8193 124.296 22.8193C125.751 22.8193 126.852 23.3589 127.6 24.4381C128.192 25.2954 128.49 26.3557 128.49 27.6147ZM126.352 27.0331C126.366 26.3683 126.22 25.794 125.916 25.3091C125.528 24.6853 124.932 24.374 124.129 24.374C123.396 24.374 122.8 24.678 122.344 25.288C121.971 25.7729 121.749 26.3546 121.68 27.032L126.352 27.0331Z" fill="white"/>
<path d="M51.5934 10.5272C51.5934 11.7652 51.2221 12.6972 50.4806 13.323C49.7937 13.9005 48.8176 14.1898 47.5533 14.1898C46.9264 14.1898 46.3899 14.1624 45.9408 14.1077V7.34325C46.5267 7.24858 47.1578 7.2002 47.8394 7.2002C49.0438 7.2002 49.9515 7.46211 50.5637 7.98593C51.2495 8.57812 51.5934 9.42486 51.5934 10.5272ZM50.4312 10.5577C50.4312 9.75514 50.2187 9.13981 49.7937 8.71065C49.3688 8.28255 48.7482 8.06797 47.9309 8.06797C47.5838 8.06797 47.2882 8.09111 47.0431 8.1395V13.282C47.1788 13.303 47.4271 13.3125 47.7878 13.3125C48.6314 13.3125 49.2825 13.0779 49.7411 12.6088C50.1997 12.1397 50.4312 11.456 50.4312 10.5577Z" fill="white"/>
<path d="M57.7561 11.6092C57.7561 12.3718 57.5384 12.9966 57.1029 13.4868C56.6464 13.9906 56.0416 14.242 55.2864 14.242C54.5585 14.242 53.9789 14.0011 53.5466 13.5173C53.1154 13.0345 52.8997 12.4255 52.8997 11.6913C52.8997 10.9234 53.1217 10.2934 53.5676 9.80426C54.0136 9.31515 54.6132 9.07007 55.3684 9.07007C56.0963 9.07007 56.6811 9.31094 57.124 9.79374C57.5447 10.2629 57.7561 10.8687 57.7561 11.6092ZM56.6128 11.645C56.6128 11.1874 56.5139 10.7951 56.3172 10.468C56.0858 10.0725 55.7566 9.87473 55.3284 9.87473C54.8856 9.87473 54.549 10.0725 54.3176 10.468C54.1199 10.7951 54.022 11.1938 54.022 11.665C54.022 12.1225 54.1209 12.5149 54.3176 12.842C54.5564 13.2375 54.8888 13.4353 55.3179 13.4353C55.7387 13.4353 56.0689 13.2343 56.3067 12.8315C56.5107 12.4981 56.6128 12.1026 56.6128 11.645Z" fill="white"/>
<path d="M66.0197 9.17041L64.4682 14.1288H63.4584L62.8157 11.9757C62.6527 11.4382 62.5201 10.9039 62.4171 10.3737H62.3971C62.3014 10.9186 62.1688 11.4519 61.9984 11.9757L61.3158 14.1288H60.2944L58.8355 9.17041H59.9684L60.529 11.5276C60.6647 12.0851 60.7762 12.6163 60.8656 13.1191H60.8856C60.9676 12.7046 61.1033 12.1766 61.2947 11.5381L61.9984 9.17146H62.8967L63.5709 11.4876C63.734 12.0525 63.8665 12.5963 63.9685 13.1201H63.9991C64.0737 12.61 64.1863 12.0662 64.3356 11.4876L64.9373 9.17146H66.0197V9.17041Z" fill="white"/>
<path d="M71.7342 14.1297H70.6319V11.2897C70.6319 10.4146 70.2995 9.97699 69.6326 9.97699C69.3055 9.97699 69.0415 10.0969 68.8364 10.3378C68.6334 10.5786 68.5303 10.8626 68.5303 11.1877V14.1286H67.428V10.5881C67.428 10.1526 67.4143 9.68037 67.388 9.16917H68.3568L68.4083 9.94438H68.4388C68.5671 9.70351 68.7586 9.50471 69.01 9.34588C69.3087 9.16075 69.6432 9.06714 70.0092 9.06714C70.472 9.06714 70.857 9.2165 71.1631 9.51628C71.5439 9.88338 71.7342 10.4314 71.7342 11.1593V14.1297Z" fill="white"/>
<path d="M74.7741 14.1288H73.6728V6.89526H74.7741V14.1288Z" fill="white"/>
<path d="M81.2642 11.6092C81.2642 12.3718 81.0464 12.9966 80.611 13.4868C80.1545 13.9906 79.5486 14.242 78.7944 14.242C78.0655 14.242 77.4859 14.0011 77.0547 13.5173C76.6234 13.0345 76.4078 12.4255 76.4078 11.6913C76.4078 10.9234 76.6297 10.2934 77.0757 9.80426C77.5217 9.31515 78.1212 9.07007 78.8754 9.07007C79.6044 9.07007 80.1881 9.31094 80.632 9.79374C81.0528 10.2629 81.2642 10.8687 81.2642 11.6092ZM80.1198 11.645C80.1198 11.1874 80.0209 10.7951 79.8242 10.468C79.5938 10.0725 79.2636 9.87473 78.8365 9.87473C78.3926 9.87473 78.056 10.0725 77.8257 10.468C77.6279 10.7951 77.5301 11.1938 77.5301 11.665C77.5301 12.1225 77.629 12.5149 77.8257 12.842C78.0644 13.2375 78.3968 13.4353 78.826 13.4353C79.2467 13.4353 79.576 13.2343 79.8137 12.8315C80.0188 12.4981 80.1198 12.1026 80.1198 11.645Z" fill="white"/>
<path d="M86.5991 14.1295H85.6093L85.5273 13.5583H85.4968C85.1581 14.0138 84.6753 14.242 84.0484 14.242C83.5803 14.242 83.2016 14.0916 82.9166 13.7929C82.6578 13.5215 82.5284 13.1839 82.5284 12.7831C82.5284 12.1772 82.7809 11.7155 83.2889 11.3957C83.7959 11.0759 84.5091 10.9192 85.4274 10.9266V10.834C85.4274 10.1808 85.0844 9.85475 84.3976 9.85475C83.9085 9.85475 83.4772 9.97782 83.1049 10.2218L82.8808 9.49817C83.3415 9.21312 83.9106 9.07007 84.5817 9.07007C85.8775 9.07007 86.5276 9.75377 86.5276 11.1212V12.9472C86.5276 13.4426 86.5518 13.8371 86.5991 14.1295ZM85.4547 12.4255V11.6608C84.2388 11.6397 83.6308 11.9732 83.6308 12.66C83.6308 12.9188 83.7002 13.1123 83.8422 13.2417C83.9842 13.3711 84.1651 13.4353 84.3808 13.4353C84.6227 13.4353 84.8488 13.3585 85.055 13.2059C85.2622 13.0524 85.3895 12.8578 85.4368 12.619C85.4484 12.5654 85.4547 12.5002 85.4547 12.4255Z" fill="white"/>
<path d="M92.8626 14.1288H91.8844L91.8329 13.3326H91.8024C91.49 13.9385 90.9577 14.2414 90.2099 14.2414C89.6124 14.2414 89.1149 14.0068 88.7204 13.5377C88.326 13.0686 88.1293 12.4596 88.1293 11.7117C88.1293 10.9091 88.3428 10.2591 88.772 9.76261C89.1875 9.2998 89.6966 9.06839 90.3024 9.06839C90.9682 9.06839 91.4342 9.29243 91.6993 9.74157H91.7203V6.89526H92.8237V12.793C92.8237 13.2758 92.8363 13.7207 92.8626 14.1288ZM91.7203 12.0378V11.211C91.7203 11.068 91.7098 10.9523 91.6898 10.8639C91.6278 10.5988 91.4942 10.3758 91.2912 10.196C91.0861 10.0161 90.8389 9.92565 90.5538 9.92565C90.1425 9.92565 89.8207 10.0887 89.584 10.4158C89.3494 10.7429 89.2306 11.1605 89.2306 11.6707C89.2306 12.1608 89.3431 12.5584 89.5693 12.8645C89.8081 13.1906 90.1299 13.3536 90.5328 13.3536C90.8946 13.3536 91.1839 13.2179 91.4037 12.9455C91.6162 12.6941 91.7203 12.3912 91.7203 12.0378Z" fill="white"/>
<path d="M102.291 11.6092C102.291 12.3718 102.073 12.9966 101.637 13.4868C101.181 13.9906 100.577 14.242 99.821 14.242C99.0941 14.242 98.5146 14.0011 98.0812 13.5173C97.6499 13.0345 97.4343 12.4255 97.4343 11.6913C97.4343 10.9234 97.6562 10.2934 98.1022 9.80426C98.5482 9.31515 99.1478 9.07007 99.904 9.07007C100.631 9.07007 101.217 9.31094 101.659 9.79374C102.079 10.2629 102.291 10.8687 102.291 11.6092ZM101.148 11.645C101.148 11.1874 101.05 10.7951 100.853 10.468C100.62 10.0725 100.292 9.87473 99.863 9.87473C99.4212 9.87473 99.0847 10.0725 98.8522 10.468C98.6544 10.7951 98.5566 11.1938 98.5566 11.665C98.5566 12.1225 98.6555 12.5149 98.8522 12.842C99.091 13.2375 99.4234 13.4353 99.8525 13.4353C100.273 13.4353 100.605 13.2343 100.842 12.8315C101.045 12.4981 101.148 12.1026 101.148 11.645Z" fill="white"/>
<path d="M108.218 14.1297H107.116V11.2897C107.116 10.4146 106.784 9.97699 106.116 9.97699C105.789 9.97699 105.525 10.0969 105.321 10.3378C105.117 10.5786 105.015 10.8626 105.015 11.1877V14.1286H103.911V10.5881C103.911 10.1526 103.899 9.68037 103.872 9.16917H104.84L104.892 9.94438H104.922C105.052 9.70351 105.243 9.50471 105.493 9.34588C105.793 9.16075 106.127 9.06714 106.494 9.06714C106.955 9.06714 107.34 9.2165 107.646 9.51628C108.028 9.88338 108.218 10.4314 108.218 11.1593V14.1297Z" fill="white"/>
<path d="M115.636 9.99637H114.423V12.4051C114.423 13.0173 114.638 13.3234 115.065 13.3234C115.263 13.3234 115.427 13.3065 115.556 13.2718L115.585 14.1081C115.367 14.1901 115.081 14.2311 114.729 14.2311C114.293 14.2311 113.954 14.0986 113.709 13.8335C113.463 13.5685 113.341 13.1225 113.341 12.4966V9.99637H112.617V9.17066H113.341V8.26187L114.421 7.93579V9.16961H115.635L115.636 9.99637Z" fill="white"/>
<path d="M121.472 14.1288H120.369V11.3099C120.369 10.4211 120.037 9.97614 119.371 9.97614C118.86 9.97614 118.51 10.2338 118.319 10.7492C118.286 10.8576 118.267 10.9901 118.267 11.1458V14.1278H117.166V6.89526H118.267V9.88357H118.288C118.636 9.33977 119.133 9.06839 119.778 9.06839C120.234 9.06839 120.612 9.21775 120.912 9.51753C121.285 9.89094 121.472 10.4463 121.472 11.1805V14.1288Z" fill="white"/>
<path d="M127.492 11.4147C127.492 11.6124 127.477 11.7786 127.451 11.9143H124.145C124.16 12.4045 124.318 12.7779 124.624 13.0366C124.903 13.268 125.264 13.3837 125.706 13.3837C126.195 13.3837 126.641 13.3059 127.043 13.1492L127.215 13.9149C126.745 14.119 126.192 14.221 125.551 14.221C124.783 14.221 124.179 13.9949 123.741 13.5426C123.301 13.0903 123.084 12.4833 123.084 11.7218C123.084 10.9739 123.287 10.3512 123.696 9.85477C124.123 9.32464 124.7 9.05957 125.429 9.05957C126.142 9.05957 126.684 9.32464 127.05 9.85477C127.346 10.2755 127.492 10.7962 127.492 11.4147ZM126.44 11.1296C126.449 10.8025 126.376 10.5206 126.227 10.2829C126.035 9.97679 125.744 9.82321 125.349 9.82321C124.99 9.82321 124.696 9.97258 124.472 10.2724C124.289 10.5111 124.181 10.7962 124.145 11.1296H126.44Z" fill="white"/>
</g>
<defs>
<clipPath id="clip0_112_290">
<rect width="142" height="42.0741" fill="white"/>
</clipPath>
</defs>
</svg>
