<svg width="17" height="17" viewBox="0 0 17 17" fill="none" xmlns="http://www.w3.org/2000/svg">
<rect width="17" height="17" rx="4.85671" fill="#F4F1FF"/>
<path fill-rule="evenodd" clip-rule="evenodd" d="M5.96988 13.1808C4.12308 13.1808 3.06055 12.1182 3.06055 10.2714V6.72964C3.06055 4.88285 4.12308 3.82031 5.96988 3.82031H11.0296C12.8764 3.82031 13.9389 4.88285 13.9389 6.72964V10.2714C13.9389 12.1182 12.8764 13.1808 11.0296 13.1808H5.96988ZM3.8195 6.72964V10.2714C3.8195 11.7185 4.5228 12.4218 5.96988 12.4218H11.0296C12.4767 12.4218 13.18 11.7185 13.18 10.2714V6.72964C13.18 5.28257 12.4767 4.57927 11.0296 4.57927H5.96988C4.5228 4.57927 3.8195 5.28257 3.8195 6.72964Z" fill="#8D78FF"/>
<path d="M7.3156 8.54043L5.73191 7.2755C5.57 7.14395 5.53964 6.90614 5.67119 6.74423C5.80275 6.58232 6.04055 6.55196 6.20246 6.68352L7.78615 7.94844C8.17068 8.25708 8.82339 8.25708 9.20792 7.94844L10.7916 6.68352C10.9535 6.55196 11.1964 6.57726 11.3229 6.74423C11.4544 6.90614 11.4291 7.14901 11.2622 7.2755L9.67848 8.54043C9.35466 8.80859 8.92458 8.94014 8.49957 8.94014C8.07455 8.94014 7.64448 8.80859 7.3156 8.54043Z" fill="#8D78FF"/>
</svg>
