<svg width="16" height="16" viewBox="0 0 16 16" fill="none" xmlns="http://www.w3.org/2000/svg">
<path d="M8.31346 7.6865C8.12012 7.49316 8.12012 7.17316 8.31346 6.97983L13.7801 1.51316C13.9735 1.31983 14.2935 1.31983 14.4868 1.51316C14.6801 1.7065 14.6801 2.0265 14.4868 2.21983L9.02012 7.6865C8.92012 7.7865 8.79346 7.83316 8.66679 7.83316C8.54012 7.83316 8.41346 7.7865 8.31346 7.6865Z" fill="#2A394E"/>
<path d="M14.1663 4.53301V1.83301H11.4663C11.193 1.83301 10.9663 1.60634 10.9663 1.33301C10.9663 1.05967 11.193 0.833008 11.4663 0.833008H14.6663C14.9396 0.833008 15.1663 1.05967 15.1663 1.33301V4.53301C15.1663 4.80634 14.9396 5.03301 14.6663 5.03301C14.393 5.03301 14.1663 4.80634 14.1663 4.53301Z" fill="#2A394E"/>
<path d="M6.00016 15.1663C2.38016 15.1663 0.833496 13.6197 0.833496 9.99967V5.99967C0.833496 2.37967 2.38016 0.833008 6.00016 0.833008H7.3335C7.60683 0.833008 7.8335 1.05967 7.8335 1.33301C7.8335 1.60634 7.60683 1.83301 7.3335 1.83301H6.00016C2.92683 1.83301 1.8335 2.92634 1.8335 5.99967V9.99967C1.8335 13.073 2.92683 14.1663 6.00016 14.1663H10.0002C13.0735 14.1663 14.1668 13.073 14.1668 9.99967V8.66634C14.1668 8.39301 14.3935 8.16634 14.6668 8.16634C14.9402 8.16634 15.1668 8.39301 15.1668 8.66634V9.99967C15.1668 13.6197 13.6202 15.1663 10.0002 15.1663H6.00016Z" fill="#2A394E"/>
</svg>
