<svg width="14" height="14" viewBox="0 0 14 14" fill="none" xmlns="http://www.w3.org/2000/svg">
<path fill-rule="evenodd" clip-rule="evenodd" d="M5.21495 8.78544C4.73662 8.30711 4.47412 7.67128 4.47412 7.00044C4.47412 5.60628 5.60579 4.47461 6.99995 4.47461C7.67079 4.47461 8.30662 4.73711 8.78496 5.21544C8.86662 5.29711 8.91329 5.40794 8.91329 5.52461C8.91329 5.64128 8.86662 5.75211 8.78496 5.83378L5.83329 8.78544C5.74579 8.87294 5.63495 8.91378 5.52412 8.91378C5.41329 8.91378 5.30245 8.87294 5.21495 8.78544ZM5.34912 7.00044C5.34912 7.29211 5.42495 7.57211 5.56495 7.81711L7.81662 5.56544C7.57162 5.42544 7.29162 5.34961 6.99995 5.34961C6.08995 5.34961 5.34912 6.09044 5.34912 7.00044Z" fill="#B0B0B0"/>
<path d="M2.98074 10.6924C2.35658 10.1616 1.79658 9.50828 1.31824 8.74995C0.699909 7.78745 0.699909 6.21828 1.31824 5.24995C2.74158 3.02161 4.81241 1.73828 6.99991 1.73828C8.28324 1.73828 9.54908 2.18161 10.6574 3.01578C10.8499 3.16161 10.8907 3.43578 10.7449 3.62828C10.5991 3.82078 10.3249 3.86161 10.1324 3.71578C9.17574 2.99245 8.09074 2.61328 6.99991 2.61328C5.11574 2.61328 3.31324 3.74495 2.05324 5.72245C1.61574 6.40495 1.61574 7.59495 2.05324 8.27745C2.49074 8.95995 2.99241 9.54912 3.54658 10.0274C3.72741 10.1849 3.75074 10.4591 3.59324 10.6458C3.51158 10.7449 3.38908 10.7974 3.26658 10.7974C3.16741 10.7974 3.06241 10.7624 2.98074 10.6924Z" fill="#B0B0B0"/>
<path d="M4.73715 11.7941C4.51548 11.7007 4.41048 11.4441 4.50382 11.2224C4.59715 11.0007 4.85382 10.8957 5.07548 10.9891C5.69382 11.2516 6.34132 11.3857 6.99465 11.3857C8.87882 11.3857 10.6813 10.2541 11.9413 8.27656C12.3788 7.59406 12.3788 6.40406 11.9413 5.72156C11.7605 5.43573 11.5622 5.16156 11.3522 4.9049C11.2005 4.71823 11.2297 4.44406 11.4163 4.28656C11.603 4.1349 11.8772 4.15823 12.0347 4.35073C12.2622 4.63073 12.4838 4.93406 12.6822 5.24906C13.3005 6.21156 13.3005 7.78073 12.6822 8.74906C11.2588 10.9774 9.18798 12.2607 7.00048 12.2607C6.22465 12.2607 5.46632 12.1032 4.73715 11.7941Z" fill="#B0B0B0"/>
<path d="M6.9706 9.13569C6.92393 8.89652 7.08143 8.66902 7.3206 8.62819C7.96226 8.51152 8.49893 7.97486 8.6156 7.33319C8.66226 7.09402 8.88976 6.94236 9.12893 6.98319C9.3681 7.02986 9.5256 7.25736 9.47893 7.49652C9.29226 8.50569 8.48726 9.30486 7.48393 9.49152C7.45476 9.48569 7.43143 9.49152 7.40226 9.49152C7.1981 9.49152 7.01143 9.34569 6.9706 9.13569Z" fill="#B0B0B0"/>
<path d="M0.857344 13.1418C0.688177 12.9726 0.688177 12.6926 0.857344 12.5234L5.21484 8.16594C5.38401 7.99677 5.66401 7.99677 5.83318 8.16594C6.00234 8.3351 6.00234 8.6151 5.83318 8.78427L1.47568 13.1418C1.38818 13.2293 1.27734 13.2701 1.16651 13.2701C1.05568 13.2701 0.944844 13.2293 0.857344 13.1418Z" fill="#B0B0B0"/>
<path d="M8.16691 5.83318C7.99775 5.66401 7.99775 5.38401 8.16691 5.21484L12.5244 0.857344C12.6936 0.688177 12.9736 0.688177 13.1427 0.857344C13.3119 1.02651 13.3119 1.30651 13.1427 1.47568L8.78525 5.83318C8.69775 5.92068 8.58691 5.96151 8.47608 5.96151C8.36525 5.96151 8.25441 5.92068 8.16691 5.83318Z" fill="#B0B0B0"/>
</svg>
