<svg width="13" height="14" viewBox="0 0 13 14" fill="none" xmlns="http://www.w3.org/2000/svg">
<path fill-rule="evenodd" clip-rule="evenodd" d="M4.87565 12.8236C1.9344 12.8236 0.677734 11.5669 0.677734 8.62565V5.37565C0.677734 2.4344 1.9344 1.17773 4.87565 1.17773H8.12565C11.0669 1.17773 12.3236 2.4344 12.3236 5.37565V8.62565C12.3236 11.5669 11.0669 12.8236 8.12565 12.8236H4.87565ZM1.49023 5.37565V8.62565C1.49023 11.1227 2.37857 12.0111 4.87565 12.0111H8.12565C10.6227 12.0111 11.5111 11.1227 11.5111 8.62565V5.37565C11.5111 2.87857 10.6227 1.99023 8.12565 1.99023H4.87565C2.37857 1.99023 1.49023 2.87857 1.49023 5.37565Z" fill="white"/>
<path d="M6.21352 3.73966L4.58852 5.36466C4.43143 5.52175 4.43143 5.78174 4.58852 5.93883C4.7456 6.09591 5.0056 6.09591 5.16268 5.93883L6.5006 4.60091L7.83852 5.93883C7.9956 6.09591 8.2556 6.09591 8.41268 5.93883C8.56976 5.78174 8.56976 5.52175 8.41268 5.36466L6.78768 3.73966C6.70643 3.65841 6.60351 3.6205 6.5006 3.6205C6.39768 3.6205 6.29477 3.65841 6.21352 3.73966Z" fill="white"/>
<path d="M6.09375 4.02604V8.35938C6.09375 8.58146 6.27792 8.76562 6.5 8.76562C6.72208 8.76562 6.90625 8.58146 6.90625 8.35938V4.02604C6.90625 3.79854 6.72208 3.61979 6.5 3.61979C6.27792 3.61979 6.09375 3.80396 6.09375 4.02604Z" fill="white"/>
</svg>
