<svg width="83" height="24" viewBox="0 0 83 24" fill="none" xmlns="http://www.w3.org/2000/svg">
<g clip-path="url(#clip0_1696_170101)">
<path fill-rule="evenodd" clip-rule="evenodd" d="M13.3964 0V23.4378L10.3714 18.2966V10.8117H6.19403L4.17737 7.40938H10.3714V4.46075H2.4488L0 0H13.3964ZM27.8731 0L25.4243 4.46075H17.5017V7.40938H23.6237L21.6791 10.8117H17.5017V18.2966L14.4767 23.4378V0H27.8731Z" fill="#436AF5"/>
<path d="M34.2054 18.2287V12.4504H38.3717V10.2762H34.2054V6.77003H39.6421V4.55664H31.5898V18.2287H34.2054ZM47.7378 18.2287V13.469L52.0301 4.55664H49.1928L46.4828 10.8051L43.7546 4.55664H40.8809L45.1914 13.469V18.2287H47.7378ZM60.0824 18.2287V15.9989H55.2189V12.3804H59.5318V10.2093H55.2189V6.78642H60.0824V4.55664H52.6495V18.2287H60.0824ZM65.218 18.2287V12.9009H66.471L69.3948 18.2287H72.4704L69.2999 12.6855C70.2998 12.4112 71.0529 11.9117 71.5591 11.187C72.0654 10.4623 72.3186 9.64939 72.3186 8.74837C72.3186 7.96487 72.1382 7.25645 71.7775 6.62312C71.4167 5.98979 70.8757 5.48705 70.1542 5.11488C69.4328 4.74272 68.5594 4.55664 67.5342 4.55664H62.56V18.2287H65.218ZM67.5475 10.4161H65.657V6.50979H67.5475C68.1616 6.50979 68.6194 6.67812 68.921 7.01476C69.2226 7.3514 69.3734 7.8246 69.3734 8.43437C69.3734 9.05683 69.2226 9.54274 68.921 9.89209C68.6194 10.2414 68.1616 10.4161 67.5475 10.4161ZM78.4649 18.2287C79.4075 18.2287 80.2215 18.0471 80.9071 17.6837C81.5926 17.3204 82.1128 16.8328 82.4678 16.2209C82.8228 15.609 83.0003 14.9461 83.0003 14.2323C83.0003 13.4037 82.8106 12.7344 82.4311 12.2245C82.0516 11.7146 81.5987 11.3321 81.0723 11.0772C80.5459 10.8222 79.8666 10.5673 79.0342 10.3123C78.4221 10.1211 77.9478 9.95217 77.6111 9.80557C77.2745 9.65897 76.9929 9.46775 76.7665 9.23192C76.54 8.99608 76.4268 8.69969 76.4268 8.34275C76.4268 7.83284 76.5767 7.44403 76.8767 7.17633C77.1766 6.90862 77.5775 6.77477 78.0793 6.77477C78.6547 6.77477 79.1168 6.92456 79.4657 7.22413C79.8145 7.5237 80.0012 7.90295 80.0257 8.36188H82.8534C82.7677 7.16358 82.3117 6.2298 81.4855 5.56053C80.6592 4.89127 79.585 4.55664 78.263 4.55664C77.3816 4.55664 76.5982 4.7128 75.9127 5.02512C75.2271 5.33745 74.6947 5.78681 74.3152 6.37321C73.9357 6.95961 73.746 7.648 73.746 8.43836C73.746 9.27972 73.9327 9.95217 74.306 10.4557C74.6794 10.9593 75.1262 11.3353 75.6464 11.5839C76.1667 11.8325 76.843 12.0843 77.6754 12.3392C78.2874 12.5177 78.7679 12.6802 79.1168 12.8268C79.4657 12.9734 79.7564 13.1742 79.989 13.4292C80.2215 13.6841 80.3378 14.0092 80.3378 14.4044C80.3378 14.8888 80.1665 15.2808 79.8237 15.5804C79.481 15.8799 79.0097 16.0297 78.4099 16.0297C77.8223 16.0297 77.3602 15.8704 77.0235 15.5517C76.6869 15.233 76.5002 14.7995 76.4635 14.2514H73.7092C73.7215 15.0672 73.9357 15.7748 74.3519 16.3739C74.7681 16.9731 75.3343 17.432 76.0504 17.7507C76.7665 18.0694 77.5713 18.2287 78.4649 18.2287Z" fill="#6A7582"/>
</g>
<defs>
<clipPath id="clip0_1696_170101">
<rect width="83" height="23.7295" fill="white"/>
</clipPath>
</defs>
</svg>
