<svg width="16" height="16" viewBox="0 0 16 16" fill="none" xmlns="http://www.w3.org/2000/svg">
<path fill-rule="evenodd" clip-rule="evenodd" d="M1.89062 9.33312C1.89062 7.43534 3.43729 5.88867 5.33507 5.88867C7.23285 5.88867 8.77951 7.43534 8.77951 9.33312C8.77951 11.2309 7.23285 12.7776 5.33507 12.7776C3.43729 12.7776 1.89062 11.2309 1.89062 9.33312ZM2.55729 9.33312C2.55729 10.8664 3.80174 12.1109 5.33507 12.1109C6.8684 12.1109 8.11285 10.8664 8.11285 9.33312C8.11285 7.79978 6.8684 6.55534 5.33507 6.55534C3.80174 6.55534 2.55729 7.79978 2.55729 9.33312Z" fill="#6A7483"/>
<path d="M1.99063 9.33312C1.99063 7.49057 3.49252 5.98867 5.33507 5.98867V5.78867C3.38206 5.78867 1.79062 7.38011 1.79062 9.33312H1.99063ZM5.33507 5.98867C7.17762 5.98867 8.67951 7.49057 8.67951 9.33312H8.87951C8.87951 7.38011 7.28808 5.78867 5.33507 5.78867V5.98867ZM8.67951 9.33312C8.67951 11.1757 7.17762 12.6776 5.33507 12.6776V12.8776C7.28808 12.8776 8.87951 11.2861 8.87951 9.33312H8.67951ZM5.33507 12.6776C3.49252 12.6776 1.99063 11.1757 1.99063 9.33312H1.79062C1.79062 11.2861 3.38206 12.8776 5.33507 12.8776V12.6776ZM2.45729 9.33312C2.45729 10.9217 3.74651 12.2109 5.33507 12.2109V12.0109C3.85696 12.0109 2.65729 10.8112 2.65729 9.33312H2.45729ZM5.33507 12.2109C6.92363 12.2109 8.21285 10.9217 8.21285 9.33312H8.01285C8.01285 10.8112 6.81317 12.0109 5.33507 12.0109V12.2109ZM8.21285 9.33312C8.21285 7.74455 6.92363 6.45534 5.33507 6.45534V6.65534C6.81317 6.65534 8.01285 7.85501 8.01285 9.33312H8.21285ZM5.33507 6.45534C3.74651 6.45534 2.45729 7.74455 2.45729 9.33312H2.65729C2.65729 7.85501 3.85696 6.65534 5.33507 6.65534V6.45534Z" fill="#6A7483"/>
<path d="M5 15.1104V12.4437C5 12.2615 5.15111 12.1104 5.33333 12.1104C5.51556 12.1104 5.66667 12.2615 5.66667 12.4437V15.1104C5.66667 15.2926 5.51556 15.4437 5.33333 15.4437C5.15111 15.4437 5 15.2926 5 15.1104Z" fill="#6A7483" stroke="#6A7483" stroke-width="0.2"/>
<path d="M4.0013 14.111C3.81908 14.111 3.66797 13.9599 3.66797 13.7777C3.66797 13.5954 3.81908 13.4443 4.0013 13.4443H6.66797C6.85019 13.4443 7.0013 13.5954 7.0013 13.7777C7.0013 13.9599 6.85019 14.111 6.66797 14.111H4.0013Z" fill="#6A7483" stroke="#6A7483" stroke-width="0.2"/>
<path fill-rule="evenodd" clip-rule="evenodd" d="M5.39844 6.39616C5.39844 4.44199 6.98594 2.85449 8.9401 2.85449C10.8943 2.85449 12.4818 4.44199 12.4818 6.39616C12.4818 8.35033 10.8943 9.93783 8.9401 9.93783C6.98594 9.93783 5.39844 8.35033 5.39844 6.39616ZM6.02344 6.39616C6.02344 8.00449 7.33177 9.31283 8.9401 9.31283C10.5484 9.31283 11.8568 8.00449 11.8568 6.39616C11.8568 4.78783 10.5484 3.47949 8.9401 3.47949C7.33177 3.47949 6.02344 4.78783 6.02344 6.39616Z" fill="#6A7483"/>
<path d="M5.49844 6.39616C5.49844 4.49722 7.04117 2.95449 8.9401 2.95449V2.75449C6.93071 2.75449 5.29844 4.38676 5.29844 6.39616H5.49844ZM8.9401 2.95449C10.839 2.95449 12.3818 4.49722 12.3818 6.39616H12.5818C12.5818 4.38676 10.9495 2.75449 8.9401 2.75449V2.95449ZM12.3818 6.39616C12.3818 8.2951 10.839 9.83783 8.9401 9.83783V10.0378C10.9495 10.0378 12.5818 8.40555 12.5818 6.39616H12.3818ZM8.9401 9.83783C7.04117 9.83783 5.49844 8.2951 5.49844 6.39616H5.29844C5.29844 8.40555 6.93071 10.0378 8.9401 10.0378V9.83783ZM5.92344 6.39616C5.92344 8.05972 7.27654 9.41283 8.9401 9.41283V9.21283C7.387 9.21283 6.12344 7.94926 6.12344 6.39616H5.92344ZM8.9401 9.41283C10.6037 9.41283 11.9568 8.05972 11.9568 6.39616H11.7568C11.7568 7.94926 10.4932 9.21283 8.9401 9.21283V9.41283ZM11.9568 6.39616C11.9568 4.7326 10.6037 3.37949 8.9401 3.37949V3.57949C10.4932 3.57949 11.7568 4.84305 11.7568 6.39616H11.9568ZM8.9401 3.37949C7.27654 3.37949 5.92344 4.7326 5.92344 6.39616H6.12344C6.12344 4.84305 7.387 3.57949 8.9401 3.57949V3.37949Z" fill="#6A7483"/>
<path d="M11.1141 4.22142C10.9932 4.10059 10.9932 3.90059 11.1141 3.77975L13.4057 1.48809C13.5266 1.36725 13.7266 1.36725 13.8474 1.48809C13.9682 1.60892 13.9682 1.80892 13.8474 1.92975L11.5557 4.22142C11.4932 4.28392 11.4141 4.31309 11.3349 4.31309C11.2557 4.31309 11.1766 4.28392 11.1141 4.22142Z" fill="#6A7483" stroke="#6A7483" stroke-width="0.2"/>
<path d="M13.3138 4.41732V2.02148H10.918C10.7471 2.02148 10.6055 1.87982 10.6055 1.70898C10.6055 1.53815 10.7471 1.39648 10.918 1.39648H13.6263C13.7971 1.39648 13.9388 1.53815 13.9388 1.70898V4.41732C13.9388 4.58815 13.7971 4.72982 13.6263 4.72982C13.4555 4.72982 13.3138 4.58815 13.3138 4.41732Z" fill="#6A7483" stroke="#6A7483" stroke-width="0.2"/>
</svg>
