<svg width="16" height="16" viewBox="0 0 16 16" fill="none" xmlns="http://www.w3.org/2000/svg">
<path fill-rule="evenodd" clip-rule="evenodd" d="M10 8.5003C8.34 8.5003 7.5 7.5603 7.5 5.7003V3.78697C7.5 3.10697 7.58 2.13363 8.28667 1.6003C8.88 1.1603 9.73333 1.12697 10.9933 1.49363C12.6467 1.97363 14.0267 3.35363 14.5067 5.00697C14.8733 6.2603 14.84 7.1203 14.4 7.70697C13.8667 8.4203 12.8933 8.5003 12.2133 8.5003H10ZM8.89333 2.4003C8.63333 2.59363 8.50667 3.04697 8.50667 3.78697V5.70697C8.50667 7.2003 9.08 7.50697 10.0067 7.50697H12.22C12.9533 7.50697 13.4067 7.3803 13.6067 7.1203C13.84 6.81363 13.82 6.2003 13.56 5.3003C13.1733 3.98697 12.04 2.84697 10.7267 2.46697C10.2333 2.31363 9.83333 2.2403 9.52 2.2403C9.24667 2.2403 9.03333 2.29363 8.89333 2.4003Z" fill="#6A7483"/>
<path d="M6.30683 15.0776C3.58017 14.6376 1.36017 12.4243 0.920166 9.69761C0.353499 6.19094 2.6135 2.88428 6.0735 2.17761C6.34683 2.12428 6.60683 2.29761 6.66683 2.56428C6.72017 2.83761 6.54683 3.09761 6.28017 3.15761C3.3535 3.75761 1.4335 6.55761 1.92017 9.53761C2.2935 11.8443 4.16683 13.7176 6.4735 14.0909C9.46683 14.5709 12.2602 12.6443 12.8535 9.70428C12.9068 9.43094 13.1735 9.25761 13.4402 9.31094C13.7135 9.36428 13.8868 9.63094 13.8335 9.89761C13.2002 13.0109 10.4802 15.1643 7.38017 15.1643C7.02683 15.1643 6.66683 15.1376 6.30683 15.0776Z" fill="#6A7483"/>
</svg>
