<svg width="16" height="16" viewBox="0 0 16 16" fill="none" xmlns="http://www.w3.org/2000/svg">
<path fill-rule="evenodd" clip-rule="evenodd" d="M10.6665 7.83594C10.3932 7.83594 10.1665 7.60927 10.1665 7.33594V2.67594C10.1665 2.1826 10.3598 1.7226 10.7065 1.37594C11.0532 1.02927 11.5132 0.835938 12.0065 0.835938H12.0132C12.8465 0.842604 13.6332 1.16927 14.2332 1.7626C14.8332 2.36927 15.1598 3.16927 15.1598 4.0026V5.61594C15.1665 6.9426 14.2732 7.83594 12.9465 7.83594H10.6665ZM12.9465 6.83594C13.7198 6.83594 14.1665 6.38927 14.1665 5.61594V4.0026C14.1665 3.42927 13.9398 2.8826 13.5332 2.46927C13.1265 2.06927 12.5865 1.8426 12.0132 1.83594C12.0132 1.83594 12.0132 1.83594 12.0065 1.83594C11.7865 1.83594 11.5732 1.9226 11.4132 2.0826C11.2532 2.2426 11.1665 2.44927 11.1665 2.67594V6.83594H12.9465Z" fill="#747E8B"/>
<path fill-rule="evenodd" clip-rule="evenodd" d="M5.17318 15.2093L4.06649 14.0959C4.00649 14.0359 3.91318 14.0293 3.84652 14.0826L2.7065 14.9359C2.35317 15.2026 1.88649 15.2493 1.48649 15.0493C1.08649 14.8493 0.839844 14.4493 0.839844 14.0026V4.0026C0.839844 1.98927 1.99318 0.835938 4.00651 0.835938H12.0065C12.2798 0.835938 12.5065 1.0626 12.5065 1.33594C12.5065 1.60927 12.2798 1.83594 12.0065 1.83594C11.5465 1.83594 11.1732 2.20927 11.1732 2.66927V14.0026C11.1732 14.4493 10.9265 14.8493 10.5265 15.0493C10.1332 15.2493 9.65985 15.2026 9.30652 14.9359L8.1665 14.0826C8.09984 14.0293 8.0065 14.0426 7.95317 14.0959L6.83317 15.2159C6.6065 15.4359 6.31317 15.5559 5.99984 15.5559C5.6865 15.5559 5.39318 15.4359 5.17318 15.2093ZM4.77315 13.3959L5.87984 14.5093C5.91984 14.5493 5.97317 14.5559 5.99984 14.5559C6.0265 14.5559 6.07983 14.5493 6.11983 14.5093L7.23983 13.3893C7.65316 12.9759 8.30652 12.9359 8.76652 13.2893L9.89982 14.1359C9.97315 14.1893 10.0398 14.1693 10.0732 14.1493C10.1065 14.1293 10.1665 14.0893 10.1665 14.0026V2.66927C10.1665 2.36927 10.2398 2.0826 10.3665 1.83594H3.99984C2.51984 1.83594 1.83317 2.5226 1.83317 4.0026V14.0026C1.83317 14.0959 1.89318 14.1359 1.92651 14.1559C1.96651 14.1759 2.03319 14.1893 2.09985 14.1359L3.23983 13.2826C3.44649 13.1293 3.69315 13.0493 3.93982 13.0493C4.24649 13.0493 4.54649 13.1626 4.77315 13.3959Z" fill="#747E8B"/>
<path d="M4 6.5C3.72667 6.5 3.5 6.27333 3.5 6C3.5 5.72667 3.72667 5.5 4 5.5H8C8.27333 5.5 8.5 5.72667 8.5 6C8.5 6.27333 8.27333 6.5 8 6.5H4Z" fill="#747E8B"/>
<path d="M4.5 9.16797C4.22667 9.16797 4 8.9413 4 8.66797C4 8.39464 4.22667 8.16797 4.5 8.16797H7.5C7.77333 8.16797 8 8.39464 8 8.66797C8 8.9413 7.77333 9.16797 7.5 9.16797H4.5Z" fill="#747E8B"/>
</svg>
