<?xml version="1.0" encoding="UTF-8"?>
<svg width="24px" height="24px" viewBox="0 0 24 24" version="1.1" xmlns="http://www.w3.org/2000/svg" xmlns:xlink="http://www.w3.org/1999/xlink">
    <title>twiter/active</title>
    <g id="About" stroke="none" stroke-width="1" fill="none" fill-rule="evenodd">
        <g id="About--us" transform="translate(-596.000000, -2076.000000)">
            <g id="Group-3-Copy-7" transform="translate(531.000000, 1701.000000)">
                <g id="Group-14" transform="translate(25.000000, 375.000000)">
                    <g id="twiter/active" transform="translate(40.000000, 0.000000)">
                        <polygon id="Path" points="0 0 24 0 24 24 0 24"></polygon>
                        <path d="M19,5 C17.879,3.735 16.217,3.665 14.62,4.263 C13.023,4.861 11.977,6.323 12,8 L12,9 C8.755,9.083 5.865,7.605 4,5 C4,5 -0.182,12.433 8,16 C6.128,17.247 4.261,18.088 2,18 C5.308,19.803 8.913,20.423 12.034,19.517 C15.614,18.477 18.556,15.794 19.685,11.775 C20.0217903,10.5526706 20.1890211,9.28985943 20.182,8.022 C20.18,7.773 21.692,5.25 22,4.009 C21,4.5 20.02,4.699 19,5 Z" id="Path" stroke="#436AF5" fill="#436AF5" stroke-linecap="round" stroke-linejoin="round"></path>
                    </g>
                </g>
            </g>
        </g>
    </g>
</svg>