<svg width="16" height="16" viewBox="0 0 16 16" fill="none" xmlns="http://www.w3.org/2000/svg">
<g id="icon-dp-pledge">
<g id="Group 26 Copy">
<path id="Path" d="M8.3505 0.875C11.6056 0.875 14.2546 3.40884 14.2546 6.54773C14.2546 9.68662 11.6056 12.2205 8.3505 12.2205H3.491C3.16967 12.2205 2.90918 11.96 2.90918 11.6386C2.90918 11.3173 3.16967 11.0568 3.491 11.0568H8.3505C10.9742 11.0568 13.091 9.0321 13.091 6.54773C13.091 4.06335 10.9742 2.03864 8.3505 2.03864H3.491C3.16967 2.03864 2.90918 1.77815 2.90918 1.45682C2.90918 1.13549 3.16967 0.875 3.491 0.875H8.3505Z" fill="#747E8B"/>
<path id="Combined Shape" fill-rule="evenodd" clip-rule="evenodd" d="M8.26549 3.6623C8.03811 3.43525 7.66973 3.43552 7.44268 3.6629L7.36819 3.75423C7.21925 3.98017 7.24433 4.28705 7.44329 4.48572L8.78226 5.82173H6.5453C4.53699 5.82173 2.90894 7.20079 2.90894 8.90195V14.0356C2.90894 14.3192 3.18028 14.549 3.515 14.549C3.84971 14.549 4.12106 14.3192 4.12106 14.0356V8.90195C4.12106 7.76784 5.20643 6.84847 6.5453 6.84847H8.61755L7.44268 8.02654C7.21563 8.25392 7.2159 8.62231 7.44329 8.84935C7.67067 9.0764 8.03905 9.07613 8.2661 8.84875L10.4479 6.66372L10.859 6.25201L10.4473 5.8409L8.26549 3.6623Z" fill="#747E8B"/>
</g>
</g>
</svg>
