<svg width="16" height="16" viewBox="0 0 16 16" fill="none" xmlns="http://www.w3.org/2000/svg">
<path fill-rule="evenodd" clip-rule="evenodd" d="M0.833252 7.9987C0.833252 4.04536 4.04659 0.832031 7.99992 0.832031C11.9533 0.832031 15.1666 4.04536 15.1666 7.9987C15.1666 11.952 11.9533 15.1654 7.99992 15.1654C4.04659 15.1654 0.833252 11.952 0.833252 7.9987ZM1.83325 7.9987C1.83325 11.3987 4.59992 14.1654 7.99992 14.1654C11.3999 14.1654 14.1666 11.3987 14.1666 7.9987C14.1666 4.5987 11.3999 1.83203 7.99992 1.83203C4.59992 1.83203 1.83325 4.5987 1.83325 7.9987Z" fill="#6A7483"/>
<path d="M9.3269 9.9987C9.3269 9.63203 9.6269 9.33203 9.99357 9.33203C10.3602 9.33203 10.6602 9.63203 10.6602 9.9987C10.6602 10.3654 10.3669 10.6654 10.0002 10.6654C9.62691 10.6654 9.3269 10.3654 9.3269 9.9987Z" fill="#6A7483"/>
<path d="M5.33325 5.9987C5.33325 5.63203 5.63325 5.33203 5.99992 5.33203C6.36659 5.33203 6.66658 5.63203 6.66658 5.9987C6.66658 6.36536 6.37326 6.66536 6.00659 6.66536C5.63326 6.66536 5.33325 6.36536 5.33325 5.9987Z" fill="#6A7483"/>
<path d="M5.64622 10.3517C5.45289 10.1584 5.45289 9.83833 5.64622 9.645L9.64622 5.645C9.83955 5.45167 10.1596 5.45167 10.3529 5.645C10.5463 5.83833 10.5463 6.15837 10.3529 6.35171L6.35293 10.3517C6.25293 10.4517 6.12624 10.4984 5.99957 10.4984C5.87291 10.4984 5.74622 10.4517 5.64622 10.3517Z" fill="#6A7483"/>
</svg>
