<?xml version="1.0" encoding="UTF-8"?>
<svg width="24px" height="24px" viewBox="0 0 24 24" version="1.1" xmlns="http://www.w3.org/2000/svg" xmlns:xlink="http://www.w3.org/1999/xlink">
    <title>Group Copy 2</title>
    <g id="Symbols" stroke="none" stroke-width="1" fill="none" fill-rule="evenodd">
        <g id="Component/Component---Footer" transform="translate(-283.000000, -255.000000)">
            <g id="Group-5" transform="translate(130.000000, 63.000000)">
                <g id="Group-Copy-2" transform="translate(153.000000, 192.000000)">
                    <polygon id="Path" points="0 0 24 0 24 24 0 24"></polygon>
                    <g id="Instagram" transform="translate(2.000000, 2.000000)" fill="#436AF5" fill-rule="nonzero">
                        <path d="M12.9787234,0 L7.0212766,0 C3.14510775,0.00380009928 0.00380009928,3.14510775 0,7.0212766 L0,12.9787234 C0.00382351243,16.8548825 3.14511746,19.9961765 7.0212766,20 L12.9787234,20 C16.8548825,19.9961765 19.9961765,16.8548825 20,12.9787234 L20,7.0212766 C19.9961999,3.14510775 16.8548922,0.00380009928 12.9787234,0 Z M10,14.6553191 C8.11709917,14.6553191 6.41960087,13.5210871 5.69904592,11.7815135 C4.97849097,10.04194 5.37678031,8.03960421 6.70819226,6.70819226 C8.03960421,5.37678031 10.04194,4.97849097 11.7815135,5.69904592 C13.5210871,6.41960087 14.6553191,8.11709917 14.6553191,10 C14.651733,12.5695749 12.5695749,14.651733 10,14.6553191 Z M15.9702128,5.56170213 C15.9315876,5.60162764 15.8887894,5.63729282 15.8425532,5.66808511 C15.7951649,5.6977858 15.7453406,5.72340973 15.693617,5.74468085 C15.6432489,5.76667053 15.5903709,5.78239104 15.5361702,5.79148936 C15.4816794,5.80346201 15.4259995,5.80917277 15.3702128,5.80851064 C15.2580442,5.80710069 15.1470489,5.78547821 15.0425532,5.74468085 C14.9922,5.72338513 14.9437912,5.69775694 14.8978723,5.66808511 C14.8510867,5.63626257 14.8069694,5.60068407 14.7659574,5.56170213 C14.6075298,5.40050951 14.5188761,5.18346076 14.5191489,4.95744681 C14.5184864,4.90166007 14.5241972,4.84598015 14.5361702,4.79148936 C14.5452685,4.73728872 14.560989,4.68441063 14.5829787,4.63404255 C14.6042248,4.58230743 14.6298498,4.53248104 14.6595745,4.48510638 C14.6916203,4.43981962 14.7271919,4.39713379 14.7659574,4.35744681 C14.8069366,4.31842747 14.8510571,4.28284641 14.8978723,4.25106383 C14.9437626,4.22134331 14.9921758,4.19571282 15.0425532,4.17446809 C15.0949462,4.15299661 15.1490331,4.13591655 15.2042553,4.12340426 C15.4826108,4.0691404 15.7697253,4.15686985 15.9702128,4.35744681 C16.0101842,4.39602932 16.0458537,4.43883273 16.0765957,4.48510638 C16.1076859,4.53239013 16.1347321,4.58221214 16.1574468,4.63404255 C16.1775112,4.68509387 16.1931712,4.73776822 16.2042553,4.79148936 C16.2141319,4.84629646 16.2198221,4.90177589 16.2212801,4.95744681 C16.2219315,5.18436862 16.1314827,5.40205892 15.9702128,5.56170213 L15.9702128,5.56170213 Z M10,6.6212766 C8.13398259,6.6212766 6.6212766,8.13398259 6.6212766,10 C6.6212766,11.8660174 8.13398259,13.3787234 10,13.3787234 C11.8660174,13.3787234 13.3787234,11.8660174 13.3787234,10 C13.3771982,8.13461472 11.8653853,6.6228018 10,6.6212766 Z M9.58723404,8.8212766 C9.08597063,8.9964684 8.74990706,9.46900449 8.74893617,10 C8.74893617,10.3525222 8.46316048,10.6382979 8.1106383,10.6382979 C7.75811612,10.6382979 7.47234043,10.3525222 7.47234043,10 C7.47335534,8.92655426 8.15253031,7.97093118 9.16595745,7.61702128 C9.49793712,7.50265584 9.85992442,7.67807772 9.9758671,8.00950984 C10.0918098,8.34094195 9.91811111,8.70375929 9.58723404,8.8212766 L9.58723404,8.8212766 Z" id="Shape"></path>
                    </g>
                </g>
            </g>
        </g>
    </g>
</svg>