<svg width="16" height="16" viewBox="0 0 16 16" fill="none" xmlns="http://www.w3.org/2000/svg">
<g id="icon-contract">
<g id="vuesax/outline/note">
<g id="note">
<path id="Vector" fill-rule="evenodd" clip-rule="evenodd" d="M5.33341 15.1654C3.32008 15.1654 2.16675 14.012 2.16675 11.9987V5.4987C2.16675 3.3987 3.23341 2.33203 5.33341 2.33203C5.60675 2.33203 5.83341 2.5587 5.83341 2.83203C5.83341 3.0987 5.94008 3.35203 6.12675 3.5387C6.31342 3.72536 6.56675 3.83203 6.83342 3.83203H9.16675C9.72008 3.83203 10.1667 3.38536 10.1667 2.83203C10.1667 2.5587 10.3934 2.33203 10.6667 2.33203C12.7667 2.33203 13.8334 3.3987 13.8334 5.4987V11.9987C13.8334 14.012 12.6801 15.1654 10.6667 15.1654H5.33341ZM3.16675 5.4987V11.9987C3.16675 13.4787 3.85341 14.1654 5.33341 14.1654H10.6667C12.1467 14.1654 12.8334 13.4787 12.8334 11.9987V5.4987C12.8334 3.90536 12.1534 3.4387 11.1001 3.34537C10.8734 4.1987 10.0934 4.83203 9.16675 4.83203H6.83342C6.30008 4.83203 5.80008 4.62536 5.42008 4.24536C5.16675 3.99203 4.9934 3.68537 4.90007 3.34537C3.84673 3.43203 3.16675 3.90536 3.16675 5.4987Z" fill="#6A7483"/>
<path id="Vector_2" fill-rule="evenodd" clip-rule="evenodd" d="M6.83325 4.83203C6.29992 4.83203 5.79992 4.62536 5.41992 4.24536C5.03992 3.86536 4.83325 3.36536 4.83325 2.83203C4.83325 1.73203 5.73325 0.832031 6.83325 0.832031H9.16659C9.69992 0.832031 10.1999 1.0387 10.5799 1.4187C10.9599 1.7987 11.1666 2.2987 11.1666 2.83203C11.1666 3.93203 10.2666 4.83203 9.16659 4.83203H6.83325ZM5.83325 2.83203C5.83325 3.0987 5.93992 3.35203 6.12659 3.5387C6.31325 3.72536 6.56659 3.83203 6.83325 3.83203H9.16659C9.71992 3.83203 10.1666 3.38536 10.1666 2.83203C10.1666 2.56536 10.0599 2.31203 9.87325 2.12537C9.68658 1.9387 9.43325 1.83203 9.16659 1.83203H6.83325C6.27992 1.83203 5.83325 2.2787 5.83325 2.83203Z" fill="#6A7483"/>
<path id="Vector_3" d="M5.33325 9.16797C5.05992 9.16797 4.83325 8.9413 4.83325 8.66797C4.83325 8.39464 5.05992 8.16797 5.33325 8.16797H7.99992C8.27325 8.16797 8.49992 8.39464 8.49992 8.66797C8.49992 8.9413 8.27325 9.16797 7.99992 9.16797H5.33325Z" fill="#6A7483"/>
<path id="Vector_4" d="M5.33325 11.832C5.05992 11.832 4.83325 11.6054 4.83325 11.332C4.83325 11.0587 5.05992 10.832 5.33325 10.832H10.6666C10.9399 10.832 11.1666 11.0587 11.1666 11.332C11.1666 11.6054 10.9399 11.832 10.6666 11.832H5.33325Z" fill="#6A7483"/>
</g>
</g>
</g>
</svg>
