<svg width="14" height="14" viewBox="0 0 14 14" fill="none" xmlns="http://www.w3.org/2000/svg">
<g clip-path="url(#clip0_3103_106766)">
<path fill-rule="evenodd" clip-rule="evenodd" d="M4.5293 7.10554C4.5293 6.45051 4.78951 5.82231 5.25268 5.35913C5.71586 4.89595 6.34406 4.63574 6.99909 4.63574C7.65412 4.63574 8.28233 4.89595 8.7455 5.35913C9.20868 5.82231 9.46889 6.45051 9.46889 7.10554C9.46889 7.76057 9.20868 8.38877 8.7455 8.85195C8.28233 9.31513 7.65412 9.57534 6.99909 9.57534C6.34406 9.57534 5.71586 9.31513 5.25268 8.85195C4.78951 8.38877 4.5293 7.76057 4.5293 7.10554ZM6.99909 5.62366C6.60608 5.62366 6.22915 5.77979 5.95125 6.05769C5.67334 6.3356 5.51722 6.71252 5.51722 7.10554C5.51722 7.49856 5.67334 7.87548 5.95125 8.15339C6.22915 8.43129 6.60608 8.58742 6.99909 8.58742C7.39211 8.58742 7.76903 8.43129 8.04694 8.15339C8.32485 7.87548 8.48097 7.49856 8.48097 7.10554C8.48097 6.71252 8.32485 6.3356 8.04694 6.05769C7.76903 5.77979 7.39211 5.62366 6.99909 5.62366Z" fill="white"/>
<path fill-rule="evenodd" clip-rule="evenodd" d="M6.08791 2.33069C5.75743 2.33069 5.44048 2.46198 5.20679 2.69567C4.9731 2.92935 4.84182 3.2463 4.84182 3.57679C4.8417 3.78832 4.76207 3.99208 4.61872 4.14764C4.47536 4.30319 4.27877 4.39917 4.06795 4.41652L2.59924 4.53507C2.45879 4.54638 2.32595 4.60358 2.22122 4.69784C2.11648 4.7921 2.04565 4.9182 2.01966 5.05669C1.72436 6.61755 1.70252 8.21785 1.95512 9.78619L2.019 10.184C2.0796 10.5594 2.38848 10.8459 2.76785 10.8769L4.04753 10.9809C6.01224 11.1403 7.98663 11.1403 9.95133 10.9809L11.2304 10.8769C11.4148 10.8619 11.5889 10.7856 11.7248 10.6599C11.8607 10.5343 11.9505 10.3667 11.9799 10.184L12.0437 9.78619C12.2961 8.21781 12.2741 6.61751 11.9785 5.05669C11.9524 4.91832 11.8815 4.79237 11.7768 4.69824C11.6721 4.6041 11.5393 4.547 11.399 4.53573L9.93092 4.41652C9.71998 4.39946 9.52321 4.30358 9.3798 4.14796C9.23639 3.99234 9.15686 3.78841 9.15705 3.57679C9.15705 3.41315 9.12482 3.25111 9.06219 3.09993C8.99957 2.94874 8.90778 2.81138 8.79207 2.69567C8.67636 2.57995 8.53899 2.48817 8.38781 2.42555C8.23663 2.36292 8.07459 2.33069 7.91095 2.33069H6.08791ZM3.85785 3.44243C3.89224 2.87426 4.14215 2.34063 4.55657 1.95044C4.971 1.56025 5.5187 1.34291 6.08791 1.34277H7.91095C9.09975 1.34277 10.0712 2.27142 10.141 3.44243L11.4793 3.5511C11.8354 3.57984 12.1721 3.72478 12.4377 3.96361C12.7033 4.20245 12.8831 4.52194 12.9493 4.87294C13.2661 6.54581 13.2898 8.2615 13.0192 9.94294L12.9553 10.3414C12.8907 10.7422 12.6936 11.1098 12.3955 11.3854C12.0973 11.661 11.7154 11.8286 11.3107 11.8615L10.0317 11.9655C8.0135 12.1294 5.98536 12.1294 3.96718 11.9655L2.68815 11.8615C2.28349 11.8286 1.90154 11.661 1.60339 11.3854C1.30525 11.1098 1.10814 10.7422 1.0436 10.3414L0.979712 9.94294C0.709132 8.26165 0.732755 6.54613 1.04953 4.87294C1.1159 4.52199 1.2957 4.20255 1.56128 3.96374C1.82687 3.72492 2.16355 3.57995 2.51955 3.5511L3.85785 3.44243Z" fill="white"/>
</g>
<defs>
<clipPath id="clip0_3103_106766">
<rect width="13" height="13" fill="white" transform="translate(0.5 0.5)"/>
</clipPath>
</defs>
</svg>
