<svg width="16" height="16" viewBox="0 0 16 16" fill="none" xmlns="http://www.w3.org/2000/svg">
<path d="M1 4.36111C1 3.73491 1.24876 3.13435 1.69155 2.69155C2.13435 2.24876 2.73491 2 3.36111 2H12.8056C13.4318 2 14.0323 2.24876 14.4751 2.69155C14.9179 3.13435 15.1667 3.73491 15.1667 4.36111V12.2315C15.1667 12.8577 14.9179 13.4582 14.4751 13.901C14.0323 14.3438 13.4318 14.5926 12.8056 14.5926H3.36111C2.73491 14.5926 2.13435 14.3438 1.69155 13.901C1.24876 13.4582 1 12.8577 1 12.2315V4.36111Z" stroke="#6A7483" stroke-linecap="round" stroke-linejoin="round"/>
<path d="M10.111 5.14844H12.3329M10.111 8.29659H12.3329M3.8147 11.4447H12.3329M3.8147 6.72251C3.8147 7.13998 3.98054 7.54035 4.27573 7.83555C4.57093 8.13075 4.9713 8.29659 5.38877 8.29659C5.80624 8.29659 6.20661 8.13075 6.50181 7.83555C6.79701 7.54035 6.96285 7.13998 6.96285 6.72251C6.96285 6.30504 6.79701 5.90467 6.50181 5.60947C6.20661 5.31428 5.80624 5.14844 5.38877 5.14844C4.9713 5.14844 4.57093 5.31428 4.27573 5.60947C3.98054 5.90467 3.8147 6.30504 3.8147 6.72251Z" stroke="#6A7483" stroke-linecap="round" stroke-linejoin="round"/>
</svg>
