<svg width="16" height="16" viewBox="0 0 16 16" fill="none" xmlns="http://www.w3.org/2000/svg">
<path fill-rule="evenodd" clip-rule="evenodd" d="M0.833252 7.9987C0.833252 4.04536 4.04659 0.832031 7.99992 0.832031C11.9533 0.832031 15.1666 4.04536 15.1666 7.9987C15.1666 11.952 11.9533 15.1654 7.99992 15.1654C4.04659 15.1654 0.833252 11.952 0.833252 7.9987ZM1.83325 7.9987C1.83325 11.3987 4.59992 14.1654 7.99992 14.1654C11.3999 14.1654 14.1666 11.3987 14.1666 7.9987C14.1666 4.5987 11.3999 1.83203 7.99992 1.83203C4.59992 1.83203 1.83325 4.5987 1.83325 7.9987Z" fill="#6A7483"/>
<path d="M2.91331 13.0209C2.71998 12.8276 2.71998 12.5076 2.91331 12.3143L12.2466 2.98094C12.44 2.7876 12.76 2.7876 12.9533 2.98094C13.1466 3.17427 13.1466 3.49427 12.9533 3.6876L3.61998 13.0209C3.51998 13.1209 3.39331 13.1676 3.26664 13.1676C3.13998 13.1676 3.01331 13.1209 2.91331 13.0209Z" fill="#6A7483"/>
</svg>
