<svg width="16" height="16" viewBox="0 0 16 16" fill="none" xmlns="http://www.w3.org/2000/svg">
<path d="M1.33325 6.16797C1.05992 6.16797 0.833252 5.9413 0.833252 5.66797C0.833252 5.39464 1.05992 5.16797 1.33325 5.16797H9.66659C9.93992 5.16797 10.1666 5.39464 10.1666 5.66797C10.1666 5.9413 9.93992 6.16797 9.66659 6.16797H1.33325Z" fill="#6A7483"/>
<path d="M4 11.5C3.72667 11.5 3.5 11.2733 3.5 11C3.5 10.7267 3.72667 10.5 4 10.5H5.33333C5.60667 10.5 5.83333 10.7267 5.83333 11C5.83333 11.2733 5.60667 11.5 5.33333 11.5H4Z" fill="#6A7483"/>
<path d="M7 11.5C6.72667 11.5 6.5 11.2733 6.5 11C6.5 10.7267 6.72667 10.5 7 10.5H9.66667C9.94 10.5 10.1667 10.7267 10.1667 11C10.1667 11.2733 9.94 11.5 9.66667 11.5H7Z" fill="#6A7483"/>
<path d="M4.29325 14.1654C1.63992 14.1654 0.833252 13.3654 0.833252 10.7387V5.2587C0.833252 2.63203 1.63992 1.83203 4.29325 1.83203H9.66659C9.93992 1.83203 10.1666 2.0587 10.1666 2.33203C10.1666 2.60536 9.93992 2.83203 9.66659 2.83203H4.29325C2.19992 2.83203 1.83325 3.19203 1.83325 5.2587V10.732C1.83325 12.7987 2.19992 13.1587 4.29325 13.1587H11.6999C13.7933 13.1587 14.1599 12.7987 14.1599 10.732V9.34537C14.1599 9.07203 14.3866 8.84537 14.6599 8.84537C14.9333 8.84537 15.1599 9.07203 15.1599 9.34537V10.732C15.1666 13.3654 14.3599 14.1654 11.7066 14.1654H4.29325Z" fill="#6A7483"/>
<path d="M13.1399 6.79203C12.9533 6.71203 12.8333 6.53203 12.8333 6.33203V2.33203C12.8333 2.0587 13.0599 1.83203 13.3333 1.83203C13.6066 1.83203 13.8333 2.0587 13.8333 2.33203V5.12536L14.3133 4.64536C14.5066 4.45203 14.8266 4.45203 15.0199 4.64536C15.2133 4.8387 15.2133 5.1587 15.0199 5.35203L13.6866 6.68536C13.5933 6.7787 13.4666 6.83203 13.3333 6.83203C13.2666 6.83203 13.2066 6.8187 13.1399 6.79203Z" fill="#6A7483"/>
<path d="M12.9796 6.685L11.6462 5.35167C11.4529 5.15833 11.4529 4.83833 11.6462 4.645C11.8396 4.45167 12.1596 4.45167 12.3529 4.645L13.6862 5.97833C13.8796 6.17167 13.8796 6.49167 13.6862 6.685C13.5862 6.785 13.4596 6.83167 13.3329 6.83167C13.2062 6.83167 13.0796 6.785 12.9796 6.685Z" fill="#6A7483"/>
</svg>
