<svg width="13" height="11" viewBox="0 0 13 11" fill="none" xmlns="http://www.w3.org/2000/svg">
<path fill-rule="evenodd" clip-rule="evenodd" d="M4.5293 6.10736C4.5293 5.48422 4.77684 4.8866 5.21746 4.44598C5.65809 4.00535 6.25571 3.75781 6.87885 3.75781C7.50198 3.75781 8.0996 4.00535 8.54023 4.44598C8.98085 4.8866 9.22839 5.48422 9.22839 6.10736C9.22839 6.7305 8.98085 7.32812 8.54023 7.76874C8.0996 8.20937 7.50198 8.45691 6.87885 8.45691C6.25571 8.45691 5.65809 8.20937 5.21746 7.76874C4.77684 7.32812 4.5293 6.7305 4.5293 6.10736ZM6.87885 4.69763C6.50496 4.69763 6.14639 4.84616 5.88202 5.11053C5.61764 5.37491 5.46912 5.73348 5.46912 6.10736C5.46912 6.48124 5.61764 6.83981 5.88202 7.10419C6.14639 7.36856 6.50496 7.51709 6.87885 7.51709C7.25273 7.51709 7.6113 7.36856 7.87567 7.10419C8.14005 6.83981 8.28857 6.48124 8.28857 6.10736C8.28857 5.73348 8.14005 5.37491 7.87567 5.11053C7.6113 4.84616 7.25273 4.69763 6.87885 4.69763Z" fill="#2A394E"/>
<path fill-rule="evenodd" clip-rule="evenodd" d="M6.01175 1.56482C5.69736 1.56482 5.39584 1.68971 5.17353 1.91202C4.95122 2.13433 4.82633 2.43585 4.82633 2.75024C4.82622 2.95148 4.75046 3.14532 4.61409 3.2933C4.47772 3.44128 4.29069 3.53258 4.09014 3.54909L2.69294 3.66187C2.55932 3.67263 2.43296 3.72704 2.33332 3.81672C2.23368 3.90639 2.1663 4.02635 2.14158 4.15809C1.86065 5.64296 1.83987 7.16534 2.08018 8.65732L2.14095 9.03576C2.19859 9.39289 2.49244 9.66543 2.85333 9.69488L4.07071 9.79388C5.93976 9.9455 7.81802 9.9455 9.68707 9.79388L10.9038 9.69488C11.0793 9.6807 11.2449 9.60803 11.3742 9.48852C11.5035 9.36902 11.5889 9.20958 11.6168 9.03576L11.6776 8.65732C11.9177 7.16531 11.8967 5.64292 11.6156 4.15809C11.5907 4.02646 11.5233 3.90665 11.4237 3.81709C11.324 3.72754 11.1978 3.67322 11.0642 3.6625L9.66765 3.54909C9.46699 3.53287 9.2798 3.44165 9.14337 3.29361C9.00694 3.14557 8.93128 2.95156 8.93146 2.75024C8.93146 2.59457 8.9008 2.44042 8.84122 2.2966C8.78165 2.15278 8.69433 2.0221 8.58426 1.91202C8.47418 1.80195 8.3435 1.71463 8.19968 1.65505C8.05585 1.59548 7.90171 1.56482 7.74603 1.56482H6.01175ZM3.89027 2.62243C3.92298 2.08192 4.16073 1.57427 4.55497 1.20308C4.94922 0.831886 5.47026 0.625128 6.01175 0.625H7.74603C8.87695 0.625 9.80111 1.50843 9.86752 2.62243L11.1407 2.72581C11.4794 2.75315 11.7997 2.89103 12.0524 3.11824C12.3051 3.34544 12.4761 3.64938 12.5391 3.98329C12.8405 5.57471 12.863 7.20687 12.6055 8.80644L12.5448 9.1855C12.4834 9.56682 12.2958 9.91653 12.0122 10.1787C11.7286 10.4408 11.3652 10.6003 10.9803 10.6316L9.76351 10.7306C7.84359 10.8865 5.91419 10.8865 3.99427 10.7306L2.77752 10.6316C2.39256 10.6003 2.0292 10.4408 1.74557 10.1787C1.46195 9.91653 1.27443 9.56682 1.21304 9.1855L1.15226 8.80644C0.894855 7.20701 0.917327 5.57502 1.21867 3.98329C1.28181 3.64943 1.45286 3.34554 1.70552 3.11836C1.95817 2.89117 2.27846 2.75325 2.61713 2.72581L3.89027 2.62243Z" fill="#2A394E"/>
</svg>
