<svg width="16" height="16" viewBox="0 0 16 16" fill="none" xmlns="http://www.w3.org/2000/svg">
<path fill-rule="evenodd" clip-rule="evenodd" d="M5.33333 15.1673C2.9 15.1673 1.5 13.7673 1.5 11.334V4.66732C1.5 2.23398 2.9 0.833984 5.33333 0.833984H10.6667C13.1 0.833984 14.5 2.23398 14.5 4.66732V11.334C14.5 13.7673 13.1 15.1673 10.6667 15.1673H5.33333ZM2.5 4.66732V11.334C2.5 13.2407 3.42667 14.1673 5.33333 14.1673H10.6667C12.5733 14.1673 13.5 13.2407 13.5 11.334V4.66732C13.5 2.76065 12.5733 1.83398 10.6667 1.83398H5.33333C3.42667 1.83398 2.5 2.76065 2.5 4.66732Z" fill="#436AF5"/>
<path d="M10.9998 6.16667C9.9865 6.16667 9.1665 5.34667 9.1665 4.33333V3C9.1665 2.72667 9.39317 2.5 9.6665 2.5C9.93984 2.5 10.1665 2.72667 10.1665 3V4.33333C10.1665 4.79333 10.5398 5.16667 10.9998 5.16667H12.3332C12.6065 5.16667 12.8332 5.39333 12.8332 5.66667C12.8332 5.94 12.6065 6.16667 12.3332 6.16667H10.9998Z" fill="#436AF5"/>
<path d="M5.3335 9.16699C5.06016 9.16699 4.8335 8.94033 4.8335 8.66699C4.8335 8.39366 5.06016 8.16699 5.3335 8.16699H8.00016C8.2735 8.16699 8.50016 8.39366 8.50016 8.66699C8.50016 8.94033 8.2735 9.16699 8.00016 9.16699H5.3335Z" fill="#436AF5"/>
<path d="M5.3335 11.833C5.06016 11.833 4.8335 11.6063 4.8335 11.333C4.8335 11.0597 5.06016 10.833 5.3335 10.833H10.6668C10.9402 10.833 11.1668 11.0597 11.1668 11.333C11.1668 11.6063 10.9402 11.833 10.6668 11.833H5.3335Z" fill="#436AF5"/>
</svg>
