<svg width="16" height="16" viewBox="0 0 16 16" fill="none" xmlns="http://www.w3.org/2000/svg">
<g id="icon-settlement">
<path id="Vector 15" d="M12.2982 4.81443L9.69243 3.51154C9.47156 3.4011 9.20773 3.4218 9.00679 3.56533L5.13031 6.33425C4.86336 6.52493 4.7748 6.88147 4.92151 7.17489L5.3686 8.06908C5.53326 8.3984 5.93372 8.53188 6.26304 8.36722L7.10769 7.94489C7.42211 7.78769 7.80457 7.90162 7.98169 8.20527L9.7783 11.2852C9.91282 11.5158 10.1719 11.6439 10.4368 11.6108L12.0828 11.405C12.4164 11.3633 12.6667 11.0797 12.6667 10.7435V5.41072C12.6667 5.15821 12.5241 4.92736 12.2982 4.81443Z" stroke="#6A7483" stroke-width="0.93334"/>
<path id="Subtract" fill-rule="evenodd" clip-rule="evenodd" d="M4.00004 4.19922C3.37411 4.19922 2.8667 4.70663 2.8667 5.33256V10.6659C2.8667 11.2918 3.37411 11.7992 4.00004 11.7992H4.25468C4.33043 11.7992 4.39969 11.842 4.43356 11.9098L5.59797 14.2386C5.89073 14.8241 6.61726 15.0406 7.18272 14.7107L10.0004 13.067C10.5359 12.7547 10.7211 12.0701 10.416 11.5304L8.51777 8.17194L7.19678 7.73161L9.6035 11.9897C9.65733 12.0849 9.62466 12.2057 9.53016 12.2608L6.71243 13.9045C6.61265 13.9627 6.48444 13.9245 6.43277 13.8212L5.26837 11.4924C5.07639 11.1084 4.68395 10.8659 4.25468 10.8659H4.00004C3.88958 10.8659 3.80004 10.7763 3.80004 10.6659V5.33256C3.80004 5.2221 3.88958 5.13256 4.00004 5.13256H5.61106C5.68316 5.13256 5.74969 5.17137 5.78517 5.23415L6.28522 6.11885L7.03815 5.55415L6.5977 4.77489C6.39664 4.41917 6.01967 4.19922 5.61106 4.19922H4.00004Z" fill="#6A7483"/>
<rect id="Rectangle 11" x="12.6667" y="4" width="2.66667" height="8" rx="1.00001" stroke="#6A7483" stroke-width="0.93334"/>
<rect id="Rectangle 10" x="0.666748" y="4" width="2.66667" height="8" rx="1.00001" stroke="#6A7483" stroke-width="0.93334"/>
</g>
</svg>
