<svg width="16" height="16" viewBox="0 0 16 16" fill="none" xmlns="http://www.w3.org/2000/svg">
<path d="M14.6666 15.168H1.33325C1.05992 15.168 0.833252 14.9413 0.833252 14.668C0.833252 14.3946 1.05992 14.168 1.33325 14.168H14.6666C14.9399 14.168 15.1666 14.3946 15.1666 14.668C15.1666 14.9413 14.9399 15.168 14.6666 15.168Z" fill="#6A7483"/>
<path d="M9.66667 4.15166C9.04 4.15166 8.41333 4.03167 7.81333 3.79167C7.62667 3.71834 7.5 3.53167 7.5 3.325V1.325C7.5 1.15833 7.58 1.005 7.72 0.91167C7.86 0.818337 8.03333 0.798325 8.18667 0.858325C9.14 1.23833 10.1933 1.23833 11.1467 0.858325C11.3 0.798325 11.4733 0.818337 11.6133 0.91167C11.7533 1.005 11.8333 1.15833 11.8333 1.325V3.325C11.8333 3.53167 11.7067 3.71167 11.52 3.79167C10.92 4.03167 10.2933 4.15166 9.66667 4.15166ZM8.5 2.97832C9.26 3.21165 10.0733 3.21165 10.8333 2.97832V2.01169C10.0667 2.19835 9.26667 2.19835 8.5 2.01169V2.97832Z" fill="#6A7483"/>
<path d="M8 5.83203C7.72667 5.83203 7.5 5.60536 7.5 5.33203V3.33203C7.5 3.0587 7.72667 2.83203 8 2.83203C8.27333 2.83203 8.5 3.0587 8.5 3.33203V5.33203C8.5 5.60536 8.27333 5.83203 8 5.83203Z" fill="#6A7483"/>
<path d="M13.3334 15.1654H2.66675C2.39341 15.1654 2.16675 14.9387 2.16675 14.6654V7.33203C2.16675 5.7187 3.05341 4.83203 4.66675 4.83203H11.3334C12.9467 4.83203 13.8334 5.7187 13.8334 7.33203V14.6654C13.8334 14.9387 13.6067 15.1654 13.3334 15.1654ZM3.16675 14.1654H12.8334V7.33203C12.8334 6.2787 12.3867 5.83203 11.3334 5.83203H4.66675C3.61341 5.83203 3.16675 6.2787 3.16675 7.33203V14.1654Z" fill="#6A7483"/>
<path d="M12.9468 8.5H3.05347C2.78013 8.5 2.55347 8.27333 2.55347 8C2.55347 7.72667 2.78013 7.5 3.05347 7.5H12.9468C13.2201 7.5 13.4468 7.72667 13.4468 8C13.4468 8.27333 13.2201 8.5 12.9468 8.5Z" fill="#6A7483"/>
<path d="M5.8269 8H4.8269V14.6667H5.8269V8Z" fill="#6A7483"/>
<path d="M8.49341 8H7.49341V14.6667H8.49341V8Z" fill="#6A7483"/>
<path d="M11.1602 8H10.1602V14.6667H11.1602V8Z" fill="#6A7483"/>
</svg>
