<svg width="16" height="16" viewBox="0 0 16 16" fill="none" xmlns="http://www.w3.org/2000/svg">
<path fill-rule="evenodd" clip-rule="evenodd" d="M5.33333 15.1654C2.9 15.1654 1.5 13.7654 1.5 11.332V4.66536C1.5 2.23203 2.9 0.832031 5.33333 0.832031H10.6667C13.1 0.832031 14.5 2.23203 14.5 4.66536V11.332C14.5 13.7654 13.1 15.1654 10.6667 15.1654H5.33333ZM2.5 4.66536V11.332C2.5 13.2387 3.42667 14.1654 5.33333 14.1654H10.6667C12.5733 14.1654 13.5 13.2387 13.5 11.332V4.66536C13.5 2.7587 12.5733 1.83203 10.6667 1.83203H5.33333C3.42667 1.83203 2.5 2.7587 2.5 4.66536Z" fill="#6A7483"/>
<path d="M11.0001 6.16667C9.98675 6.16667 9.16675 5.34667 9.16675 4.33333V3C9.16675 2.72667 9.39341 2.5 9.66675 2.5C9.94008 2.5 10.1667 2.72667 10.1667 3V4.33333C10.1667 4.79333 10.5401 5.16667 11.0001 5.16667H12.3334C12.6067 5.16667 12.8334 5.39333 12.8334 5.66667C12.8334 5.94 12.6067 6.16667 12.3334 6.16667H11.0001Z" fill="#6A7483"/>
<path d="M5.33325 9.16797C5.05992 9.16797 4.83325 8.9413 4.83325 8.66797C4.83325 8.39464 5.05992 8.16797 5.33325 8.16797H7.99992C8.27325 8.16797 8.49992 8.39464 8.49992 8.66797C8.49992 8.9413 8.27325 9.16797 7.99992 9.16797H5.33325Z" fill="#6A7483"/>
<path d="M5.33325 11.832C5.05992 11.832 4.83325 11.6054 4.83325 11.332C4.83325 11.0587 5.05992 10.832 5.33325 10.832H10.6666C10.9399 10.832 11.1666 11.0587 11.1666 11.332C11.1666 11.6054 10.9399 11.832 10.6666 11.832H5.33325Z" fill="#6A7483"/>
</svg>
