<svg width="16" height="16" viewBox="0 0 16 16" fill="none" xmlns="http://www.w3.org/2000/svg">
<path fill-rule="evenodd" clip-rule="evenodd" d="M6.75173 2.86719C6.10372 2.86719 5.52568 3.27454 5.30773 3.8848L4.40295 6.41813C4.26534 6.80343 4.29104 7.19646 4.43542 7.53389H3.41841C2.7704 7.53389 2.19236 7.94124 1.97441 8.5515L1.06963 11.0848C0.712993 12.0834 1.45328 13.1339 2.51363 13.1339H6.70948L6.72856 13.1338H9.26187L9.28097 13.1339H13.4864C14.5468 13.1339 15.2871 12.0834 14.9304 11.0848L14.0256 8.5515C13.8077 7.94124 13.2297 7.53389 12.5816 7.53389H11.5646C11.709 7.19646 11.7347 6.80344 11.5971 6.41815L10.6923 3.88481C10.4744 3.27455 9.89634 2.86719 9.24833 2.86719H6.75173ZM8.69628 8.46719H7.30161C7.31935 8.50895 7.33535 8.55177 7.34951 8.59557L7.996 10.5954L8.64964 8.59169C8.66348 8.54924 8.67906 8.50772 8.69628 8.46719ZM6.18668 4.19872C6.27197 3.95992 6.49816 3.80052 6.75173 3.80052H9.24833C9.5019 3.80052 9.72809 3.95992 9.81337 4.19872L10.7181 6.73205C10.8577 7.1228 10.568 7.53385 10.1531 7.53385H5.84695C5.43203 7.53385 5.14235 7.1228 5.2819 6.73205L6.18668 4.19872ZM6.66667 12.2004H6.72141C7.12234 12.1928 7.40443 11.7997 7.28038 11.416L6.46143 8.88266C6.38137 8.63501 6.15078 8.46722 5.89052 8.46722H3.41841C3.16484 8.46722 2.93865 8.62662 2.85336 8.86541L1.94859 11.3987C1.80904 11.7895 2.09871 12.2006 2.51363 12.2006H6.66667V12.2004ZM9.33333 12.2004V12.2006H13.4864C13.9013 12.2006 14.191 11.7895 14.0515 11.3987L13.1467 8.86542C13.0614 8.62662 12.8352 8.46722 12.5816 8.46722H10.1074C9.84769 8.46722 9.61748 8.63427 9.53695 8.88114L8.71055 11.4145C8.58528 11.7985 8.86744 12.1928 9.26903 12.2004H9.33333Z" fill="#6A7483"/>
</svg>
