<svg width="16" height="16" viewBox="0 0 16 16" fill="none" xmlns="http://www.w3.org/2000/svg">
<path fill-rule="evenodd" clip-rule="evenodd" d="M6.00008 15.1654C3.06008 15.1654 2.16675 14.272 2.16675 11.332V4.66536C2.16675 1.72536 3.06008 0.832031 6.00008 0.832031H10.0001C12.9401 0.832031 13.8334 1.72536 13.8334 4.66536V11.332C13.8334 14.272 12.9401 15.1654 10.0001 15.1654H6.00008ZM3.16675 4.66536V11.332C3.16675 13.712 3.61341 14.1654 6.00008 14.1654H10.0001C12.3867 14.1654 12.8334 13.712 12.8334 11.332V4.66536C12.8334 2.28536 12.3867 1.83203 10.0001 1.83203H6.00008C3.61341 1.83203 3.16675 2.28536 3.16675 4.66536Z" fill="#6A7483"/>
<path d="M6.66675 4.16797C6.39341 4.16797 6.16675 3.9413 6.16675 3.66797C6.16675 3.39464 6.39341 3.16797 6.66675 3.16797H9.33341C9.60675 3.16797 9.83341 3.39464 9.83341 3.66797C9.83341 3.9413 9.60675 4.16797 9.33341 4.16797H6.66675Z" fill="#6A7483"/>
<path fill-rule="evenodd" clip-rule="evenodd" d="M6.4668 11.7052C6.4668 10.8585 7.15346 10.1719 8.00013 10.1719C8.8468 10.1719 9.53346 10.8585 9.53346 11.7052C9.53346 12.5519 8.8468 13.2385 8.00013 13.2385C7.15346 13.2385 6.4668 12.5519 6.4668 11.7052ZM7.4668 11.6985C7.4668 11.9919 7.7068 12.2319 8.00013 12.2319C8.29346 12.2319 8.53346 11.9919 8.53346 11.6985C8.53346 11.4052 8.29346 11.1652 8.00013 11.1652C7.7068 11.1652 7.4668 11.4052 7.4668 11.6985Z" fill="#6A7483"/>
</svg>
