<svg width="64" height="64" viewBox="0 0 64 64" fill="none" xmlns="http://www.w3.org/2000/svg">
<rect x="0.5" y="0.5" width="63" height="63" rx="4.42308" fill="#FBFCFF"/>
<path d="M12.8262 26.2232V21.9022C12.8262 16.8899 16.9052 12.8281 21.9002 12.8281H26.2212C26.9299 12.8281 27.5175 13.4158 27.5175 14.1244C27.5175 14.8331 26.9299 15.4207 26.2212 15.4207H21.9002C18.3225 15.4207 15.4188 18.3244 15.4188 21.9022V26.2232C15.4188 26.9318 14.8311 27.5195 14.1225 27.5195C13.4138 27.5195 12.8262 26.9318 12.8262 26.2232Z" fill="#436AF5"/>
<path d="M47.3937 26.2232V21.9022C47.3937 18.3244 44.49 15.4207 40.9122 15.4207H36.5912C35.8826 15.4207 35.2949 14.8331 35.2949 14.1244C35.2949 13.4158 35.8826 12.8281 36.5912 12.8281H40.9122C45.9073 12.8281 49.9863 16.8899 49.9863 21.9022V26.2232C49.9863 26.9318 49.3986 27.5195 48.69 27.5195C47.9813 27.5195 47.3937 26.9318 47.3937 26.2232Z" fill="#436AF5"/>
<path d="M38.3197 49.9893C37.6111 49.9893 37.0234 49.4017 37.0234 48.693C37.0234 47.9844 37.6111 47.3967 38.3197 47.3967H40.9123C44.4901 47.3967 47.3938 44.493 47.3938 40.9153V38.3227C47.3938 37.614 47.9815 37.0264 48.6901 37.0264C49.3987 37.0264 49.9864 37.614 49.9864 38.3227V40.9153C49.9864 45.9276 45.9074 49.9893 40.9123 49.9893H38.3197Z" fill="#436AF5"/>
<path d="M21.9002 49.9892C16.9052 49.9892 12.8262 45.9275 12.8262 40.9151V36.5941C12.8262 35.8855 13.4138 35.2979 14.1225 35.2979C14.8311 35.2979 15.4188 35.8855 15.4188 36.5941V40.9151C15.4188 44.4929 18.3225 47.3966 21.9002 47.3966H26.2212C26.9299 47.3966 27.5175 47.9843 27.5175 48.6929C27.5175 49.4016 26.9299 49.9892 26.2212 49.9892H21.9002Z" fill="#436AF5"/>
<path fill-rule="evenodd" clip-rule="evenodd" d="M26.8867 26.3709C26.8867 23.5531 29.1801 21.2598 31.9978 21.2598C34.8156 21.2598 37.1089 23.5531 37.1089 26.3709C37.1089 29.1887 34.8156 31.482 31.9978 31.482C29.1801 31.482 26.8867 29.1887 26.8867 26.3709ZM28.2201 26.3709C28.2201 28.4509 29.9178 30.1487 31.9978 30.1487C34.0778 30.1487 35.7756 28.4509 35.7756 26.3709C35.7756 24.2909 34.0778 22.5931 31.9978 22.5931C29.9178 22.5931 28.2201 24.2909 28.2201 26.3709Z" fill="#436AF5"/>
<path d="M27.4793 26.3709C27.4793 23.8804 29.5073 21.8524 31.9978 21.8524V20.6672C28.8528 20.6672 26.2941 23.2258 26.2941 26.3709H27.4793ZM31.9978 21.8524C34.4883 21.8524 36.5163 23.8804 36.5163 26.3709H37.7015C37.7015 23.2258 35.1429 20.6672 31.9978 20.6672V21.8524ZM36.5163 26.3709C36.5163 28.8614 34.4883 30.8894 31.9978 30.8894V32.0746C35.1429 32.0746 37.7015 29.5159 37.7015 26.3709H36.5163ZM31.9978 30.8894C29.5073 30.8894 27.4793 28.8614 27.4793 26.3709H26.2941C26.2941 29.5159 28.8528 32.0746 31.9978 32.0746V30.8894ZM27.6275 26.3709C27.6275 28.7782 29.5905 30.7412 31.9978 30.7412V29.5561C30.2451 29.5561 28.8126 28.1236 28.8126 26.3709H27.6275ZM31.9978 30.7412C34.4051 30.7412 36.3682 28.7782 36.3682 26.3709H35.183C35.183 28.1236 33.7505 29.5561 31.9978 29.5561V30.7412ZM36.3682 26.3709C36.3682 23.9636 34.4051 22.0005 31.9978 22.0005V23.1857C33.7505 23.1857 35.183 24.6182 35.183 26.3709H36.3682ZM31.9978 22.0005C29.5905 22.0005 27.6275 23.9636 27.6275 26.3709H28.8126C28.8126 24.6182 30.2451 23.1857 31.9978 23.1857V22.0005Z" fill="#436AF5"/>
<path d="M38.9684 40.8889C38.9684 37.8222 35.8395 35.3333 31.9995 35.3333C28.1595 35.3333 25.0306 37.8222 25.0306 40.8889C25.0306 41.2533 24.7284 41.5556 24.3639 41.5556C23.9995 41.5556 23.6973 41.2533 23.6973 40.8889C23.6973 37.0933 27.4217 34 31.9995 34C36.5773 34 40.3017 37.0933 40.3017 40.8889C40.3017 41.2533 39.9995 41.5556 39.635 41.5556C39.2706 41.5556 38.9684 41.2533 38.9684 40.8889Z" fill="#436AF5" stroke="#436AF5" stroke-width="1.18519"/>
<rect x="0.5" y="0.5" width="63" height="63" rx="4.42308" stroke="#C7D2FC" stroke-dasharray="2 2"/>
</svg>
