<svg width="62" height="62" viewBox="0 0 62 62" fill="none" xmlns="http://www.w3.org/2000/svg">
<mask id="path-1-inside-1_4863_148552" fill="white">
<path fill-rule="evenodd" clip-rule="evenodd" d="M24.8 11.4461C22.5909 11.4461 20.8 13.237 20.8 15.4461V19.0769H37.9692V15.4461C37.9692 13.237 36.1784 11.4461 33.9692 11.4461H24.8ZM26 15C25.4477 15 25 15.4477 25 16V18H34V16C34 15.4477 33.5523 15 33 15H26Z"/>
</mask>
<path fill-rule="evenodd" clip-rule="evenodd" d="M24.8 11.4461C22.5909 11.4461 20.8 13.237 20.8 15.4461V19.0769H37.9692V15.4461C37.9692 13.237 36.1784 11.4461 33.9692 11.4461H24.8ZM26 15C25.4477 15 25 15.4477 25 16V18H34V16C34 15.4477 33.5523 15 33 15H26Z" fill="white"/>
<path d="M20.8 19.0769H19.8V20.0769H20.8V19.0769ZM37.9692 19.0769V20.0769H38.9692V19.0769H37.9692ZM25 18H24V19H25V18ZM34 18V19H35V18H34ZM21.8 15.4461C21.8 13.7893 23.1431 12.4461 24.8 12.4461V10.4461C22.0386 10.4461 19.8 12.6847 19.8 15.4461H21.8ZM21.8 19.0769V15.4461H19.8V19.0769H21.8ZM37.9692 18.0769H20.8V20.0769H37.9692V18.0769ZM36.9692 15.4461V19.0769H38.9692V15.4461H36.9692ZM33.9692 12.4461C35.6261 12.4461 36.9692 13.7893 36.9692 15.4461H38.9692C38.9692 12.6847 36.7307 10.4461 33.9692 10.4461V12.4461ZM24.8 12.4461H33.9692V10.4461H24.8V12.4461ZM26 16V14C24.8954 14 24 14.8954 24 16H26ZM26 18V16H24V18H26ZM34 17H25V19H34V17ZM33 16V18H35V16H33ZM33 16H35C35 14.8954 34.1046 14 33 14V16ZM26 16H33V14H26V16Z" fill="#2A394E" mask="url(#path-1-inside-1_4863_148552)"/>
<rect x="15.6231" y="18.6231" width="27.6154" height="24.7538" rx="1.5" fill="#8D78FF" stroke="#2A394E"/>
<path d="M16.1692 17.6692H42.6923C43.5207 17.6692 44.1923 18.3408 44.1923 19.1692V25.3217C44.1923 25.9469 43.8045 26.5066 43.219 26.7262L29.9575 31.6993C29.6179 31.8266 29.2437 31.8266 28.9041 31.6993L15.6426 26.7262C15.0571 26.5066 14.6692 25.9469 14.6692 25.3217V19.1692C14.6692 18.3408 15.3408 17.6692 16.1692 17.6692Z" fill="#B8ABFF" stroke="#2A394E"/>
<rect x="25.1615" y="26.2538" width="8.53846" height="8.53846" rx="4.26923" fill="white" stroke="#2A394E"/>
<rect x="27.5231" y="28.6154" width="3.81538" height="3.81538" rx="1.90769" fill="#8D78FF"/>
<path d="M15.1231 9.53845L15.1231 12.4" stroke="#6A7483" stroke-linecap="round"/>
<path d="M13.6923 10.9692H16.5538" stroke="#6A7483" stroke-linecap="round"/>
<circle cx="48" cy="12" r="1.5" stroke="#6A7483"/>
<circle cx="19" cy="52" r="1.5" stroke="#6A7483"/>
<circle cx="39.9231" cy="41.9692" r="11.4462" fill="#FFCC02"/>
<path d="M36.7672 40.0655H44.0443" stroke="#2A394E" stroke-width="1.4" stroke-linecap="round"/>
<path d="M36.7179 37.6196L44.0435 37.6198" stroke="#2A394E" stroke-width="1.4" stroke-linecap="round"/>
<path d="M37.1253 37.6195L38.3211 37.6197L39.9235 37.6195C41.391 37.6195 42.3449 38.7183 42.3449 40.1858C42.3449 41.6532 41.1553 42.8428 39.6879 42.8428H37.4237C37.2589 42.8428 37.1253 42.9764 37.1253 43.1412C37.1253 43.223 37.1589 43.3012 37.2183 43.3576L42.0789 47.9715" stroke="#2A394E" stroke-width="1.4" stroke-linecap="round"/>
</svg>
