<svg width="80" height="72" viewBox="0 0 80 72" fill="none" xmlns="http://www.w3.org/2000/svg">
<path d="M69.8657 28.2271L67.8423 30.2505" stroke="#6A7483" stroke-linecap="round"/>
<path d="M67.8423 28.2271L69.8657 30.2505" stroke="#6A7483" stroke-linecap="round"/>
<circle cx="30" cy="59" r="1.5" stroke="#6A7483"/>
<circle cx="31" cy="18" r="1.5" stroke="#6A7483"/>
<path d="M62.7388 38.2964C62.7388 47.3263 55.4186 54.6465 46.3887 54.6465C37.3588 54.6465 30.0386 47.3263 30.0386 38.2964C30.0386 29.2665 37.3588 21.9463 46.3887 21.9463C55.4186 21.9463 62.7388 29.2665 62.7388 38.2964Z" fill="#7B97F8" stroke="#2A394E"/>
<path d="M46.3888 46.2221C41.7966 46.2221 37.6638 45.2903 34.6976 43.8072C31.7015 42.3091 30.0387 40.3321 30.0387 38.297C30.0387 36.2619 31.7015 34.2849 34.6976 32.7868C37.6638 31.3037 41.7966 30.3719 46.3888 30.3719C50.9811 30.3719 55.1138 31.3037 58.08 32.7868C61.0762 34.2849 62.7389 36.2619 62.7389 38.297C62.7389 40.3321 61.0762 42.3091 58.08 43.8072C55.1138 45.2903 50.9811 46.2221 46.3888 46.2221Z" fill="#A8BBFF" stroke="#2A394E"/>
<path d="M52.8847 38.1386C52.8847 42.697 52.0919 46.8001 50.8298 49.7449C50.1984 51.2182 49.4594 52.3785 48.6643 53.1633C47.8713 53.9459 47.0495 54.3309 46.2309 54.3309C45.4122 54.3309 44.5905 53.9459 43.7975 53.1633C43.0023 52.3785 42.2633 51.2182 41.6319 49.7449C40.3698 46.8001 39.577 42.697 39.577 38.1386C39.577 33.5802 40.3698 29.4771 41.6319 26.5323C42.2633 25.059 43.0023 23.8987 43.7975 23.1139C44.5905 22.3313 45.4122 21.9463 46.2309 21.9463C47.0495 21.9463 47.8713 22.3313 48.6643 23.1139C49.4594 23.8987 50.1984 25.059 50.8298 26.5323C52.0919 29.4771 52.8847 33.5802 52.8847 38.1386Z" stroke="#2A394E"/>
<g filter="url(#filter0_d_4863_148575)">
<rect x="24" y="24" width="25" height="15" rx="1" fill="#33C659"/>
<path d="M34.8789 35H33.7389L30.3089 29.81V35H29.1689V28.04H30.3089L33.7389 33.22V28.04H34.8789V35ZM39.986 35L38.386 32.22H37.516V35H36.376V28.05H38.776C39.3093 28.05 39.7593 28.1433 40.126 28.33C40.4993 28.5167 40.776 28.7667 40.956 29.08C41.1426 29.3933 41.236 29.7433 41.236 30.13C41.236 30.5833 41.1026 30.9967 40.836 31.37C40.576 31.7367 40.1726 31.9867 39.626 32.12L41.346 35H39.986ZM37.516 31.31H38.776C39.2026 31.31 39.5226 31.2033 39.736 30.99C39.956 30.7767 40.066 30.49 40.066 30.13C40.066 29.77 39.9593 29.49 39.746 29.29C39.5326 29.0833 39.2093 28.98 38.776 28.98H37.516V31.31ZM43.8343 28.05V35H42.6943V28.05H43.8343Z" fill="white"/>
<rect x="24.5" y="24.5" width="24" height="14" rx="0.5" stroke="#2A394E"/>
</g>
<circle cx="64.5751" cy="52.2702" r="11.4462" fill="#FFCC02"/>
<path d="M61.4186 50.3656H68.6958" stroke="#2A394E" stroke-width="1.4" stroke-linecap="round"/>
<path d="M61.369 47.9211L68.6945 47.9213" stroke="#2A394E" stroke-width="1.4" stroke-linecap="round"/>
<path d="M61.7763 47.921L62.9721 47.9212L64.5746 47.921C66.042 47.921 66.9959 49.0199 66.9959 50.4873C66.9959 51.9547 65.8063 53.1443 64.3389 53.1443H62.0747C61.9099 53.1443 61.7763 53.2779 61.7763 53.4427C61.7763 53.5245 61.8099 53.6028 61.8693 53.6591L66.7299 58.273" stroke="#2A394E" stroke-width="1.4" stroke-linecap="round"/>
<defs>
<filter id="filter0_d_4863_148575" x="0" y="0" width="73" height="63" filterUnits="userSpaceOnUse" color-interpolation-filters="sRGB">
<feFlood flood-opacity="0" result="BackgroundImageFix"/>
<feColorMatrix in="SourceAlpha" type="matrix" values="0 0 0 0 0 0 0 0 0 0 0 0 0 0 0 0 0 0 127 0" result="hardAlpha"/>
<feOffset/>
<feGaussianBlur stdDeviation="12"/>
<feColorMatrix type="matrix" values="0 0 0 0 0.164706 0 0 0 0 0.223529 0 0 0 0 0.305882 0 0 0 0.12 0"/>
<feBlend mode="normal" in2="BackgroundImageFix" result="effect1_dropShadow_4863_148575"/>
<feBlend mode="normal" in="SourceGraphic" in2="effect1_dropShadow_4863_148575" result="shape"/>
</filter>
</defs>
</svg>
