<svg width="16" height="16" viewBox="0 0 16 16" fill="none" xmlns="http://www.w3.org/2000/svg">
<path fill-rule="evenodd" clip-rule="evenodd" d="M4.17464 15.167C2.51464 15.167 1.16797 13.8203 1.16797 12.1603V7.67367C1.16797 6.01367 2.51464 4.66699 4.17464 4.66699H11.828C13.488 4.66699 14.8346 6.01367 14.8346 7.67367V8.63367C14.8346 8.907 14.608 9.13367 14.3346 9.13367H12.988C12.7546 9.13367 12.5413 9.22033 12.388 9.38033L12.3813 9.387C12.1946 9.567 12.108 9.81364 12.128 10.067C12.168 10.507 12.588 10.8603 13.068 10.8603H14.3346C14.608 10.8603 14.8346 11.087 14.8346 11.3603V12.1536C14.8346 13.8203 13.488 15.167 11.828 15.167H4.17464ZM2.16797 7.67367V12.1603C2.16797 13.267 3.06797 14.167 4.17464 14.167H11.828C12.9346 14.167 13.8346 13.267 13.8346 12.1603V11.867H13.068C12.0613 11.867 11.208 11.1203 11.128 10.1603C11.0746 9.61365 11.2746 9.07367 11.6746 8.68034C12.0213 8.32701 12.488 8.13367 12.988 8.13367H13.8346V7.67367C13.8346 6.567 12.9346 5.66699 11.828 5.66699H4.17464C3.06797 5.66699 2.16797 6.567 2.16797 7.67367Z" fill="#6A7483"/>
<path d="M1.16797 8.27301V5.22638C1.16797 4.23305 1.79464 3.33301 2.7213 2.97968L8.01464 0.979678C8.5613 0.773011 9.16797 0.846377 9.6413 1.17971C10.1213 1.51304 10.4013 2.05304 10.4013 2.63304V5.16636C10.4013 5.4397 10.1746 5.66636 9.9013 5.66636C9.62797 5.66636 9.4013 5.4397 9.4013 5.16636V2.63304C9.4013 2.37971 9.2813 2.14636 9.06797 1.9997C8.85464 1.85303 8.6013 1.81969 8.3613 1.91303L3.06797 3.91303C2.52797 4.11969 2.1613 4.64638 2.1613 5.22638V8.27301C2.16797 8.55301 1.9413 8.77301 1.66797 8.77301C1.39464 8.77301 1.16797 8.54635 1.16797 8.27301Z" fill="#6A7483"/>
<path fill-rule="evenodd" clip-rule="evenodd" d="M11.1257 10.1604C11.0723 9.60711 11.2723 9.06712 11.6723 8.67379C12.0123 8.32712 12.479 8.13379 12.979 8.13379H14.3657C15.0257 8.15379 15.5323 8.67376 15.5323 9.31376V10.6871C15.5323 11.3271 15.0257 11.8471 14.3857 11.8671H13.0657C12.059 11.8671 11.2057 11.1204 11.1257 10.1604ZM12.9857 9.13379C12.7523 9.13379 12.539 9.22045 12.3857 9.38045C12.1923 9.56712 12.099 9.82044 12.1257 10.0738C12.1657 10.5138 12.5857 10.8671 13.0657 10.8671H14.3723C14.459 10.8671 14.539 10.7871 14.539 10.6871V9.31376C14.539 9.21376 14.459 9.14046 14.3523 9.13379H12.9857Z" fill="#6A7483"/>
<path d="M4.66797 8.5C4.39464 8.5 4.16797 8.27333 4.16797 8C4.16797 7.72667 4.39464 7.5 4.66797 7.5H9.33464C9.60797 7.5 9.83464 7.72667 9.83464 8C9.83464 8.27333 9.60797 8.5 9.33464 8.5H4.66797Z" fill="#6A7483"/>
</svg>
