<svg width="20" height="20" viewBox="0 0 20 20" fill="none" xmlns="http://www.w3.org/2000/svg">
<mask id="path-1-outside-1_4709_35324" maskUnits="userSpaceOnUse" x="0" y="1" width="19" height="18" fill="black">
<rect fill="white" y="1" width="19" height="18"/>
<path fill-rule="evenodd" clip-rule="evenodd" d="M16.6151 7.28544H11.7502V3.85279C11.7494 3.36173 11.5554 2.89082 11.2106 2.5436C10.8659 2.19623 10.3984 2.00075 9.91095 2H2.83928C2.3518 2.00078 1.88434 2.19624 1.53966 2.5436C1.19482 2.89082 1.00077 3.36173 1.00002 3.85279V8.30709C0.998176 8.67585 1.10789 9.0364 1.31485 9.34068C1.92732 10.5426 4.63537 12.2909 5.14432 12.6195C5.19493 12.6522 5.22379 12.6708 5.22669 12.6735C5.27223 12.7019 5.32471 12.717 5.37825 12.7175C5.44673 12.7167 5.51274 12.6918 5.56475 12.647C5.6597 12.5655 5.69247 12.432 5.64646 12.3153C5.39026 11.6142 5.1953 10.8922 5.06342 10.1569H7.70438V13.5925C7.70515 14.0834 7.89919 14.5539 8.24401 14.9008C8.589 15.2475 9.05632 15.4424 9.54364 15.4424H14.3912C14.2594 16.1774 14.0644 16.8996 13.8082 17.6005C13.7634 17.7166 13.7962 17.8484 13.8897 17.9295C13.9418 17.9743 14.0079 17.9992 14.0764 18C14.1299 17.9995 14.1824 17.9843 14.228 17.956L14.2355 17.9512C14.4101 17.8416 17.4823 15.9133 18.1398 14.6232C18.3466 14.3189 18.4565 13.9583 18.4545 13.5896V9.13805C18.4537 8.64683 18.2597 8.17609 17.915 7.82871C17.5702 7.48149 17.1028 7.28602 16.6152 7.28527L16.6151 7.28544ZM6.66374 9.56982H4.71659C4.63134 9.56982 4.5504 9.60734 4.49501 9.67259C4.439 9.738 4.41453 9.82496 4.42808 9.91037C4.5284 10.5188 4.66366 11.1207 4.83322 11.7133C3.82471 11.0262 2.2361 9.84577 1.83958 9.08527C1.83066 9.06481 1.81989 9.04512 1.80757 9.02652C1.66062 8.81586 1.5823 8.56458 1.58307 8.30712V3.85283C1.58384 3.51739 1.71648 3.19605 1.95191 2.95891C2.18734 2.72159 2.50647 2.58813 2.8393 2.58736H9.91097C10.244 2.58813 10.5629 2.72159 10.7984 2.95891C11.0339 3.19607 11.1664 3.5174 11.1672 3.85283V7.28547H9.54365C8.98755 7.28563 8.46143 7.53937 8.11245 7.97558C7.6964 7.97636 7.28628 7.8756 6.9173 7.68184C7.46138 7.06134 7.78176 6.27405 7.8267 5.44727H8.194C8.35496 5.44727 8.4856 5.31583 8.4856 5.15369C8.4856 4.99156 8.35496 4.86011 8.194 4.86011H6.67831V3.93223C6.67831 3.76994 6.54783 3.63849 6.38672 3.63849C6.22577 3.63849 6.09528 3.76994 6.09528 3.93223V4.85126H4.57668C4.41557 4.85126 4.28509 4.98271 4.28509 5.14484C4.28509 5.30698 4.41557 5.43858 4.57668 5.43858H7.24088C7.19842 6.11861 6.93283 6.76515 6.48582 7.27665L6.43919 7.32067C6.11498 7.00166 5.866 6.61322 5.7106 6.1843C5.65258 6.0327 5.48363 5.95706 5.33299 6.0155C5.1825 6.07394 5.10756 6.24413 5.16542 6.39573C5.3393 6.87128 5.60921 7.30516 5.95834 7.67003C5.53334 7.88642 5.06138 7.99245 4.58533 7.97834C4.42438 7.97834 4.29389 8.10994 4.29389 8.27208C4.29389 8.43422 4.42438 8.56566 4.58533 8.56566C5.23916 8.58628 5.88464 8.41376 6.44215 8.06948C6.85223 8.33237 7.31926 8.49158 7.80351 8.5334C7.73827 8.7222 7.70472 8.92061 7.70441 9.12058V9.55228L6.66374 9.56982ZM17.6472 14.3122C17.794 14.1015 17.8725 13.8502 17.8717 13.5928L17.872 9.13834C17.8713 8.80291 17.7386 8.48143 17.5032 8.24427C17.2678 8.00711 16.9487 7.87364 16.6157 7.87287H9.544C9.21101 7.87365 8.89188 8.00711 8.65645 8.24427C8.42102 8.48141 8.28838 8.80291 8.28761 9.13834V13.6045C8.28838 13.9397 8.42117 14.2609 8.65661 14.4975C8.89217 14.7342 9.21131 14.8671 9.54399 14.8671H14.7382C14.8235 14.8671 14.9044 14.9048 14.9597 14.9699C15.0157 15.0354 15.0403 15.1224 15.0267 15.2078C14.9264 15.8161 14.7912 16.4181 14.6216 17.0107C15.6302 16.3117 17.2218 15.1284 17.6182 14.368C17.6249 14.348 17.6348 14.3291 17.6472 14.3122ZM13.3628 9.07652C13.3515 9.05188 13.3369 9.02925 13.3189 9.0091C13.3189 9.0091 13.3189 8.98848 13.2984 8.9798L13.2986 8.97964C13.2883 8.9722 13.2777 8.96523 13.2664 8.95918C13.248 8.94291 13.2273 8.92911 13.2053 8.91795C13.1898 8.91655 13.1741 8.91655 13.1587 8.91795C13.1382 8.91655 13.1178 8.91655 13.0975 8.91795C13.0718 8.91996 13.0462 8.92492 13.0216 8.93268H12.9896C12.9624 8.94477 12.9368 8.96058 12.9137 8.97964L12.8933 8.99437L12.8699 9.02956H12.87C12.8548 9.04893 12.8411 9.06955 12.8293 9.09125L11.0803 13.4959C11.0517 13.5683 11.0528 13.6492 11.0834 13.7209C11.114 13.7925 11.1716 13.8489 11.2436 13.8776C11.2778 13.8917 11.3145 13.8988 11.3515 13.8982C11.4709 13.8983 11.5783 13.825 11.6224 13.7133L12.1296 12.4301H14.068L14.5781 13.7133H14.5782C14.6224 13.825 14.7298 13.8983 14.8493 13.8982C14.8863 13.8983 14.9227 13.8914 14.9572 13.8776C15.0291 13.8489 15.0868 13.7925 15.1174 13.7209C15.148 13.6492 15.1491 13.5683 15.1203 13.4959L13.3628 9.07652ZM13.0884 9.97514L12.3508 11.8279H13.8229L13.0884 9.97514Z"/>
</mask>
<path fill-rule="evenodd" clip-rule="evenodd" d="M16.6151 7.28544H11.7502V3.85279C11.7494 3.36173 11.5554 2.89082 11.2106 2.5436C10.8659 2.19623 10.3984 2.00075 9.91095 2H2.83928C2.3518 2.00078 1.88434 2.19624 1.53966 2.5436C1.19482 2.89082 1.00077 3.36173 1.00002 3.85279V8.30709C0.998176 8.67585 1.10789 9.0364 1.31485 9.34068C1.92732 10.5426 4.63537 12.2909 5.14432 12.6195C5.19493 12.6522 5.22379 12.6708 5.22669 12.6735C5.27223 12.7019 5.32471 12.717 5.37825 12.7175C5.44673 12.7167 5.51274 12.6918 5.56475 12.647C5.6597 12.5655 5.69247 12.432 5.64646 12.3153C5.39026 11.6142 5.1953 10.8922 5.06342 10.1569H7.70438V13.5925C7.70515 14.0834 7.89919 14.5539 8.24401 14.9008C8.589 15.2475 9.05632 15.4424 9.54364 15.4424H14.3912C14.2594 16.1774 14.0644 16.8996 13.8082 17.6005C13.7634 17.7166 13.7962 17.8484 13.8897 17.9295C13.9418 17.9743 14.0079 17.9992 14.0764 18C14.1299 17.9995 14.1824 17.9843 14.228 17.956L14.2355 17.9512C14.4101 17.8416 17.4823 15.9133 18.1398 14.6232C18.3466 14.3189 18.4565 13.9583 18.4545 13.5896V9.13805C18.4537 8.64683 18.2597 8.17609 17.915 7.82871C17.5702 7.48149 17.1028 7.28602 16.6152 7.28527L16.6151 7.28544ZM6.66374 9.56982H4.71659C4.63134 9.56982 4.5504 9.60734 4.49501 9.67259C4.439 9.738 4.41453 9.82496 4.42808 9.91037C4.5284 10.5188 4.66366 11.1207 4.83322 11.7133C3.82471 11.0262 2.2361 9.84577 1.83958 9.08527C1.83066 9.06481 1.81989 9.04512 1.80757 9.02652C1.66062 8.81586 1.5823 8.56458 1.58307 8.30712V3.85283C1.58384 3.51739 1.71648 3.19605 1.95191 2.95891C2.18734 2.72159 2.50647 2.58813 2.8393 2.58736H9.91097C10.244 2.58813 10.5629 2.72159 10.7984 2.95891C11.0339 3.19607 11.1664 3.5174 11.1672 3.85283V7.28547H9.54365C8.98755 7.28563 8.46143 7.53937 8.11245 7.97558C7.6964 7.97636 7.28628 7.8756 6.9173 7.68184C7.46138 7.06134 7.78176 6.27405 7.8267 5.44727H8.194C8.35496 5.44727 8.4856 5.31583 8.4856 5.15369C8.4856 4.99156 8.35496 4.86011 8.194 4.86011H6.67831V3.93223C6.67831 3.76994 6.54783 3.63849 6.38672 3.63849C6.22577 3.63849 6.09528 3.76994 6.09528 3.93223V4.85126H4.57668C4.41557 4.85126 4.28509 4.98271 4.28509 5.14484C4.28509 5.30698 4.41557 5.43858 4.57668 5.43858H7.24088C7.19842 6.11861 6.93283 6.76515 6.48582 7.27665L6.43919 7.32067C6.11498 7.00166 5.866 6.61322 5.7106 6.1843C5.65258 6.0327 5.48363 5.95706 5.33299 6.0155C5.1825 6.07394 5.10756 6.24413 5.16542 6.39573C5.3393 6.87128 5.60921 7.30516 5.95834 7.67003C5.53334 7.88642 5.06138 7.99245 4.58533 7.97834C4.42438 7.97834 4.29389 8.10994 4.29389 8.27208C4.29389 8.43422 4.42438 8.56566 4.58533 8.56566C5.23916 8.58628 5.88464 8.41376 6.44215 8.06948C6.85223 8.33237 7.31926 8.49158 7.80351 8.5334C7.73827 8.7222 7.70472 8.92061 7.70441 9.12058V9.55228L6.66374 9.56982ZM17.6472 14.3122C17.794 14.1015 17.8725 13.8502 17.8717 13.5928L17.872 9.13834C17.8713 8.80291 17.7386 8.48143 17.5032 8.24427C17.2678 8.00711 16.9487 7.87364 16.6157 7.87287H9.544C9.21101 7.87365 8.89188 8.00711 8.65645 8.24427C8.42102 8.48141 8.28838 8.80291 8.28761 9.13834V13.6045C8.28838 13.9397 8.42117 14.2609 8.65661 14.4975C8.89217 14.7342 9.21131 14.8671 9.54399 14.8671H14.7382C14.8235 14.8671 14.9044 14.9048 14.9597 14.9699C15.0157 15.0354 15.0403 15.1224 15.0267 15.2078C14.9264 15.8161 14.7912 16.4181 14.6216 17.0107C15.6302 16.3117 17.2218 15.1284 17.6182 14.368C17.6249 14.348 17.6348 14.3291 17.6472 14.3122ZM13.3628 9.07652C13.3515 9.05188 13.3369 9.02925 13.3189 9.0091C13.3189 9.0091 13.3189 8.98848 13.2984 8.9798L13.2986 8.97964C13.2883 8.9722 13.2777 8.96523 13.2664 8.95918C13.248 8.94291 13.2273 8.92911 13.2053 8.91795C13.1898 8.91655 13.1741 8.91655 13.1587 8.91795C13.1382 8.91655 13.1178 8.91655 13.0975 8.91795C13.0718 8.91996 13.0462 8.92492 13.0216 8.93268H12.9896C12.9624 8.94477 12.9368 8.96058 12.9137 8.97964L12.8933 8.99437L12.8699 9.02956H12.87C12.8548 9.04893 12.8411 9.06955 12.8293 9.09125L11.0803 13.4959C11.0517 13.5683 11.0528 13.6492 11.0834 13.7209C11.114 13.7925 11.1716 13.8489 11.2436 13.8776C11.2778 13.8917 11.3145 13.8988 11.3515 13.8982C11.4709 13.8983 11.5783 13.825 11.6224 13.7133L12.1296 12.4301H14.068L14.5781 13.7133H14.5782C14.6224 13.825 14.7298 13.8983 14.8493 13.8982C14.8863 13.8983 14.9227 13.8914 14.9572 13.8776C15.0291 13.8489 15.0868 13.7925 15.1174 13.7209C15.148 13.6492 15.1491 13.5683 15.1203 13.4959L13.3628 9.07652ZM13.0884 9.97514L12.3508 11.8279H13.8229L13.0884 9.97514Z" fill="#747E8B"/>
<path d="M11.7502 7.28544H11.5502V7.48544H11.7502V7.28544ZM16.6151 7.28544V7.48544H16.7403L16.795 7.37286L16.6151 7.28544ZM11.7502 3.85279L11.9502 3.85279L11.9502 3.85248L11.7502 3.85279ZM11.2106 2.5436L11.0686 2.68447L11.0687 2.68454L11.2106 2.5436ZM9.91095 2L9.91126 1.8H9.91095V2ZM2.83928 2L2.83928 1.8L2.83896 1.8L2.83928 2ZM1.53966 2.5436L1.68156 2.68454L1.68162 2.68447L1.53966 2.5436ZM1.00002 3.85279L0.800023 3.85248V3.85279H1.00002ZM1.00002 8.30709L1.20002 8.30809V8.30709H1.00002ZM1.31485 9.34068L1.49305 9.24988L1.48732 9.23864L1.48022 9.2282L1.31485 9.34068ZM5.14432 12.6195L5.25279 12.4515L5.25279 12.4515L5.14432 12.6195ZM5.22669 12.6735L5.09134 12.8207L5.10509 12.8334L5.12095 12.8433L5.22669 12.6735ZM5.37825 12.7175L5.37652 12.9175L5.38052 12.9175L5.37825 12.7175ZM5.56475 12.647L5.43445 12.4953L5.43423 12.4954L5.56475 12.647ZM5.64646 12.3153L5.45855 12.3839L5.46039 12.3886L5.64646 12.3153ZM5.06342 10.1569V9.95693H4.82435L4.86656 10.1922L5.06342 10.1569ZM7.70438 10.1569H7.90438V9.95693H7.70438V10.1569ZM7.70438 13.5925L7.50438 13.5925L7.50438 13.5928L7.70438 13.5925ZM8.24401 14.9008L8.10217 15.0418L8.10223 15.0418L8.24401 14.9008ZM14.3912 15.4424L14.5881 15.4777L14.6303 15.2424H14.3912V15.4424ZM13.8082 17.6005L13.9948 17.6725L13.996 17.6692L13.8082 17.6005ZM13.8897 17.9295L13.7588 18.0806L13.7592 18.081L13.8897 17.9295ZM14.0764 18L14.0741 18.2L14.0781 18.2L14.0764 18ZM14.228 17.956L14.3337 18.1257L14.3345 18.1252L14.228 17.956ZM14.2355 17.9512L14.1292 17.7819L14.129 17.782L14.2355 17.9512ZM18.1398 14.6232L17.9744 14.5107L17.9673 14.5212L17.9616 14.5324L18.1398 14.6232ZM18.4545 13.5896L18.2545 13.5896L18.2545 13.5907L18.4545 13.5896ZM18.4545 9.13805L18.6545 9.13805L18.6545 9.13774L18.4545 9.13805ZM17.915 7.82871L18.057 7.68784L18.0569 7.68778L17.915 7.82871ZM16.6152 7.28527L16.6155 7.08527L16.4901 7.08507L16.4353 7.19784L16.6152 7.28527ZM6.66374 9.56982L6.66374 9.76985L6.66711 9.76979L6.66374 9.56982ZM4.49501 9.67259L4.64693 9.80268L4.64748 9.80202L4.49501 9.67259ZM4.42808 9.91037L4.23054 9.9417L4.23074 9.94291L4.42808 9.91037ZM4.83322 11.7133L4.72061 11.8786L5.17764 12.19L5.02551 11.6583L4.83322 11.7133ZM1.83958 9.08527L1.65582 9.16542L1.66224 9.17773L1.83958 9.08527ZM1.80757 9.02652L1.97441 8.91612L1.97161 8.91209L1.80757 9.02652ZM1.58307 8.30712L1.78307 8.30772V8.30712H1.58307ZM1.58307 3.85283L1.38307 3.85237V3.85283H1.58307ZM1.95191 2.95891L2.09384 3.09982L2.0939 3.09977L1.95191 2.95891ZM2.8393 2.58736L2.8393 2.38736L2.83883 2.38736L2.8393 2.58736ZM9.91097 2.58736L9.91143 2.38736H9.91097V2.58736ZM10.7984 2.95891L10.6564 3.09976L10.6565 3.09986L10.7984 2.95891ZM11.1672 3.85283L11.3672 3.85283L11.3672 3.85237L11.1672 3.85283ZM11.1672 7.28547V7.48547H11.3672V7.28547H11.1672ZM9.54365 7.28547L9.54365 7.08547L9.54359 7.08547L9.54365 7.28547ZM8.11245 7.97558L8.11283 8.17558L8.20872 8.1754L8.26863 8.10052L8.11245 7.97558ZM6.9173 7.68184L6.76692 7.54999L6.59954 7.74088L6.82432 7.85892L6.9173 7.68184ZM7.8267 5.44727V5.24727H7.63728L7.627 5.43642L7.8267 5.44727ZM6.67831 4.86011H6.47831V5.06011H6.67831V4.86011ZM6.09528 4.85126V5.05126H6.29528V4.85126H6.09528ZM7.24088 5.43858L7.4405 5.45105L7.45376 5.23858H7.24088V5.43858ZM6.48582 7.27665L6.62312 7.42207L6.6301 7.41548L6.63641 7.40826L6.48582 7.27665ZM6.43919 7.32067L6.29892 7.46323L6.43633 7.59844L6.5765 7.46609L6.43919 7.32067ZM5.7106 6.1843L5.89866 6.11616L5.89739 6.11282L5.7106 6.1843ZM5.33299 6.0155L5.26065 5.82904L5.26059 5.82906L5.33299 6.0155ZM5.16542 6.39573L5.35327 6.32704L5.35227 6.32441L5.16542 6.39573ZM5.95834 7.67003L6.04909 7.84826L6.28887 7.72618L6.10285 7.53177L5.95834 7.67003ZM4.58533 7.97834L4.59126 7.77834H4.58533V7.97834ZM4.58533 8.56566L4.59164 8.36566H4.58533V8.56566ZM6.44215 8.06948L6.5501 7.90111L6.44415 7.83319L6.33707 7.89931L6.44215 8.06948ZM7.80351 8.5334L7.99254 8.59872L8.07634 8.35622L7.82072 8.33414L7.80351 8.5334ZM7.70441 9.12058L7.50441 9.12027V9.12058H7.70441ZM7.70441 9.55228L7.70778 9.75225L7.90441 9.74893V9.55228H7.70441ZM17.8717 13.5928L17.6717 13.5928L17.6717 13.5934L17.8717 13.5928ZM17.6472 14.3122L17.8082 14.4309L17.8113 14.4265L17.6472 14.3122ZM17.872 9.13834L18.072 9.13836L18.072 9.13788L17.872 9.13834ZM17.5032 8.24427L17.3613 8.38516L17.3613 8.38517L17.5032 8.24427ZM16.6157 7.87287L16.6161 7.67287H16.6157V7.87287ZM9.544 7.87287L9.544 7.67287L9.54353 7.67287L9.544 7.87287ZM8.65645 8.24427L8.79838 8.38518L8.79839 8.38517L8.65645 8.24427ZM8.28761 9.13834L8.08761 9.13788V9.13834H8.28761ZM8.28761 13.6045L8.08761 13.6045L8.08761 13.605L8.28761 13.6045ZM8.65661 14.4975L8.51481 14.6386L8.51485 14.6386L8.65661 14.4975ZM14.9597 14.9699L14.8072 15.0993L14.8076 15.0998L14.9597 14.9699ZM15.0267 15.2078L15.2241 15.2403L15.2243 15.2391L15.0267 15.2078ZM14.6216 17.0107L14.4293 16.9557L14.2753 17.494L14.7355 17.1751L14.6216 17.0107ZM17.6182 14.368L17.7955 14.4604L17.8026 14.4467L17.8076 14.4321L17.6182 14.368ZM13.3189 9.0091L13.1189 9.0091L13.1189 9.08543L13.1698 9.14235L13.3189 9.0091ZM13.3628 9.07652L13.5488 9.00253L13.5447 8.99357L13.3628 9.07652ZM13.2984 8.9798L13.1564 8.83904L12.9486 9.04868L13.2203 9.16392L13.2984 8.9798ZM13.2986 8.97964L13.4407 9.12041L13.6052 8.95431L13.4156 8.81747L13.2986 8.97964ZM13.2664 8.95918L13.1342 9.10922L13.1514 9.12441L13.1716 9.1353L13.2664 8.95918ZM13.2053 8.91795L13.2958 8.73959L13.2615 8.72219L13.2232 8.71875L13.2053 8.91795ZM13.1587 8.91795L13.1451 9.11749L13.161 9.11857L13.1768 9.11713L13.1587 8.91795ZM13.0975 8.91795L13.0838 8.71841L13.0818 8.71856L13.0975 8.91795ZM13.0216 8.93268V9.13268H13.0523L13.0817 9.12345L13.0216 8.93268ZM12.9896 8.93268V8.73268H12.9472L12.9085 8.74988L12.9896 8.93268ZM12.9137 8.97964L13.0308 9.14235L13.0411 9.13384L12.9137 8.97964ZM12.8933 8.99437L12.7765 8.83203L12.7469 8.85331L12.7267 8.88365L12.8933 8.99437ZM12.8699 9.02956L12.7033 8.91884L12.4968 9.22956H12.8699V9.02956ZM12.87 9.02956L13.0273 9.15317L13.2817 8.82956H12.87V9.02956ZM12.8293 9.09125L12.6537 8.9954L12.6479 9.00611L12.6434 9.01744L12.8293 9.09125ZM11.0803 13.4959L10.8944 13.4221L10.8943 13.4224L11.0803 13.4959ZM11.0834 13.7209L10.8995 13.7995L10.8995 13.7995L11.0834 13.7209ZM11.2436 13.8776L11.3199 13.6927L11.3176 13.6918L11.2436 13.8776ZM11.3515 13.8982L11.3517 13.6982L11.3481 13.6982L11.3515 13.8982ZM11.6224 13.7133L11.4364 13.6397L11.4364 13.6398L11.6224 13.7133ZM12.1296 12.4301V12.2301H11.9936L11.9436 12.3566L12.1296 12.4301ZM14.068 12.4301L14.2538 12.3562L14.2037 12.2301H14.068V12.4301ZM14.5781 13.7133L14.3922 13.7871L14.4423 13.9133H14.5781V13.7133ZM14.5782 13.7133L14.7642 13.6398L14.7142 13.5133H14.5782V13.7133ZM14.8493 13.8982L14.8502 13.6982L14.8491 13.6982L14.8493 13.8982ZM14.9572 13.8776L14.8831 13.6918L14.8829 13.6919L14.9572 13.8776ZM15.1174 13.7209L14.9335 13.6422L14.9335 13.6422L15.1174 13.7209ZM15.1203 13.4959L15.3062 13.4221L15.3062 13.422L15.1203 13.4959ZM12.3508 11.8279L12.165 11.754L12.0559 12.0279H12.3508V11.8279ZM13.0884 9.97514L13.2743 9.90143L13.0887 9.43344L12.9025 9.90117L13.0884 9.97514ZM13.8229 11.8279V12.0279H14.1174L14.0089 11.7542L13.8229 11.8279ZM11.7502 7.48544H16.6151V7.08544H11.7502V7.48544ZM11.5502 3.85279V7.28544H11.9502V3.85279H11.5502ZM11.0687 2.68454C11.3762 2.9942 11.5495 3.4145 11.5502 3.8531L11.9502 3.85248C11.9494 3.30895 11.7346 2.78744 11.3525 2.40267L11.0687 2.68454ZM9.91064 2.2C10.3447 2.20067 10.7613 2.37472 11.0686 2.68447L11.3525 2.40273C10.9705 2.01774 10.4522 1.80084 9.91126 1.8L9.91064 2.2ZM2.83928 2.2H9.91095V1.8H2.83928V2.2ZM1.68162 2.68447C1.98897 2.37473 2.40552 2.20069 2.8396 2.2L2.83896 1.8C2.29808 1.80086 1.7797 2.01775 1.39769 2.40273L1.68162 2.68447ZM1.20002 3.85309C1.20069 3.4145 1.37403 2.9942 1.68156 2.68454L1.39775 2.40267C1.01562 2.78744 0.800852 3.30895 0.800023 3.85248L1.20002 3.85309ZM1.20002 8.30709V3.85279H0.800023V8.30709H1.20002ZM1.48022 9.2282C1.2961 8.9575 1.19838 8.63655 1.20002 8.30809L0.800025 8.30609C0.797977 8.71516 0.919678 9.1153 1.14948 9.45316L1.48022 9.2282ZM5.25279 12.4515C4.99894 12.2876 4.20057 11.7721 3.39032 11.1491C2.98511 10.8375 2.57981 10.5012 2.23939 10.1704C1.89606 9.83686 1.63101 9.52061 1.49305 9.24988L1.13665 9.43149C1.30493 9.76172 1.60806 10.1147 1.96065 10.4573C2.31615 10.8027 2.73452 11.1494 3.14649 11.4662C3.97063 12.0999 4.78075 12.6229 5.03584 12.7875L5.25279 12.4515ZM5.36203 12.5262C5.35471 12.5195 5.34835 12.5147 5.34679 12.5135C5.34412 12.5115 5.34179 12.5098 5.34025 12.5087C5.33713 12.5065 5.33402 12.5044 5.33151 12.5027C5.32632 12.4992 5.31985 12.4949 5.31271 12.4903C5.29828 12.4809 5.2779 12.4677 5.25279 12.4515L5.03584 12.7875C5.06134 12.804 5.08069 12.8165 5.09407 12.8252C5.10084 12.8297 5.10529 12.8326 5.10791 12.8344C5.1093 12.8353 5.10932 12.8353 5.10853 12.8348C5.10816 12.8345 5.10679 12.8335 5.10489 12.8321C5.10409 12.8315 5.0983 12.8271 5.09134 12.8207L5.36203 12.5262ZM5.37999 12.5175C5.36311 12.5174 5.34664 12.5126 5.33242 12.5037L5.12095 12.8433C5.19782 12.8911 5.2863 12.9167 5.37652 12.9175L5.37999 12.5175ZM5.43423 12.4954C5.41786 12.5096 5.39724 12.5173 5.37599 12.5175L5.38052 12.9175C5.49622 12.9162 5.60763 12.874 5.69527 12.7985L5.43423 12.4954ZM5.46039 12.3886C5.47535 12.4266 5.46439 12.4696 5.43445 12.4953L5.69505 12.7987C5.85501 12.6614 5.90958 12.4374 5.83253 12.2419L5.46039 12.3886ZM4.86656 10.1922C5.00047 10.9388 5.19844 11.672 5.45861 12.3839L5.83431 12.2466C5.58208 11.5564 5.39013 10.8455 5.26028 10.1216L4.86656 10.1922ZM7.70438 9.95693H5.06342V10.3569H7.70438V9.95693ZM7.90438 13.5925V10.1569H7.50438V13.5925H7.90438ZM8.38586 14.7598C8.07836 14.4504 7.90507 14.0306 7.90438 13.5922L7.50438 13.5928C7.50523 14.1362 7.72001 14.6573 8.10217 15.0418L8.38586 14.7598ZM9.54364 15.2424C9.1098 15.2424 8.69343 15.0689 8.3858 14.7597L8.10223 15.0418C8.48457 15.4261 9.00284 15.6424 9.54364 15.6424V15.2424ZM14.3912 15.2424H9.54364V15.6424H14.3912V15.2424ZM13.996 17.6692C14.2562 16.9574 14.4542 16.224 14.5881 15.4777L14.1944 15.407C14.0645 16.1308 13.8726 16.8418 13.6203 17.5319L13.996 17.6692ZM14.0207 17.7783C13.9911 17.7527 13.9802 17.7103 13.9948 17.6725L13.6216 17.5286C13.5466 17.723 13.6012 17.9441 13.7588 18.0806L14.0207 17.7783ZM14.0787 17.8C14.0573 17.7998 14.0366 17.792 14.0203 17.7779L13.7592 18.081C13.847 18.1566 13.9585 18.1987 14.0741 18.2L14.0787 17.8ZM14.1222 17.7862C14.108 17.7951 14.0915 17.7999 14.0747 17.8L14.0781 18.2C14.1684 18.1992 14.2568 18.1736 14.3337 18.1257L14.1222 17.7862ZM14.129 17.782L14.1214 17.7867L14.3345 18.1252L14.342 18.1205L14.129 17.782ZM17.9616 14.5324C17.8132 14.8236 17.5183 15.167 17.1392 15.527C16.7636 15.8838 16.319 16.2441 15.8862 16.5702C15.021 17.2221 14.215 17.728 14.1292 17.7819L14.3418 18.1206C14.4306 18.0649 15.248 17.5519 16.1269 16.8897C16.5663 16.5586 17.0239 16.1882 17.4147 15.8171C17.802 15.4492 18.1377 15.0678 18.318 14.714L17.9616 14.5324ZM18.2545 13.5907C18.2563 13.919 18.1584 14.24 17.9744 14.5107L18.3052 14.7356C18.5348 14.3978 18.6567 13.9977 18.6545 13.5885L18.2545 13.5907ZM18.2545 9.13805V13.5896H18.6545V9.13805H18.2545ZM17.773 7.96958C18.0805 8.27943 18.2538 8.69962 18.2545 9.13837L18.6545 9.13774C18.6536 8.59405 18.4389 8.07274 18.057 7.68784L17.773 7.96958ZM16.6149 7.48527C17.0491 7.48594 17.4655 7.65998 17.7731 7.96964L18.0569 7.68778C17.6748 7.30301 17.1566 7.0861 16.6155 7.08527L16.6149 7.48527ZM16.795 7.37286L16.7951 7.37269L16.4353 7.19784L16.4353 7.19801L16.795 7.37286ZM4.71659 9.76982H6.66374V9.36982H4.71659V9.76982ZM4.64748 9.80202C4.66501 9.78137 4.69027 9.76982 4.71659 9.76982V9.36982C4.57241 9.36982 4.43579 9.4333 4.34254 9.54316L4.64748 9.80202ZM4.62561 9.87905C4.62119 9.85121 4.62924 9.82333 4.64693 9.80268L4.3431 9.54251C4.24876 9.65268 4.20787 9.79871 4.23054 9.9417L4.62561 9.87905ZM5.02551 11.6583C4.85806 11.073 4.72449 10.4787 4.62541 9.87783L4.23074 9.94291C4.33232 10.5589 4.46926 11.1683 4.64094 11.7683L5.02551 11.6583ZM1.66224 9.17773C1.77456 9.39315 1.96374 9.62578 2.18891 9.85902C2.41616 10.0944 2.68936 10.3398 2.97907 10.5806C3.55857 11.0622 4.21352 11.5331 4.72061 11.8786L4.94584 11.548C4.44441 11.2064 3.8008 10.7434 3.23474 10.273C2.95167 10.0377 2.69034 9.8025 2.47668 9.58119C2.26096 9.35774 2.10286 9.15763 2.01692 8.9928L1.66224 9.17773ZM1.64079 9.13689C1.64692 9.14616 1.6521 9.15569 1.65626 9.16523L2.0229 9.00531C2.00921 8.97392 1.99285 8.94409 1.97436 8.91615L1.64079 9.13689ZM1.38307 8.30652C1.38218 8.60493 1.47296 8.89641 1.64354 9.14095L1.97161 8.91209C1.84829 8.73532 1.78242 8.52423 1.78307 8.30772L1.38307 8.30652ZM1.38307 3.85283V8.30712H1.78307V3.85283H1.38307ZM1.80998 2.818C1.53733 3.09263 1.38396 3.46449 1.38307 3.85237L1.78307 3.85329C1.78372 3.57029 1.89563 3.29947 2.09384 3.09982L1.80998 2.818ZM2.83883 2.38736C2.45269 2.38826 2.08268 2.54311 1.80993 2.81806L2.0939 3.09977C2.292 2.90007 2.56026 2.78801 2.83976 2.78736L2.83883 2.38736ZM9.91097 2.38736H2.8393V2.78736H9.91097V2.38736ZM10.9403 2.81806C10.6676 2.54312 10.2977 2.38826 9.91143 2.38736L9.9105 2.78736C10.1902 2.78801 10.4583 2.90007 10.6564 3.09976L10.9403 2.81806ZM11.3672 3.85237C11.3663 3.46455 11.2131 3.09267 10.9402 2.81796L10.6565 3.09986C10.8548 3.29948 10.9665 3.57024 10.9672 3.85328L11.3672 3.85237ZM11.3672 7.28547V3.85283H10.9672V7.28547H11.3672ZM9.54365 7.48547H11.1672V7.08547H9.54365V7.48547ZM8.26863 8.10052C8.57987 7.71147 9.04869 7.48561 9.5437 7.48547L9.54359 7.08547C8.92641 7.08564 8.34298 7.36728 7.95628 7.85064L8.26863 8.10052ZM6.82432 7.85892C7.22206 8.06778 7.66421 8.17642 8.11283 8.17558L8.11208 7.77558C7.72858 7.7763 7.35051 7.68343 7.01028 7.50477L6.82432 7.85892ZM7.627 5.43642C7.58447 6.21864 7.28137 6.96328 6.76692 7.54999L7.06768 7.8137C7.6414 7.1594 7.97904 6.32946 8.02641 5.45813L7.627 5.43642ZM8.194 5.24727H7.8267V5.64727H8.194V5.24727ZM8.2856 5.15369C8.2856 5.20662 8.24326 5.24727 8.194 5.24727V5.64727C8.46666 5.64727 8.6856 5.42504 8.6856 5.15369H8.2856ZM8.194 5.06011C8.24326 5.06011 8.2856 5.10076 8.2856 5.15369H8.6856C8.6856 4.88235 8.46666 4.66011 8.194 4.66011V5.06011ZM6.67831 5.06011H8.194V4.66011H6.67831V5.06011ZM6.47831 3.93223V4.86011H6.87831V3.93223H6.47831ZM6.38672 3.83849C6.43599 3.83849 6.47831 3.87901 6.47831 3.93223H6.87831C6.87831 3.66086 6.65966 3.43849 6.38672 3.43849V3.83849ZM6.29528 3.93223C6.29528 3.87894 6.33767 3.83849 6.38672 3.83849V3.43849C6.11386 3.43849 5.89528 3.66093 5.89528 3.93223H6.29528ZM6.29528 4.85126V3.93223H5.89528V4.85126H6.29528ZM4.57668 5.05126H6.09528V4.65126H4.57668V5.05126ZM4.48509 5.14484C4.48509 5.09185 4.52734 5.05126 4.57668 5.05126V4.65126C4.3038 4.65126 4.08509 4.87357 4.08509 5.14484H4.48509ZM4.57668 5.23858C4.52748 5.23858 4.48509 5.19798 4.48509 5.14484H4.08509C4.08509 5.41598 4.30367 5.63858 4.57668 5.63858V5.23858ZM7.24088 5.23858H4.57668V5.63858H7.24088V5.23858ZM6.63641 7.40826C7.11255 6.86343 7.39529 6.17496 7.4405 5.45105L7.04127 5.42611C7.00155 6.06226 6.7531 6.66687 6.33522 7.14504L6.63641 7.40826ZM6.5765 7.46609L6.62312 7.42207L6.34851 7.13123L6.30189 7.17525L6.5765 7.46609ZM5.52256 6.25243C5.68809 6.7093 5.95334 7.1232 6.29892 7.46323L6.57946 7.17811C6.27661 6.88012 6.04391 6.51714 5.89863 6.11617L5.52256 6.25243ZM5.40532 6.20196C5.45162 6.184 5.505 6.20664 5.52381 6.25578L5.89739 6.11282C5.80017 5.85877 5.51564 5.73012 5.26065 5.82904L5.40532 6.20196ZM5.35227 6.32441C5.33325 6.27457 5.35845 6.22016 5.40539 6.20193L5.26059 5.82906C5.00654 5.92771 4.88187 6.21369 4.97856 6.46704L5.35227 6.32441ZM6.10285 7.53177C5.77288 7.18692 5.51768 6.77675 5.35325 6.32705L4.97758 6.46441C5.16091 6.9658 5.44554 7.4234 5.81384 7.8083L6.10285 7.53177ZM4.5794 8.17826C5.08906 8.19336 5.59425 8.07984 6.04909 7.84826L5.8676 7.49181C5.47243 7.69301 5.03371 7.79154 4.59125 7.77843L4.5794 8.17826ZM4.49389 8.27208C4.49389 8.21888 4.53635 8.17834 4.58533 8.17834V7.77834C4.3124 7.77834 4.09389 8.00101 4.09389 8.27208H4.49389ZM4.58533 8.36566C4.53621 8.36566 4.49389 8.32515 4.49389 8.27208H4.09389C4.09389 8.54329 4.31254 8.76566 4.58533 8.76566V8.36566ZM6.33707 7.89931C5.81289 8.223 5.20614 8.38514 4.59163 8.36576L4.57903 8.76556C5.27218 8.78742 5.95638 8.60451 6.54724 8.23965L6.33707 7.89931ZM7.82072 8.33414C7.36886 8.29512 6.93295 8.14656 6.5501 7.90111L6.33421 8.23785C6.7715 8.51819 7.26966 8.68804 7.7863 8.73266L7.82072 8.33414ZM7.90441 9.12088C7.90468 8.94309 7.93451 8.76664 7.99254 8.59872L7.61447 8.46808C7.54202 8.67776 7.50475 8.89814 7.50441 9.12027L7.90441 9.12088ZM7.90441 9.55228V9.12058H7.50441V9.55228H7.90441ZM6.66711 9.76979L7.70778 9.75225L7.70104 9.3523L6.66037 9.36985L6.66711 9.76979ZM17.6717 13.5934C17.6724 13.8098 17.6064 14.0209 17.4831 14.1978L17.8113 14.4265C17.9817 14.1821 18.0726 13.8907 18.0717 13.5922L17.6717 13.5934ZM17.672 9.13833L17.6717 13.5928L18.0717 13.5928L18.072 9.13836L17.672 9.13833ZM17.3613 8.38517C17.5595 8.58483 17.6714 8.85579 17.672 9.1388L18.072 9.13788C18.0712 8.75003 17.9178 8.37803 17.6451 8.10337L17.3613 8.38517ZM16.6152 8.07287C16.8949 8.07352 17.1632 8.18561 17.3613 8.38516L17.6452 8.10337C17.3724 7.8286 17.0024 7.67377 16.6161 7.67287L16.6152 8.07287ZM9.544 8.07287H16.6157V7.67287H9.544V8.07287ZM8.79839 8.38517C8.9965 8.1856 9.26478 8.07352 9.54446 8.07287L9.54353 7.67287C9.15725 7.67377 8.78727 7.82861 8.51451 8.10337L8.79839 8.38517ZM8.48761 9.1388C8.48826 8.85578 8.60019 8.58481 8.79838 8.38518L8.51452 8.10336C8.24185 8.37801 8.0885 8.75003 8.08761 9.13788L8.48761 9.1388ZM8.48761 13.6045V9.13834H8.08761V13.6045H8.48761ZM8.79841 14.3565C8.60026 14.1573 8.48826 13.8867 8.48761 13.6041L8.08761 13.605C8.0885 13.9926 8.24209 14.3644 8.51481 14.6386L8.79841 14.3565ZM9.54399 14.6671C9.26471 14.6671 8.99653 14.5556 8.79836 14.3565L8.51485 14.6386C8.78781 14.9129 9.15791 15.0671 9.54399 15.0671V14.6671ZM14.7382 14.6671H9.54399V15.0671H14.7382V14.6671ZM15.1122 14.8405C15.0192 14.7308 14.8826 14.6671 14.7382 14.6671V15.0671C14.7644 15.0671 14.7897 15.0787 14.8072 15.0993L15.1122 14.8405ZM15.2243 15.2391C15.247 15.0958 15.2057 14.95 15.1117 14.84L14.8076 15.0998C14.8256 15.1209 14.8336 15.1489 14.8292 15.1765L15.2243 15.2391ZM14.8139 17.0657C14.9856 16.4657 15.1225 15.8562 15.2241 15.2403L14.8294 15.1752C14.7303 15.776 14.5968 16.3705 14.4293 16.9557L14.8139 17.0657ZM17.4408 14.2755C17.3549 14.4403 17.1967 14.6406 16.9806 14.8646C16.7667 15.0864 16.5049 15.3224 16.2214 15.5588C15.6544 16.0316 15.0098 16.4983 14.5077 16.8463L14.7355 17.1751C15.242 16.8241 15.8975 16.3497 16.4776 15.866C16.7676 15.6242 17.0411 15.3781 17.2685 15.1423C17.4939 14.9086 17.6832 14.6758 17.7955 14.4604L17.4408 14.2755ZM17.4863 14.1934C17.4615 14.2271 17.4421 14.2644 17.4287 14.3038L17.8076 14.4321C17.8078 14.4315 17.8081 14.431 17.8082 14.4309L17.4863 14.1934ZM13.1698 9.14235C13.1739 9.14697 13.1776 9.15252 13.1808 9.15947L13.5447 8.99357C13.5254 8.95124 13.4999 8.91152 13.468 8.87584L13.1698 9.14235ZM13.2203 9.16392C13.172 9.14344 13.1442 9.10503 13.1313 9.07358C13.1254 9.05915 13.1225 9.04622 13.1209 9.0363C13.1201 9.03118 13.1196 9.02637 13.1193 9.02194C13.1192 9.0197 13.1191 9.01752 13.119 9.01539C13.119 9.01433 13.1189 9.01327 13.1189 9.01223C13.1189 9.0117 13.1189 9.01118 13.1189 9.01066C13.1189 9.0104 13.1189 9.01014 13.1189 9.00988C13.1189 9.00975 13.1189 9.00962 13.1189 9.00949C13.1189 9.00943 13.1189 9.00933 13.1189 9.0093C13.1189 9.0092 13.1189 9.0091 13.3189 9.0091C13.5189 9.00909 13.5189 9.00899 13.5189 9.00889C13.5189 9.00886 13.5189 9.00876 13.5189 9.0087C13.5189 9.00857 13.5189 9.00843 13.5189 9.0083C13.5189 9.00804 13.5189 9.00777 13.5189 9.0075C13.5189 9.00696 13.5189 9.00641 13.5189 9.00585C13.5189 9.00472 13.5188 9.00355 13.5188 9.00233C13.5187 8.9999 13.5186 8.99726 13.5184 8.99445C13.518 8.98885 13.5173 8.98237 13.5162 8.97517C13.5141 8.96113 13.5099 8.9425 13.5014 8.92182C13.4834 8.8779 13.4453 8.82484 13.3765 8.79568L13.2203 9.16392ZM13.1565 8.83888L13.1564 8.83904L13.4405 9.12056L13.4407 9.12041L13.1565 8.83888ZM13.1716 9.1353C13.1728 9.13593 13.1758 9.13767 13.1815 9.14182L13.4156 8.81747C13.4008 8.80674 13.3825 8.79453 13.3612 8.78307L13.1716 9.1353ZM13.1149 9.09631C13.1226 9.10024 13.129 9.10468 13.1342 9.10922L13.3987 8.80915C13.3669 8.78113 13.3321 8.75799 13.2958 8.73959L13.1149 9.09631ZM13.1768 9.11713C13.1801 9.11683 13.1838 9.11682 13.1875 9.11715L13.2232 8.71875C13.1958 8.71629 13.1681 8.71628 13.1407 8.71877L13.1768 9.11713ZM13.1112 9.11748C13.1223 9.11671 13.1337 9.11671 13.1451 9.11749L13.1723 8.71841C13.1428 8.7164 13.1132 8.7164 13.0838 8.71842L13.1112 9.11748ZM13.0817 9.12345C13.0919 9.12023 13.1025 9.11817 13.1131 9.11734L13.0818 8.71856C13.041 8.72176 13.0006 8.72962 12.9616 8.7419L13.0817 9.12345ZM12.9896 9.13268H13.0216V8.73268H12.9896V9.13268ZM13.0411 9.13384C13.0502 9.12632 13.0602 9.12015 13.0708 9.11547L12.9085 8.74988C12.8645 8.76938 12.8234 8.79483 12.7864 8.82544L13.0411 9.13384ZM13.0101 9.15671L13.0306 9.14199L12.7969 8.8173L12.7765 8.83203L13.0101 9.15671ZM13.0364 9.14027L13.0598 9.10508L12.7267 8.88365L12.7033 8.91884L13.0364 9.14027ZM12.87 8.82956H12.8699V9.22956H12.87V8.82956ZM13.0048 9.18709C13.0111 9.17552 13.0186 9.16416 13.0273 9.15317L12.7128 8.90594C12.691 8.93371 12.6711 8.96358 12.6537 8.9954L13.0048 9.18709ZM11.2662 13.5698L13.0151 9.16506L12.6434 9.01744L10.8944 13.4221L11.2662 13.5698ZM11.2673 13.6422C11.2574 13.6191 11.2571 13.5929 11.2663 13.5695L10.8943 13.4224C10.8464 13.5438 10.8481 13.6794 10.8995 13.7995L11.2673 13.6422ZM11.3176 13.6918C11.2955 13.683 11.2772 13.6654 11.2673 13.6422L10.8995 13.7995C10.9508 13.9195 11.0477 14.0148 11.1696 14.0634L11.3176 13.6918ZM11.3481 13.6982C11.3391 13.6984 11.3294 13.6966 11.3199 13.6927L11.1673 14.0624C11.2261 14.0867 11.29 14.0993 11.3548 14.0982L11.3481 13.6982ZM11.4364 13.6398C11.4222 13.6758 11.3882 13.6982 11.3517 13.6982L11.3512 14.0982C11.5535 14.0985 11.7343 13.9743 11.8084 13.7868L11.4364 13.6398ZM11.9436 12.3566L11.4364 13.6397L11.8084 13.7868L12.3156 12.5036L11.9436 12.3566ZM14.068 12.2301H12.1296V12.6301H14.068V12.2301ZM14.7639 13.6394L14.2538 12.3562L13.8821 12.504L14.3922 13.7871L14.7639 13.6394ZM14.5782 13.5133H14.5781V13.9133H14.5782V13.5133ZM14.8491 13.6982C14.8124 13.6982 14.7784 13.6757 14.7642 13.6398L14.3922 13.7868C14.4663 13.9743 14.6472 14.0985 14.8496 14.0982L14.8491 13.6982ZM14.8829 13.6919C14.8722 13.6962 14.8612 13.6982 14.8502 13.6982L14.8485 14.0982C14.9113 14.0985 14.9733 14.0866 15.0315 14.0633L14.8829 13.6919ZM14.9335 13.6422C14.9237 13.6653 14.9053 13.683 14.8831 13.6918L15.0313 14.0633C15.1529 14.0148 15.2499 13.9197 15.3013 13.7995L14.9335 13.6422ZM14.9345 13.5698C14.9437 13.593 14.9434 13.6191 14.9335 13.6422L15.3013 13.7995C15.3527 13.6794 15.3545 13.5436 15.3062 13.4221L14.9345 13.5698ZM13.1769 9.15043L14.9345 13.5699L15.3062 13.422L13.5486 9.00261L13.1769 9.15043ZM12.5366 11.9019L13.2742 10.0491L12.9025 9.90117L12.165 11.754L12.5366 11.9019ZM13.8229 11.6279H12.3508V12.0279H13.8229V11.6279ZM12.9024 10.0489L13.637 11.9016L14.0089 11.7542L13.2743 9.90143L12.9024 10.0489Z" fill="#747E8B" mask="url(#path-1-outside-1_4709_35324)"/>
</svg>
