<svg width="19" height="18" viewBox="0 0 19 18" fill="none" xmlns="http://www.w3.org/2000/svg">
<mask id="path-1-outside-1_4083_44785" maskUnits="userSpaceOnUse" x="0.125" y="-0.125" width="19" height="18" fill="black">
<rect fill="white" x="0.125" y="-0.125" width="19" height="18"/>
<path fill-rule="evenodd" clip-rule="evenodd" d="M16.7401 6.16044H11.8752V2.72779C11.8744 2.23673 11.6804 1.76582 11.3356 1.4186C10.9909 1.07123 10.5234 0.875754 10.036 0.875H2.96428C2.4768 0.875775 2.00934 1.07124 1.66466 1.4186C1.31982 1.76582 1.12577 2.23673 1.12502 2.72779V7.18209C1.12318 7.55085 1.23289 7.9114 1.43985 8.21568C2.05232 9.41761 4.76037 11.1659 5.26932 11.4945C5.31992 11.5272 5.34879 11.5458 5.35169 11.5485C5.39723 11.5769 5.44971 11.592 5.50325 11.5925C5.57173 11.5917 5.63774 11.5668 5.68975 11.522C5.7847 11.4405 5.81747 11.307 5.77146 11.1903C5.51526 10.4892 5.3203 9.76716 5.18842 9.03193H7.82938V12.4675C7.83015 12.9584 8.02419 13.4289 8.36901 13.7758C8.714 14.1225 9.18132 14.3174 9.66864 14.3174H14.5162C14.3844 15.0524 14.1894 15.7746 13.9332 16.4755C13.8884 16.5916 13.9212 16.7234 14.0147 16.8045C14.0668 16.8493 14.1329 16.8742 14.2014 16.875C14.2549 16.8745 14.3074 16.8593 14.353 16.831L14.3605 16.8262C14.5351 16.7166 17.6073 14.7883 18.2648 13.4982C18.4716 13.1939 18.5815 12.8333 18.5795 12.4646V8.01305C18.5787 7.52183 18.3847 7.05109 18.04 6.70371C17.6952 6.35649 17.2278 6.16102 16.7402 6.16027L16.7401 6.16044ZM6.78874 8.44482H4.84159C4.75634 8.44482 4.6754 8.48234 4.62001 8.54759C4.564 8.613 4.53953 8.69996 4.55308 8.78537C4.6534 9.39378 4.78866 9.99567 4.95822 10.5883C3.94971 9.90115 2.3611 8.72077 1.96458 7.96027C1.95566 7.93981 1.94489 7.92012 1.93257 7.90152C1.78562 7.69086 1.7073 7.43958 1.70807 7.18212V2.72783C1.70884 2.39239 1.84148 2.07105 2.07691 1.83391C2.31234 1.59659 2.63147 1.46313 2.9643 1.46236H10.036C10.369 1.46313 10.6879 1.59659 10.9234 1.83391C11.1589 2.07107 11.2914 2.3924 11.2922 2.72783V6.16047H9.66865C9.11255 6.16063 8.58643 6.41437 8.23745 6.85058C7.82139 6.85136 7.41128 6.7506 7.0423 6.55684C7.58638 5.93634 7.90676 5.14905 7.9517 4.32227H8.319C8.47996 4.32227 8.6106 4.19083 8.6106 4.02869C8.6106 3.86656 8.47996 3.73511 8.319 3.73511H6.80331V2.80723C6.80331 2.64494 6.67283 2.51349 6.51172 2.51349C6.35077 2.51349 6.22028 2.64494 6.22028 2.80723V3.72626H4.70168C4.54057 3.72626 4.41009 3.85771 4.41009 4.01984C4.41009 4.18198 4.54057 4.31358 4.70168 4.31358H7.36588C7.32342 4.99361 7.05783 5.64015 6.61082 6.15165L6.56419 6.19567C6.23997 5.87666 5.991 5.48822 5.8356 5.0593C5.77758 4.9077 5.60863 4.83206 5.45799 4.8905C5.3075 4.94894 5.23256 5.11913 5.29042 5.27073C5.4643 5.74628 5.73421 6.18016 6.08334 6.54503C5.65834 6.76142 5.18638 6.86745 4.71033 6.85334C4.54938 6.85334 4.41889 6.98494 4.41889 7.14708C4.41889 7.30922 4.54938 7.44066 4.71033 7.44066C5.36416 7.46128 6.00964 7.28876 6.56715 6.94448C6.97723 7.20737 7.44426 7.36658 7.92851 7.4084C7.86327 7.5972 7.82972 7.79561 7.82941 7.99558V8.42728L6.78874 8.44482ZM17.7722 13.1872C17.919 12.9765 17.9975 12.7252 17.9967 12.4678L17.997 8.01334C17.9963 7.67791 17.8636 7.35643 17.6282 7.11927C17.3928 6.88211 17.0737 6.74864 16.7407 6.74787H9.669C9.33601 6.74865 9.01688 6.88211 8.78145 7.11927C8.54602 7.35641 8.41338 7.67791 8.41261 8.01334V12.4795C8.41338 12.8147 8.54617 13.1359 8.78161 13.3725C9.01717 13.6092 9.33631 13.7421 9.66899 13.7421H14.8632C14.9485 13.7421 15.0294 13.7798 15.0847 13.8449C15.1407 13.9104 15.1653 13.9974 15.1517 14.0828C15.0514 14.6911 14.9162 15.2931 14.7466 15.8857C15.7552 15.1867 17.3468 14.0034 17.7432 13.243C17.7499 13.223 17.7598 13.2041 17.7722 13.1872ZM13.4878 7.95152C13.4765 7.92688 13.4619 7.90425 13.4439 7.8841C13.4439 7.8841 13.4439 7.86348 13.4234 7.8548L13.4236 7.85464C13.4133 7.8472 13.4027 7.84023 13.3914 7.83418C13.373 7.81791 13.3523 7.80411 13.3303 7.79295C13.3148 7.79155 13.2991 7.79155 13.2837 7.79295C13.2632 7.79155 13.2428 7.79155 13.2225 7.79295C13.1968 7.79496 13.1712 7.79992 13.1466 7.80768H13.1146C13.0874 7.81977 13.0618 7.83558 13.0387 7.85464L13.0183 7.86937L12.9949 7.90456H12.995C12.9798 7.92393 12.9661 7.94455 12.9543 7.96625L11.2053 12.3709C11.1767 12.4433 11.1778 12.5242 11.2084 12.5959C11.239 12.6675 11.2966 12.7239 11.3686 12.7526C11.4028 12.7667 11.4395 12.7738 11.4765 12.7732C11.5959 12.7733 11.7033 12.7 11.7474 12.5883L12.2546 11.3051H14.193L14.7031 12.5883H14.7032C14.7474 12.7 14.8548 12.7733 14.9743 12.7732C15.0113 12.7733 15.0477 12.7664 15.0822 12.7526C15.1541 12.7239 15.2118 12.6675 15.2424 12.5959C15.273 12.5242 15.2741 12.4433 15.2453 12.3709L13.4878 7.95152ZM13.2134 8.85014L12.4758 10.7029H13.9479L13.2134 8.85014Z"/>
</mask>
<path fill-rule="evenodd" clip-rule="evenodd" d="M16.7401 6.16044H11.8752V2.72779C11.8744 2.23673 11.6804 1.76582 11.3356 1.4186C10.9909 1.07123 10.5234 0.875754 10.036 0.875H2.96428C2.4768 0.875775 2.00934 1.07124 1.66466 1.4186C1.31982 1.76582 1.12577 2.23673 1.12502 2.72779V7.18209C1.12318 7.55085 1.23289 7.9114 1.43985 8.21568C2.05232 9.41761 4.76037 11.1659 5.26932 11.4945C5.31992 11.5272 5.34879 11.5458 5.35169 11.5485C5.39723 11.5769 5.44971 11.592 5.50325 11.5925C5.57173 11.5917 5.63774 11.5668 5.68975 11.522C5.7847 11.4405 5.81747 11.307 5.77146 11.1903C5.51526 10.4892 5.3203 9.76716 5.18842 9.03193H7.82938V12.4675C7.83015 12.9584 8.02419 13.4289 8.36901 13.7758C8.714 14.1225 9.18132 14.3174 9.66864 14.3174H14.5162C14.3844 15.0524 14.1894 15.7746 13.9332 16.4755C13.8884 16.5916 13.9212 16.7234 14.0147 16.8045C14.0668 16.8493 14.1329 16.8742 14.2014 16.875C14.2549 16.8745 14.3074 16.8593 14.353 16.831L14.3605 16.8262C14.5351 16.7166 17.6073 14.7883 18.2648 13.4982C18.4716 13.1939 18.5815 12.8333 18.5795 12.4646V8.01305C18.5787 7.52183 18.3847 7.05109 18.04 6.70371C17.6952 6.35649 17.2278 6.16102 16.7402 6.16027L16.7401 6.16044ZM6.78874 8.44482H4.84159C4.75634 8.44482 4.6754 8.48234 4.62001 8.54759C4.564 8.613 4.53953 8.69996 4.55308 8.78537C4.6534 9.39378 4.78866 9.99567 4.95822 10.5883C3.94971 9.90115 2.3611 8.72077 1.96458 7.96027C1.95566 7.93981 1.94489 7.92012 1.93257 7.90152C1.78562 7.69086 1.7073 7.43958 1.70807 7.18212V2.72783C1.70884 2.39239 1.84148 2.07105 2.07691 1.83391C2.31234 1.59659 2.63147 1.46313 2.9643 1.46236H10.036C10.369 1.46313 10.6879 1.59659 10.9234 1.83391C11.1589 2.07107 11.2914 2.3924 11.2922 2.72783V6.16047H9.66865C9.11255 6.16063 8.58643 6.41437 8.23745 6.85058C7.82139 6.85136 7.41128 6.7506 7.0423 6.55684C7.58638 5.93634 7.90676 5.14905 7.9517 4.32227H8.319C8.47996 4.32227 8.6106 4.19083 8.6106 4.02869C8.6106 3.86656 8.47996 3.73511 8.319 3.73511H6.80331V2.80723C6.80331 2.64494 6.67283 2.51349 6.51172 2.51349C6.35077 2.51349 6.22028 2.64494 6.22028 2.80723V3.72626H4.70168C4.54057 3.72626 4.41009 3.85771 4.41009 4.01984C4.41009 4.18198 4.54057 4.31358 4.70168 4.31358H7.36588C7.32342 4.99361 7.05783 5.64015 6.61082 6.15165L6.56419 6.19567C6.23997 5.87666 5.991 5.48822 5.8356 5.0593C5.77758 4.9077 5.60863 4.83206 5.45799 4.8905C5.3075 4.94894 5.23256 5.11913 5.29042 5.27073C5.4643 5.74628 5.73421 6.18016 6.08334 6.54503C5.65834 6.76142 5.18638 6.86745 4.71033 6.85334C4.54938 6.85334 4.41889 6.98494 4.41889 7.14708C4.41889 7.30922 4.54938 7.44066 4.71033 7.44066C5.36416 7.46128 6.00964 7.28876 6.56715 6.94448C6.97723 7.20737 7.44426 7.36658 7.92851 7.4084C7.86327 7.5972 7.82972 7.79561 7.82941 7.99558V8.42728L6.78874 8.44482ZM17.7722 13.1872C17.919 12.9765 17.9975 12.7252 17.9967 12.4678L17.997 8.01334C17.9963 7.67791 17.8636 7.35643 17.6282 7.11927C17.3928 6.88211 17.0737 6.74864 16.7407 6.74787H9.669C9.33601 6.74865 9.01688 6.88211 8.78145 7.11927C8.54602 7.35641 8.41338 7.67791 8.41261 8.01334V12.4795C8.41338 12.8147 8.54617 13.1359 8.78161 13.3725C9.01717 13.6092 9.33631 13.7421 9.66899 13.7421H14.8632C14.9485 13.7421 15.0294 13.7798 15.0847 13.8449C15.1407 13.9104 15.1653 13.9974 15.1517 14.0828C15.0514 14.6911 14.9162 15.2931 14.7466 15.8857C15.7552 15.1867 17.3468 14.0034 17.7432 13.243C17.7499 13.223 17.7598 13.2041 17.7722 13.1872ZM13.4878 7.95152C13.4765 7.92688 13.4619 7.90425 13.4439 7.8841C13.4439 7.8841 13.4439 7.86348 13.4234 7.8548L13.4236 7.85464C13.4133 7.8472 13.4027 7.84023 13.3914 7.83418C13.373 7.81791 13.3523 7.80411 13.3303 7.79295C13.3148 7.79155 13.2991 7.79155 13.2837 7.79295C13.2632 7.79155 13.2428 7.79155 13.2225 7.79295C13.1968 7.79496 13.1712 7.79992 13.1466 7.80768H13.1146C13.0874 7.81977 13.0618 7.83558 13.0387 7.85464L13.0183 7.86937L12.9949 7.90456H12.995C12.9798 7.92393 12.9661 7.94455 12.9543 7.96625L11.2053 12.3709C11.1767 12.4433 11.1778 12.5242 11.2084 12.5959C11.239 12.6675 11.2966 12.7239 11.3686 12.7526C11.4028 12.7667 11.4395 12.7738 11.4765 12.7732C11.5959 12.7733 11.7033 12.7 11.7474 12.5883L12.2546 11.3051H14.193L14.7031 12.5883H14.7032C14.7474 12.7 14.8548 12.7733 14.9743 12.7732C15.0113 12.7733 15.0477 12.7664 15.0822 12.7526C15.1541 12.7239 15.2118 12.6675 15.2424 12.5959C15.273 12.5242 15.2741 12.4433 15.2453 12.3709L13.4878 7.95152ZM13.2134 8.85014L12.4758 10.7029H13.9479L13.2134 8.85014Z" fill="#747E8B"/>
<path d="M11.8752 6.16044H11.6752V6.36044H11.8752V6.16044ZM16.7401 6.16044V6.36044H16.8653L16.92 6.24786L16.7401 6.16044ZM11.8752 2.72779H12.0752V2.72748L11.8752 2.72779ZM11.3356 1.4186L11.1936 1.55947L11.1937 1.55954L11.3356 1.4186ZM10.036 0.875L10.0363 0.675H10.036V0.875ZM2.96428 0.875V0.675L2.96396 0.675L2.96428 0.875ZM1.66466 1.4186L1.80656 1.55954L1.80662 1.55948L1.66466 1.4186ZM1.12502 2.72779L0.925023 2.72748V2.72779H1.12502ZM1.12502 7.18209L1.32502 7.18309V7.18209H1.12502ZM1.43985 8.21568L1.61805 8.12488L1.61232 8.11364L1.60522 8.1032L1.43985 8.21568ZM5.26932 11.4945L5.37779 11.3265L5.26932 11.4945ZM5.35169 11.5485L5.21634 11.6957L5.23009 11.7084L5.24595 11.7183L5.35169 11.5485ZM5.50325 11.5925L5.50152 11.7925L5.50552 11.7925L5.50325 11.5925ZM5.68975 11.522L5.55945 11.3703L5.55923 11.3704L5.68975 11.522ZM5.77146 11.1903L5.58355 11.2589L5.58539 11.2636L5.77146 11.1903ZM5.18842 9.03193V8.83193H4.94935L4.99156 9.06724L5.18842 9.03193ZM7.82938 9.03193H8.02938V8.83193H7.82938V9.03193ZM7.82938 12.4675H7.62938L7.62938 12.4678L7.82938 12.4675ZM8.36901 13.7758L8.22717 13.9168L8.22723 13.9168L8.36901 13.7758ZM14.5162 14.3174L14.7131 14.3527L14.7553 14.1174H14.5162V14.3174ZM13.9332 16.4755L14.1198 16.5475L14.121 16.5442L13.9332 16.4755ZM14.0147 16.8045L13.8838 16.9556L13.8842 16.956L14.0147 16.8045ZM14.2014 16.875L14.1991 17.075L14.2031 17.075L14.2014 16.875ZM14.353 16.831L14.4587 17.0007L14.4595 17.0002L14.353 16.831ZM14.3605 16.8262L14.2542 16.6569L14.254 16.657L14.3605 16.8262ZM18.2648 13.4982L18.0994 13.3857L18.0923 13.3962L18.0866 13.4074L18.2648 13.4982ZM18.5795 12.4646H18.3795L18.3795 12.4657L18.5795 12.4646ZM18.5795 8.01305H18.7795L18.7795 8.01274L18.5795 8.01305ZM18.04 6.70371L18.182 6.56284L18.1819 6.56278L18.04 6.70371ZM16.7402 6.16027L16.7405 5.96027L16.6151 5.96007L16.5603 6.07284L16.7402 6.16027ZM6.78874 8.44482V8.64485L6.79211 8.64479L6.78874 8.44482ZM4.62001 8.54759L4.77193 8.67768L4.77248 8.67702L4.62001 8.54759ZM4.55308 8.78537L4.35554 8.8167L4.35574 8.81791L4.55308 8.78537ZM4.95822 10.5883L4.84561 10.7536L5.30264 11.065L5.15051 10.5333L4.95822 10.5883ZM1.96458 7.96027L1.78082 8.04042L1.78724 8.05273L1.96458 7.96027ZM1.93257 7.90152L2.09941 7.79112L2.09661 7.78709L1.93257 7.90152ZM1.70807 7.18212L1.90807 7.18272V7.18212H1.70807ZM1.70807 2.72783L1.50807 2.72737V2.72783H1.70807ZM2.07691 1.83391L2.21884 1.97482L2.2189 1.97477L2.07691 1.83391ZM2.9643 1.46236V1.26236L2.96383 1.26236L2.9643 1.46236ZM10.036 1.46236L10.0364 1.26236H10.036V1.46236ZM10.9234 1.83391L10.7814 1.97476L10.7815 1.97486L10.9234 1.83391ZM11.2922 2.72783H11.4922L11.4922 2.72737L11.2922 2.72783ZM11.2922 6.16047V6.36047H11.4922V6.16047H11.2922ZM9.66865 6.16047V5.96047H9.66859L9.66865 6.16047ZM8.23745 6.85058L8.23783 7.05058L8.33372 7.0504L8.39363 6.97552L8.23745 6.85058ZM7.0423 6.55684L6.89192 6.42499L6.72454 6.61588L6.94932 6.73392L7.0423 6.55684ZM7.9517 4.32227V4.12227H7.76228L7.752 4.31142L7.9517 4.32227ZM6.80331 3.73511H6.60331V3.93511H6.80331V3.73511ZM6.22028 3.72626V3.92626H6.42028V3.72626H6.22028ZM7.36588 4.31358L7.5655 4.32605L7.57876 4.11358H7.36588V4.31358ZM6.61082 6.15165L6.74812 6.29707L6.7551 6.29048L6.76141 6.28326L6.61082 6.15165ZM6.56419 6.19567L6.42392 6.33823L6.56133 6.47344L6.7015 6.34109L6.56419 6.19567ZM5.8356 5.0593L6.02366 4.99116L6.02239 4.98782L5.8356 5.0593ZM5.45799 4.8905L5.38565 4.70404L5.38559 4.70406L5.45799 4.8905ZM5.29042 5.27073L5.47827 5.20204L5.47727 5.19941L5.29042 5.27073ZM6.08334 6.54503L6.17409 6.72326L6.41387 6.60118L6.22785 6.40677L6.08334 6.54503ZM4.71033 6.85334L4.71626 6.65334H4.71033V6.85334ZM4.71033 7.44066L4.71663 7.24066H4.71033V7.44066ZM6.56715 6.94448L6.6751 6.77611L6.56915 6.70819L6.46207 6.77431L6.56715 6.94448ZM7.92851 7.4084L8.11754 7.47372L8.20134 7.23122L7.94572 7.20914L7.92851 7.4084ZM7.82941 7.99558L7.62941 7.99527V7.99558H7.82941ZM7.82941 8.42728L7.83278 8.62725L8.02941 8.62393V8.42728H7.82941ZM17.9967 12.4678L17.7967 12.4678L17.7967 12.4684L17.9967 12.4678ZM17.7722 13.1872L17.9332 13.3059L17.9363 13.3015L17.7722 13.1872ZM17.997 8.01334L18.1971 8.01336L18.197 8.01288L17.997 8.01334ZM17.6282 7.11927L17.4863 7.26016L17.4863 7.26017L17.6282 7.11927ZM16.7407 6.74787L16.7411 6.54787H16.7407V6.74787ZM9.669 6.74787V6.54787L9.66853 6.54787L9.669 6.74787ZM8.78145 7.11927L8.92338 7.26018L8.92339 7.26017L8.78145 7.11927ZM8.41261 8.01334L8.21261 8.01288V8.01334H8.41261ZM8.41261 12.4795H8.21261L8.21261 12.48L8.41261 12.4795ZM8.78161 13.3725L8.63981 13.5136L8.63985 13.5136L8.78161 13.3725ZM15.0847 13.8449L14.9322 13.9743L14.9326 13.9748L15.0847 13.8449ZM15.1517 14.0828L15.3491 14.1153L15.3493 14.1141L15.1517 14.0828ZM14.7466 15.8857L14.5543 15.8307L14.4003 16.369L14.8605 16.0501L14.7466 15.8857ZM17.7432 13.243L17.9205 13.3354L17.9276 13.3217L17.9326 13.3071L17.7432 13.243ZM13.4439 7.8841L13.2439 7.8841L13.2439 7.96043L13.2948 8.01735L13.4439 7.8841ZM13.4878 7.95152L13.6738 7.87753L13.6697 7.86857L13.4878 7.95152ZM13.4234 7.8548L13.2814 7.71404L13.0736 7.92368L13.3453 8.03892L13.4234 7.8548ZM13.4236 7.85464L13.5657 7.99541L13.7302 7.82931L13.5406 7.69247L13.4236 7.85464ZM13.3914 7.83418L13.2592 7.98422L13.2764 7.99941L13.2966 8.0103L13.3914 7.83418ZM13.3303 7.79295L13.4208 7.61458L13.3865 7.59719L13.3482 7.59375L13.3303 7.79295ZM13.2837 7.79295L13.2701 7.99249L13.286 7.99357L13.3018 7.99213L13.2837 7.79295ZM13.2225 7.79295L13.2088 7.59341L13.2068 7.59356L13.2225 7.79295ZM13.1466 7.80768V8.00768H13.1773L13.2067 7.99845L13.1466 7.80768ZM13.1146 7.80768V7.60768H13.0722L13.0335 7.62488L13.1146 7.80768ZM13.0387 7.85464L13.1558 8.01735L13.1661 8.00884L13.0387 7.85464ZM13.0183 7.86937L12.9015 7.70703L12.8719 7.72831L12.8517 7.75865L13.0183 7.86937ZM12.9949 7.90456L12.8283 7.79384L12.6218 8.10456H12.9949V7.90456ZM12.995 7.90456L13.1523 8.02817L13.4067 7.70456H12.995V7.90456ZM12.9543 7.96625L12.7787 7.8704L12.7729 7.88111L12.7684 7.89244L12.9543 7.96625ZM11.2053 12.3709L11.0194 12.2971L11.0193 12.2974L11.2053 12.3709ZM11.2084 12.5959L11.0245 12.6745V12.6745L11.2084 12.5959ZM11.3686 12.7526L11.4449 12.5677L11.4426 12.5668L11.3686 12.7526ZM11.4765 12.7732L11.4767 12.5732L11.4731 12.5732L11.4765 12.7732ZM11.7474 12.5883L11.5614 12.5147L11.5614 12.5148L11.7474 12.5883ZM12.2546 11.3051V11.1051H12.1186L12.0686 11.2316L12.2546 11.3051ZM14.193 11.3051L14.3788 11.2312L14.3287 11.1051H14.193V11.3051ZM14.7031 12.5883L14.5172 12.6621L14.5673 12.7883H14.7031V12.5883ZM14.7032 12.5883L14.8892 12.5148L14.8392 12.3883H14.7032V12.5883ZM14.9743 12.7732L14.9752 12.5732L14.9741 12.5732L14.9743 12.7732ZM15.0822 12.7526L15.0081 12.5668L15.0079 12.5669L15.0822 12.7526ZM15.2424 12.5959L15.0585 12.5172L15.0585 12.5172L15.2424 12.5959ZM15.2453 12.3709L15.4312 12.2971L15.4312 12.297L15.2453 12.3709ZM12.4758 10.7029L12.29 10.629L12.1809 10.9029H12.4758V10.7029ZM13.2134 8.85014L13.3993 8.77643L13.2137 8.30844L13.0275 8.77617L13.2134 8.85014ZM13.9479 10.7029V10.9029H14.2424L14.1339 10.6292L13.9479 10.7029ZM11.8752 6.36044H16.7401V5.96044H11.8752V6.36044ZM11.6752 2.72779V6.16044H12.0752V2.72779H11.6752ZM11.1937 1.55954C11.5012 1.8692 11.6745 2.2895 11.6752 2.7281L12.0752 2.72748C12.0744 2.18395 11.8596 1.66244 11.4775 1.27767L11.1937 1.55954ZM10.0356 1.075C10.4697 1.07567 10.8863 1.24972 11.1936 1.55947L11.4775 1.27773C11.0955 0.89274 10.5772 0.675837 10.0363 0.675L10.0356 1.075ZM2.96428 1.075H10.036V0.675H2.96428V1.075ZM1.80662 1.55948C2.11397 1.24973 2.53052 1.07569 2.9646 1.075L2.96396 0.675C2.42308 0.67586 1.9047 0.892745 1.52269 1.27773L1.80662 1.55948ZM1.32502 2.72809C1.32569 2.2895 1.49903 1.8692 1.80656 1.55954L1.52275 1.27767C1.14062 1.66244 0.925852 2.18395 0.925023 2.72748L1.32502 2.72809ZM1.32502 7.18209V2.72779H0.925023V7.18209H1.32502ZM1.60522 8.1032C1.4211 7.8325 1.32338 7.51155 1.32502 7.18309L0.925025 7.18109C0.922977 7.59016 1.04468 7.9903 1.27448 8.32816L1.60522 8.1032ZM5.37779 11.3265C5.12394 11.1626 4.32557 10.6471 3.51532 10.0241C3.11011 9.71246 2.70481 9.37615 2.36439 9.04541C2.02106 8.71186 1.75601 8.39561 1.61805 8.12488L1.26165 8.30649C1.42993 8.63672 1.73306 8.98974 2.08565 9.33231C2.44115 9.67769 2.85952 10.0244 3.27149 10.3412C4.09563 10.9749 4.90575 11.4979 5.16084 11.6625L5.37779 11.3265ZM5.48703 11.4012C5.47971 11.3945 5.47335 11.3897 5.47179 11.3885C5.46912 11.3865 5.46679 11.3848 5.46525 11.3837C5.46213 11.3815 5.45902 11.3794 5.45651 11.3777C5.45132 11.3742 5.44485 11.3699 5.43771 11.3653C5.42328 11.3559 5.4029 11.3427 5.37779 11.3265L5.16084 11.6625C5.18634 11.679 5.20569 11.6915 5.21907 11.7002C5.22584 11.7047 5.23029 11.7076 5.23291 11.7094C5.2343 11.7103 5.23432 11.7103 5.23353 11.7098C5.23316 11.7095 5.23179 11.7085 5.22989 11.7071C5.22909 11.7065 5.2233 11.7021 5.21634 11.6957L5.48703 11.4012ZM5.50499 11.3925C5.48811 11.3924 5.47164 11.3876 5.45742 11.3787L5.24595 11.7183C5.32282 11.7661 5.4113 11.7917 5.50152 11.7925L5.50499 11.3925ZM5.55923 11.3704C5.54286 11.3846 5.52224 11.3923 5.50099 11.3925L5.50552 11.7925C5.62122 11.7912 5.73263 11.749 5.82027 11.6735L5.55923 11.3704ZM5.58539 11.2636C5.60035 11.3016 5.58939 11.3446 5.55945 11.3703L5.82005 11.6737C5.98001 11.5364 6.03458 11.3124 5.95753 11.1169L5.58539 11.2636ZM4.99156 9.06724C5.12547 9.81379 5.32344 10.547 5.58361 11.2589L5.95931 11.1216C5.70708 10.4314 5.51513 9.72052 5.38527 8.99662L4.99156 9.06724ZM7.82938 8.83193H5.18842V9.23193H7.82938V8.83193ZM8.02938 12.4675V9.03193H7.62938V12.4675H8.02938ZM8.51086 13.6348C8.20336 13.3254 8.03007 12.9056 8.02938 12.4672L7.62938 12.4678C7.63023 13.0112 7.84501 13.5323 8.22717 13.9168L8.51086 13.6348ZM9.66864 14.1174C9.2348 14.1174 8.81843 13.9439 8.5108 13.6347L8.22723 13.9168C8.60957 14.3011 9.12784 14.5174 9.66864 14.5174V14.1174ZM14.5162 14.1174H9.66864V14.5174H14.5162V14.1174ZM14.121 16.5442C14.3812 15.8324 14.5792 15.099 14.7131 14.3527L14.3194 14.282C14.1895 15.0058 13.9976 15.7168 13.7453 16.4069L14.121 16.5442ZM14.1457 16.6533C14.1161 16.6277 14.1052 16.5853 14.1198 16.5475L13.7466 16.4036C13.6716 16.598 13.7262 16.8191 13.8838 16.9556L14.1457 16.6533ZM14.2037 16.675C14.1823 16.6748 14.1616 16.667 14.1453 16.6529L13.8842 16.956C13.972 17.0316 14.0835 17.0737 14.1991 17.075L14.2037 16.675ZM14.2472 16.6612C14.233 16.6701 14.2165 16.6749 14.1997 16.675L14.2031 17.075C14.2934 17.0742 14.3818 17.0486 14.4587 17.0007L14.2472 16.6612ZM14.254 16.657L14.2464 16.6617L14.4595 17.0002L14.467 16.9955L14.254 16.657ZM18.0866 13.4074C17.9382 13.6986 17.6433 14.042 17.2642 14.402C16.8886 14.7588 16.444 15.1191 16.0112 15.4452C15.146 16.0971 14.34 16.603 14.2542 16.6569L14.4668 16.9956C14.5556 16.9399 15.373 16.4269 16.2519 15.7647C16.6913 15.4337 17.1489 15.0632 17.5397 14.6921C17.927 14.3242 18.2627 13.9428 18.443 13.589L18.0866 13.4074ZM18.3795 12.4657C18.3813 12.794 18.2834 13.115 18.0994 13.3857L18.4302 13.6106C18.6598 13.2728 18.7817 12.8727 18.7795 12.4635L18.3795 12.4657ZM18.3795 8.01305V12.4646H18.7795V8.01305H18.3795ZM17.898 6.84458C18.2055 7.15443 18.3788 7.57462 18.3795 8.01337L18.7795 8.01274C18.7786 7.46905 18.5639 6.94774 18.182 6.56284L17.898 6.84458ZM16.7399 6.36027C17.1741 6.36094 17.5905 6.53498 17.8981 6.84464L18.1819 6.56278C17.7998 6.17801 17.2816 5.9611 16.7405 5.96027L16.7399 6.36027ZM16.92 6.24786L16.9201 6.24769L16.5603 6.07284L16.5603 6.07301L16.92 6.24786ZM4.84159 8.64482H6.78874V8.24482H4.84159V8.64482ZM4.77248 8.67702C4.79001 8.65637 4.81527 8.64482 4.84159 8.64482V8.24482C4.69741 8.24482 4.5608 8.3083 4.46754 8.41816L4.77248 8.67702ZM4.75061 8.75405C4.74619 8.72621 4.75424 8.69833 4.77193 8.67768L4.4681 8.41751C4.37376 8.52768 4.33287 8.67371 4.35554 8.8167L4.75061 8.75405ZM5.15051 10.5333C4.98306 9.94805 4.84949 9.35366 4.75041 8.75283L4.35574 8.81791C4.45732 9.4339 4.59426 10.0433 4.76594 10.6433L5.15051 10.5333ZM1.78724 8.05273C1.89956 8.26816 2.08874 8.50078 2.31391 8.73402C2.54116 8.9694 2.81436 9.21482 3.10407 9.4556C3.68357 9.93723 4.33852 10.4081 4.84561 10.7536L5.07084 10.423C4.56941 10.0814 3.9258 9.61845 3.35974 9.14798C3.07667 8.91271 2.81534 8.6775 2.60168 8.45619C2.38596 8.23274 2.22786 8.03263 2.14192 7.8678L1.78724 8.05273ZM1.76579 8.01189C1.77192 8.02116 1.7771 8.03069 1.78126 8.04023L2.1479 7.88031C2.13421 7.84892 2.11785 7.81909 2.09936 7.79115L1.76579 8.01189ZM1.50807 7.18152C1.50718 7.47993 1.59796 7.77141 1.76854 8.01595L2.09661 7.78709C1.97329 7.61032 1.90742 7.39923 1.90807 7.18272L1.50807 7.18152ZM1.50807 2.72783V7.18212H1.90807V2.72783H1.50807ZM1.93498 1.693C1.66233 1.96763 1.50896 2.33949 1.50807 2.72737L1.90807 2.72829C1.90872 2.44529 2.02063 2.17447 2.21884 1.97482L1.93498 1.693ZM2.96383 1.26236C2.57769 1.26326 2.20768 1.41811 1.93493 1.69306L2.2189 1.97477C2.417 1.77507 2.68526 1.66301 2.96476 1.66236L2.96383 1.26236ZM10.036 1.26236H2.9643V1.66236H10.036V1.26236ZM11.0653 1.69306C10.7926 1.41812 10.4227 1.26326 10.0364 1.26236L10.0355 1.66236C10.3152 1.66301 10.5833 1.77507 10.7814 1.97476L11.0653 1.69306ZM11.4922 2.72737C11.4913 2.33955 11.3381 1.96767 11.0652 1.69296L10.7815 1.97486C10.9798 2.17448 11.0915 2.44524 11.0922 2.72828L11.4922 2.72737ZM11.4922 6.16047V2.72783H11.0922V6.16047H11.4922ZM9.66865 6.36047H11.2922V5.96047H9.66865V6.36047ZM8.39363 6.97552C8.70487 6.58647 9.17369 6.36061 9.6687 6.36047L9.66859 5.96047C9.05141 5.96064 8.46798 6.24228 8.08128 6.72564L8.39363 6.97552ZM6.94932 6.73392C7.34706 6.94278 7.78921 7.05142 8.23783 7.05058L8.23708 6.65058C7.85358 6.6513 7.47551 6.55843 7.13528 6.37977L6.94932 6.73392ZM7.752 4.31142C7.70947 5.09364 7.40637 5.83828 6.89192 6.42499L7.19268 6.6887C7.7664 6.0344 8.10404 5.20445 8.15141 4.33313L7.752 4.31142ZM8.319 4.12227H7.9517V4.52227H8.319V4.12227ZM8.4106 4.02869C8.4106 4.08162 8.36826 4.12227 8.319 4.12227V4.52227C8.59166 4.52227 8.8106 4.30004 8.8106 4.02869H8.4106ZM8.319 3.93511C8.36826 3.93511 8.4106 3.97576 8.4106 4.02869H8.8106C8.8106 3.75735 8.59166 3.53511 8.319 3.53511V3.93511ZM6.80331 3.93511H8.319V3.53511H6.80331V3.93511ZM6.60331 2.80723V3.73511H7.00331V2.80723H6.60331ZM6.51172 2.71349C6.56099 2.71349 6.60331 2.75401 6.60331 2.80723H7.00331C7.00331 2.53586 6.78466 2.31349 6.51172 2.31349V2.71349ZM6.42028 2.80723C6.42028 2.75394 6.46267 2.71349 6.51172 2.71349V2.31349C6.23886 2.31349 6.02028 2.53593 6.02028 2.80723H6.42028ZM6.42028 3.72626V2.80723H6.02028V3.72626H6.42028ZM4.70168 3.92626H6.22028V3.52626H4.70168V3.92626ZM4.61009 4.01984C4.61009 3.96685 4.65234 3.92626 4.70168 3.92626V3.52626C4.4288 3.52626 4.21009 3.74857 4.21009 4.01984H4.61009ZM4.70168 4.11358C4.65248 4.11358 4.61009 4.07298 4.61009 4.01984H4.21009C4.21009 4.29098 4.42867 4.51358 4.70168 4.51358V4.11358ZM7.36588 4.11358H4.70168V4.51358H7.36588V4.11358ZM6.76141 6.28326C7.23755 5.73843 7.52029 5.04996 7.5655 4.32605L7.16627 4.30111C7.12655 4.93726 6.8781 5.54187 6.46022 6.02004L6.76141 6.28326ZM6.7015 6.34109L6.74812 6.29707L6.47351 6.00623L6.42689 6.05025L6.7015 6.34109ZM5.64756 5.12743C5.81309 5.5843 6.07834 5.9982 6.42392 6.33823L6.70446 6.05311C6.40161 5.75512 6.16891 5.39214 6.02363 4.99117L5.64756 5.12743ZM5.53032 5.07696C5.57662 5.059 5.63 5.08164 5.64881 5.13078L6.02239 4.98782C5.92517 4.73377 5.64064 4.60512 5.38565 4.70404L5.53032 5.07696ZM5.47727 5.19941C5.45825 5.14957 5.48345 5.09516 5.53039 5.07693L5.38559 4.70406C5.13154 4.80271 5.00687 5.0887 5.10356 5.34204L5.47727 5.19941ZM6.22785 6.40677C5.89788 6.06192 5.64268 5.65175 5.47825 5.20205L5.10258 5.33941C5.28591 5.8408 5.57054 6.2984 5.93884 6.6833L6.22785 6.40677ZM4.7044 7.05326C5.21406 7.06836 5.71925 6.95484 6.17409 6.72326L5.9926 6.36681C5.59743 6.56801 5.15871 6.66654 4.71625 6.65343L4.7044 7.05326ZM4.61889 7.14708C4.61889 7.09388 4.66135 7.05334 4.71033 7.05334V6.65334C4.4374 6.65334 4.21889 6.87601 4.21889 7.14708H4.61889ZM4.71033 7.24066C4.66121 7.24066 4.61889 7.20015 4.61889 7.14708H4.21889C4.21889 7.41829 4.43754 7.64066 4.71033 7.64066V7.24066ZM6.46207 6.77431C5.93789 7.098 5.33114 7.26014 4.71663 7.24076L4.70403 7.64056C5.39718 7.66242 6.08138 7.47951 6.67224 7.11465L6.46207 6.77431ZM7.94572 7.20914C7.49386 7.17012 7.05795 7.02156 6.6751 6.77611L6.45921 7.11285C6.8965 7.39319 7.39466 7.56304 7.9113 7.60766L7.94572 7.20914ZM8.02941 7.99588C8.02968 7.81809 8.05951 7.64164 8.11754 7.47372L7.73947 7.34308C7.66702 7.55276 7.62975 7.77314 7.62941 7.99527L8.02941 7.99588ZM8.02941 8.42728V7.99558H7.62941V8.42728H8.02941ZM6.79211 8.64479L7.83278 8.62725L7.82604 8.2273L6.78537 8.24485L6.79211 8.64479ZM17.7967 12.4684C17.7974 12.6848 17.7314 12.8959 17.6081 13.0728L17.9363 13.3015C18.1067 13.0571 18.1976 12.7657 18.1967 12.4672L17.7967 12.4684ZM17.797 8.01333L17.7967 12.4678L18.1967 12.4678L18.197 8.01336L17.797 8.01333ZM17.4863 7.26017C17.6845 7.45983 17.7964 7.73079 17.7971 8.0138L18.197 8.01288C18.1962 7.62503 18.0428 7.25303 17.7701 6.97837L17.4863 7.26017ZM16.7402 6.94787C17.0199 6.94852 17.2882 7.06061 17.4863 7.26016L17.7702 6.97837C17.4974 6.70361 17.1274 6.54877 16.7411 6.54787L16.7402 6.94787ZM9.669 6.94787H16.7407V6.54787H9.669V6.94787ZM8.92339 7.26017C9.1215 7.0606 9.38978 6.94852 9.66946 6.94787L9.66853 6.54787C9.28225 6.54877 8.91227 6.70361 8.63951 6.97837L8.92339 7.26017ZM8.61261 8.0138C8.61326 7.73078 8.72519 7.45981 8.92338 7.26018L8.63952 6.97836C8.36685 7.25301 8.2135 7.62503 8.21261 8.01288L8.61261 8.0138ZM8.61261 12.4795V8.01334H8.21261V12.4795H8.61261ZM8.92341 13.2315C8.72526 13.0323 8.61326 12.7617 8.61261 12.4791L8.21261 12.48C8.2135 12.8676 8.36709 13.2394 8.63981 13.5136L8.92341 13.2315ZM9.66899 13.5421C9.38971 13.5421 9.12153 13.4306 8.92337 13.2315L8.63985 13.5136C8.91281 13.7879 9.28291 13.9421 9.66899 13.9421V13.5421ZM14.8632 13.5421H9.66899V13.9421H14.8632V13.5421ZM15.2372 13.7155C15.1442 13.6058 15.0076 13.5421 14.8632 13.5421V13.9421C14.8894 13.9421 14.9147 13.9537 14.9322 13.9743L15.2372 13.7155ZM15.3493 14.1141C15.372 13.9708 15.3307 13.825 15.2367 13.715L14.9326 13.9748C14.9506 13.9959 14.9586 14.0239 14.9542 14.0515L15.3493 14.1141ZM14.9389 15.9407C15.1106 15.3407 15.2475 14.7312 15.3491 14.1153L14.9544 14.0502C14.8553 14.651 14.7218 15.2455 14.5543 15.8307L14.9389 15.9407ZM17.5658 13.1505C17.4799 13.3153 17.3217 13.5156 17.1056 13.7396C16.8917 13.9614 16.6299 14.1974 16.3464 14.4338C15.7794 14.9066 15.1348 15.3733 14.6327 15.7213L14.8605 16.0501C15.367 15.6991 16.0225 15.2247 16.6026 14.741C16.8926 14.4992 17.1661 14.2531 17.3935 14.0173C17.6189 13.7836 17.8082 13.5508 17.9205 13.3354L17.5658 13.1505ZM17.6113 13.0684C17.5865 13.1021 17.5671 13.1394 17.5537 13.1788L17.9326 13.3071C17.9328 13.3065 17.9331 13.306 17.9332 13.3059L17.6113 13.0684ZM13.2948 8.01735C13.2989 8.02197 13.3026 8.02752 13.3058 8.03447L13.6697 7.86857C13.6504 7.82624 13.6249 7.78652 13.593 7.75084L13.2948 8.01735ZM13.3453 8.03892C13.297 8.01844 13.2692 7.98003 13.2563 7.94858C13.2504 7.93415 13.2475 7.92122 13.2459 7.9113C13.2451 7.90618 13.2446 7.90137 13.2443 7.89694C13.2442 7.8947 13.2441 7.89252 13.244 7.89039C13.244 7.88933 13.2439 7.88827 13.2439 7.88723C13.2439 7.8867 13.2439 7.88618 13.2439 7.88566C13.2439 7.8854 13.2439 7.88514 13.2439 7.88488C13.2439 7.88475 13.2439 7.88462 13.2439 7.88449C13.2439 7.88443 13.2439 7.88433 13.2439 7.8843C13.2439 7.8842 13.2439 7.8841 13.4439 7.8841C13.6439 7.88409 13.6439 7.88399 13.6439 7.88389C13.6439 7.88386 13.6439 7.88376 13.6439 7.8837C13.6439 7.88357 13.6439 7.88343 13.6439 7.8833C13.6439 7.88304 13.6439 7.88277 13.6439 7.8825C13.6439 7.88196 13.6439 7.88141 13.6439 7.88085C13.6439 7.87972 13.6438 7.87855 13.6438 7.87733C13.6437 7.8749 13.6436 7.87226 13.6434 7.86945C13.643 7.86385 13.6423 7.85737 13.6412 7.85017C13.6391 7.83613 13.6349 7.8175 13.6264 7.79682C13.6084 7.7529 13.5703 7.69984 13.5015 7.67068L13.3453 8.03892ZM13.2815 7.71388L13.2814 7.71404L13.5655 7.99556L13.5657 7.99541L13.2815 7.71388ZM13.2966 8.0103C13.2978 8.01093 13.3008 8.01267 13.3065 8.01682L13.5406 7.69247C13.5258 7.68174 13.5075 7.66953 13.4862 7.65807L13.2966 8.0103ZM13.2399 7.97131C13.2476 7.97524 13.254 7.97968 13.2592 7.98422L13.5237 7.68415C13.4919 7.65613 13.4571 7.63299 13.4208 7.61458L13.2399 7.97131ZM13.3018 7.99213C13.3051 7.99183 13.3088 7.99182 13.3125 7.99215L13.3482 7.59375C13.3208 7.59129 13.2931 7.59128 13.2657 7.59377L13.3018 7.99213ZM13.2362 7.99248C13.2473 7.99171 13.2587 7.99171 13.2701 7.99249L13.2973 7.59341C13.2678 7.5914 13.2382 7.5914 13.2088 7.59342L13.2362 7.99248ZM13.2067 7.99845C13.2169 7.99523 13.2275 7.99317 13.2381 7.99234L13.2068 7.59356C13.166 7.59676 13.1256 7.60462 13.0866 7.6169L13.2067 7.99845ZM13.1146 8.00768H13.1466V7.60768H13.1146V8.00768ZM13.1661 8.00884C13.1752 8.00132 13.1852 7.99515 13.1958 7.99047L13.0335 7.62488C12.9895 7.64438 12.9484 7.66983 12.9114 7.70044L13.1661 8.00884ZM13.1351 8.03171L13.1556 8.01699L12.9219 7.6923L12.9015 7.70703L13.1351 8.03171ZM13.1614 8.01527L13.1848 7.98008L12.8517 7.75865L12.8283 7.79384L13.1614 8.01527ZM12.995 7.70456H12.9949V8.10456H12.995V7.70456ZM13.1298 8.06209C13.1361 8.05052 13.1436 8.03916 13.1523 8.02817L12.8378 7.78094C12.816 7.80871 12.7961 7.83858 12.7787 7.8704L13.1298 8.06209ZM11.3912 12.4448L13.1401 8.04006L12.7684 7.89244L11.0194 12.2971L11.3912 12.4448ZM11.3923 12.5172C11.3824 12.4941 11.3821 12.4679 11.3913 12.4445L11.0193 12.2974C10.9714 12.4188 10.9731 12.5544 11.0245 12.6745L11.3923 12.5172ZM11.4426 12.5668C11.4205 12.558 11.4022 12.5404 11.3923 12.5172L11.0245 12.6745C11.0758 12.7945 11.1727 12.8898 11.2946 12.9384L11.4426 12.5668ZM11.4731 12.5732C11.4641 12.5734 11.4544 12.5716 11.4449 12.5677L11.2923 12.9374C11.3511 12.9617 11.415 12.9742 11.4798 12.9732L11.4731 12.5732ZM11.5614 12.5148C11.5472 12.5508 11.5132 12.5732 11.4767 12.5732L11.4762 12.9732C11.6785 12.9735 11.8593 12.8493 11.9334 12.6618L11.5614 12.5148ZM12.0686 11.2316L11.5614 12.5147L11.9334 12.6618L12.4406 11.3786L12.0686 11.2316ZM14.193 11.1051H12.2546V11.5051H14.193V11.1051ZM14.8889 12.5144L14.3788 11.2312L14.0071 11.379L14.5172 12.6621L14.8889 12.5144ZM14.7032 12.3883H14.7031V12.7883H14.7032V12.3883ZM14.9741 12.5732C14.9374 12.5732 14.9034 12.5507 14.8892 12.5148L14.5172 12.6618C14.5913 12.8493 14.7722 12.9735 14.9746 12.9732L14.9741 12.5732ZM15.0079 12.5669C14.9972 12.5712 14.9862 12.5732 14.9752 12.5732L14.9735 12.9732C15.0363 12.9735 15.0983 12.9616 15.1565 12.9383L15.0079 12.5669ZM15.0585 12.5172C15.0487 12.5403 15.0303 12.558 15.0081 12.5668L15.1563 12.9383C15.2779 12.8898 15.3749 12.7947 15.4263 12.6745L15.0585 12.5172ZM15.0595 12.4448C15.0687 12.468 15.0684 12.4941 15.0585 12.5172L15.4263 12.6745C15.4777 12.5544 15.4795 12.4186 15.4312 12.2971L15.0595 12.4448ZM13.3019 8.02543L15.0595 12.4449L15.4312 12.297L13.6736 7.87761L13.3019 8.02543ZM12.6616 10.7769L13.3992 8.92411L13.0275 8.77617L12.29 10.629L12.6616 10.7769ZM13.9479 10.5029H12.4758V10.9029H13.9479V10.5029ZM13.0274 8.92385L13.762 10.7766L14.1339 10.6292L13.3993 8.77643L13.0274 8.92385Z" fill="#747E8B" mask="url(#path-1-outside-1_4083_44785)"/>
</svg>
