<svg width="860" height="173" viewBox="0 0 860 173" fill="none" xmlns="http://www.w3.org/2000/svg">
<g clip-path="url(#clip0_188_285)">
<mask id="mask0_188_285" style="mask-type:luminance" maskUnits="userSpaceOnUse" x="-84" y="0" width="1028" height="191">
<rect width="1028" height="191" transform="matrix(1 0 0 -1 -84 191)" fill="white"/>
</mask>
<g mask="url(#mask0_188_285)">
<rect width="1028" height="191" transform="matrix(1 0 0 -1 -84 191)" fill="url(#paint0_linear_188_285)"/>
<rect opacity="0.3" width="112.964" height="645.508" transform="matrix(-0.818383 -0.574673 0.818383 -0.574673 34.9509 262.829)" fill="white"/>
<rect opacity="0.3" width="112.964" height="645.508" transform="matrix(-0.818383 -0.574673 0.818383 -0.574673 504.951 262.829)" fill="white"/>
</g>
<rect width="1028" height="191" transform="matrix(-1 0 0 1 944 0)" fill="url(#paint1_linear_188_285)"/>
</g>
<defs>
<linearGradient id="paint0_linear_188_285" x1="965.946" y1="47.0564" x2="965.417" y2="-141.307" gradientUnits="userSpaceOnUse">
<stop stop-color="#FFEBEA"/>
<stop offset="1" stop-color="#FFEBEA"/>
</linearGradient>
<linearGradient id="paint1_linear_188_285" x1="223.587" y1="19.3434" x2="223.587" y2="120.302" gradientUnits="userSpaceOnUse">
<stop stop-color="white" stop-opacity="0.01"/>
<stop offset="1" stop-color="white"/>
</linearGradient>
<clipPath id="clip0_188_285">
<rect width="860" height="173" fill="white" transform="matrix(-1 0 0 -1 860 173)"/>
</clipPath>
</defs>
</svg>
