<svg width="860" height="173" viewBox="0 0 860 173" fill="none" xmlns="http://www.w3.org/2000/svg">
<g clip-path="url(#clip0_201_329)">
<rect width="1028" height="191" transform="matrix(1 0 0 -1 -84 191)" fill="url(#paint0_linear_201_329)"/>
<mask id="mask0_201_329" style="mask-type:luminance" maskUnits="userSpaceOnUse" x="-84" y="0" width="1028" height="191">
<rect width="1028" height="191" transform="matrix(1 0 0 -1 -84 191)" fill="white"/>
</mask>
<g mask="url(#mask0_201_329)">
<rect width="1028" height="191" transform="matrix(1 0 0 -1 -84 191)" fill="#64110E"/>
<rect opacity="0.1" width="112.964" height="645.508" transform="matrix(-0.818383 -0.574673 0.818383 -0.574673 34.9509 262.829)" fill="white" fill-opacity="0.49"/>
<rect opacity="0.1" width="112.964" height="645.508" transform="matrix(-0.818383 -0.574673 0.818383 -0.574673 504.951 262.829)" fill="white" fill-opacity="0.49"/>
</g>
<rect width="1028" height="191" transform="matrix(-1 0 0 1 944 0)" fill="url(#paint1_linear_201_329)"/>
</g>
<defs>
<linearGradient id="paint0_linear_201_329" x1="809.55" y1="168" x2="436.931" y2="120.023" gradientUnits="userSpaceOnUse">
<stop stop-color="#B4201B"/>
<stop offset="0.498511" stop-color="#E2E8FF"/>
<stop offset="1" stop-color="#FFEBEA"/>
</linearGradient>
<linearGradient id="paint1_linear_201_329" x1="211.311" y1="-240" x2="213.238" y2="128.572" gradientUnits="userSpaceOnUse">
<stop stop-color="#2A394E" stop-opacity="0"/>
<stop offset="1" stop-color="#2A394E"/>
</linearGradient>
<clipPath id="clip0_201_329">
<rect width="860" height="173" fill="white" transform="matrix(-1 0 0 -1 860 173)"/>
</clipPath>
</defs>
</svg>
