<svg width="88" height="26" fill="none" xmlns="http://www.w3.org/2000/svg"><path fill-rule="evenodd" clip-rule="evenodd" d="M14.203 0v24.85l-3.207-5.451v-7.936H6.567L4.43 7.856h6.567V4.729h-8.4L0 0h14.203Zm15.35 0-2.597 4.73h-8.4v3.126h6.49l-2.06 3.607h-4.43v7.936l-3.207 5.45V0h14.203Z" fill="#fff"/><path d="M36.265 19.328V13.2h4.417v-2.305h-4.417V7.18h5.764V4.832h-8.537v14.496h2.773Zm14.348 0V14.28l4.55-9.449h-3.007l-2.874 6.625-2.892-6.625h-3.047l4.57 9.45v5.046h2.7Zm13.088 0v-2.364h-5.156v-3.837h4.572v-2.302h-4.572V7.196H63.7V4.832h-7.88v14.496h7.88Zm5.445 0v-5.649h1.329l3.1 5.649h3.26l-3.361-5.877c1.06-.291 1.858-.82 2.395-1.59a4.41 4.41 0 0 0 .805-2.585c0-.83-.19-1.582-.573-2.253-.383-.671-.956-1.205-1.721-1.6-.765-.394-1.691-.591-2.778-.591h-5.274v14.496h2.818Zm2.47-8.284h-2.004V6.903h2.004c.651 0 1.136.178 1.456.535.32.357.48.859.48 1.505 0 .66-.16 1.175-.48 1.546-.32.37-.805.555-1.456.555Zm11.575 8.284c1 0 1.862-.193 2.59-.578.726-.385 1.278-.902 1.654-1.551A4.13 4.13 0 0 0 88 15.09c0-.878-.201-1.588-.604-2.128a3.916 3.916 0 0 0-1.44-1.217c-.559-.27-1.279-.54-2.161-.81a15.73 15.73 0 0 1-1.51-.538 2.74 2.74 0 0 1-.895-.608c-.24-.25-.36-.564-.36-.943 0-.54.16-.953.477-1.236.318-.284.743-.426 1.275-.426.61 0 1.1.159 1.47.476.37.318.568.72.594 1.207h2.998c-.09-1.271-.574-2.261-1.45-2.97-.877-.71-2.015-1.065-3.417-1.065-.934 0-1.765.166-2.492.497-.727.33-1.291.807-1.694 1.429-.402.622-.603 1.352-.603 2.19 0 .892.198 1.605.594 2.138.395.534.87.933 1.42 1.197.552.263 1.27.53 2.152.8.649.19 1.158.362 1.528.517.37.156.678.369.925.639.246.27.37.615.37 1.034 0 .514-.182.93-.545 1.247-.364.317-.863.476-1.5.476-.622 0-1.112-.169-1.47-.507-.356-.338-.554-.797-.593-1.378h-2.92c.013.865.24 1.615.681 2.25.442.635 1.042 1.122 1.801 1.46.76.338 1.613.507 2.56.507Z" fill="#fff"/></svg>