<svg width="125" height="34" xmlns="http://www.w3.org/2000/svg"><g fill="none" fill-rule="evenodd"><path d="M20.175 0v33.582l-4.555-7.366V15.49H9.328l-3.037-4.875h9.329V6.391H3.688L0 0h20.175Zm21.803 0L38.29 6.391H26.358v4.225h9.22l-2.929 4.875h-6.291v10.725l-4.556 7.366V0h20.176Z" fill="#436AF5"/><path d="M51.514 26.12v-8.28h6.274v-3.115h-6.274V9.7H59.7V6.53H47.575v19.59h3.939Zm20.38 0V19.3l6.464-12.77h-4.273l-4.081 8.953-4.109-8.953h-4.328L68.06 19.3v6.82h3.835Zm18.591 0v-3.195h-7.324V17.74h6.495v-3.11H83.16V9.724h7.324V6.53H79.291v19.59h11.194Zm7.734 0v-7.634h1.888l4.403 7.633h4.632l-4.775-7.942c1.506-.393 2.64-1.109 3.402-2.147a5.76 5.76 0 0 0 1.144-3.494c0-1.123-.272-2.138-.815-3.045-.543-.908-1.358-1.628-2.445-2.161-1.086-.534-2.401-.8-3.945-.8h-7.492v19.59h4.003Zm3.509-11.195H98.88V9.328h2.847c.924 0 1.614.242 2.068.724.454.482.682 1.16.682 2.034 0 .892-.228 1.588-.682 2.089-.454.5-1.144.75-2.068.75ZM118.17 26.12c1.42 0 2.645-.26 3.678-.78 1.032-.521 1.815-1.22 2.35-2.096a5.374 5.374 0 0 0 .802-2.85c0-1.187-.286-2.146-.857-2.877a5.503 5.503 0 0 0-2.047-1.643c-.792-.366-1.815-.731-3.07-1.096-.92-.274-1.635-.516-2.142-.726a3.905 3.905 0 0 1-1.272-.822c-.341-.338-.512-.763-.512-1.274 0-.731.226-1.288.678-1.672.451-.383 1.055-.575 1.81-.575.867 0 1.563.215 2.089.644.525.43.806.972.843 1.63h4.259c-.13-1.717-.816-3.055-2.06-4.014-1.245-.959-2.863-1.438-4.854-1.438-1.327 0-2.507.224-3.54.671-1.032.448-1.833 1.091-2.405 1.932-.571.84-.857 1.826-.857 2.959 0 1.205.28 2.169.843 2.89a5.343 5.343 0 0 0 2.019 1.617c.783.356 1.802.717 3.056 1.082.921.256 1.645.488 2.17.698.526.21.964.498 1.314.864.35.365.525.83.525 1.397 0 .694-.258 1.256-.774 1.685-.516.429-1.226.644-2.13.644-.884 0-1.58-.229-2.087-.685-.507-.457-.788-1.078-.844-1.863h-4.148c.019 1.169.342 2.182.968 3.04.627.86 1.48 1.517 2.558 1.973 1.079.457 2.29.685 3.637.685Z" fill="#6A7582" fill-rule="nonzero"/></g></svg>