<svg width="16" height="16" fill="none" xmlns="http://www.w3.org/2000/svg"><path fill-rule="evenodd" clip-rule="evenodd" d="M7.647 11.347a.5.5 0 0 1 0-.747A3.466 3.466 0 0 0 8.814 8c0-1-.427-1.947-1.167-2.6a.5.5 0 0 1 0-.747 4.455 4.455 0 0 1 3-1.153c2.48 0 4.5 2.02 4.5 4.5s-2.013 4.5-4.5 4.5a4.475 4.475 0 0 1-3-1.153Zm3.007.153c1.927 0 3.5-1.573 3.5-3.5s-1.573-3.5-3.5-3.5c-.687 0-1.354.2-1.92.573a4.487 4.487 0 0 1 0 5.854 3.471 3.471 0 0 0 1.92.573Z" fill="#6A7483"/><path fill-rule="evenodd" clip-rule="evenodd" d="M.813 8c0-2.48 2.02-4.5 4.5-4.5 1.113 0 2.18.413 3 1.153A4.48 4.48 0 0 1 9.813 8c0 1.287-.547 2.5-1.5 3.347a4.475 4.475 0 0 1-3 1.153c-2.48 0-4.5-2.02-4.5-4.5Zm1 0c0 1.927 1.573 3.5 3.5 3.5.866 0 1.693-.32 2.333-.9A3.464 3.464 0 0 0 8.813 8c0-.993-.427-1.947-1.167-2.6-.64-.58-1.467-.9-2.333-.9a3.508 3.508 0 0 0-3.5 3.5Z" fill="#6A7483"/><path d="m3.5 2.5 1.5 2 1.5-2h-3Z" fill="#6A7483"/></svg>