<svg width="16" height="16" viewBox="0 0 16 16" fill="none" xmlns="http://www.w3.org/2000/svg">
<path fill-rule="evenodd" clip-rule="evenodd" d="M0.833496 8.00033C0.833496 11.9537 4.04683 15.167 8.00016 15.167C11.9535 15.167 15.1668 11.9537 15.1668 8.00033C15.1668 4.04699 11.9535 0.833658 8.00016 0.833658C4.04683 0.833658 0.833496 4.04699 0.833496 8.00033ZM1.8335 8.00033C1.8335 4.60033 4.60016 1.83366 8.00016 1.83366C11.4002 1.83366 14.1668 4.60033 14.1668 8.00033C14.1668 11.4003 11.4002 14.167 8.00016 14.167C4.60016 14.167 1.8335 11.4003 1.8335 8.00033Z" fill="#00A3A3"/>
<path d="M7.5 7.33366V10.667C7.5 10.9403 7.72667 11.167 8 11.167C8.27333 11.167 8.5 10.9403 8.5 10.667V7.33366C8.5 7.06033 8.27333 6.83366 8 6.83366C7.72667 6.83366 7.5 7.06033 7.5 7.33366Z" fill="#00A3A3"/>
<path d="M7.74683 4.7204C7.66683 4.75374 7.5935 4.8004 7.52683 4.8604C7.46683 4.92707 7.42016 4.99374 7.38683 5.0804C7.3535 5.1604 7.3335 5.24707 7.3335 5.33374C7.3335 5.4204 7.3535 5.50707 7.38683 5.58707C7.42016 5.66707 7.46683 5.7404 7.52683 5.80707C7.5935 5.86707 7.66683 5.91374 7.74683 5.94707C7.90683 6.01374 8.0935 6.01374 8.2535 5.94707C8.3335 5.91374 8.40683 5.86707 8.4735 5.80707C8.5335 5.7404 8.58016 5.66707 8.6135 5.58707C8.64683 5.50707 8.66683 5.4204 8.66683 5.33374C8.66683 5.24707 8.64683 5.1604 8.6135 5.0804C8.58016 4.99374 8.5335 4.92707 8.4735 4.8604C8.40683 4.8004 8.3335 4.75374 8.2535 4.7204C8.1735 4.68707 8.08683 4.66707 8.00016 4.66707C7.9135 4.66707 7.82683 4.68707 7.74683 4.7204Z" fill="#00A3A3"/>
</svg>
