<svg width="64" height="64" viewBox="0 0 64 64" fill="none" xmlns="http://www.w3.org/2000/svg">
<path d="M0 12C0 5.37258 5.37258 0 12 0H52C58.6274 0 64 5.37258 64 12V52C64 58.6274 58.6274 64 52 64H12C5.37258 64 0 58.6274 0 52V12Z" fill="url(#paint0_linear_298_27212)"/>
<path d="M14.7016 39.956C14.7016 38.721 16.0588 37.2213 16.4736 36.0298C17.3616 33.4787 17.9376 30.2648 17.5893 27.5507C17.5329 27.1113 17.1035 25.1974 16.4736 26.4289C15.4935 28.3449 14.9923 30.6916 14.4719 32.7635C13.8787 35.1254 13.6809 38.315 14.8657 40.5169C15.8102 42.2724 16.5595 40.052 17.0642 39.0652C17.4035 38.4019 18.2791 35.7647 19.1972 35.7989C20.3347 35.8413 21.9276 37.3612 22.8068 38.0094C25.6481 40.1044 24.8237 30.4989 27.8602 32.8625C28.7147 33.5277 29.8089 34.8164 31.0432 34.4792C32.1614 34.1737 32.4305 32.8534 33.1597 32.1202C33.997 31.2783 35.9482 31.5901 36.999 31.6583C39.2417 31.8038 40.6855 32.2285 42.6103 30.718C43.7702 29.8078 45.3124 27.6777 46.8926 27.5012C48.4153 27.3311 49.9276 27.6174 50.7319 26" stroke="#A1B5FA" stroke-width="2.39556" stroke-linecap="round"/>
<defs>
<linearGradient id="paint0_linear_298_27212" x1="32" y1="0" x2="32" y2="64" gradientUnits="userSpaceOnUse">
<stop stop-color="#ECF0FE"/>
<stop offset="1" stop-color="white"/>
</linearGradient>
</defs>
</svg>
