<svg width="16" height="16" fill="none" xmlns="http://www.w3.org/2000/svg"><path fill-rule="evenodd" clip-rule="evenodd" d="M5.335 15.167c-3.08 0-3.654-1.434-3.8-2.827L1.035 7c-.074-.7-.094-1.733.6-2.506.6-.667 1.593-.987 3.033-.987h6.667c1.446 0 2.44.326 3.033.986.694.774.673 1.807.6 2.514l-.5 5.327c-.146 1.4-.72 2.833-3.8 2.833H5.335ZM2.375 5.16c-.327.36-.434.913-.347 1.74l.5 5.34c.113 1.053.4 1.927 2.807 1.927h5.333c2.4 0 2.694-.873 2.807-1.934l.5-5.326c.087-.833-.02-1.387-.347-1.747-.393-.44-1.167-.66-2.293-.66H4.668c-1.127 0-1.9.22-2.293.66Z" fill="#6A7483"/><path d="M10.165 4v-.534c0-1.186 0-1.633-1.633-1.633H7.465c-1.633 0-1.633.447-1.633 1.633V4c0 .273-.227.5-.5.5a.504.504 0 0 1-.5-.5v-.534c0-1.173 0-2.633 2.633-2.633h1.067c2.633 0 2.633 1.46 2.633 2.633V4c0 .273-.226.5-.5.5a.504.504 0 0 1-.5-.5Z" fill="#6A7483"/><path fill-rule="evenodd" clip-rule="evenodd" d="M6.168 9.353v-.686c0-.94.227-1.167 1.167-1.167h1.333c.94 0 1.167.227 1.167 1.167v.666c0 .694 0 1.834-1.834 1.834-1.833 0-1.833-1.134-1.833-1.814Zm1-.686v.686c0 .687 0 .814.833.814.834 0 .834-.107.834-.82V8.5H7.168v.167Z" fill="#6A7483"/><path d="M8.84 9.406a.502.502 0 0 1 .433-.56c1.76-.22 3.447-.886 4.867-1.92a.497.497 0 0 1 .7.114c.16.22.113.533-.114.7a11.576 11.576 0 0 1-5.333 2.107h-.06a.497.497 0 0 1-.493-.44ZM6.607 9.853A11.435 11.435 0 0 1 1.46 7.926a.502.502 0 0 1-.133-.693.502.502 0 0 1 .693-.133 10.502 10.502 0 0 0 4.694 1.76.5.5 0 0 1 .44.553.481.481 0 0 1-.487.44h-.06Z" fill="#6A7483"/></svg>