<svg width="360" height="372" fill="none" xmlns="http://www.w3.org/2000/svg"><g clip-path="url(#a)"><path fill="#2A394E" d="M0 0h360v372H0z"/><mask id="b" style="mask-type:alpha" maskUnits="userSpaceOnUse" x="-1" y="-1" width="362" height="380"><path d="M0 8a8 8 0 0 1 8-8h344a8 8 0 0 1 8 8v370H0V8Z" fill="#fff"/><path d="M360 378.5h.5V8A8.5 8.5 0 0 0 352-.5H8A8.5 8.5 0 0 0-.5 8v370.5H360Z" stroke="#000" stroke-opacity=".025"/></mask><g filter="url(#c)" mask="url(#b)"><path d="m68.278 753.918-.005-.017-.006-.016c-33.87-92.274-62.593-139.52-85.3-173.957a2285.724 2285.724 0 0 0-7.446-11.202c-18.89-28.298-32.836-49.19-41.453-85.315-21.308-89.336 32.803-157.348 76.803-178.173 41.83-19.798 91.121-5.039 137.124 35.548 45.957 40.547 88.345 106.656 116.189 188.746 27.881 82.196 47.289 169.073 49.131 240.359.921 35.647-2.554 67.29-11.484 92.468-8.917 25.14-23.241 43.763-44.047 53.61-21.142 10.006-40.024 15.066-57.309 14.554-17.261-.511-33.025-6.581-47.937-19.003-29.906-24.913-56.359-75.345-84.26-157.602Z" stroke="url(#d)" stroke-width="2.854"/><g filter="url(#e)"><path d="m28.346 780.072-.038-.114-.041-.113c-37.302-101.688-68.933-153.99-93.965-192.138a2683.965 2683.965 0 0 0-8.134-12.303c-20.618-31.058-35.067-52.825-44.177-90.882-22.248-92.944 33.385-162.892 77.943-183.981 41.337-19.564 91.918-5.387 141.15 38.405 48.907 43.502 94.504 114.733 124.639 203.575 30.379 89.564 51.434 183.725 53.601 260.455 1.085 38.398-2.587 71.706-11.682 97.667-9.008 25.713-23.095 43.682-43.004 53.104-22.235 10.524-41.48 15.511-58.69 14.936-17.045-.569-32.739-6.613-47.891-19.343-30.86-25.928-59.192-79.294-89.71-169.268Z" stroke="url(#f)" stroke-width="19.506"/></g><g opacity=".5"><mask id="g" style="mask-type:alpha" maskUnits="userSpaceOnUse" x="-56" y="328" width="491" height="808"><path d="M48.737 339.402c107.793-51.017 252.514 76.667 323.243 285.19 70.729 208.523 98.628 441.208-9.165 492.218-107.793 51.02-171.65 2.22-242.379-206.303C34.696 676.925-24.902 671.483-49.698 567.524-76.96 453.23-7.712 366.119 48.737 339.402Z" fill="#fff"/></mask><g mask="url(#g)"><g filter="url(#h)"><ellipse cx="188.976" cy="139.96" rx="188.976" ry="139.96" transform="matrix(-.32121 -.947 .90388 -.4278 14.145 971.744)" fill="#FB2A23"/></g><ellipse cx="160.142" cy="118.79" rx="160.142" ry="118.79" transform="matrix(-.32121 -.947 .90388 -.4278 184.617 941.765)" fill="#8D78FF"/><g filter="url(#i)"><ellipse cx="135.796" cy="100.731" rx="135.796" ry="100.731" transform="matrix(-.32121 -.947 .90388 -.4278 71.594 490.494)" fill="#436AF5"/></g></g></g></g></g><defs><filter id="c" x="-213.071" y="201.148" width="653.331" height="858.34" filterUnits="userSpaceOnUse" color-interpolation-filters="sRGB"><feFlood flood-opacity="0" result="BackgroundImageFix"/><feBlend in="SourceGraphic" in2="BackgroundImageFix" result="shape"/><feGaussianBlur stdDeviation="40.313" result="effect1_foregroundBlur_5356_45318"/></filter><filter id="e" x="-137.746" y="276.473" width="431.911" height="707.69" filterUnits="userSpaceOnUse" color-interpolation-filters="sRGB"><feFlood flood-opacity="0" result="BackgroundImageFix"/><feBlend in="SourceGraphic" in2="BackgroundImageFix" result="shape"/><feGaussianBlur stdDeviation="2.65" result="effect1_foregroundBlur_5356_45318"/></filter><filter id="h" x="-252.035" y="352.51" width="663.968" height="760.798" filterUnits="userSpaceOnUse" color-interpolation-filters="sRGB"><feFlood flood-opacity="0" result="BackgroundImageFix"/><feBlend in="SourceGraphic" in2="BackgroundImageFix" result="shape"/><feGaussianBlur stdDeviation="95.818" result="effect1_foregroundBlur_5356_45318"/></filter><filter id="i" x="-173.595" y="-8.497" width="585.234" height="654.6" filterUnits="userSpaceOnUse" color-interpolation-filters="sRGB"><feFlood flood-opacity="0" result="BackgroundImageFix"/><feBlend in="SourceGraphic" in2="BackgroundImageFix" result="shape"/><feGaussianBlur stdDeviation="95.818" result="effect1_foregroundBlur_5356_45318"/></filter><linearGradient id="d" x1="-63.542" y1="513.852" x2="269.448" y2="500.838" gradientUnits="userSpaceOnUse"><stop stop-color="#8D78FF"/><stop offset=".231" stop-color="#FFC42C"/><stop offset="1" stop-color="#8D78FF"/></linearGradient><linearGradient id="f" x1="-122.956" y1="520.585" x2="238.692" y2="505.615" gradientUnits="userSpaceOnUse"><stop stop-color="#9482F2" stop-opacity="0"/><stop offset=".231" stop-color="#FFC42C"/><stop offset="1" stop-color="#E7E2FF"/></linearGradient><clipPath id="a"><path fill="#fff" d="M0 0h360v372H0z"/></clipPath></defs></svg>