<svg width="16" height="17" fill="none" xmlns="http://www.w3.org/2000/svg"><path fill-rule="evenodd" clip-rule="evenodd" d="M9.266 15.516c-.8-.34-1.606-.807-2.393-1.374a20.805 20.805 0 0 1-2.247-1.913 19.915 19.915 0 0 1-1.913-2.24 12.44 12.44 0 0 1-1.36-2.373c-.347-.827-.52-1.627-.52-2.38 0-.52.093-1.014.273-1.474A3.56 3.56 0 0 1 2 2.47c.513-.507 1.1-.76 1.726-.76.26 0 .527.06.754.167.26.12.48.3.64.54l1.546 2.18c.14.193.247.38.32.566.087.2.134.4.134.594 0 .253-.074.5-.214.733-.1.18-.253.373-.446.567l-.454.473c.007.02.014.033.02.047.08.14.24.38.547.74.327.373.633.713.94 1.026.393.387.72.694 1.027.947.38.32.626.48.773.553l-.013.034.486-.48c.207-.207.407-.36.6-.46.367-.227.834-.267 1.3-.074.174.074.36.174.56.314l2.214 1.573c.246.167.426.38.533.633.1.254.147.487.147.72 0 .32-.074.64-.214.94-.14.3-.313.56-.533.8-.38.42-.793.72-1.273.914-.46.186-.96.286-1.487.286-.753 0-1.547-.18-2.367-.526ZM2.693 3.189c-.307.287-.52.6-.653.94-.14.347-.207.713-.207 1.107 0 .62.147 1.293.44 1.986.3.707.72 1.44 1.253 2.174.534.733 1.14 1.446 1.807 2.12a18.77 18.77 0 0 0 2.127 1.813c.72.527 1.46.953 2.193 1.26 1.14.487 2.207.6 3.087.233.34-.14.64-.353.913-.66a2.16 2.16 0 0 0 .373-.56c.08-.166.12-.34.12-.513a.796.796 0 0 0-.073-.333.504.504 0 0 0-.187-.2l-2.213-1.574a1.906 1.906 0 0 0-.367-.206c-.146-.06-.206-.12-.433.02a1.519 1.519 0 0 0-.387.3l-.506.5a.95.95 0 0 1-.967.2l-.18-.08a5.685 5.685 0 0 1-.947-.674A20.9 20.9 0 0 1 6.8 10.036a23.32 23.32 0 0 1-.994-1.08c-.313-.367-.54-.68-.68-.94l-.08-.2a1.244 1.244 0 0 1-.053-.334c0-.24.087-.453.253-.62l.5-.52a1.93 1.93 0 0 0 .3-.373.428.428 0 0 0 .074-.227.62.62 0 0 0-.054-.213 1.913 1.913 0 0 0-.213-.353L4.306 2.989a.614.614 0 0 0-.246-.207.835.835 0 0 0-.334-.073c-.366 0-.706.16-1.033.48Zm6.5 8.147.18-.467c-.033-.007-.06 0-.073.013l-.107.454Z" fill="#959CA6"/></svg>