<svg width="24" height="24" viewBox="0 0 24 24" fill="none" xmlns="http://www.w3.org/2000/svg">
<path d="M2 9.25C1.59 9.25 1.25 8.91 1.25 8.5C1.25 8.09 1.59 7.75 2 7.75H13.5C13.91 7.75 14.25 8.09 14.25 8.5C14.25 8.91 13.91 9.25 13.5 9.25H2Z" fill="#6A7483"/>
<path d="M6 17.25C5.59 17.25 5.25 16.91 5.25 16.5C5.25 16.09 5.59 15.75 6 15.75H8C8.41 15.75 8.75 16.09 8.75 16.5C8.75 16.91 8.41 17.25 8 17.25H6Z" fill="#6A7483"/>
<path d="M10.5 17.25C10.09 17.25 9.75 16.91 9.75 16.5C9.75 16.09 10.09 15.75 10.5 15.75H14.5C14.91 15.75 15.25 16.09 15.25 16.5C15.25 16.91 14.91 17.25 14.5 17.25H10.5Z" fill="#6A7483"/>
<path d="M6.44 21.25C2.46 21.25 1.25 20.05 1.25 16.11V7.89C1.25 3.95 2.46 2.75 6.44 2.75H13.5C13.91 2.75 14.25 3.09 14.25 3.5C14.25 3.91 13.91 4.25 13.5 4.25H6.44C3.3 4.25 2.75 4.79 2.75 7.89V16.1C2.75 19.2 3.3 19.74 6.44 19.74H17.55C20.69 19.74 21.24 19.2 21.24 16.1V11.02C21.24 10.61 21.58 10.27 21.99 10.27C22.4 10.27 22.74 10.61 22.74 11.02V16.1C22.75 20.05 21.54 21.25 17.56 21.25H6.44Z" fill="#6A7483"/>
<path fill-rule="evenodd" clip-rule="evenodd" d="M16.4357 8.69285C16.4214 8.67857 16.4 8.67143 16.3857 8.65715C16.05 8.38572 15.7643 8.0643 15.5429 7.68573C15.1857 7.10002 15 6.42857 15 5.75C15 4.59286 15.5143 3.52859 16.4143 2.82145C17.0714 2.29287 17.9 2 18.75 2C19.8857 2 20.9429 2.49999 21.65 3.37857C22.1929 4.03571 22.5 4.87857 22.5 5.75C22.5 6.42857 22.3143 7.09287 21.9571 7.68573C21.75 8.02859 21.5 8.32144 21.2143 8.57144C20.5357 9.17144 19.6643 9.5 18.75 9.5C17.9071 9.5 17.0929 9.21428 16.4357 8.69285ZM17.0714 7.82855C17.5429 8.22141 18.1357 8.43572 18.75 8.43572C19.4071 8.43572 20.0143 8.20716 20.5071 7.77144C20.7143 7.59287 20.8929 7.37858 21.0429 7.14287C21.2929 6.72144 21.4286 6.24287 21.4286 5.7643C21.4286 5.14287 21.2143 4.54287 20.8214 4.07145C20.3143 3.44287 19.5571 3.08573 18.75 3.08573C18.1429 3.08573 17.55 3.29288 17.0786 3.67145C16.4357 4.17859 16.0714 4.93573 16.0714 5.7643C16.0714 6.24287 16.2071 6.72144 16.4571 7.14287C16.6071 7.37858 16.7929 7.59998 17.0143 7.7857C17.0357 7.79998 17.05 7.81427 17.0714 7.82855Z" fill="#6A7483"/>
<path d="M17.9072 6.92148L17.1143 6.12863C16.9072 5.92149 16.9072 5.57859 17.1143 5.37145C17.3215 5.16431 17.6643 5.16431 17.8715 5.37145L18.3 5.80005L19.6358 4.56435C19.8501 4.36435 20.1929 4.37862 20.3929 4.5929C20.5929 4.80719 20.5786 5.15004 20.3643 5.35004L18.6501 6.93574C18.5501 7.02859 18.4215 7.0786 18.2858 7.0786C18.1501 7.0786 18.0143 7.02862 17.9072 6.92148Z" fill="#6A7483"/>
</svg>
