<svg width="16" height="16" fill="none" xmlns="http://www.w3.org/2000/svg"><path fill-rule="evenodd" clip-rule="evenodd" d="M10.487 7.5C9.147 7.5 8.5 6.906 8.5 5.68V2.653c0-1.227.653-1.82 1.987-1.82h2.693c1.34 0 1.987.593 1.987 1.82v3.02c0 1.233-.654 1.827-1.987 1.827h-2.693ZM9.5 2.653v3.02c0 .573.093.82.987.82h2.693c.893 0 .987-.253.987-.82v-3.02c0-.573-.094-.82-.987-.82h-2.693c-.894 0-.987.253-.987.82ZM10.487 15.167c-1.34 0-1.987-.654-1.987-1.987v-2.693c0-1.34.653-1.987 1.987-1.987h2.693c1.34 0 1.987.653 1.987 1.987v2.693c0 1.333-.654 1.987-1.987 1.987h-2.693Zm-.987-4.68v2.693c0 .787.2.987.987.987h2.693c.787 0 .987-.2.987-.987v-2.693c0-.787-.2-.987-.987-.987h-2.693c-.787 0-.987.2-.987.987ZM2.82 7.5C1.48 7.5.833 6.906.833 5.68V2.653c0-1.227.654-1.82 1.987-1.82h2.693c1.34 0 1.987.593 1.987 1.82v3.02C7.5 6.906 6.847 7.5 5.513 7.5H2.82Zm-.986-4.847v3.02c0 .573.093.82.986.82h2.693c.894 0 .987-.253.987-.82v-3.02c0-.573-.093-.82-.987-.82H2.82c-.893 0-.986.253-.986.82ZM2.82 15.167c-1.34 0-1.987-.654-1.987-1.987v-2.693c0-1.34.654-1.987 1.987-1.987h2.693c1.34 0 1.987.653 1.987 1.987v2.693c0 1.333-.653 1.987-1.987 1.987H2.82Zm-.986-4.68v2.693c0 .787.2.987.986.987h2.693c.787 0 .987-.2.987-.987v-2.693c0-.787-.2-.987-.987-.987H2.82c-.786 0-.986.2-.986.987Z" fill="#2A394E"/></svg>