<svg width="16" height="16" fill="none" xmlns="http://www.w3.org/2000/svg"><path d="M9.213 14.572a.5.5 0 0 1 .36-.613 6.17 6.17 0 0 0 4.594-5.967c0-3.4-2.767-6.167-6.167-6.167-2.886 0-4.78 1.687-5.667 2.707h1.96a.504.504 0 0 1 0 1.007H1.34a.588.588 0 0 1-.14-.02.6.6 0 0 1-.16-.08.44.44 0 0 1-.14-.154.539.539 0 0 1-.067-.206V1.999c0-.274.227-.5.5-.5.274 0 .5.226.5.5v1.593C2.92 2.425 4.967.832 8 .832a7.17 7.17 0 0 1 1.827 14.1.813.813 0 0 1-.127.013.504.504 0 0 1-.486-.373Z" fill="#fff"/><path fill-rule="evenodd" clip-rule="evenodd" d="M7.494 15.147A7.017 7.017 0 0 1 5.4 14.68a.498.498 0 0 1-.287-.647c.1-.253.4-.38.647-.286a6.24 6.24 0 0 0 1.8.406c.26.014.467.24.467.507l-.007.027a.496.496 0 0 1-.493.466c-.014 0-.027-.006-.034-.006ZM3.54 13.613a7.358 7.358 0 0 1-1.453-1.566.486.486 0 0 1 .126-.694.513.513 0 0 1 .694.12v.007c.006.007.013.02.02.027.346.5.766.946 1.24 1.32a.514.514 0 0 1 .08.707.506.506 0 0 1-.707.08ZM1.154 10.12A7.137 7.137 0 0 1 .834 8v-.007a.502.502 0 0 1 .5-.493c.273 0 .5.227.5.5 0 .627.093 1.24.273 1.82.013.053.02.1.02.153a.498.498 0 0 1-.973.147Z" fill="#fff"/></svg>