<svg width="13" height="14" fill="none" xmlns="http://www.w3.org/2000/svg"><path d="M1.397 7.72a5.1 5.1 0 0 1 .862-2.838.41.41 0 0 1 .563-.113.41.41 0 0 1 .114.563 4.293 4.293 0 0 0 3.57 6.673 4.293 4.293 0 0 0 4.29-4.29A4.297 4.297 0 0 0 6.5 3.425c-.498 0-.986.07-1.446.212a.407.407 0 0 1-.51-.271.407.407 0 0 1 .271-.51A5.844 5.844 0 0 1 6.5 2.608a5.108 5.108 0 0 1 5.102 5.103c0 2.811-2.285 5.113-5.102 5.113a5.108 5.108 0 0 1-5.103-5.102Z" fill="#436AF5"/><path d="M3.998 3.69a.405.405 0 0 1-.044-.574L5.52 1.318a.405.405 0 0 1 .574-.038.41.41 0 0 1 .038.574L4.567 3.647a.41.41 0 0 1-.304.14.412.412 0 0 1-.265-.097Z" fill="#436AF5"/><path d="M5.85 5.045 4.019 3.707a.407.407 0 0 1 .482-.655l1.826 1.332c.178.13.222.384.086.569a.384.384 0 0 1-.325.168.428.428 0 0 1-.238-.076Z" fill="#436AF5"/></svg>