<svg width="16" height="16" fill="none" xmlns="http://www.w3.org/2000/svg"><path fill-rule="evenodd" clip-rule="evenodd" d="M.833 7.667C.833 3.9 3.9.833 7.667.833 11.433.833 14.5 3.9 14.5 7.667c0 3.766-3.067 6.833-6.833 6.833C3.9 14.5.833 11.433.833 7.667Zm1 0A5.84 5.84 0 0 0 7.667 13.5 5.84 5.84 0 0 0 13.5 7.667a5.84 5.84 0 0 0-5.833-5.834 5.84 5.84 0 0 0-5.834 5.834Z" fill="#949CA6"/><path d="m14.314 15.02-1.334-1.333a.503.503 0 0 1 0-.707.503.503 0 0 1 .707 0l1.333 1.333a.503.503 0 0 1 0 .707.495.495 0 0 1-.707 0Z" fill="#949CA6"/></svg>