<svg width="16" height="16" viewBox="0 0 16 16" fill="none" xmlns="http://www.w3.org/2000/svg">
<path d="M3.45814 2.47194C2.65581 2.77298 2 3.72509 2 4.5862V9.78785C2 10.614 2.54419 11.6991 3.20699 12.1962L6.20698 14.4434C7.1907 15.1855 8.8093 15.1855 9.79302 14.4434L12.793 12.1962C13.4558 11.6991 14 10.614 14 9.78785V4.5862C14 3.72509 13.3442 2.77298 12.5419 2.47194L9.06047 1.16277C8.46745 0.945743 7.5186 0.945743 6.93953 1.16277L3.45814 2.47194Z" fill="#00A3A3"/>
<path d="M7.97286 7.53344H7.98621H7.99953C8.7662 7.50677 9.3662 6.88677 9.37286 6.11343C9.37286 5.32677 8.73287 4.68677 7.94621 4.68677C7.15954 4.68677 6.51953 5.32677 6.51953 6.11343C6.53286 6.8801 7.13286 7.50677 7.93286 7.53344C7.94619 7.53344 7.95953 7.53344 7.97286 7.53344Z" fill="white"/>
<path d="M6.53375 8.94004C6.16042 9.19337 5.94043 9.55337 5.94043 9.9267C5.94043 10.3067 6.15375 10.6534 6.53375 10.9067C6.94042 11.1734 7.46709 11.3134 7.99375 11.3134C8.52042 11.3134 9.05376 11.18 9.45376 10.9067C9.82709 10.6534 10.0471 10.2934 10.0471 9.92004C10.0538 9.54004 9.84043 9.19337 9.46043 8.94004C8.65376 8.40671 7.34709 8.40671 6.53375 8.94004Z" fill="white"/>
</svg>
