<svg width="64" height="64" fill="none" xmlns="http://www.w3.org/2000/svg"><rect x=".5" y=".5" width="63" height="63" rx="4.423" fill="#FBFCFF"/><path fill-rule="evenodd" clip-rule="evenodd" d="M26.374 49.865c-9.276 0-13.24-3.963-13.24-13.24v-10.25c0-9.276 3.964-13.24 13.24-13.24h10.25c9.277 0 13.24 3.964 13.24 13.24v10.25c0 9.277-3.963 13.24-13.24 13.24h-10.25Zm-10.677-23.49v10.25c0 7.876 2.802 10.677 10.677 10.677h10.25c7.876 0 10.677-2.801 10.677-10.677v-10.25c0-7.875-2.801-10.677-10.677-10.677h-10.25c-7.875 0-10.677 2.802-10.677 10.677Z" fill="#436AF5"/><path d="m35.72 28.151-4.22-4.22-4.22 4.22a1.289 1.289 0 0 1-1.81 0 1.289 1.289 0 0 1 0-1.81l5.124-5.126a1.289 1.289 0 0 1 1.811 0l5.125 5.125a1.289 1.289 0 0 1 0 1.811c-.256.256-.58.376-.905.376-.325 0-.65-.12-.906-.376Z" fill="#436AF5"/><path d="M30.219 35.788V22.12c0-.7.58-1.281 1.281-1.281.7 0 1.281.58 1.281 1.281v13.667a1.28 1.28 0 0 1-1.281 1.281c-.7 0-1.281-.58-1.281-1.281ZM20.841 40.418a1.287 1.287 0 0 1-.803-1.623c.223-.666.957-1.042 1.623-.803a31.32 31.32 0 0 0 19.697 0c.667-.222 1.401.137 1.623.803.222.666-.136 1.401-.803 1.623a33.508 33.508 0 0 1-10.677 1.726c-3.604 0-7.226-.581-10.66-1.726Z" fill="#436AF5"/><rect x=".5" y=".5" width="63" height="63" rx="4.423" stroke="#C7D2FC" stroke-dasharray="2 2"/></svg>