<svg width="48" height="48" viewBox="0 0 48 48" fill="none" xmlns="http://www.w3.org/2000/svg">
<path fill-rule="evenodd" clip-rule="evenodd" d="M18.159 5.85804C19.869 5.33224 21.6 6.61095 21.6 8.4H42.2C42.7523 8.4 43.2 8.84772 43.2 9.4V14.4C43.2 15.0627 42.6627 15.6 42 15.6C41.3372 15.6 40.8 15.0627 40.8 14.4V10.8H21.6V37.2H40.8V33.6C40.8 32.9373 41.3372 32.4 42 32.4C42.6627 32.4 43.2 32.9373 43.2 33.6V38.6C43.2 39.1523 42.7523 39.6 42.2 39.6H21.6C21.6 41.3891 19.869 42.6678 18.159 42.142L5.50609 38.2515C5.0864 38.1224 4.79999 37.7347 4.79999 37.2956V10.7044C4.79999 10.2653 5.0864 9.87757 5.50609 9.74853L18.159 5.85804ZM7.24228 11.5463V36.4537L19.1577 40.1175V7.88254L7.24228 11.5463Z" fill="#B88A00"/>
<path d="M31.2827 15.899C31.7803 15.2786 32.6866 15.179 33.307 15.6766L41.9194 22.5837L35.0124 31.1961C34.5148 31.8165 33.6085 31.9161 32.9881 31.4185C32.3677 30.921 32.2681 30.0147 32.7657 29.3943L36.7068 24.48H26.4C25.6048 24.48 24.96 23.8353 24.96 23.04C24.96 22.2447 25.6048 21.6 26.4 21.6H36.0896L31.5052 17.9233C30.8847 17.4258 30.7851 16.5195 31.2827 15.899Z" fill="#B88A00"/>
</svg>
