<svg width="16" height="16" fill="none" xmlns="http://www.w3.org/2000/svg"><path fill-rule="evenodd" clip-rule="evenodd" d="M4.667 14.167c-2.433 0-3.833-1.4-3.833-3.833V5.667c0-2.433 1.4-3.833 3.833-3.833h6.667c2.433 0 3.833 1.4 3.833 3.833v4.667c0 2.433-1.4 3.833-3.833 3.833H4.667Zm-2.833-8.5v4.667c0 1.906.927 2.833 2.833 2.833h6.667c1.907 0 2.833-.927 2.833-2.833V5.667c0-1.907-.926-2.833-2.833-2.833H4.667c-1.906 0-2.833.926-2.833 2.833Z" fill="#959CA6"/><path d="M6.44 8.053 4.352 6.387a.499.499 0 0 1 .62-.78l2.086 1.666c.507.407 1.367.407 1.874 0l2.086-1.666a.492.492 0 0 1 .7.08.492.492 0 0 1-.08.7L9.553 8.053c-.427.354-.994.527-1.554.527s-1.126-.173-1.56-.527Z" fill="#959CA6"/></svg>