<svg width="27" height="27" viewBox="0 0 27 27" fill="none" xmlns="http://www.w3.org/2000/svg">
<rect y="0.681641" width="26.498" height="25.6375" rx="4" fill="#ECF0FE"/>
<path fill-rule="evenodd" clip-rule="evenodd" d="M4.2175 14.0291L10.2875 20.0991C10.4375 20.2491 10.6275 20.3191 10.8175 20.3191C11.0075 20.3191 11.2075 20.2491 11.3475 20.0991C11.6375 19.8091 11.6375 19.3291 11.3475 19.0391L6.55738 14.249H21.748C22.158 14.249 22.498 13.909 22.498 13.499C22.498 13.089 22.158 12.749 21.748 12.749H6.55762L11.3475 7.95914C11.6375 7.66914 11.6375 7.18914 11.3475 6.89914C11.0575 6.60914 10.5775 6.60914 10.2875 6.89914L4.2175 12.9691C3.9275 13.2591 3.9275 13.7391 4.2175 14.0291Z" fill="#2A394E"/>
</svg>
