<svg width="18" height="18" fill="none" xmlns="http://www.w3.org/2000/svg"><g fill="#299E47"><path fill-rule="evenodd" clip-rule="evenodd" d="M.937 9C.937 4.553 4.552.938 8.999.938c4.447 0 8.062 3.615 8.062 8.062 0 4.448-3.614 8.063-8.062 8.063C4.552 17.063.937 13.448.937 9Zm1.125 0a6.946 6.946 0 0 0 6.937 6.938A6.946 6.946 0 0 0 15.937 9a6.946 6.946 0 0 0-6.938-6.937A6.946 6.946 0 0 0 2.062 9Z"/><path d="M7.537 11.52 5.415 9.398a.566.566 0 0 1 0-.795.566.566 0 0 1 .795 0l1.725 1.725 3.855-3.855a.566.566 0 0 1 .795 0 .566.566 0 0 1 0 .795L8.332 11.52a.562.562 0 0 1-.795 0Z"/></g></svg>