<svg width="142" height="42" fill="none" xmlns="http://www.w3.org/2000/svg"><g clip-path="url(#a)"><path d="M134.056 0H7.944A7.944 7.944 0 0 0 0 7.944v23.832a7.944 7.944 0 0 0 7.944 7.944h126.112A7.944 7.944 0 0 0 142 31.776V7.944A7.944 7.944 0 0 0 134.056 0Z" fill="#000"/><path d="M136.948 42.074H4.974A4.986 4.986 0 0 1 0 37.096V4.97A4.979 4.979 0 0 1 4.974 0h131.974C139.689 0 142 2.23 142 4.971v32.125c0 2.74-2.311 4.978-5.052 4.978Z" fill="#363A45"/><path d="M140.982 37.096a4.029 4.029 0 0 1-4.033 4.029H4.974a4.034 4.034 0 0 1-4.038-4.029V4.97A4.039 4.039 0 0 1 4.974.936h131.974a4.033 4.033 0 0 1 4.033 4.033l.001 32.127Z" fill="#363A45"/><path fill-rule="evenodd" clip-rule="evenodd" d="M22.84 29.825h-6.952V18.902H8.937v-6.95h13.902v17.873Zm21.349-17.874L36.74 29.825h-7.944l7.448-17.874h7.944Zm-15.392 7.944a3.972 3.972 0 1 0 0-7.944 3.972 3.972 0 0 0 0 7.944Z" fill="#fff"/><mask id="b" style="mask-type:luminance" maskUnits="userSpaceOnUse" x="46" y="5" width="90" height="32"><path d="M135.049 5H46.671v31.776h88.378V5Z" fill="#fff"/></mask><g mask="url(#b)" fill="#fff"><path d="M54.102 30.766h1.903v-7.452h2.488v-1.798H51.64v1.798h2.462v7.452ZM58.496 30.766h1.785v-3.114c0-1.082.56-1.733 1.407-1.733.3 0 .534.052.807.143v-1.811a1.997 1.997 0 0 0-.599-.078c-.73 0-1.394.482-1.615 1.12v-1.042h-1.785v6.515ZM65.922 30.909c.899 0 1.576-.456 1.876-.873v.73h1.785V24.25h-1.785v.73c-.3-.418-.977-.874-1.876-.874-1.733 0-3.062 1.564-3.062 3.401 0 1.837 1.329 3.4 3.062 3.4Zm.378-1.629c-.99 0-1.642-.743-1.642-1.772 0-1.03.651-1.772 1.642-1.772.99 0 1.641.743 1.641 1.772 0 1.03-.651 1.772-1.641 1.772ZM73.833 30.908c.9 0 1.577-.456 1.876-.873v.73h1.785v-9.772H75.71v3.987c-.3-.417-.977-.873-1.876-.873-1.733 0-3.062 1.564-3.062 3.4 0 1.838 1.33 3.401 3.062 3.401Zm.378-1.628c-.99 0-1.642-.743-1.642-1.772 0-1.03.652-1.772 1.642-1.772.99 0 1.642.742 1.642 1.772 0 1.029-.652 1.772-1.642 1.772ZM79.985 23.183c.639 0 1.147-.508 1.147-1.133 0-.626-.508-1.134-1.147-1.134-.612 0-1.133.508-1.133 1.134 0 .625.52 1.133 1.133 1.133Zm-.886 7.583h1.785v-6.514H79.1v6.514ZM82.468 30.765h1.785v-3.179c0-1.25.612-1.85 1.446-1.85.743 0 1.147.573 1.147 1.511v3.518h1.785v-3.817c0-1.694-.938-2.84-2.515-2.84-.847 0-1.511.364-1.863.885v-.742h-1.785v6.514ZM93.173 29.072c-.899 0-1.654-.678-1.654-1.668 0-1.003.755-1.668 1.654-1.668.9 0 1.655.665 1.655 1.668 0 .99-.756 1.668-1.655 1.668Zm-.208 4.547c1.993 0 3.505-1.017 3.505-3.362v-6.006h-1.785v.73c-.352-.509-1.056-.874-1.89-.874-1.706 0-3.074 1.46-3.074 3.297 0 1.824 1.368 3.283 3.074 3.283.834 0 1.538-.378 1.89-.86v.443c0 1.043-.69 1.785-1.746 1.785-.73 0-1.46-.247-2.033-.808l-.977 1.33c.743.716 1.902 1.042 3.036 1.042ZM100.244 30.766h1.681l3.83-9.25h-2.084l-2.58 6.423-2.62-6.423h-2.045l3.818 9.25ZM107.393 23.183c.639 0 1.146-.508 1.146-1.133 0-.626-.507-1.134-1.146-1.134-.612 0-1.134.508-1.134 1.134 0 .625.522 1.133 1.134 1.133Zm-.886 7.583h1.785v-6.514h-1.785v6.514ZM112.911 30.909c1.369 0 2.411-.574 3.023-1.46l-1.328-.99c-.3.456-.86.821-1.682.821-.86 0-1.628-.482-1.732-1.355h4.872c.04-.274.027-.456.027-.613 0-2.123-1.498-3.205-3.205-3.205-1.981 0-3.427 1.473-3.427 3.401 0 2.059 1.511 3.4 3.452 3.4Zm-1.654-4.196c.169-.794.912-1.133 1.576-1.133s1.317.352 1.473 1.133h-3.049ZM122.778 30.766h1.773l2.148-6.515h-1.914l-1.225 4.17-1.329-4.17h-1.368l-1.316 4.17-1.237-4.17h-1.903l2.163 6.515h1.771l1.213-3.7 1.224 3.7ZM53.547 16.916h.994v-5.079h1.758v-.95h-4.502v.95h1.75v5.079Zm3.307 0h.993v-2.65h.45l2.209 2.65h1.223l-2.242-2.71c.866-.203 1.367-.755 1.367-1.604 0-.994-.705-1.716-1.826-1.716h-2.174v6.03Zm.993-3.516v-1.597h1.062c.586 0 .951.28.951.799 0 .518-.365.798-.951.798h-1.062Zm3.436 3.516h1.028l.68-1.58h2.7l.688 1.58h1.036l-2.633-6.03h-.866l-2.633 6.03Zm2.09-2.463.967-2.234.968 2.234h-1.936Zm4.479 2.463h1.851c1.792 0 3.16-1.308 3.16-3.015s-1.368-3.015-3.16-3.015h-1.851v6.03Zm.993-.926v-4.178h.858c1.291 0 2.149.909 2.149 2.089s-.858 2.09-2.149 2.09h-.858Zm4.771.926h3.627v-.951H74.61v-1.63h2.123v-.952H74.61v-1.546h2.633v-.95h-3.627v6.029Zm11.94-3.015a3.103 3.103 0 0 0-3.117-3.117 3.097 3.097 0 0 0-3.117 3.117 3.097 3.097 0 0 0 3.117 3.117 3.103 3.103 0 0 0 3.117-3.117Zm-5.232 0c0-1.197.917-2.157 2.115-2.157 1.189 0 2.106.96 2.106 2.157s-.917 2.157-2.106 2.157c-1.198 0-2.115-.96-2.115-2.157Zm11.24 3.015v-6.03H90.56v4.323l-3.388-4.323h-.867v6.03h.994v-4.34l3.397 4.34h.866Z"/></g></g><defs><clipPath id="a"><path fill="#fff" d="M0 0h142v42H0z"/></clipPath></defs></svg>