<svg xmlns="http://www.w3.org/2000/svg" width="166" height="166" fill="none"><path fill="#000" d="M45.562.582H40.42v5.142h5.142V.582Z"/><path fill="#000" d="M50.553.582H45.41v5.142h5.142V.582Z"/><path fill="#000" d="M55.543.582h-5.142v5.142h5.142V.582Zm19.966 0h-5.142v5.142h5.142V.582Zm34.951 0h-5.142v5.142h5.142V.582Zm9.982 0H115.3v5.142h5.142V.582Z"/><path fill="#000" d="M125.433.582h-5.141v5.142h5.141V.582ZM45.562 5.574H40.42v5.142h5.142V5.574Z"/><path fill="#000" d="M50.553 5.574H45.41v5.142h5.142V5.574Z"/><path fill="#000" d="M55.543 5.574h-5.142v5.142h5.142V5.574Z"/><path fill="#000" d="M60.535 5.574h-5.142v5.142h5.142V5.574Zm14.974 0h-5.142v5.142h5.142V5.574Zm9.995 0h-5.142v5.142h5.142V5.574Zm9.969 0h-5.141v5.142h5.141V5.574Z"/><path fill="#000" d="M100.477 5.574h-5.142v5.142h5.142V5.574Zm9.983 0h-5.142v5.142h5.142V5.574Z"/><path fill="#000" d="M115.451 5.574h-5.142v5.142h5.142V5.574Zm9.982 0h-5.141v5.142h5.141V5.574Zm-79.871 4.992H40.42v5.142h5.142v-5.142Zm14.973 0h-5.142v5.142h5.142v-5.142Z"/><path fill="#000" d="M65.54 10.566h-5.143v5.142h5.142v-5.142Z"/><path fill="#000" d="M70.53 10.566h-5.14v5.142h5.142v-5.142Zm9.97 0h-5.14v5.142h5.14v-5.142Z"/><path fill="#000" d="M85.504 10.566h-5.142v5.142h5.142v-5.142Zm9.969 0h-5.141v5.142h5.141v-5.142Zm14.987 0h-5.142v5.142h5.142v-5.142Z"/><path fill="#000" d="M115.451 10.566h-5.142v5.142h5.142v-5.142Z"/><path fill="#000" d="M120.442 10.566H115.3v5.142h5.142v-5.142Z"/><path fill="#000" d="M125.433 10.566h-5.141v5.142h5.141v-5.142ZM65.54 15.559h-5.143V20.7h5.142v-5.14Zm9.969 0h-5.142V20.7h5.142v-5.14Zm14.986 0h-5.142V20.7h5.142v-5.14Z"/><path fill="#000" d="M95.473 15.559h-5.141V20.7h5.141v-5.14Zm9.996 0h-5.142V20.7h5.142v-5.14Zm9.982 0h-5.142V20.7h5.142v-5.14Z"/><path fill="#000" d="M120.442 15.559H115.3V20.7h5.142v-5.14Z"/><path fill="#000" d="M125.433 15.559h-5.141V20.7h5.141v-5.14Zm-74.88 4.991H45.41v5.142h5.142V20.55Z"/><path fill="#000" d="M55.543 20.55h-5.142v5.142h5.142V20.55Zm29.961 0h-5.142v5.142h5.142V20.55Zm9.969 0h-5.141v5.142h5.141V20.55Z"/><path fill="#000" d="M100.477 20.55h-5.142v5.142h5.142V20.55Z"/><path fill="#000" d="M105.469 20.55h-5.142v5.142h5.142V20.55Zm9.982 0h-5.142v5.142h5.142V20.55Zm-69.889 4.993H40.42v5.141h5.142v-5.142Z"/><path fill="#000" d="M50.553 25.543H45.41v5.141h5.142v-5.142Z"/><path fill="#000" d="M55.543 25.543h-5.142v5.141h5.142v-5.142Zm29.961 0h-5.142v5.141h5.142v-5.142Zm9.969 0h-5.141v5.141h5.141v-5.142Z"/><path fill="#000" d="M100.477 25.543h-5.142v5.141h5.142v-5.142Zm9.983 0h-5.142v5.141h5.142v-5.142Zm9.982 0H115.3v5.141h5.142v-5.142Z"/><path fill="#000" d="M125.433 25.543h-5.141v5.141h5.141v-5.142Zm-79.871 4.991H40.42v5.142h5.142v-5.142Zm9.981 0h-5.142v5.142h5.142v-5.142Zm9.997 0h-5.143v5.142h5.142v-5.142Zm9.969 0h-5.142v5.142h5.142v-5.142Zm9.995 0h-5.142v5.142h5.142v-5.142Zm9.969 0h-5.141v5.142h5.141v-5.142Zm9.996 0h-5.142v5.142h5.142v-5.142Zm9.982 0h-5.142v5.142h5.142v-5.142Z"/><path fill="#000" d="M125.433 30.534h-5.141v5.142h5.141v-5.142Zm-79.871 4.992H40.42v5.142h5.142v-5.142Z"/><path fill="#000" d="M50.553 35.526H45.41v5.142h5.142v-5.142Zm9.982 0h-5.142v5.142h5.142v-5.142Z"/><path fill="#000" d="M65.54 35.526h-5.143v5.142h5.142v-5.142Zm19.964 0h-5.142v5.142h5.142v-5.142Zm9.969 0h-5.141v5.142h5.141v-5.142Z"/><path fill="#000" d="M100.477 35.526h-5.142v5.142h5.142v-5.142Zm9.983 0h-5.142v5.142h5.142v-5.142Zm9.982 0H115.3v5.142h5.142v-5.142ZM15.614 40.518h-5.141v5.142h5.141v-5.142Z"/><path fill="#000" d="M20.606 40.518h-5.142v5.142h5.142v-5.142Z"/><path fill="#000" d="M25.598 40.518h-5.142v5.142h5.142v-5.142Zm9.982 0h-5.142v5.142h5.141v-5.142Zm9.982 0H40.42v5.142h5.142v-5.142Z"/><path fill="#000" d="M50.553 40.518H45.41v5.142h5.142v-5.142Zm19.977 0h-5.14v5.142h5.142v-5.142Z"/><path fill="#000" d="M75.509 40.518h-5.142v5.142h5.142v-5.142Zm9.995 0h-5.142v5.142h5.142v-5.142Z"/><path fill="#000" d="M90.495 40.518h-5.142v5.142h5.142v-5.142Zm24.956 0h-5.142v5.142h5.142v-5.142Z"/><path fill="#000" d="M120.442 40.518H115.3v5.142h5.142v-5.142Z"/><path fill="#000" d="M125.433 40.518h-5.141v5.142h5.141v-5.142Z"/><path fill="#000" d="M130.425 40.518h-5.142v5.142h5.142v-5.142Z"/><path fill="#000" d="M135.428 40.518h-5.142v5.142h5.142v-5.142Z"/><path fill="#000" d="M140.407 40.518h-5.141v5.142h5.141v-5.142Zm14.986 0h-5.142v5.142h5.142v-5.142Z"/><path fill="#000" d="M160.372 40.518h-5.142v5.142h5.142v-5.142Z"/><path fill="#000" d="M165.375 40.518h-5.142v5.142h5.142v-5.142ZM5.62 45.51H.48v5.142h5.142V45.51Z"/><path fill="#000" d="M10.612 45.51H5.47v5.142h5.142V45.51Z"/><path fill="#000" d="M15.614 45.51h-5.141v5.142h5.141V45.51Zm9.984 0h-5.142v5.142h5.142V45.51Z"/><path fill="#000" d="M30.576 45.51h-5.141v5.142h5.141V45.51Zm29.959 0h-5.142v5.142h5.142V45.51Z"/><path fill="#000" d="M65.54 45.51h-5.143v5.142h5.142V45.51Zm9.969 0h-5.142v5.142h5.142V45.51Z"/><path fill="#000" d="M80.5 45.51h-5.14v5.142h5.14V45.51Z"/><path fill="#000" d="M85.504 45.51h-5.142v5.142h5.142V45.51Zm14.973 0h-5.142v5.142h5.142V45.51Zm9.983 0h-5.142v5.142h5.142V45.51Zm9.982 0H115.3v5.142h5.142V45.51Zm9.983 0h-5.142v5.142h5.142V45.51Z"/><path fill="#000" d="M135.428 45.51h-5.142v5.142h5.142V45.51Zm19.965 0h-5.142v5.142h5.142V45.51Z"/><path fill="#000" d="M160.372 45.51h-5.142v5.142h5.142V45.51Z"/><path fill="#000" d="M165.375 45.51h-5.142v5.142h5.142V45.51ZM15.614 50.502h-5.141v5.142h5.141v-5.142Z"/><path fill="#000" d="M20.606 50.502h-5.142v5.142h5.142v-5.142Zm14.974 0h-5.142v5.142h5.141v-5.142Zm14.973 0H45.41v5.142h5.142v-5.142Z"/><path fill="#000" d="M55.543 50.502h-5.142v5.142h5.142v-5.142Z"/><path fill="#000" d="M60.535 50.502h-5.142v5.142h5.142v-5.142Zm9.995 0h-5.14v5.142h5.142v-5.142Z"/><path fill="#000" d="M75.509 50.502h-5.142v5.142h5.142v-5.142Zm34.951 0h-5.142v5.142h5.142v-5.142Zm19.965 0h-5.142v5.142h5.142v-5.142Z"/><path fill="#000" d="M135.428 50.502h-5.142v5.142h5.142v-5.142Z"/><path fill="#000" d="M140.407 50.502h-5.141v5.142h5.141v-5.142Zm9.995 0h-5.142v5.142h5.142v-5.142Zm9.97 0h-5.142v5.142h5.142v-5.142ZM5.62 55.494H.48v5.142h5.142v-5.142Z"/><path fill="#000" d="M10.612 55.494H5.47v5.142h5.142v-5.142Z"/><path fill="#000" d="M15.614 55.494h-5.141v5.142h5.141v-5.142Zm14.962 0h-5.141v5.142h5.141v-5.142Zm24.967 0h-5.142v5.142h5.142v-5.142Zm24.957 0h-5.14v5.142h5.14v-5.142Z"/><path fill="#000" d="M85.504 55.494h-5.142v5.142h5.142v-5.142Z"/><path fill="#000" d="M90.495 55.494h-5.142v5.142h5.142v-5.142Z"/><path fill="#000" d="M95.473 55.494h-5.141v5.142h5.141v-5.142Z"/><path fill="#000" d="M100.477 55.494h-5.142v5.142h5.142v-5.142Zm9.983 0h-5.142v5.142h5.142v-5.142Z"/><path fill="#000" d="M115.451 55.494h-5.142v5.142h5.142v-5.142Zm9.982 0h-5.141v5.142h5.141v-5.142Zm24.969 0h-5.142v5.142h5.142v-5.142Z"/><path fill="#000" d="M155.393 55.494h-5.142v5.142h5.142v-5.142Z"/><path fill="#000" d="M160.372 55.494h-5.142v5.142h5.142v-5.142ZM5.62 60.486H.48v5.142h5.142v-5.142Z"/><path fill="#000" d="M10.612 60.486H5.47v5.142h5.142v-5.142Z"/><path fill="#000" d="M15.614 60.486h-5.141v5.142h5.141v-5.142Zm14.962 0h-5.141v5.142h5.141v-5.142Z"/><path fill="#000" d="M35.58 60.486h-5.142v5.142h5.141v-5.142Z"/><path fill="#000" d="M40.57 60.486h-5.14v5.142h5.142v-5.142Z"/><path fill="#000" d="M45.562 60.486H40.42v5.142h5.142v-5.142Zm9.981 0h-5.142v5.142h5.142v-5.142Zm54.917 0h-5.142v5.142h5.142v-5.142Zm14.973 0h-5.141v5.142h5.141v-5.142Z"/><path fill="#000" d="M130.425 60.486h-5.142v5.142h5.142v-5.142ZM15.614 65.478h-5.141v5.142h5.141v-5.142Z"/><path fill="#000" d="M20.606 65.478h-5.142v5.142h5.142v-5.142Z"/><path fill="#000" d="M25.598 65.478h-5.142v5.142h5.142v-5.142Zm89.853 0h-5.142v5.142h5.142v-5.142Z"/><path fill="#000" d="M120.442 65.478H115.3v5.142h5.142v-5.142Zm14.986 0h-5.142v5.142h5.142v-5.142Z"/><path fill="#000" d="M140.407 65.478h-5.141v5.142h5.141v-5.142Zm14.986 0h-5.142v5.142h5.142v-5.142Zm9.982 0h-5.142v5.142h5.142v-5.142ZM5.62 70.47H.48v5.142h5.142V70.47Zm9.994 0h-5.141v5.142h5.141V70.47Z"/><path fill="#000" d="M20.606 70.47h-5.142v5.142h5.142V70.47Zm14.974 0h-5.142v5.142h5.141V70.47Zm9.982 0H40.42v5.142h5.142V70.47Zm14.973 0h-5.142v5.142h5.142V70.47Zm54.916 0h-5.142v5.142h5.142V70.47Zm9.982 0h-5.141v5.142h5.141V70.47Z"/><path fill="#000" d="M130.425 70.47h-5.142v5.142h5.142V70.47Z"/><path fill="#000" d="M135.428 70.47h-5.142v5.142h5.142V70.47Zm14.974 0h-5.142v5.142h5.142V70.47Zm9.97 0h-5.142v5.142h5.142V70.47ZM20.606 75.462h-5.142v5.142h5.142v-5.142Z"/><path fill="#000" d="M25.598 75.462h-5.142v5.142h5.142v-5.142Zm19.964 0H40.42v5.142h5.142v-5.142Zm9.981 0h-5.142v5.142h5.142v-5.142Z"/><path fill="#000" d="M60.535 75.462h-5.142v5.142h5.142v-5.142Zm49.925 0h-5.142v5.142h5.142v-5.142Z"/><path fill="#000" d="M115.451 75.462h-5.142v5.142h5.142v-5.142Z"/><path fill="#000" d="M120.442 75.462H115.3v5.142h5.142v-5.142Zm9.983 0h-5.142v5.142h5.142v-5.142Z"/><path fill="#000" d="M135.428 75.462h-5.142v5.142h5.142v-5.142Z"/><path fill="#000" d="M140.407 75.462h-5.141v5.142h5.141v-5.142Zm14.986 0h-5.142v5.142h5.142v-5.142Z"/><path fill="#000" d="M160.372 75.462h-5.142v5.142h5.142v-5.142Z"/><path fill="#000" d="M165.375 75.462h-5.142v5.142h5.142v-5.142ZM5.62 80.454H.48v5.142h5.142v-5.142Zm9.994 0h-5.141v5.142h5.141v-5.142Zm9.984 0h-5.142v5.142h5.142v-5.142Zm9.982 0h-5.142v5.142h5.141v-5.142Zm9.982 0H40.42v5.142h5.142v-5.142Z"/><path fill="#000" d="M50.553 80.454H45.41v5.142h5.142v-5.142Z"/><path fill="#000" d="M55.543 80.454h-5.142v5.142h5.142v-5.142Z"/><path fill="#000" d="M60.535 80.454h-5.142v5.142h5.142v-5.142Zm59.907 0H115.3v5.142h5.142v-5.142Zm19.965 0h-5.141v5.142h5.141v-5.142Z"/><path fill="#000" d="M145.399 80.454h-5.142v5.142h5.142v-5.142Zm9.994 0h-5.142v5.142h5.142v-5.142Zm9.982 0h-5.142v5.142h5.142v-5.142ZM15.614 85.446h-5.141v5.142h5.141v-5.142Z"/><path fill="#000" d="M20.606 85.446h-5.142v5.142h5.142v-5.142Z"/><path fill="#000" d="M25.598 85.446h-5.142v5.142h5.142v-5.142Z"/><path fill="#000" d="M30.576 85.446h-5.141v5.142h5.141v-5.142Zm29.959 0h-5.142v5.142h5.142v-5.142Zm49.925 0h-5.142v5.142h5.142v-5.142Zm9.982 0H115.3v5.142h5.142v-5.142Z"/><path fill="#000" d="M125.433 85.446h-5.141v5.142h5.141v-5.142Z"/><path fill="#000" d="M130.425 85.446h-5.142v5.142h5.142v-5.142Z"/><path fill="#000" d="M135.428 85.446h-5.142v5.142h5.142v-5.142Z"/><path fill="#000" d="M140.407 85.446h-5.141v5.142h5.141v-5.142Zm24.968 0h-5.142v5.142h5.142v-5.142ZM5.62 90.438H.48v5.141h5.142v-5.141Z"/><path fill="#000" d="M10.612 90.438H5.47v5.142h5.142v-5.142Zm9.994 0h-5.142v5.142h5.142v-5.142Zm9.97 0h-5.141v5.142h5.141v-5.142Z"/><path fill="#000" d="M35.58 90.438h-5.142v5.142h5.141v-5.142Z"/><path fill="#000" d="M40.57 90.438h-5.14v5.142h5.142v-5.142Zm9.983 0H45.41v5.142h5.142v-5.142Z"/><path fill="#000" d="M55.543 90.438h-5.142v5.141h5.142v-5.141Z"/><path fill="#000" d="M60.535 90.438h-5.142v5.141h5.142v-5.141Zm49.925 0h-5.142v5.142h5.142v-5.142Z"/><path fill="#000" d="M115.451 90.438h-5.142v5.142h5.142v-5.142Zm14.974 0h-5.142v5.142h5.142v-5.142Z"/><path fill="#000" d="M135.428 90.438h-5.142v5.142h5.142v-5.142Zm19.965 0h-5.142v5.142h5.142v-5.142Z"/><path fill="#000" d="M160.372 90.438h-5.142v5.142h5.142v-5.142ZM5.62 95.43H.48v5.142h5.142V95.43Zm9.994 0h-5.141v5.142h5.141V95.43Z"/><path fill="#000" d="M20.606 95.43h-5.142v5.142h5.142V95.43Zm9.97 0h-5.141v5.142h5.141V95.43Zm9.994 0h-5.14v5.142h5.142V95.43Z"/><path fill="#000" d="M45.562 95.43H40.42v5.142h5.142V95.43Z"/><path fill="#000" d="M50.553 95.43H45.41v5.142h5.142V95.43Zm59.907 0h-5.142v5.142h5.142V95.43Zm9.982 0H115.3v5.142h5.142V95.43Z"/><path fill="#000" d="M125.433 95.43h-5.141v5.142h5.141V95.43Zm9.995 0h-5.142v5.142h5.142V95.43Zm9.971 0h-5.142v5.142h5.142V95.43Z"/><path fill="#000" d="M150.402 95.43h-5.142v5.142h5.142V95.43Z"/><path fill="#000" d="M155.393 95.43h-5.142v5.142h5.142V95.43Zm9.982 0h-5.142v5.142h5.142V95.43ZM5.62 100.422H.48v5.142h5.142v-5.142Z"/><path fill="#000" d="M10.612 100.422H5.47v5.141h5.142v-5.141Z"/><path fill="#000" d="M15.614 100.422h-5.141v5.141h5.141v-5.141Zm9.984 0h-5.142v5.141h5.142v-5.141Zm9.982 0h-5.142v5.141h5.141v-5.141Zm9.982 0H40.42v5.141h5.142v-5.141Zm84.863 0h-5.142v5.141h5.142v-5.141Z"/><path fill="#000" d="M135.428 100.422h-5.142v5.141h5.142v-5.141Z"/><path fill="#000" d="M140.407 100.422h-5.141v5.142h5.141v-5.142Z"/><path fill="#000" d="M145.399 100.422h-5.142v5.141h5.142v-5.141Z"/><path fill="#000" d="M150.402 100.422h-5.142v5.141h5.142v-5.141ZM5.62 105.414H.48v5.142h5.142v-5.142Zm9.994 0h-5.141v5.142h5.141v-5.142Zm9.984 0h-5.142v5.142h5.142v-5.142Zm24.955 0H45.41v5.142h5.142v-5.142Zm9.982 0h-5.142v5.142h5.142v-5.142Z"/><path fill="#000" d="M65.54 105.414h-5.143v5.142h5.142v-5.142Zm9.969 0h-5.142v5.142h5.142v-5.142Zm14.986 0h-5.142v5.142h5.142v-5.142Z"/><path fill="#000" d="M95.473 105.414h-5.141v5.142h5.141v-5.142Zm29.96 0h-5.141v5.142h5.141v-5.142Zm29.96 0h-5.142v5.142h5.142v-5.142Zm9.982 0h-5.142v5.142h5.142v-5.142ZM5.62 110.406H.48v5.142h5.142v-5.142Zm9.994 0h-5.141v5.142h5.141v-5.142Z"/><path fill="#000" d="M20.606 110.406h-5.142v5.142h5.142v-5.142Zm14.974 0h-5.142v5.142h5.141v-5.142Z"/><path fill="#000" d="M40.57 110.406h-5.14v5.142h5.142v-5.142Z"/><path fill="#000" d="M45.562 110.406H40.42v5.142h5.142v-5.142Z"/><path fill="#000" d="M50.553 110.406H45.41v5.142h5.142v-5.142Zm9.982 0h-5.142v5.141h5.142v-5.141Z"/><path fill="#000" d="M65.54 110.406h-5.143v5.142h5.142v-5.142Z"/><path fill="#000" d="M70.53 110.406h-5.14v5.142h5.142v-5.142Z"/><path fill="#000" d="M75.509 110.406h-5.142v5.142h5.142v-5.142Zm14.986 0h-5.142v5.142h5.142v-5.142Zm14.974 0h-5.142v5.142h5.142v-5.142Zm9.982 0h-5.142v5.142h5.142v-5.142Zm24.956 0h-5.141v5.142h5.141v-5.142Zm19.965 0h-5.142v5.142h5.142v-5.142ZM5.62 115.398H.48v5.141h5.142v-5.141Zm14.986 0h-5.142v5.142h5.142v-5.142Zm9.97 0h-5.141v5.142h5.141v-5.142Zm14.986 0H40.42v5.142h5.142v-5.142Zm19.978 0h-5.143v5.142h5.142v-5.142Z"/><path fill="#000" d="M70.53 115.398h-5.14v5.142h5.142v-5.142Z"/><path fill="#000" d="M75.509 115.398h-5.142v5.142h5.142v-5.142Zm9.995 0h-5.142v5.142h5.142v-5.142Zm14.973 0h-5.142v5.142h5.142v-5.142Z"/><path fill="#000" d="M105.469 115.398h-5.142v5.142h5.142v-5.142Z"/><path fill="#000" d="M110.46 115.398h-5.142v5.142h5.142v-5.142Z"/><path fill="#000" d="M115.451 115.398h-5.142v5.142h5.142v-5.142Zm9.982 0h-5.141v5.142h5.141v-5.142Zm14.974 0h-5.141v5.141h5.141v-5.141Zm9.995 0h-5.142v5.142h5.142v-5.142Z"/><path fill="#000" d="M155.393 115.398h-5.142v5.142h5.142v-5.142Zm9.982 0h-5.142v5.142h5.142v-5.142ZM5.62 120.39H.48v5.141h5.142v-5.141Zm9.994 0h-5.141v5.142h5.141v-5.142Zm9.984 0h-5.142v5.142h5.142v-5.142Zm9.982 0h-5.142v5.142h5.141v-5.142Z"/><path fill="#000" d="M40.57 120.39h-5.14v5.142h5.142v-5.142Zm9.983 0H45.41v5.142h5.142v-5.142Z"/><path fill="#000" d="M55.543 120.39h-5.142v5.141h5.142v-5.141Z"/><path fill="#000" d="M60.535 120.39h-5.142v5.141h5.142v-5.141Z"/><path fill="#000" d="M65.54 120.39h-5.143v5.142h5.142v-5.142Z"/><path fill="#000" d="M70.53 120.39h-5.14v5.142h5.142v-5.142Zm14.974 0h-5.142v5.142h5.142v-5.142Zm39.929 0h-5.141v5.141h5.141v-5.141Z"/><path fill="#000" d="M130.425 120.39h-5.142v5.142h5.142v-5.142Z"/><path fill="#000" d="M135.428 120.39h-5.142v5.142h5.142v-5.142Z"/><path fill="#000" d="M140.407 120.39h-5.141v5.141h5.141v-5.141Z"/><path fill="#000" d="M145.399 120.39h-5.142v5.142h5.142v-5.142Z"/><path fill="#000" d="M150.402 120.39h-5.142v5.142h5.142v-5.142Zm9.97 0h-5.142v5.142h5.142v-5.142Z"/><path fill="#000" d="M165.375 120.39h-5.142v5.142h5.142v-5.142Zm-119.813 4.992H40.42v5.141h5.142v-5.141Zm19.978 0h-5.143v5.141h5.142v-5.141Z"/><path fill="#000" d="M70.53 125.382h-5.14v5.141h5.142v-5.141Zm9.97 0h-5.14v5.141h5.14v-5.141Zm9.995 0h-5.142v5.141h5.142v-5.141Z"/><path fill="#000" d="M95.473 125.382h-5.141v5.141h5.141v-5.141Zm9.996 0h-5.142v5.142h5.142v-5.142Zm9.982 0h-5.142v5.141h5.142v-5.141Zm9.982 0h-5.141v5.142h5.141v-5.142Zm19.966 0h-5.142v5.141h5.142v-5.141Z"/><path fill="#000" d="M150.402 125.382h-5.142v5.141h5.142v-5.141Zm9.97 0h-5.142v5.141h5.142v-5.141Z"/><path fill="#000" d="M165.375 125.382h-5.142v5.141h5.142v-5.141Zm-104.84 4.992h-5.142v5.141h5.142v-5.141Z"/><path fill="#000" d="M65.54 130.374h-5.143v5.142h5.142v-5.142Z"/><path fill="#000" d="M70.53 130.374h-5.14v5.142h5.142v-5.142Zm9.97 0h-5.14v5.142h5.14v-5.142Zm34.951 0h-5.142v5.142h5.142v-5.142Z"/><path fill="#000" d="M120.442 130.374H115.3v5.142h5.142v-5.142Z"/><path fill="#000" d="M125.433 130.374h-5.141v5.141h5.141v-5.141Zm9.995 0h-5.142v5.142h5.142v-5.142Zm9.971 0h-5.142v5.142h5.142v-5.142Z"/><path fill="#000" d="M150.402 130.374h-5.142v5.142h5.142v-5.142Zm9.97 0h-5.142v5.142h5.142v-5.142Zm-104.829 4.992h-5.142v5.141h5.142v-5.141Zm14.987 0h-5.14v5.141h5.142v-5.141Z"/><path fill="#000" d="M75.509 135.366h-5.142v5.141h5.142v-5.141Zm9.995 0h-5.142v5.141h5.142v-5.141Z"/><path fill="#000" d="M90.495 135.366h-5.142v5.141h5.142v-5.141Z"/><path fill="#000" d="M95.473 135.366h-5.141v5.141h5.141v-5.141Zm24.969 0H115.3v5.141h5.142v-5.141Z"/><path fill="#000" d="M125.433 135.366h-5.141v5.141h5.141v-5.141Zm19.966 0h-5.142v5.141h5.142v-5.141Z"/><path fill="#000" d="M150.402 135.366h-5.142v5.141h5.142v-5.141Z"/><path fill="#000" d="M155.393 135.366h-5.142v5.141h5.142v-5.141Z"/><path fill="#000" d="M160.372 135.366h-5.142v5.141h5.142v-5.141Z"/><path fill="#000" d="M165.375 135.366h-5.142v5.141h5.142v-5.141Zm-119.813 4.992H40.42v5.141h5.142v-5.141Zm9.981-.001h-5.142v5.142h5.142v-5.142Zm14.987.001h-5.14v5.141h5.142v-5.141Zm14.974 0h-5.142v5.141h5.142v-5.141Zm9.969 0h-5.141v5.141h5.141v-5.141Z"/><path fill="#000" d="M100.477 140.358h-5.142v5.141h5.142v-5.141Z"/><path fill="#000" d="M105.469 140.358h-5.142v5.141h5.142v-5.141Z"/><path fill="#000" d="M110.46 140.358h-5.142v5.141h5.142v-5.141Z"/><path fill="#000" d="M115.451 140.358h-5.142v5.141h5.142v-5.141Zm9.982 0h-5.141v5.141h5.141v-5.141Z"/><path fill="#000" d="M130.425 140.358h-5.142v5.141h5.142v-5.141Z"/><path fill="#000" d="M135.428 140.358h-5.142v5.141h5.142v-5.141Z"/><path fill="#000" d="M140.407 140.357h-5.141v5.142h5.141v-5.142Z"/><path fill="#000" d="M145.399 140.358h-5.142v5.141h5.142v-5.141Zm14.973 0h-5.142v5.141h5.142v-5.141Z"/><path fill="#000" d="M165.375 140.358h-5.142v5.141h5.142v-5.141ZM45.562 145.35H40.42v5.142h5.142v-5.142Zm9.981 0h-5.142v5.142h5.142v-5.142Zm19.966 0h-5.142v5.142h5.142v-5.142Z"/><path fill="#000" d="M80.5 145.35h-5.14v5.142h5.14v-5.142Z"/><path fill="#000" d="M85.504 145.35h-5.142v5.142h5.142v-5.142Zm9.969 0h-5.141v5.142h5.141v-5.142Zm9.996 0h-5.142v5.142h5.142v-5.142Zm14.973 0H115.3v5.142h5.142v-5.142Zm9.983 0h-5.142v5.142h5.142v-5.142Zm14.974 0h-5.142v5.142h5.142v-5.142Z"/><path fill="#000" d="M150.402 145.35h-5.142v5.142h5.142v-5.142Zm9.97 0h-5.142v5.142h5.142v-5.142Zm-114.81 4.992H40.42v5.141h5.142v-5.141Zm24.968 0h-5.14v5.141h5.142v-5.141Zm9.97 0h-5.14v5.141h5.14v-5.141Z"/><path fill="#000" d="M85.504 150.342h-5.142v5.141h5.142v-5.141Zm29.947 0h-5.142v5.141h5.142v-5.141Z"/><path fill="#000" d="M120.442 150.342H115.3v5.141h5.142v-5.141Z"/><path fill="#000" d="M125.433 150.342h-5.141v5.141h5.141v-5.141Z"/><path fill="#000" d="M130.425 150.342h-5.142v5.141h5.142v-5.141Z"/><path fill="#000" d="M135.428 150.342h-5.142v5.141h5.142v-5.141Zm-74.893 4.992h-5.142v5.141h5.142v-5.141Zm29.96-.001h-5.142v5.142h5.142v-5.142Z"/><path fill="#000" d="M95.473 155.333h-5.141v5.142h5.141v-5.142Zm14.987 0h-5.142v5.142h5.142v-5.142Z"/><path fill="#000" d="M115.451 155.333h-5.142v5.142h5.142v-5.142Zm24.956.001h-5.141v5.141h5.141v-5.141Zm9.995-.001h-5.142v5.142h5.142v-5.142Zm-99.849 4.992H45.41v5.142h5.142v-5.142Zm9.982 0h-5.142v5.142h5.142v-5.142Z"/><path fill="#000" d="M65.54 160.325h-5.143v5.142h5.142v-5.142Zm9.969 0h-5.142v5.142h5.142v-5.142Zm9.995 0h-5.142v5.142h5.142v-5.142Zm19.965 0h-5.142v5.142h5.142v-5.142Zm9.982 0h-5.142v5.142h5.142v-5.142Z"/><path fill="#000" d="M120.442 160.325H115.3v5.142h5.142v-5.142Z"/><path fill="#000" d="M125.433 160.325h-5.141v5.142h5.141v-5.142Z"/><path fill="#000" d="M130.425 160.325h-5.142v5.142h5.142v-5.142Zm24.968 0h-5.142v5.142h5.142v-5.142Z"/><path fill="#000" d="M160.372 160.325h-5.142v5.142h5.142v-5.142ZM.472.582v34.944h34.944V.582H.472Zm29.952 29.952H5.464V5.574h24.96v24.96ZM130.293.582v34.944h34.944V.582h-34.944Zm29.952 29.952h-24.96V5.574h24.96v24.96ZM.472 130.374v34.944h34.944v-34.944H.472Zm29.952 29.952H5.464v-24.96h24.96v24.96Z"/><path fill="#000" d="M25.448 10.567H10.472v14.976h14.976V10.567Zm129.784 0h-14.976v14.976h14.976V10.567ZM25.448 140.358H10.472v14.976h14.976v-14.976Z"/><path fill="#436AF5" fill-rule="evenodd" d="M82.449 69.892H65.496l3.099 5.37h10.026v3.55h-7.839l2.552 4.097h5.287v9.011l3.828 6.19V69.892Zm1.367 0h16.953l-3.1 5.37H87.645v3.55h7.747l-2.46 4.097h-5.287v9.011l-3.828 6.19V69.892Z" clip-rule="evenodd"/></svg>