<svg width="20" height="21" fill="none" xmlns="http://www.w3.org/2000/svg"><g clip-path="url(#a)"><mask id="b" style="mask-type:luminance" maskUnits="userSpaceOnUse" x="0" y="0" width="20" height="21"><path d="M10 .369c5.523 0 10 4.477 10 10s-4.477 10-10 10-10-4.477-10-10 4.477-10 10-10Z" fill="#fff"/></mask><g mask="url(#b)"><path d="M0 .369h20v20H0v-20Z" fill="#ECF0FE"/><mask id="c" style="mask-type:luminance" maskUnits="userSpaceOnUse" x="-6" y="-1" width="34" height="24"><path d="M27.11-.256v22.5h-32.4v-22.5h32.4Z" fill="#fff"/></mask><g mask="url(#c)"><path opacity=".9" d="M-.001.369h20v20h-20v-20Z" fill="url(#d)"/></g><mask id="e" style="mask-type:luminance" maskUnits="userSpaceOnUse" x="7" y="3" width="7" height="8"><path d="M10.156 3.181c1.64 0 2.968 1.33 2.968 2.969v2.344c0 .863-.699 1.562-1.562 1.562H8.75c-.863 0-1.563-.7-1.563-1.562V6.15c0-1.64 1.33-2.969 2.969-2.969Z" fill="#fff"/></mask><g mask="url(#e)"><path d="M7.187 3.181h5.937v6.875H7.187V3.181Z" fill="#fff"/></g><mask id="f" style="mask-type:luminance" maskUnits="userSpaceOnUse" x="2" y="10" width="16" height="12"><path d="M10 10.994a7.5 7.5 0 0 1 7.5 7.5v3.437h-15v-3.437a7.5 7.5 0 0 1 7.5-7.5Z" fill="#fff"/></mask><g mask="url(#f)"><path d="M2.5 10.994h15v9.375h-15v-9.375Z" fill="#fff"/></g><mask id="g" style="mask-type:luminance" maskUnits="userSpaceOnUse" x="2" y="10" width="16" height="12"><path d="M10 10.994a7.5 7.5 0 0 1 7.5 7.5v3.437h-15v-3.437a7.5 7.5 0 0 1 7.5-7.5Z" fill="#fff"/></mask><g mask="url(#g)"><path d="M2.5 10.994h15v9.375h-15v-9.375Z" fill="url(#h)"/></g></g></g><defs><linearGradient id="d" x1="27.111" y1=".865" x2="-5.289" y2="23.585" gradientUnits="userSpaceOnUse"><stop stop-color="#B8ABFF"/><stop offset="1" stop-color="#879EF5"/></linearGradient><linearGradient id="h" x1="10.603" y1="27.42" x2="10.603" y2="15.883" gradientUnits="userSpaceOnUse"><stop stop-color="#A5A6FB"/><stop offset="1" stop-color="#fff"/></linearGradient><clipPath id="a"><path fill="#fff" transform="translate(0 .369)" d="M0 0h20v20H0z"/></clipPath></defs></svg>