<svg width="20" height="20" fill="none" xmlns="http://www.w3.org/2000/svg"><g clip-path="url(#a)"><mask id="b" style="mask-type:luminance" maskUnits="userSpaceOnUse" x="0" y="0" width="20" height="20"><path d="M10 0c5.523 0 10 4.477 10 10s-4.477 10-10 10S0 15.523 0 10 4.477 0 10 0Z" fill="#fff"/></mask><g mask="url(#b)"><path d="M0 0h20v20H0V0Z" fill="#ECF0FE"/><mask id="c" style="mask-type:luminance" maskUnits="userSpaceOnUse" x="-6" y="-1" width="34" height="23"><path d="M27.11-.625v22.5h-32.4v-22.5h32.4Z" fill="#fff"/></mask><g mask="url(#c)"><path opacity=".9" d="M0 0h20v20H0V0Z" fill="url(#d)"/></g><mask id="e" style="mask-type:luminance" maskUnits="userSpaceOnUse" x="7" y="2" width="7" height="8"><path d="M10.156 2.813c1.64 0 2.969 1.329 2.969 2.968v2.344c0 .863-.7 1.563-1.563 1.563H8.75c-.863 0-1.563-.7-1.563-1.563V5.781c0-1.64 1.33-2.968 2.97-2.968Z" fill="#fff"/></mask><g mask="url(#e)"><path d="M7.188 2.813h5.937v6.874H7.187V2.814Z" fill="#fff"/></g><mask id="f" style="mask-type:luminance" maskUnits="userSpaceOnUse" x="2" y="10" width="16" height="12"><path d="M10 10.625a7.5 7.5 0 0 1 7.5 7.5v3.438h-15v-3.438a7.5 7.5 0 0 1 7.5-7.5Z" fill="#fff"/></mask><g mask="url(#f)"><path d="M2.5 10.625h15V20h-15v-9.375Z" fill="#fff"/></g><mask id="g" style="mask-type:luminance" maskUnits="userSpaceOnUse" x="2" y="10" width="16" height="12"><path d="M10 10.625a7.5 7.5 0 0 1 7.5 7.5v3.438h-15v-3.438a7.5 7.5 0 0 1 7.5-7.5Z" fill="#fff"/></mask><g mask="url(#g)"><path d="M2.5 10.625h15V20h-15v-9.375Z" fill="url(#h)"/></g></g></g><defs><linearGradient id="d" x1="27.113" y1=".497" x2="-5.287" y2="23.216" gradientUnits="userSpaceOnUse"><stop stop-color="#B8ABFF"/><stop offset="1" stop-color="#879EF5"/></linearGradient><linearGradient id="h" x1="10.604" y1="27.051" x2="10.604" y2="15.515" gradientUnits="userSpaceOnUse"><stop stop-color="#A5A6FB"/><stop offset="1" stop-color="#fff"/></linearGradient><clipPath id="a"><path fill="#fff" d="M0 0h20v20H0z"/></clipPath></defs></svg>