<svg width="16" height="16" viewBox="0 0 16 16" fill="none" xmlns="http://www.w3.org/2000/svg">
<path d="M4.64695 10.02C4.45362 9.82663 4.45362 9.50663 4.64695 9.31329L6.78029 7.17996C6.88695 7.07329 7.02695 7.01996 7.18029 7.03329C7.32695 7.04663 7.46029 7.12663 7.54695 7.25329L8.27362 8.34663L10.6403 5.97996C10.8336 5.78663 11.1536 5.78663 11.347 5.97996C11.5403 6.17329 11.5403 6.49329 11.347 6.68663L8.54695 9.48663C8.44029 9.59329 8.30029 9.64663 8.14695 9.63329C8.00029 9.61996 7.86695 9.53996 7.78029 9.41329L7.05362 8.31996L5.35362 10.02C5.25362 10.12 5.12695 10.1666 5.00029 10.1666C4.87362 10.1666 4.74695 10.12 4.64695 10.02Z" fill="#2A394E"/>
<path d="M10.5003 7.66665V6.83331H9.66699C9.39366 6.83331 9.16699 6.60665 9.16699 6.33331C9.16699 6.05998 9.39366 5.83331 9.66699 5.83331H11.0003C11.2737 5.83331 11.5003 6.05998 11.5003 6.33331V7.66665C11.5003 7.93998 11.2737 8.16665 11.0003 8.16665C10.727 8.16665 10.5003 7.93998 10.5003 7.66665Z" fill="#2A394E"/>
<path fill-rule="evenodd" clip-rule="evenodd" d="M5.99967 15.1666C2.37967 15.1666 0.833008 13.62 0.833008 9.99998V5.99998C0.833008 2.37998 2.37967 0.833313 5.99967 0.833313H9.99967C13.6197 0.833313 15.1663 2.37998 15.1663 5.99998V9.99998C15.1663 13.62 13.6197 15.1666 9.99967 15.1666H5.99967ZM1.83301 5.99998V9.99998C1.83301 13.0733 2.92634 14.1666 5.99967 14.1666H9.99967C13.073 14.1666 14.1663 13.0733 14.1663 9.99998V5.99998C14.1663 2.92665 13.073 1.83331 9.99967 1.83331H5.99967C2.92634 1.83331 1.83301 2.92665 1.83301 5.99998Z" fill="#2A394E"/>
</svg>
