<svg width="16" height="14" viewBox="0 0 16 14" fill="none" xmlns="http://www.w3.org/2000/svg">
<path fill-rule="evenodd" clip-rule="evenodd" d="M8.42786 0.519414L14.9884 3.4245V6.71817H13.8061V9.33243H15.0266V12.187H16V13.4177H0V12.187H1.10745V9.33243H2.38558V6.71817H0.973405V3.41409L8.19873 0.417664L8.42786 0.519414ZM2.30453 12.187H13.8295V10.563H2.30453V12.187ZM3.58266 9.33243H4.92236V6.71977H3.58266V9.33243ZM6.11944 9.33243H7.49732V6.71977H6.11944V9.33243ZM8.6944 9.33243H10.0146V6.71977H8.6944V9.33243ZM11.2117 9.33243H12.6091V6.71977H11.2117V9.33243ZM2.17048 4.24411V5.48755H3.23195V5.48915H13.093V5.48755H13.7913V4.2345L8.18315 1.75003L2.17048 4.24411Z" fill="#2A2A2A"/>
</svg>
