<svg width="16" height="15" viewBox="0 0 16 15" fill="none" xmlns="http://www.w3.org/2000/svg">
<path fill-rule="evenodd" clip-rule="evenodd" d="M4.4878 14.7266C3.90244 14.7266 3.47317 14.7026 3.10634 14.6466C0.515122 14.3586 0 12.7666 0 10.1266V5.32656C0 2.68656 0.515122 1.09456 3.12976 0.798562C3.47317 0.750562 3.90244 0.726562 4.4878 0.726562H11.5122C12.0976 0.726562 12.5268 0.750562 12.8937 0.806562C15.4849 1.09456 16 2.68656 16 5.32656V10.1266C16 12.7666 15.4849 14.3586 12.8702 14.6546C12.5268 14.7026 12.0976 14.7266 11.5122 14.7266H4.4878ZM3.27805 1.99056C1.69366 2.17456 1.17073 2.67856 1.17073 5.32656V10.1266C1.17073 12.7746 1.69366 13.2786 3.25463 13.4626C3.58244 13.5106 3.95707 13.5266 4.4878 13.5266H11.5122C12.0429 13.5266 12.4176 13.5026 12.722 13.4626C14.3063 13.2866 14.8293 12.7746 14.8293 10.1266V5.32656C14.8293 2.67856 14.3063 2.17456 12.7454 1.99056C12.4176 1.94256 12.0429 1.92656 11.5122 1.92656H4.4878C3.95707 1.92656 3.58244 1.95056 3.27805 1.99056Z" fill="#F7F7F7"/>
<path d="M5.73704 6.12676C5.73704 5.68676 6.08046 5.32676 6.51753 5.32676H6.52533C6.9546 5.32676 7.30582 5.68676 7.30582 6.12676C7.30582 6.56676 6.9546 6.92676 6.51753 6.92676C6.08826 6.92676 5.73704 6.56676 5.73704 6.12676Z" fill="#F7F7F7"/>
<path d="M3.39558 6.12676C3.39558 5.68676 3.73899 5.32676 4.17607 5.32676C4.60534 5.32676 4.95655 5.68676 4.95655 6.12676C4.95655 6.56676 4.61314 6.92676 4.17607 6.92676C3.7468 6.92676 3.39558 6.56676 3.39558 6.12676Z" fill="#F7F7F7"/>
<path d="M4.11451 11.127C3.79451 11.127 3.52134 10.855 3.52134 10.527C3.52134 10.199 3.7789 9.92695 4.0989 9.92695H11.9038C12.2238 9.92695 12.4891 10.199 12.4891 10.527C12.4891 10.855 12.2238 11.127 11.9038 11.127H4.11451Z" fill="#F7F7F7"/>
</svg>
