<svg width="16" height="16" viewBox="0 0 16 16" fill="none" xmlns="http://www.w3.org/2000/svg">
<path fill-rule="evenodd" clip-rule="evenodd" d="M6.51176 3.96754L6.7713 4.32436L5.42151 6.67425C5.46871 6.80963 5.53919 6.99467 5.64133 7.21081C5.87058 7.69593 6.24991 8.33031 6.84634 8.92851C7.47922 9.56327 8.15128 9.97976 8.66577 10.2372C8.89826 10.3535 9.09661 10.4363 9.24135 10.4913L11.1941 9.36413L11.5781 9.1419L16 12.4126L15.7078 12.9359C14.98 14.24 14.0489 15.1739 12.7487 15.9038L12.6092 15.9826L12.4485 15.9897C8.61826 16.1653 5.33155 14.076 3.12537 11.5024C2.01796 10.2105 1.16082 8.7735 0.62707 7.38878C0.0981526 6.01642 -0.135681 4.63601 0.0797395 3.47968L0.101809 3.36369L0.160956 3.26186C0.89581 1.99554 1.84611 1.05079 3.10242 0.311666L3.63209 0L6.51176 3.96754ZM3.2728 1.81598C2.501 2.35773 1.89348 3.01138 1.39422 3.84181C1.2753 4.6461 1.43481 5.71169 1.89211 6.89826C2.36658 8.12919 3.1405 9.43402 4.15382 10.6161C6.15608 12.9518 9.01152 14.7212 12.2269 14.635C13.0606 14.1438 13.6913 13.5564 14.2123 12.7801L11.4872 10.764L9.40731 11.9655L9.13541 11.8902L9.13276 11.8893H9.131C9.12921 11.8888 9.12638 11.8883 9.12394 11.8876C9.1189 11.8861 9.11235 11.8837 9.10452 11.8814C9.08846 11.8766 9.06627 11.8696 9.03919 11.861C8.98485 11.8437 8.90862 11.8186 8.81496 11.784C8.6273 11.7146 8.36625 11.6077 8.06017 11.4546C7.44925 11.149 6.64789 10.6526 5.88762 9.89007C5.15675 9.15701 4.695 8.38375 4.41601 7.79341C4.27622 7.49758 4.18057 7.2449 4.11939 7.06294C4.08886 6.97212 4.06733 6.8982 4.0523 6.84513C4.04484 6.81878 4.03877 6.79725 4.03465 6.78138C4.0326 6.7735 4.03062 6.76615 4.02935 6.76102C4.02878 6.75871 4.02758 6.75482 4.02758 6.75482V6.75216L4.0267 6.75128L3.9649 6.48743L5.15579 4.41113L3.2728 1.81598Z" fill="#2A2A2A"/>
</svg>
