<svg width="16" height="16" viewBox="0 0 16 16" fill="none" xmlns="http://www.w3.org/2000/svg">
<path fill-rule="evenodd" clip-rule="evenodd" d="M8 0C12.4186 0 16 3.58143 16 8C16 12.4186 12.4186 16 8 16C3.58143 16 0 12.4186 0 8C0 3.58143 3.58143 0 8 0ZM3.67188 13.2453C4.84766 14.2166 6.35566 14.8 8 14.8C9.61194 14.8 11.0917 14.2379 12.257 13.3008L10.1664 11.1758C9.54934 11.5975 8.80389 11.8453 8 11.8453C7.18119 11.8453 6.42283 11.5885 5.79922 11.1523L3.67188 13.2453ZM11.1961 5.8625C11.6057 6.47383 11.8453 7.20878 11.8453 8C11.8453 8.88659 11.5439 9.70194 11.0398 10.3523L13.1219 12.4695C14.1658 11.2742 14.8 9.71183 14.8 8C14.8 6.40222 14.248 4.93405 13.3258 3.77344L11.1961 5.8625ZM2.78047 3.64141C1.79392 4.82159 1.2 6.34131 1.2 8C1.2 9.67919 1.80943 11.2153 2.81797 12.4016L4.93438 10.3203C4.44546 9.67533 4.15469 8.87183 4.15469 8C4.15469 7.16649 4.42054 6.39546 4.87109 5.76562L2.78047 3.64141ZM8 5.35469C6.53891 5.35469 5.35469 6.53891 5.35469 8C5.35469 9.46109 6.53891 10.6453 8 10.6453C9.46109 10.6453 10.6453 9.46109 10.6453 8C10.6453 6.53891 9.46109 5.35469 8 5.35469ZM8 1.2C6.33513 1.2 4.81016 1.79825 3.62812 2.79141L5.71172 4.90938C6.35112 4.43521 7.14276 4.15469 8 4.15469C8.89962 4.15469 9.72627 4.46454 10.3813 4.98203L12.4992 2.90313C11.3002 1.84395 9.72579 1.2 8 1.2Z" fill="#2A2A2A"/>
</svg>
