<svg width="12" height="16" viewBox="0 0 12 16" fill="none" xmlns="http://www.w3.org/2000/svg">
<path d="M7.65696 16.0004H4.34304V14.7251H7.65696V16.0004Z" fill="#2A2A2A"/>
<path d="M8.69256 14.2934H3.30744V13.0182H8.69256V14.2934Z" fill="#2A2A2A"/>
<path d="M6 0.000366211C9.31385 0.000366211 12 2.75676 12 6.15728C12 8.56515 10.6533 10.6487 8.69256 11.6608V12.5334H7.44984V10.6737H7.84142C9.56253 9.93373 10.7702 8.1896 10.7702 6.15728C10.7702 3.454 8.63438 1.2623 6 1.2623C3.36562 1.2623 1.22977 3.454 1.22977 6.15728C1.22977 8.1896 2.43747 9.93373 4.15858 10.6737H4.55016V12.5334H3.30744V11.6608C1.34672 10.6487 0 8.56515 0 6.15728C0 2.75676 2.68615 0.000366211 6 0.000366211Z" fill="#2A2A2A"/>
</svg>
