<svg width="16" height="16" viewBox="0 0 16 16" fill="none" xmlns="http://www.w3.org/2000/svg">
<path d="M7.37859 11.6842H2.67076V10.4214H7.37859V11.6842Z" fill="#2A2A2A"/>
<path d="M13.2722 5.59134H8.56432V4.32854H13.2722V5.59134Z" fill="#2A2A2A"/>
<path fill-rule="evenodd" clip-rule="evenodd" d="M7.30357 1.49873C9.22405 -0.437225 12.3059 -0.497758 14.2989 1.31786L14.4881 1.49956C15.4819 2.50137 15.9772 3.81381 15.9763 5.12437C15.9757 5.93774 15.9818 7.05608 15.9877 7.97143C15.9907 8.42863 15.9936 8.83533 15.9959 9.12736C15.997 9.2732 15.9985 9.39096 15.9992 9.47184C15.9995 9.51205 15.9998 9.54359 16 9.56474V9.5968C16.0025 9.89329 15.7998 10.1514 15.5131 10.2175L15.5123 10.2183C15.5115 10.2185 15.5095 10.2189 15.5082 10.2192C15.5055 10.2198 15.5015 10.2206 15.4968 10.2216C15.4872 10.2238 15.4733 10.227 15.456 10.2307C15.4214 10.2381 15.3714 10.248 15.3084 10.2603C15.1825 10.2847 15.0025 10.3169 14.7816 10.3499C14.3408 10.4157 13.7301 10.4855 13.0536 10.497C12.1667 10.5122 11.0805 10.4298 10.1162 10.0473C10.3708 11.6198 9.89762 13.288 8.69643 14.4992C7.67514 15.5288 6.32931 16.0279 4.9941 15.9988C4.20667 15.9816 3.11745 15.9796 2.22142 15.9815C1.7744 15.9825 1.3769 15.9847 1.09115 15.9865C0.948367 15.9874 0.83348 15.9875 0.754353 15.9881C0.714797 15.9884 0.683716 15.9888 0.663018 15.9889C0.653056 15.989 0.645397 15.9897 0.640185 15.9898H0.63203C0.464066 15.9913 0.302319 15.9245 0.183509 15.8048C0.0647624 15.685 -0.00142921 15.5219 2.34145e-05 15.3526V15.3205C0.000201817 15.2994 0.000508187 15.2678 0.000838907 15.2276C0.00150534 15.1468 0.00296597 15.029 0.00410087 14.8832C0.00637363 14.5911 0.00927595 14.1844 0.0122558 13.7272C0.0182214 12.8119 0.0242717 11.6935 0.0236727 10.8802C0.0228601 9.56962 0.518095 8.25715 1.51195 7.25535L1.70114 7.07366C2.85935 6.01849 4.38528 5.59801 5.83732 5.81003V5.75577C5.83734 3.77339 6.34145 2.4688 7.30357 1.49873ZM7.8108 8.14737C6.36416 6.68916 4.04146 6.64394 2.54028 8.01172L2.39757 8.14819C1.6482 8.90352 1.27566 9.89039 1.27627 10.8793C1.27687 11.6977 1.27082 12.8198 1.26485 13.7354C1.26241 14.1103 1.25958 14.4512 1.25751 14.7228C1.52297 14.7213 1.85457 14.7195 2.21898 14.7187C3.11575 14.7168 4.21749 14.7185 5.02101 14.736C6.02879 14.758 7.04085 14.3826 7.8108 13.6064C9.30426 12.1005 9.30688 9.65581 7.8108 8.14737ZM13.4597 2.25592C11.9585 0.88813 9.63583 0.933319 8.18919 2.39158C7.52125 3.06504 7.08994 4.01303 7.08991 5.75577V6.16108C7.67386 6.41047 8.22076 6.77504 8.69643 7.25453C8.91153 7.47141 9.10211 7.70391 9.27054 7.94677L9.70438 8.34633C10.4673 9.04857 11.7712 9.25574 13.0324 9.23424C13.6403 9.22387 14.1948 9.16131 14.5981 9.10105C14.6492 9.09342 14.6975 9.0838 14.7433 9.07639C14.7411 8.78953 14.7379 8.4067 14.7351 7.97966C14.7292 7.06404 14.7231 5.94191 14.7237 5.12354C14.7243 4.13458 14.3518 3.14774 13.6024 2.3924L13.4597 2.25592Z" fill="#2A2A2A"/>
</svg>
