<svg width="16" height="16" viewBox="0 0 16 16" fill="none" xmlns="http://www.w3.org/2000/svg">
<path fill-rule="evenodd" clip-rule="evenodd" d="M9.45312 7.25156L12.2164 7.7125L5.47031 12.2328L6.28906 8.4125L5.53672 8.08984L4.54297 7.66484L10.2383 3.69219L9.45312 7.25156ZM7.00156 7.41172L7.21563 7.50391L7.66953 7.69844L7.26406 9.58516L9.03594 8.39844L8.00938 8.22734L8.40469 6.43359L7.00156 7.41172Z" fill="#2A2A2A"/>
<path fill-rule="evenodd" clip-rule="evenodd" d="M8 0C12.4186 0 16 3.58143 16 8C16 12.4186 12.4186 16 8 16C3.58143 16 0 12.4186 0 8C0 3.58143 3.58143 0 8 0ZM8 1.2C4.24417 1.2 1.2 4.24417 1.2 8C1.2 11.7558 4.24417 14.8 8 14.8C11.7558 14.8 14.8 11.7558 14.8 8C14.8 4.24417 11.7558 1.2 8 1.2Z" fill="#2A2A2A"/>
</svg>
