<svg width="25" height="25" viewBox="0 0 25 25" fill="none" xmlns="http://www.w3.org/2000/svg">
<path d="M9.41155 11.6017C10.6808 10.3331 12.7387 10.3327 14.0077 11.6017L12.9471 12.6624C12.2639 11.9792 11.1557 11.9796 10.4722 12.6624L8.54839 14.5862C7.86497 15.2696 7.86497 16.3777 8.54839 17.0611C9.23182 17.7443 10.3399 17.7444 11.0233 17.0611L12.5155 15.5688L13.5762 16.6295L12.0839 18.1218C10.8148 19.3909 8.75695 19.3907 7.48773 18.1218C6.21852 16.8525 6.21852 14.7948 7.48773 13.5256L9.41155 11.6017Z" fill="#6D6D6D"/>
<path d="M13.2413 7.77203C14.5105 6.50283 16.5682 6.50283 17.8374 7.77203C19.1065 9.04124 19.1066 11.0991 17.8374 12.3682L15.9136 14.292C14.6444 15.5609 12.5865 15.561 11.3174 14.292L12.3781 13.2314C13.0614 13.9146 14.1696 13.9144 14.853 13.2314L16.7768 11.3076C17.4602 10.6242 17.4601 9.51611 16.7768 8.83269C16.0934 8.14927 14.9853 8.14927 14.3019 8.83269L12.8097 10.3249L11.749 9.26427L13.2413 7.77203Z" fill="#6D6D6D"/>
<path fill-rule="evenodd" clip-rule="evenodd" d="M22.4999 2.78499V22.7842L2.5 22.7849V2.7843L22.4999 2.78499ZM3.99984 21.2851L21.0001 21.2844V4.28483L3.99984 4.28414V21.2851Z" fill="#6D6D6D"/>
</svg>
