<svg width="25" height="25" viewBox="0 0 25 25" fill="none" xmlns="http://www.w3.org/2000/svg">
<path d="M22.4999 2.94185V22.9411L2.5 22.9418V2.94116L22.4999 2.94185ZM7.48773 13.6824C6.21856 14.9516 6.21864 17.0094 7.48773 18.2786C8.75693 19.5478 10.8147 19.5478 12.0839 18.2786L13.5762 16.7864L12.5155 15.7257L11.0233 17.218C10.3398 17.9014 9.2318 17.9014 8.54839 17.218C7.86509 16.5345 7.86501 15.4265 8.54839 14.7431L10.4722 12.8193C11.1556 12.1363 12.2638 12.1361 12.9471 12.8193L14.0077 11.7586C12.7387 10.4897 10.6808 10.4899 9.41155 11.7586L7.48773 13.6824ZM11.749 9.42113L12.8097 10.4818L14.3019 8.98955C14.9853 8.30624 16.0934 8.30617 16.7768 8.98955C17.4602 9.67293 17.4601 10.781 16.7768 11.4644L14.853 13.3883C14.1695 14.0713 13.0614 14.0716 12.3781 13.3883L11.3174 14.4489C12.5865 15.718 14.6444 15.7178 15.9136 14.4489L17.8375 12.5251C19.1065 11.2559 19.1066 9.19805 17.8375 7.92889C16.5683 6.65972 14.5105 6.6598 13.2413 7.92889L11.749 9.42113Z" fill="#2A2A2A"/>
</svg>
