<svg width="25" height="25" viewBox="0 0 25 25" fill="none" xmlns="http://www.w3.org/2000/svg">
<path d="M15.9414 7.65686V9.15686H8.37207V7.65686H15.9414Z" fill="#6D6D6D"/>
<path d="M21.873 2.15686V22.1569H7.37695C5.30589 22.1569 3.62695 20.4779 3.62695 18.4069V2.15686H21.873ZM5.12695 18.4069C5.12695 19.6495 6.13431 20.6569 7.37695 20.6569H20.373V3.65686H5.12695V18.4069Z" fill="#6D6D6D"/>
<path d="M21 15.4069V16.9069H7.45996L7.24805 16.9166C6.21112 17.012 5.5 17.7956 5.5 18.6227C5.50096 19.5055 6.31005 20.3379 7.45996 20.3385H21V21.8385H7.45898C5.61724 21.8375 4.00124 20.4633 4 18.6227L4.00488 18.4518C4.10128 16.6968 5.67513 15.4079 7.45898 15.4069H21Z" fill="#6D6D6D"/>
</svg>
