<svg width="24" height="25" viewBox="0 0 24 25" fill="none" xmlns="http://www.w3.org/2000/svg">
<path d="M16.1094 5.69991H21.9951V13.6749L21.7334 13.8331L21.3125 21.9206H2.78809L2.36816 13.896L2.00488 13.6749V5.69991H7.89062L8.81152 3.49016L9.00781 3.02063H14.9932L16.1094 5.69991ZM20.8662 12.5563C18.5348 13.9735 15.4186 14.8482 11.9951 14.8482C8.57206 14.8482 5.46555 13.9737 3.13379 12.5563L2.37598 13.901C4.78742 15.3669 7.88108 16.2744 11.25 16.3917V19.0406H12.75V16.3907C16.1159 16.272 19.2147 15.3656 21.624 13.901L20.8662 12.5563ZM9.52539 5.69991H14.4746L14.0068 4.57831H9.99316L9.52539 5.69991Z" fill="#2A2A2A"/>
</svg>
