<svg width="24" height="25" viewBox="0 0 24 25" fill="none" xmlns="http://www.w3.org/2000/svg">
<path d="M11.25 14.0963H12.75V18.1334H11.25V14.0963Z" fill="#6D6D6D"/>
<path d="M21.9951 5.28674V12.9664L21.624 13.1842C19.0355 14.6994 15.6515 15.5963 11.9951 15.5963C8.33827 15.5963 4.96419 14.6992 2.37598 13.1842L2.00488 12.9664V5.28674H21.9951ZM3.50488 12.0963C5.79057 13.3379 8.75006 14.0963 11.9951 14.0963C15.2406 14.0963 18.2088 13.3378 20.4951 12.0963V6.78674H3.50488V12.0963Z" fill="#6D6D6D"/>
<path d="M14.9932 2.70667L16.4863 6.15881L15.1094 6.75452L14.0068 4.20667H9.99316L8.89062 6.75452L7.51367 6.15881L8.81152 3.15881L9.00781 2.70667H14.9932Z" fill="#6D6D6D"/>
<path d="M21.9951 14.6264L21.7559 21.6069H2.24316L2.00391 14.6264L3.50293 14.5747L3.69336 20.1069H20.3066L20.4961 14.5747L21.9951 14.6264Z" fill="#6D6D6D"/>
</svg>
