<?xml version="1.0" encoding="UTF-8"?>
<svg viewBox="0 0 16 17" xmlns="http://www.w3.org/2000/svg">
<path d="m2.5498 11.381h0.9576v3.7463h-0.9576v-3.7463zm0-9.0537h0.9576v7.8049h-0.9576v-7.8049z" fill="#F7F7F7"/>
<path d="m4.4733 9.3518v2.8097h-2.8728v-2.8097h2.8728zm-1.9152 1.8732h0.9576v-0.9366h-0.9576v0.9366z" fill="#F7F7F7"/>
<path d="m12.492 11.225h0.9576v3.9024h-0.9576v-3.9024zm0-8.8976h0.9576v7.9805h-0.9576v-7.9805z" fill="#F7F7F7"/>
<path d="m14.4 9.3518v2.8097h-2.8728v-2.8097h2.8728zm-1.9152 1.8732h0.9576v-0.9366h-0.9576v0.9366z" fill="#F7F7F7"/>
<path d="m7.5207 6.3859h0.95761v8.7415h-0.95761v-8.7415zm0-4.0585h0.95761v2.7902h-0.95761v-2.7902z" fill="#F7F7F7"/>
<path d="m9.4401 4.3567v2.8098h-2.8728v-2.8098h2.8728zm-1.9152 1.8732h0.95761v-0.93658h-0.95761v0.93658z" fill="#F7F7F7"/>
</svg>
