<svg width="20" height="20" viewBox="0 0 20 20" fill="none" xmlns="http://www.w3.org/2000/svg"><path fill-rule="evenodd" clip-rule="evenodd" d="M1.041 10c0 4.942 4.017 8.959 8.958 8.959 4.942 0 8.959-4.017 8.959-8.958 0-4.942-4.017-8.959-8.959-8.959S1.041 5.06 1.041 10.001m1.25 0c0-4.25 3.458-7.708 7.708-7.708s7.709 3.459 7.709 7.709-3.459 7.708-7.709 7.708-7.708-3.458-7.708-7.708" fill="#BFC3CA"/><path d="M10.607 6.617 7.666 9.558a.63.63 0 0 0 0 .883l2.941 2.942a.63.63 0 0 0 .884 0 .63.63 0 0 0 0-.883L8.99 10l2.5-2.5a.63.63 0 0 0 0-.883.6.6 0 0 0-.442-.184.62.62 0 0 0-.442.184" fill="#BFC3CA"/></svg>