<svg width="16" height="16" viewBox="0 0 16 16" fill="none" xmlns="http://www.w3.org/2000/svg"><rect x=".5" y=".5" width="15" height="15" rx="7.5" stroke="#6A7483"/><path d="M7.009 6.136H4.417v1.368q.168-.207.48-.336.313-.135.664-.136.64 0 1.048.28t.592.72q.184.433.184.928 0 .92-.528 1.48-.52.56-1.488.56-.912 0-1.456-.456a1.7 1.7 0 0 1-.616-1.192h1.088a.87.87 0 0 0 .32.512q.256.192.648.192.472 0 .712-.296.24-.295.24-.784 0-.495-.248-.752-.24-.264-.712-.264a.9.9 0 0 0-.56.168.9.9 0 0 0-.32.448H3.393V5.152h3.616zM11.71 11 10.5 9.12 9.405 11H8.141l1.76-2.816-1.784-2.768h1.288l1.208 1.872 1.088-1.872h1.264l-1.752 2.808L12.997 11z" fill="#6A7483"/></svg>