<svg width="16" height="16" viewBox="0 0 16 16" fill="none" xmlns="http://www.w3.org/2000/svg"><path fill-rule="evenodd" clip-rule="evenodd" d="M4.173 15.167a3.007 3.007 0 0 1-3.007-3.007V7.673a3.007 3.007 0 0 1 3.007-3.006h7.653a3.007 3.007 0 0 1 3.007 3.006v.96c0 .274-.227.5-.5.5h-1.347a.82.82 0 0 0-.6.247l-.007.007a.84.84 0 0 0-.253.68c.04.44.46.793.94.793h1.267c.273 0 .5.227.5.5v.793a3.01 3.01 0 0 1-3.007 3.014zM2.166 7.673v4.487c0 1.107.9 2.007 2.007 2.007h7.653c1.107 0 2.007-.9 2.007-2.007v-.293h-.767c-1.007 0-1.86-.747-1.94-1.707a1.82 1.82 0 0 1 .547-1.48 1.82 1.82 0 0 1 1.313-.547h.847v-.46c0-1.106-.9-2.006-2.007-2.006H4.173c-1.107 0-2.007.9-2.007 2.006" fill="#6A7483"/><path d="M1.166 8.273V5.227A2.42 2.42 0 0 1 2.719 2.98l5.294-2a1.75 1.75 0 0 1 1.626.2c.48.333.76.873.76 1.453v2.534c0 .273-.226.5-.5.5a.504.504 0 0 1-.5-.5V2.633A.76.76 0 0 0 9.066 2a.75.75 0 0 0-.707-.087l-5.293 2c-.54.207-.907.734-.907 1.314v3.046a.49.49 0 0 1-.493.5.504.504 0 0 1-.5-.5" fill="#6A7483"/><path fill-rule="evenodd" clip-rule="evenodd" d="M11.128 10.16a1.83 1.83 0 0 1 .546-1.487c.34-.346.807-.54 1.307-.54h1.387c.66.02 1.166.54 1.166 1.18v1.374c0 .64-.506 1.16-1.146 1.18h-1.32c-1.007 0-1.86-.747-1.94-1.707m1.86-1.027a.82.82 0 0 0-.6.247.84.84 0 0 0-.26.693c.04.44.46.794.94.794h1.306c.087 0 .167-.08.167-.18V9.313c0-.1-.08-.173-.187-.18z" fill="#6A7483"/><path d="M4.666 8.5a.504.504 0 0 1-.5-.5c0-.273.227-.5.5-.5h4.667c.273 0 .5.227.5.5s-.227.5-.5.5z" fill="#6A7483"/></svg>