<svg width="16" height="16" viewBox="0 0 16 16" fill="none" xmlns="http://www.w3.org/2000/svg"><path d="M6.332 11.166a.504.504 0 0 1-.5-.5c0-.273.227-.5.5-.5h3.333c.274 0 .5.227.5.5s-.226.5-.5.5z" fill="#6A7483"/><path fill-rule="evenodd" clip-rule="evenodd" d="M3.114 6.827a.5.5 0 0 1-.106-.546l1.24-2.96c.026-.06.04-.1.06-.134C5.294.914 6.554.361 8.78 1.214a.503.503 0 0 1 .28.667L7.108 6.414c-.08.18-.26.3-.46.3h-1.9q-.568 0-1.087.22a.5.5 0 0 1-.193.04.52.52 0 0 1-.354-.147m2.1-3.226c-.006.02-.02.04-.026.06l-.874 2.073c.147-.013.287-.02.434-.02h1.566L7.921 1.98a2.8 2.8 0 0 0-.847-.147c-.826 0-1.333.54-1.86 1.767" fill="#6A7483"/><path fill-rule="evenodd" clip-rule="evenodd" d="M12.048 6.826a2.8 2.8 0 0 0-.8-.113h-4.6a.51.51 0 0 1-.42-.227.52.52 0 0 1-.04-.473l1.933-4.487c.1-.24.387-.4.64-.32.08.027.154.06.234.094l1.573.66c.92.38 1.534.78 1.934 1.26q.118.141.206.293c.073.113.14.253.187.393.02.047.053.134.073.227.187.627.094 1.407-.306 2.407a.51.51 0 0 1-.614.286m-.793-1.113q.318.002.627.053c.186-.58.226-1.026.12-1.386-.014-.06-.027-.087-.034-.114a1.2 1.2 0 0 0-.1-.22c-.046-.073-.08-.133-.133-.193-.287-.347-.793-.667-1.547-.973l-1.32-.554-1.46 3.387z" fill="#6A7483"/><path fill-rule="evenodd" clip-rule="evenodd" d="M5.4 15.166a5 5 0 0 1-.533-.033c-2.34-.16-3.674-1.493-3.834-3.86A4 4 0 0 1 1 10.766v-1.3c0-1.5.893-2.853 2.273-3.453.467-.2.967-.3 1.48-.3h6.507c.38 0 .747.053 1.087.16a3.78 3.78 0 0 1 2.666 3.593v1.3q-.001.22-.013.42c-.147 2.607-1.667 3.98-4.4 3.98zM3.66 6.933a2.76 2.76 0 0 0-1.667 2.533v1.3c0 .14.014.28.027.414.127 1.9 1.06 2.833 2.933 2.96.167.02.3.033.44.033h5.2c2.2 0 3.28-.967 3.387-3.033.007-.12.013-.24.013-.374v-1.3a2.78 2.78 0 0 0-1.953-2.64 2.8 2.8 0 0 0-.8-.113H4.747q-.568 0-1.087.22" fill="#6A7483"/><path fill-rule="evenodd" clip-rule="evenodd" d="M.992 9.467V7.513c0-2.1 1.487-3.913 3.54-4.313a.52.52 0 0 1 .487.173c.113.14.147.34.073.507L3.926 6.667a.53.53 0 0 1-.26.266 2.76 2.76 0 0 0-1.667 2.534.51.51 0 0 1-.507.5.504.504 0 0 1-.5-.5m1.074-2.62a3.6 3.6 0 0 1 1.02-.74l.646-1.56a3.4 3.4 0 0 0-1.666 2.3m11.939 2.62a2.78 2.78 0 0 0-1.953-2.64.496.496 0 0 1-.32-.66c.313-.78.393-1.347.266-1.787-.013-.06-.026-.087-.033-.113a.501.501 0 0 1 .687-.647 4.38 4.38 0 0 1 2.353 3.893v1.954c0 .273-.227.5-.5.5a.504.504 0 0 1-.5-.5m-.067-2.614a3.34 3.34 0 0 0-.9-1.713q-.048.42-.207.92c.42.193.794.467 1.107.793" fill="#6A7483"/></svg>