<svg width="10" height="12" viewBox="0 0 10 12" fill="none" xmlns="http://www.w3.org/2000/svg">
<path id="Union" d="M4.94111 10.5109L4.56561 10.1808L4.44111 10.3224V10.5109H4.94111ZM4.94111 10.5113L5.31663 10.8414L5.44111 10.6998V10.5113H4.94111ZM4.50777 11.0042L4.88295 11.3347L4.88329 11.3343L4.50777 11.0042ZM3.41361 6.69252H3.91361V6.19252H3.41361V6.69252ZM1.27402 5.65793L1.64832 5.98945L1.64953 5.98808L1.27402 5.65793ZM4.94084 1.48741L5.31634 1.81756L5.44084 1.67596V1.48741H4.94084ZM4.94084 1.48709L4.56532 1.15696L4.44084 1.29856V1.48709H4.94084ZM5.37417 0.994171L4.99899 0.663656L4.99865 0.664043L5.37417 0.994171ZM6.46834 5.30584H5.96834V5.80584H6.46834V5.30584ZM8.60792 6.34042L8.23362 6.0089L8.23242 6.01027L8.60792 6.34042ZM4.44111 10.5109V10.5113H5.44111V10.5109H4.44111ZM4.56559 10.1811L4.13225 10.6741L4.88329 11.3343L5.31663 10.8414L4.56559 10.1811ZM4.13259 10.6737C4.00797 10.8151 3.91444 10.8815 3.86199 10.9073C3.81167 10.9322 3.84153 10.9014 3.91096 10.9274C3.98066 10.9536 3.98323 10.9969 3.96212 10.9458C3.94002 10.8923 3.91361 10.7811 3.91361 10.5925H2.91361C2.91361 10.8589 2.94881 11.112 3.03792 11.3277C3.12802 11.5457 3.2914 11.763 3.55948 11.8636C3.82729 11.9642 4.09312 11.9084 4.30432 11.8042C4.5134 11.7011 4.70696 11.5345 4.88295 11.3347L4.13259 10.6737ZM3.91361 10.5925V6.69252H2.91361V10.5925H3.91361ZM3.41361 6.19252H1.73986V7.19252H3.41361V6.19252ZM1.73986 6.19252C1.59701 6.19252 1.51554 6.16997 1.47892 6.15374C1.4464 6.13932 1.47041 6.14076 1.4894 6.18285C1.50844 6.22503 1.49363 6.2442 1.50429 6.21058C1.51633 6.1726 1.55338 6.09665 1.64832 5.98945L0.89973 5.32642C0.60925 5.65438 0.367567 6.12804 0.577914 6.59417C0.788033 7.05979 1.30256 7.19252 1.73986 7.19252V6.19252ZM1.64953 5.98808L5.31634 1.81756L4.56533 1.15726L0.898522 5.32779L1.64953 5.98808ZM5.44084 1.48741V1.48709H4.44084V1.48741H5.44084ZM5.31636 1.81722L5.74969 1.3243L4.99865 0.664043L4.56532 1.15696L5.31636 1.81722ZM5.74935 1.32469C5.87398 1.18322 5.96751 1.11689 6.01995 1.09102C6.07027 1.0662 6.04041 1.09698 5.97099 1.07092C5.90128 1.04475 5.89871 1.00149 5.91982 1.05258C5.94193 1.10608 5.96834 1.21724 5.96834 1.40584H6.96834C6.96834 1.13944 6.93313 0.886323 6.84403 0.670687C6.75393 0.452632 6.59054 0.235365 6.32246 0.134718C6.05465 0.0341753 5.78882 0.0900039 5.57762 0.19417C5.36854 0.297288 5.17499 0.463877 4.99899 0.663656L5.74935 1.32469ZM5.96834 1.40584V5.30584H6.96834V1.40584H5.96834ZM6.46834 5.80584H8.14209V4.80584H6.46834V5.80584ZM8.14209 5.80584C8.28493 5.80584 8.36641 5.82839 8.40302 5.84462C8.43554 5.85903 8.41153 5.8576 8.39254 5.81551C8.37351 5.77333 8.38831 5.75416 8.37766 5.78778C8.36562 5.82576 8.32857 5.90171 8.23363 6.0089L8.98221 6.67194C9.27269 6.34398 9.51438 5.87032 9.30403 5.40419C9.09391 4.93856 8.57938 4.80584 8.14209 4.80584V5.80584ZM8.23242 6.01027L4.56561 10.1808L5.31661 10.8411L8.98342 6.67057L8.23242 6.01027Z" fill="#2A394E"/>
</svg>
