<?xml version="1.0" encoding="UTF-8"?>
<svg width="16px" height="15px" viewBox="0 0 16 15" version="1.1" xmlns="http://www.w3.org/2000/svg" xmlns:xlink="http://www.w3.org/1999/xlink">
    <title>1400126D-334C-42EE-A2D7-65573DB60B88</title>
    <g id="⚙️icons" stroke="none" stroke-width="1" fill="none" fill-rule="evenodd">
        <g id="Design-System/Icons" transform="translate(-367.000000, -3347.000000)" fill="#6A7483">
            <g id="bank" transform="translate(367.000000, 3347.000000)">
                <path d="M1.83333333,6.93498548 C1.19333335,6.93498548 0.666666667,6.4083188 0.666666667,5.76831881 L0.666666667,3.5549806 C0.666666667,3.10164726 0.979983727,2.64165036 1.39998372,2.47498369 L7.39998372,0.075000003 C7.65331705,-0.025000001 8.01334961,-0.025000001 8.26668294,0.075000003 L14.2666829,2.47498369 C14.6866829,2.64165036 15,3.10831392 15,3.5549806 L15,5.76831881 C15,6.4083188 14.4733333,6.93498548 13.8333333,6.93498548 L1.83333333,6.93498548 Z M7.76668294,1.00163571 L1.77331543,3.40166028 C1.73331543,3.42166028 1.66666667,3.50831393 1.66666667,3.5549806 L1.66666667,5.76831881 C1.66666667,5.86165215 1.74,5.93498548 1.83333333,5.93498548 L13.8333333,5.93498548 C13.9266667,5.93498548 14,5.86165215 14,5.76831881 L14,3.5549806 C14,3.50831393 13.9400179,3.42166028 13.8933512,3.40166028 L7.89335124,1.00163571 C7.8800179,0.994969044 7.86,0.995003223 7.83333333,0.995003223 C7.80666667,0.995003223 7.78001628,0.994969044 7.76668294,1.00163571 Z" id="Vector"></path>
                <path d="M1.16666667,14.2682292 C0.893333336,14.2682292 0.666666667,14.0415625 0.666666667,13.7682292 L0.666666667,11.7682292 C0.666666667,11.1282292 1.19333335,10.6015625 1.83333333,10.6015625 L13.8333333,10.6015625 C14.4733333,10.6015625 15,11.1282292 15,11.7682292 L15,13.7682292 C15,14.0415625 14.7733333,14.2682292 14.5,14.2682292 L1.16666667,14.2682292 Z M14,13.2682292 L14,11.7682292 C14,11.6748958 13.9266667,11.6015625 13.8333333,11.6015625 L1.83333333,11.6015625 C1.74,11.6015625 1.66666667,11.6748958 1.66666667,11.7682292 L1.66666667,13.2682292 L14,13.2682292 Z" id="Vector"></path>
                <path d="M2,11.1015625 L2,6.43489583 C2,6.1615625 2.22666667,5.93489583 2.5,5.93489583 C2.77333333,5.93489583 3,6.1615625 3,6.43489583 L3,11.1015625 C3,11.3748958 2.77333333,11.6015625 2.5,11.6015625 C2.22666667,11.6015625 2,11.3748958 2,11.1015625 Z" id="Vector" fill-rule="nonzero"></path>
                <path d="M4.66666667,11.1015625 L4.66666667,6.43489583 C4.66666667,6.1615625 4.89333334,5.93489583 5.16666667,5.93489583 C5.44,5.93489583 5.66666667,6.1615625 5.66666667,6.43489583 L5.66666667,11.1015625 C5.66666667,11.3748958 5.44,11.6015625 5.16666667,11.6015625 C4.89333334,11.6015625 4.66666667,11.3748958 4.66666667,11.1015625 Z" id="Vector" fill-rule="nonzero"></path>
                <path d="M7.33333333,11.1015625 L7.33333333,6.43489583 C7.33333333,6.1615625 7.56,5.93489583 7.83333333,5.93489583 C8.10666666,5.93489583 8.33333333,6.1615625 8.33333333,6.43489583 L8.33333333,11.1015625 C8.33333333,11.3748958 8.10666666,11.6015625 7.83333333,11.6015625 C7.56,11.6015625 7.33333333,11.3748958 7.33333333,11.1015625 Z" id="Vector" fill-rule="nonzero"></path>
                <path d="M10,11.1015625 L10,6.43489583 C10,6.1615625 10.2266667,5.93489583 10.5,5.93489583 C10.7733333,5.93489583 11,6.1615625 11,6.43489583 L11,11.1015625 C11,11.3748958 10.7733333,11.6015625 10.5,11.6015625 C10.2266667,11.6015625 10,11.3748958 10,11.1015625 Z" id="Vector" fill-rule="nonzero"></path>
                <path d="M12.6666667,11.1015625 L12.6666667,6.43489583 C12.6666667,6.1615625 12.8933333,5.93489583 13.1666667,5.93489583 C13.44,5.93489583 13.6666667,6.1615625 13.6666667,6.43489583 L13.6666667,11.1015625 C13.6666667,11.3748958 13.44,11.6015625 13.1666667,11.6015625 C12.8933333,11.6015625 12.6666667,11.3748958 12.6666667,11.1015625 Z" id="Vector" fill-rule="nonzero"></path>
                <path d="M0.5,14.2682292 C0.226666669,14.2682292 0,14.0415625 0,13.7682292 C0,13.4948958 0.226666669,13.2682292 0.5,13.2682292 L15.1666667,13.2682292 C15.44,13.2682292 15.6666667,13.4948958 15.6666667,13.7682292 C15.6666667,14.0415625 15.44,14.2682292 15.1666667,14.2682292 L0.5,14.2682292 Z" id="Vector" fill-rule="nonzero"></path>
                <path d="M6.33333333,3.76822917 C6.33333333,2.94156249 7.00666666,2.26822917 7.83333333,2.26822917 C8.66000001,2.26822917 9.33333333,2.94156249 9.33333333,3.76822917 C9.33333333,4.59489584 8.66000001,5.26822917 7.83333333,5.26822917 C7.00666666,5.26822917 6.33333333,4.59489584 6.33333333,3.76822917 Z M7.33333333,3.76822917 C7.33333333,4.0415625 7.56,4.26822917 7.83333333,4.26822917 C8.10666666,4.26822917 8.33333333,4.0415625 8.33333333,3.76822917 C8.33333333,3.49489584 8.10666666,3.26822917 7.83333333,3.26822917 C7.56,3.26822917 7.33333333,3.49489584 7.33333333,3.76822917 Z" id="Vector"></path>
            </g>
        </g>
    </g>
</svg>