<svg width="14" height="14" viewBox="0 0 14 14" fill="none" xmlns="http://www.w3.org/2000/svg">
<path d="M3.32375 7.91895C3.07257 7.91895 2.86426 7.71065 2.86426 7.45946C2.86426 7.20828 3.07257 6.99998 3.32375 6.99998H5.77435C6.02554 6.99998 6.23384 7.20828 6.23384 7.45946C6.23384 7.71065 6.02554 7.91895 5.77435 7.91895H3.32375Z" fill="#F0F0F0"/>
<path d="M2.86426 4.70248C2.86426 4.95367 3.02871 5.16197 3.22702 5.16197H7.09638C7.29469 5.16197 7.45914 4.95367 7.45914 4.70248C7.45914 4.4513 7.29469 4.243 7.09638 4.243H3.22702C3.02871 4.243 2.86426 4.4513 2.86426 4.70248Z" fill="#F0F0F0"/>
<path fill-rule="evenodd" clip-rule="evenodd" d="M0.600098 2.73331C0.600098 1.5551 1.55522 0.599976 2.73343 0.599976H8.50984C9.68805 0.599976 10.6432 1.5551 10.6432 2.73331V4.73508H11.7794C12.6749 4.73508 13.4008 5.46097 13.4008 6.35641V11.5946C13.4008 12.5658 12.6338 13.3578 11.6725 13.3981V13.4L2.73343 13.4C1.55522 13.4 0.600098 12.4448 0.600098 11.2666V2.73331ZM9.78984 12.5466V2.73331C9.78984 2.02638 9.21677 1.45331 8.50984 1.45331H2.73343C2.02651 1.45331 1.45343 2.02638 1.45343 2.73331V11.2666C1.45343 11.9736 2.02651 12.5466 2.73343 12.5466H9.78984ZM10.6438 5.58841V11.5946C10.6438 12.1202 11.07 12.5464 11.5956 12.5464C12.1213 12.5464 12.5474 12.1202 12.5474 11.5946V6.35641C12.5474 5.93226 12.2036 5.58841 11.7794 5.58841H10.6438Z" fill="#F0F0F0"/>
</svg>
