<svg width="168" height="177" viewBox="0 0 168 177" fill="none" xmlns="http://www.w3.org/2000/svg">
<rect width="167.116" height="175.737" transform="translate(0.441895 0.631836)" fill="white"/>
<ellipse cx="83.6685" cy="125.968" rx="81.2368" ry="5.96842" fill="url(#paint0_linear_1472_28388)" fill-opacity="0.3"/>
<path d="M119 32L125.5 45.5" stroke="#C5D1D3"/>
<circle cx="118.5" cy="31.5" r="1.5" fill="#C5D1D3"/>
<path d="M124 47C124 46.606 124.091 46.2159 124.266 45.8519C124.442 45.488 124.7 45.1573 125.025 44.8787C125.35 44.6001 125.736 44.3791 126.161 44.2284C126.585 44.0776 127.04 44 127.5 44C127.96 44 128.415 44.0776 128.839 44.2284C129.264 44.3791 129.65 44.6001 129.975 44.8787C130.3 45.1573 130.558 45.488 130.734 45.8519C130.909 46.2159 131 46.606 131 47L124 47Z" fill="#C5D1D3"/>
<path d="M136 32L129.5 45.5" stroke="#C5D1D3"/>
<circle cx="1.5" cy="1.5" r="1.5" transform="matrix(-1 0 0 1 138 30)" fill="#C5D1D3"/>
<path d="M143.743 86.1466C144.138 89.4304 147.29 92.1358 148.817 93.078L154.612 89.6006C151.573 87.2453 150.632 84.6351 150.542 83.6244L143.743 86.1466Z" fill="#F3F6F6"/>
<path d="M44.8436 121.99C45.8127 122.844 47.0604 123.316 48.3525 123.316H122.321C123.614 123.316 124.861 122.844 125.83 121.99L131.095 117.347H39.5791L44.8436 121.99Z" fill="#DCE3E5"/>
<path d="M30.9473 53.0212C30.9473 49.3587 33.9163 46.3896 37.5788 46.3896H139.042C142.705 46.3896 145.674 49.3587 145.674 53.0212V118.674H30.9473V53.0212Z" fill="#DCE3E5"/>
<path d="M37.5791 58.5925C37.5791 56.5198 39.1611 54.7967 41.2281 54.6444C48.4018 54.1159 64.6345 53.0215 76.0423 53.0215C87.45 53.0215 103.683 54.1159 110.856 54.6444C112.923 54.7967 114.505 56.5198 114.505 58.5925V104.569C114.505 106.334 113.342 107.863 111.609 108.197C106.789 109.124 95.6595 110.716 76.0423 110.716C56.425 110.716 45.2954 109.124 40.4756 108.197C38.7422 107.863 37.5791 106.334 37.5791 104.569V58.5925Z" fill="#C5D1D3"/>
<mask id="mask0_1472_28388" style="mask-type:alpha" maskUnits="userSpaceOnUse" x="39" y="55" width="74" height="54">
<path opacity="0.4" d="M39.5684 61.6967C39.5684 58.9612 41.6412 56.6788 44.368 56.4606C51.2197 55.9125 64.2796 55.0107 76.042 55.0107C87.8045 55.0107 100.864 55.9125 107.716 56.4606C110.443 56.6788 112.516 58.9612 112.516 61.6967V101.028C112.516 103.629 110.638 105.84 108.061 106.196C101.31 107.129 88.0052 108.727 76.042 108.727C64.0789 108.727 50.7738 107.129 44.0228 106.196C41.4463 105.84 39.5684 103.629 39.5684 101.028V61.6967Z" fill="#608080"/>
</mask>
<g mask="url(#mask0_1472_28388)">
<mask id="mask1_1472_28388" style="mask-type:alpha" maskUnits="userSpaceOnUse" x="39" y="55" width="74" height="54">
<path d="M39.5684 56.8719C39.5684 56.8719 59.144 55.0107 76.042 55.0107C92.9401 55.0107 112.516 56.8719 112.516 56.8719V105.539C112.516 105.539 92.9401 108.727 76.042 108.727C59.144 108.727 39.5684 105.539 39.5684 105.539V56.8719Z" fill="#608080"/>
</mask>
<g mask="url(#mask1_1472_28388)">
<rect x="52.4131" y="52.8467" width="13.6122" height="46.8864" fill="#608080"/>
<rect x="38.9053" y="52.8467" width="13.6122" height="46.8864" fill="#DCE3E5"/>
<rect opacity="0.3" x="52.4131" y="92.1709" width="13.6122" height="7.56233" fill="#D9D9D9"/>
<path d="M34.2632 92.1709H52.5337V109.564H34.2632V92.1709Z" fill="#608080"/>
<rect x="46.3628" y="99.7329" width="15.8809" height="9.83102" fill="#DCE3E5"/>
<rect opacity="0.7" x="62.2437" y="99.7329" width="15.8809" height="9.83102" fill="#608080"/>
<rect x="78.1245" y="99.7329" width="38.5679" height="9.83102" fill="#608080"/>
<rect opacity="0.4" x="66.0249" y="52.8467" width="13.6122" height="46.8864" fill="#608080"/>
<rect opacity="0.3" x="66.0249" y="92.1709" width="13.6122" height="7.56233" fill="#D9D9D9"/>
<rect opacity="0.2" x="79.6372" y="52.8467" width="13.6122" height="46.8864" fill="#608080"/>
<rect opacity="0.3" x="79.6372" y="92.1709" width="13.6122" height="7.56233" fill="#D9D9D9"/>
<rect opacity="0.7" x="93.249" y="52.8467" width="13.6122" height="46.8864" fill="#608080"/>
<rect x="93.249" y="92.1709" width="13.6122" height="7.56233" fill="#608080"/>
<rect x="102.568" y="53.0215" width="14.5895" height="59.021" fill="#608080"/>
<path opacity="0.3" d="M102.568 92.1475H120.474V99.7738H102.568V92.1475Z" fill="#D9D9D9"/>
</g>
</g>
<rect opacity="0.3" x="120.474" y="52.3579" width="20.5579" height="61.0105" rx="2.65263" fill="#D9D9D9"/>
<ellipse cx="131.084" cy="100.769" rx="5.96842" ry="5.96842" fill="#608080"/>
<circle opacity="0.3" cx="131.084" cy="100.769" r="4.6421" fill="#C5D1D3"/>
<ellipse opacity="0.45" cx="130.421" cy="100.768" rx="3.97895" ry="3.97895" fill="#608080"/>
<circle cx="131.084" cy="88.1688" r="3.31579" fill="#608080"/>
<circle opacity="0.3" cx="131.084" cy="88.1688" r="2.57895" fill="#C5D1D3"/>
<circle cx="126.326" cy="57.3263" r="1.32632" fill="#608080"/>
<circle cx="130.968" cy="57.3263" r="1.32632" fill="#608080"/>
<circle cx="135.61" cy="57.3263" r="1.32632" fill="#608080"/>
<path d="M23.331 106.041C22.9355 109.325 19.7834 112.03 18.2568 112.973L12.4619 109.495C15.5007 107.14 16.4415 104.53 16.532 103.519L23.331 106.041Z" fill="#F3F6F6"/>
<rect x="125.442" y="60.9795" width="10.6105" height="1.32632" fill="#608080"/>
<rect x="125.442" y="64.958" width="10.6105" height="1.32632" fill="#608080"/>
<rect x="125.442" y="68.937" width="10.6105" height="1.32632" fill="#608080"/>
<rect x="125.442" y="72.916" width="10.6105" height="1.32632" fill="#608080"/>
<rect x="125.442" y="76.895" width="10.6105" height="1.32632" fill="#608080"/>
<path opacity="0.4" d="M65.9737 28L66.1488 28.634C66.7077 30.6582 68.2892 32.2397 70.3133 32.7986L70.9474 32.9737L70.3133 33.1488C68.2892 33.7077 66.7077 35.2892 66.1488 37.3133L65.9737 37.9474L65.7986 37.3133C65.2397 35.2892 63.6582 33.7077 61.634 33.1488L61 32.9737L61.634 32.7986C63.6582 32.2397 65.2397 30.6582 65.7986 28.634L65.9737 28Z" fill="#608080"/>
<defs>
<linearGradient id="paint0_linear_1472_28388" x1="88.9737" y1="130.279" x2="88.9417" y2="120" gradientUnits="userSpaceOnUse">
<stop stop-color="#F9FAFB" stop-opacity="0"/>
<stop offset="0.998768" stop-color="#608080"/>
</linearGradient>
</defs>
</svg>
