<svg width="13" height="13" viewBox="0 0 13 13" fill="none" xmlns="http://www.w3.org/2000/svg">
<path d="M1.39746 7.22034C1.39746 4.40909 3.68329 2.11243 6.49996 2.11243C7.07954 2.11243 7.64288 2.19368 8.18454 2.36159C8.40121 2.42659 8.52038 2.65409 8.45538 2.87076C8.39038 3.08743 8.16288 3.20659 7.94621 3.14159C7.48579 3.00076 6.99829 2.92493 6.49996 2.92493C4.13288 2.92493 2.20996 4.84784 2.20996 7.21493C2.20996 9.58201 4.13288 11.5049 6.49996 11.5049C8.86704 11.5049 10.79 9.58201 10.79 7.21493C10.79 6.35909 10.5408 5.53576 10.0695 4.83159C9.94496 4.64743 9.99371 4.39284 10.1833 4.26826C10.3675 4.14368 10.622 4.19243 10.7466 4.38201C11.31 5.22159 11.6079 6.20201 11.6079 7.22034C11.6025 10.0316 9.31663 12.3228 6.49996 12.3228C3.68329 12.3228 1.39746 10.0316 1.39746 7.22034Z" fill="#2A394E"/>
<path d="M8.42882 3.14716L6.8634 1.34882C6.71715 1.18091 6.7334 0.920906 6.90132 0.774656C7.06923 0.628406 7.32923 0.644656 7.47548 0.812572L9.0409 2.61091C9.18715 2.77882 9.1709 3.03882 9.00298 3.18507C8.93257 3.25549 8.83507 3.28799 8.73757 3.28799C8.62382 3.28799 8.51007 3.23924 8.42882 3.14716Z" fill="#2A394E"/>
<path d="M6.58104 4.45265C6.45104 4.2739 6.48896 4.01932 6.66771 3.8839L8.49312 2.5514C8.67187 2.41598 8.92646 2.45932 9.06187 2.63807C9.19729 2.81682 9.15396 3.0714 8.97521 3.20682L7.14979 4.54473C7.07937 4.5989 6.99812 4.62057 6.91146 4.62057C6.78687 4.62057 6.66229 4.56098 6.58104 4.45265Z" fill="#2A394E"/>
</svg>
