<svg width="18" height="18" viewBox="0 0 18 18" fill="none" xmlns="http://www.w3.org/2000/svg">
<g id="card-icon">
<g id="document-text">
<g id="Vector">
<path fill-rule="evenodd" clip-rule="evenodd" d="M6.33333 16.1654C3.9 16.1654 2.5 14.7654 2.5 12.332V5.66536C2.5 3.23203 3.9 1.83203 6.33333 1.83203H11.6667C14.1 1.83203 15.5 3.23203 15.5 5.66536V12.332C15.5 14.7654 14.1 16.1654 11.6667 16.1654H6.33333ZM3.5 5.66536V12.332C3.5 14.2387 4.42667 15.1654 6.33333 15.1654H11.6667C13.5733 15.1654 14.5 14.2387 14.5 12.332V5.66536C14.5 3.7587 13.5733 2.83203 11.6667 2.83203H6.33333C4.42667 2.83203 3.5 3.7587 3.5 5.66536Z" fill="#2A394E"/>
<path d="M6.33333 16.0154C5.14514 16.0154 4.22917 15.6741 3.61023 15.0551C2.99129 14.4362 2.65 13.5202 2.65 12.332H2.35C2.35 13.5772 2.70871 14.5779 3.3981 15.2673C4.0875 15.9567 5.08819 16.3154 6.33333 16.3154V16.0154ZM2.65 12.332V5.66536H2.35V12.332H2.65ZM2.65 5.66536C2.65 4.47717 2.99129 3.5612 3.61023 2.94226C4.22917 2.32333 5.14514 1.98203 6.33333 1.98203V1.68203C5.08819 1.68203 4.0875 2.04074 3.3981 2.73013C2.70871 3.41953 2.35 4.42022 2.35 5.66536H2.65ZM6.33333 1.98203H11.6667V1.68203H6.33333V1.98203ZM11.6667 1.98203C12.8549 1.98203 13.7708 2.32333 14.3898 2.94226C15.0087 3.5612 15.35 4.47717 15.35 5.66536H15.65C15.65 4.42022 15.2913 3.41953 14.6019 2.73013C13.9125 2.04074 12.9118 1.68203 11.6667 1.68203V1.98203ZM15.35 5.66536V12.332H15.65V5.66536H15.35ZM15.35 12.332C15.35 13.5202 15.0087 14.4362 14.3898 15.0551C13.7708 15.6741 12.8549 16.0154 11.6667 16.0154V16.3154C12.9118 16.3154 13.9125 15.9567 14.6019 15.2673C15.2913 14.5779 15.65 13.5772 15.65 12.332H15.35ZM11.6667 16.0154H6.33333V16.3154H11.6667V16.0154ZM3.35 5.66536V12.332H3.65V5.66536H3.35ZM3.35 12.332C3.35 13.3074 3.58702 14.0612 4.0956 14.5698C4.60418 15.0783 5.35795 15.3154 6.33333 15.3154V15.0154C5.40205 15.0154 4.73915 14.789 4.30773 14.3576C3.87632 13.9262 3.65 13.2633 3.65 12.332H3.35ZM6.33333 15.3154H11.6667V15.0154H6.33333V15.3154ZM11.6667 15.3154C12.642 15.3154 13.3958 15.0783 13.9044 14.5698C14.413 14.0612 14.65 13.3074 14.65 12.332H14.35C14.35 13.2633 14.1237 13.9262 13.6923 14.3576C13.2609 14.789 12.598 15.0154 11.6667 15.0154V15.3154ZM14.65 12.332V5.66536H14.35V12.332H14.65ZM14.65 5.66536C14.65 4.68998 14.413 3.93622 13.9044 3.42763C13.3958 2.91905 12.642 2.68203 11.6667 2.68203V2.98203C12.598 2.98203 13.2609 3.20835 13.6923 3.63976C14.1237 4.07118 14.35 4.73408 14.35 5.66536H14.65ZM11.6667 2.68203H6.33333V2.98203H11.6667V2.68203ZM6.33333 2.68203C5.35795 2.68203 4.60418 2.91905 4.0956 3.42763C3.58702 3.93622 3.35 4.68998 3.35 5.66536H3.65C3.65 4.73408 3.87632 4.07118 4.30773 3.63976C4.73915 3.20835 5.40205 2.98203 6.33333 2.98203V2.68203Z" fill="#2A394E"/>
</g>
<path id="Vector_2" d="M12.0003 7.16667C10.987 7.16667 10.167 6.34667 10.167 5.33333V4C10.167 3.72667 10.3937 3.5 10.667 3.5C10.9403 3.5 11.167 3.72667 11.167 4V5.33333C11.167 5.79333 11.5403 6.16667 12.0003 6.16667H13.3337C13.607 6.16667 13.8337 6.39333 13.8337 6.66667C13.8337 6.94 13.607 7.16667 13.3337 7.16667H12.0003Z" fill="#2A394E" stroke="#2A394E" stroke-width="0.3"/>
<path id="Vector_3" d="M6.33301 10.168C6.05967 10.168 5.83301 9.9413 5.83301 9.66797C5.83301 9.39464 6.05967 9.16797 6.33301 9.16797H8.99967C9.27301 9.16797 9.49967 9.39464 9.49967 9.66797C9.49967 9.9413 9.27301 10.168 8.99967 10.168H6.33301Z" fill="#2A394E" stroke="#2A394E" stroke-width="0.3"/>
<path id="Vector_4" d="M6.33301 12.832C6.05967 12.832 5.83301 12.6054 5.83301 12.332C5.83301 12.0587 6.05967 11.832 6.33301 11.832H11.6663C11.9397 11.832 12.1663 12.0587 12.1663 12.332C12.1663 12.6054 11.9397 12.832 11.6663 12.832H6.33301Z" fill="#2A394E" stroke="#2A394E" stroke-width="0.3"/>
<path id="Vector_5" opacity="0.01" fill-rule="evenodd" clip-rule="evenodd" d="M17 1V17H1V1H17Z" stroke="#2A394E" stroke-width="0.3"/>
<path id="Vector_6" opacity="0.01" fill-rule="evenodd" clip-rule="evenodd" d="M17 1V17H1V1H17Z" stroke="#2A394E" stroke-width="0.3"/>
</g>
</g>
</svg>
