<svg width="6" height="10" viewBox="0 0 6 10" fill="none" xmlns="http://www.w3.org/2000/svg">
<path d="M1.1898 1.30328L4.4498 4.56328C4.6898 4.80328 4.6898 5.19328 4.4498 5.43328L1.1898 8.69328C1.0448 8.83828 1.0448 9.07828 1.1898 9.22328C1.3348 9.36828 1.5748 9.36828 1.7198 9.22328L4.9798 5.96328C5.2348 5.70828 5.3798 5.36328 5.3798 4.99828C5.3798 4.63328 5.2398 4.28828 4.9798 4.03328L1.7198 0.773281C1.6448 0.703281 1.5498 0.663281 1.4548 0.663281C1.3598 0.663281 1.2648 0.698281 1.1898 0.773281C1.0448 0.918282 1.0448 1.15828 1.1898 1.30328Z" fill="#747E8B" stroke="#747E8B" stroke-width="0.6"/>
</svg>
