<svg width="16" height="16" viewBox="0 0 16 16" fill="none" xmlns="http://www.w3.org/2000/svg">
<path d="M6.85301 11.1531L5.85301 10.1531C5.65967 9.95977 5.65967 9.63977 5.85301 9.44643C6.04634 9.2531 6.36634 9.2531 6.55967 9.44643L7.20634 10.0931L9.51967 7.77977C9.71301 7.58643 10.033 7.58643 10.2263 7.77977C10.4197 7.9731 10.4197 8.2931 10.2263 8.48643L7.55967 11.1531C7.46634 11.2531 7.33301 11.2998 7.20634 11.2998C7.07967 11.2998 6.95301 11.2531 6.85301 11.1531Z" fill="#2A394E"/>
<path fill-rule="evenodd" clip-rule="evenodd" d="M6.66634 4.49967C6.02634 4.49967 4.83301 4.49967 4.83301 2.66634C4.83301 0.833008 6.02634 0.833008 6.66634 0.833008H9.33301C9.97301 0.833008 11.1663 0.833008 11.1663 2.66634C11.1663 3.30634 11.1663 4.49967 9.33301 4.49967H6.66634ZM5.83301 2.66634C5.83301 3.49967 6.00634 3.49967 6.66634 3.49967H9.33301C10.1663 3.49967 10.1663 3.32634 10.1663 2.66634C10.1663 1.83301 9.99301 1.83301 9.33301 1.83301H6.66634C6.00634 1.83301 5.83301 1.83301 5.83301 2.66634Z" fill="#2A394E"/>
<path d="M6 15.1667C2.25333 15.1667 1.5 13.4467 1.5 10.6667V6.6667C1.5 3.6267 2.6 2.3267 5.30667 2.1867C5.58 2.17337 5.82 2.38004 5.83333 2.66004C5.84667 2.94004 5.63333 3.1667 5.36 3.18004C3.46667 3.2867 2.5 3.85337 2.5 6.6667V10.6667C2.5 13.1334 2.98667 14.1667 6 14.1667H10C13.0133 14.1667 13.5 13.1334 13.5 10.6667V6.6667C13.5 3.85337 12.5333 3.2867 10.64 3.18004C10.3667 3.1667 10.1533 2.9267 10.1667 2.65337C10.18 2.38004 10.4133 2.1667 10.6933 2.18004C13.4 2.3267 14.5 3.6267 14.5 6.66004V10.66C14.5 13.4467 13.7467 15.1667 10 15.1667H6Z" fill="#2A394E"/>
</svg>
