<?xml version="1.0" encoding="UTF-8"?>
<svg width="22px" height="22px" viewBox="0 0 22 22" version="1.1" xmlns="http://www.w3.org/2000/svg" xmlns:xlink="http://www.w3.org/1999/xlink">
    <title>6F00A539-C88B-4FBE-8D94-51FA3D11BA95</title>
    <g id="⚙️icons" stroke="none" stroke-width="1" fill="none" fill-rule="evenodd">
        <g id="Design-System/Icons" transform="translate(-103.000000, -1306.000000)">
            <g id="search-normal" transform="translate(103.000000, 1306.000000)">
                <path d="M1.14583333,10.5416667 C1.14583333,5.36249991 5.36249991,1.14583333 10.5416667,1.14583333 C15.7208334,1.14583333 19.9375,5.36249991 19.9375,10.5416667 C19.9375,15.7208334 15.7208334,19.9375 10.5416667,19.9375 C5.36249991,19.9375 1.14583333,15.7208334 1.14583333,10.5416667 Z M2.52083333,10.5416667 C2.52083333,14.9600002 6.11416674,18.5625 10.5416667,18.5625 C14.9691666,18.5625 18.5625,14.9600002 18.5625,10.5416667 C18.5625,6.12333318 14.9691666,2.52083333 10.5416667,2.52083333 C6.11416674,2.52083333 2.52083333,6.12333318 2.52083333,10.5416667 Z" id="Vector" fill="#FFFFFF"></path>
                <path d="M19.6812272,20.6524475 L17.8478939,18.8191142 C17.5820606,18.5532809 17.5820606,18.1132796 17.8478939,17.8474463 C18.1137272,17.581613 18.5537285,17.581613 18.8195618,17.8474463 L20.6528951,19.6807796 C20.9187284,19.9466129 20.9187284,20.3866142 20.6528951,20.6524475 C20.5153951,20.7899475 20.3412278,20.8541136 20.1670612,20.8541136 C19.9928945,20.8541136 19.8187272,20.7899475 19.6812272,20.6524475 Z" id="Vector" fill="#FFFFFF" fill-rule="nonzero"></path>
                <path d="M22,0 L22,22 L0,22 L0,0 L22,0 Z" id="Vector" opacity="0"></path>
            </g>
        </g>
    </g>
</svg>