<svg width="18" height="17" viewBox="0 0 18 17" fill="none" xmlns="http://www.w3.org/2000/svg">
<path d="M9.0361 14.376C8.28943 14.376 7.61743 14.248 7.0201 13.992C6.42276 13.7253 5.95343 13.352 5.6121 12.872C5.27076 12.392 5.1001 11.832 5.1001 11.192H7.0521C7.09476 11.672 7.28143 12.0667 7.6121 12.376C7.95343 12.6853 8.4281 12.84 9.0361 12.84C9.66543 12.84 10.1561 12.6907 10.5081 12.392C10.8601 12.0827 11.0361 11.688 11.0361 11.208C11.0361 10.8347 10.9241 10.5307 10.7001 10.296C10.4868 10.0613 10.2148 9.88 9.8841 9.752C9.5641 9.624 9.1161 9.48533 8.5401 9.336C7.81476 9.144 7.22276 8.952 6.7641 8.76C6.3161 8.55733 5.9321 8.248 5.6121 7.832C5.2921 7.416 5.1321 6.86133 5.1321 6.168C5.1321 5.528 5.2921 4.968 5.6121 4.488C5.9321 4.008 6.3801 3.64 6.9561 3.384C7.5321 3.128 8.19876 3 8.9561 3C10.0334 3 10.9134 3.272 11.5961 3.816C12.2894 4.34933 12.6734 5.08533 12.7481 6.024H10.7321C10.7001 5.61867 10.5081 5.272 10.1561 4.984C9.8041 4.696 9.3401 4.552 8.7641 4.552C8.24143 4.552 7.81476 4.68533 7.4841 4.952C7.15343 5.21867 6.9881 5.60267 6.9881 6.104C6.9881 6.44533 7.08943 6.728 7.2921 6.952C7.50543 7.16533 7.7721 7.336 8.0921 7.464C8.4121 7.592 8.84943 7.73067 9.4041 7.88C10.1401 8.08267 10.7374 8.28533 11.1961 8.488C11.6654 8.69067 12.0601 9.00533 12.3801 9.432C12.7108 9.848 12.8761 10.408 12.8761 11.112C12.8761 11.6773 12.7214 12.2107 12.4121 12.712C12.1134 13.2133 11.6708 13.6187 11.0841 13.928C10.5081 14.2267 9.82543 14.376 9.0361 14.376Z" fill="#B52A21"/>
</svg>
