<svg width="12" height="12" viewBox="0 0 12 12" fill="none" xmlns="http://www.w3.org/2000/svg">
<g id="vuesax/outline/redo">
<g id="vuesax/outline/redo_2">
<g id="redo">
<path id="Vector" d="M2.46997 7.56641C2.46997 9.15141 3.75997 10.4414 5.34497 10.4414C6.92997 10.4414 8.21997 9.15141 8.21997 7.56641L8.21997 2.06641C8.21997 1.86141 8.04997 1.69141 7.84497 1.69141C7.63997 1.69141 7.46997 1.86141 7.46997 2.06641L7.46997 7.56641C7.46997 8.73641 6.51497 9.69141 5.34497 9.69141C4.17497 9.69141 3.21997 8.73641 3.21997 7.56641L3.21997 3.56641C3.21997 3.36141 3.04997 3.19141 2.84497 3.19141C2.63997 3.19141 2.46997 3.35641 2.46997 3.56641L2.46997 7.56641Z" fill="#2A394E" stroke="#2A394E" stroke-width="0.2"/>
<path id="Vector_2" d="M6.33006 3.48109C6.47506 3.62609 6.71506 3.62609 6.86006 3.48109L7.87506 2.46609L8.89006 3.48109C9.03506 3.62609 9.27506 3.62609 9.42006 3.48109C9.56506 3.33609 9.56506 3.09609 9.42006 2.95109L8.14006 1.67109C7.99506 1.52609 7.75506 1.52609 7.61006 1.67109L6.33006 2.95109C6.25506 3.02609 6.22006 3.12109 6.22006 3.21609C6.22006 3.31109 6.25506 3.40609 6.33006 3.48109Z" fill="#2A394E" stroke="#2A394E" stroke-width="0.2"/>
</g>
</g>
</g>
</svg>
