<svg width="14" height="14" viewBox="0 0 14 14" fill="none" xmlns="http://www.w3.org/2000/svg">
<g id="Notice-Board---Detail">
<g id="Group-2">
<g id="icon-sort-copy">
<g id="Group-6">
<path id="Triangle" fill-rule="evenodd" clip-rule="evenodd" d="M8.3034 12.6456L10.8174 9.44598C11.1089 9.07496 11.0445 8.53786 10.6734 8.24634C10.5229 8.12807 10.337 8.06378 10.1456 8.06378H5.11761C4.64576 8.06378 4.26324 8.44629 4.26324 8.91814C4.26324 9.10957 4.32754 9.29546 4.44581 9.44598L6.9598 12.6456C7.25132 13.0166 7.78842 13.0811 8.15945 12.7896C8.213 12.7475 8.26133 12.6992 8.3034 12.6456Z" fill="#949CA6"/>
<path id="Triangle-Copy-2" fill-rule="evenodd" clip-rule="evenodd" d="M8.3034 1.92854L10.8174 5.12818C11.1089 5.4992 11.0445 6.0363 10.6734 6.32782C10.5229 6.44609 10.337 6.51038 10.1456 6.51038H5.11761C4.64576 6.51038 4.26324 6.12787 4.26324 5.65602C4.26324 5.46459 4.32754 5.2787 4.44581 5.12818L6.9598 1.92854C7.25132 1.55752 7.78842 1.49307 8.15945 1.78459C8.213 1.82666 8.26133 1.87499 8.3034 1.92854Z" fill="#C9CDD2"/>
</g>
</g>
</g>
</g>
</svg>
