<svg width="364" height="60" viewBox="0 0 364 60" fill="none" xmlns="http://www.w3.org/2000/svg">
<rect opacity="0.6" width="4.24662" height="59.346" rx="2" fill="#FDFCFF"/>
<rect opacity="0.6" x="22.4844" width="4.24662" height="59.346" rx="2" fill="#F9F8FF"/>
<rect x="44.9688" width="4.24662" height="59.346" rx="2" fill="#F4F1FF"/>
<rect x="67.4541" width="4.24662" height="59.346" rx="2" fill="#DDD6FF"/>
<rect x="89.9385" width="4.24662" height="59.346" rx="2" fill="#C6BBFF"/>
<rect x="112.423" width="4.24662" height="59.346" rx="2" fill="#AFA0FF"/>
<rect opacity="0.6" x="134.907" width="4.24662" height="59.346" rx="2" fill="#8D78FF"/>
<rect x="157.393" width="4.24662" height="59.346" rx="2" fill="#8D78FF"/>
<rect x="179.877" width="4.24662" height="59.346" rx="2" fill="#8D78FF"/>
<rect x="202.361" width="4.24662" height="59.346" rx="2" fill="#8D78FF"/>
<rect opacity="0.6" x="224.846" width="4.24662" height="59.346" rx="2" fill="#8D78FF"/>
<rect x="247.33" width="4.24662" height="59.346" rx="2" fill="#AFA0FF"/>
<rect x="269.815" width="4.24662" height="59.346" rx="2" fill="#C6BBFF"/>
<rect x="292.3" width="4.24662" height="59.346" rx="2" fill="#DDD6FF"/>
<rect x="314.784" width="4.24662" height="59.346" rx="2" fill="#F4F1FF"/>
<rect opacity="0.6" x="337.269" width="4.24662" height="59.346" rx="2" fill="#F9F8FF"/>
<rect opacity="0.6" x="359.753" width="4.24662" height="59.346" rx="2" fill="#FDFCFF"/>
</svg>
