<svg width="20" height="20" viewBox="0 0 20 20" fill="none" xmlns="http://www.w3.org/2000/svg">
<path d="M9.99996 14.75C10.598 14.75 11.0833 14.2647 11.0833 13.6667C11.0833 13.0686 10.598 12.5833 9.99996 12.5833C9.40189 12.5833 8.91663 13.0686 8.91663 13.6667C8.91663 14.2647 9.40189 14.75 9.99996 14.75Z" fill="#747E8B" stroke="#747E8B" stroke-width="0.5"/>
<path fill-rule="evenodd" clip-rule="evenodd" d="M9.99996 10.8333C10.46 10.8333 10.8333 10.46 10.8333 9.99998C10.8333 9.53998 10.46 9.16665 9.99996 9.16665C9.53996 9.16665 9.16663 9.53998 9.16663 9.99998C9.16663 10.46 9.53996 10.8333 9.99996 10.8333Z" fill="#747E8B" stroke="#747E8B"/>
<path fill-rule="evenodd" clip-rule="evenodd" d="M9.99996 7.16669C10.46 7.16669 10.8333 6.79335 10.8333 6.33335C10.8333 5.87335 10.46 5.50002 9.99996 5.50002C9.53996 5.50002 9.16663 5.87335 9.16663 6.33335C9.16663 6.79335 9.53996 7.16669 9.99996 7.16669Z" fill="#747E8B" stroke="#747E8B"/>
</svg>
