<svg width="16" height="15" viewBox="0 0 16 15" fill="none" xmlns="http://www.w3.org/2000/svg">
<path fill-rule="evenodd" clip-rule="evenodd" d="M7.99922 5.49675C9.73531 5.49675 11.1428 6.9024 11.143 8.63691C11.143 10.3715 9.73539 11.7779 7.99922 11.7779C6.26315 11.7777 4.85625 10.3715 4.85625 8.63691C4.85637 6.90248 6.26323 5.49687 7.99922 5.49675ZM7.99922 6.69568C6.92597 6.6958 6.05638 7.56463 6.05625 8.63691C6.05625 9.70931 6.9259 10.5788 7.99922 10.5789C9.07265 10.5789 9.94297 9.70939 9.94297 8.63691C9.94284 7.56455 9.07257 6.69568 7.99922 6.69568Z" fill="#2A2A2A"/>
<path d="M13.3492 7.09532H12.1414V5.89639H13.3492V7.09532Z" fill="#2A2A2A"/>
<path fill-rule="evenodd" clip-rule="evenodd" d="M12.1453 2.82882H16V14.6667H0V2.82882H3.85391L5.23906 0.666687H10.7602L12.1453 2.82882ZM4.6875 3.75143L4.51094 4.02775H1.2V13.4678H14.8V4.02775H11.4891L11.3125 3.75143L10.1039 1.86562H5.89531L4.6875 3.75143Z" fill="#2A2A2A"/>
</svg>
