<svg width="16" height="14" viewBox="0 0 16 14" fill="none" xmlns="http://www.w3.org/2000/svg">
<path d="M16 13.5H9.10002V12.2932H14.8068V1.70682H1.19324V4.30116H0V0.5H16V13.5Z" fill="#2A2A2A"/>
<path d="M0.597398 7.9114C3.31175 7.9114 5.51253 10.1372 5.51253 12.8824V13.4859H4.31929V12.8824C4.31929 10.8037 2.65274 9.11822 0.597398 9.11822H0.00077685V7.9114H0.597398Z" fill="#2A2A2A"/>
<path d="M0.596621 10.0948C2.11849 10.0948 3.35198 11.3425 3.35211 12.8817V13.4851H2.15887V12.8817C2.15873 12.009 1.45948 11.3016 0.596621 11.3016H0V10.0948H0.596621Z" fill="#2A2A2A"/>
<path d="M0.596621 5.80025C4.46364 5.80025 7.59821 8.97068 7.59837 12.8817V13.4851H6.40513V12.8817C6.40497 9.63719 3.80463 7.00707 0.596621 7.00707H0V5.80025H0.596621Z" fill="#2A2A2A"/>
</svg>
