<svg width="16" height="16" viewBox="0 0 16 16" fill="none" xmlns="http://www.w3.org/2000/svg">
<path d="M8 0C12.4183 -1.78955e-07 16 3.58172 16 8C16 12.4183 12.4183 16 8 16C3.58172 16 1.93129e-07 12.4183 0 8C-1.78955e-07 3.58172 3.58172 1.93129e-07 8 0ZM8 1.2C4.24446 1.2 1.2 4.24446 1.2 8C1.2 11.7555 4.24446 14.8 8 14.8C11.7555 14.8 14.8 11.7555 14.8 8C14.8 4.24446 11.7555 1.2 8 1.2ZM7.99844 7.14453L9.91641 5.22734L10.7648 6.07578L8.84688 7.99297L10.3406 9.4875L10.7648 9.91172L9.91641 10.7602L9.49219 10.3359L7.99844 8.84141L6.08281 10.7578L5.23438 9.90938L7.15 7.99297L5.23125 6.07422L6.07969 5.22578L7.99844 7.14453Z" fill="#2A2A2A"/>
</svg>
