<svg width="16" height="16" viewBox="0 0 16 16" fill="none" xmlns="http://www.w3.org/2000/svg">
<path d="M8 0.000183105C12.4183 0.000182927 16 3.58191 16 8.00018C16 12.4185 12.4183 16.0002 8 16.0002C3.58172 16.0002 1.93129e-07 12.4185 0 8.00018C-1.78955e-07 3.58191 3.58172 0.000183299 8 0.000183105ZM8 1.20018C4.24446 1.20018 1.2 4.24465 1.2 8.00018C1.2 11.7557 4.24446 14.8002 8 14.8002C11.7555 14.8002 14.8 11.7557 14.8 8.00018C14.8 4.24465 11.7555 1.20018 8 1.20018ZM10.7141 7.40175H11.3141V8.60175H10.7141L5.2875 8.60096H4.6875V7.40096H5.2875L10.7141 7.40175Z" fill="#2A2A2A"/>
</svg>
