<svg width="123" height="74" viewBox="0 0 123 74" fill="none" xmlns="http://www.w3.org/2000/svg">
<mask id="mask0_5432_33004" style="mask-type:alpha" maskUnits="userSpaceOnUse" x="0" y="0" width="123" height="74">
<rect width="123" height="74" fill="#D9D9D9"/>
</mask>
<g mask="url(#mask0_5432_33004)">
<path d="M90.665 40.9625L85.6813 39.6623L86.2371 38.0226L88.1308 36.9863L90.0433 37.5047L90.665 40.9625Z" fill="#A8AFFF"/>
<mask id="path-3-inside-1_5432_33004" fill="white">
<path d="M28.3083 47.2734C32.3645 47.2734 35.836 48.7151 37.2751 50.7578L37.9939 50.7617V52.9541H37.9812C37.8932 55.9951 33.5983 58.4443 28.3083 58.4443C22.9636 58.4443 18.6309 55.9441 18.6306 52.8594C18.6306 52.7999 18.6352 52.7406 18.6384 52.6816V50.6729L19.3972 50.6758C20.87 48.6758 24.3056 47.2734 28.3083 47.2734Z"/>
</mask>
<path d="M28.3083 47.2734C32.3645 47.2734 35.836 48.7151 37.2751 50.7578L37.9939 50.7617V52.9541H37.9812C37.8932 55.9951 33.5983 58.4443 28.3083 58.4443C22.9636 58.4443 18.6309 55.9441 18.6306 52.8594C18.6306 52.7999 18.6352 52.7406 18.6384 52.6816V50.6729L19.3972 50.6758C20.87 48.6758 24.3056 47.2734 28.3083 47.2734Z" fill="#F2F4FF"/>
<path d="M28.3083 47.2734V47.0983V47.2734ZM37.2751 50.7578L37.132 50.8587L37.184 50.9324L37.2742 50.9329L37.2751 50.7578ZM37.9939 50.7617H38.169V50.5875L37.9948 50.5866L37.9939 50.7617ZM37.9939 52.9541V53.1292H38.169V52.9541H37.9939ZM37.9812 52.9541V52.779H37.8111L37.8062 52.949L37.9812 52.9541ZM28.3083 58.4443V58.6195V58.4443ZM18.6306 52.8594H18.4555V52.8594L18.6306 52.8594ZM18.6384 52.6816L18.8135 52.6911V52.6816H18.6384ZM18.6384 50.6729L18.6391 50.4977L18.4633 50.4971V50.6729H18.6384ZM19.3972 50.6758L19.3965 50.8509L19.4855 50.8512L19.5382 50.7796L19.3972 50.6758ZM28.3083 47.2734V47.4486C32.3368 47.4486 35.7395 48.8822 37.132 50.8587L37.2751 50.7578L37.4183 50.657C35.9325 48.548 32.3923 47.0983 28.3083 47.0983V47.2734ZM37.2751 50.7578L37.2742 50.9329L37.9929 50.9368L37.9939 50.7617L37.9948 50.5866L37.2761 50.5827L37.2751 50.7578ZM37.9939 50.7617H37.8188V52.9541H37.9939H38.169V50.7617H37.9939ZM37.9939 52.9541V52.779H37.9812V52.9541V53.1292H37.9939V52.9541ZM37.9812 52.9541L37.8062 52.949C37.7647 54.3826 36.7289 55.7097 35.009 56.6873C33.2937 57.6623 30.9284 58.2692 28.3083 58.2692V58.4443V58.6195C30.9782 58.6195 33.4054 58.0017 35.182 56.9918C36.9541 55.9846 38.1098 54.5666 38.1562 52.9592L37.9812 52.9541ZM28.3083 58.4443V58.2692C25.6611 58.2692 23.273 57.6497 21.5528 56.6569C19.828 55.6616 18.8059 54.3126 18.8057 52.8594L18.6306 52.8594L18.4555 52.8594C18.4556 54.4908 19.6 55.9344 21.3778 56.9603C23.1601 57.9889 25.6108 58.6195 28.3083 58.6195V58.4443ZM18.6306 52.8594H18.8057C18.8057 52.8062 18.8098 52.7556 18.8133 52.6911L18.6384 52.6816L18.4636 52.6722C18.4607 52.7256 18.4555 52.7936 18.4555 52.8594H18.6306ZM18.6384 52.6816H18.8135V50.6729H18.6384H18.4633V52.6816H18.6384ZM18.6384 50.6729L18.6378 50.848L19.3965 50.8509L19.3972 50.6758L19.3979 50.5007L18.6391 50.4977L18.6384 50.6729ZM19.3972 50.6758L19.5382 50.7796C20.9645 48.8429 24.3335 47.4486 28.3083 47.4486V47.2734V47.0983C24.2777 47.0983 20.7756 48.5087 19.2562 50.5719L19.3972 50.6758Z" fill="#7A7A7A" mask="url(#path-3-inside-1_5432_33004)"/>
<path d="M28.3464 45.3086C31.017 45.3086 33.4308 45.9307 35.1736 46.9326C36.9187 47.9359 37.9753 49.3089 37.9753 50.8066C37.9752 52.3042 36.9185 53.6765 35.1736 54.6797C33.4308 55.6816 31.017 56.3047 28.3464 56.3047C25.676 56.3046 23.2629 55.6815 21.5203 54.6797C19.7753 53.6765 18.7187 52.3042 18.7185 50.8066C18.7185 49.3089 19.7751 47.9359 21.5203 46.9326C23.2629 45.9308 25.6761 45.3087 28.3464 45.3086Z" fill="#F2F4FF" stroke="#7A7A7A" stroke-width="0.17512"/>
<path d="M27.4924 49.6152C27.3158 49.6097 27.1379 49.6379 26.9592 49.6992C26.9252 49.7105 26.8917 49.7233 26.8586 49.7373L26.7629 49.7822C26.7017 49.8122 26.646 49.8422 26.5959 49.8711L25.4885 50.5107L24.885 50.1621L28.1213 48.292L28.5735 48.5537L27.8704 48.96L27.6409 49.0918L27.9045 49.123C27.9667 49.1302 28.0283 49.1379 28.0891 49.1484L28.2698 49.1865C28.4536 49.2307 28.6301 49.291 28.8 49.3643L28.8411 49.3818L28.8792 49.3604L29.4446 49.0322L29.8967 49.2939L29.4211 49.5693L29.3079 49.6348L29.4114 49.7139C29.5766 49.8407 29.6925 49.9697 29.7639 50.0996L29.8206 50.2305C29.8837 50.4244 29.8313 50.6315 29.6252 50.8574L29.5276 50.9551C29.4562 51.0195 29.39 51.0727 29.3293 51.1152L29.0784 51.2676L29.0305 51.2949L29.0764 51.458L32.4143 51.3438L31.5784 51.8252L27.9602 51.9385L27.3381 51.5791L28.3586 50.9902L28.512 50.8926C28.5681 50.8545 28.6177 50.8146 28.6594 50.7725C28.7672 50.6639 28.832 50.5437 28.8225 50.4141C28.816 50.324 28.7847 50.2407 28.7317 50.165L28.6711 50.0918L28.6643 50.085L28.6165 50.0332L28.5559 50.0684L26.6633 51.1611L26.2112 50.8994L28.0168 49.8574L28.1907 49.7568L27.9993 49.6982C27.9957 49.6971 27.9916 49.6959 27.9895 49.6953C27.987 49.6946 27.9856 49.6937 27.9846 49.6934H27.9836C27.831 49.6447 27.6673 49.6184 27.4934 49.6143L27.4924 49.6152Z" fill="#F2F4FF" stroke="#7A7A7A" stroke-width="0.17512"/>
<mask id="path-7-inside-2_5432_33004" fill="white">
<path d="M26.3462 44.9336C30.4021 44.9336 33.8732 46.3753 35.312 48.418L36.0308 48.4219V50.6143H36.0181C35.9295 53.6545 31.635 56.1035 26.3462 56.1035C21.0019 56.1035 16.6694 53.603 16.6694 50.5186C16.6694 50.4594 16.6741 50.4005 16.6772 50.3418V48.333L17.436 48.3359C18.9086 46.336 22.3437 44.9336 26.3462 44.9336Z"/>
</mask>
<path d="M26.3462 44.9336C30.4021 44.9336 33.8732 46.3753 35.312 48.418L36.0308 48.4219V50.6143H36.0181C35.9295 53.6545 31.635 56.1035 26.3462 56.1035C21.0019 56.1035 16.6694 53.603 16.6694 50.5186C16.6694 50.4594 16.6741 50.4005 16.6772 50.3418V48.333L17.436 48.3359C18.9086 46.336 22.3437 44.9336 26.3462 44.9336Z" fill="#F2F4FF"/>
<path d="M26.3462 44.9336L26.3462 44.7585H26.3462V44.9336ZM35.312 48.418L35.1688 48.5188L35.2208 48.5926L35.3111 48.5931L35.312 48.418ZM36.0308 48.4219H36.2059V48.2477L36.0317 48.2468L36.0308 48.4219ZM36.0308 50.6143V50.7894H36.2059V50.6143H36.0308ZM36.0181 50.6143V50.4391H35.848L35.843 50.6092L36.0181 50.6143ZM26.3462 56.1035V56.2786H26.3462L26.3462 56.1035ZM16.6694 50.5186L16.4943 50.5186V50.5186H16.6694ZM16.6772 50.3418L16.8524 50.3512V50.3418H16.6772ZM16.6772 48.333L16.6779 48.1579L16.5021 48.1572V48.333H16.6772ZM17.436 48.3359L17.4354 48.5111L17.5243 48.5114L17.5771 48.4398L17.436 48.3359ZM26.3462 44.9336L26.3462 45.1087C30.3744 45.1087 33.7767 46.5424 35.1688 48.5188L35.312 48.418L35.4552 48.3171C33.9697 46.2082 30.4298 44.7585 26.3462 44.7585L26.3462 44.9336ZM35.312 48.418L35.3111 48.5931L36.0298 48.597L36.0308 48.4219L36.0317 48.2468L35.313 48.2429L35.312 48.418ZM36.0308 48.4219H35.8556V50.6143H36.0308H36.2059V48.4219H36.0308ZM36.0308 50.6143V50.4391H36.0181V50.6143V50.7894H36.0308V50.6143ZM36.0181 50.6143L35.843 50.6092C35.8013 52.0423 34.7655 53.3692 33.0457 54.3467C31.3306 55.3215 28.9657 55.9284 26.3462 55.9284L26.3462 56.1035L26.3462 56.2786C29.0155 56.2786 31.4423 55.661 33.2188 54.6512C34.9906 53.6442 36.1463 52.2264 36.1931 50.6194L36.0181 50.6143ZM26.3462 56.1035V55.9284C23.6992 55.9284 21.3113 55.3088 19.5912 54.316C17.8665 53.3206 16.8446 51.9717 16.8446 50.5186H16.6694H16.4943C16.4943 52.1499 17.6386 53.5934 19.4162 54.6194C21.1984 55.648 23.6489 56.2786 26.3462 56.2786V56.1035ZM16.6694 50.5186L16.8446 50.5186C16.8446 50.4656 16.8486 50.4158 16.8521 50.3512L16.6772 50.3418L16.5024 50.3324C16.4995 50.3853 16.4943 50.4531 16.4943 50.5186L16.6694 50.5186ZM16.6772 50.3418H16.8524V48.333H16.6772H16.5021V50.3418H16.6772ZM16.6772 48.333L16.6766 48.5081L17.4354 48.5111L17.436 48.3359L17.4367 48.1608L16.6779 48.1579L16.6772 48.333ZM17.436 48.3359L17.5771 48.4398C19.003 46.5031 22.3717 45.1087 26.3462 45.1087V44.9336V44.7585C22.3158 44.7585 18.8141 46.1689 17.295 48.2321L17.436 48.3359Z" fill="#7A7A7A" mask="url(#path-7-inside-2_5432_33004)"/>
<path d="M26.387 42.9707C29.0577 42.9707 31.4712 43.593 33.2141 44.5947C34.9594 45.5978 36.0159 46.9703 36.0159 48.4678C36.0159 49.9653 34.9594 51.3377 33.2141 52.3408C31.4712 53.3425 29.0577 53.9648 26.387 53.9648C23.7162 53.9648 21.2873 53.3437 19.5295 52.3428C17.7692 51.3403 16.6986 49.9685 16.6985 48.4717C16.6985 46.9747 17.7691 45.601 19.5295 44.5967C21.2873 43.5939 23.7161 42.9707 26.387 42.9707Z" fill="#F2F4FF" stroke="#7A7A7A" stroke-width="0.17512"/>
<path d="M26.7864 46.2123L25.9519 46.6937C26.079 46.7084 26.2045 46.7291 26.328 46.7595C26.5172 46.8049 26.6984 46.8669 26.8726 46.9421L27.483 46.5903L28.11 46.9523L27.5022 47.3028C27.7312 47.4787 27.8779 47.6646 27.9415 47.8615C28.0288 48.1295 27.9228 48.4016 27.6242 48.6775C27.5506 48.7438 27.4816 48.7997 27.4173 48.8448C27.3507 48.8886 27.2643 48.9409 27.1587 49.0019L27.1114 49.0287L30.7988 48.9023L29.6405 49.5708L25.9768 49.6844L25.2011 49.2368L26.3523 48.5722C26.4005 48.5443 26.4498 48.5128 26.5004 48.4783C26.5532 48.4425 26.5984 48.4063 26.6351 48.3691C26.7339 48.2696 26.7799 48.1728 26.773 48.0786C26.7661 47.9818 26.7235 47.892 26.6453 47.8098C26.6429 47.8071 26.6401 47.8048 26.6377 47.8021L24.7018 48.9201L24.0741 48.5581L26.0107 47.4395C26.0063 47.4381 26.0017 47.437 25.9973 47.4356C25.8526 47.3892 25.6963 47.3643 25.5286 47.3603C25.3632 47.355 25.1955 47.3817 25.0255 47.4401C24.9612 47.4613 24.8988 47.4874 24.839 47.5193C24.7794 47.5484 24.7256 47.577 24.6775 47.6048L23.5263 48.2695L22.7473 47.82L26.1594 45.8496L26.7864 46.2123Z" fill="#A8AFFF"/>
<path d="M63.2384 31.1435L58.2678 29.8477L51.108 33.965L56.2293 35.2002L59.4929 35.3307L63.2384 31.1435Z" fill="#5160FF"/>
<path d="M56.2845 62.9549L51.2697 61.6261L53.3104 58.0822L58.0721 56.9434L56.2845 62.9549Z" fill="#5160FF"/>
<path d="M53.9503 12.5574L40.7705 52.4236L40.7198 52.5779L51.3318 46.4506L51.3322 34.0219L58.1825 30.0666L58.1821 42.4953L62.0563 40.2583L62.056 47.5406L58.1818 49.7775L58.1816 57.6662L51.3313 61.6215L51.3316 53.7328L33.0236 64.3037L33.0238 56.9521L46.2256 17.0176L53.9503 12.5574Z" fill="#F2F4FF" stroke="#7A7A7A" stroke-width="0.17512"/>
<path d="M56.3468 52.6201L56.1671 62.8418L51.3575 61.5605V51.3584L56.3468 52.6201Z" fill="#F2F4FF" stroke="#7A7A7A" stroke-width="0.17512"/>
<path d="M56.4753 35.3291L57.532 47.8447L51.2712 46.3203V33.9648L56.4753 35.3291Z" fill="#F2F4FF" stroke="#7A7A7A" stroke-width="0.17512"/>
<path d="M59.0645 13.6298L54.0707 12.3047L46.7268 20.4073L41.7397 37.8622L37.2762 51.8489L32.9667 64.3374L37.921 65.6389L42.6867 51.9332L48.6283 30.3003L59.0645 13.6298Z" fill="#A8AFFF"/>
<path d="M37.975 58.1924V65.582L32.9613 64.4863V56.9951L37.975 58.1924Z" fill="#F2F4FF" stroke="#7A7A7A" stroke-width="0.17512"/>
<path d="M51.1509 18.2549L37.9487 58.1729L32.978 56.9805L46.2075 16.9766L51.1509 18.2549Z" fill="#F2F4FF" stroke="#7A7A7A" stroke-width="0.17512"/>
<path d="M66.9385 41.3936L63.4873 45.9482L59.2871 44.2842L63.25 40.7666L66.9385 41.3936Z" fill="#F2F4FF" stroke="#7A7A7A" stroke-width="0.17512"/>
<path d="M63.0891 31.2471L58.2043 34.0713L56.3 35.1689L51.3772 33.9766L58.3469 29.9414L63.0891 31.2471Z" fill="#F2F4FF" stroke="#7A7A7A" stroke-width="0.17512"/>
<path d="M58.9228 13.7547L45.7431 53.6208L45.6923 53.7751L56.3043 47.6479L56.3047 35.2191L63.155 31.2638L63.1546 43.6926L67.0288 41.4556L67.0286 48.7378L63.1544 50.9748L63.1541 58.8635L56.3038 62.8188L56.3041 54.9301L37.9961 65.501L37.9963 58.1494L51.1981 18.2149L58.9228 13.7547Z" fill="#2638FF"/>
<path d="M58.9228 13.7547L45.7431 53.6208L45.6923 53.7751L56.3043 47.6479L56.3047 35.2191L63.155 31.2638L63.1546 43.6926L67.0288 41.4556L67.0286 48.7378L63.1544 50.9748L63.1541 58.8635L56.3038 62.8188L56.3041 54.9301L37.9961 65.501L37.9963 58.1494L51.1981 18.2149L58.9228 13.7547Z" fill="#A8AFFF"/>
<path d="M58.9228 13.7547L45.7431 53.6208L45.6923 53.7751L56.3043 47.6479L56.3047 35.2191L63.155 31.2638L63.1546 43.6926L67.0288 41.4556L67.0286 48.7378L63.1544 50.9748L63.1541 58.8635L56.3038 62.8188L56.3041 54.9301L37.9961 65.501L37.9963 58.1494L51.1981 18.2149L58.9228 13.7547Z" stroke="#7A7A7A" stroke-width="0.17512"/>
<path d="M58.8594 13.6592L51.1006 18.1104L46.3828 16.8789L54.1123 12.3848L58.8594 13.6592Z" fill="#F2F4FF" stroke="#7A7A7A" stroke-width="0.17512"/>
<path d="M76.9574 13.582L78.2738 20.6074L78.2777 20.627L78.2894 20.6426L83.5453 27.8555L70.7162 52.3672L65.8607 51.1201L78.0804 28.5781L78.1107 28.5234L78.0677 28.4766L66.1595 15.6797L72.0892 12.2969L76.9574 13.582Z" fill="#F2F4FF" stroke="#E9E9E9" stroke-width="0.17512"/>
<path d="M71.9805 12.302L78.6748 20.8477L78.739 20.9307L78.8033 20.7735L85.435 4.53648L92.1719 1.3263L82.8008 24.6743L82.7763 24.7343L82.8008 24.7651L91.5855 36.175L85.7222 39.5604L78.803 30.751L78.7387 30.669L78.6745 30.8253L71.7333 47.6375L65.8319 51.0449L75.751 27.5719L75.7772 27.5099L75.751 27.4772L66.1189 15.6865L71.9805 12.302Z" fill="#F2F4FF" stroke="#7A7A7A" stroke-width="0.17512"/>
<path d="M71.2531 17.1475L80.8087 28.6855V29.9629L75.8087 27.6084L66.2423 15.834L71.2531 17.1475Z" fill="#F2F4FF" stroke="#7A7A7A" stroke-width="0.17512"/>
<path d="M80.6199 28.7949L70.697 52.3115L65.8142 51.1348L75.7302 27.6846L80.6199 28.7949Z" fill="#F2F4FF" stroke="#7A7A7A" stroke-width="0.17512"/>
<path d="M90.48 40.8398L85.7612 39.5957L81.7544 34.6748L83.6763 30.9229L90.48 40.8398Z" fill="#F2F4FF" stroke="#7A7A7A" stroke-width="0.17512"/>
<path d="M76.9036 13.6263L83.5979 22.1719L83.6621 22.255L83.7264 22.0977L90.3597 5.85679L96.262 2.44889L86.6287 25.3633L86.6025 25.4253L86.6287 25.458L96.5053 37.5011L90.6453 40.8846L83.7261 32.0753L83.6618 31.9932L83.5976 32.1495L76.6564 48.9617L70.755 52.3691L80.6741 28.8962L80.7003 28.8342L80.6741 28.8014L71.042 17.0107L76.9036 13.6263Z" fill="#2638FF"/>
<path d="M76.9036 13.6263L83.5979 22.1719L83.6621 22.255L83.7264 22.0977L90.3597 5.85679L96.262 2.44889L86.6287 25.3633L86.6025 25.4253L86.6287 25.458L96.5053 37.5011L90.6453 40.8846L83.7261 32.0753L83.6618 31.9932L83.5976 32.1495L76.6564 48.9617L70.755 52.3691L80.6741 28.8962L80.7003 28.8342L80.6741 28.8014L71.042 17.0107L76.9036 13.6263Z" fill="#A8AFFF"/>
<path d="M76.9036 13.6263L83.5979 22.1719L83.6621 22.255L83.7264 22.0977L90.3597 5.85679L96.262 2.44889L86.6287 25.3633L86.6025 25.4253L86.6287 25.458L96.5053 37.5011L90.6453 40.8846L83.7261 32.0753L83.6618 31.9932L83.5976 32.1495L76.6564 48.9617L70.755 52.3691L80.6741 28.8962L80.7003 28.8342L80.6741 28.8014L71.042 17.0107L76.9036 13.6263Z" stroke="#7A7A7A" stroke-width="0.17512"/>
<path d="M92.3108 1.35254C93.1033 1.55933 93.6907 1.74159 94.2795 1.9248C94.8245 2.09439 95.3717 2.26301 96.0813 2.45215L90.386 5.71191L85.6262 4.53223L92.3108 1.35254Z" fill="#F2F4FF" stroke="#7A7A7A" stroke-width="0.17512"/>
<path d="M74.5139 13.0088C75.2877 13.2125 76.0619 13.415 76.8079 13.6094L71.0129 16.9004L66.0549 15.6084L72.0432 12.3604C72.8433 12.5685 73.6786 12.7889 74.5139 13.0088Z" fill="#F2F4FF" stroke="#7A7A7A" stroke-width="0.17512"/>
<mask id="path-31-inside-3_5432_33004" fill="white">
<path d="M96.6268 43.2949C100.682 43.2949 104.153 44.7355 105.593 46.7773L106.312 46.7812V48.9736H106.3C106.213 52.0154 101.918 54.4658 96.6268 54.4658C91.2819 54.4658 86.9491 51.9647 86.9491 48.8799C86.9491 48.8207 86.9537 48.7619 86.9569 48.7031V46.6924L87.7177 46.6953C89.1913 44.6964 92.6254 43.2949 96.6268 43.2949Z"/>
</mask>
<path d="M96.6268 43.2949C100.682 43.2949 104.153 44.7355 105.593 46.7773L106.312 46.7812V48.9736H106.3C106.213 52.0154 101.918 54.4658 96.6268 54.4658C91.2819 54.4658 86.9491 51.9647 86.9491 48.8799C86.9491 48.8207 86.9537 48.7619 86.9569 48.7031V46.6924L87.7177 46.6953C89.1913 44.6964 92.6254 43.2949 96.6268 43.2949Z" fill="#F2F4FF"/>
<path d="M96.6268 43.2949V43.1198H96.6268L96.6268 43.2949ZM105.593 46.7773L105.45 46.8783L105.502 46.952L105.592 46.9525L105.593 46.7773ZM106.312 46.7812H106.487V46.6071L106.313 46.6061L106.312 46.7812ZM106.312 48.9736V49.1488H106.487V48.9736H106.312ZM106.3 48.9736V48.7985H106.129L106.125 48.9687L106.3 48.9736ZM96.6268 54.4658L96.6268 54.6409H96.6268V54.4658ZM86.9491 48.8799L86.774 48.8799V48.8799H86.9491ZM86.9569 48.7031L87.132 48.7126V48.7031H86.9569ZM86.9569 46.6924L86.9576 46.5173L86.7818 46.5166V46.6924H86.9569ZM87.7177 46.6953L87.717 46.8704L87.8059 46.8708L87.8586 46.7992L87.7177 46.6953ZM96.6268 43.2949V43.47C100.654 43.47 104.056 44.9025 105.45 46.8783L105.593 46.7773L105.736 46.6764C104.249 44.5684 100.71 43.1198 96.6268 43.1198V43.2949ZM105.593 46.7773L105.592 46.9525L106.311 46.9564L106.312 46.7812L106.313 46.6061L105.594 46.6022L105.593 46.7773ZM106.312 46.7812H106.137V48.9736H106.312H106.487V46.7812H106.312ZM106.312 48.9736V48.7985H106.3V48.9736V49.1488H106.312V48.9736ZM106.3 48.9736L106.125 48.9687C106.084 50.4025 105.048 51.7301 103.328 52.7081C101.613 53.6835 99.2473 54.2907 96.6268 54.2907V54.4658V54.6409C99.2972 54.6409 101.725 54.0229 103.501 53.0126C105.274 52.005 106.429 50.5865 106.475 48.9786L106.3 48.9736ZM96.6268 54.4658L96.6268 54.2907C93.9795 54.2907 91.5914 53.6709 89.8712 52.678C88.1463 51.6824 87.1242 50.3332 87.1242 48.8799H86.9491H86.774C86.774 50.5114 87.9183 51.9552 89.6961 52.9813C91.4785 54.0101 93.9293 54.6409 96.6268 54.6409L96.6268 54.4658ZM86.9491 48.8799L87.1242 48.8799C87.1242 48.827 87.1283 48.777 87.1318 48.7126L86.9569 48.7031L86.782 48.6937C86.7792 48.7467 86.774 48.8144 86.774 48.8799L86.9491 48.8799ZM86.9569 48.7031H87.132V46.6924H86.9569H86.7818V48.7031H86.9569ZM86.9569 46.6924L86.9562 46.8675L87.717 46.8704L87.7177 46.6953L87.7183 46.5202L86.9576 46.5173L86.9569 46.6924ZM87.7177 46.6953L87.8586 46.7992C89.2857 44.8634 92.6533 43.4701 96.6268 43.47L96.6268 43.2949L96.6268 43.1198C92.5975 43.1198 89.0969 44.5293 87.5767 46.5914L87.7177 46.6953Z" fill="#7A7A7A" mask="url(#path-31-inside-3_5432_33004)"/>
<path d="M96.6649 41.3281C99.3355 41.3281 101.749 41.9503 103.492 42.9521C105.237 43.9554 106.294 45.3285 106.294 46.8262C106.294 48.3237 105.237 49.6961 103.492 50.6992C101.749 51.7011 99.3355 52.3242 96.6649 52.3242C93.9945 52.3242 91.5814 51.701 89.8387 50.6992C88.0937 49.6961 87.0371 48.3237 87.037 46.8262C87.037 45.3285 88.0936 43.9554 89.8387 42.9521C91.5814 41.9504 93.9946 41.3282 96.6649 41.3281Z" fill="#F2F4FF" stroke="#7A7A7A" stroke-width="0.17512"/>
<path d="M95.811 45.6348C95.6344 45.6293 95.4566 45.6574 95.2778 45.7188C95.2438 45.73 95.2103 45.7428 95.1772 45.7568L95.0815 45.8018C95.0203 45.8317 94.9646 45.8617 94.9146 45.8906L93.8071 46.5303L93.2036 46.1816L96.4399 44.3115L96.8921 44.5732L96.189 44.9795L95.9595 45.1113L96.2231 45.1426C96.2853 45.1497 96.3469 45.1575 96.4077 45.168L96.5884 45.2061C96.7722 45.2502 96.9487 45.3105 97.1187 45.3838L97.1597 45.4014L97.1978 45.3799L97.7632 45.0518L98.2153 45.3135L97.7397 45.5889L97.6265 45.6543L97.73 45.7334C97.8952 45.8602 98.0111 45.9892 98.0825 46.1191L98.1392 46.25C98.2023 46.4439 98.1499 46.651 97.9438 46.877L97.8462 46.9746C97.7748 47.039 97.7086 47.0923 97.6479 47.1348L97.397 47.2871L97.3491 47.3145L97.395 47.4775L100.733 47.3633L99.897 47.8447L96.2788 47.958L95.6567 47.5986L96.6772 47.0098L96.8306 46.9121C96.8867 46.8741 96.9363 46.8342 96.978 46.792C97.0858 46.6834 97.1506 46.5633 97.1411 46.4336C97.1346 46.3435 97.1033 46.2603 97.0503 46.1846L96.9897 46.1113L96.9829 46.1045L96.9351 46.0527L96.8745 46.0879L94.9819 47.1807L94.5298 46.9189L96.3354 45.877L96.5093 45.7764L96.3179 45.7178C96.3143 45.7167 96.3102 45.7154 96.3081 45.7148C96.3056 45.7141 96.3042 45.7132 96.3032 45.7129H96.3022C96.1496 45.6643 95.9859 45.638 95.812 45.6338L95.811 45.6348Z" fill="#F2F4FF" stroke="#7A7A7A" stroke-width="0.17512"/>
<mask id="path-35-inside-4_5432_33004" fill="white">
<path d="M96.6349 40.0469C100.691 40.0469 104.163 41.4885 105.602 43.5312L106.32 43.5352V45.7266H106.308C106.221 48.7679 101.925 51.2178 96.6349 51.2178C91.2902 51.2177 86.9575 48.7174 86.9572 45.6328C86.9572 45.5734 86.9618 45.514 86.965 45.4551V43.4463L87.7238 43.4492C89.1965 41.4491 92.6321 40.0469 96.6349 40.0469Z"/>
</mask>
<path d="M96.6349 40.0469C100.691 40.0469 104.163 41.4885 105.602 43.5312L106.32 43.5352V45.7266H106.308C106.221 48.7679 101.925 51.2178 96.6349 51.2178C91.2902 51.2177 86.9575 48.7174 86.9572 45.6328C86.9572 45.5734 86.9618 45.514 86.965 45.4551V43.4463L87.7238 43.4492C89.1965 41.4491 92.6321 40.0469 96.6349 40.0469Z" fill="#F2F4FF"/>
<path d="M96.6349 40.0469V39.8718H96.6349L96.6349 40.0469ZM105.602 43.5312L105.459 43.6321L105.51 43.7059L105.601 43.7064L105.602 43.5312ZM106.32 43.5352H106.496V43.361L106.321 43.36L106.32 43.5352ZM106.32 45.7266V45.9017H106.496V45.7266H106.32ZM106.308 45.7266V45.5514H106.138L106.133 45.7215L106.308 45.7266ZM96.6349 51.2178L96.6349 51.3929H96.6349V51.2178ZM86.9572 45.6328H86.782V45.6328L86.9572 45.6328ZM86.965 45.4551L87.1401 45.4645V45.4551H86.965ZM86.965 43.4463L86.9656 43.2712L86.7898 43.2705V43.4463H86.965ZM87.7238 43.4492L87.7231 43.6243L87.812 43.6247L87.8648 43.5531L87.7238 43.4492ZM96.6349 40.0469V40.222C100.663 40.222 104.066 41.6556 105.459 43.6321L105.602 43.5312L105.745 43.4304C104.259 41.3214 100.719 39.8718 96.6349 39.8718V40.0469ZM105.602 43.5312L105.601 43.7064L106.319 43.7103L106.32 43.5352L106.321 43.36L105.603 43.3561L105.602 43.5312ZM106.32 43.5352H106.145V45.7266H106.32H106.496V43.5352H106.32ZM106.32 45.7266V45.5514H106.308V45.7266V45.9017H106.32V45.7266ZM106.308 45.7266L106.133 45.7215C106.092 47.1552 105.056 48.4826 103.336 49.4604C101.621 50.4356 99.2552 51.0427 96.6349 51.0427V51.2178V51.3929C99.305 51.3929 101.732 50.775 103.509 49.7649C105.281 48.7575 106.437 47.3392 106.483 45.7316L106.308 45.7266ZM96.6349 51.2178L96.6349 51.0427C93.9877 51.0426 91.5997 50.4231 89.8794 49.4303C88.1546 48.435 87.1325 47.086 87.1323 45.6328L86.9572 45.6328L86.782 45.6328C86.7822 47.2642 87.9266 48.7078 89.7044 49.7337C91.4868 50.7623 93.9374 51.3929 96.6349 51.3929L96.6349 51.2178ZM86.9572 45.6328H87.1323C87.1323 45.5797 87.1363 45.529 87.1398 45.4645L86.965 45.4551L86.7901 45.4456C86.7872 45.499 86.782 45.5671 86.782 45.6328H86.9572ZM86.965 45.4551H87.1401V43.4463H86.965H86.7898V45.4551H86.965ZM86.965 43.4463L86.9643 43.6214L87.7231 43.6243L87.7238 43.4492L87.7244 43.2741L86.9656 43.2712L86.965 43.4463ZM87.7238 43.4492L87.8648 43.5531C89.291 41.6162 92.66 40.222 96.6349 40.222L96.6349 40.0469L96.6349 39.8718C92.6042 39.8718 89.1021 41.2821 87.5827 43.3454L87.7238 43.4492Z" fill="#7A7A7A" mask="url(#path-35-inside-4_5432_33004)"/>
<path d="M96.673 38.0781C99.3435 38.0781 101.757 38.7003 103.5 39.7021C105.245 40.7054 106.302 42.0785 106.302 43.5762C106.302 45.0737 105.245 46.4461 103.5 47.4492C101.757 48.4511 99.3435 49.0742 96.673 49.0742C94.0026 49.0742 91.5895 48.451 89.8468 47.4492C88.1018 46.4461 87.0452 45.0737 87.045 43.5762C87.045 42.0785 88.1017 40.7054 89.8468 39.7021C91.5895 38.7004 94.0026 38.0782 96.673 38.0781Z" fill="#F2F4FF" stroke="#7A7A7A" stroke-width="0.17512"/>
<path d="M95.819 42.3848C95.6424 42.3793 95.4645 42.4074 95.2858 42.4688C95.2518 42.48 95.2183 42.4928 95.1852 42.5068L95.0895 42.5518C95.0282 42.5817 94.9725 42.6117 94.9225 42.6406L93.8151 43.2803L93.2115 42.9316L96.4479 41.0615L96.9 41.3232L96.1969 41.7295L95.9674 41.8613L96.2311 41.8926C96.2932 41.8997 96.3548 41.9075 96.4156 41.918L96.5963 41.9561C96.7801 42.0002 96.9566 42.0605 97.1266 42.1338L97.1676 42.1514L97.2057 42.1299L97.7711 41.8018L98.2233 42.0635L97.7477 42.3389L97.6344 42.4043L97.7379 42.4834C97.9031 42.6102 98.0191 42.7392 98.0905 42.8691L98.1471 43C98.2103 43.1939 98.1579 43.401 97.9518 43.627L97.8541 43.7246C97.7827 43.789 97.7165 43.8423 97.6559 43.8848L97.4049 44.0371L97.3571 44.0645L97.403 44.2275L100.741 44.1133L99.9049 44.5947L96.2867 44.708L95.6647 44.3486L96.6852 43.7598L96.8385 43.6621C96.8946 43.6241 96.9442 43.5842 96.986 43.542C97.0937 43.4334 97.1585 43.3133 97.149 43.1836C97.1426 43.0935 97.1113 43.0103 97.0582 42.9346L96.9977 42.8613L96.9908 42.8545L96.943 42.8027L96.8824 42.8379L94.9899 43.9307L94.5377 43.6689L96.3434 42.627L96.5172 42.5264L96.3258 42.4678C96.3222 42.4667 96.3182 42.4654 96.316 42.4648C96.3135 42.4641 96.3121 42.4632 96.3112 42.4629H96.3102C96.1575 42.4143 95.9939 42.388 95.8199 42.3838L95.819 42.3848Z" fill="#F2F4FF" stroke="#7A7A7A" stroke-width="0.17512"/>
<path d="M94.7314 37.7031C98.7874 37.7031 102.258 39.1448 103.697 41.1875L104.416 41.1914V43.3828H104.403C104.316 46.4235 100.021 48.873 94.7314 48.873C89.3872 48.873 85.0547 46.3725 85.0547 43.2881C85.0547 43.2289 85.0593 43.1701 85.0625 43.1113V41.1025L85.8213 41.1055C87.2938 39.1055 90.7289 37.7031 94.7314 37.7031Z" fill="#D4D7FF"/>
<path d="M94.7314 37.7031V37.6156V37.7031ZM103.697 41.1875L103.626 41.2379L103.652 41.2748L103.697 41.2751L103.697 41.1875ZM104.416 41.1914H104.504V41.1043L104.416 41.1038L104.416 41.1914ZM104.416 43.3828V43.4704H104.504V43.3828H104.416ZM104.403 43.3828V43.2953H104.318L104.316 43.3803L104.403 43.3828ZM94.7314 48.873V48.9606V48.873ZM85.0547 43.2881H84.9671V43.2881L85.0547 43.2881ZM85.0625 43.1113L85.1501 43.116V43.1113H85.0625ZM85.0625 41.1025L85.0628 41.015L84.9749 41.0146V41.1025H85.0625ZM85.8213 41.1055L85.821 41.193L85.8654 41.1932L85.8918 41.1574L85.8213 41.1055ZM94.7314 37.7031V37.7907C98.7736 37.7907 102.21 39.2283 103.626 41.2379L103.697 41.1875L103.769 41.1371C102.307 39.0613 98.8013 37.6156 94.7314 37.6156V37.7031ZM103.697 41.1875L103.697 41.2751L104.416 41.279L104.416 41.1914L104.416 41.1038L103.698 41.0999L103.697 41.1875ZM104.416 41.1914H104.328V43.3828H104.416H104.504V41.1914H104.416ZM104.416 43.3828V43.2953H104.403V43.3828V43.4704H104.416V43.3828ZM104.403 43.3828L104.316 43.3803C104.273 44.8572 103.208 46.207 101.475 47.1921C99.7443 48.1758 97.3637 48.7855 94.7314 48.7855V48.873V48.9606C97.3886 48.9606 99.8001 48.3455 101.561 47.3443C103.32 46.3444 104.446 44.9492 104.491 43.3853L104.403 43.3828ZM94.7314 48.873V48.7855C92.0719 48.7855 89.6684 48.1631 87.9327 47.1614C86.1948 46.1584 85.1423 44.7858 85.1422 43.2881L85.0547 43.2881L84.9671 43.2881C84.9671 44.8749 86.0808 46.2948 87.8452 47.3131C89.6119 48.3327 92.0467 48.9606 94.7314 48.9606V48.873ZM85.0547 43.2881H85.1422C85.1422 43.232 85.1466 43.1777 85.1499 43.116L85.0625 43.1113L84.9751 43.1066C84.9721 43.1624 84.9671 43.2258 84.9671 43.2881H85.0547ZM85.0625 43.1113H85.1501V41.1025H85.0625H84.9749V43.1113H85.0625ZM85.0625 41.1025L85.0622 41.1901L85.821 41.193L85.8213 41.1055L85.8216 41.0179L85.0628 41.015L85.0625 41.1025ZM85.8213 41.1055L85.8918 41.1574C87.341 39.1891 90.7429 37.7907 94.7314 37.7907V37.7031V37.6156C90.715 37.6156 87.2466 39.022 85.7508 41.0536L85.8213 41.1055Z" fill="#2C2D24"/>
<path d="M94.7721 35.6963C97.4489 35.6963 99.8701 36.3201 101.621 37.3262C103.373 38.3331 104.445 39.7174 104.445 41.2373C104.445 42.7572 103.373 44.1415 101.621 45.1484C99.8701 46.1545 97.4489 46.7783 94.7721 46.7783C92.0951 46.7783 89.6587 46.1557 87.8932 45.1504C86.1265 44.1443 85.0398 42.7607 85.0397 41.2412C85.0397 39.7216 86.1264 38.3361 87.8932 37.3281C89.6587 36.321 92.0951 35.6963 94.7721 35.6963Z" fill="#F2F4FF" stroke="#2C2D24" stroke-width="0.08756"/>
<path d="M95.1717 38.9838L94.3372 39.4652C94.4643 39.4798 94.5898 39.5006 94.7133 39.531C94.9025 39.5764 95.0836 39.6384 95.2579 39.7136L95.8683 39.3617L96.4953 39.7238L95.8875 40.0743C96.1164 40.2501 96.2632 40.4361 96.3267 40.633C96.4141 40.901 96.3081 41.1731 96.0094 41.449C95.9359 41.5153 95.8669 41.5712 95.8025 41.6163C95.7359 41.66 95.6496 41.7124 95.5439 41.7734L95.4967 41.8002L99.184 41.6737L98.0258 42.3423L94.3621 42.4559L93.5863 42.0083L94.7375 41.3436C94.7858 41.3158 94.8351 41.2843 94.8857 41.2498C94.9385 41.214 94.9836 41.1777 95.0204 41.1406C95.1191 41.0411 95.1652 40.9443 95.1583 40.8501C95.1514 40.7532 95.1087 40.6635 95.0306 40.5813C95.0282 40.5786 95.0254 40.5763 95.0229 40.5736L93.087 41.6916L92.4594 41.3296L94.3959 40.211C94.3916 40.2096 94.3869 40.2085 94.3825 40.2071C94.2378 40.1607 94.0815 40.1358 93.9139 40.1318C93.7484 40.1265 93.5807 40.1532 93.4107 40.2116C93.3464 40.2328 93.284 40.2589 93.2243 40.2908C93.1647 40.3199 93.1109 40.3485 93.0627 40.3763L91.9115 41.041L91.1326 40.5915L94.5447 38.6211L95.1717 38.9838Z" fill="#A8AFFF"/>
</g>
</svg>
