<svg width="101" height="89" viewBox="0 0 101 89" fill="none" xmlns="http://www.w3.org/2000/svg">
<mask id="mask0_4303_17748" style="mask-type:alpha" maskUnits="userSpaceOnUse" x="0" y="0" width="120" height="89">
<rect y="0.726562" width="120" height="88" fill="#D9D9D9"/>
</mask>
<g mask="url(#mask0_4303_17748)">
<path d="M87.9748 4.30469L-20.6766 67.0346" stroke="url(#paint0_linear_4303_17748)" stroke-width="0.155508" stroke-linecap="round" stroke-dasharray="0.31 0.62"/>
<path d="M197.975 24.3047L89.3234 87.0346" stroke="url(#paint1_linear_4303_17748)" stroke-width="0.155508" stroke-linecap="round" stroke-dasharray="0.31 0.62"/>
<path d="M140.132 40.5078L31.4807 103.238" stroke="url(#paint2_linear_4303_17748)" stroke-width="0.155508" stroke-linecap="round" stroke-dasharray="0.31 0.62"/>
<path d="M-37.3885 26.8516L71.2629 89.5815" stroke="url(#paint3_linear_4303_17748)" stroke-width="0.155508" stroke-linecap="round" stroke-dasharray="0.31 0.62"/>
<path d="M-14.4051 11.1738L94.2463 73.9038" stroke="url(#paint4_linear_4303_17748)" stroke-width="0.155508" stroke-linecap="round" stroke-dasharray="0.31 0.62"/>
<path d="M117.456 45.0117L10.6143 105.99" stroke="url(#paint5_linear_4303_17748)" stroke-width="0.155508" stroke-linecap="round" stroke-dasharray="0.31 0.62"/>
<path d="M76.1572 34.9308L119.803 60.3124L49.0366 101.466L5.39096 76.084L76.1572 34.9308Z" fill="#222222" stroke="#7A7A7A" stroke-width="0.340447"/>
<path d="M76.1572 28.2279L119.75 53.5785L49.0375 94.7002L5.44499 69.3496L76.1572 28.2279Z" fill="#23264E" stroke="#2534D3" stroke-width="0.401995"/>
<path d="M86.3851 48.8437C86.8666 47.6926 87.9683 47.0535 88.4382 47.6547L90.78 50.6493C91.4073 51.4518 92.9035 50.4794 93.4071 48.9418L94.416 45.8591C94.8272 44.6035 96.0567 43.8248 96.545 44.5106L97.168 45.3866L99.9243 49.4321L75.1692 63.8281L78.15 57.79C78.5519 56.9765 79.2768 56.4434 79.7962 56.5788L81.5505 57.0361C82.2569 57.2203 83.2519 56.4127 83.7082 55.2852L84.0417 54.4595L84.0425 54.46C85.3997 51.1452 85.6409 50.624 86.3851 48.8437Z" fill="#222222" stroke="#383838" stroke-width="0.340447"/>
<path d="M88.3257 49.9457C87.5831 51.722 87.34 52.2479 85.9822 55.5643L85.648 56.3901C85.2366 57.4069 84.3393 58.1349 83.7022 57.9689L81.9477 57.5115C81.3646 57.3595 80.5508 57.9587 80.0998 58.8721L76.9268 65.2984L103.578 49.8202L102.332 49.1229C101.164 48.4694 100.164 47.5354 99.3604 46.3482L98.7367 45.4722C98.1885 44.7025 96.8091 45.5765 96.3477 46.9859L95.3387 50.0679C94.8847 51.4545 93.5353 52.332 92.9697 51.6083L90.6282 48.6127C90.1001 47.937 88.8644 48.6573 88.3257 49.9457Z" fill="#2638FF"/>
<path d="M85.9822 55.5643C86.6251 55.1904 85.3392 55.9382 85.9822 55.5643ZM85.9822 55.5643C87.34 52.2479 87.5831 51.722 88.3257 49.9457C88.8644 48.6573 90.1001 47.937 90.6282 48.6127L92.9697 51.6083C93.5353 52.332 94.8847 51.4545 95.3387 50.0679L96.3477 46.9859C96.8091 45.5765 98.1885 44.7025 98.7367 45.4722L99.3604 46.3482V46.3482C100.164 47.5354 101.164 48.4694 102.332 49.1229L103.578 49.8202L76.9268 65.2984L80.0998 58.8721C80.5508 57.9587 81.3646 57.3595 81.9477 57.5115L83.7022 57.9689C84.3393 58.1349 85.2366 57.4069 85.648 56.3901L85.9822 55.5643Z" stroke="#2638FF" stroke-width="0.164625" stroke-linejoin="bevel"/>
<path d="M58.497 77.3164C60.7403 77.3164 62.6603 78.1195 63.4564 79.2574L63.8547 79.2596V80.4816H63.847C63.7982 82.1757 61.4228 83.5404 58.497 83.5404C55.5405 83.5404 53.1436 82.1466 53.1436 80.4279C53.1436 80.3919 53.1459 80.3561 53.148 80.3205V79.2102L53.568 79.2113C54.3829 78.0973 56.2832 77.3164 58.497 77.3164Z" fill="#2534D3"/>
<ellipse cx="58.4968" cy="79.2859" rx="5.35322" ry="3.11202" fill="#222222"/>
<ellipse cx="11.0819" cy="69.4243" rx="1.6067" ry="0.934032" fill="#222222"/>
<path d="M58.8158 78.0738L58.3544 78.3413C58.4247 78.3494 58.494 78.3616 58.5622 78.3785C58.6665 78.4038 58.7665 78.4377 58.8625 78.4794L59.2009 78.2843L59.548 78.4859L59.2107 78.681C59.3377 78.7791 59.4192 78.8824 59.4545 78.9923C59.5028 79.1416 59.4445 79.2934 59.2793 79.4471C59.2387 79.484 59.2006 79.5151 59.165 79.5403C59.1282 79.5646 59.0799 79.5939 59.0214 79.6279L58.9953 79.6422L61.0354 79.572L60.3946 79.9447L58.3675 80.0082L57.9388 79.7584L58.5753 79.3879C58.602 79.3724 58.63 79.3556 58.658 79.3364C58.6871 79.3165 58.7117 79.2957 58.732 79.275C58.7864 79.2198 58.8117 79.1662 58.8081 79.1139C58.8043 79.06 58.7806 79.0096 58.7374 78.9638L58.7331 78.9594L57.6624 79.5819L57.3153 79.3802L58.386 78.7577C58.3838 78.7571 58.3816 78.7562 58.3794 78.7555C58.2995 78.7297 58.2131 78.7151 58.1205 78.7128C58.029 78.7098 57.9359 78.7253 57.8419 78.7577C57.8064 78.7696 57.7716 78.7838 57.7386 78.8016C57.7056 78.8178 57.676 78.8343 57.6493 78.8498L57.0117 79.2202L56.5808 78.9693L57.237 78.5879H57.2348L58.4687 77.8711L58.8158 78.0738Z" fill="#2534D3"/>
<path d="M24.0054 69.6621C26.2488 69.6621 28.1687 70.4652 28.9649 71.6031L29.3631 71.6053V72.8273H29.3555C29.3066 74.5214 26.9313 75.8861 24.0054 75.8861C21.0489 75.8861 18.6521 74.4923 18.6521 72.7736C18.6521 72.7376 18.6544 72.7018 18.6565 72.6662V71.5559L19.0765 71.557C19.8913 70.443 21.7917 69.6621 24.0054 69.6621Z" fill="#2534D3"/>
<ellipse cx="24.0053" cy="71.6296" rx="5.35322" ry="3.11202" fill="#222222"/>
<path d="M24.3242 70.4196L23.8629 70.687C23.9332 70.6951 24.0024 70.7073 24.0707 70.7242C24.175 70.7495 24.275 70.7834 24.371 70.8251L24.7094 70.63L25.0565 70.8316L24.7192 71.0267C24.8462 71.1248 24.9277 71.2281 24.9629 71.338C25.0112 71.4873 24.953 71.6391 24.7878 71.7928C24.7471 71.8297 24.7091 71.8608 24.6735 71.886C24.6367 71.9104 24.5884 71.9396 24.5299 71.9736L24.5038 71.9879L26.5439 71.9177L25.903 72.2904L23.876 72.3539L23.4473 72.1041L24.0838 71.7336C24.1105 71.7181 24.1385 71.7013 24.1665 71.6821C24.1956 71.6622 24.2202 71.6414 24.2405 71.6207C24.2949 71.5655 24.3202 71.5119 24.3166 71.4596C24.3128 71.4057 24.2891 71.3553 24.2459 71.3095L24.2416 71.3051L23.1709 71.9276L22.8238 71.7259L23.8945 71.1034C23.8923 71.1028 23.8901 71.1019 23.8879 71.1012C23.808 71.0754 23.7216 71.0608 23.629 71.0585C23.5375 71.0555 23.4444 71.071 23.3504 71.1034C23.3148 71.1153 23.2801 71.1295 23.247 71.1473C23.214 71.1635 23.1845 71.18 23.1578 71.1955L22.5202 71.5659L22.0893 71.315L22.7454 70.9336H22.7433L23.9771 70.2168L24.3242 70.4196Z" fill="#2534D3"/>
<path d="M94.4418 42.5916L88.6552 41.071L89.3006 39.1533L91.4993 37.9414L93.7199 38.5477L94.4418 42.5916Z" fill="#242B7A"/>
<path d="M62.5972 31.1093L56.8259 29.5938L48.5127 34.4091L54.459 35.8536L58.2483 36.0063L62.5972 31.1093Z" fill="#2534D3"/>
<path d="M54.523 68.3118L48.7003 66.7578L51.0698 62.6131L56.5986 61.2812L54.523 68.3118Z" fill="#2534D3"/>
<mask id="path-23-inside-1_4303_17748" fill="white">
<path d="M95.3579 -4.13574L95.3862 -4.1543L101.179 -2.61328L86.0943 23.7236L84.313 22.3291L84.1128 22.8096L95.6685 37L88.6538 41.0791L82.9273 33.7354L71.3335 56.0498L65.5054 54.541L65.4468 54.5762L77.0513 26.916L65.7818 13.0186L72.7954 8.93945L72.8237 8.97656L72.8589 8.95703L78.6148 10.4883L80.064 18.2852L80.5943 18.9668L88.3228 -0.0908203L95.3843 -4.19727L95.3579 -4.13574Z"/>
</mask>
<path d="M95.3579 -4.13574L95.3862 -4.1543L101.179 -2.61328L86.0943 23.7236L84.313 22.3291L84.1128 22.8096L95.6685 37L88.6538 41.0791L82.9273 33.7354L71.3335 56.0498L65.5054 54.541L65.4468 54.5762L77.0513 26.916L65.7818 13.0186L72.7954 8.93945L72.8237 8.97656L72.8589 8.95703L78.6148 10.4883L80.064 18.2852L80.5943 18.9668L88.3228 -0.0908203L95.3843 -4.19727L95.3579 -4.13574Z" fill="#242B7A"/>
<path d="M95.3579 -4.13574L95.0822 -4.25392L94.6904 -3.33974L95.5223 -3.8848L95.3579 -4.13574ZM95.3862 -4.1543L95.4634 -4.44421L95.3339 -4.47865L95.2218 -4.40524L95.3862 -4.1543ZM101.179 -2.61328L101.44 -2.46418L101.634 -2.80286L101.256 -2.9032L101.179 -2.61328ZM86.0943 23.7236L85.9093 23.9599L86.1823 24.1736L86.3546 23.8727L86.0943 23.7236ZM84.313 22.3291L84.4979 22.0929L84.1876 21.85L84.0361 22.2137L84.313 22.3291ZM84.1128 22.8096L83.8359 22.6942L83.7669 22.8598L83.8802 22.999L84.1128 22.8096ZM95.6685 37L95.8193 37.2593L96.1228 37.0828L95.9011 36.8106L95.6685 37ZM88.6538 41.0791L88.4172 41.2636L88.5783 41.4701L88.8046 41.3384L88.6538 41.0791ZM82.9273 33.7354L83.1638 33.5509L82.8765 33.1824L82.661 33.597L82.9273 33.7354ZM71.3335 56.0498L71.2583 56.3402L71.4896 56.4001L71.5997 56.1881L71.3335 56.0498ZM65.5054 54.541L65.5806 54.2506L65.4589 54.2191L65.351 54.2838L65.5054 54.541ZM65.4468 54.5762L65.1702 54.4601L64.8159 55.3046L65.6011 54.8334L65.4468 54.5762ZM77.0513 26.916L77.3279 27.0321L77.3974 26.8665L77.2843 26.7271L77.0513 26.916ZM65.7818 13.0186L65.6309 12.7592L65.3281 12.9354L65.5487 13.2075L65.7818 13.0186ZM72.7954 8.93945L73.0339 8.75745L72.8734 8.54708L72.6446 8.68012L72.7954 8.93945ZM72.8237 8.97656L72.5853 9.15856L72.7427 9.3648L72.9694 9.23881L72.8237 8.97656ZM72.8589 8.95703L72.936 8.66712L72.819 8.63599L72.7132 8.69478L72.8589 8.95703ZM78.6148 10.4883L78.9097 10.4335L78.8751 10.2471L78.6919 10.1984L78.6148 10.4883ZM80.064 18.2852L79.769 18.34L79.7824 18.4117L79.8272 18.4694L80.064 18.2852ZM80.5943 18.9668L80.3575 19.151L80.6768 19.5615L80.8723 19.0795L80.5943 18.9668ZM88.3228 -0.0908203L88.172 -0.350158L88.0833 -0.298602L88.0448 -0.203562L88.3228 -0.0908203ZM95.3843 -4.19727L95.66 -4.07909L96.0171 -4.91232L95.2335 -4.4566L95.3843 -4.19727ZM95.3579 -4.13574L95.5223 -3.8848L95.5507 -3.90336L95.3862 -4.1543L95.2218 -4.40524L95.1935 -4.38668L95.3579 -4.13574ZM95.3862 -4.1543L95.3091 -3.86438L101.102 -2.32336L101.179 -2.61328L101.256 -2.9032L95.4634 -4.44421L95.3862 -4.1543ZM101.179 -2.61328L100.919 -2.76239L85.8339 23.5745L86.0943 23.7236L86.3546 23.8727L101.44 -2.46418L101.179 -2.61328ZM86.0943 23.7236L86.2792 23.4874L84.4979 22.0929L84.313 22.3291L84.1281 22.5653L85.9093 23.9599L86.0943 23.7236ZM84.313 22.3291L84.0361 22.2137L83.8359 22.6942L84.1128 22.8096L84.3897 22.925L84.5899 22.4445L84.313 22.3291ZM84.1128 22.8096L83.8802 22.999L95.4358 37.1894L95.6685 37L95.9011 36.8106L84.3454 22.6201L84.1128 22.8096ZM95.6685 37L95.5177 36.7407L88.503 40.8198L88.6538 41.0791L88.8046 41.3384L95.8193 37.2593L95.6685 37ZM88.6538 41.0791L88.8904 40.8946L83.1638 33.5509L82.9273 33.7354L82.6907 33.9198L88.4172 41.2636L88.6538 41.0791ZM82.9273 33.7354L82.661 33.597L71.0673 55.9115L71.3335 56.0498L71.5997 56.1881L83.1935 33.8737L82.9273 33.7354ZM71.3335 56.0498L71.4087 55.7594L65.5806 54.2506L65.5054 54.541L65.4302 54.8314L71.2583 56.3402L71.3335 56.0498ZM65.5054 54.541L65.351 54.2838L65.2924 54.3189L65.4468 54.5762L65.6011 54.8334L65.6597 54.7983L65.5054 54.541ZM65.4468 54.5762L65.7234 54.6922L77.3279 27.0321L77.0513 26.916L76.7746 26.8L65.1702 54.4601L65.4468 54.5762ZM77.0513 26.916L77.2843 26.7271L66.0148 12.8296L65.7818 13.0186L65.5487 13.2075L76.8183 27.105L77.0513 26.916ZM65.7818 13.0186L65.9326 13.2779L72.9462 9.19878L72.7954 8.93945L72.6446 8.68012L65.6309 12.7592L65.7818 13.0186ZM72.7954 8.93945L72.5569 9.12146L72.5853 9.15856L72.8237 8.97656L73.0622 8.79456L73.0339 8.75745L72.7954 8.93945ZM72.8237 8.97656L72.9694 9.23881L73.0046 9.21928L72.8589 8.95703L72.7132 8.69478L72.6781 8.71432L72.8237 8.97656ZM72.8589 8.95703L72.7818 9.24695L78.5376 10.7782L78.6148 10.4883L78.6919 10.1984L72.936 8.66712L72.8589 8.95703ZM78.6148 10.4883L78.3198 10.5431L79.769 18.34L80.064 18.2852L80.3589 18.2303L78.9097 10.4335L78.6148 10.4883ZM80.064 18.2852L79.8272 18.4694L80.3575 19.151L80.5943 18.9668L80.831 18.7826L80.3008 18.101L80.064 18.2852ZM80.5943 18.9668L80.8723 19.0795L88.6008 0.0219221L88.3228 -0.0908203L88.0448 -0.203562L80.3162 18.8541L80.5943 18.9668ZM88.3228 -0.0908203L88.4736 0.168518L95.5351 -3.93793L95.3843 -4.19727L95.2335 -4.4566L88.172 -0.350158L88.3228 -0.0908203ZM95.3843 -4.19727L95.1085 -4.31544L95.0822 -4.25392L95.3579 -4.13574L95.6337 -4.01757L95.66 -4.07909L95.3843 -4.19727Z" fill="#F2F4FF" mask="url(#path-23-inside-1_4303_17748)"/>
<mask id="path-25-inside-2_4303_17748" fill="white">
<path d="M71.9605 14.6514L83.0991 28.1982V28.5264L83.1304 28.5352L83.0991 28.6074V29.8916L82.6411 29.6748L71.3325 56.0703L65.4673 54.5596L77.0523 26.9658L65.8091 13.0273L71.9605 14.6514Z"/>
</mask>
<path d="M71.9605 14.6514L83.0991 28.1982V28.5264L83.1304 28.5352L83.0991 28.6074V29.8916L82.6411 29.6748L71.3325 56.0703L65.4673 54.5596L77.0523 26.9658L65.8091 13.0273L71.9605 14.6514Z" fill="#242B7A"/>
<path d="M71.9605 14.6514L72.1922 14.4608L72.1307 14.386L72.037 14.3613L71.9605 14.6514ZM83.0991 28.1982H83.3991V28.0907L83.3309 28.0077L83.0991 28.1982ZM83.0991 28.5264H82.7991V28.7536L83.0179 28.8152L83.0991 28.5264ZM83.1304 28.5352L83.4057 28.6542L83.5419 28.3393L83.2116 28.2464L83.1304 28.5352ZM83.0991 28.6074L82.8238 28.4883L82.7991 28.5453V28.6074H83.0991ZM83.0991 29.8916L82.9708 30.1628L83.3991 30.3655V29.8916H83.0991ZM82.6411 29.6748L82.7695 29.4036L82.488 29.2704L82.3654 29.5567L82.6411 29.6748ZM71.3325 56.0703L71.2577 56.3608L71.5069 56.425L71.6083 56.1885L71.3325 56.0703ZM65.4673 54.5596L65.1907 54.4434L65.0563 54.7635L65.3925 54.8501L65.4673 54.5596ZM77.0523 26.9658L77.3289 27.082L77.3982 26.9168L77.2858 26.7775L77.0523 26.9658ZM65.8091 13.0273L65.8857 12.7373L65.0014 12.5038L65.5756 13.2157L65.8091 13.0273ZM71.9605 14.6514L71.7287 14.8419L82.8674 28.3888L83.0991 28.1982L83.3309 28.0077L72.1922 14.4608L71.9605 14.6514ZM83.0991 28.1982H82.7991V28.5264H83.0991H83.3991V28.1982H83.0991ZM83.0991 28.5264L83.0179 28.8152L83.0492 28.824L83.1304 28.5352L83.2116 28.2464L83.1804 28.2376L83.0991 28.5264ZM83.1304 28.5352L82.855 28.4161L82.8238 28.4883L83.0991 28.6074L83.3745 28.7265L83.4057 28.6542L83.1304 28.5352ZM83.0991 28.6074H82.7991V29.8916H83.0991H83.3991V28.6074H83.0991ZM83.0991 29.8916L83.2275 29.6204L82.7695 29.4036L82.6411 29.6748L82.5128 29.946L82.9708 30.1628L83.0991 29.8916ZM82.6411 29.6748L82.3654 29.5567L71.0568 55.9522L71.3325 56.0703L71.6083 56.1885L82.9169 29.7929L82.6411 29.6748ZM71.3325 56.0703L71.4074 55.7798L65.5421 54.2691L65.4673 54.5596L65.3925 54.8501L71.2577 56.3608L71.3325 56.0703ZM65.4673 54.5596L65.7439 54.6757L77.3289 27.082L77.0523 26.9658L76.7757 26.8497L65.1907 54.4434L65.4673 54.5596ZM77.0523 26.9658L77.2858 26.7775L66.0426 12.839L65.8091 13.0273L65.5756 13.2157L76.8188 27.1542L77.0523 26.9658ZM65.8091 13.0273L65.7325 13.3174L71.8839 14.9414L71.9605 14.6514L72.037 14.3613L65.8857 12.7373L65.8091 13.0273Z" fill="#F2F4FF" mask="url(#path-25-inside-2_4303_17748)"/>
<path d="M83.9752 35.2485L86.3144 30.6484L94.4643 42.616L88.6907 41.0826L83.9752 35.2485Z" fill="#2534D3"/>
<path d="M78.497 10.6498L86.2571 20.6286L86.3685 20.7708L86.4782 20.499L94.1683 1.53569L100.921 -2.39147L89.7771 24.3099L89.7324 24.4169L89.7771 24.472L101.205 38.5061L94.4996 42.4057L86.4779 32.1191L86.3673 31.9784L86.2575 32.2473L78.2104 51.8792L71.4569 55.8069L82.9342 28.4517L82.9789 28.3446L82.9342 28.2895L71.7917 14.5495L78.497 10.6498Z" fill="#2638FF" stroke="#F2F4FF" stroke-width="0.3"/>
<path d="M48.6839 66.792L48.6842 57.5663L27.4266 69.9293L27.4269 61.2076L42.7882 14.4028L51.951 9.07394L36.5897 55.8787L48.6845 48.8446L48.685 34.3084L56.8148 29.5802L56.8144 44.1164L61.3124 41.5005L61.3122 50.2222L56.8141 52.8382L56.8138 62.0638L48.6839 66.792Z" fill="#2534D3"/>
<path d="M54.547 56.2637L54.339 68.1182L48.8507 66.6455V54.8115L54.547 56.2637Z" fill="#242B7A" stroke="#222222" stroke-width="0.3"/>
<path d="M54.7116 36.0381L55.9176 50.5762L48.8297 48.8193V34.4678L54.7116 36.0381Z" fill="#242B7A" stroke="#222222" stroke-width="0.3"/>
<path d="M57.751 10.6239L51.9526 9.07422L43.4257 18.5504L37.6352 38.964L32.4526 55.3217L27.4489 69.9272L33.2013 71.4492L38.7347 55.4203L45.6335 30.1204L57.751 10.6239Z" fill="#242B7A"/>
<path d="M33.329 62.9014L33.123 71.2373L27.6337 69.7637V61.4502L33.329 62.9014Z" fill="#242B7A" stroke="#E9E9E9" stroke-width="0.3"/>
<path d="M48.7693 15.9619L33.0486 62.6592L27.6131 61.1885L42.8963 14.5859L48.7693 15.9619Z" fill="#242B7A" stroke="#E9E9E9" stroke-width="0.3"/>
<path d="M66.8082 43.127L62.8707 48.3633L58.0982 46.458L62.6266 42.4111L66.8082 43.127Z" fill="#2638FF" stroke="#222222" stroke-width="0.3"/>
<path d="M57.5199 10.859L42.2459 57.3986L42.1589 57.663L54.5877 50.4347L54.5882 35.8985L62.4585 31.3213L62.458 45.8575L66.9566 43.2412L66.9564 51.663L62.4578 54.2794L62.4575 63.5049L54.5872 68.0821L54.5875 58.8565L33.3302 71.2193L33.3305 62.6803L48.6434 16.0214L57.5199 10.859Z" fill="#2638FF" stroke="#E9E9E9" stroke-width="0.3"/>
<path d="M57.3902 10.6748L48.4986 15.8145L43.1509 14.4082L52.0093 9.21973L57.3902 10.6748Z" fill="#242B7A" stroke="#E9E9E9" stroke-width="0.3"/>
</g>
<defs>
<linearGradient id="paint0_linear_4303_17748" x1="-20.2436" y1="67.2846" x2="34.0821" y2="-26.8103" gradientUnits="userSpaceOnUse">
<stop stop-color="#222222"/>
<stop offset="0.317308" stop-color="#7A7A7A"/>
<stop offset="1" stop-color="#222222"/>
</linearGradient>
<linearGradient id="paint1_linear_4303_17748" x1="89.7564" y1="87.2846" x2="144.082" y2="-6.81028" gradientUnits="userSpaceOnUse">
<stop stop-color="#7A7A7A"/>
<stop offset="1" stop-color="#222222"/>
</linearGradient>
<linearGradient id="paint2_linear_4303_17748" x1="31.9137" y1="103.488" x2="86.2394" y2="9.39284" gradientUnits="userSpaceOnUse">
<stop stop-color="#7A7A7A"/>
<stop offset="1" stop-color="#222222"/>
</linearGradient>
<linearGradient id="paint3_linear_4303_17748" x1="71.696" y1="89.3315" x2="17.3702" y2="-4.76341" gradientUnits="userSpaceOnUse">
<stop stop-color="#222222"/>
<stop offset="0.317308" stop-color="#7A7A7A"/>
<stop offset="1" stop-color="#222222"/>
</linearGradient>
<linearGradient id="paint4_linear_4303_17748" x1="94.6793" y1="73.6538" x2="40.3536" y2="-20.4411" gradientUnits="userSpaceOnUse">
<stop stop-color="#222222"/>
<stop offset="0.317308" stop-color="#7A7A7A"/>
<stop offset="1" stop-color="#222222"/>
</linearGradient>
<linearGradient id="paint5_linear_4303_17748" x1="10.859" y1="106.426" x2="118.137" y2="46.2254" gradientUnits="userSpaceOnUse">
<stop stop-color="#7A7A7A"/>
<stop offset="1" stop-color="#222222"/>
</linearGradient>
</defs>
</svg>
