<svg width="120" height="89" viewBox="0 0 120 89" fill="none" xmlns="http://www.w3.org/2000/svg">
<mask id="mask0_4303_25199" style="mask-type:alpha" maskUnits="userSpaceOnUse" x="0" y="0" width="120" height="89">
<rect y="0.726562" width="120" height="88" fill="#D9D9D9"/>
</mask>
<g mask="url(#mask0_4303_25199)">
<path d="M87.9748 4.30469L-20.6766 67.0346" stroke="url(#paint0_linear_4303_25199)" stroke-width="0.155508" stroke-linecap="round" stroke-dasharray="0.31 0.62"/>
<path d="M197.975 24.3047L89.3234 87.0346" stroke="url(#paint1_linear_4303_25199)" stroke-width="0.155508" stroke-linecap="round" stroke-dasharray="0.31 0.62"/>
<path d="M140.132 40.5078L31.4807 103.238" stroke="url(#paint2_linear_4303_25199)" stroke-width="0.155508" stroke-linecap="round" stroke-dasharray="0.31 0.62"/>
<path d="M-37.3885 26.8516L71.2629 89.5815" stroke="url(#paint3_linear_4303_25199)" stroke-width="0.155508" stroke-linecap="round" stroke-dasharray="0.31 0.62"/>
<path d="M-14.4052 11.1738L94.2463 73.9038" stroke="url(#paint4_linear_4303_25199)" stroke-width="0.155508" stroke-linecap="round" stroke-dasharray="0.31 0.62"/>
<path d="M117.456 45.0117L10.6143 105.99" stroke="url(#paint5_linear_4303_25199)" stroke-width="0.155508" stroke-linecap="round" stroke-dasharray="0.31 0.62"/>
<path d="M76.1572 34.9308L119.803 60.3124L49.0366 101.466L5.39095 76.084L76.1572 34.9308Z" fill="#F2F4FF" stroke="#7A7A7A" stroke-width="0.340447"/>
<path d="M76.1572 28.2279L119.75 53.5785L49.0374 94.7002L5.44498 69.3496L76.1572 28.2279Z" fill="#D4D7FF" stroke="#5160FF" stroke-width="0.401995"/>
<path d="M86.3851 48.8437C86.8666 47.6926 87.9683 47.0535 88.4382 47.6547L90.78 50.6493C91.4073 51.4518 92.9035 50.4794 93.4071 48.9418L94.416 45.8591C94.8272 44.6035 96.0567 43.8248 96.545 44.5106L97.168 45.3866L99.9243 49.4321L75.1692 63.8281L78.15 57.79C78.5519 56.9765 79.2768 56.4434 79.7962 56.5788L81.5505 57.0361C82.2569 57.2203 83.2519 56.4127 83.7082 55.2852L84.0417 54.4595L84.0425 54.46C85.3997 51.1452 85.6409 50.624 86.3851 48.8437Z" fill="#F2F4FF" stroke="#E9E9E9" stroke-width="0.340447"/>
<path d="M88.3257 49.9457C87.5831 51.722 87.3399 52.2479 85.9821 55.5643L85.648 56.3901C85.2366 57.4069 84.3393 58.1349 83.7022 57.9689L81.9476 57.5115C81.3645 57.3595 80.5507 57.9587 80.0997 58.8721L76.9268 65.2984L103.578 49.8202L102.332 49.1229C101.164 48.4694 100.164 47.5354 99.3604 46.3482L98.7366 45.4722C98.1885 44.7025 96.8091 45.5765 96.3476 46.9859L95.3387 50.0679C94.8847 51.4545 93.5353 52.332 92.9696 51.6083L90.6282 48.6127C90.1001 47.937 88.8643 48.6573 88.3257 49.9457Z" fill="#2638FF"/>
<path d="M85.9821 55.5643C86.6251 55.1904 85.3392 55.9382 85.9821 55.5643ZM85.9821 55.5643C87.3399 52.2479 87.5831 51.722 88.3257 49.9457C88.8643 48.6573 90.1001 47.937 90.6282 48.6127L92.9696 51.6083C93.5353 52.332 94.8847 51.4545 95.3387 50.0679L96.3476 46.9859C96.8091 45.5765 98.1885 44.7025 98.7366 45.4722L99.3604 46.3482V46.3482C100.164 47.5354 101.164 48.4694 102.332 49.1229L103.578 49.8202L76.9268 65.2984L80.0997 58.8721C80.5507 57.9587 81.3645 57.3595 81.9476 57.5115L83.7022 57.9689C84.3393 58.1349 85.2366 57.4069 85.648 56.3901L85.9821 55.5643Z" stroke="#2638FF" stroke-width="0.164625" stroke-linejoin="bevel"/>
<path d="M58.4969 77.3164C60.7403 77.3164 62.6602 78.1195 63.4564 79.2574L63.8546 79.2596V80.4816H63.847C63.7981 82.1757 61.4227 83.5404 58.4969 83.5404C55.5404 83.5404 53.1436 82.1466 53.1436 80.4279C53.1436 80.3919 53.1458 80.3561 53.1479 80.3205V79.2102L53.5679 79.2113C54.3828 78.0973 56.2832 77.3164 58.4969 77.3164Z" fill="#5160FF"/>
<ellipse cx="58.4968" cy="79.2859" rx="5.35322" ry="3.11202" fill="#F2F4FF"/>
<ellipse cx="11.0819" cy="69.4243" rx="1.6067" ry="0.934032" fill="#F2F4FF"/>
<ellipse cx="114.702" cy="53.7133" rx="1.6067" ry="0.934031" fill="#F2F4FF"/>
<path d="M58.8157 78.0738L58.3543 78.3413C58.4246 78.3494 58.4939 78.3616 58.5622 78.3785C58.6665 78.4038 58.7664 78.4377 58.8625 78.4794L59.2009 78.2843L59.548 78.4859L59.2107 78.681C59.3376 78.7791 59.4191 78.8824 59.4544 78.9923C59.5027 79.1416 59.4444 79.2934 59.2792 79.4471C59.2386 79.484 59.2005 79.5151 59.165 79.5403C59.1281 79.5646 59.0798 79.5939 59.0213 79.6279L58.9952 79.6422L61.0354 79.572L60.3945 79.9447L58.3674 80.0082L57.9387 79.7584L58.5752 79.3879C58.6019 79.3724 58.63 79.3556 58.6579 79.3364C58.6871 79.3165 58.7116 79.2957 58.7319 79.275C58.7863 79.2198 58.8117 79.1662 58.8081 79.1139C58.8043 79.06 58.7806 79.0096 58.7374 78.9638L58.733 78.9594L57.6623 79.5819L57.3152 79.3802L58.3859 78.7577C58.3837 78.7571 58.3816 78.7562 58.3794 78.7555C58.2994 78.7297 58.213 78.7151 58.1204 78.7128C58.029 78.7098 57.9358 78.7253 57.8419 78.7577C57.8063 78.7696 57.7715 78.7838 57.7385 78.8016C57.7055 78.8178 57.6759 78.8343 57.6493 78.8498L57.0117 79.2202L56.5808 78.9693L57.2369 78.5879H57.2347L58.4686 77.8711L58.8157 78.0738Z" fill="#5160FF"/>
<path d="M24.0054 69.6621C26.2488 69.6621 28.1687 70.4652 28.9649 71.6031L29.3631 71.6053V72.8273H29.3555C29.3066 74.5214 26.9313 75.8861 24.0054 75.8861C21.0489 75.8861 18.6521 74.4923 18.6521 72.7736C18.6521 72.7376 18.6543 72.7018 18.6564 72.6662V71.5559L19.0764 71.557C19.8913 70.443 21.7917 69.6621 24.0054 69.6621Z" fill="#5160FF"/>
<ellipse cx="24.0053" cy="71.6296" rx="5.35322" ry="3.11202" fill="#F2F4FF"/>
<path d="M24.3242 70.4196L23.8629 70.687C23.9332 70.6951 24.0024 70.7073 24.0707 70.7242C24.175 70.7495 24.2749 70.7834 24.371 70.8251L24.7094 70.63L25.0565 70.8316L24.7192 71.0267C24.8462 71.1248 24.9277 71.2281 24.9629 71.338C25.0112 71.4873 24.953 71.6391 24.7878 71.7928C24.7471 71.8297 24.7091 71.8608 24.6735 71.886C24.6366 71.9104 24.5884 71.9396 24.5299 71.9736L24.5038 71.9879L26.5439 71.9177L25.903 72.2904L23.8759 72.3539L23.4472 72.1041L24.0838 71.7336C24.1105 71.7181 24.1385 71.7013 24.1665 71.6821C24.1956 71.6622 24.2202 71.6414 24.2405 71.6207C24.2949 71.5655 24.3202 71.5119 24.3166 71.4596C24.3128 71.4057 24.2891 71.3553 24.2459 71.3095L24.2415 71.3051L23.1709 71.9276L22.8238 71.7259L23.8944 71.1034C23.8923 71.1028 23.8901 71.1019 23.8879 71.1012C23.808 71.0754 23.7216 71.0608 23.629 71.0585C23.5375 71.0555 23.4444 71.071 23.3504 71.1034C23.3148 71.1153 23.2801 71.1295 23.247 71.1473C23.214 71.1635 23.1845 71.18 23.1578 71.1955L22.5202 71.5659L22.0893 71.315L22.7454 70.9336H22.7433L23.9771 70.2168L24.3242 70.4196Z" fill="#5160FF"/>
<path d="M94.4418 42.5916L88.6552 41.071L89.3006 39.1533L91.4993 37.9414L93.7199 38.5477L94.4418 42.5916Z" fill="#A8AFFF"/>
<path d="M62.5972 31.1093L56.8258 29.5938L48.5127 34.4091L54.459 35.8536L58.2483 36.0063L62.5972 31.1093Z" fill="#5160FF"/>
<path d="M54.523 68.3118L48.7003 66.7578L51.0698 62.6131L56.5986 61.2812L54.523 68.3118Z" fill="#5160FF"/>
<mask id="path-24-inside-1_4303_25199" fill="white">
<path d="M95.3579 -4.13574L95.3862 -4.1543L101.179 -2.61328L86.0942 23.7236L84.313 22.3291L84.1128 22.8096L95.6685 37L88.6538 41.0791L82.9272 33.7354L71.3335 56.0498L65.5054 54.541L65.4468 54.5762L77.0513 26.916L65.7817 13.0186L72.7954 8.93945L72.8237 8.97656L72.8589 8.95703L78.6147 10.4883L80.064 18.2852L80.5942 18.9668L88.3228 -0.0908203L95.3843 -4.19727L95.3579 -4.13574Z"/>
</mask>
<path d="M95.3579 -4.13574L95.3862 -4.1543L101.179 -2.61328L86.0942 23.7236L84.313 22.3291L84.1128 22.8096L95.6685 37L88.6538 41.0791L82.9272 33.7354L71.3335 56.0498L65.5054 54.541L65.4468 54.5762L77.0513 26.916L65.7817 13.0186L72.7954 8.93945L72.8237 8.97656L72.8589 8.95703L78.6147 10.4883L80.064 18.2852L80.5942 18.9668L88.3228 -0.0908203L95.3843 -4.19727L95.3579 -4.13574Z" fill="#A8AFFF"/>
<path d="M95.3579 -4.13574L95.0822 -4.25392L94.6904 -3.33974L95.5223 -3.8848L95.3579 -4.13574ZM95.3862 -4.1543L95.4634 -4.44421L95.3339 -4.47865L95.2218 -4.40524L95.3862 -4.1543ZM101.179 -2.61328L101.44 -2.46418L101.634 -2.80286L101.256 -2.9032L101.179 -2.61328ZM86.0942 23.7236L85.9093 23.9599L86.1823 24.1736L86.3546 23.8727L86.0942 23.7236ZM84.313 22.3291L84.4979 22.0929L84.1876 21.85L84.0361 22.2137L84.313 22.3291ZM84.1128 22.8096L83.8359 22.6942L83.7668 22.8598L83.8802 22.999L84.1128 22.8096ZM95.6685 37L95.8193 37.2593L96.1228 37.0828L95.9011 36.8106L95.6685 37ZM88.6538 41.0791L88.4172 41.2636L88.5783 41.4701L88.8046 41.3384L88.6538 41.0791ZM82.9272 33.7354L83.1638 33.5509L82.8765 33.1824L82.661 33.597L82.9272 33.7354ZM71.3335 56.0498L71.2583 56.3402L71.4896 56.4001L71.5997 56.1881L71.3335 56.0498ZM65.5054 54.541L65.5806 54.2506L65.4588 54.2191L65.351 54.2838L65.5054 54.541ZM65.4468 54.5762L65.1701 54.4601L64.8158 55.3046L65.6011 54.8334L65.4468 54.5762ZM77.0513 26.916L77.3279 27.0321L77.3974 26.8665L77.2843 26.7271L77.0513 26.916ZM65.7817 13.0186L65.6309 12.7592L65.328 12.9354L65.5487 13.2075L65.7817 13.0186ZM72.7954 8.93945L73.0339 8.75745L72.8733 8.54708L72.6446 8.68012L72.7954 8.93945ZM72.8237 8.97656L72.5852 9.15856L72.7426 9.3648L72.9694 9.23881L72.8237 8.97656ZM72.8589 8.95703L72.936 8.66712L72.819 8.63599L72.7132 8.69478L72.8589 8.95703ZM78.6147 10.4883L78.9097 10.4335L78.8751 10.2471L78.6919 10.1984L78.6147 10.4883ZM80.064 18.2852L79.769 18.34L79.7824 18.4117L79.8272 18.4694L80.064 18.2852ZM80.5942 18.9668L80.3575 19.151L80.6768 19.5615L80.8722 19.0795L80.5942 18.9668ZM88.3228 -0.0908203L88.1719 -0.350158L88.0833 -0.298602L88.0447 -0.203562L88.3228 -0.0908203ZM95.3843 -4.19727L95.66 -4.07909L96.0171 -4.91232L95.2335 -4.4566L95.3843 -4.19727ZM95.3579 -4.13574L95.5223 -3.8848L95.5506 -3.90336L95.3862 -4.1543L95.2218 -4.40524L95.1935 -4.38668L95.3579 -4.13574ZM95.3862 -4.1543L95.3091 -3.86438L101.102 -2.32336L101.179 -2.61328L101.256 -2.9032L95.4634 -4.44421L95.3862 -4.1543ZM101.179 -2.61328L100.919 -2.76239L85.8339 23.5745L86.0942 23.7236L86.3546 23.8727L101.44 -2.46418L101.179 -2.61328ZM86.0942 23.7236L86.2792 23.4874L84.4979 22.0929L84.313 22.3291L84.1281 22.5653L85.9093 23.9599L86.0942 23.7236ZM84.313 22.3291L84.0361 22.2137L83.8359 22.6942L84.1128 22.8096L84.3897 22.925L84.5899 22.4445L84.313 22.3291ZM84.1128 22.8096L83.8802 22.999L95.4358 37.1894L95.6685 37L95.9011 36.8106L84.3454 22.6201L84.1128 22.8096ZM95.6685 37L95.5176 36.7407L88.503 40.8198L88.6538 41.0791L88.8046 41.3384L95.8193 37.2593L95.6685 37ZM88.6538 41.0791L88.8904 40.8946L83.1638 33.5509L82.9272 33.7354L82.6907 33.9198L88.4172 41.2636L88.6538 41.0791ZM82.9272 33.7354L82.661 33.597L71.0673 55.9115L71.3335 56.0498L71.5997 56.1881L83.1935 33.8737L82.9272 33.7354ZM71.3335 56.0498L71.4087 55.7594L65.5806 54.2506L65.5054 54.541L65.4302 54.8314L71.2583 56.3402L71.3335 56.0498ZM65.5054 54.541L65.351 54.2838L65.2924 54.3189L65.4468 54.5762L65.6011 54.8334L65.6597 54.7983L65.5054 54.541ZM65.4468 54.5762L65.7234 54.6922L77.3279 27.0321L77.0513 26.916L76.7746 26.8L65.1701 54.4601L65.4468 54.5762ZM77.0513 26.916L77.2843 26.7271L66.0148 12.8296L65.7817 13.0186L65.5487 13.2075L76.8183 27.105L77.0513 26.916ZM65.7817 13.0186L65.9326 13.2779L72.9462 9.19878L72.7954 8.93945L72.6446 8.68012L65.6309 12.7592L65.7817 13.0186ZM72.7954 8.93945L72.5569 9.12146L72.5852 9.15856L72.8237 8.97656L73.0622 8.79456L73.0339 8.75745L72.7954 8.93945ZM72.8237 8.97656L72.9694 9.23881L73.0046 9.21928L72.8589 8.95703L72.7132 8.69478L72.678 8.71432L72.8237 8.97656ZM72.8589 8.95703L72.7818 9.24695L78.5376 10.7782L78.6147 10.4883L78.6919 10.1984L72.936 8.66712L72.8589 8.95703ZM78.6147 10.4883L78.3198 10.5431L79.769 18.34L80.064 18.2852L80.3589 18.2303L78.9097 10.4335L78.6147 10.4883ZM80.064 18.2852L79.8272 18.4694L80.3575 19.151L80.5942 18.9668L80.831 18.7826L80.3008 18.101L80.064 18.2852ZM80.5942 18.9668L80.8722 19.0795L88.6008 0.0219221L88.3228 -0.0908203L88.0447 -0.203562L80.3162 18.8541L80.5942 18.9668ZM88.3228 -0.0908203L88.4736 0.168518L95.5351 -3.93793L95.3843 -4.19727L95.2335 -4.4566L88.1719 -0.350158L88.3228 -0.0908203ZM95.3843 -4.19727L95.1085 -4.31544L95.0822 -4.25392L95.3579 -4.13574L95.6337 -4.01757L95.66 -4.07909L95.3843 -4.19727Z" fill="#222222" mask="url(#path-24-inside-1_4303_25199)"/>
<mask id="path-26-inside-2_4303_25199" fill="white">
<path d="M71.9604 14.6514L83.0991 28.1982V28.5264L83.1304 28.5352L83.0991 28.6074V29.8916L82.6411 29.6748L71.3325 56.0703L65.4673 54.5596L77.0522 26.9658L65.8091 13.0273L71.9604 14.6514Z"/>
</mask>
<path d="M71.9604 14.6514L83.0991 28.1982V28.5264L83.1304 28.5352L83.0991 28.6074V29.8916L82.6411 29.6748L71.3325 56.0703L65.4673 54.5596L77.0522 26.9658L65.8091 13.0273L71.9604 14.6514Z" fill="#A8AFFF"/>
<path d="M71.9604 14.6514L72.1922 14.4608L72.1307 14.386L72.037 14.3613L71.9604 14.6514ZM83.0991 28.1982H83.3991V28.0907L83.3308 28.0077L83.0991 28.1982ZM83.0991 28.5264H82.7991V28.7536L83.0179 28.8152L83.0991 28.5264ZM83.1304 28.5352L83.4057 28.6542L83.5419 28.3393L83.2116 28.2464L83.1304 28.5352ZM83.0991 28.6074L82.8238 28.4883L82.7991 28.5453V28.6074H83.0991ZM83.0991 29.8916L82.9708 30.1628L83.3991 30.3655V29.8916H83.0991ZM82.6411 29.6748L82.7695 29.4036L82.488 29.2704L82.3654 29.5567L82.6411 29.6748ZM71.3325 56.0703L71.2577 56.3608L71.5069 56.425L71.6083 56.1885L71.3325 56.0703ZM65.4673 54.5596L65.1907 54.4434L65.0563 54.7635L65.3925 54.8501L65.4673 54.5596ZM77.0522 26.9658L77.3289 27.082L77.3982 26.9168L77.2857 26.7775L77.0522 26.9658ZM65.8091 13.0273L65.8857 12.7373L65.0014 12.5038L65.5756 13.2157L65.8091 13.0273ZM71.9604 14.6514L71.7287 14.8419L82.8674 28.3888L83.0991 28.1982L83.3308 28.0077L72.1922 14.4608L71.9604 14.6514ZM83.0991 28.1982H82.7991V28.5264H83.0991H83.3991V28.1982H83.0991ZM83.0991 28.5264L83.0179 28.8152L83.0491 28.824L83.1304 28.5352L83.2116 28.2464L83.1803 28.2376L83.0991 28.5264ZM83.1304 28.5352L82.855 28.4161L82.8238 28.4883L83.0991 28.6074L83.3745 28.7265L83.4057 28.6542L83.1304 28.5352ZM83.0991 28.6074H82.7991V29.8916H83.0991H83.3991V28.6074H83.0991ZM83.0991 29.8916L83.2275 29.6204L82.7695 29.4036L82.6411 29.6748L82.5128 29.946L82.9708 30.1628L83.0991 29.8916ZM82.6411 29.6748L82.3654 29.5567L71.0568 55.9522L71.3325 56.0703L71.6083 56.1885L82.9169 29.7929L82.6411 29.6748ZM71.3325 56.0703L71.4073 55.7798L65.5421 54.2691L65.4673 54.5596L65.3925 54.8501L71.2577 56.3608L71.3325 56.0703ZM65.4673 54.5596L65.7439 54.6757L77.3289 27.082L77.0522 26.9658L76.7756 26.8497L65.1907 54.4434L65.4673 54.5596ZM77.0522 26.9658L77.2857 26.7775L66.0426 12.839L65.8091 13.0273L65.5756 13.2157L76.8187 27.1542L77.0522 26.9658ZM65.8091 13.0273L65.7325 13.3174L71.8839 14.9414L71.9604 14.6514L72.037 14.3613L65.8857 12.7373L65.8091 13.0273Z" fill="#222222" mask="url(#path-26-inside-2_4303_25199)"/>
<path d="M83.9752 35.2485L86.3144 30.6484L94.4643 42.616L88.6907 41.0826L83.9752 35.2485Z" fill="#5160FF"/>
<path d="M78.497 10.6498L86.2571 20.6286L86.3685 20.7708L86.4782 20.499L94.1683 1.53569L100.921 -2.39147L89.7771 24.3099L89.7323 24.4169L89.7771 24.472L101.205 38.5061L94.4996 42.4057L86.4779 32.1191L86.3673 31.9784L86.2575 32.2473L78.2104 51.8792L71.4569 55.8069L82.9342 28.4517L82.9789 28.3446L82.9342 28.2895L71.7917 14.5495L78.497 10.6498Z" fill="#2638FF" stroke="#222222" stroke-width="0.3"/>
<path d="M48.6839 66.792L48.6842 57.5663L27.4266 69.9293L27.4269 61.2076L42.7882 14.4028L51.951 9.07394L36.5896 55.8787L48.6845 48.8446L48.6849 34.3084L56.8148 29.5802L56.8143 44.1164L61.3124 41.5005L61.3122 50.2222L56.8141 52.8382L56.8138 62.0638L48.6839 66.792Z" fill="#5160FF"/>
<path d="M54.547 56.2637L54.339 68.1182L48.8507 66.6455V54.8115L54.547 56.2637Z" fill="#A8AFFF" stroke="#F2F4FF" stroke-width="0.3"/>
<path d="M54.7115 36.0381L55.9176 50.5762L48.8297 48.8193V34.4678L54.7115 36.0381Z" fill="#A8AFFF" stroke="#F2F4FF" stroke-width="0.3"/>
<path d="M57.7509 10.6239L51.9526 9.07422L43.4257 18.5504L37.6352 38.964L32.4526 55.3217L27.4489 69.9272L33.2013 71.4492L38.7347 55.4203L45.6335 30.1204L57.7509 10.6239Z" fill="#A8AFFF"/>
<path d="M33.329 62.9014L33.1229 71.2373L27.6337 69.7637V61.4502L33.329 62.9014Z" fill="#A8AFFF" stroke="#383838" stroke-width="0.3"/>
<path d="M48.7693 15.9619L33.0486 62.6592L27.6131 61.1885L42.8963 14.5859L48.7693 15.9619Z" fill="#A8AFFF" stroke="#383838" stroke-width="0.3"/>
<path d="M66.8082 43.127L62.8707 48.3633L58.0982 46.458L62.6265 42.4111L66.8082 43.127Z" fill="#2638FF" stroke="#F2F4FF" stroke-width="0.3"/>
<path d="M57.5199 10.859L42.2459 57.3986L42.1589 57.663L54.5877 50.4347L54.5882 35.8985L62.4585 31.3213L62.458 45.8575L66.9566 43.2412L66.9564 51.663L62.4577 54.2794L62.4574 63.5049L54.5872 68.0821L54.5875 58.8565L33.3302 71.2193L33.3305 62.6803L48.6434 16.0214L57.5199 10.859Z" fill="#2638FF" stroke="#383838" stroke-width="0.3"/>
<path d="M57.3901 10.6748L48.4985 15.8145L43.1509 14.4082L52.0093 9.21973L57.3901 10.6748Z" fill="#A8AFFF" stroke="#383838" stroke-width="0.3"/>
<path d="M106.797 41.7148C109.04 41.7149 110.96 42.5179 111.756 43.6558L112.154 43.658V44.88H112.147C112.098 46.5741 109.722 47.9388 106.797 47.9388C103.84 47.9388 101.443 46.545 101.443 44.8263C101.443 44.7903 101.445 44.7546 101.448 44.7189V43.6087L101.868 43.6098C102.682 42.4957 104.583 41.7148 106.797 41.7148Z" fill="#5160FF"/>
<ellipse cx="106.796" cy="43.6823" rx="5.35322" ry="3.11202" fill="#F2F4FF"/>
<path d="M107.115 42.4723L106.654 42.7397C106.724 42.7479 106.794 42.76 106.862 42.777C106.966 42.8022 107.066 42.8361 107.162 42.8778L107.5 42.6827L107.848 42.8844L107.51 43.0795C107.637 43.1775 107.719 43.2809 107.754 43.3907C107.802 43.54 107.744 43.6918 107.579 43.8455C107.538 43.8824 107.5 43.9136 107.465 43.9387C107.428 43.9631 107.379 43.9924 107.321 44.0264L107.295 44.0406L109.335 43.9705L108.694 44.3431L106.667 44.4067L106.238 44.1568L106.875 43.7864C106.902 43.7708 106.93 43.7541 106.958 43.7348C106.987 43.7149 107.011 43.6941 107.032 43.6735C107.086 43.6182 107.111 43.5646 107.108 43.5124C107.104 43.4584 107.08 43.408 107.037 43.3622L107.033 43.3578L105.962 43.9803L105.615 43.7787L106.686 43.1562C106.683 43.1555 106.681 43.1546 106.679 43.154C106.599 43.1282 106.513 43.1135 106.42 43.1112C106.329 43.1083 106.235 43.1237 106.141 43.1562C106.106 43.168 106.071 43.1823 106.038 43.2C106.005 43.2162 105.976 43.2327 105.949 43.2482L105.311 43.6187L104.88 43.3677L105.537 42.9863H105.534L106.768 42.2695L107.115 42.4723Z" fill="#5160FF"/>
<path d="M110.234 39.75C112.477 39.75 114.397 40.553 115.193 41.691L115.591 41.6932V42.9152H115.584C115.535 44.6093 113.16 45.974 110.234 45.974C107.277 45.974 104.88 44.5802 104.88 42.8615C104.88 42.8255 104.883 42.7897 104.885 42.754V41.6438L105.305 41.6449C106.12 40.5309 108.02 39.75 110.234 39.75Z" fill="#5160FF"/>
<ellipse cx="110.234" cy="41.7175" rx="5.35322" ry="3.11202" fill="#D4D7FF"/>
<path d="M110.553 40.5074L110.091 40.7749C110.161 40.783 110.231 40.7952 110.299 40.8121C110.403 40.8374 110.503 40.8713 110.599 40.9129L110.938 40.7179L111.285 40.9195L110.948 41.1146C111.074 41.2127 111.156 41.316 111.191 41.4259C111.24 41.5752 111.181 41.727 111.016 41.8807C110.975 41.9176 110.937 41.9487 110.902 41.9738C110.865 41.9982 110.817 42.0275 110.758 42.0615L110.732 42.0758L112.772 42.0056L112.131 42.3783L110.104 42.4418L109.676 42.1919L110.312 41.8215C110.339 41.806 110.367 41.7892 110.395 41.77C110.424 41.7501 110.448 41.7293 110.469 41.7086C110.523 41.6534 110.549 41.5998 110.545 41.5475C110.541 41.4936 110.517 41.4432 110.474 41.3974L110.47 41.393L109.399 42.0155L109.052 41.8138L110.123 41.1913C110.121 41.1906 110.118 41.1898 110.116 41.1891C110.036 41.1633 109.95 41.1486 109.857 41.1464C109.766 41.1434 109.673 41.1589 109.579 41.1913C109.543 41.2031 109.508 41.2174 109.475 41.2352C109.442 41.2514 109.413 41.2679 109.386 41.2834L108.749 41.6538L108.318 41.4028L108.974 41.0215H108.972L110.205 40.3047L110.553 40.5074Z" fill="#5160FF"/>
<path d="M109.333 36.0645C111.576 36.0645 113.496 36.8675 114.292 38.0054L114.691 38.0076V39.2296H114.683C114.634 40.9237 112.259 42.2884 109.333 42.2885C106.376 42.2885 103.979 40.8946 103.979 39.1759C103.979 39.1399 103.982 39.1042 103.984 39.0685V37.9583L104.404 37.9594C105.219 36.8454 107.119 36.0645 109.333 36.0645Z" fill="#5160FF"/>
<ellipse cx="109.333" cy="38.0319" rx="5.35322" ry="3.11202" fill="#D4D7FF"/>
<path d="M109.652 36.8219L109.19 37.0893C109.261 37.0975 109.33 37.1096 109.398 37.1266C109.502 37.1518 109.602 37.1857 109.698 37.2274L110.037 37.0323L110.384 37.234L110.047 37.4291C110.174 37.5271 110.255 37.6305 110.29 37.7403C110.339 37.8896 110.28 38.0414 110.115 38.1951C110.075 38.2321 110.036 38.2632 110.001 38.2883C109.964 38.3127 109.916 38.342 109.857 38.376L109.831 38.3902L111.871 38.3201L111.23 38.6927L109.203 38.7563L108.775 38.5064L109.411 38.136C109.438 38.1204 109.466 38.1037 109.494 38.0845C109.523 38.0645 109.548 38.0437 109.568 38.0231C109.622 37.9679 109.648 37.9143 109.644 37.862C109.64 37.808 109.616 37.7577 109.573 37.7118L109.569 37.7074L108.498 38.3299L108.151 38.1283L109.222 37.5058C109.22 37.5051 109.217 37.5043 109.215 37.5036C109.135 37.4778 109.049 37.4631 108.956 37.4608C108.865 37.4579 108.772 37.4733 108.678 37.5058C108.642 37.5176 108.607 37.5319 108.574 37.5496C108.541 37.5659 108.512 37.5823 108.485 37.5978L107.848 37.9683L107.417 37.7173L108.073 37.3359H108.071L109.305 36.6191L109.652 36.8219Z" fill="#5160FF"/>
<path d="M109.333 33.8164C111.576 33.8164 113.496 34.6195 114.292 35.7574L114.691 35.7596V36.9816H114.683C114.634 38.6757 112.259 40.0404 109.333 40.0404C106.376 40.0404 103.979 38.6466 103.979 36.9279C103.979 36.8919 103.982 36.8561 103.984 36.8205V35.7102L104.404 35.7113C105.219 34.5973 107.119 33.8164 109.333 33.8164Z" fill="#5160FF"/>
<ellipse cx="109.333" cy="35.7839" rx="5.35322" ry="3.11202" fill="#F2F4FF"/>
<path d="M109.652 34.5738L109.19 34.8413C109.261 34.8494 109.33 34.8616 109.398 34.8785C109.502 34.9038 109.602 34.9377 109.698 34.9794L110.037 34.7843L110.384 34.9859L110.047 35.181C110.174 35.2791 110.255 35.3824 110.29 35.4923C110.339 35.6416 110.28 35.7934 110.115 35.9471C110.075 35.984 110.036 36.0151 110.001 36.0403C109.964 36.0646 109.916 36.0939 109.857 36.1279L109.831 36.1422L111.871 36.072L111.23 36.4447L109.203 36.5082L108.775 36.2584L109.411 35.8879C109.438 35.8724 109.466 35.8556 109.494 35.8364C109.523 35.8165 109.548 35.7957 109.568 35.775C109.622 35.7198 109.648 35.6662 109.644 35.6139C109.64 35.56 109.616 35.5096 109.573 35.4638L109.569 35.4594L108.498 36.0819L108.151 35.8802L109.222 35.2577C109.22 35.2571 109.217 35.2562 109.215 35.2555C109.135 35.2297 109.049 35.2151 108.956 35.2128C108.865 35.2098 108.772 35.2253 108.678 35.2577C108.642 35.2696 108.607 35.2838 108.574 35.3016C108.541 35.3178 108.512 35.3343 108.485 35.3498L107.848 35.7202L107.417 35.4693L108.073 35.0879H108.071L109.305 34.3711L109.652 34.5738Z" fill="#5160FF"/>
<path d="M111.869 31.9766C114.112 31.9766 116.032 32.7796 116.829 33.9175L117.227 33.9197V35.1417H117.219C117.17 36.8359 114.795 38.2005 111.869 38.2006C108.913 38.2006 106.516 36.8067 106.516 35.088C106.516 35.052 106.518 35.0163 106.52 34.9806V33.8704L106.94 33.8715C107.755 32.7575 109.655 31.9766 111.869 31.9766Z" fill="#5160FF"/>
<ellipse cx="111.869" cy="33.9441" rx="5.35322" ry="3.11202" fill="#F2F4FF"/>
<path d="M112.188 32.734L111.727 33.0014C111.797 33.0096 111.866 33.0217 111.934 33.0387C112.039 33.0639 112.139 33.0978 112.235 33.1395L112.573 32.9444L112.92 33.1461L112.583 33.3412C112.71 33.4392 112.791 33.5426 112.827 33.6524C112.875 33.8017 112.817 33.9535 112.651 34.1073C112.611 34.1442 112.573 34.1753 112.537 34.2004C112.5 34.2248 112.452 34.2541 112.394 34.2881L112.367 34.3023L114.408 34.2322L113.767 34.6048L111.74 34.6684L111.311 34.4185L111.947 34.0481C111.974 34.0325 112.002 34.0158 112.03 33.9966C112.059 33.9766 112.084 33.9558 112.104 33.9352C112.159 33.88 112.184 33.8264 112.18 33.7741C112.177 33.7201 112.153 33.6698 112.11 33.6239L112.105 33.6195L111.035 34.2421L110.687 34.0404L111.758 33.4179C111.756 33.4172 111.754 33.4164 111.752 33.4157C111.672 33.3899 111.585 33.3752 111.493 33.373C111.401 33.37 111.308 33.3854 111.214 33.4179C111.179 33.4297 111.144 33.444 111.111 33.4617C111.078 33.478 111.048 33.4944 111.022 33.5099L110.384 33.8804L109.953 33.6294L110.609 33.248H110.607L111.841 32.5312L112.188 32.734Z" fill="#5160FF"/>
</g>
<defs>
<linearGradient id="paint0_linear_4303_25199" x1="-20.2436" y1="67.2846" x2="34.0821" y2="-26.8103" gradientUnits="userSpaceOnUse">
<stop stop-color="white"/>
<stop offset="0.317308" stop-color="#7A7A7A"/>
<stop offset="1" stop-color="white"/>
</linearGradient>
<linearGradient id="paint1_linear_4303_25199" x1="89.7564" y1="87.2846" x2="144.082" y2="-6.81028" gradientUnits="userSpaceOnUse">
<stop stop-color="#7A7A7A"/>
<stop offset="1" stop-color="white"/>
</linearGradient>
<linearGradient id="paint2_linear_4303_25199" x1="31.9137" y1="103.488" x2="86.2394" y2="9.39284" gradientUnits="userSpaceOnUse">
<stop stop-color="#7A7A7A"/>
<stop offset="1" stop-color="white"/>
</linearGradient>
<linearGradient id="paint3_linear_4303_25199" x1="71.6959" y1="89.3315" x2="17.3702" y2="-4.76341" gradientUnits="userSpaceOnUse">
<stop stop-color="white"/>
<stop offset="0.317308" stop-color="#7A7A7A"/>
<stop offset="1" stop-color="white"/>
</linearGradient>
<linearGradient id="paint4_linear_4303_25199" x1="94.6793" y1="73.6538" x2="40.3536" y2="-20.4411" gradientUnits="userSpaceOnUse">
<stop stop-color="white"/>
<stop offset="0.317308" stop-color="#7A7A7A"/>
<stop offset="1" stop-color="white"/>
</linearGradient>
<linearGradient id="paint5_linear_4303_25199" x1="10.859" y1="106.426" x2="118.137" y2="46.2254" gradientUnits="userSpaceOnUse">
<stop stop-color="#7A7A7A"/>
<stop offset="1" stop-color="white"/>
</linearGradient>
</defs>
</svg>
