<svg width="14" height="14" viewBox="0 0 14 14" fill="none" xmlns="http://www.w3.org/2000/svg">
<path d="M4.22925 2.91797V1.16797C4.22925 0.928802 4.42758 0.730469 4.66675 0.730469C4.90591 0.730469 5.10425 0.928802 5.10425 1.16797V2.91797C5.10425 3.15714 4.90591 3.35547 4.66675 3.35547C4.42758 3.35547 4.22925 3.15714 4.22925 2.91797Z" fill="#959CA6"/>
<path d="M8.89575 2.91797V1.16797C8.89575 0.928802 9.09409 0.730469 9.33325 0.730469C9.57242 0.730469 9.77075 0.928802 9.77075 1.16797V2.91797C9.77075 3.15714 9.57242 3.35547 9.33325 3.35547C9.09409 3.35547 8.89575 3.15714 8.89575 2.91797Z" fill="#959CA6"/>
<path d="M4.73667 8.41365C4.66083 8.38448 4.6025 8.34363 4.54417 8.29113C4.43917 8.1803 4.375 8.03447 4.375 7.87697C4.375 7.80114 4.3925 7.7253 4.42167 7.6553C4.45083 7.5853 4.49167 7.52114 4.54417 7.46281C4.6025 7.41031 4.66083 7.36946 4.73667 7.3403C4.94667 7.2528 5.20917 7.29948 5.3725 7.46281C5.4775 7.57364 5.54167 7.72531 5.54167 7.87697C5.54167 7.91197 5.53583 7.95281 5.53 7.99365C5.52417 8.02865 5.5125 8.06364 5.495 8.09864C5.48333 8.13364 5.46583 8.16864 5.4425 8.20364C5.425 8.2328 5.39583 8.26197 5.3725 8.29113C5.26167 8.39613 5.11 8.46031 4.95833 8.46031C4.8825 8.46031 4.80667 8.44281 4.73667 8.41365Z" fill="#959CA6"/>
<path d="M6.77841 8.41233C6.70258 8.38317 6.64425 8.34232 6.58592 8.28982C6.48092 8.17899 6.41675 8.03316 6.41675 7.87566C6.41675 7.79983 6.43425 7.72399 6.46342 7.65399C6.49258 7.58399 6.53342 7.51983 6.58592 7.4615C6.64425 7.409 6.70258 7.36815 6.77841 7.33898C6.98841 7.24565 7.25091 7.29816 7.41425 7.4615C7.51925 7.57233 7.58341 7.72399 7.58341 7.87566C7.58341 7.91066 7.57758 7.9515 7.57175 7.99233C7.56591 8.02733 7.55425 8.06233 7.53675 8.09733C7.52508 8.13233 7.50758 8.16732 7.48425 8.20232C7.46675 8.23149 7.43758 8.26065 7.41425 8.28982C7.30341 8.39482 7.15175 8.45899 7.00008 8.45899C6.92425 8.45899 6.84841 8.4415 6.77841 8.41233Z" fill="#959CA6"/>
<path d="M8.81992 8.41233C8.74408 8.38317 8.68575 8.34232 8.62742 8.28982C8.60409 8.26065 8.58075 8.23149 8.55742 8.20232C8.53408 8.16732 8.51659 8.13233 8.50492 8.09733C8.48742 8.06233 8.47575 8.02733 8.46992 7.99233C8.46409 7.9515 8.45825 7.91066 8.45825 7.87566C8.45825 7.72399 8.52242 7.57233 8.62742 7.4615C8.68575 7.409 8.74408 7.36815 8.81992 7.33898C9.03575 7.24565 9.29242 7.29816 9.45575 7.4615C9.56075 7.57233 9.62492 7.72399 9.62492 7.87566C9.62492 7.91066 9.61908 7.9515 9.61325 7.99233C9.60742 8.02733 9.59575 8.06233 9.57825 8.09733C9.56658 8.13233 9.54909 8.16732 9.52575 8.20232C9.50825 8.23149 9.47908 8.26065 9.45575 8.28982C9.34492 8.39482 9.19325 8.45899 9.04158 8.45899C8.96575 8.45899 8.88992 8.4415 8.81992 8.41233Z" fill="#959CA6"/>
<path d="M4.73667 10.4526C4.66667 10.4234 4.6025 10.3825 4.54417 10.33C4.43917 10.2192 4.375 10.0675 4.375 9.91588C4.375 9.84005 4.3925 9.76421 4.42167 9.69421C4.45083 9.61838 4.49167 9.55422 4.54417 9.50172C4.76 9.28589 5.15667 9.28589 5.3725 9.50172C5.4775 9.61255 5.54167 9.76421 5.54167 9.91588C5.54167 10.0675 5.4775 10.2192 5.3725 10.33C5.26167 10.435 5.11 10.4992 4.95833 10.4992C4.8825 10.4992 4.80667 10.4817 4.73667 10.4526Z" fill="#959CA6"/>
<path d="M6.58592 10.33C6.48092 10.2192 6.41675 10.0675 6.41675 9.91588C6.41675 9.84005 6.43425 9.76421 6.46342 9.69421C6.49258 9.61838 6.53342 9.55422 6.58592 9.50172C6.80175 9.28589 7.19841 9.28589 7.41425 9.50172C7.46675 9.55422 7.50758 9.61838 7.53675 9.69421C7.56591 9.76421 7.58341 9.84005 7.58341 9.91588C7.58341 10.0675 7.51925 10.2192 7.41425 10.33C7.30341 10.435 7.15175 10.4992 7.00008 10.4992C6.84841 10.4992 6.69675 10.435 6.58592 10.33Z" fill="#959CA6"/>
<path d="M8.62742 10.33C8.57492 10.2775 8.53409 10.2134 8.50492 10.1376C8.47575 10.0676 8.45825 9.99172 8.45825 9.91588C8.45825 9.84005 8.47575 9.76421 8.50492 9.69421C8.53409 9.61838 8.57492 9.55422 8.62742 9.50172C8.76159 9.36756 8.96575 9.30338 9.15242 9.34421C9.19325 9.35004 9.22825 9.36171 9.26325 9.37921C9.29825 9.39088 9.33325 9.40839 9.36825 9.43172C9.39742 9.44922 9.42658 9.47839 9.45575 9.50172C9.56075 9.61256 9.62492 9.76422 9.62492 9.91588C9.62492 10.0676 9.56075 10.2192 9.45575 10.33C9.34492 10.435 9.19325 10.4992 9.04158 10.4992C8.88992 10.4992 8.73825 10.435 8.62742 10.33Z" fill="#959CA6"/>
<path d="M2.04175 5.73828C1.80258 5.73828 1.60425 5.53995 1.60425 5.30078C1.60425 5.06161 1.80258 4.86328 2.04175 4.86328H11.9584C12.1976 4.86328 12.3959 5.06161 12.3959 5.30078C12.3959 5.53995 12.1976 5.73828 11.9584 5.73828H2.04175Z" fill="#959CA6"/>
<path fill-rule="evenodd" clip-rule="evenodd" d="M4.66667 13.2721C2.5375 13.2721 1.3125 12.0471 1.3125 9.91797V4.95964C1.3125 2.83047 2.5375 1.60547 4.66667 1.60547H9.33333C11.4625 1.60547 12.6875 2.83047 12.6875 4.95964V9.91797C12.6875 12.0471 11.4625 13.2721 9.33333 13.2721H4.66667ZM2.1875 4.95964V9.91797C2.1875 11.5863 2.99833 12.3971 4.66667 12.3971H9.33333C11.0017 12.3971 11.8125 11.5863 11.8125 9.91797V4.95964C11.8125 3.2913 11.0017 2.48047 9.33333 2.48047H4.66667C2.99833 2.48047 2.1875 3.2913 2.1875 4.95964Z" fill="#959CA6"/>
</svg>
