<svg width="16" height="16" viewBox="0 0 16 16" fill="none" xmlns="http://www.w3.org/2000/svg">
<path d="M2 5.16602C1.72667 5.16602 1.5 4.93935 1.5 4.66602C1.5 4.39268 1.72667 4.16602 2 4.16602H14C14.2733 4.16602 14.5 4.39268 14.5 4.66602C14.5 4.93935 14.2733 5.16602 14 5.16602H2Z" fill="#2A394E"/>
<path d="M4 8.5C3.72667 8.5 3.5 8.27333 3.5 8C3.5 7.72667 3.72667 7.5 4 7.5H12C12.2733 7.5 12.5 7.72667 12.5 8C12.5 8.27333 12.2733 8.5 12 8.5H4Z" fill="#2A394E"/>
<path d="M6.66669 11.834C6.39335 11.834 6.16669 11.6073 6.16669 11.334C6.16669 11.0607 6.39335 10.834 6.66669 10.834H9.33335C9.60669 10.834 9.83335 11.0607 9.83335 11.334C9.83335 11.6073 9.60669 11.834 9.33335 11.834H6.66669Z" fill="#2A394E"/>
<path opacity="0.01" fill-rule="evenodd" clip-rule="evenodd" d="M16 0V16H0V0H16Z" fill="#2A394E"/>
</svg>
