<svg width="16" height="14" viewBox="0 0 16 14" fill="none" xmlns="http://www.w3.org/2000/svg">
<path fill-rule="evenodd" clip-rule="evenodd" d="M13.0447 1.1586L11.9325 2.80984C13.5068 3.76118 14.8373 5.27844 15.7492 7.20805L16 7.73905L14.9427 8.24401L14.6912 7.713C13.8526 5.93861 12.6548 4.60243 11.2755 3.7868L10.219 5.35682C10.735 5.90611 11.0529 6.64537 11.0529 7.46091C11.0526 9.15587 9.68497 10.5296 7.99924 10.5297C7.60429 10.5297 7.22733 10.4533 6.88099 10.3159L4.73902 13.4996L4.25422 13.1702L3.76941 12.8399L8.59686 5.66638H8.59533L9.26689 4.66874L9.26841 4.6695L10.8791 2.27271L10.8806 2.27348L12.0751 0.499634L13.0447 1.1586ZM7.56398 9.30065C7.7037 9.33407 7.84926 9.35275 7.99924 9.35275C9.03882 9.3527 9.88179 8.50537 9.88204 7.46091C9.88204 7.05437 9.75374 6.67866 9.53673 6.37055L7.56398 9.30065Z" fill="#2A2A2A"/>
<path d="M7.03649 5.83648C6.56664 6.1186 6.23066 6.5995 6.14235 7.16514L5.16894 8.61103C5.0259 8.25575 4.94642 7.86771 4.94636 7.46091C4.94636 5.76528 6.31294 4.39136 7.99924 4.39136C8.00254 4.39136 8.00585 4.39135 8.00915 4.39136L7.03649 5.83648Z" fill="#2A2A2A"/>
<path d="M8.00152 1.69037C8.5782 1.69061 9.14364 1.75874 9.693 1.88806L8.9818 2.94547C8.65803 2.89332 8.33022 2.86663 8 2.86654C5.30342 2.86722 2.76531 4.63097 1.30881 7.713L1.05727 8.24401L0 7.73905L0.250786 7.20805C1.85486 3.81373 4.75213 1.69171 7.99848 1.69037H8.00152Z" fill="#2A2A2A"/>
</svg>
