<svg width="16" height="10" viewBox="0 0 16 10" fill="none" xmlns="http://www.w3.org/2000/svg">
<path fill-rule="evenodd" clip-rule="evenodd" d="M7.99924 3.25117C9.68525 3.25123 11.0529 4.64961 11.0529 6.37598C11.0526 8.10144 9.68497 9.49994 7.99924 9.5C6.31321 9.5 4.94661 8.10123 4.94636 6.37598C4.94636 4.64982 6.31294 3.25117 7.99924 3.25117ZM7.99924 4.4493C6.95982 4.4493 6.1172 5.31129 6.1172 6.37598C6.11745 7.43952 6.95985 8.30187 7.99924 8.30187C9.03882 8.30181 9.88179 7.43924 9.88204 6.37598C9.88204 5.31157 9.03885 4.44936 7.99924 4.4493Z" fill="#2A2A2A"/>
<path d="M8.00152 0.50156C11.2479 0.502929 14.1451 2.66314 15.7492 6.11856L16 6.65913L14.9427 7.17317L14.6912 6.63261C13.2347 3.49509 10.6966 1.6996 8 1.69891C5.30342 1.6996 2.76531 3.49509 1.30881 6.63261L1.05727 7.17317L0 6.65913L0.250786 6.11856C1.85486 2.66314 4.75213 0.501368 7.99848 0.5H8.00152V0.50156Z" fill="#2A2A2A"/>
</svg>
