<svg width="19" height="19" viewBox="0 0 19 19" fill="none" xmlns="http://www.w3.org/2000/svg">
<path d="M6.38867 4.40295V2.16184C6.38867 1.85555 6.64266 1.60156 6.94895 1.60156C7.25523 1.60156 7.50923 1.85555 7.50923 2.16184V4.40295C7.50923 4.70923 7.25523 4.96322 6.94895 4.96322C6.64266 4.96322 6.38867 4.70923 6.38867 4.40295Z" fill="#6A7483"/>
<path d="M12.3652 4.40295V2.16184C12.3652 1.85555 12.6192 1.60156 12.9255 1.60156C13.2318 1.60156 13.4858 1.85555 13.4858 2.16184V4.40295C13.4858 4.70923 13.2318 4.96322 12.9255 4.96322C12.6192 4.96322 12.3652 4.70923 12.3652 4.40295Z" fill="#6A7483"/>
<path d="M3.58762 8.01899C3.28134 8.01899 3.02734 7.765 3.02734 7.45871C3.02734 7.15243 3.28134 6.89844 3.58762 6.89844H16.2872C16.5935 6.89844 16.8475 7.15243 16.8475 7.45871C16.8475 7.765 16.5935 8.01899 16.2872 8.01899H3.58762Z" fill="#6A7483"/>
<path fill-rule="evenodd" clip-rule="evenodd" d="M6.94975 17.6634C4.22307 17.6634 2.6543 16.0946 2.6543 13.3679V7.01811C2.6543 4.29143 4.22307 2.72266 6.94975 2.72266H12.926C15.6527 2.72266 17.2215 4.29143 17.2215 7.01811V13.3679C17.2215 16.0946 15.6527 17.6634 12.926 17.6634H6.94975ZM3.77485 7.01811V13.3679C3.77485 15.5044 4.81323 16.5428 6.94975 16.5428H12.926C15.0626 16.5428 16.1009 15.5044 16.1009 13.3679V7.01811C16.1009 4.88159 15.0626 3.84321 12.926 3.84321H6.94975C4.81323 3.84321 3.77485 4.88159 3.77485 7.01811Z" fill="#6A7483"/>
<path d="M7.03933 11.4402C6.94969 11.4028 6.86752 11.3505 6.79282 11.2833C6.72559 11.2086 6.67328 11.1264 6.63592 11.0368C6.59857 10.9471 6.57617 10.85 6.57617 10.7529C6.57617 10.5587 6.65835 10.3645 6.79282 10.2225C6.86752 10.1553 6.94969 10.103 7.03933 10.0656C7.1738 10.0059 7.32322 9.99092 7.47262 10.0208C7.51745 10.0283 7.56226 10.0432 7.60708 10.0656C7.65191 10.0806 7.69672 10.103 7.74155 10.1329C7.7789 10.1628 7.81624 10.1926 7.8536 10.2225C7.88348 10.2599 7.92083 10.2972 7.94324 10.3346C7.97312 10.3794 7.99555 10.4242 8.01049 10.469C8.0329 10.5138 8.04784 10.5587 8.05531 10.6035C8.06278 10.6558 8.07024 10.7006 8.07024 10.7529C8.07024 10.9471 7.98806 11.1414 7.8536 11.2833C7.71166 11.4178 7.51744 11.4999 7.32321 11.4999C7.22609 11.4999 7.12897 11.4775 7.03933 11.4402Z" fill="#6A7483"/>
<path d="M9.4061 11.2825C9.37622 11.2451 9.34634 11.2078 9.31646 11.1704C9.28658 11.1256 9.26415 11.0808 9.24921 11.0359C9.22679 10.9911 9.21186 10.9463 9.20439 10.9015C9.19692 10.8492 9.18945 10.8044 9.18945 10.7521C9.18945 10.655 9.21185 10.5578 9.24921 10.4682C9.28656 10.3785 9.33887 10.2964 9.4061 10.2217C9.61527 10.0125 9.95143 9.94526 10.2204 10.0648C10.3175 10.1021 10.3922 10.1544 10.4669 10.2217C10.6013 10.3636 10.6835 10.5578 10.6835 10.7521C10.6835 10.8044 10.6761 10.8492 10.6686 10.9015C10.6611 10.9463 10.6462 10.9911 10.6238 11.0359C10.6088 11.0808 10.5864 11.1256 10.5565 11.1704C10.5266 11.2078 10.4968 11.2451 10.4669 11.2825C10.3922 11.3497 10.3175 11.402 10.2204 11.4394C10.1307 11.4767 10.0336 11.4991 9.93649 11.4991C9.74226 11.4991 9.54804 11.4169 9.4061 11.2825Z" fill="#6A7483"/>
<path d="M7.03933 14.0546C6.94969 14.0172 6.86752 13.9649 6.79282 13.8977C6.72559 13.823 6.67328 13.7483 6.63592 13.6512C6.59857 13.5615 6.57617 13.4644 6.57617 13.3673C6.57617 13.1731 6.65835 12.9789 6.79282 12.8369C6.86752 12.7697 6.94969 12.7174 7.03933 12.68C7.31573 12.5605 7.64443 12.6277 7.8536 12.8369C7.88348 12.8743 7.92083 12.9116 7.94324 12.949C7.97312 12.9938 7.99555 13.0386 8.01049 13.0834C8.0329 13.1282 8.04784 13.1731 8.05531 13.2254C8.06278 13.2702 8.07024 13.3225 8.07024 13.3673C8.07024 13.5615 7.98806 13.7558 7.8536 13.8977C7.71166 14.0322 7.51744 14.1143 7.32321 14.1143C7.22609 14.1143 7.12897 14.0919 7.03933 14.0546Z" fill="#6A7483"/>
</svg>
