<svg width="23" height="24" viewBox="0 0 23 24" fill="none" xmlns="http://www.w3.org/2000/svg">
<path d="M20.8992 10.0415H20.1273V10H11.5023V14H16.9183C16.1282 16.3285 14.005 18 11.5023 18C8.32684 18 5.75228 15.3135 5.75228 12C5.75228 8.6865 8.32684 6 11.5023 6C12.9681 6 14.3016 6.577 15.3169 7.5195L18.0276 4.691C16.316 3.0265 14.0265 2 11.5023 2C6.20988 2 1.91895 6.4775 1.91895 12C1.91895 17.5225 6.20988 22 11.5023 22C16.7947 22 21.0856 17.5225 21.0856 12C21.0856 11.3295 21.0195 10.675 20.8992 10.0415Z" fill="#FFC107"/>
<path d="M3.02344 7.3455L6.17204 9.755C7.024 7.554 9.08729 6 11.5018 6C12.9676 6 14.3011 6.577 15.3165 7.5195L18.0271 4.691C16.3155 3.0265 14.0261 2 11.5018 2C7.82085 2 4.62865 4.1685 3.02344 7.3455Z" fill="#FF3D00"/>
<path d="M11.4993 22.0003C13.9747 22.0003 16.2239 21.0118 17.9245 19.4043L14.9584 16.7853C13.964 17.5745 12.7487 18.0014 11.4993 18.0003C9.00671 18.0003 6.89023 16.3418 6.0929 14.0273L2.96777 16.5398C4.55382 19.7783 7.77477 22.0003 11.4993 22.0003Z" fill="#4CAF50"/>
<path d="M20.894 10.0415H20.1221V10H11.4971V14H16.9131C16.5351 15.1082 15.8543 16.0766 14.9547 16.7855L14.9562 16.7845L17.9222 19.4035C17.7123 19.6025 21.0804 17 21.0804 12C21.0804 11.3295 21.0143 10.675 20.894 10.0415Z" fill="#1976D2"/>
</svg>
