<svg width="19" height="18" viewBox="0 0 19 18" fill="none" xmlns="http://www.w3.org/2000/svg">
<mask id="mask0_3312_26242" style="mask-type:luminance" maskUnits="userSpaceOnUse" x="0" y="0" width="19" height="18">
<rect x="0.5" width="18" height="18" fill="white"/>
</mask>
<g mask="url(#mask0_3312_26242)">
<path fill-rule="evenodd" clip-rule="evenodd" d="M1.60258 16.8977C1.46008 16.7552 1.40012 16.5452 1.45262 16.3502L2.39763 12.8177C1.76763 11.6477 1.4376 10.3277 1.4376 8.99268C1.4376 4.54518 5.0526 0.930176 9.5001 0.930176C13.9476 0.930176 17.5626 4.54518 17.5626 8.99268C17.5626 13.4402 13.9476 17.0552 9.5001 17.0552C8.1426 17.0552 6.81512 16.7177 5.63012 16.0727L2.15011 17.0402C2.09761 17.0552 2.0526 17.0627 2.0001 17.0627C1.8501 17.0627 1.70758 17.0027 1.60258 16.8977ZM5.99011 14.9852C7.04761 15.6077 8.2626 15.9377 9.5001 15.9377C13.3251 15.9377 16.4376 12.8252 16.4376 9.00018C16.4376 5.17518 13.3251 2.06268 9.5001 2.06268C5.6751 2.06268 2.5626 5.17518 2.5626 9.00018C2.5626 10.2227 2.8851 11.4152 3.4926 12.4652C3.5676 12.5927 3.59011 12.7502 3.55261 12.8927L2.80261 15.6977L5.5626 14.9327C5.6076 14.9177 5.66011 14.9102 5.70511 14.9102C5.80261 14.9102 5.90011 14.9402 5.99011 14.9852Z" fill="#436AF5"/>
<path fill-rule="evenodd" clip-rule="evenodd" d="M10.1077 12.9972C9.63518 12.7947 9.16268 12.5247 8.70518 12.1872C8.25518 11.8572 7.8127 11.4822 7.4077 11.0772C7.0027 10.6647 6.62767 10.2297 6.29767 9.77973C5.96017 9.30723 5.69016 8.84222 5.49516 8.38472C5.28516 7.88972 5.18018 7.40223 5.18018 6.93723C5.18018 6.60723 5.24016 6.29223 5.35266 5.99973C5.47266 5.69223 5.66767 5.41472 5.92267 5.17472C6.40267 4.70222 7.0927 4.52974 7.6402 4.79224C7.8277 4.87474 7.98519 5.00974 8.10519 5.18974L8.97517 6.41222C9.06517 6.53222 9.1327 6.65972 9.1852 6.78722C9.2452 6.93722 9.2827 7.08724 9.2827 7.22974C9.2827 7.42474 9.23018 7.61974 9.12518 7.79224C9.05768 7.90474 8.96017 8.03974 8.83267 8.16724L8.73517 8.27223C8.78017 8.33223 8.83266 8.40722 8.91516 8.49722C9.07266 8.67722 9.24516 8.87222 9.43266 9.05972C9.62016 9.23972 9.80766 9.41972 9.99516 9.57722C10.0852 9.65222 10.1602 9.71223 10.2202 9.74973L10.3252 9.64472C10.4602 9.50972 10.5952 9.40474 10.7302 9.33724C10.9777 9.17974 11.3602 9.14223 11.6977 9.28473C11.8177 9.32973 11.9377 9.39722 12.0652 9.48722L13.3177 10.3722C13.4902 10.4922 13.6252 10.6572 13.7152 10.8447C13.7902 11.0322 13.8202 11.1972 13.8202 11.3697C13.8202 11.5947 13.7677 11.8122 13.6702 12.0222C13.5727 12.2172 13.4602 12.3897 13.3252 12.5472C13.0852 12.8097 12.8077 13.0047 12.5077 13.1322C12.2077 13.2597 11.8852 13.3197 11.5552 13.3197C11.0902 13.3197 10.6102 13.2147 10.1077 12.9972ZM6.71021 5.99222C6.56771 6.12722 6.47018 6.26973 6.40268 6.42723C6.33518 6.58473 6.30518 6.76473 6.30518 6.94473C6.30518 7.25973 6.38017 7.59722 6.53017 7.95722C6.68767 8.33222 6.92018 8.72974 7.20518 9.12724C7.49768 9.52474 7.82769 9.92223 8.19519 10.2897C8.56269 10.6497 8.95268 10.9872 9.35768 11.2872C9.74768 11.5722 10.1452 11.7972 10.5427 11.9697C11.1127 12.2172 11.6377 12.2772 12.0652 12.0972C12.2152 12.0372 12.3502 11.9322 12.4852 11.7972C12.5527 11.7222 12.6052 11.6472 12.6502 11.5497C12.6727 11.4972 12.6877 11.4372 12.6877 11.3847C12.6877 11.3697 12.6877 11.3472 12.6652 11.3022L11.4127 10.4322C11.3602 10.3947 11.3077 10.3647 11.2627 10.3497C11.2327 10.3647 11.1877 10.3872 11.1052 10.4697L10.8202 10.7547C10.6027 10.9722 10.2577 11.0322 9.98019 10.9347L9.8452 10.8747C9.6727 10.7847 9.47768 10.6497 9.26018 10.4622C9.05018 10.2822 8.8477 10.0947 8.6302 9.88472C8.4202 9.66722 8.23269 9.46472 8.05269 9.25472C7.85769 9.02222 7.72269 8.83473 7.63269 8.67723L7.5502 8.48222C7.5277 8.40722 7.52017 8.32473 7.52017 8.24973C7.52017 8.03973 7.5952 7.85222 7.7377 7.70222L8.02271 7.40973C8.10521 7.32723 8.13519 7.28224 8.15019 7.25224C8.12769 7.19974 8.0977 7.15473 8.0602 7.10223L7.18266 5.86473L7.09267 5.80472C7.04767 5.80472 6.89771 5.80472 6.71021 5.99222Z" fill="#436AF5"/>
</g>
</svg>
