<svg width="24" height="25" viewBox="0 0 24 25" fill="none" xmlns="http://www.w3.org/2000/svg">
<path d="M5.50015 4.90329C4.35015 5.33329 3.41016 6.69328 3.41016 7.92328V15.3533C3.41016 16.5333 4.19017 18.0833 5.14017 18.7933L9.44016 22.0033C10.8502 23.0633 13.1701 23.0633 14.5801 22.0033L18.8802 18.7933C19.8302 18.0833 20.6101 16.5333 20.6101 15.3533V7.92328C20.6101 6.69328 19.6701 5.33329 18.5201 4.90329L13.5302 3.03328C12.6802 2.72328 11.3201 2.72328 10.4901 3.03328L5.50015 4.90329Z" fill="#299E47"/>
<path d="M11.9593 12.102H11.9793H11.9993C13.1493 12.062 14.0493 11.132 14.0593 9.97203C14.0593 8.79203 13.0993 7.83203 11.9193 7.83203C10.7393 7.83203 9.7793 8.79203 9.7793 9.97203C9.7993 11.122 10.6993 12.062 11.8993 12.102C11.9193 12.102 11.9393 12.102 11.9593 12.102Z" fill="white"/>
<path d="M9.80014 14.2113C9.24014 14.5913 8.91016 15.1313 8.91016 15.6913C8.91016 16.2613 9.23014 16.7813 9.80014 17.1613C10.4101 17.5613 11.2001 17.7713 11.9901 17.7713C12.7801 17.7713 13.5801 17.5713 14.1801 17.1613C14.7401 16.7813 15.0702 16.2413 15.0702 15.6813C15.0802 15.1113 14.7602 14.5913 14.1902 14.2113C12.9802 13.4113 11.0201 13.4113 9.80014 14.2113Z" fill="white"/>
</svg>
