<svg width="14" height="16" viewBox="0 0 14 16" fill="none" xmlns="http://www.w3.org/2000/svg">
<path fill-rule="evenodd" clip-rule="evenodd" d="M6.40881 15.3569C4.6353 14.8732 3.03647 13.8118 1.89444 12.3608C0.671784 10.8425 0 8.98839 0 7.12083V4.17849C0 3.21112 0.644905 2.23034 1.5451 1.85414L5.29366 0.322456C6.39539 -0.107485 7.59115 -0.107485 8.67944 0.322456L12.4415 1.85414C13.3416 2.23034 14 3.21112 14 4.17849V7.12083C14 10.8694 11.3129 14.3358 7.61805 15.3569C7.38964 15.3972 7.17466 15.4242 6.97312 15.4242C6.77159 15.4242 6.58347 15.3972 6.40881 15.3569Z" fill="#33C659"/>
<path d="M5.55651 9.32153L3.7556 7.52062C3.57105 7.33607 3.57105 7.03062 3.7556 6.84607C3.94014 6.66153 4.2456 6.66153 4.43014 6.84607L5.89378 8.30971L9.16469 5.0388C9.34923 4.85425 9.65469 4.85425 9.83923 5.0388C10.0238 5.22335 10.0238 5.5288 9.83923 5.71334L6.23105 9.32153C6.14196 9.41062 6.02105 9.46153 5.89378 9.46153C5.76651 9.46153 5.6456 9.41062 5.55651 9.32153Z" fill="white" stroke="white" stroke-width="0.641667"/>
</svg>
