<svg width="19" height="17" viewBox="0 0 19 17" fill="none" xmlns="http://www.w3.org/2000/svg">
<rect width="19" height="17" fill="#1E1E1E"/>
<g id="Final flow">
<path d="M-2650 -2585C-2650 -2586.1 -2649.1 -2587 -2648 -2587H18348C18349.1 -2587 18350 -2586.1 18350 -2585V31552C18350 31553.1 18349.1 31554 18348 31554H-2648C-2649.1 31554 -2650 31553.1 -2650 31552V-2585Z" fill="#142811"/>
<g id="SignUp" clip-path="url(#clip0_2509_299042)">
<rect width="360" height="764" transform="translate(-278 -43)" fill="white"/>
<g id="bg">
<g id="bg_2">
<rect id="Rectangle 2724" x="-277" y="-15" width="360" height="740" fill="white"/>
<mask id="mask0_2509_299042" style="mask-type:alpha" maskUnits="userSpaceOnUse" x="-277" y="-15" width="360" height="740">
<rect id="Rectangle 2725" x="-277" y="-15" width="360" height="740" fill="#F6F8FF"/>
</mask>
<g mask="url(#mask0_2509_299042)">
<g id="Group 3" filter="url(#filter0_f_2509_299042)">
<path id="Ellipse 395" d="M127.659 195.77L127.644 195.757L127.629 195.745C35.8481 121.283 -23.5022 88.6207 -68.6859 65.6617C-73.7832 63.0717 -78.6958 60.607 -83.4504 58.2215C-120.834 39.4656 -148.458 25.6067 -179.368 -5.79523C-255.834 -83.4784 -237.506 -176.299 -202.211 -217.792C-168.64 -257.257 -106.36 -266.436 -32.1539 -248.597C41.9493 -230.783 127.415 -186.117 206.605 -118.754C285.889 -51.3123 358.764 24.8025 403.265 94.0227C425.52 128.639 440.61 161.428 445.918 190.474C451.219 219.481 446.749 244.62 430.067 264.232C413.079 284.202 395.607 298.22 376.553 306.001C357.523 313.773 336.79 315.376 313.173 310.316C265.814 300.168 206.998 263.259 127.659 195.77Z" stroke="url(#paint0_linear_2509_299042)" stroke-width="3.35578"/>
<g id="Ellipse 396" filter="url(#filter1_f_2509_299042)">
<path d="M128.985 193.015L128.949 192.985L128.912 192.955C37.3893 118.672 -21.7758 85.9707 -66.8218 62.969C-71.8984 60.3768 -76.7849 57.9124 -81.5091 55.5298C-118.685 36.7808 -145.805 23.1031 -176.317 -7.84615C-251.59 -84.1991 -233.847 -174.654 -199.781 -214.702C-167.562 -252.578 -107.041 -261.625 -33.624 -243.7C39.5332 -225.839 124.185 -181.429 202.814 -114.544C281.667 -47.4682 354.1 28.076 398.369 96.5679C420.514 130.83 435.446 163.076 440.755 191.44C446.048 219.714 441.742 243.784 425.885 262.425C409.282 281.944 392.312 295.459 373.917 302.894C355.581 310.306 335.52 311.8 312.477 306.775C266.085 296.656 207.973 260.206 128.985 193.015Z" stroke="url(#paint1_linear_2509_299042)" stroke-width="8.14974"/>
</g>
<g id="Mask group">
<mask id="mask1_2509_299042" style="mask-type:alpha" maskUnits="userSpaceOnUse" x="-209" y="-190" width="583" height="348">
<path id="Ellipse 395_2" d="M-202.496 -97.8435C-173.052 -171.848 16.0611 -222.722 162.13 -164.606C308.198 -106.49 397.772 20.7371 368.328 94.7413C338.884 168.745 280.052 177.751 133.983 119.636C-33.0311 57.6483 -66.9346 83.7316 -134.303 49.7569C-208.37 12.4042 -217.915 -59.0891 -202.496 -97.8435Z" fill="white"/>
</mask>
<g mask="url(#mask1_2509_299042)">
<g id="Ellipse 394" filter="url(#filter2_f_2509_299042)">
<ellipse cx="165.567" cy="220.603" rx="178.808" ry="123.881" transform="rotate(-139.614 165.567 220.603)" fill="#FB2A23"/>
</g>
<g id="Ellipse 396_2" filter="url(#filter3_f_2509_299042)">
<ellipse cx="306.218" cy="164.736" rx="151.525" ry="105.143" transform="rotate(-139.614 306.218 164.736)" fill="#8D78FF"/>
</g>
<g id="Ellipse 397" filter="url(#filter4_f_2509_299042)">
<ellipse cx="-37.3102" cy="-272.276" rx="261.776" ry="181.647" transform="rotate(-139.614 -37.3102 -272.276)" fill="#436AF5"/>
</g>
</g>
</g>
</g>
</g>
</g>
</g>
<g id="Frame 40652">
<rect width="360" height="46" transform="translate(-278 -14.6318)" fill="white"/>
<g id="Frame 40484">
<g id="language">
<g id="Shape">
<mask id="path-11-outside-1_2509_299042" maskUnits="userSpaceOnUse" x="0" y="-0.631836" width="19" height="18" fill="black">
<rect fill="white" y="-0.631836" width="19" height="18"/>
<path fill-rule="evenodd" clip-rule="evenodd" d="M16.6151 5.6536H11.7502V2.22095C11.7494 1.72989 11.5554 1.25898 11.2106 0.911767C10.8659 0.564395 10.3984 0.368918 9.91095 0.368164H2.83928C2.3518 0.368939 1.88434 0.564403 1.53966 0.911767C1.19482 1.25898 1.00077 1.72989 1.00002 2.22095V6.67525C0.998176 7.04402 1.10789 7.40457 1.31485 7.70885C1.92732 8.91078 4.63537 10.6591 5.14432 10.9877C5.19492 11.0204 5.22379 11.039 5.22669 11.0417C5.27223 11.07 5.32471 11.0852 5.37825 11.0857C5.44673 11.0849 5.51274 11.0599 5.56475 11.0152C5.6597 10.9336 5.69247 10.8002 5.64646 10.6834C5.39026 9.98233 5.1953 9.26032 5.06342 8.52509H7.70438V11.9607C7.70515 12.4516 7.89919 12.922 8.24401 13.2689C8.589 13.6157 9.05632 13.8105 9.54364 13.8105H14.3912C14.2594 14.5456 14.0644 15.2678 13.8082 15.9687C13.7634 16.0848 13.7962 16.2166 13.8897 16.2976C13.9418 16.3424 14.0079 16.3674 14.0764 16.3682C14.1299 16.3677 14.1824 16.3525 14.228 16.3241L14.2355 16.3194C14.4101 16.2098 17.4823 14.2815 18.1398 12.9913C18.3466 12.6871 18.4565 12.3265 18.4545 11.9577V7.50622C18.4537 7.015 18.2597 6.54425 17.915 6.19687C17.5702 5.84966 17.1028 5.65418 16.6152 5.65343L16.6151 5.6536ZM6.66374 7.93799H4.71659C4.63134 7.93799 4.5504 7.9755 4.49501 8.04076C4.439 8.10617 4.41453 8.19313 4.42808 8.27854C4.5284 8.88694 4.66366 9.48884 4.83322 10.0814C3.82471 9.39431 2.2361 8.21394 1.83958 7.45343C1.83066 7.43297 1.81989 7.41328 1.80757 7.39468C1.66062 7.18403 1.5823 6.93274 1.58307 6.67529V2.22099C1.58384 1.88556 1.71648 1.56422 1.95191 1.32708C2.18734 1.08976 2.50647 0.956296 2.8393 0.955522H9.91097C10.244 0.956297 10.5629 1.08976 10.7984 1.32708C11.0339 1.56424 11.1664 1.88556 11.1672 2.22099V5.65364H9.54365C8.98755 5.65379 8.46143 5.90754 8.11245 6.34375C7.69639 6.34452 7.28628 6.24377 6.9173 6.05001C7.46138 5.4295 7.78176 4.64221 7.8267 3.81544H8.194C8.35496 3.81544 8.4856 3.68399 8.4856 3.52186C8.4856 3.35972 8.35496 3.22827 8.194 3.22827H6.67831V2.30039C6.67831 2.1381 6.54783 2.00665 6.38672 2.00665C6.22577 2.00665 6.09528 2.1381 6.09528 2.30039V3.21942H4.57668C4.41557 3.21942 4.28509 3.35087 4.28509 3.51301C4.28509 3.67514 4.41557 3.80674 4.57668 3.80674H7.24088C7.19842 4.48677 6.93283 5.13331 6.48582 5.64481L6.43919 5.68884C6.11497 5.36983 5.866 4.98139 5.7106 4.55246C5.65258 4.40087 5.48363 4.32522 5.33299 4.38366C5.1825 4.4421 5.10756 4.6123 5.16542 4.76389C5.3393 5.23944 5.60921 5.67332 5.95834 6.0382C5.53334 6.25459 5.06138 6.36061 4.58533 6.34651C4.42438 6.34651 4.29389 6.47811 4.29389 6.64025C4.29389 6.80238 4.42438 6.93383 4.58533 6.93383C5.23916 6.95444 5.88464 6.78192 6.44215 6.43764C6.85223 6.70054 7.31926 6.85974 7.80351 6.90157C7.73827 7.09037 7.70472 7.28877 7.70441 7.48874V7.92044L6.66374 7.93799ZM17.6472 12.6803C17.794 12.4697 17.8725 12.2184 17.8717 11.9609L17.872 7.50651C17.8713 7.17107 17.7386 6.8496 17.5032 6.61243C17.2678 6.37527 16.9487 6.24181 16.6157 6.24103H9.544C9.21101 6.24181 8.89188 6.37527 8.65645 6.61243C8.42102 6.84957 8.28838 7.17107 8.28761 7.50651V11.9727C8.28838 12.3078 8.42117 12.629 8.65661 12.8657C8.89217 13.1024 9.21131 13.2352 9.54399 13.2352H14.7382C14.8235 13.2352 14.9044 13.2729 14.9597 13.338C15.0157 13.4036 15.0403 13.4905 15.0267 13.576C14.9264 14.1842 14.7912 14.7863 14.6216 15.3789C15.6302 14.6799 17.2218 13.4966 17.6182 12.7361C17.6249 12.7161 17.6348 12.6972 17.6472 12.6803ZM13.3628 7.44469C13.3515 7.42004 13.3369 7.39741 13.3189 7.37726C13.3189 7.37726 13.3189 7.35664 13.2984 7.34796L13.2986 7.34781C13.2883 7.34037 13.2777 7.33339 13.2664 7.32735C13.248 7.31107 13.2273 7.29728 13.2053 7.28611C13.1898 7.28472 13.1741 7.28472 13.1587 7.28611C13.1382 7.28472 13.1178 7.28472 13.0975 7.28611C13.0718 7.28813 13.0462 7.29309 13.0216 7.30084H12.9896C12.9624 7.31293 12.9368 7.32874 12.9137 7.34781L12.8933 7.36253L12.8699 7.39772H12.87C12.8548 7.4171 12.8411 7.43771 12.8293 7.45941L11.0803 11.8641C11.0517 11.9365 11.0528 12.0174 11.0834 12.089C11.114 12.1606 11.1716 12.2171 11.2436 12.2457C11.2778 12.2598 11.3145 12.267 11.3515 12.2664C11.4709 12.2665 11.5783 12.1932 11.6224 12.0814L12.1296 10.7983H14.068L14.5781 12.0814H14.5782C14.6224 12.1932 14.7298 12.2665 14.8493 12.2664C14.8863 12.2665 14.9227 12.2595 14.9572 12.2457C15.0291 12.2171 15.0868 12.1606 15.1174 12.089C15.148 12.0174 15.1491 11.9365 15.1203 11.8641L13.3628 7.44469ZM13.0884 8.34331L12.3508 10.1961H13.8229L13.0884 8.34331Z"/>
</mask>
<path fill-rule="evenodd" clip-rule="evenodd" d="M16.6151 5.6536H11.7502V2.22095C11.7494 1.72989 11.5554 1.25898 11.2106 0.911767C10.8659 0.564395 10.3984 0.368918 9.91095 0.368164H2.83928C2.3518 0.368939 1.88434 0.564403 1.53966 0.911767C1.19482 1.25898 1.00077 1.72989 1.00002 2.22095V6.67525C0.998176 7.04402 1.10789 7.40457 1.31485 7.70885C1.92732 8.91078 4.63537 10.6591 5.14432 10.9877C5.19492 11.0204 5.22379 11.039 5.22669 11.0417C5.27223 11.07 5.32471 11.0852 5.37825 11.0857C5.44673 11.0849 5.51274 11.0599 5.56475 11.0152C5.6597 10.9336 5.69247 10.8002 5.64646 10.6834C5.39026 9.98233 5.1953 9.26032 5.06342 8.52509H7.70438V11.9607C7.70515 12.4516 7.89919 12.922 8.24401 13.2689C8.589 13.6157 9.05632 13.8105 9.54364 13.8105H14.3912C14.2594 14.5456 14.0644 15.2678 13.8082 15.9687C13.7634 16.0848 13.7962 16.2166 13.8897 16.2976C13.9418 16.3424 14.0079 16.3674 14.0764 16.3682C14.1299 16.3677 14.1824 16.3525 14.228 16.3241L14.2355 16.3194C14.4101 16.2098 17.4823 14.2815 18.1398 12.9913C18.3466 12.6871 18.4565 12.3265 18.4545 11.9577V7.50622C18.4537 7.015 18.2597 6.54425 17.915 6.19687C17.5702 5.84966 17.1028 5.65418 16.6152 5.65343L16.6151 5.6536ZM6.66374 7.93799H4.71659C4.63134 7.93799 4.5504 7.9755 4.49501 8.04076C4.439 8.10617 4.41453 8.19313 4.42808 8.27854C4.5284 8.88694 4.66366 9.48884 4.83322 10.0814C3.82471 9.39431 2.2361 8.21394 1.83958 7.45343C1.83066 7.43297 1.81989 7.41328 1.80757 7.39468C1.66062 7.18403 1.5823 6.93274 1.58307 6.67529V2.22099C1.58384 1.88556 1.71648 1.56422 1.95191 1.32708C2.18734 1.08976 2.50647 0.956296 2.8393 0.955522H9.91097C10.244 0.956297 10.5629 1.08976 10.7984 1.32708C11.0339 1.56424 11.1664 1.88556 11.1672 2.22099V5.65364H9.54365C8.98755 5.65379 8.46143 5.90754 8.11245 6.34375C7.69639 6.34452 7.28628 6.24377 6.9173 6.05001C7.46138 5.4295 7.78176 4.64221 7.8267 3.81544H8.194C8.35496 3.81544 8.4856 3.68399 8.4856 3.52186C8.4856 3.35972 8.35496 3.22827 8.194 3.22827H6.67831V2.30039C6.67831 2.1381 6.54783 2.00665 6.38672 2.00665C6.22577 2.00665 6.09528 2.1381 6.09528 2.30039V3.21942H4.57668C4.41557 3.21942 4.28509 3.35087 4.28509 3.51301C4.28509 3.67514 4.41557 3.80674 4.57668 3.80674H7.24088C7.19842 4.48677 6.93283 5.13331 6.48582 5.64481L6.43919 5.68884C6.11497 5.36983 5.866 4.98139 5.7106 4.55246C5.65258 4.40087 5.48363 4.32522 5.33299 4.38366C5.1825 4.4421 5.10756 4.6123 5.16542 4.76389C5.3393 5.23944 5.60921 5.67332 5.95834 6.0382C5.53334 6.25459 5.06138 6.36061 4.58533 6.34651C4.42438 6.34651 4.29389 6.47811 4.29389 6.64025C4.29389 6.80238 4.42438 6.93383 4.58533 6.93383C5.23916 6.95444 5.88464 6.78192 6.44215 6.43764C6.85223 6.70054 7.31926 6.85974 7.80351 6.90157C7.73827 7.09037 7.70472 7.28877 7.70441 7.48874V7.92044L6.66374 7.93799ZM17.6472 12.6803C17.794 12.4697 17.8725 12.2184 17.8717 11.9609L17.872 7.50651C17.8713 7.17107 17.7386 6.8496 17.5032 6.61243C17.2678 6.37527 16.9487 6.24181 16.6157 6.24103H9.544C9.21101 6.24181 8.89188 6.37527 8.65645 6.61243C8.42102 6.84957 8.28838 7.17107 8.28761 7.50651V11.9727C8.28838 12.3078 8.42117 12.629 8.65661 12.8657C8.89217 13.1024 9.21131 13.2352 9.54399 13.2352H14.7382C14.8235 13.2352 14.9044 13.2729 14.9597 13.338C15.0157 13.4036 15.0403 13.4905 15.0267 13.576C14.9264 14.1842 14.7912 14.7863 14.6216 15.3789C15.6302 14.6799 17.2218 13.4966 17.6182 12.7361C17.6249 12.7161 17.6348 12.6972 17.6472 12.6803ZM13.3628 7.44469C13.3515 7.42004 13.3369 7.39741 13.3189 7.37726C13.3189 7.37726 13.3189 7.35664 13.2984 7.34796L13.2986 7.34781C13.2883 7.34037 13.2777 7.33339 13.2664 7.32735C13.248 7.31107 13.2273 7.29728 13.2053 7.28611C13.1898 7.28472 13.1741 7.28472 13.1587 7.28611C13.1382 7.28472 13.1178 7.28472 13.0975 7.28611C13.0718 7.28813 13.0462 7.29309 13.0216 7.30084H12.9896C12.9624 7.31293 12.9368 7.32874 12.9137 7.34781L12.8933 7.36253L12.8699 7.39772H12.87C12.8548 7.4171 12.8411 7.43771 12.8293 7.45941L11.0803 11.8641C11.0517 11.9365 11.0528 12.0174 11.0834 12.089C11.114 12.1606 11.1716 12.2171 11.2436 12.2457C11.2778 12.2598 11.3145 12.267 11.3515 12.2664C11.4709 12.2665 11.5783 12.1932 11.6224 12.0814L12.1296 10.7983H14.068L14.5781 12.0814H14.5782C14.6224 12.1932 14.7298 12.2665 14.8493 12.2664C14.8863 12.2665 14.9227 12.2595 14.9572 12.2457C15.0291 12.2171 15.0868 12.1606 15.1174 12.089C15.148 12.0174 15.1491 11.9365 15.1203 11.8641L13.3628 7.44469ZM13.0884 8.34331L12.3508 10.1961H13.8229L13.0884 8.34331Z" fill="#747E8B"/>
<path d="M11.7502 5.6536H11.5502V5.8536H11.7502V5.6536ZM16.6151 5.6536V5.8536H16.7403L16.795 5.74103L16.6151 5.6536ZM11.7502 2.22095H11.9502V2.22064L11.7502 2.22095ZM11.2106 0.911767L11.0686 1.05264L11.0687 1.0527L11.2106 0.911767ZM9.91095 0.368164L9.91126 0.168164H9.91095V0.368164ZM2.83928 0.368164V0.168164L2.83896 0.168164L2.83928 0.368164ZM1.53966 0.911767L1.68156 1.0527L1.68162 1.05264L1.53966 0.911767ZM1.00002 2.22095L0.800023 2.22065V2.22095H1.00002ZM1.00002 6.67525L1.20002 6.67625V6.67525H1.00002ZM1.31485 7.70885L1.49305 7.61804L1.48732 7.6068L1.48022 7.59637L1.31485 7.70885ZM5.14432 10.9877L5.25279 10.8197L5.14432 10.9877ZM5.22669 11.0417L5.09134 11.1889L5.10509 11.2015L5.12095 11.2114L5.22669 11.0417ZM5.37825 11.0857L5.37652 11.2857L5.38052 11.2857L5.37825 11.0857ZM5.56475 11.0152L5.43445 10.8634L5.43423 10.8636L5.56475 11.0152ZM5.64646 10.6834L5.45855 10.7521L5.46039 10.7568L5.64646 10.6834ZM5.06342 8.52509V8.32509H4.82435L4.86656 8.56041L5.06342 8.52509ZM7.70438 8.52509H7.90438V8.32509H7.70438V8.52509ZM7.70438 11.9607H7.50438L7.50438 11.961L7.70438 11.9607ZM8.24401 13.2689L8.10217 13.4099L8.10223 13.41L8.24401 13.2689ZM14.3912 13.8105L14.5881 13.8458L14.6303 13.6105H14.3912V13.8105ZM13.8082 15.9687L13.9948 16.0407L13.996 16.0374L13.8082 15.9687ZM13.8897 16.2976L13.7588 16.4488L13.7592 16.4492L13.8897 16.2976ZM14.0764 16.3682L14.0741 16.5682L14.0781 16.5682L14.0764 16.3682ZM14.228 16.3241L14.3337 16.4939L14.3345 16.4934L14.228 16.3241ZM14.2355 16.3194L14.1292 16.15L14.129 16.1501L14.2355 16.3194ZM18.1398 12.9913L17.9744 12.8789L17.9673 12.8893L17.9616 12.9005L18.1398 12.9913ZM18.4545 11.9577H18.2545L18.2545 11.9588L18.4545 11.9577ZM18.4545 7.50622H18.6545L18.6545 7.50591L18.4545 7.50622ZM17.915 6.19687L18.057 6.05601L18.0569 6.05594L17.915 6.19687ZM16.6152 5.65343L16.6155 5.45343L16.4901 5.45324L16.4353 5.566L16.6152 5.65343ZM6.66374 7.93799V8.13802L6.66711 8.13796L6.66374 7.93799ZM4.49501 8.04076L4.64693 8.17084L4.64748 8.17018L4.49501 8.04076ZM4.42808 8.27854L4.23054 8.30986L4.23074 8.31108L4.42808 8.27854ZM4.83322 10.0814L4.72061 10.2467L5.17764 10.5581L5.02551 10.0264L4.83322 10.0814ZM1.83958 7.45343L1.65582 7.53359L1.66224 7.5459L1.83958 7.45343ZM1.80757 7.39468L1.97441 7.28428L1.97161 7.28025L1.80757 7.39468ZM1.58307 6.67529L1.78307 6.67589V6.67529H1.58307ZM1.58307 2.22099L1.38307 2.22053V2.22099H1.58307ZM1.95191 1.32708L2.09384 1.46799L2.0939 1.46793L1.95191 1.32708ZM2.8393 0.955522V0.755521L2.83883 0.755523L2.8393 0.955522ZM9.91097 0.955522L9.91143 0.755522H9.91097V0.955522ZM10.7984 1.32708L10.6564 1.46792L10.6565 1.46802L10.7984 1.32708ZM11.1672 2.22099H11.3672L11.3672 2.22053L11.1672 2.22099ZM11.1672 5.65364V5.85364H11.3672V5.65364H11.1672ZM9.54365 5.65364V5.45364H9.54359L9.54365 5.65364ZM8.11245 6.34375L8.11283 6.54375L8.20872 6.54357L8.26863 6.46869L8.11245 6.34375ZM6.9173 6.05001L6.76692 5.91815L6.59954 6.10905L6.82432 6.22708L6.9173 6.05001ZM7.8267 3.81544V3.61544H7.63728L7.627 3.80458L7.8267 3.81544ZM6.67831 3.22827H6.47831V3.42827H6.67831V3.22827ZM6.09528 3.21942V3.41942H6.29528V3.21942H6.09528ZM7.24088 3.80674L7.4405 3.81921L7.45376 3.60674H7.24088V3.80674ZM6.48582 5.64481L6.62312 5.79023L6.6301 5.78365L6.63641 5.77642L6.48582 5.64481ZM6.43919 5.68884L6.29892 5.8314L6.43633 5.9666L6.5765 5.83426L6.43919 5.68884ZM5.7106 4.55246L5.89866 4.48432L5.89739 4.48098L5.7106 4.55246ZM5.33299 4.38366L5.26065 4.1972L5.26059 4.19722L5.33299 4.38366ZM5.16542 4.76389L5.35327 4.69521L5.35227 4.69258L5.16542 4.76389ZM5.95834 6.0382L6.04909 6.21643L6.28887 6.09434L6.10285 5.89993L5.95834 6.0382ZM4.58533 6.34651L4.59126 6.14651H4.58533V6.34651ZM4.58533 6.93383L4.59163 6.73383H4.58533V6.93383ZM6.44215 6.43764L6.5501 6.26927L6.44415 6.20135L6.33707 6.26748L6.44215 6.43764ZM7.80351 6.90157L7.99254 6.96689L8.07634 6.72439L7.82072 6.70231L7.80351 6.90157ZM7.70441 7.48874L7.50441 7.48843V7.48874H7.70441ZM7.70441 7.92044L7.70778 8.12041L7.90441 8.1171V7.92044H7.70441ZM17.8717 11.9609L17.6717 11.9609L17.6717 11.9615L17.8717 11.9609ZM17.6472 12.6803L17.8082 12.7991L17.8113 12.7947L17.6472 12.6803ZM17.872 7.50651L18.0721 7.50652L18.072 7.50605L17.872 7.50651ZM17.5032 6.61243L17.3613 6.75333L17.3613 6.75333L17.5032 6.61243ZM16.6157 6.24103L16.6161 6.04103H16.6157V6.24103ZM9.544 6.24103V6.04103L9.54353 6.04103L9.544 6.24103ZM8.65645 6.61243L8.79838 6.75334L8.79839 6.75333L8.65645 6.61243ZM8.28761 7.50651L8.08761 7.50605V7.50651H8.28761ZM8.28761 11.9727H8.08761L8.08761 11.9732L8.28761 11.9727ZM8.65661 12.8657L8.51481 13.0068L8.51485 13.0068L8.65661 12.8657ZM14.9597 13.338L14.8072 13.4674L14.8076 13.4679L14.9597 13.338ZM15.0267 13.576L15.2241 13.6085L15.2243 13.6073L15.0267 13.576ZM14.6216 15.3789L14.4293 15.3238L14.2753 15.8622L14.7355 15.5433L14.6216 15.3789ZM17.6182 12.7361L17.7955 12.8286L17.8026 12.8149L17.8076 12.8003L17.6182 12.7361ZM13.3189 7.37726L13.1189 7.37727L13.1189 7.4536L13.1698 7.51051L13.3189 7.37726ZM13.3628 7.44469L13.5488 7.37069L13.5447 7.36174L13.3628 7.44469ZM13.2984 7.34796L13.1564 7.2072L12.9486 7.41685L13.2203 7.53209L13.2984 7.34796ZM13.2986 7.34781L13.4407 7.48857L13.6052 7.32247L13.4156 7.18564L13.2986 7.34781ZM13.2664 7.32735L13.1342 7.47738L13.1514 7.49258L13.1716 7.50346L13.2664 7.32735ZM13.2053 7.28611L13.2958 7.10775L13.2615 7.09035L13.2232 7.08691L13.2053 7.28611ZM13.1587 7.28611L13.1451 7.48565L13.161 7.48673L13.1768 7.4853L13.1587 7.28611ZM13.0975 7.28611L13.0838 7.08657L13.0818 7.08673L13.0975 7.28611ZM13.0216 7.30084V7.50084H13.0523L13.0817 7.49161L13.0216 7.30084ZM12.9896 7.30084V7.10084H12.9472L12.9085 7.11804L12.9896 7.30084ZM12.9137 7.34781L13.0308 7.51051L13.0411 7.50201L12.9137 7.34781ZM12.8933 7.36253L12.7765 7.20019L12.7469 7.22147L12.7267 7.25182L12.8933 7.36253ZM12.8699 7.39772L12.7033 7.28701L12.4968 7.59772H12.8699V7.39772ZM12.87 7.39772L13.0273 7.52133L13.2817 7.19772H12.87V7.39772ZM12.8293 7.45941L12.6537 7.36357L12.6479 7.37427L12.6434 7.38561L12.8293 7.45941ZM11.0803 11.8641L10.8944 11.7903L10.8943 11.7906L11.0803 11.8641ZM11.0834 12.089L10.8995 12.1677V12.1677L11.0834 12.089ZM11.2436 12.2457L11.3199 12.0609L11.3176 12.0599L11.2436 12.2457ZM11.3515 12.2664L11.3517 12.0663L11.3481 12.0664L11.3515 12.2664ZM11.6224 12.0814L11.4364 12.0079L11.4364 12.0079L11.6224 12.0814ZM12.1296 10.7983V10.5983H11.9936L11.9436 10.7248L12.1296 10.7983ZM14.068 10.7983L14.2538 10.7244L14.2037 10.5983H14.068V10.7983ZM14.5781 12.0814L14.3922 12.1553L14.4423 12.2814H14.5781V12.0814ZM14.5782 12.0814L14.7642 12.0079L14.7142 11.8814H14.5782V12.0814ZM14.8493 12.2664L14.8502 12.0664L14.8491 12.0664L14.8493 12.2664ZM14.9572 12.2457L14.8831 12.06L14.8829 12.0601L14.9572 12.2457ZM15.1174 12.089L14.9335 12.0104L14.9335 12.0104L15.1174 12.089ZM15.1203 11.8641L15.3062 11.7902L15.3062 11.7902L15.1203 11.8641ZM12.3508 10.1961L12.165 10.1221L12.0559 10.3961H12.3508V10.1961ZM13.0884 8.34331L13.2743 8.26959L13.0887 7.8016L12.9025 8.26934L13.0884 8.34331ZM13.8229 10.1961V10.3961H14.1174L14.0089 10.1224L13.8229 10.1961ZM11.7502 5.8536H16.6151V5.4536H11.7502V5.8536ZM11.5502 2.22095V5.6536H11.9502V2.22095H11.5502ZM11.0687 1.0527C11.3762 1.36236 11.5495 1.78266 11.5502 2.22127L11.9502 2.22064C11.9494 1.67712 11.7346 1.15561 11.3525 0.770835L11.0687 1.0527ZM9.91064 0.568164C10.3447 0.568835 10.7613 0.742886 11.0686 1.05264L11.3525 0.770897C10.9705 0.385905 10.4522 0.169001 9.91126 0.168164L9.91064 0.568164ZM2.83928 0.568164H9.91095V0.168164H2.83928V0.568164ZM1.68162 1.05264C1.98897 0.742897 2.40552 0.568854 2.8396 0.568164L2.83896 0.168164C2.29808 0.169024 1.7797 0.385909 1.39769 0.770895L1.68162 1.05264ZM1.20002 2.22126C1.20069 1.78266 1.37403 1.36236 1.68156 1.0527L1.39775 0.770833C1.01562 1.1556 0.800852 1.67712 0.800023 2.22065L1.20002 2.22126ZM1.20002 6.67525V2.22095H0.800023V6.67525H1.20002ZM1.48022 7.59637C1.2961 7.32566 1.19838 7.00471 1.20002 6.67625L0.800025 6.67425C0.797977 7.08332 0.919678 7.48347 1.14948 7.82133L1.48022 7.59637ZM5.25279 10.8197C4.99894 10.6558 4.20057 10.1403 3.39032 9.51723C2.98511 9.20563 2.57981 8.86932 2.23939 8.53858C1.89606 8.20502 1.63101 7.88877 1.49305 7.61804L1.13665 7.79965C1.30493 8.12989 1.60806 8.4829 1.96065 8.82547C2.31615 9.17085 2.73452 9.51752 3.14649 9.83432C3.97063 10.4681 4.78075 10.991 5.03584 11.1557L5.25279 10.8197ZM5.36203 10.8944C5.35471 10.8877 5.34835 10.8829 5.34679 10.8817C5.34412 10.8797 5.34179 10.878 5.34025 10.8769C5.33713 10.8747 5.33402 10.8726 5.33151 10.8709C5.32632 10.8674 5.31985 10.8631 5.31271 10.8584C5.29828 10.849 5.2779 10.8359 5.25279 10.8197L5.03584 11.1557C5.06134 11.1722 5.08069 11.1847 5.09407 11.1934C5.10084 11.1978 5.10529 11.2008 5.10791 11.2025C5.1093 11.2035 5.10932 11.2035 5.10853 11.2029C5.10816 11.2027 5.10679 11.2017 5.10489 11.2003C5.10409 11.1996 5.0983 11.1953 5.09134 11.1889L5.36203 10.8944ZM5.37999 10.8857C5.36311 10.8855 5.34664 10.8807 5.33242 10.8719L5.12095 11.2114C5.19782 11.2593 5.2863 11.2849 5.37652 11.2857L5.37999 10.8857ZM5.43423 10.8636C5.41786 10.8777 5.39724 10.8854 5.37599 10.8857L5.38052 11.2857C5.49622 11.2844 5.60763 11.2422 5.69527 11.1667L5.43423 10.8636ZM5.46039 10.7568C5.47535 10.7947 5.46439 10.8377 5.43445 10.8634L5.69505 11.1669C5.85501 11.0295 5.90958 10.8056 5.83253 10.6101L5.46039 10.7568ZM4.86656 8.56041C5.00047 9.30695 5.19844 10.0401 5.45861 10.7521L5.83431 10.6148C5.58208 9.92455 5.39013 9.21369 5.26027 8.48978L4.86656 8.56041ZM7.70438 8.32509H5.06342V8.72509H7.70438V8.32509ZM7.90438 11.9607V8.52509H7.50438V11.9607H7.90438ZM8.38586 13.128C8.07836 12.8186 7.90507 12.3988 7.90438 11.9604L7.50438 11.961C7.50523 12.5044 7.72001 13.0255 8.10217 13.4099L8.38586 13.128ZM9.54364 13.6105C9.1098 13.6105 8.69343 13.4371 8.3858 13.1279L8.10223 13.41C8.48457 13.7943 9.00284 14.0105 9.54364 14.0105V13.6105ZM14.3912 13.6105H9.54364V14.0105H14.3912V13.6105ZM13.996 16.0374C14.2562 15.3256 14.4542 14.5922 14.5881 13.8458L14.1944 13.7752C14.0645 14.4989 13.8726 15.21 13.6203 15.9L13.996 16.0374ZM14.0207 16.1465C13.9911 16.1209 13.9802 16.0784 13.9948 16.0407L13.6216 15.8967C13.5466 16.0912 13.6012 16.3123 13.7588 16.4488L14.0207 16.1465ZM14.0787 16.1682C14.0573 16.1679 14.0366 16.1601 14.0203 16.1461L13.7592 16.4492C13.847 16.5247 13.9585 16.5668 14.0741 16.5682L14.0787 16.1682ZM14.1222 16.1544C14.108 16.1632 14.0915 16.168 14.0747 16.1682L14.0781 16.5682C14.1684 16.5674 14.2568 16.5418 14.3337 16.4939L14.1222 16.1544ZM14.129 16.1501L14.1214 16.1549L14.3345 16.4934L14.342 16.4887L14.129 16.1501ZM17.9616 12.9005C17.8132 13.1918 17.5183 13.5352 17.1392 13.8952C16.7636 14.2519 16.319 14.6123 15.8862 14.9383C15.021 15.5902 14.215 16.0962 14.1292 16.15L14.3418 16.4888C14.4306 16.4331 15.248 15.92 16.1269 15.2578C16.5663 14.9268 17.0239 14.5563 17.4147 14.1852C17.802 13.8174 18.1377 13.4359 18.318 13.0821L17.9616 12.9005ZM18.2545 11.9588C18.2563 12.2872 18.1584 12.6081 17.9744 12.8789L18.3052 13.1038C18.5348 12.766 18.6567 12.3658 18.6545 11.9567L18.2545 11.9588ZM18.2545 7.50622V11.9577H18.6545V7.50622H18.2545ZM17.773 6.33774C18.0805 6.6476 18.2538 7.06778 18.2545 7.50653L18.6545 7.50591C18.6536 6.96221 18.4389 6.4409 18.057 6.05601L17.773 6.33774ZM16.6149 5.85343C17.0491 5.8541 17.4655 6.02814 17.7731 6.33781L18.0569 6.05594C17.6748 5.67117 17.1566 5.45427 16.6155 5.45343L16.6149 5.85343ZM16.795 5.74103L16.7951 5.74086L16.4353 5.566L16.4353 5.56617L16.795 5.74103ZM4.71659 8.13799H6.66374V7.73799H4.71659V8.13799ZM4.64748 8.17018C4.66501 8.14953 4.69027 8.13799 4.71659 8.13799V7.73799C4.57241 7.73799 4.4358 7.80146 4.34254 7.91133L4.64748 8.17018ZM4.62561 8.24722C4.62119 8.21938 4.62924 8.19149 4.64693 8.17084L4.3431 7.91067C4.24876 8.02084 4.20787 8.16687 4.23054 8.30986L4.62561 8.24722ZM5.02551 10.0264C4.85806 9.44121 4.72449 8.84682 4.62541 8.246L4.23074 8.31108C4.33232 8.92706 4.46926 9.53646 4.64094 10.1365L5.02551 10.0264ZM1.66224 7.5459C1.77456 7.76132 1.96374 7.99395 2.18891 8.22718C2.41616 8.46256 2.68936 8.70798 2.97907 8.94876C3.55857 9.4304 4.21352 9.90123 4.72061 10.2467L4.94584 9.91616C4.44441 9.57453 3.8008 9.11161 3.23474 8.64114C2.95167 8.40588 2.69034 8.17066 2.47668 7.94936C2.26096 7.7259 2.10286 7.5258 2.01692 7.36097L1.66224 7.5459ZM1.64079 7.50505C1.64692 7.51432 1.6521 7.52386 1.65626 7.53339L2.0229 7.37347C2.00921 7.34208 1.99285 7.31225 1.97436 7.28431L1.64079 7.50505ZM1.38307 6.67469C1.38218 6.97309 1.47296 7.26457 1.64354 7.50911L1.97161 7.28025C1.84829 7.10348 1.78242 6.8924 1.78307 6.67589L1.38307 6.67469ZM1.38307 2.22099V6.67529H1.78307V2.22099H1.38307ZM1.80998 1.18617C1.53733 1.4608 1.38396 1.83266 1.38307 2.22053L1.78307 2.22145C1.78372 1.93845 1.89563 1.66764 2.09384 1.46799L1.80998 1.18617ZM2.83883 0.755523C2.45269 0.75642 2.08268 0.911278 1.80993 1.18622L2.0939 1.46793C2.292 1.26824 2.56026 1.15617 2.83976 1.15552L2.83883 0.755523ZM9.91097 0.755522H2.8393V1.15552H9.91097V0.755522ZM10.9403 1.18623C10.6676 0.911284 10.2977 0.756422 9.91143 0.755523L9.9105 1.15552C10.1902 1.15617 10.4583 1.26823 10.6564 1.46792L10.9403 1.18623ZM11.3672 2.22053C11.3663 1.83271 11.2131 1.46083 10.9402 1.18613L10.6565 1.46802C10.8548 1.66765 10.9665 1.93841 10.9672 2.22145L11.3672 2.22053ZM11.3672 5.65364V2.22099H10.9672V5.65364H11.3672ZM9.54365 5.85364H11.1672V5.45364H9.54365V5.85364ZM8.26863 6.46869C8.57987 6.07964 9.04869 5.85378 9.5437 5.85364L9.54359 5.45364C8.92641 5.45381 8.34298 5.73544 7.95628 6.2188L8.26863 6.46869ZM6.82432 6.22708C7.22206 6.43594 7.66421 6.54458 8.11283 6.54375L8.11208 6.14375C7.72858 6.14446 7.35051 6.05159 7.01028 5.87294L6.82432 6.22708ZM7.627 3.80458C7.58447 4.5868 7.28137 5.33144 6.76692 5.91815L7.06768 6.18187C7.6414 5.52756 7.97904 4.69762 8.02641 3.8263L7.627 3.80458ZM8.194 3.61544H7.8267V4.01544H8.194V3.61544ZM8.2856 3.52186C8.2856 3.57478 8.24326 3.61544 8.194 3.61544V4.01544C8.46666 4.01544 8.6856 3.7932 8.6856 3.52186H8.2856ZM8.194 3.42827C8.24326 3.42827 8.2856 3.46893 8.2856 3.52186H8.6856C8.6856 3.25051 8.46666 3.02827 8.194 3.02827V3.42827ZM6.67831 3.42827H8.194V3.02827H6.67831V3.42827ZM6.47831 2.30039V3.22827H6.87831V2.30039H6.47831ZM6.38672 2.20665C6.43599 2.20665 6.47831 2.24717 6.47831 2.30039H6.87831C6.87831 2.02903 6.65966 1.80665 6.38672 1.80665V2.20665ZM6.29528 2.30039C6.29528 2.2471 6.33767 2.20665 6.38672 2.20665V1.80665C6.11386 1.80665 5.89528 2.0291 5.89528 2.30039H6.29528ZM6.29528 3.21942V2.30039H5.89528V3.21942H6.29528ZM4.57668 3.41942H6.09528V3.01942H4.57668V3.41942ZM4.48509 3.51301C4.48509 3.46001 4.52734 3.41942 4.57668 3.41942V3.01942C4.3038 3.01942 4.08509 3.24173 4.08509 3.51301H4.48509ZM4.57668 3.60674C4.52748 3.60674 4.48509 3.56614 4.48509 3.51301H4.08509C4.08509 3.78415 4.30367 4.00674 4.57668 4.00674V3.60674ZM7.24088 3.60674H4.57668V4.00674H7.24088V3.60674ZM6.63641 5.77642C7.11255 5.23159 7.39529 4.54313 7.4405 3.81921L7.04127 3.79428C7.00155 4.43042 6.7531 5.03503 6.33522 5.5132L6.63641 5.77642ZM6.5765 5.83426L6.62312 5.79023L6.34851 5.49939L6.30189 5.54341L6.5765 5.83426ZM5.52256 4.62059C5.68809 5.07746 5.95334 5.49137 6.29892 5.8314L6.57946 5.54627C6.27661 5.24829 6.04391 4.88531 5.89863 4.48434L5.52256 4.62059ZM5.40532 4.57012C5.45162 4.55216 5.505 4.5748 5.52381 4.62394L5.89739 4.48098C5.80017 4.22693 5.51564 4.09828 5.26065 4.1972L5.40532 4.57012ZM5.35227 4.69258C5.33325 4.64273 5.35845 4.58832 5.40539 4.5701L5.26059 4.19722C5.00654 4.29588 4.88187 4.58186 4.97856 4.83521L5.35227 4.69258ZM6.10285 5.89993C5.77288 5.55508 5.51768 5.14491 5.35325 4.69521L4.97758 4.83257C5.16091 5.33397 5.44554 5.79157 5.81384 6.17647L6.10285 5.89993ZM4.5794 6.54642C5.08906 6.56152 5.59425 6.44801 6.04909 6.21643L5.8676 5.85997C5.47243 6.06117 5.03371 6.15971 4.59125 6.1466L4.5794 6.54642ZM4.49389 6.64025C4.49389 6.58704 4.53635 6.54651 4.58533 6.54651V6.14651C4.3124 6.14651 4.09389 6.36917 4.09389 6.64025H4.49389ZM4.58533 6.73383C4.53621 6.73383 4.49389 6.69331 4.49389 6.64025H4.09389C4.09389 6.91145 4.31254 7.13383 4.58533 7.13383V6.73383ZM6.33707 6.26748C5.81289 6.59117 5.20614 6.7533 4.59163 6.73393L4.57903 7.13373C5.27218 7.15558 5.95638 6.97268 6.54724 6.60781L6.33707 6.26748ZM7.82072 6.70231C7.36886 6.66328 6.93295 6.51472 6.5501 6.26927L6.33421 6.60602C6.7715 6.88636 7.26966 7.0562 7.7863 7.10082L7.82072 6.70231ZM7.90441 7.48905C7.90468 7.31125 7.93451 7.13481 7.99254 6.96689L7.61447 6.83625C7.54202 7.04592 7.50475 7.2663 7.50441 7.48843L7.90441 7.48905ZM7.90441 7.92044V7.48874H7.50441V7.92044H7.90441ZM6.66711 8.13796L7.70778 8.12041L7.70104 7.72047L6.66037 7.73802L6.66711 8.13796ZM17.6717 11.9615C17.6724 12.178 17.6064 12.3891 17.4831 12.566L17.8113 12.7947C17.9817 12.5502 18.0726 12.2588 18.0717 11.9603L17.6717 11.9615ZM17.672 7.50649L17.6717 11.9609L18.0717 11.9609L18.072 7.50652L17.672 7.50649ZM17.3613 6.75333C17.5595 6.953 17.6714 7.22395 17.6721 7.50696L18.072 7.50605C18.0712 7.1182 17.9178 6.7462 17.6451 6.47153L17.3613 6.75333ZM16.6152 6.44103C16.8949 6.44168 17.1632 6.55377 17.3613 6.75333L17.6452 6.47154C17.3724 6.19677 17.0024 6.04193 16.6161 6.04103L16.6152 6.44103ZM9.544 6.44103H16.6157V6.04103H9.544V6.44103ZM8.79839 6.75333C8.9965 6.55377 9.26478 6.44169 9.54446 6.44103L9.54353 6.04103C9.15725 6.04194 8.78727 6.19677 8.51451 6.47153L8.79839 6.75333ZM8.48761 7.50697C8.48826 7.22394 8.60019 6.95297 8.79838 6.75334L8.51452 6.47152C8.24185 6.74617 8.0885 7.1182 8.08761 7.50605L8.48761 7.50697ZM8.48761 11.9727V7.50651H8.08761V11.9727H8.48761ZM8.79841 12.7247C8.60026 12.5255 8.48826 12.2548 8.48761 11.9722L8.08761 11.9732C8.0885 12.3608 8.24209 12.7326 8.51481 13.0068L8.79841 12.7247ZM9.54399 13.0352C9.26471 13.0352 8.99653 12.9237 8.79837 12.7246L8.51485 13.0068C8.78781 13.2811 9.15791 13.4352 9.54399 13.4352V13.0352ZM14.7382 13.0352H9.54399V13.4352H14.7382V13.0352ZM15.1122 13.2086C15.0192 13.099 14.8826 13.0352 14.7382 13.0352V13.4352C14.7644 13.4352 14.7897 13.4468 14.8072 13.4674L15.1122 13.2086ZM15.2243 13.6073C15.247 13.464 15.2057 13.3181 15.1117 13.2081L14.8076 13.4679C14.8256 13.489 14.8336 13.5171 14.8292 13.5446L15.2243 13.6073ZM14.8139 15.4339C14.9856 14.8339 15.1225 14.2244 15.2241 13.6085L14.8294 13.5434C14.7303 14.1441 14.5968 14.7386 14.4293 15.3238L14.8139 15.4339ZM17.4408 12.6437C17.3549 12.8085 17.1967 13.0088 16.9806 13.2327C16.7667 13.4545 16.5049 13.6905 16.2214 13.927C15.6544 14.3998 15.0098 14.8665 14.5077 15.2145L14.7355 15.5433C15.242 15.1923 15.8975 14.7179 16.4776 14.2342C16.7676 13.9923 17.0411 13.7462 17.2685 13.5104C17.4939 13.2768 17.6832 13.044 17.7955 12.8286L17.4408 12.6437ZM17.4863 12.5616C17.4615 12.5953 17.4421 12.6326 17.4287 12.672L17.8076 12.8003C17.8078 12.7997 17.8081 12.7992 17.8082 12.7991L17.4863 12.5616ZM13.1698 7.51051C13.1739 7.51513 13.1776 7.52068 13.1808 7.52764L13.5447 7.36174C13.5254 7.3194 13.4999 7.27969 13.468 7.24401L13.1698 7.51051ZM13.2203 7.53209C13.172 7.5116 13.1442 7.47319 13.1313 7.44175C13.1254 7.42731 13.1225 7.41438 13.1209 7.40447C13.1201 7.39934 13.1196 7.39453 13.1193 7.3901C13.1192 7.38787 13.1191 7.38569 13.119 7.38356C13.119 7.38249 13.1189 7.38144 13.1189 7.38039C13.1189 7.37987 13.1189 7.37934 13.1189 7.37882C13.1189 7.37856 13.1189 7.3783 13.1189 7.37805C13.1189 7.37792 13.1189 7.37779 13.1189 7.37766C13.1189 7.37759 13.1189 7.3775 13.1189 7.37746C13.1189 7.37737 13.1189 7.37727 13.3189 7.37726C13.5189 7.37725 13.5189 7.37715 13.5189 7.37706C13.5189 7.37702 13.5189 7.37693 13.5189 7.37686C13.5189 7.37673 13.5189 7.3766 13.5189 7.37647C13.5189 7.3762 13.5189 7.37594 13.5189 7.37567C13.5189 7.37513 13.5189 7.37457 13.5189 7.37401C13.5189 7.37289 13.5188 7.37171 13.5188 7.37049C13.5187 7.36806 13.5186 7.36543 13.5184 7.36261C13.518 7.35702 13.5173 7.35053 13.5162 7.34334C13.5141 7.32929 13.5099 7.31066 13.5014 7.28999C13.4834 7.24607 13.4453 7.19301 13.3765 7.16384L13.2203 7.53209ZM13.1565 7.20704L13.1564 7.2072L13.4405 7.48873L13.4407 7.48857L13.1565 7.20704ZM13.1716 7.50346C13.1728 7.50409 13.1758 7.50583 13.1815 7.50998L13.4156 7.18564C13.4008 7.1749 13.3825 7.16269 13.3612 7.15123L13.1716 7.50346ZM13.1149 7.46448C13.1226 7.4684 13.129 7.47285 13.1342 7.47738L13.3987 7.17731C13.3669 7.1493 13.3321 7.12615 13.2958 7.10775L13.1149 7.46448ZM13.1768 7.4853C13.1801 7.485 13.1838 7.48498 13.1875 7.48531L13.2232 7.08691C13.1958 7.08446 13.1681 7.08444 13.1407 7.08693L13.1768 7.4853ZM13.1112 7.48564C13.1223 7.48488 13.1337 7.48487 13.1451 7.48565L13.1723 7.08658C13.1428 7.08457 13.1132 7.08456 13.0838 7.08658L13.1112 7.48564ZM13.0817 7.49161C13.0919 7.48839 13.1025 7.48633 13.1131 7.4855L13.0818 7.08673C13.041 7.08993 13.0006 7.09778 12.9616 7.11007L13.0817 7.49161ZM12.9896 7.50084H13.0216V7.10084H12.9896V7.50084ZM13.0411 7.50201C13.0502 7.49449 13.0602 7.48831 13.0708 7.48364L12.9085 7.11804C12.8645 7.13755 12.8234 7.16299 12.7864 7.19361L13.0411 7.50201ZM13.0101 7.52488L13.0306 7.51015L12.7969 7.18546L12.7765 7.20019L13.0101 7.52488ZM13.0364 7.50843L13.0598 7.47325L12.7267 7.25182L12.7033 7.28701L13.0364 7.50843ZM12.87 7.19772H12.8699V7.59772H12.87V7.19772ZM13.0048 7.55526C13.0111 7.54368 13.0186 7.53232 13.0273 7.52133L12.7128 7.27411C12.691 7.30187 12.6711 7.33174 12.6537 7.36357L13.0048 7.55526ZM11.2662 11.9379L13.0151 7.53322L12.6434 7.38561L10.8944 11.7903L11.2662 11.9379ZM11.2673 12.0104C11.2574 11.9873 11.2571 11.9611 11.2663 11.9376L10.8943 11.7906C10.8464 11.9119 10.8481 12.0475 10.8995 12.1677L11.2673 12.0104ZM11.3176 12.0599C11.2955 12.0511 11.2772 12.0336 11.2673 12.0104L10.8995 12.1677C10.9508 12.2877 11.0477 12.383 11.1696 12.4315L11.3176 12.0599ZM11.3481 12.0664C11.3391 12.0665 11.3294 12.0648 11.3199 12.0609L11.1673 12.4306C11.2261 12.4549 11.29 12.4674 11.3548 12.4663L11.3481 12.0664ZM11.4364 12.0079C11.4222 12.0439 11.3882 12.0664 11.3517 12.0664L11.3512 12.4664C11.5535 12.4666 11.7343 12.3424 11.8084 12.1549L11.4364 12.0079ZM11.9436 10.7248L11.4364 12.0079L11.8084 12.1549L12.3156 10.8718L11.9436 10.7248ZM14.068 10.5983H12.1296V10.9983H14.068V10.5983ZM14.7639 12.0075L14.2538 10.7244L13.8821 10.8722L14.3922 12.1553L14.7639 12.0075ZM14.5782 11.8814H14.5781V12.2814H14.5782V11.8814ZM14.8491 12.0664C14.8124 12.0664 14.7784 12.0439 14.7642 12.0079L14.3922 12.1549C14.4663 12.3425 14.6472 12.4666 14.8496 12.4664L14.8491 12.0664ZM14.8829 12.0601C14.8722 12.0644 14.8612 12.0664 14.8502 12.0664L14.8485 12.4664C14.9113 12.4666 14.9733 12.4547 15.0315 12.4314L14.8829 12.0601ZM14.9335 12.0104C14.9237 12.0334 14.9053 12.0511 14.8831 12.06L15.0313 12.4315C15.1529 12.383 15.2499 12.2878 15.3013 12.1677L14.9335 12.0104ZM14.9345 11.938C14.9437 11.9612 14.9434 11.9873 14.9335 12.0104L15.3013 12.1677C15.3527 12.0475 15.3545 11.9118 15.3062 11.7902L14.9345 11.938ZM13.1769 7.5186L14.9345 11.938L15.3062 11.7902L13.5486 7.37078L13.1769 7.5186ZM12.5366 10.2701L13.2742 8.41727L12.9025 8.26934L12.165 10.1221L12.5366 10.2701ZM13.8229 9.9961H12.3508V10.3961H13.8229V9.9961ZM12.9024 8.41702L13.637 10.2698L14.0089 10.1224L13.2743 8.26959L12.9024 8.41702Z" fill="#747E8B" mask="url(#path-11-outside-1_2509_299042)"/>
</g>
</g>
</g>
</g>
</g>
<path d="M-2648 -2586H18348V-2588H-2648V-2586ZM18349 -2585V31552H18351V-2585H18349ZM18348 31553H-2648V31555H18348V31553ZM-2649 31552V-2585H-2651V31552H-2649ZM-2648 31553C-2648.55 31553 -2649 31552.6 -2649 31552H-2651C-2651 31553.7 -2649.66 31555 -2648 31555V31553ZM18349 31552C18349 31552.6 18348.6 31553 18348 31553V31555C18349.7 31555 18351 31553.7 18351 31552H18349ZM18348 -2586C18348.6 -2586 18349 -2585.55 18349 -2585H18351C18351 -2586.66 18349.7 -2588 18348 -2588V-2586ZM-2648 -2588C-2649.66 -2588 -2651 -2586.66 -2651 -2585H-2649C-2649 -2585.55 -2648.55 -2586 -2648 -2586V-2588Z" fill="white" fill-opacity="0.1"/>
</g>
<defs>
<filter id="filter0_f_2509_299042" x="-329.191" y="-353.788" width="873.693" height="763.488" filterUnits="userSpaceOnUse" color-interpolation-filters="sRGB">
<feFlood flood-opacity="0" result="BackgroundImageFix"/>
<feBlend mode="normal" in="SourceGraphic" in2="BackgroundImageFix" result="shape"/>
<feGaussianBlur stdDeviation="47.398" result="effect1_foregroundBlur_2509_299042"/>
</filter>
<filter id="filter1_f_2509_299042" x="-239.386" y="-262.868" width="692.596" height="582.891" filterUnits="userSpaceOnUse" color-interpolation-filters="sRGB">
<feFlood flood-opacity="0" result="BackgroundImageFix"/>
<feBlend mode="normal" in="SourceGraphic" in2="BackgroundImageFix" result="shape"/>
<feGaussianBlur stdDeviation="3.11608" result="effect1_foregroundBlur_2509_299042"/>
</filter>
<filter id="filter2_f_2509_299042" x="-217.865" y="-154.138" width="766.863" height="749.482" filterUnits="userSpaceOnUse" color-interpolation-filters="sRGB">
<feFlood flood-opacity="0" result="BackgroundImageFix"/>
<feBlend mode="normal" in="SourceGraphic" in2="BackgroundImageFix" result="shape"/>
<feGaussianBlur stdDeviation="112.658" result="effect1_foregroundBlur_2509_299042"/>
</filter>
<filter id="filter3_f_2509_299042" x="-67.5242" y="-201.666" width="747.484" height="732.805" filterUnits="userSpaceOnUse" color-interpolation-filters="sRGB">
<feFlood flood-opacity="0" result="BackgroundImageFix"/>
<feBlend mode="normal" in="SourceGraphic" in2="BackgroundImageFix" result="shape"/>
<feGaussianBlur stdDeviation="119.849" result="effect1_foregroundBlur_2509_299042"/>
</filter>
<filter id="filter4_f_2509_299042" x="-494.202" y="-716.488" width="913.783" height="888.423" filterUnits="userSpaceOnUse" color-interpolation-filters="sRGB">
<feFlood flood-opacity="0" result="BackgroundImageFix"/>
<feBlend mode="normal" in="SourceGraphic" in2="BackgroundImageFix" result="shape"/>
<feGaussianBlur stdDeviation="112.658" result="effect1_foregroundBlur_2509_299042"/>
</filter>
<linearGradient id="paint0_linear_2509_299042" x1="-158.667" y1="23.0559" x2="166.864" y2="-192.457" gradientUnits="userSpaceOnUse">
<stop stop-color="#8D78FF"/>
<stop offset="0.230942" stop-color="#FFC42C"/>
<stop offset="1" stop-color="#8D78FF"/>
</linearGradient>
<linearGradient id="paint1_linear_2509_299042" x1="-157.377" y1="22.5243" x2="163.636" y2="-191.079" gradientUnits="userSpaceOnUse">
<stop stop-color="#9482F2" stop-opacity="0"/>
<stop offset="0.230942" stop-color="#FFC42C"/>
<stop offset="1" stop-color="#E7E2FF"/>
</linearGradient>
<clipPath id="clip0_2509_299042">
<rect width="360" height="764" fill="white" transform="translate(-278 -43)"/>
</clipPath>
</defs>
</svg>
