<svg width="20" height="20" viewBox="0 0 20 20" fill="none" xmlns="http://www.w3.org/2000/svg">
<path fill-rule="evenodd" clip-rule="evenodd" d="M4.06948 11.438H5.15396V16.0745H4.06948V18H3.08447V16.0745H2V11.438H3.08447V9.43032H4.06948V11.438ZM3.18233 14.87H3.97082V12.6425H3.18233V14.87Z" fill="#2A2A2A"/>
<path fill-rule="evenodd" clip-rule="evenodd" d="M10.1809 5.91455H11.2654V15.9027H10.1809V18H9.19507V15.9027H8.11059V5.91455H9.19507V4.00692H10.1809V5.91455ZM9.29373 14.6975H10.0822V7.11902H9.29373V14.6975Z" fill="#2A2A2A"/>
<path fill-rule="evenodd" clip-rule="evenodd" d="M16.9163 4.10783H18V12.409H16.9163V14.1831H15.9305V12.409H14.846V4.10783H15.9305V2H16.9163V4.10783ZM16.0292 11.2045H16.8177V5.31231H16.0292V11.2045Z" fill="#2A2A2A"/>
</svg>
