<svg width="20" height="20" viewBox="0 0 20 20" fill="none" xmlns="http://www.w3.org/2000/svg">
<path d="M13.1801 6.85917C13.18 5.10845 11.756 3.68925 10 3.68925C8.24415 3.68937 6.82077 5.10852 6.82065 6.85917V8.33536H5.62811V6.85917C5.62822 4.45185 7.58552 2.50036 10 2.50024C12.4146 2.50024 14.3726 4.45178 14.3727 6.85917V8.33536H13.1801V6.85917Z" fill="#2A2A2A"/>
<path d="M18 5.72705L17.0598 17.5002H2.94022L2 5.72705L18 5.72705ZM4.04115 16.3112H15.9581L16.7081 6.91606L3.29115 6.91606L4.04115 16.3112Z" fill="#2A2A2A"/>
<path d="M8.21118 13.7654H7.01863V10.1984H8.21118V13.7654Z" fill="#2A2A2A"/>
<path d="M12.9814 13.7654H11.7888V10.1984H12.9814V13.7654Z" fill="#2A2A2A"/>
<path d="M10.5963 13.7654H9.40373V10.1984H10.5963V13.7654Z" fill="#2A2A2A"/>
</svg>
