<svg width="20" height="20" viewBox="0 0 20 20" fill="none" xmlns="http://www.w3.org/2000/svg">
<path d="M12.4504 15.6573H7.65325V14.4537H12.4504V15.6573Z" fill="#2A2A2A"/>
<path d="M10.5646 12.0856L12.0174 10.8671L12.7158 11.8121L10 14.0924L9.65005 13.7994L7.28419 11.8121L7.98262 10.8671L9.43537 12.0864V8.40413H10.5646V12.0856Z" fill="#2A2A2A"/>
<path d="M11.0969 5.58779H8.90309V4.38415H11.0969V5.58779Z" fill="#2A2A2A"/>
<path fill-rule="evenodd" clip-rule="evenodd" d="M14.148 2.00899C14.9073 2.09104 15.5 2.77419 15.5 3.60522V17.1972C15.5 17.6125 15.2039 17.9545 14.8244 17.9957L14.7472 18.0004H5.25284L5.17564 17.9957C4.82138 17.9572 4.53958 17.6571 4.50368 17.2794L4.5 17.1979V3.60522C4.5 2.71889 5.17412 2.00037 6.00568 2.00037H13.9943L14.148 2.00899ZM6.00568 3.20401C5.79779 3.20401 5.62926 3.38364 5.62926 3.60522V16.7967H14.3707V3.60522C14.3707 3.38364 14.2022 3.20401 13.9943 3.20401H6.00568Z" fill="#2A2A2A"/>
</svg>
