<svg width="20" height="21" viewBox="0 0 20 21" fill="none" xmlns="http://www.w3.org/2000/svg">
<path fill-rule="evenodd" clip-rule="evenodd" d="M12.418 11.4016C13.4342 11.4016 14.2591 12.226 14.2594 13.2422C14.2594 14.2586 13.4344 15.0828 12.418 15.0828C11.4016 15.0826 10.5781 14.2585 10.5781 13.2422C10.5784 12.2261 11.4018 11.4018 12.418 11.4016ZM12.418 12.5828C12.0539 12.5831 11.7589 12.8781 11.7586 13.2422L11.7617 13.3094C11.7954 13.6422 12.0765 13.9021 12.418 13.9023C12.7823 13.9023 13.0781 13.6066 13.0781 13.2422L13.075 13.175C13.0411 12.8424 12.7595 12.5829 12.418 12.5828Z" fill="#2A2A2A"/>
<path d="M13.0703 7.12969L13.8203 7.82188L13.8789 7.87656L13.8242 7.93516L7.39062 14.8953L7.33672 14.9539L7.27734 14.9L6.52813 14.207L6.46953 14.1531L6.52344 14.0945L12.9578 7.13438L13.0117 7.075L13.0703 7.12969Z" fill="#2A2A2A"/>
<path fill-rule="evenodd" clip-rule="evenodd" d="M7.84609 6.98906C8.8624 6.98912 9.68728 7.81259 9.6875 8.82891C9.68743 9.84532 8.86252 10.6703 7.84609 10.6703C6.82978 10.6701 6.00632 9.84519 6.00625 8.82891C6.00647 7.81272 6.8299 6.98929 7.84609 6.98906ZM7.84609 8.16953C7.48199 8.16975 7.18694 8.4648 7.18672 8.82891C7.18678 9.19323 7.48196 9.48884 7.84609 9.48906C8.21042 9.489 8.50619 9.19327 8.50625 8.82891C8.50603 8.46476 8.2104 8.16959 7.84609 8.16953Z" fill="#2A2A2A"/>
<path fill-rule="evenodd" clip-rule="evenodd" d="M10 2.72656C14.4183 2.72656 18 6.30828 18 10.7266C18 15.1448 14.4183 18.7266 10 18.7266C5.58172 18.7266 2 15.1448 2 10.7266C2 6.30828 5.58172 2.72656 10 2.72656ZM10 3.92656C6.24446 3.92656 3.2 6.97103 3.2 10.7266C3.2 14.4821 6.24446 17.5266 10 17.5266C13.7555 17.5266 16.8 14.4821 16.8 10.7266C16.8 6.97103 13.7555 3.92656 10 3.92656Z" fill="#2A2A2A"/>
</svg>
