<svg width="20" height="20" viewBox="0 0 20 20" fill="none" xmlns="http://www.w3.org/2000/svg">
<path fill-rule="evenodd" clip-rule="evenodd" d="M10.4398 2C10.5556 2 10.6673 2.01294 10.7742 2.0375C14.8292 2.42693 18 5.84292 18 10C18 10.1476 17.9954 10.2942 17.9875 10.4398H18C18 10.5543 17.9868 10.6646 17.9625 10.7703C17.5992 14.5723 14.5757 17.5966 10.7742 17.9617C10.6672 17.9863 10.5557 18 10.4398 18V17.9875C10.2942 17.9954 10.1476 18 10 18C9.71633 18 9.4362 17.9843 9.16016 17.9555V18C8.93446 18 8.72543 17.9494 8.53359 17.8633C5.06429 17.2204 2.38062 14.3413 2.0375 10.7758C2.01303 10.6683 2 10.5561 2 10.4398H2.0125C2.00461 10.2942 2 10.1476 2 10C2 6.08161 4.81738 2.82278 8.53672 2.13516C8.72766 2.04989 8.93574 2 9.16016 2V2.04375C9.43618 2.01495 9.71636 2 10 2C10.1476 2 10.2942 2.00383 10.4398 2.01172V2ZM7.51875 13.4586C7.62873 14.021 7.7633 14.5365 7.91797 14.9891C8.13768 15.632 8.38555 16.1159 8.63281 16.4266C8.74776 16.571 8.84885 16.6601 8.93281 16.7156C9.28054 16.7704 9.63686 16.8 10 16.8C10.1866 16.8 10.3711 16.7897 10.5539 16.775C10.6544 16.7366 10.7947 16.6433 10.9672 16.4266C11.2145 16.1159 11.4623 15.632 11.682 14.9891C11.834 14.5445 11.9661 14.0391 12.075 13.4883C11.3814 13.5609 10.6569 13.6 9.92031 13.6C9.09006 13.6 8.28141 13.5502 7.51875 13.4586ZM16.3641 12.3969C16.0508 12.5529 15.7043 12.6942 15.3344 12.8188C14.7385 13.0194 14.0602 13.1861 13.3273 13.3141C13.1977 14.0706 13.0262 14.7681 12.818 15.3773C12.698 15.7285 12.5627 16.0579 12.4133 16.357C14.2325 15.666 15.6777 14.2183 16.3641 12.3969ZM3.64844 12.4289C4.27429 14.0645 5.51234 15.3966 7.08359 16.1438C6.97427 15.9037 6.87409 15.6467 6.78203 15.3773C6.56903 14.754 6.39309 14.0385 6.2625 13.2617C5.65077 13.1414 5.0846 12.992 4.58047 12.8172C4.24727 12.7016 3.93418 12.5717 3.64844 12.4289ZM9.92031 7.2C9.02224 7.20001 8.1645 7.26127 7.37969 7.37031C7.26457 8.18747 7.2 9.07707 7.2 10C7.2 10.7721 7.24523 11.5209 7.32734 12.2234C8.1305 12.3363 9.00672 12.4 9.92031 12.4C10.7346 12.4 11.5265 12.3487 12.268 12.2578C12.3527 11.5453 12.4 10.7847 12.4 10C12.4 9.06408 12.333 8.16252 12.2148 7.33594C11.4918 7.24844 10.7185 7.20002 9.92031 7.2ZM13.4516 7.53359C13.5475 8.31792 13.6 9.14925 13.6 10C13.6 10.7058 13.5638 11.3984 13.4969 12.0617C14.0281 11.9552 14.5178 11.8273 14.9516 11.6813C15.6053 11.4611 16.0995 11.2119 16.418 10.9633C16.6424 10.788 16.7375 10.6471 16.7758 10.5484C16.7902 10.3675 16.8 10.1847 16.8 10C16.8 9.71556 16.7808 9.43542 16.7469 9.16016H16.7203C16.7203 9.06874 16.6646 8.88584 16.3469 8.63281C16.0363 8.3856 15.5521 8.13765 14.9094 7.91797C14.4765 7.77004 13.9855 7.64086 13.4516 7.53359ZM6.14062 7.59453C5.73236 7.688 5.35555 7.79622 5.01641 7.91563C4.39538 8.13432 3.93335 8.38143 3.63828 8.62578C3.33903 8.87365 3.28047 9.05729 3.28047 9.16016H3.25313C3.21921 9.43542 3.2 9.71556 3.2 10C3.2 10.1876 3.20932 10.3733 3.22422 10.557C3.26222 10.6593 3.35481 10.7991 3.56563 10.9703C3.86844 11.2161 4.34148 11.4636 4.97344 11.6828C5.31316 11.8006 5.6897 11.9066 6.09609 11.9992C6.03321 11.3549 6 10.6836 6 10C6 9.17127 6.04938 8.36091 6.14062 7.59453ZM12.4133 3.64219C12.5628 3.94146 12.6979 4.27127 12.818 4.62266C12.9879 5.11986 13.1331 5.67614 13.2516 6.275C14.0013 6.40429 14.6931 6.57545 15.2977 6.78203C15.6057 6.88732 15.8968 7.00493 16.1656 7.13281C15.4206 5.5334 14.073 4.27251 12.4133 3.64219ZM7.08437 3.85469C5.6666 4.52854 4.51918 5.6789 3.84844 7.09844C4.08846 6.98438 4.34672 6.8799 4.61797 6.78438C5.13101 6.60374 5.70976 6.44971 6.3375 6.32734C6.45778 5.70847 6.60717 5.13435 6.78203 4.62266C6.8743 4.35269 6.97476 4.09517 7.08437 3.85469ZM10 3.2C9.6369 3.2 9.28051 3.22879 8.93281 3.28359C8.84878 3.33906 8.74793 3.42885 8.63281 3.57344C8.38557 3.88406 8.13767 4.36809 7.91797 5.01094C7.80165 5.35131 7.6965 5.72735 7.60469 6.13203C8.33946 6.04621 9.11854 6.00001 9.92031 6C10.6284 6.00001 11.323 6.03581 11.9883 6.10313C11.898 5.70948 11.7956 5.34316 11.682 5.01094C11.4623 4.36809 11.2144 3.88406 10.9672 3.57344C10.7941 3.35607 10.6537 3.26233 10.5531 3.22422C10.3706 3.20952 10.1863 3.2 10 3.2Z" fill="#2A2A2A"/>
</svg>
