<svg width="20" height="20" viewBox="0 0 20 20" fill="none" xmlns="http://www.w3.org/2000/svg">
<path fill-rule="evenodd" clip-rule="evenodd" d="M10.4279 3.60175L16.9884 6.50684V9.80051H15.8061V12.4148H17.0266V15.2694H18V16.5H2V15.2694H3.10745V12.4148H4.38558V9.80051H2.9734V6.49643L10.1987 3.5L10.4279 3.60175ZM4.30453 15.2694H15.8295V13.6454H4.30453V15.2694ZM5.58266 12.4148H6.92236V9.80211H5.58266V12.4148ZM8.11944 12.4148H9.49732V9.80211H8.11944V12.4148ZM10.6944 12.4148H12.0146V9.80211H10.6944V12.4148ZM13.2117 12.4148H14.6091V9.80211H13.2117V12.4148ZM4.17048 7.32645V8.56989H5.23195V8.57149H15.093V8.56989H15.7913V7.31684L10.1831 4.83237L4.17048 7.32645Z" fill="#2A2A2A"/>
</svg>
