<svg width="20" height="20" viewBox="0 0 20 20" fill="none" xmlns="http://www.w3.org/2000/svg">
<path fill-rule="evenodd" clip-rule="evenodd" d="M10 2C14.4186 2 18 5.58143 18 10C18 14.4186 14.4186 18 10 18C5.58143 18 2 14.4186 2 10C2 5.58143 5.58143 2 10 2ZM5.67188 15.2453C6.84766 16.2166 8.35566 16.8 10 16.8C11.6119 16.8 13.0917 16.2379 14.257 15.3008L12.1664 13.1758C11.5493 13.5975 10.8039 13.8453 10 13.8453C9.18119 13.8453 8.42283 13.5885 7.79922 13.1523L5.67188 15.2453ZM13.1961 7.8625C13.6057 8.47383 13.8453 9.20878 13.8453 10C13.8453 10.8866 13.5439 11.7019 13.0398 12.3523L15.1219 14.4695C16.1658 13.2742 16.8 11.7118 16.8 10C16.8 8.40222 16.248 6.93405 15.3258 5.77344L13.1961 7.8625ZM4.78047 5.64141C3.79392 6.82159 3.2 8.34131 3.2 10C3.2 11.6792 3.80943 13.2153 4.81797 14.4016L6.93438 12.3203C6.44546 11.6753 6.15469 10.8718 6.15469 10C6.15469 9.16649 6.42054 8.39546 6.87109 7.76562L4.78047 5.64141ZM10 7.35469C8.53891 7.35469 7.35469 8.53891 7.35469 10C7.35469 11.4611 8.53891 12.6453 10 12.6453C11.4611 12.6453 12.6453 11.4611 12.6453 10C12.6453 8.53891 11.4611 7.35469 10 7.35469ZM10 3.2C8.33513 3.2 6.81016 3.79825 5.62812 4.79141L7.71172 6.90938C8.35112 6.43521 9.14276 6.15469 10 6.15469C10.8996 6.15469 11.7263 6.46454 12.3813 6.98203L14.4992 4.90313C13.3002 3.84395 11.7258 3.2 10 3.2Z" fill="#2A2A2A"/>
</svg>
