<svg width="16" height="16" viewBox="0 0 16 16" fill="none" xmlns="http://www.w3.org/2000/svg">
<path d="M11.2821 5.87814C11.2821 6.58108 10.731 7.15092 10.0513 7.15092C9.37157 7.15092 8.82054 6.58108 8.82054 5.87814C8.82054 5.1752 9.37157 4.60535 10.0513 4.60535C10.731 4.60535 11.2821 5.1752 11.2821 5.87814Z" fill="white"/>
<path fill-rule="evenodd" clip-rule="evenodd" d="M14.8422 1.39953L1.20753 15.4996L0.337336 14.5997L2.89263 11.9564C2.46715 11.6145 2.09497 11.2502 1.77484 10.885C1.1578 10.1808 0.726652 9.47796 0.449515 8.95091C0.310844 8.68716 0.209996 8.4653 0.142624 8.30706C0.108953 8.22795 0.0831035 8.16408 0.065701 8.11896C0.0570441 8.09651 0.0504744 8.07818 0.045669 8.0651C0.0433403 8.05876 0.0414933 8.05335 0.04006 8.04935C0.0393741 8.04744 0.0381814 8.04572 0.0376562 8.04438V8.04272L0.0368549 8.04189C0.036742 8.04157 0.0368994 8.04082 0.615381 7.82396C0.0724773 7.6059 0.043135 7.59372 0.0416626 7.59277L0.0424639 7.59194L0.0432651 7.59029C0.0437597 7.58899 0.04419 7.58713 0.0448677 7.58532C0.046375 7.5814 0.0488342 7.57577 0.051278 7.56957C0.0561792 7.55713 0.0626608 7.53997 0.07131 7.51902C0.0889725 7.47627 0.115071 7.41618 0.149034 7.3417C0.217037 7.19258 0.318759 6.98375 0.458329 6.73596C0.737208 6.24093 1.17033 5.58211 1.78926 4.9229C3.03451 3.59666 5.0323 2.27209 8 2.27209C9.37256 2.27209 10.5364 2.57568 11.5144 3.04024L13.972 0.499634L14.8422 1.39953ZM8 3.54488C5.42928 3.54488 3.73472 4.67801 2.67227 5.80954C2.13748 6.37914 1.76276 6.94991 1.52243 7.3765C1.41854 7.56093 1.34053 7.71763 1.28605 7.83391C1.34136 7.96128 1.42246 8.13578 1.53125 8.34269C1.77332 8.80306 2.1501 9.41743 2.6867 10.0298C2.99398 10.3804 3.35448 10.728 3.77083 11.0482L5.27965 9.48704C5.05204 9.04323 4.92311 8.53705 4.92308 7.99963C4.92308 6.24228 6.30066 4.81767 8 4.81767C8.51972 4.81767 9.00911 4.95102 9.4383 5.18641L10.5737 4.01306C9.83408 3.72442 8.98117 3.54488 8 3.54488ZM8 6.09045C6.9804 6.09045 6.15385 6.94522 6.15385 7.99963C6.15386 8.17745 6.17786 8.34938 6.22195 8.51256L8.49599 6.16089C8.33818 6.1153 8.17197 6.09045 8 6.09045ZM0.615381 7.82396L0.0368549 8.04189C-0.0138801 7.89716 -0.0121915 7.73629 0.0416626 7.59277L0.615381 7.82396Z" fill="#2A2A2A"/>
<path d="M13.5545 4.42738C13.7986 4.65286 14.0226 4.88319 14.2252 5.11432C14.8422 5.81846 15.2734 6.52132 15.5505 7.04836C15.6892 7.31213 15.79 7.53398 15.8574 7.69221C15.8911 7.77134 15.9169 7.83521 15.9343 7.88031C15.943 7.90278 15.9495 7.92111 15.9543 7.93417C15.9567 7.94052 15.9585 7.94593 15.9599 7.94992C15.9607 7.95183 15.9619 7.95355 15.9623 7.95489V7.95654L15.9631 7.95737C15.9617 7.9583 15.9324 7.96996 15.3846 8.17531L15.9583 8.4065L15.9575 8.40732L15.9567 8.40898C15.9563 8.4103 15.9558 8.41216 15.9551 8.41395C15.9536 8.4179 15.9512 8.42352 15.9487 8.4297C15.9438 8.44216 15.9373 8.45932 15.9287 8.48024C15.911 8.52302 15.8849 8.58311 15.851 8.65757C15.7829 8.8067 15.6812 9.01555 15.5417 9.26331C15.2628 9.75835 14.8297 10.4172 14.2107 11.0764C12.9655 12.4026 10.9676 13.7272 8 13.7272C6.88902 13.7272 5.91417 13.5291 5.0641 13.2076L6.04647 12.1917C6.63326 12.3557 7.28209 12.4544 8 12.4544C10.5706 12.4544 12.2653 11.3212 13.3277 10.1897C13.8625 9.62016 14.2372 9.04936 14.4776 8.62277C14.5816 8.43817 14.6587 8.28086 14.7131 8.16453C14.6579 8.03727 14.5773 7.86297 14.4688 7.65658C14.2267 7.19622 13.8499 6.58187 13.3133 5.96947C13.1236 5.75302 12.9139 5.53713 12.6835 5.32811L13.5545 4.42738Z" fill="#2A2A2A"/>
<path d="M10.9551 7.11548C11.0335 7.39624 11.0769 7.69276 11.0769 7.99963C11.0768 9.75689 9.69927 11.1816 8 11.1816C7.70321 11.1816 7.41657 11.1367 7.14503 11.0556L8.27805 9.88396C9.07459 9.75931 9.7015 9.11088 9.82212 8.28717L10.9551 7.11548Z" fill="#2A2A2A"/>
<path d="M15.9631 7.95737C16.0138 8.10212 16.0122 8.26299 15.9583 8.4065L15.3846 8.17531L15.9631 7.95737Z" fill="#2A2A2A"/>
</svg>
