<svg width="20" height="20" viewBox="0 0 20 20" fill="none" xmlns="http://www.w3.org/2000/svg">
<path d="M13.2821 7.87814C13.2821 8.58108 12.731 9.15092 12.0513 9.15092C11.3716 9.15092 10.8205 8.58108 10.8205 7.87814C10.8205 7.1752 11.3716 6.60535 12.0513 6.60535C12.731 6.60535 13.2821 7.1752 13.2821 7.87814Z" fill="white"/>
<path fill-rule="evenodd" clip-rule="evenodd" d="M16.8422 3.39953L3.20753 17.4996L2.33734 16.5997L4.89263 13.9564C4.46715 13.6145 4.09497 13.2502 3.77484 12.885C3.1578 12.1808 2.72665 11.478 2.44952 10.9509C2.31084 10.6872 2.21 10.4653 2.14262 10.3071C2.10895 10.228 2.0831 10.1641 2.0657 10.119C2.05704 10.0965 2.05047 10.0782 2.04567 10.0651C2.04334 10.0588 2.04149 10.0534 2.04006 10.0494C2.03937 10.0474 2.03818 10.0457 2.03766 10.0444V10.0427L2.03685 10.0419C2.03674 10.0416 2.0369 10.0408 2.61538 9.82396C2.07248 9.6059 2.04314 9.59372 2.04166 9.59277L2.04246 9.59194L2.04327 9.59029C2.04376 9.58899 2.04419 9.58713 2.04487 9.58532C2.04638 9.5814 2.04883 9.57577 2.05128 9.56957C2.05618 9.55713 2.06266 9.53997 2.07131 9.51902C2.08897 9.47627 2.11507 9.41618 2.14903 9.3417C2.21704 9.19258 2.31876 8.98375 2.45833 8.73596C2.73721 8.24093 3.17033 7.58211 3.78926 6.9229C5.03451 5.59666 7.0323 4.27209 10 4.27209C11.3726 4.27209 12.5364 4.57568 13.5144 5.04024L15.972 2.49963L16.8422 3.39953ZM10 5.54488C7.42928 5.54488 5.73472 6.67801 4.67227 7.80954C4.13748 8.37914 3.76276 8.94991 3.52243 9.3765C3.41854 9.56093 3.34053 9.71763 3.28605 9.83391C3.34136 9.96128 3.42246 10.1358 3.53125 10.3427C3.77332 10.8031 4.1501 11.4174 4.6867 12.0298C4.99398 12.3804 5.35448 12.728 5.77083 13.0482L7.27965 11.487C7.05204 11.0432 6.92311 10.5371 6.92308 9.99963C6.92308 8.24228 8.30066 6.81767 10 6.81767C10.5197 6.81767 11.0091 6.95102 11.4383 7.18641L12.5737 6.01306C11.8341 5.72442 10.9812 5.54488 10 5.54488ZM10 8.09045C8.9804 8.09045 8.15385 8.94522 8.15385 9.99963C8.15386 10.1775 8.17786 10.3494 8.22195 10.5126L10.496 8.16089C10.3382 8.1153 10.172 8.09045 10 8.09045ZM2.61538 9.82396L2.03685 10.0419C1.98612 9.89716 1.98781 9.73629 2.04166 9.59277L2.61538 9.82396Z" fill="#2A2A2A"/>
<path d="M15.5545 6.42738C15.7986 6.65286 16.0226 6.88319 16.2252 7.11432C16.8422 7.81846 17.2734 8.52132 17.5505 9.04836C17.6892 9.31213 17.79 9.53398 17.8574 9.69221C17.8911 9.77134 17.9169 9.83521 17.9343 9.88031C17.943 9.90278 17.9495 9.92111 17.9543 9.93417C17.9567 9.94052 17.9585 9.94593 17.9599 9.94992C17.9607 9.95183 17.9619 9.95355 17.9623 9.95489V9.95654L17.9631 9.95737C17.9617 9.9583 17.9324 9.96996 17.3846 10.1753L17.9583 10.4065L17.9575 10.4073L17.9567 10.409C17.9563 10.4103 17.9558 10.4122 17.9551 10.414C17.9536 10.4179 17.9512 10.4235 17.9487 10.4297C17.9438 10.4422 17.9373 10.4593 17.9287 10.4802C17.911 10.523 17.8849 10.5831 17.851 10.6576C17.7829 10.8067 17.6812 11.0155 17.5417 11.2633C17.2628 11.7583 16.8297 12.4172 16.2107 13.0764C14.9655 14.4026 12.9676 15.7272 10 15.7272C8.88902 15.7272 7.91417 15.5291 7.0641 15.2076L8.04647 14.1917C8.63326 14.3557 9.28209 14.4544 10 14.4544C12.5706 14.4544 14.2653 13.3212 15.3277 12.1897C15.8625 11.6202 16.2372 11.0494 16.4776 10.6228C16.5816 10.4382 16.6587 10.2809 16.7131 10.1645C16.6579 10.0373 16.5773 9.86297 16.4688 9.65658C16.2267 9.19622 15.8499 8.58187 15.3133 7.96947C15.1236 7.75302 14.9139 7.53713 14.6835 7.32811L15.5545 6.42738Z" fill="#2A2A2A"/>
<path d="M12.9551 9.11548C13.0335 9.39624 13.0769 9.69276 13.0769 9.99963C13.0768 11.7569 11.6993 13.1816 10 13.1816C9.70321 13.1816 9.41657 13.1367 9.14503 13.0556L10.278 11.884C11.0746 11.7593 11.7015 11.1109 11.8221 10.2872L12.9551 9.11548Z" fill="#2A2A2A"/>
<path d="M17.9631 9.95737C18.0138 10.1021 18.0122 10.263 17.9583 10.4065L17.3846 10.1753L17.9631 9.95737Z" fill="#2A2A2A"/>
</svg>
