<svg width="20" height="20" viewBox="0 0 20 20" fill="none" xmlns="http://www.w3.org/2000/svg">
<path d="M12.5253 17.5101C12.0945 17.7991 11.8351 17.9063 11.2994 18V10.4051L12.5253 9.6683V17.5101Z" fill="#2A2A2A"/>
<path fill-rule="evenodd" clip-rule="evenodd" d="M9.95673 2C14.4248 2.00028 18.0478 5.59788 18.0479 10.0362C18.0479 13.0017 16.4301 15.5915 14.0267 16.9836L13.7173 16.458L13.4088 15.9315C15.4508 14.7488 16.821 12.5508 16.821 10.0362C16.8209 6.27085 13.7473 3.21801 9.95673 3.21773C7.01708 3.21794 3.86276 5.23621 3.36802 8.40595L7.03573 9.92414L11.0968 6.76975L10.0695 5.49154L13.5136 5.59368L12.8538 8.95333L11.8625 7.72172L7.50892 11.1042L7.22641 11.3243L6.89498 11.1865L3.25821 9.6802C3.23387 10.319 3.30107 10.9413 3.44489 11.5355L7.07067 13.0894L10.1314 11.0576L10.1324 17.999L9.47056 17.9474C6.37068 17.7055 3.8188 15.7524 2.67521 13.0964C2.18576 11.9593 1.98036 10.6713 2.06725 9.18736L2.06027 9.18438L2.09321 8.74509C2.41715 4.52435 6.42948 2.00022 9.95673 2ZM4.04686 13.1202C5.01036 14.932 6.77306 16.2745 8.90553 16.6484V13.3383L7.19746 14.4708L4.04686 13.1202Z" fill="#2A2A2A"/>
</svg>
