<svg width="20" height="20" viewBox="0 0 20 20" fill="none" xmlns="http://www.w3.org/2000/svg">
<path d="M9.43367 18H10.5583V16.2817H9.43367V18Z" fill="#2A2A2A"/>
<path d="M14.0419 14.8423L15.2566 16.0569L16.0517 15.2618L14.837 14.0465L14.0419 14.8423Z" fill="#2A2A2A"/>
<path d="M3.94829 15.2618L4.74342 16.0569L5.95808 14.8416L5.16295 14.0465L3.94829 15.2618Z" fill="#2A2A2A"/>
<path fill-rule="evenodd" clip-rule="evenodd" d="M10.0253 4.70815C7.05782 4.70835 4.6521 7.11397 4.6519 10.0813C4.6519 13.0487 7.0577 15.4549 10.0253 15.4551C12.993 15.4551 15.3994 13.0489 15.3994 10.0813C15.3992 7.11385 12.9929 4.70815 10.0253 4.70815ZM10.0253 5.83271C12.3718 5.83271 14.2745 7.73492 14.2747 10.0813C14.2747 12.4278 12.3719 14.3306 10.0253 14.3306C7.67881 14.3304 5.77651 12.4277 5.77651 10.0813C5.7767 7.73504 7.67893 5.83291 10.0253 5.83271Z" fill="#2A2A2A"/>
<path d="M16.2816 10.5659H18V9.44138H16.2816V10.5659Z" fill="#2A2A2A"/>
<path d="M2 10.5659H3.71839V9.44138H2V10.5659Z" fill="#2A2A2A"/>
<path d="M14.047 5.16354L14.8422 5.95863L16.0576 4.7433L15.2617 3.9482L14.047 5.16354Z" fill="#2A2A2A"/>
<path d="M3.94243 4.7433L5.15783 5.95863L5.95296 5.16354L4.73756 3.9482L3.94243 4.7433Z" fill="#2A2A2A"/>
<path d="M9.43367 3.71831H10.5583V2H9.43367V3.71831Z" fill="#2A2A2A"/>
</svg>
