<svg width="20" height="20" viewBox="0 0 20 20" fill="none" xmlns="http://www.w3.org/2000/svg">
<path d="M11.9323 4.37735H11.4631C11.4872 4.42754 11.5077 4.47986 11.5223 4.53509H11.9323V5.02925H11.5158C11.4142 5.37128 11.1185 5.62436 10.7615 5.65125L11.6197 6.31586L11.6493 6.33903L11.6277 6.36969L11.3859 6.70461L11.3642 6.73526L11.3346 6.71208L10.2216 5.85085L10.1401 5.78806L10.1256 5.77684V5.16008H10.6987C10.8104 5.16006 10.9103 5.10931 10.9795 5.02925H10.1184V4.53509H11.0012C10.9432 4.45447 10.8565 4.39776 10.7565 4.38183L10.7038 4.37735H10.1249V3.88244H11.9323V4.37735Z" fill="#2A2A2A"/>
<path fill-rule="evenodd" clip-rule="evenodd" d="M10.999 2C12.5953 2.00005 13.886 3.36583 13.8862 5.0457C13.8862 5.33337 13.8472 5.61153 13.7765 5.87553C15.6719 6.86526 16.9999 8.7118 17 10.8837C17 12.3561 16.3794 13.7441 15.2872 14.8055L14.5986 17.5694L14.4918 18H11.8947L11.5873 16.5998C10.898 16.702 10.1898 16.704 9.49332 16.6057L9.24575 17.5731L9.13603 17.9993H6.55995L6.4625 17.5507L5.90239 14.9551C5.27002 14.3829 4.76916 13.6872 4.44797 12.9253L3.00077 12.6495L3.00005 12.1718V9.41239C3.00005 9.23488 2.99972 9.28586 3.00077 9.16793L3.0051 8.67601L4.63997 8.42856C4.91127 7.91075 5.26511 7.43521 5.69163 7.01112C5.60881 6.44037 5.27081 5.90702 4.93879 5.51519C4.60533 5.12167 4.86262 4.44361 5.42817 4.48052C6.12885 4.52662 7.22211 4.7411 8.08077 5.57499L8.15367 5.56079C8.12659 5.39328 8.11181 5.22126 8.11181 5.0457C8.112 3.36606 9.40302 2.00042 10.999 2ZM6.49787 5.87926C6.63456 6.177 6.74275 6.50729 6.79164 6.86235L6.81185 7.04551L6.82268 7.19204L6.84433 7.47164L6.54046 7.76021C6.12427 8.15605 5.79647 8.60032 5.5617 9.07896L5.3661 9.47967L5.08099 9.52304L4.10873 9.66956V11.6926L4.94312 11.8518L5.24267 11.9086L5.41734 12.3579L5.41806 12.3587C5.64198 12.9347 6.00418 13.4808 6.47766 13.9473L6.6877 14.1424L6.68843 14.1432L6.76349 14.2097L6.90496 14.3338L7.44775 16.8509H8.28359L8.55066 15.8103L8.6813 15.3034L9.18006 15.3916L9.4428 15.4387C10.1722 15.5661 10.9217 15.5618 11.6392 15.4298L12.4361 15.2825L12.7797 16.8517H13.6328L14.2543 14.357L14.2954 14.1925L14.4167 14.0774L14.4802 14.0168L14.6484 13.8501C15.462 13.0047 15.8913 11.9581 15.8913 10.8837C15.8912 9.23475 14.876 7.73509 13.2849 6.90421C13.1158 7.13556 12.916 7.34022 12.6916 7.51201C12.9534 7.60213 13.1611 7.69261 13.2885 7.75423L13.487 7.84992L13.3621 8.03682C13.3136 8.10924 13.2912 8.14006 13.2712 8.1684C13.253 8.19419 13.2348 8.22 13.1918 8.28726C13.1039 8.4247 13.1517 8.35358 13.0583 8.5093L12.9745 8.6476L12.8295 8.58406C12.5496 8.46227 11.7538 8.19162 10.9997 8.19157C10.2431 8.19157 9.44421 8.45559 9.16707 8.57658L9.0256 8.63863L8.94115 8.50481C8.89991 8.43972 8.88685 8.41774 8.8733 8.39417C8.86269 8.3757 8.85068 8.35475 8.80762 8.28726L8.80834 8.28652C8.71562 8.14243 8.72425 8.14923 8.6813 8.0727L8.57953 7.89179L8.76214 7.80282C8.8871 7.74222 9.08978 7.64348 9.34752 7.54341C9.02697 7.30692 8.75416 7.00392 8.54705 6.65302L8.00137 6.75843L7.71554 6.81301L7.37558 6.46313L7.37485 6.46239C7.11406 6.19341 6.80915 6.00721 6.49787 5.87926ZM10.999 2.93374C9.89739 2.93414 9.00053 3.87724 9.00034 5.0457C9.00034 6.21435 9.8973 7.15875 10.999 7.15914C12.101 7.1591 12.9984 6.21455 12.9984 5.0457C12.9982 3.87704 12.1009 2.93379 10.999 2.93374Z" fill="#2A2A2A"/>
</svg>
