<svg width="20" height="20" viewBox="0 0 20 20" fill="none" xmlns="http://www.w3.org/2000/svg">
<path d="M9.10885 11.9248C10.1553 11.9222 11.159 12.1453 12.0321 12.6281L12.5637 12.9216L11.9751 13.9849L11.4435 13.6914C10.7781 13.3234 9.98378 13.1368 9.10964 13.1392H9.10648C8.0825 13.1363 7.16996 13.3913 6.44351 13.894C5.82143 14.3244 5.30892 14.9554 4.97674 15.8227C6.1802 16.5064 7.57864 16.7888 9.10648 16.7848L9.71407 16.7832L9.71724 17.9984L9.10964 18C7.24937 18.0049 5.45431 17.624 3.91029 16.5933L3.54004 16.3465L3.66346 15.9193C4.05057 14.5787 4.78143 13.5664 5.75206 12.8947C6.71685 12.2271 7.88182 11.9219 9.10648 11.9248L9.10964 11.924L9.10885 11.9248Z" fill="#2A2A2A"/>
<path d="M16.4482 14.5569L13.5883 17.4169C13.3698 17.6353 13.0223 17.6551 12.7805 17.4628L11.1603 16.174L11.9166 15.2231L13.112 16.174L15.5891 13.6978L16.4482 14.5569Z" fill="#2A2A2A"/>
<path fill-rule="evenodd" clip-rule="evenodd" d="M9.04398 2C11.3563 2 13.2323 3.87469 13.2323 6.18828C13.2322 8.5018 11.3562 10.3766 9.04398 10.3766C6.73084 10.3765 4.85499 8.50188 4.85491 6.18828C4.85491 3.87461 6.73079 2.00006 9.04398 2ZM9.04398 3.21519C7.40145 3.21525 6.07009 4.54621 6.07009 6.18828C6.07018 7.83028 7.4015 9.16131 9.04398 9.16137C10.6853 9.16137 12.017 7.83043 12.0171 6.18828C12.0171 4.54605 10.6854 3.21519 9.04398 3.21519Z" fill="#2A2A2A"/>
</svg>
