<svg width="20" height="20" viewBox="0 0 20 20" fill="none" xmlns="http://www.w3.org/2000/svg">
<path d="M16.6279 3.37258C18.458 5.20269 18.458 8.16989 16.6279 10L14.6397 11.9882C14.5994 12.0285 14.5575 12.0668 14.5161 12.1054C14.6562 11.4578 14.6512 10.7854 14.4999 10.1398L15.6338 9.00589C16.9149 7.72481 16.9149 5.64777 15.6338 4.3667C14.3527 3.08562 12.2757 3.08562 10.9946 4.3667L9.00638 6.35492C7.7253 7.636 7.7253 9.71304 9.00638 10.9941C9.43052 11.4183 9.94244 11.7 10.4833 11.8433C10.3781 12.302 10.1657 12.7408 9.84581 13.1202C9.17577 12.8977 8.54549 12.5214 8.01226 11.9882C6.23924 10.2152 6.18418 7.37516 7.84658 5.53555L8.01226 5.36081L10.0005 3.37258C11.8306 1.54247 14.7978 1.54247 16.6279 3.37258Z" fill="#2A2A2A"/>
<path d="M13.2022 11.3637C13.157 12.0413 12.8888 12.7062 12.3926 13.2373C12.0617 13.3144 11.7242 13.354 11.3862 13.3584C11.6463 12.9009 11.8189 12.4077 11.9039 11.9021C12.3622 11.8205 12.8056 11.6411 13.2022 11.3637Z" fill="#2A2A2A"/>
<path d="M3.37307 16.6274C1.54296 14.7973 1.54296 11.8301 3.37307 10L5.3613 8.01177C5.40161 7.97146 5.44352 7.93317 5.48491 7.89463C5.34478 8.5422 5.3498 9.21464 5.50109 9.8602L4.36718 10.9941C3.08611 12.2752 3.08611 14.3522 4.36718 15.6333C5.64826 16.9144 7.7253 16.9144 9.00638 15.6333L10.9946 13.6451C12.2757 12.364 12.2757 10.287 10.9946 9.00589C10.5705 8.58175 10.0585 8.30004 9.51767 8.15675C9.62285 7.69799 9.83529 7.25923 10.1552 6.87981C10.8252 7.10231 11.4555 7.47855 11.9887 8.01177C13.7617 9.78479 13.8168 12.6248 12.1544 14.4644L11.9887 14.6392L10.0005 16.6274C8.17038 18.4575 5.20318 18.4575 3.37307 16.6274Z" fill="#2A2A2A"/>
<path d="M6.79875 8.63633C6.84397 7.95872 7.11217 7.29379 7.6084 6.76266C7.93933 6.68564 8.27677 6.64595 8.61481 6.64163C8.35466 7.09906 8.18212 7.5923 8.09705 8.09785C7.63878 8.1795 7.19535 8.35893 6.79875 8.63633Z" fill="#2A2A2A"/>
</svg>
