<svg width="20" height="20" viewBox="0 0 20 20" fill="none" xmlns="http://www.w3.org/2000/svg">
<path fill-rule="evenodd" clip-rule="evenodd" d="M10.0027 6.50361C11.9697 6.50361 13.5642 8.06899 13.5642 10C13.5642 11.931 11.9697 13.4964 10.0027 13.4964C8.03582 13.4964 6.44131 11.931 6.44126 10C6.44128 8.069 8.0358 6.50363 10.0027 6.50361ZM10.0027 7.68549C8.70068 7.6855 7.64516 8.72174 7.64514 10C7.64519 11.2782 8.7007 12.3145 10.0027 12.3145C11.3048 12.3145 12.3603 11.2782 12.3603 10C12.3603 8.72173 11.3048 7.68549 10.0027 7.68549Z" fill="#2A2A2A"/>
<path fill-rule="evenodd" clip-rule="evenodd" d="M16.1178 4.39685L16.059 4.79311L15.7752 6.72829L18.002 7.60315V12.3968L15.7745 13.2717L16.1162 15.6032L11.8877 18L11.5672 17.753L10.002 16.5434L8.11776 18L3.8885 15.6032L4.22944 13.2717L2.00195 12.3968V7.60315L2.38052 7.45465L4.22866 6.72752L3.88772 4.39685L8.11619 2L8.43675 2.24699L10.002 3.45657L11.5679 2.24699L11.8885 2L16.1178 4.39685ZM10.0027 4.96085L8.01195 3.42349L5.19506 5.0201L5.55638 7.48004L5.11668 7.65317L3.20583 8.40262V11.5966L5.55716 12.52L5.19584 14.9791L8.01273 16.5757L10.0027 15.0399L11.9912 16.5757L14.8081 14.9791L14.5157 12.9801L14.4475 12.52L16.7981 11.5966V8.40262L14.4483 7.48081L14.5165 7.02068L14.8096 5.0201L11.992 3.42349L10.0027 4.96085Z" fill="#2A2A2A"/>
</svg>
