<svg width="16" height="12" viewBox="0 0 16 12" fill="none" xmlns="http://www.w3.org/2000/svg">
<path fill-rule="evenodd" clip-rule="evenodd" d="M8 2.94444C9.69933 2.94444 11.0769 4.31246 11.0769 6C11.0769 7.68754 9.69933 9.05556 8 9.05556C6.30068 9.05554 4.92309 7.68753 4.92309 6C4.92309 4.31247 6.30068 2.94446 8 2.94444ZM8 4.16667C6.98041 4.16668 6.15385 4.98749 6.15385 6C6.15385 7.01251 6.98041 7.83332 8 7.83333C9.0196 7.83333 9.84615 7.01252 9.84615 6C9.84615 4.98748 9.0196 4.16667 8 4.16667Z" fill="#2A2A2A"/>
<path fill-rule="evenodd" clip-rule="evenodd" d="M8 0.5C10.9833 0.5 12.9849 1.8703 14.2251 3.22931C14.8422 3.90551 15.2733 4.58039 15.5505 5.08652C15.6892 5.33987 15.79 5.55282 15.8573 5.70479C15.8911 5.78085 15.9169 5.84208 15.9343 5.88542C15.943 5.90707 15.9495 5.92457 15.9543 5.93714C15.9567 5.94331 15.9585 5.94839 15.9599 5.95226C15.9606 5.95417 15.9618 5.95571 15.9623 5.95703V5.95862L15.9631 5.95942C15.9632 5.95973 15.9631 5.96043 15.3846 6.16869L15.9583 6.3907L15.9575 6.39149L15.9567 6.39308C15.9562 6.39437 15.9558 6.39606 15.9551 6.39786C15.9536 6.40166 15.9512 6.40696 15.9487 6.41298C15.9438 6.42496 15.9373 6.44133 15.9287 6.46152C15.911 6.5026 15.8849 6.5602 15.8509 6.6318C15.7829 6.77502 15.6813 6.97547 15.5416 7.21347C15.2627 7.68886 14.8297 8.32145 14.2107 8.9545C12.9655 10.228 10.9677 11.5 8 11.5C5.01673 11.5 3.01512 10.1297 1.77486 8.77069C1.15777 8.09449 0.726672 7.41961 0.449542 6.91348C0.310824 6.66013 0.210023 6.44718 0.142652 6.29521C0.108939 6.21915 0.083132 6.15792 0.0657296 6.11458C0.0570346 6.09293 0.0505087 6.07543 0.0456976 6.06286C0.0433351 6.05669 0.0415322 6.05161 0.0400886 6.04774C0.0393716 6.04583 0.0381743 6.04429 0.0376848 6.04297V6.04138L0.0368835 6.04058C0.0368017 6.04026 0.0408885 6.03813 0.615407 5.83131C0.0459277 5.61166 0.0416016 5.60963 0.0416912 5.6093L0.0424925 5.60851L0.0432937 5.60692C0.0438037 5.60563 0.0441766 5.60394 0.0448963 5.60214C0.0464172 5.59834 0.0488399 5.59304 0.0513065 5.58702C0.0562206 5.57505 0.0626549 5.55867 0.0713385 5.53848C0.0890134 5.4974 0.115064 5.4398 0.149063 5.3682C0.217078 5.22499 0.318746 5.02453 0.458356 4.78653C0.737247 4.31114 1.17031 3.67855 1.78928 3.0455C3.03453 1.77195 5.03232 0.500008 8 0.5ZM8 1.72222C5.4293 1.72223 3.73473 2.81034 2.67229 3.89692C2.13746 4.44392 1.76279 4.99196 1.52246 5.40162C1.41852 5.57879 1.34057 5.72917 1.28608 5.84086C1.34139 5.96318 1.42244 6.13066 1.53127 6.32943C1.77334 6.77152 2.15006 7.36141 2.68671 7.94951C3.75414 9.11918 5.44494 10.2778 8 10.2778C10.5707 10.2778 12.2653 9.18966 13.3277 8.10308C13.8625 7.55609 14.2372 7.00804 14.4775 6.59838C14.5816 6.42104 14.6586 6.27007 14.7131 6.15835C14.6578 6.03611 14.5773 5.86882 14.4687 5.67057C14.2267 5.22847 13.8499 4.63859 13.3133 4.05049C12.2459 2.88082 10.5551 1.72222 8 1.72222Z" fill="#2A2A2A"/>
<path d="M15.9631 5.95942C16.0139 6.09846 16.0122 6.25283 15.9583 6.3907L15.3846 6.16869L15.9631 5.95942Z" fill="#2A2A2A"/>
<path d="M0.615407 5.83131L0.0368835 6.04058C-0.013868 5.90154 -0.0122242 5.74716 0.0416912 5.6093L0.615407 5.83131Z" fill="#2A2A2A"/>
</svg>
