<svg width="20" height="20" viewBox="0 0 20 20" fill="none" xmlns="http://www.w3.org/2000/svg">
<path fill-rule="evenodd" clip-rule="evenodd" d="M10 6.94444C11.6993 6.94444 13.0769 8.31246 13.0769 10C13.0769 11.6875 11.6993 13.0556 10 13.0556C8.30068 13.0555 6.92309 11.6875 6.92309 10C6.92309 8.31247 8.30068 6.94446 10 6.94444ZM10 8.16667C8.98041 8.16668 8.15385 8.98749 8.15385 10C8.15385 11.0125 8.98041 11.8333 10 11.8333C11.0196 11.8333 11.8461 11.0125 11.8461 10C11.8461 8.98748 11.0196 8.16667 10 8.16667Z" fill="#2A2A2A"/>
<path fill-rule="evenodd" clip-rule="evenodd" d="M10 4.5C12.9833 4.5 14.9849 5.8703 16.2251 7.22931C16.8422 7.90551 17.2733 8.58039 17.5505 9.08652C17.6892 9.33987 17.79 9.55282 17.8573 9.70479C17.8911 9.78085 17.9169 9.84208 17.9343 9.88542C17.943 9.90707 17.9495 9.92457 17.9543 9.93714C17.9567 9.94331 17.9585 9.94839 17.9599 9.95226C17.9606 9.95417 17.9618 9.95571 17.9623 9.95703V9.95862L17.9631 9.95942C17.9632 9.95973 17.9631 9.96043 17.3846 10.1687L17.9583 10.3907L17.9575 10.3915L17.9567 10.3931C17.9562 10.3944 17.9558 10.3961 17.9551 10.3979C17.9536 10.4017 17.9512 10.407 17.9487 10.413C17.9438 10.425 17.9373 10.4413 17.9287 10.4615C17.911 10.5026 17.8849 10.5602 17.8509 10.6318C17.7829 10.775 17.6813 10.9755 17.5416 11.2135C17.2627 11.6889 16.8297 12.3215 16.2107 12.9545C14.9655 14.228 12.9677 15.5 10 15.5C7.01673 15.5 5.01512 14.1297 3.77486 12.7707C3.15777 12.0945 2.72667 11.4196 2.44954 10.9135C2.31082 10.6601 2.21002 10.4472 2.14265 10.2952C2.10894 10.2192 2.08313 10.1579 2.06573 10.1146C2.05703 10.0929 2.05051 10.0754 2.0457 10.0629C2.04334 10.0567 2.04153 10.0516 2.04009 10.0477C2.03937 10.0458 2.03817 10.0443 2.03768 10.043V10.0414L2.03688 10.0406C2.0368 10.0403 2.04089 10.0381 2.61541 9.83131C2.04593 9.61166 2.0416 9.60963 2.04169 9.6093L2.04249 9.60851L2.04329 9.60692C2.0438 9.60563 2.04418 9.60394 2.0449 9.60214C2.04642 9.59834 2.04884 9.59304 2.05131 9.58702C2.05622 9.57505 2.06265 9.55867 2.07134 9.53848C2.08901 9.4974 2.11506 9.4398 2.14906 9.3682C2.21708 9.22499 2.31875 9.02453 2.45836 8.78653C2.73725 8.31114 3.17031 7.67855 3.78928 7.0455C5.03453 5.77195 7.03232 4.50001 10 4.5ZM10 5.72222C7.4293 5.72223 5.73473 6.81034 4.67229 7.89692C4.13746 8.44392 3.76279 8.99196 3.52246 9.40162C3.41852 9.57879 3.34057 9.72917 3.28608 9.84086C3.34139 9.96318 3.42244 10.1307 3.53127 10.3294C3.77334 10.7715 4.15006 11.3614 4.68671 11.9495C5.75414 13.1192 7.44494 14.2778 10 14.2778C12.5707 14.2778 14.2653 13.1897 15.3277 12.1031C15.8625 11.5561 16.2372 11.008 16.4775 10.5984C16.5816 10.421 16.6586 10.2701 16.7131 10.1583C16.6578 10.0361 16.5773 9.86882 16.4687 9.67057C16.2267 9.22847 15.8499 8.63859 15.3133 8.05049C14.2459 6.88082 12.5551 5.72222 10 5.72222Z" fill="#2A2A2A"/>
<path d="M17.9631 9.95942C18.0139 10.0985 18.0122 10.2528 17.9583 10.3907L17.3846 10.1687L17.9631 9.95942Z" fill="#2A2A2A"/>
<path d="M2.61541 9.83131L2.03688 10.0406C1.98613 9.90154 1.98778 9.74716 2.04169 9.6093L2.61541 9.83131Z" fill="#2A2A2A"/>
</svg>
