<svg width="20" height="20" viewBox="0 0 20 20" fill="none" xmlns="http://www.w3.org/2000/svg">
<path fill-rule="evenodd" clip-rule="evenodd" d="M7.19153 6.98097L2 8.22974L5.45603 12.2463L5.05583 17.5L10 15.501L14.9442 17.5L14.5432 12.2463L18 8.22974L12.8077 6.98097L10 2.5L7.19153 6.98097ZM11.9088 7.81659L12.0396 8.02472L12.2807 8.08219L15.8092 8.93024L13.4608 11.6623L13.3 11.8487L13.319 12.0925L13.5907 15.6633L10 14.2127L6.40847 15.6633L6.68104 12.0925L6.69995 11.8487L6.53924 11.6623L4.19005 8.93024L7.71935 8.08219L7.96041 8.02472L8.09119 7.81659L10 4.76922L11.9088 7.81659Z" fill="#2A2A2A"/>
</svg>
