<svg width="20" height="20" viewBox="0 0 20 20" fill="none" xmlns="http://www.w3.org/2000/svg">
<path d="M18 16.5H11.1V15.2932H16.8068V4.70682H3.19324V7.30116H2V3.5H18V16.5Z" fill="#2A2A2A"/>
<path d="M2.5974 10.9114C5.31175 10.9114 7.51253 13.1372 7.51253 15.8824V16.4859H6.31929V15.8824C6.31929 13.8037 4.65274 12.1182 2.5974 12.1182H2.00078V10.9114H2.5974Z" fill="#2A2A2A"/>
<path d="M2.59662 13.0948C4.11849 13.0948 5.35198 14.3425 5.35211 15.8817V16.4851H4.15887V15.8817C4.15873 15.009 3.45948 14.3016 2.59662 14.3016H2V13.0948H2.59662Z" fill="#2A2A2A"/>
<path d="M2.59662 8.80025C6.46364 8.80025 9.59821 11.9707 9.59837 15.8817V16.4851H8.40513V15.8817C8.40497 12.6372 5.80463 10.0071 2.59662 10.0071H2V8.80025H2.59662Z" fill="#2A2A2A"/>
</svg>
