<svg width="190" height="171" viewBox="0 0 190 171" fill="none" xmlns="http://www.w3.org/2000/svg">
<rect width="190" height="171" fill="white"/>
<ellipse opacity="0.7" cx="94.9984" cy="85.9425" rx="56.9993" ry="57.4425" fill="#F6EFFB"/>
<path opacity="0.7" d="M24.2268 100.259C24.7963 99.8644 25.5807 100.221 25.6558 100.909L26.4167 107.879C26.4936 108.583 25.7737 109.103 25.1288 108.81L18.5996 105.839C17.9547 105.545 17.8758 104.661 18.4584 104.258L24.2268 100.259Z" fill="#F6EFFB"/>
<path opacity="0.7" d="M38.7496 158.982C38.7858 159.841 37.8907 160.427 37.1188 160.049L29.3007 156.222C28.5111 155.835 28.443 154.735 29.1789 154.253L36.6302 149.374C37.3661 148.892 38.3457 149.396 38.3828 150.275L38.7496 158.982Z" fill="#F6EFFB"/>
<ellipse opacity="0.7" cx="98.3906" cy="18.5842" rx="3.3906" ry="3.38502" fill="#F6EFFB"/>
<ellipse opacity="0.7" cx="89" cy="152.997" rx="2" ry="1.99671" fill="#F6EFFB"/>
<ellipse opacity="0.7" cx="147.791" cy="138.285" rx="3.3906" ry="3.38502" fill="#F6EFFB"/>
<ellipse opacity="0.7" cx="158.11" cy="23.1939" rx="9.9094" ry="9.89312" fill="#F6EFFB"/>
<path d="M84.6477 55.8318C84.6477 54.3779 85.8263 53.1992 87.2803 53.1992H103.481C104.935 53.1992 106.114 54.3779 106.114 55.8318C106.114 57.2858 104.935 58.4644 103.481 58.4644L87.2803 58.4644C85.8263 58.4644 84.6477 57.2858 84.6477 55.8318Z" fill="#B57EDC"/>
<path fill-rule="evenodd" clip-rule="evenodd" d="M68.6498 89.4481C68.6498 74.685 80.6177 62.7171 95.3808 62.7171C110.144 62.7171 122.112 74.685 122.112 89.4481V103.219H123.732C125.074 103.219 126.162 104.307 126.162 105.649C126.162 106.991 125.074 108.079 123.732 108.079H105.881C105.467 113.516 100.924 117.799 95.3808 117.799H88.9006V108.079H67.0297C65.6876 108.079 64.5996 106.991 64.5996 105.649C64.5996 104.307 65.6876 103.219 67.0297 103.219H68.6498V89.4481ZM117.252 103.219V89.4481C117.252 77.3692 107.46 67.5773 95.3808 67.5773C83.3019 67.5773 73.51 77.3692 73.51 89.4481V103.219H117.252Z" fill="#B57EDC"/>
</svg>
