<svg width="12" height="12" viewBox="0 0 12 12" fill="none" xmlns="http://www.w3.org/2000/svg">
<path fill-rule="evenodd" clip-rule="evenodd" d="M9.15115 10.7992C8.67852 10.7992 8.28958 10.5188 8.28958 10.0207V1.9776C8.28958 1.47943 8.67852 1.19922 9.15115 1.19922H9.93885C10.4115 1.19922 10.8004 1.47943 10.8004 1.9776V10.0207C10.8004 10.5188 10.4115 10.7992 9.93885 10.7992H9.15115ZM9.02807 2.10733V9.89111C9.02807 9.96376 9.08222 10.0208 9.15115 10.0208H9.93885C10.0078 10.0208 10.0619 9.96376 10.0619 9.89111V2.10733C10.0619 2.03468 10.0078 1.9776 9.93885 1.9776H9.15115C9.08222 1.9776 9.02807 2.03468 9.02807 2.10733Z" fill="#ADADAD"/>
<path fill-rule="evenodd" clip-rule="evenodd" d="M4.74572 10.0207C4.74572 10.5188 5.13466 10.7991 5.60729 10.7991H6.39499C6.86762 10.7991 7.25656 10.5188 7.25656 10.0207V3.59922C7.25656 3.10106 6.86762 2.85441 6.39499 2.85441H5.60729C5.13466 2.85441 4.74572 3.13463 4.74572 3.63279V10.0207ZM5.48421 9.89095V3.76252C5.48421 3.68987 5.53836 3.63279 5.60729 3.63279H6.39499C6.46392 3.63279 6.51807 3.68987 6.51807 3.76252V9.89095C6.51807 9.9636 6.46392 10.0207 6.39499 10.0207H5.60729C5.53836 10.0207 5.48421 9.9636 5.48421 9.89095Z" fill="#ADADAD"/>
<path fill-rule="evenodd" clip-rule="evenodd" d="M1.2002 10.0204C1.2002 10.5186 1.58935 10.7989 2.06198 10.7989H2.84969C3.32232 10.7989 3.71125 10.5186 3.71125 10.0204V5.28266C3.71125 4.7845 3.32232 4.50961 2.84969 4.50961H2.06198C1.58935 4.50961 1.20042 4.7897 1.20042 5.28786L1.2002 10.0204ZM1.9389 9.89067V5.41239C1.9389 5.33975 1.99306 5.28266 2.06198 5.28266V5.28786H2.84969C2.91861 5.28786 2.97277 5.34494 2.97277 5.41759V9.89067C2.97277 9.96332 2.91861 10.0204 2.84969 10.0204H2.06198C1.99306 10.0204 1.9389 9.96332 1.9389 9.89067Z" fill="#ADADAD"/>
</svg>
