<svg width="42" height="42" viewBox="0 0 42 42" fill="none" xmlns="http://www.w3.org/2000/svg">
<path d="M0 4C0 1.79086 1.79086 0 4 0H38C40.2091 0 42 1.79086 42 4V38C42 40.2091 40.2091 42 38 42H4C1.79086 42 0 40.2091 0 38V4Z" fill="#F1F9F1"/>
<g clip-path="url(#clip0_1439_38959)">
<path d="M11 21C11 23.6522 12.0536 26.1957 13.9289 28.0711C15.8043 29.9464 18.3478 31 21 31C23.6522 31 26.1957 29.9464 28.0711 28.0711C29.9464 26.1957 31 23.6522 31 21C31 18.3478 29.9464 15.8043 28.0711 13.9289C26.1957 12.0536 23.6522 11 21 11C18.3478 11 15.8043 12.0536 13.9289 13.9289C12.0536 15.8043 11 18.3478 11 21Z" fill="url(#paint0_linear_1439_38959)"/>
<path d="M10.6 21C10.6 23.7583 11.6957 26.4035 13.6461 28.3539C15.5965 30.3043 18.2417 31.4 21 31.4C23.7583 31.4 26.4035 30.3043 28.3539 28.3539C30.3043 26.4035 31.4 23.7583 31.4 21C31.4 18.2417 30.3043 15.5965 28.3539 13.6461C26.4035 11.6957 23.7583 10.6 21 10.6C18.2417 10.6 15.5965 11.6957 13.6461 13.6461C11.6957 15.5965 10.6 18.2417 10.6 21Z" stroke="url(#paint1_linear_1439_38959)" stroke-opacity="0.3" stroke-width="0.8"/>
<g opacity="0.8" filter="url(#filter0_di_1439_38959)">
<path d="M26 24C26 24.5253 25.8707 25.0454 25.6194 25.5307C25.3681 26.016 24.9998 26.457 24.5355 26.8284C24.0712 27.1999 23.52 27.4945 22.9134 27.6955C22.3068 27.8965 21.6566 28 21 28C20.3434 28 19.6932 27.8965 19.0866 27.6955C18.48 27.4945 17.9288 27.1999 17.4645 26.8284C17.0002 26.457 16.6319 26.016 16.3806 25.5307C16.1293 25.0454 16 24.5253 16 24L26 24Z" fill="#228B22"/>
</g>
<path d="M26 24C26 24.1313 25.8707 24.2614 25.6194 24.3827C25.3681 24.504 24.9998 24.6142 24.5355 24.7071C24.0712 24.8 23.52 24.8736 22.9134 24.9239C22.3068 24.9741 21.6566 25 21 25C20.3434 25 19.6932 24.9741 19.0866 24.9239C18.48 24.8736 17.9288 24.8 17.4645 24.7071C17.0002 24.6142 16.6319 24.504 16.3806 24.3827C16.1293 24.2614 16 24.1313 16 24L26 24Z" fill="white"/>
<g opacity="0.8" filter="url(#filter1_di_1439_38959)">
<rect width="3" height="4" rx="1.5" transform="matrix(-1 0 0 1 26 17)" fill="#228B22"/>
</g>
<g opacity="0.8" filter="url(#filter2_di_1439_38959)">
<rect width="3" height="4" rx="1.5" transform="matrix(-1 0 0 1 19 17)" fill="#228B22"/>
</g>
</g>
<defs>
<filter id="filter0_di_1439_38959" x="15" y="24" width="12" height="6" filterUnits="userSpaceOnUse" color-interpolation-filters="sRGB">
<feFlood flood-opacity="0" result="BackgroundImageFix"/>
<feColorMatrix in="SourceAlpha" type="matrix" values="0 0 0 0 0 0 0 0 0 0 0 0 0 0 0 0 0 0 127 0" result="hardAlpha"/>
<feOffset dy="1"/>
<feGaussianBlur stdDeviation="0.5"/>
<feComposite in2="hardAlpha" operator="out"/>
<feColorMatrix type="matrix" values="0 0 0 0 1 0 0 0 0 1 0 0 0 0 1 0 0 0 0.35 0"/>
<feBlend mode="normal" in2="BackgroundImageFix" result="effect1_dropShadow_1439_38959"/>
<feBlend mode="normal" in="SourceGraphic" in2="effect1_dropShadow_1439_38959" result="shape"/>
<feColorMatrix in="SourceAlpha" type="matrix" values="0 0 0 0 0 0 0 0 0 0 0 0 0 0 0 0 0 0 127 0" result="hardAlpha"/>
<feOffset dy="1"/>
<feGaussianBlur stdDeviation="1"/>
<feComposite in2="hardAlpha" operator="arithmetic" k2="-1" k3="1"/>
<feColorMatrix type="matrix" values="0 0 0 0 0 0 0 0 0 0 0 0 0 0 0 0 0 0 0.25 0"/>
<feBlend mode="normal" in2="shape" result="effect2_innerShadow_1439_38959"/>
</filter>
<filter id="filter1_di_1439_38959" x="22" y="17" width="5" height="8" filterUnits="userSpaceOnUse" color-interpolation-filters="sRGB">
<feFlood flood-opacity="0" result="BackgroundImageFix"/>
<feColorMatrix in="SourceAlpha" type="matrix" values="0 0 0 0 0 0 0 0 0 0 0 0 0 0 0 0 0 0 127 0" result="hardAlpha"/>
<feOffset dy="1"/>
<feGaussianBlur stdDeviation="0.5"/>
<feComposite in2="hardAlpha" operator="out"/>
<feColorMatrix type="matrix" values="0 0 0 0 0.948764 0 0 0 0 0.958876 0 0 0 0 0.978156 0 0 0 0.35 0"/>
<feBlend mode="normal" in2="BackgroundImageFix" result="effect1_dropShadow_1439_38959"/>
<feBlend mode="normal" in="SourceGraphic" in2="effect1_dropShadow_1439_38959" result="shape"/>
<feColorMatrix in="SourceAlpha" type="matrix" values="0 0 0 0 0 0 0 0 0 0 0 0 0 0 0 0 0 0 127 0" result="hardAlpha"/>
<feOffset dy="4"/>
<feGaussianBlur stdDeviation="2"/>
<feComposite in2="hardAlpha" operator="arithmetic" k2="-1" k3="1"/>
<feColorMatrix type="matrix" values="0 0 0 0 0 0 0 0 0 0 0 0 0 0 0 0 0 0 0.25 0"/>
<feBlend mode="normal" in2="shape" result="effect2_innerShadow_1439_38959"/>
</filter>
<filter id="filter2_di_1439_38959" x="15" y="17" width="5" height="8" filterUnits="userSpaceOnUse" color-interpolation-filters="sRGB">
<feFlood flood-opacity="0" result="BackgroundImageFix"/>
<feColorMatrix in="SourceAlpha" type="matrix" values="0 0 0 0 0 0 0 0 0 0 0 0 0 0 0 0 0 0 127 0" result="hardAlpha"/>
<feOffset dy="1"/>
<feGaussianBlur stdDeviation="0.5"/>
<feComposite in2="hardAlpha" operator="out"/>
<feColorMatrix type="matrix" values="0 0 0 0 0.948764 0 0 0 0 0.958876 0 0 0 0 0.978156 0 0 0 0.35 0"/>
<feBlend mode="normal" in2="BackgroundImageFix" result="effect1_dropShadow_1439_38959"/>
<feBlend mode="normal" in="SourceGraphic" in2="effect1_dropShadow_1439_38959" result="shape"/>
<feColorMatrix in="SourceAlpha" type="matrix" values="0 0 0 0 0 0 0 0 0 0 0 0 0 0 0 0 0 0 127 0" result="hardAlpha"/>
<feOffset dy="4"/>
<feGaussianBlur stdDeviation="2"/>
<feComposite in2="hardAlpha" operator="arithmetic" k2="-1" k3="1"/>
<feColorMatrix type="matrix" values="0 0 0 0 0 0 0 0 0 0 0 0 0 0 0 0 0 0 0.25 0"/>
<feBlend mode="normal" in2="shape" result="effect2_innerShadow_1439_38959"/>
</filter>
<linearGradient id="paint0_linear_1439_38959" x1="21" y1="11" x2="21" y2="31" gradientUnits="userSpaceOnUse">
<stop stop-color="#EFFBEF"/>
<stop offset="1" stop-color="#228B22"/>
</linearGradient>
<linearGradient id="paint1_linear_1439_38959" x1="21" y1="11" x2="21" y2="31" gradientUnits="userSpaceOnUse">
<stop stop-color="#7FC782"/>
<stop offset="1" stop-color="#7FC782"/>
</linearGradient>
<clipPath id="clip0_1439_38959">
<rect width="24" height="24" fill="white" transform="translate(9 9)"/>
</clipPath>
</defs>
</svg>
