<svg width="16" height="17" viewBox="0 0 16 17" fill="none" xmlns="http://www.w3.org/2000/svg">
<path d="M6.88881 6.92651C4.78259 6.14216 2.43726 7.20001 1.63136 9.29812C1.55252 9.50338 1.47731 9.73866 1.44569 9.99452C1.21051 11.898 2.25742 13.7597 4.19113 14.2779C6.21572 14.8203 8.29682 13.6187 8.83943 11.5942L9.54438 8.96324L11.1194 9.55052L11.1411 9.55867L11.1635 9.5642C12.6007 9.94928 14.0778 9.09647 14.4629 7.65934C14.8478 6.22227 13.9951 4.74507 12.558 4.36001C11.121 3.97505 9.6438 4.82791 9.25866 6.26488L8.88254 7.66856L6.88881 6.92651ZM2.54859 9.65015C3.16149 8.05481 4.9446 7.25066 6.54616 7.84718L8.61989 8.6191L7.89083 11.34C7.48861 12.8406 5.94594 13.7313 4.44531 13.3293C3.04859 12.955 2.23677 11.6006 2.42035 10.1148C2.43807 9.97149 2.48322 9.82032 2.54859 9.65015ZM10.2073 6.51905C10.452 5.60604 11.3907 5.06405 12.3038 5.30861C13.2169 5.55328 13.7588 6.49204 13.5143 7.40516C13.2708 8.31358 12.3411 8.85342 11.4325 8.61815L9.80704 8.0127L10.2073 6.51905Z" fill="#C90D7B"/>
</svg>
