<svg width="100" height="90" viewBox="0 0 100 90" fill="none" xmlns="http://www.w3.org/2000/svg">
<path d="M36.8591 33.582H53.5766L57.174 37.1795V50.2431C57.174 53.5752 54.4727 56.2765 51.1405 56.2765H41.0825C38.75 56.2765 36.8591 54.3856 36.8591 52.0531V33.582Z" fill="#2E1042"/>
<path opacity="0.6" d="M57.5275 37.0832L53.9075 33.4629V37.0832H57.5275Z" fill="#451863"/>
<circle cx="46.8904" cy="40.7633" r="15.9064" transform="rotate(-40.4482 46.8904 40.7633)" stroke="#391452" stroke-width="2.04523"/>
<rect x="55.7944" y="53.1934" width="2.57741" height="12.8218" rx="1.28871" transform="rotate(-40.4482 55.7944 53.1934)" fill="#451863"/>
<rect x="58.6682" y="58.2871" width="4.81466" height="7.07966" rx="2.40733" transform="rotate(-40.4482 58.6682 58.2871)" fill="#451863"/>
<path d="M50.1445 48.6837L47.06 45.5993L43.9322 48.7272L42.7013 47.4963L45.8292 44.3684L42.7592 41.2984L43.8742 40.1834L46.9442 43.2534L50.0866 40.111L51.3175 41.3419L48.1751 44.4842L51.2595 47.5687L50.1445 48.6837Z" fill="#451863"/>
<path opacity="0.7" d="M17.2521 43.7678C17.5519 43.56 17.9647 43.7479 18.0042 44.1101L18.4047 47.7782C18.4452 48.1487 18.0663 48.4225 17.7269 48.2681L14.2904 46.7043C13.951 46.5498 13.9095 46.0847 14.2161 45.8722L17.2521 43.7678Z" fill="#2E1042"/>
<path opacity="0.7" d="M83.178 32.9962C83.3469 32.8792 83.5796 32.985 83.6019 33.1891L83.8276 35.2563C83.8504 35.4651 83.6369 35.6194 83.4456 35.5324L81.5089 34.6511C81.3177 34.5641 81.2943 34.302 81.4671 34.1822L83.178 32.9962Z" fill="#2E1042"/>
<path opacity="0.7" d="M22.8941 82.5109C22.9131 82.9633 22.442 83.2718 22.0358 83.0729L17.921 81.0585C17.5054 80.855 17.4696 80.2758 17.8569 80.0221L21.7786 77.4542C22.1659 77.2006 22.6815 77.4657 22.701 77.9285L22.8941 82.5109Z" fill="#2E1042"/>
<ellipse opacity="0.7" cx="51.7845" cy="9.78159" rx="1.78452" ry="1.78159" fill="#2E1042"/>
<ellipse opacity="0.7" cx="77.7845" cy="72.7816" rx="1.78452" ry="1.78159" fill="#2E1042"/>
</svg>
