<svg width="100" height="90" viewBox="0 0 100 90" fill="none" xmlns="http://www.w3.org/2000/svg">
<ellipse opacity="0.7" cx="49.9987" cy="45.2329" rx="29.9996" ry="30.2329" fill="#F6EFFB"/>
<path opacity="0.7" d="M12.7511 52.7678C13.0509 52.56 13.4637 52.7479 13.5033 53.1101L13.9037 56.7782C13.9442 57.1487 13.5653 57.4225 13.2259 57.2681L9.78944 55.7043C9.45003 55.5498 9.4085 55.0847 9.71515 54.8722L12.7511 52.7678Z" fill="#F6EFFB"/>
<path opacity="0.7" d="M20.3943 83.6749C20.4134 84.1273 19.9423 84.4358 19.536 84.237L15.4212 82.2226C15.0056 82.0191 14.9698 81.4398 15.3571 81.1862L19.2788 78.6183C19.6662 78.3646 20.1818 78.6298 20.2013 79.0926L20.3943 83.6749Z" fill="#F6EFFB"/>
<ellipse opacity="0.7" cx="51.7845" cy="9.78159" rx="1.78452" ry="1.78159" fill="#F6EFFB"/>
<ellipse opacity="0.7" cx="46.8417" cy="80.5255" rx="1.05263" ry="1.0509" fill="#F6EFFB"/>
<ellipse opacity="0.7" cx="77.7845" cy="72.7816" rx="1.78452" ry="1.78159" fill="#F6EFFB"/>
<ellipse opacity="0.7" cx="83.2155" cy="12.2069" rx="5.21548" ry="5.2069" fill="#F6EFFB"/>
<path d="M44.5516 29.3856C44.5516 28.6203 45.172 28 45.9372 28H54.4638C55.2291 28 55.8494 28.6203 55.8494 29.3856C55.8494 30.1508 55.2291 30.7712 54.4638 30.7712L45.9372 30.7712C45.172 30.7712 44.5516 30.1508 44.5516 29.3856Z" fill="#B57EDC"/>
<path fill-rule="evenodd" clip-rule="evenodd" d="M36.1317 47.0784C36.1317 39.3083 42.4306 33.0094 50.2006 33.0094C57.9707 33.0094 64.2696 39.3083 64.2696 47.0784V54.326H65.1223C65.8286 54.326 66.4013 54.8986 66.4013 55.605C66.4013 56.3114 65.8286 56.884 65.1223 56.884H55.7268C55.5091 59.7457 53.1181 62 50.2006 62H46.79V56.884H35.279C34.5726 56.884 34 56.3114 34 55.605C34 54.8986 34.5726 54.326 35.279 54.326H36.1317V47.0784ZM61.7116 54.326V47.0784C61.7116 40.721 56.558 35.5674 50.2006 35.5674C43.8433 35.5674 38.6897 40.721 38.6897 47.0784V54.326H61.7116Z" fill="#B57EDC"/>
</svg>
