<svg width="110" height="99" viewBox="0 0 110 99" fill="none" xmlns="http://www.w3.org/2000/svg">
<path d="M20.9976 22.0003C20.9976 19.791 22.7885 18 24.9978 18H56V46.002H20.9976V22.0003Z" fill="#DCE3E5"/>
<path d="M60 18H91C93.2091 18 95 19.7909 95 22V46H60V18Z" fill="#DCE3E5"/>
<path d="M60 50H95V73.4286C95 75.9533 92.9533 78 90.4286 78H60V50Z" fill="#DCE3E5"/>
<path d="M21 50H56V78H25C22.7909 78 21 76.2091 21 74V50Z" fill="#DCE3E5"/>
<path d="M38.634 37.21C37.9107 37.21 37.2573 37.0863 36.674 36.839C36.0953 36.587 35.617 36.23 35.239 35.768C34.8657 35.3013 34.623 34.7483 34.511 34.109L36.037 33.878C36.191 34.494 36.513 34.9747 37.003 35.32C37.493 35.6607 38.0647 35.831 38.718 35.831C39.124 35.831 39.4973 35.768 39.838 35.642C40.1787 35.5113 40.4517 35.327 40.657 35.089C40.867 34.8463 40.972 34.557 40.972 34.221C40.972 34.039 40.9393 33.878 40.874 33.738C40.8133 33.598 40.727 33.4767 40.615 33.374C40.5077 33.2667 40.3747 33.1757 40.216 33.101C40.062 33.0217 39.8917 32.954 39.705 32.898L37.122 32.135C36.87 32.0603 36.6133 31.9647 36.352 31.848C36.0907 31.7267 35.8503 31.5703 35.631 31.379C35.4163 31.183 35.2413 30.9427 35.106 30.658C34.9707 30.3687 34.903 30.0187 34.903 29.608C34.903 28.9873 35.0617 28.4623 35.379 28.033C35.701 27.599 36.135 27.2723 36.681 27.053C37.227 26.829 37.8383 26.717 38.515 26.717C39.1963 26.7263 39.8053 26.8477 40.342 27.081C40.8833 27.3143 41.3313 27.6503 41.686 28.089C42.0453 28.523 42.2927 29.0503 42.428 29.671L40.86 29.937C40.79 29.559 40.6407 29.2347 40.412 28.964C40.1833 28.6887 39.9033 28.4787 39.572 28.334C39.2407 28.1847 38.8813 28.1077 38.494 28.103C38.1207 28.0937 37.7777 28.1497 37.465 28.271C37.157 28.3923 36.9097 28.5627 36.723 28.782C36.541 29.0013 36.45 29.2533 36.45 29.538C36.45 29.818 36.5317 30.0443 36.695 30.217C36.8583 30.3897 37.059 30.5273 37.297 30.63C37.5397 30.728 37.78 30.8097 38.018 30.875L39.88 31.4C40.1133 31.4653 40.377 31.554 40.671 31.666C40.9697 31.7733 41.2567 31.925 41.532 32.121C41.812 32.317 42.043 32.5783 42.225 32.905C42.407 33.227 42.498 33.633 42.498 34.123C42.498 34.6317 42.3953 35.0797 42.19 35.467C41.9847 35.8497 41.7023 36.1717 41.343 36.433C40.9883 36.6897 40.5777 36.8833 40.111 37.014C39.6443 37.1447 39.152 37.21 38.634 37.21Z" fill="#608080"/>
<path d="M38.187 69.212C37.179 69.212 36.3203 68.9926 35.611 68.554C34.9017 68.1106 34.358 67.4946 33.98 66.706C33.6067 65.9173 33.42 65.0026 33.42 63.962C33.42 62.9213 33.6067 62.0066 33.98 61.218C34.358 60.4293 34.9017 59.8156 35.611 59.377C36.3203 58.9336 37.179 58.712 38.187 58.712C39.1903 58.712 40.0467 58.9336 40.756 59.377C41.47 59.8156 42.0137 60.4293 42.387 61.218C42.7603 62.0066 42.947 62.9213 42.947 63.962C42.947 65.0026 42.7603 65.9173 42.387 66.706C42.0137 67.4946 41.47 68.1106 40.756 68.554C40.0467 68.9926 39.1903 69.212 38.187 69.212ZM38.187 67.819C38.901 67.8283 39.4937 67.672 39.965 67.35C40.441 67.0233 40.798 66.5706 41.036 65.992C41.274 65.4086 41.393 64.732 41.393 63.962C41.393 63.192 41.274 62.52 41.036 61.946C40.798 61.3673 40.441 60.917 39.965 60.595C39.4937 60.273 38.901 60.1096 38.187 60.105C37.473 60.0956 36.878 60.252 36.402 60.574C35.9307 60.896 35.576 61.3486 35.338 61.932C35.1 62.5153 34.9787 63.192 34.974 63.962C34.9693 64.732 35.086 65.4063 35.324 65.985C35.562 66.559 35.919 67.007 36.395 67.329C36.8757 67.651 37.473 67.8143 38.187 67.819Z" fill="#608080"/>
<path d="M74.115 37L71.189 26.92H72.722L74.843 34.543L76.964 26.927L78.504 26.92L80.625 34.543L82.746 26.92H84.286L81.353 37H79.897L77.734 29.461L75.571 37H74.115Z" fill="#608080"/>
<path d="M77.493 69V60.299H74.14V58.92H82.309V60.299H78.956V69H77.493Z" fill="#608080"/>
</svg>
