<svg width="190" height="171" viewBox="0 0 190 171" fill="none" xmlns="http://www.w3.org/2000/svg">
<rect width="190" height="171" fill="white"/>
<ellipse opacity="0.7" cx="123.544" cy="97.3421" rx="51.3433" ry="51.7425" fill="#F6EFFB"/>
<ellipse opacity="0.7" cx="52.6814" cy="45.0452" rx="22.2811" ry="22.2444" fill="#F6EFFB"/>
<path opacity="0.7" d="M24.2268 100.259C24.7963 99.8644 25.5807 100.221 25.6558 100.909L26.4167 107.879C26.4936 108.583 25.7737 109.103 25.1288 108.81L18.5996 105.839C17.9547 105.545 17.8758 104.661 18.4584 104.258L24.2268 100.259Z" fill="#F6EFFB"/>
<path opacity="0.7" d="M38.7496 158.982C38.7858 159.841 37.8907 160.427 37.1188 160.049L29.3007 156.222C28.5111 155.835 28.443 154.735 29.1789 154.253L36.6302 149.374C37.3661 148.892 38.3457 149.396 38.3828 150.275L38.7496 158.982Z" fill="#F6EFFB"/>
<ellipse opacity="0.7" cx="98.3906" cy="18.5842" rx="3.3906" ry="3.38502" fill="#F6EFFB"/>
<ellipse opacity="0.7" cx="158.11" cy="23.1939" rx="9.9094" ry="9.89312" fill="#F6EFFB"/>
<mask id="path-7-inside-1_4483_254660" fill="white">
<path d="M55.0996 55.1008C55.0996 53.0021 56.8009 51.3008 58.8996 51.3008H142.5C144.598 51.3008 146.3 53.0021 146.3 55.1008V153.901C146.3 155.999 144.598 157.701 142.5 157.701H58.8996C56.8009 157.701 55.0996 155.999 55.0996 153.901V55.1008Z"/>
</mask>
<path d="M55.0996 55.1008C55.0996 53.0021 56.8009 51.3008 58.8996 51.3008H142.5C144.598 51.3008 146.3 53.0021 146.3 55.1008V153.901C146.3 155.999 144.598 157.701 142.5 157.701H58.8996C56.8009 157.701 55.0996 155.999 55.0996 153.901V55.1008Z" fill="white"/>
<path d="M58.8996 53.2008H142.5V49.4008H58.8996V53.2008ZM144.4 55.1008V153.901H148.2V55.1008H144.4ZM142.5 155.801H58.8996V159.601H142.5V155.801ZM56.9996 153.901V55.1008H53.1996V153.901H56.9996ZM58.8996 155.801C57.8503 155.801 56.9996 154.95 56.9996 153.901H53.1996C53.1996 157.049 55.7516 159.601 58.8996 159.601V155.801ZM144.4 153.901C144.4 154.95 143.549 155.801 142.5 155.801V159.601C145.648 159.601 148.2 157.049 148.2 153.901H144.4ZM142.5 53.2008C143.549 53.2008 144.4 54.0514 144.4 55.1008H148.2C148.2 51.9528 145.648 49.4008 142.5 49.4008V53.2008ZM58.8996 49.4008C55.7516 49.4008 53.1996 51.9528 53.1996 55.1008H56.9996C56.9996 54.0514 57.8503 53.2008 58.8996 53.2008V49.4008Z" fill="#D1AFE9" mask="url(#path-7-inside-1_4483_254660)"/>
<mask id="path-9-inside-2_4483_254660" fill="white">
<path d="M47.5 47.4992C47.5 45.4005 49.2013 43.6992 51.3 43.6992H134.9C136.999 43.6992 138.7 45.4005 138.7 47.4992V146.299C138.7 148.398 136.999 150.099 134.9 150.099H51.3C49.2013 150.099 47.5 148.398 47.5 146.299V47.4992Z"/>
</mask>
<path d="M47.5 47.4992C47.5 45.4005 49.2013 43.6992 51.3 43.6992H134.9C136.999 43.6992 138.7 45.4005 138.7 47.4992V146.299C138.7 148.398 136.999 150.099 134.9 150.099H51.3C49.2013 150.099 47.5 148.398 47.5 146.299V47.4992Z" fill="white"/>
<path d="M51.3 45.5992H134.9V41.7992H51.3V45.5992ZM136.8 47.4992V146.299H140.6V47.4992H136.8ZM134.9 148.199H51.3V151.999H134.9V148.199ZM49.4 146.299V47.4992H45.6V146.299H49.4ZM51.3 148.199C50.2507 148.199 49.4 147.349 49.4 146.299H45.6C45.6 149.447 48.152 151.999 51.3 151.999V148.199ZM136.8 146.299C136.8 147.349 135.949 148.199 134.9 148.199V151.999C138.048 151.999 140.6 149.447 140.6 146.299H136.8ZM134.9 45.5992C135.949 45.5992 136.8 46.4499 136.8 47.4992H140.6C140.6 44.3512 138.048 41.7992 134.9 41.7992V45.5992ZM51.3 41.7992C48.152 41.7992 45.6 44.3512 45.6 47.4992H49.4C49.4 46.4499 50.2507 45.5992 51.3 45.5992V41.7992Z" fill="#D1AFE9" mask="url(#path-9-inside-2_4483_254660)"/>
<circle cx="68.4002" cy="60.7996" r="4.75" fill="white" stroke="#D1AFE9" stroke-width="1.9"/>
<circle cx="93.1004" cy="60.7996" r="4.75" fill="white" stroke="#D1AFE9" stroke-width="1.9"/>
<circle cx="117.8" cy="60.7996" r="4.75" fill="white" stroke="#D1AFE9" stroke-width="1.9"/>
<rect x="66.5" y="38" width="3.8" height="22.8" rx="1.9" fill="#D1AFE9"/>
<rect x="91.2002" y="38" width="3.8" height="22.8" rx="1.9" fill="#D1AFE9"/>
<rect x="115.9" y="38" width="3.8" height="22.8" rx="1.9" fill="#D1AFE9"/>
<rect x="62.7002" y="81.6992" width="60.8" height="3.8" rx="1.9" fill="#F6EFFB"/>
<rect x="62.7002" y="93.0996" width="60.8" height="3.8" rx="1.9" fill="#F6EFFB"/>
<rect x="62.7002" y="104.5" width="60.8" height="3.8" rx="1.9" fill="#F6EFFB"/>
<rect x="62.7002" y="115.9" width="26.6" height="3.8" rx="1.9" fill="#F6EFFB"/>
<rect x="0.737853" y="1.05963" width="22.2314" height="22.2071" rx="11.1036" transform="matrix(0.984435 0.175751 -0.176679 0.984269 143.152 125.291)" fill="white" stroke="#D1AFE9" stroke-width="1.82692"/>
<path d="M156.577 138.084L156.078 139.14L150.462 138.138L150.961 137.082L156.577 138.084ZM152.589 144.585L150.223 140.135L150.371 139.257L151.892 139.529C152.272 139.597 152.604 139.593 152.889 139.517C153.174 139.441 153.406 139.298 153.585 139.089C153.764 138.877 153.884 138.602 153.945 138.264C154.036 137.761 153.964 137.335 153.732 136.988C153.5 136.64 153.079 136.412 152.471 136.304L150.843 136.013L151.37 134.874L152.686 135.109C153.394 135.235 153.957 135.458 154.374 135.777C154.791 136.095 155.075 136.484 155.225 136.944C155.376 137.403 155.402 137.907 155.304 138.455C155.216 138.943 155.044 139.368 154.787 139.73C154.531 140.093 154.177 140.362 153.727 140.538C153.277 140.714 152.718 140.764 152.051 140.688L152.011 140.69L154.167 144.788L154.153 144.865L152.589 144.585ZM156.978 135.875L156.473 136.939L151.988 136.111L152.488 135.074L156.978 135.875Z" fill="#B57EDC"/>
<path d="M146.354 81.5307C146.98 80.6886 148.17 80.5134 149.012 81.1394L155.112 85.6734C155.954 86.2995 156.129 87.4897 155.503 88.3318L121.497 134.077C120.871 134.919 119.681 135.094 118.839 134.468L112.74 129.934C111.897 129.308 111.722 128.118 112.348 127.276L146.354 81.5307Z" fill="#B57EDC"/>
<path d="M111.329 137.317C111.295 137.778 111.752 138.118 112.185 137.955L120.724 134.72C121.192 134.543 121.279 133.918 120.877 133.62L112.994 127.76C112.593 127.462 112.021 127.724 111.985 128.223L111.329 137.317Z" fill="#B57EDC"/>
</svg>
