<svg width="79" height="64" viewBox="0 0 79 64" fill="none" xmlns="http://www.w3.org/2000/svg">
<path d="M4.99976 4.00195C4.99976 1.79281 6.79062 0.00195312 8.99976 0.00195312H39.9998V28.002H4.99976V4.00195Z" fill="#F6EFFB"/>
<path d="M44 0.00195312H75C77.2091 0.00195312 79 1.79281 79 4.00195V28.002H44V0.00195312Z" fill="#F6EFFB"/>
<path d="M44 32.002H79V56.002C79 58.2111 77.2091 60.002 75 60.002H44V32.002Z" fill="#F6EFFB"/>
<path d="M0 32.002H40V64.002H4.57143C2.0467 64.002 0 61.9553 0 59.4305V32.002Z" fill="#DCE3E5"/>
<path opacity="0.4" d="M21.634 19.2139C20.9107 19.2139 20.2573 19.0902 19.674 18.8429C19.0953 18.5909 18.617 18.2339 18.239 17.7719C17.8657 17.3052 17.623 16.7522 17.511 16.1129L19.037 15.8819C19.191 16.4979 19.513 16.9786 20.003 17.3239C20.493 17.6646 21.0647 17.8349 21.718 17.8349C22.124 17.8349 22.4973 17.7719 22.838 17.6459C23.1787 17.5152 23.4517 17.3309 23.657 17.0929C23.867 16.8502 23.972 16.5609 23.972 16.2249C23.972 16.0429 23.9393 15.8819 23.874 15.7419C23.8133 15.6019 23.727 15.4806 23.615 15.3779C23.5077 15.2706 23.3747 15.1796 23.216 15.1049C23.062 15.0256 22.8917 14.9579 22.705 14.9019L20.122 14.1389C19.87 14.0642 19.6133 13.9686 19.352 13.8519C19.0907 13.7306 18.8503 13.5742 18.631 13.3829C18.4163 13.1869 18.2413 12.9466 18.106 12.6619C17.9707 12.3726 17.903 12.0226 17.903 11.6119C17.903 10.9912 18.0617 10.4662 18.379 10.0369C18.701 9.60291 19.135 9.27624 19.681 9.05691C20.227 8.83291 20.8383 8.72091 21.515 8.72091C22.1963 8.73024 22.8053 8.85157 23.342 9.08491C23.8833 9.31824 24.3313 9.65424 24.686 10.0929C25.0453 10.5269 25.2927 11.0542 25.428 11.6749L23.86 11.9409C23.79 11.5629 23.6407 11.2386 23.412 10.9679C23.1833 10.6926 22.9033 10.4826 22.572 10.3379C22.2407 10.1886 21.8813 10.1116 21.494 10.1069C21.1207 10.0976 20.7777 10.1536 20.465 10.2749C20.157 10.3962 19.9097 10.5666 19.723 10.7859C19.541 11.0052 19.45 11.2572 19.45 11.5419C19.45 11.8219 19.5317 12.0482 19.695 12.2209C19.8583 12.3936 20.059 12.5312 20.297 12.6339C20.5397 12.7319 20.78 12.8136 21.018 12.8789L22.88 13.4039C23.1133 13.4692 23.377 13.5579 23.671 13.6699C23.9697 13.7772 24.2567 13.9289 24.532 14.1249C24.812 14.3209 25.043 14.5822 25.225 14.9089C25.407 15.2309 25.498 15.6369 25.498 16.1269C25.498 16.6356 25.3953 17.0836 25.19 17.4709C24.9847 17.8536 24.7023 18.1756 24.343 18.4369C23.9883 18.6936 23.5777 18.8872 23.111 19.0179C22.6443 19.1486 22.152 19.2139 21.634 19.2139Z" fill="#AC6CDA"/>
<path d="M20.187 53.212C19.179 53.212 18.3203 52.9926 17.611 52.554C16.9017 52.1106 16.358 51.4946 15.98 50.706C15.6067 49.9173 15.42 49.0026 15.42 47.962C15.42 46.9213 15.6067 46.0066 15.98 45.218C16.358 44.4293 16.9017 43.8156 17.611 43.377C18.3203 42.9336 19.179 42.712 20.187 42.712C21.1903 42.712 22.0467 42.9336 22.756 43.377C23.47 43.8156 24.0137 44.4293 24.387 45.218C24.7603 46.0066 24.947 46.9213 24.947 47.962C24.947 49.0026 24.7603 49.9173 24.387 50.706C24.0137 51.4946 23.47 52.1106 22.756 52.554C22.0467 52.9926 21.1903 53.212 20.187 53.212ZM20.187 51.819C20.901 51.8283 21.4937 51.672 21.965 51.35C22.441 51.0233 22.798 50.5706 23.036 49.992C23.274 49.4086 23.393 48.732 23.393 47.962C23.393 47.192 23.274 46.52 23.036 45.946C22.798 45.3673 22.441 44.917 21.965 44.595C21.4937 44.273 20.901 44.1096 20.187 44.105C19.473 44.0956 18.878 44.252 18.402 44.574C17.9307 44.896 17.576 45.3486 17.338 45.932C17.1 46.5153 16.9787 47.192 16.974 47.962C16.9693 48.732 17.086 49.4063 17.324 49.985C17.562 50.559 17.919 51.007 18.395 51.329C18.8757 51.651 19.473 51.8143 20.187 51.819Z" fill="#608080"/>
<path opacity="0.4" d="M57.115 19.0039L54.189 8.92391H55.722L57.843 16.5469L59.964 8.93091L61.504 8.92391L63.625 16.5469L65.746 8.92391H67.286L64.353 19.0039H62.897L60.734 11.4649L58.571 19.0039H57.115Z" fill="#AC6CDA"/>
<path opacity="0.4" d="M60.493 51.002V42.301H57.14V40.922H65.309V42.301H61.956V51.002H60.493Z" fill="#AC6CDA"/>
</svg>
