<svg width="110" height="99" viewBox="0 0 110 99" fill="none" xmlns="http://www.w3.org/2000/svg">
<path d="M20.9998 22.002C20.9998 19.7928 22.7906 18.002 24.9998 18.002H55.9998V46.002H20.9998V22.002Z" fill="#2E1042"/>
<path d="M60 18.002H91C93.2091 18.002 95 19.7928 95 22.002V46.002H60V18.002Z" fill="#2E1042"/>
<path d="M60 50.002H95V74.002C95 76.2111 93.2091 78.002 91 78.002H60V50.002Z" fill="#2E1042"/>
<path d="M16 50.002H56V82.002H20.5714C18.0467 82.002 16 79.9553 16 77.4305V50.002Z" fill="#AEC2C2"/>
<path opacity="0.4" d="M37.634 37.2139C36.9107 37.2139 36.2573 37.0902 35.674 36.8429C35.0953 36.5909 34.617 36.2339 34.239 35.7719C33.8657 35.3052 33.623 34.7522 33.511 34.1129L35.037 33.8819C35.191 34.4979 35.513 34.9786 36.003 35.3239C36.493 35.6646 37.0647 35.8349 37.718 35.8349C38.124 35.8349 38.4973 35.7719 38.838 35.6459C39.1787 35.5152 39.4517 35.3309 39.657 35.0929C39.867 34.8502 39.972 34.5609 39.972 34.2249C39.972 34.0429 39.9393 33.8819 39.874 33.7419C39.8133 33.6019 39.727 33.4806 39.615 33.3779C39.5077 33.2706 39.3747 33.1796 39.216 33.1049C39.062 33.0256 38.8917 32.9579 38.705 32.9019L36.122 32.1389C35.87 32.0642 35.6133 31.9686 35.352 31.8519C35.0907 31.7306 34.8503 31.5742 34.631 31.3829C34.4163 31.1869 34.2413 30.9466 34.106 30.6619C33.9707 30.3726 33.903 30.0226 33.903 29.6119C33.903 28.9912 34.0617 28.4662 34.379 28.0369C34.701 27.6029 35.135 27.2762 35.681 27.0569C36.227 26.8329 36.8383 26.7209 37.515 26.7209C38.1963 26.7302 38.8053 26.8516 39.342 27.0849C39.8833 27.3182 40.3313 27.6542 40.686 28.0929C41.0453 28.5269 41.2927 29.0542 41.428 29.6749L39.86 29.9409C39.79 29.5629 39.6407 29.2386 39.412 28.9679C39.1833 28.6926 38.9033 28.4826 38.572 28.3379C38.2407 28.1886 37.8813 28.1116 37.494 28.1069C37.1207 28.0976 36.7777 28.1536 36.465 28.2749C36.157 28.3962 35.9097 28.5666 35.723 28.7859C35.541 29.0052 35.45 29.2572 35.45 29.5419C35.45 29.8219 35.5317 30.0482 35.695 30.2209C35.8583 30.3936 36.059 30.5312 36.297 30.6339C36.5397 30.7319 36.78 30.8136 37.018 30.8789L38.88 31.4039C39.1133 31.4692 39.377 31.5579 39.671 31.6699C39.9697 31.7772 40.2567 31.9289 40.532 32.1249C40.812 32.3209 41.043 32.5822 41.225 32.9089C41.407 33.2309 41.498 33.6369 41.498 34.1269C41.498 34.6356 41.3953 35.0836 41.19 35.4709C40.9847 35.8536 40.7023 36.1756 40.343 36.4369C39.9883 36.6936 39.5777 36.8872 39.111 37.0179C38.6443 37.1486 38.152 37.2139 37.634 37.2139Z" fill="#943ACF"/>
<path d="M36.187 71.212C35.179 71.212 34.3203 70.9926 33.611 70.554C32.9017 70.1106 32.358 69.4946 31.98 68.706C31.6067 67.9173 31.42 67.0026 31.42 65.962C31.42 64.9213 31.6067 64.0066 31.98 63.218C32.358 62.4293 32.9017 61.8156 33.611 61.377C34.3203 60.9336 35.179 60.712 36.187 60.712C37.1903 60.712 38.0467 60.9336 38.756 61.377C39.47 61.8156 40.0137 62.4293 40.387 63.218C40.7603 64.0066 40.947 64.9213 40.947 65.962C40.947 67.0026 40.7603 67.9173 40.387 68.706C40.0137 69.4946 39.47 70.1106 38.756 70.554C38.0467 70.9926 37.1903 71.212 36.187 71.212ZM36.187 69.819C36.901 69.8283 37.4937 69.672 37.965 69.35C38.441 69.0233 38.798 68.5706 39.036 67.992C39.274 67.4086 39.393 66.732 39.393 65.962C39.393 65.192 39.274 64.52 39.036 63.946C38.798 63.3673 38.441 62.917 37.965 62.595C37.4937 62.273 36.901 62.1096 36.187 62.105C35.473 62.0956 34.878 62.252 34.402 62.574C33.9307 62.896 33.576 63.3486 33.338 63.932C33.1 64.5153 32.9787 65.192 32.974 65.962C32.9693 66.732 33.086 67.4063 33.324 67.985C33.562 68.559 33.919 69.007 34.395 69.329C34.8757 69.651 35.473 69.8143 36.187 69.819Z" fill="#608080"/>
<path opacity="0.4" d="M73.115 37.0039L70.189 26.9239H71.722L73.843 34.5469L75.964 26.9309L77.504 26.9239L79.625 34.5469L81.746 26.9239H83.286L80.353 37.0039H78.897L76.734 29.4649L74.571 37.0039H73.115Z" fill="#943ACF"/>
<path opacity="0.4" d="M76.493 69.002V60.301H73.14V58.922H81.309V60.301H77.956V69.002H76.493Z" fill="#943ACF"/>
</svg>
