<svg width="16" height="16" viewBox="0 0 16 16" fill="none" xmlns="http://www.w3.org/2000/svg">
<path d="M4.4 0.400391L0.399902 0.400391V13.0004C0.399902 14.4363 1.56396 15.6004 2.9999 15.6004H15.5999V11.5004C15.5999 11.169 15.3313 10.9004 14.9999 10.9004C14.6685 10.9004 14.3999 11.169 14.3999 11.5004V14.4004H2.9999C2.2267 14.4004 1.5999 13.7736 1.5999 13.0004V1.60039H4.4C4.73137 1.60039 5 1.33176 5 1.00039C5 0.66902 4.73137 0.400391 4.4 0.400391Z" fill="#404040"/>
<path d="M7.3999 1.00039C7.3999 0.66902 7.66853 0.400391 7.9999 0.400391H15.5999V8.00039C15.5999 8.33176 15.3313 8.60039 14.9999 8.60039C14.6685 8.60039 14.3999 8.33176 14.3999 8.00039V2.39674L9.5441 7.00411C9.30371 7.2322 8.92395 7.22223 8.69586 6.98185C8.46778 6.74146 8.47775 6.3617 8.71813 6.13361L13.4958 1.60039H7.9999C7.66853 1.60039 7.3999 1.33176 7.3999 1.00039Z" fill="#404040"/>
</svg>
