<svg width="74" height="60" viewBox="0 0 74 60" fill="none" xmlns="http://www.w3.org/2000/svg">
<path d="M-0.00268555 4.00028C-0.00268555 1.79099 1.7883 0 3.99759 0H34.9998V28.002H-0.00268555V4.00028Z" fill="#AEC2C2"/>
<path d="M39 0H70C72.2091 0 74 1.79086 74 4V28H39V0Z" fill="#AEC2C2"/>
<path d="M39 32H74V55.4286C74 57.9533 71.9533 60 69.4286 60H39V32Z" fill="#AEC2C2"/>
<path d="M0 32H35V60H4C1.79086 60 0 58.2091 0 56V32Z" fill="#AEC2C2"/>
<path d="M17.634 19.21C16.9107 19.21 16.2573 19.0863 15.674 18.839C15.0953 18.587 14.617 18.23 14.239 17.768C13.8657 17.3013 13.623 16.7483 13.511 16.109L15.037 15.878C15.191 16.494 15.513 16.9747 16.003 17.32C16.493 17.6607 17.0647 17.831 17.718 17.831C18.124 17.831 18.4973 17.768 18.838 17.642C19.1787 17.5113 19.4517 17.327 19.657 17.089C19.867 16.8463 19.972 16.557 19.972 16.221C19.972 16.039 19.9393 15.878 19.874 15.738C19.8133 15.598 19.727 15.4767 19.615 15.374C19.5077 15.2667 19.3747 15.1757 19.216 15.101C19.062 15.0217 18.8917 14.954 18.705 14.898L16.122 14.135C15.87 14.0603 15.6133 13.9647 15.352 13.848C15.0907 13.7267 14.8503 13.5703 14.631 13.379C14.4163 13.183 14.2413 12.9427 14.106 12.658C13.9707 12.3687 13.903 12.0187 13.903 11.608C13.903 10.9873 14.0617 10.4623 14.379 10.033C14.701 9.599 15.135 9.27233 15.681 9.053C16.227 8.829 16.8383 8.717 17.515 8.717C18.1963 8.72633 18.8053 8.84767 19.342 9.081C19.8833 9.31433 20.3313 9.65033 20.686 10.089C21.0453 10.523 21.2927 11.0503 21.428 11.671L19.86 11.937C19.79 11.559 19.6407 11.2347 19.412 10.964C19.1833 10.6887 18.9033 10.4787 18.572 10.334C18.2407 10.1847 17.8813 10.1077 17.494 10.103C17.1207 10.0937 16.7777 10.1497 16.465 10.271C16.157 10.3923 15.9097 10.5627 15.723 10.782C15.541 11.0013 15.45 11.2533 15.45 11.538C15.45 11.818 15.5317 12.0443 15.695 12.217C15.8583 12.3897 16.059 12.5273 16.297 12.63C16.5397 12.728 16.78 12.8097 17.018 12.875L18.88 13.4C19.1133 13.4653 19.377 13.554 19.671 13.666C19.9697 13.7733 20.2567 13.925 20.532 14.121C20.812 14.317 21.043 14.5783 21.225 14.905C21.407 15.227 21.498 15.633 21.498 16.123C21.498 16.6317 21.3953 17.0797 21.19 17.467C20.9847 17.8497 20.7023 18.1717 20.343 18.433C19.9883 18.6897 19.5777 18.8833 19.111 19.014C18.6443 19.1447 18.152 19.21 17.634 19.21Z" fill="#608080"/>
<path d="M17.187 51.212C16.179 51.212 15.3203 50.9926 14.611 50.554C13.9017 50.1106 13.358 49.4946 12.98 48.706C12.6067 47.9173 12.42 47.0026 12.42 45.962C12.42 44.9213 12.6067 44.0066 12.98 43.218C13.358 42.4293 13.9017 41.8156 14.611 41.377C15.3203 40.9336 16.179 40.712 17.187 40.712C18.1903 40.712 19.0467 40.9336 19.756 41.377C20.47 41.8156 21.0137 42.4293 21.387 43.218C21.7603 44.0066 21.947 44.9213 21.947 45.962C21.947 47.0026 21.7603 47.9173 21.387 48.706C21.0137 49.4946 20.47 50.1106 19.756 50.554C19.0467 50.9926 18.1903 51.212 17.187 51.212ZM17.187 49.819C17.901 49.8283 18.4937 49.672 18.965 49.35C19.441 49.0233 19.798 48.5706 20.036 47.992C20.274 47.4086 20.393 46.732 20.393 45.962C20.393 45.192 20.274 44.52 20.036 43.946C19.798 43.3673 19.441 42.917 18.965 42.595C18.4937 42.273 17.901 42.1096 17.187 42.105C16.473 42.0956 15.878 42.252 15.402 42.574C14.9307 42.896 14.576 43.3486 14.338 43.932C14.1 44.5153 13.9787 45.192 13.974 45.962C13.9693 46.732 14.086 47.4063 14.324 47.985C14.562 48.559 14.919 49.007 15.395 49.329C15.8757 49.651 16.473 49.8143 17.187 49.819Z" fill="#608080"/>
<path d="M53.115 19L50.189 8.92H51.722L53.843 16.543L55.964 8.927L57.504 8.92L59.625 16.543L61.746 8.92H63.286L60.353 19H58.897L56.734 11.461L54.571 19H53.115Z" fill="#608080"/>
<path d="M56.493 51V42.299H53.14V40.92H61.309V42.299H57.956V51H56.493Z" fill="#608080"/>
</svg>
