<svg width="12" height="12" viewBox="0 0 12 12" fill="none" xmlns="http://www.w3.org/2000/svg">
<path fill-rule="evenodd" clip-rule="evenodd" d="M3.23776 1.19922C2.21815 1.19922 1.3916 2.02577 1.3916 3.04537V8.95306C1.3916 9.97267 2.21815 10.7992 3.23776 10.7992H7.66852C8.68813 10.7992 9.51468 9.97267 9.51468 8.95306V8.2146C9.51468 8.01068 9.34937 7.84537 9.14545 7.84537C8.94153 7.84537 8.77622 8.01068 8.77622 8.2146V8.95306C8.77622 9.56483 8.28029 10.0608 7.66852 10.0608H6.1916L6.1916 1.93768H7.66852C8.28029 1.93768 8.77622 2.43361 8.77622 3.04537C8.77622 3.24929 8.94153 3.4146 9.14545 3.4146C9.34937 3.4146 9.51468 3.24929 9.51468 3.04537C9.51468 2.02577 8.68813 1.19922 7.66852 1.19922H3.23776ZM5.45314 1.93768H3.23776C2.62599 1.93768 2.13006 2.43361 2.13006 3.04537V8.95306C2.13006 9.56483 2.62599 10.0608 3.23776 10.0608H5.45314V1.93768ZM9.14545 4.15306C9.34937 4.15306 9.51468 4.31838 9.51468 4.5223V5.26076H10.2531C10.4571 5.26076 10.6224 5.42607 10.6224 5.62999C10.6224 5.83391 10.4571 5.99922 10.2531 5.99922H9.51468V6.73768C9.51468 6.9416 9.34937 7.10691 9.14545 7.10691C8.94153 7.10691 8.77622 6.9416 8.77622 6.73768V5.99922H8.03776C7.83384 5.99922 7.66852 5.83391 7.66852 5.62999C7.66852 5.42607 7.83384 5.26076 8.03776 5.26076H8.77622V4.5223C8.77622 4.31838 8.94153 4.15306 9.14545 4.15306Z" fill="#404040"/>
</svg>
