<svg width="110" height="99" viewBox="0 0 110 99" fill="none" xmlns="http://www.w3.org/2000/svg">
<path d="M15.9973 18.5717C15.9973 16.0468 18.0441 14 20.569 14H55.9998V46.002H15.9973V18.5717Z" fill="#AEC2C2"/>
<path d="M60 18H95V42C95 44.2091 93.2091 46 91 46H60V18Z" fill="#2E1042"/>
<path d="M60 50H95V74C95 76.2091 93.2091 78 91 78H60V50Z" fill="#2E1042"/>
<path d="M21 50H56V74C56 76.2091 54.2091 78 52 78H21V50Z" fill="#2E1042"/>
<path d="M35.634 35.21C34.9107 35.21 34.2573 35.0863 33.674 34.839C33.0953 34.587 32.617 34.23 32.239 33.768C31.8657 33.3013 31.623 32.7483 31.511 32.109L33.037 31.878C33.191 32.494 33.513 32.9747 34.003 33.32C34.493 33.6607 35.0647 33.831 35.718 33.831C36.124 33.831 36.4973 33.768 36.838 33.642C37.1787 33.5113 37.4517 33.327 37.657 33.089C37.867 32.8463 37.972 32.557 37.972 32.221C37.972 32.039 37.9393 31.878 37.874 31.738C37.8133 31.598 37.727 31.4767 37.615 31.374C37.5077 31.2667 37.3747 31.1757 37.216 31.101C37.062 31.0217 36.8917 30.954 36.705 30.898L34.122 30.135C33.87 30.0603 33.6133 29.9647 33.352 29.848C33.0907 29.7267 32.8503 29.5703 32.631 29.379C32.4163 29.183 32.2413 28.9427 32.106 28.658C31.9707 28.3687 31.903 28.0187 31.903 27.608C31.903 26.9873 32.0617 26.4623 32.379 26.033C32.701 25.599 33.135 25.2723 33.681 25.053C34.227 24.829 34.8383 24.717 35.515 24.717C36.1963 24.7263 36.8053 24.8477 37.342 25.081C37.8833 25.3143 38.3313 25.6503 38.686 26.089C39.0453 26.523 39.2927 27.0503 39.428 27.671L37.86 27.937C37.79 27.559 37.6407 27.2347 37.412 26.964C37.1833 26.6887 36.9033 26.4787 36.572 26.334C36.2407 26.1847 35.8813 26.1077 35.494 26.103C35.1207 26.0937 34.7777 26.1497 34.465 26.271C34.157 26.3923 33.9097 26.5627 33.723 26.782C33.541 27.0013 33.45 27.2533 33.45 27.538C33.45 27.818 33.5317 28.0443 33.695 28.217C33.8583 28.3897 34.059 28.5273 34.297 28.63C34.5397 28.728 34.78 28.8097 35.018 28.875L36.88 29.4C37.1133 29.4653 37.377 29.554 37.671 29.666C37.9697 29.7733 38.2567 29.925 38.532 30.121C38.812 30.317 39.043 30.5783 39.225 30.905C39.407 31.227 39.498 31.633 39.498 32.123C39.498 32.6317 39.3953 33.0797 39.19 33.467C38.9847 33.8497 38.7023 34.1717 38.343 34.433C37.9883 34.6897 37.5777 34.8833 37.111 35.014C36.6443 35.1447 36.152 35.21 35.634 35.21Z" fill="#608080"/>
<path opacity="0.4" d="M38.187 69.21C37.179 69.21 36.3203 68.9907 35.611 68.552C34.9017 68.1087 34.358 67.4927 33.98 66.704C33.6067 65.9153 33.42 65.0007 33.42 63.96C33.42 62.9193 33.6067 62.0047 33.98 61.216C34.358 60.4273 34.9017 59.8137 35.611 59.375C36.3203 58.9317 37.179 58.71 38.187 58.71C39.1903 58.71 40.0467 58.9317 40.756 59.375C41.47 59.8137 42.0137 60.4273 42.387 61.216C42.7603 62.0047 42.947 62.9193 42.947 63.96C42.947 65.0007 42.7603 65.9153 42.387 66.704C42.0137 67.4927 41.47 68.1087 40.756 68.552C40.0467 68.9907 39.1903 69.21 38.187 69.21ZM38.187 67.817C38.901 67.8263 39.4937 67.67 39.965 67.348C40.441 67.0213 40.798 66.5687 41.036 65.99C41.274 65.4067 41.393 64.73 41.393 63.96C41.393 63.19 41.274 62.518 41.036 61.944C40.798 61.3653 40.441 60.915 39.965 60.593C39.4937 60.271 38.901 60.1077 38.187 60.103C37.473 60.0937 36.878 60.25 36.402 60.572C35.9307 60.894 35.576 61.3467 35.338 61.93C35.1 62.5133 34.9787 63.19 34.974 63.96C34.9693 64.73 35.086 65.4043 35.324 65.983C35.562 66.557 35.919 67.005 36.395 67.327C36.8757 67.649 37.473 67.8123 38.187 67.817Z" fill="#943ACF"/>
<path opacity="0.4" d="M73.115 37.002L70.189 26.922H71.722L73.843 34.545L75.964 26.929L77.504 26.922L79.625 34.545L81.746 26.922H83.286L80.353 37.002H78.897L76.734 29.463L74.571 37.002H73.115Z" fill="#943ACF"/>
<path opacity="0.4" d="M76.4928 69V60.299H73.1398V58.92H81.3088V60.299H77.9558V69H76.4928Z" fill="#943ACF"/>
</svg>
