<svg width="79" height="64" viewBox="0 0 79 64" fill="none" xmlns="http://www.w3.org/2000/svg">
<path d="M-0.00268555 4.57171C-0.00268555 2.04682 2.04414 0 4.56902 0H39.9998V32.002H-0.00268555V4.57171Z" fill="#DCE3E5"/>
<path d="M44 4H75C77.2091 4 79 5.79086 79 8V32H44V4Z" fill="#F6EFFB"/>
<path d="M44 36H79V60C79 62.2091 77.2091 64 75 64H44V36Z" fill="#F6EFFB"/>
<path d="M5 36H40V64H9C6.79086 64 5 62.2091 5 60V36Z" fill="#F6EFFB"/>
<path d="M19.634 21.21C18.9107 21.21 18.2573 21.0863 17.674 20.839C17.0953 20.587 16.617 20.23 16.239 19.768C15.8657 19.3013 15.623 18.7483 15.511 18.109L17.037 17.878C17.191 18.494 17.513 18.9747 18.003 19.32C18.493 19.6607 19.0647 19.831 19.718 19.831C20.124 19.831 20.4973 19.768 20.838 19.642C21.1787 19.5113 21.4517 19.327 21.657 19.089C21.867 18.8463 21.972 18.557 21.972 18.221C21.972 18.039 21.9393 17.878 21.874 17.738C21.8133 17.598 21.727 17.4767 21.615 17.374C21.5077 17.2667 21.3747 17.1757 21.216 17.101C21.062 17.0217 20.8917 16.954 20.705 16.898L18.122 16.135C17.87 16.0603 17.6133 15.9647 17.352 15.848C17.0907 15.7267 16.8503 15.5703 16.631 15.379C16.4163 15.183 16.2413 14.9427 16.106 14.658C15.9707 14.3687 15.903 14.0187 15.903 13.608C15.903 12.9873 16.0617 12.4623 16.379 12.033C16.701 11.599 17.135 11.2723 17.681 11.053C18.227 10.829 18.8383 10.717 19.515 10.717C20.1963 10.7263 20.8053 10.8477 21.342 11.081C21.8833 11.3143 22.3313 11.6503 22.686 12.089C23.0453 12.523 23.2927 13.0503 23.428 13.671L21.86 13.937C21.79 13.559 21.6407 13.2347 21.412 12.964C21.1833 12.6887 20.9033 12.4787 20.572 12.334C20.2407 12.1847 19.8813 12.1077 19.494 12.103C19.1207 12.0937 18.7777 12.1497 18.465 12.271C18.157 12.3923 17.9097 12.5627 17.723 12.782C17.541 13.0013 17.45 13.2533 17.45 13.538C17.45 13.818 17.5317 14.0443 17.695 14.217C17.8583 14.3897 18.059 14.5273 18.297 14.63C18.5397 14.728 18.78 14.8097 19.018 14.875L20.88 15.4C21.1133 15.4653 21.377 15.554 21.671 15.666C21.9697 15.7733 22.2567 15.925 22.532 16.121C22.812 16.317 23.043 16.5783 23.225 16.905C23.407 17.227 23.498 17.633 23.498 18.123C23.498 18.6317 23.3953 19.0797 23.19 19.467C22.9847 19.8497 22.7023 20.1717 22.343 20.433C21.9883 20.6897 21.5777 20.8833 21.111 21.014C20.6443 21.1447 20.152 21.21 19.634 21.21Z" fill="#608080"/>
<path opacity="0.4" d="M22.187 55.21C21.179 55.21 20.3203 54.9907 19.611 54.552C18.9017 54.1087 18.358 53.4927 17.98 52.704C17.6067 51.9153 17.42 51.0007 17.42 49.96C17.42 48.9193 17.6067 48.0047 17.98 47.216C18.358 46.4273 18.9017 45.8137 19.611 45.375C20.3203 44.9317 21.179 44.71 22.187 44.71C23.1903 44.71 24.0467 44.9317 24.756 45.375C25.47 45.8137 26.0137 46.4273 26.387 47.216C26.7603 48.0047 26.947 48.9193 26.947 49.96C26.947 51.0007 26.7603 51.9153 26.387 52.704C26.0137 53.4927 25.47 54.1087 24.756 54.552C24.0467 54.9907 23.1903 55.21 22.187 55.21ZM22.187 53.817C22.901 53.8263 23.4937 53.67 23.965 53.348C24.441 53.0213 24.798 52.5687 25.036 51.99C25.274 51.4067 25.393 50.73 25.393 49.96C25.393 49.19 25.274 48.518 25.036 47.944C24.798 47.3653 24.441 46.915 23.965 46.593C23.4937 46.271 22.901 46.1077 22.187 46.103C21.473 46.0937 20.878 46.25 20.402 46.572C19.9307 46.894 19.576 47.3467 19.338 47.93C19.1 48.5133 18.9787 49.19 18.974 49.96C18.9693 50.73 19.086 51.4043 19.324 51.983C19.562 52.557 19.919 53.005 20.395 53.327C20.8757 53.649 21.473 53.8123 22.187 53.817Z" fill="#AC6CDA"/>
<path opacity="0.4" d="M57.115 23.002L54.189 12.922H55.722L57.843 20.545L59.964 12.929L61.504 12.922L63.625 20.545L65.746 12.922H67.286L64.353 23.002H62.897L60.734 15.463L58.571 23.002H57.115Z" fill="#AC6CDA"/>
<path opacity="0.4" d="M60.4928 55V46.299H57.1398V44.92H65.3088V46.299H61.9558V55H60.4928Z" fill="#AC6CDA"/>
</svg>
