<svg width="80" height="64" viewBox="0 0 80 64" fill="none" xmlns="http://www.w3.org/2000/svg">
<path d="M5.5 4.00195C5.5 1.79281 7.29086 0.00195312 9.5 0.00195312H40.5V28.002H5.5V4.00195Z" fill="#F1F9F1"/>
<path d="M44.5 0.00195312H75.5C77.7091 0.00195312 79.5 1.79281 79.5 4.00195V28.002H44.5V0.00195312Z" fill="#FFFAEB"/>
<path d="M44.5 32.002H79.5V56.002C79.5 58.2111 77.7091 60.002 75.5 60.002H44.5V32.002Z" fill="#FFEBEB"/>
<path d="M0.5 32.002H40.5V64.0019H5.07143C2.5467 64.0019 0.5 61.9553 0.5 59.4305V32.002Z" fill="#F6EFFB"/>
<path opacity="0.5" d="M22.134 19.2139C21.4107 19.2139 20.7573 19.0902 20.174 18.8429C19.5953 18.5909 19.117 18.2339 18.739 17.7719C18.3657 17.3052 18.123 16.7522 18.011 16.1129L19.537 15.8819C19.691 16.4979 20.013 16.9786 20.503 17.3239C20.993 17.6646 21.5647 17.8349 22.218 17.8349C22.624 17.8349 22.9973 17.7719 23.338 17.6459C23.6787 17.5152 23.9517 17.3309 24.157 17.0929C24.367 16.8502 24.472 16.5609 24.472 16.2249C24.472 16.0429 24.4393 15.8819 24.374 15.7419C24.3133 15.6019 24.227 15.4806 24.115 15.3779C24.0077 15.2706 23.8747 15.1796 23.716 15.1049C23.562 15.0256 23.3917 14.9579 23.205 14.9019L20.622 14.1389C20.37 14.0642 20.1133 13.9686 19.852 13.8519C19.5907 13.7306 19.3503 13.5742 19.131 13.3829C18.9163 13.1869 18.7413 12.9466 18.606 12.6619C18.4707 12.3726 18.403 12.0226 18.403 11.6119C18.403 10.9912 18.5617 10.4662 18.879 10.0369C19.201 9.60291 19.635 9.27624 20.181 9.05691C20.727 8.83291 21.3383 8.72091 22.015 8.72091C22.6963 8.73024 23.3053 8.85157 23.842 9.08491C24.3833 9.31824 24.8313 9.65424 25.186 10.0929C25.5453 10.5269 25.7927 11.0542 25.928 11.6749L24.36 11.9409C24.29 11.5629 24.1407 11.2386 23.912 10.9679C23.6833 10.6926 23.4033 10.4826 23.072 10.3379C22.7407 10.1886 22.3813 10.1116 21.994 10.1069C21.6207 10.0976 21.2777 10.1536 20.965 10.2749C20.657 10.3962 20.4097 10.5666 20.223 10.7859C20.041 11.0052 19.95 11.2572 19.95 11.5419C19.95 11.8219 20.0317 12.0482 20.195 12.2209C20.3583 12.3936 20.559 12.5312 20.797 12.6339C21.0397 12.7319 21.28 12.8136 21.518 12.8789L23.38 13.4039C23.6133 13.4692 23.877 13.5579 24.171 13.6699C24.4697 13.7772 24.7567 13.9289 25.032 14.1249C25.312 14.3209 25.543 14.5822 25.725 14.9089C25.907 15.2309 25.998 15.6369 25.998 16.1269C25.998 16.6356 25.8953 17.0836 25.69 17.4709C25.4847 17.8536 25.2023 18.1756 24.843 18.4369C24.4883 18.6936 24.0777 18.8872 23.611 19.0179C23.1443 19.1486 22.652 19.2139 22.134 19.2139Z" fill="#449C47"/>
<path opacity="0.5" d="M20.687 53.212C19.679 53.212 18.8203 52.9926 18.111 52.554C17.4017 52.1106 16.858 51.4946 16.48 50.706C16.1067 49.9173 15.92 49.0026 15.92 47.962C15.92 46.9213 16.1067 46.0066 16.48 45.218C16.858 44.4293 17.4017 43.8156 18.111 43.377C18.8203 42.9336 19.679 42.712 20.687 42.712C21.6903 42.712 22.5467 42.9336 23.256 43.377C23.97 43.8156 24.5137 44.4293 24.887 45.218C25.2603 46.0066 25.447 46.9213 25.447 47.962C25.447 49.0026 25.2603 49.9173 24.887 50.706C24.5137 51.4946 23.97 52.1106 23.256 52.554C22.5467 52.9926 21.6903 53.212 20.687 53.212ZM20.687 51.819C21.401 51.8283 21.9937 51.672 22.465 51.35C22.941 51.0233 23.298 50.5706 23.536 49.992C23.774 49.4086 23.893 48.732 23.893 47.962C23.893 47.192 23.774 46.52 23.536 45.946C23.298 45.3673 22.941 44.917 22.465 44.595C21.9937 44.273 21.401 44.1096 20.687 44.105C19.973 44.0956 19.378 44.252 18.902 44.574C18.4307 44.896 18.076 45.3486 17.838 45.932C17.6 46.5153 17.4787 47.192 17.474 47.962C17.4693 48.732 17.586 49.4063 17.824 49.985C18.062 50.559 18.419 51.007 18.895 51.329C19.3757 51.651 19.973 51.8143 20.687 51.819Z" fill="#AC6CDA"/>
<path opacity="0.5" d="M57.615 19.0039L54.689 8.92391H56.222L58.343 16.5469L60.464 8.93091L62.004 8.92391L64.125 16.5469L66.246 8.92391H67.786L64.853 19.0039H63.397L61.234 11.4649L59.071 19.0039H57.615Z" fill="#B88A00"/>
<path d="M60.993 51.002V42.301H57.64V40.922H65.809V42.301H62.456V51.002H60.993Z" fill="#F50000"/>
</svg>
