<svg width="79" height="64" viewBox="0 0 79 64" fill="none" xmlns="http://www.w3.org/2000/svg">
<path d="M-0.00268555 8.00028C-0.00268555 5.79099 1.7883 4 3.99759 4H34.9998V32.002H-0.00268555V8.00028Z" fill="#F6EFFB"/>
<path d="M39 0H74.4286C76.9533 0 79 2.0467 79 4.57143V32H39V0Z" fill="#DCE3E5"/>
<path d="M39 36H74V60C74 62.2091 72.2091 64 70 64H39V36Z" fill="#F6EFFB"/>
<path d="M0 36H35V64H4C1.79086 64 0 62.2091 0 60V36Z" fill="#F6EFFB"/>
<path opacity="0.4" d="M18.634 23.21C17.9107 23.21 17.2573 23.0863 16.674 22.839C16.0953 22.587 15.617 22.23 15.239 21.768C14.8657 21.3013 14.623 20.7483 14.511 20.109L16.037 19.878C16.191 20.494 16.513 20.9747 17.003 21.32C17.493 21.6607 18.0647 21.831 18.718 21.831C19.124 21.831 19.4973 21.768 19.838 21.642C20.1787 21.5113 20.4517 21.327 20.657 21.089C20.867 20.8463 20.972 20.557 20.972 20.221C20.972 20.039 20.9393 19.878 20.874 19.738C20.8133 19.598 20.727 19.4767 20.615 19.374C20.5077 19.2667 20.3747 19.1757 20.216 19.101C20.062 19.0217 19.8917 18.954 19.705 18.898L17.122 18.135C16.87 18.0603 16.6133 17.9647 16.352 17.848C16.0907 17.7267 15.8503 17.5703 15.631 17.379C15.4163 17.183 15.2413 16.9427 15.106 16.658C14.9707 16.3687 14.903 16.0187 14.903 15.608C14.903 14.9873 15.0617 14.4623 15.379 14.033C15.701 13.599 16.135 13.2723 16.681 13.053C17.227 12.829 17.8383 12.717 18.515 12.717C19.1963 12.7263 19.8053 12.8477 20.342 13.081C20.8833 13.3143 21.3313 13.6503 21.686 14.089C22.0453 14.523 22.2927 15.0503 22.428 15.671L20.86 15.937C20.79 15.559 20.6407 15.2347 20.412 14.964C20.1833 14.6887 19.9033 14.4787 19.572 14.334C19.2407 14.1847 18.8813 14.1077 18.494 14.103C18.1207 14.0937 17.7777 14.1497 17.465 14.271C17.157 14.3923 16.9097 14.5627 16.723 14.782C16.541 15.0013 16.45 15.2533 16.45 15.538C16.45 15.818 16.5317 16.0443 16.695 16.217C16.8583 16.3897 17.059 16.5273 17.297 16.63C17.5397 16.728 17.78 16.8097 18.018 16.875L19.88 17.4C20.1133 17.4653 20.377 17.554 20.671 17.666C20.9697 17.7733 21.2567 17.925 21.532 18.121C21.812 18.317 22.043 18.5783 22.225 18.905C22.407 19.227 22.498 19.633 22.498 20.123C22.498 20.6317 22.3953 21.0797 22.19 21.467C21.9847 21.8497 21.7023 22.1717 21.343 22.433C20.9883 22.6897 20.5777 22.8833 20.111 23.014C19.6443 23.1447 19.152 23.21 18.634 23.21Z" fill="#AC6CDA"/>
<path opacity="0.4" d="M17.187 55.21C16.179 55.21 15.3203 54.9907 14.611 54.552C13.9017 54.1087 13.358 53.4927 12.98 52.704C12.6067 51.9153 12.42 51.0007 12.42 49.96C12.42 48.9193 12.6067 48.0047 12.98 47.216C13.358 46.4273 13.9017 45.8137 14.611 45.375C15.3203 44.9317 16.179 44.71 17.187 44.71C18.1903 44.71 19.0467 44.9317 19.756 45.375C20.47 45.8137 21.0137 46.4273 21.387 47.216C21.7603 48.0047 21.947 48.9193 21.947 49.96C21.947 51.0007 21.7603 51.9153 21.387 52.704C21.0137 53.4927 20.47 54.1087 19.756 54.552C19.0467 54.9907 18.1903 55.21 17.187 55.21ZM17.187 53.817C17.901 53.8263 18.4937 53.67 18.965 53.348C19.441 53.0213 19.798 52.5687 20.036 51.99C20.274 51.4067 20.393 50.73 20.393 49.96C20.393 49.19 20.274 48.518 20.036 47.944C19.798 47.3653 19.441 46.915 18.965 46.593C18.4937 46.271 17.901 46.1077 17.187 46.103C16.473 46.0937 15.878 46.25 15.402 46.572C14.9307 46.894 14.576 47.3467 14.338 47.93C14.1 48.5133 13.9787 49.19 13.974 49.96C13.9693 50.73 14.086 51.4043 14.324 51.983C14.562 52.557 14.919 53.005 15.395 53.327C15.8757 53.649 16.473 53.8123 17.187 53.817Z" fill="#AC6CDA"/>
<path d="M55.115 21L52.189 10.92H53.722L55.843 18.543L57.964 10.927L59.504 10.92L61.625 18.543L63.746 10.92H65.286L62.353 21H60.897L58.734 13.461L56.571 21H55.115Z" fill="#608080"/>
<path opacity="0.4" d="M55.4928 55V46.299H52.1398V44.92H60.3088V46.299H56.9558V55H55.4928Z" fill="#AC6CDA"/>
</svg>
