<svg width="16" height="16" viewBox="0 0 16 16" fill="none" xmlns="http://www.w3.org/2000/svg">
<path fill-rule="evenodd" clip-rule="evenodd" d="M10.4007 14.6656L8.4074 13.4856C8.20073 13.3656 7.80073 13.3656 7.60073 13.4856L5.60073 14.6656C4.42073 15.3656 3.7274 15.0856 3.41406 14.8589C3.1074 14.6322 2.6274 14.0522 2.94073 12.7189L3.41406 10.6722C3.4674 10.4589 3.36073 10.0922 3.20073 9.93224L1.5474 8.27891C0.72073 7.45224 0.787396 6.74557 0.90073 6.39891C1.01406 6.05224 1.37406 5.43891 2.52073 5.24557L4.6474 4.89224C4.8474 4.85891 5.13406 4.64557 5.22073 4.46557L6.40073 2.11224C6.93406 1.03891 7.63406 0.878906 8.00073 0.878906C8.3674 0.878906 9.0674 1.03891 9.60073 2.11224L10.7741 4.45891C10.8674 4.63891 11.1541 4.85224 11.3541 4.88557L13.4807 5.23891C14.6341 5.43224 14.9941 6.04557 15.1007 6.39224C15.2074 6.73891 15.2741 7.44557 14.4541 8.27224L12.8007 9.93224C12.6407 10.0922 12.5407 10.4522 12.5874 10.6722L13.0607 12.7189C13.3674 14.0522 12.8941 14.6322 12.5874 14.8589C12.4207 14.9789 12.1541 15.1122 11.7741 15.1122C11.4207 15.1122 10.9674 14.9989 10.4007 14.6656ZM8.91406 12.6256L10.9074 13.8056C11.4874 14.1522 11.8541 14.1522 11.9941 14.0522C12.1341 13.9522 12.2341 13.5989 12.0874 12.9456L11.6141 10.8989C11.4874 10.3456 11.6941 9.63224 12.0941 9.22557L13.7474 7.57224C14.0741 7.24557 14.2207 6.92557 14.1541 6.70557C14.0807 6.48557 13.7741 6.30557 13.3207 6.23224L11.1941 5.87891C10.6807 5.79224 10.1207 5.37891 9.8874 4.91224L8.71406 2.56557C8.50073 2.13891 8.23406 1.88557 8.00073 1.88557C7.7674 1.88557 7.50073 2.13891 7.29406 2.56557L6.11406 4.91224C5.88073 5.37891 5.32073 5.79224 4.8074 5.87891L2.6874 6.23224C2.23406 6.30557 1.9274 6.48557 1.85406 6.70557C1.78073 6.92557 1.93406 7.25224 2.26073 7.57224L3.91406 9.22557C4.31406 9.62557 4.52073 10.3456 4.39406 10.8989L3.92073 12.9456C3.7674 13.6056 3.87406 13.9522 4.01406 14.0522C4.15406 14.1522 4.51406 14.1456 5.10073 13.8056L7.09406 12.6256C7.3474 12.4722 7.67406 12.3922 8.00073 12.3922C8.3274 12.3922 8.65406 12.4722 8.91406 12.6256Z" fill="#FFD425"/>
<path d="M5.66634 4.66927L6.66634 2.66927L7.33301 1.66927L7.99967 1.33594L8.66634 2.0026L9.66634 3.66927L9.99967 4.66927L10.9997 5.33594L12.6663 5.66927L13.9997 6.0026L14.333 6.66927V7.0026L13.333 8.33594L11.9997 9.66927L11.6663 10.6693L12.333 11.6693L12.6663 13.3359L12.333 14.0026L11.9997 14.3359H11.333L9.33301 13.3359L8.66634 12.6693H7.66634L6.66634 13.3359L4.33301 14.3359H3.66634L3.33301 13.3359L3.99967 10.6693L3.66634 9.66927L1.33301 7.0026L1.66634 6.33594L2.99967 6.0026L4.33301 5.66927L5.66634 4.66927Z" fill="#FFD425" stroke="#FFD425" stroke-width="0.666667"/>
</svg>
