<svg width="374" height="226" viewBox="0 0 374 226" fill="none" xmlns="http://www.w3.org/2000/svg">
<rect x="111.096" y="53.961" width="160.231" height="171.404" rx="19.6798" fill="white" fill-opacity="0.76" stroke="white" stroke-width="1.26966"/>
<path fill-rule="evenodd" clip-rule="evenodd" d="M134.838 62.4678C126.423 62.4678 119.602 69.2891 119.602 77.7037V210.764C119.602 219.179 126.423 226 134.838 226H248.599C257.014 226 263.835 219.179 263.835 210.764V77.7037C263.835 69.2891 257.014 62.4678 248.599 62.4678H134.838ZM217.112 65.0071V62.4678H166.325V65.0071C166.325 69.2144 169.736 72.6251 173.943 72.6251H209.494C213.701 72.6251 217.112 69.2144 217.112 65.0071Z" fill="white"/>
<path fill-rule="evenodd" clip-rule="evenodd" d="M167.199 134.8H190.654V172.432L185.358 164.177V152.159H178.044L174.513 146.696H185.358V141.962H171.487L167.199 134.8ZM215.999 134.8H192.545V172.432L197.841 164.177V152.159H205.155L208.559 146.696H197.841V141.962H211.712L215.999 134.8Z" fill="url(#paint0_linear_4856_385218)"/>
<path fill-rule="evenodd" clip-rule="evenodd" d="M90.148 46.6609C86.9865 46.6609 85.3867 44.8707 85.3867 41.3283V37.6844C85.3867 36.3894 85.5391 34.5356 86.8849 33.5199C88.0149 32.6819 89.6401 32.6185 92.0398 33.3168C95.1885 34.2309 97.8167 36.8591 98.7309 40.0079C99.4292 42.3949 99.3657 44.0327 98.5277 45.15C97.512 46.5086 95.6583 46.6609 94.3632 46.6609H90.148ZM88.0403 35.0435C87.5451 35.4117 87.3039 36.2751 87.3039 37.6844V41.341C87.3039 44.1851 88.3958 44.7691 90.1607 44.7691H94.3759C95.7726 44.7691 96.6359 44.5279 97.0168 44.0327C97.4612 43.4487 97.4231 42.2806 96.928 40.5665C96.1916 38.0653 94.0331 35.8942 91.5319 35.1705C90.5923 34.8785 89.8305 34.7388 89.2338 34.7388C88.7132 34.7388 88.3069 34.8404 88.0403 35.0435Z" fill="white"/>
<path d="M83.1139 59.1928C77.9209 58.3548 73.693 54.1395 72.855 48.9466C71.7758 42.2682 76.0799 35.9706 82.6695 34.6248C83.19 34.5232 83.6852 34.8533 83.7995 35.3612C83.901 35.8818 83.5709 36.3769 83.0631 36.4912C77.4893 37.6339 73.8326 42.9665 74.7595 48.6419C75.4705 53.0349 79.0382 56.6027 83.4313 57.3137C89.1321 58.2278 94.4519 54.5585 95.5819 48.9593C95.6835 48.4387 96.1914 48.1086 96.6992 48.2102C97.2198 48.3118 97.5499 48.8196 97.4484 49.3275C96.2422 55.2568 91.0619 59.3578 85.158 59.3578C84.4851 59.3578 83.7995 59.3071 83.1139 59.1928Z" fill="white"/>
<g opacity="0.8">
<path d="M305.989 144.424C305.469 144.424 305.037 143.992 305.037 143.472C305.037 142.951 305.469 142.52 305.989 142.52H328.843C329.364 142.52 329.796 142.951 329.796 143.472C329.796 143.992 329.364 144.424 328.843 144.424H305.989Z" fill="white"/>
<path fill-rule="evenodd" clip-rule="evenodd" d="M307.257 140.615C306.038 140.615 305.035 139.612 305.035 138.393V127.448C305.035 126.23 306.038 125.227 307.257 125.227H309.288C310.507 125.227 311.51 126.23 311.51 127.448V138.393C311.51 139.612 310.507 140.615 309.288 140.615H307.257ZM306.94 127.436V138.393C306.94 138.571 307.079 138.71 307.257 138.71H309.288C309.466 138.71 309.606 138.571 309.606 138.393V127.448C309.606 127.271 309.466 127.131 309.288 127.131H307.257V127.118C307.079 127.118 306.94 127.258 306.94 127.436Z" fill="white"/>
<path fill-rule="evenodd" clip-rule="evenodd" d="M316.398 140.614C315.179 140.614 314.176 139.611 314.176 138.392V123.398C314.176 122.179 315.179 121.176 316.398 121.176H318.429C319.648 121.176 320.651 122.179 320.651 123.398V138.392C320.651 139.611 319.648 140.614 318.429 140.614H316.398ZM316.08 123.398V138.392C316.08 138.57 316.22 138.71 316.398 138.71H318.429C318.607 138.71 318.747 138.57 318.747 138.392V123.398C318.747 123.22 318.607 123.08 318.429 123.08H316.398C316.22 123.08 316.08 123.22 316.08 123.398Z" fill="white"/>
<path fill-rule="evenodd" clip-rule="evenodd" d="M325.542 140.615C324.323 140.615 323.32 139.612 323.32 138.393V119.348C323.32 118.129 324.323 117.126 325.542 117.126H327.574C328.793 117.126 329.796 118.129 329.796 119.348V138.393C329.796 139.612 328.793 140.615 327.574 140.615H325.542ZM325.225 119.348V138.393C325.225 138.571 325.364 138.71 325.542 138.71H327.574C327.751 138.71 327.891 138.571 327.891 138.393V119.348C327.891 119.17 327.751 119.03 327.574 119.03H325.542C325.364 119.03 325.225 119.17 325.225 119.348Z" fill="white"/>
</g>
<path d="M280.165 38.2924C279.797 37.9242 279.797 37.3148 280.165 36.9466L284.774 32.3377C285.142 31.9695 285.751 31.9695 286.12 32.3377C286.488 32.7059 286.488 33.3153 286.12 33.6835L281.511 38.2924C281.32 38.4701 281.079 38.5717 280.838 38.5717C280.597 38.5717 280.343 38.4701 280.165 38.2924Z" fill="white"/>
<path d="M297.455 38.2924L292.846 33.6835C292.478 33.3153 292.478 32.7059 292.846 32.3377C293.215 31.9695 293.824 31.9695 294.192 32.3377L298.801 36.9466C299.169 37.3148 299.169 37.9242 298.801 38.2924C298.623 38.4701 298.369 38.5717 298.128 38.5717C297.887 38.5717 297.646 38.4828 297.455 38.2924Z" fill="white"/>
<path fill-rule="evenodd" clip-rule="evenodd" d="M299.64 43.9304H299.348H279.326C278.437 43.9431 277.421 43.9431 276.685 43.2067C276.101 42.6354 275.834 41.7466 275.834 40.4388C275.834 36.9473 278.386 36.9473 279.605 36.9473H299.361C300.58 36.9473 303.132 36.9473 303.132 40.4388C303.132 41.7593 302.865 42.6354 302.281 43.2067C301.621 43.8669 300.732 43.9304 299.907 43.9304C299.818 43.9304 299.729 43.9304 299.64 43.9304ZM299.653 42.0259C300.224 42.0386 300.757 42.0386 300.935 41.8609C301.024 41.772 301.215 41.4673 301.215 40.4388C301.215 39.0041 300.859 38.8518 299.348 38.8518H279.605C278.094 38.8518 277.738 39.0041 277.738 40.4388C277.738 41.4673 277.942 41.772 278.018 41.8609C278.196 42.0259 278.742 42.0259 279.3 42.0259H279.605H299.653Z" fill="white"/>
<path d="M285.686 52.7545V48.2472C285.686 47.7266 286.117 47.2949 286.638 47.2949C287.158 47.2949 287.59 47.7266 287.59 48.2472V52.7545C287.59 53.2877 287.158 53.7067 286.638 53.7067C286.117 53.7067 285.686 53.275 285.686 52.7545Z" fill="white"/>
<path d="M291.525 52.7545V48.2472C291.525 47.7266 291.957 47.2949 292.478 47.2949C292.998 47.2949 293.43 47.7266 293.43 48.2472V52.7545C293.43 53.2877 292.998 53.7067 292.478 53.7067C291.957 53.7067 291.525 53.275 291.525 52.7545Z" fill="white"/>
<path d="M285.497 59.3562C280.951 59.3562 279.936 56.6518 279.542 54.303L277.752 43.3204C277.663 42.7998 278.019 42.3173 278.539 42.2285C279.06 42.1396 279.542 42.4951 279.631 43.0157L281.421 53.9855C281.789 56.2329 282.551 57.4517 285.497 57.4517H293.153C296.416 57.4517 296.784 56.309 297.203 54.0998L299.336 42.9903C299.438 42.4697 299.933 42.1269 300.453 42.2412C300.974 42.3427 301.304 42.8379 301.203 43.3585L299.07 54.468C298.574 57.0454 297.749 59.3562 293.153 59.3562H285.497Z" fill="white"/>
<g opacity="0.8">
<path d="M49.1992 143.472V134.584C49.1992 134.064 49.6309 133.632 50.1515 133.632C50.672 133.632 51.1037 134.064 51.1037 134.584V143.472C51.1037 143.992 50.672 144.424 50.1515 144.424C49.6309 144.424 49.1992 143.992 49.1992 143.472Z" fill="white"/>
<path d="M49.1992 121.887V118.078C49.1992 117.558 49.6309 117.126 50.1515 117.126C50.672 117.126 51.1037 117.558 51.1037 118.078V121.887C51.1037 122.408 50.672 122.839 50.1515 122.839C49.6309 122.839 49.1992 122.408 49.1992 121.887Z" fill="white"/>
<path d="M63.166 143.471V139.662C63.166 139.142 63.5977 138.71 64.1183 138.71C64.6388 138.71 65.0705 139.142 65.0705 139.662V143.471C65.0705 143.992 64.6388 144.423 64.1183 144.423C63.5977 144.423 63.166 143.992 63.166 143.471Z" fill="white"/>
<path d="M63.166 126.966V118.078C63.166 117.558 63.5977 117.126 64.1183 117.126C64.6388 117.126 65.0705 117.558 65.0705 118.078V126.966C65.0705 127.486 64.6388 127.918 64.1183 127.918C63.5977 127.918 63.166 127.486 63.166 126.966Z" fill="white"/>
<path fill-rule="evenodd" clip-rule="evenodd" d="M48.8802 135.536C46.6964 135.536 45.3887 134.228 45.3887 132.044V124.426C45.3887 122.242 46.6964 120.935 48.8802 120.935H51.4196C53.6034 120.935 54.9111 122.242 54.9111 124.426V132.044C54.9111 134.228 53.6034 135.536 51.4196 135.536H48.8802ZM47.2932 124.426V132.044C47.2932 133.174 47.7502 133.631 48.8802 133.631H51.4196C52.5496 133.631 53.0066 133.174 53.0066 132.044V124.426C53.0066 123.296 52.5496 122.839 51.4196 122.839H48.8802C47.7502 122.839 47.2932 123.296 47.2932 124.426Z" fill="white"/>
<path fill-rule="evenodd" clip-rule="evenodd" d="M62.849 140.615C60.6652 140.615 59.3574 139.307 59.3574 137.123V129.505C59.3574 127.321 60.6652 126.014 62.849 126.014H65.3883C67.5721 126.014 68.8799 127.321 68.8799 129.505V137.123C68.8799 139.307 67.5721 140.615 65.3883 140.615H62.849ZM61.2619 129.505V137.123C61.2619 138.253 61.719 138.71 62.849 138.71H65.3883C66.5183 138.71 66.9754 138.253 66.9754 137.123V129.505C66.9754 128.375 66.5183 127.918 65.3883 127.918H62.849C61.719 127.918 61.2619 128.375 61.2619 129.505Z" fill="white"/>
</g>
<g opacity="0.9">
<path fill-rule="evenodd" clip-rule="evenodd" d="M351.695 92.3674C347.327 92.3674 344.395 89.4345 344.395 85.0668V78.7185C344.395 74.808 346.807 71.9766 350.552 71.5069C350.908 71.4561 351.301 71.418 351.695 71.418H364.392C364.696 71.418 365.09 71.4307 365.496 71.4941C369.242 71.9258 371.692 74.7699 371.692 78.7185V85.0668C371.692 89.4345 368.759 92.3674 364.392 92.3674H351.695ZM350.806 73.3859C348.013 73.7414 346.299 75.7729 346.299 78.7185V85.0668C346.299 88.3426 348.419 90.4629 351.695 90.4629H364.392C367.667 90.4629 369.788 88.3426 369.788 85.0668V78.7185C369.788 75.7475 368.048 73.7034 365.23 73.3733C364.925 73.3225 364.658 73.3225 364.392 73.3225H351.695C351.39 73.3225 351.098 73.3478 350.806 73.3859Z" fill="white"/>
<path fill-rule="evenodd" clip-rule="evenodd" d="M349.894 73.0035C349.679 72.7115 349.653 72.3306 349.818 72.0132C350.034 71.5815 350.339 71.1625 350.732 70.7816L354.859 66.6425C356.966 64.5476 360.395 64.5476 362.502 66.6425L364.724 68.8898C365.664 69.8167 366.235 71.0609 366.298 72.3814C366.311 72.6734 366.197 72.9527 365.981 73.1432C365.765 73.3336 365.473 73.4225 365.194 73.3717C364.94 73.3336 364.673 73.3209 364.394 73.3209H351.697C351.393 73.3209 351.101 73.3463 350.809 73.3844C350.77 73.3971 350.72 73.3971 350.669 73.3971C350.364 73.3971 350.085 73.2575 349.894 73.0035ZM364.165 71.4164C364 70.9848 363.734 70.5912 363.378 70.2357L361.144 67.9757C359.785 66.6298 357.563 66.6298 356.192 67.9757L352.789 71.4164H364.165Z" fill="white"/>
<path d="M366.933 85.3845C365.003 85.3845 363.441 83.8228 363.441 81.8929C363.441 79.9631 365.003 78.4014 366.933 78.4014H370.742C371.263 78.4014 371.694 78.8331 371.694 79.3536C371.694 79.8742 371.263 80.3059 370.742 80.3059H366.933C366.057 80.3059 365.346 81.0169 365.346 81.8929C365.346 82.769 366.057 83.48 366.933 83.48H370.742C371.263 83.48 371.694 83.9117 371.694 84.4323C371.694 84.9528 371.263 85.3845 370.742 85.3845H366.933Z" fill="white"/>
</g>
<g opacity="0.9">
<path fill-rule="evenodd" clip-rule="evenodd" d="M6.53961 85.5999C5.47309 85.2317 4.66051 84.4826 4.305 83.505C3.9368 82.5273 4.06376 81.4481 4.64781 80.4832L6.10792 78.0581C6.41264 77.5503 6.69197 76.5345 6.69197 75.9378V72.2685C6.69197 67.5453 10.539 63.6982 15.2622 63.6982C19.9853 63.6982 23.8324 67.5453 23.8324 72.2685V75.9378C23.8324 76.5218 24.1117 77.5503 24.4165 78.0708L25.8639 80.4832C26.4098 81.3973 26.5114 82.502 26.1432 83.505C25.775 84.508 24.9751 85.2698 23.9721 85.5999C21.1788 86.5395 18.2205 87.0093 15.2622 87.0093C12.3039 87.0093 9.34556 86.5395 6.53961 85.5999ZM8.59646 72.2685V75.9378C8.59646 76.8646 8.21556 78.2359 7.74579 79.0358L6.28567 81.4608C6.00635 81.9306 5.93017 82.4258 6.09523 82.8448C6.24759 83.2764 6.62848 83.6066 7.14905 83.7843C12.4562 85.5618 18.0808 85.5618 23.388 83.7843C23.8451 83.632 24.2006 83.2891 24.3657 82.8321C24.5307 82.375 24.4926 81.8798 24.2387 81.4608L22.7786 79.0358C22.2961 78.2105 21.9279 76.852 21.9279 75.9251V72.2685C21.9279 68.5864 18.9442 65.6027 15.2622 65.6027C11.5929 65.6027 8.59646 68.5864 8.59646 72.2685Z" fill="white"/>
<path d="M17.3563 65.9076C16.9881 65.806 16.6326 65.7298 16.2898 65.679C15.2106 65.5394 14.1694 65.6156 13.1918 65.9076C12.8363 66.0219 12.4554 65.9076 12.2142 65.641C11.9729 65.3743 11.8967 64.9934 12.0364 64.6506C12.557 63.3175 13.8266 62.4414 15.274 62.4414C16.7215 62.4414 17.9911 63.3048 18.5117 64.6506C18.6386 64.9934 18.5752 65.3743 18.3339 65.641C18.1435 65.8441 17.8769 65.9457 17.6229 65.9457C17.534 65.9457 17.4452 65.933 17.3563 65.9076Z" fill="white"/>
<path d="M11.8966 88.5082C11.0079 87.6194 10.5 86.4005 10.5 85.1436H12.4045C12.4045 85.8927 12.7092 86.6291 13.2425 87.1623C13.7757 87.6956 14.5121 88.0003 15.2612 88.0003C16.8356 88.0003 18.118 86.7179 18.118 85.1436H20.0225C20.0225 87.7718 17.8894 89.9048 15.2612 89.9048C14.0043 89.9048 12.7854 89.3969 11.8966 88.5082Z" fill="white"/>
</g>
<path fill-rule="evenodd" clip-rule="evenodd" d="M186.959 18.0289C186.959 14.7024 189.663 11.998 192.99 11.998C196.316 11.998 199.021 14.7024 199.021 18.0289C199.021 21.3555 196.316 24.0598 192.99 24.0598C189.663 24.0598 186.959 21.3555 186.959 18.0289ZM188.863 18.0289C188.863 20.3016 190.717 22.1554 192.99 22.1554C195.263 22.1554 197.116 20.3016 197.116 18.0289C197.116 15.7562 195.263 13.9025 192.99 13.9025C190.717 13.9025 188.863 15.7562 188.863 18.0289Z" fill="white"/>
<path d="M191.162 19.6425L190.337 18.8172C189.968 18.449 189.968 17.8396 190.337 17.4714C190.705 17.1032 191.314 17.1032 191.683 17.4714L192.292 18.0808L194.336 16.2017C194.717 15.8462 195.326 15.8716 195.682 16.2525C196.037 16.6334 196.012 17.2428 195.631 17.5983L193.371 19.6806C193.054 19.9599 192.673 20.0996 192.279 20.0996C191.873 20.0996 191.467 19.9472 191.162 19.6425Z" fill="white"/>
<path fill-rule="evenodd" clip-rule="evenodd" d="M187.912 28.8851C182.046 28.8851 180.954 26.1553 180.675 23.5017L179.723 13.3317C179.583 11.9986 179.545 10.0306 180.865 8.55781C182.008 7.28815 183.9 6.67871 186.642 6.67871H199.339C202.094 6.67871 203.986 7.30085 205.116 8.55781C206.436 10.0306 206.398 11.9986 206.258 13.3444L205.306 23.489C205.027 26.1553 203.935 28.8851 198.069 28.8851H187.912ZM182.275 9.82747C181.652 10.5131 181.449 11.5669 181.614 13.1413L182.567 23.3113C182.782 25.3174 183.328 26.9806 187.912 26.9806H198.069C202.64 26.9806 203.199 25.3174 203.414 23.2986L204.367 13.154C204.532 11.5669 204.329 10.5131 203.706 9.82747C202.957 8.9895 201.485 8.57051 199.339 8.57051H186.642C184.496 8.57051 183.024 8.9895 182.275 9.82747Z" fill="white"/>
<path d="M197.116 7.61781V6.60208C197.116 4.34208 197.116 3.49141 194.006 3.49141H191.974C188.863 3.49141 188.863 4.34208 188.863 6.60208V7.61781C188.863 8.13837 188.432 8.57006 187.911 8.57006C187.391 8.57006 186.959 8.13837 186.959 7.61781V6.60208C186.959 4.36748 186.959 1.58691 191.974 1.58691H194.006C199.021 1.58691 199.021 4.36748 199.021 6.60208V7.61781C199.021 8.13837 198.589 8.57006 198.069 8.57006C197.548 8.57006 197.116 8.13837 197.116 7.61781Z" fill="white"/>
<path d="M197.156 17.5467C197.029 17.0388 197.333 16.5182 197.841 16.3913C200.317 15.7691 202.615 14.6899 204.672 13.1917C205.091 12.887 205.688 12.9759 206.005 13.4076C206.31 13.8265 206.221 14.4233 205.789 14.7407C203.529 16.3786 201.016 17.5594 198.298 18.245C198.235 18.2577 198.159 18.2704 198.083 18.2704C197.651 18.2704 197.27 17.9783 197.156 17.5467Z" fill="white"/>
<path d="M187.683 18.2834C185.131 17.6613 182.731 16.582 180.535 15.0838C180.103 14.7918 179.989 14.1951 180.281 13.7634C180.573 13.3317 181.17 13.2174 181.601 13.5095C183.607 14.8807 185.791 15.8583 188.127 16.4297C188.635 16.5567 188.953 17.0645 188.826 17.5851C188.737 18.0168 188.343 18.3088 187.912 18.3088C187.835 18.3088 187.759 18.2961 187.683 18.2834Z" fill="white"/>
<defs>
<linearGradient id="paint0_linear_4856_385218" x1="177.906" y1="159.127" x2="206.308" y2="127.37" gradientUnits="userSpaceOnUse">
<stop stop-color="#436AF5"/>
<stop offset="0.368427" stop-color="#8D78FF"/>
<stop offset="0.801652" stop-color="#FC6B66"/>
<stop offset="1" stop-color="#FEBEBC"/>
</linearGradient>
</defs>
</svg>
