<svg width="96" height="97" viewBox="0 0 96 97" fill="none" xmlns="http://www.w3.org/2000/svg">
<circle cx="47.9991" cy="48.3135" r="47.5752" fill="#F0F0F0"/>
<g filter="url(#filter0_d_5407_148761)">
<rect x="10" y="8.62891" width="76" height="60" rx="7" fill="white"/>
</g>
<g opacity="0.5">
<path d="M30.4659 51.1197V52.5674H32.8005V53.9131H30.4659V55.483H33.1064V56.8797H28.7227V49.723H33.1064V51.1197H30.4659Z" fill="#B0B0B0"/>
<path d="M39.587 56.8797L38.0985 54.1781H37.6806V56.8797H35.9373V49.723H38.8631C39.4272 49.723 39.9064 49.8216 40.3006 50.0187C40.7016 50.2158 41.0006 50.4876 41.1977 50.8343C41.3948 51.1741 41.4934 51.5547 41.4934 51.9761C41.4934 52.4518 41.3574 52.8766 41.0856 53.2504C40.8205 53.6242 40.4263 53.8893 39.903 54.0456L41.5545 56.8797H39.587ZM37.6806 52.9446H38.7612C39.0806 52.9446 39.3185 52.8664 39.4748 52.7101C39.6379 52.5538 39.7195 52.3329 39.7195 52.0474C39.7195 51.7756 39.6379 51.5615 39.4748 51.4052C39.3185 51.2488 39.0806 51.1707 38.7612 51.1707H37.6806V52.9446Z" fill="#B0B0B0"/>
<path d="M47.9365 56.8797L46.4481 54.1781H46.0301V56.8797H44.2868V49.723H47.2127C47.7768 49.723 48.256 49.8216 48.6501 50.0187C49.0511 50.2158 49.3502 50.4876 49.5473 50.8343C49.7444 51.1741 49.8429 51.5547 49.8429 51.9761C49.8429 52.4518 49.707 52.8766 49.4351 53.2504C49.1701 53.6242 48.7759 53.8893 48.2526 54.0456L49.9041 56.8797H47.9365ZM46.0301 52.9446H47.1107C47.4302 52.9446 47.6681 52.8664 47.8244 52.7101C47.9875 52.5538 48.069 52.3329 48.069 52.0474C48.069 51.7756 47.9875 51.5615 47.8244 51.4052C47.6681 51.2488 47.4302 51.1707 47.1107 51.1707H46.0301V52.9446Z" fill="#B0B0B0"/>
<path d="M56.021 56.9511C55.3482 56.9511 54.7297 56.7948 54.1656 56.4821C53.6083 56.1695 53.1631 55.7345 52.8301 55.1772C52.5038 54.6131 52.3407 53.981 52.3407 53.281C52.3407 52.581 52.5038 51.9523 52.8301 51.395C53.1631 50.8377 53.6083 50.4027 54.1656 50.09C54.7297 49.7774 55.3482 49.6211 56.021 49.6211C56.6939 49.6211 57.3089 49.7774 57.8663 50.09C58.4304 50.4027 58.8721 50.8377 59.1916 51.395C59.5178 51.9523 59.6809 52.581 59.6809 53.281C59.6809 53.981 59.5178 54.6131 59.1916 55.1772C58.8653 55.7345 58.4236 56.1695 57.8663 56.4821C57.3089 56.7948 56.6939 56.9511 56.021 56.9511ZM56.021 55.3607C56.5919 55.3607 57.0473 55.1704 57.3871 54.7898C57.7337 54.4092 57.907 53.9063 57.907 53.281C57.907 52.6489 57.7337 52.146 57.3871 51.7722C57.0473 51.3916 56.5919 51.2013 56.021 51.2013C55.4433 51.2013 54.9812 51.3882 54.6345 51.762C54.2947 52.1358 54.1248 52.6421 54.1248 53.281C54.1248 53.9131 54.2947 54.4194 54.6345 54.8C54.9812 55.1738 55.4433 55.3607 56.021 55.3607Z" fill="#B0B0B0"/>
<path d="M65.9996 56.8797L64.5111 54.1781H64.0932V56.8797H62.3499V49.723H65.2757C65.8399 49.723 66.319 49.8216 66.7132 50.0187C67.1142 50.2158 67.4132 50.4876 67.6103 50.8343C67.8074 51.1741 67.906 51.5547 67.906 51.9761C67.906 52.4518 67.7701 52.8766 67.4982 53.2504C67.2331 53.6242 66.8389 53.8893 66.3156 54.0456L67.9671 56.8797H65.9996ZM64.0932 52.9446H65.1738C65.4932 52.9446 65.7311 52.8664 65.8874 52.7101C66.0505 52.5538 66.1321 52.3329 66.1321 52.0474C66.1321 51.7756 66.0505 51.5615 65.8874 51.4052C65.7311 51.2488 65.4932 51.1707 65.1738 51.1707H64.0932V52.9446Z" fill="#B0B0B0"/>
</g>
<path opacity="0.6" d="M10 15.6289C10 11.7629 13.134 8.62891 17 8.62891H79C82.866 8.62891 86 11.7629 86 15.6289V20.6289H10V15.6289Z" fill="#D0D0D0"/>
<circle cx="17.5977" cy="15.0469" r="2.5" fill="#FF9999"/>
<circle cx="24.5977" cy="15.0469" r="2.5" fill="#F5B800"/>
<circle cx="31.5977" cy="15.0469" r="2.5" fill="#7FC782"/>
<path opacity="0.5" d="M45.7043 28.5216C46.4486 27.2325 48.3092 27.2325 49.0535 28.5216L56.0966 40.7206C56.8409 42.0097 55.9106 43.6211 54.422 43.6211H40.3358C38.8473 43.6211 37.9169 42.0097 38.6612 40.7206L45.7043 28.5216Z" fill="#FF9999" stroke="#FF9999" stroke-width="1.5"/>
<path d="M47.4961 32.457V38.0491" stroke="white" stroke-width="2" stroke-linecap="round"/>
<path d="M48.0042 40.9594C48.0042 41.2409 47.776 41.469 47.4945 41.469C47.213 41.469 46.9848 41.2409 46.9848 40.9594C46.9848 40.6779 47.213 40.4497 47.4945 40.4497C47.776 40.4497 48.0042 40.6779 48.0042 40.9594Z" fill="white" stroke="white" stroke-width="0.844664"/>
<defs>
<filter id="filter0_d_5407_148761" x="2" y="6.62891" width="92" height="76" filterUnits="userSpaceOnUse" color-interpolation-filters="sRGB">
<feFlood flood-opacity="0" result="BackgroundImageFix"/>
<feColorMatrix in="SourceAlpha" type="matrix" values="0 0 0 0 0 0 0 0 0 0 0 0 0 0 0 0 0 0 127 0" result="hardAlpha"/>
<feOffset dy="6"/>
<feGaussianBlur stdDeviation="4"/>
<feColorMatrix type="matrix" values="0 0 0 0 0.45098 0 0 0 0 0.505882 0 0 0 0 0.72549 0 0 0 0.1586 0"/>
<feBlend mode="normal" in2="BackgroundImageFix" result="effect1_dropShadow_5407_148761"/>
<feBlend mode="normal" in="SourceGraphic" in2="effect1_dropShadow_5407_148761" result="shape"/>
</filter>
</defs>
</svg>
