<svg width="232" height="102" viewBox="0 0 232 102" fill="none" xmlns="http://www.w3.org/2000/svg">
<path d="M84.874 37.4475H98.5001V71.8193H84.874C80.9616 71.8193 77.6187 68.677 76.7947 64.3704L76.717 63.9644H76.3036H68.1055C66.5032 63.9644 65.0969 62.4618 65.0969 60.467V60.1309V59.6309H64.5969H44.7666C40.5683 59.6309 37.0573 55.732 37.0551 50.7804L37.3122 37.3124C37.3241 36.689 37.2586 35.6485 36.9457 34.7442C36.6399 33.8605 36.0129 32.9019 34.8031 32.9019H0.843262V24.5468H34.1842C38.3824 24.5468 41.8932 28.4453 41.8957 33.3965L41.6075 46.8581L41.6074 46.8581V46.8688V49.7757C41.6074 50.6041 42.279 51.2757 43.1074 51.2757H50.576H64.5969H65.0969V50.7757V49.2034C65.0969 47.2087 66.5032 45.7061 68.1055 45.7061H76.234H76.6631L76.7282 45.282C77.4198 40.7806 80.8459 37.4475 84.874 37.4475Z" fill="url(#paint0_linear_6914_108364)" stroke="url(#paint1_linear_6914_108364)"/>
<path d="M147.469 37.4475H133.843V71.8193H147.469C151.382 71.8193 154.725 68.677 155.549 64.3704L155.626 63.9644H156.04H164.238C165.84 63.9644 167.246 62.4618 167.246 60.467V60.1309V59.6309H167.746H187.577C191.775 59.6309 195.286 55.732 195.288 50.7804L195.031 37.3124C195.019 36.689 195.085 35.6485 195.398 34.7442C195.703 33.8605 196.33 32.9019 197.54 32.9019H231.5V24.5468H198.159C193.961 24.5468 190.45 28.4453 190.448 33.3965L190.736 46.8581L190.736 46.8581V46.8688V49.7757C190.736 50.6041 190.064 51.2757 189.236 51.2757H181.767H167.746H167.246V50.7757V49.2034C167.246 47.2087 165.84 45.7061 164.238 45.7061H156.109H155.68L155.615 45.282C154.924 40.7806 151.497 37.4475 147.469 37.4475Z" fill="url(#paint2_linear_6914_108364)" stroke="url(#paint3_linear_6914_108364)"/>
<path d="M104.493 41.6257H109.913C112.148 41.6257 113.96 43.438 113.96 45.6735C113.96 47.9091 112.148 49.7213 109.913 49.7213H104.493V41.6257Z" fill="url(#paint4_linear_6914_108364)" stroke="#A1B5FA"/>
<path d="M104.493 59.6136H109.913C112.148 59.6136 113.96 61.4259 113.96 63.6615C113.96 65.897 112.148 67.7093 109.913 67.7093H104.493V59.6136Z" fill="url(#paint5_linear_6914_108364)" stroke="#A1B5FA"/>
<path d="M104.312 36.0408C104.312 34.6601 103.192 33.5408 101.812 33.5408H100.014C98.6337 33.5408 97.5144 34.6601 97.5144 36.0408V73.4976C97.5144 74.8783 98.6337 75.9976 100.014 75.9976H101.812C103.192 75.9976 104.312 74.8783 104.312 73.4976V36.0408Z" fill="url(#paint6_linear_6914_108364)" stroke="#A1B5FA"/>
<path d="M134.135 36.0408C134.135 34.6601 133.016 33.5408 131.635 33.5408H129.838C128.457 33.5408 127.338 34.6601 127.338 36.0408V73.4976C127.338 74.8783 128.457 75.9976 129.838 75.9976H131.635C133.016 75.9976 134.135 74.8783 134.135 73.4976V36.0408Z" fill="url(#paint7_linear_6914_108364)" stroke="#FFCC02"/>
<path opacity="0.9" d="M190 75C188.949 75 187.909 75.3104 186.939 75.9134C185.968 76.5165 185.086 77.4004 184.343 78.5147C183.6 79.629 183.011 80.9519 182.609 82.4078C182.207 83.8637 182 85.4241 182 87L190 87L190 75Z" fill="#FEBFBD"/>
<path fill-rule="evenodd" clip-rule="evenodd" d="M121.887 25.2599V25.2604L120.955 26.4647C119.662 28.1323 118.601 27.6823 118.601 25.4589V15.9299H115.001C113.37 15.9299 112.916 14.7917 113.999 13.402L121.887 3.21182V3.21136L122.819 2.007C124.112 0.339419 125.172 0.789401 125.172 3.01284V12.5419H128.772C130.403 12.5419 130.858 13.68 129.774 15.0697L121.887 25.2599Z" fill="#FFCC02"/>
<path d="M121.887 25.2599L121.492 24.9539L121.387 25.089V25.2599H121.887ZM121.887 25.2604L122.282 25.5664L122.387 25.4313V25.2604H121.887ZM120.955 26.4647L121.35 26.7712L121.35 26.7708L120.955 26.4647ZM118.601 15.9299H119.101V15.4299H118.601V15.9299ZM113.999 13.402L114.394 13.7095L114.395 13.7081L113.999 13.402ZM121.887 3.21182L122.282 3.51786L122.387 3.38271V3.21182H121.887ZM121.887 3.21136L121.491 2.90535L121.387 3.04048V3.21136H121.887ZM122.819 2.007L122.424 1.70058L122.423 1.70098L122.819 2.007ZM125.172 12.5419H124.672V13.0419H125.172V12.5419ZM129.774 15.0697L129.38 14.7622L129.379 14.7637L129.774 15.0697ZM121.387 25.2599V25.2604H122.387V25.2599H121.387ZM121.492 24.9544L120.559 26.1587L121.35 26.7708L122.282 25.5664L121.492 24.9544ZM120.56 26.1583C120.259 26.5468 119.998 26.775 119.797 26.8876C119.6 26.9978 119.514 26.9715 119.489 26.961C119.453 26.9454 119.352 26.8772 119.257 26.6177C119.165 26.3628 119.101 25.9811 119.101 25.4589H118.101C118.101 26.0484 118.171 26.5567 118.317 26.9595C118.462 27.3576 118.707 27.7146 119.097 27.8809C119.499 28.0524 119.92 27.9648 120.286 27.76C120.648 27.5573 121.005 27.2165 121.35 26.7712L120.56 26.1583ZM119.101 25.4589V15.9299H118.101V25.4589H119.101ZM118.601 15.4299H115.001V16.4299H118.601V15.4299ZM115.001 15.4299C114.276 15.4299 114.019 15.1826 113.947 15.0025C113.863 14.7912 113.893 14.3519 114.394 13.7095L113.605 13.0946C113.022 13.8419 112.738 14.6665 113.018 15.3717C113.31 16.108 114.095 16.4299 115.001 16.4299V15.4299ZM114.395 13.7081L122.282 3.51786L121.491 2.90578L113.604 13.096L114.395 13.7081ZM122.387 3.21182V3.21136H121.387V3.21182H122.387ZM122.282 3.51737L123.214 2.31301L122.423 1.70098L121.491 2.90535L122.282 3.51737ZM123.214 2.31341C123.515 1.92498 123.776 1.69669 123.976 1.58418C124.173 1.4739 124.26 1.50022 124.284 1.51071C124.321 1.52638 124.422 1.59455 124.516 1.85408C124.609 2.10891 124.672 2.49059 124.672 3.01284H125.672C125.672 2.42336 125.603 1.91501 125.456 1.51224C125.311 1.11417 125.066 0.757169 124.676 0.590865C124.274 0.419381 123.853 0.506908 123.488 0.711775C123.126 0.914418 122.769 1.25523 122.424 1.70058L123.214 2.31341ZM124.672 3.01284V12.5419H125.672V3.01284H124.672ZM125.172 13.0419H128.772V12.0419H125.172V13.0419ZM128.772 13.0419C129.497 13.0419 129.755 13.2891 129.826 13.4693C129.91 13.6806 129.881 14.1199 129.38 14.7622L130.168 15.3771C130.751 14.6299 131.036 13.8052 130.756 13.1001C130.463 12.3637 129.678 12.0419 128.772 12.0419V13.0419ZM129.379 14.7637L121.492 24.9539L122.282 25.566L130.17 15.3757L129.379 14.7637Z" fill="#F4C508"/>
<path d="M68 102C69.0506 102 70.0909 101.664 71.0615 101.01C72.0321 100.357 72.914 99.3996 73.6569 98.1924C74.3997 96.9852 74.989 95.5521 75.391 93.9749C75.7931 92.3977 76 90.7072 76 89L68 89L68 102Z" fill="#C2EECD"/>
<defs>
<linearGradient id="paint0_linear_6914_108364" x1="99.4626" y1="54.5263" x2="8.67631" y2="54.5263" gradientUnits="userSpaceOnUse">
<stop stop-color="#93AAFF"/>
<stop offset="1" stop-color="#F7F9FF"/>
</linearGradient>
<linearGradient id="paint1_linear_6914_108364" x1="112.62" y1="53.0273" x2="0.781849" y2="53.0273" gradientUnits="userSpaceOnUse">
<stop stop-color="#A1B5FA"/>
<stop offset="1" stop-color="#A1B5FA" stop-opacity="0"/>
</linearGradient>
<linearGradient id="paint2_linear_6914_108364" x1="132.881" y1="54.5263" x2="223.667" y2="54.5263" gradientUnits="userSpaceOnUse">
<stop stop-color="#FFE57C"/>
<stop offset="1" stop-color="white"/>
</linearGradient>
<linearGradient id="paint3_linear_6914_108364" x1="119.723" y1="53.0273" x2="231.561" y2="53.0273" gradientUnits="userSpaceOnUse">
<stop stop-color="#FFCC02"/>
<stop offset="1" stop-color="#FFECA0" stop-opacity="0"/>
</linearGradient>
<linearGradient id="paint4_linear_6914_108364" x1="114.47" y1="46.0321" x2="103.501" y2="46.4172" gradientUnits="userSpaceOnUse">
<stop stop-color="#B0C1FF"/>
<stop offset="1" stop-color="#CFDAFF"/>
</linearGradient>
<linearGradient id="paint5_linear_6914_108364" x1="114.47" y1="64.02" x2="103.501" y2="64.4051" gradientUnits="userSpaceOnUse">
<stop stop-color="#B0C1FF"/>
<stop offset="1" stop-color="#CFDAFF"/>
</linearGradient>
<linearGradient id="paint6_linear_6914_108364" x1="100.913" y1="33.0408" x2="100.913" y2="76.4976" gradientUnits="userSpaceOnUse">
<stop stop-color="#ACBEFF"/>
<stop offset="1" stop-color="#D9E1FF"/>
</linearGradient>
<linearGradient id="paint7_linear_6914_108364" x1="130.736" y1="33.0408" x2="130.736" y2="76.4976" gradientUnits="userSpaceOnUse">
<stop stop-color="#FFCC02"/>
<stop offset="1" stop-color="#FFF5CA"/>
</linearGradient>
</defs>
</svg>
