<svg width="160" height="99" viewBox="0 0 160 99" fill="none" xmlns="http://www.w3.org/2000/svg">
<g clip-path="url(#clip0_8071_179277)">
<rect x="18.564" y="44.4152" width="141.436" height="38.8949" rx="8" fill="#222E3E"/>
<rect x="57.459" y="57.675" width="38.8949" height="3.5359" rx="1.76795" fill="white"/>
<rect opacity="0.6" x="140.552" y="55.0234" width="7.07179" height="3.5359" rx="1.76795" fill="#959CA6"/>
<rect opacity="0.6" x="136.132" y="69.1663" width="11.4917" height="3.5359" rx="1.76795" fill="#959CA6"/>
<rect x="57.459" y="64.7471" width="21.2154" height="3.5359" rx="1.76795" fill="#959CA6"/>
<rect x="126.409" y="62.0941" width="21.2154" height="3.5359" rx="1.76795" fill="#959CA6"/>
<ellipse opacity="0.6" cx="38.0113" cy="63.8626" rx="9.72372" ry="9.72372" fill="#2A394E"/>
<rect x="0.884277" y="22.3146" width="141.436" height="38.8949" rx="8" fill="#2A394E"/>
<rect opacity="0.6" x="39.7793" y="35.5745" width="38.8949" height="3.5359" rx="1.76795" fill="#959CA6"/>
<rect x="122.873" y="32.9229" width="7.07179" height="3.5359" rx="1.76795" fill="#959CA6"/>
<rect x="118.452" y="47.0657" width="11.4917" height="3.5359" rx="1.76795" fill="#959CA6"/>
<rect x="39.7793" y="42.6465" width="21.2154" height="3.5359" rx="1.76795" fill="#959CA6"/>
<rect x="108.729" y="39.9935" width="21.2154" height="3.5359" rx="1.76795" fill="#959CA6"/>
<ellipse opacity="0.6" cx="20.3316" cy="41.762" rx="9.72372" ry="9.72371" fill="#222E3E"/>
<ellipse cx="89.2957" cy="19.6784" rx="10.6224" ry="10.6224" fill="#6A7483"/>
<ellipse cx="114.047" cy="19.6784" rx="10.6224" ry="10.6224" fill="#6A7483"/>
<path d="M114.095 24.172C113.489 24.172 112.942 24.0683 112.452 23.8608C111.97 23.6533 111.589 23.3544 111.306 22.9643C111.024 22.5742 110.879 22.1135 110.871 21.5823H112.738C112.763 21.9392 112.888 22.2214 113.112 22.4289C113.344 22.6364 113.66 22.7402 114.058 22.7402C114.465 22.7402 114.784 22.6447 115.017 22.4538C115.249 22.2546 115.365 21.9973 115.365 21.6819C115.365 21.4246 115.286 21.2129 115.129 21.0469C114.971 20.8809 114.772 20.7522 114.531 20.6609C114.299 20.5613 113.975 20.4534 113.56 20.3372C112.996 20.1712 112.535 20.0093 112.178 19.8516C111.829 19.6856 111.526 19.4408 111.269 19.117C111.02 18.785 110.896 18.3451 110.896 17.7973C110.896 17.2826 111.024 16.8344 111.281 16.4526C111.539 16.0708 111.9 15.7803 112.365 15.581C112.83 15.3735 113.361 15.2698 113.958 15.2698C114.855 15.2698 115.581 15.4897 116.137 15.9297C116.702 16.3613 117.013 16.9672 117.071 17.7475H115.154C115.137 17.4486 115.008 17.2038 114.768 17.0129C114.535 16.8137 114.224 16.7141 113.834 16.7141C113.494 16.7141 113.22 16.8012 113.012 16.9755C112.813 17.1498 112.713 17.403 112.713 17.735C112.713 17.9674 112.788 18.1625 112.937 18.3202C113.095 18.4696 113.286 18.5941 113.51 18.6937C113.743 18.785 114.066 18.8929 114.481 19.0174C115.046 19.1834 115.506 19.3495 115.863 19.5155C116.22 19.6815 116.527 19.9305 116.785 20.2625C117.042 20.5945 117.171 21.0303 117.171 21.5698C117.171 22.0347 117.05 22.4663 116.81 22.8647C116.569 23.2631 116.216 23.5827 115.751 23.8234C115.286 24.0558 114.734 24.172 114.095 24.172Z" fill="white"/>
<path d="M90.7627 19.8143C91.2053 19.898 91.5691 20.1224 91.8541 20.4877C92.1392 20.8529 92.2817 21.2714 92.2817 21.7432C92.2817 22.1693 92.1767 22.546 91.9667 22.8732C91.7641 23.1927 91.4678 23.4438 91.0777 23.6265C90.6876 23.8091 90.2263 23.9004 89.6937 23.9004H86.3066V15.9336H89.5474C90.08 15.9336 90.5376 16.0211 90.9202 16.1961C91.3103 16.3711 91.6028 16.6146 91.7979 16.9266C92.0004 17.2386 92.1017 17.5924 92.1017 17.9881C92.1017 18.4522 91.9779 18.8403 91.7304 19.1523C91.4903 19.4643 91.1677 19.6849 90.7627 19.8143ZM87.882 19.2208H89.3223C89.6974 19.2208 89.9862 19.1371 90.1888 18.9697C90.3913 18.7946 90.4926 18.5473 90.4926 18.2278C90.4926 17.9082 90.3913 17.6609 90.1888 17.4859C89.9862 17.3109 89.6974 17.2233 89.3223 17.2233H87.882V19.2208ZM89.4686 22.5992C89.8512 22.5992 90.1475 22.5079 90.3576 22.3253C90.5751 22.1427 90.6839 21.884 90.6839 21.5492C90.6839 21.2068 90.5714 20.9404 90.3463 20.7502C90.1213 20.5524 89.8174 20.4534 89.4348 20.4534H87.882V22.5992H89.4686Z" fill="white"/>
<path opacity="0.5" d="M124.64 89.0426C125.516 89.0426 126.384 89.2762 127.194 89.7303C128.003 90.1843 128.739 90.8498 129.359 91.6887C129.978 92.5276 130.47 93.5236 130.805 94.6197C131.141 95.7158 131.313 96.8906 131.313 98.077L124.64 98.077L124.64 89.0426Z" fill="#6A7483"/>
<path opacity="0.9" d="M6.67392 92.3435C5.79749 92.3435 4.92964 92.1099 4.11992 91.6558C3.3102 91.2018 2.57448 90.5363 1.95475 89.6974C1.33502 88.8585 0.843418 87.8625 0.508022 86.7664C0.172626 85.6703 0 84.4955 0 83.3091L6.67392 83.3091L6.67392 92.3435Z" fill="#6A7483"/>
<path opacity="0.6" d="M44.1995 10.6077C45.2443 10.6077 46.2788 10.3333 47.244 9.80023C48.2093 9.26714 49.0863 8.48579 49.8251 7.50077C50.5638 6.51576 51.1499 5.34637 51.5497 4.05939C51.9495 2.7724 52.1553 1.39302 52.1553 0L44.1995 -7.07986e-09L44.1995 10.6077Z" fill="#2A394E"/>
</g>
<defs>
<clipPath id="clip0_8071_179277">
<rect width="160" height="98.2573" fill="white"/>
</clipPath>
</defs>
</svg>
