<svg width="160" height="99" viewBox="0 0 160 99" fill="none" xmlns="http://www.w3.org/2000/svg"><rect opacity=".3" x="18.564" y="44.415" width="141.436" height="38.895" rx="8" fill="#C7D2FC"/><rect x="57.459" y="57.675" width="38.895" height="3.536" rx="1.768" fill="#fff"/><rect x="140.552" y="55.023" width="7.072" height="3.536" rx="1.768" fill="#fff"/><rect x="136.132" y="69.166" width="11.492" height="3.536" rx="1.768" fill="#fff"/><rect x="57.459" y="64.747" width="21.215" height="3.536" rx="1.768" fill="#fff"/><rect x="126.409" y="62.094" width="21.215" height="3.536" rx="1.768" fill="#fff"/><circle cx="38.011" cy="63.863" fill="#fff" r="9.724"/><rect x=".884" y="22.315" width="141.436" height="38.895" rx="8" fill="#C7D2FC"/><rect x="39.779" y="35.575" width="38.895" height="3.536" rx="1.768" fill="#fff"/><rect x="122.873" y="32.923" width="7.072" height="3.536" rx="1.768" fill="#fff"/><rect x="118.452" y="47.066" width="11.492" height="3.536" rx="1.768" fill="#fff"/><rect x="39.779" y="42.647" width="21.215" height="3.536" rx="1.768" fill="#fff"/><rect x="108.729" y="39.993" width="21.215" height="3.536" rx="1.768" fill="#fff"/><circle cx="20.332" cy="41.762" fill="#fff" r="9.724"/><circle cx="89.296" cy="19.678" fill="#A1B5FA" r="10.622"/><circle cx="114.047" cy="19.678" fill="#A1B5FA" r="10.622"/><path d="M114.096 24.172a4.2 4.2 0 0 1-1.644-.311 2.7 2.7 0 0 1-1.145-.897q-.423-.584-.436-1.382h1.868q.037.536.373.847.35.31.946.311.61 0 .959-.286a.97.97 0 0 0 .349-.772.88.88 0 0 0-.237-.635 1.6 1.6 0 0 0-.597-.386 8 8 0 0 0-.972-.324 12 12 0 0 1-1.382-.485 2.6 2.6 0 0 1-.909-.735q-.373-.498-.373-1.32 0-.772.386-1.344a2.4 2.4 0 0 1 1.083-.872q.697-.31 1.594-.311 1.345 0 2.179.66.846.647.933 1.817h-1.917a.97.97 0 0 0-.386-.734q-.349-.3-.934-.299-.51 0-.821.262-.3.261-.299.759 0 .349.224.585.236.224.573.374.348.137.971.323.846.249 1.382.498t.921.747.386 1.308q0 .697-.361 1.295t-1.058.958q-.698.35-1.656.349m-23.333-4.358q.663.126 1.091.674.428.547.428 1.255 0 .64-.315 1.13-.304.48-.889.753-.585.274-1.384.274h-3.387v-7.966h3.24q.799 0 1.373.262.585.263.878.73.304.469.304 1.062 0 .696-.371 1.164-.36.468-.968.662m-2.88-.593h1.44q.563 0 .866-.251.304-.263.304-.742 0-.48-.304-.742-.303-.263-.866-.263h-1.44zm1.586 3.378q.574 0 .889-.274.326-.273.326-.776 0-.514-.337-.799-.338-.297-.912-.297h-1.553V22.6z" fill="#fff"/><path d="M124.64 89.043c.876 0 1.744.233 2.554.687s1.545 1.12 2.165 1.959 1.111 1.835 1.447 2.93c.335 1.097.508 2.272.508 3.458h-6.674z" fill="#ECF0FE"/><path opacity=".9" d="M6.674 92.344a5.2 5.2 0 0 1-2.554-.688c-.81-.454-1.546-1.12-2.165-1.959-.62-.838-1.112-1.835-1.447-2.93A11.9 11.9 0 0 1 0 83.308h6.674z" fill="#ECF0FE"/><path opacity=".4" d="M44.2 10.608c1.044 0 2.079-.275 3.044-.808s1.842-1.314 2.58-2.3c.74-.984 1.326-2.154 1.725-3.44.4-1.288.606-2.667.606-4.06h-7.956z" fill="#ECF0FE"/></svg>