<svg width="24" height="24" viewBox="0 0 24 24" fill="none" xmlns="http://www.w3.org/2000/svg">
<path fill-rule="evenodd" clip-rule="evenodd" d="M5.05618 12.7909H20.8219C21.2474 12.7909 21.6003 12.4318 21.6003 11.9988C21.6003 11.5658 21.2474 11.2068 20.8219 11.2068H5.05807L10.0283 6.14898C10.3293 5.84271 10.3293 5.33578 10.0283 5.02951C9.72738 4.72324 9.22922 4.72324 8.92824 5.02951L2.62859 11.4401C2.47292 11.5985 2.40027 11.7991 2.40027 11.9998C2.40027 12.2005 2.47292 12.4011 2.62859 12.5595L8.92824 18.9701C9.22922 19.2764 9.72738 19.2764 10.0283 18.9701C10.3293 18.6638 10.3293 18.1569 10.0283 17.8506L5.05618 12.7909Z" fill="#404040"/>
</svg>
