<svg width="16" height="16" viewBox="0 0 16 16" fill="none" xmlns="http://www.w3.org/2000/svg">
<path d="M3.83266 14.4016C2.60028 14.4016 1.6001 13.4014 1.6001 12.169V2.04807C1.6001 1.80398 1.80252 1.60156 2.04661 1.60156C2.2907 1.60156 2.49312 1.80398 2.49312 2.04807V12.169C2.49312 12.9072 3.09442 13.5085 3.83266 13.5085H13.9536C14.1977 13.5085 14.4001 13.711 14.4001 13.9551C14.4001 14.1991 14.1977 14.4016 13.9536 14.4016H3.83266Z" fill="#404040"/>
<path d="M4.00384 11.2845C3.83035 11.1254 3.80796 10.8484 3.95907 10.6598L6.5279 7.50136C6.80773 7.15959 7.21069 6.95335 7.63603 6.93567C8.06137 6.92389 8.48111 7.08887 8.78333 7.40708L9.31501 7.96689C9.45492 8.11421 9.63961 8.18492 9.83549 8.18492C10.0314 8.17902 10.2105 8.08474 10.3392 7.92564L12.908 4.76717C13.0591 4.5845 13.3222 4.56092 13.5013 4.72002C13.6747 4.87912 13.6971 5.15608 13.546 5.34464L10.9772 8.50313C10.6974 8.8449 10.2944 9.05114 9.86907 9.06882C9.44373 9.0806 9.02398 8.91562 8.72177 8.59741L8.19569 8.0376C8.05577 7.89028 7.87109 7.81368 7.6752 7.81957C7.47932 7.82547 7.30023 7.91975 7.17151 8.07885L4.60268 11.2373C4.51313 11.3375 4.3956 11.3905 4.27808 11.3905C4.18293 11.3905 4.0822 11.3552 4.00384 11.2845Z" fill="#404040"/>
</svg>
