<svg width="133" height="60" viewBox="0 0 133 60" fill="none" xmlns="http://www.w3.org/2000/svg">
<path d="M96.382 35.9656C96.382 36.3974 96.032 36.7474 95.6002 36.7474C95.1684 36.7474 94.8183 36.3974 94.8183 35.9656C94.8183 35.5338 95.1684 35.1837 95.6002 35.1837C96.032 35.1837 96.382 35.5338 96.382 35.9656Z" fill="#D0D0D0"/>
<path d="M1.9914 14.9331C1.9914 15.4829 1.5457 15.9286 0.995885 15.9286C0.446075 15.9286 0.000366211 15.4829 0.000366211 14.9331C0.000366211 14.3833 0.446075 13.9375 0.995885 13.9375C1.5457 13.9375 1.9914 14.3833 1.9914 14.9331Z" fill="#B57EDC"/>
<path d="M27.8749 0.995519C27.8749 1.54533 27.4292 1.99104 26.8794 1.99104C26.3296 1.99104 25.8839 1.54533 25.8839 0.995519C25.8839 0.445709 26.3296 0 26.8794 0C27.4292 0 27.8749 0.445709 27.8749 0.995519Z" fill="#B57EDC"/>
<path d="M11.9465 45.7936C11.9465 46.3434 11.5008 46.7891 10.951 46.7891C10.4012 46.7891 9.95551 46.3434 9.95551 45.7936C9.95551 45.2438 10.4012 44.7981 10.951 44.7981C11.5008 44.7981 11.9465 45.2438 11.9465 45.7936Z" fill="#B57EDC"/>
<path d="M123.445 8.95918C123.445 9.50899 122.999 9.9547 122.449 9.9547C121.899 9.9547 121.454 9.50899 121.454 8.95918C121.454 8.40937 121.899 7.96366 122.449 7.96366C122.999 7.96366 123.445 8.40937 123.445 8.95918Z" fill="#B57EDC"/>
<path d="M111.499 52.7128L116.426 47.7853L121.354 52.7128L116.426 57.6404L111.499 52.7128Z" fill="#D1AFE9"/>
<path d="M121.866 24.1337C121.088 23.3561 121.088 22.0955 121.866 21.3179C122.644 20.5404 123.904 20.5404 124.682 21.3179L131.721 28.3573C132.499 29.1349 132.499 30.3955 131.721 31.1731C130.944 31.9506 129.683 31.9506 128.905 31.1731L121.866 24.1337Z" fill="#D1AFE9"/>
<path d="M15.9286 21.9012H22.8973V28.8698H15.9286V21.9012Z" fill="#D1AFE9"/>
<path d="M28.8711 16.4789C28.8711 13.0244 31.6715 10.2241 35.1259 10.2241H100.267C103.721 10.2241 106.522 13.0245 106.522 16.4789V53.7451C106.522 57.1996 103.721 60 100.267 60H35.1259C31.6715 60 28.8711 57.1996 28.8711 53.7451V16.4789Z" fill="#D1AFE9"/>
<path d="M93.2545 14.4767C93.2545 9.67108 97.1503 5.77537 101.956 5.77537H102.536C107.342 5.77537 111.237 9.67109 111.237 14.4767V16.7971C111.237 21.6027 107.342 25.4984 102.536 25.4984H101.956C97.1503 25.4984 93.2545 21.6027 93.2545 16.7971V14.4767Z" fill="#AC6CDA"/>
<path d="M102.174 20.3536C101.537 20.3536 100.974 20.215 100.484 19.9378C99.9949 19.6563 99.6094 19.2708 99.3279 18.7814C99.0507 18.2919 98.9121 17.7288 98.9121 17.0921V13.8696C98.9121 13.2329 99.0507 12.6699 99.3279 12.1804C99.6094 11.691 99.9949 11.3077 100.484 11.0304C100.974 10.7489 101.537 10.6081 102.174 10.6081C102.81 10.6081 103.373 10.7489 103.863 11.0304C104.352 11.3077 104.736 11.691 105.013 12.1804C105.294 12.6699 105.435 13.2329 105.435 13.8696V17.0921C105.435 17.7288 105.294 18.2919 105.013 18.7814C104.736 19.2708 104.352 19.6563 103.863 19.9378C103.373 20.215 102.81 20.3536 102.174 20.3536ZM102.174 19.0542C102.52 19.0542 102.834 18.9719 103.116 18.8073C103.402 18.6384 103.629 18.4132 103.798 18.1317C103.967 17.8458 104.051 17.5274 104.051 17.1766V13.7722C104.051 13.4257 103.967 13.1117 103.798 12.8301C103.629 12.5442 103.402 12.319 103.116 12.1544C102.834 11.9855 102.52 11.901 102.174 11.901C101.827 11.901 101.511 11.9855 101.225 12.1544C100.943 12.319 100.718 12.5442 100.549 12.8301C100.38 13.1117 100.296 13.4257 100.296 13.7722V17.1766C100.296 17.5274 100.38 17.8458 100.549 18.1317C100.718 18.4132 100.943 18.6384 101.225 18.8073C101.511 18.9719 101.827 19.0542 102.174 19.0542Z" fill="white"/>
<path d="M57.2891 24.2377C57.2891 23.8059 57.6391 23.4559 58.0709 23.4559H88.5634C88.9952 23.4559 89.3453 23.8059 89.3453 24.2377C89.3453 24.6695 88.9952 25.0196 88.5634 25.0196H58.0709C57.6391 25.0196 57.2891 24.6695 57.2891 24.2377Z" fill="#B57EDC"/>
<path d="M57.2891 35.1837C57.2891 34.7519 57.6391 34.4019 58.0709 34.4019H88.5634C88.9952 34.4019 89.3453 34.7519 89.3453 35.1837C89.3453 35.6155 88.9952 35.9656 88.5634 35.9656H58.0709C57.6391 35.9656 57.2891 35.6155 57.2891 35.1837Z" fill="#B57EDC"/>
<path d="M57.2891 46.9116C57.2891 46.4798 57.6391 46.1298 58.0709 46.1298H88.5634C88.9952 46.1298 89.3453 46.4798 89.3453 46.9116C89.3453 47.3434 88.9952 47.6935 88.5634 47.6935H58.0709C57.6391 47.6935 57.2891 47.3434 57.2891 46.9116Z" fill="#B57EDC"/>
<path d="M40.0882 20.3283H47.0568V27.297H40.0882V20.3283Z" fill="#B57EDC"/>
<path d="M40.0882 32.0562H47.0568V39.0248H40.0882V32.0562Z" fill="#B57EDC"/>
<path d="M40.0882 43.7841H47.0568V50.7527H40.0882V43.7841Z" fill="#B57EDC"/>
</svg>
