<svg width="76" height="65" viewBox="0 0 76 65" fill="none" xmlns="http://www.w3.org/2000/svg">
<rect x="1" y="17" width="39" height="15" rx="3.24807" fill="#AC6CDA"/>
<rect x="5.06006" y="21.0605" width="7.30816" height="1.62404" rx="0.812018" fill="#F6EFFB"/>
<rect x="5.06006" y="25.1211" width="14.6163" height="1.62404" rx="0.812018" fill="#F6EFFB"/>
<rect opacity="0.56" x="13" y="36" width="42" height="13" rx="3.67347" fill="#AC6CDA"/>
<rect x="16.5715" y="39.5918" width="8.26531" height="1.83673" rx="0.918367" fill="white"/>
<rect opacity="0.2" x="16.5715" y="44.1836" width="16.5306" height="1.83673" rx="0.918367" fill="white"/>
<rect opacity="0.56" x="16" width="48" height="13" rx="3.67347" fill="#AC6CDA"/>
<rect x="19.5715" y="3.5918" width="8.26531" height="1.83673" rx="0.918367" fill="white"/>
<rect opacity="0.2" x="19.5715" y="8.18359" width="16.5306" height="1.83673" rx="0.918367" fill="white"/>
<path d="M66.6415 36.6066C70.2795 31.2076 69.6969 23.837 64.8938 19.0693C59.4278 13.6436 50.5656 13.6436 45.0995 19.0693C39.6335 24.495 39.6335 33.2919 45.0995 38.7176C50.0365 43.6182 57.7441 44.0926 63.2174 40.1406C63.3023 40.2621 63.3992 40.3778 63.5082 40.486L69.8424 46.7735C70.8263 47.7501 72.4215 47.7501 73.4054 46.7735C74.3893 45.7968 74.3893 44.2134 73.4054 43.2368L67.0712 36.9493C66.9382 36.8172 66.7939 36.703 66.6415 36.6066Z" fill="#AC6CDA" fill-opacity="0.32"/>
<path fill-rule="evenodd" clip-rule="evenodd" d="M62.9227 36.4226L63.9986 34.8258C66.7968 30.6731 66.3476 25.0027 62.6488 21.3311C58.4253 17.1388 51.5681 17.1388 47.3446 21.3311C43.1343 25.5104 43.1343 32.2766 47.3446 36.4559C51.1557 40.2389 57.121 40.6117 61.3518 37.5569L62.9227 36.4226ZM67.071 35.9274C70.2241 30.6027 69.4984 23.6399 64.8938 19.0693C59.4278 13.6436 50.5656 13.6436 45.0995 19.0693C39.6335 24.495 39.6335 33.2919 45.0995 38.7176C49.9303 43.5128 57.4138 44.0701 62.8612 40.3895C62.9809 40.3086 63.0997 40.2256 63.2174 40.1406C63.2322 40.1618 63.2474 40.1828 63.2629 40.2036C63.3364 40.3022 63.4182 40.3966 63.5082 40.486L69.8424 46.7735C70.8263 47.7501 72.4215 47.7501 73.4054 46.7735C74.3893 45.7968 74.3893 44.2134 73.4054 43.2368L67.0712 36.9493C66.9739 36.8527 66.8707 36.7657 66.7627 36.6883C66.7229 36.6598 66.6825 36.6326 66.6415 36.6066C66.7919 36.3835 66.9351 36.157 67.071 35.9274Z" fill="#AC6CDA"/>
<rect opacity="0.8" width="1.79908" height="3.36439" rx="0.899538" transform="matrix(-0.707107 -0.707107 -0.707107 0.707107 3.65112 47.2715)" fill="#AC6CDA"/>
<circle opacity="0.7" cx="74.9458" cy="10.9458" r="0.945839" fill="#AC6CDA"/>
<ellipse opacity="0.23" cx="35" cy="63.5" rx="22" ry="1.5" fill="#AC6CDA"/>
</svg>
