<svg width="24" height="24" viewBox="0 0 24 24" fill="none" xmlns="http://www.w3.org/2000/svg">
<path fill-rule="evenodd" clip-rule="evenodd" d="M12.0056 7.2002C11.4124 7.2002 10.9309 7.68165 10.9309 8.27486C10.9309 8.86808 11.4124 9.34953 12.0056 9.34953C12.5988 9.34953 13.0802 8.86808 13.0802 8.27486C13.0802 7.68165 12.5988 7.2002 12.0056 7.2002Z" fill="#404040"/>
<path fill-rule="evenodd" clip-rule="evenodd" d="M12.0056 10.9255C11.4124 10.9255 10.9309 11.407 10.9309 12.0002C10.9309 12.5934 11.4124 13.0749 12.0056 13.0749C12.5988 13.0749 13.0802 12.5934 13.0802 12.0002C13.0802 11.407 12.5988 10.9255 12.0056 10.9255Z" fill="#404040"/>
<path fill-rule="evenodd" clip-rule="evenodd" d="M12.0056 14.6509C11.4124 14.6509 10.9309 15.1323 10.9309 15.7255C10.9309 16.3187 11.4124 16.8002 12.0056 16.8002C12.5988 16.8002 13.0802 16.3187 13.0802 15.7255C13.0802 15.1323 12.5988 14.6509 12.0056 14.6509Z" fill="#404040"/>
</svg>
