<svg width="90" height="75" viewBox="0 0 90 75" fill="none" xmlns="http://www.w3.org/2000/svg">
<path fill-rule="evenodd" clip-rule="evenodd" d="M33.8711 13.0534C33.8711 6.28108 39.3611 0.791016 46.1334 0.791016C52.9057 0.791016 58.3957 6.28108 58.3957 13.0534V16.6135C58.3957 17.4873 57.6873 18.1957 56.8135 18.1957C55.9397 18.1957 55.2313 17.4873 55.2313 16.6135V13.0534C55.2313 8.02878 51.158 3.95551 46.1334 3.95551C41.1088 3.95551 37.0356 8.02878 37.0356 13.0534V16.6135C37.0356 17.4873 36.3272 18.1957 35.4533 18.1957C34.5795 18.1957 33.8711 17.4873 33.8711 16.6135V13.0534Z" fill="#AC6CDA"/>
<path opacity="0.56" d="M17.5031 19.9691C17.8125 16.7209 20.5406 14.2402 23.8035 14.2402H68.4632C71.7261 14.2402 74.4543 16.7209 74.7636 19.9692L78.3048 57.152C78.6587 60.8676 75.7368 64.0809 72.0044 64.0809H20.2624C16.5299 64.0809 13.608 60.8676 13.9619 57.152L17.5031 19.9691Z" fill="#AC6CDA"/>
<ellipse cx="46.5289" cy="40.3476" rx="14.2401" ry="14.2402" fill="#AC6CDA"/>
<path d="M41.4029 48.3153C40.8757 48.6368 40.1998 48.2574 40.1998 47.6399V34.0177C40.1998 33.5808 40.554 33.2266 40.9909 33.2266H46.9243V44.9481L41.4029 48.3153Z" fill="#F6EFFB"/>
<path d="M52.4458 48.3153C52.973 48.6368 53.6488 48.2574 53.6488 47.6399V34.0177C53.6488 33.5808 53.2946 33.2266 52.8577 33.2266H46.9243V44.9481L52.4458 48.3153Z" fill="#F6EFFB"/>
<ellipse opacity="0.23" cx="46.1333" cy="72.7834" rx="26.5024" ry="1.58224" fill="#AC6CDA"/>
<rect opacity="0.8" width="3.23994" height="4.89344" rx="1.61997" transform="matrix(-0.707105 -0.707109 -0.707105 0.707109 5.7511 18.4297)" fill="#AC6CDA"/>
<ellipse cx="70.2624" cy="1.58224" rx="1.58223" ry="1.58224" fill="#AC6CDA"/>
<rect opacity="0.6" width="2.52853" height="2.52853" rx="0.79112" transform="matrix(0.707105 -0.707109 0.707105 0.707109 86.4241 48.6914)" fill="#AC6CDA"/>
<ellipse opacity="0.7" cx="4.73009" cy="45.2242" rx="0.921495" ry="0.921501" fill="#AC6CDA"/>
<path fill-rule="evenodd" clip-rule="evenodd" d="M54.4399 48.2589L38.6176 32.4365L39.9681 31.0859L55.7904 46.9084L54.4399 48.2589Z" fill="#AC6CDA"/>
</svg>
