<svg width="257" height="100" viewBox="0 0 257 100" fill="none" xmlns="http://www.w3.org/2000/svg">
<path d="M159.625 54.6186C159.625 55.0582 159.271 55.4146 158.833 55.4146C158.396 55.4146 158.041 55.0582 158.041 54.6186C158.041 54.1789 158.396 53.8225 158.833 53.8225C159.271 53.8225 159.625 54.1789 159.625 54.6186Z" fill="#AC6CDA"/>
<path d="M174.94 71.6696L179.932 66.6526L184.924 71.6696L179.932 76.6867L174.94 71.6696Z" fill="#AC6CDA"/>
<path d="M63.9982 33.2039C63.9982 33.7637 63.5467 34.2175 62.9896 34.2175C62.4326 34.2175 61.9811 33.7637 61.9811 33.2039C61.9811 32.6441 62.4326 32.1903 62.9896 32.1903C63.5467 32.1903 63.9982 32.6441 63.9982 33.2039Z" fill="#AC6CDA"/>
<path d="M90.2211 19.0136C90.2211 19.5734 89.7696 20.0272 89.2126 20.0272C88.6555 20.0272 88.204 19.5734 88.204 19.0136C88.204 18.4538 88.6555 18 89.2126 18C89.7696 18 90.2211 18.4538 90.2211 19.0136Z" fill="#AC6CDA"/>
<path d="M74.0836 64.6254C74.0836 65.1852 73.632 65.639 73.075 65.639C72.518 65.639 72.0665 65.1852 72.0665 64.6254C72.0665 64.0656 72.518 63.6118 73.075 63.6118C73.632 63.6118 74.0836 64.0656 74.0836 64.6254Z" fill="#AC6CDA"/>
<path d="M187.042 27.1223C187.042 27.6821 186.591 28.1359 186.034 28.1359C185.477 28.1359 185.025 27.6821 185.025 27.1223C185.025 26.5626 185.477 26.1088 186.034 26.1088C186.591 26.1088 187.042 26.5626 187.042 27.1223Z" fill="#AC6CDA"/>
<path d="M185.444 42.5722C184.656 41.7805 184.656 40.497 185.444 39.7053C186.231 38.9136 187.509 38.9136 188.296 39.7053L195.428 46.8725C196.216 47.6642 196.216 48.9477 195.428 49.7394C194.64 50.531 193.363 50.531 192.575 49.7394L185.444 42.5722Z" fill="#AC6CDA"/>
<path d="M78.1178 40.2991H85.1778V47.3943H78.1178V40.2991Z" fill="#AC6CDA"/>
<path d="M91.2301 37.6886C91.2301 34.1714 94.0672 31.3202 97.5669 31.3202H163.561C167.061 31.3202 169.898 34.1714 169.898 37.6886V75.6315C169.898 79.1487 167.061 82 163.561 82H97.5669C94.0672 82 91.2301 79.1487 91.2301 75.6316V37.6886Z" fill="#AC6CDA"/>
<path d="M171.289 39.2654C171.908 39.8871 171.914 40.9054 171.216 41.4364C170.13 42.2633 168.904 42.8933 167.592 43.2932C165.773 43.8477 163.846 43.9429 161.982 43.5702C160.117 43.1975 158.373 42.3685 156.904 41.1567C155.435 39.9448 154.286 38.3875 153.558 36.6226C152.831 34.8578 152.548 32.9399 152.734 31.0388C152.92 29.1378 153.57 27.3122 154.626 25.7239C155.682 24.1356 157.112 22.8335 158.788 21.933C159.997 21.2835 161.308 20.8574 162.657 20.6703C163.524 20.5502 164.237 21.2742 164.237 22.1535V31.5179C164.237 31.9402 164.404 32.3451 164.701 32.6437L171.289 39.2654Z" fill="#AC6CDA"/>
<path d="M172.054 37.7563C172.676 38.4028 173.719 38.4077 174.236 37.6736C175.135 36.3993 175.759 34.9313 176.059 33.3691C176.463 31.2591 176.255 29.072 175.463 27.0844C174.67 25.0969 173.327 23.3981 171.605 22.2028C170.323 21.3136 168.874 20.7329 167.363 20.4938C166.499 20.357 165.786 21.0825 165.786 21.9618V30.6028C165.786 31.016 165.946 31.413 166.231 31.71L172.054 37.7563Z" fill="#AC6CDA"/>
<path d="M100.307 70.707L104.428 64.3173C105.387 62.8297 107.553 62.8297 108.513 64.3174C109.563 65.9462 111.992 65.7556 112.779 63.9825L121.81 43.6131C122.372 42.3465 124.164 42.3567 124.711 43.6296L129.889 55.6727C130.843 57.8914 133.923 58.0267 135.066 55.9001C136.202 53.7868 139.257 53.9036 140.23 56.0975L141.902 59.8692C142.81 61.917 145.616 62.1372 146.829 60.2559C148.036 58.3852 150.822 58.5899 151.745 60.6171L154.183 65.9743C155.339 68.5118 158.417 69.4981 160.82 68.1006M159.625 54.6186C159.625 55.0582 159.271 55.4146 158.833 55.4146C158.396 55.4146 158.041 55.0582 158.041 54.6186C158.041 54.1789 158.396 53.8225 158.833 53.8225C159.271 53.8225 159.625 54.1789 159.625 54.6186ZM174.94 71.6696L179.932 66.6526L184.924 71.6696L179.932 76.6867L174.94 71.6696ZM63.9982 33.2039C63.9982 33.7637 63.5467 34.2175 62.9896 34.2175C62.4326 34.2175 61.9811 33.7637 61.9811 33.2039C61.9811 32.6441 62.4326 32.1903 62.9896 32.1903C63.5467 32.1903 63.9982 32.6441 63.9982 33.2039ZM90.2211 19.0136C90.2211 19.5734 89.7696 20.0272 89.2126 20.0272C88.6555 20.0272 88.204 19.5734 88.204 19.0136C88.204 18.4538 88.6555 18 89.2126 18C89.7696 18 90.2211 18.4538 90.2211 19.0136ZM74.0836 64.6254C74.0836 65.1852 73.632 65.639 73.075 65.639C72.518 65.639 72.0665 65.1852 72.0665 64.6254C72.0665 64.0656 72.518 63.6118 73.075 63.6118C73.632 63.6118 74.0836 64.0656 74.0836 64.6254ZM187.042 27.1223C187.042 27.6821 186.591 28.1359 186.034 28.1359C185.477 28.1359 185.025 27.6821 185.025 27.1223C185.025 26.5626 185.477 26.1088 186.034 26.1088C186.591 26.1088 187.042 26.5626 187.042 27.1223ZM195.428 49.7394C194.64 50.531 193.363 50.531 192.575 49.7394L185.444 42.5722C184.656 41.7805 184.656 40.497 185.444 39.7053C186.231 38.9136 187.509 38.9136 188.296 39.7053L195.428 46.8725C196.216 47.6642 196.216 48.9477 195.428 49.7394ZM78.1178 40.2991H85.1778V47.3943H78.1178V40.2991ZM97.5669 82H163.561C167.061 82 169.898 79.1487 169.898 75.6315V37.6886C169.898 34.1714 167.061 31.3202 163.561 31.3202H97.5669C94.0672 31.3202 91.2301 34.1714 91.2301 37.6886V75.6316C91.2301 79.1487 94.0672 82 97.5669 82ZM167.592 43.2932C168.904 42.8933 170.13 42.2633 171.216 41.4364C171.914 40.9054 171.908 39.8871 171.289 39.2654L164.701 32.6437C164.404 32.3451 164.237 31.9402 164.237 31.5179V22.1535C164.237 21.2742 163.524 20.5502 162.657 20.6703C161.308 20.8574 159.997 21.2835 158.788 21.933C157.112 22.8335 155.682 24.1356 154.626 25.7239C153.57 27.3122 152.92 29.1378 152.734 31.0388C152.548 32.9399 152.831 34.8578 153.558 36.6226C154.286 38.3875 155.435 39.9448 156.904 41.1567C158.373 42.3685 160.117 43.1975 161.982 43.5702C163.846 43.9429 165.773 43.8477 167.592 43.2932ZM176.059 33.3691C175.759 34.9313 175.135 36.3993 174.236 37.6736C173.719 38.4077 172.676 38.4028 172.054 37.7563L166.231 31.71C165.946 31.413 165.786 31.016 165.786 30.6028V21.9618C165.786 21.0825 166.499 20.357 167.363 20.4938C168.874 20.7329 170.323 21.3136 171.605 22.2028C173.327 23.3981 174.67 25.0969 175.463 27.0844C176.255 29.072 176.463 31.2591 176.059 33.3691Z" stroke="#D1AFE9" stroke-linecap="round"/>
</svg>
