<svg width="16" height="16" viewBox="0 0 16 16" fill="none" xmlns="http://www.w3.org/2000/svg">
<path fill-rule="evenodd" clip-rule="evenodd" d="M7.70301 1.59961C4.33897 1.59961 1.6001 4.33822 1.6001 7.70195C1.6001 11.0657 4.33897 13.8043 7.70301 13.8043C11.0671 13.8043 13.8059 11.0657 13.8059 7.70195C13.8059 4.33822 11.0671 1.59961 7.70301 1.59961ZM7.70301 12.9113C4.8272 12.9113 2.49321 10.5715 2.49321 7.70195C2.49321 4.83236 4.8272 2.49264 7.70301 2.49264C10.5788 2.49264 12.9128 4.83236 12.9128 7.70195C12.9128 10.5715 10.5788 12.9113 7.70301 12.9113Z" fill="#404040"/>
<path d="M13.6395 14.2686L12.4487 13.0779C12.276 12.9053 12.276 12.6195 12.4487 12.4469C12.6213 12.2742 12.9071 12.2742 13.0798 12.4469L14.2706 13.6376C14.4433 13.8102 14.4433 14.096 14.2706 14.2686C14.1813 14.3579 14.0682 14.3996 13.955 14.3996C13.8419 14.3996 13.7288 14.3579 13.6395 14.2686Z" fill="#404040"/>
<path d="M5.32669 8.07379C5.08259 8.07379 4.88018 7.87138 4.88018 7.62728C4.88018 7.38319 5.08259 7.18077 5.32669 7.18077H10.0895C10.3336 7.18077 10.536 7.38319 10.536 7.62728C10.536 7.87138 10.3336 8.07379 10.0895 8.07379H5.32669Z" fill="#404040"/>
<path d="M7.2616 10.0089V5.24612C7.2616 5.00203 7.46402 4.79961 7.70811 4.79961C7.95221 4.79961 8.15462 5.00203 8.15462 5.24612V10.0089C8.15462 10.253 7.95221 10.4554 7.70811 10.4554C7.46402 10.4554 7.2616 10.253 7.2616 10.0089Z" fill="#404040"/>
</svg>
