<svg width="12" height="12" viewBox="0 0 12 12" fill="none" xmlns="http://www.w3.org/2000/svg">
<path fill-rule="evenodd" clip-rule="evenodd" d="M5.77738 1.20117C3.25435 1.20117 1.2002 3.25532 1.2002 5.77836C1.2002 8.30139 3.25435 10.3555 5.77738 10.3555C8.30041 10.3555 10.3546 8.30139 10.3546 5.77836C10.3546 3.25532 8.30041 1.20117 5.77738 1.20117ZM5.77738 9.68571C3.62052 9.68571 1.87003 7.93075 1.87003 5.77836C1.87003 3.62596 3.62052 1.871 5.77738 1.871C7.93424 1.871 9.68473 3.62596 9.68473 5.77836C9.68473 7.93075 7.93424 9.68571 5.77738 9.68571Z" fill="#404040"/>
<path d="M10.2297 10.7038L9.33661 9.81072C9.20711 9.68122 9.20711 9.46687 9.33661 9.33737C9.46611 9.20787 9.68046 9.20787 9.80996 9.33737L10.7031 10.2305C10.8326 10.36 10.8326 10.5743 10.7031 10.7038C10.6361 10.7708 10.5512 10.8021 10.4664 10.8021C10.3816 10.8021 10.2967 10.7708 10.2297 10.7038Z" fill="#404040"/>
</svg>
