<svg width="12" height="12" viewBox="0 0 12 12" fill="none" xmlns="http://www.w3.org/2000/svg">
<path d="M8.64188 6.50259L9.84683 5.29764C9.95819 5.409 10.0892 5.46468 10.2399 5.46468C10.3905 5.46468 10.5215 5.409 10.6329 5.29764C10.7443 5.18628 10.8 5.05526 10.8 4.9046C10.8 4.75393 10.7443 4.62292 10.6329 4.51156L7.48859 1.36724C7.37723 1.25588 7.24622 1.2002 7.09555 1.2002C6.94488 1.2002 6.81387 1.25588 6.70251 1.36724C6.59115 1.4786 6.53547 1.60961 6.53547 1.76028C6.53547 1.91094 6.59115 2.04196 6.70251 2.15332L5.49752 3.35831L8.64188 6.50259Z" fill="#404040"/>
<path d="M8.1722 6.97226L5.02784 3.82798L3.95123 4.9046H2.6149C2.53629 4.9046 2.46259 4.91934 2.39381 4.94881C2.32503 4.97829 2.26443 5.01923 2.21203 5.07164L1.98603 5.29764C1.87467 5.409 1.81899 5.54001 1.81899 5.69068C1.81899 5.84134 1.87467 5.97236 1.98603 6.08372L3.55819 7.65588L1.36699 9.84707C1.31459 9.89948 1.27365 9.96007 1.24417 10.0289C1.21469 10.0976 1.19995 10.1713 1.19995 10.2499V10.5251C1.19995 10.6037 1.22615 10.6692 1.27856 10.7216C1.33096 10.774 1.39647 10.8002 1.47508 10.8002H1.75021C1.82882 10.8002 1.90251 10.7855 1.97129 10.756C2.04007 10.7265 2.10067 10.6856 2.15307 10.6332L4.34427 8.44196L5.91643 10.0141C6.02779 10.1255 6.1588 10.1812 6.30947 10.1812C6.46014 10.1812 6.59115 10.1255 6.70251 10.0141L6.92851 9.78812C6.98091 9.73571 7.02185 9.67512 7.05133 9.60634C7.08081 9.53756 7.09555 9.46386 7.09555 9.38525V8.04892L8.1722 6.97226Z" fill="#404040"/>
<path d="M2.65759 1.8821C2.77475 1.76494 2.9647 1.76494 3.08186 1.8821L10.1182 8.9183C10.2354 9.03545 10.2354 9.2254 10.1182 9.34256L10.0727 9.3881C9.95553 9.50526 9.76558 9.50526 9.64842 9.3881L2.61205 2.3519C2.49489 2.23475 2.49489 2.0448 2.61205 1.92764L2.65759 1.8821Z" fill="#404040"/>
</svg>
