<svg width="56" height="56" viewBox="0 0 56 56" fill="none" xmlns="http://www.w3.org/2000/svg">
<mask id="mask0_3960_21826" style="mask-type:alpha" maskUnits="userSpaceOnUse" x="0" y="0" width="56" height="56">
<ellipse cx="28" cy="28" rx="28" ry="28" fill="#EEF1F9"/>
</mask>
<g mask="url(#mask0_3960_21826)">
<ellipse cx="28" cy="28" rx="28" ry="28" fill="white"/>
<path d="M43.3673 27.1562H14.3673V18.6562C14.3673 16.7233 15.9343 15.1562 17.8673 15.1562H27.2862C28.0152 15.1562 28.6624 15.6227 28.893 16.3144C29.2596 17.4143 30.289 18.1562 31.4484 18.1562H39.8673C41.8003 18.1562 43.3673 19.7233 43.3673 21.6562V27.1562Z" fill="#436AF5" stroke="#436AF5"/>
<rect x="40.6055" y="14" width="18.676" height="30.5161" rx="2" transform="rotate(78.9515 40.6055 14)" fill="white"/>
<rect x="42.8208" y="17.7178" width="18.676" height="30.5161" rx="2" transform="rotate(85.6892 42.8208 17.7178)" fill="white"/>
<path d="M14.3673 23.6562C14.3673 21.7233 15.9343 20.1562 17.8673 20.1562H39.8673C41.8003 20.1562 43.3673 21.7233 43.3673 23.6562V36.6562C43.3673 38.5892 41.8003 40.1562 39.8673 40.1562H17.8673C15.9343 40.1562 14.3673 38.5892 14.3673 36.6562V23.6562Z" fill="#436AF5" stroke="#436AF5"/>
<circle cx="28.6991" cy="30.488" r="4.83179" fill="white"/>
<rect x="28.3121" y="29.812" width="0.867245" height="3.1799" fill="#436AF5"/>
<path d="M28.7449 28.6562L30.6226 30.5353H26.8673L28.7449 28.6562Z" fill="#436AF5"/>
</g>
</svg>
