<svg width="56" height="57" viewBox="0 0 56 57" fill="none" xmlns="http://www.w3.org/2000/svg">
<mask id="mask0_11318_728" style="mask-type:alpha" maskUnits="userSpaceOnUse" x="0" y="0" width="56" height="57">
<ellipse cx="28" cy="28.5" rx="28" ry="28" fill="#EEF1F9"/>
</mask>
<g mask="url(#mask0_11318_728)">
<ellipse cx="28" cy="28.5" rx="28" ry="28" fill="#1F1F1F"/>
<path d="M14.3672 27.6562V19.1562C14.3672 17.2233 15.9342 15.6562 17.8672 15.6562H27.2861C28.0151 15.6563 28.662 16.1229 28.8926 16.8145C29.2592 17.9144 30.2888 18.6562 31.4482 18.6562H39.8672C41.8002 18.6562 43.3672 20.2233 43.3672 22.1562V27.6562H14.3672Z" fill="#436AF5" stroke="#436AF5"/>
<rect x="40.6055" y="14.5" width="18.676" height="30.5161" rx="2" transform="rotate(78.9515 40.6055 14.5)" fill="#1F1F1F"/>
<rect x="42.8203" y="18.2178" width="18.676" height="30.5161" rx="2" transform="rotate(85.6892 42.8203 18.2178)" fill="#1F1F1F"/>
<path d="M17.8672 20.6562H39.8672C41.8002 20.6562 43.3672 22.2233 43.3672 24.1562V37.1562C43.3672 39.0892 41.8002 40.6562 39.8672 40.6562H17.8672C15.9342 40.6562 14.3672 39.0892 14.3672 37.1562V24.1562C14.3672 22.2233 15.9342 20.6562 17.8672 20.6562Z" fill="#436AF5" stroke="#436AF5"/>
<circle cx="28.699" cy="30.988" r="4.83179" fill="#1F1F1F"/>
<rect x="28.3125" y="30.3125" width="0.867245" height="3.1799" fill="#436AF5"/>
<path d="M28.7448 29.1562L30.6225 31.0353H26.8672L28.7448 29.1562Z" fill="#436AF5"/>
</g>
</svg>
