<svg width="14" height="14" viewBox="0 0 14 14" fill="none" xmlns="http://www.w3.org/2000/svg">
<path d="M8.10783 10.8501C7.93867 10.6809 7.93867 10.4009 8.10783 10.2317L11.3395 7.00007L8.10783 3.7684C7.93867 3.59923 7.93867 3.31924 8.10783 3.15007C8.277 2.9809 8.557 2.9809 8.72617 3.15007L12.267 6.6909C12.4362 6.86007 12.4362 7.14007 12.267 7.30924L8.72617 10.8501C8.63867 10.9376 8.52783 10.9784 8.417 10.9784C8.30617 10.9784 8.19533 10.9376 8.10783 10.8501Z" fill="#436AF5"/>
<path d="M2.0415 7.4375C1.80234 7.4375 1.604 7.23917 1.604 7C1.604 6.76083 1.80234 6.5625 2.0415 6.5625H11.859C12.0982 6.5625 12.2965 6.76083 12.2965 7C12.2965 7.23917 12.0982 7.4375 11.859 7.4375H2.0415Z" fill="#436AF5"/>
</svg>
