<svg width="14" height="16" viewBox="0 0 14 16" fill="none" xmlns="http://www.w3.org/2000/svg">
<path fill-rule="evenodd" clip-rule="evenodd" d="M14 16H0L2.14736 3.59545H11.8526L14 16ZM5.11344 7.13346V7.95609H6.21007C6.52725 7.9625 6.80008 8.14773 6.93616 8.41639H5.09842V9.23903H6.90694C6.76041 9.48301 6.49611 9.64686 6.19338 9.64697H5.11344V10.7466L5.27702 10.8699L7.51702 12.5642L8.00358 11.9054L6.10241 10.4688H6.19338C6.95343 10.4686 7.59137 9.94718 7.78158 9.23903H8.6028V8.41639H7.79493C7.75657 8.2522 7.69453 8.09754 7.61216 7.95609H8.60447V7.13346H5.11344Z" fill="#2A2A2A"/>
<path d="M3.97698 2.91909L10.0304 2.91909L10.9797 0L3.02768 7.03531e-07L3.97698 2.91909Z" fill="#2A2A2A"/>
</svg>
