<svg width="15" height="16" viewBox="0 0 15 16" fill="none" xmlns="http://www.w3.org/2000/svg">
<path d="M7.19837 7.42821C7.51711 7.42836 7.77517 7.6845 7.77523 8C7.77508 8.31542 7.51705 8.5708 7.19837 8.57095C6.87955 8.57095 6.6208 8.31551 6.62065 8C6.62071 7.68441 6.87949 7.42821 7.19837 7.42821Z" fill="#2A2A2A"/>
<path fill-rule="evenodd" clip-rule="evenodd" d="M14.1992 4V12L7.19922 16L0.199219 12V4L7.19922 0L14.1992 4ZM7.19666 10.7365L6.54129 10.7373V12.2441L5.89189 11.875L5.23823 12.9992L7.21885 14.1267L9.14485 13.0701L8.52703 11.9654L8.50996 11.9358L7.85203 12.2948V10.7365H7.19666ZM1.88372 8.84628L1.88799 11.1081L3.77559 12.2306L4.11352 11.6748L4.45059 11.1191L3.19788 10.3742L3.19446 8.84459L1.88372 8.84628ZM11.2347 10.3074L9.89835 11.0752L10.226 11.636L10.5554 12.1976L12.2118 11.2475L12.5318 11.0633L12.5386 10.6976L12.5702 8.88429L11.9148 8.87247L11.2603 8.86149L11.2347 10.3074ZM7.19837 6.13091C6.15559 6.13091 5.30997 6.96793 5.30991 8L5.3193 8.19088C5.40955 9.07027 6.1162 9.76947 7.00466 9.85895L7.19837 9.86824C8.17585 9.8681 8.97986 9.13311 9.07658 8.19088L9.08597 8C9.08591 7.03246 8.34329 6.23592 7.39122 6.1402L7.19837 6.13091ZM1.86324 5.02534L1.85642 5.39189L1.82484 7.20439L3.13473 7.22804L3.14753 6.48311L4.51374 7.26351L5.16825 6.13936L3.84813 5.38598L4.49667 5.01436L4.16899 4.4527L3.83959 3.89189L1.86324 5.02534ZM9.94273 4.96959L10.587 5.35304L9.22336 6.13429L9.55104 6.69595L9.87958 7.2576L11.1971 6.50338L11.1989 7.24409H11.8534L12.5096 7.2424L12.5053 4.98142L10.6177 3.85895L9.94273 4.96959ZM6.84423 2.1402L5.24164 3.01943L5.85946 4.12416L5.87653 4.15372L7.15484 3.4527L8.4946 4.21453L9.14826 3.09037L7.4885 2.14527L7.16764 1.96199L6.84423 2.1402Z" fill="#2A2A2A"/>
</svg>
