<svg width="16" height="16" viewBox="0 0 16 16" fill="none" xmlns="http://www.w3.org/2000/svg">
<path d="M7.53119 8.44946H15.0632C15.0632 9.94282 14.6212 11.4029 13.7937 12.6446C12.9661 13.8863 11.7893 14.8536 10.4131 15.4251C9.03694 15.9965 7.52292 16.1463 6.06202 15.855C4.60104 15.5636 3.25874 14.8443 2.20544 13.7882C1.15236 12.7323 0.435495 11.387 0.144886 9.92245C-0.145721 8.45767 0.00278798 6.939 0.572833 5.55921C1.14287 4.1795 2.10843 3.00035 3.34691 2.17064C4.58543 1.34093 6.04163 0.897843 7.53119 0.897818V8.44946Z" fill="#2A2A2A"/>
<path d="M8.46796 0C9.45693 -4.3342e-08 10.4362 0.195758 11.3499 0.575178C12.2636 0.954659 13.0943 1.51084 13.7937 2.21203C14.493 2.91317 15.0479 3.74534 15.4263 4.66139C15.8048 5.57743 16 6.55928 16 7.5508H8.46796V0Z" fill="#2A2A2A"/>
</svg>
