<svg width="16" height="16" viewBox="0 0 16 16" fill="none" xmlns="http://www.w3.org/2000/svg">
<path fill-rule="evenodd" clip-rule="evenodd" d="M7.99955 0C12.4178 0 16 3.58221 16 8.00045C16 12.4187 12.4178 16 7.99955 16C3.58151 15.9998 3.9197e-05 12.4185 0 8.00045C0 3.58233 3.58149 0.000202583 7.99955 0ZM5.22476 5.47262L3.56132 8.99815V9.92875H5.8556V10.7502H6.86673V9.92875H7.33561V8.99815H6.86673V7.67832H5.8556V8.99815H4.70488L6.36832 5.47262H5.22476ZM7.68548 5.47262L9.40798 8.08187L7.63447 10.7502H8.86572L10.0317 8.93194L11.1895 10.7502H12.4136L10.6473 8.08187L12.3698 5.47262H11.1385L10.0317 7.23181L8.90957 5.47262H7.68548Z" fill="#2A2A2A"/>
</svg>
