<svg width="16" height="16" viewBox="0 0 16 16" fill="none" xmlns="http://www.w3.org/2000/svg">
<path d="M6.02377 0.423997C5.66377 1.47999 5.40777 2.57598 5.20777 3.67197C7.06376 3.46397 8.93574 3.46397 10.7917 3.67197C10.5917 2.57598 10.3357 1.48799 9.97573 0.423997C9.96469 0.379811 9.96127 0.343252 9.95758 0.303789C9.95592 0.286119 9.95421 0.267781 9.95173 0.247998C9.32774 0.0959992 8.67175 0 7.99975 0C7.31976 0 6.67176 0.0959992 6.03977 0.247998C6.03658 0.273449 6.03593 0.296369 6.0353 0.318772C6.03433 0.352704 6.0334 0.385448 6.02377 0.423997Z" fill="#2A2A2A"/>
<path d="M11.4311 0.783978C11.7431 1.78397 11.9911 2.80796 12.1591 3.83995C13.1911 4.01595 14.2071 4.26395 15.2151 4.56795C14.4231 2.91196 13.0871 1.57597 11.4311 0.783978Z" fill="#2A2A2A"/>
<path d="M4.4404 15.1437C2.88842 14.3757 1.62442 13.1037 0.848431 11.5517C0.848431 11.5397 0.852431 11.5257 0.856431 11.5117C0.860431 11.4977 0.864431 11.4837 0.864431 11.4717C1.84042 11.7597 2.84842 11.9757 3.84841 12.1437C4.02441 13.1517 4.2324 14.1517 4.5204 15.1277C4.5084 15.1277 4.4944 15.1317 4.4804 15.1357C4.46641 15.1397 4.4524 15.1437 4.4404 15.1437Z" fill="#2A2A2A"/>
<path d="M11.4311 15.2157C11.7351 14.1997 11.9911 13.1757 12.1591 12.1437C13.1671 11.9757 14.1591 11.7597 15.1351 11.4717C15.1303 11.4909 15.137 11.5102 15.1432 11.5277C15.1473 11.5393 15.1511 11.5501 15.1511 11.5597C14.3591 13.1517 13.0391 14.4397 11.4311 15.2157Z" fill="#2A2A2A"/>
<path d="M3.85625 3.84797C2.82426 4.00797 1.80026 4.26396 0.784271 4.56796C1.56027 2.95998 2.84826 1.63999 4.44024 0.847991C4.45224 0.847991 4.46624 0.853991 4.48024 0.859991C4.49424 0.865991 4.50824 0.871991 4.52024 0.871991C4.23224 1.84798 4.02425 2.83998 3.85625 3.84797Z" fill="#2A2A2A"/>
<path d="M0.423997 9.97573C0.385448 9.9661 0.352703 9.96517 0.318771 9.9642C0.296372 9.96357 0.273444 9.96292 0.247998 9.95973C0.0959992 9.32774 0 8.67974 0 7.99975C0 7.32776 0.0959992 6.67176 0.247998 6.04777C0.267811 6.04529 0.28609 6.04358 0.303785 6.04192C0.34325 6.03823 0.37981 6.03481 0.423997 6.02377C1.48799 5.67177 2.56798 5.40777 3.67197 5.20777C3.47197 7.06376 3.47197 8.93574 3.67197 10.7917C2.56798 10.5917 1.47999 10.3357 0.423997 9.97573Z" fill="#2A2A2A"/>
<path d="M15.6812 9.9642C15.7036 9.96357 15.7266 9.96292 15.752 9.95973C15.904 9.32774 16 8.67974 16 7.99975C16 7.32776 15.904 6.67976 15.752 6.04777C15.688 6.04777 15.64 6.03976 15.576 6.02377C14.52 5.66377 13.424 5.40777 12.328 5.20777C12.536 7.06376 12.536 8.93574 12.328 10.7917C13.424 10.5917 14.512 10.3277 15.576 9.97573C15.6146 9.9661 15.6473 9.96517 15.6812 9.9642Z" fill="#2A2A2A"/>
<path d="M9.97573 15.576C9.96469 15.6202 9.96127 15.6567 9.95758 15.6962C9.95592 15.7139 9.95421 15.7322 9.95173 15.752C9.32774 15.904 8.67175 16 7.99975 16C7.31976 16 6.67176 15.904 6.03977 15.752C6.03658 15.7266 6.03593 15.7036 6.0353 15.6812C6.03433 15.6473 6.0334 15.6146 6.02377 15.576C5.67177 14.512 5.40777 13.432 5.20777 12.328C6.13576 12.432 7.06376 12.504 7.99975 12.504C8.93574 12.504 9.87174 12.432 10.7917 12.328C10.5917 13.432 10.3357 14.52 9.97573 15.576Z" fill="#2A2A2A"/>
<path d="M4.9893 4.9893C4.73685 6.99016 4.73685 9.00972 4.9893 11.0106C6.99016 11.263 9.00972 11.263 11.0106 11.0106C11.263 9.00972 11.263 6.99016 11.0106 4.9893C9.00972 4.73685 6.99016 4.73685 4.9893 4.9893Z" fill="#2A2A2A"/>
</svg>
