<svg width="16" height="12" viewBox="0 0 16 12" fill="none" xmlns="http://www.w3.org/2000/svg">
<path d="M12.6309 2.20015C12.7753 2.57075 13.0829 2.86299 13.473 3.00014C13.0829 3.1373 12.7753 3.42951 12.6309 3.80012C12.4866 3.42948 12.179 3.13729 11.7889 3.00014C12.179 2.863 12.4865 2.57075 12.6309 2.20015Z" fill="#2A2A2A"/>
<path d="M10.1047 0C10.3934 0.74123 11.0087 1.32564 11.7889 1.59997C11.0087 1.87427 10.3935 2.45874 10.1047 3.19993C9.81597 2.45873 9.20083 1.87425 8.42061 1.59997C9.20086 1.32566 9.816 0.741267 10.1047 0Z" fill="#2A2A2A"/>
<path d="M12.7593 12H0L2.52618 4.80015H10.2044L12.7593 12Z" fill="#2A2A2A"/>
<path d="M16 12H13.6478L11.0929 4.80015H13.4738L16 12Z" fill="#2A2A2A"/>
</svg>
