<svg width="16" height="16" viewBox="0 0 16 16" fill="none" xmlns="http://www.w3.org/2000/svg">
<path d="M7.99928 12.28C7.48737 12.28 7.04744 11.984 6.83948 11.56L8.58318 9.81604C9.00711 10.024 9.30306 10.464 9.30306 10.976C9.30306 11.696 8.71916 12.28 7.99928 12.28Z" fill="#2A2A2A"/>
<path d="M0 10.232V11.72C0 13.36 0.247958 14.432 0.911847 15.088L5.67905 10.32C5.90301 9.51197 6.5349 8.87997 7.34277 8.65597L10.0463 5.95196H4.27928C0.999832 5.95196 0 6.95197 0 10.232Z" fill="#2A2A2A"/>
<path d="M11.8946 4.10401C11.8626 2.68001 11.3267 1.12 7.99922 1.12C4.75976 1.12 4.09587 2.68 4.09587 5.02401V5.96001C3.68794 5.96001 3.31201 5.98401 2.97606 6.02401V5.02401C2.97606 2.86401 3.49598 0 7.99922 0C10.8307 0 12.4785 1.04 12.9024 3.09601L11.8946 4.10401Z" fill="#2A2A2A"/>
<path d="M15.9972 11.72C15.9972 15 14.9974 16 11.718 16H4.27922C3.60733 16 3.02343 15.96 2.53551 15.864L6.02293 12.376C6.47085 12.992 7.18273 13.392 7.99859 13.392C9.33437 13.392 10.4142 12.312 10.4142 10.976C10.4142 10.16 10.0143 9.44799 9.39836 8.99999L12.4298 5.96798C15.1414 6.11998 15.9972 7.19998 15.9972 10.232V11.72Z" fill="#2A2A2A"/>
<path d="M14.9422 0.183907L0.184656 14.9519C-0.0553032 15.1919 -0.0553032 15.5839 0.184656 15.8239C0.304636 15.9359 0.456611 15.9999 0.616584 15.9999C0.776557 15.9999 0.928531 15.9359 1.04851 15.8159L15.814 1.04791C16.062 0.807908 16.062 0.423907 15.814 0.183907C15.5741 -0.056094 15.1821 -0.056094 14.9422 0.183907Z" fill="#2A2A2A"/>
</svg>
