<svg width="16" height="16" viewBox="0 0 16 16" fill="none" xmlns="http://www.w3.org/2000/svg">
<path d="M16 0.00055241V15.9994L0 16V0L16 0.00055241ZM3.99019 8.59274C2.97486 9.60804 2.97492 11.2542 3.99019 12.2696C5.00556 13.2849 6.65179 13.2849 7.66716 12.2696L8.86096 11.0758L8.01243 10.2273L6.81863 11.4211C6.2719 11.9678 5.38546 11.9678 4.83873 11.4211C4.29209 10.8744 4.29202 9.98792 4.83873 9.44124L6.37779 7.90222C6.92453 7.3559 7.81108 7.35572 8.3577 7.90222L9.20623 7.05372C8.19098 6.03861 6.54462 6.03879 5.52926 7.05372L3.99019 8.59274ZM7.39923 5.18381L8.24776 6.03232L9.44156 4.83856C9.98831 4.29193 10.8748 4.29187 11.4215 4.83856C11.9682 5.38524 11.9681 6.27167 11.4215 6.8184L9.8824 8.35741C9.33564 8.90386 8.44914 8.90404 7.9025 8.35741L7.05396 9.20591C8.06924 10.2212 9.71554 10.221 10.7309 9.20591L12.27 7.6669C13.2853 6.65156 13.2853 5.00536 12.27 3.99006C11.2547 2.97476 9.60841 2.97482 8.59303 3.99006L7.39923 5.18381Z" fill="#2A2A2A"/>
</svg>
