<svg width="16" height="15" viewBox="0 0 16 15" fill="none" xmlns="http://www.w3.org/2000/svg">
<path d="M11.2891 2.12642H16V8.45576L15.7905 8.58132L15.4536 15H0.626869L0.290767 8.63122L0 8.45576V2.12642H4.71089L5.44797 0.372646L5.60508 0H10.3957L11.2891 2.12642ZM15.0964 7.56801C13.2304 8.69277 10.7362 9.38694 7.99609 9.38697C5.25631 9.38697 2.76989 8.69292 0.903566 7.56801L0.29702 8.63524C2.22712 9.7986 4.70326 10.5189 7.39971 10.612V12.7142H8.60029V10.6111C11.2943 10.5169 13.7746 9.79759 15.703 8.63524L15.0964 7.56801ZM6.01935 2.12642H9.98065L9.60625 1.23625H6.39375L6.01935 2.12642Z" fill="#2A2A2A"/>
</svg>
