<svg width="17" height="16" viewBox="0 0 17 16" fill="none" xmlns="http://www.w3.org/2000/svg">
<path fill-rule="evenodd" clip-rule="evenodd" d="M8.20117 -6.10352e-05C12.6198 -6.06938e-05 16.2012 3.58221 16.2012 7.99994C16.2012 12.4185 12.6197 15.9999 8.20117 15.9999C3.78344 15.9999 0.201172 12.4186 0.201172 7.99994C0.201172 3.58217 3.7834 -6.06489e-05 8.20117 -6.10352e-05ZM10.1902 5.96478C9.85637 6.28134 8.99566 7.07795 8.21445 7.79916C7.82471 8.15897 7.45525 8.49847 7.18398 8.74838C7.16975 8.76149 7.15549 8.77405 7.1418 8.78666L5.77383 7.50931L4.95508 8.38588L5.39336 8.79603L6.89805 10.1999H7.38008L7.55195 10.0413L7.55977 10.0343C7.56505 10.0295 7.57296 10.0219 7.5832 10.0124C7.60375 9.99353 7.63436 9.96602 7.67305 9.93041C7.75047 9.85913 7.86156 9.75621 7.99727 9.63119C8.26873 9.3811 8.63759 9.04059 9.02773 8.68041C9.80624 7.96169 10.6741 7.15855 11.0152 6.8351L11.4512 6.4226L10.6254 5.5515L10.1902 5.96478Z" fill="#2A2A2A"/>
</svg>
