<svg width="15" height="16" viewBox="0 0 15 16" fill="none" xmlns="http://www.w3.org/2000/svg">
<path d="M11.6087 9.2973H15V12.7568C15 14.1897 13.8613 15.3513 12.4565 15.3513C11.9883 15.3513 11.6087 14.9641 11.6087 14.4865V9.2973Z" fill="#2A2A2A"/>
<path d="M0 9.65047e-07L2.69664 3.67568L5.39245 4.84148e-07L8.1073 3.67568L10.8213 0L10.8213 14.0963C10.8414 15.1723 11.0024 16 12.2876 16L1.3712e-06 16L0 9.65047e-07Z" fill="#2A2A2A"/>
<path d="M8.20583 12.1946L3.513 7.40746L2.61384 8.32469L7.30667 13.1119L8.20583 12.1946Z" fill="#2A2A2A"/>
<path d="M7.89452 7.72841H6.61616V9.02571H7.89452V7.72841Z" fill="#2A2A2A"/>
<path d="M4.20517 11.4928H2.92681V12.7901H4.20517V11.4928Z" fill="#2A2A2A"/>
</svg>
