<svg width="16" height="16" viewBox="0 0 16 16" fill="none" xmlns="http://www.w3.org/2000/svg">
<path fill-rule="evenodd" clip-rule="evenodd" d="M11.3555 0.32959C12.4645 0.32959 13.364 1.22848 13.3643 2.3374V4.34619H11.8643V2.3374C11.864 2.0569 11.636 1.82959 11.3555 1.82959H5.90332C5.41445 1.82959 5.09855 1.83006 4.85938 1.85205C4.63073 1.87311 4.54734 1.90868 4.50586 1.93311C4.39628 1.99766 4.30479 2.08915 4.24023 2.19873C4.21581 2.24021 4.18024 2.3236 4.15918 2.55225C4.13719 2.79142 4.13672 3.10733 4.13672 3.59619V5.78174H15.8799V15.6704H0.119141V5.78174H2.63672V3.59619C2.63672 3.13523 2.6362 2.73849 2.66602 2.41455C2.69683 2.07999 2.76519 1.74882 2.94824 1.43799C3.14197 1.10905 3.41618 0.834844 3.74512 0.641114C4.05595 0.458061 4.38712 0.389702 4.72168 0.358887C5.04562 0.329074 5.44236 0.32959 5.90332 0.32959H11.3555ZM8.00195 9.00147C6.89747 9.00147 6.00209 9.89701 6.00195 11.0015C6.00195 12.106 6.89738 13.0015 8.00195 13.0015C9.10652 13.0015 10.002 12.106 10.002 11.0015C10.0018 9.89701 9.10644 9.00147 8.00195 9.00147Z" fill="#2A2A2A"/>
</svg>
