<svg width="71" height="25" fill="none" xmlns="http://www.w3.org/2000/svg"><path d="M39.407 17.598h-5.535l-1.352 2.561h-3.782l7.986-14.5h4.182l2.747 14.5h-3.824l-.422-2.561Zm-.423-2.686-.866-5.37-2.831 5.37h3.697ZM50.587 20.159c-1.62 0-2.939-.34-3.955-1.023-1.016-.681-1.524-1.649-1.524-2.902 0-.124.014-.31.042-.558h3.796c-.043.523.085.936.383 1.24.299.302.754.454 1.365.454.554 0 .991-.117 1.311-.351.32-.234.48-.565.48-.992 0-.44-.203-.799-.608-1.074-.405-.276-1.034-.585-1.887-.93-.824-.33-1.496-.644-2.015-.94a4.453 4.453 0 0 1-1.354-1.208c-.383-.51-.575-1.15-.575-1.922-.014-.95.227-1.776.725-2.479.497-.702 1.187-1.24 2.068-1.611.881-.372 1.89-.558 3.028-.558 1.023 0 1.933.155 2.729.465.796.31 1.414.757 1.855 1.343.44.585.661 1.277.661 2.076 0 .207-.007.358-.021.454h-3.88a1.07 1.07 0 0 0 .02-.248c0-.385-.138-.698-.415-.94-.278-.24-.658-.361-1.141-.361-.512 0-.928.12-1.247.362-.32.24-.48.568-.48.98 0 .414.199.762.597 1.044.398.282 1.016.61 1.855.981.839.372 1.524.717 2.057 1.033.533.317.992.74 1.376 1.27.384.531.575 1.182.575 1.953 0 .854-.234 1.618-.703 2.293-.47.675-1.145 1.202-2.026 1.58-.881.38-1.912.569-3.092.569ZM70.572 5.659l-.487 2.788h-3.96L64.01 20.16h-3.62l2.116-11.712h-3.938l.509-2.788h11.496Z" fill="#FFCC02"/><path fill-rule="evenodd" clip-rule="evenodd" d="M10.186 11.176h8.366c.804 0 1.455.633 1.455 1.415v.035c0 .781-.651 1.415-1.455 1.415h-8.366c-.78 0-1.416-.596-1.454-1.345l-.002-.105c0-.782.652-1.415 1.456-1.415Zm-8.73 0H5.82c.804 0 1.455.633 1.455 1.415v.035c0 .781-.651 1.415-1.455 1.415H1.455c-.78 0-1.415-.596-1.453-1.345L0 12.591c0-.782.651-1.415 1.455-1.415Z" fill="url(#a)"/><path fill-rule="evenodd" clip-rule="evenodd" d="M37.105 0 34.31 4.709h-9.396l-.606 3.113h7.947l-2.22 3.591h-6.564l-1.424 8.349-5.263 5.344 1.58-10.27c.002-.252-.059-.44-.183-.566a.821.821 0 0 0-.55-.23h.855l.43-2.793c.804 0 1.455-.634 1.455-1.415v-.035a1.42 1.42 0 0 0-1.024-1.352l.43-2.792c.741-.066 1.322-.671 1.322-1.409v-.035c0-.59-.371-1.095-.898-1.308L20.647 0h16.458Z" fill="#FFCC02"/><path fill-rule="evenodd" clip-rule="evenodd" d="M10.55 16.834h4.365c.803 0 1.455.634 1.455 1.415v.036c0 .78-.652 1.414-1.455 1.414H10.55c-.78 0-1.416-.595-1.454-1.344l-.002-.106c0-.781.652-1.415 1.456-1.415Z" fill="url(#b)"/><path fill-rule="evenodd" clip-rule="evenodd" d="M17.097 0h6.912c.804 0 1.455.633 1.455 1.415v.035c0 .781-.651 1.415-1.455 1.415h-6.912c-.779 0-1.415-.596-1.453-1.344l-.002-.106c0-.782.652-1.415 1.455-1.415Zm-5.456 0h1.455c.803 0 1.455.633 1.455 1.415v.035c0 .781-.652 1.415-1.455 1.415H11.64c-.78 0-1.416-.596-1.454-1.344l-.001-.106C10.186.633 10.837 0 11.64 0Z" fill="url(#c)"/><path d="M20.007 5.588H8.367c-.804 0-1.456.633-1.456 1.415v.035c0 .781.652 1.415 1.456 1.415h11.64c.804 0 1.455-.634 1.455-1.415v-.035c0-.782-.651-1.415-1.455-1.415Z" fill="url(#d)"/><defs><linearGradient id="a" x1="2.537" y1="12.615" x2="14.251" y2="12.291" gradientUnits="userSpaceOnUse"><stop stop-color="#FFCC02" stop-opacity="0"/><stop offset="1" stop-color="#FFCC02"/></linearGradient><linearGradient id="b" x1="10.017" y1="18.317" x2="17.961" y2="17.994" gradientUnits="userSpaceOnUse"><stop stop-color="#FFCC02" stop-opacity="0"/><stop offset="1" stop-color="#FFCC02"/></linearGradient><linearGradient id="c" x1="9.973" y1="1.432" x2="18.69" y2="1.716" gradientUnits="userSpaceOnUse"><stop stop-color="#FFCC02" stop-opacity="0"/><stop offset="1" stop-color="#FFCC02"/></linearGradient><linearGradient id="d" x1="6.912" y1="7.02" x2="13.847" y2="7.246" gradientUnits="userSpaceOnUse"><stop stop-color="#FFCC02" stop-opacity="0"/><stop offset="1" stop-color="#FFCC02"/></linearGradient></defs></svg>