<?xml version="1.0" encoding="UTF-8"?>
<svg width="12px" height="12px" viewBox="0 0 12 12" version="1.1" xmlns="http://www.w3.org/2000/svg" xmlns:xlink="http://www.w3.org/1999/xlink">
    <title>543D2520-E093-40F8-B716-5F5E46FC1605</title>
    <g id="⚙️icons" stroke="none" stroke-width="1" fill="none" fill-rule="evenodd">
        <g id="Design-System/Icons" transform="translate(-387.000000, -1583.000000)">
            <g id="forbidden-2" transform="translate(387.000000, 1583.000000)">
                <path d="M3.17861719,8.82095709 C2.97561719,8.61795709 2.97561719,8.28195913 3.17861719,8.07895913 L8.07861733,3.17895899 C8.28161733,2.97595899 8.6176153,2.97595899 8.82061529,3.17895899 C9.02361529,3.38195898 9.02361529,3.71795726 8.82061529,3.92095726 L3.92061546,8.82095709 C3.81561545,8.92595709 3.68261631,8.97495794 3.54961631,8.97495794 C3.41661631,8.97495794 3.28361719,8.92595709 3.17861719,8.82095709 Z" id="Vector" fill="#6A7483" fill-rule="nonzero"></path>
                <path d="M8.07861733,8.82095709 L3.17861719,3.92095726 C2.97561719,3.71795726 2.97561719,3.38195898 3.17861719,3.17895899 C3.38161718,2.97595899 3.71761546,2.97595899 3.92061546,3.17895899 L8.82061529,8.07895913 C9.02361529,8.28195913 9.02361529,8.61795709 8.82061529,8.82095709 C8.71561529,8.92595709 8.58261648,8.97495794 8.44961648,8.97495794 C8.31661648,8.97495794 8.18361734,8.92595709 8.07861733,8.82095709 Z" id="Vector" fill="#6A7483" fill-rule="nonzero"></path>
                <path d="M12,0 L12,12 L0,12 L0,0 L12,0 Z" id="Vector" opacity="0"></path>
            </g>
        </g>
    </g>
</svg>