<svg width="21" height="21" viewBox="0 0 21 21" fill="none" xmlns="http://www.w3.org/2000/svg">
<path d="M8.02926 9.3263C9.04467 8.31145 10.691 8.31113 11.7062 9.3263L10.8577 10.1748C10.3111 9.62825 9.42457 9.62856 8.87779 10.1748L7.33873 11.7138C6.79199 12.2605 6.79199 13.1469 7.33873 13.6937C7.88548 14.2402 8.77196 14.2403 9.31863 13.6937L10.5124 12.4999L11.361 13.3484L10.1672 14.5422C9.15186 15.5574 7.50558 15.5573 6.49019 14.5422C5.47483 13.5268 5.47483 11.8807 6.49019 10.8653L8.02926 9.3263Z" fill="#6D6D6D"/>
<path d="M11.093 6.26264C12.1084 5.24731 13.7546 5.24731 14.77 6.26264C15.7853 7.27798 15.7853 8.92418 14.77 9.93948L13.2309 11.4785C12.2156 12.4935 10.5692 12.4936 9.55397 11.4785L10.4025 10.63C10.9491 11.1765 11.8357 11.1764 12.3824 10.63L13.9215 9.09098C14.4682 8.54429 14.4681 7.65786 13.9215 7.11114C13.3747 6.56443 12.4883 6.56443 11.9416 7.11114L10.7478 8.3049L9.89923 7.4564L11.093 6.26264Z" fill="#6D6D6D"/>
<path fill-rule="evenodd" clip-rule="evenodd" d="M18.5 2.27314V18.272L2.5 18.2726V2.27258L18.5 2.27314ZM3.69988 17.0728L17.3001 17.0722V3.47297L3.69988 3.47242V17.0728Z" fill="#6D6D6D"/>
</svg>
