<svg width="21" height="21" viewBox="0 0 21 21" fill="none" xmlns="http://www.w3.org/2000/svg">
<path d="M18.5 2.27314V18.272L2.5 18.2726V2.27258L18.5 2.27314ZM6.49019 10.8653C5.47486 11.8806 5.47492 13.5268 6.49019 14.5422C7.50556 15.5575 9.15179 15.5575 10.1672 14.5422L11.361 13.3484L10.5124 12.4999L9.31863 13.6937C8.7719 14.2404 7.88546 14.2404 7.33873 13.6937C6.79209 13.1469 6.79202 12.2605 7.33873 11.7138L8.87779 10.1748C9.42453 9.62849 10.3111 9.62831 10.8577 10.1748L11.7062 9.3263C10.691 8.31119 9.04462 8.31137 8.02926 9.3263L6.49019 10.8653ZM9.89923 7.4564L10.7478 8.3049L11.9416 7.11114C12.4883 6.56452 13.3748 6.56446 13.9215 7.11114C14.4682 7.65783 14.4681 8.54425 13.9215 9.09098L12.3824 10.63C11.8356 11.1764 10.9491 11.1766 10.4025 10.63L9.55396 11.4785C10.5692 12.4937 12.2155 12.4936 13.2309 11.4785L14.77 9.93948C15.7853 8.92414 15.7853 7.27794 14.77 6.26264C13.7547 5.24734 12.1084 5.2474 11.093 6.26264L9.89923 7.4564Z" fill="#2A2A2A"/>
</svg>
