<svg width="21" height="21" viewBox="0 0 21 21" fill="none" xmlns="http://www.w3.org/2000/svg">
<path d="M18.5 12.2326L18.3085 17.7726H2.69149L2.5 12.2326L3.69975 12.1916L3.85216 16.5821H17.1486L17.3003 12.1916L18.5 12.2326Z" fill="#6D6D6D"/>
<path fill-rule="evenodd" clip-rule="evenodd" d="M13.7893 4.82022H18.5V10.9151L18.203 11.0879C16.2746 12.2072 13.7946 12.8999 11.1007 12.9906V15.0158H9.90013V12.9914C7.20381 12.9018 4.72779 12.2082 2.79779 11.0879L2.50078 10.9151V4.82022H7.21145L7.94849 3.13142L8.10559 2.77258H12.896L13.7893 4.82022ZM3.70131 10.2245C5.53066 11.2099 7.89929 11.8118 10.4965 11.8118C13.094 11.8118 15.4696 11.2098 17.2995 10.2245V6.01067H3.70131V10.2245ZM8.51983 4.82022H12.4809L12.1066 3.96303H8.89422L8.51983 4.82022Z" fill="#6D6D6D"/>
</svg>
