<svg width="21" height="21" viewBox="0 0 21 21" fill="none" xmlns="http://www.w3.org/2000/svg">
<path d="M13.7891 4.899H18.5V11.2283L18.2905 11.3539L17.9536 17.7726H3.12687L2.79077 11.4038L2.5 11.2283V4.899H7.21089L7.94797 3.14523L8.10508 2.77258H12.8957L13.7891 4.899ZM17.5964 10.3406C15.7304 11.4654 13.2362 12.1595 10.4961 12.1596C7.75631 12.1596 5.26989 11.4655 3.40357 10.3406L2.79702 11.4078C4.72712 12.5712 7.20326 13.2914 9.89971 13.3845V15.4868H11.1003V13.3837C13.7943 13.2895 16.2746 12.5702 18.203 11.4078L17.5964 10.3406ZM8.51935 4.899H12.4807L12.1063 4.00883H8.89375L8.51935 4.899Z" fill="#2A2A2A"/>
</svg>
