<svg width="94" height="80" viewBox="0 0 94 80" fill="none" xmlns="http://www.w3.org/2000/svg">
<path d="M4.80713 55.0009L46.9034 30.6965L88.9998 55.0009L46.9034 79.3052L4.80713 55.0009Z" fill="white"/>
<path d="M4.80713 55.0009L4.63485 54.9014L4.46257 55.0009L4.63485 55.1003L4.80713 55.0009ZM46.9034 30.6965L47.0757 30.5971L46.9034 30.4976L46.7312 30.5971L46.9034 30.6965ZM88.9998 55.0009L89.172 55.1003L89.3443 55.0009L89.172 54.9014L88.9998 55.0009ZM46.9034 79.3052L46.7312 79.4046L46.9034 79.5041L47.0757 79.4046L46.9034 79.3052ZM4.80713 55.0009L4.97941 55.1003L47.0757 30.796L46.9034 30.6965L46.7312 30.5971L4.63485 54.9014L4.80713 55.0009ZM46.9034 30.6965L46.7312 30.796L88.8275 55.1003L88.9998 55.0009L89.172 54.9014L47.0757 30.5971L46.9034 30.6965ZM88.9998 55.0009L88.8275 54.9014L46.7312 79.2057L46.9034 79.3052L47.0757 79.4046L89.172 55.1003L88.9998 55.0009ZM46.9034 79.3052L47.0757 79.2057L4.97941 54.9014L4.80713 55.0009L4.63485 55.1003L46.7312 79.4046L46.9034 79.3052Z" fill="#7A7A7A"/>
<path d="M4.80713 51.3914L46.9034 27.087L88.9998 51.3914L46.9034 75.6957L4.80713 51.3914Z" fill="#E9E9E9"/>
<path d="M13.281 51.3859L46.9793 31.9302L80.6776 51.3859L46.9793 70.8416L13.281 51.3859Z" fill="white" stroke="#7A7A7A" stroke-width="0.397858"/>
<path d="M13.281 39.6612L46.9185 20.2406L80.556 39.6612L46.9185 59.0818L13.281 39.6612Z" fill="white"/>
<path d="M13.281 39.6612L13.1088 39.5617L12.9365 39.6612L13.1088 39.7607L13.281 39.6612ZM46.9185 20.2406L47.0908 20.1411L46.9185 20.0417L46.7462 20.1411L46.9185 20.2406ZM80.556 39.6612L80.7283 39.7607L80.9006 39.6612L80.7283 39.5617L80.556 39.6612ZM46.9185 59.0818L46.7462 59.1813L46.9185 59.2807L47.0908 59.1813L46.9185 59.0818ZM13.281 39.6612L13.4533 39.7607L47.0908 20.34L46.9185 20.2406L46.7462 20.1411L13.1088 39.5617L13.281 39.6612ZM46.9185 20.2406L46.7462 20.34L80.3837 39.7607L80.556 39.6612L80.7283 39.5617L47.0908 20.1411L46.9185 20.2406ZM80.556 39.6612L80.3837 39.5617L46.7462 58.9823L46.9185 59.0818L47.0908 59.1813L80.7283 39.7607L80.556 39.6612ZM46.9185 59.0818L47.0908 58.9823L13.4533 39.5617L13.281 39.6612L13.1088 39.7607L46.7462 59.1813L46.9185 59.0818Z" fill="#7A7A7A"/>
<rect x="0.0739294" width="35.9024" height="35.9024" transform="matrix(0.866025 -0.5 0.866025 0.5 15.5425 39.6869)" stroke="#7A7A7A" stroke-width="0.0853663" stroke-dasharray="0.27 0.4"/>
<path d="M17.274 39.6499L46.6988 22.6615L76.1237 39.6499L46.6988 56.6383L17.274 39.6499Z" fill="white"/>
<path d="M47.8496 30.4396V49.1086C47.8496 49.133 47.8229 49.1492 47.8018 49.1369L28.1992 37.7756V19.34L47.8496 30.4396Z" fill="#D4D7FF" stroke="#5160FF" stroke-width="0.397858"/>
<path d="M67.832 37.8763L47.8154 49.4867L47.8632 32.3763L67.832 20.9437V37.8763Z" fill="#F2F4FF" stroke="#5160FF" stroke-width="0.397858"/>
<mask id="path-11-inside-1_1369_23432" fill="white">
<path d="M70.7729 21.1138L47.6665 34.4868L27.9204 23.2446L24.4175 21.1353V19.4067L70.7729 19.3062V21.1138Z"/>
</mask>
<path d="M70.7729 21.1138L47.6665 34.4868L27.9204 23.2446L24.4175 21.1353V19.4067L70.7729 19.3062V21.1138Z" fill="#D4D7FF"/>
<path d="M70.7729 21.1138L70.9463 21.4132L71.1189 21.3133V21.1138H70.7729ZM47.6665 34.4868L47.4953 34.7875L47.6679 34.8858L47.8398 34.7863L47.6665 34.4868ZM27.9204 23.2446L27.7419 23.5411L27.7492 23.5453L27.9204 23.2446ZM24.4175 21.1353H24.0715V21.3308L24.239 21.4316L24.4175 21.1353ZM24.4175 19.4067L24.4167 19.0608L24.0715 19.0615V19.4067H24.4175ZM70.7729 19.3062H71.1189V18.9594L70.7722 18.9602L70.7729 19.3062ZM70.7729 21.1138L70.5996 20.8143L47.4932 34.1874L47.6665 34.4868L47.8398 34.7863L70.9463 21.4132L70.7729 21.1138ZM47.6665 34.4868L47.8377 34.1861L28.0916 22.944L27.9204 23.2446L27.7492 23.5453L47.4953 34.7875L47.6665 34.4868ZM27.9204 23.2446L28.0989 22.9482L24.596 20.8389L24.4175 21.1353L24.239 21.4316L27.7419 23.541L27.9204 23.2446ZM24.4175 21.1353H24.7635V19.4067H24.4175H24.0715V21.1353H24.4175ZM24.4175 19.4067L24.4182 19.7527L70.7737 19.6521L70.7729 19.3062L70.7722 18.9602L24.4167 19.0608L24.4175 19.4067ZM70.7729 19.3062H70.427V21.1138H70.7729H71.1189V19.3062H70.7729Z" fill="#5160FF" mask="url(#path-11-inside-1_1369_23432)"/>
<path d="M49.4282 31.5681C49.5018 31.6547 49.6042 31.7761 49.7169 31.9166C49.944 32.1997 50.209 32.5522 50.379 32.8458C50.5023 33.0587 50.629 33.3325 50.7401 33.5963C50.9067 33.9923 50.7304 34.4495 50.3384 34.657C49.813 34.935 49.1407 34.6273 48.9116 34.0311C48.8486 33.8668 48.777 33.7061 48.6983 33.5652C48.5362 33.2751 48.2757 32.9505 48.0619 32.7037C47.9712 32.599 47.887 32.5068 47.8203 32.4348L49.4011 31.5366C49.4096 31.5465 49.4188 31.557 49.4282 31.5681Z" fill="#F2F4FF" stroke="#5160FF" stroke-width="0.345985"/>
<path d="M54.1091 30.4379C54.1404 30.4793 54.1674 30.5248 54.1879 30.5725L54.4411 31.1628C54.644 31.6347 54.4506 32.184 53.9965 32.4243C53.4545 32.7107 52.7853 32.438 52.5976 31.8543L52.4505 31.3988C52.4215 31.3086 52.3763 31.2245 52.3171 31.1505L51.4842 30.1064L53.1456 29.1621L54.1091 30.4379Z" fill="#F2F4FF" stroke="#5160FF" stroke-width="0.26211"/>
<path d="M57.9231 28.2432C57.9543 28.2846 57.9814 28.33 58.0019 28.3777L58.2551 28.968C58.458 29.4399 58.2645 29.9892 57.8105 30.2295C57.2684 30.5159 56.5993 30.2432 56.4115 29.6596L56.2645 29.204C56.2354 29.1138 56.1903 29.0298 56.1311 28.9557L55.2982 27.9116L56.9595 26.9674L57.9231 28.2432Z" fill="#F2F4FF" stroke="#5160FF" stroke-width="0.26211"/>
<path d="M61.7386 26.0485C61.7699 26.0899 61.7969 26.1354 61.8174 26.1831L62.0706 26.7734C62.2736 27.2453 62.0801 27.7946 61.626 28.0349C61.084 28.3213 60.4148 28.0486 60.2271 27.4649L60.08 27.0094C60.051 26.9192 60.0058 26.8351 59.9466 26.7611L59.1137 25.717L60.7751 24.7727L61.7386 26.0485Z" fill="#F2F4FF" stroke="#5160FF" stroke-width="0.26211"/>
<path d="M65.5526 23.8539C65.5839 23.8953 65.611 23.9408 65.6315 23.9884L65.8847 24.5787C66.0876 25.0507 65.8941 25.6 65.4401 25.8402C64.898 26.1267 64.2288 25.854 64.0411 25.2703L63.894 24.8148C63.865 24.7245 63.8198 24.6405 63.7607 24.5664L62.9277 23.5223L64.5891 22.5781L65.5526 23.8539Z" fill="#F2F4FF" stroke="#5160FF" stroke-width="0.26211"/>
<path d="M69.3674 21.6591C69.3987 21.7005 69.4257 21.746 69.4462 21.7937L69.6994 22.384C69.9023 22.8559 69.7089 23.4052 69.2548 23.6454C68.7128 23.9319 68.0436 23.6592 67.8559 23.0755L67.7088 22.62C67.6798 22.5297 67.6346 22.4457 67.5754 22.3717L66.7425 21.3276L68.4039 20.3833L69.3674 21.6591Z" fill="#F2F4FF" stroke="#5160FF" stroke-width="0.26211"/>
<path d="M51.4566 30.2021L49.4149 31.3625L50.449 32.6026L50.7079 33.1493C50.9912 33.7474 51.7161 33.9883 52.3011 33.6788C52.8636 33.3811 53.0819 32.6862 52.7906 32.1203L52.5458 31.6448L51.4566 30.2021Z" fill="#5160FF" stroke="#5160FF" stroke-width="0.345985" stroke-linejoin="bevel"/>
<path d="M55.23 27.9902L53.2161 29.1634L54.2224 30.3908L54.4813 30.9375C54.7646 31.5356 55.4896 31.7765 56.0745 31.467C56.6371 31.1693 56.8553 30.4744 56.564 29.9085L56.3192 29.433L55.23 27.9902Z" fill="#5160FF" stroke="#5160FF" stroke-width="0.345985" stroke-linejoin="bevel"/>
<path d="M59.0668 25.8052L57.1135 26.9481L58.0592 28.2057L58.3182 28.7524C58.6014 29.3505 59.3264 29.5915 59.9113 29.282C60.4739 28.9843 60.6922 28.2894 60.4009 27.7235L60.156 27.248L59.0668 25.8052Z" fill="#5160FF" stroke="#5160FF" stroke-width="0.345985" stroke-linejoin="bevel"/>
<path d="M62.8402 23.5546L60.9449 24.6325L61.7651 25.8546C61.8101 25.9215 61.8499 25.9917 61.8844 26.0646L62.0915 26.5018C62.3748 27.0999 63.0998 27.3409 63.6847 27.0314C64.2473 26.7337 64.4655 26.0388 64.1742 25.4729L63.9294 24.9974L62.8402 23.5546Z" fill="#5160FF" stroke="#5160FF" stroke-width="0.345985" stroke-linejoin="bevel"/>
<path d="M66.6126 21.36L64.7173 22.4379L65.6049 23.7605L65.8639 24.3072C66.1472 24.9053 66.8721 25.1462 67.457 24.8367C68.0196 24.5391 68.2379 23.8441 67.9466 23.2783L67.7018 22.8027L66.6126 21.36Z" fill="#5160FF" stroke="#5160FF" stroke-width="0.345985" stroke-linejoin="bevel"/>
<path d="M70.3681 19.2918L68.4728 20.3697L69.3605 21.6923L69.6194 22.239C69.9027 22.8371 70.6277 23.0781 71.2126 22.7686C71.7752 22.4709 71.9934 21.776 71.7021 21.2101L71.4573 20.7345L70.3681 19.2918Z" fill="#5160FF" stroke="#5160FF" stroke-width="0.345985" stroke-linejoin="bevel"/>
<path d="M70.3762 19.3004L47.8069 32.2964L24.8567 19.3521L47.8069 6.25055L70.3762 19.3004Z" fill="#F2F4FF" stroke="#5160FF" stroke-width="0.397858"/>
<path d="M47.8417 32.2333V34.279" stroke="#5160FF" stroke-width="0.345985"/>
<path d="M61.9234 41.5216V32.5257L56.6887 35.4978V44.568" stroke="#5160FF" stroke-width="0.345985"/>
<path d="M56.7009 38.6886L61.9234 41.2997L61.9234 32.5287L56.6828 35.4977L56.7009 38.6886Z" fill="#F4FF6A" stroke="#5160FF" stroke-width="0.345985" stroke-linejoin="bevel"/>
<path d="M56.7009 38.6886L61.9234 41.2997L61.9234 32.5287L56.6828 35.4977L56.7009 38.6886Z" stroke="#5160FF" stroke-width="0.345985" stroke-linejoin="bevel"/>
<path d="M41.6834 33.0769L25.8825 23.9542V39.0072L41.6834 48.1299V33.0769Z" fill="#5160FF"/>
<rect x="0.0495016" y="0.0857393" width="0.387447" height="15.8299" transform="matrix(2.48019e-08 1 0.866025 0.5 26.5684 37.6555)" fill="#F2F4FF" stroke="#5160FF" stroke-width="0.114319"/>
<rect x="0.016937" y="0.0293358" width="0.462651" height="2.9196" transform="matrix(2.48019e-08 1 0.866025 0.5 27.4108 38.0392)" fill="#5160FF" stroke="#5160FF" stroke-width="0.0391144"/>
<path d="M38.463 38.9964L38.3038 38.3846L38.1971 37.9767L36.8091 38.5968C36.5467 38.7135 36.1915 38.3345 36.1165 37.858L35.9828 37.0095C35.9779 36.9793 35.9562 36.9551 35.9387 36.9604L33.8519 37.6017C33.4643 37.7209 33.0247 36.9098 33.2175 36.4311L34.4603 33.3495C34.4636 33.3413 34.4648 33.3356 34.4651 33.3325C34.4653 33.3294 34.4647 33.3259 34.4643 33.323C34.4631 33.3167 34.4596 33.3056 34.452 33.293C34.4442 33.2801 34.4365 33.2728 34.4323 33.2704C34.4305 33.2695 34.4286 33.269 34.4265 33.2689C34.4244 33.2689 34.4203 33.2698 34.4141 33.2738L30.4961 35.8384C30.2659 35.9891 29.9224 35.7016 29.7978 35.2536L29.6263 34.6362C29.6184 34.6081 29.5972 34.5892 29.5817 34.5963L27.6716 35.4767L27.5531 35.1649L27.4348 34.8522L29.3451 33.971C29.5772 33.8642 29.8938 34.1509 30.0115 34.5744L30.183 35.1918C30.1914 35.2214 30.2144 35.2409 30.2297 35.231L34.1473 32.6651C34.5246 32.4182 35.0534 33.286 34.8433 33.8072L33.6006 36.888C33.5955 36.9007 33.5957 36.9091 33.5963 36.9132C33.5973 36.9199 33.6006 36.9303 33.6068 36.9417C33.613 36.9532 33.6195 36.9606 33.6239 36.9638C33.6267 36.9657 33.6322 36.969 33.6424 36.9659L35.7293 36.3238C35.9916 36.2432 36.3231 36.6162 36.3951 37.0724L36.5288 37.9209C36.5338 37.9526 36.5574 37.9779 36.5749 37.9701L38.0262 37.3222L37.887 36.7893L37.7706 36.3422L39.5717 37.0307L38.463 38.9964Z" fill="#F2F4FF"/>
<circle cx="0.807035" cy="0.807035" r="0.807035" transform="matrix(0.866025 -0.5 0.866025 0.5 7.22809 51.2492)" fill="white"/>
<circle cx="0.807035" cy="0.807035" r="0.807035" transform="matrix(0.866025 -0.5 0.866025 0.5 45.5814 73.239)" fill="white"/>
<ellipse cx="0.477029" cy="0.477029" rx="0.477029" ry="0.477029" transform="matrix(0.866025 -0.5 0.866025 0.5 18.3215 39.6196)" fill="#E9E9E9"/>
<ellipse cx="0.477029" cy="0.477029" rx="0.477029" ry="0.477029" transform="matrix(0.866025 -0.5 0.866025 0.5 73.5989 39.6196)" fill="#E9E9E9"/>
<ellipse cx="0.477029" cy="0.477029" rx="0.477029" ry="0.477029" transform="matrix(0.866025 -0.5 0.866025 0.5 45.8549 55.4182)" fill="#E9E9E9"/>
<circle cx="0.807035" cy="0.807035" r="0.807035" transform="matrix(0.866025 -0.5 0.866025 0.5 83.2913 51.2492)" fill="white"/>
<path d="M47.9887 71.5143L52.5286 68.8932L54.1185 69.8111L49.5786 72.4322L47.9887 71.5143Z" fill="white"/>
<path d="M53.2347 68.4838L54.9744 67.4793L56.5644 68.3973L54.8246 69.4017L53.2347 68.4838Z" fill="white"/>
<path d="M46.9746 59.3878L46.5896 59.7728L46.9746 60.1579L47.3597 59.7728L46.9746 59.3878ZM46.9746 70.0441L47.3597 69.659L46.9746 69.274L46.5896 69.659L46.9746 70.0441ZM46.9079 59.9101C46.9079 59.947 46.9378 59.9768 46.9746 59.9768C47.0114 59.9768 47.0413 59.947 47.0413 59.9101L46.9746 59.9101L46.9079 59.9101ZM47.0413 60.4594C47.0413 60.4225 47.0114 60.3927 46.9746 60.3927C46.9378 60.3927 46.9079 60.4225 46.9079 60.4594L46.9746 60.4594L47.0413 60.4594ZM46.9079 60.734C46.9079 60.7708 46.9378 60.8007 46.9746 60.8007C47.0114 60.8007 47.0413 60.7708 47.0413 60.734L46.9746 60.734L46.9079 60.734ZM47.0413 61.2832C47.0413 61.2464 47.0114 61.2165 46.9746 61.2165C46.9378 61.2165 46.9079 61.2464 46.9079 61.2832L46.9746 61.2832L47.0413 61.2832ZM46.9079 61.5578C46.9079 61.5947 46.9378 61.6245 46.9746 61.6245C47.0114 61.6245 47.0413 61.5947 47.0413 61.5578L46.9746 61.5578L46.9079 61.5578ZM47.0413 62.1071C47.0413 62.0702 47.0114 62.0404 46.9746 62.0404C46.9378 62.0404 46.9079 62.0702 46.9079 62.1071L46.9746 62.1071L47.0413 62.1071ZM46.9079 62.3817C46.9079 62.4185 46.9378 62.4484 46.9746 62.4484C47.0114 62.4484 47.0413 62.4185 47.0413 62.3817L46.9746 62.3817L46.9079 62.3817ZM47.0413 62.9309C47.0413 62.8941 47.0114 62.8642 46.9746 62.8642C46.9378 62.8642 46.9079 62.8941 46.9079 62.9309L46.9746 62.9309L47.0413 62.9309ZM46.9079 63.2055C46.9079 63.2424 46.9378 63.2722 46.9746 63.2722C47.0114 63.2722 47.0413 63.2424 47.0413 63.2055L46.9746 63.2055L46.9079 63.2055ZM47.0413 63.7548C47.0413 63.7179 47.0114 63.6881 46.9746 63.6881C46.9378 63.6881 46.9079 63.7179 46.9079 63.7548L46.9746 63.7548L47.0413 63.7548ZM46.9079 64.0294C46.9079 64.0662 46.9378 64.0961 46.9746 64.0961C47.0114 64.0961 47.0413 64.0662 47.0413 64.0294L46.9746 64.0294L46.9079 64.0294ZM47.0413 64.5786C47.0413 64.5418 47.0114 64.5119 46.9746 64.5119C46.9378 64.5119 46.9079 64.5418 46.9079 64.5786L46.9746 64.5786L47.0413 64.5786ZM46.9079 64.8532C46.9079 64.8901 46.9378 64.9199 46.9746 64.9199C47.0114 64.9199 47.0413 64.8901 47.0413 64.8532L46.9746 64.8532L46.9079 64.8532ZM47.0413 65.4025C47.0413 65.3656 47.0114 65.3358 46.9746 65.3358C46.9378 65.3358 46.9079 65.3656 46.9079 65.4025L46.9746 65.4025L47.0413 65.4025ZM46.9079 65.6771C46.9079 65.7139 46.9378 65.7438 46.9746 65.7438C47.0114 65.7438 47.0413 65.7139 47.0413 65.6771L46.9746 65.6771L46.9079 65.6771ZM47.0413 66.2263C47.0413 66.1895 47.0114 66.1596 46.9746 66.1596C46.9378 66.1596 46.9079 66.1895 46.9079 66.2263L46.9746 66.2263L47.0413 66.2263ZM46.9079 66.5009C46.9079 66.5378 46.9378 66.5676 46.9746 66.5676C47.0114 66.5676 47.0413 66.5378 47.0413 66.5009L46.9746 66.5009L46.9079 66.5009ZM47.0413 67.0501C47.0413 67.0133 47.0114 66.9835 46.9746 66.9835C46.9378 66.9835 46.9079 67.0133 46.9079 67.0501L46.9746 67.0501L47.0413 67.0501ZM46.9079 67.3248C46.9079 67.3616 46.9378 67.3915 46.9746 67.3915C47.0114 67.3915 47.0413 67.3616 47.0413 67.3248L46.9746 67.3248L46.9079 67.3248ZM47.0413 67.874C47.0413 67.8372 47.0114 67.8073 46.9746 67.8073C46.9378 67.8073 46.9079 67.8372 46.9079 67.874L46.9746 67.874L47.0413 67.874ZM46.9079 68.1486C46.9079 68.1854 46.9378 68.2153 46.9746 68.2153C47.0114 68.2153 47.0413 68.1854 47.0413 68.1486L46.9746 68.1486L46.9079 68.1486ZM47.0413 68.6978C47.0413 68.661 47.0114 68.6312 46.9746 68.6312C46.9378 68.6312 46.9079 68.661 46.9079 68.6978L46.9746 68.6978L47.0413 68.6978ZM46.9079 68.9725C46.9079 69.0093 46.9378 69.0392 46.9746 69.0392C47.0114 69.0392 47.0413 69.0093 47.0413 68.9725L46.9746 68.9725L46.9079 68.9725ZM47.0413 69.5217C47.0413 69.4849 47.0114 69.455 46.9746 69.455C46.9378 69.455 46.9079 69.4849 46.9079 69.5217L46.9746 69.5217L47.0413 69.5217ZM46.9746 59.7728L46.9079 59.7728L46.9079 59.9101L46.9746 59.9101L47.0413 59.9101L47.0413 59.7728L46.9746 59.7728ZM46.9746 60.4594L46.9079 60.4594L46.9079 60.734L46.9746 60.734L47.0413 60.734L47.0413 60.4594L46.9746 60.4594ZM46.9746 61.2832L46.9079 61.2832L46.9079 61.5578L46.9746 61.5578L47.0413 61.5578L47.0413 61.2832L46.9746 61.2832ZM46.9746 62.1071L46.9079 62.1071L46.9079 62.3817L46.9746 62.3817L47.0413 62.3817L47.0413 62.1071L46.9746 62.1071ZM46.9746 62.9309L46.9079 62.9309L46.9079 63.2055L46.9746 63.2055L47.0413 63.2055L47.0413 62.9309L46.9746 62.9309ZM46.9746 63.7548L46.9079 63.7548L46.9079 64.0294L46.9746 64.0294L47.0413 64.0294L47.0413 63.7548L46.9746 63.7548ZM46.9746 64.5786L46.9079 64.5786L46.9079 64.8532L46.9746 64.8532L47.0413 64.8532L47.0413 64.5786L46.9746 64.5786ZM46.9746 65.4025L46.9079 65.4025L46.9079 65.6771L46.9746 65.6771L47.0413 65.6771L47.0413 65.4025L46.9746 65.4025ZM46.9746 66.2263L46.9079 66.2263L46.9079 66.5009L46.9746 66.5009L47.0413 66.5009L47.0413 66.2263L46.9746 66.2263ZM46.9746 67.0501L46.9079 67.0501L46.9079 67.3248L46.9746 67.3248L47.0413 67.3248L47.0413 67.0501L46.9746 67.0501ZM46.9746 67.874L46.9079 67.874L46.9079 68.1486L46.9746 68.1486L47.0413 68.1486L47.0413 67.874L46.9746 67.874ZM46.9746 68.6978L46.9079 68.6978L46.9079 68.9725L46.9746 68.9725L47.0413 68.9725L47.0413 68.6978L46.9746 68.6978ZM46.9746 69.5217L46.9079 69.5217L46.9079 69.659L46.9746 69.659L47.0413 69.659L47.0413 69.5217L46.9746 69.5217Z" fill="#7A7A7A"/>
<path d="M13.56 40.1869L13.1749 40.5719L13.56 40.9569L13.945 40.5719L13.56 40.1869ZM13.56 50.8274L13.945 50.4424L13.56 50.0573L13.1749 50.4424L13.56 50.8274ZM13.4933 40.709C13.4933 40.7458 13.5232 40.7757 13.56 40.7757C13.5968 40.7757 13.6267 40.7458 13.6267 40.709L13.56 40.709L13.4933 40.709ZM13.6267 41.2573C13.6267 41.2205 13.5968 41.1907 13.56 41.1907C13.5232 41.1907 13.4933 41.2205 13.4933 41.2573L13.56 41.2573L13.6267 41.2573ZM13.4933 41.5315C13.4933 41.5684 13.5232 41.5982 13.56 41.5982C13.5968 41.5982 13.6267 41.5684 13.6267 41.5315L13.56 41.5315L13.4933 41.5315ZM13.6267 42.0799C13.6267 42.0431 13.5968 42.0132 13.56 42.0132C13.5232 42.0132 13.4933 42.0431 13.4933 42.0799L13.56 42.0799L13.6267 42.0799ZM13.4933 42.3541C13.4933 42.3909 13.5232 42.4208 13.56 42.4208C13.5968 42.4208 13.6267 42.3909 13.6267 42.3541L13.56 42.3541L13.4933 42.3541ZM13.6267 42.9024C13.6267 42.8656 13.5968 42.8357 13.56 42.8357C13.5232 42.8357 13.4933 42.8656 13.4933 42.9024L13.56 42.9024L13.6267 42.9024ZM13.4933 43.1766C13.4933 43.2134 13.5232 43.2433 13.56 43.2433C13.5968 43.2433 13.6267 43.2134 13.6267 43.1766L13.56 43.1766L13.4933 43.1766ZM13.6267 43.725C13.6267 43.6881 13.5968 43.6583 13.56 43.6583C13.5232 43.6583 13.4933 43.6881 13.4933 43.725L13.56 43.725L13.6267 43.725ZM13.4933 43.9992C13.4933 44.036 13.5232 44.0658 13.56 44.0658C13.5968 44.0658 13.6267 44.036 13.6267 43.9992L13.56 43.9992L13.4933 43.9992ZM13.6267 44.5475C13.6267 44.5107 13.5968 44.4808 13.56 44.4808C13.5232 44.4808 13.4933 44.5107 13.4933 44.5475L13.56 44.5475L13.6267 44.5475ZM13.4933 44.8217C13.4933 44.8585 13.5232 44.8884 13.56 44.8884C13.5968 44.8884 13.6267 44.8585 13.6267 44.8217L13.56 44.8217L13.4933 44.8217ZM13.6267 45.3701C13.6267 45.3332 13.5968 45.3034 13.56 45.3034C13.5232 45.3034 13.4933 45.3332 13.4933 45.3701L13.56 45.3701L13.6267 45.3701ZM13.4933 45.6442C13.4933 45.6811 13.5232 45.7109 13.56 45.7109C13.5968 45.7109 13.6267 45.6811 13.6267 45.6442L13.56 45.6442L13.4933 45.6442ZM13.6267 46.1926C13.6267 46.1558 13.5968 46.1259 13.56 46.1259C13.5232 46.1259 13.4933 46.1558 13.4933 46.1926L13.56 46.1926L13.6267 46.1926ZM13.4933 46.4668C13.4933 46.5036 13.5232 46.5335 13.56 46.5335C13.5968 46.5335 13.6267 46.5036 13.6267 46.4668L13.56 46.4668L13.4933 46.4668ZM13.6267 47.0151C13.6267 46.9783 13.5968 46.9484 13.56 46.9484C13.5232 46.9484 13.4933 46.9783 13.4933 47.0151L13.56 47.0151L13.6267 47.0151ZM13.4933 47.2893C13.4933 47.3261 13.5232 47.356 13.56 47.356C13.5968 47.356 13.6267 47.3261 13.6267 47.2893L13.56 47.2893L13.4933 47.2893ZM13.6267 47.8377C13.6267 47.8008 13.5968 47.771 13.56 47.771C13.5232 47.771 13.4933 47.8008 13.4933 47.8377L13.56 47.8377L13.6267 47.8377ZM13.4933 48.1119C13.4933 48.1487 13.5232 48.1785 13.56 48.1785C13.5968 48.1785 13.6267 48.1487 13.6267 48.1119L13.56 48.1119L13.4933 48.1119ZM13.6267 48.6602C13.6267 48.6234 13.5968 48.5935 13.56 48.5935C13.5232 48.5935 13.4933 48.6234 13.4933 48.6602L13.56 48.6602L13.6267 48.6602ZM13.4933 48.9344C13.4933 48.9712 13.5232 49.0011 13.56 49.0011C13.5968 49.0011 13.6267 48.9712 13.6267 48.9344L13.56 48.9344L13.4933 48.9344ZM13.6267 49.4828C13.6267 49.4459 13.5968 49.4161 13.56 49.4161C13.5232 49.4161 13.4933 49.4459 13.4933 49.4828L13.56 49.4828L13.6267 49.4828ZM13.4933 49.7569C13.4933 49.7938 13.5232 49.8236 13.56 49.8236C13.5968 49.8236 13.6267 49.7938 13.6267 49.7569L13.56 49.7569L13.4933 49.7569ZM13.6267 50.3053C13.6267 50.2685 13.5968 50.2386 13.56 50.2386C13.5232 50.2386 13.4933 50.2685 13.4933 50.3053L13.56 50.3053L13.6267 50.3053ZM13.56 40.5719L13.4933 40.5719L13.4933 40.709L13.56 40.709L13.6267 40.709L13.6267 40.5719L13.56 40.5719ZM13.56 41.2573L13.4933 41.2573L13.4933 41.5315L13.56 41.5315L13.6267 41.5315L13.6267 41.2573L13.56 41.2573ZM13.56 42.0799L13.4933 42.0799L13.4933 42.3541L13.56 42.3541L13.6267 42.3541L13.6267 42.0799L13.56 42.0799ZM13.56 42.9024L13.4933 42.9024L13.4933 43.1766L13.56 43.1766L13.6267 43.1766L13.6267 42.9024L13.56 42.9024ZM13.56 43.725L13.4933 43.725L13.4933 43.9992L13.56 43.9992L13.6267 43.9992L13.6267 43.725L13.56 43.725ZM13.56 44.5475L13.4933 44.5475L13.4933 44.8217L13.56 44.8217L13.6267 44.8217L13.6267 44.5475L13.56 44.5475ZM13.56 45.3701L13.4933 45.3701L13.4933 45.6442L13.56 45.6442L13.6267 45.6442L13.6267 45.3701L13.56 45.3701ZM13.56 46.1926L13.4933 46.1926L13.4933 46.4668L13.56 46.4668L13.6267 46.4668L13.6267 46.1926L13.56 46.1926ZM13.56 47.0151L13.4933 47.0151L13.4933 47.2893L13.56 47.2893L13.6267 47.2893L13.6267 47.0151L13.56 47.0151ZM13.56 47.8377L13.4933 47.8377L13.4933 48.1119L13.56 48.1119L13.6267 48.1119L13.6267 47.8377L13.56 47.8377ZM13.56 48.6602L13.4933 48.6602L13.4933 48.9344L13.56 48.9344L13.6267 48.9344L13.6267 48.6602L13.56 48.6602ZM13.56 49.4828L13.4933 49.4828L13.4933 49.7569L13.56 49.7569L13.6267 49.7569L13.6267 49.4828L13.56 49.4828ZM13.56 50.3053L13.4933 50.3053L13.4933 50.4424L13.56 50.4424L13.6267 50.4424L13.6267 50.3053L13.56 50.3053Z" fill="#7A7A7A"/>
<path d="M80.4001 40.1869L80.0151 40.5719L80.4001 40.9569L80.7852 40.5719L80.4001 40.1869ZM80.4001 50.8274L80.7852 50.4424L80.4001 50.0573L80.0151 50.4424L80.4001 50.8274ZM80.3335 40.709C80.3335 40.7458 80.3633 40.7757 80.4001 40.7757C80.437 40.7757 80.4668 40.7458 80.4668 40.709L80.4001 40.709L80.3335 40.709ZM80.4668 41.2573C80.4668 41.2205 80.437 41.1907 80.4001 41.1907C80.3633 41.1907 80.3335 41.2205 80.3335 41.2573L80.4001 41.2573L80.4668 41.2573ZM80.3335 41.5315C80.3335 41.5684 80.3633 41.5982 80.4001 41.5982C80.437 41.5982 80.4668 41.5684 80.4668 41.5315L80.4001 41.5315L80.3335 41.5315ZM80.4668 42.0799C80.4668 42.0431 80.437 42.0132 80.4001 42.0132C80.3633 42.0132 80.3335 42.0431 80.3335 42.0799L80.4001 42.0799L80.4668 42.0799ZM80.3335 42.3541C80.3335 42.3909 80.3633 42.4208 80.4001 42.4208C80.437 42.4208 80.4668 42.3909 80.4668 42.3541L80.4001 42.3541L80.3335 42.3541ZM80.4668 42.9024C80.4668 42.8656 80.437 42.8357 80.4001 42.8357C80.3633 42.8357 80.3335 42.8656 80.3335 42.9024L80.4001 42.9024L80.4668 42.9024ZM80.3335 43.1766C80.3335 43.2134 80.3633 43.2433 80.4001 43.2433C80.437 43.2433 80.4668 43.2134 80.4668 43.1766L80.4001 43.1766L80.3335 43.1766ZM80.4668 43.725C80.4668 43.6881 80.437 43.6583 80.4001 43.6583C80.3633 43.6583 80.3335 43.6881 80.3335 43.725L80.4001 43.725L80.4668 43.725ZM80.3335 43.9992C80.3335 44.036 80.3633 44.0658 80.4001 44.0658C80.437 44.0658 80.4668 44.036 80.4668 43.9992L80.4001 43.9992L80.3335 43.9992ZM80.4668 44.5475C80.4668 44.5107 80.437 44.4808 80.4001 44.4808C80.3633 44.4808 80.3335 44.5107 80.3335 44.5475L80.4001 44.5475L80.4668 44.5475ZM80.3335 44.8217C80.3335 44.8585 80.3633 44.8884 80.4001 44.8884C80.437 44.8884 80.4668 44.8585 80.4668 44.8217L80.4001 44.8217L80.3335 44.8217ZM80.4668 45.3701C80.4668 45.3332 80.437 45.3034 80.4001 45.3034C80.3633 45.3034 80.3335 45.3332 80.3335 45.3701L80.4001 45.3701L80.4668 45.3701ZM80.3335 45.6442C80.3335 45.6811 80.3633 45.7109 80.4001 45.7109C80.437 45.7109 80.4668 45.6811 80.4668 45.6442L80.4001 45.6442L80.3335 45.6442ZM80.4668 46.1926C80.4668 46.1558 80.437 46.1259 80.4001 46.1259C80.3633 46.1259 80.3335 46.1558 80.3335 46.1926L80.4001 46.1926L80.4668 46.1926ZM80.3335 46.4668C80.3335 46.5036 80.3633 46.5335 80.4001 46.5335C80.437 46.5335 80.4668 46.5036 80.4668 46.4668L80.4001 46.4668L80.3335 46.4668ZM80.4668 47.0151C80.4668 46.9783 80.437 46.9484 80.4001 46.9484C80.3633 46.9484 80.3335 46.9783 80.3335 47.0151L80.4001 47.0151L80.4668 47.0151ZM80.3335 47.2893C80.3335 47.3261 80.3633 47.356 80.4001 47.356C80.437 47.356 80.4668 47.3261 80.4668 47.2893L80.4001 47.2893L80.3335 47.2893ZM80.4668 47.8377C80.4668 47.8008 80.437 47.771 80.4001 47.771C80.3633 47.771 80.3335 47.8008 80.3335 47.8377L80.4001 47.8377L80.4668 47.8377ZM80.3335 48.1119C80.3335 48.1487 80.3633 48.1785 80.4001 48.1785C80.437 48.1785 80.4668 48.1487 80.4668 48.1119L80.4001 48.1119L80.3335 48.1119ZM80.4668 48.6602C80.4668 48.6234 80.437 48.5935 80.4001 48.5935C80.3633 48.5935 80.3335 48.6234 80.3335 48.6602L80.4001 48.6602L80.4668 48.6602ZM80.3335 48.9344C80.3335 48.9712 80.3633 49.0011 80.4001 49.0011C80.437 49.0011 80.4668 48.9712 80.4668 48.9344L80.4001 48.9344L80.3335 48.9344ZM80.4668 49.4828C80.4668 49.4459 80.437 49.4161 80.4001 49.4161C80.3633 49.4161 80.3335 49.4459 80.3335 49.4828L80.4001 49.4828L80.4668 49.4828ZM80.3335 49.7569C80.3335 49.7938 80.3633 49.8236 80.4001 49.8236C80.437 49.8236 80.4668 49.7938 80.4668 49.7569L80.4001 49.7569L80.3335 49.7569ZM80.4668 50.3053C80.4668 50.2685 80.437 50.2386 80.4001 50.2386C80.3633 50.2386 80.3335 50.2685 80.3335 50.3053L80.4001 50.3053L80.4668 50.3053ZM80.4001 40.5719L80.3335 40.5719L80.3335 40.709L80.4001 40.709L80.4668 40.709L80.4668 40.5719L80.4001 40.5719ZM80.4001 41.2573L80.3335 41.2573L80.3335 41.5315L80.4001 41.5315L80.4668 41.5315L80.4668 41.2573L80.4001 41.2573ZM80.4001 42.0799L80.3335 42.0799L80.3335 42.3541L80.4001 42.3541L80.4668 42.3541L80.4668 42.0799L80.4001 42.0799ZM80.4001 42.9024L80.3335 42.9024L80.3335 43.1766L80.4001 43.1766L80.4668 43.1766L80.4668 42.9024L80.4001 42.9024ZM80.4001 43.725L80.3335 43.725L80.3335 43.9992L80.4001 43.9992L80.4668 43.9992L80.4668 43.725L80.4001 43.725ZM80.4001 44.5475L80.3335 44.5475L80.3335 44.8217L80.4001 44.8217L80.4668 44.8217L80.4668 44.5475L80.4001 44.5475ZM80.4001 45.3701L80.3335 45.3701L80.3335 45.6442L80.4001 45.6442L80.4668 45.6442L80.4668 45.3701L80.4001 45.3701ZM80.4001 46.1926L80.3335 46.1926L80.3335 46.4668L80.4001 46.4668L80.4668 46.4668L80.4668 46.1926L80.4001 46.1926ZM80.4001 47.0151L80.3335 47.0151L80.3335 47.2893L80.4001 47.2893L80.4668 47.2893L80.4668 47.0151L80.4001 47.0151ZM80.4001 47.8377L80.3335 47.8377L80.3335 48.1119L80.4001 48.1119L80.4668 48.1119L80.4668 47.8377L80.4001 47.8377ZM80.4001 48.6602L80.3335 48.6602L80.3335 48.9344L80.4001 48.9344L80.4668 48.9344L80.4668 48.6602L80.4001 48.6602ZM80.4001 49.4828L80.3335 49.4828L80.3335 49.7569L80.4001 49.7569L80.4668 49.7569L80.4668 49.4828L80.4001 49.4828ZM80.4001 50.3053L80.3335 50.3053L80.3335 50.4424L80.4001 50.4424L80.4668 50.4424L80.4668 50.3053L80.4001 50.3053Z" fill="#7A7A7A"/>
</svg>
