<svg width="94" height="81" viewBox="0 0 94 81" fill="none" xmlns="http://www.w3.org/2000/svg">
<path d="M4.80713 56.0009L46.9034 31.6965L88.9998 56.0009L46.9034 80.3052L4.80713 56.0009Z" fill="#222222"/>
<path d="M4.80713 56.0009L4.63485 55.9014L4.46257 56.0009L4.63485 56.1003L4.80713 56.0009ZM46.9034 31.6965L47.0757 31.5971L46.9034 31.4976L46.7312 31.5971L46.9034 31.6965ZM88.9998 56.0009L89.172 56.1003L89.3443 56.0009L89.172 55.9014L88.9998 56.0009ZM46.9034 80.3052L46.7312 80.4046L46.9034 80.5041L47.0757 80.4046L46.9034 80.3052ZM4.80713 56.0009L4.97941 56.1003L47.0757 31.796L46.9034 31.6965L46.7312 31.5971L4.63485 55.9014L4.80713 56.0009ZM46.9034 31.6965L46.7312 31.796L88.8275 56.1003L88.9998 56.0009L89.172 55.9014L47.0757 31.5971L46.9034 31.6965ZM88.9998 56.0009L88.8275 55.9014L46.7312 80.2057L46.9034 80.3052L47.0757 80.4046L89.172 56.1003L88.9998 56.0009ZM46.9034 80.3052L47.0757 80.2057L4.97941 55.9014L4.80713 56.0009L4.63485 56.1003L46.7312 80.4046L46.9034 80.3052Z" fill="#7A7A7A"/>
<path d="M4.80713 52.3914L46.9034 28.087L88.9998 52.3914L46.9034 76.6957L4.80713 52.3914Z" fill="#383838"/>
<path d="M13.281 52.3859L46.9793 32.9302L80.6776 52.3859L46.9793 71.8416L13.281 52.3859Z" fill="#222222" stroke="#7A7A7A" stroke-width="0.397858"/>
<path d="M13.281 40.6612L46.9185 21.2406L80.556 40.6612L46.9185 60.0818L13.281 40.6612Z" fill="#222222"/>
<path d="M13.281 40.6612L13.1087 40.5617L12.9365 40.6612L13.1087 40.7607L13.281 40.6612ZM46.9185 21.2406L47.0908 21.1411L46.9185 21.0417L46.7462 21.1411L46.9185 21.2406ZM80.556 40.6612L80.7282 40.7607L80.9005 40.6612L80.7282 40.5617L80.556 40.6612ZM46.9185 60.0818L46.7462 60.1813L46.9185 60.2807L47.0908 60.1813L46.9185 60.0818ZM13.281 40.6612L13.4533 40.7607L47.0908 21.34L46.9185 21.2406L46.7462 21.1411L13.1087 40.5617L13.281 40.6612ZM46.9185 21.2406L46.7462 21.34L80.3837 40.7607L80.556 40.6612L80.7282 40.5617L47.0908 21.1411L46.9185 21.2406ZM80.556 40.6612L80.3837 40.5617L46.7462 59.9823L46.9185 60.0818L47.0908 60.1813L80.7282 40.7607L80.556 40.6612ZM46.9185 60.0818L47.0908 59.9823L13.4533 40.5617L13.281 40.6612L13.1087 40.7607L46.7462 60.1813L46.9185 60.0818Z" fill="#7A7A7A"/>
<rect x="0.0739294" width="35.9024" height="35.9024" transform="matrix(0.866025 -0.5 0.866025 0.5 15.5425 40.6869)" stroke="#7A7A7A" stroke-width="0.0853663" stroke-dasharray="0.27 0.4"/>
<path d="M17.274 40.6499L46.6988 23.6615L76.1237 40.6499L46.6988 57.6383L17.274 40.6499Z" fill="#222222"/>
<rect width="10.3833" height="10.3875" transform="matrix(0.866025 -0.5 0.866026 0.5 38.2272 39.3409)" fill="#C8D33E" stroke="#7A7A7A" stroke-width="0.318286" stroke-linejoin="bevel"/>
<path d="M47.0763 41.1992C47.0762 41.2055 47.0717 41.2076 47.0661 41.204L44.9729 39.8442V11.3578C44.9729 11.3517 44.977 11.3485 44.9822 11.3515L47.0763 12.538V41.1992Z" fill="#222222" stroke="#2534D3" stroke-width="0.397858"/>
<path d="M49.2311 11.34C49.2363 11.3371 49.2403 11.3395 49.2404 11.3454V39.9391L47.1371 41.1535V12.55L49.2311 11.34Z" fill="#242B7A" stroke="#2534D3" stroke-width="0.397858"/>
<path d="M44.9302 11.2756L47.1207 10.0386L49.2732 11.2756L47.1207 12.5218L44.9302 11.2756Z" fill="#2534D3" stroke="#2534D3" stroke-width="0.318286" stroke-linejoin="bevel"/>
<path d="M59.0502 25.5802L67.4128 36.8592L48.2825 25.8143V12.9125L67.4128 23.9574L59.0502 25.5802Z" fill="#2534D3" stroke="#2534D3" stroke-width="0.318286" stroke-linejoin="bevel"/>
<circle cx="0.807035" cy="0.807035" r="0.807035" transform="matrix(0.866025 -0.5 0.866025 0.5 7.22809 52.2491)" fill="#222222"/>
<circle cx="0.807035" cy="0.807035" r="0.807035" transform="matrix(0.866025 -0.5 0.866025 0.5 45.5814 74.239)" fill="#222222"/>
<ellipse cx="0.477029" cy="0.477029" rx="0.477029" ry="0.477029" transform="matrix(0.866025 -0.5 0.866025 0.5 18.3215 40.6196)" fill="#383838"/>
<ellipse cx="0.477029" cy="0.477029" rx="0.477029" ry="0.477029" transform="matrix(0.866025 -0.5 0.866025 0.5 73.5989 40.6196)" fill="#383838"/>
<ellipse cx="0.477029" cy="0.477029" rx="0.477029" ry="0.477029" transform="matrix(0.866025 -0.5 0.866025 0.5 45.8549 56.4182)" fill="#383838"/>
<circle cx="0.807035" cy="0.807035" r="0.807035" transform="matrix(0.866025 -0.5 0.866025 0.5 83.2913 52.2491)" fill="#222222"/>
<path d="M47.9887 72.5143L52.5286 69.8932L54.1185 70.8111L49.5786 73.4322L47.9887 72.5143Z" fill="#222222"/>
<path d="M53.2347 69.4836L54.9744 68.4792L56.5644 69.3971L54.8246 70.4016L53.2347 69.4836Z" fill="#222222"/>
<path d="M46.9746 60.3878L46.5896 60.7728L46.9746 61.1579L47.3597 60.7728L46.9746 60.3878ZM46.9746 71.0441L47.3597 70.659L46.9746 70.274L46.5896 70.659L46.9746 71.0441ZM46.9079 60.9101C46.9079 60.947 46.9378 60.9768 46.9746 60.9768C47.0114 60.9768 47.0413 60.947 47.0413 60.9101L46.9746 60.9101L46.9079 60.9101ZM47.0413 61.4594C47.0413 61.4225 47.0114 61.3927 46.9746 61.3927C46.9378 61.3927 46.9079 61.4225 46.9079 61.4594L46.9746 61.4594L47.0413 61.4594ZM46.9079 61.734C46.9079 61.7708 46.9378 61.8007 46.9746 61.8007C47.0114 61.8007 47.0413 61.7708 47.0413 61.734L46.9746 61.734L46.9079 61.734ZM47.0413 62.2832C47.0413 62.2464 47.0114 62.2165 46.9746 62.2165C46.9378 62.2165 46.9079 62.2464 46.9079 62.2832L46.9746 62.2832L47.0413 62.2832ZM46.9079 62.5578C46.9079 62.5947 46.9378 62.6245 46.9746 62.6245C47.0114 62.6245 47.0413 62.5947 47.0413 62.5578L46.9746 62.5578L46.9079 62.5578ZM47.0413 63.1071C47.0413 63.0702 47.0114 63.0404 46.9746 63.0404C46.9378 63.0404 46.9079 63.0702 46.9079 63.1071L46.9746 63.1071L47.0413 63.1071ZM46.9079 63.3817C46.9079 63.4185 46.9378 63.4484 46.9746 63.4484C47.0114 63.4484 47.0413 63.4185 47.0413 63.3817L46.9746 63.3817L46.9079 63.3817ZM47.0413 63.9309C47.0413 63.8941 47.0114 63.8642 46.9746 63.8642C46.9378 63.8642 46.9079 63.8941 46.9079 63.9309L46.9746 63.9309L47.0413 63.9309ZM46.9079 64.2055C46.9079 64.2424 46.9378 64.2722 46.9746 64.2722C47.0114 64.2722 47.0413 64.2424 47.0413 64.2055L46.9746 64.2055L46.9079 64.2055ZM47.0413 64.7548C47.0413 64.7179 47.0114 64.6881 46.9746 64.6881C46.9378 64.6881 46.9079 64.7179 46.9079 64.7548L46.9746 64.7548L47.0413 64.7548ZM46.9079 65.0294C46.9079 65.0662 46.9378 65.0961 46.9746 65.0961C47.0114 65.0961 47.0413 65.0662 47.0413 65.0294L46.9746 65.0294L46.9079 65.0294ZM47.0413 65.5786C47.0413 65.5418 47.0114 65.5119 46.9746 65.5119C46.9378 65.5119 46.9079 65.5418 46.9079 65.5786L46.9746 65.5786L47.0413 65.5786ZM46.9079 65.8532C46.9079 65.8901 46.9378 65.9199 46.9746 65.9199C47.0114 65.9199 47.0413 65.8901 47.0413 65.8532L46.9746 65.8532L46.9079 65.8532ZM47.0413 66.4025C47.0413 66.3656 47.0114 66.3358 46.9746 66.3358C46.9378 66.3358 46.9079 66.3656 46.9079 66.4025L46.9746 66.4025L47.0413 66.4025ZM46.9079 66.6771C46.9079 66.7139 46.9378 66.7438 46.9746 66.7438C47.0114 66.7438 47.0413 66.7139 47.0413 66.6771L46.9746 66.6771L46.9079 66.6771ZM47.0413 67.2263C47.0413 67.1895 47.0114 67.1596 46.9746 67.1596C46.9378 67.1596 46.9079 67.1895 46.9079 67.2263L46.9746 67.2263L47.0413 67.2263ZM46.9079 67.5009C46.9079 67.5378 46.9378 67.5676 46.9746 67.5676C47.0114 67.5676 47.0413 67.5378 47.0413 67.5009L46.9746 67.5009L46.9079 67.5009ZM47.0413 68.0501C47.0413 68.0133 47.0114 67.9835 46.9746 67.9835C46.9378 67.9835 46.9079 68.0133 46.9079 68.0501L46.9746 68.0501L47.0413 68.0501ZM46.9079 68.3248C46.9079 68.3616 46.9378 68.3915 46.9746 68.3915C47.0114 68.3915 47.0413 68.3616 47.0413 68.3248L46.9746 68.3248L46.9079 68.3248ZM47.0413 68.874C47.0413 68.8372 47.0114 68.8073 46.9746 68.8073C46.9378 68.8073 46.9079 68.8372 46.9079 68.874L46.9746 68.874L47.0413 68.874ZM46.9079 69.1486C46.9079 69.1854 46.9378 69.2153 46.9746 69.2153C47.0114 69.2153 47.0413 69.1854 47.0413 69.1486L46.9746 69.1486L46.9079 69.1486ZM47.0413 69.6978C47.0413 69.661 47.0114 69.6312 46.9746 69.6312C46.9378 69.6312 46.9079 69.661 46.9079 69.6978L46.9746 69.6978L47.0413 69.6978ZM46.9079 69.9725C46.9079 70.0093 46.9378 70.0392 46.9746 70.0392C47.0114 70.0392 47.0413 70.0093 47.0413 69.9725L46.9746 69.9725L46.9079 69.9725ZM47.0413 70.5217C47.0413 70.4849 47.0114 70.455 46.9746 70.455C46.9378 70.455 46.9079 70.4849 46.9079 70.5217L46.9746 70.5217L47.0413 70.5217ZM46.9746 60.7728L46.9079 60.7728L46.9079 60.9101L46.9746 60.9101L47.0413 60.9101L47.0413 60.7728L46.9746 60.7728ZM46.9746 61.4594L46.9079 61.4594L46.9079 61.734L46.9746 61.734L47.0413 61.734L47.0413 61.4594L46.9746 61.4594ZM46.9746 62.2832L46.9079 62.2832L46.9079 62.5578L46.9746 62.5578L47.0413 62.5578L47.0413 62.2832L46.9746 62.2832ZM46.9746 63.1071L46.9079 63.1071L46.9079 63.3817L46.9746 63.3817L47.0413 63.3817L47.0413 63.1071L46.9746 63.1071ZM46.9746 63.9309L46.9079 63.9309L46.9079 64.2055L46.9746 64.2055L47.0413 64.2055L47.0413 63.9309L46.9746 63.9309ZM46.9746 64.7548L46.9079 64.7548L46.9079 65.0294L46.9746 65.0294L47.0413 65.0294L47.0413 64.7548L46.9746 64.7548ZM46.9746 65.5786L46.9079 65.5786L46.9079 65.8532L46.9746 65.8532L47.0413 65.8532L47.0413 65.5786L46.9746 65.5786ZM46.9746 66.4025L46.9079 66.4025L46.9079 66.6771L46.9746 66.6771L47.0413 66.6771L47.0413 66.4025L46.9746 66.4025ZM46.9746 67.2263L46.9079 67.2263L46.9079 67.5009L46.9746 67.5009L47.0413 67.5009L47.0413 67.2263L46.9746 67.2263ZM46.9746 68.0501L46.9079 68.0501L46.9079 68.3248L46.9746 68.3248L47.0413 68.3248L47.0413 68.0501L46.9746 68.0501ZM46.9746 68.874L46.9079 68.874L46.9079 69.1486L46.9746 69.1486L47.0413 69.1486L47.0413 68.874L46.9746 68.874ZM46.9746 69.6978L46.9079 69.6978L46.9079 69.9725L46.9746 69.9725L47.0413 69.9725L47.0413 69.6978L46.9746 69.6978ZM46.9746 70.5217L46.9079 70.5217L46.9079 70.659L46.9746 70.659L47.0413 70.659L47.0413 70.5217L46.9746 70.5217Z" fill="#7A7A7A"/>
<path d="M13.56 41.1869L13.1749 41.5719L13.56 41.9569L13.945 41.5719L13.56 41.1869ZM13.56 51.8274L13.945 51.4424L13.56 51.0573L13.1749 51.4424L13.56 51.8274ZM13.4933 41.709C13.4933 41.7458 13.5232 41.7757 13.56 41.7757C13.5968 41.7757 13.6267 41.7458 13.6267 41.709L13.56 41.709L13.4933 41.709ZM13.6267 42.2573C13.6267 42.2205 13.5968 42.1907 13.56 42.1907C13.5232 42.1907 13.4933 42.2205 13.4933 42.2573L13.56 42.2573L13.6267 42.2573ZM13.4933 42.5315C13.4933 42.5684 13.5232 42.5982 13.56 42.5982C13.5968 42.5982 13.6267 42.5684 13.6267 42.5315L13.56 42.5315L13.4933 42.5315ZM13.6267 43.0799C13.6267 43.0431 13.5968 43.0132 13.56 43.0132C13.5232 43.0132 13.4933 43.0431 13.4933 43.0799L13.56 43.0799L13.6267 43.0799ZM13.4933 43.3541C13.4933 43.3909 13.5232 43.4208 13.56 43.4208C13.5968 43.4208 13.6267 43.3909 13.6267 43.3541L13.56 43.3541L13.4933 43.3541ZM13.6267 43.9024C13.6267 43.8656 13.5968 43.8357 13.56 43.8357C13.5232 43.8357 13.4933 43.8656 13.4933 43.9024L13.56 43.9024L13.6267 43.9024ZM13.4933 44.1766C13.4933 44.2134 13.5232 44.2433 13.56 44.2433C13.5968 44.2433 13.6267 44.2134 13.6267 44.1766L13.56 44.1766L13.4933 44.1766ZM13.6267 44.725C13.6267 44.6881 13.5968 44.6583 13.56 44.6583C13.5232 44.6583 13.4933 44.6881 13.4933 44.725L13.56 44.725L13.6267 44.725ZM13.4933 44.9992C13.4933 45.036 13.5232 45.0658 13.56 45.0658C13.5968 45.0658 13.6267 45.036 13.6267 44.9992L13.56 44.9992L13.4933 44.9992ZM13.6267 45.5475C13.6267 45.5107 13.5968 45.4808 13.56 45.4808C13.5232 45.4808 13.4933 45.5107 13.4933 45.5475L13.56 45.5475L13.6267 45.5475ZM13.4933 45.8217C13.4933 45.8585 13.5232 45.8884 13.56 45.8884C13.5968 45.8884 13.6267 45.8585 13.6267 45.8217L13.56 45.8217L13.4933 45.8217ZM13.6267 46.3701C13.6267 46.3332 13.5968 46.3034 13.56 46.3034C13.5232 46.3034 13.4933 46.3332 13.4933 46.3701L13.56 46.3701L13.6267 46.3701ZM13.4933 46.6442C13.4933 46.6811 13.5232 46.7109 13.56 46.7109C13.5968 46.7109 13.6267 46.6811 13.6267 46.6442L13.56 46.6442L13.4933 46.6442ZM13.6267 47.1926C13.6267 47.1558 13.5968 47.1259 13.56 47.1259C13.5232 47.1259 13.4933 47.1558 13.4933 47.1926L13.56 47.1926L13.6267 47.1926ZM13.4933 47.4668C13.4933 47.5036 13.5232 47.5335 13.56 47.5335C13.5968 47.5335 13.6267 47.5036 13.6267 47.4668L13.56 47.4668L13.4933 47.4668ZM13.6267 48.0151C13.6267 47.9783 13.5968 47.9484 13.56 47.9484C13.5232 47.9484 13.4933 47.9783 13.4933 48.0151L13.56 48.0151L13.6267 48.0151ZM13.4933 48.2893C13.4933 48.3261 13.5232 48.356 13.56 48.356C13.5968 48.356 13.6267 48.3261 13.6267 48.2893L13.56 48.2893L13.4933 48.2893ZM13.6267 48.8377C13.6267 48.8008 13.5968 48.771 13.56 48.771C13.5232 48.771 13.4933 48.8008 13.4933 48.8377L13.56 48.8377L13.6267 48.8377ZM13.4933 49.1119C13.4933 49.1487 13.5232 49.1785 13.56 49.1785C13.5968 49.1785 13.6267 49.1487 13.6267 49.1119L13.56 49.1119L13.4933 49.1119ZM13.6267 49.6602C13.6267 49.6234 13.5968 49.5935 13.56 49.5935C13.5232 49.5935 13.4933 49.6234 13.4933 49.6602L13.56 49.6602L13.6267 49.6602ZM13.4933 49.9344C13.4933 49.9712 13.5232 50.0011 13.56 50.0011C13.5968 50.0011 13.6267 49.9712 13.6267 49.9344L13.56 49.9344L13.4933 49.9344ZM13.6267 50.4828C13.6267 50.4459 13.5968 50.4161 13.56 50.4161C13.5232 50.4161 13.4933 50.4459 13.4933 50.4828L13.56 50.4828L13.6267 50.4828ZM13.4933 50.7569C13.4933 50.7938 13.5232 50.8236 13.56 50.8236C13.5968 50.8236 13.6267 50.7938 13.6267 50.7569L13.56 50.7569L13.4933 50.7569ZM13.6267 51.3053C13.6267 51.2685 13.5968 51.2386 13.56 51.2386C13.5232 51.2386 13.4933 51.2685 13.4933 51.3053L13.56 51.3053L13.6267 51.3053ZM13.56 41.5719L13.4933 41.5719L13.4933 41.709L13.56 41.709L13.6267 41.709L13.6267 41.5719L13.56 41.5719ZM13.56 42.2573L13.4933 42.2573L13.4933 42.5315L13.56 42.5315L13.6267 42.5315L13.6267 42.2573L13.56 42.2573ZM13.56 43.0799L13.4933 43.0799L13.4933 43.3541L13.56 43.3541L13.6267 43.3541L13.6267 43.0799L13.56 43.0799ZM13.56 43.9024L13.4933 43.9024L13.4933 44.1766L13.56 44.1766L13.6267 44.1766L13.6267 43.9024L13.56 43.9024ZM13.56 44.725L13.4933 44.725L13.4933 44.9992L13.56 44.9992L13.6267 44.9992L13.6267 44.725L13.56 44.725ZM13.56 45.5475L13.4933 45.5475L13.4933 45.8217L13.56 45.8217L13.6267 45.8217L13.6267 45.5475L13.56 45.5475ZM13.56 46.3701L13.4933 46.3701L13.4933 46.6442L13.56 46.6442L13.6267 46.6442L13.6267 46.3701L13.56 46.3701ZM13.56 47.1926L13.4933 47.1926L13.4933 47.4668L13.56 47.4668L13.6267 47.4668L13.6267 47.1926L13.56 47.1926ZM13.56 48.0151L13.4933 48.0151L13.4933 48.2893L13.56 48.2893L13.6267 48.2893L13.6267 48.0151L13.56 48.0151ZM13.56 48.8377L13.4933 48.8377L13.4933 49.1119L13.56 49.1119L13.6267 49.1119L13.6267 48.8377L13.56 48.8377ZM13.56 49.6602L13.4933 49.6602L13.4933 49.9344L13.56 49.9344L13.6267 49.9344L13.6267 49.6602L13.56 49.6602ZM13.56 50.4828L13.4933 50.4828L13.4933 50.7569L13.56 50.7569L13.6267 50.7569L13.6267 50.4828L13.56 50.4828ZM13.56 51.3053L13.4933 51.3053L13.4933 51.4424L13.56 51.4424L13.6267 51.4424L13.6267 51.3053L13.56 51.3053Z" fill="#7A7A7A"/>
<path d="M80.4001 41.1869L80.0151 41.5719L80.4001 41.9569L80.7852 41.5719L80.4001 41.1869ZM80.4001 51.8274L80.7852 51.4424L80.4001 51.0573L80.0151 51.4424L80.4001 51.8274ZM80.3335 41.709C80.3335 41.7458 80.3633 41.7757 80.4001 41.7757C80.437 41.7757 80.4668 41.7458 80.4668 41.709L80.4001 41.709L80.3335 41.709ZM80.4668 42.2573C80.4668 42.2205 80.437 42.1907 80.4001 42.1907C80.3633 42.1907 80.3335 42.2205 80.3335 42.2573L80.4001 42.2573L80.4668 42.2573ZM80.3335 42.5315C80.3335 42.5684 80.3633 42.5982 80.4001 42.5982C80.437 42.5982 80.4668 42.5684 80.4668 42.5315L80.4001 42.5315L80.3335 42.5315ZM80.4668 43.0799C80.4668 43.0431 80.437 43.0132 80.4001 43.0132C80.3633 43.0132 80.3335 43.0431 80.3335 43.0799L80.4001 43.0799L80.4668 43.0799ZM80.3335 43.3541C80.3335 43.3909 80.3633 43.4208 80.4001 43.4208C80.437 43.4208 80.4668 43.3909 80.4668 43.3541L80.4001 43.3541L80.3335 43.3541ZM80.4668 43.9024C80.4668 43.8656 80.437 43.8357 80.4001 43.8357C80.3633 43.8357 80.3335 43.8656 80.3335 43.9024L80.4001 43.9024L80.4668 43.9024ZM80.3335 44.1766C80.3335 44.2134 80.3633 44.2433 80.4001 44.2433C80.437 44.2433 80.4668 44.2134 80.4668 44.1766L80.4001 44.1766L80.3335 44.1766ZM80.4668 44.725C80.4668 44.6881 80.437 44.6583 80.4001 44.6583C80.3633 44.6583 80.3335 44.6881 80.3335 44.725L80.4001 44.725L80.4668 44.725ZM80.3335 44.9992C80.3335 45.036 80.3633 45.0658 80.4001 45.0658C80.437 45.0658 80.4668 45.036 80.4668 44.9992L80.4001 44.9992L80.3335 44.9992ZM80.4668 45.5475C80.4668 45.5107 80.437 45.4808 80.4001 45.4808C80.3633 45.4808 80.3335 45.5107 80.3335 45.5475L80.4001 45.5475L80.4668 45.5475ZM80.3335 45.8217C80.3335 45.8585 80.3633 45.8884 80.4001 45.8884C80.437 45.8884 80.4668 45.8585 80.4668 45.8217L80.4001 45.8217L80.3335 45.8217ZM80.4668 46.3701C80.4668 46.3332 80.437 46.3034 80.4001 46.3034C80.3633 46.3034 80.3335 46.3332 80.3335 46.3701L80.4001 46.3701L80.4668 46.3701ZM80.3335 46.6442C80.3335 46.6811 80.3633 46.7109 80.4001 46.7109C80.437 46.7109 80.4668 46.6811 80.4668 46.6442L80.4001 46.6442L80.3335 46.6442ZM80.4668 47.1926C80.4668 47.1558 80.437 47.1259 80.4001 47.1259C80.3633 47.1259 80.3335 47.1558 80.3335 47.1926L80.4001 47.1926L80.4668 47.1926ZM80.3335 47.4668C80.3335 47.5036 80.3633 47.5335 80.4001 47.5335C80.437 47.5335 80.4668 47.5036 80.4668 47.4668L80.4001 47.4668L80.3335 47.4668ZM80.4668 48.0151C80.4668 47.9783 80.437 47.9484 80.4001 47.9484C80.3633 47.9484 80.3335 47.9783 80.3335 48.0151L80.4001 48.0151L80.4668 48.0151ZM80.3335 48.2893C80.3335 48.3261 80.3633 48.356 80.4001 48.356C80.437 48.356 80.4668 48.3261 80.4668 48.2893L80.4001 48.2893L80.3335 48.2893ZM80.4668 48.8377C80.4668 48.8008 80.437 48.771 80.4001 48.771C80.3633 48.771 80.3335 48.8008 80.3335 48.8377L80.4001 48.8377L80.4668 48.8377ZM80.3335 49.1119C80.3335 49.1487 80.3633 49.1785 80.4001 49.1785C80.437 49.1785 80.4668 49.1487 80.4668 49.1119L80.4001 49.1119L80.3335 49.1119ZM80.4668 49.6602C80.4668 49.6234 80.437 49.5935 80.4001 49.5935C80.3633 49.5935 80.3335 49.6234 80.3335 49.6602L80.4001 49.6602L80.4668 49.6602ZM80.3335 49.9344C80.3335 49.9712 80.3633 50.0011 80.4001 50.0011C80.437 50.0011 80.4668 49.9712 80.4668 49.9344L80.4001 49.9344L80.3335 49.9344ZM80.4668 50.4828C80.4668 50.4459 80.437 50.4161 80.4001 50.4161C80.3633 50.4161 80.3335 50.4459 80.3335 50.4828L80.4001 50.4828L80.4668 50.4828ZM80.3335 50.7569C80.3335 50.7938 80.3633 50.8236 80.4001 50.8236C80.437 50.8236 80.4668 50.7938 80.4668 50.7569L80.4001 50.7569L80.3335 50.7569ZM80.4668 51.3053C80.4668 51.2685 80.437 51.2386 80.4001 51.2386C80.3633 51.2386 80.3335 51.2685 80.3335 51.3053L80.4001 51.3053L80.4668 51.3053ZM80.4001 41.5719L80.3335 41.5719L80.3335 41.709L80.4001 41.709L80.4668 41.709L80.4668 41.5719L80.4001 41.5719ZM80.4001 42.2573L80.3335 42.2573L80.3335 42.5315L80.4001 42.5315L80.4668 42.5315L80.4668 42.2573L80.4001 42.2573ZM80.4001 43.0799L80.3335 43.0799L80.3335 43.3541L80.4001 43.3541L80.4668 43.3541L80.4668 43.0799L80.4001 43.0799ZM80.4001 43.9024L80.3335 43.9024L80.3335 44.1766L80.4001 44.1766L80.4668 44.1766L80.4668 43.9024L80.4001 43.9024ZM80.4001 44.725L80.3335 44.725L80.3335 44.9992L80.4001 44.9992L80.4668 44.9992L80.4668 44.725L80.4001 44.725ZM80.4001 45.5475L80.3335 45.5475L80.3335 45.8217L80.4001 45.8217L80.4668 45.8217L80.4668 45.5475L80.4001 45.5475ZM80.4001 46.3701L80.3335 46.3701L80.3335 46.6442L80.4001 46.6442L80.4668 46.6442L80.4668 46.3701L80.4001 46.3701ZM80.4001 47.1926L80.3335 47.1926L80.3335 47.4668L80.4001 47.4668L80.4668 47.4668L80.4668 47.1926L80.4001 47.1926ZM80.4001 48.0151L80.3335 48.0151L80.3335 48.2893L80.4001 48.2893L80.4668 48.2893L80.4668 48.0151L80.4001 48.0151ZM80.4001 48.8377L80.3335 48.8377L80.3335 49.1119L80.4001 49.1119L80.4668 49.1119L80.4668 48.8377L80.4001 48.8377ZM80.4001 49.6602L80.3335 49.6602L80.3335 49.9344L80.4001 49.9344L80.4668 49.9344L80.4668 49.6602L80.4001 49.6602ZM80.4001 50.4828L80.3335 50.4828L80.3335 50.7569L80.4001 50.7569L80.4668 50.7569L80.4668 50.4828L80.4001 50.4828ZM80.4001 51.3053L80.3335 51.3053L80.3335 51.4424L80.4001 51.4424L80.4668 51.4424L80.4668 51.3053L80.4001 51.3053Z" fill="#7A7A7A"/>
</svg>
