<svg width="94" height="80" viewBox="0 0 94 80" fill="none" xmlns="http://www.w3.org/2000/svg">
<path d="M4.80713 55.0009L46.9034 30.6965L88.9998 55.0009L46.9034 79.3052L4.80713 55.0009Z" fill="white"/>
<path d="M4.80713 55.0009L4.63485 54.9014L4.46257 55.0009L4.63485 55.1003L4.80713 55.0009ZM46.9034 30.6965L47.0757 30.5971L46.9034 30.4976L46.7312 30.5971L46.9034 30.6965ZM88.9998 55.0009L89.172 55.1003L89.3443 55.0009L89.172 54.9014L88.9998 55.0009ZM46.9034 79.3052L46.7312 79.4046L46.9034 79.5041L47.0757 79.4046L46.9034 79.3052ZM4.80713 55.0009L4.97941 55.1003L47.0757 30.796L46.9034 30.6965L46.7312 30.5971L4.63485 54.9014L4.80713 55.0009ZM46.9034 30.6965L46.7312 30.796L88.8275 55.1003L88.9998 55.0009L89.172 54.9014L47.0757 30.5971L46.9034 30.6965ZM88.9998 55.0009L88.8275 54.9014L46.7312 79.2057L46.9034 79.3052L47.0757 79.4046L89.172 55.1003L88.9998 55.0009ZM46.9034 79.3052L47.0757 79.2057L4.97941 54.9014L4.80713 55.0009L4.63485 55.1003L46.7312 79.4046L46.9034 79.3052Z" fill="#7A7A7A"/>
<path d="M4.80713 51.3914L46.9034 27.087L88.9998 51.3914L46.9034 75.6957L4.80713 51.3914Z" fill="#E9E9E9"/>
<path d="M13.281 51.3859L46.9793 31.9302L80.6776 51.3859L46.9793 70.8416L13.281 51.3859Z" fill="white" stroke="#7A7A7A" stroke-width="0.397858"/>
<path d="M13.281 39.6612L46.9185 20.2406L80.556 39.6612L46.9185 59.0818L13.281 39.6612Z" fill="white"/>
<path d="M13.281 39.6612L13.1088 39.5617L12.9365 39.6612L13.1088 39.7607L13.281 39.6612ZM46.9185 20.2406L47.0908 20.1411L46.9185 20.0417L46.7462 20.1411L46.9185 20.2406ZM80.556 39.6612L80.7283 39.7607L80.9006 39.6612L80.7283 39.5617L80.556 39.6612ZM46.9185 59.0818L46.7462 59.1813L46.9185 59.2807L47.0908 59.1813L46.9185 59.0818ZM13.281 39.6612L13.4533 39.7607L47.0908 20.34L46.9185 20.2406L46.7462 20.1411L13.1088 39.5617L13.281 39.6612ZM46.9185 20.2406L46.7462 20.34L80.3837 39.7607L80.556 39.6612L80.7283 39.5617L47.0908 20.1411L46.9185 20.2406ZM80.556 39.6612L80.3837 39.5617L46.7462 58.9823L46.9185 59.0818L47.0908 59.1813L80.7283 39.7607L80.556 39.6612ZM46.9185 59.0818L47.0908 58.9823L13.4533 39.5617L13.281 39.6612L13.1088 39.7607L46.7462 59.1813L46.9185 59.0818Z" fill="#7A7A7A"/>
<rect x="0.0739294" width="35.9024" height="35.9024" transform="matrix(0.866025 -0.5 0.866025 0.5 15.5425 39.6869)" stroke="#7A7A7A" stroke-width="0.0853663" stroke-dasharray="0.27 0.4"/>
<path d="M17.274 39.6499L46.6988 22.6615L76.1237 39.6499L46.6988 56.6383L17.274 39.6499Z" fill="white"/>
<path d="M56.8752 24.3608L54.4054 49.3052L30.8029 36.7495L30.7453 11.854L56.8752 24.3608Z" fill="#D4D7FF" stroke="#5160FF" stroke-width="0.396"/>
<path d="M54.4705 49.5538L50.9282 47.6696" stroke="#5160FF" stroke-width="0.396"/>
<path d="M62.5465 21.6792L56.9586 24.3403L30.5055 11.6372L35.4694 9.10986L62.5465 21.6792Z" fill="#F2F4FF" stroke="#5160FF" stroke-width="0.1584"/>
<path d="M57.8986 23.7599C47.5701 18.8559 42.0657 15.9803 31.7372 11.0763" stroke="#5160FF" stroke-width="0.396"/>
<path d="M59.3042 23.2617C49.0294 18.3092 43.1743 15.4295 32.8995 10.477" stroke="#5160FF" stroke-width="0.396"/>
<path d="M60.4848 22.6982C50.21 17.7458 44.0316 14.9331 33.7568 9.98071" stroke="#5160FF" stroke-width="0.396"/>
<path d="M61.4297 22.207C50.9487 17.2543 45.1165 14.4355 34.6355 9.48273" stroke="#5160FF" stroke-width="0.396"/>
<path d="M64.0146 43.8979L54.6318 49.4292L56.7245 24.4995L62.2558 22.0083L64.0146 43.8979Z" fill="#D4D7FF" stroke="#5160FF" stroke-width="0.396"/>
<path d="M57.8969 23.8439L57.1489 48.0875" stroke="#5160FF" stroke-width="0.396"/>
<path d="M59.2273 23.17C59.1245 32.8683 59.0887 37.2422 58.9859 46.9405" stroke="#5160FF" stroke-width="0.396"/>
<path d="M60.4866 22.7356C60.6077 32.3902 60.6902 36.2529 60.8113 45.9076" stroke="#5160FF" stroke-width="0.396"/>
<path d="M61.5232 22.2125L62.6702 44.8573" stroke="#5160FF" stroke-width="0.396"/>
<path d="M25.4176 37.3915L50.2044 51.5911C50.2044 51.5911 51.6292 48.185 53.3591 43.3308C55.4132 37.5671 57.0224 24.2132 57.0224 24.2132L30.524 11.5046C30.524 11.5046 30.9221 20.6927 29.4405 26.304C28.2646 30.7576 25.4176 37.3915 25.4176 37.3915Z" fill="#5160FF"/>
<path d="M43.0446 30.7417L45.3472 35.079L38.4883 31.193L38.0862 36.5912L37.2928 36.0508L38.096 25.2681L38.0976 25.2692L45.7549 29.6059L43.0446 30.7417Z" fill="#F4FF6A"/>
<ellipse cx="51.1767" cy="24.3099" rx="1.13961" ry="1.77268" transform="rotate(-29.0279 51.1767 24.3099)" fill="#F2F4FF"/>
<ellipse cx="36.2343" cy="17.0021" rx="1.13961" ry="1.77268" transform="rotate(-29.0279 36.2343 17.0021)" fill="#F2F4FF"/>
<path d="M39.2353 9.80102C40.6108 9.44479 41.953 10.4836 41.9531 11.9045C41.9529 12.0047 41.8707 12.0862 41.7704 12.0862C41.6705 12.0859 41.589 12.0045 41.5888 11.9045C41.5887 10.7214 40.4715 9.85596 39.3261 10.1526L36.5595 10.8694C35.2563 11.2072 34.3458 12.3834 34.3456 13.7297V15.47C34.3456 16.4497 35.2472 17.1812 36.206 16.9797C36.3042 16.9591 36.4011 17.0222 36.4218 17.1204C36.4425 17.2186 36.3794 17.3155 36.2812 17.3362C35.0965 17.5853 33.9824 16.6806 33.9824 15.47V13.7297C33.9826 12.2177 35.005 10.8971 36.4687 10.5178L39.2353 9.80102Z" fill="#5160FF"/>
<path d="M54.5493 16.9153C55.9249 16.5592 57.2671 17.5979 57.2671 19.0188C57.2669 19.119 57.1847 19.2004 57.0845 19.2005C56.9844 19.2003 56.9031 19.1189 56.9029 19.0188C56.9029 17.8357 55.7855 16.9704 54.6402 17.2669L51.8736 17.9837C50.5702 18.3214 49.6599 19.4976 49.6597 20.844V22.5843C49.6597 23.5641 50.5612 24.2957 51.5201 24.094C51.6182 24.0735 51.7152 24.1365 51.7359 24.2346C51.7565 24.3328 51.6933 24.4297 51.5952 24.4505C50.4105 24.6997 49.2964 23.795 49.2964 22.5843V20.844C49.2966 19.3319 50.3189 18.0113 51.7827 17.6321L54.5493 16.9153Z" fill="#5160FF"/>
<circle cx="0.807035" cy="0.807035" r="0.807035" transform="matrix(0.866025 -0.5 0.866025 0.5 7.22809 51.2492)" fill="white"/>
<circle cx="0.807035" cy="0.807035" r="0.807035" transform="matrix(0.866025 -0.5 0.866025 0.5 45.5814 73.239)" fill="white"/>
<ellipse cx="0.477029" cy="0.477029" rx="0.477029" ry="0.477029" transform="matrix(0.866025 -0.5 0.866025 0.5 18.3215 39.6196)" fill="#E9E9E9"/>
<ellipse cx="0.477029" cy="0.477029" rx="0.477029" ry="0.477029" transform="matrix(0.866025 -0.5 0.866025 0.5 73.5989 39.6196)" fill="#E9E9E9"/>
<ellipse cx="0.477029" cy="0.477029" rx="0.477029" ry="0.477029" transform="matrix(0.866025 -0.5 0.866025 0.5 45.8549 55.4182)" fill="#E9E9E9"/>
<circle cx="0.807035" cy="0.807035" r="0.807035" transform="matrix(0.866025 -0.5 0.866025 0.5 83.2912 51.2492)" fill="white"/>
<path d="M47.9887 71.5143L52.5286 68.8932L54.1185 69.8111L49.5786 72.4322L47.9887 71.5143Z" fill="white"/>
<path d="M53.2347 68.4838L54.9744 67.4793L56.5644 68.3973L54.8246 69.4017L53.2347 68.4838Z" fill="white"/>
<path d="M46.9746 59.3878L46.5896 59.7728L46.9746 60.1579L47.3597 59.7728L46.9746 59.3878ZM46.9746 70.0441L47.3597 69.659L46.9746 69.274L46.5896 69.659L46.9746 70.0441ZM46.9079 59.9101C46.9079 59.947 46.9378 59.9768 46.9746 59.9768C47.0115 59.9768 47.0413 59.947 47.0413 59.9101L46.9746 59.9101L46.9079 59.9101ZM47.0413 60.4594C47.0413 60.4225 47.0115 60.3927 46.9746 60.3927C46.9378 60.3927 46.9079 60.4225 46.9079 60.4594L46.9746 60.4594L47.0413 60.4594ZM46.9079 60.734C46.9079 60.7708 46.9378 60.8007 46.9746 60.8007C47.0115 60.8007 47.0413 60.7708 47.0413 60.734L46.9746 60.734L46.9079 60.734ZM47.0413 61.2832C47.0413 61.2464 47.0115 61.2165 46.9746 61.2165C46.9378 61.2165 46.9079 61.2464 46.9079 61.2832L46.9746 61.2832L47.0413 61.2832ZM46.9079 61.5578C46.9079 61.5947 46.9378 61.6245 46.9746 61.6245C47.0115 61.6245 47.0413 61.5947 47.0413 61.5578L46.9746 61.5578L46.9079 61.5578ZM47.0413 62.1071C47.0413 62.0702 47.0115 62.0404 46.9746 62.0404C46.9378 62.0404 46.9079 62.0702 46.9079 62.1071L46.9746 62.1071L47.0413 62.1071ZM46.9079 62.3817C46.9079 62.4185 46.9378 62.4484 46.9746 62.4484C47.0115 62.4484 47.0413 62.4185 47.0413 62.3817L46.9746 62.3817L46.9079 62.3817ZM47.0413 62.9309C47.0413 62.8941 47.0115 62.8642 46.9746 62.8642C46.9378 62.8642 46.9079 62.8941 46.9079 62.9309L46.9746 62.9309L47.0413 62.9309ZM46.9079 63.2055C46.9079 63.2424 46.9378 63.2722 46.9746 63.2722C47.0115 63.2722 47.0413 63.2424 47.0413 63.2055L46.9746 63.2055L46.9079 63.2055ZM47.0413 63.7548C47.0413 63.7179 47.0115 63.6881 46.9746 63.6881C46.9378 63.6881 46.9079 63.7179 46.9079 63.7548L46.9746 63.7548L47.0413 63.7548ZM46.9079 64.0294C46.9079 64.0662 46.9378 64.0961 46.9746 64.0961C47.0115 64.0961 47.0413 64.0662 47.0413 64.0294L46.9746 64.0294L46.9079 64.0294ZM47.0413 64.5786C47.0413 64.5418 47.0115 64.5119 46.9746 64.5119C46.9378 64.5119 46.9079 64.5418 46.9079 64.5786L46.9746 64.5786L47.0413 64.5786ZM46.9079 64.8532C46.9079 64.8901 46.9378 64.9199 46.9746 64.9199C47.0115 64.9199 47.0413 64.8901 47.0413 64.8532L46.9746 64.8532L46.9079 64.8532ZM47.0413 65.4025C47.0413 65.3656 47.0115 65.3358 46.9746 65.3358C46.9378 65.3358 46.9079 65.3656 46.9079 65.4025L46.9746 65.4025L47.0413 65.4025ZM46.9079 65.6771C46.9079 65.7139 46.9378 65.7438 46.9746 65.7438C47.0115 65.7438 47.0413 65.7139 47.0413 65.6771L46.9746 65.6771L46.9079 65.6771ZM47.0413 66.2263C47.0413 66.1895 47.0115 66.1596 46.9746 66.1596C46.9378 66.1596 46.9079 66.1895 46.9079 66.2263L46.9746 66.2263L47.0413 66.2263ZM46.9079 66.5009C46.9079 66.5378 46.9378 66.5676 46.9746 66.5676C47.0115 66.5676 47.0413 66.5378 47.0413 66.5009L46.9746 66.5009L46.9079 66.5009ZM47.0413 67.0501C47.0413 67.0133 47.0115 66.9835 46.9746 66.9835C46.9378 66.9835 46.9079 67.0133 46.9079 67.0501L46.9746 67.0501L47.0413 67.0501ZM46.9079 67.3248C46.9079 67.3616 46.9378 67.3915 46.9746 67.3915C47.0115 67.3915 47.0413 67.3616 47.0413 67.3248L46.9746 67.3248L46.9079 67.3248ZM47.0413 67.874C47.0413 67.8372 47.0115 67.8073 46.9746 67.8073C46.9378 67.8073 46.9079 67.8372 46.9079 67.874L46.9746 67.874L47.0413 67.874ZM46.9079 68.1486C46.9079 68.1854 46.9378 68.2153 46.9746 68.2153C47.0115 68.2153 47.0413 68.1854 47.0413 68.1486L46.9746 68.1486L46.9079 68.1486ZM47.0413 68.6978C47.0413 68.661 47.0115 68.6312 46.9746 68.6312C46.9378 68.6312 46.9079 68.661 46.9079 68.6978L46.9746 68.6978L47.0413 68.6978ZM46.9079 68.9725C46.9079 69.0093 46.9378 69.0392 46.9746 69.0392C47.0115 69.0392 47.0413 69.0093 47.0413 68.9725L46.9746 68.9725L46.9079 68.9725ZM47.0413 69.5217C47.0413 69.4849 47.0115 69.455 46.9746 69.455C46.9378 69.455 46.9079 69.4849 46.9079 69.5217L46.9746 69.5217L47.0413 69.5217ZM46.9746 59.7728L46.9079 59.7728L46.9079 59.9101L46.9746 59.9101L47.0413 59.9101L47.0413 59.7728L46.9746 59.7728ZM46.9746 60.4594L46.9079 60.4594L46.9079 60.734L46.9746 60.734L47.0413 60.734L47.0413 60.4594L46.9746 60.4594ZM46.9746 61.2832L46.9079 61.2832L46.9079 61.5578L46.9746 61.5578L47.0413 61.5578L47.0413 61.2832L46.9746 61.2832ZM46.9746 62.1071L46.9079 62.1071L46.9079 62.3817L46.9746 62.3817L47.0413 62.3817L47.0413 62.1071L46.9746 62.1071ZM46.9746 62.9309L46.9079 62.9309L46.9079 63.2055L46.9746 63.2055L47.0413 63.2055L47.0413 62.9309L46.9746 62.9309ZM46.9746 63.7548L46.9079 63.7548L46.9079 64.0294L46.9746 64.0294L47.0413 64.0294L47.0413 63.7548L46.9746 63.7548ZM46.9746 64.5786L46.9079 64.5786L46.9079 64.8532L46.9746 64.8532L47.0413 64.8532L47.0413 64.5786L46.9746 64.5786ZM46.9746 65.4025L46.9079 65.4025L46.9079 65.6771L46.9746 65.6771L47.0413 65.6771L47.0413 65.4025L46.9746 65.4025ZM46.9746 66.2263L46.9079 66.2263L46.9079 66.5009L46.9746 66.5009L47.0413 66.5009L47.0413 66.2263L46.9746 66.2263ZM46.9746 67.0501L46.9079 67.0501L46.9079 67.3248L46.9746 67.3248L47.0413 67.3248L47.0413 67.0501L46.9746 67.0501ZM46.9746 67.874L46.9079 67.874L46.9079 68.1486L46.9746 68.1486L47.0413 68.1486L47.0413 67.874L46.9746 67.874ZM46.9746 68.6978L46.9079 68.6978L46.9079 68.9725L46.9746 68.9725L47.0413 68.9725L47.0413 68.6978L46.9746 68.6978ZM46.9746 69.5217L46.9079 69.5217L46.9079 69.659L46.9746 69.659L47.0413 69.659L47.0413 69.5217L46.9746 69.5217Z" fill="#7A7A7A"/>
<path d="M13.56 40.1869L13.1749 40.5719L13.56 40.9569L13.945 40.5719L13.56 40.1869ZM13.56 50.8274L13.945 50.4424L13.56 50.0573L13.1749 50.4424L13.56 50.8274ZM13.4933 40.709C13.4933 40.7458 13.5232 40.7757 13.56 40.7757C13.5968 40.7757 13.6267 40.7458 13.6267 40.709L13.56 40.709L13.4933 40.709ZM13.6267 41.2573C13.6267 41.2205 13.5968 41.1907 13.56 41.1907C13.5232 41.1907 13.4933 41.2205 13.4933 41.2573L13.56 41.2573L13.6267 41.2573ZM13.4933 41.5315C13.4933 41.5684 13.5232 41.5982 13.56 41.5982C13.5968 41.5982 13.6267 41.5684 13.6267 41.5315L13.56 41.5315L13.4933 41.5315ZM13.6267 42.0799C13.6267 42.0431 13.5968 42.0132 13.56 42.0132C13.5232 42.0132 13.4933 42.0431 13.4933 42.0799L13.56 42.0799L13.6267 42.0799ZM13.4933 42.3541C13.4933 42.3909 13.5232 42.4208 13.56 42.4208C13.5968 42.4208 13.6267 42.3909 13.6267 42.3541L13.56 42.3541L13.4933 42.3541ZM13.6267 42.9024C13.6267 42.8656 13.5968 42.8357 13.56 42.8357C13.5232 42.8357 13.4933 42.8656 13.4933 42.9024L13.56 42.9024L13.6267 42.9024ZM13.4933 43.1766C13.4933 43.2134 13.5232 43.2433 13.56 43.2433C13.5968 43.2433 13.6267 43.2134 13.6267 43.1766L13.56 43.1766L13.4933 43.1766ZM13.6267 43.725C13.6267 43.6881 13.5968 43.6583 13.56 43.6583C13.5232 43.6583 13.4933 43.6881 13.4933 43.725L13.56 43.725L13.6267 43.725ZM13.4933 43.9992C13.4933 44.036 13.5232 44.0658 13.56 44.0658C13.5968 44.0658 13.6267 44.036 13.6267 43.9992L13.56 43.9992L13.4933 43.9992ZM13.6267 44.5475C13.6267 44.5107 13.5968 44.4808 13.56 44.4808C13.5232 44.4808 13.4933 44.5107 13.4933 44.5475L13.56 44.5475L13.6267 44.5475ZM13.4933 44.8217C13.4933 44.8585 13.5232 44.8884 13.56 44.8884C13.5968 44.8884 13.6267 44.8585 13.6267 44.8217L13.56 44.8217L13.4933 44.8217ZM13.6267 45.3701C13.6267 45.3332 13.5968 45.3034 13.56 45.3034C13.5232 45.3034 13.4933 45.3332 13.4933 45.3701L13.56 45.3701L13.6267 45.3701ZM13.4933 45.6442C13.4933 45.6811 13.5232 45.7109 13.56 45.7109C13.5968 45.7109 13.6267 45.6811 13.6267 45.6442L13.56 45.6442L13.4933 45.6442ZM13.6267 46.1926C13.6267 46.1558 13.5968 46.1259 13.56 46.1259C13.5232 46.1259 13.4933 46.1558 13.4933 46.1926L13.56 46.1926L13.6267 46.1926ZM13.4933 46.4668C13.4933 46.5036 13.5232 46.5335 13.56 46.5335C13.5968 46.5335 13.6267 46.5036 13.6267 46.4668L13.56 46.4668L13.4933 46.4668ZM13.6267 47.0151C13.6267 46.9783 13.5968 46.9484 13.56 46.9484C13.5232 46.9484 13.4933 46.9783 13.4933 47.0151L13.56 47.0151L13.6267 47.0151ZM13.4933 47.2893C13.4933 47.3261 13.5232 47.356 13.56 47.356C13.5968 47.356 13.6267 47.3261 13.6267 47.2893L13.56 47.2893L13.4933 47.2893ZM13.6267 47.8377C13.6267 47.8008 13.5968 47.771 13.56 47.771C13.5232 47.771 13.4933 47.8008 13.4933 47.8377L13.56 47.8377L13.6267 47.8377ZM13.4933 48.1119C13.4933 48.1487 13.5232 48.1785 13.56 48.1785C13.5968 48.1785 13.6267 48.1487 13.6267 48.1119L13.56 48.1119L13.4933 48.1119ZM13.6267 48.6602C13.6267 48.6234 13.5968 48.5935 13.56 48.5935C13.5232 48.5935 13.4933 48.6234 13.4933 48.6602L13.56 48.6602L13.6267 48.6602ZM13.4933 48.9344C13.4933 48.9712 13.5232 49.0011 13.56 49.0011C13.5968 49.0011 13.6267 48.9712 13.6267 48.9344L13.56 48.9344L13.4933 48.9344ZM13.6267 49.4828C13.6267 49.4459 13.5968 49.4161 13.56 49.4161C13.5232 49.4161 13.4933 49.4459 13.4933 49.4828L13.56 49.4828L13.6267 49.4828ZM13.4933 49.7569C13.4933 49.7938 13.5232 49.8236 13.56 49.8236C13.5968 49.8236 13.6267 49.7938 13.6267 49.7569L13.56 49.7569L13.4933 49.7569ZM13.6267 50.3053C13.6267 50.2685 13.5968 50.2386 13.56 50.2386C13.5232 50.2386 13.4933 50.2685 13.4933 50.3053L13.56 50.3053L13.6267 50.3053ZM13.56 40.5719L13.4933 40.5719L13.4933 40.709L13.56 40.709L13.6267 40.709L13.6267 40.5719L13.56 40.5719ZM13.56 41.2573L13.4933 41.2573L13.4933 41.5315L13.56 41.5315L13.6267 41.5315L13.6267 41.2573L13.56 41.2573ZM13.56 42.0799L13.4933 42.0799L13.4933 42.3541L13.56 42.3541L13.6267 42.3541L13.6267 42.0799L13.56 42.0799ZM13.56 42.9024L13.4933 42.9024L13.4933 43.1766L13.56 43.1766L13.6267 43.1766L13.6267 42.9024L13.56 42.9024ZM13.56 43.725L13.4933 43.725L13.4933 43.9992L13.56 43.9992L13.6267 43.9992L13.6267 43.725L13.56 43.725ZM13.56 44.5475L13.4933 44.5475L13.4933 44.8217L13.56 44.8217L13.6267 44.8217L13.6267 44.5475L13.56 44.5475ZM13.56 45.3701L13.4933 45.3701L13.4933 45.6442L13.56 45.6442L13.6267 45.6442L13.6267 45.3701L13.56 45.3701ZM13.56 46.1926L13.4933 46.1926L13.4933 46.4668L13.56 46.4668L13.6267 46.4668L13.6267 46.1926L13.56 46.1926ZM13.56 47.0151L13.4933 47.0151L13.4933 47.2893L13.56 47.2893L13.6267 47.2893L13.6267 47.0151L13.56 47.0151ZM13.56 47.8377L13.4933 47.8377L13.4933 48.1119L13.56 48.1119L13.6267 48.1119L13.6267 47.8377L13.56 47.8377ZM13.56 48.6602L13.4933 48.6602L13.4933 48.9344L13.56 48.9344L13.6267 48.9344L13.6267 48.6602L13.56 48.6602ZM13.56 49.4828L13.4933 49.4828L13.4933 49.7569L13.56 49.7569L13.6267 49.7569L13.6267 49.4828L13.56 49.4828ZM13.56 50.3053L13.4933 50.3053L13.4933 50.4424L13.56 50.4424L13.6267 50.4424L13.6267 50.3053L13.56 50.3053Z" fill="#7A7A7A"/>
<path d="M80.4001 40.1869L80.0151 40.5719L80.4001 40.9569L80.7852 40.5719L80.4001 40.1869ZM80.4001 50.8274L80.7852 50.4424L80.4001 50.0573L80.0151 50.4424L80.4001 50.8274ZM80.3335 40.709C80.3335 40.7458 80.3633 40.7757 80.4001 40.7757C80.437 40.7757 80.4668 40.7458 80.4668 40.709L80.4001 40.709L80.3335 40.709ZM80.4668 41.2573C80.4668 41.2205 80.437 41.1907 80.4001 41.1907C80.3633 41.1907 80.3335 41.2205 80.3335 41.2573L80.4001 41.2573L80.4668 41.2573ZM80.3335 41.5315C80.3335 41.5684 80.3633 41.5982 80.4001 41.5982C80.437 41.5982 80.4668 41.5684 80.4668 41.5315L80.4001 41.5315L80.3335 41.5315ZM80.4668 42.0799C80.4668 42.0431 80.437 42.0132 80.4001 42.0132C80.3633 42.0132 80.3335 42.0431 80.3335 42.0799L80.4001 42.0799L80.4668 42.0799ZM80.3335 42.3541C80.3335 42.3909 80.3633 42.4208 80.4001 42.4208C80.437 42.4208 80.4668 42.3909 80.4668 42.3541L80.4001 42.3541L80.3335 42.3541ZM80.4668 42.9024C80.4668 42.8656 80.437 42.8357 80.4001 42.8357C80.3633 42.8357 80.3335 42.8656 80.3335 42.9024L80.4001 42.9024L80.4668 42.9024ZM80.3335 43.1766C80.3335 43.2134 80.3633 43.2433 80.4001 43.2433C80.437 43.2433 80.4668 43.2134 80.4668 43.1766L80.4001 43.1766L80.3335 43.1766ZM80.4668 43.725C80.4668 43.6881 80.437 43.6583 80.4001 43.6583C80.3633 43.6583 80.3335 43.6881 80.3335 43.725L80.4001 43.725L80.4668 43.725ZM80.3335 43.9992C80.3335 44.036 80.3633 44.0658 80.4001 44.0658C80.437 44.0658 80.4668 44.036 80.4668 43.9992L80.4001 43.9992L80.3335 43.9992ZM80.4668 44.5475C80.4668 44.5107 80.437 44.4808 80.4001 44.4808C80.3633 44.4808 80.3335 44.5107 80.3335 44.5475L80.4001 44.5475L80.4668 44.5475ZM80.3335 44.8217C80.3335 44.8585 80.3633 44.8884 80.4001 44.8884C80.437 44.8884 80.4668 44.8585 80.4668 44.8217L80.4001 44.8217L80.3335 44.8217ZM80.4668 45.3701C80.4668 45.3332 80.437 45.3034 80.4001 45.3034C80.3633 45.3034 80.3335 45.3332 80.3335 45.3701L80.4001 45.3701L80.4668 45.3701ZM80.3335 45.6442C80.3335 45.6811 80.3633 45.7109 80.4001 45.7109C80.437 45.7109 80.4668 45.6811 80.4668 45.6442L80.4001 45.6442L80.3335 45.6442ZM80.4668 46.1926C80.4668 46.1558 80.437 46.1259 80.4001 46.1259C80.3633 46.1259 80.3335 46.1558 80.3335 46.1926L80.4001 46.1926L80.4668 46.1926ZM80.3335 46.4668C80.3335 46.5036 80.3633 46.5335 80.4001 46.5335C80.437 46.5335 80.4668 46.5036 80.4668 46.4668L80.4001 46.4668L80.3335 46.4668ZM80.4668 47.0151C80.4668 46.9783 80.437 46.9484 80.4001 46.9484C80.3633 46.9484 80.3335 46.9783 80.3335 47.0151L80.4001 47.0151L80.4668 47.0151ZM80.3335 47.2893C80.3335 47.3261 80.3633 47.356 80.4001 47.356C80.437 47.356 80.4668 47.3261 80.4668 47.2893L80.4001 47.2893L80.3335 47.2893ZM80.4668 47.8377C80.4668 47.8008 80.437 47.771 80.4001 47.771C80.3633 47.771 80.3335 47.8008 80.3335 47.8377L80.4001 47.8377L80.4668 47.8377ZM80.3335 48.1119C80.3335 48.1487 80.3633 48.1785 80.4001 48.1785C80.437 48.1785 80.4668 48.1487 80.4668 48.1119L80.4001 48.1119L80.3335 48.1119ZM80.4668 48.6602C80.4668 48.6234 80.437 48.5935 80.4001 48.5935C80.3633 48.5935 80.3335 48.6234 80.3335 48.6602L80.4001 48.6602L80.4668 48.6602ZM80.3335 48.9344C80.3335 48.9712 80.3633 49.0011 80.4001 49.0011C80.437 49.0011 80.4668 48.9712 80.4668 48.9344L80.4001 48.9344L80.3335 48.9344ZM80.4668 49.4828C80.4668 49.4459 80.437 49.4161 80.4001 49.4161C80.3633 49.4161 80.3335 49.4459 80.3335 49.4828L80.4001 49.4828L80.4668 49.4828ZM80.3335 49.7569C80.3335 49.7938 80.3633 49.8236 80.4001 49.8236C80.437 49.8236 80.4668 49.7938 80.4668 49.7569L80.4001 49.7569L80.3335 49.7569ZM80.4668 50.3053C80.4668 50.2685 80.437 50.2386 80.4001 50.2386C80.3633 50.2386 80.3335 50.2685 80.3335 50.3053L80.4001 50.3053L80.4668 50.3053ZM80.4001 40.5719L80.3335 40.5719L80.3335 40.709L80.4001 40.709L80.4668 40.709L80.4668 40.5719L80.4001 40.5719ZM80.4001 41.2573L80.3335 41.2573L80.3335 41.5315L80.4001 41.5315L80.4668 41.5315L80.4668 41.2573L80.4001 41.2573ZM80.4001 42.0799L80.3335 42.0799L80.3335 42.3541L80.4001 42.3541L80.4668 42.3541L80.4668 42.0799L80.4001 42.0799ZM80.4001 42.9024L80.3335 42.9024L80.3335 43.1766L80.4001 43.1766L80.4668 43.1766L80.4668 42.9024L80.4001 42.9024ZM80.4001 43.725L80.3335 43.725L80.3335 43.9992L80.4001 43.9992L80.4668 43.9992L80.4668 43.725L80.4001 43.725ZM80.4001 44.5475L80.3335 44.5475L80.3335 44.8217L80.4001 44.8217L80.4668 44.8217L80.4668 44.5475L80.4001 44.5475ZM80.4001 45.3701L80.3335 45.3701L80.3335 45.6442L80.4001 45.6442L80.4668 45.6442L80.4668 45.3701L80.4001 45.3701ZM80.4001 46.1926L80.3335 46.1926L80.3335 46.4668L80.4001 46.4668L80.4668 46.4668L80.4668 46.1926L80.4001 46.1926ZM80.4001 47.0151L80.3335 47.0151L80.3335 47.2893L80.4001 47.2893L80.4668 47.2893L80.4668 47.0151L80.4001 47.0151ZM80.4001 47.8377L80.3335 47.8377L80.3335 48.1119L80.4001 48.1119L80.4668 48.1119L80.4668 47.8377L80.4001 47.8377ZM80.4001 48.6602L80.3335 48.6602L80.3335 48.9344L80.4001 48.9344L80.4668 48.9344L80.4668 48.6602L80.4001 48.6602ZM80.4001 49.4828L80.3335 49.4828L80.3335 49.7569L80.4001 49.7569L80.4668 49.7569L80.4668 49.4828L80.4001 49.4828ZM80.4001 50.3053L80.3335 50.3053L80.3335 50.4424L80.4001 50.4424L80.4668 50.4424L80.4668 50.3053L80.4001 50.3053Z" fill="#7A7A7A"/>
</svg>
