<svg width="173" height="115" viewBox="0 0 173 115" fill="none" xmlns="http://www.w3.org/2000/svg">
<path d="M172.629 51.9287L63.9779 114.659" stroke="url(#paint0_linear_5086_8596)" stroke-width="0.155508" stroke-linecap="round" stroke-dasharray="0.31 0.62"/>
<path d="M117.629 49.0378L31.227 97.9357" stroke="url(#paint1_linear_5086_8596)" stroke-width="0.155508" stroke-linecap="round" stroke-dasharray="0.31 0.62"/>
<path d="M24.3022 30.3134L132.954 93.0434" stroke="url(#paint2_linear_5086_8596)" stroke-width="0.155508" stroke-linecap="round" stroke-dasharray="0.31 0.62"/>
<path d="M53.1558 16.9621L161.807 79.6921" stroke="url(#paint3_linear_5086_8596)" stroke-width="0.155508" stroke-linecap="round" stroke-dasharray="0.31 0.62"/>
<path opacity="0.1" d="M53.2197 67.0386L95.316 42.7343L142.169 69.785L100.073 94.0893L53.2197 67.0386Z" fill="#2534D3"/>
<path d="M43.4126 59.1854L82.3434 36.7087V53.7798L43.4126 76.2565V59.1854Z" fill="#2534D3"/>
<path d="M43.4126 59.1854L82.3434 36.7087V53.7798L43.4126 76.2565V59.1854Z" stroke="#2534D3" stroke-width="0.0916402" stroke-linejoin="bevel"/>
<path d="M50.2214 60.7688C50.5659 60.5725 50.8731 60.4641 51.1432 60.4426C51.4132 60.4184 51.6391 60.4799 51.8206 60.6276C52.0022 60.7755 52.1309 61.0069 52.2054 61.3215L51.3005 62.0256C51.2633 61.8428 51.191 61.7108 51.084 61.6301C50.9792 61.5454 50.8495 61.5097 50.6958 61.5231C50.5446 61.5353 50.3825 61.5883 50.2104 61.6823C50.0429 61.7764 49.8869 61.8961 49.7427 62.0412C49.6007 62.1823 49.4852 62.3348 49.3968 62.4987C49.3107 62.6613 49.2674 62.8184 49.2674 62.9689C49.2674 63.1112 49.3048 63.2066 49.379 63.2551C49.4535 63.3008 49.5461 63.3187 49.6556 63.3093C49.7672 63.2958 49.8799 63.2747 49.9939 63.2439L50.8954 63.0134C51.0187 62.9798 51.1571 62.9511 51.3107 62.927C51.4643 62.9028 51.6126 62.9075 51.7547 62.9411C51.8965 62.9748 52.0132 63.0589 52.104 63.1945C52.197 63.3289 52.2435 63.5415 52.2435 63.8317C52.2435 64.1329 52.1889 64.4297 52.0794 64.7214C51.9724 65.009 51.8269 65.2811 51.643 65.5378C51.4591 65.7946 51.2479 66.0295 51.0104 66.2419C50.7754 66.4528 50.5287 66.6333 50.2704 66.7824C49.9027 66.9947 49.5706 67.1125 49.275 67.1355C48.9817 67.157 48.7394 67.085 48.5485 66.9211C48.3599 66.7531 48.2395 66.4943 48.1882 66.1447L49.0619 65.487C49.1364 65.7881 49.2889 65.9666 49.5194 66.0217C49.7522 66.0754 50.0202 66.0148 50.3228 65.84C50.5019 65.7366 50.6704 65.6071 50.8286 65.4514C50.9869 65.2954 51.1156 65.1271 51.2134 64.947C51.3134 64.7656 51.3631 64.5845 51.3631 64.4045C51.3631 64.324 51.3517 64.2565 51.3284 64.2028C51.3051 64.1465 51.2701 64.1047 51.2235 64.0778C51.1794 64.0497 51.1212 64.0353 51.0493 64.0339C50.9796 64.0285 50.8979 64.0364 50.8049 64.0578L49.505 64.3649C49.3934 64.3918 49.2725 64.4116 49.1422 64.425C49.0142 64.4344 48.8916 64.4172 48.7752 64.3742C48.6612 64.3272 48.5663 64.24 48.4918 64.111C48.4197 63.978 48.3836 63.7833 48.3836 63.528C48.3836 63.1543 48.4659 62.7929 48.6289 62.446C48.7941 62.0955 49.0151 61.777 49.2919 61.4909C49.5713 61.2032 49.8814 60.9623 50.2214 60.7688ZM57.5411 57.987C57.8764 57.7935 58.1711 57.6864 58.4249 57.6662C58.6809 57.6448 58.8707 57.7423 58.9941 57.9587C59.0615 58.0729 59.1019 58.2069 59.1159 58.3601C59.1298 58.5106 59.137 58.6802 59.137 58.8684V61.5422L58.4004 61.9675V61.3786C58.259 61.6735 58.1011 61.9295 57.9251 62.1452C57.6994 62.4206 57.4165 62.6566 57.0768 62.8527C56.8045 63.01 56.5736 63.0838 56.385 63.0744C56.1964 63.0623 56.0532 62.9845 55.9554 62.842C55.86 62.6982 55.8125 62.5064 55.8125 62.2673C55.8125 62.0577 55.8425 61.8521 55.903 61.6506C55.9635 61.4464 56.0564 61.2474 56.1821 61.0539C56.3078 60.8576 56.4715 60.662 56.6717 60.4685C56.8229 60.3248 56.9997 60.1714 57.202 60.009C57.4069 59.845 57.6284 59.6754 57.8659 59.5007C58.0099 59.3934 58.1575 59.2823 58.3091 59.1687C58.294 58.9491 58.2403 58.8063 58.1416 58.7448C58.0228 58.671 57.8227 58.7151 57.5411 58.8776C57.3712 58.9757 57.2072 59.1168 57.0489 59.2995C56.8906 59.4824 56.7794 59.7036 56.7166 59.9631L55.9486 60.1281C56.0418 59.706 56.2182 59.308 56.4789 58.9343C56.742 58.5592 57.0964 58.2438 57.5411 57.987ZM69.0701 49.8864C69.4147 49.6902 69.7219 49.5818 69.9919 49.5603C70.262 49.5361 70.4886 49.597 70.6702 49.7448C70.8518 49.8927 70.9797 50.1246 71.0542 50.4392L70.1492 51.1433C70.112 50.9605 70.0398 50.8284 69.9327 50.7478C69.828 50.6631 69.699 50.6269 69.5454 50.6403C69.3941 50.6524 69.2321 50.7055 69.06 50.7995C68.8923 50.8936 68.7358 51.0137 68.5914 51.1589C68.4495 51.3 68.334 51.4525 68.2455 51.6164C68.1594 51.779 68.117 51.9356 68.117 52.0861C68.117 52.2286 68.1541 52.3239 68.2286 52.3723C68.3031 52.418 68.3949 52.4363 68.5043 52.427C68.6161 52.4135 68.7294 52.392 68.8434 52.361L69.7441 52.1311C69.8675 52.0975 70.0066 52.0683 70.1602 52.0441C70.3138 52.02 70.4615 52.0252 70.6034 52.0588C70.7453 52.0924 70.8619 52.1766 70.9527 52.3122C71.0458 52.4466 71.0922 52.6592 71.0922 52.9494C71.0922 53.2505 71.0376 53.5473 70.9282 53.8391C70.8211 54.1266 70.6756 54.3988 70.4918 54.6555C70.3078 54.9122 70.0967 55.1472 69.8592 55.3596C69.6241 55.5705 69.3774 55.751 69.1192 55.9001C68.7514 56.1124 68.4194 56.2302 68.1237 56.2531C67.8304 56.2746 67.5882 56.2028 67.3973 56.0388C67.2086 55.8707 67.0882 55.6119 67.037 55.2624L67.9106 54.6047C67.9851 54.9058 68.1376 55.0842 68.3681 55.1394C68.601 55.1931 68.8689 55.1325 69.1716 54.9577C69.3508 54.8542 69.5199 54.7244 69.6782 54.5686C69.8364 54.4127 69.9644 54.2447 70.0621 54.0647C70.1622 53.8832 70.2127 53.7018 70.2127 53.5217C70.2126 53.4412 70.2004 53.3742 70.1772 53.3205C70.1539 53.2642 70.1188 53.2224 70.0723 53.1955C70.0281 53.1674 69.97 53.1529 69.8981 53.1516C69.8283 53.1462 69.7467 53.154 69.6537 53.1755L68.3538 53.4826C68.2421 53.5095 68.1212 53.5292 67.991 53.5427C67.8629 53.5521 67.7403 53.5349 67.6239 53.4919C67.51 53.4449 67.4159 53.357 67.3414 53.2282C67.2693 53.0952 67.2332 52.9005 67.2332 52.6452C67.2332 52.2715 67.3146 51.9105 67.4776 51.5637C67.6428 51.2131 67.8638 50.8947 68.1406 50.6086C68.4201 50.3209 68.7301 50.08 69.0701 49.8864ZM54.1033 60.092L55.2103 59.4528V60.2155L54.1033 60.8547V62.6135C54.1033 62.7879 54.1043 62.9403 54.1066 63.0705C54.1113 63.1996 54.136 63.2935 54.1802 63.3513C54.264 63.4641 54.3981 63.4772 54.5819 63.3898C54.7658 63.3025 54.9753 63.1708 55.2103 62.9948V63.8093C54.9613 64.0068 54.7168 64.1706 54.4771 64.301C54.2396 64.4327 54.0263 64.5059 53.8377 64.5207C53.6492 64.5327 53.5058 64.4632 53.4081 64.3127C53.3221 64.1743 53.2766 64.0085 53.2719 63.8151C53.2672 63.6216 53.2651 63.4004 53.2651 63.153V61.3386L52.5801 61.7341V60.9714L53.2651 60.5759V59.3659L54.1033 58.882V60.092ZM63.9408 54.4123L65.0478 53.7731V54.5358L63.9408 55.175V56.9338C63.9408 57.1082 63.9418 57.2606 63.9441 57.3908C63.9488 57.5199 63.9735 57.6138 64.0177 57.6716C64.1015 57.7842 64.235 57.7978 64.4186 57.7106C64.6025 57.6233 64.8127 57.4912 65.0478 57.3151V58.1296C64.7988 58.3271 64.5543 58.4909 64.3146 58.6213C64.0771 58.753 63.8638 58.8262 63.6752 58.841C63.4866 58.8531 63.3434 58.7836 63.2456 58.633C63.1595 58.4946 63.1141 58.3289 63.1094 58.1355C63.1048 57.9419 63.1018 57.7212 63.1018 57.4738V55.6594L62.4176 56.0544V55.2917L63.1018 54.8967V53.6867L63.9408 53.2023V54.4123ZM62.1698 55.4348V56.343C62.0581 56.3699 61.929 56.4324 61.7825 56.5305C61.6383 56.6272 61.5081 56.749 61.3917 56.8967C61.2753 57.0365 61.1795 57.1846 61.105 57.3405C61.0329 57.495 60.9793 57.6549 60.9443 57.82C60.9095 57.9825 60.8919 58.1476 60.8919 58.3142V60.529L60.0462 61.0173V56.6608L60.7904 56.2312V56.9294C60.819 56.8538 60.8503 56.7785 60.8851 56.7048C60.9642 56.5384 61.0584 56.3848 61.1676 56.2439C61.2608 56.1175 61.3637 56.001 61.4755 55.8962C61.5894 55.7875 61.7061 55.6949 61.8247 55.6184C61.9432 55.5393 62.0583 55.4777 62.1698 55.4348ZM72.76 53.677L71.9185 54.1628V48.3552L72.76 47.8693V53.677ZM76.0736 45.9641C76.1501 45.9226 76.2209 45.8901 76.2859 45.8659C76.5767 45.749 76.817 45.7213 77.0056 45.7844C77.1965 45.8462 77.3376 45.9835 77.4284 46.1945C77.5215 46.4015 77.568 46.6653 77.568 46.9851C77.5679 47.3022 77.5215 47.6196 77.4284 47.9367C77.3353 48.2512 77.193 48.55 77.0022 48.8322C76.8136 49.1131 76.5745 49.3621 76.2859 49.5798C76.2208 49.6281 76.1484 49.6782 76.0693 49.7292C75.9929 49.7787 75.9314 49.8166 75.885 49.8435L74.6485 50.5573V52.5866L73.8062 53.073V47.2653L75.885 46.0651C75.9338 46.037 75.997 46.0029 76.0736 45.9641ZM57.9082 60.2712C57.7266 60.411 57.57 60.5347 57.4397 60.6423C57.3093 60.7471 57.1939 60.8472 57.0937 60.9426C56.996 61.0393 56.9135 61.1345 56.8459 61.2272C56.7784 61.32 56.7259 61.4122 56.6886 61.5036C56.6537 61.5937 56.6362 61.6859 56.6362 61.78C56.6362 61.8875 56.6599 61.9691 56.7064 62.0256C56.7529 62.0793 56.8203 62.1049 56.9085 62.1022C56.9993 62.0982 57.1116 62.0583 57.2443 61.9816C57.4351 61.8714 57.5981 61.7381 57.7331 61.5822C57.8681 61.4264 57.9753 61.2691 58.0545 61.1105C58.136 60.9506 58.1906 60.8121 58.2186 60.6965C58.2627 60.5475 58.2875 60.3923 58.2921 60.2312C58.2963 60.133 58.2964 60.0478 58.2981 59.9729C58.1536 60.0828 58.0236 60.1824 57.9082 60.2712ZM74.6485 49.6501L75.8495 48.9567C75.896 48.9299 75.9486 48.8971 76.0068 48.8581C76.0649 48.8192 76.1186 48.7774 76.1674 48.7331C76.3071 48.6122 76.4164 48.4776 76.4956 48.3298C76.5771 48.1806 76.6347 48.0318 76.6673 47.884C76.7022 47.7349 76.7197 47.5984 76.7197 47.4748C76.7197 47.3511 76.7022 47.2341 76.6673 47.1252C76.6347 47.0124 76.577 46.9288 76.4956 46.8737C76.4164 46.8174 76.3071 46.809 76.1674 46.8493C76.1186 46.8614 76.0649 46.8829 76.0068 46.9138C75.9486 46.942 75.896 46.9699 75.8495 46.9968L74.6485 47.6901V49.6501Z" fill="#F1FF45"/>
<path d="M85.0198 69.7754C91.2243 69.7754 96.5366 71.9794 98.7366 75.1045L99.8323 75.1104V78.4629H99.8167C99.682 83.1133 93.1095 86.8594 85.0198 86.8594C76.846 86.8592 70.22 83.0349 70.22 78.3174C70.22 78.2091 70.2248 78.1014 70.2317 77.9941V74.9746L71.3918 74.9795C73.6438 71.9204 78.8979 69.7755 85.0198 69.7754Z" fill="#222222"/>
<path d="M85.0198 69.7754V69.63H85.0198L85.0198 69.7754ZM98.7366 75.1045L98.6177 75.1882L98.6608 75.2495L98.7358 75.2499L98.7366 75.1045ZM99.8323 75.1104H99.9777V74.9657L99.8331 74.9649L99.8323 75.1104ZM99.8323 78.4629V78.6083H99.9777V78.4629H99.8323ZM99.8167 78.4629V78.3175H99.6754L99.6713 78.4587L99.8167 78.4629ZM85.0198 86.8594L85.0198 87.0048H85.0198V86.8594ZM70.22 78.3174H70.0745V78.3174L70.22 78.3174ZM70.2317 77.9941L70.3771 78.0035V77.9941H70.2317ZM70.2317 74.9746L70.2323 74.8292L70.0863 74.8286V74.9746H70.2317ZM71.3918 74.9795L71.3912 75.1249L71.4651 75.1252L71.509 75.0657L71.3918 74.9795ZM85.0198 69.7754V69.9208C88.1054 69.9208 90.9663 70.469 93.3263 71.4033C95.6881 72.3382 97.539 73.656 98.6177 75.1882L98.7366 75.1045L98.8555 75.0208C97.7342 73.428 95.8289 72.0812 93.4334 71.1328C91.0362 70.1838 88.1386 69.63 85.0198 69.63V69.7754ZM98.7366 75.1045L98.7358 75.2499L99.8315 75.2558L99.8323 75.1104L99.8331 74.9649L98.7374 74.9591L98.7366 75.1045ZM99.8323 75.1104H99.6869V78.4629H99.8323H99.9777V75.1104H99.8323ZM99.8323 78.4629V78.3175H99.8167V78.4629V78.6083H99.8323V78.4629ZM99.8167 78.4629L99.6713 78.4587C99.6061 80.7117 97.9791 82.7731 95.3295 84.2786C92.6838 85.7819 89.0439 86.714 85.0198 86.714V86.8594V87.0048C89.0853 87.0048 92.7765 86.0638 95.4732 84.5315C98.166 83.0014 99.8926 80.8646 99.962 78.4671L99.8167 78.4629ZM85.0198 86.8594L85.0198 86.714C80.9538 86.7139 77.2798 85.7623 74.6274 84.2314C71.9712 82.6983 70.3654 80.6022 70.3654 78.3174L70.22 78.3174L70.0745 78.3174C70.0746 80.7501 71.7818 82.9249 74.482 84.4833C77.1861 86.044 80.912 87.0047 85.0198 87.0048L85.0198 86.8594ZM70.22 78.3174H70.3654C70.3654 78.2133 70.37 78.1089 70.3768 78.0035L70.2317 77.9941L70.0866 77.9848C70.0795 78.0939 70.0745 78.2049 70.0745 78.3174H70.22ZM70.2317 77.9941H70.3771V74.9746H70.2317H70.0863V77.9941H70.2317ZM70.2317 74.9746L70.2311 75.12L71.3912 75.1249L71.3918 74.9795L71.3925 74.8341L70.2323 74.8292L70.2317 74.9746ZM71.3918 74.9795L71.509 75.0657C73.7222 72.0592 78.9211 69.9209 85.0198 69.9208L85.0198 69.7754L85.0198 69.63C78.8747 69.6301 73.5653 71.7817 71.2747 74.8933L71.3918 74.9795Z" fill="#7A7A7A"/>
<path d="M85.0198 66.7119C89.0957 66.7119 92.7827 67.6652 95.4475 69.2031C98.1143 70.7423 99.7444 72.8576 99.7444 75.1777C99.7444 77.4978 98.1143 79.6132 95.4475 81.1523C92.7827 82.6903 89.0957 83.6436 85.0198 83.6436C80.944 83.6435 77.2577 82.6902 74.593 81.1523C71.9262 79.6132 70.2961 77.4978 70.2961 75.1777C70.2961 72.8576 71.9262 70.7423 74.593 69.2031C77.2577 67.6653 80.944 66.712 85.0198 66.7119Z" fill="#222222" stroke="#7A7A7A" stroke-width="0.15212"/>
<path d="M85.6937 71.7305L84.4174 72.4668C84.6117 72.4892 84.8037 72.5209 84.9926 72.5674C85.2819 72.6369 85.559 72.7317 85.8256 72.8467L86.7592 72.3086L87.7181 72.8623L86.7885 73.3984C87.1387 73.6674 87.3631 73.9518 87.4603 74.2529C87.5939 74.6628 87.4318 75.079 86.975 75.501C86.8625 75.6024 86.757 75.6878 86.6586 75.7568C86.5567 75.8238 86.4246 75.9038 86.2631 75.9971L86.1908 76.0381L91.8304 75.8447L90.059 76.8672L84.4554 77.041L83.2689 76.3564L85.0297 75.3398C85.1035 75.2972 85.1789 75.249 85.2562 75.1963C85.3371 75.1415 85.4061 75.0861 85.4623 75.0293C85.6133 74.8772 85.6838 74.729 85.6732 74.585C85.6627 74.4368 85.5974 74.2996 85.4779 74.1738C85.4742 74.1697 85.4699 74.1662 85.4662 74.1621L82.5052 75.8721L81.5453 75.3184L84.5072 73.6074C84.5005 73.6054 84.4934 73.6036 84.4867 73.6016C84.2654 73.5306 84.0263 73.4924 83.7699 73.4863C83.5169 73.4782 83.2604 73.5191 83.0004 73.6084C82.902 73.6409 82.8066 73.6808 82.7152 73.7295C82.6241 73.774 82.5418 73.8178 82.4681 73.8604L80.7074 74.877L79.516 74.1895L84.7347 71.1758L85.6937 71.7305Z" fill="#2534D3"/>
<path d="M82.0198 66.1993C88.2243 66.1993 93.5366 68.4034 95.7366 71.5284L96.8323 71.5343V74.8868H96.8167C96.682 79.5373 90.1095 83.2833 82.0198 83.2833C73.846 83.2832 67.22 79.4588 67.22 74.7413C67.22 74.6331 67.2248 74.5254 67.2317 74.4181V71.3986L68.3918 71.4034C70.6438 68.3444 75.8979 66.1994 82.0198 66.1993Z" fill="#2534D3"/>
<path d="M82.0198 66.1993V66.0539H82.0198L82.0198 66.1993ZM95.7366 71.5284L95.6177 71.6122L95.6608 71.6735L95.7358 71.6739L95.7366 71.5284ZM96.8323 71.5343H96.9777V71.3897L96.8331 71.3889L96.8323 71.5343ZM96.8323 74.8868V75.0323H96.9777V74.8868H96.8323ZM96.8167 74.8868V74.7414H96.6754L96.6713 74.8826L96.8167 74.8868ZM82.0198 83.2833L82.0198 83.4287H82.0198V83.2833ZM67.22 74.7413H67.0745V74.7413L67.22 74.7413ZM67.2317 74.4181L67.3771 74.4275V74.4181H67.2317ZM67.2317 71.3986L67.2323 71.2531L67.0863 71.2525V71.3986H67.2317ZM68.3918 71.4034L68.3912 71.5489L68.4651 71.5492L68.509 71.4897L68.3918 71.4034ZM82.0198 66.1993V66.3448C85.1054 66.3448 87.9663 66.8929 90.3263 67.8272C92.6881 68.7622 94.539 70.0799 95.6177 71.6122L95.7366 71.5284L95.8555 71.4447C94.7342 69.8519 92.8289 68.5051 90.4334 67.5568C88.0362 66.6078 85.1386 66.0539 82.0198 66.0539V66.1993ZM95.7366 71.5284L95.7358 71.6739L96.8315 71.6797L96.8323 71.5343L96.8331 71.3889L95.7374 71.383L95.7366 71.5284ZM96.8323 71.5343H96.6869V74.8868H96.8323H96.9777V71.5343H96.8323ZM96.8323 74.8868V74.7414H96.8167V74.8868V75.0323H96.8323V74.8868ZM96.8167 74.8868L96.6713 74.8826C96.6061 77.1356 94.9791 79.197 92.3295 80.7026C89.6838 82.2059 86.0439 83.1379 82.0198 83.1379V83.2833V83.4287C86.0853 83.4287 89.7765 82.4877 92.4732 80.9554C95.166 79.4254 96.8926 77.2885 96.962 74.8911L96.8167 74.8868ZM82.0198 83.2833L82.0198 83.1379C77.9538 83.1378 74.2798 82.1863 71.6274 80.6554C68.9712 79.1223 67.3654 77.0261 67.3654 74.7413L67.22 74.7413L67.0745 74.7413C67.0746 77.1741 68.7818 79.3488 71.482 80.9073C74.1861 82.468 77.912 83.4287 82.0198 83.4287L82.0198 83.2833ZM67.22 74.7413H67.3654C67.3654 74.6373 67.37 74.5329 67.3768 74.4274L67.2317 74.4181L67.0866 74.4087C67.0795 74.5178 67.0745 74.6289 67.0745 74.7413H67.22ZM67.2317 74.4181H67.3771V71.3986H67.2317H67.0863V74.4181H67.2317ZM67.2317 71.3986L67.2311 71.544L68.3912 71.5489L68.3918 71.4034L68.3925 71.258L67.2323 71.2531L67.2317 71.3986ZM68.3918 71.4034L68.509 71.4897C70.7222 68.4831 75.9211 66.3449 82.0198 66.3448L82.0198 66.1993L82.0198 66.0539C75.8747 66.054 70.5653 68.2056 68.2747 71.3172L68.3918 71.4034Z" fill="#2534D3"/>
<path d="M82.0198 63.1359C86.0957 63.1359 89.7827 64.0891 92.4475 65.6271C95.1143 67.1662 96.7444 69.2816 96.7444 71.6017C96.7444 73.9218 95.1143 76.0371 92.4475 77.5763C89.7827 79.1142 86.0957 80.0675 82.0198 80.0675C77.944 80.0674 74.2577 79.1141 71.593 77.5763C68.9262 76.0371 67.2961 73.9218 67.2961 71.6017C67.2961 69.2816 68.9262 67.1662 71.593 65.6271C74.2577 64.0892 77.944 63.1359 82.0198 63.1359Z" fill="#222222" stroke="#2534D3" stroke-width="0.15212"/>
<path d="M82.6937 68.1544L81.4174 68.8907C81.6117 68.9132 81.8037 68.9448 81.9926 68.9913C82.2819 69.0608 82.559 69.1557 82.8256 69.2706L83.7592 68.7325L84.7181 69.2863L83.7885 69.8224C84.1387 70.0913 84.3631 70.3757 84.4603 70.6769C84.5939 71.0867 84.4318 71.5029 83.975 71.9249C83.8625 72.0264 83.757 72.1118 83.6586 72.1808C83.5567 72.2477 83.4246 72.3277 83.2631 72.421L83.1908 72.462L88.8304 72.2687L87.059 73.2911L81.4554 73.465L80.2689 72.7804L82.0297 71.7638C82.1035 71.7212 82.1789 71.673 82.2562 71.6202C82.3371 71.5655 82.4061 71.5101 82.4623 71.4532C82.6133 71.3011 82.6838 71.1529 82.6732 71.0089C82.6627 70.8608 82.5974 70.7236 82.4779 70.5978C82.4742 70.5937 82.4699 70.5901 82.4662 70.5861L79.5052 72.296L78.5453 71.7423L81.5072 70.0314C81.5005 70.0293 81.4934 70.0275 81.4867 70.0255C81.2654 69.9546 81.0263 69.9164 80.7699 69.9103C80.5169 69.9022 80.2604 69.9431 80.0004 70.0323C79.902 70.0648 79.8066 70.1048 79.7152 70.1534C79.6241 70.198 79.5418 70.2418 79.4681 70.2843L77.7074 71.3009L76.516 70.6134L81.7347 67.5997L82.6937 68.1544Z" fill="#2638FF"/>
<path d="M104.02 48.0941C110.224 48.0941 115.537 50.2982 117.737 53.4232L118.832 53.4291V56.7816H118.817C118.682 61.4321 112.109 65.1781 104.02 65.1781C95.846 65.178 89.22 61.3536 89.22 56.6361C89.22 56.5279 89.2248 56.4201 89.2317 56.3129V53.2933L90.3918 53.2982C92.6438 50.2392 97.8979 48.0942 104.02 48.0941Z" fill="#222222"/>
<path d="M104.02 48.0941V47.9487H104.02L104.02 48.0941ZM117.737 53.4232L117.618 53.5069L117.661 53.5682L117.736 53.5686L117.737 53.4232ZM118.832 53.4291H118.978V53.2844L118.833 53.2837L118.832 53.4291ZM118.832 56.7816V56.927H118.978V56.7816H118.832ZM118.817 56.7816V56.6362H118.675L118.671 56.7774L118.817 56.7816ZM104.02 65.1781L104.02 65.3235H104.02V65.1781ZM89.22 56.6361H89.0745V56.6361L89.22 56.6361ZM89.2317 56.3129L89.3771 56.3222V56.3129H89.2317ZM89.2317 53.2933L89.2323 53.1479L89.0863 53.1473V53.2933H89.2317ZM90.3918 53.2982L90.3912 53.4436L90.4651 53.4439L90.509 53.3844L90.3918 53.2982ZM104.02 48.0941V48.2395C107.105 48.2395 109.966 48.7877 112.326 49.722C114.688 50.657 116.539 51.9747 117.618 53.5069L117.737 53.4232L117.855 53.3395C116.734 51.7467 114.829 50.3999 112.433 49.4516C110.036 48.5026 107.139 47.9487 104.02 47.9487V48.0941ZM117.737 53.4232L117.736 53.5686L118.831 53.5745L118.832 53.4291L118.833 53.2837L117.737 53.2778L117.737 53.4232ZM118.832 53.4291H118.687V56.7816H118.832H118.978V53.4291H118.832ZM118.832 56.7816V56.6362H118.817V56.7816V56.927H118.832V56.7816ZM118.817 56.7816L118.671 56.7774C118.606 59.0304 116.979 61.0918 114.33 62.5973C111.684 64.1007 108.044 65.0327 104.02 65.0327V65.1781V65.3235C108.085 65.3235 111.777 64.3825 114.473 62.8502C117.166 61.3201 118.893 59.1833 118.962 56.7858L118.817 56.7816ZM104.02 65.1781L104.02 65.0327C99.9538 65.0326 96.2798 64.0811 93.6274 62.5502C90.9712 61.0171 89.3654 58.9209 89.3654 56.6361L89.22 56.6361L89.0745 56.6361C89.0746 59.0688 90.7818 61.2436 93.482 62.8021C96.1861 64.3628 99.912 65.3235 104.02 65.3235L104.02 65.1781ZM89.22 56.6361H89.3654C89.3654 56.5321 89.37 56.4277 89.3768 56.3222L89.2317 56.3129L89.0866 56.3035C89.0795 56.4126 89.0745 56.5237 89.0745 56.6361H89.22ZM89.2317 56.3129H89.3771V53.2933H89.2317H89.0863V56.3129H89.2317ZM89.2317 53.2933L89.2311 53.4388L90.3912 53.4436L90.3918 53.2982L90.3925 53.1528L89.2323 53.1479L89.2317 53.2933ZM90.3918 53.2982L90.509 53.3844C92.7222 50.3779 97.9211 48.2396 104.02 48.2395L104.02 48.0941L104.02 47.9487C97.8747 47.9488 92.5653 50.1004 90.2747 53.212L90.3918 53.2982Z" fill="#7A7A7A"/>
<path d="M104.02 45.0306C108.096 45.0306 111.783 45.9839 114.448 47.5219C117.114 49.061 118.744 51.1763 118.744 53.4965C118.744 55.8166 117.114 57.9319 114.448 59.4711C111.783 61.009 108.096 61.9623 104.02 61.9623C99.944 61.9622 96.2577 61.0089 93.593 59.4711C90.9262 57.9319 89.2961 55.8166 89.2961 53.4965C89.2961 51.1763 90.9262 49.061 93.593 47.5219C96.2577 45.984 99.944 45.0307 104.02 45.0306Z" fill="#222222" stroke="#7A7A7A" stroke-width="0.15212"/>
<path d="M104.694 50.0492L103.417 50.7855C103.612 50.8079 103.804 50.8396 103.993 50.8861C104.282 50.9556 104.559 51.0505 104.826 51.1654L105.759 50.6273L106.718 51.181L105.788 51.7172C106.139 51.9861 106.363 52.2705 106.46 52.5717C106.594 52.9815 106.432 53.3977 105.975 53.8197C105.863 53.9212 105.757 54.0066 105.659 54.0756C105.557 54.1425 105.425 54.2225 105.263 54.3158L105.191 54.3568L110.83 54.1635L109.059 55.1859L103.455 55.3597L102.269 54.6752L104.03 53.6586C104.103 53.616 104.179 53.5678 104.256 53.515C104.337 53.4602 104.406 53.4048 104.462 53.348C104.613 53.1959 104.684 53.0477 104.673 52.9037C104.663 52.7556 104.597 52.6184 104.478 52.4926C104.474 52.4885 104.47 52.4849 104.466 52.4808L101.505 54.1908L100.545 53.6371L103.507 51.9261C103.501 51.9241 103.493 51.9223 103.487 51.9203C103.265 51.8493 103.026 51.8111 102.77 51.8051C102.517 51.7969 102.26 51.8379 102 51.9271C101.902 51.9596 101.807 51.9995 101.715 52.0482C101.624 52.0928 101.542 52.1366 101.468 52.1791L99.7074 53.1957L98.516 52.5082L103.735 49.4945L104.694 50.0492Z" fill="#222222"/>
<path d="M104.02 42.8705C110.224 42.8705 115.537 45.0745 117.737 48.1996L118.832 48.2054V51.558H118.817C118.682 56.2084 112.109 59.9545 104.02 59.9545C95.846 59.9543 89.22 56.13 89.22 51.4125C89.22 51.3042 89.2248 51.1965 89.2317 51.0892V48.0697L90.3918 48.0746C92.6438 45.0155 97.8979 42.8706 104.02 42.8705Z" fill="#222222"/>
<path d="M104.02 42.8705V42.7251H104.02L104.02 42.8705ZM117.737 48.1996L117.618 48.2833L117.661 48.3446L117.736 48.345L117.737 48.1996ZM118.832 48.2054H118.978V48.0608L118.833 48.06L118.832 48.2054ZM118.832 51.558V51.7034H118.978V51.558H118.832ZM118.817 51.558V51.4126H118.675L118.671 51.5538L118.817 51.558ZM104.02 59.9545L104.02 60.0999H104.02V59.9545ZM89.22 51.4125H89.0745V51.4125L89.22 51.4125ZM89.2317 51.0892L89.3771 51.0986V51.0892H89.2317ZM89.2317 48.0697L89.2323 47.9243L89.0863 47.9237V48.0697H89.2317ZM90.3918 48.0746L90.3912 48.22L90.4651 48.2203L90.509 48.1608L90.3918 48.0746ZM104.02 42.8705V43.0159C107.105 43.0159 109.966 43.5641 112.326 44.4984C114.688 45.4333 116.539 46.7511 117.618 48.2833L117.737 48.1996L117.855 48.1159C116.734 46.523 114.829 45.1762 112.433 44.2279C110.036 43.2789 107.139 42.7251 104.02 42.7251V42.8705ZM117.737 48.1996L117.736 48.345L118.831 48.3509L118.832 48.2054L118.833 48.06L117.737 48.0542L117.737 48.1996ZM118.832 48.2054H118.687V51.558H118.832H118.978V48.2054H118.832ZM118.832 51.558V51.4126H118.817V51.558V51.7034H118.832V51.558ZM118.817 51.558L118.671 51.5538C118.606 53.8067 116.979 55.8682 114.33 57.3737C111.684 58.877 108.044 59.809 104.02 59.809V59.9545V60.0999C108.085 60.0999 111.777 59.1589 114.473 57.6266C117.166 56.0965 118.893 53.9597 118.962 51.5622L118.817 51.558ZM104.02 59.9545L104.02 59.809C99.9538 59.809 96.2798 58.8574 93.6274 57.3265C90.9712 55.7934 89.3654 53.6973 89.3654 51.4125L89.22 51.4125L89.0745 51.4125C89.0746 53.8452 90.7818 56.02 93.482 57.5784C96.1861 59.1391 99.912 60.0998 104.02 60.0999L104.02 59.9545ZM89.22 51.4125H89.3654C89.3654 51.3084 89.37 51.204 89.3768 51.0986L89.2317 51.0892L89.0866 51.0799C89.0795 51.189 89.0745 51.3 89.0745 51.4125H89.22ZM89.2317 51.0892H89.3771V48.0697H89.2317H89.0863V51.0892H89.2317ZM89.2317 48.0697L89.2311 48.2151L90.3912 48.22L90.3918 48.0746L90.3925 47.9292L89.2323 47.9243L89.2317 48.0697ZM90.3918 48.0746L90.509 48.1608C92.7222 45.1543 97.9211 43.016 104.02 43.0159L104.02 42.8705L104.02 42.7251C97.8747 42.7252 92.5653 44.8768 90.2747 47.9884L90.3918 48.0746Z" fill="#7A7A7A"/>
<path d="M104.02 39.807C108.096 39.807 111.783 40.7603 114.448 42.2982C117.114 43.8374 118.744 45.9527 118.744 48.2728C118.744 50.5929 117.114 52.7083 114.448 54.2474C111.783 55.7854 108.096 56.7386 104.02 56.7386C99.944 56.7386 96.2577 55.7853 93.593 54.2474C90.9262 52.7083 89.2961 50.5929 89.2961 48.2728C89.2961 45.9527 90.9262 43.8374 93.593 42.2982C96.2577 40.7604 99.944 39.8071 104.02 39.807Z" fill="#222222" stroke="#7A7A7A" stroke-width="0.15212"/>
<path d="M104.694 44.8256L103.417 45.5619C103.612 45.5843 103.804 45.616 103.993 45.6625C104.282 45.732 104.559 45.8268 104.826 45.9418L105.759 45.4037L106.718 45.9574L105.788 46.4935C106.139 46.7624 106.363 47.0469 106.46 47.348C106.594 47.7579 106.432 48.174 105.975 48.5961C105.863 48.6975 105.757 48.7829 105.659 48.8519C105.557 48.9189 105.425 48.9989 105.263 49.0922L105.191 49.1332L110.83 48.9398L109.059 49.9623L103.455 50.1361L102.269 49.4515L104.03 48.4349C104.103 48.3923 104.179 48.3441 104.256 48.2914C104.337 48.2366 104.406 48.1812 104.462 48.1244C104.613 47.9722 104.684 47.8241 104.673 47.6801C104.663 47.5319 104.597 47.3947 104.478 47.2689C104.474 47.2648 104.47 47.2613 104.466 47.2572L101.505 48.9672L100.545 48.4135L103.507 46.7025C103.501 46.7005 103.493 46.6987 103.487 46.6967C103.265 46.6257 103.026 46.5875 102.77 46.5814C102.517 46.5733 102.26 46.6142 102 46.7035C101.902 46.736 101.807 46.7759 101.715 46.8246C101.624 46.8691 101.542 46.9129 101.468 46.9554L99.7074 47.972L98.516 47.2845L103.735 44.2709L104.694 44.8256Z" fill="#222222"/>
<path d="M104.02 37.6466C110.224 37.6466 115.537 39.8507 117.737 42.9757L118.832 42.9816V46.3341H118.817C118.682 50.9846 112.109 54.7306 104.02 54.7306C95.846 54.7305 89.22 50.9061 89.22 46.1886C89.22 46.0804 89.2248 45.9726 89.2317 45.8654V42.8458L90.3918 42.8507C92.6438 39.7916 97.8979 37.6467 104.02 37.6466Z" fill="#222222"/>
<path d="M104.02 37.6466V37.5012H104.02L104.02 37.6466ZM117.737 42.9757L117.618 43.0594L117.661 43.1207L117.736 43.1211L117.737 42.9757ZM118.832 42.9816H118.978V42.8369L118.833 42.8361L118.832 42.9816ZM118.832 46.3341V46.4795H118.978V46.3341H118.832ZM118.817 46.3341V46.1887H118.675L118.671 46.3299L118.817 46.3341ZM104.02 54.7306L104.02 54.876H104.02V54.7306ZM89.22 46.1886H89.0745V46.1886L89.22 46.1886ZM89.2317 45.8654L89.3771 45.8747V45.8654H89.2317ZM89.2317 42.8458L89.2323 42.7004L89.0863 42.6998V42.8458H89.2317ZM90.3918 42.8507L90.3912 42.9961L90.4651 42.9964L90.509 42.9369L90.3918 42.8507ZM104.02 37.6466V37.792C107.105 37.792 109.966 38.3402 112.326 39.2745C114.688 40.2095 116.539 41.5272 117.618 43.0594L117.737 42.9757L117.855 42.892C116.734 41.2992 114.829 39.9524 112.433 39.0041C110.036 38.0551 107.139 37.5012 104.02 37.5012V37.6466ZM117.737 42.9757L117.736 43.1211L118.831 43.127L118.832 42.9816L118.833 42.8361L117.737 42.8303L117.737 42.9757ZM118.832 42.9816H118.687V46.3341H118.832H118.978V42.9816H118.832ZM118.832 46.3341V46.1887H118.817V46.3341V46.4795H118.832V46.3341ZM118.817 46.3341L118.671 46.3299C118.606 48.5829 116.979 50.6443 114.33 52.1498C111.684 53.6532 108.044 54.5852 104.02 54.5852V54.7306V54.876C108.085 54.876 111.777 53.935 114.473 52.4027C117.166 50.8726 118.893 48.7358 118.962 46.3383L118.817 46.3341ZM104.02 54.7306L104.02 54.5852C99.9538 54.5851 96.2798 53.6336 93.6274 52.1027C90.9712 50.5696 89.3654 48.4734 89.3654 46.1886L89.22 46.1886L89.0745 46.1886C89.0746 48.6213 90.7818 50.7961 93.482 52.3546C96.1861 53.9153 99.912 54.8759 104.02 54.876L104.02 54.7306ZM89.22 46.1886H89.3654C89.3654 46.0846 89.37 45.9802 89.3768 45.8747L89.2317 45.8654L89.0866 45.856C89.0795 45.9651 89.0745 46.0762 89.0745 46.1886H89.22ZM89.2317 45.8654H89.3771V42.8458H89.2317H89.0863V45.8654H89.2317ZM89.2317 42.8458L89.2311 42.9912L90.3912 42.9961L90.3918 42.8507L90.3925 42.7053L89.2323 42.7004L89.2317 42.8458ZM90.3918 42.8507L90.509 42.9369C92.7222 39.9304 97.9211 37.7921 104.02 37.792L104.02 37.6466L104.02 37.5012C97.8747 37.5013 92.5653 39.6529 90.2747 42.7645L90.3918 42.8507Z" fill="#7A7A7A"/>
<path d="M104.02 34.5831C108.096 34.5831 111.783 35.5364 114.448 37.0743C117.114 38.6135 118.744 40.7288 118.744 43.049C118.744 45.3691 117.114 47.4844 114.448 49.0236C111.783 50.5615 108.096 51.5148 104.02 51.5148C99.944 51.5147 96.2577 50.5614 93.593 49.0236C90.9262 47.4844 89.2961 45.3691 89.2961 43.049C89.2961 40.7288 90.9262 38.6135 93.593 37.0743C96.2577 35.5365 99.944 34.5832 104.02 34.5831Z" fill="#222222" stroke="#7A7A7A" stroke-width="0.15212"/>
<path d="M104.694 39.6017L103.417 40.338C103.612 40.3604 103.804 40.3921 103.993 40.4386C104.282 40.5081 104.559 40.6029 104.826 40.7179L105.759 40.1798L106.718 40.7335L105.788 41.2697C106.139 41.5386 106.363 41.823 106.46 42.1241C106.594 42.534 106.432 42.9502 105.975 43.3722C105.863 43.4736 105.757 43.5591 105.659 43.6281C105.557 43.695 105.425 43.775 105.263 43.8683L105.191 43.9093L110.83 43.7159L109.059 44.7384L103.455 44.9122L102.269 44.2277L104.03 43.2111C104.103 43.1685 104.179 43.1203 104.256 43.0675C104.337 43.0127 104.406 42.9573 104.462 42.9005C104.613 42.7484 104.684 42.6002 104.673 42.4562C104.663 42.3081 104.597 42.1708 104.478 42.045C104.474 42.041 104.47 42.0374 104.466 42.0333L101.505 43.7433L100.545 43.1896L103.507 41.4786C103.501 41.4766 103.493 41.4748 103.487 41.4728C103.265 41.4018 103.026 41.3636 102.77 41.3575C102.517 41.3494 102.26 41.3903 102 41.4796C101.902 41.5121 101.807 41.552 101.715 41.6007C101.624 41.6452 101.542 41.6891 101.468 41.7316L99.7074 42.7482L98.516 42.0607L103.735 39.047L104.694 39.6017Z" fill="#7A7A7A"/>
<path d="M104.02 32.423C110.224 32.423 115.537 34.627 117.737 37.7521L118.832 37.7579V41.1105H118.817C118.682 45.7609 112.109 49.507 104.02 49.507C95.846 49.5068 89.22 45.6825 89.22 40.965C89.22 40.8567 89.2248 40.749 89.2317 40.6417V37.6222L90.3918 37.6271C92.6438 34.568 97.8979 32.4231 104.02 32.423Z" fill="#222222"/>
<path d="M104.02 32.423V32.2776H104.02L104.02 32.423ZM117.737 37.7521L117.618 37.8358L117.661 37.8971L117.736 37.8975L117.737 37.7521ZM118.832 37.7579H118.978V37.6133L118.833 37.6125L118.832 37.7579ZM118.832 41.1105V41.2559H118.978V41.1105H118.832ZM118.817 41.1105V40.9651H118.675L118.671 41.1063L118.817 41.1105ZM104.02 49.507L104.02 49.6524H104.02V49.507ZM89.22 40.965H89.0745V40.965L89.22 40.965ZM89.2317 40.6417L89.3771 40.6511V40.6417H89.2317ZM89.2317 37.6222L89.2323 37.4768L89.0863 37.4762V37.6222H89.2317ZM90.3918 37.6271L90.3912 37.7725L90.4651 37.7728L90.509 37.7133L90.3918 37.6271ZM104.02 32.423V32.5684C107.105 32.5684 109.966 33.1166 112.326 34.0508C114.688 34.9858 116.539 36.3036 117.618 37.8358L117.737 37.7521L117.855 37.6684C116.734 36.0755 114.829 34.7287 112.433 33.7804C110.036 32.8314 107.139 32.2776 104.02 32.2776V32.423ZM117.737 37.7521L117.736 37.8975L118.831 37.9034L118.832 37.7579L118.833 37.6125L117.737 37.6067L117.737 37.7521ZM118.832 37.7579H118.687V41.1105H118.832H118.978V37.7579H118.832ZM118.832 41.1105V40.9651H118.817V41.1105V41.2559H118.832V41.1105ZM118.817 41.1105L118.671 41.1063C118.606 43.3592 116.979 45.4206 114.33 46.9262C111.684 48.4295 108.044 49.3615 104.02 49.3615V49.507V49.6524C108.085 49.6524 111.777 48.7114 114.473 47.1791C117.166 45.649 118.893 43.5122 118.962 41.1147L118.817 41.1105ZM104.02 49.507L104.02 49.3615C99.9538 49.3615 96.2798 48.4099 93.6274 46.879C90.9712 45.3459 89.3654 43.2497 89.3654 40.965L89.22 40.965L89.0745 40.965C89.0746 43.3977 90.7818 45.5725 93.482 47.1309C96.1861 48.6916 99.912 49.6523 104.02 49.6524L104.02 49.507ZM89.22 40.965H89.3654C89.3654 40.8609 89.37 40.7565 89.3768 40.6511L89.2317 40.6417L89.0866 40.6324C89.0795 40.7415 89.0745 40.8525 89.0745 40.965H89.22ZM89.2317 40.6417H89.3771V37.6222H89.2317H89.0863V40.6417H89.2317ZM89.2317 37.6222L89.2311 37.7676L90.3912 37.7725L90.3918 37.6271L90.3925 37.4817L89.2323 37.4768L89.2317 37.6222ZM90.3918 37.6271L90.509 37.7133C92.7222 34.7068 97.9211 32.5685 104.02 32.5684L104.02 32.423L104.02 32.2776C97.8747 32.2777 92.5653 34.4293 90.2747 37.5409L90.3918 37.6271Z" fill="#7A7A7A"/>
<path d="M104.02 29.3595C108.096 29.3595 111.783 30.3128 114.448 31.8507C117.114 33.3899 118.744 35.5052 118.744 37.8253C118.744 40.1454 117.114 42.2608 114.448 43.7999C111.783 45.3379 108.096 46.2911 104.02 46.2911C99.944 46.2911 96.2577 45.3378 93.593 43.7999C90.9262 42.2608 89.2961 40.1454 89.2961 37.8253C89.2961 35.5052 90.9262 33.3899 93.593 31.8507C96.2577 30.3129 99.944 29.3596 104.02 29.3595Z" fill="#222222" stroke="#7A7A7A" stroke-width="0.15212"/>
<path d="M104.694 34.3781L103.417 35.1144C103.612 35.1368 103.804 35.1685 103.993 35.215C104.282 35.2845 104.559 35.3793 104.826 35.4943L105.759 34.9562L106.718 35.5099L105.788 36.046C106.139 36.3149 106.363 36.5994 106.46 36.9005C106.594 37.3104 106.432 37.7265 105.975 38.1486C105.863 38.25 105.757 38.3354 105.659 38.4044C105.557 38.4714 105.425 38.5514 105.263 38.6447L105.191 38.6857L110.83 38.4923L109.059 39.5148L103.455 39.6886L102.269 39.004L104.03 37.9874C104.103 37.9448 104.179 37.8966 104.256 37.8439C104.337 37.7891 104.406 37.7337 104.462 37.6769C104.613 37.5247 104.684 37.3766 104.673 37.2325C104.663 37.0844 104.597 36.9472 104.478 36.8214C104.474 36.8173 104.47 36.8137 104.466 36.8097L101.505 38.5197L100.545 37.9659L103.507 36.255C103.501 36.2529 103.493 36.2512 103.487 36.2491C103.265 36.1782 103.026 36.14 102.77 36.1339C102.517 36.1258 102.26 36.1667 102 36.256C101.902 36.2884 101.807 36.3284 101.715 36.3771C101.624 36.4216 101.542 36.4654 101.468 36.5079L99.7074 37.5245L98.516 36.837L103.735 33.8234L104.694 34.3781Z" fill="#222222"/>
<path d="M101.02 27.1993C107.224 27.1993 112.537 29.4034 114.737 32.5284L115.832 32.5343V35.8868H115.817C115.682 40.5373 109.109 44.2833 101.02 44.2833C92.846 44.2832 86.22 40.4588 86.22 35.7413C86.22 35.6331 86.2248 35.5254 86.2317 35.4181V32.3986L87.3918 32.4034C89.6438 29.3444 94.8979 27.1994 101.02 27.1993Z" fill="#2534D3"/>
<path d="M101.02 27.1993V27.0539H101.02L101.02 27.1993ZM114.737 32.5284L114.618 32.6122L114.661 32.6735L114.736 32.6739L114.737 32.5284ZM115.832 32.5343H115.978V32.3897L115.833 32.3889L115.832 32.5343ZM115.832 35.8868V36.0323H115.978V35.8868H115.832ZM115.817 35.8868V35.7414H115.675L115.671 35.8826L115.817 35.8868ZM101.02 44.2833L101.02 44.4287H101.02V44.2833ZM86.22 35.7413H86.0745V35.7413L86.22 35.7413ZM86.2317 35.4181L86.3771 35.4275V35.4181H86.2317ZM86.2317 32.3986L86.2323 32.2531L86.0863 32.2525V32.3986H86.2317ZM87.3918 32.4034L87.3912 32.5489L87.4651 32.5492L87.509 32.4897L87.3918 32.4034ZM101.02 27.1993V27.3448C104.105 27.3448 106.966 27.8929 109.326 28.8272C111.688 29.7622 113.539 31.0799 114.618 32.6122L114.737 32.5284L114.855 32.4447C113.734 30.8519 111.829 29.5051 109.433 28.5568C107.036 27.6078 104.139 27.0539 101.02 27.0539V27.1993ZM114.737 32.5284L114.736 32.6739L115.831 32.6797L115.832 32.5343L115.833 32.3889L114.737 32.383L114.737 32.5284ZM115.832 32.5343H115.687V35.8868H115.832H115.978V32.5343H115.832ZM115.832 35.8868V35.7414H115.817V35.8868V36.0323H115.832V35.8868ZM115.817 35.8868L115.671 35.8826C115.606 38.1356 113.979 40.197 111.33 41.7026C108.684 43.2059 105.044 44.1379 101.02 44.1379V44.2833V44.4287C105.085 44.4287 108.777 43.4877 111.473 41.9554C114.166 40.4254 115.893 38.2885 115.962 35.8911L115.817 35.8868ZM101.02 44.2833L101.02 44.1379C96.9538 44.1378 93.2798 43.1863 90.6274 41.6554C87.9712 40.1223 86.3654 38.0261 86.3654 35.7413L86.22 35.7413L86.0745 35.7413C86.0746 38.1741 87.7818 40.3488 90.482 41.9073C93.1861 43.468 96.912 44.4287 101.02 44.4287L101.02 44.2833ZM86.22 35.7413H86.3654C86.3654 35.6373 86.37 35.5329 86.3768 35.4274L86.2317 35.4181L86.0866 35.4087C86.0795 35.5178 86.0745 35.6289 86.0745 35.7413H86.22ZM86.2317 35.4181H86.3771V32.3986H86.2317H86.0863V35.4181H86.2317ZM86.2317 32.3986L86.2311 32.544L87.3912 32.5489L87.3918 32.4034L87.3925 32.258L86.2323 32.2531L86.2317 32.3986ZM87.3918 32.4034L87.509 32.4897C89.7222 29.4831 94.9211 27.3449 101.02 27.3448L101.02 27.1993L101.02 27.0539C94.8747 27.054 89.5653 29.2056 87.2747 32.3172L87.3918 32.4034Z" fill="#2534D3"/>
<path d="M101.02 24.1359C105.096 24.1359 108.783 25.0891 111.448 26.6271C114.114 28.1662 115.744 30.2816 115.744 32.6017C115.744 34.9218 114.114 37.0371 111.448 38.5763C108.783 40.1142 105.096 41.0675 101.02 41.0675C96.944 41.0674 93.2577 40.1141 90.593 38.5763C87.9262 37.0371 86.2961 34.9218 86.2961 32.6017C86.2961 30.2816 87.9262 28.1662 90.593 26.6271C93.2577 25.0892 96.944 24.1359 101.02 24.1359Z" fill="#222222" stroke="#2534D3" stroke-width="0.15212"/>
<path d="M101.694 29.1544L100.417 29.8907C100.612 29.9132 100.804 29.9448 100.993 29.9913C101.282 30.0608 101.559 30.1557 101.826 30.2706L102.759 29.7325L103.718 30.2863L102.788 30.8224C103.139 31.0913 103.363 31.3757 103.46 31.6769C103.594 32.0867 103.432 32.5029 102.975 32.9249C102.863 33.0264 102.757 33.1118 102.659 33.1808C102.557 33.2477 102.425 33.3277 102.263 33.421L102.191 33.462L107.83 33.2687L106.059 34.2911L100.455 34.465L99.2689 33.7804L101.03 32.7638C101.103 32.7212 101.179 32.673 101.256 32.6202C101.337 32.5655 101.406 32.5101 101.462 32.4532C101.613 32.3011 101.684 32.1529 101.673 32.0089C101.663 31.8608 101.597 31.7236 101.478 31.5978C101.474 31.5937 101.47 31.5901 101.466 31.5861L98.5052 33.296L97.5453 32.7423L100.507 31.0314C100.501 31.0293 100.493 31.0275 100.487 31.0255C100.265 30.9546 100.026 30.9164 99.7699 30.9103C99.5169 30.9022 99.2604 30.9431 99.0004 31.0323C98.902 31.0648 98.8066 31.1048 98.7152 31.1534C98.6241 31.198 98.5418 31.2418 98.4681 31.2843L96.7074 32.3009L95.516 31.6134L100.735 28.5997L101.694 29.1544Z" fill="#2638FF"/>
<path d="M136.825 46.6632V72.9904L130.286 69.215V42.8878L136.825 46.6632Z" fill="#23264E" stroke="#E9E9E9" stroke-width="0.15212"/>
<path d="M143.493 43.1119V69.2057L136.925 72.9977V46.9039L143.493 43.1119Z" fill="#2534D3" stroke="#E9E9E9" stroke-width="0.12"/>
<path d="M130.22 42.9114L136.891 39.0597L143.563 42.9114L136.891 46.7632L130.22 42.9114Z" fill="#C8D33E" stroke="#E9E9E9" stroke-width="0.123441" stroke-linejoin="bevel"/>
<path d="M127.839 60.6796V77.6952L121.272 73.9032V56.8876L127.839 60.6796Z" fill="#23264E" stroke="#E9E9E9" stroke-width="0.12"/>
<path d="M134.493 56.9523V73.9523L127.925 77.7443V60.7443L134.493 56.9523Z" fill="#242B7A" stroke="#E9E9E9" stroke-width="0.12"/>
<path d="M121.22 56.9114L127.891 53.0597L134.563 56.9114L127.891 60.7632L121.22 56.9114Z" fill="#222222" stroke="#E9E9E9" stroke-width="0.123441" stroke-linejoin="bevel"/>
<path d="M118.825 73.6993V83.671L112.286 79.8956V69.924L118.825 73.6993Z" fill="#23264E" stroke="#E9E9E9" stroke-width="0.15212"/>
<path d="M125.493 69.9488V79.9527L118.925 83.7447V73.7408L125.493 69.9488Z" fill="#242B7A" stroke="#E9E9E9" stroke-width="0.12"/>
<path d="M112.22 69.9114L118.891 66.0597L125.563 69.9114L118.891 73.7632L112.22 69.9114Z" fill="#222222" stroke="#E9E9E9" stroke-width="0.123441" stroke-linejoin="bevel"/>
<defs>
<linearGradient id="paint0_linear_5086_8596" x1="64.4109" y1="114.909" x2="118.737" y2="20.8137" gradientUnits="userSpaceOnUse">
<stop stop-color="#222222"/>
<stop offset="0.317308" stop-color="#7A7A7A"/>
<stop offset="1" stop-color="#222222"/>
</linearGradient>
<linearGradient id="paint1_linear_5086_8596" x1="31.4732" y1="98.3709" x2="117.876" y2="49.473" gradientUnits="userSpaceOnUse">
<stop stop-color="#222222"/>
<stop offset="0.317308" stop-color="#7A7A7A"/>
<stop offset="1" stop-color="#222222"/>
</linearGradient>
<linearGradient id="paint2_linear_5086_8596" x1="133.387" y1="92.7934" x2="79.061" y2="-1.30152" gradientUnits="userSpaceOnUse">
<stop stop-color="#7A7A7A"/>
<stop offset="1" stop-color="#222222"/>
</linearGradient>
<linearGradient id="paint3_linear_5086_8596" x1="162.24" y1="79.4421" x2="107.915" y2="-14.6528" gradientUnits="userSpaceOnUse">
<stop stop-color="#7A7A7A"/>
<stop offset="1" stop-color="#222222"/>
</linearGradient>
</defs>
</svg>
