<svg width="110" height="100" viewBox="0 0 110 100" fill="none" xmlns="http://www.w3.org/2000/svg">
<path d="M108.684 54.2942L37.8245 95.2045" stroke="url(#paint0_linear_5048_35419)" stroke-width="0.155508" stroke-linecap="round" stroke-dasharray="0.31 0.62"/>
<path d="M72.1772 32.0928L1.31766 73.0031" stroke="url(#paint1_linear_5048_35419)" stroke-width="0.155508" stroke-linecap="round" stroke-dasharray="0.31 0.62"/>
<path d="M88.6304 42.7354L17.7708 83.6456" stroke="url(#paint2_linear_5048_35419)" stroke-width="0.155508" stroke-linecap="round" stroke-dasharray="0.31 0.62"/>
<path d="M0.241211 54.0798L71.1008 94.9901" stroke="url(#paint3_linear_5048_35419)" stroke-width="0.155508" stroke-linecap="round" stroke-dasharray="0.31 0.62"/>
<path d="M17.7705 43.1208L88.6301 84.0311" stroke="url(#paint4_linear_5048_35419)" stroke-width="0.155508" stroke-linecap="round" stroke-dasharray="0.31 0.62"/>
<path d="M38.8992 32.3091L109.759 73.2194" stroke="url(#paint5_linear_5048_35419)" stroke-width="0.155508" stroke-linecap="round" stroke-dasharray="0.31 0.62"/>
<path d="M22.2554 35.3274L22.2935 35.3625L22.3433 35.3518C24.1641 34.9846 26.8086 35.981 29.0415 38.094C29.3161 38.3538 29.5747 38.6206 29.8159 38.8928C30.2988 39.4377 30.7136 40.0036 31.0552 40.5706C31.9106 41.9905 32.3011 43.4139 32.1597 44.5579L32.1538 44.6086L32.1909 44.6428L32.5396 44.9709L31.5483 46.0188L31.5454 46.0227C31.5162 46.0567 31.4941 46.0842 31.4683 46.1116C30.6956 46.9281 29.4087 47.138 27.9272 46.7844C26.4487 46.4314 24.7971 45.5206 23.3286 44.1311C23.2378 44.0451 23.1482 43.9578 23.061 43.8704L22.8042 43.6057C21.5503 42.2731 20.7113 40.7985 20.3638 39.4622C20.0157 38.1236 20.1641 36.9409 20.8569 36.1653L20.9214 36.093L20.9155 36.0881L21.9263 35.0198L22.2554 35.3274Z" fill="#E9E9E9" stroke="#7A7A7A" stroke-width="0.2"/>
<path d="M30.1169 36.9582C28.6485 35.5687 26.9968 34.6577 25.5183 34.3047C24.0367 33.951 22.7492 34.1605 21.9764 34.9772C21.2038 35.7938 21.0661 37.0902 21.501 38.5499C21.935 40.0068 22.9356 41.6056 24.4041 42.9952C25.8725 44.3847 27.5236 45.2951 29.002 45.6481C30.4835 46.0018 31.7704 45.7928 32.5432 44.9763C33.316 44.1597 33.4542 42.8626 33.0193 41.4029C32.5853 39.9462 31.5852 38.3477 30.1169 36.9582Z" fill="white" stroke="#7A7A7A" stroke-width="0.2"/>
<path d="M28.7184 40.5475L28.7179 40.502C28.7179 40.3979 28.7163 40.3098 28.7121 40.2379C28.7059 40.1651 28.6938 40.0783 28.6751 39.9776C28.5939 39.5605 28.4279 39.2055 28.1783 38.9132C27.9957 38.6989 27.7838 38.5222 27.5432 38.3819L27.5423 37.7824L26.9742 37.5398L26.975 38.1393C26.8363 38.1016 26.7058 38.0833 26.5838 38.0859C26.5049 38.0866 26.4322 38.1001 26.3638 38.1203L26.3627 37.2983L25.7946 37.0557L25.7944 39.35L25.7959 39.35L25.7947 40.4154L26.5004 40.717L26.5005 39.5836C26.5005 39.5361 26.5019 39.4859 26.506 39.4334C26.5081 39.3777 26.5155 39.3272 26.528 39.2827C26.5592 39.1629 26.6148 39.0816 26.6937 39.0385C26.7727 38.9932 26.863 38.9765 26.9649 38.9885C26.9682 38.9888 26.9713 38.9901 26.9746 38.9904L26.9742 40.8966L27.5424 41.1392L27.5428 39.2331C27.5456 39.2352 27.5484 39.2374 27.5512 39.2396C27.651 39.314 27.7412 39.4073 27.8202 39.5203C27.8971 39.6301 27.9522 39.7588 27.9854 39.9063C27.9979 39.9613 28.0061 40.0183 28.0103 40.0766C28.0145 40.1326 28.0168 40.1849 28.0168 40.2324L28.0168 41.3658L28.7179 41.666L30.2877 40.437L30.2876 39.2962L28.7184 40.5475Z" fill="#7A7A7A"/>
<path d="M85.4829 9.06592L85.478 9.07178L85.5435 9.14404C85.7286 9.35129 85.8749 9.58695 85.9829 9.84619C86.091 10.1059 86.1613 10.3903 86.1948 10.6938C86.3544 12.1406 85.6754 14.0209 84.2983 15.77L84.0737 16.0454C83.9977 16.1363 83.9199 16.2273 83.8403 16.3169C83.7605 16.4069 83.6789 16.4965 83.5952 16.5854C83.4282 16.7629 83.2533 16.9381 83.0718 17.1099C81.6033 18.4994 79.9517 19.4102 78.4731 19.7632C76.9916 20.1169 75.7049 19.9068 74.9321 19.0903C74.9063 19.063 74.8841 19.0354 74.855 19.0015L74.8511 18.9976L73.8589 17.9497L74.2095 17.6216L74.2456 17.5874L74.2397 17.5366C74.2115 17.3083 74.2046 17.0686 74.2183 16.8198C74.2457 16.3221 74.357 15.7885 74.5464 15.2368C74.8779 14.2714 75.4495 13.2543 76.2349 12.2847C76.4522 12.0163 76.6866 11.7517 76.936 11.4927C77.0727 11.3508 77.2134 11.2104 77.3589 11.0728C78.0548 10.4142 78.7928 9.8634 79.5337 9.42822C79.6822 9.34098 79.8301 9.25772 79.978 9.18018C80.5707 8.86951 81.1609 8.63528 81.728 8.47998C82.0113 8.40242 82.2889 8.34438 82.5581 8.30713C82.8276 8.26985 83.0888 8.25245 83.3394 8.25635C83.402 8.25733 83.4641 8.25964 83.5249 8.26318C83.6478 8.27035 83.7677 8.28268 83.8843 8.30029C83.9417 8.30898 83.9989 8.31903 84.0562 8.33057L84.1069 8.34131L84.144 8.30615L84.4731 7.99854L85.4829 9.06592Z" fill="#E9E9E9" stroke="#7A7A7A" stroke-width="0.2"/>
<path d="M76.2832 9.93652C77.7517 8.54696 79.4033 7.63602 80.8819 7.28296C82.3634 6.92924 83.6509 7.13881 84.4237 7.95543C85.1963 8.77205 85.334 10.0685 84.8992 11.5282C84.4652 12.9851 83.4646 14.5838 81.9961 15.9735C80.5276 17.3629 78.8766 18.2734 77.3981 18.6264C75.9166 18.9801 74.6297 18.7711 73.8569 17.9546C73.0842 17.138 72.9459 15.8409 73.3808 14.3811C73.8148 12.9245 74.815 11.326 76.2832 9.93652Z" fill="white" stroke="#7A7A7A" stroke-width="0.2"/>
<path d="M81.3164 10.3486L81.1762 10.9506L80.3654 11.0926C80.3976 11.157 80.4244 11.227 80.439 11.3053C80.4625 11.4245 80.4652 11.555 80.4523 11.6974L81.0444 11.5942L80.9042 12.1962L80.3127 12.3C80.2164 12.5615 80.0806 12.8017 79.9012 13.0189C79.6567 13.3154 79.3349 13.5397 78.9383 13.6921C78.8426 13.7279 78.7592 13.7562 78.6887 13.775C78.6187 13.7915 78.5319 13.8085 78.4296 13.8265L78.3845 13.8343L79.889 15.1627L78.7659 15.3611L77.2829 14.0284L77.4574 13.2851L78.5737 13.0879C78.6203 13.0797 78.6715 13.0693 78.7258 13.0555C78.7822 13.0413 78.8365 13.023 78.8883 13.0013C79.0279 12.9429 79.1453 12.8654 79.2401 12.7706C79.3374 12.6733 79.4145 12.5695 79.4704 12.4585C79.4722 12.4552 79.4725 12.4502 79.4742 12.4468L77.5978 12.7785L77.7387 12.1772L79.6144 11.8463C79.6142 11.8431 79.6163 11.8398 79.6161 11.8366C79.6101 11.7342 79.5773 11.6476 79.5189 11.5777C79.4629 11.5078 79.3736 11.4677 79.2507 11.4577C79.2049 11.4531 79.153 11.4549 79.0979 11.4624C79.0458 11.4674 78.9961 11.4736 78.9496 11.4818L77.8326 11.6783L78.0073 10.9322L81.3164 10.3486Z" fill="#7A7A7A"/>
<path d="M74.1459 59.6348C75.9261 59.1463 77.667 58.9248 78.7598 58.868L79.6526 65.2108C79.6322 65.285 79.5787 65.3993 79.47 65.5461C79.3558 65.7003 79.1854 65.8868 78.9446 66.0945C78.4631 66.5097 77.7013 67.0098 76.5447 67.52C74.2598 68.5279 72.8135 67.9238 72.3813 67.5222L69.2673 62.0315C70.5091 60.8964 72.3414 60.13 74.1459 59.6348Z" fill="#E9E9E9" stroke="#7A7A7A" stroke-width="0.2" stroke-linejoin="bevel"/>
<path d="M37.4365 66.8376C38.3147 68.1002 39.0386 69.3792 39.4533 70.2019L36.4417 71.9406C36.1053 71.9527 34.3369 72.1447 33.0563 70.6453C32.3821 69.856 32.0762 69.2557 31.9453 68.807C31.8187 68.3732 31.8541 68.0748 31.8878 67.8716L34.4907 63.5655C35.5166 64.3182 36.5517 65.5655 37.4365 66.8376Z" fill="#E9E9E9" stroke="#7A7A7A" stroke-width="0.2" stroke-linejoin="bevel"/>
<mask id="path-15-inside-1_5048_35419" fill="white">
<path d="M63.3501 28.1799C74.1806 28.1799 82.9604 36.96 82.9604 47.7903C82.9604 57.1473 76.4067 64.9719 67.6392 66.928L55.3315 71.552C53.079 72.451 50.6216 72.9465 48.0483 72.9465C37.1906 72.9465 28.3883 64.1449 28.3882 53.2874C28.3882 44.5666 34.0672 37.1727 41.9282 34.5999L56.5903 29.3762C56.6435 29.3567 56.6971 29.3386 56.7505 29.3196L57.3081 29.1213L57.311 29.1282C59.2134 28.513 61.2429 28.18 63.3501 28.1799Z"/>
</mask>
<path d="M63.3501 28.1799C74.1806 28.1799 82.9604 36.96 82.9604 47.7903C82.9604 57.1473 76.4067 64.9719 67.6392 66.928L55.3315 71.552C53.079 72.451 50.6216 72.9465 48.0483 72.9465C37.1906 72.9465 28.3883 64.1449 28.3882 53.2874C28.3882 44.5666 34.0672 37.1727 41.9282 34.5999L56.5903 29.3762C56.6435 29.3567 56.6971 29.3386 56.7505 29.3196L57.3081 29.1213L57.311 29.1282C59.2134 28.513 61.2429 28.18 63.3501 28.1799Z" fill="white"/>
<path d="M63.3501 28.1799V27.9799H63.3501L63.3501 28.1799ZM82.9604 47.7903H83.1604H82.9604ZM67.6392 66.928L67.5956 66.7328L67.5819 66.7358L67.5688 66.7408L67.6392 66.928ZM55.3315 71.552L55.2612 71.3647L55.2574 71.3662L55.3315 71.552ZM48.0483 72.9465V73.1465V72.9465ZM28.3882 53.2874H28.1882V53.2874L28.3882 53.2874ZM41.9282 34.5999L41.9905 34.79L41.9953 34.7883L41.9282 34.5999ZM56.5903 29.3762L56.6575 29.5646L56.6593 29.564L56.5903 29.3762ZM56.7505 29.3196L56.6835 29.1311L56.6832 29.1312L56.7505 29.3196ZM57.3081 29.1213L57.4919 29.0426L57.418 28.87L57.2411 28.9329L57.3081 29.1213ZM57.311 29.1282L57.1272 29.207L57.199 29.3746L57.3726 29.3185L57.311 29.1282ZM63.3501 28.1799V28.3799C74.0701 28.3799 82.7604 37.0704 82.7604 47.7903H82.9604H83.1604C83.1604 36.8495 74.291 27.9799 63.3501 27.9799V28.1799ZM82.9604 47.7903H82.7604C82.7604 57.0516 76.2737 64.7966 67.5956 66.7328L67.6392 66.928L67.6827 67.1232C76.5397 65.1471 83.1604 57.243 83.1604 47.7903H82.9604ZM67.6392 66.928L67.5688 66.7408L55.2612 71.3648L55.3315 71.552L55.4019 71.7392L67.7095 67.1152L67.6392 66.928ZM55.3315 71.552L55.2574 71.3662C53.028 72.256 50.5958 72.7465 48.0483 72.7465V72.9465V73.1465C50.6475 73.1465 53.13 72.646 55.4057 71.7378L55.3315 71.552ZM48.0483 72.9465V72.7465C37.3011 72.7465 28.5883 64.0345 28.5882 53.2874L28.3882 53.2874L28.1882 53.2874C28.1883 64.2554 37.0802 73.1465 48.0483 73.1465V72.9465ZM28.3882 53.2874H28.5882C28.5882 44.6556 34.2091 37.3367 41.9904 34.7899L41.9282 34.5999L41.866 34.4098C33.9252 37.0087 28.1882 44.4775 28.1882 53.2874H28.3882ZM41.9282 34.5999L41.9953 34.7883L56.6575 29.5646L56.5903 29.3762L56.5232 29.1878L41.8611 34.4115L41.9282 34.5999ZM56.5903 29.3762L56.6593 29.564C56.7128 29.5443 56.7583 29.5292 56.8178 29.5079L56.7505 29.3196L56.6832 29.1312C56.6359 29.1481 56.5742 29.1691 56.5214 29.1885L56.5903 29.3762ZM56.7505 29.3196L56.8175 29.508L57.3751 29.3098L57.3081 29.1213L57.2411 28.9329L56.6835 29.1311L56.7505 29.3196ZM57.3081 29.1213L57.1243 29.2001L57.1272 29.207L57.311 29.1282L57.4949 29.0494L57.4919 29.0426L57.3081 29.1213ZM57.311 29.1282L57.3726 29.3185C59.2554 28.7096 61.2641 28.38 63.3501 28.3799L63.3501 28.1799L63.3501 27.9799C61.2217 27.98 59.1715 28.3163 57.2495 28.9379L57.311 29.1282Z" fill="#7A7A7A" mask="url(#path-15-inside-1_5048_35419)"/>
<path d="M52.0884 71.0457C53.62 70.8589 55.0886 70.8764 56.0063 70.9519V76.0339C55.9811 76.0868 55.926 76.168 55.8218 76.2683C55.7097 76.3762 55.5469 76.5027 55.3228 76.6394C54.8742 76.9129 54.1818 77.2237 53.1587 77.4978C51.1442 78.0376 50.0158 77.4039 49.7046 77.0447L47.7632 72.3835C48.9272 71.6336 50.5339 71.2352 52.0884 71.0457Z" fill="#E9E9E9" stroke="#7A7A7A" stroke-width="0.2" stroke-linejoin="bevel"/>
<path d="M52.5159 40.5239C52.9233 40.4513 53.5135 40.4045 54.1155 40.48C54.798 40.5656 55.4803 40.8029 55.9329 41.312C57.1164 42.6435 57.5021 43.4233 57.6448 43.8989C57.7624 44.2911 58.154 45.936 58.3362 46.7144V46.7153C58.3738 46.881 58.3835 47.1557 58.2864 47.4292C58.1904 47.6992 57.9906 47.9699 57.6028 48.1362C56.8448 48.4611 56.0352 48.7235 55.6467 48.8032C55.4052 46.8999 55.0979 45.4889 54.6067 44.2163C54.1219 42.9605 53.4599 41.8442 52.5159 40.5239Z" fill="white" stroke="#7A7A7A" stroke-width="0.2"/>
<path d="M35.4817 34.6555C36.2464 34.4506 36.9958 34.8276 37.5686 35.2795C37.8526 35.5036 38.0873 35.7419 38.2512 35.9241C38.3307 36.0124 38.3935 36.0873 38.4368 36.1409C37.3422 36.7963 35.7123 37.682 34.6184 38.8577L33.9192 35.8733L33.9182 35.8704L33.9026 35.7678C33.8974 35.6541 33.9315 35.5071 34.0745 35.3459C34.271 35.1246 34.6774 34.871 35.4817 34.6555Z" fill="white" stroke="#7A7A7A" stroke-width="0.2"/>
<path d="M31.4656 55.5781C31.7438 55.3079 32.58 54.8226 33.6472 55.1084C34.7458 55.4028 36.7274 56.2131 37.5896 56.5859C38.374 57.0281 40.1318 58.3606 40.9109 60.1523C41.7003 61.9679 42.8179 64.8881 43.282 66.1309H43.283C43.328 66.2912 43.385 66.5531 43.408 66.8115C43.4194 66.9406 43.4223 67.0667 43.4119 67.1777C43.4013 67.2899 43.3779 67.379 43.3425 67.4404C43.2499 67.6009 43.0146 67.8031 42.1023 68.0693C41.2039 68.3314 39.6745 68.6496 37.0408 69.0654L29.6902 57.2559L31.4646 55.5791L31.4656 55.5781Z" fill="#E9E9E9" stroke="#E9E9E9" stroke-width="0.2" stroke-linejoin="bevel"/>
<path d="M29.9597 56.9433C28.1373 57.9734 27.9458 60.6739 28.0779 61.8954C28.5533 65.3024 30.719 67.2766 31.7424 67.8378C32.1386 68.0854 34.6147 69.0758 35.6051 69.3234C36.3974 69.5215 37.5199 69.1748 37.9821 68.9768C40.0124 67.5407 40.26 64.9656 39.5172 62.143C38.923 59.8848 36.9917 58.3299 36.1003 57.8347L32.8814 56.6462C31.376 56.2429 30.3063 56.6762 29.9597 56.9433Z" fill="#E9E9E9" stroke="#7A7A7A" stroke-width="0.2"/>
<path d="M34.4239 62.7523C34.6412 62.4871 34.9876 62.359 35.3823 62.377C35.7771 62.3952 36.2141 62.5606 36.5956 62.8729C36.9769 63.1851 37.2249 63.5804 37.3206 63.9637C37.4163 64.347 37.3592 64.7119 37.1421 64.9773C36.9249 65.2427 36.5785 65.3707 36.1837 65.3526C35.789 65.3345 35.3521 65.1702 34.9706 64.8581C34.589 64.5457 34.3411 64.1495 34.2454 63.766C34.1497 63.3825 34.2067 63.0177 34.4239 62.7523Z" fill="#7A7A7A" stroke="#7A7A7A" stroke-width="0.2" stroke-linejoin="bevel"/>
<path d="M29.7257 60.9057C29.9429 60.6404 30.2893 60.5123 30.6841 60.5304C31.0788 60.5485 31.5158 60.714 31.8973 61.0262C32.2786 61.3385 32.5266 61.7337 32.6224 62.117C32.7181 62.5004 32.661 62.8653 32.4439 63.1306C32.2266 63.396 31.8803 63.524 31.4855 63.5059C31.0908 63.4878 30.6538 63.3236 30.2724 63.0114C29.8907 62.699 29.6429 62.3028 29.5471 61.9193C29.4514 61.5358 29.5084 61.171 29.7257 60.9057Z" fill="#7A7A7A" stroke="#7A7A7A" stroke-width="0.2" stroke-linejoin="bevel"/>
<path d="M62.6063 30.4803L65.5521 31.6128L53.0618 36.0774L50.1706 34.8869L62.6063 30.4803Z" fill="#E9E9E9" stroke="#7A7A7A" stroke-width="0.2"/>
<path d="M62.5921 30.6579L65.0023 31.5874L62.5705 32.4735L62.5921 30.6579Z" fill="#7A7A7A"/>
<path d="M35.0778 44.4418C35.9447 44.6544 36.3785 45.6285 35.9563 46.4151L35.6037 47.0708C35.0967 48.0156 34.8358 49.0732 34.8456 50.1454L34.8467 50.2771C34.8549 51.1689 34.0213 51.8293 33.1551 51.6174C32.5478 51.4687 32.1181 50.9268 32.1124 50.3017L32.1086 49.8781C32.0964 48.5413 32.4217 47.2228 33.0539 46.0448L33.5486 45.1229C33.8432 44.5739 34.4726 44.2936 35.0778 44.4418Z" fill="#7A7A7A" stroke="#7A7A7A" stroke-width="0.2" stroke-linejoin="bevel"/>
<path d="M42.2147 46.5819C43.0817 46.7945 43.5155 47.7686 43.0933 48.5553L42.7407 49.2109C42.2336 50.1557 41.9728 51.2133 41.9826 52.2855L41.9837 52.4172C41.9918 53.309 41.1582 53.9694 40.292 53.7575C39.6848 53.6088 39.2551 53.067 39.2494 52.4418L39.2456 52.0182C39.2333 50.6814 39.5586 49.3629 40.1908 48.185L40.6855 47.2631C40.9802 46.7141 41.6096 46.4337 42.2147 46.5819Z" fill="#7A7A7A" stroke="#7A7A7A" stroke-width="0.2" stroke-linejoin="bevel"/>
<path d="M54.313 17.8018C55.495 16.6635 56.8374 16.1321 58.0688 16.4268L58.1636 16.4492C58.2931 16.485 58.4198 16.5307 58.5435 16.584L58.5503 16.5869L59.8003 17.0215L59.7056 17.3799L59.6919 17.4307L59.7261 17.4707C60.4839 18.3484 60.9629 19.6801 61.0854 21.2432C61.1125 21.5888 61.1234 21.9457 61.1147 22.3105C61.1017 22.8601 61.047 23.4294 60.9487 24.0088C60.9161 24.2008 60.8779 24.3943 60.8354 24.5889L60.6919 25.1807C60.2705 26.7522 59.5864 28.1316 58.7622 29.2021C58.5563 29.4697 58.3409 29.7173 58.1196 29.9443C58.0089 30.0579 57.8966 30.1666 57.7827 30.2695C57.6122 30.4236 57.4382 30.5648 57.2622 30.6934C57.2035 30.7362 57.1448 30.7783 57.0854 30.8184C56.8486 30.9781 56.6084 31.1142 56.3667 31.2246C56.2462 31.2796 56.1248 31.3278 56.0034 31.3701L55.9536 31.3877L55.939 31.4395L55.8442 31.79L54.6626 31.5605L54.6509 31.5596L54.3833 31.5273C54.2945 31.5128 54.206 31.4941 54.1187 31.4707C53.9633 31.4291 53.8127 31.375 53.6685 31.3096C53.2348 31.1127 52.8492 30.8098 52.5171 30.4189C52.4063 30.2885 52.3012 30.1485 52.2026 29.999C52.1044 29.85 52.0119 29.6913 51.9263 29.5244C51.8405 29.3574 51.7611 29.1817 51.689 28.999C51.6168 28.8162 51.5511 28.6254 51.4927 28.4277C51.405 28.1312 51.3328 27.8192 51.2778 27.4941C51.2046 27.0605 51.1617 26.6031 51.1499 26.1289C51.1233 25.0619 51.2574 23.9077 51.5718 22.7344C52.1253 20.6693 53.1326 18.9385 54.313 17.8018Z" fill="#E9E9E9" stroke="#7A7A7A" stroke-width="0.2"/>
<path d="M62.4834 25.5994C63.033 23.548 63.0048 21.5546 62.5209 19.9922C62.0364 18.4285 61.1007 17.3106 59.8437 16.9738C58.5868 16.6372 57.2182 17.1376 56.0169 18.2495C54.8166 19.3606 53.7955 21.0728 53.2458 23.1242C52.6961 25.1756 52.7244 27.1689 53.2083 28.7313C53.6926 30.295 54.6274 31.4134 55.8843 31.7504C57.1413 32.0872 58.5108 31.5862 59.7122 30.474C60.9125 29.3629 61.9337 27.6508 62.4834 25.5994Z" fill="white" stroke="#7A7A7A" stroke-width="0.2"/>
<path d="M58.3677 25.7955L58.3949 25.7543C58.4564 25.6626 58.5063 25.5838 58.5449 25.5181C58.5821 25.4504 58.6216 25.3669 58.6635 25.2677C58.8334 24.8551 58.887 24.4511 58.8233 24.0567C58.777 23.7675 58.6803 23.4956 58.535 23.2401L58.8887 22.7101L58.4942 22.1855L58.1388 22.7164C58.0298 22.6077 57.9184 22.5198 57.8015 22.4556C57.7258 22.4129 57.6488 22.3841 57.5716 22.3645L58.057 21.6391L57.6626 21.1145L56.3759 23.0363C56.3726 23.0412 56.3681 23.045 56.365 23.0496L55.6743 24.0802L56.1641 24.7318L56.835 23.7312C56.8631 23.6893 56.8948 23.6463 56.9298 23.6022C56.9647 23.5543 57.0019 23.5142 57.04 23.4818C57.1405 23.393 57.2408 23.3517 57.341 23.3567C57.4427 23.3598 57.5384 23.3939 57.6279 23.46C57.6308 23.462 57.6336 23.4647 57.6364 23.4667L56.5077 25.1501L56.9022 25.6748L58.0309 23.9913C58.0323 23.9947 58.0342 23.998 58.0356 24.0014C58.0862 24.1216 58.1155 24.2539 58.1236 24.3969C58.1316 24.5359 58.1078 24.6803 58.0519 24.8289C58.0312 24.8842 58.0049 24.9383 57.9745 24.9919C57.9454 25.0434 57.9178 25.0906 57.8898 25.1324L57.2185 26.1344L57.7063 26.7825L59.921 26.5542L60.5964 25.5475L58.3677 25.7955Z" fill="#7A7A7A"/>
<mask id="path-31-inside-2_5048_35419" fill="white">
<path d="M81.5429 88.5837C83.7878 87.2876 85.0554 85.2468 85.3199 83.158C85.3217 83.158 85.3239 83.1575 85.3258 83.1575L85.7064 80.3L85.0323 80.2771C84.5374 78.8233 83.4995 77.4938 81.8727 76.5544C79.4265 75.1422 75.9358 74.408 72.458 74.3748C68.9799 74.3416 65.4838 75.0098 63.0333 76.4246C61.6814 77.2051 60.743 78.2523 60.1865 79.4148L59.8009 79.4011L59.6064 81.4744C59.5737 81.7901 59.5623 82.1078 59.5768 82.425C59.681 84.7035 60.9924 87.0012 63.446 88.4177C68.3214 91.2321 76.6509 91.4079 81.5429 88.5837Z"/>
</mask>
<path d="M81.5429 88.5837C83.7878 87.2876 85.0554 85.2468 85.3199 83.158C85.3217 83.158 85.3239 83.1575 85.3258 83.1575L85.7064 80.3L85.0323 80.2771C84.5374 78.8233 83.4995 77.4938 81.8727 76.5544C79.4265 75.1422 75.9358 74.408 72.458 74.3748C68.9799 74.3416 65.4838 75.0098 63.0333 76.4246C61.6814 77.2051 60.743 78.2523 60.1865 79.4148L59.8009 79.4011L59.6064 81.4744C59.5737 81.7901 59.5623 82.1078 59.5768 82.425C59.681 84.7035 60.9924 87.0012 63.446 88.4177C68.3214 91.2321 76.6509 91.4079 81.5429 88.5837Z" fill="white"/>
<path d="M81.5429 88.5837L81.7161 88.6837L81.7161 88.6837L81.5429 88.5837ZM85.3199 83.158L85.0756 83.1476L85.0923 83.0153L85.3223 83.0165L85.3199 83.158ZM85.3258 83.1575L85.57 83.1683L85.5525 83.3002L85.3234 83.2989L85.3258 83.1575ZM85.7064 80.3L85.7208 80.1589L85.9697 80.1673L85.9506 80.3109L85.7064 80.3ZM85.0323 80.2771L85.0179 80.4183L84.8286 80.4118L84.792 80.3044L85.0323 80.2771ZM81.8727 76.5544L82.0459 76.4544L82.0459 76.4544L81.8727 76.5544ZM72.458 74.3748L72.4621 74.2334L72.4621 74.2334L72.458 74.3748ZM63.0333 76.4246L62.86 76.3246L62.86 76.3246L63.0333 76.4246ZM60.1865 79.4148L60.4226 79.4525L60.3697 79.563L60.1715 79.556L60.1865 79.4148ZM59.8009 79.4011L59.5563 79.3935L59.5696 79.2512L59.8159 79.26L59.8009 79.4011ZM59.6064 81.4744L59.851 81.482L59.8509 81.4828L59.6064 81.4744ZM59.5768 82.425L59.3319 82.4288L59.3319 82.4288L59.5768 82.425ZM63.446 88.4177L63.2728 88.5177L63.2728 88.5177L63.446 88.4177ZM81.5429 88.5837L81.3696 88.4837C83.56 87.2191 84.8138 85.215 85.0756 83.1476L85.3199 83.158L85.5642 83.1683C85.297 85.2786 84.0156 87.3561 81.7161 88.6837L81.5429 88.5837ZM85.3199 83.158L85.3223 83.0165C85.3039 83.0164 85.2895 83.0176 85.2824 83.0183C85.2786 83.0186 85.2756 83.019 85.2739 83.0191C85.2724 83.0193 85.2712 83.0195 85.2717 83.0194C85.2718 83.0194 85.2723 83.0193 85.2728 83.0193C85.2734 83.0192 85.2743 83.0191 85.2754 83.019C85.2776 83.0187 85.2811 83.0183 85.2854 83.0179C85.2935 83.0172 85.3088 83.0159 85.3282 83.0161L85.3258 83.1575L85.3234 83.2989C85.3418 83.299 85.3562 83.2978 85.3632 83.2972C85.3671 83.2968 85.3701 83.2965 85.3718 83.2963C85.3732 83.2961 85.3745 83.296 85.374 83.296C85.3739 83.296 85.3734 83.2961 85.3729 83.2962C85.3723 83.2962 85.3713 83.2963 85.3702 83.2965C85.3681 83.2967 85.3646 83.2971 85.3602 83.2975C85.3521 83.2983 85.3368 83.2995 85.3175 83.2994L85.3199 83.158ZM85.3258 83.1575L85.0816 83.1466L85.4621 80.2892L85.7064 80.3L85.9506 80.3109L85.57 83.1683L85.3258 83.1575ZM85.7064 80.3L85.692 80.4412L85.0179 80.4183L85.0323 80.2771L85.0467 80.1359L85.7208 80.1589L85.7064 80.3ZM85.0323 80.2771L84.792 80.3044C84.3035 78.8693 83.2824 77.5685 81.6995 76.6544L81.8727 76.5544L82.0459 76.4544C83.7167 77.4192 84.7714 78.7772 85.2727 80.2498L85.0323 80.2771ZM81.8727 76.5544L81.6995 76.6544C79.305 75.2721 75.8784 74.5489 72.454 74.5162L72.458 74.3748L72.4621 74.2334C75.9931 74.2671 79.548 75.0123 82.0459 76.4544L81.8727 76.5544ZM72.458 74.3748L72.454 74.5162C69.0292 74.4835 65.6016 75.1417 63.2065 76.5246L63.0333 76.4246L62.86 76.3246C65.3659 74.8778 68.9305 74.1997 72.4621 74.2334L72.458 74.3748ZM63.0333 76.4246L63.2065 76.5246C61.8916 77.2838 60.9708 78.3072 60.4226 79.4525L60.1865 79.4148L59.9504 79.3771C60.5152 78.1973 61.4712 77.1265 62.86 76.3246L63.0333 76.4246ZM60.1865 79.4148L60.1715 79.556L59.7859 79.5423L59.8009 79.4011L59.8159 79.26L60.2015 79.2736L60.1865 79.4148ZM59.8009 79.4011L60.0455 79.4088L59.851 81.482L59.6064 81.4744L59.3618 81.4667L59.5563 79.3935L59.8009 79.4011ZM59.6064 81.4744L59.8509 81.4828C59.8186 81.7949 59.8073 82.1085 59.8216 82.4213L59.5768 82.425L59.3319 82.4288C59.3172 82.1071 59.3288 81.7854 59.3618 81.4659L59.6064 81.4744ZM59.5768 82.425L59.8216 82.4213C59.9248 84.6766 61.2237 86.9347 63.6192 88.3177L63.446 88.4177L63.2728 88.5177C60.7611 87.0676 59.4372 84.7304 59.3319 82.4288L59.5768 82.425ZM63.446 88.4177L63.6192 88.3177C68.4064 91.0812 76.5806 91.2484 81.3697 88.4837L81.5429 88.5837L81.7161 88.6837C76.7213 91.5673 68.2365 91.3831 63.2728 88.5177L63.446 88.4177Z" fill="#7A7A7A" mask="url(#path-31-inside-2_5048_35419)"/>
<circle cx="10.5913" cy="10.5913" r="10.4355" transform="matrix(0.866025 -0.5 -0.866025 -0.5 72.7461 90.5398)" fill="#7A7A7A" stroke="#7A7A7A" stroke-width="0.311668" stroke-linejoin="bevel"/>
<path d="M75.5727 82.4417L77.0645 81.5803C77.1123 81.5527 77.1115 81.5078 77.0637 81.4802L74.7092 80.1208C74.5658 80.0381 74.5661 79.9039 74.7092 79.821L76.9943 78.5017C77.0422 78.4741 77.0422 78.4287 76.9943 78.4011L75.642 77.6204C75.5942 77.593 75.5163 77.5933 75.4686 77.6208L73.1835 78.9402C73.04 79.0228 72.8076 79.0229 72.6642 78.9402L70.3097 77.5808C70.2619 77.5532 70.1842 77.5528 70.1363 77.5803L68.6445 78.4417C68.5969 78.4693 68.5976 78.5142 68.6453 78.5417L70.9998 79.9011C71.1431 79.9839 71.143 80.1181 70.9998 80.2009L68.7147 81.5203C68.6669 81.5478 68.6663 81.5927 68.7138 81.6204L70.0661 82.4011C70.114 82.4287 70.1925 82.4287 70.2403 82.4011L72.5255 81.0818C72.669 80.9991 72.9014 80.999 73.0448 81.0818L75.3993 82.4412C75.447 82.4687 75.5248 82.4691 75.5727 82.4417Z" fill="white" stroke="#7A7A7A" stroke-width="0.2"/>
<defs>
<linearGradient id="paint0_linear_5048_35419" x1="38.2575" y1="95.4545" x2="73.6866" y2="34.0887" gradientUnits="userSpaceOnUse">
<stop stop-color="white"/>
<stop offset="0.317308" stop-color="#7A7A7A"/>
<stop offset="1" stop-color="white"/>
</linearGradient>
<linearGradient id="paint1_linear_5048_35419" x1="1.75067" y1="73.2531" x2="37.1798" y2="11.8872" gradientUnits="userSpaceOnUse">
<stop stop-color="white"/>
<stop offset="0.317308" stop-color="#7A7A7A"/>
<stop offset="1" stop-color="white"/>
</linearGradient>
<linearGradient id="paint2_linear_5048_35419" x1="18.2038" y1="83.8956" x2="53.6329" y2="22.5298" gradientUnits="userSpaceOnUse">
<stop stop-color="white"/>
<stop offset="0.317308" stop-color="#7A7A7A"/>
<stop offset="1" stop-color="white"/>
</linearGradient>
<linearGradient id="paint3_linear_5048_35419" x1="71.5338" y1="94.7401" x2="36.1047" y2="33.3743" gradientUnits="userSpaceOnUse">
<stop stop-color="white"/>
<stop offset="0.317308" stop-color="#7A7A7A"/>
<stop offset="1" stop-color="white"/>
</linearGradient>
<linearGradient id="paint4_linear_5048_35419" x1="89.0631" y1="83.7811" x2="53.634" y2="22.4153" gradientUnits="userSpaceOnUse">
<stop stop-color="white"/>
<stop offset="0.317308" stop-color="#7A7A7A"/>
<stop offset="1" stop-color="white"/>
</linearGradient>
<linearGradient id="paint5_linear_5048_35419" x1="110.192" y1="72.9694" x2="74.7626" y2="11.6036" gradientUnits="userSpaceOnUse">
<stop stop-color="white"/>
<stop offset="0.317308" stop-color="#7A7A7A"/>
<stop offset="1" stop-color="white"/>
</linearGradient>
</defs>
</svg>
