<svg width="100" height="100" viewBox="0 0 100 100" fill="none" xmlns="http://www.w3.org/2000/svg">
<path d="M96.7874 57.3586L34.6737 93.22" stroke="url(#paint0_linear_5048_35421)" stroke-width="0.155508" stroke-linecap="round" stroke-dasharray="0.31 0.62"/>
<path d="M64.7864 37.8972L2.67274 73.7585" stroke="url(#paint1_linear_5048_35421)" stroke-width="0.155508" stroke-linecap="round" stroke-dasharray="0.31 0.62"/>
<path d="M79.2087 47.2263L17.0951 83.0876" stroke="url(#paint2_linear_5048_35421)" stroke-width="0.155508" stroke-linecap="round" stroke-dasharray="0.31 0.62"/>
<path d="M1.72925 57.1707L63.8429 93.032" stroke="url(#paint3_linear_5048_35421)" stroke-width="0.155508" stroke-linecap="round" stroke-dasharray="0.31 0.62"/>
<path d="M17.095 47.5645L79.2086 83.4258" stroke="url(#paint4_linear_5048_35421)" stroke-width="0.155508" stroke-linecap="round" stroke-dasharray="0.31 0.62"/>
<path d="M35.6157 38.0867L97.7294 73.948" stroke="url(#paint5_linear_5048_35421)" stroke-width="0.155508" stroke-linecap="round" stroke-dasharray="0.31 0.62"/>
<rect x="42.1143" y="42.8734" width="4.68833" height="2.68833" fill="#7A7A7A" stroke="#7A7A7A" stroke-width="0.311668" stroke-linejoin="bevel"/>
<path d="M46.0962 46.9707C46.1506 46.9695 46.1964 47.012 46.1987 47.0664L46.854 62.0771C46.8555 62.1125 46.8378 62.1467 46.8081 62.166L40.2944 66.4004C40.2351 66.4387 40.1557 66.4052 40.1421 66.3359L36.4741 47.3086C36.4626 47.2479 36.509 47.1909 36.5708 47.1895L46.0962 46.9707Z" fill="white" stroke="#7A7A7A" stroke-width="0.2"/>
<path d="M36.0313 34.2478L41.8357 30.5615C41.9515 30.4881 42.0603 30.502 42.1131 30.5967L51.5408 47.478C51.6383 47.653 51.5067 48.0046 51.2928 48.1404L45.4893 51.8262C45.3735 51.8997 45.2649 51.8864 45.2119 51.7919L35.7834 34.9112C35.6857 34.7362 35.8174 34.3836 36.0313 34.2478Z" fill="#E9E9E9" stroke="#7A7A7A" stroke-width="0.2"/>
<path d="M68.717 69.0947L74.8099 65.7327L66.3924 72.6349C66.3691 72.6539 66.345 72.6706 66.3212 72.6838L60.2283 76.0459L68.6458 69.1437C68.6691 69.1246 68.6932 69.1079 68.717 69.0947Z" fill="#E9E9E9" stroke="#7A7A7A" stroke-width="0.2"/>
<mask id="path-11-inside-1_5048_35421" fill="white">
<path d="M45.2808 51.7347C45.3801 51.9144 45.3058 52.066 45.1567 51.9881L39.795 49.1874C39.6971 49.1362 39.6215 49.1842 39.6262 49.2946L40.3491 66.4065C40.3536 66.5166 40.2786 66.5651 40.1809 66.5143L33.7678 63.1643C33.67 63.1131 33.5866 62.9819 33.5819 62.8716L32.8591 45.7597C32.8544 45.6493 32.7713 45.5184 32.6734 45.4672L27.2502 42.6344C27.1012 42.5565 27.0104 42.3186 27.0986 42.2369L35.5249 34.4287C35.5916 34.3668 35.7255 34.4367 35.8006 34.5727L45.2808 51.7347Z"/>
</mask>
<path d="M45.2808 51.7347C45.3801 51.9144 45.3058 52.066 45.1567 51.9881L39.795 49.1874C39.6971 49.1362 39.6215 49.1842 39.6262 49.2946L40.3491 66.4065C40.3536 66.5166 40.2786 66.5651 40.1809 66.5143L33.7678 63.1643C33.67 63.1131 33.5866 62.9819 33.5819 62.8716L32.8591 45.7597C32.8544 45.6493 32.7713 45.5184 32.6734 45.4672L27.2502 42.6344C27.1012 42.5565 27.0104 42.3186 27.0986 42.2369L35.5249 34.4287C35.5916 34.3668 35.7255 34.4367 35.8006 34.5727L45.2808 51.7347Z" fill="white"/>
<path d="M40.3491 66.4065L40.5263 66.4992L40.5263 66.4991L40.3491 66.4065ZM40.1809 66.5143L40.1894 66.7141L40.1897 66.7143L40.1809 66.5143ZM33.7678 63.1643L33.7594 62.9644L33.7678 63.1643ZM33.5819 62.8716L33.4047 62.779L33.4047 62.7791L33.5819 62.8716ZM35.5249 34.4287L35.668 34.6263L35.5249 34.4287ZM35.8006 34.5727L35.668 34.6263L35.8006 34.5727ZM27.0986 42.2369L26.9554 42.0393L27.0986 42.2369ZM39.795 49.1874L39.8035 49.3872L39.795 49.1874ZM45.1567 51.9881L45.1483 51.7883L45.1567 51.9881ZM45.2808 51.7347L45.1483 51.7883L45.2808 51.7347ZM45.1567 51.9881L45.1483 51.7883L39.7866 48.9875L39.795 49.1874L39.8035 49.3872L45.1652 52.188L45.1567 51.9881ZM39.6262 49.2946L39.4489 49.202L40.1718 66.3139L40.3491 66.4065L40.5263 66.4991L39.8035 49.3872L39.6262 49.2946ZM40.3491 66.4065L40.1718 66.3138L40.1721 66.3143L40.1809 66.5143L40.1897 66.7143C40.3859 66.8164 40.5355 66.7186 40.5263 66.4992L40.3491 66.4065ZM40.1809 66.5143L40.1725 66.3144L33.7594 62.9644L33.7678 63.1643L33.7763 63.3641L40.1894 66.7141L40.1809 66.5143ZM33.7678 63.1643L33.7594 62.9644L33.7592 62.964L33.5819 62.8716L33.4047 62.7791C33.4141 62.9996 33.5804 63.2618 33.7763 63.3641L33.7678 63.1643ZM33.5819 62.8716L33.7592 62.9642L33.0363 45.8523L32.8591 45.7597L32.6818 45.6671L33.4047 62.779L33.5819 62.8716ZM32.6734 45.4672L32.6649 45.2674L27.2418 42.4346L27.2502 42.6344L27.2587 42.8342L32.6818 45.6671L32.6734 45.4672ZM27.0986 42.2369L27.2418 42.4346L35.668 34.6263L35.5249 34.4287L35.3817 34.231L26.9554 42.0393L27.0986 42.2369ZM35.8006 34.5727L35.668 34.6263L45.1483 51.7883L45.2808 51.7347L45.4134 51.6811L35.9331 34.5191L35.8006 34.5727ZM35.5249 34.4287L35.668 34.6263L35.668 34.6263L35.8006 34.5727L35.9331 34.5191C35.7829 34.2471 35.5152 34.1073 35.3817 34.231L35.5249 34.4287ZM27.2502 42.6344L27.2418 42.4346L27.2418 42.4346L27.0986 42.2369L26.9554 42.0393C26.7791 42.2027 26.9605 42.6785 27.2587 42.8342L27.2502 42.6344ZM32.8591 45.7597L33.0363 45.8523C33.027 45.6316 32.8607 45.3697 32.6649 45.2674L32.6734 45.4672L32.6818 45.6671L32.6818 45.6671L32.8591 45.7597ZM39.795 49.1874L39.7866 48.9875C39.5908 48.8853 39.4396 48.9813 39.4489 49.202L39.6262 49.2946L39.8035 49.3872L39.8035 49.3872L39.795 49.1874ZM45.1567 51.9881L45.1652 52.188C45.4633 52.3437 45.6118 52.0404 45.4134 51.6811L45.2808 51.7347L45.1483 51.7883L45.1483 51.7883L45.1567 51.9881Z" fill="#7A7A7A" mask="url(#path-11-inside-1_5048_35421)"/>
<path d="M63.3902 65.3359L69.4498 61.9922C69.6186 61.8991 69.8901 61.9043 70.0552 62.0039L75.0836 65.0384C75.2487 65.1381 75.2456 65.2948 75.0768 65.388L69.0172 68.7317C68.8484 68.8248 68.5769 68.8196 68.4118 68.7199L63.3834 65.6854C63.2184 65.5858 63.2214 65.4291 63.3902 65.3359Z" fill="#E9E9E9" stroke="#7A7A7A" stroke-width="0.2"/>
<mask id="path-14-inside-2_5048_35421" fill="white">
<rect width="7.81934" height="6.71793" rx="0.2" transform="matrix(0.875549 -0.48313 0.856177 0.516683 50.8669 58.4131)"/>
</mask>
<rect width="7.81934" height="6.71793" rx="0.2" transform="matrix(0.875549 -0.48313 0.856177 0.516683 50.8669 58.4131)" fill="white" stroke="#7A7A7A" stroke-width="0.623336" mask="url(#path-14-inside-2_5048_35421)"/>
<rect x="0.173173" y="0.0033553" width="7.61934" height="7.36019" rx="0.1" transform="matrix(0.875549 -0.48313 0.856177 0.516683 56.8087 44.3375)" fill="white" stroke="#7A7A7A" stroke-width="0.2"/>
<mask id="path-16-inside-3_5048_35421" fill="white">
<path d="M59.6825 76.4628C59.6121 76.5205 59.4824 76.4423 59.4158 76.3019L51.01 58.5884C50.9222 58.4031 51.0054 58.2567 51.1492 58.3435L56.3283 61.4689C56.4228 61.5259 56.5012 61.4827 56.5034 61.3723L56.8352 44.2483C56.8375 44.1384 56.9153 44.0954 57.0096 44.1521L63.2043 47.8904C63.2988 47.9474 63.3738 48.0827 63.3719 48.1931L63.0401 65.317C63.038 65.4274 63.1129 65.5632 63.2075 65.6203L68.4459 68.7816C68.5897 68.8685 68.6653 69.1107 68.5725 69.1869L59.6825 76.4628Z"/>
</mask>
<path d="M59.6825 76.4628C59.6121 76.5205 59.4824 76.4423 59.4158 76.3019L51.01 58.5884C50.9222 58.4031 51.0054 58.2567 51.1492 58.3435L56.3283 61.4689C56.4228 61.5259 56.5012 61.4827 56.5034 61.3723L56.8352 44.2483C56.8375 44.1384 56.9153 44.0954 57.0096 44.1521L63.2043 47.8904C63.2988 47.9474 63.3738 48.0827 63.3719 48.1931L63.0401 65.317C63.038 65.4274 63.1129 65.5632 63.2075 65.6203L68.4459 68.7816C68.5897 68.8685 68.6653 69.1107 68.5725 69.1869L59.6825 76.4628Z" fill="white"/>
<path d="M59.6825 76.4628L59.8133 76.6689L59.8133 76.6689L59.6825 76.4628ZM59.4158 76.3019L59.2802 76.3472L59.2802 76.3472L59.4158 76.3019ZM51.01 58.5884L50.8743 58.6335L50.8744 58.6337L51.01 58.5884ZM51.1492 58.3435L51.1531 58.1435L51.153 58.1434L51.1492 58.3435ZM56.8352 44.2483L56.6639 44.1445L56.6639 44.145L56.8352 44.2483ZM57.0096 44.1521L57.0135 43.9521L57.0131 43.9519L57.0096 44.1521ZM63.2043 47.8904L63.2005 48.0904L63.2043 47.8904ZM63.3719 48.1931L63.5431 48.2964L63.5431 48.296L63.3719 48.1931ZM68.4459 68.7816L68.4499 68.5817L68.4497 68.5816L68.4459 68.7816ZM68.5725 69.1869L68.7032 69.393L68.7034 69.3929L68.5725 69.1869ZM56.3283 61.4689L56.3322 61.2689L56.3283 61.4689ZM56.5034 61.3723L56.6746 61.4756L56.5034 61.3723ZM59.6825 76.4628L59.5518 76.2568L59.5514 76.2565L59.4158 76.3019L59.2802 76.3472C59.4134 76.628 59.6723 76.7842 59.8133 76.6689L59.6825 76.4628ZM59.4158 76.3019L59.5514 76.2566L51.1456 58.543L51.01 58.5884L50.8744 58.6337L59.2802 76.3472L59.4158 76.3019ZM51.01 58.5884L51.1457 58.5433L51.1454 58.5435L51.1492 58.3435L51.153 58.1434C50.865 57.9698 50.6989 58.2633 50.8743 58.6335L51.01 58.5884ZM51.1492 58.3435L51.1454 58.5434L56.3244 61.6688L56.3283 61.4689L56.3322 61.2689L51.1531 58.1435L51.1492 58.3435ZM56.5034 61.3723L56.6746 61.4756L57.0064 44.3517L56.8352 44.2483L56.6639 44.145L56.3322 61.2689L56.5034 61.3723ZM56.8352 44.2483L57.0064 44.3521L57.0061 44.3523L57.0096 44.1521L57.0131 43.9519C56.8245 43.8386 56.6686 43.9246 56.6639 44.1445L56.8352 44.2483ZM57.0096 44.1521L57.0057 44.352L63.2005 48.0904L63.2043 47.8904L63.2082 47.6905L57.0135 43.9521L57.0096 44.1521ZM63.2043 47.8904L63.2005 48.0904L63.2006 48.0902L63.3719 48.1931L63.5431 48.296C63.547 48.0746 63.3965 47.8041 63.2082 47.6905L63.2043 47.8904ZM63.3719 48.1931L63.2006 48.0897L62.8689 65.2137L63.0401 65.317L63.2113 65.4203L63.5431 48.2964L63.3719 48.1931ZM63.2075 65.6203L63.2036 65.8203L68.442 68.9815L68.4459 68.7816L68.4497 68.5816L63.2113 65.4203L63.2075 65.6203ZM68.4459 68.7816L68.4419 68.9814L68.4416 68.981L68.5725 69.1869L68.7034 69.3929C68.8888 69.2404 68.7377 68.7556 68.4499 68.5817L68.4459 68.7816ZM68.5725 69.1869L68.4418 68.9808L59.5518 76.2568L59.6825 76.4628L59.8133 76.6689L68.7032 69.393L68.5725 69.1869ZM63.0401 65.317L62.8689 65.2137C62.8646 65.4345 63.0144 65.7061 63.2036 65.8203L63.2075 65.6203L63.2113 65.4203L63.2113 65.4203L63.0401 65.317ZM56.3283 61.4689L56.3244 61.6688C56.5135 61.783 56.6703 61.6965 56.6746 61.4756L56.5034 61.3723L56.3322 61.2689L56.3322 61.2689L56.3283 61.4689Z" fill="#7A7A7A" mask="url(#path-16-inside-3_5048_35421)"/>
<rect x="0.0856177" y="0.0516683" width="7.66104" height="17.3479" rx="0.1" transform="matrix(0.875549 -0.48313 -0.0193718 0.999812 63.2302 48.1622)" fill="white" stroke="#7A7A7A" stroke-width="0.2"/>
<path d="M29.4802 76.6819C28.446 77.6778 27.2736 78.1407 26.2 77.884L26.1414 77.8704L26.1345 77.8674L26.1287 77.8674L26.116 77.8645C26.0623 77.8496 26.0093 77.8324 25.9568 77.8137L25.7859 77.7463L25.7791 77.7434L24.6941 77.3665L24.7742 77.0627L24.7878 77.012L24.7527 76.9719C24.0907 76.2051 23.6715 75.0406 23.5642 73.6721C23.5405 73.3695 23.5313 73.057 23.5388 72.7375C23.5502 72.2565 23.5983 71.7585 23.6843 71.2512L23.7839 70.7415L23.9089 70.2249C24.2779 68.8488 24.878 67.6414 25.5994 66.7043C25.7795 66.4703 25.9674 66.2535 26.1609 66.0549C26.2577 65.9555 26.3562 65.8608 26.4558 65.7708C26.605 65.636 26.7569 65.5121 26.9109 65.3997C26.9622 65.3621 27.0142 65.3253 27.0662 65.2903C27.2731 65.1507 27.483 65.0312 27.6941 64.9348C27.7993 64.8868 27.9054 64.8448 28.0115 64.8079L28.0613 64.7903L28.075 64.7395L28.155 64.4426L29.1804 64.6418L29.1921 64.6428L29.4255 64.6711C29.5029 64.6839 29.5799 64.6996 29.656 64.72C29.7916 64.7563 29.9228 64.8035 30.0486 64.8606C30.4269 65.0324 30.7643 65.2965 31.0544 65.6379C31.1512 65.7518 31.2427 65.8745 31.3289 66.0051C31.4147 66.1354 31.4952 66.2742 31.5701 66.4202C31.645 66.5662 31.715 66.7194 31.7781 66.8792C31.8412 67.039 31.8978 67.2061 31.949 67.3792C32.0257 67.6387 32.0884 67.912 32.1365 68.1965C32.2006 68.576 32.2394 68.9758 32.2498 69.3909C32.2731 70.3249 32.1549 71.3352 31.8796 72.3625C31.3949 74.1711 30.5132 75.6872 29.4802 76.6819Z" fill="#E9E9E9" stroke="#7A7A7A" stroke-width="0.2"/>
<path d="M22.3391 69.8576C21.8577 71.654 21.8823 73.3992 22.3057 74.7662C22.7296 76.1347 23.5478 77.1099 24.6442 77.4037C25.7405 77.6973 26.9359 77.2617 27.9872 76.2886C29.0374 75.3164 29.9313 73.8173 30.4126 72.0209C30.8939 70.2246 30.8691 68.4801 30.4457 67.1132C30.0219 65.7448 29.2046 64.7689 28.1084 64.475C27.0121 64.1812 25.8156 64.6176 24.7643 65.5909C23.7142 66.563 22.8204 68.0614 22.3391 69.8576Z" fill="white" stroke="#7A7A7A" stroke-width="0.2"/>
<path d="M26.7367 71.8919L26.7605 71.8557C26.8144 71.7753 26.8582 71.7063 26.892 71.6487C26.9246 71.5894 26.9592 71.5161 26.9959 71.4292C27.1449 71.0675 27.1919 70.7134 27.1361 70.3676C27.0954 70.1141 27.0107 69.8758 26.8833 69.6518L27.1934 69.1873L26.8476 68.7274L26.536 69.1928C26.4405 69.0975 26.3429 69.0205 26.2404 68.9641C26.174 68.9267 26.1065 68.9015 26.0389 68.8843L26.4644 68.2485L26.1186 67.7886L24.9907 69.4732C24.9878 69.4775 24.9838 69.4808 24.9811 69.4848L24.3757 70.3882L24.8051 70.9594L25.3932 70.0823C25.4178 70.0456 25.4456 70.0079 25.4763 69.9693C25.5069 69.9272 25.5394 69.8921 25.5728 69.8637C25.661 69.7859 25.7488 69.7496 25.8367 69.754C25.9259 69.7568 26.0098 69.7867 26.0882 69.8446C26.0907 69.8464 26.0932 69.8487 26.0957 69.8505L25.1063 71.3261L25.452 71.786L26.4414 70.3104C26.4427 70.3133 26.4443 70.3162 26.4455 70.3192C26.4899 70.4246 26.5157 70.5405 26.5227 70.6659C26.5297 70.7877 26.5089 70.9143 26.4599 71.0446C26.4417 71.0931 26.4187 71.1405 26.392 71.1875C26.3665 71.2326 26.3423 71.274 26.3178 71.3106L25.7294 72.1889L26.157 72.757L28.0982 72.5569L28.6903 71.6744L26.7367 71.8919Z" fill="#7A7A7A"/>
<path d="M55.2393 22.5603L55.2764 22.5955L55.3271 22.5857C56.9176 22.2649 59.2316 23.1352 61.1875 24.9861C61.428 25.2137 61.654 25.4479 61.8652 25.6863C62.2881 26.1634 62.6522 26.6578 62.9512 27.1541C63.7 28.3972 64.0404 29.6423 63.917 30.6414L63.9111 30.6921L63.9482 30.7273L64.2451 31.0056L63.3848 31.9158L63.3809 31.9187C63.355 31.9489 63.3368 31.9731 63.3145 31.9968C62.6414 32.7081 61.5183 32.8923 60.2217 32.5828C58.9281 32.2739 57.4822 31.4764 56.1963 30.2595L55.9629 30.032L55.7373 29.7996C54.6395 28.6327 53.9046 27.3425 53.6006 26.1736C53.296 25.0024 53.427 23.9703 54.0303 23.2947L54.0957 23.2224L54.0908 23.2175L54.959 22.2996L55.2393 22.5603Z" fill="#E9E9E9" stroke="#7A7A7A" stroke-width="0.2"/>
<path d="M62.1299 23.9899C60.844 22.7731 59.3983 21.9768 58.1048 21.6679C56.8082 21.3584 55.6854 21.5421 55.0123 22.2534C54.3393 22.9647 54.2177 24.0959 54.5983 25.3734C54.978 26.6479 55.8536 28.0468 57.1393 29.2636C58.4253 30.4805 59.8708 31.2781 61.1644 31.5869C62.461 31.8965 63.5838 31.7127 64.2569 31.0015C64.93 30.2902 65.0515 29.159 64.6709 27.8815C64.2912 26.6068 63.4159 25.2068 62.1299 23.9899Z" fill="white" stroke="#7A7A7A" stroke-width="0.2"/>
<path d="M60.9127 27.1281L60.9122 27.0882C60.9122 26.9969 60.9108 26.9197 60.9072 26.8566C60.9017 26.7928 60.8911 26.7167 60.8747 26.6284C60.8036 26.2629 60.658 25.9516 60.4392 25.6954C60.2792 25.5076 60.0934 25.3527 59.8825 25.2297L59.8818 24.7042L59.3837 24.4915L59.3845 25.017C59.2629 24.984 59.1485 24.968 59.0416 24.9702C58.9724 24.9709 58.9087 24.9827 58.8487 25.0004L58.8478 24.2798L58.3497 24.0671L58.3496 26.0783L58.3509 26.0783L58.3499 27.0123L58.9684 27.2766L58.9685 26.2831C58.9685 26.2415 58.9697 26.1975 58.9734 26.1514C58.9752 26.1026 58.9817 26.0583 58.9926 26.0194C59.02 25.9143 59.0687 25.843 59.1379 25.8053C59.2072 25.7656 59.2863 25.751 59.3756 25.7614C59.3785 25.7617 59.3813 25.7628 59.3841 25.7631L59.3838 27.434L59.8818 27.6467L59.8822 25.9758C59.8846 25.9777 59.8871 25.9796 59.8895 25.9815C59.977 26.0467 60.0561 26.1286 60.1254 26.2276C60.1927 26.3238 60.241 26.4366 60.2702 26.5659C60.2811 26.6142 60.2883 26.6641 60.292 26.7152C60.2956 26.7644 60.2977 26.8102 60.2977 26.8518L60.2976 27.8453L60.9122 28.1085L62.2883 27.0312L62.2882 26.0312L60.9127 27.1281Z" fill="#7A7A7A"/>
<mask id="path-25-inside-4_5048_35421" fill="white">
<path d="M56.1019 92.3108C58.3469 91.0147 59.6145 88.9739 59.879 86.885C59.8808 86.885 59.883 86.8845 59.8849 86.8845L60.2655 84.0271L59.5914 84.0041C59.0965 82.5503 58.0586 81.2209 56.4318 80.2815C53.9856 78.8692 50.4948 78.135 47.0171 78.1018C43.539 78.0687 40.0429 78.7368 37.5923 80.1516C36.2404 80.9322 35.3021 81.9793 34.7456 83.1418L34.36 83.1282L34.1654 85.2014C34.1328 85.5172 34.1213 85.8348 34.1358 86.1521C34.2401 88.4305 35.5515 90.7282 38.005 92.1448C42.8805 94.9592 51.21 95.1349 56.1019 92.3108Z"/>
</mask>
<path d="M56.1019 92.3108C58.3469 91.0147 59.6145 88.9739 59.879 86.885C59.8808 86.885 59.883 86.8845 59.8849 86.8845L60.2655 84.0271L59.5914 84.0041C59.0965 82.5503 58.0586 81.2209 56.4318 80.2815C53.9856 78.8692 50.4948 78.135 47.0171 78.1018C43.539 78.0687 40.0429 78.7368 37.5923 80.1516C36.2404 80.9322 35.3021 81.9793 34.7456 83.1418L34.36 83.1282L34.1654 85.2014C34.1328 85.5172 34.1213 85.8348 34.1358 86.1521C34.2401 88.4305 35.5515 90.7282 38.005 92.1448C42.8805 94.9592 51.21 95.1349 56.1019 92.3108Z" fill="white"/>
<path d="M56.1019 92.3108L56.2751 92.4108L56.2751 92.4108L56.1019 92.3108ZM59.879 86.885L59.6347 86.8747L59.6514 86.7423L59.8813 86.7436L59.879 86.885ZM59.8849 86.8845L60.1291 86.8954L60.1115 87.0272L59.8825 87.0259L59.8849 86.8845ZM60.2655 84.0271L60.2799 83.8859L60.5288 83.8944L60.5097 84.0379L60.2655 84.0271ZM59.5914 84.0041L59.577 84.1453L59.3876 84.1389L59.3511 84.0314L59.5914 84.0041ZM56.4318 80.2815L56.605 80.1815L56.605 80.1815L56.4318 80.2815ZM47.0171 78.1018L47.0212 77.9604L47.0212 77.9604L47.0171 78.1018ZM37.5923 80.1516L37.4191 80.0516L37.4191 80.0516L37.5923 80.1516ZM34.7456 83.1418L34.9817 83.1795L34.9288 83.29L34.7306 83.283L34.7456 83.1418ZM34.36 83.1282L34.1154 83.1205L34.1287 82.9783L34.375 82.987L34.36 83.1282ZM34.1654 85.2014L34.41 85.2091L34.41 85.2098L34.1654 85.2014ZM34.1358 86.1521L33.891 86.1558L33.891 86.1558L34.1358 86.1521ZM38.005 92.1448L37.8319 92.2448L37.8318 92.2448L38.005 92.1448ZM56.1019 92.3108L55.9287 92.2108C58.1191 90.9462 59.3729 88.9421 59.6347 86.8747L59.879 86.885L60.1233 86.8953C59.8561 89.0057 58.5747 91.0831 56.2751 92.4108L56.1019 92.3108ZM59.879 86.885L59.8813 86.7436C59.863 86.7435 59.8486 86.7447 59.8415 86.7453C59.8377 86.7457 59.8346 86.746 59.833 86.7462C59.8315 86.7464 59.8303 86.7465 59.8308 86.7465C59.8308 86.7465 59.8313 86.7464 59.8319 86.7463C59.8325 86.7463 59.8334 86.7461 59.8345 86.746C59.8367 86.7458 59.8402 86.7454 59.8445 86.745C59.8526 86.7442 59.8679 86.743 59.8872 86.7431L59.8849 86.8845L59.8825 87.0259C59.9009 87.026 59.9152 87.0249 59.9223 87.0242C59.9262 87.0239 59.9292 87.0235 59.9308 87.0233C59.9323 87.0232 59.9336 87.023 59.9331 87.0231C59.933 87.0231 59.9325 87.0231 59.9319 87.0232C59.9313 87.0233 59.9304 87.0234 59.9293 87.0235C59.9272 87.0238 59.9236 87.0242 59.9193 87.0246C59.9112 87.0253 59.8959 87.0265 59.8766 87.0264L59.879 86.885ZM59.8849 86.8845L59.6406 86.8737L60.0212 84.0163L60.2655 84.0271L60.5097 84.0379L60.1291 86.8954L59.8849 86.8845ZM60.2655 84.0271L60.251 84.1683L59.577 84.1453L59.5914 84.0041L59.6058 83.863L60.2799 83.8859L60.2655 84.0271ZM59.5914 84.0041L59.3511 84.0314C58.8625 82.5964 57.8415 81.2955 56.2586 80.3815L56.4318 80.2815L56.605 80.1815C58.2758 81.1462 59.3305 82.5043 59.8318 83.9769L59.5914 84.0041ZM56.4318 80.2815L56.2586 80.3815C53.8641 78.9991 50.4375 78.2759 47.0131 78.2432L47.0171 78.1018L47.0212 77.9604C50.5522 77.9942 54.1071 78.7394 56.605 80.1815L56.4318 80.2815ZM47.0171 78.1018L47.0131 78.2432C43.5883 78.2106 40.1607 78.8688 37.7655 80.2516L37.5923 80.1516L37.4191 80.0516C39.925 78.6049 43.4896 77.9268 47.0212 77.9604L47.0171 78.1018ZM37.5923 80.1516L37.7655 80.2516C36.4506 81.0108 35.5299 82.0343 34.9817 83.1795L34.7456 83.1418L34.5095 83.1042C35.0742 81.9243 36.0303 80.8535 37.4191 80.0516L37.5923 80.1516ZM34.7456 83.1418L34.7306 83.283L34.3449 83.2693L34.36 83.1282L34.375 82.987L34.7606 83.0007L34.7456 83.1418ZM34.36 83.1282L34.6046 83.1358L34.41 85.2091L34.1654 85.2014L33.9209 85.1938L34.1154 83.1205L34.36 83.1282ZM34.1654 85.2014L34.41 85.2098C34.3777 85.522 34.3664 85.8355 34.3807 86.1484L34.1358 86.1521L33.891 86.1558C33.8763 85.8341 33.8879 85.5124 33.9209 85.193L34.1654 85.2014ZM34.1358 86.1521L34.3807 86.1484C34.4839 88.4036 35.7828 90.6617 38.1783 92.0448L38.005 92.1448L37.8318 92.2448C35.3202 90.7947 33.9963 88.4575 33.891 86.1558L34.1358 86.1521ZM38.005 92.1448L38.1782 92.0448C42.9655 94.8082 51.1397 94.9755 55.9287 92.2108L56.1019 92.3108L56.2751 92.4108C51.2803 95.2943 42.7956 95.1101 37.8319 92.2448L38.005 92.1448Z" fill="#7A7A7A" mask="url(#path-25-inside-4_5048_35421)"/>
<circle cx="10.5913" cy="10.5913" r="10.4355" transform="matrix(0.866025 -0.5 -0.866025 -0.5 47.3052 94.2668)" fill="#7A7A7A" stroke="#7A7A7A" stroke-width="0.311668" stroke-linejoin="bevel"/>
<path d="M50.1317 86.1687L51.6236 85.3074C51.6713 85.2798 51.6706 85.2349 51.6228 85.2073L49.2683 83.8479C49.1249 83.7651 49.1252 83.631 49.2683 83.5481L51.5534 82.2288C51.6012 82.2011 51.6012 82.1558 51.5534 82.1282L50.2011 81.3474C50.1532 81.32 50.0754 81.3204 50.0277 81.3479L47.7426 82.6672C47.5991 82.7498 47.3666 82.7499 47.2233 82.6672L44.8688 81.3079C44.821 81.2803 44.7432 81.2798 44.6954 81.3074L43.2035 82.1687C43.156 82.1963 43.1567 82.2412 43.2044 82.2688L45.5589 83.6282C45.7022 83.711 45.7021 83.8452 45.5589 83.928L43.2737 85.2473C43.226 85.2749 43.2254 85.3198 43.2729 85.3474L44.6252 86.1282C44.673 86.1558 44.7516 86.1558 44.7994 86.1282L47.0846 84.8088C47.2281 84.7261 47.4604 84.726 47.6039 84.8088L49.9584 86.1682C50.0061 86.1958 50.0839 86.1961 50.1317 86.1687Z" fill="white" stroke="#7A7A7A" stroke-width="0.2"/>
<defs>
<linearGradient id="paint0_linear_5048_35421" x1="35.1067" y1="93.47" x2="66.1635" y2="39.678" gradientUnits="userSpaceOnUse">
<stop stop-color="white"/>
<stop offset="0.317308" stop-color="#7A7A7A"/>
<stop offset="1" stop-color="white"/>
</linearGradient>
<linearGradient id="paint1_linear_5048_35421" x1="3.10574" y1="74.0085" x2="34.1626" y2="20.2166" gradientUnits="userSpaceOnUse">
<stop stop-color="white"/>
<stop offset="0.317308" stop-color="#7A7A7A"/>
<stop offset="1" stop-color="white"/>
</linearGradient>
<linearGradient id="paint2_linear_5048_35421" x1="17.5281" y1="83.3376" x2="48.5849" y2="29.5457" gradientUnits="userSpaceOnUse">
<stop stop-color="white"/>
<stop offset="0.317308" stop-color="#7A7A7A"/>
<stop offset="1" stop-color="white"/>
</linearGradient>
<linearGradient id="paint3_linear_5048_35421" x1="64.2759" y1="92.782" x2="33.2191" y2="38.99" gradientUnits="userSpaceOnUse">
<stop stop-color="white"/>
<stop offset="0.317308" stop-color="#7A7A7A"/>
<stop offset="1" stop-color="white"/>
</linearGradient>
<linearGradient id="paint4_linear_5048_35421" x1="79.6416" y1="83.1758" x2="48.5848" y2="29.3838" gradientUnits="userSpaceOnUse">
<stop stop-color="white"/>
<stop offset="0.317308" stop-color="#7A7A7A"/>
<stop offset="1" stop-color="white"/>
</linearGradient>
<linearGradient id="paint5_linear_5048_35421" x1="98.1624" y1="73.698" x2="67.1056" y2="19.906" gradientUnits="userSpaceOnUse">
<stop stop-color="white"/>
<stop offset="0.317308" stop-color="#7A7A7A"/>
<stop offset="1" stop-color="white"/>
</linearGradient>
</defs>
</svg>
