<svg width="100" height="100" viewBox="0 0 100 100" fill="none" xmlns="http://www.w3.org/2000/svg">
<path d="M98.2498 53.613L36.1361 89.4744" stroke="url(#paint0_linear_5053_44810)" stroke-width="0.155508" stroke-linecap="round" stroke-dasharray="0.31 0.62"/>
<path d="M66.2488 34.1516L4.13514 70.0129" stroke="url(#paint1_linear_5053_44810)" stroke-width="0.155508" stroke-linecap="round" stroke-dasharray="0.31 0.62"/>
<path d="M80.6711 43.4807L18.5575 79.342" stroke="url(#paint2_linear_5053_44810)" stroke-width="0.155508" stroke-linecap="round" stroke-dasharray="0.31 0.62"/>
<path d="M3.19165 53.425L65.3053 89.2864" stroke="url(#paint3_linear_5053_44810)" stroke-width="0.155508" stroke-linecap="round" stroke-dasharray="0.31 0.62"/>
<path d="M18.5571 43.8186L80.6708 79.6799" stroke="url(#paint4_linear_5053_44810)" stroke-width="0.155508" stroke-linecap="round" stroke-dasharray="0.31 0.62"/>
<path d="M37.0779 34.3411L99.1915 70.2024" stroke="url(#paint5_linear_5053_44810)" stroke-width="0.155508" stroke-linecap="round" stroke-dasharray="0.31 0.62"/>
<rect x="0.0865978" y="0.0499972" width="2.48965" height="9.85357" rx="0.1" transform="matrix(0.86601 -0.500028 -3.18351e-05 1 50.7101 68.651)" fill="#383838" stroke="#7A7A7A" stroke-width="0.2"/>
<rect x="0.0866041" y="0.150003" width="2.42423" height="9.94697" rx="0.1" transform="matrix(0.86601 0.500028 3.18351e-05 1 48.6029 67.1547)" fill="#222222" stroke="#7A7A7A" stroke-width="0.2"/>
<rect x="0.173208" width="2.28937" height="2.42218" rx="0.1" transform="matrix(0.866041 -0.499972 0.866041 0.499972 48.5457 67.4216)" fill="#222222" stroke="#7A7A7A" stroke-width="0.2"/>
<rect x="0.0865978" y="0.0499972" width="8.46911" height="27.7465" rx="0.1" transform="matrix(0.86601 -0.500028 -3.18351e-05 1 50.6989 44.2586)" fill="#383838" stroke="#7A7A7A" stroke-width="0.2"/>
<rect x="0.0866041" y="0.150003" width="9.00046" height="27.8134" rx="0.1" transform="matrix(0.86601 0.500028 3.18351e-05 1 42.903 39.515)" fill="#222222" stroke="#7A7A7A" stroke-width="0.2"/>
<rect x="0.173208" width="8.42319" height="9.04173" rx="0.1" transform="matrix(0.866041 -0.499972 0.866041 0.499972 42.8125 39.819)" fill="#222222" stroke="#7A7A7A" stroke-width="0.2"/>
<rect x="0.0865978" y="0.0499972" width="2.31991" height="12.3808" rx="0.1" transform="matrix(0.86601 -0.500028 -3.18351e-05 1 50.7977 29.1659)" fill="#383838" stroke="#7A7A7A" stroke-width="0.2"/>
<rect x="0.0866041" y="0.150003" width="2.50142" height="12.3766" rx="0.1" transform="matrix(0.86601 0.500028 3.18351e-05 1 48.63 27.7343)" fill="#222222" stroke="#7A7A7A" stroke-width="0.2"/>
<rect x="0.173208" width="2.3622" height="2.47436" rx="0.1" transform="matrix(0.866041 -0.499972 0.866041 0.499972 48.5457 28.0373)" fill="#222222" stroke="#7A7A7A" stroke-width="0.2"/>
<mask id="path-16-inside-1_5053_44810" fill="white">
<rect width="2.443" height="5.20298" rx="0.122519" transform="matrix(0.86601 -0.500028 -3.18351e-05 1 68.7195 82.9973)"/>
</mask>
<rect width="2.443" height="5.20298" rx="0.122519" transform="matrix(0.86601 -0.500028 -3.18351e-05 1 68.7195 82.9973)" fill="#383838" stroke="#7A7A7A" stroke-width="0.4" mask="url(#path-16-inside-1_5053_44810)"/>
<mask id="path-17-inside-2_5053_44810" fill="white">
<rect width="2.68326" height="5.18136" rx="0.122519" transform="matrix(0.86601 0.500028 3.18351e-05 1 66.561 81.7231)"/>
</mask>
<rect width="2.68326" height="5.18136" rx="0.122519" transform="matrix(0.86601 0.500028 3.18351e-05 1 66.561 81.7231)" fill="#222222" stroke="#7A7A7A" stroke-width="0.4" mask="url(#path-17-inside-2_5053_44810)"/>
<mask id="path-18-inside-3_5053_44810" fill="white">
<rect width="2.46389" height="2.59807" rx="0.122519" transform="matrix(0.866041 -0.499972 0.866041 0.499972 66.4993 81.7993)"/>
</mask>
<rect width="2.46389" height="2.59807" rx="0.122519" transform="matrix(0.866041 -0.499972 0.866041 0.499972 66.4993 81.7993)" fill="#222222" stroke="#7A7A7A" stroke-width="0.4" mask="url(#path-18-inside-3_5053_44810)"/>
<mask id="path-19-inside-4_5053_44810" fill="white">
<path d="M68.5117 66.3958C68.5117 66.2853 68.5893 66.151 68.6849 66.0958L76.0939 61.8179C76.1896 61.7626 76.2671 61.8074 76.2671 61.9179L76.2665 80.5905C76.2665 80.701 76.189 80.8353 76.0933 80.8905L68.6843 85.1684C68.5887 85.2237 68.5111 85.1789 68.5111 85.0684L68.5117 66.3958Z"/>
</mask>
<path d="M68.5117 66.3958C68.5117 66.2853 68.5893 66.151 68.6849 66.0958L76.0939 61.8179C76.1896 61.7626 76.2671 61.8074 76.2671 61.9179L76.2665 80.5905C76.2665 80.701 76.189 80.8353 76.0933 80.8905L68.6843 85.1684C68.5887 85.2237 68.5111 85.1789 68.5111 85.0684L68.5117 66.3958Z" fill="#7A7A7A" stroke="#7A7A7A" stroke-width="0.623336" stroke-linejoin="bevel" mask="url(#path-19-inside-4_5053_44810)"/>
<rect x="0.0866041" y="0.150003" width="9.18622" height="19.0731" rx="0.34912" transform="matrix(0.86601 0.500028 3.18351e-05 1 60.7631 61.2897)" fill="#222222" stroke="#7A7A7A" stroke-width="0.2"/>
<mask id="path-21-inside-5_5053_44810" fill="white">
<path d="M29.4979 74.4941C31.7429 73.198 33.0105 71.1572 33.275 69.0684C33.2768 69.0684 33.279 69.0679 33.2809 69.0679L33.6614 66.2104L32.9874 66.1875C32.4925 64.7337 31.4546 63.4042 29.8278 62.4648C27.3816 61.0526 23.8908 60.3184 20.4131 60.2852C16.935 60.252 13.4389 60.9202 10.9883 62.335C9.63644 63.1155 8.69805 64.1627 8.14161 65.3252L7.75596 65.3115L7.56144 67.3848C7.52879 67.7005 7.51735 68.0182 7.53184 68.3354C7.63611 70.6139 8.94748 72.9116 11.401 74.3281C16.2765 77.1425 24.606 77.3183 29.4979 74.4941Z"/>
</mask>
<path d="M29.4979 74.4941C31.7429 73.198 33.0105 71.1572 33.275 69.0684C33.2768 69.0684 33.279 69.0679 33.2809 69.0679L33.6614 66.2104L32.9874 66.1875C32.4925 64.7337 31.4546 63.4042 29.8278 62.4648C27.3816 61.0526 23.8908 60.3184 20.4131 60.2852C16.935 60.252 13.4389 60.9202 10.9883 62.335C9.63644 63.1155 8.69805 64.1627 8.14161 65.3252L7.75596 65.3115L7.56144 67.3848C7.52879 67.7005 7.51735 68.0182 7.53184 68.3354C7.63611 70.6139 8.94748 72.9116 11.401 74.3281C16.2765 77.1425 24.606 77.3183 29.4979 74.4941Z" fill="#222222"/>
<path d="M29.4979 74.4941L29.6711 74.5941L29.6711 74.5941L29.4979 74.4941ZM33.275 69.0684L33.0307 69.058L33.0474 68.9257L33.2773 68.9269L33.275 69.0684ZM33.2809 69.0679L33.5251 69.0787L33.5075 69.2106L33.2785 69.2093L33.2809 69.0679ZM33.6614 66.2104L33.6759 66.0693L33.9248 66.0777L33.9057 66.2213L33.6614 66.2104ZM32.9874 66.1875L32.973 66.3287L32.7836 66.3222L32.7471 66.2148L32.9874 66.1875ZM29.8278 62.4648L30.001 62.3648L30.001 62.3648L29.8278 62.4648ZM20.4131 60.2852L20.4172 60.1438L20.4172 60.1438L20.4131 60.2852ZM10.9883 62.335L10.8151 62.235L10.8151 62.235L10.9883 62.335ZM8.14161 65.3252L8.37771 65.3629L8.32481 65.4734L8.1266 65.4664L8.14161 65.3252ZM7.75596 65.3115L7.51137 65.3039L7.52471 65.1616L7.77097 65.1704L7.75596 65.3115ZM7.56144 67.3848L7.80603 67.3924L7.80595 67.3932L7.56144 67.3848ZM7.53184 68.3354L7.28698 68.3392L7.28697 68.3392L7.53184 68.3354ZM11.401 74.3281L11.2279 74.4281L11.2278 74.4281L11.401 74.3281ZM29.4979 74.4941L29.3247 74.3941C31.5151 73.1295 32.7689 71.1254 33.0307 69.058L33.275 69.0684L33.5192 69.0787C33.2521 71.189 31.9707 73.2665 29.6711 74.5941L29.4979 74.4941ZM33.275 69.0684L33.2773 68.9269C33.259 68.9268 33.2446 68.928 33.2375 68.9287C33.2337 68.929 33.2306 68.9294 33.229 68.9295C33.2275 68.9297 33.2263 68.9299 33.2268 68.9298C33.2268 68.9298 33.2273 68.9297 33.2279 68.9297C33.2285 68.9296 33.2294 68.9295 33.2305 68.9294C33.2327 68.9291 33.2362 68.9287 33.2405 68.9283C33.2486 68.9276 33.2639 68.9263 33.2832 68.9265L33.2809 69.0679L33.2785 69.2093C33.2969 69.2094 33.3112 69.2082 33.3183 69.2076C33.3222 69.2072 33.3252 69.2069 33.3268 69.2067C33.3283 69.2065 33.3296 69.2064 33.3291 69.2064C33.329 69.2064 33.3285 69.2065 33.3279 69.2066C33.3273 69.2066 33.3264 69.2067 33.3253 69.2069C33.3232 69.2071 33.3196 69.2075 33.3153 69.2079C33.3072 69.2087 33.2919 69.2099 33.2726 69.2098L33.275 69.0684ZM33.2809 69.0679L33.0366 69.057L33.4172 66.1996L33.6614 66.2104L33.9057 66.2213L33.5251 69.0787L33.2809 69.0679ZM33.6614 66.2104L33.647 66.3516L32.973 66.3287L32.9874 66.1875L33.0018 66.0463L33.6759 66.0693L33.6614 66.2104ZM32.9874 66.1875L32.7471 66.2148C32.2585 64.7797 31.2375 63.4789 29.6545 62.5648L29.8278 62.4648L30.001 62.3648C31.6718 63.3296 32.7265 64.6876 33.2278 66.1602L32.9874 66.1875ZM29.8278 62.4648L29.6546 62.5648C27.2601 61.1825 23.8335 60.4593 20.4091 60.4266L20.4131 60.2852L20.4172 60.1438C23.9482 60.1775 27.5031 60.9227 30.001 62.3648L29.8278 62.4648ZM20.4131 60.2852L20.4091 60.4266C16.9843 60.3939 13.5567 61.0521 11.1615 62.435L10.9883 62.335L10.8151 62.235C13.321 60.7882 16.8856 60.1101 20.4172 60.1438L20.4131 60.2852ZM10.9883 62.335L11.1615 62.435C9.84664 63.1942 8.92586 64.2176 8.37771 65.3629L8.14161 65.3252L7.90551 65.2875C8.47024 64.1077 9.42625 63.0369 10.8151 62.235L10.9883 62.335ZM8.14161 65.3252L8.1266 65.4664L7.74094 65.4527L7.75596 65.3115L7.77097 65.1704L8.15662 65.184L8.14161 65.3252ZM7.75596 65.3115L8.00055 65.3192L7.80603 67.3924L7.56144 67.3848L7.31685 67.3771L7.51137 65.3039L7.75596 65.3115ZM7.56144 67.3848L7.80595 67.3932C7.77368 67.7053 7.76241 68.0189 7.7767 68.3317L7.53184 68.3354L7.28697 68.3392C7.27228 68.0175 7.28389 67.6958 7.31693 67.3763L7.56144 67.3848ZM7.53184 68.3354L7.7767 68.3317C7.87991 70.587 9.17875 72.8451 11.5742 74.2281L11.401 74.3281L11.2278 74.4281C8.7162 72.978 7.39231 70.6408 7.28698 68.3392L7.53184 68.3354ZM11.401 74.3281L11.5742 74.2281C16.3615 76.9916 24.5357 77.1588 29.3247 74.3941L29.4979 74.4941L29.6711 74.5941C24.6763 77.4777 16.1916 77.2935 11.2279 74.4281L11.401 74.3281Z" fill="#7A7A7A" mask="url(#path-21-inside-5_5053_44810)"/>
<circle cx="10.5913" cy="10.5913" r="10.4355" transform="matrix(0.866025 -0.5 -0.866025 -0.5 20.7012 76.4502)" fill="#7A7A7A" stroke="#7A7A7A" stroke-width="0.311668" stroke-linejoin="bevel"/>
<path d="M23.5277 68.3521L25.0196 67.4907C25.0673 67.4631 25.0666 67.4182 25.0188 67.3906L22.6643 66.0312C22.5209 65.9485 22.5212 65.8143 22.6643 65.7314L24.9494 64.4121C24.9972 64.3845 24.9972 64.3391 24.9494 64.3115L23.5971 63.5308C23.5492 63.5034 23.4714 63.5037 23.4237 63.5312L21.1386 64.8506C20.9951 64.9332 20.7626 64.9333 20.6193 64.8506L18.2648 63.4912C18.217 63.4636 18.1392 63.4632 18.0914 63.4907L16.5995 64.3521C16.552 64.3797 16.5527 64.4246 16.6004 64.4521L18.9549 65.8115C19.0982 65.8943 19.0981 66.0285 18.9549 66.1113L16.6697 67.4307C16.622 67.4582 16.6214 67.5031 16.6689 67.5308L18.0212 68.3115C18.069 68.3391 18.1476 68.3391 18.1954 68.3115L20.4806 66.9922C20.6241 66.9095 20.8564 66.9094 20.9999 66.9922L23.3544 68.3516C23.4021 68.3791 23.4799 68.3795 23.5277 68.3521Z" fill="#222222" stroke="#7A7A7A" stroke-width="0.2"/>
<rect x="0.173208" width="8.65457" height="9.36654" rx="0.34912" transform="matrix(0.866041 -0.499972 0.866041 0.499972 60.5449 61.8056)" fill="#222222" stroke="#7A7A7A" stroke-width="0.2"/>
<mask id="path-26-inside-6_5053_44810" fill="white">
<rect width="2.52613" height="5.20298" rx="0.122519" transform="matrix(0.86601 -0.500028 -3.18351e-05 1 68.6475 58.5349)"/>
</mask>
<rect width="2.52613" height="5.20298" rx="0.122519" transform="matrix(0.86601 -0.500028 -3.18351e-05 1 68.6475 58.5349)" fill="#383838" stroke="#7A7A7A" stroke-width="0.4" mask="url(#path-26-inside-6_5053_44810)"/>
<mask id="path-27-inside-7_5053_44810" fill="white">
<rect width="2.60844" height="5.18136" rx="0.122519" transform="matrix(0.86601 0.500028 3.18351e-05 1 66.561 57.2192)"/>
</mask>
<rect width="2.60844" height="5.18136" rx="0.122519" transform="matrix(0.86601 0.500028 3.18351e-05 1 66.561 57.2192)" fill="#222222" stroke="#7A7A7A" stroke-width="0.4" mask="url(#path-27-inside-7_5053_44810)"/>
<mask id="path-28-inside-8_5053_44810" fill="white">
<rect width="2.46389" height="2.59807" rx="0.122519" transform="matrix(0.866041 -0.499972 0.866041 0.499972 66.4993 57.2954)"/>
</mask>
<rect width="2.46389" height="2.59807" rx="0.122519" transform="matrix(0.866041 -0.499972 0.866041 0.499972 66.4993 57.2954)" fill="#222222" stroke="#7A7A7A" stroke-width="0.4" mask="url(#path-28-inside-8_5053_44810)"/>
<mask id="path-29-inside-9_5053_44810" fill="white">
<rect width="2.52124" height="5.20298" rx="0.122519" transform="matrix(0.86601 -0.500028 -3.18351e-05 1 33.1211 51.1814)"/>
</mask>
<rect width="2.52124" height="5.20298" rx="0.122519" transform="matrix(0.86601 -0.500028 -3.18351e-05 1 33.1211 51.1814)" fill="#383838" stroke="#7A7A7A" stroke-width="0.4" mask="url(#path-29-inside-9_5053_44810)"/>
<mask id="path-30-inside-10_5053_44810" fill="white">
<rect width="2.60844" height="5.18136" rx="0.122519" transform="matrix(0.86601 0.500028 3.18351e-05 1 31.0305 49.8682)"/>
</mask>
<rect width="2.60844" height="5.18136" rx="0.122519" transform="matrix(0.86601 0.500028 3.18351e-05 1 31.0305 49.8682)" fill="#222222" stroke="#7A7A7A" stroke-width="0.4" mask="url(#path-30-inside-10_5053_44810)"/>
<mask id="path-31-inside-11_5053_44810" fill="white">
<rect width="2.46389" height="2.59807" rx="0.122519" transform="matrix(0.866041 -0.499972 0.866041 0.499972 30.9688 49.9443)"/>
</mask>
<rect width="2.46389" height="2.59807" rx="0.122519" transform="matrix(0.866041 -0.499972 0.866041 0.499972 30.9688 49.9443)" fill="#222222" stroke="#7A7A7A" stroke-width="0.4" mask="url(#path-31-inside-11_5053_44810)"/>
<rect x="0.0865978" y="0.0499972" width="8.75536" height="18.8726" rx="0.34912" transform="matrix(0.86601 -0.500028 -3.18351e-05 1 32.9928 34.3841)" fill="#383838" stroke="#7A7A7A" stroke-width="0.2"/>
<rect x="0.0866041" y="0.150003" width="9.18622" height="19.0731" rx="0.34912" transform="matrix(0.86601 0.500028 3.18351e-05 1 25.2325 29.435)" fill="#222222" stroke="#7A7A7A" stroke-width="0.2"/>
<rect x="0.173208" width="8.65457" height="9.36654" rx="0.34912" transform="matrix(0.866041 -0.499972 0.866041 0.499972 25.0144 29.9509)" fill="#222222" stroke="#7A7A7A" stroke-width="0.2"/>
<mask id="path-35-inside-12_5053_44810" fill="white">
<rect width="2.52145" height="5.15125" rx="0.122519" transform="matrix(0.86601 -0.500028 -3.18351e-05 1 33.1208 26.6777)"/>
</mask>
<rect width="2.52145" height="5.15125" rx="0.122519" transform="matrix(0.86601 -0.500028 -3.18351e-05 1 33.1208 26.6777)" fill="#383838" stroke="#7A7A7A" stroke-width="0.4" mask="url(#path-35-inside-12_5053_44810)"/>
<mask id="path-36-inside-13_5053_44810" fill="white">
<rect width="2.60844" height="5.18136" rx="0.122519" transform="matrix(0.86601 0.500028 3.18351e-05 1 31.0305 25.3643)"/>
</mask>
<rect width="2.60844" height="5.18136" rx="0.122519" transform="matrix(0.86601 0.500028 3.18351e-05 1 31.0305 25.3643)" fill="#222222" stroke="#7A7A7A" stroke-width="0.4" mask="url(#path-36-inside-13_5053_44810)"/>
<mask id="path-37-inside-14_5053_44810" fill="white">
<rect width="2.46389" height="2.59807" rx="0.122519" transform="matrix(0.866041 -0.499972 0.866041 0.499972 30.9688 25.4404)"/>
</mask>
<rect width="2.46389" height="2.59807" rx="0.122519" transform="matrix(0.866041 -0.499972 0.866041 0.499972 30.9688 25.4404)" fill="#222222" stroke="#7A7A7A" stroke-width="0.4" mask="url(#path-37-inside-14_5053_44810)"/>
<path d="M10.7017 31.8149L10.7388 31.8501L10.7896 31.8403C12.38 31.5195 14.694 32.3899 16.6499 34.2407C16.8904 34.4683 17.1164 34.7025 17.3276 34.9409C17.7505 35.418 18.1146 35.9124 18.4136 36.4087C19.1624 37.6518 19.5028 38.897 19.3794 39.896L19.3735 39.9468L19.4106 39.9819L19.7075 40.2603L18.8472 41.1704L18.8433 41.1733C18.8174 41.2035 18.7992 41.2278 18.7769 41.2515C18.1038 41.9627 16.9807 42.147 15.6841 41.8374C14.3905 41.5285 12.9446 40.731 11.6587 39.5142L11.4253 39.2866L11.1997 39.0542C10.1019 37.8873 9.36701 36.5971 9.06299 35.4282C8.75839 34.2571 8.88938 33.2249 9.49268 32.5493L9.55811 32.4771L9.55322 32.4722L10.4214 31.5542L10.7017 31.8149Z" fill="#383838" stroke="#7A7A7A" stroke-width="0.2"/>
<path d="M17.592 33.2445C16.3062 32.0278 14.8604 31.2314 13.5669 30.9226C12.2703 30.613 11.1476 30.7968 10.4745 31.508C9.80148 32.2193 9.67988 33.3505 10.0605 34.628C10.4402 35.9025 11.3157 37.3015 12.6015 38.5183C13.8874 39.7352 15.333 40.5327 16.6266 40.8416C17.9232 41.1511 19.046 40.9673 19.719 40.2561C20.3921 39.5448 20.5137 38.4137 20.1331 37.1361C19.7534 35.8615 18.878 34.4614 17.592 33.2445Z" fill="#222222" stroke="#7A7A7A" stroke-width="0.2"/>
<path d="M16.3748 36.3827L16.3744 36.3428C16.3744 36.2516 16.373 36.1743 16.3693 36.1113C16.3638 36.0475 16.3532 35.9714 16.3368 35.8831C16.2657 35.5175 16.1202 35.2063 15.9014 34.95C15.7413 34.7622 15.5556 34.6073 15.3447 34.4844L15.3439 33.9588L14.8459 33.7461L14.8467 34.2717C14.725 34.2386 14.6107 34.2226 14.5037 34.2248C14.4345 34.2255 14.3708 34.2373 14.3108 34.255L14.3099 33.5345L13.8119 33.3218L13.8118 35.333L13.8131 35.3329L13.812 36.2669L14.4306 36.5312L14.4307 35.5378C14.4307 35.4961 14.4319 35.4521 14.4355 35.4061C14.4374 35.3573 14.4439 35.3129 14.4548 35.274C14.4822 35.1689 14.5309 35.0976 14.6001 35.0599C14.6693 35.0202 14.7485 35.0056 14.8377 35.016C14.8406 35.0163 14.8434 35.0175 14.8463 35.0178L14.8459 36.6886L15.344 36.9013L15.3443 35.2305C15.3468 35.2323 15.3492 35.2343 15.3517 35.2362C15.4392 35.3014 15.5183 35.3832 15.5875 35.4823C15.6549 35.5785 15.7032 35.6913 15.7323 35.8206C15.7433 35.8688 15.7505 35.9188 15.7541 35.9698C15.7578 36.019 15.7599 36.0648 15.7599 36.1065L15.7598 37.1L16.3744 37.3631L17.7505 36.2858L17.7504 35.2858L16.3748 36.3827Z" fill="#7A7A7A"/>
<path d="M92.1152 50.7859L92.1113 50.7908L92.1768 50.863C92.3381 51.0437 92.4654 51.2492 92.5596 51.4753C92.6538 51.7018 92.7159 51.9495 92.7451 52.2146C92.8845 53.4783 92.2909 55.1232 91.085 56.655L90.8887 56.8962C90.8221 56.9758 90.7541 57.0551 90.6846 57.1335C90.6146 57.2124 90.5421 57.2909 90.4687 57.3689C90.3226 57.5242 90.1696 57.6775 90.0107 57.8279C88.7248 59.0448 87.279 59.8423 85.9854 60.1511C84.6889 60.4606 83.5667 60.2761 82.8936 59.5652C82.8712 59.5415 82.852 59.5172 82.8262 59.4871L82.8223 59.4841L81.9609 58.574L82.2588 58.2957L82.2959 58.2605L82.29 58.2097C82.2654 58.0105 82.2585 57.801 82.2705 57.5837C82.2945 57.1487 82.3919 56.6817 82.5576 56.199C82.8477 55.3543 83.3486 54.4639 84.0361 53.615C84.2262 53.3803 84.4312 53.1493 84.6494 52.9226C84.769 52.7984 84.8922 52.6749 85.0195 52.5544C85.6289 51.9778 86.2752 51.495 86.9238 51.114C87.054 51.0376 87.1839 50.9651 87.3135 50.8972C87.8323 50.6253 88.3485 50.4198 88.8447 50.2839C89.0925 50.2161 89.335 50.1651 89.5703 50.1326C89.8062 50.0999 90.0348 50.0852 90.2539 50.0886C90.3087 50.0895 90.3629 50.0914 90.416 50.0945C90.5233 50.1007 90.6279 50.1114 90.7295 50.1267C90.7796 50.1343 90.8298 50.144 90.8799 50.1541L90.9307 50.1638L90.9678 50.1287L91.2471 49.8679L92.1152 50.7859Z" fill="#383838" stroke="#7A7A7A" stroke-width="0.2"/>
<path d="M84.0776 51.5577C85.3635 50.341 86.8092 49.5447 88.1027 49.2358C89.3993 48.9262 90.5221 49.11 91.1952 49.8213C91.8682 50.5325 91.9898 51.6638 91.6092 52.9413C91.2295 54.2158 90.354 55.6147 89.0682 56.8315C87.7822 58.0484 86.3367 58.8459 85.0431 59.1548C83.7465 59.4644 82.6237 59.2806 81.9506 58.5693C81.2776 57.8581 81.156 56.7269 81.5366 55.4493C81.9163 54.1747 82.7917 52.7747 84.0776 51.5577Z" fill="#222222" stroke="#7A7A7A" stroke-width="0.2"/>
<path d="M88.4803 51.9104L88.3577 52.4378L87.6468 52.5628C87.675 52.6192 87.6983 52.6805 87.711 52.7492C87.7317 52.8537 87.7344 52.9681 87.7231 53.0931L88.242 53.002L88.1188 53.5301L87.6012 53.6211C87.5167 53.8505 87.3969 54.0608 87.2396 54.2512C87.0253 54.5112 86.7437 54.7083 86.3961 54.8419C86.3121 54.8733 86.2392 54.8973 86.1774 54.9137C86.116 54.9282 86.0402 54.9433 85.9504 54.9592L85.9109 54.9659L87.2296 56.1306L86.2451 56.3044L84.9448 55.1363L85.0976 54.4847L86.0763 54.3114C86.1172 54.3042 86.1622 54.2952 86.2099 54.283C86.2594 54.2706 86.3071 54.255 86.3526 54.2359C86.475 54.1847 86.5774 54.1168 86.6605 54.0337C86.7459 53.9484 86.8134 53.8572 86.8624 53.7598C86.864 53.7569 86.8645 53.753 86.866 53.7501L85.2211 54.0404L85.3443 53.5137L86.9892 53.2234C86.9889 53.2206 86.9903 53.2177 86.99 53.2149C86.9848 53.1251 86.9565 53.0494 86.9053 52.9881C86.8562 52.9265 86.7775 52.8914 86.6694 52.8827C86.6291 52.8787 86.5841 52.8802 86.5357 52.8869C86.4899 52.8913 86.4466 52.897 86.4057 52.9042L85.4271 53.0762L85.5799 52.422L88.4803 51.9104Z" fill="#7A7A7A"/>
<path d="M65.9424 23.9365C64.9082 24.9324 63.7358 25.3954 62.6621 25.1387L62.6035 25.125L62.5967 25.1221L62.5908 25.1221L62.5781 25.1191C62.5244 25.1043 62.4714 25.0871 62.4189 25.0684L62.248 25.001L62.2412 24.998L61.1562 24.6211L61.2363 24.3174L61.25 24.2666L61.2148 24.2266C60.5529 23.4597 60.1336 22.2953 60.0264 20.9268C60.0026 20.6241 59.9934 20.3117 60.001 19.9922C60.0124 19.5111 60.0604 19.0131 60.1465 18.5059L60.2461 17.9961L60.3711 17.4795C60.7401 16.1035 61.3401 14.896 62.0615 13.959C62.2417 13.725 62.4296 13.5081 62.623 13.3096C62.7199 13.2102 62.8183 13.1154 62.918 13.0254C63.0672 12.8906 63.2191 12.7667 63.373 12.6543C63.4244 12.6168 63.4764 12.58 63.5283 12.5449C63.7353 12.4053 63.9452 12.2858 64.1562 12.1895C64.2615 12.1414 64.3676 12.0995 64.4736 12.0625L64.5234 12.0449L64.5371 11.9941L64.6172 11.6973L65.6426 11.8965L65.6543 11.8975L65.8877 11.9258C65.965 11.9385 66.0421 11.9542 66.1182 11.9746C66.2537 12.0109 66.3849 12.0581 66.5107 12.1152C66.8891 12.287 67.2265 12.5511 67.5166 12.8926C67.6134 13.0065 67.7049 13.1291 67.791 13.2598C67.8769 13.39 67.9573 13.5288 68.0322 13.6748C68.1072 13.8209 68.1771 13.974 68.2402 14.1338C68.3034 14.2937 68.36 14.4608 68.4111 14.6338C68.4878 14.8933 68.5505 15.1666 68.5986 15.4512C68.6627 15.8306 68.7016 16.2305 68.7119 16.6455C68.7352 17.5795 68.617 18.5898 68.3418 19.6172C67.8571 21.4257 66.9753 22.9418 65.9424 23.9365Z" fill="#383838" stroke="#7A7A7A" stroke-width="0.2"/>
<path d="M58.8012 17.1122C58.3199 18.9086 58.3445 20.6538 58.7679 22.0209C59.1918 23.3894 60.01 24.3646 61.1064 24.6583C62.2026 24.9519 63.3981 24.5163 64.4493 23.5432C65.4995 22.571 66.3935 21.0719 66.8748 19.2755C67.356 17.4793 67.3312 15.7348 66.9079 14.3678C66.484 12.9995 65.6668 12.0235 64.5706 11.7297C63.4742 11.4359 62.2778 11.8723 61.2264 12.8455C60.1764 13.8176 59.2826 15.3161 58.8012 17.1122Z" fill="#222222" stroke="#7A7A7A" stroke-width="0.2"/>
<path d="M63.1988 19.1463L63.2227 19.1101C63.2766 19.0297 63.3204 18.9607 63.3542 18.9031C63.3868 18.8438 63.4214 18.7705 63.4581 18.6836C63.607 18.3219 63.654 17.9678 63.5982 17.622C63.5576 17.3685 63.4729 17.1302 63.3455 16.9062L63.6555 16.4416L63.3097 15.9818L62.9982 16.4472C62.9027 16.3519 62.805 16.2749 62.7025 16.2185C62.6362 16.1811 62.5687 16.1559 62.501 16.1387L62.9265 15.5028L62.5807 15.043L61.4529 16.7276C61.45 16.7319 61.446 16.7352 61.4433 16.7392L60.8379 17.6426L61.2672 18.2138L61.8553 17.3367C61.8799 17.3 61.9078 17.2623 61.9384 17.2237C61.969 17.1816 62.0016 17.1465 62.035 17.1181C62.1231 17.0403 62.211 17.004 62.2989 17.0084C62.388 17.0112 62.4719 17.0411 62.5504 17.099C62.5529 17.1008 62.5553 17.1031 62.5578 17.1049L61.5684 18.5805L61.9142 19.0404L62.9036 17.5648C62.9048 17.5677 62.9065 17.5706 62.9077 17.5736C62.9521 17.679 62.9778 17.7949 62.9849 17.9203C62.9919 18.0421 62.971 18.1687 62.9221 18.299C62.9039 18.3475 62.8809 18.3949 62.8541 18.4419C62.8286 18.487 62.8044 18.5284 62.7799 18.565L62.1915 19.4433L62.6191 20.0114L64.5604 19.8113L65.1525 18.9288L63.1988 19.1463Z" fill="#7A7A7A"/>
<defs>
<linearGradient id="paint0_linear_5053_44810" x1="36.5691" y1="89.7244" x2="67.6259" y2="35.9324" gradientUnits="userSpaceOnUse">
<stop stop-color="#222222"/>
<stop offset="0.317308" stop-color="#7A7A7A"/>
<stop offset="1" stop-color="#222222"/>
</linearGradient>
<linearGradient id="paint1_linear_5053_44810" x1="4.56815" y1="70.2629" x2="35.625" y2="16.471" gradientUnits="userSpaceOnUse">
<stop stop-color="#222222"/>
<stop offset="0.317308" stop-color="#7A7A7A"/>
<stop offset="1" stop-color="#222222"/>
</linearGradient>
<linearGradient id="paint2_linear_5053_44810" x1="18.9905" y1="79.592" x2="50.0473" y2="25.8001" gradientUnits="userSpaceOnUse">
<stop stop-color="#222222"/>
<stop offset="0.317308" stop-color="#7A7A7A"/>
<stop offset="1" stop-color="#222222"/>
</linearGradient>
<linearGradient id="paint3_linear_5053_44810" x1="65.7383" y1="89.0364" x2="34.6815" y2="35.2444" gradientUnits="userSpaceOnUse">
<stop stop-color="#222222"/>
<stop offset="0.317308" stop-color="#7A7A7A"/>
<stop offset="1" stop-color="#222222"/>
</linearGradient>
<linearGradient id="paint4_linear_5053_44810" x1="81.1038" y1="79.4299" x2="50.047" y2="25.6379" gradientUnits="userSpaceOnUse">
<stop stop-color="#222222"/>
<stop offset="0.317308" stop-color="#7A7A7A"/>
<stop offset="1" stop-color="#222222"/>
</linearGradient>
<linearGradient id="paint5_linear_5053_44810" x1="99.6245" y1="69.9524" x2="68.5677" y2="16.1604" gradientUnits="userSpaceOnUse">
<stop stop-color="#222222"/>
<stop offset="0.317308" stop-color="#7A7A7A"/>
<stop offset="1" stop-color="#222222"/>
</linearGradient>
</defs>
</svg>
