<svg width="94" height="80" viewBox="0 0 94 80" fill="none" xmlns="http://www.w3.org/2000/svg">
<path d="M4.80713 50.0009L46.9034 25.6965L88.9998 50.0009L46.9034 74.3052L4.80713 50.0009Z" fill="#222222"/>
<path d="M4.80713 50.0009L4.63485 49.9014L4.46257 50.0009L4.63485 50.1003L4.80713 50.0009ZM46.9034 25.6965L47.0757 25.5971L46.9034 25.4976L46.7312 25.5971L46.9034 25.6965ZM88.9998 50.0009L89.172 50.1003L89.3443 50.0009L89.172 49.9014L88.9998 50.0009ZM46.9034 74.3052L46.7312 74.4046L46.9034 74.5041L47.0757 74.4046L46.9034 74.3052ZM4.80713 50.0009L4.97941 50.1003L47.0757 25.796L46.9034 25.6965L46.7312 25.5971L4.63485 49.9014L4.80713 50.0009ZM46.9034 25.6965L46.7312 25.796L88.8275 50.1003L88.9998 50.0009L89.172 49.9014L47.0757 25.5971L46.9034 25.6965ZM88.9998 50.0009L88.8275 49.9014L46.7312 74.2057L46.9034 74.3052L47.0757 74.4046L89.172 50.1003L88.9998 50.0009ZM46.9034 74.3052L47.0757 74.2057L4.97941 49.9014L4.80713 50.0009L4.63485 50.1003L46.7312 74.4046L46.9034 74.3052Z" fill="#7A7A7A"/>
<path d="M4.80713 46.3914L46.9034 22.087L88.9998 46.3914L46.9034 70.6957L4.80713 46.3914Z" fill="#383838"/>
<path d="M13.2811 46.3859L46.9794 26.9302L80.6777 46.3859L46.9794 65.8416L13.2811 46.3859Z" fill="#222222" stroke="#7A7A7A" stroke-width="0.397858"/>
<path d="M13.2811 34.6612L46.9185 15.2406L80.556 34.6612L46.9185 54.0818L13.2811 34.6612Z" fill="#222222"/>
<path d="M13.2811 34.6612L13.1088 34.5617L12.9365 34.6612L13.1088 34.7607L13.2811 34.6612ZM46.9185 15.2406L47.0908 15.1411L46.9185 15.0417L46.7463 15.1411L46.9185 15.2406ZM80.556 34.6612L80.7283 34.7607L80.9006 34.6612L80.7283 34.5617L80.556 34.6612ZM46.9185 54.0818L46.7463 54.1813L46.9185 54.2807L47.0908 54.1813L46.9185 54.0818ZM13.2811 34.6612L13.4533 34.7607L47.0908 15.34L46.9185 15.2406L46.7463 15.1411L13.1088 34.5617L13.2811 34.6612ZM46.9185 15.2406L46.7463 15.34L80.3838 34.7607L80.556 34.6612L80.7283 34.5617L47.0908 15.1411L46.9185 15.2406ZM80.556 34.6612L80.3838 34.5617L46.7463 53.9823L46.9185 54.0818L47.0908 54.1813L80.7283 34.7607L80.556 34.6612ZM46.9185 54.0818L47.0908 53.9823L13.4533 34.5617L13.2811 34.6612L13.1088 34.7607L46.7463 54.1813L46.9185 54.0818Z" fill="#7A7A7A"/>
<rect x="0.0739294" width="35.9024" height="35.9024" transform="matrix(0.866025 -0.5 0.866025 0.5 15.5425 34.6869)" stroke="#7A7A7A" stroke-width="0.0853663" stroke-dasharray="0.27 0.4"/>
<path d="M16.4415 34.6499L46.6989 17.1807L76.9564 34.6499L46.6989 52.1191L16.4415 34.6499Z" fill="#222222"/>
<path d="M53.5984 41.8379C55.0349 41.8379 56.2639 42.3346 56.7742 43.0381L57.03 43.04V43.7949H57.0261C56.9952 44.8429 55.4728 45.6875 53.5984 45.6875C51.705 45.6874 50.17 44.8255 50.1697 43.7627C50.1697 43.7494 50.1712 43.7359 50.1716 43.7227V43.0098L50.4412 43.0107C50.9627 42.3213 52.1799 41.838 53.5984 41.8379Z" fill="#2534D3"/>
<path d="M53.5984 41.8379V41.6771H53.5984L53.5984 41.8379ZM56.7742 43.0381L56.644 43.1325L56.6917 43.1982L56.7729 43.1989L56.7742 43.0381ZM57.03 43.04H57.1908V42.8805L57.0313 42.8793L57.03 43.04ZM57.03 43.7949V43.9557H57.1908V43.7949H57.03ZM57.0261 43.7949V43.6341H56.87L56.8654 43.7902L57.0261 43.7949ZM53.5984 45.6875L53.5984 45.8483H53.5984V45.6875ZM50.1697 43.7627H50.0089V43.7627L50.1697 43.7627ZM50.1716 43.7227L50.3324 43.7285V43.7227H50.1716ZM50.1716 43.0098L50.1722 42.849L50.0108 42.8484V43.0098H50.1716ZM50.4412 43.0107L50.4406 43.1715L50.5209 43.1718L50.5694 43.1077L50.4412 43.0107ZM53.5984 41.8379V41.9987C54.2988 41.9987 54.9454 42.1199 55.4758 42.3242C56.0083 42.5294 56.4129 42.8139 56.644 43.1325L56.7742 43.0381L56.9043 42.9437C56.6251 42.5588 56.1601 42.2433 55.5914 42.0242C55.0207 41.8043 54.3345 41.6771 53.5984 41.6771V41.8379ZM56.7742 43.0381L56.7729 43.1989L57.0288 43.2008L57.03 43.04L57.0313 42.8793L56.7754 42.8773L56.7742 43.0381ZM57.03 43.04H56.8692V43.7949H57.03H57.1908V43.04H57.03ZM57.03 43.7949V43.6341H57.0261V43.7949V43.9557H57.03V43.7949ZM57.0261 43.7949L56.8654 43.7902C56.8524 44.2322 56.5218 44.6639 55.9257 44.9935C55.3348 45.3202 54.5134 45.5267 53.5984 45.5267V45.6875V45.8483C54.5578 45.8483 55.4347 45.6325 56.0813 45.2749C56.7228 44.9202 57.1689 44.4057 57.1868 43.7997L57.0261 43.7949ZM53.5984 45.6875L53.5984 45.5267C52.674 45.5267 51.8451 45.3159 51.2528 44.9834C50.6555 44.6481 50.3306 44.21 50.3305 43.7627L50.1697 43.7627L50.0089 43.7627C50.0091 44.3782 50.4518 44.9025 51.0954 45.2638C51.7441 45.628 52.6293 45.8482 53.5984 45.8483L53.5984 45.6875ZM50.1697 43.7627H50.3305C50.3305 43.7487 50.3311 43.7621 50.3323 43.7285L50.1716 43.7227L50.011 43.7169C50.0108 43.7205 50.0106 43.7237 50.01 43.7324C50.0096 43.7396 50.0089 43.7506 50.0089 43.7627H50.1697ZM50.1716 43.7227H50.3324V43.0098H50.1716H50.0108V43.7227H50.1716ZM50.1716 43.0098L50.171 43.1705L50.4406 43.1715L50.4412 43.0107L50.4417 42.85L50.1722 42.849L50.1716 43.0098ZM50.4412 43.0107L50.5694 43.1077C51.0476 42.4755 52.2041 41.9988 53.5984 41.9987L53.5984 41.8379L53.5984 41.6771C52.1558 41.6772 50.8778 42.167 50.3129 42.9137L50.4412 43.0107Z" fill="#2534D3"/>
<path d="M53.5988 41.0752C54.582 41.0752 55.4685 41.2991 56.1066 41.6572C56.7469 42.0167 57.1222 42.5019 57.1222 43.0205C57.122 43.5389 56.7467 44.0234 56.1066 44.3828C55.4685 44.741 54.582 44.9648 53.5988 44.9648C52.6155 44.9648 51.729 44.741 51.0909 44.3828C50.4507 44.0234 50.0755 43.5389 50.0753 43.0205C50.0753 42.5019 50.4505 42.0167 51.0909 41.6572C51.729 41.2991 52.6155 41.0752 53.5988 41.0752Z" fill="#222222" stroke="#2534D3" stroke-width="0.15"/>
<path d="M55.0293 42.6826L54.8086 42.8232L54.5146 42.6348C54.5057 42.6635 54.4941 42.6928 54.4756 42.7207C54.4477 42.7636 54.4084 42.8023 54.3623 42.8418L54.5781 42.9805L54.3574 43.1221L54.1436 42.9844C54.0368 43.0358 53.9242 43.0696 53.8047 43.084C53.6416 43.1037 53.4756 43.08 53.3076 43.0127C53.2673 42.9961 53.2335 42.9803 53.2061 42.9658C53.1794 42.9508 53.1475 42.9311 53.1104 42.9072L53.0938 42.8965L53.1709 43.7285L52.7637 43.4678L52.6943 42.6406L52.9668 42.4658L53.3721 42.7256C53.389 42.7364 53.4078 42.7474 53.4287 42.7588C53.4504 42.7707 53.4726 42.7808 53.4951 42.7891C53.5556 42.8113 53.6146 42.8218 53.6719 42.8203C53.7308 42.8188 53.7859 42.8096 53.8359 42.792L53.8398 42.79L53.1602 42.3535L53.3799 42.2119L54.0605 42.6484L54.0635 42.6455C54.0917 42.6129 54.1069 42.5778 54.1094 42.54C54.1126 42.5029 54.0968 42.465 54.0615 42.4268C54.0487 42.4123 54.032 42.3982 54.0127 42.3848C53.995 42.3713 53.9778 42.3585 53.9609 42.3477L53.5557 42.0879L53.8301 41.9121L55.0293 42.6826Z" fill="#2534D3"/>
<path d="M49.5984 42.8379C51.0349 42.8379 52.2639 43.3346 52.7742 44.0381L53.03 44.04V44.7949H53.0261C52.9952 45.8429 51.4728 46.6875 49.5984 46.6875C47.705 46.6874 46.17 45.8255 46.1697 44.7627C46.1697 44.7494 46.1712 44.7359 46.1716 44.7227V44.0098L46.4412 44.0107C46.9627 43.3213 48.1799 42.838 49.5984 42.8379Z" fill="#2534D3"/>
<path d="M49.5984 42.8379V42.6771H49.5984L49.5984 42.8379ZM52.7742 44.0381L52.644 44.1325L52.6917 44.1982L52.7729 44.1989L52.7742 44.0381ZM53.03 44.04H53.1908V43.8805L53.0313 43.8793L53.03 44.04ZM53.03 44.7949V44.9557H53.1908V44.7949H53.03ZM53.0261 44.7949V44.6341H52.87L52.8654 44.7902L53.0261 44.7949ZM49.5984 46.6875L49.5984 46.8483H49.5984V46.6875ZM46.1697 44.7627H46.0089V44.7627L46.1697 44.7627ZM46.1716 44.7227L46.3324 44.7285V44.7227H46.1716ZM46.1716 44.0098L46.1722 43.849L46.0108 43.8484V44.0098H46.1716ZM46.4412 44.0107L46.4406 44.1715L46.5209 44.1718L46.5694 44.1077L46.4412 44.0107ZM49.5984 42.8379V42.9987C50.2988 42.9987 50.9454 43.1199 51.4758 43.3242C52.0083 43.5294 52.4129 43.8139 52.644 44.1325L52.7742 44.0381L52.9043 43.9437C52.6251 43.5588 52.1601 43.2433 51.5914 43.0242C51.0207 42.8043 50.3345 42.6771 49.5984 42.6771V42.8379ZM52.7742 44.0381L52.7729 44.1989L53.0288 44.2008L53.03 44.04L53.0313 43.8793L52.7754 43.8773L52.7742 44.0381ZM53.03 44.04H52.8692V44.7949H53.03H53.1908V44.04H53.03ZM53.03 44.7949V44.6341H53.0261V44.7949V44.9557H53.03V44.7949ZM53.0261 44.7949L52.8654 44.7902C52.8524 45.2322 52.5218 45.6639 51.9257 45.9935C51.3348 46.3202 50.5134 46.5267 49.5984 46.5267V46.6875V46.8483C50.5578 46.8483 51.4347 46.6325 52.0813 46.2749C52.7228 45.9202 53.1689 45.4057 53.1868 44.7997L53.0261 44.7949ZM49.5984 46.6875L49.5984 46.5267C48.674 46.5267 47.8451 46.3159 47.2528 45.9834C46.6555 45.6481 46.3306 45.21 46.3305 44.7627L46.1697 44.7627L46.0089 44.7627C46.0091 45.3782 46.4518 45.9025 47.0954 46.2638C47.7441 46.628 48.6293 46.8482 49.5984 46.8483L49.5984 46.6875ZM46.1697 44.7627H46.3305C46.3305 44.7487 46.3311 44.7621 46.3323 44.7285L46.1716 44.7227L46.011 44.7169C46.0108 44.7205 46.0106 44.7237 46.01 44.7324C46.0096 44.7396 46.0089 44.7506 46.0089 44.7627H46.1697ZM46.1716 44.7227H46.3324V44.0098H46.1716H46.0108V44.7227H46.1716ZM46.1716 44.0098L46.171 44.1705L46.4406 44.1715L46.4412 44.0107L46.4417 43.85L46.1722 43.849L46.1716 44.0098ZM46.4412 44.0107L46.5694 44.1077C47.0476 43.4755 48.2041 42.9988 49.5984 42.9987L49.5984 42.8379L49.5984 42.6771C48.1558 42.6772 46.8778 43.167 46.3129 43.9137L46.4412 44.0107Z" fill="#2534D3"/>
<path d="M49.5988 42.0752C50.582 42.0752 51.4685 42.2991 52.1066 42.6572C52.7469 43.0167 53.1222 43.5019 53.1222 44.0205C53.122 44.5389 52.7467 45.0234 52.1066 45.3828C51.4685 45.741 50.582 45.9648 49.5988 45.9648C48.6155 45.9648 47.729 45.741 47.0909 45.3828C46.4507 45.0234 46.0755 44.5389 46.0753 44.0205C46.0753 43.5019 46.4505 43.0167 47.0909 42.6572C47.729 42.2991 48.6155 42.0752 49.5988 42.0752Z" fill="#222222" stroke="#2534D3" stroke-width="0.15"/>
<path d="M51.0293 43.6826L50.8086 43.8232L50.5146 43.6348C50.5057 43.6635 50.4941 43.6928 50.4756 43.7207C50.4477 43.7636 50.4084 43.8023 50.3623 43.8418L50.5781 43.9805L50.3574 44.1221L50.1436 43.9844C50.0368 44.0358 49.9242 44.0696 49.8047 44.084C49.6416 44.1037 49.4756 44.08 49.3076 44.0127C49.2673 43.9961 49.2335 43.9803 49.2061 43.9658C49.1794 43.9508 49.1475 43.9311 49.1104 43.9072L49.0938 43.8965L49.1709 44.7285L48.7637 44.4678L48.6943 43.6406L48.9668 43.4658L49.3721 43.7256C49.389 43.7364 49.4078 43.7474 49.4287 43.7588C49.4504 43.7707 49.4726 43.7808 49.4951 43.7891C49.5556 43.8113 49.6146 43.8218 49.6719 43.8203C49.7308 43.8188 49.7859 43.8096 49.8359 43.792L49.8398 43.79L49.1602 43.3535L49.3799 43.2119L50.0605 43.6484L50.0635 43.6455C50.0917 43.6129 50.1069 43.5778 50.1094 43.54C50.1126 43.5029 50.0968 43.465 50.0615 43.4268C50.0487 43.4123 50.032 43.3982 50.0127 43.3848C49.995 43.3713 49.9778 43.3585 49.9609 43.3477L49.5557 43.0879L49.8301 42.9121L51.0293 43.6826Z" fill="#2534D3"/>
<path d="M40.0589 41.6016L46.6285 39.361L42.948 34.4028L43.7977 15.3896L38.7035 8.6001L39.8058 36.5319L34.7424 38.5453L40.0589 41.6016Z" fill="#222222"/>
<path d="M47.0342 22.3533L47.1367 22.4109L53.0127 25.7098L53.2861 25.8631L53.3096 25.5496L53.5195 22.7762L53.5264 22.6951L53.4736 22.6326L47.3877 15.3934L47.0342 14.9734V22.3533ZM41.708 12.4705L41.5908 12.4168L35.3857 9.57404L34.498 6.1424L41.54 3.18829L42.5986 3.93341L42.6074 3.93829L42.6162 3.94415L53.8633 10.2606C54.1458 10.4192 54.5233 10.646 54.9951 10.9412L55 10.9432C55.4855 11.2309 55.9173 11.5188 56.2949 11.8065L56.2979 11.8084C58.0407 13.0908 59.4701 14.5397 60.583 16.1551V16.1541L60.791 16.4598V16.4608C61.8122 17.9934 62.5698 19.6077 63.0654 21.2986H63.0664C63.5947 23.0864 63.8584 24.8986 63.8584 26.7322L63.8457 27.4051C63.7864 28.9384 63.5201 30.2192 63.0547 31.2518V31.2527C62.5963 32.2886 61.9143 32.9873 61.0137 33.3699L60.9111 33.4129L60.9072 33.4373L52.4854 36.4656L52.8564 31.5457L52.8682 31.3983L52.7295 31.3445L47.292 29.2332L47.0625 29.1443L47.0225 29.3875L45.6729 37.6434L41.708 36.0623V12.4705Z" fill="#2534D3" stroke="#2534D3" stroke-width="0.4"/>
<path d="M46.4051 32.572V39.2255L39.9696 42.02L39.327 36.9454L39.4167 28.3855L46.4051 32.572Z" fill="#222222" stroke="#2534D3" stroke-width="0.4"/>
<path d="M39.2721 30.1625V13.0916L47.0381 18.2968V22.3128L52.03 24.9982L50.3339 32.2425L39.2721 30.1625Z" fill="#23264E" stroke="#2534D3" stroke-width="0.4"/>
<path d="M47.1116 22.3629L39.8409 24.8633L38.8367 14.5881L39.8409 14.1779L47.1116 18.3192V22.3629Z" fill="#222222" stroke="#2534D3" stroke-width="0.4"/>
<path d="M34.3973 38.9513V6.09161L46.751 13.0287C47.0355 13.1884 47.4148 13.4166 47.8889 13.7132C48.3765 14.0023 48.81 14.2913 49.1893 14.5804C50.9367 15.8658 52.3657 17.3149 53.4765 18.9274C54.6008 20.5476 55.4271 22.259 55.9554 24.0617C56.4836 25.8493 56.7478 27.6634 56.7478 29.5041C56.7478 31.3449 56.4769 32.8662 55.935 34.068C55.4068 35.2622 54.5805 36.038 53.4562 36.3955C52.3454 36.7606 50.9231 36.6085 49.1893 35.9391C48.81 35.787 48.3765 35.5893 47.8889 35.3458C47.4012 35.1024 47.022 34.9047 46.751 34.7525L39.924 30.9189V42.0547L34.3973 38.9513ZM39.924 25.1228L46.5072 28.8196C46.7917 28.9793 47.1032 29.139 47.4419 29.2988C47.7805 29.4585 48.0921 29.5726 48.3765 29.641C49.1215 29.8312 49.6972 29.7742 50.1036 29.4699C50.51 29.1504 50.7877 28.7055 50.9367 28.135C51.0992 27.5569 51.1805 26.9712 51.1805 26.3779C51.1805 25.7846 51.0992 25.1152 50.9367 24.3698C50.7877 23.6168 50.51 22.8599 50.1036 22.0993C49.6972 21.3234 49.1215 20.6122 48.3765 19.9657C48.0921 19.7147 47.7805 19.4789 47.4419 19.2583C47.1032 19.0377 46.7917 18.8476 46.5072 18.6878L39.924 14.9911V25.1228Z" fill="#222222" stroke="#2534D3" stroke-width="0.4"/>
<path d="M27.5984 33.8379C29.0349 33.8379 30.2639 34.3346 30.7742 35.0381L31.03 35.04V35.7949H31.0261C30.9952 36.8429 29.4728 37.6875 27.5984 37.6875C25.705 37.6874 24.17 36.8255 24.1697 35.7627C24.1697 35.7494 24.1712 35.7359 24.1716 35.7227V35.0098L24.4412 35.0107C24.9627 34.3213 26.1799 33.838 27.5984 33.8379Z" fill="#2534D3"/>
<path d="M27.5984 33.8379V33.6771H27.5984L27.5984 33.8379ZM30.7742 35.0381L30.644 35.1325L30.6917 35.1982L30.7729 35.1989L30.7742 35.0381ZM31.03 35.04H31.1908V34.8805L31.0313 34.8793L31.03 35.04ZM31.03 35.7949V35.9557H31.1908V35.7949H31.03ZM31.0261 35.7949V35.6341H30.87L30.8654 35.7902L31.0261 35.7949ZM27.5984 37.6875L27.5984 37.8483H27.5984V37.6875ZM24.1697 35.7627H24.0089V35.7627L24.1697 35.7627ZM24.1716 35.7227L24.3324 35.7285V35.7227H24.1716ZM24.1716 35.0098L24.1722 34.849L24.0108 34.8484V35.0098H24.1716ZM24.4412 35.0107L24.4406 35.1715L24.5209 35.1718L24.5694 35.1077L24.4412 35.0107ZM27.5984 33.8379V33.9987C28.2988 33.9987 28.9454 34.1199 29.4758 34.3242C30.0083 34.5294 30.4129 34.8139 30.644 35.1325L30.7742 35.0381L30.9043 34.9437C30.6251 34.5588 30.1601 34.2433 29.5914 34.0242C29.0207 33.8043 28.3345 33.6771 27.5984 33.6771V33.8379ZM30.7742 35.0381L30.7729 35.1989L31.0288 35.2008L31.03 35.04L31.0313 34.8793L30.7754 34.8773L30.7742 35.0381ZM31.03 35.04H30.8692V35.7949H31.03H31.1908V35.04H31.03ZM31.03 35.7949V35.6341H31.0261V35.7949V35.9557H31.03V35.7949ZM31.0261 35.7949L30.8654 35.7902C30.8524 36.2322 30.5218 36.6639 29.9257 36.9935C29.3348 37.3202 28.5134 37.5267 27.5984 37.5267V37.6875V37.8483C28.5578 37.8483 29.4347 37.6325 30.0813 37.2749C30.7228 36.9202 31.1689 36.4057 31.1868 35.7997L31.0261 35.7949ZM27.5984 37.6875L27.5984 37.5267C26.674 37.5267 25.8451 37.3159 25.2528 36.9834C24.6555 36.6481 24.3306 36.21 24.3305 35.7627L24.1697 35.7627L24.0089 35.7627C24.0091 36.3782 24.4518 36.9025 25.0954 37.2638C25.7441 37.628 26.6293 37.8482 27.5984 37.8483L27.5984 37.6875ZM24.1697 35.7627H24.3305C24.3305 35.7487 24.3311 35.7621 24.3323 35.7285L24.1716 35.7227L24.011 35.7169C24.0108 35.7205 24.0106 35.7237 24.01 35.7324C24.0096 35.7396 24.0089 35.7506 24.0089 35.7627H24.1697ZM24.1716 35.7227H24.3324V35.0098H24.1716H24.0108V35.7227H24.1716ZM24.1716 35.0098L24.171 35.1705L24.4406 35.1715L24.4412 35.0107L24.4417 34.85L24.1722 34.849L24.1716 35.0098ZM24.4412 35.0107L24.5694 35.1077C25.0476 34.4755 26.2041 33.9988 27.5984 33.9987L27.5984 33.8379L27.5984 33.6771C26.1558 33.6772 24.8778 34.167 24.3129 34.9137L24.4412 35.0107Z" fill="#2534D3"/>
<path d="M27.5987 33.0752C28.582 33.0752 29.4685 33.2991 30.1065 33.6572C30.7469 34.0167 31.1221 34.5019 31.1221 35.0205C31.1219 35.5389 30.7467 36.0234 30.1065 36.3828C29.4685 36.741 28.582 36.9648 27.5987 36.9648C26.6154 36.9648 25.7289 36.741 25.0909 36.3828C24.4506 36.0234 24.0755 35.5389 24.0753 35.0205C24.0753 34.5019 24.4505 34.0167 25.0909 33.6572C25.7289 33.2991 26.6154 33.0752 27.5987 33.0752Z" fill="#222222" stroke="#2534D3" stroke-width="0.15"/>
<path d="M29.0293 34.6826L28.8086 34.8232L28.5146 34.6348C28.5057 34.6635 28.4941 34.6928 28.4756 34.7207C28.4477 34.7636 28.4084 34.8023 28.3623 34.8418L28.5781 34.9805L28.3574 35.1221L28.1436 34.9844C28.0368 35.0358 27.9242 35.0696 27.8047 35.084C27.6416 35.1037 27.4756 35.08 27.3076 35.0127C27.2673 34.9961 27.2335 34.9803 27.2061 34.9658C27.1794 34.9508 27.1475 34.9311 27.1104 34.9072L27.0938 34.8965L27.1709 35.7285L26.7637 35.4678L26.6943 34.6406L26.9668 34.4658L27.3721 34.7256C27.389 34.7364 27.4078 34.7474 27.4287 34.7588C27.4504 34.7707 27.4726 34.7808 27.4951 34.7891C27.5556 34.8113 27.6146 34.8218 27.6719 34.8203C27.7308 34.8188 27.7859 34.8096 27.8359 34.792L27.8398 34.79L27.1602 34.3535L27.3799 34.2119L28.0605 34.6484L28.0635 34.6455C28.0917 34.6129 28.1069 34.5778 28.1094 34.54C28.1126 34.5029 28.0968 34.465 28.0615 34.4268C28.0487 34.4123 28.032 34.3982 28.0127 34.3848C27.995 34.3713 27.9778 34.3585 27.9609 34.3477L27.5557 34.0879L27.8301 33.9121L29.0293 34.6826Z" fill="#2534D3"/>
<circle cx="0.807035" cy="0.807035" r="0.807035" transform="matrix(0.866025 -0.5 0.866025 0.5 7.22809 46.2492)" fill="#222222"/>
<circle cx="0.807035" cy="0.807035" r="0.807035" transform="matrix(0.866025 -0.5 0.866025 0.5 45.5813 68.239)" fill="#222222"/>
<ellipse cx="0.477029" cy="0.477029" rx="0.477029" ry="0.477029" transform="matrix(0.866025 -0.5 0.866025 0.5 16.9598 34.6499)" fill="#383838"/>
<ellipse cx="0.477029" cy="0.477029" rx="0.477029" ry="0.477029" transform="matrix(0.866025 -0.5 0.866025 0.5 74.6289 34.5859)" fill="#383838"/>
<circle cx="0.807035" cy="0.807035" r="0.807035" transform="matrix(0.866025 -0.5 0.866025 0.5 83.2913 46.2492)" fill="#222222"/>
<path d="M47.9888 66.5143L52.5287 63.8932L54.1186 64.8111L49.5787 67.4322L47.9888 66.5143Z" fill="#C8D33E"/>
<path d="M53.2347 63.4838L54.9745 62.4793L56.5644 63.3973L54.8247 64.4017L53.2347 63.4838Z" fill="#C8D33E"/>
<path d="M46.9746 54.3878L46.5896 54.7728L46.9746 55.1579L47.3597 54.7728L46.9746 54.3878ZM46.9746 65.0441L47.3597 64.659L46.9746 64.274L46.5896 64.659L46.9746 65.0441ZM46.9079 54.9101C46.9079 54.947 46.9378 54.9768 46.9746 54.9768C47.0114 54.9768 47.0413 54.947 47.0413 54.9101L46.9746 54.9101L46.9079 54.9101ZM47.0413 55.4594C47.0413 55.4225 47.0114 55.3927 46.9746 55.3927C46.9378 55.3927 46.9079 55.4225 46.9079 55.4594L46.9746 55.4594L47.0413 55.4594ZM46.9079 55.734C46.9079 55.7708 46.9378 55.8007 46.9746 55.8007C47.0114 55.8007 47.0413 55.7708 47.0413 55.734L46.9746 55.734L46.9079 55.734ZM47.0413 56.2832C47.0413 56.2464 47.0114 56.2165 46.9746 56.2165C46.9378 56.2165 46.9079 56.2464 46.9079 56.2832L46.9746 56.2832L47.0413 56.2832ZM46.9079 56.5578C46.9079 56.5947 46.9378 56.6245 46.9746 56.6245C47.0114 56.6245 47.0413 56.5947 47.0413 56.5578L46.9746 56.5578L46.9079 56.5578ZM47.0413 57.1071C47.0413 57.0702 47.0114 57.0404 46.9746 57.0404C46.9378 57.0404 46.9079 57.0702 46.9079 57.1071L46.9746 57.1071L47.0413 57.1071ZM46.9079 57.3817C46.9079 57.4185 46.9378 57.4484 46.9746 57.4484C47.0114 57.4484 47.0413 57.4185 47.0413 57.3817L46.9746 57.3817L46.9079 57.3817ZM47.0413 57.9309C47.0413 57.8941 47.0114 57.8642 46.9746 57.8642C46.9378 57.8642 46.9079 57.8941 46.9079 57.9309L46.9746 57.9309L47.0413 57.9309ZM46.9079 58.2055C46.9079 58.2424 46.9378 58.2722 46.9746 58.2722C47.0114 58.2722 47.0413 58.2424 47.0413 58.2055L46.9746 58.2055L46.9079 58.2055ZM47.0413 58.7548C47.0413 58.7179 47.0114 58.6881 46.9746 58.6881C46.9378 58.6881 46.9079 58.7179 46.9079 58.7548L46.9746 58.7548L47.0413 58.7548ZM46.9079 59.0294C46.9079 59.0662 46.9378 59.0961 46.9746 59.0961C47.0114 59.0961 47.0413 59.0662 47.0413 59.0294L46.9746 59.0294L46.9079 59.0294ZM47.0413 59.5786C47.0413 59.5418 47.0114 59.5119 46.9746 59.5119C46.9378 59.5119 46.9079 59.5418 46.9079 59.5786L46.9746 59.5786L47.0413 59.5786ZM46.9079 59.8532C46.9079 59.8901 46.9378 59.9199 46.9746 59.9199C47.0114 59.9199 47.0413 59.8901 47.0413 59.8532L46.9746 59.8532L46.9079 59.8532ZM47.0413 60.4025C47.0413 60.3656 47.0114 60.3358 46.9746 60.3358C46.9378 60.3358 46.9079 60.3656 46.9079 60.4025L46.9746 60.4025L47.0413 60.4025ZM46.9079 60.6771C46.9079 60.7139 46.9378 60.7438 46.9746 60.7438C47.0114 60.7438 47.0413 60.7139 47.0413 60.6771L46.9746 60.6771L46.9079 60.6771ZM47.0413 61.2263C47.0413 61.1895 47.0114 61.1596 46.9746 61.1596C46.9378 61.1596 46.9079 61.1895 46.9079 61.2263L46.9746 61.2263L47.0413 61.2263ZM46.9079 61.5009C46.9079 61.5378 46.9378 61.5676 46.9746 61.5676C47.0114 61.5676 47.0413 61.5378 47.0413 61.5009L46.9746 61.5009L46.9079 61.5009ZM47.0413 62.0501C47.0413 62.0133 47.0114 61.9835 46.9746 61.9835C46.9378 61.9835 46.9079 62.0133 46.9079 62.0501L46.9746 62.0501L47.0413 62.0501ZM46.9079 62.3248C46.9079 62.3616 46.9378 62.3915 46.9746 62.3915C47.0114 62.3915 47.0413 62.3616 47.0413 62.3248L46.9746 62.3248L46.9079 62.3248ZM47.0413 62.874C47.0413 62.8372 47.0114 62.8073 46.9746 62.8073C46.9378 62.8073 46.9079 62.8372 46.9079 62.874L46.9746 62.874L47.0413 62.874ZM46.9079 63.1486C46.9079 63.1854 46.9378 63.2153 46.9746 63.2153C47.0114 63.2153 47.0413 63.1854 47.0413 63.1486L46.9746 63.1486L46.9079 63.1486ZM47.0413 63.6978C47.0413 63.661 47.0114 63.6312 46.9746 63.6312C46.9378 63.6312 46.9079 63.661 46.9079 63.6978L46.9746 63.6978L47.0413 63.6978ZM46.9079 63.9725C46.9079 64.0093 46.9378 64.0392 46.9746 64.0392C47.0114 64.0392 47.0413 64.0093 47.0413 63.9725L46.9746 63.9725L46.9079 63.9725ZM47.0413 64.5217C47.0413 64.4849 47.0114 64.455 46.9746 64.455C46.9378 64.455 46.9079 64.4849 46.9079 64.5217L46.9746 64.5217L47.0413 64.5217ZM46.9746 54.7728L46.9079 54.7728L46.9079 54.9101L46.9746 54.9101L47.0413 54.9101L47.0413 54.7728L46.9746 54.7728ZM46.9746 55.4594L46.9079 55.4594L46.9079 55.734L46.9746 55.734L47.0413 55.734L47.0413 55.4594L46.9746 55.4594ZM46.9746 56.2832L46.9079 56.2832L46.9079 56.5578L46.9746 56.5578L47.0413 56.5578L47.0413 56.2832L46.9746 56.2832ZM46.9746 57.1071L46.9079 57.1071L46.9079 57.3817L46.9746 57.3817L47.0413 57.3817L47.0413 57.1071L46.9746 57.1071ZM46.9746 57.9309L46.9079 57.9309L46.9079 58.2055L46.9746 58.2055L47.0413 58.2055L47.0413 57.9309L46.9746 57.9309ZM46.9746 58.7548L46.9079 58.7548L46.9079 59.0294L46.9746 59.0294L47.0413 59.0294L47.0413 58.7548L46.9746 58.7548ZM46.9746 59.5786L46.9079 59.5786L46.9079 59.8532L46.9746 59.8532L47.0413 59.8532L47.0413 59.5786L46.9746 59.5786ZM46.9746 60.4025L46.9079 60.4025L46.9079 60.6771L46.9746 60.6771L47.0413 60.6771L47.0413 60.4025L46.9746 60.4025ZM46.9746 61.2263L46.9079 61.2263L46.9079 61.5009L46.9746 61.5009L47.0413 61.5009L47.0413 61.2263L46.9746 61.2263ZM46.9746 62.0501L46.9079 62.0501L46.9079 62.3248L46.9746 62.3248L47.0413 62.3248L47.0413 62.0501L46.9746 62.0501ZM46.9746 62.874L46.9079 62.874L46.9079 63.1486L46.9746 63.1486L47.0413 63.1486L47.0413 62.874L46.9746 62.874ZM46.9746 63.6978L46.9079 63.6978L46.9079 63.9725L46.9746 63.9725L47.0413 63.9725L47.0413 63.6978L46.9746 63.6978ZM46.9746 64.5217L46.9079 64.5217L46.9079 64.659L46.9746 64.659L47.0413 64.659L47.0413 64.5217L46.9746 64.5217Z" fill="#E9E9E9"/>
<path d="M13.56 35.1869L13.1749 35.5719L13.56 35.9569L13.945 35.5719L13.56 35.1869ZM13.56 45.8274L13.945 45.4424L13.56 45.0573L13.1749 45.4424L13.56 45.8274ZM13.4933 35.709C13.4933 35.7458 13.5232 35.7757 13.56 35.7757C13.5968 35.7757 13.6267 35.7458 13.6267 35.709L13.56 35.709L13.4933 35.709ZM13.6267 36.2573C13.6267 36.2205 13.5968 36.1907 13.56 36.1907C13.5232 36.1907 13.4933 36.2205 13.4933 36.2573L13.56 36.2573L13.6267 36.2573ZM13.4933 36.5315C13.4933 36.5684 13.5232 36.5982 13.56 36.5982C13.5968 36.5982 13.6267 36.5684 13.6267 36.5315L13.56 36.5315L13.4933 36.5315ZM13.6267 37.0799C13.6267 37.0431 13.5968 37.0132 13.56 37.0132C13.5232 37.0132 13.4933 37.0431 13.4933 37.0799L13.56 37.0799L13.6267 37.0799ZM13.4933 37.3541C13.4933 37.3909 13.5232 37.4208 13.56 37.4208C13.5968 37.4208 13.6267 37.3909 13.6267 37.3541L13.56 37.3541L13.4933 37.3541ZM13.6267 37.9024C13.6267 37.8656 13.5968 37.8357 13.56 37.8357C13.5232 37.8357 13.4933 37.8656 13.4933 37.9024L13.56 37.9024L13.6267 37.9024ZM13.4933 38.1766C13.4933 38.2134 13.5232 38.2433 13.56 38.2433C13.5968 38.2433 13.6267 38.2134 13.6267 38.1766L13.56 38.1766L13.4933 38.1766ZM13.6267 38.725C13.6267 38.6881 13.5968 38.6583 13.56 38.6583C13.5232 38.6583 13.4933 38.6881 13.4933 38.725L13.56 38.725L13.6267 38.725ZM13.4933 38.9992C13.4933 39.036 13.5232 39.0658 13.56 39.0658C13.5968 39.0658 13.6267 39.036 13.6267 38.9992L13.56 38.9992L13.4933 38.9992ZM13.6267 39.5475C13.6267 39.5107 13.5968 39.4808 13.56 39.4808C13.5232 39.4808 13.4933 39.5107 13.4933 39.5475L13.56 39.5475L13.6267 39.5475ZM13.4933 39.8217C13.4933 39.8585 13.5232 39.8884 13.56 39.8884C13.5968 39.8884 13.6267 39.8585 13.6267 39.8217L13.56 39.8217L13.4933 39.8217ZM13.6267 40.3701C13.6267 40.3332 13.5968 40.3034 13.56 40.3034C13.5232 40.3034 13.4933 40.3332 13.4933 40.3701L13.56 40.3701L13.6267 40.3701ZM13.4933 40.6442C13.4933 40.6811 13.5232 40.7109 13.56 40.7109C13.5968 40.7109 13.6267 40.6811 13.6267 40.6442L13.56 40.6442L13.4933 40.6442ZM13.6267 41.1926C13.6267 41.1558 13.5968 41.1259 13.56 41.1259C13.5232 41.1259 13.4933 41.1558 13.4933 41.1926L13.56 41.1926L13.6267 41.1926ZM13.4933 41.4668C13.4933 41.5036 13.5232 41.5335 13.56 41.5335C13.5968 41.5335 13.6267 41.5036 13.6267 41.4668L13.56 41.4668L13.4933 41.4668ZM13.6267 42.0151C13.6267 41.9783 13.5968 41.9484 13.56 41.9484C13.5232 41.9484 13.4933 41.9783 13.4933 42.0151L13.56 42.0151L13.6267 42.0151ZM13.4933 42.2893C13.4933 42.3261 13.5232 42.356 13.56 42.356C13.5968 42.356 13.6267 42.3261 13.6267 42.2893L13.56 42.2893L13.4933 42.2893ZM13.6267 42.8377C13.6267 42.8008 13.5968 42.771 13.56 42.771C13.5232 42.771 13.4933 42.8008 13.4933 42.8377L13.56 42.8377L13.6267 42.8377ZM13.4933 43.1119C13.4933 43.1487 13.5232 43.1785 13.56 43.1785C13.5968 43.1785 13.6267 43.1487 13.6267 43.1119L13.56 43.1119L13.4933 43.1119ZM13.6267 43.6602C13.6267 43.6234 13.5968 43.5935 13.56 43.5935C13.5232 43.5935 13.4933 43.6234 13.4933 43.6602L13.56 43.6602L13.6267 43.6602ZM13.4933 43.9344C13.4933 43.9712 13.5232 44.0011 13.56 44.0011C13.5968 44.0011 13.6267 43.9712 13.6267 43.9344L13.56 43.9344L13.4933 43.9344ZM13.6267 44.4828C13.6267 44.4459 13.5968 44.4161 13.56 44.4161C13.5232 44.4161 13.4933 44.4459 13.4933 44.4828L13.56 44.4828L13.6267 44.4828ZM13.4933 44.7569C13.4933 44.7938 13.5232 44.8236 13.56 44.8236C13.5968 44.8236 13.6267 44.7938 13.6267 44.7569L13.56 44.7569L13.4933 44.7569ZM13.6267 45.3053C13.6267 45.2685 13.5968 45.2386 13.56 45.2386C13.5232 45.2386 13.4933 45.2685 13.4933 45.3053L13.56 45.3053L13.6267 45.3053ZM13.56 35.5719L13.4933 35.5719L13.4933 35.709L13.56 35.709L13.6267 35.709L13.6267 35.5719L13.56 35.5719ZM13.56 36.2573L13.4933 36.2573L13.4933 36.5315L13.56 36.5315L13.6267 36.5315L13.6267 36.2573L13.56 36.2573ZM13.56 37.0799L13.4933 37.0799L13.4933 37.3541L13.56 37.3541L13.6267 37.3541L13.6267 37.0799L13.56 37.0799ZM13.56 37.9024L13.4933 37.9024L13.4933 38.1766L13.56 38.1766L13.6267 38.1766L13.6267 37.9024L13.56 37.9024ZM13.56 38.725L13.4933 38.725L13.4933 38.9992L13.56 38.9992L13.6267 38.9992L13.6267 38.725L13.56 38.725ZM13.56 39.5475L13.4933 39.5475L13.4933 39.8217L13.56 39.8217L13.6267 39.8217L13.6267 39.5475L13.56 39.5475ZM13.56 40.3701L13.4933 40.3701L13.4933 40.6442L13.56 40.6442L13.6267 40.6442L13.6267 40.3701L13.56 40.3701ZM13.56 41.1926L13.4933 41.1926L13.4933 41.4668L13.56 41.4668L13.6267 41.4668L13.6267 41.1926L13.56 41.1926ZM13.56 42.0151L13.4933 42.0151L13.4933 42.2893L13.56 42.2893L13.6267 42.2893L13.6267 42.0151L13.56 42.0151ZM13.56 42.8377L13.4933 42.8377L13.4933 43.1119L13.56 43.1119L13.6267 43.1119L13.6267 42.8377L13.56 42.8377ZM13.56 43.6602L13.4933 43.6602L13.4933 43.9344L13.56 43.9344L13.6267 43.9344L13.6267 43.6602L13.56 43.6602ZM13.56 44.4828L13.4933 44.4828L13.4933 44.7569L13.56 44.7569L13.6267 44.7569L13.6267 44.4828L13.56 44.4828ZM13.56 45.3053L13.4933 45.3053L13.4933 45.4424L13.56 45.4424L13.6267 45.4424L13.6267 45.3053L13.56 45.3053Z" fill="#E9E9E9"/>
<path d="M80.4001 35.1869L80.0151 35.5719L80.4001 35.9569L80.7852 35.5719L80.4001 35.1869ZM80.4001 45.8274L80.7852 45.4424L80.4001 45.0573L80.0151 45.4424L80.4001 45.8274ZM80.3335 35.709C80.3335 35.7458 80.3633 35.7757 80.4001 35.7757C80.437 35.7757 80.4668 35.7458 80.4668 35.709L80.4001 35.709L80.3335 35.709ZM80.4668 36.2573C80.4668 36.2205 80.437 36.1907 80.4001 36.1907C80.3633 36.1907 80.3335 36.2205 80.3335 36.2573L80.4001 36.2573L80.4668 36.2573ZM80.3335 36.5315C80.3335 36.5684 80.3633 36.5982 80.4001 36.5982C80.437 36.5982 80.4668 36.5684 80.4668 36.5315L80.4001 36.5315L80.3335 36.5315ZM80.4668 37.0799C80.4668 37.0431 80.437 37.0132 80.4001 37.0132C80.3633 37.0132 80.3335 37.0431 80.3335 37.0799L80.4001 37.0799L80.4668 37.0799ZM80.3335 37.3541C80.3335 37.3909 80.3633 37.4208 80.4001 37.4208C80.437 37.4208 80.4668 37.3909 80.4668 37.3541L80.4001 37.3541L80.3335 37.3541ZM80.4668 37.9024C80.4668 37.8656 80.437 37.8357 80.4001 37.8357C80.3633 37.8357 80.3335 37.8656 80.3335 37.9024L80.4001 37.9024L80.4668 37.9024ZM80.3335 38.1766C80.3335 38.2134 80.3633 38.2433 80.4001 38.2433C80.437 38.2433 80.4668 38.2134 80.4668 38.1766L80.4001 38.1766L80.3335 38.1766ZM80.4668 38.725C80.4668 38.6881 80.437 38.6583 80.4001 38.6583C80.3633 38.6583 80.3335 38.6881 80.3335 38.725L80.4001 38.725L80.4668 38.725ZM80.3335 38.9992C80.3335 39.036 80.3633 39.0658 80.4001 39.0658C80.437 39.0658 80.4668 39.036 80.4668 38.9992L80.4001 38.9992L80.3335 38.9992ZM80.4668 39.5475C80.4668 39.5107 80.437 39.4808 80.4001 39.4808C80.3633 39.4808 80.3335 39.5107 80.3335 39.5475L80.4001 39.5475L80.4668 39.5475ZM80.3335 39.8217C80.3335 39.8585 80.3633 39.8884 80.4001 39.8884C80.437 39.8884 80.4668 39.8585 80.4668 39.8217L80.4001 39.8217L80.3335 39.8217ZM80.4668 40.3701C80.4668 40.3332 80.437 40.3034 80.4001 40.3034C80.3633 40.3034 80.3335 40.3332 80.3335 40.3701L80.4001 40.3701L80.4668 40.3701ZM80.3335 40.6442C80.3335 40.6811 80.3633 40.7109 80.4001 40.7109C80.437 40.7109 80.4668 40.6811 80.4668 40.6442L80.4001 40.6442L80.3335 40.6442ZM80.4668 41.1926C80.4668 41.1558 80.437 41.1259 80.4001 41.1259C80.3633 41.1259 80.3335 41.1558 80.3335 41.1926L80.4001 41.1926L80.4668 41.1926ZM80.3335 41.4668C80.3335 41.5036 80.3633 41.5335 80.4001 41.5335C80.437 41.5335 80.4668 41.5036 80.4668 41.4668L80.4001 41.4668L80.3335 41.4668ZM80.4668 42.0151C80.4668 41.9783 80.437 41.9484 80.4001 41.9484C80.3633 41.9484 80.3335 41.9783 80.3335 42.0151L80.4001 42.0151L80.4668 42.0151ZM80.3335 42.2893C80.3335 42.3261 80.3633 42.356 80.4001 42.356C80.437 42.356 80.4668 42.3261 80.4668 42.2893L80.4001 42.2893L80.3335 42.2893ZM80.4668 42.8377C80.4668 42.8008 80.437 42.771 80.4001 42.771C80.3633 42.771 80.3335 42.8008 80.3335 42.8377L80.4001 42.8377L80.4668 42.8377ZM80.3335 43.1119C80.3335 43.1487 80.3633 43.1785 80.4001 43.1785C80.437 43.1785 80.4668 43.1487 80.4668 43.1119L80.4001 43.1119L80.3335 43.1119ZM80.4668 43.6602C80.4668 43.6234 80.437 43.5935 80.4001 43.5935C80.3633 43.5935 80.3335 43.6234 80.3335 43.6602L80.4001 43.6602L80.4668 43.6602ZM80.3335 43.9344C80.3335 43.9712 80.3633 44.0011 80.4001 44.0011C80.437 44.0011 80.4668 43.9712 80.4668 43.9344L80.4001 43.9344L80.3335 43.9344ZM80.4668 44.4828C80.4668 44.4459 80.437 44.4161 80.4001 44.4161C80.3633 44.4161 80.3335 44.4459 80.3335 44.4828L80.4001 44.4828L80.4668 44.4828ZM80.3335 44.7569C80.3335 44.7938 80.3633 44.8236 80.4001 44.8236C80.437 44.8236 80.4668 44.7938 80.4668 44.7569L80.4001 44.7569L80.3335 44.7569ZM80.4668 45.3053C80.4668 45.2685 80.437 45.2386 80.4001 45.2386C80.3633 45.2386 80.3335 45.2685 80.3335 45.3053L80.4001 45.3053L80.4668 45.3053ZM80.4001 35.5719L80.3335 35.5719L80.3335 35.709L80.4001 35.709L80.4668 35.709L80.4668 35.5719L80.4001 35.5719ZM80.4001 36.2573L80.3335 36.2573L80.3335 36.5315L80.4001 36.5315L80.4668 36.5315L80.4668 36.2573L80.4001 36.2573ZM80.4001 37.0799L80.3335 37.0799L80.3335 37.3541L80.4001 37.3541L80.4668 37.3541L80.4668 37.0799L80.4001 37.0799ZM80.4001 37.9024L80.3335 37.9024L80.3335 38.1766L80.4001 38.1766L80.4668 38.1766L80.4668 37.9024L80.4001 37.9024ZM80.4001 38.725L80.3335 38.725L80.3335 38.9992L80.4001 38.9992L80.4668 38.9992L80.4668 38.725L80.4001 38.725ZM80.4001 39.5475L80.3335 39.5475L80.3335 39.8217L80.4001 39.8217L80.4668 39.8217L80.4668 39.5475L80.4001 39.5475ZM80.4001 40.3701L80.3335 40.3701L80.3335 40.6442L80.4001 40.6442L80.4668 40.6442L80.4668 40.3701L80.4001 40.3701ZM80.4001 41.1926L80.3335 41.1926L80.3335 41.4668L80.4001 41.4668L80.4668 41.4668L80.4668 41.1926L80.4001 41.1926ZM80.4001 42.0151L80.3335 42.0151L80.3335 42.2893L80.4001 42.2893L80.4668 42.2893L80.4668 42.0151L80.4001 42.0151ZM80.4001 42.8377L80.3335 42.8377L80.3335 43.1119L80.4001 43.1119L80.4668 43.1119L80.4668 42.8377L80.4001 42.8377ZM80.4001 43.6602L80.3335 43.6602L80.3335 43.9344L80.4001 43.9344L80.4668 43.9344L80.4668 43.6602L80.4001 43.6602ZM80.4001 44.4828L80.3335 44.4828L80.3335 44.7569L80.4001 44.7569L80.4668 44.7569L80.4668 44.4828L80.4001 44.4828ZM80.4001 45.3053L80.3335 45.3053L80.3335 45.4424L80.4001 45.4424L80.4668 45.4424L80.4668 45.3053L80.4001 45.3053Z" fill="#E9E9E9"/>
</svg>
