<svg width="95" height="80" viewBox="0 0 95 80" fill="none" xmlns="http://www.w3.org/2000/svg">
<path d="M5.59912 50.0009L47.6954 25.6965L89.7917 50.0009L47.6954 74.3052L5.59912 50.0009Z" fill="#222222"/>
<path d="M5.59912 50.0009L5.42684 49.9014L5.25457 50.0009L5.42684 50.1003L5.59912 50.0009ZM47.6954 25.6965L47.8677 25.5971L47.6954 25.4976L47.5232 25.5971L47.6954 25.6965ZM89.7917 50.0009L89.964 50.1003L90.1363 50.0009L89.964 49.9014L89.7917 50.0009ZM47.6954 74.3052L47.5232 74.4046L47.6954 74.5041L47.8677 74.4046L47.6954 74.3052ZM5.59912 50.0009L5.7714 50.1003L47.8677 25.796L47.6954 25.6965L47.5232 25.5971L5.42684 49.9014L5.59912 50.0009ZM47.6954 25.6965L47.5232 25.796L89.6195 50.1003L89.7917 50.0009L89.964 49.9014L47.8677 25.5971L47.6954 25.6965ZM89.7917 50.0009L89.6195 49.9014L47.5232 74.2057L47.6954 74.3052L47.8677 74.4046L89.964 50.1003L89.7917 50.0009ZM47.6954 74.3052L47.8677 74.2057L5.7714 49.9014L5.59912 50.0009L5.42684 50.1003L47.5232 74.4046L47.6954 74.3052Z" fill="#7A7A7A"/>
<path d="M5.59912 46.3914L47.6954 22.087L89.7917 46.3914L47.6954 70.6957L5.59912 46.3914Z" fill="#383838"/>
<path d="M14.073 46.3859L47.7713 26.9302L81.4696 46.3859L47.7713 65.8416L14.073 46.3859Z" fill="#222222" stroke="#7A7A7A" stroke-width="0.397858"/>
<path d="M14.073 34.6612L47.7105 15.2406L81.348 34.6612L47.7105 54.0818L14.073 34.6612Z" fill="#222222"/>
<path d="M14.073 34.6612L13.9007 34.5617L13.7284 34.6612L13.9007 34.7607L14.073 34.6612ZM47.7105 15.2406L47.8828 15.1411L47.7105 15.0417L47.5382 15.1411L47.7105 15.2406ZM81.348 34.6612L81.5202 34.7607L81.6925 34.6612L81.5202 34.5617L81.348 34.6612ZM47.7105 54.0818L47.5382 54.1813L47.7105 54.2807L47.8828 54.1813L47.7105 54.0818ZM14.073 34.6612L14.2453 34.7607L47.8828 15.34L47.7105 15.2406L47.5382 15.1411L13.9007 34.5617L14.073 34.6612ZM47.7105 15.2406L47.5382 15.34L81.1757 34.7607L81.348 34.6612L81.5202 34.5617L47.8828 15.1411L47.7105 15.2406ZM81.348 34.6612L81.1757 34.5617L47.5382 53.9823L47.7105 54.0818L47.8828 54.1813L81.5202 34.7607L81.348 34.6612ZM47.7105 54.0818L47.8828 53.9823L14.2453 34.5617L14.073 34.6612L13.9007 34.7607L47.5382 54.1813L47.7105 54.0818Z" fill="#7A7A7A"/>
<rect x="0.0739294" width="35.9024" height="35.9024" transform="matrix(0.866025 -0.5 0.866025 0.5 16.3345 34.6869)" stroke="#7A7A7A" stroke-width="0.0853663" stroke-dasharray="0.27 0.4"/>
<path d="M17.2334 34.6499L47.4909 17.1807L77.7483 34.6499L47.4909 52.1191L17.2334 34.6499Z" fill="#222222"/>
<path d="M34.2522 25.5769L47.1618 29.3745L57.407 23.4595L55.1404 31.7216L68.05 35.5193L53.7396 36.8279L51.4731 45.09L44.8953 37.6367L30.5849 38.9453L40.83 33.0302L34.2522 25.5769Z" fill="#222222" stroke="#383838" stroke-width="0.23053"/>
<path d="M67.8577 35.7267L53.7239 37.0197L53.5872 37.0314L53.551 37.1652L51.675 44.0206V24.8859L53.8987 16.631L67.8577 15.3702V35.7267Z" fill="#242B7A" stroke="#2534D3" stroke-width="0.397858"/>
<path d="M40.3518 8.84564V8.84467L43.7258 10.7939L38.7444 27.663L34.4543 25.457C34.4829 23.2445 34.5085 21.4491 34.5325 19.8642L34.6731 11.0497C34.6963 9.51522 34.7199 7.78341 34.7473 5.66693L40.3518 8.84564Z" fill="#222222" stroke="#2534D3" stroke-width="0.397858"/>
<path d="M57.3239 3.70547C57.3363 5.22508 57.3024 5.90398 57.2653 6.5834C57.2234 7.34794 57.1812 8.1134 57.2086 10.0434L56.7701 11.6361L52.2067 10.4838L57.3239 3.70547Z" fill="#242B7A" stroke="#2534D3" stroke-width="0.397858"/>
<path d="M51.3412 24.5791V44.8623L45.0033 37.6582L44.9379 37.583L44.8383 37.5908L30.7865 38.7227V18.4404L33.2963 18.2715L44.807 17.457L51.3412 24.5791Z" fill="#222222" stroke="#2534D3" stroke-width="0.397858"/>
<path d="M34.3991 5.21227L47.3087 9.00996L57.5539 3.09493L55.2873 11.3571L68.197 15.1547L53.8865 16.4633L51.5521 24.5561L44.7691 17.2707L30.6191 18.2473L40.865 12.5593L34.3991 5.21227Z" fill="#2534D3" stroke="#2534D3" stroke-width="0.318286" stroke-linejoin="bevel"/>
<path d="M44.8557 17.5888V37.5815" stroke="#2534D3" stroke-width="0.397858"/>
<path d="M54.0205 16.6954L53.688 37.1293" stroke="#2534D3" stroke-width="0.397858"/>
<circle cx="0.807035" cy="0.807035" r="0.807035" transform="matrix(0.866025 -0.5 0.866025 0.5 8.02002 46.2492)" fill="#222222"/>
<circle cx="0.807035" cy="0.807035" r="0.807035" transform="matrix(0.866025 -0.5 0.866025 0.5 46.3733 68.239)" fill="#222222"/>
<ellipse cx="0.477029" cy="0.477029" rx="0.477029" ry="0.477029" transform="matrix(0.866025 -0.5 0.866025 0.5 17.7518 34.6499)" fill="#7A7A7A"/>
<ellipse cx="0.477029" cy="0.477029" rx="0.477029" ry="0.477029" transform="matrix(0.866025 -0.5 0.866025 0.5 75.4209 34.5859)" fill="#7A7A7A"/>
<circle cx="0.807035" cy="0.807035" r="0.807035" transform="matrix(0.866025 -0.5 0.866025 0.5 84.0833 46.2492)" fill="#222222"/>
<path d="M48.7808 66.5143L53.3207 63.8932L54.9106 64.8111L50.3707 67.4322L48.7808 66.5143Z" fill="#C8D33E"/>
<path d="M54.0267 63.4838L55.7665 62.4793L57.3564 63.3973L55.6167 64.4017L54.0267 63.4838Z" fill="#C8D33E"/>
<path d="M47.7666 54.3878L47.3816 54.7728L47.7666 55.1579L48.1517 54.7728L47.7666 54.3878ZM47.7666 65.0441L48.1517 64.659L47.7666 64.274L47.3816 64.659L47.7666 65.0441ZM47.6999 54.9101C47.6999 54.947 47.7298 54.9768 47.7666 54.9768C47.8034 54.9768 47.8333 54.947 47.8333 54.9101L47.7666 54.9101L47.6999 54.9101ZM47.8333 55.4594C47.8333 55.4225 47.8034 55.3927 47.7666 55.3927C47.7298 55.3927 47.6999 55.4225 47.6999 55.4594L47.7666 55.4594L47.8333 55.4594ZM47.6999 55.734C47.6999 55.7708 47.7298 55.8007 47.7666 55.8007C47.8034 55.8007 47.8333 55.7708 47.8333 55.734L47.7666 55.734L47.6999 55.734ZM47.8333 56.2832C47.8333 56.2464 47.8034 56.2165 47.7666 56.2165C47.7298 56.2165 47.6999 56.2464 47.6999 56.2832L47.7666 56.2832L47.8333 56.2832ZM47.6999 56.5578C47.6999 56.5947 47.7298 56.6245 47.7666 56.6245C47.8034 56.6245 47.8333 56.5947 47.8333 56.5578L47.7666 56.5578L47.6999 56.5578ZM47.8333 57.1071C47.8333 57.0702 47.8034 57.0404 47.7666 57.0404C47.7298 57.0404 47.6999 57.0702 47.6999 57.1071L47.7666 57.1071L47.8333 57.1071ZM47.6999 57.3817C47.6999 57.4185 47.7298 57.4484 47.7666 57.4484C47.8034 57.4484 47.8333 57.4185 47.8333 57.3817L47.7666 57.3817L47.6999 57.3817ZM47.8333 57.9309C47.8333 57.8941 47.8034 57.8642 47.7666 57.8642C47.7298 57.8642 47.6999 57.8941 47.6999 57.9309L47.7666 57.9309L47.8333 57.9309ZM47.6999 58.2055C47.6999 58.2424 47.7298 58.2722 47.7666 58.2722C47.8034 58.2722 47.8333 58.2424 47.8333 58.2055L47.7666 58.2055L47.6999 58.2055ZM47.8333 58.7548C47.8333 58.7179 47.8034 58.6881 47.7666 58.6881C47.7298 58.6881 47.6999 58.7179 47.6999 58.7548L47.7666 58.7548L47.8333 58.7548ZM47.6999 59.0294C47.6999 59.0662 47.7298 59.0961 47.7666 59.0961C47.8034 59.0961 47.8333 59.0662 47.8333 59.0294L47.7666 59.0294L47.6999 59.0294ZM47.8333 59.5786C47.8333 59.5418 47.8034 59.5119 47.7666 59.5119C47.7298 59.5119 47.6999 59.5418 47.6999 59.5786L47.7666 59.5786L47.8333 59.5786ZM47.6999 59.8532C47.6999 59.8901 47.7298 59.9199 47.7666 59.9199C47.8034 59.9199 47.8333 59.8901 47.8333 59.8532L47.7666 59.8532L47.6999 59.8532ZM47.8333 60.4025C47.8333 60.3656 47.8034 60.3358 47.7666 60.3358C47.7298 60.3358 47.6999 60.3656 47.6999 60.4025L47.7666 60.4025L47.8333 60.4025ZM47.6999 60.6771C47.6999 60.7139 47.7298 60.7438 47.7666 60.7438C47.8034 60.7438 47.8333 60.7139 47.8333 60.6771L47.7666 60.6771L47.6999 60.6771ZM47.8333 61.2263C47.8333 61.1895 47.8034 61.1596 47.7666 61.1596C47.7298 61.1596 47.6999 61.1895 47.6999 61.2263L47.7666 61.2263L47.8333 61.2263ZM47.6999 61.5009C47.6999 61.5378 47.7298 61.5676 47.7666 61.5676C47.8034 61.5676 47.8333 61.5378 47.8333 61.5009L47.7666 61.5009L47.6999 61.5009ZM47.8333 62.0501C47.8333 62.0133 47.8034 61.9835 47.7666 61.9835C47.7298 61.9835 47.6999 62.0133 47.6999 62.0501L47.7666 62.0501L47.8333 62.0501ZM47.6999 62.3248C47.6999 62.3616 47.7298 62.3915 47.7666 62.3915C47.8034 62.3915 47.8333 62.3616 47.8333 62.3248L47.7666 62.3248L47.6999 62.3248ZM47.8333 62.874C47.8333 62.8372 47.8034 62.8073 47.7666 62.8073C47.7298 62.8073 47.6999 62.8372 47.6999 62.874L47.7666 62.874L47.8333 62.874ZM47.6999 63.1486C47.6999 63.1854 47.7298 63.2153 47.7666 63.2153C47.8034 63.2153 47.8333 63.1854 47.8333 63.1486L47.7666 63.1486L47.6999 63.1486ZM47.8333 63.6978C47.8333 63.661 47.8034 63.6312 47.7666 63.6312C47.7298 63.6312 47.6999 63.661 47.6999 63.6978L47.7666 63.6978L47.8333 63.6978ZM47.6999 63.9725C47.6999 64.0093 47.7298 64.0392 47.7666 64.0392C47.8034 64.0392 47.8333 64.0093 47.8333 63.9725L47.7666 63.9725L47.6999 63.9725ZM47.8333 64.5217C47.8333 64.4849 47.8034 64.455 47.7666 64.455C47.7298 64.455 47.6999 64.4849 47.6999 64.5217L47.7666 64.5217L47.8333 64.5217ZM47.7666 54.7728L47.6999 54.7728L47.6999 54.9101L47.7666 54.9101L47.8333 54.9101L47.8333 54.7728L47.7666 54.7728ZM47.7666 55.4594L47.6999 55.4594L47.6999 55.734L47.7666 55.734L47.8333 55.734L47.8333 55.4594L47.7666 55.4594ZM47.7666 56.2832L47.6999 56.2832L47.6999 56.5578L47.7666 56.5578L47.8333 56.5578L47.8333 56.2832L47.7666 56.2832ZM47.7666 57.1071L47.6999 57.1071L47.6999 57.3817L47.7666 57.3817L47.8333 57.3817L47.8333 57.1071L47.7666 57.1071ZM47.7666 57.9309L47.6999 57.9309L47.6999 58.2055L47.7666 58.2055L47.8333 58.2055L47.8333 57.9309L47.7666 57.9309ZM47.7666 58.7548L47.6999 58.7548L47.6999 59.0294L47.7666 59.0294L47.8333 59.0294L47.8333 58.7548L47.7666 58.7548ZM47.7666 59.5786L47.6999 59.5786L47.6999 59.8532L47.7666 59.8532L47.8333 59.8532L47.8333 59.5786L47.7666 59.5786ZM47.7666 60.4025L47.6999 60.4025L47.6999 60.6771L47.7666 60.6771L47.8333 60.6771L47.8333 60.4025L47.7666 60.4025ZM47.7666 61.2263L47.6999 61.2263L47.6999 61.5009L47.7666 61.5009L47.8333 61.5009L47.8333 61.2263L47.7666 61.2263ZM47.7666 62.0501L47.6999 62.0501L47.6999 62.3248L47.7666 62.3248L47.8333 62.3248L47.8333 62.0501L47.7666 62.0501ZM47.7666 62.874L47.6999 62.874L47.6999 63.1486L47.7666 63.1486L47.8333 63.1486L47.8333 62.874L47.7666 62.874ZM47.7666 63.6978L47.6999 63.6978L47.6999 63.9725L47.7666 63.9725L47.8333 63.9725L47.8333 63.6978L47.7666 63.6978ZM47.7666 64.5217L47.6999 64.5217L47.6999 64.659L47.7666 64.659L47.8333 64.659L47.8333 64.5217L47.7666 64.5217Z" fill="white"/>
<path d="M14.3521 35.1869L13.967 35.5719L14.3521 35.9569L14.7371 35.5719L14.3521 35.1869ZM14.3521 45.8274L14.7371 45.4424L14.3521 45.0573L13.967 45.4424L14.3521 45.8274ZM14.2854 35.709C14.2854 35.7458 14.3152 35.7757 14.3521 35.7757C14.3889 35.7757 14.4187 35.7458 14.4187 35.709L14.3521 35.709L14.2854 35.709ZM14.4187 36.2573C14.4187 36.2205 14.3889 36.1907 14.3521 36.1907C14.3152 36.1907 14.2854 36.2205 14.2854 36.2573L14.3521 36.2573L14.4187 36.2573ZM14.2854 36.5315C14.2854 36.5684 14.3152 36.5982 14.3521 36.5982C14.3889 36.5982 14.4187 36.5684 14.4187 36.5315L14.3521 36.5315L14.2854 36.5315ZM14.4187 37.0799C14.4187 37.0431 14.3889 37.0132 14.3521 37.0132C14.3152 37.0132 14.2854 37.0431 14.2854 37.0799L14.3521 37.0799L14.4187 37.0799ZM14.2854 37.3541C14.2854 37.3909 14.3152 37.4208 14.3521 37.4208C14.3889 37.4208 14.4187 37.3909 14.4187 37.3541L14.3521 37.3541L14.2854 37.3541ZM14.4187 37.9024C14.4187 37.8656 14.3889 37.8357 14.3521 37.8357C14.3152 37.8357 14.2854 37.8656 14.2854 37.9024L14.3521 37.9024L14.4187 37.9024ZM14.2854 38.1766C14.2854 38.2134 14.3152 38.2433 14.3521 38.2433C14.3889 38.2433 14.4187 38.2134 14.4187 38.1766L14.3521 38.1766L14.2854 38.1766ZM14.4187 38.725C14.4187 38.6881 14.3889 38.6583 14.3521 38.6583C14.3152 38.6583 14.2854 38.6881 14.2854 38.725L14.3521 38.725L14.4187 38.725ZM14.2854 38.9992C14.2854 39.036 14.3152 39.0658 14.3521 39.0658C14.3889 39.0658 14.4187 39.036 14.4187 38.9992L14.3521 38.9992L14.2854 38.9992ZM14.4187 39.5475C14.4187 39.5107 14.3889 39.4808 14.3521 39.4808C14.3152 39.4808 14.2854 39.5107 14.2854 39.5475L14.3521 39.5475L14.4187 39.5475ZM14.2854 39.8217C14.2854 39.8585 14.3152 39.8884 14.3521 39.8884C14.3889 39.8884 14.4187 39.8585 14.4187 39.8217L14.3521 39.8217L14.2854 39.8217ZM14.4187 40.3701C14.4187 40.3332 14.3889 40.3034 14.3521 40.3034C14.3152 40.3034 14.2854 40.3332 14.2854 40.3701L14.3521 40.3701L14.4187 40.3701ZM14.2854 40.6442C14.2854 40.6811 14.3152 40.7109 14.3521 40.7109C14.3889 40.7109 14.4187 40.6811 14.4187 40.6442L14.3521 40.6442L14.2854 40.6442ZM14.4187 41.1926C14.4187 41.1558 14.3889 41.1259 14.3521 41.1259C14.3152 41.1259 14.2854 41.1558 14.2854 41.1926L14.3521 41.1926L14.4187 41.1926ZM14.2854 41.4668C14.2854 41.5036 14.3152 41.5335 14.3521 41.5335C14.3889 41.5335 14.4187 41.5036 14.4187 41.4668L14.3521 41.4668L14.2854 41.4668ZM14.4187 42.0151C14.4187 41.9783 14.3889 41.9484 14.3521 41.9484C14.3152 41.9484 14.2854 41.9783 14.2854 42.0151L14.3521 42.0151L14.4187 42.0151ZM14.2854 42.2893C14.2854 42.3261 14.3152 42.356 14.3521 42.356C14.3889 42.356 14.4187 42.3261 14.4187 42.2893L14.3521 42.2893L14.2854 42.2893ZM14.4187 42.8377C14.4187 42.8008 14.3889 42.771 14.3521 42.771C14.3152 42.771 14.2854 42.8008 14.2854 42.8377L14.3521 42.8377L14.4187 42.8377ZM14.2854 43.1119C14.2854 43.1487 14.3152 43.1785 14.3521 43.1785C14.3889 43.1785 14.4187 43.1487 14.4187 43.1119L14.3521 43.1119L14.2854 43.1119ZM14.4187 43.6602C14.4187 43.6234 14.3889 43.5935 14.3521 43.5935C14.3152 43.5935 14.2854 43.6234 14.2854 43.6602L14.3521 43.6602L14.4187 43.6602ZM14.2854 43.9344C14.2854 43.9712 14.3152 44.0011 14.3521 44.0011C14.3889 44.0011 14.4187 43.9712 14.4187 43.9344L14.3521 43.9344L14.2854 43.9344ZM14.4187 44.4828C14.4187 44.4459 14.3889 44.4161 14.3521 44.4161C14.3152 44.4161 14.2854 44.4459 14.2854 44.4828L14.3521 44.4828L14.4187 44.4828ZM14.2854 44.7569C14.2854 44.7938 14.3152 44.8236 14.3521 44.8236C14.3889 44.8236 14.4187 44.7938 14.4187 44.7569L14.3521 44.7569L14.2854 44.7569ZM14.4187 45.3053C14.4187 45.2685 14.3889 45.2386 14.3521 45.2386C14.3152 45.2386 14.2854 45.2685 14.2854 45.3053L14.3521 45.3053L14.4187 45.3053ZM14.3521 35.5719L14.2854 35.5719L14.2854 35.709L14.3521 35.709L14.4187 35.709L14.4187 35.5719L14.3521 35.5719ZM14.3521 36.2573L14.2854 36.2573L14.2854 36.5315L14.3521 36.5315L14.4187 36.5315L14.4187 36.2573L14.3521 36.2573ZM14.3521 37.0799L14.2854 37.0799L14.2854 37.3541L14.3521 37.3541L14.4187 37.3541L14.4187 37.0799L14.3521 37.0799ZM14.3521 37.9024L14.2854 37.9024L14.2854 38.1766L14.3521 38.1766L14.4187 38.1766L14.4187 37.9024L14.3521 37.9024ZM14.3521 38.725L14.2854 38.725L14.2854 38.9992L14.3521 38.9992L14.4187 38.9992L14.4187 38.725L14.3521 38.725ZM14.3521 39.5475L14.2854 39.5475L14.2854 39.8217L14.3521 39.8217L14.4187 39.8217L14.4187 39.5475L14.3521 39.5475ZM14.3521 40.3701L14.2854 40.3701L14.2854 40.6442L14.3521 40.6442L14.4187 40.6442L14.4187 40.3701L14.3521 40.3701ZM14.3521 41.1926L14.2854 41.1926L14.2854 41.4668L14.3521 41.4668L14.4187 41.4668L14.4187 41.1926L14.3521 41.1926ZM14.3521 42.0151L14.2854 42.0151L14.2854 42.2893L14.3521 42.2893L14.4187 42.2893L14.4187 42.0151L14.3521 42.0151ZM14.3521 42.8377L14.2854 42.8377L14.2854 43.1119L14.3521 43.1119L14.4187 43.1119L14.4187 42.8377L14.3521 42.8377ZM14.3521 43.6602L14.2854 43.6602L14.2854 43.9344L14.3521 43.9344L14.4187 43.9344L14.4187 43.6602L14.3521 43.6602ZM14.3521 44.4828L14.2854 44.4828L14.2854 44.7569L14.3521 44.7569L14.4187 44.7569L14.4187 44.4828L14.3521 44.4828ZM14.3521 45.3053L14.2854 45.3053L14.2854 45.4424L14.3521 45.4424L14.4187 45.4424L14.4187 45.3053L14.3521 45.3053Z" fill="white"/>
<path d="M81.1921 35.1869L80.8071 35.5719L81.1921 35.9569L81.5772 35.5719L81.1921 35.1869ZM81.1921 45.8274L81.5772 45.4424L81.1921 45.0573L80.8071 45.4424L81.1921 45.8274ZM81.1254 35.709C81.1254 35.7458 81.1553 35.7757 81.1921 35.7757C81.229 35.7757 81.2588 35.7458 81.2588 35.709L81.1921 35.709L81.1254 35.709ZM81.2588 36.2573C81.2588 36.2205 81.229 36.1907 81.1921 36.1907C81.1553 36.1907 81.1254 36.2205 81.1254 36.2573L81.1921 36.2573L81.2588 36.2573ZM81.1254 36.5315C81.1254 36.5684 81.1553 36.5982 81.1921 36.5982C81.229 36.5982 81.2588 36.5684 81.2588 36.5315L81.1921 36.5315L81.1254 36.5315ZM81.2588 37.0799C81.2588 37.0431 81.229 37.0132 81.1921 37.0132C81.1553 37.0132 81.1254 37.0431 81.1254 37.0799L81.1921 37.0799L81.2588 37.0799ZM81.1254 37.3541C81.1254 37.3909 81.1553 37.4208 81.1921 37.4208C81.229 37.4208 81.2588 37.3909 81.2588 37.3541L81.1921 37.3541L81.1254 37.3541ZM81.2588 37.9024C81.2588 37.8656 81.229 37.8357 81.1921 37.8357C81.1553 37.8357 81.1254 37.8656 81.1254 37.9024L81.1921 37.9024L81.2588 37.9024ZM81.1254 38.1766C81.1254 38.2134 81.1553 38.2433 81.1921 38.2433C81.229 38.2433 81.2588 38.2134 81.2588 38.1766L81.1921 38.1766L81.1254 38.1766ZM81.2588 38.725C81.2588 38.6881 81.229 38.6583 81.1921 38.6583C81.1553 38.6583 81.1254 38.6881 81.1254 38.725L81.1921 38.725L81.2588 38.725ZM81.1254 38.9992C81.1254 39.036 81.1553 39.0658 81.1921 39.0658C81.229 39.0658 81.2588 39.036 81.2588 38.9992L81.1921 38.9992L81.1254 38.9992ZM81.2588 39.5475C81.2588 39.5107 81.229 39.4808 81.1921 39.4808C81.1553 39.4808 81.1254 39.5107 81.1254 39.5475L81.1921 39.5475L81.2588 39.5475ZM81.1254 39.8217C81.1254 39.8585 81.1553 39.8884 81.1921 39.8884C81.229 39.8884 81.2588 39.8585 81.2588 39.8217L81.1921 39.8217L81.1254 39.8217ZM81.2588 40.3701C81.2588 40.3332 81.229 40.3034 81.1921 40.3034C81.1553 40.3034 81.1254 40.3332 81.1254 40.3701L81.1921 40.3701L81.2588 40.3701ZM81.1254 40.6442C81.1254 40.6811 81.1553 40.7109 81.1921 40.7109C81.229 40.7109 81.2588 40.6811 81.2588 40.6442L81.1921 40.6442L81.1254 40.6442ZM81.2588 41.1926C81.2588 41.1558 81.229 41.1259 81.1921 41.1259C81.1553 41.1259 81.1254 41.1558 81.1254 41.1926L81.1921 41.1926L81.2588 41.1926ZM81.1254 41.4668C81.1254 41.5036 81.1553 41.5335 81.1921 41.5335C81.229 41.5335 81.2588 41.5036 81.2588 41.4668L81.1921 41.4668L81.1254 41.4668ZM81.2588 42.0151C81.2588 41.9783 81.229 41.9484 81.1921 41.9484C81.1553 41.9484 81.1254 41.9783 81.1254 42.0151L81.1921 42.0151L81.2588 42.0151ZM81.1254 42.2893C81.1254 42.3261 81.1553 42.356 81.1921 42.356C81.229 42.356 81.2588 42.3261 81.2588 42.2893L81.1921 42.2893L81.1254 42.2893ZM81.2588 42.8377C81.2588 42.8008 81.229 42.771 81.1921 42.771C81.1553 42.771 81.1254 42.8008 81.1254 42.8377L81.1921 42.8377L81.2588 42.8377ZM81.1254 43.1119C81.1254 43.1487 81.1553 43.1785 81.1921 43.1785C81.229 43.1785 81.2588 43.1487 81.2588 43.1119L81.1921 43.1119L81.1254 43.1119ZM81.2588 43.6602C81.2588 43.6234 81.229 43.5935 81.1921 43.5935C81.1553 43.5935 81.1254 43.6234 81.1254 43.6602L81.1921 43.6602L81.2588 43.6602ZM81.1254 43.9344C81.1254 43.9712 81.1553 44.0011 81.1921 44.0011C81.229 44.0011 81.2588 43.9712 81.2588 43.9344L81.1921 43.9344L81.1254 43.9344ZM81.2588 44.4828C81.2588 44.4459 81.229 44.4161 81.1921 44.4161C81.1553 44.4161 81.1254 44.4459 81.1254 44.4828L81.1921 44.4828L81.2588 44.4828ZM81.1254 44.7569C81.1254 44.7938 81.1553 44.8236 81.1921 44.8236C81.229 44.8236 81.2588 44.7938 81.2588 44.7569L81.1921 44.7569L81.1254 44.7569ZM81.2588 45.3053C81.2588 45.2685 81.229 45.2386 81.1921 45.2386C81.1553 45.2386 81.1254 45.2685 81.1254 45.3053L81.1921 45.3053L81.2588 45.3053ZM81.1921 35.5719L81.1254 35.5719L81.1254 35.709L81.1921 35.709L81.2588 35.709L81.2588 35.5719L81.1921 35.5719ZM81.1921 36.2573L81.1254 36.2573L81.1254 36.5315L81.1921 36.5315L81.2588 36.5315L81.2588 36.2573L81.1921 36.2573ZM81.1921 37.0799L81.1254 37.0799L81.1254 37.3541L81.1921 37.3541L81.2588 37.3541L81.2588 37.0799L81.1921 37.0799ZM81.1921 37.9024L81.1254 37.9024L81.1254 38.1766L81.1921 38.1766L81.2588 38.1766L81.2588 37.9024L81.1921 37.9024ZM81.1921 38.725L81.1254 38.725L81.1254 38.9992L81.1921 38.9992L81.2588 38.9992L81.2588 38.725L81.1921 38.725ZM81.1921 39.5475L81.1254 39.5475L81.1254 39.8217L81.1921 39.8217L81.2588 39.8217L81.2588 39.5475L81.1921 39.5475ZM81.1921 40.3701L81.1254 40.3701L81.1254 40.6442L81.1921 40.6442L81.2588 40.6442L81.2588 40.3701L81.1921 40.3701ZM81.1921 41.1926L81.1254 41.1926L81.1254 41.4668L81.1921 41.4668L81.2588 41.4668L81.2588 41.1926L81.1921 41.1926ZM81.1921 42.0151L81.1254 42.0151L81.1254 42.2893L81.1921 42.2893L81.2588 42.2893L81.2588 42.0151L81.1921 42.0151ZM81.1921 42.8377L81.1254 42.8377L81.1254 43.1119L81.1921 43.1119L81.2588 43.1119L81.2588 42.8377L81.1921 42.8377ZM81.1921 43.6602L81.1254 43.6602L81.1254 43.9344L81.1921 43.9344L81.2588 43.9344L81.2588 43.6602L81.1921 43.6602ZM81.1921 44.4828L81.1254 44.4828L81.1254 44.7569L81.1921 44.7569L81.2588 44.7569L81.2588 44.4828L81.1921 44.4828ZM81.1921 45.3053L81.1254 45.3053L81.1254 45.4424L81.1921 45.4424L81.2588 45.4424L81.2588 45.3053L81.1921 45.3053Z" fill="white"/>
</svg>
