<svg width="94" height="80" viewBox="0 0 94 80" fill="none" xmlns="http://www.w3.org/2000/svg">
<path d="M4.80713 50.0009L46.9034 25.6965L88.9998 50.0009L46.9034 74.3052L4.80713 50.0009Z" fill="#222222"/>
<path d="M4.80713 50.0009L4.63485 49.9014L4.46257 50.0009L4.63485 50.1003L4.80713 50.0009ZM46.9034 25.6965L47.0757 25.5971L46.9034 25.4976L46.7312 25.5971L46.9034 25.6965ZM88.9998 50.0009L89.172 50.1003L89.3443 50.0009L89.172 49.9014L88.9998 50.0009ZM46.9034 74.3052L46.7312 74.4046L46.9034 74.5041L47.0757 74.4046L46.9034 74.3052ZM4.80713 50.0009L4.97941 50.1003L47.0757 25.796L46.9034 25.6965L46.7312 25.5971L4.63485 49.9014L4.80713 50.0009ZM46.9034 25.6965L46.7312 25.796L88.8275 50.1003L88.9998 50.0009L89.172 49.9014L47.0757 25.5971L46.9034 25.6965ZM88.9998 50.0009L88.8275 49.9014L46.7312 74.2057L46.9034 74.3052L47.0757 74.4046L89.172 50.1003L88.9998 50.0009ZM46.9034 74.3052L47.0757 74.2057L4.97941 49.9014L4.80713 50.0009L4.63485 50.1003L46.7312 74.4046L46.9034 74.3052Z" fill="#7A7A7A"/>
<path d="M4.80713 46.3914L46.9034 22.087L88.9998 46.3914L46.9034 70.6957L4.80713 46.3914Z" fill="#383838"/>
<path d="M13.2811 46.3859L46.9794 26.9302L80.6777 46.3859L46.9794 65.8416L13.2811 46.3859Z" fill="#222222" stroke="#7A7A7A" stroke-width="0.397858"/>
<path d="M13.2811 34.6612L46.9185 15.2406L80.556 34.6612L46.9185 54.0818L13.2811 34.6612Z" fill="#222222"/>
<path d="M13.2811 34.6612L13.1088 34.5617L12.9365 34.6612L13.1088 34.7607L13.2811 34.6612ZM46.9185 15.2406L47.0908 15.1411L46.9185 15.0417L46.7463 15.1411L46.9185 15.2406ZM80.556 34.6612L80.7283 34.7607L80.9006 34.6612L80.7283 34.5617L80.556 34.6612ZM46.9185 54.0818L46.7463 54.1813L46.9185 54.2807L47.0908 54.1813L46.9185 54.0818ZM13.2811 34.6612L13.4533 34.7607L47.0908 15.34L46.9185 15.2406L46.7463 15.1411L13.1088 34.5617L13.2811 34.6612ZM46.9185 15.2406L46.7463 15.34L80.3838 34.7607L80.556 34.6612L80.7283 34.5617L47.0908 15.1411L46.9185 15.2406ZM80.556 34.6612L80.3838 34.5617L46.7463 53.9823L46.9185 54.0818L47.0908 54.1813L80.7283 34.7607L80.556 34.6612ZM46.9185 54.0818L47.0908 53.9823L13.4533 34.5617L13.2811 34.6612L13.1088 34.7607L46.7463 54.1813L46.9185 54.0818Z" fill="#7A7A7A"/>
<rect x="0.0739294" width="35.9024" height="35.9024" transform="matrix(0.866025 -0.5 0.866025 0.5 15.5425 34.6869)" stroke="#7A7A7A" stroke-width="0.0853663" stroke-dasharray="0.27 0.4"/>
<path d="M16.4415 34.6499L46.6989 17.1807L76.9564 34.6499L46.6989 52.1191L16.4415 34.6499Z" fill="#222222"/>
<rect x="0.344555" width="31.2667" height="31.2667" transform="matrix(0.866025 -0.5 0.866025 0.5 19.305 35.2352)" fill="#222222" stroke="#2534D3" stroke-width="0.397858"/>
<rect x="0.344555" width="31.198" height="31.198" transform="matrix(0.866025 -0.5 0.866025 0.5 19.3665 34.1536)" fill="#222222" stroke="#2534D3" stroke-width="0.397858"/>
<rect x="0.344555" width="31.215" height="31.215" transform="matrix(0.866025 -0.5 0.866025 0.5 19.3519 33.0707)" fill="#222222" stroke="#2534D3" stroke-width="0.397858"/>
<rect x="0.344555" width="31.2525" height="31.2525" transform="matrix(0.866025 -0.5 0.866025 0.5 19.3195 31.9892)" fill="#222222" stroke="#2534D3" stroke-width="0.397858"/>
<rect x="0.344555" width="24.4684" height="31.2525" transform="matrix(0.866025 -0.5 0.866025 0.5 19.3388 31.9892)" fill="#222222" stroke="#2534D3" stroke-width="0.397858"/>
<path d="M25.7161 27.6196C26.9797 27.6196 28.0611 28.0683 28.51 28.7045L28.7346 28.7065V29.3901H28.7307C28.703 30.3377 27.3646 31.101 25.7161 31.101C24.0502 31.101 22.6995 30.3213 22.6995 29.3598C22.6995 29.3448 22.7008 29.3298 22.7014 29.3149V28.6791L22.9377 28.6801C23.3965 28.0564 24.468 27.6196 25.7161 27.6196Z" fill="#2638FF"/>
<path d="M25.7161 27.6196L25.7161 27.4741H25.7161V27.6196ZM28.51 28.7045L28.3912 28.7884L28.4342 28.8493L28.5087 28.8499L28.51 28.7045ZM28.7346 28.7065H28.88V28.5623L28.7359 28.5611L28.7346 28.7065ZM28.7346 29.3901V29.5355H28.88V29.3901H28.7346ZM28.7307 29.3901V29.2447H28.5895L28.5854 29.3858L28.7307 29.3901ZM25.7161 31.101V31.2464H25.7161L25.7161 31.101ZM22.6995 29.3598L22.554 29.3597V29.3598H22.6995ZM22.7014 29.3149L22.8468 29.3213V29.3149H22.7014ZM22.7014 28.6791L22.702 28.5337L22.556 28.5331V28.6791H22.7014ZM22.9377 28.6801L22.9371 28.8255L23.0111 28.8258L23.0549 28.7663L22.9377 28.6801ZM25.7161 27.6196L25.7161 27.765C26.9567 27.765 27.981 28.207 28.3912 28.7884L28.51 28.7045L28.6288 28.6207C28.1412 27.9296 27.0027 27.4742 25.7161 27.4741L25.7161 27.6196ZM28.51 28.7045L28.5087 28.8499L28.7334 28.8519L28.7346 28.7065L28.7359 28.5611L28.5113 28.5591L28.51 28.7045ZM28.7346 28.7065H28.5892V29.3901H28.7346H28.88V28.7065H28.7346ZM28.7346 29.3901V29.2447H28.7307V29.3901V29.5355H28.7346V29.3901ZM28.7307 29.3901L28.5854 29.3858C28.5736 29.7875 28.2819 30.1775 27.7594 30.4745C27.2407 30.7693 26.5196 30.9556 25.7161 30.9556L25.7161 31.101L25.7161 31.2464C26.561 31.2464 27.3334 31.0511 27.9031 30.7273C28.4688 30.4058 28.8601 29.9403 28.8761 29.3943L28.7307 29.3901ZM25.7161 31.101V30.9556C24.904 30.9556 24.1758 30.7652 23.6557 30.465C23.1318 30.1626 22.8449 29.7666 22.8449 29.3598H22.6995H22.554C22.554 29.9145 22.9425 30.3891 23.5103 30.7169C24.0821 31.0469 24.8622 31.2464 25.7161 31.2464V31.101ZM22.6995 29.3598L22.8449 29.3599C22.8449 29.3487 22.8457 29.3447 22.8467 29.3213L22.7014 29.3149L22.5561 29.3084C22.5559 29.3149 22.554 29.3409 22.554 29.3597L22.6995 29.3598ZM22.7014 29.3149H22.8468V28.6791H22.7014H22.556V29.3149H22.7014ZM22.7014 28.6791L22.7008 28.8246L22.9371 28.8255L22.9377 28.6801L22.9383 28.5347L22.702 28.5337L22.7014 28.6791ZM22.9377 28.6801L23.0549 28.7663C23.4749 28.1952 24.4911 27.765 25.7161 27.765V27.6196V27.4741C24.4449 27.4741 23.3181 27.9176 22.8206 28.594L22.9377 28.6801Z" fill="#2534D3"/>
<path d="M25.7162 26.9369C26.5793 26.937 27.357 27.1386 27.9164 27.4613C28.478 27.7854 28.8061 28.2225 28.8061 28.6888C28.806 29.1552 28.4779 29.5913 27.9164 29.9154C27.357 30.2383 26.5794 30.4407 25.7162 30.4408C24.8528 30.4408 24.0746 30.2383 23.5151 29.9154C22.9536 29.5913 22.6255 29.1552 22.6254 28.6888C22.6254 28.2225 22.9535 27.7854 23.5151 27.4613C24.0746 27.1385 24.853 26.9369 25.7162 26.9369Z" fill="#222222" stroke="#2638FF" stroke-width="0.15"/>
<path d="M26.1049 28.0189L26.8392 28.5033L26.642 28.6342L26.3783 28.4594C26.3703 28.4859 26.3598 28.5127 26.3431 28.5385C26.3181 28.5782 26.2823 28.6141 26.2406 28.6508L26.4349 28.7787L26.2377 28.9095L26.0453 28.7826C25.9494 28.8301 25.8479 28.8612 25.7406 28.8744C25.5943 28.8925 25.4459 28.8701 25.2953 28.808C25.2591 28.7927 25.2281 28.7784 25.2035 28.765C25.1797 28.7512 25.1516 28.7331 25.1185 28.7113L25.1029 28.7006L25.1722 29.4681L24.807 29.2279L24.7455 28.4652L24.9896 28.3041L25.3529 28.5433C25.3681 28.5534 25.3849 28.5641 25.4037 28.5746C25.4231 28.5855 25.4431 28.5943 25.4633 28.6019C25.5176 28.6225 25.571 28.6327 25.6224 28.6312C25.6752 28.6298 25.7241 28.6211 25.7689 28.6049L25.7728 28.6029L25.1625 28.1996L25.3607 28.0697L25.9701 28.472L25.973 28.4701C25.9983 28.44 26.0128 28.4072 26.015 28.3724C26.0179 28.3381 26.0028 28.3032 25.9711 28.2679C25.9596 28.2547 25.9453 28.2412 25.9281 28.2289C25.9122 28.2165 25.8964 28.2047 25.8812 28.1947L25.5179 27.9554L25.764 27.7933L26.1049 28.0189Z" fill="#2534D3"/>
<path d="M68.8058 27.9985C70.0695 27.9985 71.1509 28.4473 71.5998 29.0835L71.8244 29.0854V29.769H71.8205C71.7928 30.7167 70.4544 31.48 68.8058 31.48C67.1399 31.48 65.7892 30.7002 65.7892 29.7388C65.7893 29.7237 65.7905 29.7088 65.7912 29.6938V29.0581L66.0275 29.0591C66.4863 28.4354 67.5578 27.9985 68.8058 27.9985Z" fill="#2534D3"/>
<path d="M68.8058 27.9985L68.8058 27.8531H68.8058V27.9985ZM71.5998 29.0835L71.481 29.1673L71.524 29.2283L71.5985 29.2289L71.5998 29.0835ZM71.8244 29.0854H71.9698V28.9413L71.8257 28.94L71.8244 29.0854ZM71.8244 29.769V29.9145H71.9698V29.769H71.8244ZM71.8205 29.769V29.6236H71.6793L71.6751 29.7648L71.8205 29.769ZM68.8058 31.48V31.6254H68.8058L68.8058 31.48ZM65.7892 29.7388L65.6438 29.7387V29.7388H65.7892ZM65.7912 29.6938L65.9366 29.7003V29.6938H65.7912ZM65.7912 29.0581L65.7918 28.9127L65.6458 28.9121V29.0581H65.7912ZM66.0275 29.0591L66.0269 29.2045L66.1009 29.2048L66.1447 29.1452L66.0275 29.0591ZM68.8058 27.9985L68.8058 28.144C70.0465 28.144 71.0708 28.586 71.481 29.1673L71.5998 29.0835L71.7186 28.9997C71.231 28.3085 70.0925 27.8531 68.8058 27.8531L68.8058 27.9985ZM71.5998 29.0835L71.5985 29.2289L71.8231 29.2309L71.8244 29.0854L71.8257 28.94L71.6011 28.9381L71.5998 29.0835ZM71.8244 29.0854H71.679V29.769H71.8244H71.9698V29.0854H71.8244ZM71.8244 29.769V29.6236H71.8205V29.769V29.9145H71.8244V29.769ZM71.8205 29.769L71.6751 29.7648C71.6634 30.1664 71.3717 30.5565 70.8491 30.8535C70.3305 31.1482 69.6094 31.3346 68.8058 31.3346L68.8058 31.48L68.8058 31.6254C69.6508 31.6254 70.4232 31.4301 70.9929 31.1063C71.5586 30.7847 71.9499 30.3193 71.9659 29.7733L71.8205 29.769ZM68.8058 31.48V31.3346C67.9938 31.3346 67.2656 31.1442 66.7455 30.844C66.2216 30.5415 65.9347 30.1455 65.9347 29.7388H65.7892H65.6438C65.6438 30.2935 66.0323 30.7681 66.6001 31.0959C67.1719 31.4259 67.952 31.6254 68.8058 31.6254V31.48ZM65.7892 29.7388L65.9347 29.7388C65.9347 29.7276 65.9354 29.7237 65.9365 29.7003L65.7912 29.6938L65.6459 29.6874C65.6456 29.6939 65.6438 29.7198 65.6438 29.7387L65.7892 29.7388ZM65.7912 29.6938H65.9366V29.0581H65.7912H65.6458V29.6938H65.7912ZM65.7912 29.0581L65.7906 29.2035L66.0269 29.2045L66.0275 29.0591L66.0281 28.9137L65.7918 28.9127L65.7912 29.0581ZM66.0275 29.0591L66.1447 29.1452C66.5647 28.5742 67.5809 28.144 68.8058 28.144V27.9985V27.8531C67.5347 27.8531 66.4079 28.2966 65.9104 28.9729L66.0275 29.0591Z" fill="#2534D3"/>
<path d="M68.806 27.3159C69.669 27.3159 70.4468 27.5175 71.0062 27.8403C71.5678 28.1644 71.8959 28.6014 71.8959 29.0678C71.8958 29.5341 71.5677 29.9703 71.0062 30.2944C70.4468 30.6172 69.6692 30.8197 68.806 30.8198C67.9426 30.8198 67.1644 30.6173 66.6049 30.2944C66.0434 29.9703 65.7153 29.5341 65.7152 29.0678C65.7152 28.6014 66.0433 28.1644 66.6049 27.8403C67.1644 27.5174 67.9428 27.3159 68.806 27.3159Z" fill="#222222" stroke="#2534D3" stroke-width="0.15"/>
<path d="M69.1946 28.3978L69.929 28.8822L69.7318 29.0131L69.4681 28.8383C69.4601 28.8648 69.4496 28.8916 69.4329 28.9174C69.4078 28.9571 69.372 28.9931 69.3304 29.0297L69.5247 29.1576L69.3275 29.2885L69.1351 29.1615C69.0392 29.209 68.9377 29.2401 68.8304 29.2533C68.6841 29.2714 68.5357 29.249 68.3851 29.1869C68.3488 29.1716 68.3179 29.1573 68.2933 29.1439C68.2695 29.1301 68.2413 29.112 68.2083 29.0902L68.1927 29.0795L68.262 29.847L67.8968 29.6068L67.8353 28.8441L68.0794 28.683L68.4427 28.9222C68.4579 28.9323 68.4747 28.943 68.4935 28.9535C68.5129 28.9644 68.5329 28.9732 68.553 28.9808C68.6074 29.0014 68.6608 29.0116 68.7122 29.0101C68.765 29.0087 68.8139 29 68.8587 28.9838L68.8626 28.9818L68.2523 28.5785L68.4505 28.4486L69.0599 28.851L69.0628 28.849C69.0881 28.819 69.1026 28.7861 69.1048 28.7513C69.1077 28.717 69.0926 28.6821 69.0609 28.6469C69.0493 28.6336 69.0351 28.6201 69.0179 28.6078C69.002 28.5954 68.9862 28.5836 68.971 28.5736L68.6077 28.3344L68.8538 28.1722L69.1946 28.3978Z" fill="#2534D3"/>
<path d="M52.0383 22.4074V20.0671L54.8544 18.4412V20.6707" stroke="#2534D3" stroke-width="0.318286" stroke-linejoin="bevel"/>
<path d="M61.4841 27.923V25.4764L64.2919 23.8553V26.1402" stroke="#2534D3" stroke-width="0.318286" stroke-linejoin="bevel"/>
<ellipse cx="0.606381" cy="0.606381" rx="0.606381" ry="0.606381" transform="matrix(0.866025 0.5 -0.866026 0.5 61.2689 27.1672)" fill="#2534D3"/>
<ellipse cx="0.606381" cy="0.606381" rx="0.606381" ry="0.606381" transform="matrix(0.866025 0.5 -0.866026 0.5 51.6683 21.903)" fill="#2534D3"/>
<path fill-rule="evenodd" clip-rule="evenodd" d="M49.4673 31.7344C50.4389 31.5694 51.4029 31.5647 52.3589 31.7207C53.3202 31.8797 54.2091 32.195 55.0249 32.666C55.5912 32.993 56.0332 33.3587 56.3501 33.7636C56.6721 34.1655 56.8229 34.6005 56.8022 35.0683L54.1284 35.0459C54.1647 34.797 54.1071 34.5514 53.9565 34.3086C53.8111 34.0686 53.5828 33.8577 53.271 33.6777C52.8347 33.4258 52.3489 33.2653 51.814 33.1963C51.284 33.1243 50.761 33.1317 50.2466 33.2187C49.7374 33.3087 49.2929 33.4636 48.9136 33.6826L47.7681 34.3427C48.2257 34.3606 48.6753 34.4164 49.1167 34.5107C49.7818 34.6487 50.3614 34.8605 50.855 35.1455C51.5613 35.5533 52.0234 36.0061 52.2417 36.5039C52.4651 36.9988 52.4555 37.4971 52.2114 37.998C51.9724 38.496 51.4992 38.9494 50.7925 39.3574C50.0911 39.7624 49.2752 40.0264 48.3452 40.1494C47.4255 40.2724 46.5026 40.2621 45.5776 40.1181C44.6581 39.9711 43.8448 39.6931 43.1382 39.2851C42.4057 38.8622 41.9175 38.3816 41.6733 37.8447C41.4397 37.3078 41.4579 36.7637 41.728 36.2119C41.9982 35.6599 42.5307 35.1543 43.3257 34.6953L46.7397 32.7246C47.5919 32.2326 48.5009 31.9024 49.4673 31.7344ZM47.6362 35.5547C47.1582 35.4827 46.6797 35.4827 46.2017 35.5547C45.7236 35.6267 45.3027 35.7675 44.939 35.9775C44.5856 36.1815 44.3443 36.4203 44.2144 36.6933C44.0949 36.9663 44.0922 37.2406 44.2065 37.5166C44.3313 37.7926 44.5752 38.0361 44.939 38.2461C45.3026 38.456 45.7211 38.5978 46.1939 38.6728C46.6719 38.7448 47.1478 38.7467 47.6206 38.6777C48.1037 38.6087 48.5275 38.4687 48.8911 38.2588C49.2546 38.0488 49.4989 37.8061 49.6235 37.5302C49.7482 37.2543 49.7482 36.9781 49.6235 36.7021C49.5092 36.4261 49.2695 36.1836 48.9058 35.9736C48.5422 35.7637 48.1192 35.6237 47.6362 35.5547Z" fill="#2534D3"/>
<path fill-rule="evenodd" clip-rule="evenodd" d="M39.2612 25.7793C40.2121 25.6263 41.1612 25.6272 42.1069 25.7832C43.0576 25.9362 43.9303 26.2423 44.7251 26.7011C45.5201 27.1601 46.0473 27.663 46.3071 28.209C46.5773 28.755 46.5799 29.3025 46.3149 29.8515C46.0499 30.4004 45.5199 30.9044 44.7251 31.3633L41.1089 33.4511C40.3139 33.9101 39.4406 34.2161 38.4897 34.3691C37.5389 34.5221 36.588 34.5221 35.6372 34.3691C34.6968 34.2161 33.8287 33.9101 33.0337 33.4511C32.239 32.9923 31.7062 32.4901 31.436 31.9443C31.171 31.3953 31.1711 30.8458 31.436 30.2969C31.7062 29.7509 32.2388 29.248 33.0337 28.789L36.6509 26.7011C37.4457 26.2423 38.3158 25.9353 39.2612 25.7793ZM41.5923 27.2685C41.0831 27.1905 40.5732 27.1905 40.064 27.2685C39.5602 27.3435 39.1084 27.4966 38.7085 27.7275L34.8189 29.9726C34.4239 30.2006 34.159 30.4618 34.0239 30.7558C33.894 31.0468 33.8941 31.3407 34.0239 31.6377C34.159 31.9317 34.424 32.1929 34.8189 32.4209C35.2138 32.6489 35.6661 32.8019 36.1753 32.8799C36.6896 32.9548 37.1987 32.9548 37.7026 32.8799C38.2119 32.8019 38.6642 32.6489 39.0591 32.4209L42.9487 30.1758C43.3487 29.9448 43.6138 29.6835 43.7437 29.3926C43.8787 29.0987 43.8785 28.8046 43.7437 28.5107C43.6138 28.2138 43.3513 27.9506 42.9565 27.7226C42.5617 27.4947 42.1066 27.3435 41.5923 27.2685Z" fill="#2534D3"/>
<path fill-rule="evenodd" clip-rule="evenodd" d="M49.4673 31.7344C50.4389 31.5694 51.4029 31.5647 52.3589 31.7207C53.3202 31.8797 54.2091 32.195 55.0249 32.666C55.5912 32.993 56.0332 33.3587 56.3501 33.7636C56.6721 34.1655 56.8229 34.6005 56.8022 35.0683L54.1284 35.0459C54.1647 34.797 54.1071 34.5514 53.9565 34.3086C53.8111 34.0686 53.5828 33.8577 53.271 33.6777C52.8347 33.4258 52.3489 33.2653 51.814 33.1963C51.284 33.1243 50.761 33.1317 50.2466 33.2187C49.7374 33.3087 49.2929 33.4636 48.9136 33.6826L47.7681 34.3427C48.2257 34.3606 48.6753 34.4164 49.1167 34.5107C49.7818 34.6487 50.3614 34.8605 50.855 35.1455C51.5613 35.5533 52.0234 36.0061 52.2417 36.5039C52.4651 36.9988 52.4555 37.4971 52.2114 37.998C51.9724 38.496 51.4992 38.9494 50.7925 39.3574C50.0911 39.7624 49.2752 40.0264 48.3452 40.1494C47.4255 40.2724 46.5026 40.2621 45.5776 40.1181C44.6581 39.9711 43.8448 39.6931 43.1382 39.2851C42.4057 38.8622 41.9175 38.3816 41.6733 37.8447C41.4397 37.3078 41.4579 36.7637 41.728 36.2119C41.9982 35.6599 42.5307 35.1543 43.3257 34.6953L46.7397 32.7246C47.5919 32.2326 48.5009 31.9024 49.4673 31.7344ZM47.6362 35.5547C47.1582 35.4827 46.6797 35.4827 46.2017 35.5547C45.7236 35.6267 45.3027 35.7675 44.939 35.9775C44.5856 36.1815 44.3443 36.4203 44.2144 36.6933C44.0949 36.9663 44.0922 37.2406 44.2065 37.5166C44.3313 37.7926 44.5752 38.0361 44.939 38.2461C45.3026 38.456 45.7211 38.5978 46.1939 38.6728C46.6719 38.7448 47.1478 38.7467 47.6206 38.6777C48.1037 38.6087 48.5275 38.4687 48.8911 38.2588C49.2546 38.0488 49.4989 37.8061 49.6235 37.5302C49.7482 37.2543 49.7482 36.9781 49.6235 36.7021C49.5092 36.4261 49.2695 36.1836 48.9058 35.9736C48.5422 35.7637 48.1192 35.6237 47.6362 35.5547Z" stroke="#2534D3"/>
<path fill-rule="evenodd" clip-rule="evenodd" d="M39.2612 25.7793C40.2121 25.6263 41.1612 25.6272 42.1069 25.7832C43.0576 25.9362 43.9303 26.2423 44.7251 26.7011C45.5201 27.1601 46.0473 27.663 46.3071 28.209C46.5773 28.755 46.5799 29.3025 46.3149 29.8515C46.0499 30.4004 45.5199 30.9044 44.7251 31.3633L41.1089 33.4511C40.3139 33.9101 39.4406 34.2161 38.4897 34.3691C37.5389 34.5221 36.588 34.5221 35.6372 34.3691C34.6968 34.2161 33.8287 33.9101 33.0337 33.4511C32.239 32.9923 31.7062 32.4901 31.436 31.9443C31.171 31.3953 31.1711 30.8458 31.436 30.2969C31.7062 29.7509 32.2388 29.248 33.0337 28.789L36.6509 26.7011C37.4457 26.2423 38.3158 25.9353 39.2612 25.7793ZM41.5923 27.2685C41.0831 27.1905 40.5732 27.1905 40.064 27.2685C39.5602 27.3435 39.1084 27.4966 38.7085 27.7275L34.8189 29.9726C34.4239 30.2006 34.159 30.4618 34.0239 30.7558C33.894 31.0468 33.8941 31.3407 34.0239 31.6377C34.159 31.9317 34.424 32.1929 34.8189 32.4209C35.2138 32.6489 35.6661 32.8019 36.1753 32.8799C36.6896 32.9548 37.1987 32.9548 37.7026 32.8799C38.2119 32.8019 38.6642 32.6489 39.0591 32.4209L42.9487 30.1758C43.3487 29.9448 43.6138 29.6835 43.7437 29.3926C43.8787 29.0987 43.8785 28.8046 43.7437 28.5107C43.6138 28.2138 43.3513 27.9506 42.9565 27.7226C42.5617 27.4947 42.1066 27.3435 41.5923 27.2685Z" stroke="#2534D3"/>
<circle cx="0.807035" cy="0.807035" r="0.807035" transform="matrix(0.866025 -0.5 0.866025 0.5 7.22809 46.2492)" fill="#222222"/>
<circle cx="0.807035" cy="0.807035" r="0.807035" transform="matrix(0.866025 -0.5 0.866025 0.5 45.5814 68.239)" fill="#222222"/>
<ellipse cx="0.477029" cy="0.477029" rx="0.477029" ry="0.477029" transform="matrix(0.866025 -0.5 0.866025 0.5 16.9598 34.6499)" fill="#383838"/>
<ellipse cx="0.477029" cy="0.477029" rx="0.477029" ry="0.477029" transform="matrix(0.866025 -0.5 0.866025 0.5 74.6288 34.5859)" fill="#383838"/>
<circle cx="0.807035" cy="0.807035" r="0.807035" transform="matrix(0.866025 -0.5 0.866025 0.5 83.2913 46.2492)" fill="#222222"/>
<path d="M47.9887 66.5143L52.5286 63.8932L54.1185 64.8111L49.5786 67.4322L47.9887 66.5143Z" fill="#C8D33E"/>
<path d="M53.2347 63.4838L54.9744 62.4793L56.5644 63.3973L54.8246 64.4017L53.2347 63.4838Z" fill="#C8D33E"/>
<path d="M46.9746 54.3878L46.5896 54.7728L46.9746 55.1579L47.3597 54.7728L46.9746 54.3878ZM46.9746 65.0441L47.3597 64.659L46.9746 64.274L46.5896 64.659L46.9746 65.0441ZM46.9079 54.9101C46.9079 54.947 46.9378 54.9768 46.9746 54.9768C47.0114 54.9768 47.0413 54.947 47.0413 54.9101L46.9746 54.9101L46.9079 54.9101ZM47.0413 55.4594C47.0413 55.4225 47.0114 55.3927 46.9746 55.3927C46.9378 55.3927 46.9079 55.4225 46.9079 55.4594L46.9746 55.4594L47.0413 55.4594ZM46.9079 55.734C46.9079 55.7708 46.9378 55.8007 46.9746 55.8007C47.0114 55.8007 47.0413 55.7708 47.0413 55.734L46.9746 55.734L46.9079 55.734ZM47.0413 56.2832C47.0413 56.2464 47.0114 56.2165 46.9746 56.2165C46.9378 56.2165 46.9079 56.2464 46.9079 56.2832L46.9746 56.2832L47.0413 56.2832ZM46.9079 56.5578C46.9079 56.5947 46.9378 56.6245 46.9746 56.6245C47.0114 56.6245 47.0413 56.5947 47.0413 56.5578L46.9746 56.5578L46.9079 56.5578ZM47.0413 57.1071C47.0413 57.0702 47.0114 57.0404 46.9746 57.0404C46.9378 57.0404 46.9079 57.0702 46.9079 57.1071L46.9746 57.1071L47.0413 57.1071ZM46.9079 57.3817C46.9079 57.4185 46.9378 57.4484 46.9746 57.4484C47.0114 57.4484 47.0413 57.4185 47.0413 57.3817L46.9746 57.3817L46.9079 57.3817ZM47.0413 57.9309C47.0413 57.8941 47.0114 57.8642 46.9746 57.8642C46.9378 57.8642 46.9079 57.8941 46.9079 57.9309L46.9746 57.9309L47.0413 57.9309ZM46.9079 58.2055C46.9079 58.2424 46.9378 58.2722 46.9746 58.2722C47.0114 58.2722 47.0413 58.2424 47.0413 58.2055L46.9746 58.2055L46.9079 58.2055ZM47.0413 58.7548C47.0413 58.7179 47.0114 58.6881 46.9746 58.6881C46.9378 58.6881 46.9079 58.7179 46.9079 58.7548L46.9746 58.7548L47.0413 58.7548ZM46.9079 59.0294C46.9079 59.0662 46.9378 59.0961 46.9746 59.0961C47.0114 59.0961 47.0413 59.0662 47.0413 59.0294L46.9746 59.0294L46.9079 59.0294ZM47.0413 59.5786C47.0413 59.5418 47.0114 59.5119 46.9746 59.5119C46.9378 59.5119 46.9079 59.5418 46.9079 59.5786L46.9746 59.5786L47.0413 59.5786ZM46.9079 59.8532C46.9079 59.8901 46.9378 59.9199 46.9746 59.9199C47.0114 59.9199 47.0413 59.8901 47.0413 59.8532L46.9746 59.8532L46.9079 59.8532ZM47.0413 60.4025C47.0413 60.3656 47.0114 60.3358 46.9746 60.3358C46.9378 60.3358 46.9079 60.3656 46.9079 60.4025L46.9746 60.4025L47.0413 60.4025ZM46.9079 60.6771C46.9079 60.7139 46.9378 60.7438 46.9746 60.7438C47.0114 60.7438 47.0413 60.7139 47.0413 60.6771L46.9746 60.6771L46.9079 60.6771ZM47.0413 61.2263C47.0413 61.1895 47.0114 61.1596 46.9746 61.1596C46.9378 61.1596 46.9079 61.1895 46.9079 61.2263L46.9746 61.2263L47.0413 61.2263ZM46.9079 61.5009C46.9079 61.5378 46.9378 61.5676 46.9746 61.5676C47.0114 61.5676 47.0413 61.5378 47.0413 61.5009L46.9746 61.5009L46.9079 61.5009ZM47.0413 62.0501C47.0413 62.0133 47.0114 61.9835 46.9746 61.9835C46.9378 61.9835 46.9079 62.0133 46.9079 62.0501L46.9746 62.0501L47.0413 62.0501ZM46.9079 62.3248C46.9079 62.3616 46.9378 62.3915 46.9746 62.3915C47.0114 62.3915 47.0413 62.3616 47.0413 62.3248L46.9746 62.3248L46.9079 62.3248ZM47.0413 62.874C47.0413 62.8372 47.0114 62.8073 46.9746 62.8073C46.9378 62.8073 46.9079 62.8372 46.9079 62.874L46.9746 62.874L47.0413 62.874ZM46.9079 63.1486C46.9079 63.1854 46.9378 63.2153 46.9746 63.2153C47.0114 63.2153 47.0413 63.1854 47.0413 63.1486L46.9746 63.1486L46.9079 63.1486ZM47.0413 63.6978C47.0413 63.661 47.0114 63.6312 46.9746 63.6312C46.9378 63.6312 46.9079 63.661 46.9079 63.6978L46.9746 63.6978L47.0413 63.6978ZM46.9079 63.9725C46.9079 64.0093 46.9378 64.0392 46.9746 64.0392C47.0114 64.0392 47.0413 64.0093 47.0413 63.9725L46.9746 63.9725L46.9079 63.9725ZM47.0413 64.5217C47.0413 64.4849 47.0114 64.455 46.9746 64.455C46.9378 64.455 46.9079 64.4849 46.9079 64.5217L46.9746 64.5217L47.0413 64.5217ZM46.9746 54.7728L46.9079 54.7728L46.9079 54.9101L46.9746 54.9101L47.0413 54.9101L47.0413 54.7728L46.9746 54.7728ZM46.9746 55.4594L46.9079 55.4594L46.9079 55.734L46.9746 55.734L47.0413 55.734L47.0413 55.4594L46.9746 55.4594ZM46.9746 56.2832L46.9079 56.2832L46.9079 56.5578L46.9746 56.5578L47.0413 56.5578L47.0413 56.2832L46.9746 56.2832ZM46.9746 57.1071L46.9079 57.1071L46.9079 57.3817L46.9746 57.3817L47.0413 57.3817L47.0413 57.1071L46.9746 57.1071ZM46.9746 57.9309L46.9079 57.9309L46.9079 58.2055L46.9746 58.2055L47.0413 58.2055L47.0413 57.9309L46.9746 57.9309ZM46.9746 58.7548L46.9079 58.7548L46.9079 59.0294L46.9746 59.0294L47.0413 59.0294L47.0413 58.7548L46.9746 58.7548ZM46.9746 59.5786L46.9079 59.5786L46.9079 59.8532L46.9746 59.8532L47.0413 59.8532L47.0413 59.5786L46.9746 59.5786ZM46.9746 60.4025L46.9079 60.4025L46.9079 60.6771L46.9746 60.6771L47.0413 60.6771L47.0413 60.4025L46.9746 60.4025ZM46.9746 61.2263L46.9079 61.2263L46.9079 61.5009L46.9746 61.5009L47.0413 61.5009L47.0413 61.2263L46.9746 61.2263ZM46.9746 62.0501L46.9079 62.0501L46.9079 62.3248L46.9746 62.3248L47.0413 62.3248L47.0413 62.0501L46.9746 62.0501ZM46.9746 62.874L46.9079 62.874L46.9079 63.1486L46.9746 63.1486L47.0413 63.1486L47.0413 62.874L46.9746 62.874ZM46.9746 63.6978L46.9079 63.6978L46.9079 63.9725L46.9746 63.9725L47.0413 63.9725L47.0413 63.6978L46.9746 63.6978ZM46.9746 64.5217L46.9079 64.5217L46.9079 64.659L46.9746 64.659L47.0413 64.659L47.0413 64.5217L46.9746 64.5217Z" fill="#E9E9E9"/>
<path d="M13.56 35.1869L13.1749 35.5719L13.56 35.9569L13.945 35.5719L13.56 35.1869ZM13.56 45.8274L13.945 45.4424L13.56 45.0573L13.1749 45.4424L13.56 45.8274ZM13.4933 35.709C13.4933 35.7458 13.5232 35.7757 13.56 35.7757C13.5968 35.7757 13.6267 35.7458 13.6267 35.709L13.56 35.709L13.4933 35.709ZM13.6267 36.2573C13.6267 36.2205 13.5968 36.1907 13.56 36.1907C13.5232 36.1907 13.4933 36.2205 13.4933 36.2573L13.56 36.2573L13.6267 36.2573ZM13.4933 36.5315C13.4933 36.5684 13.5232 36.5982 13.56 36.5982C13.5968 36.5982 13.6267 36.5684 13.6267 36.5315L13.56 36.5315L13.4933 36.5315ZM13.6267 37.0799C13.6267 37.0431 13.5968 37.0132 13.56 37.0132C13.5232 37.0132 13.4933 37.0431 13.4933 37.0799L13.56 37.0799L13.6267 37.0799ZM13.4933 37.3541C13.4933 37.3909 13.5232 37.4208 13.56 37.4208C13.5968 37.4208 13.6267 37.3909 13.6267 37.3541L13.56 37.3541L13.4933 37.3541ZM13.6267 37.9024C13.6267 37.8656 13.5968 37.8357 13.56 37.8357C13.5232 37.8357 13.4933 37.8656 13.4933 37.9024L13.56 37.9024L13.6267 37.9024ZM13.4933 38.1766C13.4933 38.2134 13.5232 38.2433 13.56 38.2433C13.5968 38.2433 13.6267 38.2134 13.6267 38.1766L13.56 38.1766L13.4933 38.1766ZM13.6267 38.725C13.6267 38.6881 13.5968 38.6583 13.56 38.6583C13.5232 38.6583 13.4933 38.6881 13.4933 38.725L13.56 38.725L13.6267 38.725ZM13.4933 38.9992C13.4933 39.036 13.5232 39.0658 13.56 39.0658C13.5968 39.0658 13.6267 39.036 13.6267 38.9992L13.56 38.9992L13.4933 38.9992ZM13.6267 39.5475C13.6267 39.5107 13.5968 39.4808 13.56 39.4808C13.5232 39.4808 13.4933 39.5107 13.4933 39.5475L13.56 39.5475L13.6267 39.5475ZM13.4933 39.8217C13.4933 39.8585 13.5232 39.8884 13.56 39.8884C13.5968 39.8884 13.6267 39.8585 13.6267 39.8217L13.56 39.8217L13.4933 39.8217ZM13.6267 40.3701C13.6267 40.3332 13.5968 40.3034 13.56 40.3034C13.5232 40.3034 13.4933 40.3332 13.4933 40.3701L13.56 40.3701L13.6267 40.3701ZM13.4933 40.6442C13.4933 40.6811 13.5232 40.7109 13.56 40.7109C13.5968 40.7109 13.6267 40.6811 13.6267 40.6442L13.56 40.6442L13.4933 40.6442ZM13.6267 41.1926C13.6267 41.1558 13.5968 41.1259 13.56 41.1259C13.5232 41.1259 13.4933 41.1558 13.4933 41.1926L13.56 41.1926L13.6267 41.1926ZM13.4933 41.4668C13.4933 41.5036 13.5232 41.5335 13.56 41.5335C13.5968 41.5335 13.6267 41.5036 13.6267 41.4668L13.56 41.4668L13.4933 41.4668ZM13.6267 42.0151C13.6267 41.9783 13.5968 41.9484 13.56 41.9484C13.5232 41.9484 13.4933 41.9783 13.4933 42.0151L13.56 42.0151L13.6267 42.0151ZM13.4933 42.2893C13.4933 42.3261 13.5232 42.356 13.56 42.356C13.5968 42.356 13.6267 42.3261 13.6267 42.2893L13.56 42.2893L13.4933 42.2893ZM13.6267 42.8377C13.6267 42.8008 13.5968 42.771 13.56 42.771C13.5232 42.771 13.4933 42.8008 13.4933 42.8377L13.56 42.8377L13.6267 42.8377ZM13.4933 43.1119C13.4933 43.1487 13.5232 43.1785 13.56 43.1785C13.5968 43.1785 13.6267 43.1487 13.6267 43.1119L13.56 43.1119L13.4933 43.1119ZM13.6267 43.6602C13.6267 43.6234 13.5968 43.5935 13.56 43.5935C13.5232 43.5935 13.4933 43.6234 13.4933 43.6602L13.56 43.6602L13.6267 43.6602ZM13.4933 43.9344C13.4933 43.9712 13.5232 44.0011 13.56 44.0011C13.5968 44.0011 13.6267 43.9712 13.6267 43.9344L13.56 43.9344L13.4933 43.9344ZM13.6267 44.4828C13.6267 44.4459 13.5968 44.4161 13.56 44.4161C13.5232 44.4161 13.4933 44.4459 13.4933 44.4828L13.56 44.4828L13.6267 44.4828ZM13.4933 44.7569C13.4933 44.7938 13.5232 44.8236 13.56 44.8236C13.5968 44.8236 13.6267 44.7938 13.6267 44.7569L13.56 44.7569L13.4933 44.7569ZM13.6267 45.3053C13.6267 45.2685 13.5968 45.2386 13.56 45.2386C13.5232 45.2386 13.4933 45.2685 13.4933 45.3053L13.56 45.3053L13.6267 45.3053ZM13.56 35.5719L13.4933 35.5719L13.4933 35.709L13.56 35.709L13.6267 35.709L13.6267 35.5719L13.56 35.5719ZM13.56 36.2573L13.4933 36.2573L13.4933 36.5315L13.56 36.5315L13.6267 36.5315L13.6267 36.2573L13.56 36.2573ZM13.56 37.0799L13.4933 37.0799L13.4933 37.3541L13.56 37.3541L13.6267 37.3541L13.6267 37.0799L13.56 37.0799ZM13.56 37.9024L13.4933 37.9024L13.4933 38.1766L13.56 38.1766L13.6267 38.1766L13.6267 37.9024L13.56 37.9024ZM13.56 38.725L13.4933 38.725L13.4933 38.9992L13.56 38.9992L13.6267 38.9992L13.6267 38.725L13.56 38.725ZM13.56 39.5475L13.4933 39.5475L13.4933 39.8217L13.56 39.8217L13.6267 39.8217L13.6267 39.5475L13.56 39.5475ZM13.56 40.3701L13.4933 40.3701L13.4933 40.6442L13.56 40.6442L13.6267 40.6442L13.6267 40.3701L13.56 40.3701ZM13.56 41.1926L13.4933 41.1926L13.4933 41.4668L13.56 41.4668L13.6267 41.4668L13.6267 41.1926L13.56 41.1926ZM13.56 42.0151L13.4933 42.0151L13.4933 42.2893L13.56 42.2893L13.6267 42.2893L13.6267 42.0151L13.56 42.0151ZM13.56 42.8377L13.4933 42.8377L13.4933 43.1119L13.56 43.1119L13.6267 43.1119L13.6267 42.8377L13.56 42.8377ZM13.56 43.6602L13.4933 43.6602L13.4933 43.9344L13.56 43.9344L13.6267 43.9344L13.6267 43.6602L13.56 43.6602ZM13.56 44.4828L13.4933 44.4828L13.4933 44.7569L13.56 44.7569L13.6267 44.7569L13.6267 44.4828L13.56 44.4828ZM13.56 45.3053L13.4933 45.3053L13.4933 45.4424L13.56 45.4424L13.6267 45.4424L13.6267 45.3053L13.56 45.3053Z" fill="#E9E9E9"/>
<path d="M80.4001 35.1869L80.0151 35.5719L80.4001 35.9569L80.7852 35.5719L80.4001 35.1869ZM80.4001 45.8274L80.7852 45.4424L80.4001 45.0573L80.0151 45.4424L80.4001 45.8274ZM80.3335 35.709C80.3335 35.7458 80.3633 35.7757 80.4001 35.7757C80.437 35.7757 80.4668 35.7458 80.4668 35.709L80.4001 35.709L80.3335 35.709ZM80.4668 36.2573C80.4668 36.2205 80.437 36.1907 80.4001 36.1907C80.3633 36.1907 80.3335 36.2205 80.3335 36.2573L80.4001 36.2573L80.4668 36.2573ZM80.3335 36.5315C80.3335 36.5684 80.3633 36.5982 80.4001 36.5982C80.437 36.5982 80.4668 36.5684 80.4668 36.5315L80.4001 36.5315L80.3335 36.5315ZM80.4668 37.0799C80.4668 37.0431 80.437 37.0132 80.4001 37.0132C80.3633 37.0132 80.3335 37.0431 80.3335 37.0799L80.4001 37.0799L80.4668 37.0799ZM80.3335 37.3541C80.3335 37.3909 80.3633 37.4208 80.4001 37.4208C80.437 37.4208 80.4668 37.3909 80.4668 37.3541L80.4001 37.3541L80.3335 37.3541ZM80.4668 37.9024C80.4668 37.8656 80.437 37.8357 80.4001 37.8357C80.3633 37.8357 80.3335 37.8656 80.3335 37.9024L80.4001 37.9024L80.4668 37.9024ZM80.3335 38.1766C80.3335 38.2134 80.3633 38.2433 80.4001 38.2433C80.437 38.2433 80.4668 38.2134 80.4668 38.1766L80.4001 38.1766L80.3335 38.1766ZM80.4668 38.725C80.4668 38.6881 80.437 38.6583 80.4001 38.6583C80.3633 38.6583 80.3335 38.6881 80.3335 38.725L80.4001 38.725L80.4668 38.725ZM80.3335 38.9992C80.3335 39.036 80.3633 39.0658 80.4001 39.0658C80.437 39.0658 80.4668 39.036 80.4668 38.9992L80.4001 38.9992L80.3335 38.9992ZM80.4668 39.5475C80.4668 39.5107 80.437 39.4808 80.4001 39.4808C80.3633 39.4808 80.3335 39.5107 80.3335 39.5475L80.4001 39.5475L80.4668 39.5475ZM80.3335 39.8217C80.3335 39.8585 80.3633 39.8884 80.4001 39.8884C80.437 39.8884 80.4668 39.8585 80.4668 39.8217L80.4001 39.8217L80.3335 39.8217ZM80.4668 40.3701C80.4668 40.3332 80.437 40.3034 80.4001 40.3034C80.3633 40.3034 80.3335 40.3332 80.3335 40.3701L80.4001 40.3701L80.4668 40.3701ZM80.3335 40.6442C80.3335 40.6811 80.3633 40.7109 80.4001 40.7109C80.437 40.7109 80.4668 40.6811 80.4668 40.6442L80.4001 40.6442L80.3335 40.6442ZM80.4668 41.1926C80.4668 41.1558 80.437 41.1259 80.4001 41.1259C80.3633 41.1259 80.3335 41.1558 80.3335 41.1926L80.4001 41.1926L80.4668 41.1926ZM80.3335 41.4668C80.3335 41.5036 80.3633 41.5335 80.4001 41.5335C80.437 41.5335 80.4668 41.5036 80.4668 41.4668L80.4001 41.4668L80.3335 41.4668ZM80.4668 42.0151C80.4668 41.9783 80.437 41.9484 80.4001 41.9484C80.3633 41.9484 80.3335 41.9783 80.3335 42.0151L80.4001 42.0151L80.4668 42.0151ZM80.3335 42.2893C80.3335 42.3261 80.3633 42.356 80.4001 42.356C80.437 42.356 80.4668 42.3261 80.4668 42.2893L80.4001 42.2893L80.3335 42.2893ZM80.4668 42.8377C80.4668 42.8008 80.437 42.771 80.4001 42.771C80.3633 42.771 80.3335 42.8008 80.3335 42.8377L80.4001 42.8377L80.4668 42.8377ZM80.3335 43.1119C80.3335 43.1487 80.3633 43.1785 80.4001 43.1785C80.437 43.1785 80.4668 43.1487 80.4668 43.1119L80.4001 43.1119L80.3335 43.1119ZM80.4668 43.6602C80.4668 43.6234 80.437 43.5935 80.4001 43.5935C80.3633 43.5935 80.3335 43.6234 80.3335 43.6602L80.4001 43.6602L80.4668 43.6602ZM80.3335 43.9344C80.3335 43.9712 80.3633 44.0011 80.4001 44.0011C80.437 44.0011 80.4668 43.9712 80.4668 43.9344L80.4001 43.9344L80.3335 43.9344ZM80.4668 44.4828C80.4668 44.4459 80.437 44.4161 80.4001 44.4161C80.3633 44.4161 80.3335 44.4459 80.3335 44.4828L80.4001 44.4828L80.4668 44.4828ZM80.3335 44.7569C80.3335 44.7938 80.3633 44.8236 80.4001 44.8236C80.437 44.8236 80.4668 44.7938 80.4668 44.7569L80.4001 44.7569L80.3335 44.7569ZM80.4668 45.3053C80.4668 45.2685 80.437 45.2386 80.4001 45.2386C80.3633 45.2386 80.3335 45.2685 80.3335 45.3053L80.4001 45.3053L80.4668 45.3053ZM80.4001 35.5719L80.3335 35.5719L80.3335 35.709L80.4001 35.709L80.4668 35.709L80.4668 35.5719L80.4001 35.5719ZM80.4001 36.2573L80.3335 36.2573L80.3335 36.5315L80.4001 36.5315L80.4668 36.5315L80.4668 36.2573L80.4001 36.2573ZM80.4001 37.0799L80.3335 37.0799L80.3335 37.3541L80.4001 37.3541L80.4668 37.3541L80.4668 37.0799L80.4001 37.0799ZM80.4001 37.9024L80.3335 37.9024L80.3335 38.1766L80.4001 38.1766L80.4668 38.1766L80.4668 37.9024L80.4001 37.9024ZM80.4001 38.725L80.3335 38.725L80.3335 38.9992L80.4001 38.9992L80.4668 38.9992L80.4668 38.725L80.4001 38.725ZM80.4001 39.5475L80.3335 39.5475L80.3335 39.8217L80.4001 39.8217L80.4668 39.8217L80.4668 39.5475L80.4001 39.5475ZM80.4001 40.3701L80.3335 40.3701L80.3335 40.6442L80.4001 40.6442L80.4668 40.6442L80.4668 40.3701L80.4001 40.3701ZM80.4001 41.1926L80.3335 41.1926L80.3335 41.4668L80.4001 41.4668L80.4668 41.4668L80.4668 41.1926L80.4001 41.1926ZM80.4001 42.0151L80.3335 42.0151L80.3335 42.2893L80.4001 42.2893L80.4668 42.2893L80.4668 42.0151L80.4001 42.0151ZM80.4001 42.8377L80.3335 42.8377L80.3335 43.1119L80.4001 43.1119L80.4668 43.1119L80.4668 42.8377L80.4001 42.8377ZM80.4001 43.6602L80.3335 43.6602L80.3335 43.9344L80.4001 43.9344L80.4668 43.9344L80.4668 43.6602L80.4001 43.6602ZM80.4001 44.4828L80.3335 44.4828L80.3335 44.7569L80.4001 44.7569L80.4668 44.7569L80.4668 44.4828L80.4001 44.4828ZM80.4001 45.3053L80.3335 45.3053L80.3335 45.4424L80.4001 45.4424L80.4668 45.4424L80.4668 45.3053L80.4001 45.3053Z" fill="#E9E9E9"/>
</svg>
