<svg width="95" height="80" viewBox="0 0 95 80" fill="none" xmlns="http://www.w3.org/2000/svg">
<path d="M4.9458 50.0009L47.0421 25.6965L89.1384 50.0009L47.0421 74.3052L4.9458 50.0009Z" fill="white"/>
<path d="M4.9458 50.0009L4.77352 49.9014L4.60125 50.0009L4.77352 50.1003L4.9458 50.0009ZM47.0421 25.6965L47.2144 25.5971L47.0421 25.4976L46.8698 25.5971L47.0421 25.6965ZM89.1384 50.0009L89.3107 50.1003L89.483 50.0009L89.3107 49.9014L89.1384 50.0009ZM47.0421 74.3052L46.8698 74.4046L47.0421 74.5041L47.2144 74.4046L47.0421 74.3052ZM4.9458 50.0009L5.11808 50.1003L47.2144 25.796L47.0421 25.6965L46.8698 25.5971L4.77352 49.9014L4.9458 50.0009ZM47.0421 25.6965L46.8698 25.796L88.9662 50.1003L89.1384 50.0009L89.3107 49.9014L47.2144 25.5971L47.0421 25.6965ZM89.1384 50.0009L88.9662 49.9014L46.8698 74.2057L47.0421 74.3052L47.2144 74.4046L89.3107 50.1003L89.1384 50.0009ZM47.0421 74.3052L47.2144 74.2057L5.11808 49.9014L4.9458 50.0009L4.77352 50.1003L46.8698 74.4046L47.0421 74.3052Z" fill="#7A7A7A"/>
<path d="M4.9458 46.3914L47.0421 22.087L89.1384 46.3914L47.0421 70.6957L4.9458 46.3914Z" fill="#E9E9E9"/>
<path d="M13.4197 46.3859L47.118 26.9302L80.8163 46.3859L47.118 65.8416L13.4197 46.3859Z" fill="white" stroke="#7A7A7A" stroke-width="0.397858"/>
<path d="M13.4197 34.6612L47.0572 15.2406L80.6947 34.6612L47.0572 54.0818L13.4197 34.6612Z" fill="white"/>
<path d="M13.4197 34.6612L13.2474 34.5617L13.0752 34.6612L13.2474 34.7607L13.4197 34.6612ZM47.0572 15.2406L47.2295 15.1411L47.0572 15.0417L46.8849 15.1411L47.0572 15.2406ZM80.6947 34.6612L80.8669 34.7607L81.0392 34.6612L80.8669 34.5617L80.6947 34.6612ZM47.0572 54.0818L46.8849 54.1813L47.0572 54.2807L47.2295 54.1813L47.0572 54.0818ZM13.4197 34.6612L13.592 34.7607L47.2295 15.34L47.0572 15.2406L46.8849 15.1411L13.2474 34.5617L13.4197 34.6612ZM47.0572 15.2406L46.8849 15.34L80.5224 34.7607L80.6947 34.6612L80.8669 34.5617L47.2295 15.1411L47.0572 15.2406ZM80.6947 34.6612L80.5224 34.5617L46.8849 53.9823L47.0572 54.0818L47.2295 54.1813L80.8669 34.7607L80.6947 34.6612ZM47.0572 54.0818L47.2295 53.9823L13.592 34.5617L13.4197 34.6612L13.2474 34.7607L46.8849 54.1813L47.0572 54.0818Z" fill="#7A7A7A"/>
<rect x="0.0739294" width="35.9024" height="35.9024" transform="matrix(0.866025 -0.5 0.866025 0.5 15.6812 34.6869)" stroke="#7A7A7A" stroke-width="0.0853663" stroke-dasharray="0.27 0.4"/>
<path d="M17.4127 34.6499L46.8375 17.6615L76.2623 34.6499L46.8375 51.6383L17.4127 34.6499Z" fill="white"/>
<path d="M68.4877 30.429C69.752 30.429 70.8341 30.8785 71.2836 31.515L71.5092 31.5169V32.2005H71.5053C71.4784 33.1494 70.1382 33.9134 68.4877 33.9134C66.8207 33.9133 65.4692 33.1334 65.4692 32.1712C65.4692 32.1562 65.4705 32.1412 65.4711 32.1263V31.4896L65.7084 31.4905C66.1678 30.8667 67.2393 30.4291 68.4877 30.429Z" fill="#5160FF"/>
<path d="M68.4877 30.429V30.2836H68.4877L68.4877 30.429ZM71.2836 31.515L71.1648 31.5988L71.2078 31.6597L71.2824 31.6604L71.2836 31.515ZM71.5092 31.5169H71.6546V31.3727L71.5105 31.3715L71.5092 31.5169ZM71.5092 32.2005V32.3459H71.6546V32.2005H71.5092ZM71.5053 32.2005V32.0551H71.364L71.3599 32.1964L71.5053 32.2005ZM68.4877 33.9134L68.4877 34.0588H68.4877V33.9134ZM65.4692 32.1712L65.3238 32.1712V32.1712H65.4692ZM65.4711 32.1263L65.6166 32.1327V32.1263H65.4711ZM65.4711 31.4896L65.4717 31.3441L65.3257 31.3435V31.4896H65.4711ZM65.7084 31.4905L65.7078 31.636L65.7817 31.6363L65.8255 31.5768L65.7084 31.4905ZM68.4877 30.429V30.5744C69.729 30.5744 70.754 31.0172 71.1648 31.5988L71.2836 31.515L71.4024 31.4311C70.9142 30.7398 69.7751 30.2836 68.4877 30.2836V30.429ZM71.2836 31.515L71.2824 31.6604L71.508 31.6623L71.5092 31.5169L71.5105 31.3715L71.2849 31.3695L71.2836 31.515ZM71.5092 31.5169H71.3638V32.2005H71.5092H71.6546V31.5169H71.5092ZM71.5092 32.2005V32.0551H71.5053V32.2005V32.3459H71.5092V32.2005ZM71.5053 32.2005L71.3599 32.1964C71.3485 32.5985 71.0566 32.989 70.5335 33.2863C70.0143 33.5815 69.2923 33.768 68.4877 33.768V33.9134V34.0588C69.3336 34.0588 70.107 33.8633 70.6772 33.5392C71.2436 33.2173 71.6352 32.7513 71.6507 32.2046L71.5053 32.2005ZM68.4877 33.9134L68.4877 33.768C67.6751 33.7679 66.9464 33.5775 66.426 33.2771C65.9017 32.9745 65.6146 32.5783 65.6146 32.1712H65.4692H65.3238C65.3238 32.7263 65.7124 33.2011 66.2806 33.529C66.8527 33.8592 67.6333 34.0587 68.4877 34.0588L68.4877 33.9134ZM65.4692 32.1712L65.6146 32.1712C65.6146 32.16 65.6154 32.1562 65.6164 32.1327L65.4711 32.1263L65.3259 32.1199C65.3256 32.1262 65.3238 32.1523 65.3238 32.1712L65.4692 32.1712ZM65.4711 32.1263H65.6166V31.4896H65.4711H65.3257V32.1263H65.4711ZM65.4711 31.4896L65.4705 31.635L65.7078 31.636L65.7084 31.4905L65.709 31.3451L65.4717 31.3441L65.4711 31.4896ZM65.7084 31.4905L65.8255 31.5768C66.2462 31.0054 67.2625 30.5745 68.4877 30.5744L68.4877 30.429L68.4877 30.2836C67.216 30.2837 66.0893 30.728 65.5913 31.4043L65.7084 31.4905Z" fill="#5160FF"/>
<path d="M68.4882 29.748C69.3512 29.7481 70.129 29.9497 70.6884 30.2725C71.2499 30.5966 71.5781 31.0336 71.5781 31.5C71.578 31.9663 71.2499 32.4025 70.6884 32.7266C70.129 33.0494 69.3514 33.2519 68.4882 33.252C67.6248 33.252 66.8466 33.0495 66.287 32.7266C65.7256 32.4025 65.3975 31.9663 65.3974 31.5C65.3974 31.0336 65.7255 30.5966 66.287 30.2725C66.8466 29.9496 67.625 29.748 68.4882 29.748Z" fill="#F2F4FF" stroke="#5160FF" stroke-width="0.15"/>
<path d="M68.877 30.8301L69.6113 31.3145L69.4141 31.4453L69.1504 31.2705C69.1424 31.2971 69.1319 31.3238 69.1152 31.3496C69.0901 31.3894 69.0544 31.4253 69.0127 31.4619L69.207 31.5898L69.0098 31.7207L68.8174 31.5938C68.7215 31.6412 68.62 31.6724 68.5127 31.6855C68.3665 31.7036 68.218 31.6812 68.0674 31.6191C68.0313 31.6039 68.0011 31.5895 67.9766 31.5762C67.9527 31.5623 67.9239 31.5444 67.8906 31.5225L67.875 31.5117L67.9443 32.2803L67.5791 32.0391L67.5176 31.2764L67.7617 31.1152L68.125 31.3545C68.1402 31.3645 68.157 31.3753 68.1758 31.3857C68.1953 31.3967 68.216 31.4064 68.2363 31.4141C68.2905 31.4345 68.3433 31.4438 68.3945 31.4424C68.4473 31.441 68.4962 31.4322 68.541 31.416L68.5449 31.4141L67.9346 31.0117L68.1328 30.8809L68.7422 31.2832L68.7451 31.2812C68.7704 31.2512 68.7849 31.2184 68.7871 31.1836C68.79 31.1492 68.775 31.1144 68.7432 31.0791C68.7316 31.0658 68.7175 31.0524 68.7002 31.04C68.6843 31.0276 68.6685 31.0159 68.6533 31.0059L68.29 30.7666L68.5361 30.6045L68.877 30.8301Z" fill="#5160FF"/>
<path d="M68.877 30.8301L69.6113 31.3145L69.4141 31.4453L69.1504 31.2705C69.1424 31.2971 69.1319 31.3238 69.1152 31.3496C69.0901 31.3894 69.0544 31.4253 69.0127 31.4619L69.207 31.5898L69.0098 31.7207L68.8174 31.5938C68.7215 31.6412 68.62 31.6724 68.5127 31.6855C68.3665 31.7036 68.218 31.6812 68.0674 31.6191C68.0313 31.6039 68.0011 31.5895 67.9766 31.5762C67.9527 31.5623 67.9239 31.5444 67.8906 31.5225L67.875 31.5117L67.9443 32.2803L67.5791 32.0391L67.5176 31.2764L67.7617 31.1152L68.125 31.3545C68.1402 31.3645 68.157 31.3753 68.1758 31.3857C68.1953 31.3967 68.216 31.4064 68.2363 31.4141C68.2905 31.4345 68.3433 31.4438 68.3945 31.4424C68.4473 31.441 68.4962 31.4322 68.541 31.416L68.5449 31.4141L67.9346 31.0117L68.1328 30.8809L68.7422 31.2832L68.7451 31.2812C68.7704 31.2512 68.7849 31.2184 68.7871 31.1836C68.79 31.1492 68.775 31.1144 68.7432 31.0791C68.7316 31.0658 68.7175 31.0524 68.7002 31.04C68.6843 31.0276 68.6685 31.0159 68.6533 31.0059L68.29 30.7666L68.5361 30.6045L68.877 30.8301Z" stroke="#5160FF"/>
<path d="M67.0461 28.268C68.3098 28.268 69.3912 28.7167 69.8401 29.353L70.0647 29.3549V30.0385H70.0608C70.0331 30.9862 68.6947 31.7494 67.0461 31.7495C65.3802 31.7495 64.0295 30.9697 64.0295 30.0082C64.0295 29.9932 64.0308 29.9783 64.0315 29.9633V29.3276L64.2678 29.3286C64.7266 28.7048 65.7981 28.268 67.0461 28.268Z" fill="#5160FF"/>
<path d="M67.0463 27.5853C67.9093 27.5854 68.6871 27.787 69.2465 28.1097C69.8081 28.4338 70.1362 28.8709 70.1362 29.3373C70.1361 29.8036 69.808 30.2398 69.2465 30.5638C68.6871 30.8867 67.9095 31.0892 67.0463 31.0892C66.1829 31.0892 65.4047 30.8868 64.8452 30.5638C64.2837 30.2398 63.9556 29.8036 63.9555 29.3373C63.9555 28.8709 64.2836 28.4338 64.8452 28.1097C65.4047 27.7869 66.1831 27.5853 67.0463 27.5853Z" fill="#F2F4FF" stroke="#5160FF" stroke-width="0.15"/>
<path d="M67.4349 28.6674L68.1693 29.1518L67.972 29.2827L67.7084 29.1078C67.7004 29.1344 67.6899 29.1612 67.6732 29.187C67.6481 29.2267 67.6123 29.2626 67.5707 29.2993L67.765 29.4272L67.5677 29.558L67.3754 29.4311C67.2795 29.4786 67.178 29.5097 67.0707 29.5229C66.9244 29.541 66.776 29.5186 66.6254 29.4565C66.5891 29.4412 66.5582 29.4269 66.5336 29.4135C66.5098 29.3997 66.4816 29.3816 66.4486 29.3598L66.433 29.3491L66.5023 30.1166L66.1371 29.8764L66.0756 29.1137L66.3197 28.9526L66.683 29.1918C66.6982 29.2019 66.715 29.2126 66.7338 29.2231C66.7532 29.234 66.7732 29.2428 66.7933 29.2504C66.8477 29.271 66.9011 29.2812 66.9525 29.2797C67.0053 29.2783 67.0542 29.2696 67.099 29.2534L67.1029 29.2514L66.4926 28.8481L66.6908 28.7182L67.3002 29.1205L67.3031 29.1186C67.3284 29.0885 67.3429 29.0557 67.3451 29.0209C67.348 28.9866 67.3329 28.9517 67.3011 28.9164C67.2896 28.9031 67.2754 28.8897 67.2582 28.8774C67.2423 28.865 67.2265 28.8532 67.2113 28.8432L66.848 28.6039L67.0941 28.4418L67.4349 28.6674Z" fill="#5160FF"/>
<path d="M31.0718 20.1512V30.2166L36.2155 33.1863V23.1209L31.0718 20.1512Z" fill="#F2F4FF" stroke="#5160FF" stroke-width="0.397858"/>
<path d="M41.704 20.1493V30.1552L36.5603 33.1835V23.119L41.704 20.1493Z" fill="#A8AFFF" stroke="#5160FF" stroke-width="0.397858"/>
<path d="M41.6714 19.9685L36.4185 16.9455L31.0661 19.921L36.448 23.0362L41.6714 19.9685Z" fill="#5160FF" stroke="#5160FF" stroke-width="0.318286" stroke-linejoin="bevel"/>
<path d="M40.9522 15.0706V35.7952L46.2152 38.8338V18.1092L40.9522 15.0706Z" fill="#F2F4FF" stroke="#5160FF" stroke-width="0.397858"/>
<path d="M51.8232 14.723L46.1343 11.7757L40.9204 14.7859L46.3492 17.9368L51.8232 14.723Z" fill="#5160FF" stroke="#5160FF" stroke-width="0.318286" stroke-linejoin="bevel"/>
<path d="M51.5846 35.8698L46.4417 38.839L46.4899 18.0778L51.5846 15.111V35.8698Z" fill="#A8AFFF" stroke="#5160FF" stroke-width="0.397858"/>
<path d="M50.7921 8.47986V41.4232L56.0339 44.4496V11.5062L50.7921 8.47986Z" fill="#F2F4FF" stroke="#5160FF" stroke-width="0.397858"/>
<path d="M61.4158 8.5564V41.5134L56.3304 44.4495V11.4924L61.4158 8.5564Z" fill="#A8AFFF" stroke="#5160FF" stroke-width="0.397858"/>
<path d="M61.4732 8.31689L56.0217 5.33494L50.836 8.25788L56.2122 11.3662L61.4732 8.31689Z" fill="#5160FF" stroke="#5160FF" stroke-width="0.318286" stroke-linejoin="bevel"/>
<circle cx="0.807035" cy="0.807035" r="0.807035" transform="matrix(0.866025 -0.5 0.866025 0.5 7.36676 46.2492)" fill="white"/>
<circle cx="0.807035" cy="0.807035" r="0.807035" transform="matrix(0.866025 -0.5 0.866025 0.5 45.72 68.239)" fill="white"/>
<ellipse cx="0.477029" cy="0.477029" rx="0.477029" ry="0.477029" transform="matrix(0.866025 -0.5 0.866025 0.5 18.4601 34.6196)" fill="#7A7A7A"/>
<ellipse cx="0.477029" cy="0.477029" rx="0.477029" ry="0.477029" transform="matrix(0.866025 -0.5 0.866025 0.5 73.7375 34.6196)" fill="#7A7A7A"/>
<ellipse cx="0.477029" cy="0.477029" rx="0.477029" ry="0.477029" transform="matrix(0.866025 -0.5 0.866025 0.5 45.9936 50.4182)" fill="#7A7A7A"/>
<circle cx="0.807035" cy="0.807035" r="0.807035" transform="matrix(0.866025 -0.5 0.866025 0.5 83.4299 46.2492)" fill="white"/>
<path d="M48.1274 66.5143L52.6673 63.8932L54.2572 64.8111L49.7173 67.4322L48.1274 66.5143Z" fill="#F4FF6A"/>
<path d="M53.3734 63.4838L55.1131 62.4793L56.703 63.3973L54.9633 64.4017L53.3734 63.4838Z" fill="#F4FF6A"/>
<path d="M47.1133 54.3878L46.7283 54.7728L47.1133 55.1579L47.4984 54.7728L47.1133 54.3878ZM47.1133 65.0441L47.4984 64.659L47.1133 64.274L46.7283 64.659L47.1133 65.0441ZM47.0466 54.9101C47.0466 54.947 47.0765 54.9768 47.1133 54.9768C47.1501 54.9768 47.18 54.947 47.18 54.9101L47.1133 54.9101L47.0466 54.9101ZM47.18 55.4594C47.18 55.4225 47.1501 55.3927 47.1133 55.3927C47.0765 55.3927 47.0466 55.4225 47.0466 55.4594L47.1133 55.4594L47.18 55.4594ZM47.0466 55.734C47.0466 55.7708 47.0765 55.8007 47.1133 55.8007C47.1501 55.8007 47.18 55.7708 47.18 55.734L47.1133 55.734L47.0466 55.734ZM47.18 56.2832C47.18 56.2464 47.1501 56.2165 47.1133 56.2165C47.0765 56.2165 47.0466 56.2464 47.0466 56.2832L47.1133 56.2832L47.18 56.2832ZM47.0466 56.5578C47.0466 56.5947 47.0765 56.6245 47.1133 56.6245C47.1501 56.6245 47.18 56.5947 47.18 56.5578L47.1133 56.5578L47.0466 56.5578ZM47.18 57.1071C47.18 57.0702 47.1501 57.0404 47.1133 57.0404C47.0765 57.0404 47.0466 57.0702 47.0466 57.1071L47.1133 57.1071L47.18 57.1071ZM47.0466 57.3817C47.0466 57.4185 47.0765 57.4484 47.1133 57.4484C47.1501 57.4484 47.18 57.4185 47.18 57.3817L47.1133 57.3817L47.0466 57.3817ZM47.18 57.9309C47.18 57.8941 47.1501 57.8642 47.1133 57.8642C47.0765 57.8642 47.0466 57.8941 47.0466 57.9309L47.1133 57.9309L47.18 57.9309ZM47.0466 58.2055C47.0466 58.2424 47.0765 58.2722 47.1133 58.2722C47.1501 58.2722 47.18 58.2424 47.18 58.2055L47.1133 58.2055L47.0466 58.2055ZM47.18 58.7548C47.18 58.7179 47.1501 58.6881 47.1133 58.6881C47.0765 58.6881 47.0466 58.7179 47.0466 58.7548L47.1133 58.7548L47.18 58.7548ZM47.0466 59.0294C47.0466 59.0662 47.0765 59.0961 47.1133 59.0961C47.1501 59.0961 47.18 59.0662 47.18 59.0294L47.1133 59.0294L47.0466 59.0294ZM47.18 59.5786C47.18 59.5418 47.1501 59.5119 47.1133 59.5119C47.0765 59.5119 47.0466 59.5418 47.0466 59.5786L47.1133 59.5786L47.18 59.5786ZM47.0466 59.8532C47.0466 59.8901 47.0765 59.9199 47.1133 59.9199C47.1501 59.9199 47.18 59.8901 47.18 59.8532L47.1133 59.8532L47.0466 59.8532ZM47.18 60.4025C47.18 60.3656 47.1501 60.3358 47.1133 60.3358C47.0765 60.3358 47.0466 60.3656 47.0466 60.4025L47.1133 60.4025L47.18 60.4025ZM47.0466 60.6771C47.0466 60.7139 47.0765 60.7438 47.1133 60.7438C47.1501 60.7438 47.18 60.7139 47.18 60.6771L47.1133 60.6771L47.0466 60.6771ZM47.18 61.2263C47.18 61.1895 47.1501 61.1596 47.1133 61.1596C47.0765 61.1596 47.0466 61.1895 47.0466 61.2263L47.1133 61.2263L47.18 61.2263ZM47.0466 61.5009C47.0466 61.5378 47.0765 61.5676 47.1133 61.5676C47.1501 61.5676 47.18 61.5378 47.18 61.5009L47.1133 61.5009L47.0466 61.5009ZM47.18 62.0501C47.18 62.0133 47.1501 61.9835 47.1133 61.9835C47.0765 61.9835 47.0466 62.0133 47.0466 62.0501L47.1133 62.0501L47.18 62.0501ZM47.0466 62.3248C47.0466 62.3616 47.0765 62.3915 47.1133 62.3915C47.1501 62.3915 47.18 62.3616 47.18 62.3248L47.1133 62.3248L47.0466 62.3248ZM47.18 62.874C47.18 62.8372 47.1501 62.8073 47.1133 62.8073C47.0765 62.8073 47.0466 62.8372 47.0466 62.874L47.1133 62.874L47.18 62.874ZM47.0466 63.1486C47.0466 63.1854 47.0765 63.2153 47.1133 63.2153C47.1501 63.2153 47.18 63.1854 47.18 63.1486L47.1133 63.1486L47.0466 63.1486ZM47.18 63.6978C47.18 63.661 47.1501 63.6312 47.1133 63.6312C47.0765 63.6312 47.0466 63.661 47.0466 63.6978L47.1133 63.6978L47.18 63.6978ZM47.0466 63.9725C47.0466 64.0093 47.0765 64.0392 47.1133 64.0392C47.1501 64.0392 47.18 64.0093 47.18 63.9725L47.1133 63.9725L47.0466 63.9725ZM47.18 64.5217C47.18 64.4849 47.1501 64.455 47.1133 64.455C47.0765 64.455 47.0466 64.4849 47.0466 64.5217L47.1133 64.5217L47.18 64.5217ZM47.1133 54.7728L47.0466 54.7728L47.0466 54.9101L47.1133 54.9101L47.18 54.9101L47.18 54.7728L47.1133 54.7728ZM47.1133 55.4594L47.0466 55.4594L47.0466 55.734L47.1133 55.734L47.18 55.734L47.18 55.4594L47.1133 55.4594ZM47.1133 56.2832L47.0466 56.2832L47.0466 56.5578L47.1133 56.5578L47.18 56.5578L47.18 56.2832L47.1133 56.2832ZM47.1133 57.1071L47.0466 57.1071L47.0466 57.3817L47.1133 57.3817L47.18 57.3817L47.18 57.1071L47.1133 57.1071ZM47.1133 57.9309L47.0466 57.9309L47.0466 58.2055L47.1133 58.2055L47.18 58.2055L47.18 57.9309L47.1133 57.9309ZM47.1133 58.7548L47.0466 58.7548L47.0466 59.0294L47.1133 59.0294L47.18 59.0294L47.18 58.7548L47.1133 58.7548ZM47.1133 59.5786L47.0466 59.5786L47.0466 59.8532L47.1133 59.8532L47.18 59.8532L47.18 59.5786L47.1133 59.5786ZM47.1133 60.4025L47.0466 60.4025L47.0466 60.6771L47.1133 60.6771L47.18 60.6771L47.18 60.4025L47.1133 60.4025ZM47.1133 61.2263L47.0466 61.2263L47.0466 61.5009L47.1133 61.5009L47.18 61.5009L47.18 61.2263L47.1133 61.2263ZM47.1133 62.0501L47.0466 62.0501L47.0466 62.3248L47.1133 62.3248L47.18 62.3248L47.18 62.0501L47.1133 62.0501ZM47.1133 62.874L47.0466 62.874L47.0466 63.1486L47.1133 63.1486L47.18 63.1486L47.18 62.874L47.1133 62.874ZM47.1133 63.6978L47.0466 63.6978L47.0466 63.9725L47.1133 63.9725L47.18 63.9725L47.18 63.6978L47.1133 63.6978ZM47.1133 64.5217L47.0466 64.5217L47.0466 64.659L47.1133 64.659L47.18 64.659L47.18 64.5217L47.1133 64.5217Z" fill="#383838"/>
<path d="M13.6987 35.1869L13.3136 35.5719L13.6987 35.9569L14.0837 35.5719L13.6987 35.1869ZM13.6987 45.8274L14.0837 45.4424L13.6987 45.0573L13.3136 45.4424L13.6987 45.8274ZM13.632 35.709C13.632 35.7458 13.6618 35.7757 13.6987 35.7757C13.7355 35.7757 13.7654 35.7458 13.7654 35.709L13.6987 35.709L13.632 35.709ZM13.7654 36.2573C13.7654 36.2205 13.7355 36.1907 13.6987 36.1907C13.6618 36.1907 13.632 36.2205 13.632 36.2573L13.6987 36.2573L13.7654 36.2573ZM13.632 36.5315C13.632 36.5684 13.6618 36.5982 13.6987 36.5982C13.7355 36.5982 13.7654 36.5684 13.7654 36.5315L13.6987 36.5315L13.632 36.5315ZM13.7654 37.0799C13.7654 37.0431 13.7355 37.0132 13.6987 37.0132C13.6618 37.0132 13.632 37.0431 13.632 37.0799L13.6987 37.0799L13.7654 37.0799ZM13.632 37.3541C13.632 37.3909 13.6618 37.4208 13.6987 37.4208C13.7355 37.4208 13.7654 37.3909 13.7654 37.3541L13.6987 37.3541L13.632 37.3541ZM13.7654 37.9024C13.7654 37.8656 13.7355 37.8357 13.6987 37.8357C13.6618 37.8357 13.632 37.8656 13.632 37.9024L13.6987 37.9024L13.7654 37.9024ZM13.632 38.1766C13.632 38.2134 13.6618 38.2433 13.6987 38.2433C13.7355 38.2433 13.7654 38.2134 13.7654 38.1766L13.6987 38.1766L13.632 38.1766ZM13.7654 38.725C13.7654 38.6881 13.7355 38.6583 13.6987 38.6583C13.6618 38.6583 13.632 38.6881 13.632 38.725L13.6987 38.725L13.7654 38.725ZM13.632 38.9992C13.632 39.036 13.6618 39.0658 13.6987 39.0658C13.7355 39.0658 13.7654 39.036 13.7654 38.9992L13.6987 38.9992L13.632 38.9992ZM13.7654 39.5475C13.7654 39.5107 13.7355 39.4808 13.6987 39.4808C13.6618 39.4808 13.632 39.5107 13.632 39.5475L13.6987 39.5475L13.7654 39.5475ZM13.632 39.8217C13.632 39.8585 13.6618 39.8884 13.6987 39.8884C13.7355 39.8884 13.7654 39.8585 13.7654 39.8217L13.6987 39.8217L13.632 39.8217ZM13.7654 40.3701C13.7654 40.3332 13.7355 40.3034 13.6987 40.3034C13.6618 40.3034 13.632 40.3332 13.632 40.3701L13.6987 40.3701L13.7654 40.3701ZM13.632 40.6442C13.632 40.6811 13.6618 40.7109 13.6987 40.7109C13.7355 40.7109 13.7654 40.6811 13.7654 40.6442L13.6987 40.6442L13.632 40.6442ZM13.7654 41.1926C13.7654 41.1558 13.7355 41.1259 13.6987 41.1259C13.6618 41.1259 13.632 41.1558 13.632 41.1926L13.6987 41.1926L13.7654 41.1926ZM13.632 41.4668C13.632 41.5036 13.6618 41.5335 13.6987 41.5335C13.7355 41.5335 13.7654 41.5036 13.7654 41.4668L13.6987 41.4668L13.632 41.4668ZM13.7654 42.0151C13.7654 41.9783 13.7355 41.9484 13.6987 41.9484C13.6618 41.9484 13.632 41.9783 13.632 42.0151L13.6987 42.0151L13.7654 42.0151ZM13.632 42.2893C13.632 42.3261 13.6618 42.356 13.6987 42.356C13.7355 42.356 13.7654 42.3261 13.7654 42.2893L13.6987 42.2893L13.632 42.2893ZM13.7654 42.8377C13.7654 42.8008 13.7355 42.771 13.6987 42.771C13.6618 42.771 13.632 42.8008 13.632 42.8377L13.6987 42.8377L13.7654 42.8377ZM13.632 43.1119C13.632 43.1487 13.6618 43.1785 13.6987 43.1785C13.7355 43.1785 13.7654 43.1487 13.7654 43.1119L13.6987 43.1119L13.632 43.1119ZM13.7654 43.6602C13.7654 43.6234 13.7355 43.5935 13.6987 43.5935C13.6618 43.5935 13.632 43.6234 13.632 43.6602L13.6987 43.6602L13.7654 43.6602ZM13.632 43.9344C13.632 43.9712 13.6618 44.0011 13.6987 44.0011C13.7355 44.0011 13.7654 43.9712 13.7654 43.9344L13.6987 43.9344L13.632 43.9344ZM13.7654 44.4828C13.7654 44.4459 13.7355 44.4161 13.6987 44.4161C13.6618 44.4161 13.632 44.4459 13.632 44.4828L13.6987 44.4828L13.7654 44.4828ZM13.632 44.7569C13.632 44.7938 13.6618 44.8236 13.6987 44.8236C13.7355 44.8236 13.7654 44.7938 13.7654 44.7569L13.6987 44.7569L13.632 44.7569ZM13.7654 45.3053C13.7654 45.2685 13.7355 45.2386 13.6987 45.2386C13.6618 45.2386 13.632 45.2685 13.632 45.3053L13.6987 45.3053L13.7654 45.3053ZM13.6987 35.5719L13.632 35.5719L13.632 35.709L13.6987 35.709L13.7654 35.709L13.7654 35.5719L13.6987 35.5719ZM13.6987 36.2573L13.632 36.2573L13.632 36.5315L13.6987 36.5315L13.7654 36.5315L13.7654 36.2573L13.6987 36.2573ZM13.6987 37.0799L13.632 37.0799L13.632 37.3541L13.6987 37.3541L13.7654 37.3541L13.7654 37.0799L13.6987 37.0799ZM13.6987 37.9024L13.632 37.9024L13.632 38.1766L13.6987 38.1766L13.7654 38.1766L13.7654 37.9024L13.6987 37.9024ZM13.6987 38.725L13.632 38.725L13.632 38.9992L13.6987 38.9992L13.7654 38.9992L13.7654 38.725L13.6987 38.725ZM13.6987 39.5475L13.632 39.5475L13.632 39.8217L13.6987 39.8217L13.7654 39.8217L13.7654 39.5475L13.6987 39.5475ZM13.6987 40.3701L13.632 40.3701L13.632 40.6442L13.6987 40.6442L13.7654 40.6442L13.7654 40.3701L13.6987 40.3701ZM13.6987 41.1926L13.632 41.1926L13.632 41.4668L13.6987 41.4668L13.7654 41.4668L13.7654 41.1926L13.6987 41.1926ZM13.6987 42.0151L13.632 42.0151L13.632 42.2893L13.6987 42.2893L13.7654 42.2893L13.7654 42.0151L13.6987 42.0151ZM13.6987 42.8377L13.632 42.8377L13.632 43.1119L13.6987 43.1119L13.7654 43.1119L13.7654 42.8377L13.6987 42.8377ZM13.6987 43.6602L13.632 43.6602L13.632 43.9344L13.6987 43.9344L13.7654 43.9344L13.7654 43.6602L13.6987 43.6602ZM13.6987 44.4828L13.632 44.4828L13.632 44.7569L13.6987 44.7569L13.7654 44.7569L13.7654 44.4828L13.6987 44.4828ZM13.6987 45.3053L13.632 45.3053L13.632 45.4424L13.6987 45.4424L13.7654 45.4424L13.7654 45.3053L13.6987 45.3053Z" fill="#383838"/>
<path d="M80.5388 35.1869L80.1538 35.5719L80.5388 35.9569L80.9239 35.5719L80.5388 35.1869ZM80.5388 45.8274L80.9239 45.4424L80.5388 45.0573L80.1538 45.4424L80.5388 45.8274ZM80.4721 35.709C80.4721 35.7458 80.502 35.7757 80.5388 35.7757C80.5757 35.7757 80.6055 35.7458 80.6055 35.709L80.5388 35.709L80.4721 35.709ZM80.6055 36.2573C80.6055 36.2205 80.5757 36.1907 80.5388 36.1907C80.502 36.1907 80.4721 36.2205 80.4721 36.2573L80.5388 36.2573L80.6055 36.2573ZM80.4721 36.5315C80.4721 36.5684 80.502 36.5982 80.5388 36.5982C80.5757 36.5982 80.6055 36.5684 80.6055 36.5315L80.5388 36.5315L80.4721 36.5315ZM80.6055 37.0799C80.6055 37.0431 80.5757 37.0132 80.5388 37.0132C80.502 37.0132 80.4721 37.0431 80.4721 37.0799L80.5388 37.0799L80.6055 37.0799ZM80.4721 37.3541C80.4721 37.3909 80.502 37.4208 80.5388 37.4208C80.5757 37.4208 80.6055 37.3909 80.6055 37.3541L80.5388 37.3541L80.4721 37.3541ZM80.6055 37.9024C80.6055 37.8656 80.5757 37.8357 80.5388 37.8357C80.502 37.8357 80.4721 37.8656 80.4721 37.9024L80.5388 37.9024L80.6055 37.9024ZM80.4721 38.1766C80.4721 38.2134 80.502 38.2433 80.5388 38.2433C80.5757 38.2433 80.6055 38.2134 80.6055 38.1766L80.5388 38.1766L80.4721 38.1766ZM80.6055 38.725C80.6055 38.6881 80.5757 38.6583 80.5388 38.6583C80.502 38.6583 80.4721 38.6881 80.4721 38.725L80.5388 38.725L80.6055 38.725ZM80.4721 38.9992C80.4721 39.036 80.502 39.0658 80.5388 39.0658C80.5757 39.0658 80.6055 39.036 80.6055 38.9992L80.5388 38.9992L80.4721 38.9992ZM80.6055 39.5475C80.6055 39.5107 80.5757 39.4808 80.5388 39.4808C80.502 39.4808 80.4721 39.5107 80.4721 39.5475L80.5388 39.5475L80.6055 39.5475ZM80.4721 39.8217C80.4721 39.8585 80.502 39.8884 80.5388 39.8884C80.5757 39.8884 80.6055 39.8585 80.6055 39.8217L80.5388 39.8217L80.4721 39.8217ZM80.6055 40.3701C80.6055 40.3332 80.5757 40.3034 80.5388 40.3034C80.502 40.3034 80.4721 40.3332 80.4721 40.3701L80.5388 40.3701L80.6055 40.3701ZM80.4721 40.6442C80.4721 40.6811 80.502 40.7109 80.5388 40.7109C80.5757 40.7109 80.6055 40.6811 80.6055 40.6442L80.5388 40.6442L80.4721 40.6442ZM80.6055 41.1926C80.6055 41.1558 80.5757 41.1259 80.5388 41.1259C80.502 41.1259 80.4721 41.1558 80.4721 41.1926L80.5388 41.1926L80.6055 41.1926ZM80.4721 41.4668C80.4721 41.5036 80.502 41.5335 80.5388 41.5335C80.5757 41.5335 80.6055 41.5036 80.6055 41.4668L80.5388 41.4668L80.4721 41.4668ZM80.6055 42.0151C80.6055 41.9783 80.5757 41.9484 80.5388 41.9484C80.502 41.9484 80.4721 41.9783 80.4721 42.0151L80.5388 42.0151L80.6055 42.0151ZM80.4721 42.2893C80.4721 42.3261 80.502 42.356 80.5388 42.356C80.5757 42.356 80.6055 42.3261 80.6055 42.2893L80.5388 42.2893L80.4721 42.2893ZM80.6055 42.8377C80.6055 42.8008 80.5757 42.771 80.5388 42.771C80.502 42.771 80.4721 42.8008 80.4721 42.8377L80.5388 42.8377L80.6055 42.8377ZM80.4721 43.1119C80.4721 43.1487 80.502 43.1785 80.5388 43.1785C80.5757 43.1785 80.6055 43.1487 80.6055 43.1119L80.5388 43.1119L80.4721 43.1119ZM80.6055 43.6602C80.6055 43.6234 80.5757 43.5935 80.5388 43.5935C80.502 43.5935 80.4721 43.6234 80.4721 43.6602L80.5388 43.6602L80.6055 43.6602ZM80.4721 43.9344C80.4721 43.9712 80.502 44.0011 80.5388 44.0011C80.5757 44.0011 80.6055 43.9712 80.6055 43.9344L80.5388 43.9344L80.4721 43.9344ZM80.6055 44.4828C80.6055 44.4459 80.5757 44.4161 80.5388 44.4161C80.502 44.4161 80.4721 44.4459 80.4721 44.4828L80.5388 44.4828L80.6055 44.4828ZM80.4721 44.7569C80.4721 44.7938 80.502 44.8236 80.5388 44.8236C80.5757 44.8236 80.6055 44.7938 80.6055 44.7569L80.5388 44.7569L80.4721 44.7569ZM80.6055 45.3053C80.6055 45.2685 80.5757 45.2386 80.5388 45.2386C80.502 45.2386 80.4721 45.2685 80.4721 45.3053L80.5388 45.3053L80.6055 45.3053ZM80.5388 35.5719L80.4721 35.5719L80.4721 35.709L80.5388 35.709L80.6055 35.709L80.6055 35.5719L80.5388 35.5719ZM80.5388 36.2573L80.4721 36.2573L80.4721 36.5315L80.5388 36.5315L80.6055 36.5315L80.6055 36.2573L80.5388 36.2573ZM80.5388 37.0799L80.4721 37.0799L80.4721 37.3541L80.5388 37.3541L80.6055 37.3541L80.6055 37.0799L80.5388 37.0799ZM80.5388 37.9024L80.4721 37.9024L80.4721 38.1766L80.5388 38.1766L80.6055 38.1766L80.6055 37.9024L80.5388 37.9024ZM80.5388 38.725L80.4721 38.725L80.4721 38.9992L80.5388 38.9992L80.6055 38.9992L80.6055 38.725L80.5388 38.725ZM80.5388 39.5475L80.4721 39.5475L80.4721 39.8217L80.5388 39.8217L80.6055 39.8217L80.6055 39.5475L80.5388 39.5475ZM80.5388 40.3701L80.4721 40.3701L80.4721 40.6442L80.5388 40.6442L80.6055 40.6442L80.6055 40.3701L80.5388 40.3701ZM80.5388 41.1926L80.4721 41.1926L80.4721 41.4668L80.5388 41.4668L80.6055 41.4668L80.6055 41.1926L80.5388 41.1926ZM80.5388 42.0151L80.4721 42.0151L80.4721 42.2893L80.5388 42.2893L80.6055 42.2893L80.6055 42.0151L80.5388 42.0151ZM80.5388 42.8377L80.4721 42.8377L80.4721 43.1119L80.5388 43.1119L80.6055 43.1119L80.6055 42.8377L80.5388 42.8377ZM80.5388 43.6602L80.4721 43.6602L80.4721 43.9344L80.5388 43.9344L80.6055 43.9344L80.6055 43.6602L80.5388 43.6602ZM80.5388 44.4828L80.4721 44.4828L80.4721 44.7569L80.5388 44.7569L80.6055 44.7569L80.6055 44.4828L80.5388 44.4828ZM80.5388 45.3053L80.4721 45.3053L80.4721 45.4424L80.5388 45.4424L80.6055 45.4424L80.6055 45.3053L80.5388 45.3053Z" fill="#383838"/>
</svg>
