<svg width="43" height="43" viewBox="0 0 43 43" fill="none" xmlns="http://www.w3.org/2000/svg">
<path d="M24.387 21.503C25.171 21.643 25.836 22.056 26.382 22.742C26.928 23.428 27.201 24.205 27.201 25.073C27.201 25.815 27.005 26.487 26.613 27.089C26.235 27.677 25.682 28.146 24.954 28.496C24.226 28.832 23.379 29 22.413 29H16.575V14.405H22.14C23.134 14.405 23.988 14.573 24.702 14.909C25.416 15.245 25.955 15.7 26.319 16.274C26.683 16.834 26.865 17.464 26.865 18.164C26.865 19.004 26.641 19.704 26.193 20.264C25.745 20.824 25.143 21.237 24.387 21.503ZM18.969 20.537H21.93C22.714 20.537 23.323 20.362 23.757 20.012C24.205 19.648 24.429 19.13 24.429 18.458C24.429 17.8 24.205 17.289 23.757 16.925C23.323 16.547 22.714 16.358 21.93 16.358H18.969V20.537ZM22.203 27.047C23.015 27.047 23.652 26.851 24.114 26.459C24.576 26.067 24.807 25.521 24.807 24.821C24.807 24.107 24.562 23.54 24.072 23.12C23.582 22.7 22.931 22.49 22.119 22.49H18.969V27.047H22.203Z" fill="white"/>
</svg>
