<?xml version="1.0" encoding="utf-8"?>
<!-- Generator: Adobe Illustrator 26.0.1, SVG Export Plug-In . SVG Version: 6.00 Build 0)  -->
<svg version="1.1" id="Layer_1" xmlns="http://www.w3.org/2000/svg" xmlns:xlink="http://www.w3.org/1999/xlink" x="0px" y="0px"
	 viewBox="0 0 48 48" style="enable-background:new 0 0 48 48;" xml:space="preserve">
<style type="text/css">
	.st0{fill:#7F8082;}
</style>
<path class="st0" d="M37,6c-1.5,0-2.9,0.6-3.7,1.6S32,9.8,32,11s0.4,2.4,1.3,3.4c0,0,0,0,0.1,0L30,20.2c-0.3-0.1-0.6-0.2-1-0.2
	c-1,0-1.9,0.4-2.7,0.8l-4.7-3.9c0.2-0.6,0.4-1.3,0.4-1.9c0-1.2-0.4-2.4-1.3-3.4S18.5,10,17,10s-2.9,0.6-3.7,1.6S12,13.8,12,15
	s0.4,2.4,1.3,3.4c0.2,0.2,0.5,0.3,0.7,0.5l-2.7,7.2C11.2,26,11.1,26,11,26c-1.5,0-2.9,0.6-3.7,1.6S6,29.8,6,31s0.4,2.4,1.3,3.4
	S9.5,36,11,36s2.9-0.6,3.7-1.6S16,32.2,16,31s-0.4-2.4-1.3-3.4c-0.2-0.2-0.5-0.3-0.7-0.5l2.7-7.2c0.1,0,0.2,0.1,0.3,0.1
	c1,0,1.9-0.4,2.7-0.8l4.7,3.9C24.1,23.7,24,24.4,24,25c0,1.2,0.4,2.4,1.3,3.4S27.5,30,29,30s2.9-0.6,3.7-1.6S34,26.2,34,25
	s-0.4-2.4-1.3-3.4c0,0,0,0-0.1,0l3.3-5.8c0.3,0.1,0.6,0.2,1,0.2c1.5,0,2.9-0.6,3.7-1.6S42,12.2,42,11s-0.4-2.4-1.3-3.4S38.5,6,37,6z
	 M37,9c0.8,0,1.2,0.2,1.5,0.6C38.8,9.9,39,10.5,39,11s-0.2,1.1-0.5,1.4C38.2,12.8,37.8,13,37,13s-1.2-0.2-1.5-0.6
	C35.2,12.1,35,11.5,35,11s0.2-1.1,0.5-1.4C35.8,9.2,36.2,9,37,9z M17,13c0.8,0,1.2,0.2,1.5,0.6c0.3,0.3,0.5,0.9,0.5,1.4
	s-0.2,1.1-0.5,1.4S17.8,17,17,17s-1.2-0.2-1.5-0.6S15,15.5,15,15s0.2-1.1,0.5-1.4C15.8,13.2,16.2,13,17,13z M29,23
	c0.8,0,1.2,0.2,1.5,0.6S31,24.5,31,25s-0.2,1.1-0.5,1.4S29.8,27,29,27s-1.2-0.2-1.5-0.6S27,25.5,27,25s0.2-1.1,0.5-1.4
	S28.2,23,29,23z M11,29c0.8,0,1.2,0.2,1.5,0.6S13,30.5,13,31s-0.2,1.1-0.5,1.4S11.8,33,11,33s-1.2-0.2-1.5-0.6S9,31.5,9,31
	s0.2-1.1,0.5-1.4S10.2,29,11,29z M7.5,39C6.7,39,6,39.7,6,40.5S6.6,42,7.5,42c0,0,0,0,0,0h33c0.8,0,1.5-0.7,1.5-1.5S41.4,39,40.5,39
	c0,0,0,0,0,0H7.5z"/>
</svg>
