<?xml version="1.0" encoding="UTF-8"?>
<svg width="96px" height="96px" viewBox="0 0 96 96" version="1.1" xmlns="http://www.w3.org/2000/svg" xmlns:xlink="http://www.w3.org/1999/xlink">
    <title>empty-state</title>
    <defs>
        <ellipse id="path-1" cx="33.6564361" cy="33.7297297" rx="33.6564361" ry="33.7297297"></ellipse>
        <linearGradient x1="50%" y1="100%" x2="50%" y2="-26.046451%" id="linearGradient-3">
            <stop stop-color="#EDEFF7" offset="0%"></stop>
            <stop stop-color="#FBFDFF" offset="100%"></stop>
        </linearGradient>
        <ellipse id="path-4" cx="33.6564361" cy="33.7297297" rx="33.6564361" ry="33.7297297"></ellipse>
        <linearGradient x1="50%" y1="100%" x2="50%" y2="-26.046451%" id="linearGradient-6">
            <stop stop-color="#FFFFFF" offset="0%"></stop>
            <stop stop-color="#FBFDFF" offset="100%"></stop>
        </linearGradient>
        <linearGradient x1="50%" y1="100%" x2="50%" y2="-26.046451%" id="linearGradient-7">
            <stop stop-color="#EDEFF7" offset="0%"></stop>
            <stop stop-color="#FBFDFF" offset="100%"></stop>
        </linearGradient>
        <linearGradient x1="50%" y1="100%" x2="50%" y2="-26.046451%" id="linearGradient-8">
            <stop stop-color="#EDEFF7" offset="0%"></stop>
            <stop stop-color="#FBFDFF" offset="100%"></stop>
        </linearGradient>
        <linearGradient x1="50%" y1="100%" x2="50%" y2="-26.046451%" id="linearGradient-9">
            <stop stop-color="#EDEFF7" offset="0%"></stop>
            <stop stop-color="#FBFDFF" offset="100%"></stop>
        </linearGradient>
    </defs>
    <g id="Add-to-Basket" stroke="none" stroke-width="1" fill="none" fill-rule="evenodd">
        <g id="No-Baskets" transform="translate(-230.000000, -207.000000)">
            <g id="empty-state" transform="translate(230.000000, 207.000000)">
                <g id="no-state-copy">
                    <rect id="Rectangle" x="0" y="0" width="96" height="96"></rect>
                    <g id="Group-2" transform="translate(10.160752, 14.702702)">
                        <g id="Group" transform="translate(4.541950, 0.000000)">
                            <g id="Oval-Copy" fill="#F2F5F9" fill-rule="nonzero">
                                <ellipse id="path-1" cx="33.6564361" cy="33.7297297" rx="33.6564361" ry="33.7297297"></ellipse>
                            </g>
                            <g id="Oval-Copy-Clipped">
                                <mask id="mask-2" fill="white">
                                    <use xlink:href="#path-1"></use>
                                </mask>
                                <g id="path-1"></g>
                                <circle id="Oval-Copy" fill="url(#linearGradient-3)" fill-rule="nonzero" mask="url(#mask-2)" cx="33.7297297" cy="33.7297297" r="33.7297297"></circle>
                            </g>
                            <g id="Group-4-Clipped">
                                <mask id="mask-5" fill="white">
                                    <use xlink:href="#path-4"></use>
                                </mask>
                                <g id="path-1"></g>
                                <g id="Group-4" mask="url(#mask-5)">
                                    <g transform="translate(9.600000, 20.160000)" id="Group">
                                        <g transform="translate(0.000000, 0.000000)">
                                            <polygon id="Path-7" fill="#FEFFFF" fill-rule="nonzero" points="3.84 0 3.84 28.8 28.8 28.8 28.8 0"></polygon>
                                            <polygon id="Path-8" fill="#E3E8F3" fill-rule="nonzero" points="39.36 28.8 28.8 28.8 28.8 -3.37861995e-16 39.36 1.13648136e-31"></polygon>
                                            <g id="error-warning-fill" transform="translate(25.137298, 12.657298)" fill-rule="nonzero">
                                                <circle id="Oval" stroke="#D4DDEE" fill="#D6DDEC" cx="10.08" cy="10.08" r="10.08"></circle>
                                                <path d="M10.08,18.72 C5.308128,18.72 1.44,14.851872 1.44,10.08 C1.44,5.308128 5.308128,1.44 10.08,1.44 C14.851872,1.44 18.72,5.308128 18.72,10.08 C18.72,14.851872 14.851872,18.72 10.08,18.72 Z M9.66857143,12.96 L9.66857143,14.6057143 L11.3142857,14.6057143 L11.3142857,12.96 L9.66857143,12.96 Z M9.66857143,5.55428572 L9.66857143,10.4914285 L11.3142857,10.4914285 L11.3142857,5.55428572 L9.66857143,5.55428572 Z" id="Shape" fill="url(#linearGradient-6)"></path>
                                            </g>
                                            <polygon id="Path-9" fill="#D6DDEC" fill-rule="nonzero" points="29.76 0 32.8852634 7.68 43.2 7.68 39.6222343 0"></polygon>
                                            <polygon id="Path-10" fill="#D7DDEB" fill-rule="nonzero" points="29.76 0 26.8209436 7.68 1.29963981e-15 7.68 3.83431476 0"></polygon>
                                        </g>
                                    </g>
                                </g>
                            </g>
                        </g>
                        <ellipse id="Oval-Copy-6" fill="url(#linearGradient-7)" fill-rule="nonzero" cx="3.88343493" cy="15.8069498" rx="3.88343493" ry="3.89189189"></ellipse>
                        <ellipse id="Oval-Copy-8" fill="url(#linearGradient-8)" fill-rule="nonzero" cx="55.9904605" cy="62.6758301" rx="2.87374186" ry="2.88"></ellipse>
                    </g>
                </g>
                <ellipse id="Oval-Copy-7" fill="url(#linearGradient-9)" fill-rule="nonzero" cx="66.4279212" cy="18.5918147" rx="5.60940602" ry="5.62162163"></ellipse>
            </g>
        </g>
    </g>
</svg>