<?xml version="1.0" encoding="utf-8"?>
<!-- Generator: Adobe Illustrator 26.0.2, SVG Export Plug-In . SVG Version: 6.00 Build 0)  -->
<svg version="1.1" id="Layer_1" xmlns="http://www.w3.org/2000/svg" xmlns:xlink="http://www.w3.org/1999/xlink" x="0px" y="0px"
	 viewBox="0 0 48 48" style="enable-background:new 0 0 48 48;" xml:space="preserve">
<style type="text/css">
	.st0{fill:#CACACB;}
</style>
<path class="st0" d="M8.5,7C5.5,7,3,9.5,3,12.5v23c0,3,2.5,5.5,5.5,5.5h31c3,0,5.5-2.5,5.5-5.5v-23c0-3-2.5-5.5-5.5-5.5H8.5z
	 M8.5,10h31c1.4,0,2.5,1.1,2.5,2.5v23c0,1.4-1.1,2.5-2.5,2.5H28v-8.5c0-3-2.5-5.5-5.5-5.5H6V12.5C6,11.1,7.1,10,8.5,10z M37.5,13
	c-0.4,0-0.8,0.2-1,0.5L31,18.9v-1.4c0-0.8-0.7-1.5-1.5-1.5c0,0,0,0,0,0c-0.8,0-1.5,0.7-1.5,1.5v4.8c-0.1,0.8,0.4,1.6,1.2,1.7
	c0.2,0,0.3,0,0.5,0h4.8c0.8,0,1.5-0.7,1.5-1.5c0-0.8-0.7-1.5-1.5-1.5c0,0,0,0,0,0h-1.4l5.4-5.4c0.6-0.6,0.6-1.5,0-2.1
	C38.3,13.1,37.9,13,37.5,13z M6,27h16.5c1.4,0,2.5,1.1,2.5,2.5V38H8.5C7.1,38,6,36.9,6,35.5V27z"/>
</svg>
