<?xml version="1.0" encoding="UTF-8"?>
<svg width="73px" height="71px" viewBox="0 0 73 71" version="1.1" xmlns="http://www.w3.org/2000/svg" xmlns:xlink="http://www.w3.org/1999/xlink">
    <title>DBF4CD49-D2C1-458D-93B4-CB96FC5E94C0</title>
    <defs>
        <linearGradient x1="50%" y1="127.925989%" x2="50%" y2="-26.046451%" id="linearGradient-1">
            <stop stop-color="#34475A" offset="0%"></stop>
            <stop stop-color="#1E222D" offset="100%"></stop>
        </linearGradient>
        <linearGradient x1="50%" y1="127.925989%" x2="50%" y2="-26.046451%" id="linearGradient-2">
            <stop stop-color="#34475A" offset="0%"></stop>
            <stop stop-color="#1E222D" offset="100%"></stop>
        </linearGradient>
        <linearGradient x1="50%" y1="127.925989%" x2="50%" y2="-26.046451%" id="linearGradient-3">
            <stop stop-color="#34475A" offset="0%"></stop>
            <stop stop-color="#1E222D" offset="100%"></stop>
        </linearGradient>
        <linearGradient x1="50%" y1="127.925989%" x2="50%" y2="-26.046451%" id="linearGradient-4">
            <stop stop-color="#34475A" offset="0%"></stop>
            <stop stop-color="#1E222D" offset="100%"></stop>
        </linearGradient>
    </defs>
    <g id="Dark-Theme---Add-to-Basket" stroke="none" stroke-width="1" fill="none" fill-rule="evenodd">
        <g id="No-Baskets" transform="translate(-240.000000, -219.000000)" fill-rule="nonzero">
            <g id="illustration-empty" transform="translate(240.160752, 219.970193)">
                <circle id="Oval-Copy" fill="url(#linearGradient-1)" cx="38.2716798" cy="35.4622391" r="33.7297297"></circle>
                <ellipse id="Oval-Copy-8" fill="url(#linearGradient-2)" cx="55.9904605" cy="64.4083394" rx="2.87374186" ry="2.88"></ellipse>
                <ellipse id="Oval-Copy-6" fill="url(#linearGradient-3)" cx="3.88343493" cy="17.5394592" rx="3.88343493" ry="3.89189189"></ellipse>
                <ellipse id="Oval-Copy-7" fill="url(#linearGradient-4)" cx="56.2671688" cy="5.62162163" rx="5.60940602" ry="5.62162163"></ellipse>
                <g id="Group-4" transform="translate(14.141950, 21.892509)">
                    <g id="Group" transform="translate(0.000000, -0.000000)">
                        <polygon id="Path-7" fill="#222D38" points="3.84 0 3.84 28.8 28.8 28.8 28.8 0"></polygon>
                        <polygon id="Path-8" fill="#37495B" points="39.36 28.8 28.8 28.8 28.8 0 39.36 3.37861995e-16"></polygon>
                        <g id="error-warning-fill" transform="translate(25.137298, 12.657298)">
                            <circle id="Oval" stroke="#171B27" fill="#171B27" cx="10.08" cy="10.08" r="10.08"></circle>
                            <path d="M10.08,18.72 C5.308128,18.72 1.44,14.851872 1.44,10.08 C1.44,5.308128 5.308128,1.44 10.08,1.44 C14.851872,1.44 18.72,5.308128 18.72,10.08 C18.72,14.851872 14.851872,18.72 10.08,18.72 Z M9.66857143,12.96 L9.66857143,14.6057143 L11.3142857,14.6057143 L11.3142857,12.96 L9.66857143,12.96 Z M9.66857143,5.55428572 L9.66857143,10.4914285 L11.3142857,10.4914285 L11.3142857,5.55428572 L9.66857143,5.55428572 Z" id="Shape" fill="#37495B"></path>
                        </g>
                        <polygon id="Path-9" fill="#171B27" points="29.76 0 32.8852634 7.68 43.2 7.68 39.6222343 0"></polygon>
                        <polygon id="Path-10" fill="#171B27" points="29.76 0 26.8209436 7.68 0 7.68 3.83431476 0"></polygon>
                    </g>
                </g>
            </g>
        </g>
    </g>
</svg>