<?xml version="1.0" encoding="utf-8"?>
<!-- Generator: Adobe Illustrator 26.0.1, SVG Export Plug-In . SVG Version: 6.00 Build 0)  -->
<svg version="1.1" id="Layer_1" xmlns="http://www.w3.org/2000/svg" xmlns:xlink="http://www.w3.org/1999/xlink" x="0px" y="0px"
	 viewBox="0 0 48 48" style="enable-background:new 0 0 48 48;" xml:space="preserve">
<style type="text/css">
	.st0{fill:#7F8082;}
</style>
<path class="st0" d="M11.5,6C8.5,6,6,8.5,6,11.5v25c0,3,2.5,5.5,5.5,5.5h18c3,0,5.5-2.5,5.5-5.5c0-0.8-0.7-1.5-1.5-1.5
	S32,35.6,32,36.5c0,0,0,0,0,0c0,1.4-1.1,2.5-2.5,2.5h-18C10.1,39,9,37.9,9,36.5v-25C9,10.1,10.1,9,11.5,9h18c1.4,0,2.5,1.1,2.5,2.5
	c0,0.8,0.7,1.5,1.5,1.5c0.8,0,1.5-0.7,1.5-1.5c0,0,0,0,0,0c0-3-2.5-5.5-5.5-5.5H11.5z M33.5,15.5c-0.8,0-1.5,0.7-1.5,1.5
	c0,0.4,0.2,0.8,0.5,1.1l4.4,4.4H15.5c-0.8,0-1.5,0.7-1.5,1.5c0,0.8,0.7,1.5,1.5,1.5c0,0,0,0,0,0h21.4l-4.4,4.4
	c-0.6,0.6-0.6,1.5,0,2.1s1.5,0.6,2.1,0c0,0,0,0,0,0l7-7c0.6-0.6,0.6-1.5,0-2.1l-7-7C34.3,15.6,33.9,15.5,33.5,15.5z"/>
</svg>
