<?xml version="1.0" encoding="UTF-8"?>
<svg width="16px" height="16px" viewBox="0 0 16 16" version="1.1" xmlns="http://www.w3.org/2000/svg" xmlns:xlink="http://www.w3.org/1999/xlink">
    <title>0B6395E6-BE36-405F-BCC2-D12E02C39648</title>
    <g id="Dark-theme---User-Settings" stroke="none" stroke-width="1" fill="none" fill-rule="evenodd">
        <g id="User-Settings--Note" transform="translate(-330.000000, -514.000000)" fill="#7F8082" fill-rule="nonzero">
            <g id="Info_icon" transform="translate(330.000000, 514.000000)">
                <path d="M8,0 C3.5888264,0 0,3.5888296 0,8 C0,12.4111704 3.5888264,16 8,16 C12.4111736,16 16,12.4111704 16,8 C16,3.5888296 12.4111736,0 8,0 Z M8,1.2 C11.762646,1.2 14.8,4.2373564 14.8,8 C14.8,11.7626436 11.762646,14.8 8,14.8 C4.237354,14.8 1.2,11.7626436 1.2,8 C1.2,4.2373564 4.237354,1.2 8,1.2 Z M8,4 C7.5581722,4 7.2,4.3581722 7.2,4.8 C7.2,5.2418278 7.5581722,5.6 8,5.6 C8.4418278,5.6 8.8,5.2418278 8.8,4.8 C8.8,4.3581722 8.4418278,4 8,4 Z M7.9906248,6.7914064 C7.6595606,6.79657855 7.39525088,7.06892947 7.4,7.4 L7.4,11.8 C7.39693983,12.0163815 7.51062518,12.2176488 7.69752371,12.3267326 C7.88442224,12.4358164 8.11557776,12.4358164 8.30247629,12.3267326 C8.48937482,12.2176488 8.60306017,12.0163815 8.6,11.8 L8.6,7.4 C8.60232741,7.23775254 8.53884754,7.08147886 8.42403585,6.96681444 C8.30922416,6.85215001 8.15286914,6.78887075 7.9906248,6.7914064 L7.9906248,6.7914064 Z" id="Shape"></path>
            </g>
        </g>
    </g>
</svg>