<?xml version="1.0" encoding="utf-8"?>
<!-- Generator: Adobe Illustrator 26.0.2, SVG Export Plug-In . SVG Version: 6.00 Build 0)  -->
<svg version="1.1" id="Layer_1" xmlns="http://www.w3.org/2000/svg" xmlns:xlink="http://www.w3.org/1999/xlink" x="0px" y="0px"
	 viewBox="0 0 48 48" style="enable-background:new 0 0 48 48;" xml:space="preserve">
<style type="text/css">
	.st0{fill:#CACACB;}
</style>
<path class="st0" d="M24,5c-7.2,0-13,5.8-13,13v11.9l-3.4-3.4C7.3,26.1,6.9,26,6.5,26C5.7,26,5,26.7,5,27.5c0,0.4,0.2,0.8,0.5,1.1
	l5.9,5.9c0.5,0.7,1.4,0.8,2.1,0.3c0.1-0.1,0.2-0.2,0.3-0.3l5.9-5.9c0.6-0.6,0.6-1.5,0-2.1s-1.5-0.6-2.1,0c0,0,0,0,0,0L14,29.9V18
	c0-5.5,4.5-10,10-10c2.6,0,4.9,1,6.7,2.6c0.6,0.6,1.5,0.6,2.1,0c0.6-0.6,0.6-1.5,0-2.1c0,0,0,0-0.1-0.1C30.4,6.3,27.4,5,24,5z
	 M35.5,13c-0.5,0-0.9,0.2-1.2,0.6l-5.9,5.9c-0.6,0.6-0.6,1.5,0,2.1s1.5,0.6,2.1,0c0,0,0,0,0,0l3.4-3.4V30c0,5.5-4.5,10-10,10
	c-2.6,0-4.9-1-6.7-2.6c-0.6-0.6-1.5-0.6-2.1,0c-0.6,0.6-0.6,1.5,0,2.1c0,0,0,0,0.1,0.1c2.3,2.1,5.4,3.4,8.7,3.4c7.2,0,13-5.8,13-13
	V18.1l3.4,3.4c0.6,0.6,1.5,0.6,2.1,0s0.6-1.5,0-2.1c0,0,0,0,0,0l-5.9-5.9C36.4,13.2,36,13,35.5,13z"/>
</svg>
