<?xml version="1.0" encoding="utf-8"?>
<!-- Generator: Adobe Illustrator 26.0.2, SVG Export Plug-In . SVG Version: 6.00 Build 0)  -->
<svg version="1.1" id="Layer_1" xmlns="http://www.w3.org/2000/svg" xmlns:xlink="http://www.w3.org/1999/xlink" x="0px" y="0px"
	 viewBox="0 0 48 48" style="enable-background:new 0 0 48 48;" xml:space="preserve">
<style type="text/css">
	.st0{fill:#CACACB;}
</style>
<path class="st0" d="M24,4c-1.6,0-3.1,0.2-4.5,0.5c-0.6,0.1-1.1,0.7-1.2,1.3L18,8.7c-0.1,1-0.7,1.8-1.5,2.3
	c-0.8,0.5-1.8,0.5-2.7,0.1h0L11.1,10c-0.6-0.3-1.3-0.1-1.7,0.3c-2.1,2.2-3.7,4.9-4.6,7.9c-0.2,0.6,0,1.3,0.5,1.6l2.4,1.7
	C8.5,22.1,9,23,9,24c0,1-0.5,1.9-1.2,2.4l-2.4,1.7c-0.5,0.4-0.7,1-0.5,1.6c0.9,3,2.5,5.7,4.6,7.9c0.4,0.5,1.1,0.6,1.7,0.3l2.7-1.2
	c0.9-0.4,1.9-0.3,2.7,0.1c0.8,0.5,1.4,1.3,1.5,2.3l0.3,2.9c0.1,0.6,0.5,1.2,1.1,1.3c1.5,0.3,3,0.5,4.6,0.5s3.1-0.2,4.5-0.5
	c0.6-0.1,1.1-0.7,1.2-1.3l0.3-2.9c0.1-1,0.7-1.8,1.5-2.3c0.8-0.5,1.8-0.5,2.7-0.1l2.7,1.2c0.6,0.3,1.3,0.1,1.7-0.3
	c2.1-2.2,3.7-4.9,4.6-7.9c0.2-0.6,0-1.3-0.5-1.6l-2.4-1.7C39.5,25.9,39,25,39,24s0.5-1.9,1.2-2.4l2.4-1.7c0.5-0.4,0.7-1,0.5-1.6
	c-0.9-3-2.5-5.7-4.6-7.9c-0.4-0.5-1.1-0.6-1.7-0.3l-2.7,1.2c-0.9,0.4-1.9,0.3-2.7-0.1c-0.8-0.5-1.4-1.3-1.5-2.3l-0.3-2.9
	c-0.1-0.6-0.5-1.2-1.1-1.3C27.1,4.2,25.6,4,24,4z M24,7c1,0,1.9,0.2,2.8,0.3L27,9.1c0.2,1.9,1.3,3.6,3,4.5c1.7,1,3.7,1.1,5.4,0.3
	l1.6-0.7c1.2,1.5,2.2,3.1,2.9,4.9l-1.4,1C36.9,20.3,36,22.1,36,24s0.9,3.7,2.5,4.8l1.4,1c-0.7,1.8-1.6,3.5-2.9,4.9l-1.6-0.7
	c-1.7-0.8-3.8-0.7-5.4,0.3c-1.7,1-2.8,2.6-3,4.5l-0.2,1.7C25.9,40.8,25,41,24,41c-1,0-1.9-0.2-2.8-0.3L21,38.9
	c-0.2-1.9-1.3-3.6-3-4.5c-1.7-1-3.7-1.1-5.4-0.3L11,34.8c-1.2-1.5-2.2-3.1-2.9-4.9l1.4-1c1.5-1.1,2.5-2.9,2.5-4.8s-0.9-3.7-2.5-4.8
	l-1.4-1c0.7-1.8,1.6-3.5,2.9-4.9l1.6,0.7c1.7,0.8,3.8,0.7,5.4-0.3c1.7-1,2.8-2.6,3-4.5l0.2-1.7C22.1,7.2,23,7,24,7z M24,16
	c-4.4,0-8,3.6-8,8s3.6,8,8,8s8-3.6,8-8S28.4,16,24,16z M24,19c2.8,0,5,2.2,5,5s-2.2,5-5,5s-5-2.2-5-5S21.2,19,24,19z"/>
</svg>
