<svg width="28" height="28" viewBox="0 0 28 28" fill="none" xmlns="http://www.w3.org/2000/svg">
<path d="M0 4C0 1.79086 1.79086 0 4 0H24C26.2091 0 28 1.79086 28 4V24C28 26.2091 26.2091 28 24 28H4C1.79086 28 0 26.2091 0 24V4Z" fill="#F6EFFB"/>
<path fill-rule="evenodd" clip-rule="evenodd" d="M18.0001 8.1079H21.2001V16.409H18.0001V8.1079ZM19.2001 9.31242V15.2045H20.0001V9.31242H19.2001Z" fill="#AC6CDA"/>
<path fill-rule="evenodd" clip-rule="evenodd" d="M20.1001 6V8.14555H19.1001V6H20.1001Z" fill="#AC6CDA"/>
<path fill-rule="evenodd" clip-rule="evenodd" d="M20.1001 16.0376V18.1832H19.1001V16.0376H20.1001Z" fill="#AC6CDA"/>
<path fill-rule="evenodd" clip-rule="evenodd" d="M12.0001 9.91468H15.2001V19.9021H12.0001V9.91468ZM13.2001 11.1192V18.6976H14.0001V11.1192H13.2001Z" fill="#AC6CDA"/>
<path fill-rule="evenodd" clip-rule="evenodd" d="M14.1001 8.00753V10.1556H13.1001V8.00753H14.1001Z" fill="#AC6CDA"/>
<path fill-rule="evenodd" clip-rule="evenodd" d="M14.1001 19.8519V22H13.1001V19.8519H14.1001Z" fill="#AC6CDA"/>
<path fill-rule="evenodd" clip-rule="evenodd" d="M6.00012 15.4354H9.20012V20.0715H6.00012V15.4354ZM7.20012 16.6399V18.867H8.00012V16.6399H7.20012Z" fill="#AC6CDA"/>
<path fill-rule="evenodd" clip-rule="evenodd" d="M8.10012 13.4279V15.5734H7.10012V13.4279H8.10012Z" fill="#AC6CDA"/>
<path fill-rule="evenodd" clip-rule="evenodd" d="M8.10012 19.8519V21.9975H7.10012V19.8519H8.10012Z" fill="#AC6CDA"/>
</svg>
