<svg width="28" height="28" viewBox="0 0 28 28" fill="none" xmlns="http://www.w3.org/2000/svg">
<path d="M0 4C0 1.79086 1.79086 0 4 0H24C26.2091 0 28 1.79086 28 4V24C28 26.2091 26.2091 28 24 28H4C1.79086 28 0 26.2091 0 24V4Z" fill="#2E1042"/>
<path fill-rule="evenodd" clip-rule="evenodd" d="M18 8.1079H21.2V16.409H18V8.1079ZM19.2 9.31242V15.2045H20V9.31242H19.2Z" fill="#943ACF"/>
<path fill-rule="evenodd" clip-rule="evenodd" d="M20.1 6V8.14555H19.1V6H20.1Z" fill="#943ACF"/>
<path fill-rule="evenodd" clip-rule="evenodd" d="M20.1 16.0376V18.1832H19.1V16.0376H20.1Z" fill="#943ACF"/>
<path fill-rule="evenodd" clip-rule="evenodd" d="M12 9.91468H15.2V19.9021H12V9.91468ZM13.2 11.1192V18.6976H14V11.1192H13.2Z" fill="#943ACF"/>
<path fill-rule="evenodd" clip-rule="evenodd" d="M14.1 8.00753V10.1556H13.1V8.00753H14.1Z" fill="#943ACF"/>
<path fill-rule="evenodd" clip-rule="evenodd" d="M14.1 19.8519V22H13.1V19.8519H14.1Z" fill="#943ACF"/>
<path fill-rule="evenodd" clip-rule="evenodd" d="M6 15.4354H9.2V20.0715H6V15.4354ZM7.2 16.6399V18.867H8V16.6399H7.2Z" fill="#943ACF"/>
<path fill-rule="evenodd" clip-rule="evenodd" d="M8.1 13.4279V15.5734H7.1V13.4279H8.1Z" fill="#943ACF"/>
<path fill-rule="evenodd" clip-rule="evenodd" d="M8.1 19.8519V21.9975H7.1V19.8519H8.1Z" fill="#943ACF"/>
</svg>
