<svg width="16" height="16" viewBox="0 0 16 16" fill="none" xmlns="http://www.w3.org/2000/svg">
<path fill-rule="evenodd" clip-rule="evenodd" d="M1.05349 7.52717V7.52717C0.679253 7.7135 0.679253 8.2865 1.05349 8.47283V8.47283C3.85752 9.86891 6.13109 12.1425 7.52717 14.9465V14.9465C7.7135 15.3207 8.2865 15.3207 8.47283 14.9465V14.9465C9.86891 12.1425 12.1425 9.86891 14.9465 8.47283V8.47283C15.3207 8.2865 15.3207 7.7135 14.9465 7.52717V7.52717C12.1425 6.13109 9.86891 3.85752 8.47283 1.05349V1.05349C8.2865 0.679253 7.7135 0.679253 7.52717 1.05349V1.05349C6.7668 2.5807 5.74612 3.95056 4.52121 5.10699H4.4973V5.12951C3.47899 6.08652 2.32038 6.89641 1.05349 7.52717ZM4.85439 5.95934C4.12884 6.61414 3.33956 7.19999 2.4963 7.70715C4.19211 7.79181 5.85149 7.15824 7.06 5.95934H4.85439ZM2.93314 8.56572C5.04063 9.93223 6.78396 11.8022 8 14.0125C8.60457 12.9136 9.33948 11.8989 10.1847 10.9883H8.47703C7.96966 10.9883 7.55836 10.577 7.55837 10.0696L7.55837 6.66353C6.30528 7.85649 4.65137 8.53193 2.93314 8.56572ZM8.41072 9.38738C9.71703 8.17655 11.4374 7.51274 13.2114 7.52683C11.039 6.15275 9.24373 4.24812 8 1.98746C7.37426 3.12483 6.60891 4.17208 5.72616 5.10699H7.49206C7.99943 5.10699 8.41073 5.51829 8.41072 6.02565L8.41072 9.38738ZM13.3569 8.38229C12.5283 8.89341 11.7532 9.4811 11.0411 10.1359H8.86088C10.0586 8.95897 11.6867 8.32745 13.3569 8.38229Z" fill="url(#paint0_linear_446_27337)"/>
<rect x="7" y="12" width="8" height="3.42857" rx="1.71429" fill="#FFE085"/>
<path d="M12.3445 14.6667L12.9223 12.8889H13.2939L13.8716 14.6667H13.6037L13.0716 13.0444H13.1383L12.6124 14.6667H12.3445ZM12.6445 14.2654V14.0235H13.5729V14.2654H12.6445Z" fill="#404040"/>
<path d="M11.4568 14.6667V13.1321H10.8655V12.8889H12.3062V13.1321H11.7149V14.6667H11.4568Z" fill="#404040"/>
<path d="M9.56885 14.6667V12.8889H10.7047V13.1321H9.82687V13.6309H10.5565V13.8741H9.82687V14.4235H10.7047V14.6667H9.56885Z" fill="#404040"/>
<path d="M8.01343 14.6667V12.8889H8.71219C8.82495 12.8889 8.9196 12.9119 8.99614 12.958C9.07269 13.0041 9.1303 13.0638 9.16898 13.137C9.20767 13.2095 9.22701 13.286 9.22701 13.3667C9.22701 13.4646 9.20273 13.5486 9.15417 13.6185C9.10643 13.6885 9.04182 13.7362 8.96034 13.7617L8.95787 13.7012C9.07145 13.7292 9.1587 13.7839 9.2196 13.8654C9.28051 13.9461 9.31096 14.0403 9.31096 14.1481C9.31096 14.2527 9.28997 14.3436 9.248 14.421C9.20684 14.4984 9.14635 14.5588 9.06651 14.6025C8.9875 14.6453 8.89162 14.6667 8.77886 14.6667H8.01343ZM8.27516 14.421H8.73935C8.79779 14.421 8.85005 14.4099 8.89614 14.3877C8.94306 14.3654 8.97968 14.3337 9.00602 14.2926C9.03318 14.2506 9.04676 14.2008 9.04676 14.1432C9.04676 14.0897 9.03483 14.0416 9.01096 13.9988C8.98791 13.9551 8.95417 13.921 8.90972 13.8963C8.8661 13.8708 8.81466 13.858 8.7554 13.858H8.27516V14.421ZM8.27516 13.6148H8.70849C8.75623 13.6148 8.79902 13.6053 8.83688 13.5864C8.87557 13.5667 8.90602 13.5387 8.92824 13.5025C8.95129 13.4654 8.96281 13.421 8.96281 13.3691C8.96281 13.3 8.93977 13.2432 8.89367 13.1988C8.84758 13.1543 8.78586 13.1321 8.70849 13.1321H8.27516V13.6148Z" fill="#404040"/>
<defs>
<linearGradient id="paint0_linear_446_27337" x1="11" y1="5" x2="6" y2="9.5" gradientUnits="userSpaceOnUse">
<stop stop-color="#FFF9D6"/>
<stop offset="1" stop-color="#99FFFF"/>
</linearGradient>
</defs>
</svg>
