<svg width="28" height="28" viewBox="0 0 28 28" fill="none" xmlns="http://www.w3.org/2000/svg">
<circle cx="14" cy="14" r="14" fill="#EBFFFF"/>
<rect x="2" y="2" width="24" height="24" rx="12" fill="#404040"/>
<rect x="2" y="2" width="24" height="24" rx="12" stroke="#404040"/>
<path fill-rule="evenodd" clip-rule="evenodd" d="M7.05349 13.5272C6.67925 13.7135 6.67925 14.2865 7.05349 14.4728C9.85752 15.8689 12.1311 18.1425 13.5272 20.9465C13.7135 21.3207 14.2865 21.3207 14.4728 20.9465C15.8689 18.1425 18.1425 15.8689 20.9465 14.4728C21.3207 14.2865 21.3207 13.7135 20.9465 13.5272C18.1425 12.1311 15.8689 9.85752 14.4728 7.05349C14.2865 6.67925 13.7135 6.67925 13.5272 7.05349C12.7668 8.5807 11.7461 9.95056 10.5212 11.107H10.4973V11.1295C9.47899 12.0865 8.32038 12.8964 7.05349 13.5272ZM10.8544 11.9593C10.1288 12.6141 9.33956 13.2 8.4963 13.7072C10.1921 13.7918 11.8515 13.1582 13.06 11.9593H10.8544ZM8.93314 14.5657C11.0406 15.9322 12.784 17.8022 14 20.0125C14.6046 18.9136 15.3395 17.8989 16.1847 16.9883H14.477C13.9697 16.9883 13.5584 16.577 13.5584 16.0696L13.5584 12.6635C12.3053 13.8565 10.6514 14.5319 8.93314 14.5657ZM14.4107 15.3874C15.717 14.1765 17.4374 13.5127 19.2114 13.5268C17.039 12.1527 15.2437 10.2481 14 7.98746C13.3743 9.12483 12.6089 10.1721 11.7262 11.107H13.4921C13.9994 11.107 14.4107 11.5183 14.4107 12.0256L14.4107 15.3874ZM19.3569 14.3823C18.5283 14.8934 17.7532 15.4811 17.0411 16.1359H14.8609C16.0586 14.959 17.6867 14.3274 19.3569 14.3823Z" fill="url(#paint0_linear_335_382)"/>
<rect x="16" y="16" width="11.6667" height="5" rx="2.5" fill="#FFE085"/>
<path d="M23.7941 19.8889L24.6367 17.2963H25.1786L26.0212 19.8889H25.6305L24.8545 17.5231H24.9517L24.1848 19.8889H23.7941ZM24.2316 19.3038V18.9509H25.5855V19.3038H24.2316Z" fill="#404040"/>
<path d="M22.4995 19.8889V17.651H21.6371V17.2963H23.7382V17.651H22.8758V19.8889H22.4995Z" fill="#404040"/>
<path d="M19.7463 19.8889V17.2963H21.4027V17.651H20.1226V18.3783H21.1867V18.733H20.1226V19.5342H21.4027V19.8889H19.7463Z" fill="#404040"/>
<path d="M17.478 19.8889V17.2963H18.4971C18.6615 17.2963 18.7995 17.3299 18.9112 17.3971C19.0228 17.4643 19.1068 17.5514 19.1632 17.6582C19.2196 17.7638 19.2478 17.8754 19.2478 17.9931C19.2478 18.1359 19.2124 18.2583 19.1416 18.3603C19.072 18.4624 18.9778 18.532 18.8589 18.5692L18.8553 18.481C19.021 18.5218 19.1482 18.6016 19.237 18.7204C19.3258 18.838 19.3703 18.9755 19.3703 19.1327C19.3703 19.2851 19.3397 19.4178 19.2784 19.5306C19.2184 19.6434 19.1302 19.7317 19.0138 19.7953C18.8986 19.8577 18.7587 19.8889 18.5943 19.8889H17.478ZM17.8597 19.5306H18.5367C18.6219 19.5306 18.6981 19.5144 18.7653 19.482C18.8337 19.4496 18.8871 19.4034 18.9256 19.3434C18.9652 19.2821 18.985 19.2095 18.985 19.1255C18.985 19.0475 18.9676 18.9773 18.9328 18.9149C18.8992 18.8513 18.8499 18.8014 18.7851 18.7654C18.7215 18.7282 18.6465 18.7096 18.5601 18.7096H17.8597V19.5306ZM17.8597 18.3549H18.4917C18.5613 18.3549 18.6237 18.3411 18.6789 18.3135C18.7353 18.2847 18.7797 18.2439 18.8121 18.1911C18.8457 18.1371 18.8625 18.0723 18.8625 17.9967C18.8625 17.8958 18.8289 17.813 18.7617 17.7482C18.6945 17.6834 18.6045 17.651 18.4917 17.651H17.8597V18.3549Z" fill="#404040"/>
<defs>
<linearGradient id="paint0_linear_335_382" x1="17" y1="11" x2="12" y2="15.5" gradientUnits="userSpaceOnUse">
<stop stop-color="#FFF9D6"/>
<stop offset="1" stop-color="#99FFFF"/>
</linearGradient>
</defs>
</svg>
