<svg width="28" height="28" viewBox="0 0 28 28" fill="none" xmlns="http://www.w3.org/2000/svg">
<path d="M0 4C0 1.79086 1.79086 0 4 0H24C26.2091 0 28 1.79086 28 4V24C28 26.2091 26.2091 28 24 28H4C1.79086 28 0 26.2091 0 24V4Z" fill="#F7F5F3"/>
<path d="M11.3499 6.70005C11.3499 6.34106 11.6409 6.05005 11.9999 6.05005H15.9999C16.3588 6.05005 16.6499 6.34106 16.6499 6.70005C16.6499 7.05903 16.3588 7.35005 15.9999 7.35005L11.9999 7.35005C11.6409 7.35005 11.3499 7.05903 11.3499 6.70005Z" fill="#937962"/>
<path d="M13.9999 13C14.3313 13 14.5999 13.2687 14.5999 13.6V14.2001H15.2999C15.6313 14.2001 15.8999 14.4687 15.8999 14.8001C15.8999 15.1314 15.6313 15.4001 15.2999 15.4001H14.5999V16.1C14.5999 16.4314 14.3313 16.7 13.9999 16.7C13.6685 16.7 13.3999 16.4314 13.3999 16.1V15.4001H12.7999C12.4685 15.4001 12.1999 15.1314 12.1999 14.8001C12.1999 14.4687 12.4685 14.2001 12.7999 14.2001H13.3999V13.6C13.3999 13.2687 13.6685 13 13.9999 13Z" fill="#937962"/>
<path fill-rule="evenodd" clip-rule="evenodd" d="M7.3999 15C7.3999 11.355 10.3548 8.40005 13.9999 8.40005C17.645 8.40005 20.5999 11.355 20.5999 15V18.4H20.9999C21.3313 18.4 21.5999 18.6687 21.5999 19C21.5999 19.3314 21.3313 19.6 20.9999 19.6H16.5923C16.4902 20.9425 15.3685 22 13.9999 22H12.3999V19.6H6.9999C6.66853 19.6 6.3999 19.3314 6.3999 19C6.3999 18.6687 6.66853 18.4 6.9999 18.4H7.3999V15ZM19.3999 18.4V15C19.3999 12.0177 16.9822 9.60005 13.9999 9.60005C11.0176 9.60005 8.5999 12.0177 8.5999 15V18.4H19.3999ZM13.5999 19.6V20.8H13.9999C14.7052 20.8 15.2887 20.2785 15.3857 19.6H13.5999Z" fill="#937962"/>
</svg>
