<svg width="16" height="16" viewBox="0 0 16 16" fill="none" xmlns="http://www.w3.org/2000/svg">
<path fill-rule="evenodd" clip-rule="evenodd" d="M5.33381 15.1667C2.25381 15.1667 1.68048 13.7333 1.53381 12.34L1.03381 6.99999C0.960477 6.29999 0.940477 5.26665 1.63381 4.49332C2.23381 3.82665 3.22714 3.50665 4.66714 3.50665H11.3338C12.7805 3.50665 13.7738 3.83332 14.3671 4.49332C15.0605 5.26665 15.0405 6.29999 14.9671 7.00665L14.4671 12.3333C14.3205 13.7333 13.7471 15.1667 10.6671 15.1667H5.33381ZM2.37381 5.15999C2.04714 5.51999 1.94048 6.07332 2.02714 6.89999L2.52714 12.24C2.64048 13.2933 2.92714 14.1667 5.33381 14.1667H10.6671C13.0671 14.1667 13.3605 13.2933 13.4738 12.2333L13.9738 6.90665C14.0605 6.07332 13.9538 5.51999 13.6271 5.15999C13.2338 4.71999 12.4605 4.49999 11.3338 4.49999H4.66714C3.54048 4.49999 2.76714 4.71999 2.37381 5.15999Z" fill="#404040"/>
<path d="M10.1663 3.99998V3.46665C10.1663 2.27998 10.1663 1.83331 8.53301 1.83331H7.46634C5.83301 1.83331 5.83301 2.27998 5.83301 3.46665V3.99998C5.83301 4.27331 5.60634 4.49998 5.33301 4.49998C5.05967 4.49998 4.83301 4.27331 4.83301 3.99998V3.46665C4.83301 2.29331 4.83301 0.833313 7.46634 0.833313H8.53301C11.1663 0.833313 11.1663 2.29331 11.1663 3.46665V3.99998C11.1663 4.27331 10.9397 4.49998 10.6663 4.49998C10.393 4.49998 10.1663 4.27331 10.1663 3.99998Z" fill="#404040"/>
<path fill-rule="evenodd" clip-rule="evenodd" d="M6.16699 9.35333V8.66667C6.16699 7.72667 6.39366 7.5 7.33366 7.5H8.66699C9.60699 7.5 9.83366 7.72667 9.83366 8.66667V9.33333C9.83366 10.0267 9.83366 11.1667 8.00033 11.1667C6.16699 11.1667 6.16699 10.0333 6.16699 9.35333ZM7.16699 8.66667V9.35333C7.16699 10.04 7.16699 10.1667 8.00033 10.1667C8.83366 10.1667 8.83366 10.06 8.83366 9.34667V8.66667C8.83366 8.61333 8.83366 8.55333 8.83366 8.5C8.78033 8.5 8.72033 8.5 8.66699 8.5H7.33366C7.28033 8.5 7.22033 8.5 7.16699 8.5C7.16699 8.55333 7.16699 8.61333 7.16699 8.66667Z" fill="#404040"/>
<path d="M8.83967 9.40668C8.80634 9.13335 8.99967 8.88002 9.27301 8.84668C11.033 8.62668 12.7197 7.96002 14.1397 6.92668C14.3597 6.76002 14.673 6.81335 14.8397 7.04002C14.9997 7.26002 14.953 7.57335 14.7263 7.74002C13.1663 8.87335 11.3263 9.60002 9.39301 9.84668C9.37301 9.84668 9.35301 9.84668 9.33301 9.84668C9.08634 9.84668 8.86634 9.66002 8.83967 9.40668Z" fill="#404040"/>
<path d="M6.60715 9.85325C4.78048 9.64658 3.00048 8.97992 1.46048 7.92658C1.23382 7.77325 1.17382 7.45991 1.32715 7.23325C1.48048 7.00658 1.79382 6.94658 2.02048 7.09991C3.42715 8.05991 5.04715 8.66658 6.71381 8.85991C6.98715 8.89325 7.18715 9.13991 7.15381 9.41325C7.13381 9.66658 6.92048 9.85325 6.66715 9.85325C6.64715 9.85325 6.62715 9.85325 6.60715 9.85325Z" fill="#404040"/>
</svg>
