<svg width="16" height="16" viewBox="0 0 16 16" fill="none" xmlns="http://www.w3.org/2000/svg">
<path d="M4.16699 9.29332V7.15332C4.16699 6.87999 4.39366 6.65332 4.66699 6.65332C4.94033 6.65332 5.16699 6.87999 5.16699 7.15332V9.29332C5.16699 9.57332 4.94033 9.79332 4.66699 9.79332C4.39366 9.79332 4.16699 9.56665 4.16699 9.29332Z" fill="#404040"/>
<path d="M7.5 10.4533V6C7.5 5.72667 7.72667 5.5 8 5.5C8.27333 5.5 8.5 5.72667 8.5 6V10.4533C8.5 10.7267 8.27333 10.9533 8 10.9533C7.72667 10.9533 7.5 10.7267 7.5 10.4533Z" fill="#404040"/>
<path d="M10.833 9.29332V7.15332C10.833 6.87999 11.0597 6.65332 11.333 6.65332C11.6063 6.65332 11.833 6.87999 11.833 7.15332V9.29332C11.833 9.57332 11.6063 9.79332 11.333 9.79332C11.0597 9.79332 10.833 9.56665 10.833 9.29332Z" fill="#404040"/>
<path fill-rule="evenodd" clip-rule="evenodd" d="M5.99967 15.1667C2.37967 15.1667 0.833008 13.62 0.833008 10V6C0.833008 2.38 2.37967 0.833332 5.99967 0.833332H9.99967C13.6197 0.833332 15.1663 2.38 15.1663 6V10C15.1663 13.62 13.6197 15.1667 9.99967 15.1667H5.99967ZM1.83301 6V10C1.83301 13.0733 2.92634 14.1667 5.99967 14.1667H9.99967C13.073 14.1667 14.1663 13.0733 14.1663 10V6C14.1663 2.92667 13.073 1.83333 9.99967 1.83333H5.99967C2.92634 1.83333 1.83301 2.92667 1.83301 6Z" fill="#404040"/>
</svg>
