<svg width="16" height="16" viewBox="0 0 16 16" fill="none" xmlns="http://www.w3.org/2000/svg">
<path fill-rule="evenodd" clip-rule="evenodd" d="M0.814453 7.81993C0.814453 3.95558 3.95546 0.814575 7.81981 0.814575C11.6842 0.814575 14.8252 3.95558 14.8252 7.81993C14.8252 11.6843 11.6842 14.8253 7.81981 14.8253C3.95546 14.8253 0.814453 11.6843 0.814453 7.81993ZM1.79194 7.81993C1.79194 11.1434 4.49634 13.8478 7.81981 13.8478C11.1433 13.8478 13.8477 11.1434 13.8477 7.81993C13.8477 4.49646 11.1433 1.79207 7.81981 1.79207C4.49634 1.79207 1.79194 4.49646 1.79194 7.81993Z" fill="#FFFAEB"/>
<path d="M9.99005 10.3093L7.96991 9.10372C7.46813 8.80396 7.09668 8.14578 7.09668 7.5658V4.89399C7.09668 4.62681 7.31824 4.40524 7.58543 4.40524C7.85261 4.40524 8.07417 4.62681 8.07417 4.89399V7.5658C8.07417 7.8004 8.26967 8.14578 8.47168 8.26308L10.4918 9.46865C10.7264 9.6055 10.7981 9.90526 10.6613 10.1399C10.5635 10.2963 10.4006 10.381 10.2377 10.381C10.153 10.381 10.0683 10.3614 9.99005 10.3093Z" fill="#FFFAEB"/>
</svg>
