<svg width="29" height="28" viewBox="0 0 29 28" fill="none" xmlns="http://www.w3.org/2000/svg">
<path d="M0.800049 4C0.800049 1.79086 2.59091 0 4.80005 0H24.8C27.0092 0 28.8 1.79086 28.8 4V24C28.8 26.2091 27.0092 28 24.8 28H4.80005C2.59091 28 0.800049 26.2091 0.800049 24V4Z" fill="#232F2F"/>
<path fill-rule="evenodd" clip-rule="evenodd" d="M6.80005 14C6.80005 9.58698 10.387 6 14.8 6C19.2131 6 22.8 9.58698 22.8 14C22.8 18.413 19.2131 22 14.8 22C10.387 22 6.80005 18.413 6.80005 14ZM7.91633 14C7.91633 14.5772 7.98775 15.138 8.12221 15.6741C8.17573 15.676 8.22934 15.6859 8.28156 15.704C9.19201 16.007 10.1227 16.2443 11.0648 16.4161C10.8877 14.8109 10.8878 13.1873 11.065 11.5821C10.12 11.754 9.18652 11.9919 8.27338 12.2957C8.22324 12.312 8.17267 12.3211 8.12279 12.3236C7.98795 12.8604 7.91633 13.422 7.91633 14ZM8.59157 11.0281C9.45648 10.7706 10.3364 10.5684 11.2247 10.4215C11.3672 9.55778 11.5618 8.70216 11.8083 7.86045C11.7747 7.85963 11.742 7.85593 11.7103 7.84958C10.3526 8.53447 9.25117 9.65587 8.59157 11.0281ZM12.208 11.4071C11.9928 13.1262 11.9926 14.8713 12.2075 16.5916C13.9272 16.8069 15.6729 16.8073 17.3926 16.5927C17.6078 14.8735 17.608 13.1285 17.393 11.4082C15.6734 11.1929 13.9277 11.1925 12.208 11.4071ZM17.2172 10.262C15.6129 10.0839 13.9893 10.0837 12.384 10.2615C12.5558 9.32046 12.793 8.39075 13.0957 7.48091C13.1138 7.42891 13.1237 7.37553 13.1257 7.32224C13.6619 7.18772 14.2228 7.11628 14.8 7.11628C15.3782 7.11628 15.9399 7.18794 16.4768 7.32283C16.4791 7.37312 16.4882 7.42381 16.5048 7.47362C16.808 8.38635 17.0455 9.31865 17.2172 10.262ZM18.5399 11.5844C18.7171 13.1896 18.7164 14.813 18.5378 16.4172C19.482 16.2453 20.4147 16.0076 21.3271 15.704C21.3765 15.6869 21.4272 15.6771 21.4778 15.6744C21.6123 15.1382 21.6838 14.5773 21.6838 14C21.6838 13.4226 21.6123 12.8615 21.4777 12.3252C21.4248 12.3236 21.3719 12.3156 21.319 12.2957C20.4099 11.9932 19.4806 11.7561 18.5399 11.5844ZM21.0097 11.0304C20.1462 10.7727 19.2675 10.5701 18.38 10.4228C18.2334 9.5356 18.0317 8.65683 17.775 7.79299C19.1861 8.47214 20.3317 9.61865 21.0097 11.0304ZM11.7102 20.1504C10.3918 19.4853 9.31491 18.4084 8.64973 17.09C8.65638 17.058 8.66026 17.0251 8.6611 16.9915C9.50401 17.2399 10.3602 17.4352 11.2246 17.5779C11.3672 18.4418 11.5617 19.2976 11.8083 20.1395C11.7747 20.1403 11.742 20.144 11.7102 20.1504ZM13.0957 20.5265C12.7925 19.6135 12.5549 18.6809 12.3832 17.7372C13.1852 17.8256 13.9924 17.8696 14.8006 17.8696C15.6083 17.8696 16.4148 17.8257 17.2167 17.7374C17.045 18.6789 16.8077 19.609 16.5048 20.5192C16.486 20.5716 16.4759 20.625 16.4738 20.6779C15.9378 20.8123 15.3771 20.8837 14.8 20.8837C14.2227 20.8837 13.6616 20.8122 13.1254 20.6777C13.1227 20.6269 13.113 20.5761 13.0957 20.5265ZM17.7677 20.2105C18.0261 19.3462 18.2291 18.4666 18.3768 17.5781C19.2427 17.4354 20.1012 17.2401 20.9476 16.9915C20.9483 17.021 20.9513 17.05 20.9563 17.0781C20.2713 18.4425 19.1458 19.5493 17.7677 20.2105Z" fill="#608080"/>
</svg>
