<svg width="32" height="32" viewBox="0 0 32 32" fill="none" xmlns="http://www.w3.org/2000/svg">
<path opacity="0.4" d="M10.1381 1C5.03952 1 2 4.03952 2 9.13807V20.8619C2 25.9605 5.03952 29 10.1381 29H21.8619C26.9605 29 30 25.9605 30 20.8619V9.13807C30 4.03952 26.9605 1 21.8619 1H10.1381Z" fill="#8BA7A7"/>
<path opacity="0.5" d="M11.0232 20.1716C10.6203 20.5746 9.93188 20.4822 9.68843 19.9701C9.25189 19.0719 9.00004 18.0561 9.00004 16.9899C8.98326 12.356 13.6844 8.39356 15.2794 7.17629C15.5901 6.94124 16.0098 6.94124 16.312 7.17629C17.0424 7.73036 18.4107 8.88046 19.6952 10.3915C19.9806 10.7273 19.9638 11.231 19.6532 11.5416L11.0232 20.1716Z" fill="#608080"/>
<path d="M15.7995 23.7899C14.2968 23.7899 12.8948 23.303 11.7615 22.4635C11.3501 22.1613 11.3166 21.5568 11.6775 21.1958L20.1312 12.7422C20.5258 12.3476 21.189 12.4315 21.4576 12.9185C22.146 14.1861 22.6077 15.5629 22.5993 16.9984C22.5993 20.7425 19.552 23.7899 15.7995 23.7899Z" fill="#608080"/>
</svg>
