<svg width="32" height="32" viewBox="0 0 32 32" fill="none" xmlns="http://www.w3.org/2000/svg">
<path d="M8.41262 23.586C7.77262 24.226 6.67929 24.0794 6.29262 23.266C5.59929 21.8393 5.19929 20.226 5.19929 18.5327C5.17262 11.1727 12.6393 4.87935 15.1726 2.94602C15.666 2.57268 16.3326 2.57268 16.8126 2.94602C17.9726 3.82602 20.146 5.65268 22.186 8.05268C22.6393 8.58602 22.6126 9.38602 22.1193 9.87935L8.41262 23.586Z" fill="#A6B7BA"/>
<path d="M16.0013 29.3337C13.6146 29.3337 11.3879 28.5604 9.58792 27.227C8.93459 26.747 8.88126 25.787 9.45459 25.2137L22.8813 11.787C23.5079 11.1604 24.5613 11.2937 24.9879 12.067C26.0813 14.0804 26.8146 16.267 26.8013 18.547C26.8013 24.4937 21.9613 29.3337 16.0013 29.3337Z" fill="#608080"/>
</svg>
