<svg width="32" height="32" viewBox="0 0 32 32" fill="none" xmlns="http://www.w3.org/2000/svg">
<path opacity="0.6" d="M10.4264 2.66667C5.57302 2.66667 2.67969 5.56 2.67969 10.4133V21.5733C2.67969 26.4267 5.57302 29.32 10.4264 29.32H21.5863C26.4397 29.32 29.333 26.4267 29.333 21.5733V10.4133C29.333 5.56 26.4397 2.66667 21.5863 2.66667H10.4264Z" fill="#FFD700"/>
<g opacity="0.72">
<path opacity="0.6" d="M11.0873 8.37369C10.4022 8.37369 9.83984 9.10703 9.83984 10.0004V21.9737C9.83984 22.867 10.4022 23.6004 11.0873 23.6004H13.5924C14.2774 23.6004 14.8398 22.867 14.8398 21.9737V10.0004C14.8398 9.10703 14.2774 8.37369 13.5924 8.37369H11.0873Z" fill="#B89C00"/>
<path d="M18.626 13.8271C18.075 13.8271 17.626 14.4137 17.626 15.1337V22.3204C17.626 23.0404 18.075 23.6271 18.626 23.6271H21.626C22.177 23.6271 22.626 23.0404 22.626 22.3204V15.1337C22.626 14.4137 22.177 13.8271 21.626 13.8271H18.626Z" fill="#B89C00"/>
</g>
</svg>
