<svg width="32" height="32" viewBox="0 0 32 32" fill="none" xmlns="http://www.w3.org/2000/svg">
<path fill-rule="evenodd" clip-rule="evenodd" d="M13.3337 10.6667H6.66699C4.00033 10.6667 2.66699 12 2.66699 14.6667V25.3333C2.66699 28 4.00033 29.3333 6.66699 29.3333H17.3337C14.667 29.3333 13.3337 28 13.3337 25.3333V10.6667ZM8.00033 23.6667C7.45366 23.6667 7.00033 23.2133 7.00033 22.6667V17.3333C7.00033 16.7867 7.45366 16.3333 8.00033 16.3333C8.54699 16.3333 9.00033 16.7867 9.00033 17.3333V22.6667C9.00033 23.2133 8.54699 23.6667 8.00033 23.6667Z" fill="#B89C00"/>
<path opacity="0.4" d="M18.6663 29.3333H17.333C14.6663 29.3333 13.333 28 13.333 25.3333V6.66667C13.333 4.00001 14.6663 2.66667 17.333 2.66667H25.333C27.9997 2.66667 29.333 4.00001 29.333 6.66667V25.3333C29.333 28 27.9997 29.3333 25.333 29.3333H23.9997" fill="#B89C00"/>
<path d="M24.0003 29.3333H18.667V24C18.667 23.2667 19.267 22.6667 20.0003 22.6667H22.667C23.4003 22.6667 24.0003 23.2667 24.0003 24V29.3333Z" fill="#B89C00"/>
<path d="M17.667 17.3333V10.6667C17.667 10.12 18.1203 9.66667 18.667 9.66667C19.2137 9.66667 19.667 10.12 19.667 10.6667V17.3333C19.667 17.88 19.2137 18.3333 18.667 18.3333C18.1203 18.3333 17.667 17.88 17.667 17.3333Z" fill="#B89C00"/>
<path d="M23 17.3333V10.6667C23 10.12 23.4533 9.66667 24 9.66667C24.5467 9.66667 25 10.12 25 10.6667V17.3333C25 17.88 24.5467 18.3333 24 18.3333C23.4533 18.3333 23 17.88 23 17.3333Z" fill="#B89C00"/>
</svg>
