<svg width="32" height="32" viewBox="0 0 32 32" fill="none" xmlns="http://www.w3.org/2000/svg">
<path opacity="0.4" d="M10.4134 2.66666C5.56008 2.66666 2.66675 5.55999 2.66675 10.4133V21.5733C2.66675 26.44 5.56008 29.3333 10.4134 29.3333H21.5734C26.4268 29.3333 29.3201 26.44 29.3201 21.5867V10.4133C29.3334 5.55999 26.4401 2.66666 21.5868 2.66666H10.4134Z" fill="#AD9885"/>
<path d="M9.16023 20.1067C8.72023 19.7733 8.64023 19.1467 8.97356 18.7067L12.1469 14.5867C12.5336 14.0933 13.0802 13.7733 13.7069 13.6933C14.3202 13.6133 14.9469 13.7867 15.4402 14.1733L17.8802 16.0933C17.9736 16.1733 18.0669 16.1733 18.1336 16.16C18.1869 16.16 18.2802 16.1333 18.3602 16.0267L21.4402 12.0533C21.7736 11.6133 22.4136 11.5333 22.8402 11.88C23.2802 12.2133 23.3602 12.84 23.0136 13.28L19.9336 17.2533C19.5469 17.7467 19.0002 18.0667 18.3736 18.1333C17.7469 18.2133 17.1336 18.04 16.6402 17.6533L14.2002 15.7333C14.1069 15.6533 14.0002 15.6533 13.9469 15.6667C13.8936 15.6667 13.8002 15.6933 13.7202 15.8L10.5469 19.92C10.3736 20.1867 10.0802 20.32 9.77356 20.32C9.56023 20.32 9.3469 20.2533 9.16023 20.1067Z" fill="#AD9885"/>
</svg>
