<svg width="262" height="52" viewBox="0 0 262 52" fill="none" xmlns="http://www.w3.org/2000/svg">
<g clip-path="url(#clip0_468_8350)">
<mask id="path-1-inside-1_468_8350" fill="white">
<path d="M0 8C0 3.58172 3.58172 0 8 0H253.333C257.752 0 261.333 3.58172 261.333 8V44C261.333 48.4183 257.752 52 253.333 52H8C3.58172 52 0 48.4183 0 44V8Z"/>
</mask>
<path d="M0 8C0 3.58172 3.58172 0 8 0H253.333C257.752 0 261.333 3.58172 261.333 8V44C261.333 48.4183 257.752 52 253.333 52H8C3.58172 52 0 48.4183 0 44V8Z" fill="#290029"/>
<g clip-path="url(#clip1_468_8350)">
<path d="M42.5721 35.3596C42.5721 33.7618 41.5424 33.0202 41.0275 33.0356L39.0657 35.9697C42.0517 35.9697 42.5721 35.3596 42.5721 35.3596Z" fill="#520052"/>
<mask id="mask0_468_8350" style="mask-type:alpha" maskUnits="userSpaceOnUse" x="12" y="12" width="31" height="33">
<path d="M12.0352 28.129V28.129C12.0352 37.0368 18.8437 44.2581 27.2425 44.2581H27.2426C35.6414 44.2581 42.4499 37.0368 42.4499 28.129V28.129C42.4499 19.2212 35.6414 12 27.2426 12H27.2425C18.8437 12 12.0352 19.2212 12.0352 28.129Z" fill="url(#paint0_radial_468_8350)"/>
</mask>
<g mask="url(#mask0_468_8350)">
<path d="M12.0352 28.1292V28.1293C12.0352 37.0371 18.8437 44.2583 27.2425 44.2583H27.2426C35.6414 44.2583 42.4499 37.0371 42.4499 28.1293V28.1292C42.4499 19.2214 35.6414 12.0002 27.2426 12.0002H27.2425C18.8437 12.0002 12.0352 19.2214 12.0352 28.1292Z" fill="#051961"/>
<g filter="url(#filter0_f_468_8350)">
<path d="M15.9472 41.4982C22.2462 47.5267 31.5455 47.4856 36.7175 41.4065C41.8896 35.3274 40.976 25.5122 34.677 19.4837C28.3779 13.4552 19.0787 13.4962 13.9066 19.5753C8.73449 25.6545 9.64809 35.4696 15.9472 41.4982Z" fill="url(#paint1_linear_468_8350)"/>
</g>
<g filter="url(#filter1_f_468_8350)">
<path d="M56.0595 52.7312C60.6391 45.4175 58.7614 35.5511 51.8656 30.694C44.9698 25.8369 35.6672 27.8284 31.0877 35.1421C26.5081 42.4558 28.3858 52.3222 35.2816 57.1793C42.1774 62.0364 51.48 60.0449 56.0595 52.7312Z" fill="url(#paint2_linear_468_8350)"/>
</g>
<g filter="url(#filter2_f_468_8350)">
<path d="M16.8222 38.6546C24.0924 38.6546 29.9861 32.1195 29.9861 24.0581C29.9861 15.9967 24.0924 9.46167 16.8222 9.46167C9.55191 9.46167 3.6582 15.9967 3.6582 24.0581C3.6582 32.1195 9.55191 38.6546 16.8222 38.6546Z" fill="url(#paint3_linear_468_8350)"/>
</g>
<g filter="url(#filter3_f_468_8350)">
<path d="M26.3799 22.7006C32.7412 22.5738 37.8013 17.0016 37.6818 10.2547C37.5622 3.50774 32.3084 -1.85897 25.947 -1.73221C19.5856 -1.60545 14.5256 3.96678 14.6451 10.7137C14.7646 17.4606 20.0185 22.8274 26.3799 22.7006Z" fill="url(#paint4_linear_468_8350)"/>
</g>
<g filter="url(#filter4_f_468_8350)">
<path d="M37.398 49.0184C45.0489 48.866 51.1346 42.1643 50.9908 34.0497C50.8471 25.9352 44.5283 19.4807 36.8775 19.6331C29.2266 19.7856 23.1409 26.4873 23.2847 34.6018C23.4284 42.7163 29.7472 49.1709 37.398 49.0184Z" fill="url(#paint5_linear_468_8350)"/>
</g>
<g filter="url(#filter5_f_468_8350)">
<path d="M16.2237 47.4758C24.4523 47.4758 31.1229 40.4009 31.1229 31.6736C31.1229 22.9462 24.4523 15.8713 16.2237 15.8713C7.99507 15.8713 1.32446 22.9462 1.32446 31.6736C1.32446 40.4009 7.99507 47.4758 16.2237 47.4758Z" stroke="url(#paint6_linear_468_8350)" stroke-width="0.147002"/>
</g>
<g filter="url(#filter6_f_468_8350)">
<path d="M15.6093 44.278C21.9707 44.1512 27.0308 38.579 26.9113 31.8321C26.7917 25.0851 21.5379 19.7184 15.1765 19.8452C8.81513 19.9719 3.75509 25.5442 3.87461 32.2911C3.99413 39.038 9.24795 44.4047 15.6093 44.278Z" fill="url(#paint7_linear_468_8350)"/>
</g>
<g filter="url(#filter7_f_468_8350)">
<path fill-rule="evenodd" clip-rule="evenodd" d="M39.2537 14.3654C39.4266 14.5032 39.5961 14.6439 39.7624 14.7872C39.9387 14.917 40.1132 15.0509 40.2861 15.1887C40.4589 15.3266 40.6285 15.4672 40.7948 15.6105C40.971 15.7404 41.1456 15.8742 41.3185 16.0121C48.7305 21.9233 50.1278 32.9592 44.4392 40.6615C38.7507 48.3638 28.1305 49.8157 20.7184 43.9044C20.5456 43.7666 20.376 43.626 20.2097 43.4827C20.0334 43.3528 19.8589 43.219 19.686 43.0811C19.5132 42.9432 19.3436 42.8026 19.1773 42.6593C19.0011 42.5294 18.8265 42.3956 18.6537 42.2578C11.2416 36.3465 9.84436 25.3106 15.5329 17.6083C21.2214 9.90607 31.8416 8.45415 39.2537 14.3654ZM39.4612 16.3056C45.4175 21.922 46.3263 31.443 41.3421 38.1915C36.358 44.94 27.2724 46.4905 20.5109 41.9643C14.5546 36.3478 13.6459 26.8268 18.63 20.0783C23.6142 13.3298 32.6997 11.7794 39.4612 16.3056Z" fill="url(#paint8_linear_468_8350)"/>
</g>
<g filter="url(#filter8_f_468_8350)">
<path d="M15.6198 33.418C17.3388 38.8838 21.4511 40.9936 24.0846 41.1929C22.0154 35.0129 17.0138 26.8749 18.4414 23.8489C23.5203 13.0836 36.0391 33.9561 38.2964 29.7696C39.3059 27.8973 28.4712 21.4098 30.7285 19.6156C32.9858 17.8214 37.6283 19.6624 35.9354 17.8682C34.2424 16.074 27.4706 12.4856 20.6987 16.074C13.9268 19.6624 13.3626 26.2412 15.6198 33.418Z" fill="url(#paint9_linear_468_8350)"/>
</g>
<path fill-rule="evenodd" clip-rule="evenodd" d="M27.0272 22.3972V38.1264L25.1176 34.6761V29.6529H22.4806L21.2076 27.3697H25.1176V25.3908H20.1164L18.5706 22.3972H27.0272ZM36.1659 22.3972L34.62 25.3908H29.6187V27.3697H33.4834L32.2558 29.6529H29.6187V34.6761L27.7092 38.1264V22.3972H36.1659Z" fill="white"/>
</g>
<path d="M27.9436 39.5991C27.9436 37.2686 29.7939 35.4178 31.9891 35.5204C36.3188 35.7228 42.5722 35.9098 42.5722 35.3019C42.5722 34.8682 42.5722 36.2929 42.5722 37.9368C42.5722 40.1721 40.8636 41.9844 38.756 41.9844H28.3979C28.147 41.9844 27.9436 41.7687 27.9436 41.5026V39.5991Z" fill="#CC00CC"/>
<path d="M37.8503 40.6154L38.9088 37.1611H39.5896L40.6481 40.6154H40.1573L39.1825 37.4634H39.3046L38.3411 40.6154H37.8503ZM38.3999 39.8358V39.3656H40.1007V39.8358H38.3999Z" fill="white"/>
<path d="M36.4433 40.6154V37.6337H35.3599V37.1611H37.9993V37.6337H36.916V40.6154H36.4433Z" fill="white"/>
<path d="M32.875 40.6154V37.1611H34.9558V37.6337H33.3477V38.6028H34.6844V39.0754H33.3477V40.1428H34.9558V40.6154H32.875Z" fill="white"/>
<path d="M29.9707 40.6154V37.1611H31.2508C31.4574 37.1611 31.6308 37.2059 31.7711 37.2955C31.9113 37.385 32.0168 37.501 32.0877 37.6433C32.1585 37.784 32.194 37.9328 32.194 38.0895C32.194 38.2798 32.1495 38.4429 32.0606 38.5788C31.9731 38.7147 31.8547 38.8075 31.7054 38.8571L31.7009 38.7396C31.909 38.7939 32.0688 38.9003 32.1804 39.0586C32.292 39.2153 32.3478 39.3984 32.3478 39.6079C32.3478 39.811 32.3093 39.9877 32.2324 40.1381C32.157 40.2883 32.0462 40.4059 31.9 40.4907C31.7552 40.5738 31.5795 40.6154 31.373 40.6154H29.9707ZM30.4502 40.1381H31.3006C31.4076 40.1381 31.5034 40.1164 31.5878 40.0733C31.6738 40.0301 31.7409 39.9685 31.7891 39.8885C31.8389 39.807 31.8638 39.7103 31.8638 39.5983C31.8638 39.4944 31.8419 39.4008 31.7982 39.3176C31.7559 39.2329 31.6941 39.1665 31.6127 39.1185C31.5328 39.069 31.4385 39.0442 31.33 39.0442H30.4502V40.1381ZM30.4502 38.5716H31.244C31.3315 38.5716 31.4099 38.5533 31.4793 38.5165C31.5502 38.4781 31.6059 38.4237 31.6466 38.3534C31.6889 38.2814 31.71 38.195 31.71 38.0943C31.71 37.96 31.6677 37.8496 31.5833 37.7632C31.4989 37.6769 31.3858 37.6337 31.244 37.6337H30.4502V38.5716Z" fill="white"/>
</g>
<path d="M52.84 24.5V15.86H56.236C56.784 15.86 57.244 15.972 57.616 16.196C57.988 16.42 58.268 16.71 58.456 17.066C58.644 17.418 58.738 17.79 58.738 18.182C58.738 18.658 58.62 19.066 58.384 19.406C58.152 19.746 57.838 19.978 57.442 20.102L57.43 19.808C57.982 19.944 58.406 20.21 58.702 20.606C58.998 20.998 59.146 21.456 59.146 21.98C59.146 22.488 59.044 22.93 58.84 23.306C58.64 23.682 58.346 23.976 57.958 24.188C57.574 24.396 57.108 24.5 56.56 24.5H52.84ZM54.112 23.306H56.368C56.652 23.306 56.906 23.252 57.13 23.144C57.358 23.036 57.536 22.882 57.664 22.682C57.796 22.478 57.862 22.236 57.862 21.956C57.862 21.696 57.804 21.462 57.688 21.254C57.576 21.042 57.412 20.876 57.196 20.756C56.984 20.632 56.734 20.57 56.446 20.57H54.112V23.306ZM54.112 19.388H56.218C56.45 19.388 56.658 19.342 56.842 19.25C57.03 19.154 57.178 19.018 57.286 18.842C57.398 18.662 57.454 18.446 57.454 18.194C57.454 17.858 57.342 17.582 57.118 17.366C56.894 17.15 56.594 17.042 56.218 17.042H54.112V19.388ZM62.782 24.674C62.334 24.674 61.958 24.602 61.654 24.458C61.35 24.314 61.102 24.126 60.91 23.894C60.722 23.658 60.578 23.402 60.478 23.126C60.378 22.85 60.31 22.58 60.274 22.316C60.238 22.052 60.22 21.82 60.22 21.62V18.02H61.492V21.206C61.492 21.458 61.512 21.718 61.552 21.986C61.596 22.25 61.676 22.496 61.792 22.724C61.912 22.952 62.078 23.136 62.29 23.276C62.506 23.416 62.786 23.486 63.13 23.486C63.354 23.486 63.566 23.45 63.766 23.378C63.966 23.302 64.14 23.182 64.288 23.018C64.44 22.854 64.558 22.638 64.642 22.37C64.73 22.102 64.774 21.776 64.774 21.392L65.554 21.686C65.554 22.274 65.444 22.794 65.224 23.246C65.004 23.694 64.688 24.044 64.276 24.296C63.864 24.548 63.366 24.674 62.782 24.674ZM64.924 24.5V22.628H64.774V18.02H66.04V24.5H64.924ZM67.8428 16.958V15.74H69.0968V16.958H67.8428ZM67.8428 24.5V18.02H69.0968V24.5H67.8428ZM71.0186 24.5V15.68H72.2726V24.5H71.0186ZM76.6484 24.68C76.0444 24.68 75.5224 24.53 75.0824 24.23C74.6464 23.93 74.3084 23.522 74.0684 23.006C73.8324 22.486 73.7144 21.902 73.7144 21.254C73.7144 20.602 73.8344 20.02 74.0744 19.508C74.3144 18.992 74.6544 18.586 75.0944 18.29C75.5384 17.99 76.0644 17.84 76.6724 17.84C77.2844 17.84 77.7984 17.99 78.2144 18.29C78.6344 18.586 78.9504 18.992 79.1624 19.508C79.3784 20.024 79.4864 20.606 79.4864 21.254C79.4864 21.902 79.3784 22.484 79.1624 23C78.9464 23.516 78.6284 23.926 78.2084 24.23C77.7884 24.53 77.2684 24.68 76.6484 24.68ZM76.8224 23.546C77.2344 23.546 77.5704 23.448 77.8304 23.252C78.0904 23.056 78.2804 22.786 78.4004 22.442C78.5204 22.098 78.5804 21.702 78.5804 21.254C78.5804 20.806 78.5184 20.41 78.3944 20.066C78.2744 19.722 78.0864 19.454 77.8304 19.262C77.5784 19.07 77.2564 18.974 76.8644 18.974C76.4484 18.974 76.1064 19.076 75.8384 19.28C75.5704 19.484 75.3704 19.758 75.2384 20.102C75.1104 20.446 75.0464 20.83 75.0464 21.254C75.0464 21.682 75.1104 22.07 75.2384 22.418C75.3704 22.762 75.5664 23.036 75.8264 23.24C76.0904 23.444 76.4224 23.546 76.8224 23.546ZM78.5804 24.5V19.838H78.4364V15.86H79.6964V24.5H78.5804ZM85.1575 24.5L83.1775 18.014L84.4195 18.02L85.7755 22.466L87.1435 18.02H88.2235L89.5915 22.466L90.9475 18.02H92.1835L90.2035 24.5H89.1955L87.6835 19.808L86.1655 24.5H85.1575ZM93.378 16.958V15.74H94.632V16.958H93.378ZM93.378 24.5V18.02H94.632V24.5H93.378ZM100.142 24.5C99.7338 24.58 99.3338 24.614 98.9418 24.602C98.5498 24.59 98.1998 24.514 97.8918 24.374C97.5838 24.234 97.3518 24.014 97.1958 23.714C97.0558 23.446 96.9798 23.174 96.9678 22.898C96.9598 22.618 96.9558 22.302 96.9558 21.95V16.22H98.2158V21.89C98.2158 22.15 98.2178 22.376 98.2218 22.568C98.2298 22.76 98.2718 22.922 98.3478 23.054C98.4918 23.302 98.7198 23.444 99.0318 23.48C99.3478 23.512 99.7178 23.498 100.142 23.438V24.5ZM95.7138 19.028V18.02H100.142V19.028H95.7138ZM106.056 24.5V21.314C106.056 21.062 106.034 20.804 105.99 20.54C105.95 20.272 105.87 20.024 105.75 19.796C105.634 19.568 105.468 19.384 105.252 19.244C105.04 19.104 104.762 19.034 104.418 19.034C104.194 19.034 103.982 19.072 103.782 19.148C103.582 19.22 103.406 19.338 103.254 19.502C103.106 19.666 102.988 19.882 102.9 20.15C102.816 20.418 102.774 20.744 102.774 21.128L101.994 20.834C101.994 20.246 102.104 19.728 102.324 19.28C102.544 18.828 102.86 18.476 103.272 18.224C103.684 17.972 104.182 17.846 104.766 17.846C105.214 17.846 105.59 17.918 105.894 18.062C106.198 18.206 106.444 18.396 106.632 18.632C106.824 18.864 106.97 19.118 107.07 19.394C107.17 19.67 107.238 19.94 107.274 20.204C107.31 20.468 107.328 20.7 107.328 20.9V24.5H106.056ZM101.502 24.5V15.86H102.624V20.522H102.774V24.5H101.502ZM111.293 24.5V15.86H116.411V17.114H112.547V19.55H115.691V20.81H112.547V24.5H111.293ZM117.612 24.5V15.86H118.866V24.5H117.612ZM120.068 24.5L122.876 15.86H124.682L127.49 24.5H126.188L123.602 16.616H123.926L121.37 24.5H120.068ZM121.526 22.55V21.374H126.038V22.55H121.526Z" fill="#F0F0F0"/>
<path fill-rule="evenodd" clip-rule="evenodd" d="M140.313 24.6795L143.953 21.0688C144.249 20.7753 144.4 20.3876 144.4 20C144.4 19.6123 144.249 19.2246 143.953 18.9311L140.313 15.3204C140.151 15.1598 139.883 15.1598 139.722 15.3204C139.56 15.481 139.56 15.7468 139.722 15.9074L143.362 19.5182C143.63 19.784 143.63 20.2159 143.362 20.4818L139.722 24.0925C139.56 24.2531 139.56 24.5189 139.722 24.6795C139.883 24.8401 140.151 24.8401 140.313 24.6795Z" fill="#D0D0D0"/>
<path d="M55.9765 42.165C55.1882 42.165 54.5227 41.9908 53.98 41.6425C53.4373 41.2905 53.0267 40.8047 52.748 40.185C52.4693 39.5653 52.33 38.8503 52.33 38.04C52.33 37.2297 52.4693 36.5147 52.748 35.895C53.0267 35.2753 53.4373 34.7913 53.98 34.443C54.5227 34.091 55.1882 33.915 55.9765 33.915C56.8968 33.915 57.6485 34.1515 58.2315 34.6245C58.8145 35.0938 59.2142 35.7245 59.4305 36.5165L58.6055 36.731C58.4368 36.104 58.1343 35.6072 57.698 35.2405C57.2617 34.8738 56.6878 34.6905 55.9765 34.6905C55.3568 34.6905 54.8417 34.8317 54.431 35.114C54.0203 35.3963 53.7105 35.7905 53.5015 36.2965C53.2962 36.7988 53.1898 37.38 53.1825 38.04C53.1788 38.7 53.2797 39.2812 53.485 39.7835C53.694 40.2858 54.0057 40.68 54.42 40.966C54.838 41.2483 55.3568 41.3895 55.9765 41.3895C56.6878 41.3895 57.2617 41.2062 57.698 40.8395C58.1343 40.4692 58.4368 39.9723 58.6055 39.349L59.4305 39.5635C59.2142 40.3555 58.8145 40.988 58.2315 41.461C57.6485 41.9303 56.8968 42.165 55.9765 42.165ZM60.644 42V36.06H61.37V37.49L61.227 37.303C61.293 37.127 61.3792 36.9657 61.4855 36.819C61.5919 36.6687 61.7074 36.5458 61.832 36.4505C61.986 36.3148 62.1657 36.2122 62.371 36.1425C62.5764 36.0692 62.7835 36.027 62.9925 36.016C63.2015 36.0013 63.3922 36.016 63.5645 36.06V36.819C63.3482 36.764 63.1117 36.7512 62.855 36.7805C62.5984 36.8098 62.3619 36.9125 62.1455 37.0885C61.9475 37.2425 61.799 37.4277 61.7 37.644C61.601 37.8567 61.535 38.084 61.502 38.326C61.469 38.5643 61.4525 38.8008 61.4525 39.0355V42H60.644ZM67.014 42.165C66.4346 42.165 65.9323 42.0367 65.507 41.78C65.0853 41.5233 64.7571 41.1622 64.5225 40.6965C64.2878 40.2308 64.1705 39.6845 64.1705 39.0575C64.1705 38.4085 64.286 37.8475 64.517 37.3745C64.748 36.9015 65.0725 36.5367 65.4905 36.28C65.9121 36.0233 66.409 35.895 66.981 35.895C67.5676 35.895 68.0681 36.0307 68.4825 36.302C68.8968 36.5697 69.2103 36.9547 69.423 37.457C69.6356 37.9593 69.7328 38.5588 69.7145 39.2555H68.8895V38.9695C68.8748 38.1995 68.708 37.6183 68.389 37.226C68.0736 36.8337 67.6116 36.6375 67.003 36.6375C66.365 36.6375 65.8755 36.8447 65.5345 37.259C65.1971 37.6733 65.0285 38.2637 65.0285 39.03C65.0285 39.778 65.1971 40.3592 65.5345 40.7735C65.8755 41.1842 66.3576 41.3895 66.981 41.3895C67.4063 41.3895 67.7766 41.2923 68.092 41.098C68.411 40.9 68.6621 40.6158 68.8455 40.2455L69.599 40.537C69.3643 41.054 69.0178 41.4555 68.5595 41.7415C68.1048 42.0238 67.5896 42.165 67.014 42.165ZM64.7425 39.2555V38.579H69.28V39.2555H64.7425ZM72.5271 42.165C72.0798 42.165 71.704 42.0843 71.3996 41.923C71.099 41.7617 70.8735 41.5472 70.7231 41.2795C70.5728 41.0118 70.4976 40.7203 70.4976 40.405C70.4976 40.0823 70.5618 39.8073 70.6901 39.58C70.8221 39.349 71 39.1602 71.2236 39.0135C71.451 38.8668 71.7131 38.755 72.0101 38.678C72.3108 38.6047 72.6426 38.5405 73.0056 38.4855C73.3723 38.4268 73.7298 38.3773 74.0781 38.337C74.4301 38.293 74.7381 38.2508 75.0021 38.2105L74.7161 38.3865C74.7271 37.7998 74.6135 37.3653 74.3751 37.083C74.1368 36.8007 73.7225 36.6595 73.1321 36.6595C72.7251 36.6595 72.3805 36.7512 72.0981 36.9345C71.8195 37.1178 71.6233 37.4075 71.5096 37.8035L70.7231 37.5725C70.8588 37.0408 71.132 36.6283 71.5426 36.335C71.9533 36.0417 72.4868 35.895 73.1431 35.895C73.6858 35.895 74.146 35.9977 74.5236 36.203C74.905 36.4047 75.1745 36.698 75.3321 37.083C75.4055 37.2553 75.4531 37.4478 75.4751 37.6605C75.4971 37.8732 75.5081 38.0895 75.5081 38.3095V42H74.7876V40.5095L74.9966 40.5975C74.795 41.1072 74.4815 41.4958 74.0561 41.7635C73.6308 42.0312 73.1211 42.165 72.5271 42.165ZM72.6206 41.4665C72.9983 41.4665 73.3283 41.3987 73.6106 41.263C73.893 41.1273 74.1203 40.9422 74.2926 40.7075C74.465 40.4692 74.5768 40.2015 74.6281 39.9045C74.6721 39.7138 74.696 39.5048 74.6996 39.2775C74.7033 39.0465 74.7051 38.8742 74.7051 38.7605L75.0131 38.92C74.7381 38.9567 74.4393 38.9933 74.1166 39.03C73.7976 39.0667 73.4823 39.1088 73.1706 39.1565C72.8626 39.2042 72.584 39.261 72.3346 39.327C72.166 39.3747 72.0028 39.4425 71.8451 39.5305C71.6875 39.6148 71.5573 39.7285 71.4546 39.8715C71.3556 40.0145 71.3061 40.1923 71.3061 40.405C71.3061 40.5773 71.3483 40.7442 71.4326 40.9055C71.5206 41.0668 71.66 41.2007 71.8506 41.307C72.045 41.4133 72.3016 41.4665 72.6206 41.4665ZM80.1739 42C79.8403 42.0697 79.5103 42.0972 79.1839 42.0825C78.8613 42.0678 78.5716 41.9982 78.3149 41.8735C78.0619 41.7488 77.8694 41.5545 77.7374 41.2905C77.6311 41.0705 77.5724 40.8487 77.5614 40.625C77.5541 40.3977 77.5504 40.1392 77.5504 39.8495V34.41H78.3534V39.8165C78.3534 40.0658 78.3553 40.2748 78.3589 40.4435C78.3663 40.6085 78.4048 40.7552 78.4744 40.8835C78.6064 41.1292 78.8154 41.2758 79.1014 41.3235C79.3911 41.3712 79.7486 41.3602 80.1739 41.2905V42ZM76.2799 36.753V36.06H80.1739V36.753H76.2799ZM83.6429 42.165C83.0635 42.165 82.5612 42.0367 82.1359 41.78C81.7142 41.5233 81.386 41.1622 81.1514 40.6965C80.9167 40.2308 80.7994 39.6845 80.7994 39.0575C80.7994 38.4085 80.9149 37.8475 81.1459 37.3745C81.3769 36.9015 81.7014 36.5367 82.1194 36.28C82.541 36.0233 83.0379 35.895 83.6099 35.895C84.1965 35.895 84.697 36.0307 85.1114 36.302C85.5257 36.5697 85.8392 36.9547 86.0519 37.457C86.2645 37.9593 86.3617 38.5588 86.3434 39.2555H85.5184V38.9695C85.5037 38.1995 85.3369 37.6183 85.0179 37.226C84.7025 36.8337 84.2405 36.6375 83.6319 36.6375C82.9939 36.6375 82.5044 36.8447 82.1634 37.259C81.826 37.6733 81.6574 38.2637 81.6574 39.03C81.6574 39.778 81.826 40.3592 82.1634 40.7735C82.5044 41.1842 82.9865 41.3895 83.6099 41.3895C84.0352 41.3895 84.4055 41.2923 84.7209 41.098C85.0399 40.9 85.291 40.6158 85.4744 40.2455L86.2279 40.537C85.9932 41.054 85.6467 41.4555 85.1884 41.7415C84.7337 42.0238 84.2185 42.165 83.6429 42.165ZM81.3714 39.2555V38.579H85.9089V39.2555H81.3714ZM90.6131 44.64L91.7626 41.5215L91.7791 42.4455L89.1776 36.06H90.0356L92.1696 41.4005H91.8176L93.7866 36.06H94.6116L91.4216 44.64H90.6131ZM97.8325 42.165C97.2422 42.165 96.738 42.0312 96.32 41.7635C95.902 41.4958 95.5812 41.1255 95.3575 40.6525C95.1339 40.1795 95.022 39.6368 95.022 39.0245C95.022 38.4012 95.1357 37.8548 95.363 37.3855C95.5904 36.9162 95.913 36.5513 96.331 36.291C96.7527 36.027 97.2532 35.895 97.8325 35.895C98.4265 35.895 98.9325 36.0288 99.3505 36.2965C99.7722 36.5605 100.093 36.929 100.313 37.402C100.537 37.8713 100.649 38.4122 100.649 39.0245C100.649 39.6478 100.537 40.196 100.313 40.669C100.089 41.1383 99.7667 41.505 99.345 41.769C98.9234 42.033 98.4192 42.165 97.8325 42.165ZM97.8325 41.3895C98.4925 41.3895 98.9839 41.1713 99.3065 40.735C99.6292 40.295 99.7905 39.7248 99.7905 39.0245C99.7905 38.3058 99.6274 37.7338 99.301 37.3085C98.9784 36.8832 98.4889 36.6705 97.8325 36.6705C97.3889 36.6705 97.0222 36.7713 96.7325 36.973C96.4465 37.171 96.232 37.4478 96.089 37.8035C95.9497 38.1555 95.88 38.5625 95.88 39.0245C95.88 39.7395 96.045 40.3133 96.375 40.746C96.705 41.175 97.1909 41.3895 97.8325 41.3895ZM104.133 42.1485C103.778 42.1485 103.466 42.0935 103.198 41.9835C102.934 41.8735 102.709 41.725 102.522 41.538C102.338 41.351 102.19 41.1383 102.076 40.9C101.963 40.658 101.88 40.4032 101.829 40.1355C101.777 39.8642 101.752 39.5947 101.752 39.327V36.06H102.566V39.0905C102.566 39.4168 102.597 39.7193 102.659 39.998C102.722 40.2767 102.821 40.5205 102.956 40.7295C103.096 40.9348 103.273 41.0943 103.49 41.208C103.71 41.3217 103.976 41.3785 104.287 41.3785C104.573 41.3785 104.824 41.329 105.041 41.23C105.261 41.131 105.444 40.9898 105.591 40.8065C105.741 40.6195 105.855 40.394 105.932 40.13C106.009 39.8623 106.047 39.5617 106.047 39.228L106.619 39.3545C106.619 39.9632 106.513 40.4747 106.3 40.889C106.088 41.3033 105.794 41.6168 105.42 41.8295C105.046 42.0422 104.617 42.1485 104.133 42.1485ZM106.13 42V40.537H106.047V36.06H106.856V42H106.13ZM108.393 42V36.06H109.119V37.49L108.976 37.303C109.042 37.127 109.128 36.9657 109.235 36.819C109.341 36.6687 109.456 36.5458 109.581 36.4505C109.735 36.3148 109.915 36.2122 110.12 36.1425C110.325 36.0692 110.533 36.027 110.742 36.016C110.951 36.0013 111.141 36.016 111.314 36.06V36.819C111.097 36.764 110.861 36.7512 110.604 36.7805C110.347 36.8098 110.111 36.9125 109.895 37.0885C109.697 37.2425 109.548 37.4277 109.449 37.644C109.35 37.8567 109.284 38.084 109.251 38.326C109.218 38.5643 109.202 38.8008 109.202 39.0355V42H108.393ZM117.04 42.165C116.449 42.165 115.945 42.0312 115.527 41.7635C115.109 41.4958 114.788 41.1255 114.565 40.6525C114.341 40.1795 114.229 39.6368 114.229 39.0245C114.229 38.4012 114.343 37.8548 114.57 37.3855C114.797 36.9162 115.12 36.5513 115.538 36.291C115.96 36.027 116.46 35.895 117.04 35.895C117.634 35.895 118.14 36.0288 118.558 36.2965C118.979 36.5605 119.3 36.929 119.52 37.402C119.744 37.8713 119.856 38.4122 119.856 39.0245C119.856 39.6478 119.744 40.196 119.52 40.669C119.296 41.1383 118.974 41.505 118.552 41.769C118.13 42.033 117.626 42.165 117.04 42.165ZM117.04 41.3895C117.7 41.3895 118.191 41.1713 118.514 40.735C118.836 40.295 118.998 39.7248 118.998 39.0245C118.998 38.3058 118.834 37.7338 118.508 37.3085C118.185 36.8832 117.696 36.6705 117.04 36.6705C116.596 36.6705 116.229 36.7713 115.94 36.973C115.654 37.171 115.439 37.4478 115.296 37.8035C115.157 38.1555 115.087 38.5625 115.087 39.0245C115.087 39.7395 115.252 40.3133 115.582 40.746C115.912 41.175 116.398 41.3895 117.04 41.3895ZM122.119 42L120.304 36.0545L121.112 36.06L122.52 40.6745L123.934 36.06H124.671L126.084 40.6745L127.503 36.06H128.306L126.491 42H125.787L124.302 37.27L122.823 42H122.119ZM133.587 42V38.9695C133.587 38.6395 133.556 38.337 133.494 38.062C133.432 37.7833 133.331 37.5413 133.191 37.336C133.056 37.127 132.878 36.9657 132.658 36.852C132.442 36.7383 132.178 36.6815 131.866 36.6815C131.58 36.6815 131.327 36.731 131.107 36.83C130.891 36.929 130.707 37.072 130.557 37.259C130.41 37.4423 130.298 37.666 130.221 37.93C130.144 38.194 130.106 38.4947 130.106 38.832L129.534 38.7055C129.534 38.0968 129.64 37.5853 129.853 37.171C130.066 36.7567 130.359 36.4432 130.733 36.2305C131.107 36.0178 131.536 35.9115 132.02 35.9115C132.376 35.9115 132.685 35.9665 132.949 36.0765C133.217 36.1865 133.443 36.335 133.626 36.522C133.813 36.709 133.963 36.9235 134.077 37.1655C134.191 37.4038 134.273 37.6587 134.324 37.93C134.376 38.1977 134.401 38.4653 134.401 38.733V42H133.587ZM129.292 42V36.06H130.023V37.523H130.106V42H129.292ZM140.247 42.1595C139.551 42.1595 138.977 42.0092 138.526 41.7085C138.078 41.4078 137.803 40.9898 137.701 40.4545L138.526 40.317C138.614 40.6543 138.814 40.9238 139.125 41.1255C139.441 41.3235 139.829 41.4225 140.291 41.4225C140.742 41.4225 141.098 41.329 141.358 41.142C141.619 40.9513 141.749 40.6928 141.749 40.3665C141.749 40.1832 141.707 40.0347 141.622 39.921C141.542 39.8037 141.375 39.6955 141.122 39.5965C140.869 39.4975 140.491 39.3802 139.989 39.2445C139.45 39.0978 139.028 38.9512 138.724 38.8045C138.419 38.6578 138.203 38.4892 138.075 38.2985C137.946 38.1042 137.882 37.8677 137.882 37.589C137.882 37.2517 137.978 36.9565 138.168 36.7035C138.359 36.4468 138.623 36.2488 138.96 36.1095C139.298 35.9665 139.69 35.895 140.137 35.895C140.585 35.895 140.984 35.9683 141.336 36.115C141.692 36.258 141.978 36.4597 142.194 36.72C142.411 36.9803 142.539 37.2828 142.579 37.6275L141.754 37.776C141.699 37.4277 141.525 37.1527 141.232 36.951C140.942 36.7457 140.574 36.6393 140.126 36.632C139.705 36.621 139.362 36.7017 139.098 36.874C138.834 37.0427 138.702 37.2682 138.702 37.5505C138.702 37.7082 138.749 37.8438 138.845 37.9575C138.94 38.0675 139.112 38.172 139.362 38.271C139.615 38.37 139.974 38.4782 140.44 38.5955C140.986 38.7348 141.415 38.8815 141.727 39.0355C142.038 39.1895 142.26 39.371 142.392 39.58C142.524 39.789 142.59 40.0475 142.59 40.3555C142.59 40.9165 142.381 41.3583 141.963 41.681C141.549 42 140.977 42.1595 140.247 42.1595ZM146.274 42.165C145.676 42.165 145.17 42.0312 144.756 41.7635C144.342 41.4958 144.026 41.1273 143.81 40.658C143.597 40.185 143.487 39.6423 143.48 39.03C143.487 38.4067 143.601 37.8603 143.821 37.391C144.041 36.918 144.358 36.5513 144.773 36.291C145.187 36.027 145.689 35.895 146.28 35.895C146.881 35.895 147.403 36.0417 147.847 36.335C148.294 36.6283 148.601 37.0298 148.766 37.5395L147.974 37.7925C147.834 37.4368 147.612 37.1618 147.308 36.9675C147.007 36.7695 146.663 36.6705 146.274 36.6705C145.838 36.6705 145.477 36.7713 145.191 36.973C144.905 37.171 144.692 37.4478 144.553 37.8035C144.413 38.1592 144.342 38.568 144.338 39.03C144.345 39.7413 144.51 40.3133 144.833 40.746C145.156 41.175 145.636 41.3895 146.274 41.3895C146.677 41.3895 147.02 41.2978 147.303 41.1145C147.589 40.9275 147.805 40.6562 147.952 40.3005L148.766 40.5425C148.546 41.0705 148.223 41.4738 147.798 41.7525C147.372 42.0275 146.864 42.165 146.274 42.165ZM149.901 42V36.06H150.627V37.49L150.484 37.303C150.55 37.127 150.636 36.9657 150.742 36.819C150.849 36.6687 150.964 36.5458 151.089 36.4505C151.243 36.3148 151.423 36.2122 151.628 36.1425C151.833 36.0692 152.04 36.027 152.249 36.016C152.458 36.0013 152.649 36.016 152.821 36.06V36.819C152.605 36.764 152.369 36.7512 152.112 36.7805C151.855 36.8098 151.619 36.9125 151.402 37.0885C151.204 37.2425 151.056 37.4277 150.957 37.644C150.858 37.8567 150.792 38.084 150.759 38.326C150.726 38.5643 150.709 38.8008 150.709 39.0355V42H149.901ZM156.271 42.165C155.691 42.165 155.189 42.0367 154.764 41.78C154.342 41.5233 154.014 41.1622 153.779 40.6965C153.545 40.2308 153.427 39.6845 153.427 39.0575C153.427 38.4085 153.543 37.8475 153.774 37.3745C154.005 36.9015 154.329 36.5367 154.747 36.28C155.169 36.0233 155.666 35.895 156.238 35.895C156.824 35.895 157.325 36.0307 157.739 36.302C158.154 36.5697 158.467 36.9547 158.68 37.457C158.892 37.9593 158.99 38.5588 158.971 39.2555H158.146V38.9695C158.132 38.1995 157.965 37.6183 157.646 37.226C157.33 36.8337 156.868 36.6375 156.26 36.6375C155.622 36.6375 155.132 36.8447 154.791 37.259C154.454 37.6733 154.285 38.2637 154.285 39.03C154.285 39.778 154.454 40.3592 154.791 40.7735C155.132 41.1842 155.614 41.3895 156.238 41.3895C156.663 41.3895 157.033 41.2923 157.349 41.098C157.668 40.9 157.919 40.6158 158.102 40.2455L158.856 40.537C158.621 41.054 158.275 41.4555 157.816 41.7415C157.362 42.0238 156.846 42.165 156.271 42.165ZM153.999 39.2555V38.579H158.537V39.2555H153.999ZM162.705 42.165C162.126 42.165 161.624 42.0367 161.198 41.78C160.777 41.5233 160.449 41.1622 160.214 40.6965C159.979 40.2308 159.862 39.6845 159.862 39.0575C159.862 38.4085 159.977 37.8475 160.208 37.3745C160.439 36.9015 160.764 36.5367 161.182 36.28C161.604 36.0233 162.1 35.895 162.672 35.895C163.259 35.895 163.76 36.0307 164.174 36.302C164.588 36.5697 164.902 36.9547 165.114 37.457C165.327 37.9593 165.424 38.5588 165.406 39.2555H164.581V38.9695C164.566 38.1995 164.399 37.6183 164.08 37.226C163.765 36.8337 163.303 36.6375 162.694 36.6375C162.056 36.6375 161.567 36.8447 161.226 37.259C160.889 37.6733 160.72 38.2637 160.72 39.03C160.72 39.778 160.889 40.3592 161.226 40.7735C161.567 41.1842 162.049 41.3895 162.672 41.3895C163.098 41.3895 163.468 41.2923 163.783 41.098C164.102 40.9 164.354 40.6158 164.537 40.2455L165.29 40.537C165.056 41.054 164.709 41.4555 164.251 41.7415C163.796 42.0238 163.281 42.165 162.705 42.165ZM160.434 39.2555V38.579H164.971V39.2555H160.434ZM170.755 42V38.9695C170.755 38.6395 170.724 38.337 170.662 38.062C170.599 37.7833 170.499 37.5413 170.359 37.336C170.224 37.127 170.046 36.9657 169.826 36.852C169.609 36.7383 169.345 36.6815 169.034 36.6815C168.748 36.6815 168.495 36.731 168.275 36.83C168.058 36.929 167.875 37.072 167.725 37.259C167.578 37.4423 167.466 37.666 167.389 37.93C167.312 38.194 167.274 38.4947 167.274 38.832L166.702 38.7055C166.702 38.0968 166.808 37.5853 167.021 37.171C167.233 36.7567 167.527 36.4432 167.901 36.2305C168.275 36.0178 168.704 35.9115 169.188 35.9115C169.543 35.9115 169.853 35.9665 170.117 36.0765C170.385 36.1865 170.61 36.335 170.794 36.522C170.981 36.709 171.131 36.9235 171.245 37.1655C171.358 37.4038 171.441 37.6587 171.492 37.93C171.544 38.1977 171.569 38.4653 171.569 38.733V42H170.755ZM166.46 42V36.06H167.191V37.523H167.274V42H166.46ZM175.478 42.165C174.899 42.165 174.396 42.0367 173.971 41.78C173.549 41.5233 173.221 41.1622 172.986 40.6965C172.752 40.2308 172.634 39.6845 172.634 39.0575C172.634 38.4085 172.75 37.8475 172.981 37.3745C173.212 36.9015 173.536 36.5367 173.954 36.28C174.376 36.0233 174.873 35.895 175.445 35.895C176.032 35.895 176.532 36.0307 176.946 36.302C177.361 36.5697 177.674 36.9547 177.887 37.457C178.1 37.9593 178.197 38.5588 178.178 39.2555H177.353V38.9695C177.339 38.1995 177.172 37.6183 176.853 37.226C176.538 36.8337 176.076 36.6375 175.467 36.6375C174.829 36.6375 174.339 36.8447 173.998 37.259C173.661 37.6733 173.492 38.2637 173.492 39.03C173.492 39.778 173.661 40.3592 173.998 40.7735C174.339 41.1842 174.822 41.3895 175.445 41.3895C175.87 41.3895 176.241 41.2923 176.556 41.098C176.875 40.9 177.126 40.6158 177.309 40.2455L178.063 40.537C177.828 41.054 177.482 41.4555 177.023 41.7415C176.569 42.0238 176.054 42.165 175.478 42.165ZM173.206 39.2555V38.579H177.744V39.2555H173.206ZM179.399 42V36.06H180.125V37.49L179.982 37.303C180.048 37.127 180.134 36.9657 180.24 36.819C180.347 36.6687 180.462 36.5458 180.587 36.4505C180.741 36.3148 180.921 36.2122 181.126 36.1425C181.331 36.0692 181.538 36.027 181.747 36.016C181.956 36.0013 182.147 36.016 182.319 36.06V36.819C182.103 36.764 181.867 36.7512 181.61 36.7805C181.353 36.8098 181.117 36.9125 180.9 37.0885C180.702 37.2425 180.554 37.4277 180.455 37.644C180.356 37.8567 180.29 38.084 180.257 38.326C180.224 38.5643 180.207 38.8008 180.207 39.0355V42H179.399ZM185.364 42.1595C184.668 42.1595 184.094 42.0092 183.643 41.7085C183.196 41.4078 182.921 40.9898 182.818 40.4545L183.643 40.317C183.731 40.6543 183.931 40.9238 184.242 41.1255C184.558 41.3235 184.946 41.4225 185.408 41.4225C185.859 41.4225 186.215 41.329 186.475 41.142C186.736 40.9513 186.866 40.6928 186.866 40.3665C186.866 40.1832 186.824 40.0347 186.739 39.921C186.659 39.8037 186.492 39.6955 186.239 39.5965C185.986 39.4975 185.608 39.3802 185.106 39.2445C184.567 39.0978 184.145 38.9512 183.841 38.8045C183.537 38.6578 183.32 38.4892 183.192 38.2985C183.064 38.1042 182.999 37.8677 182.999 37.589C182.999 37.2517 183.095 36.9565 183.285 36.7035C183.476 36.4468 183.74 36.2488 184.077 36.1095C184.415 35.9665 184.807 35.895 185.254 35.895C185.702 35.895 186.101 35.9683 186.453 36.115C186.809 36.258 187.095 36.4597 187.311 36.72C187.528 36.9803 187.656 37.2828 187.696 37.6275L186.871 37.776C186.816 37.4277 186.642 37.1527 186.349 36.951C186.059 36.7457 185.691 36.6393 185.243 36.632C184.822 36.621 184.479 36.7017 184.215 36.874C183.951 37.0427 183.819 37.2682 183.819 37.5505C183.819 37.7082 183.867 37.8438 183.962 37.9575C184.057 38.0675 184.23 38.172 184.479 38.271C184.732 38.37 185.091 38.4782 185.557 38.5955C186.103 38.7348 186.532 38.8815 186.844 39.0355C187.156 39.1895 187.377 39.371 187.509 39.58C187.641 39.789 187.707 40.0475 187.707 40.3555C187.707 40.9165 187.498 41.3583 187.08 41.681C186.666 42 186.094 42.1595 185.364 42.1595ZM191.239 34.9325V34.025H192.048V34.9325H191.239ZM191.239 42V36.06H192.048V42H191.239ZM197.987 42V38.9695C197.987 38.6395 197.956 38.337 197.893 38.062C197.831 37.7833 197.73 37.5413 197.591 37.336C197.455 37.127 197.277 36.9657 197.057 36.852C196.841 36.7383 196.577 36.6815 196.265 36.6815C195.979 36.6815 195.726 36.731 195.506 36.83C195.29 36.929 195.107 37.072 194.956 37.259C194.81 37.4423 194.698 37.666 194.621 37.93C194.544 38.194 194.505 38.4947 194.505 38.832L193.933 38.7055C193.933 38.0968 194.04 37.5853 194.252 37.171C194.465 36.7567 194.758 36.4432 195.132 36.2305C195.506 36.0178 195.935 35.9115 196.419 35.9115C196.775 35.9115 197.085 35.9665 197.349 36.0765C197.616 36.1865 197.842 36.335 198.025 36.522C198.212 36.709 198.363 36.9235 198.476 37.1655C198.59 37.4038 198.672 37.6587 198.724 37.93C198.775 38.1977 198.801 38.4653 198.801 38.733V42H197.987ZM193.691 42V36.06H194.423V37.523H194.505V42H193.691ZM204.647 42.1595C203.95 42.1595 203.376 42.0092 202.925 41.7085C202.478 41.4078 202.203 40.9898 202.1 40.4545L202.925 40.317C203.013 40.6543 203.213 40.9238 203.525 41.1255C203.84 41.3235 204.229 41.4225 204.691 41.4225C205.142 41.4225 205.497 41.329 205.758 41.142C206.018 40.9513 206.148 40.6928 206.148 40.3665C206.148 40.1832 206.106 40.0347 206.022 39.921C205.941 39.8037 205.774 39.6955 205.521 39.5965C205.268 39.4975 204.89 39.3802 204.388 39.2445C203.849 39.0978 203.427 38.9512 203.123 38.8045C202.819 38.6578 202.602 38.4892 202.474 38.2985C202.346 38.1042 202.282 37.8677 202.282 37.589C202.282 37.2517 202.377 36.9565 202.568 36.7035C202.758 36.4468 203.022 36.2488 203.36 36.1095C203.697 35.9665 204.089 35.895 204.537 35.895C204.984 35.895 205.384 35.9683 205.736 36.115C206.091 36.258 206.377 36.4597 206.594 36.72C206.81 36.9803 206.938 37.2828 206.979 37.6275L206.154 37.776C206.099 37.4277 205.924 37.1527 205.631 36.951C205.341 36.7457 204.973 36.6393 204.526 36.632C204.104 36.621 203.761 36.7017 203.497 36.874C203.233 37.0427 203.101 37.2682 203.101 37.5505C203.101 37.7082 203.149 37.8438 203.244 37.9575C203.339 38.0675 203.512 38.172 203.761 38.271C204.014 38.37 204.373 38.4782 204.839 38.5955C205.385 38.7348 205.814 38.8815 206.126 39.0355C206.438 39.1895 206.66 39.371 206.792 39.58C206.924 39.789 206.99 40.0475 206.99 40.3555C206.99 40.9165 206.781 41.3583 206.363 41.681C205.948 42 205.376 42.1595 204.647 42.1595ZM210.723 42.165C210.144 42.165 209.641 42.0367 209.216 41.78C208.794 41.5233 208.466 41.1622 208.231 40.6965C207.997 40.2308 207.879 39.6845 207.879 39.0575C207.879 38.4085 207.995 37.8475 208.226 37.3745C208.457 36.9015 208.781 36.5367 209.199 36.28C209.621 36.0233 210.118 35.895 210.69 35.895C211.277 35.895 211.777 36.0307 212.191 36.302C212.606 36.5697 212.919 36.9547 213.132 37.457C213.345 37.9593 213.442 38.5588 213.423 39.2555H212.598V38.9695C212.584 38.1995 212.417 37.6183 212.098 37.226C211.783 36.8337 211.321 36.6375 210.712 36.6375C210.074 36.6375 209.584 36.8447 209.243 37.259C208.906 37.6733 208.737 38.2637 208.737 39.03C208.737 39.778 208.906 40.3592 209.243 40.7735C209.584 41.1842 210.067 41.3895 210.69 41.3895C211.115 41.3895 211.486 41.2923 211.801 41.098C212.12 40.9 212.371 40.6158 212.554 40.2455L213.308 40.537C213.073 41.054 212.727 41.4555 212.268 41.7415C211.814 42.0238 211.299 42.165 210.723 42.165ZM208.451 39.2555V38.579H212.989V39.2555H208.451ZM217.108 42.165C216.51 42.165 216.004 42.0312 215.59 41.7635C215.176 41.4958 214.86 41.1273 214.644 40.658C214.431 40.185 214.321 39.6423 214.314 39.03C214.321 38.4067 214.435 37.8603 214.655 37.391C214.875 36.918 215.192 36.5513 215.607 36.291C216.021 36.027 216.523 35.895 217.114 35.895C217.715 35.895 218.237 36.0417 218.681 36.335C219.128 36.6283 219.435 37.0298 219.6 37.5395L218.808 37.7925C218.668 37.4368 218.446 37.1618 218.142 36.9675C217.841 36.7695 217.497 36.6705 217.108 36.6705C216.672 36.6705 216.311 36.7713 216.025 36.973C215.739 37.171 215.526 37.4478 215.387 37.8035C215.247 38.1592 215.176 38.568 215.172 39.03C215.179 39.7413 215.344 40.3133 215.667 40.746C215.99 41.175 216.47 41.3895 217.108 41.3895C217.511 41.3895 217.854 41.2978 218.137 41.1145C218.423 40.9275 218.639 40.6562 218.786 40.3005L219.6 40.5425C219.38 41.0705 219.057 41.4738 218.632 41.7525C218.206 42.0275 217.698 42.165 217.108 42.165ZM223.054 42.165C222.464 42.165 221.96 42.0312 221.542 41.7635C221.124 41.4958 220.803 41.1255 220.579 40.6525C220.356 40.1795 220.244 39.6368 220.244 39.0245C220.244 38.4012 220.357 37.8548 220.585 37.3855C220.812 36.9162 221.135 36.5513 221.553 36.291C221.974 36.027 222.475 35.895 223.054 35.895C223.648 35.895 224.154 36.0288 224.572 36.2965C224.994 36.5605 225.315 36.929 225.535 37.402C225.758 37.8713 225.87 38.4122 225.87 39.0245C225.87 39.6478 225.758 40.196 225.535 40.669C225.311 41.1383 224.988 41.505 224.567 41.769C224.145 42.033 223.641 42.165 223.054 42.165ZM223.054 41.3895C223.714 41.3895 224.206 41.1713 224.528 40.735C224.851 40.295 225.012 39.7248 225.012 39.0245C225.012 38.3058 224.849 37.7338 224.523 37.3085C224.2 36.8832 223.711 36.6705 223.054 36.6705C222.611 36.6705 222.244 36.7713 221.954 36.973C221.668 37.171 221.454 37.4478 221.311 37.8035C221.171 38.1555 221.102 38.5625 221.102 39.0245C221.102 39.7395 221.267 40.3133 221.597 40.746C221.927 41.175 222.413 41.3895 223.054 41.3895ZM231.373 42V38.9695C231.373 38.6395 231.342 38.337 231.28 38.062C231.218 37.7833 231.117 37.5413 230.977 37.336C230.842 37.127 230.664 36.9657 230.444 36.852C230.228 36.7383 229.964 36.6815 229.652 36.6815C229.366 36.6815 229.113 36.731 228.893 36.83C228.677 36.929 228.493 37.072 228.343 37.259C228.196 37.4423 228.084 37.666 228.007 37.93C227.93 38.194 227.892 38.4947 227.892 38.832L227.32 38.7055C227.32 38.0968 227.426 37.5853 227.639 37.171C227.852 36.7567 228.145 36.4432 228.519 36.2305C228.893 36.0178 229.322 35.9115 229.806 35.9115C230.162 35.9115 230.471 35.9665 230.735 36.0765C231.003 36.1865 231.229 36.335 231.412 36.522C231.599 36.709 231.749 36.9235 231.863 37.1655C231.977 37.4038 232.059 37.6587 232.11 37.93C232.162 38.1977 232.187 38.4653 232.187 38.733V42H231.373ZM227.078 42V36.06H227.809V37.523H227.892V42H227.078ZM235.887 42.165C235.333 42.165 234.86 42.0275 234.468 41.7525C234.076 41.4738 233.775 41.098 233.566 40.625C233.357 40.152 233.253 39.6185 233.253 39.0245C233.253 38.4342 233.355 37.9025 233.561 37.4295C233.77 36.9565 234.068 36.5825 234.457 36.3075C234.846 36.0325 235.311 35.895 235.854 35.895C236.411 35.895 236.881 36.0307 237.262 36.302C237.643 36.5733 237.931 36.9455 238.126 37.4185C238.324 37.8878 238.423 38.4232 238.423 39.0245C238.423 39.6148 238.325 40.1483 238.131 40.625C237.937 41.098 237.651 41.4738 237.273 41.7525C236.895 42.0275 236.433 42.165 235.887 42.165ZM235.97 41.4115C236.391 41.4115 236.74 41.3088 237.015 41.1035C237.29 40.8982 237.495 40.6158 237.631 40.2565C237.766 39.8935 237.834 39.4828 237.834 39.0245C237.834 38.5588 237.766 38.1482 237.631 37.7925C237.495 37.4332 237.29 37.1527 237.015 36.951C236.743 36.7493 236.4 36.6485 235.986 36.6485C235.561 36.6485 235.209 36.753 234.93 36.962C234.651 37.171 234.444 37.4552 234.309 37.8145C234.177 38.1738 234.111 38.5772 234.111 39.0245C234.111 39.4755 234.178 39.8825 234.314 40.2455C234.453 40.6048 234.661 40.889 234.936 41.098C235.211 41.307 235.555 41.4115 235.97 41.4115ZM237.834 42V37.5285H237.746V34.08H238.56V42H237.834ZM242.32 42.1595C241.623 42.1595 241.049 42.0092 240.598 41.7085C240.151 41.4078 239.876 40.9898 239.773 40.4545L240.598 40.317C240.686 40.6543 240.886 40.9238 241.198 41.1255C241.513 41.3235 241.902 41.4225 242.364 41.4225C242.815 41.4225 243.17 41.329 243.431 41.142C243.691 40.9513 243.821 40.6928 243.821 40.3665C243.821 40.1832 243.779 40.0347 243.695 39.921C243.614 39.8037 243.447 39.6955 243.194 39.5965C242.941 39.4975 242.563 39.3802 242.061 39.2445C241.522 39.0978 241.1 38.9512 240.796 38.8045C240.492 38.6578 240.275 38.4892 240.147 38.2985C240.019 38.1042 239.955 37.8677 239.955 37.589C239.955 37.2517 240.05 36.9565 240.241 36.7035C240.431 36.4468 240.695 36.2488 241.033 36.1095C241.37 35.9665 241.762 35.895 242.21 35.895C242.657 35.895 243.057 35.9683 243.409 36.115C243.764 36.258 244.05 36.4597 244.267 36.72C244.483 36.9803 244.611 37.2828 244.652 37.6275L243.827 37.776C243.772 37.4277 243.597 37.1527 243.304 36.951C243.014 36.7457 242.646 36.6393 242.199 36.632C241.777 36.621 241.434 36.7017 241.17 36.874C240.906 37.0427 240.774 37.2682 240.774 37.5505C240.774 37.7082 240.822 37.8438 240.917 37.9575C241.012 38.0675 241.185 38.172 241.434 38.271C241.687 38.37 242.046 38.4782 242.512 38.5955C243.058 38.7348 243.487 38.8815 243.799 39.0355C244.111 39.1895 244.333 39.371 244.465 39.58C244.597 39.789 244.663 40.0475 244.663 40.3555C244.663 40.9165 244.454 41.3583 244.036 41.681C243.621 42 243.049 42.1595 242.32 42.1595Z" fill="#ADADAD"/>
</g>
<path d="M8 0V0.5H253.333V0V-0.5H8V0ZM261.333 8H260.833V44H261.333H261.833V8H261.333ZM253.333 52V51.5H8V52V52.5H253.333V52ZM0 44H0.5V8H0H-0.5V44H0ZM8 52V51.5C3.85786 51.5 0.5 48.1421 0.5 44H0H-0.5C-0.5 48.6944 3.30558 52.5 8 52.5V52ZM261.333 44H260.833C260.833 48.1421 257.475 51.5 253.333 51.5V52V52.5C258.028 52.5 261.833 48.6944 261.833 44H261.333ZM253.333 0V0.5C257.475 0.5 260.833 3.85786 260.833 8H261.333H261.833C261.833 3.30558 258.028 -0.5 253.333 -0.5V0ZM8 0V-0.5C3.30558 -0.5 -0.5 3.30558 -0.5 8H0H0.5C0.5 3.85786 3.85786 0.5 8 0.5V0Z" fill="#391452" mask="url(#path-1-inside-1_468_8350)"/>
<defs>
<filter id="filter0_f_468_8350" x="4.67388" y="9.10894" width="41.2763" height="42.764" filterUnits="userSpaceOnUse" color-interpolation-filters="sRGB">
<feFlood flood-opacity="0" result="BackgroundImageFix"/>
<feBlend mode="normal" in="SourceGraphic" in2="BackgroundImageFix" result="shape"/>
<feGaussianBlur stdDeviation="2.94004" result="effect1_foregroundBlur_468_8350"/>
</filter>
<filter id="filter1_f_468_8350" x="25.4965" y="24.9511" width="36.1543" height="37.9712" filterUnits="userSpaceOnUse" color-interpolation-filters="sRGB">
<feFlood flood-opacity="0" result="BackgroundImageFix"/>
<feBlend mode="normal" in="SourceGraphic" in2="BackgroundImageFix" result="shape"/>
<feGaussianBlur stdDeviation="1.54352" result="effect1_foregroundBlur_468_8350"/>
</filter>
<filter id="filter2_f_468_8350" x="-2.22187" y="3.5816" width="38.088" height="40.953" filterUnits="userSpaceOnUse" color-interpolation-filters="sRGB">
<feFlood flood-opacity="0" result="BackgroundImageFix"/>
<feBlend mode="normal" in="SourceGraphic" in2="BackgroundImageFix" result="shape"/>
<feGaussianBlur stdDeviation="2.94004" result="effect1_foregroundBlur_468_8350"/>
</filter>
<filter id="filter3_f_468_8350" x="11.556" y="-4.82141" width="29.2148" height="30.6113" filterUnits="userSpaceOnUse" color-interpolation-filters="sRGB">
<feFlood flood-opacity="0" result="BackgroundImageFix"/>
<feBlend mode="normal" in="SourceGraphic" in2="BackgroundImageFix" result="shape"/>
<feGaussianBlur stdDeviation="1.54352" result="effect1_foregroundBlur_468_8350"/>
</filter>
<filter id="filter4_f_468_8350" x="20.1952" y="16.5433" width="33.8852" height="35.5647" filterUnits="userSpaceOnUse" color-interpolation-filters="sRGB">
<feFlood flood-opacity="0" result="BackgroundImageFix"/>
<feBlend mode="normal" in="SourceGraphic" in2="BackgroundImageFix" result="shape"/>
<feGaussianBlur stdDeviation="1.54352" result="effect1_foregroundBlur_468_8350"/>
</filter>
<filter id="filter5_f_468_8350" x="-0.219041" y="14.3278" width="32.8856" height="34.6915" filterUnits="userSpaceOnUse" color-interpolation-filters="sRGB">
<feFlood flood-opacity="0" result="BackgroundImageFix"/>
<feBlend mode="normal" in="SourceGraphic" in2="BackgroundImageFix" result="shape"/>
<feGaussianBlur stdDeviation="0.735009" result="effect1_foregroundBlur_468_8350"/>
</filter>
<filter id="filter6_f_468_8350" x="0.785526" y="16.756" width="29.2148" height="30.6113" filterUnits="userSpaceOnUse" color-interpolation-filters="sRGB">
<feFlood flood-opacity="0" result="BackgroundImageFix"/>
<feBlend mode="normal" in="SourceGraphic" in2="BackgroundImageFix" result="shape"/>
<feGaussianBlur stdDeviation="1.54352" result="effect1_foregroundBlur_468_8350"/>
</filter>
<filter id="filter7_f_468_8350" x="8.50712" y="7.20267" width="42.9579" height="43.8644" filterUnits="userSpaceOnUse" color-interpolation-filters="sRGB">
<feFlood flood-opacity="0" result="BackgroundImageFix"/>
<feBlend mode="normal" in="SourceGraphic" in2="BackgroundImageFix" result="shape"/>
<feGaussianBlur stdDeviation="1.76402" result="effect1_foregroundBlur_468_8350"/>
</filter>
<filter id="filter8_f_468_8350" x="8.5484" y="8.6585" width="35.6947" height="38.4144" filterUnits="userSpaceOnUse" color-interpolation-filters="sRGB">
<feFlood flood-opacity="0" result="BackgroundImageFix"/>
<feBlend mode="normal" in="SourceGraphic" in2="BackgroundImageFix" result="shape"/>
<feGaussianBlur stdDeviation="2.94004" result="effect1_foregroundBlur_468_8350"/>
</filter>
<radialGradient id="paint0_radial_468_8350" cx="0" cy="0" r="1" gradientUnits="userSpaceOnUse" gradientTransform="translate(27.2425 28.129) rotate(-54.5869) scale(9.97694 9.8013)">
<stop stop-color="#051961"/>
<stop offset="1" stop-color="#1F1F1F"/>
</radialGradient>
<linearGradient id="paint1_linear_468_8350" x1="28.7893" y1="15.8078" x2="39.2202" y2="32.404" gradientUnits="userSpaceOnUse">
<stop stop-color="#9E58EE"/>
<stop offset="1" stop-color="#5A3288" stop-opacity="0"/>
</linearGradient>
<linearGradient id="paint2_linear_468_8350" x1="32.7921" y1="32.551" x2="38.9813" y2="39.2376" gradientUnits="userSpaceOnUse">
<stop stop-color="#436AF5"/>
<stop offset="1" stop-color="#273E8F" stop-opacity="0"/>
</linearGradient>
<linearGradient id="paint3_linear_468_8350" x1="9.43461" y1="28.3336" x2="30.9217" y2="11.6249" gradientUnits="userSpaceOnUse">
<stop stop-color="#436AF5"/>
<stop offset="0.24" stop-color="#9E58EE"/>
<stop offset="0.605" stop-color="#FF9999"/>
<stop offset="1" stop-color="#FFEA70"/>
</linearGradient>
<linearGradient id="paint4_linear_468_8350" x1="27.9703" y1="0.334503" x2="27.3036" y2="11.7199" gradientUnits="userSpaceOnUse">
<stop stop-color="#436AF5"/>
<stop offset="1" stop-color="#273E8F" stop-opacity="0"/>
</linearGradient>
<linearGradient id="paint5_linear_468_8350" x1="39.3108" y1="22.1188" x2="38.509" y2="35.812" gradientUnits="userSpaceOnUse">
<stop stop-color="#FF9999"/>
<stop offset="1" stop-color="#273E8F" stop-opacity="0"/>
</linearGradient>
<linearGradient id="paint6_linear_468_8350" x1="21.8978" y1="16.355" x2="29.3099" y2="33.5576" gradientUnits="userSpaceOnUse">
<stop stop-color="white"/>
<stop offset="1" stop-color="white" stop-opacity="0"/>
</linearGradient>
<linearGradient id="paint7_linear_468_8350" x1="28.1911" y1="41.193" x2="11.4349" y2="19.9255" gradientUnits="userSpaceOnUse">
<stop stop-color="#FF9999"/>
<stop offset="1" stop-color="#273E8F" stop-opacity="0"/>
</linearGradient>
<linearGradient id="paint8_linear_468_8350" x1="28.3418" y1="12.4816" x2="13.5758" y2="83.2677" gradientUnits="userSpaceOnUse">
<stop stop-color="#FF9999"/>
<stop offset="0.385084" stop-color="#436AF5"/>
<stop offset="1" stop-color="#99FFFF"/>
</linearGradient>
<linearGradient id="paint9_linear_468_8350" x1="22.8056" y1="15.1732" x2="29.3197" y2="25.6314" gradientUnits="userSpaceOnUse">
<stop stop-color="#FF9999"/>
<stop offset="0.25" stop-color="#FFEA70"/>
<stop offset="0.5" stop-color="white" stop-opacity="0.5"/>
<stop offset="1" stop-color="white" stop-opacity="0"/>
</linearGradient>
<clipPath id="clip0_468_8350">
<path d="M0 8C0 3.58172 3.58172 0 8 0H253.333C257.752 0 261.333 3.58172 261.333 8V44C261.333 48.4183 257.752 52 253.333 52H8C3.58172 52 0 48.4183 0 44V8Z" fill="white"/>
</clipPath>
<clipPath id="clip1_468_8350">
<rect width="32" height="32" fill="white" transform="translate(12 12)"/>
</clipPath>
</defs>
</svg>
