<svg width="344" height="57" viewBox="0 0 344 57" fill="none" xmlns="http://www.w3.org/2000/svg">
<g clip-path="url(#clip0_468_8396)">
<rect width="344" height="57" rx="8" fill="url(#paint0_linear_468_8396)"/>
<g opacity="0.4" filter="url(#filter0_f_468_8396)">
<ellipse cx="21.3989" cy="11.2176" rx="38.4301" ry="37.8069" fill="url(#paint1_radial_468_8396)"/>
</g>
<g filter="url(#filter1_f_468_8396)">
<circle cx="-39.3872" cy="55.7232" r="34.691" fill="#B57EDC"/>
</g>
<g filter="url(#filter2_f_468_8396)">
<circle cx="-23.7812" cy="-23.7148" r="39.4688" fill="#FFF6C2"/>
</g>
<path d="M61.84 22.5V13.86H65.236C65.784 13.86 66.244 13.972 66.616 14.196C66.988 14.42 67.268 14.71 67.456 15.066C67.644 15.418 67.738 15.79 67.738 16.182C67.738 16.658 67.62 17.066 67.384 17.406C67.152 17.746 66.838 17.978 66.442 18.102L66.43 17.808C66.982 17.944 67.406 18.21 67.702 18.606C67.998 18.998 68.146 19.456 68.146 19.98C68.146 20.488 68.044 20.93 67.84 21.306C67.64 21.682 67.346 21.976 66.958 22.188C66.574 22.396 66.108 22.5 65.56 22.5H61.84ZM63.112 21.306H65.368C65.652 21.306 65.906 21.252 66.13 21.144C66.358 21.036 66.536 20.882 66.664 20.682C66.796 20.478 66.862 20.236 66.862 19.956C66.862 19.696 66.804 19.462 66.688 19.254C66.576 19.042 66.412 18.876 66.196 18.756C65.984 18.632 65.734 18.57 65.446 18.57H63.112V21.306ZM63.112 17.388H65.218C65.45 17.388 65.658 17.342 65.842 17.25C66.03 17.154 66.178 17.018 66.286 16.842C66.398 16.662 66.454 16.446 66.454 16.194C66.454 15.858 66.342 15.582 66.118 15.366C65.894 15.15 65.594 15.042 65.218 15.042H63.112V17.388ZM71.782 22.674C71.334 22.674 70.958 22.602 70.654 22.458C70.35 22.314 70.102 22.126 69.91 21.894C69.722 21.658 69.578 21.402 69.478 21.126C69.378 20.85 69.31 20.58 69.274 20.316C69.238 20.052 69.22 19.82 69.22 19.62V16.02H70.492V19.206C70.492 19.458 70.512 19.718 70.552 19.986C70.596 20.25 70.676 20.496 70.792 20.724C70.912 20.952 71.078 21.136 71.29 21.276C71.506 21.416 71.786 21.486 72.13 21.486C72.354 21.486 72.566 21.45 72.766 21.378C72.966 21.302 73.14 21.182 73.288 21.018C73.44 20.854 73.558 20.638 73.642 20.37C73.73 20.102 73.774 19.776 73.774 19.392L74.554 19.686C74.554 20.274 74.444 20.794 74.224 21.246C74.004 21.694 73.688 22.044 73.276 22.296C72.864 22.548 72.366 22.674 71.782 22.674ZM73.924 22.5V20.628H73.774V16.02H75.04V22.5H73.924ZM76.8428 14.958V13.74H78.0968V14.958H76.8428ZM76.8428 22.5V16.02H78.0968V22.5H76.8428ZM80.0186 22.5V13.68H81.2726V22.5H80.0186ZM85.6484 22.68C85.0444 22.68 84.5224 22.53 84.0824 22.23C83.6464 21.93 83.3084 21.522 83.0684 21.006C82.8324 20.486 82.7144 19.902 82.7144 19.254C82.7144 18.602 82.8344 18.02 83.0744 17.508C83.3144 16.992 83.6544 16.586 84.0944 16.29C84.5384 15.99 85.0644 15.84 85.6724 15.84C86.2844 15.84 86.7984 15.99 87.2144 16.29C87.6344 16.586 87.9504 16.992 88.1624 17.508C88.3784 18.024 88.4864 18.606 88.4864 19.254C88.4864 19.902 88.3784 20.484 88.1624 21C87.9464 21.516 87.6284 21.926 87.2084 22.23C86.7884 22.53 86.2684 22.68 85.6484 22.68ZM85.8224 21.546C86.2344 21.546 86.5704 21.448 86.8304 21.252C87.0904 21.056 87.2804 20.786 87.4004 20.442C87.5204 20.098 87.5804 19.702 87.5804 19.254C87.5804 18.806 87.5184 18.41 87.3944 18.066C87.2744 17.722 87.0864 17.454 86.8304 17.262C86.5784 17.07 86.2564 16.974 85.8644 16.974C85.4484 16.974 85.1064 17.076 84.8384 17.28C84.5704 17.484 84.3704 17.758 84.2384 18.102C84.1104 18.446 84.0464 18.83 84.0464 19.254C84.0464 19.682 84.1104 20.07 84.2384 20.418C84.3704 20.762 84.5664 21.036 84.8264 21.24C85.0904 21.444 85.4224 21.546 85.8224 21.546ZM87.5804 22.5V17.838H87.4364V13.86H88.6964V22.5H87.5804ZM94.1575 22.5L92.1775 16.014L93.4195 16.02L94.7755 20.466L96.1435 16.02H97.2235L98.5915 20.466L99.9475 16.02H101.184L99.2035 22.5H98.1955L96.6835 17.808L95.1655 22.5H94.1575ZM102.378 14.958V13.74H103.632V14.958H102.378ZM102.378 22.5V16.02H103.632V22.5H102.378ZM109.142 22.5C108.734 22.58 108.334 22.614 107.942 22.602C107.55 22.59 107.2 22.514 106.892 22.374C106.584 22.234 106.352 22.014 106.196 21.714C106.056 21.446 105.98 21.174 105.968 20.898C105.96 20.618 105.956 20.302 105.956 19.95V14.22H107.216V19.89C107.216 20.15 107.218 20.376 107.222 20.568C107.23 20.76 107.272 20.922 107.348 21.054C107.492 21.302 107.72 21.444 108.032 21.48C108.348 21.512 108.718 21.498 109.142 21.438V22.5ZM104.714 17.028V16.02H109.142V17.028H104.714ZM115.056 22.5V19.314C115.056 19.062 115.034 18.804 114.99 18.54C114.95 18.272 114.87 18.024 114.75 17.796C114.634 17.568 114.468 17.384 114.252 17.244C114.04 17.104 113.762 17.034 113.418 17.034C113.194 17.034 112.982 17.072 112.782 17.148C112.582 17.22 112.406 17.338 112.254 17.502C112.106 17.666 111.988 17.882 111.9 18.15C111.816 18.418 111.774 18.744 111.774 19.128L110.994 18.834C110.994 18.246 111.104 17.728 111.324 17.28C111.544 16.828 111.86 16.476 112.272 16.224C112.684 15.972 113.182 15.846 113.766 15.846C114.214 15.846 114.59 15.918 114.894 16.062C115.198 16.206 115.444 16.396 115.632 16.632C115.824 16.864 115.97 17.118 116.07 17.394C116.17 17.67 116.238 17.94 116.274 18.204C116.31 18.468 116.328 18.7 116.328 18.9V22.5H115.056ZM110.502 22.5V13.86H111.624V18.522H111.774V22.5H110.502ZM120.293 22.5V13.86H125.411V15.114H121.547V17.55H124.691V18.81H121.547V22.5H120.293ZM126.612 22.5V13.86H127.866V22.5H126.612ZM129.068 22.5L131.876 13.86H133.682L136.49 22.5H135.188L132.602 14.616H132.926L130.37 22.5H129.068ZM130.526 20.55V19.374H135.038V20.55H130.526Z" fill="white"/>
<path fill-rule="evenodd" clip-rule="evenodd" d="M149.313 22.6795L152.953 19.0688C153.249 18.7753 153.4 18.3876 153.4 18C153.4 17.6123 153.249 17.2246 152.953 16.9311L149.313 13.3204C149.151 13.1598 148.883 13.1598 148.722 13.3204C148.56 13.481 148.56 13.7468 148.722 13.9074L152.362 17.5182C152.63 17.784 152.63 18.2159 152.362 18.4818L148.722 22.0925C148.56 22.2531 148.56 22.5189 148.722 22.6795C148.883 22.8401 149.151 22.8401 149.313 22.6795Z" fill="#404040"/>
<path d="M64.9765 40.165C64.1882 40.165 63.5227 39.9908 62.98 39.6425C62.4373 39.2905 62.0267 38.8047 61.748 38.185C61.4693 37.5653 61.33 36.8503 61.33 36.04C61.33 35.2297 61.4693 34.5147 61.748 33.895C62.0267 33.2753 62.4373 32.7913 62.98 32.443C63.5227 32.091 64.1882 31.915 64.9765 31.915C65.8968 31.915 66.6485 32.1515 67.2315 32.6245C67.8145 33.0938 68.2142 33.7245 68.4305 34.5165L67.6055 34.731C67.4368 34.104 67.1343 33.6072 66.698 33.2405C66.2617 32.8738 65.6878 32.6905 64.9765 32.6905C64.3568 32.6905 63.8417 32.8317 63.431 33.114C63.0203 33.3963 62.7105 33.7905 62.5015 34.2965C62.2962 34.7988 62.1898 35.38 62.1825 36.04C62.1788 36.7 62.2797 37.2812 62.485 37.7835C62.694 38.2858 63.0057 38.68 63.42 38.966C63.838 39.2483 64.3568 39.3895 64.9765 39.3895C65.6878 39.3895 66.2617 39.2062 66.698 38.8395C67.1343 38.4692 67.4368 37.9723 67.6055 37.349L68.4305 37.5635C68.2142 38.3555 67.8145 38.988 67.2315 39.461C66.6485 39.9303 65.8968 40.165 64.9765 40.165ZM69.644 40V34.06H70.37V35.49L70.227 35.303C70.293 35.127 70.3792 34.9657 70.4855 34.819C70.5919 34.6687 70.7074 34.5458 70.832 34.4505C70.986 34.3148 71.1657 34.2122 71.371 34.1425C71.5764 34.0692 71.7835 34.027 71.9925 34.016C72.2015 34.0013 72.3922 34.016 72.5645 34.06V34.819C72.3482 34.764 72.1117 34.7512 71.855 34.7805C71.5984 34.8098 71.3619 34.9125 71.1455 35.0885C70.9475 35.2425 70.799 35.4277 70.7 35.644C70.601 35.8567 70.535 36.084 70.502 36.326C70.469 36.5643 70.4525 36.8008 70.4525 37.0355V40H69.644ZM76.014 40.165C75.4346 40.165 74.9323 40.0367 74.507 39.78C74.0853 39.5233 73.7571 39.1622 73.5225 38.6965C73.2878 38.2308 73.1705 37.6845 73.1705 37.0575C73.1705 36.4085 73.286 35.8475 73.517 35.3745C73.748 34.9015 74.0725 34.5367 74.4905 34.28C74.9121 34.0233 75.409 33.895 75.981 33.895C76.5676 33.895 77.0681 34.0307 77.4825 34.302C77.8968 34.5697 78.2103 34.9547 78.423 35.457C78.6356 35.9593 78.7328 36.5588 78.7145 37.2555H77.8895V36.9695C77.8748 36.1995 77.708 35.6183 77.389 35.226C77.0736 34.8337 76.6116 34.6375 76.003 34.6375C75.365 34.6375 74.8755 34.8447 74.5345 35.259C74.1971 35.6733 74.0285 36.2637 74.0285 37.03C74.0285 37.778 74.1971 38.3592 74.5345 38.7735C74.8755 39.1842 75.3576 39.3895 75.981 39.3895C76.4063 39.3895 76.7766 39.2923 77.092 39.098C77.411 38.9 77.6621 38.6158 77.8455 38.2455L78.599 38.537C78.3643 39.054 78.0178 39.4555 77.5595 39.7415C77.1048 40.0238 76.5896 40.165 76.014 40.165ZM73.7425 37.2555V36.579H78.28V37.2555H73.7425ZM81.5271 40.165C81.0798 40.165 80.704 40.0843 80.3996 39.923C80.099 39.7617 79.8735 39.5472 79.7231 39.2795C79.5728 39.0118 79.4976 38.7203 79.4976 38.405C79.4976 38.0823 79.5618 37.8073 79.6901 37.58C79.8221 37.349 80 37.1602 80.2236 37.0135C80.451 36.8668 80.7131 36.755 81.0101 36.678C81.3108 36.6047 81.6426 36.5405 82.0056 36.4855C82.3723 36.4268 82.7298 36.3773 83.0781 36.337C83.4301 36.293 83.7381 36.2508 84.0021 36.2105L83.7161 36.3865C83.7271 35.7998 83.6135 35.3653 83.3751 35.083C83.1368 34.8007 82.7225 34.6595 82.1321 34.6595C81.7251 34.6595 81.3805 34.7512 81.0981 34.9345C80.8195 35.1178 80.6233 35.4075 80.5096 35.8035L79.7231 35.5725C79.8588 35.0408 80.132 34.6283 80.5426 34.335C80.9533 34.0417 81.4868 33.895 82.1431 33.895C82.6858 33.895 83.146 33.9977 83.5236 34.203C83.905 34.4047 84.1745 34.698 84.3321 35.083C84.4055 35.2553 84.4531 35.4478 84.4751 35.6605C84.4971 35.8732 84.5081 36.0895 84.5081 36.3095V40H83.7876V38.5095L83.9966 38.5975C83.795 39.1072 83.4815 39.4958 83.0561 39.7635C82.6308 40.0312 82.1211 40.165 81.5271 40.165ZM81.6206 39.4665C81.9983 39.4665 82.3283 39.3987 82.6106 39.263C82.893 39.1273 83.1203 38.9422 83.2926 38.7075C83.465 38.4692 83.5768 38.2015 83.6281 37.9045C83.6721 37.7138 83.696 37.5048 83.6996 37.2775C83.7033 37.0465 83.7051 36.8742 83.7051 36.7605L84.0131 36.92C83.7381 36.9567 83.4393 36.9933 83.1166 37.03C82.7976 37.0667 82.4823 37.1088 82.1706 37.1565C81.8626 37.2042 81.584 37.261 81.3346 37.327C81.166 37.3747 81.0028 37.4425 80.8451 37.5305C80.6875 37.6148 80.5573 37.7285 80.4546 37.8715C80.3556 38.0145 80.3061 38.1923 80.3061 38.405C80.3061 38.5773 80.3483 38.7442 80.4326 38.9055C80.5206 39.0668 80.66 39.2007 80.8506 39.307C81.045 39.4133 81.3016 39.4665 81.6206 39.4665ZM89.1739 40C88.8403 40.0697 88.5103 40.0972 88.1839 40.0825C87.8613 40.0678 87.5716 39.9982 87.3149 39.8735C87.0619 39.7488 86.8694 39.5545 86.7374 39.2905C86.6311 39.0705 86.5724 38.8487 86.5614 38.625C86.5541 38.3977 86.5504 38.1392 86.5504 37.8495V32.41H87.3534V37.8165C87.3534 38.0658 87.3553 38.2748 87.3589 38.4435C87.3663 38.6085 87.4048 38.7552 87.4744 38.8835C87.6064 39.1292 87.8154 39.2758 88.1014 39.3235C88.3911 39.3712 88.7486 39.3602 89.1739 39.2905V40ZM85.2799 34.753V34.06H89.1739V34.753H85.2799ZM92.6429 40.165C92.0635 40.165 91.5612 40.0367 91.1359 39.78C90.7142 39.5233 90.386 39.1622 90.1514 38.6965C89.9167 38.2308 89.7994 37.6845 89.7994 37.0575C89.7994 36.4085 89.9149 35.8475 90.1459 35.3745C90.3769 34.9015 90.7014 34.5367 91.1194 34.28C91.541 34.0233 92.0379 33.895 92.6099 33.895C93.1965 33.895 93.697 34.0307 94.1114 34.302C94.5257 34.5697 94.8392 34.9547 95.0519 35.457C95.2645 35.9593 95.3617 36.5588 95.3434 37.2555H94.5184V36.9695C94.5037 36.1995 94.3369 35.6183 94.0179 35.226C93.7025 34.8337 93.2405 34.6375 92.6319 34.6375C91.9939 34.6375 91.5044 34.8447 91.1634 35.259C90.826 35.6733 90.6574 36.2637 90.6574 37.03C90.6574 37.778 90.826 38.3592 91.1634 38.7735C91.5044 39.1842 91.9865 39.3895 92.6099 39.3895C93.0352 39.3895 93.4055 39.2923 93.7209 39.098C94.0399 38.9 94.291 38.6158 94.4744 38.2455L95.2279 38.537C94.9932 39.054 94.6467 39.4555 94.1884 39.7415C93.7337 40.0238 93.2185 40.165 92.6429 40.165ZM90.3714 37.2555V36.579H94.9089V37.2555H90.3714ZM99.6131 42.64L100.763 39.5215L100.779 40.4455L98.1776 34.06H99.0356L101.17 39.4005H100.818L102.787 34.06H103.612L100.422 42.64H99.6131ZM106.833 40.165C106.242 40.165 105.738 40.0312 105.32 39.7635C104.902 39.4958 104.581 39.1255 104.358 38.6525C104.134 38.1795 104.022 37.6368 104.022 37.0245C104.022 36.4012 104.136 35.8548 104.363 35.3855C104.59 34.9162 104.913 34.5513 105.331 34.291C105.753 34.027 106.253 33.895 106.833 33.895C107.427 33.895 107.933 34.0288 108.351 34.2965C108.772 34.5605 109.093 34.929 109.313 35.402C109.537 35.8713 109.649 36.4122 109.649 37.0245C109.649 37.6478 109.537 38.196 109.313 38.669C109.089 39.1383 108.767 39.505 108.345 39.769C107.923 40.033 107.419 40.165 106.833 40.165ZM106.833 39.3895C107.493 39.3895 107.984 39.1713 108.307 38.735C108.629 38.295 108.791 37.7248 108.791 37.0245C108.791 36.3058 108.627 35.7338 108.301 35.3085C107.978 34.8832 107.489 34.6705 106.833 34.6705C106.389 34.6705 106.022 34.7713 105.733 34.973C105.447 35.171 105.232 35.4478 105.089 35.8035C104.95 36.1555 104.88 36.5625 104.88 37.0245C104.88 37.7395 105.045 38.3133 105.375 38.746C105.705 39.175 106.191 39.3895 106.833 39.3895ZM113.133 40.1485C112.778 40.1485 112.466 40.0935 112.198 39.9835C111.934 39.8735 111.709 39.725 111.522 39.538C111.338 39.351 111.19 39.1383 111.076 38.9C110.963 38.658 110.88 38.4032 110.829 38.1355C110.777 37.8642 110.752 37.5947 110.752 37.327V34.06H111.566V37.0905C111.566 37.4168 111.597 37.7193 111.659 37.998C111.722 38.2767 111.821 38.5205 111.956 38.7295C112.096 38.9348 112.273 39.0943 112.49 39.208C112.71 39.3217 112.976 39.3785 113.287 39.3785C113.573 39.3785 113.824 39.329 114.041 39.23C114.261 39.131 114.444 38.9898 114.591 38.8065C114.741 38.6195 114.855 38.394 114.932 38.13C115.009 37.8623 115.047 37.5617 115.047 37.228L115.619 37.3545C115.619 37.9632 115.513 38.4747 115.3 38.889C115.088 39.3033 114.794 39.6168 114.42 39.8295C114.046 40.0422 113.617 40.1485 113.133 40.1485ZM115.13 40V38.537H115.047V34.06H115.856V40H115.13ZM117.393 40V34.06H118.119V35.49L117.976 35.303C118.042 35.127 118.128 34.9657 118.235 34.819C118.341 34.6687 118.456 34.5458 118.581 34.4505C118.735 34.3148 118.915 34.2122 119.12 34.1425C119.325 34.0692 119.533 34.027 119.742 34.016C119.951 34.0013 120.141 34.016 120.314 34.06V34.819C120.097 34.764 119.861 34.7512 119.604 34.7805C119.347 34.8098 119.111 34.9125 118.895 35.0885C118.697 35.2425 118.548 35.4277 118.449 35.644C118.35 35.8567 118.284 36.084 118.251 36.326C118.218 36.5643 118.202 36.8008 118.202 37.0355V40H117.393ZM126.04 40.165C125.449 40.165 124.945 40.0312 124.527 39.7635C124.109 39.4958 123.788 39.1255 123.565 38.6525C123.341 38.1795 123.229 37.6368 123.229 37.0245C123.229 36.4012 123.343 35.8548 123.57 35.3855C123.797 34.9162 124.12 34.5513 124.538 34.291C124.96 34.027 125.46 33.895 126.04 33.895C126.634 33.895 127.14 34.0288 127.558 34.2965C127.979 34.5605 128.3 34.929 128.52 35.402C128.744 35.8713 128.856 36.4122 128.856 37.0245C128.856 37.6478 128.744 38.196 128.52 38.669C128.296 39.1383 127.974 39.505 127.552 39.769C127.13 40.033 126.626 40.165 126.04 40.165ZM126.04 39.3895C126.7 39.3895 127.191 39.1713 127.514 38.735C127.836 38.295 127.998 37.7248 127.998 37.0245C127.998 36.3058 127.834 35.7338 127.508 35.3085C127.185 34.8832 126.696 34.6705 126.04 34.6705C125.596 34.6705 125.229 34.7713 124.94 34.973C124.654 35.171 124.439 35.4478 124.296 35.8035C124.157 36.1555 124.087 36.5625 124.087 37.0245C124.087 37.7395 124.252 38.3133 124.582 38.746C124.912 39.175 125.398 39.3895 126.04 39.3895ZM131.119 40L129.304 34.0545L130.112 34.06L131.52 38.6745L132.934 34.06H133.671L135.084 38.6745L136.503 34.06H137.306L135.491 40H134.787L133.302 35.27L131.823 40H131.119ZM142.587 40V36.9695C142.587 36.6395 142.556 36.337 142.494 36.062C142.432 35.7833 142.331 35.5413 142.191 35.336C142.056 35.127 141.878 34.9657 141.658 34.852C141.442 34.7383 141.178 34.6815 140.866 34.6815C140.58 34.6815 140.327 34.731 140.107 34.83C139.891 34.929 139.707 35.072 139.557 35.259C139.41 35.4423 139.298 35.666 139.221 35.93C139.144 36.194 139.106 36.4947 139.106 36.832L138.534 36.7055C138.534 36.0968 138.64 35.5853 138.853 35.171C139.066 34.7567 139.359 34.4432 139.733 34.2305C140.107 34.0178 140.536 33.9115 141.02 33.9115C141.376 33.9115 141.685 33.9665 141.949 34.0765C142.217 34.1865 142.443 34.335 142.626 34.522C142.813 34.709 142.963 34.9235 143.077 35.1655C143.191 35.4038 143.273 35.6587 143.324 35.93C143.376 36.1977 143.401 36.4653 143.401 36.733V40H142.587ZM138.292 40V34.06H139.023V35.523H139.106V40H138.292ZM149.247 40.1595C148.551 40.1595 147.977 40.0092 147.526 39.7085C147.078 39.4078 146.803 38.9898 146.701 38.4545L147.526 38.317C147.614 38.6543 147.814 38.9238 148.125 39.1255C148.441 39.3235 148.829 39.4225 149.291 39.4225C149.742 39.4225 150.098 39.329 150.358 39.142C150.619 38.9513 150.749 38.6928 150.749 38.3665C150.749 38.1832 150.707 38.0347 150.622 37.921C150.542 37.8037 150.375 37.6955 150.122 37.5965C149.869 37.4975 149.491 37.3802 148.989 37.2445C148.45 37.0978 148.028 36.9512 147.724 36.8045C147.419 36.6578 147.203 36.4892 147.075 36.2985C146.946 36.1042 146.882 35.8677 146.882 35.589C146.882 35.2517 146.978 34.9565 147.168 34.7035C147.359 34.4468 147.623 34.2488 147.96 34.1095C148.298 33.9665 148.69 33.895 149.137 33.895C149.585 33.895 149.984 33.9683 150.336 34.115C150.692 34.258 150.978 34.4597 151.194 34.72C151.411 34.9803 151.539 35.2828 151.579 35.6275L150.754 35.776C150.699 35.4277 150.525 35.1527 150.232 34.951C149.942 34.7457 149.574 34.6393 149.126 34.632C148.705 34.621 148.362 34.7017 148.098 34.874C147.834 35.0427 147.702 35.2682 147.702 35.5505C147.702 35.7082 147.749 35.8438 147.845 35.9575C147.94 36.0675 148.112 36.172 148.362 36.271C148.615 36.37 148.974 36.4782 149.44 36.5955C149.986 36.7348 150.415 36.8815 150.727 37.0355C151.038 37.1895 151.26 37.371 151.392 37.58C151.524 37.789 151.59 38.0475 151.59 38.3555C151.59 38.9165 151.381 39.3583 150.963 39.681C150.549 40 149.977 40.1595 149.247 40.1595ZM155.274 40.165C154.676 40.165 154.17 40.0312 153.756 39.7635C153.342 39.4958 153.026 39.1273 152.81 38.658C152.597 38.185 152.487 37.6423 152.48 37.03C152.487 36.4067 152.601 35.8603 152.821 35.391C153.041 34.918 153.358 34.5513 153.773 34.291C154.187 34.027 154.689 33.895 155.28 33.895C155.881 33.895 156.403 34.0417 156.847 34.335C157.294 34.6283 157.601 35.0298 157.766 35.5395L156.974 35.7925C156.834 35.4368 156.612 35.1618 156.308 34.9675C156.007 34.7695 155.663 34.6705 155.274 34.6705C154.838 34.6705 154.477 34.7713 154.191 34.973C153.905 35.171 153.692 35.4478 153.553 35.8035C153.413 36.1592 153.342 36.568 153.338 37.03C153.345 37.7413 153.51 38.3133 153.833 38.746C154.156 39.175 154.636 39.3895 155.274 39.3895C155.677 39.3895 156.02 39.2978 156.303 39.1145C156.589 38.9275 156.805 38.6562 156.952 38.3005L157.766 38.5425C157.546 39.0705 157.223 39.4738 156.798 39.7525C156.372 40.0275 155.864 40.165 155.274 40.165ZM158.901 40V34.06H159.627V35.49L159.484 35.303C159.55 35.127 159.636 34.9657 159.742 34.819C159.849 34.6687 159.964 34.5458 160.089 34.4505C160.243 34.3148 160.423 34.2122 160.628 34.1425C160.833 34.0692 161.04 34.027 161.249 34.016C161.458 34.0013 161.649 34.016 161.821 34.06V34.819C161.605 34.764 161.369 34.7512 161.112 34.7805C160.855 34.8098 160.619 34.9125 160.402 35.0885C160.204 35.2425 160.056 35.4277 159.957 35.644C159.858 35.8567 159.792 36.084 159.759 36.326C159.726 36.5643 159.709 36.8008 159.709 37.0355V40H158.901ZM165.271 40.165C164.691 40.165 164.189 40.0367 163.764 39.78C163.342 39.5233 163.014 39.1622 162.779 38.6965C162.545 38.2308 162.427 37.6845 162.427 37.0575C162.427 36.4085 162.543 35.8475 162.774 35.3745C163.005 34.9015 163.329 34.5367 163.747 34.28C164.169 34.0233 164.666 33.895 165.238 33.895C165.824 33.895 166.325 34.0307 166.739 34.302C167.154 34.5697 167.467 34.9547 167.68 35.457C167.892 35.9593 167.99 36.5588 167.971 37.2555H167.146V36.9695C167.132 36.1995 166.965 35.6183 166.646 35.226C166.33 34.8337 165.868 34.6375 165.26 34.6375C164.622 34.6375 164.132 34.8447 163.791 35.259C163.454 35.6733 163.285 36.2637 163.285 37.03C163.285 37.778 163.454 38.3592 163.791 38.7735C164.132 39.1842 164.614 39.3895 165.238 39.3895C165.663 39.3895 166.033 39.2923 166.349 39.098C166.668 38.9 166.919 38.6158 167.102 38.2455L167.856 38.537C167.621 39.054 167.275 39.4555 166.816 39.7415C166.362 40.0238 165.846 40.165 165.271 40.165ZM162.999 37.2555V36.579H167.537V37.2555H162.999ZM171.705 40.165C171.126 40.165 170.624 40.0367 170.198 39.78C169.777 39.5233 169.449 39.1622 169.214 38.6965C168.979 38.2308 168.862 37.6845 168.862 37.0575C168.862 36.4085 168.977 35.8475 169.208 35.3745C169.439 34.9015 169.764 34.5367 170.182 34.28C170.604 34.0233 171.1 33.895 171.672 33.895C172.259 33.895 172.76 34.0307 173.174 34.302C173.588 34.5697 173.902 34.9547 174.114 35.457C174.327 35.9593 174.424 36.5588 174.406 37.2555H173.581V36.9695C173.566 36.1995 173.399 35.6183 173.08 35.226C172.765 34.8337 172.303 34.6375 171.694 34.6375C171.056 34.6375 170.567 34.8447 170.226 35.259C169.889 35.6733 169.72 36.2637 169.72 37.03C169.72 37.778 169.889 38.3592 170.226 38.7735C170.567 39.1842 171.049 39.3895 171.672 39.3895C172.098 39.3895 172.468 39.2923 172.783 39.098C173.102 38.9 173.354 38.6158 173.537 38.2455L174.29 38.537C174.056 39.054 173.709 39.4555 173.251 39.7415C172.796 40.0238 172.281 40.165 171.705 40.165ZM169.434 37.2555V36.579H173.971V37.2555H169.434ZM179.755 40V36.9695C179.755 36.6395 179.724 36.337 179.662 36.062C179.599 35.7833 179.499 35.5413 179.359 35.336C179.224 35.127 179.046 34.9657 178.826 34.852C178.609 34.7383 178.345 34.6815 178.034 34.6815C177.748 34.6815 177.495 34.731 177.275 34.83C177.058 34.929 176.875 35.072 176.725 35.259C176.578 35.4423 176.466 35.666 176.389 35.93C176.312 36.194 176.274 36.4947 176.274 36.832L175.702 36.7055C175.702 36.0968 175.808 35.5853 176.021 35.171C176.233 34.7567 176.527 34.4432 176.901 34.2305C177.275 34.0178 177.704 33.9115 178.188 33.9115C178.543 33.9115 178.853 33.9665 179.117 34.0765C179.385 34.1865 179.61 34.335 179.794 34.522C179.981 34.709 180.131 34.9235 180.245 35.1655C180.358 35.4038 180.441 35.6587 180.492 35.93C180.544 36.1977 180.569 36.4653 180.569 36.733V40H179.755ZM175.46 40V34.06H176.191V35.523H176.274V40H175.46ZM184.478 40.165C183.899 40.165 183.396 40.0367 182.971 39.78C182.549 39.5233 182.221 39.1622 181.986 38.6965C181.752 38.2308 181.634 37.6845 181.634 37.0575C181.634 36.4085 181.75 35.8475 181.981 35.3745C182.212 34.9015 182.536 34.5367 182.954 34.28C183.376 34.0233 183.873 33.895 184.445 33.895C185.032 33.895 185.532 34.0307 185.946 34.302C186.361 34.5697 186.674 34.9547 186.887 35.457C187.1 35.9593 187.197 36.5588 187.178 37.2555H186.353V36.9695C186.339 36.1995 186.172 35.6183 185.853 35.226C185.538 34.8337 185.076 34.6375 184.467 34.6375C183.829 34.6375 183.339 34.8447 182.998 35.259C182.661 35.6733 182.492 36.2637 182.492 37.03C182.492 37.778 182.661 38.3592 182.998 38.7735C183.339 39.1842 183.822 39.3895 184.445 39.3895C184.87 39.3895 185.241 39.2923 185.556 39.098C185.875 38.9 186.126 38.6158 186.309 38.2455L187.063 38.537C186.828 39.054 186.482 39.4555 186.023 39.7415C185.569 40.0238 185.054 40.165 184.478 40.165ZM182.206 37.2555V36.579H186.744V37.2555H182.206ZM188.399 40V34.06H189.125V35.49L188.982 35.303C189.048 35.127 189.134 34.9657 189.24 34.819C189.347 34.6687 189.462 34.5458 189.587 34.4505C189.741 34.3148 189.921 34.2122 190.126 34.1425C190.331 34.0692 190.538 34.027 190.747 34.016C190.956 34.0013 191.147 34.016 191.319 34.06V34.819C191.103 34.764 190.867 34.7512 190.61 34.7805C190.353 34.8098 190.117 34.9125 189.9 35.0885C189.702 35.2425 189.554 35.4277 189.455 35.644C189.356 35.8567 189.29 36.084 189.257 36.326C189.224 36.5643 189.207 36.8008 189.207 37.0355V40H188.399ZM194.364 40.1595C193.668 40.1595 193.094 40.0092 192.643 39.7085C192.196 39.4078 191.921 38.9898 191.818 38.4545L192.643 38.317C192.731 38.6543 192.931 38.9238 193.242 39.1255C193.558 39.3235 193.946 39.4225 194.408 39.4225C194.859 39.4225 195.215 39.329 195.475 39.142C195.736 38.9513 195.866 38.6928 195.866 38.3665C195.866 38.1832 195.824 38.0347 195.739 37.921C195.659 37.8037 195.492 37.6955 195.239 37.5965C194.986 37.4975 194.608 37.3802 194.106 37.2445C193.567 37.0978 193.145 36.9512 192.841 36.8045C192.537 36.6578 192.32 36.4892 192.192 36.2985C192.064 36.1042 191.999 35.8677 191.999 35.589C191.999 35.2517 192.095 34.9565 192.285 34.7035C192.476 34.4468 192.74 34.2488 193.077 34.1095C193.415 33.9665 193.807 33.895 194.254 33.895C194.702 33.895 195.101 33.9683 195.453 34.115C195.809 34.258 196.095 34.4597 196.311 34.72C196.528 34.9803 196.656 35.2828 196.696 35.6275L195.871 35.776C195.816 35.4277 195.642 35.1527 195.349 34.951C195.059 34.7457 194.691 34.6393 194.243 34.632C193.822 34.621 193.479 34.7017 193.215 34.874C192.951 35.0427 192.819 35.2682 192.819 35.5505C192.819 35.7082 192.867 35.8438 192.962 35.9575C193.057 36.0675 193.23 36.172 193.479 36.271C193.732 36.37 194.091 36.4782 194.557 36.5955C195.103 36.7348 195.532 36.8815 195.844 37.0355C196.156 37.1895 196.377 37.371 196.509 37.58C196.641 37.789 196.707 38.0475 196.707 38.3555C196.707 38.9165 196.498 39.3583 196.08 39.681C195.666 40 195.094 40.1595 194.364 40.1595ZM200.239 32.9325V32.025H201.048V32.9325H200.239ZM200.239 40V34.06H201.048V40H200.239ZM206.987 40V36.9695C206.987 36.6395 206.956 36.337 206.893 36.062C206.831 35.7833 206.73 35.5413 206.591 35.336C206.455 35.127 206.277 34.9657 206.057 34.852C205.841 34.7383 205.577 34.6815 205.265 34.6815C204.979 34.6815 204.726 34.731 204.506 34.83C204.29 34.929 204.107 35.072 203.956 35.259C203.81 35.4423 203.698 35.666 203.621 35.93C203.544 36.194 203.505 36.4947 203.505 36.832L202.933 36.7055C202.933 36.0968 203.04 35.5853 203.252 35.171C203.465 34.7567 203.758 34.4432 204.132 34.2305C204.506 34.0178 204.935 33.9115 205.419 33.9115C205.775 33.9115 206.085 33.9665 206.349 34.0765C206.616 34.1865 206.842 34.335 207.025 34.522C207.212 34.709 207.363 34.9235 207.476 35.1655C207.59 35.4038 207.672 35.6587 207.724 35.93C207.775 36.1977 207.801 36.4653 207.801 36.733V40H206.987ZM202.691 40V34.06H203.423V35.523H203.505V40H202.691ZM213.647 40.1595C212.95 40.1595 212.376 40.0092 211.925 39.7085C211.478 39.4078 211.203 38.9898 211.1 38.4545L211.925 38.317C212.013 38.6543 212.213 38.9238 212.525 39.1255C212.84 39.3235 213.229 39.4225 213.691 39.4225C214.142 39.4225 214.497 39.329 214.758 39.142C215.018 38.9513 215.148 38.6928 215.148 38.3665C215.148 38.1832 215.106 38.0347 215.022 37.921C214.941 37.8037 214.774 37.6955 214.521 37.5965C214.268 37.4975 213.89 37.3802 213.388 37.2445C212.849 37.0978 212.427 36.9512 212.123 36.8045C211.819 36.6578 211.602 36.4892 211.474 36.2985C211.346 36.1042 211.282 35.8677 211.282 35.589C211.282 35.2517 211.377 34.9565 211.568 34.7035C211.758 34.4468 212.022 34.2488 212.36 34.1095C212.697 33.9665 213.089 33.895 213.537 33.895C213.984 33.895 214.384 33.9683 214.736 34.115C215.091 34.258 215.377 34.4597 215.594 34.72C215.81 34.9803 215.938 35.2828 215.979 35.6275L215.154 35.776C215.099 35.4277 214.924 35.1527 214.631 34.951C214.341 34.7457 213.973 34.6393 213.526 34.632C213.104 34.621 212.761 34.7017 212.497 34.874C212.233 35.0427 212.101 35.2682 212.101 35.5505C212.101 35.7082 212.149 35.8438 212.244 35.9575C212.339 36.0675 212.512 36.172 212.761 36.271C213.014 36.37 213.373 36.4782 213.839 36.5955C214.385 36.7348 214.814 36.8815 215.126 37.0355C215.438 37.1895 215.66 37.371 215.792 37.58C215.924 37.789 215.99 38.0475 215.99 38.3555C215.99 38.9165 215.781 39.3583 215.363 39.681C214.948 40 214.376 40.1595 213.647 40.1595ZM219.723 40.165C219.144 40.165 218.641 40.0367 218.216 39.78C217.794 39.5233 217.466 39.1622 217.231 38.6965C216.997 38.2308 216.879 37.6845 216.879 37.0575C216.879 36.4085 216.995 35.8475 217.226 35.3745C217.457 34.9015 217.781 34.5367 218.199 34.28C218.621 34.0233 219.118 33.895 219.69 33.895C220.277 33.895 220.777 34.0307 221.191 34.302C221.606 34.5697 221.919 34.9547 222.132 35.457C222.345 35.9593 222.442 36.5588 222.423 37.2555H221.598V36.9695C221.584 36.1995 221.417 35.6183 221.098 35.226C220.783 34.8337 220.321 34.6375 219.712 34.6375C219.074 34.6375 218.584 34.8447 218.243 35.259C217.906 35.6733 217.737 36.2637 217.737 37.03C217.737 37.778 217.906 38.3592 218.243 38.7735C218.584 39.1842 219.067 39.3895 219.69 39.3895C220.115 39.3895 220.486 39.2923 220.801 39.098C221.12 38.9 221.371 38.6158 221.554 38.2455L222.308 38.537C222.073 39.054 221.727 39.4555 221.268 39.7415C220.814 40.0238 220.299 40.165 219.723 40.165ZM217.451 37.2555V36.579H221.989V37.2555H217.451ZM226.108 40.165C225.51 40.165 225.004 40.0312 224.59 39.7635C224.176 39.4958 223.86 39.1273 223.644 38.658C223.431 38.185 223.321 37.6423 223.314 37.03C223.321 36.4067 223.435 35.8603 223.655 35.391C223.875 34.918 224.192 34.5513 224.607 34.291C225.021 34.027 225.523 33.895 226.114 33.895C226.715 33.895 227.237 34.0417 227.681 34.335C228.128 34.6283 228.435 35.0298 228.6 35.5395L227.808 35.7925C227.668 35.4368 227.446 35.1618 227.142 34.9675C226.841 34.7695 226.497 34.6705 226.108 34.6705C225.672 34.6705 225.311 34.7713 225.025 34.973C224.739 35.171 224.526 35.4478 224.387 35.8035C224.247 36.1592 224.176 36.568 224.172 37.03C224.179 37.7413 224.344 38.3133 224.667 38.746C224.99 39.175 225.47 39.3895 226.108 39.3895C226.511 39.3895 226.854 39.2978 227.137 39.1145C227.423 38.9275 227.639 38.6562 227.786 38.3005L228.6 38.5425C228.38 39.0705 228.057 39.4738 227.632 39.7525C227.206 40.0275 226.698 40.165 226.108 40.165ZM232.054 40.165C231.464 40.165 230.96 40.0312 230.542 39.7635C230.124 39.4958 229.803 39.1255 229.579 38.6525C229.356 38.1795 229.244 37.6368 229.244 37.0245C229.244 36.4012 229.357 35.8548 229.585 35.3855C229.812 34.9162 230.135 34.5513 230.553 34.291C230.974 34.027 231.475 33.895 232.054 33.895C232.648 33.895 233.154 34.0288 233.572 34.2965C233.994 34.5605 234.315 34.929 234.535 35.402C234.758 35.8713 234.87 36.4122 234.87 37.0245C234.87 37.6478 234.758 38.196 234.535 38.669C234.311 39.1383 233.988 39.505 233.567 39.769C233.145 40.033 232.641 40.165 232.054 40.165ZM232.054 39.3895C232.714 39.3895 233.206 39.1713 233.528 38.735C233.851 38.295 234.012 37.7248 234.012 37.0245C234.012 36.3058 233.849 35.7338 233.523 35.3085C233.2 34.8832 232.711 34.6705 232.054 34.6705C231.611 34.6705 231.244 34.7713 230.954 34.973C230.668 35.171 230.454 35.4478 230.311 35.8035C230.171 36.1555 230.102 36.5625 230.102 37.0245C230.102 37.7395 230.267 38.3133 230.597 38.746C230.927 39.175 231.413 39.3895 232.054 39.3895ZM240.373 40V36.9695C240.373 36.6395 240.342 36.337 240.28 36.062C240.218 35.7833 240.117 35.5413 239.977 35.336C239.842 35.127 239.664 34.9657 239.444 34.852C239.228 34.7383 238.964 34.6815 238.652 34.6815C238.366 34.6815 238.113 34.731 237.893 34.83C237.677 34.929 237.493 35.072 237.343 35.259C237.196 35.4423 237.084 35.666 237.007 35.93C236.93 36.194 236.892 36.4947 236.892 36.832L236.32 36.7055C236.32 36.0968 236.426 35.5853 236.639 35.171C236.852 34.7567 237.145 34.4432 237.519 34.2305C237.893 34.0178 238.322 33.9115 238.806 33.9115C239.162 33.9115 239.471 33.9665 239.735 34.0765C240.003 34.1865 240.229 34.335 240.412 34.522C240.599 34.709 240.749 34.9235 240.863 35.1655C240.977 35.4038 241.059 35.6587 241.11 35.93C241.162 36.1977 241.187 36.4653 241.187 36.733V40H240.373ZM236.078 40V34.06H236.809V35.523H236.892V40H236.078ZM244.887 40.165C244.333 40.165 243.86 40.0275 243.468 39.7525C243.076 39.4738 242.775 39.098 242.566 38.625C242.357 38.152 242.253 37.6185 242.253 37.0245C242.253 36.4342 242.355 35.9025 242.561 35.4295C242.77 34.9565 243.068 34.5825 243.457 34.3075C243.846 34.0325 244.311 33.895 244.854 33.895C245.411 33.895 245.881 34.0307 246.262 34.302C246.643 34.5733 246.931 34.9455 247.126 35.4185C247.324 35.8878 247.423 36.4232 247.423 37.0245C247.423 37.6148 247.325 38.1483 247.131 38.625C246.937 39.098 246.651 39.4738 246.273 39.7525C245.895 40.0275 245.433 40.165 244.887 40.165ZM244.97 39.4115C245.391 39.4115 245.74 39.3088 246.015 39.1035C246.29 38.8982 246.495 38.6158 246.631 38.2565C246.766 37.8935 246.834 37.4828 246.834 37.0245C246.834 36.5588 246.766 36.1482 246.631 35.7925C246.495 35.4332 246.29 35.1527 246.015 34.951C245.743 34.7493 245.4 34.6485 244.986 34.6485C244.561 34.6485 244.209 34.753 243.93 34.962C243.651 35.171 243.444 35.4552 243.309 35.8145C243.177 36.1738 243.111 36.5772 243.111 37.0245C243.111 37.4755 243.178 37.8825 243.314 38.2455C243.453 38.6048 243.661 38.889 243.936 39.098C244.211 39.307 244.555 39.4115 244.97 39.4115ZM246.834 40V35.5285H246.746V32.08H247.56V40H246.834ZM251.32 40.1595C250.623 40.1595 250.049 40.0092 249.598 39.7085C249.151 39.4078 248.876 38.9898 248.773 38.4545L249.598 38.317C249.686 38.6543 249.886 38.9238 250.198 39.1255C250.513 39.3235 250.902 39.4225 251.364 39.4225C251.815 39.4225 252.17 39.329 252.431 39.142C252.691 38.9513 252.821 38.6928 252.821 38.3665C252.821 38.1832 252.779 38.0347 252.695 37.921C252.614 37.8037 252.447 37.6955 252.194 37.5965C251.941 37.4975 251.563 37.3802 251.061 37.2445C250.522 37.0978 250.1 36.9512 249.796 36.8045C249.492 36.6578 249.275 36.4892 249.147 36.2985C249.019 36.1042 248.955 35.8677 248.955 35.589C248.955 35.2517 249.05 34.9565 249.241 34.7035C249.431 34.4468 249.695 34.2488 250.033 34.1095C250.37 33.9665 250.762 33.895 251.21 33.895C251.657 33.895 252.057 33.9683 252.409 34.115C252.764 34.258 253.05 34.4597 253.267 34.72C253.483 34.9803 253.611 35.2828 253.652 35.6275L252.827 35.776C252.772 35.4277 252.597 35.1527 252.304 34.951C252.014 34.7457 251.646 34.6393 251.199 34.632C250.777 34.621 250.434 34.7017 250.17 34.874C249.906 35.0427 249.774 35.2682 249.774 35.5505C249.774 35.7082 249.822 35.8438 249.917 35.9575C250.012 36.0675 250.185 36.172 250.434 36.271C250.687 36.37 251.046 36.4782 251.512 36.5955C252.058 36.7348 252.487 36.8815 252.799 37.0355C253.111 37.1895 253.333 37.371 253.465 37.58C253.597 37.789 253.663 38.0475 253.663 38.3555C253.663 38.9165 253.454 39.3583 253.036 39.681C252.621 40 252.049 40.1595 251.32 40.1595Z" fill="#ADADAD"/>
<g opacity="0.35" filter="url(#filter3_f_468_8396)">
<circle cx="297.949" cy="72.3195" r="36.8005" fill="#BF5D4A"/>
</g>
<g opacity="0.35" filter="url(#filter4_f_468_8396)">
<circle cx="-20.8212" cy="63.5269" r="28.1788" fill="#AD9885"/>
</g>
<path opacity="0.4" fill-rule="evenodd" clip-rule="evenodd" d="M320 38C314.477 38 310 33.5228 310 28C310 22.4772 314.477 18 320 18C325.523 18 330 22.4772 330 28C330 33.5228 325.523 38 320 38Z" fill="white"/>
<path d="M318.21 32.0602C317.92 31.7702 317.92 31.2902 318.21 31.0002L321.21 28.0002L318.21 25.0002C317.92 24.7102 317.92 24.2302 318.21 23.9402C318.5 23.6502 318.98 23.6502 319.27 23.9402L322.8 27.4702C323.09 27.7602 323.09 28.2402 322.8 28.5302L319.27 32.0602C319.12 32.2102 318.93 32.2802 318.74 32.2802C318.55 32.2802 318.36 32.2102 318.21 32.0602Z" fill="white"/>
<g clip-path="url(#clip1_468_8396)">
<path d="M43.5274 35.6072C43.5274 34.0609 42.4655 33.3432 41.9345 33.3581L39.9114 36.1977C42.9907 36.1977 43.5274 35.6072 43.5274 35.6072Z" fill="#520052"/>
<mask id="mask0_468_8396" style="mask-type:alpha" maskUnits="userSpaceOnUse" x="12" y="13" width="32" height="32">
<path d="M12.0364 28.6095V28.6095C12.0364 37.2304 19.0577 44.219 27.719 44.219H27.719C36.3803 44.219 43.4016 37.2304 43.4016 28.6095V28.6095C43.4016 19.9886 36.3803 13 27.719 13H27.719C19.0577 13 12.0364 19.9886 12.0364 28.6095Z" fill="url(#paint2_radial_468_8396)"/>
</mask>
<g mask="url(#mask0_468_8396)">
<path d="M12.0364 28.6097V28.6098C12.0364 37.2306 19.0577 44.2192 27.719 44.2192H27.719C36.3803 44.2192 43.4016 37.2306 43.4016 28.6098V28.6097C43.4016 19.9888 36.3803 13.0002 27.719 13.0002H27.719C19.0577 13.0002 12.0364 19.9888 12.0364 28.6097Z" fill="#051961"/>
<g filter="url(#filter5_f_468_8396)">
<path d="M16.0708 41.548C22.5667 47.3824 32.1566 47.3426 37.4903 41.4593C42.824 35.576 41.8818 26.077 35.3859 20.2427C28.89 14.4084 19.3002 14.4481 13.9665 20.3314C8.63275 26.2147 9.5749 35.7137 16.0708 41.548Z" fill="url(#paint3_linear_468_8396)"/>
</g>
<g filter="url(#filter6_f_468_8396)">
<path d="M57.4364 52.4191C62.1591 45.3409 60.2227 35.7923 53.1114 31.0917C46.0001 26.3911 36.4068 28.3184 31.6842 35.3965C26.9615 42.4747 28.8979 52.0233 36.0092 56.7239C43.1205 61.4245 52.7138 59.4972 57.4364 52.4191Z" fill="url(#paint4_linear_468_8396)"/>
</g>
<g filter="url(#filter7_f_468_8396)">
<path d="M16.9728 38.7959C24.4702 38.7959 30.5481 32.4713 30.5481 24.6696C30.5481 16.8679 24.4702 10.5433 16.9728 10.5433C9.47535 10.5433 3.39746 16.8679 3.39746 24.6696C3.39746 32.4713 9.47535 38.7959 16.9728 38.7959Z" fill="url(#paint5_linear_468_8396)"/>
</g>
<g filter="url(#filter8_f_468_8396)">
<path d="M26.8293 23.3559C33.3894 23.2332 38.6076 17.8405 38.4844 11.3109C38.3611 4.78128 32.9431 -0.412557 26.3829 -0.289878C19.8227 -0.1672 14.6046 5.22554 14.7278 11.7551C14.8511 18.2848 20.2691 23.4786 26.8293 23.3559Z" fill="url(#paint6_linear_468_8396)"/>
</g>
<g filter="url(#filter9_f_468_8396)">
<path d="M38.1919 48.826C46.0818 48.6785 52.3577 42.1926 52.2095 34.3395C52.0612 26.4863 45.545 20.2397 37.6551 20.3873C29.7652 20.5348 23.4893 27.0206 23.6375 34.8738C23.7858 42.7269 30.302 48.9735 38.1919 48.826Z" fill="url(#paint7_linear_468_8396)"/>
</g>
<g filter="url(#filter10_f_468_8396)">
<path d="M16.3558 47.333C24.8416 47.333 31.7206 40.486 31.7206 32.0398C31.7206 23.5936 24.8416 16.7466 16.3558 16.7466C7.87004 16.7466 0.990967 23.5936 0.990967 32.0398C0.990967 40.486 7.87004 47.333 16.3558 47.333Z" stroke="url(#paint8_linear_468_8396)" stroke-width="0.147002"/>
</g>
<g filter="url(#filter11_f_468_8396)">
<path d="M15.7221 44.2382C22.2823 44.1156 27.5004 38.7228 27.3772 32.1932C27.2539 25.6636 21.8359 20.4698 15.2757 20.5924C8.71554 20.7151 3.49738 26.1079 3.62063 32.6375C3.74388 39.1671 9.16188 44.3609 15.7221 44.2382Z" fill="url(#paint9_linear_468_8396)"/>
</g>
<g filter="url(#filter12_f_468_8396)">
<path fill-rule="evenodd" clip-rule="evenodd" d="M40.1055 15.2893C40.2838 15.4227 40.4586 15.5588 40.6301 15.6975C40.8119 15.8232 40.9919 15.9527 41.1701 16.0861C41.3484 16.2195 41.5233 16.3556 41.6948 16.4943C41.8765 16.62 42.0565 16.7495 42.2348 16.8829C49.8785 22.6038 51.3194 33.2842 45.4531 40.7384C39.5868 48.1926 28.6347 49.5977 20.991 43.8769C20.8127 43.7435 20.6379 43.6074 20.4664 43.4687C20.2846 43.343 20.1046 43.2135 19.9263 43.0801C19.7481 42.9466 19.5732 42.8105 19.4017 42.6719C19.22 42.5462 19.04 42.4167 18.8617 42.2833C11.218 36.5624 9.77712 25.882 15.6434 18.4278C21.5097 10.9736 32.4618 9.5685 40.1055 15.2893ZM40.3195 17.167C46.4619 22.6025 47.3991 31.8168 42.2591 38.348C37.1193 44.8791 27.7498 46.3796 20.777 41.9992C14.6346 36.5637 13.6974 27.3494 18.8373 20.8182C23.9772 14.2871 33.3467 12.7866 40.3195 17.167Z" fill="url(#paint10_linear_468_8396)"/>
</g>
<g filter="url(#filter13_f_468_8396)">
<path d="M15.7329 33.7281C17.5057 39.0178 21.7465 41.0596 24.4622 41.2525C22.3284 35.2716 17.1705 27.3958 18.6427 24.4672C23.8803 14.0487 36.7904 34.2488 39.1182 30.1972C40.1592 28.3853 28.986 22.1067 31.3138 20.3702C33.6416 18.6339 38.4292 20.4156 36.6834 18.6791C34.9375 16.9427 27.9541 13.4699 20.9706 16.9427C13.9871 20.4156 13.4052 26.7824 15.7329 33.7281Z" fill="url(#paint11_linear_468_8396)"/>
</g>
<path fill-rule="evenodd" clip-rule="evenodd" d="M27.497 23.0624V38.2849L25.5278 34.9457V30.0843H22.8084L21.4956 27.8747H25.5278V25.9596H20.3702L18.7761 23.0624H27.497ZM36.9213 23.0624L35.3271 25.9596H30.1696V27.8747H34.155L32.889 30.0843H30.1696V34.9457L28.2003 38.2849V23.0624H36.9213Z" fill="white"/>
</g>
<path d="M28.4417 39.7101C28.4417 37.4546 30.3497 35.6635 32.6136 35.7628C37.0785 35.9586 43.5274 36.1396 43.5274 35.5513C43.5274 35.1316 43.5274 36.5104 43.5274 38.1013C43.5274 40.2647 41.7654 42.0186 39.592 42.0186H28.9102C28.6514 42.0186 28.4417 41.8098 28.4417 41.5523V39.7101Z" fill="#CC00CC"/>
<path d="M38.658 40.6937L39.7495 37.3507H40.4516L41.5431 40.6937H41.037L40.0317 37.6432H40.1577L39.1641 40.6937H38.658ZM39.2247 39.9392V39.4842H40.9787V39.9392H39.2247Z" fill="white"/>
<path d="M37.2071 40.6937V37.808H36.0898V37.3507H38.8118V37.808H37.6946V40.6937H37.2071Z" fill="white"/>
<path d="M33.5273 40.6937V37.3507H35.6732V37.808H34.0148V38.746H35.3933V39.2033H34.0148V40.2364H35.6732V40.6937H33.5273Z" fill="white"/>
<path d="M30.5322 40.6937V37.3507H31.8524C32.0654 37.3507 32.2442 37.3941 32.3888 37.4807C32.5334 37.5674 32.6422 37.6796 32.7154 37.8173C32.7884 37.9535 32.825 38.0975 32.825 38.2492C32.825 38.4333 32.7791 38.5912 32.6874 38.7227C32.5972 38.8543 32.4751 38.944 32.3212 38.9921L32.3165 38.8783C32.5311 38.9309 32.6959 39.0338 32.811 39.187C32.9261 39.3387 32.9836 39.5159 32.9836 39.7186C32.9836 39.9152 32.9439 40.0863 32.8646 40.2318C32.7869 40.3772 32.6726 40.4909 32.5218 40.573C32.3725 40.6535 32.1913 40.6937 31.9783 40.6937H30.5322ZM31.0267 40.2318H31.9037C32.0141 40.2318 32.1128 40.2108 32.1999 40.169C32.2885 40.1273 32.3577 40.0676 32.4075 39.9903C32.4588 39.9114 32.4844 39.8177 32.4844 39.7094C32.4844 39.6088 32.4619 39.5183 32.4168 39.4377C32.3732 39.3557 32.3095 39.2915 32.2256 39.2451C32.1431 39.1971 32.0459 39.1731 31.934 39.1731H31.0267V40.2318ZM31.0267 38.7158H31.8454C31.9355 38.7158 32.0164 38.698 32.0879 38.6624C32.161 38.6252 32.2185 38.5726 32.2605 38.5045C32.3041 38.4349 32.3258 38.3513 32.3258 38.2538C32.3258 38.1238 32.2823 38.017 32.1952 37.9334C32.1081 37.8498 31.9915 37.808 31.8454 37.808H31.0267V38.7158Z" fill="white"/>
</g>
</g>
<defs>
<filter id="filter0_f_468_8396" x="-50.2681" y="-59.8262" width="143.334" height="142.087" filterUnits="userSpaceOnUse" color-interpolation-filters="sRGB">
<feFlood flood-opacity="0" result="BackgroundImageFix"/>
<feBlend mode="normal" in="SourceGraphic" in2="BackgroundImageFix" result="shape"/>
<feGaussianBlur stdDeviation="16.6184" result="effect1_foregroundBlur_468_8396"/>
</filter>
<filter id="filter1_f_468_8396" x="-119.696" y="-24.5854" width="160.617" height="160.617" filterUnits="userSpaceOnUse" color-interpolation-filters="sRGB">
<feFlood flood-opacity="0" result="BackgroundImageFix"/>
<feBlend mode="normal" in="SourceGraphic" in2="BackgroundImageFix" result="shape"/>
<feGaussianBlur stdDeviation="22.8088" result="effect1_foregroundBlur_468_8396"/>
</filter>
<filter id="filter2_f_468_8396" x="-108.868" y="-108.801" width="170.173" height="170.173" filterUnits="userSpaceOnUse" color-interpolation-filters="sRGB">
<feFlood flood-opacity="0" result="BackgroundImageFix"/>
<feBlend mode="normal" in="SourceGraphic" in2="BackgroundImageFix" result="shape"/>
<feGaussianBlur stdDeviation="22.8088" result="effect1_foregroundBlur_468_8396"/>
</filter>
<filter id="filter3_f_468_8396" x="216.542" y="-9.08762" width="162.814" height="162.814" filterUnits="userSpaceOnUse" color-interpolation-filters="sRGB">
<feFlood flood-opacity="0" result="BackgroundImageFix"/>
<feBlend mode="normal" in="SourceGraphic" in2="BackgroundImageFix" result="shape"/>
<feGaussianBlur stdDeviation="22.3033" result="effect1_foregroundBlur_468_8396"/>
</filter>
<filter id="filter4_f_468_8396" x="-67.7029" y="16.6452" width="93.7632" height="93.7632" filterUnits="userSpaceOnUse" color-interpolation-filters="sRGB">
<feFlood flood-opacity="0" result="BackgroundImageFix"/>
<feBlend mode="normal" in="SourceGraphic" in2="BackgroundImageFix" result="shape"/>
<feGaussianBlur stdDeviation="9.35145" result="effect1_foregroundBlur_468_8396"/>
</filter>
<filter id="filter5_f_468_8396" x="4.62921" y="10.0128" width="42.1984" height="41.7653" filterUnits="userSpaceOnUse" color-interpolation-filters="sRGB">
<feFlood flood-opacity="0" result="BackgroundImageFix"/>
<feBlend mode="normal" in="SourceGraphic" in2="BackgroundImageFix" result="shape"/>
<feGaussianBlur stdDeviation="2.94004" result="effect1_foregroundBlur_468_8396"/>
</filter>
<filter id="filter6_f_468_8396" x="26.0148" y="25.4342" width="37.0911" height="36.9473" filterUnits="userSpaceOnUse" color-interpolation-filters="sRGB">
<feFlood flood-opacity="0" result="BackgroundImageFix"/>
<feBlend mode="normal" in="SourceGraphic" in2="BackgroundImageFix" result="shape"/>
<feGaussianBlur stdDeviation="1.54352" result="effect1_foregroundBlur_468_8396"/>
</filter>
<filter id="filter7_f_468_8396" x="-2.48261" y="4.66326" width="38.9108" height="40.0127" filterUnits="userSpaceOnUse" color-interpolation-filters="sRGB">
<feFlood flood-opacity="0" result="BackgroundImageFix"/>
<feBlend mode="normal" in="SourceGraphic" in2="BackgroundImageFix" result="shape"/>
<feGaussianBlur stdDeviation="2.94004" result="effect1_foregroundBlur_468_8396"/>
</filter>
<filter id="filter8_f_468_8396" x="11.6386" y="-3.37902" width="29.9351" height="29.8241" filterUnits="userSpaceOnUse" color-interpolation-filters="sRGB">
<feFlood flood-opacity="0" result="BackgroundImageFix"/>
<feBlend mode="normal" in="SourceGraphic" in2="BackgroundImageFix" result="shape"/>
<feGaussianBlur stdDeviation="1.54352" result="effect1_foregroundBlur_468_8396"/>
</filter>
<filter id="filter9_f_468_8396" x="20.548" y="17.2976" width="34.7512" height="34.618" filterUnits="userSpaceOnUse" color-interpolation-filters="sRGB">
<feFlood flood-opacity="0" result="BackgroundImageFix"/>
<feBlend mode="normal" in="SourceGraphic" in2="BackgroundImageFix" result="shape"/>
<feGaussianBlur stdDeviation="1.54352" result="effect1_foregroundBlur_468_8396"/>
</filter>
<filter id="filter10_f_468_8396" x="-0.552537" y="15.2031" width="33.8167" height="33.6734" filterUnits="userSpaceOnUse" color-interpolation-filters="sRGB">
<feFlood flood-opacity="0" result="BackgroundImageFix"/>
<feBlend mode="normal" in="SourceGraphic" in2="BackgroundImageFix" result="shape"/>
<feGaussianBlur stdDeviation="0.735009" result="effect1_foregroundBlur_468_8396"/>
</filter>
<filter id="filter11_f_468_8396" x="0.531375" y="17.5033" width="29.9351" height="29.8242" filterUnits="userSpaceOnUse" color-interpolation-filters="sRGB">
<feFlood flood-opacity="0" result="BackgroundImageFix"/>
<feBlend mode="normal" in="SourceGraphic" in2="BackgroundImageFix" result="shape"/>
<feGaussianBlur stdDeviation="1.54352" result="effect1_foregroundBlur_468_8396"/>
</filter>
<filter id="filter12_f_468_8396" x="8.50834" y="8.24369" width="44.0798" height="42.6789" filterUnits="userSpaceOnUse" color-interpolation-filters="sRGB">
<feFlood flood-opacity="0" result="BackgroundImageFix"/>
<feBlend mode="normal" in="SourceGraphic" in2="BackgroundImageFix" result="shape"/>
<feGaussianBlur stdDeviation="1.76402" result="effect1_foregroundBlur_468_8396"/>
</filter>
<filter id="filter13_f_468_8396" x="8.62432" y="9.57672" width="36.4428" height="37.5559" filterUnits="userSpaceOnUse" color-interpolation-filters="sRGB">
<feFlood flood-opacity="0" result="BackgroundImageFix"/>
<feBlend mode="normal" in="SourceGraphic" in2="BackgroundImageFix" result="shape"/>
<feGaussianBlur stdDeviation="2.94004" result="effect1_foregroundBlur_468_8396"/>
</filter>
<linearGradient id="paint0_linear_468_8396" x1="158.69" y1="1.05556" x2="158.509" y2="57.884" gradientUnits="userSpaceOnUse">
<stop stop-color="#27074A"/>
<stop offset="0.465" stop-color="#260748"/>
<stop offset="0.67" stop-color="#1B0D2A"/>
</linearGradient>
<radialGradient id="paint1_radial_468_8396" cx="0" cy="0" r="1" gradientUnits="userSpaceOnUse" gradientTransform="translate(27.0504 25.6068) rotate(45.5962) scale(71.4805 72.5498)">
<stop stop-color="#4E31FC"/>
<stop offset="1" stop-color="#2C0977"/>
</radialGradient>
<radialGradient id="paint2_radial_468_8396" cx="0" cy="0" r="1" gradientUnits="userSpaceOnUse" gradientTransform="translate(27.719 28.6095) rotate(-52.8513) scale(9.8727 9.8853)">
<stop stop-color="#051961"/>
<stop offset="1" stop-color="#1F1F1F"/>
</radialGradient>
<linearGradient id="paint3_linear_468_8396" x1="29.3143" y1="16.6852" x2="39.1191" y2="33.3083" gradientUnits="userSpaceOnUse">
<stop stop-color="#9E58EE"/>
<stop offset="1" stop-color="#5A3288" stop-opacity="0"/>
</linearGradient>
<linearGradient id="paint4_linear_468_8396" x1="33.4419" y1="32.8889" x2="39.3906" y2="39.7371" gradientUnits="userSpaceOnUse">
<stop stop-color="#436AF5"/>
<stop offset="1" stop-color="#273E8F" stop-opacity="0"/>
</linearGradient>
<linearGradient id="paint5_linear_468_8396" x1="9.35438" y1="28.8073" x2="30.4369" y2="11.3383" gradientUnits="userSpaceOnUse">
<stop stop-color="#436AF5"/>
<stop offset="0.24" stop-color="#9E58EE"/>
<stop offset="0.605" stop-color="#FF9999"/>
<stop offset="1" stop-color="#FFEA70"/>
</linearGradient>
<linearGradient id="paint6_linear_468_8396" x1="28.4694" y1="1.71026" x2="27.8636" y2="12.7334" gradientUnits="userSpaceOnUse">
<stop stop-color="#436AF5"/>
<stop offset="1" stop-color="#273E8F" stop-opacity="0"/>
</linearGradient>
<linearGradient id="paint7_linear_468_8396" x1="40.1644" y1="22.7928" x2="39.436" y2="36.0504" gradientUnits="userSpaceOnUse">
<stop stop-color="#FF9999"/>
<stop offset="1" stop-color="#273E8F" stop-opacity="0"/>
</linearGradient>
<linearGradient id="paint8_linear_468_8396" x1="22.2072" y1="17.2146" x2="29.0673" y2="34.18" gradientUnits="userSpaceOnUse">
<stop stop-color="white"/>
<stop offset="1" stop-color="white" stop-opacity="0"/>
</linearGradient>
<linearGradient id="paint9_linear_468_8396" x1="28.697" y1="41.2526" x2="12.7499" y2="19.6848" gradientUnits="userSpaceOnUse">
<stop stop-color="#FF9999"/>
<stop offset="1" stop-color="#273E8F" stop-opacity="0"/>
</linearGradient>
<linearGradient id="paint10_linear_468_8396" x1="28.8526" y1="13.4662" x2="15.3746" y2="82.3146" gradientUnits="userSpaceOnUse">
<stop stop-color="#FF9999"/>
<stop offset="0.385084" stop-color="#436AF5"/>
<stop offset="1" stop-color="#99FFFF"/>
</linearGradient>
<linearGradient id="paint11_linear_468_8396" x1="23.1433" y1="16.071" x2="29.2637" y2="26.5414" gradientUnits="userSpaceOnUse">
<stop stop-color="#FF9999"/>
<stop offset="0.25" stop-color="#FFEA70"/>
<stop offset="0.5" stop-color="white" stop-opacity="0.5"/>
<stop offset="1" stop-color="white" stop-opacity="0"/>
</linearGradient>
<clipPath id="clip0_468_8396">
<rect width="344" height="57" rx="8" fill="white"/>
</clipPath>
<clipPath id="clip1_468_8396">
<rect width="33" height="30.9692" fill="white" transform="translate(12 13)"/>
</clipPath>
</defs>
</svg>
