<svg width="344" height="57" viewBox="0 0 344 57" fill="none" xmlns="http://www.w3.org/2000/svg">
<g clip-path="url(#clip0_179_23300)">
<rect width="344" height="57" rx="8" fill="url(#paint0_linear_179_23300)"/>
<g opacity="0.4" filter="url(#filter0_f_179_23300)">
<ellipse cx="21.3989" cy="11.2176" rx="38.4301" ry="37.8069" fill="url(#paint1_radial_179_23300)"/>
</g>
<g filter="url(#filter1_f_179_23300)">
<circle cx="-39.3872" cy="55.7232" r="34.691" fill="#B57EDC"/>
</g>
<g filter="url(#filter2_f_179_23300)">
<circle cx="-23.7812" cy="-23.7148" r="39.4688" fill="#FFF6C2"/>
</g>
<path d="M66.992 36.24C65.84 36.24 64.8533 35.9893 64.032 35.488C63.2107 34.9813 62.5787 34.2773 62.136 33.376C61.6987 32.4747 61.48 31.4293 61.48 30.24C61.48 29.0507 61.6987 28.0053 62.136 27.104C62.5787 26.2027 63.2107 25.5013 64.032 25C64.8533 24.4933 65.84 24.24 66.992 24.24C68.32 24.24 69.4267 24.5733 70.312 25.24C71.1973 25.9013 71.8187 26.7947 72.176 27.92L70.232 28.456C70.008 27.704 69.6267 27.1173 69.088 26.696C68.5493 26.2693 67.8507 26.056 66.992 26.056C66.2187 26.056 65.5733 26.2293 65.056 26.576C64.544 26.9227 64.1573 27.4107 63.896 28.04C63.64 28.664 63.5093 29.3973 63.504 30.24C63.504 31.0827 63.632 31.8187 63.888 32.448C64.1493 33.072 64.5387 33.5573 65.056 33.904C65.5733 34.2507 66.2187 34.424 66.992 34.424C67.8507 34.424 68.5493 34.2107 69.088 33.784C69.6267 33.3573 70.008 32.7707 70.232 32.024L72.176 32.56C71.8187 33.6853 71.1973 34.5813 70.312 35.248C69.4267 35.9093 68.32 36.24 66.992 36.24ZM73.9325 36V27.36H75.6365V29.464L75.4285 29.192C75.5352 28.904 75.6765 28.6427 75.8525 28.408C76.0338 28.168 76.2498 27.9707 76.5005 27.816C76.7138 27.672 76.9485 27.56 77.2045 27.48C77.4658 27.3947 77.7325 27.344 78.0045 27.328C78.2765 27.3067 78.5405 27.3173 78.7965 27.36V29.16C78.5405 29.0853 78.2445 29.0613 77.9085 29.088C77.5778 29.1147 77.2792 29.208 77.0125 29.368C76.7458 29.512 76.5272 29.696 76.3565 29.92C76.1912 30.144 76.0685 30.4 75.9885 30.688C75.9085 30.9707 75.8685 31.2773 75.8685 31.608V36H73.9325ZM84.0949 36.24C83.2202 36.24 82.4522 36.0507 81.7909 35.672C81.1295 35.2933 80.6122 34.768 80.2389 34.096C79.8709 33.424 79.6869 32.6507 79.6869 31.776C79.6869 30.832 79.8682 30.0133 80.2309 29.32C80.5935 28.6213 81.0975 28.08 81.7429 27.696C82.3882 27.312 83.1349 27.12 83.9829 27.12C84.8789 27.12 85.6389 27.3307 86.2629 27.752C86.8922 28.168 87.3589 28.7573 87.6629 29.52C87.9669 30.2827 88.0815 31.1813 88.0069 32.216H86.0949V31.512C86.0895 30.5733 85.9242 29.888 85.5989 29.456C85.2735 29.024 84.7615 28.808 84.0629 28.808C83.2735 28.808 82.6869 29.0533 82.3029 29.544C81.9189 30.0293 81.7269 30.7413 81.7269 31.68C81.7269 32.5547 81.9189 33.232 82.3029 33.712C82.6869 34.192 83.2469 34.432 83.9829 34.432C84.4575 34.432 84.8655 34.328 85.2069 34.12C85.5535 33.9067 85.8202 33.6 86.0069 33.2L87.9109 33.776C87.5802 34.5547 87.0682 35.16 86.3749 35.592C85.6869 36.024 84.9269 36.24 84.0949 36.24ZM81.1189 32.216V30.76H87.0629V32.216H81.1189ZM92.0516 36.24C91.4276 36.24 90.8996 36.1227 90.4676 35.888C90.0356 35.648 89.7076 35.3307 89.4836 34.936C89.265 34.5413 89.1556 34.1067 89.1556 33.632C89.1556 33.216 89.225 32.8427 89.3636 32.512C89.5023 32.176 89.7156 31.888 90.0036 31.648C90.2916 31.4027 90.665 31.2027 91.1236 31.048C91.4703 30.936 91.8756 30.8347 92.3396 30.744C92.809 30.6533 93.3156 30.5707 93.8596 30.496C94.409 30.416 94.9823 30.3307 95.5796 30.24L94.8916 30.632C94.897 30.0347 94.7636 29.5947 94.4916 29.312C94.2196 29.0293 93.761 28.888 93.1156 28.888C92.7263 28.888 92.3503 28.9787 91.9876 29.16C91.625 29.3413 91.3716 29.6533 91.2276 30.096L89.4676 29.544C89.681 28.8133 90.0863 28.2267 90.6836 27.784C91.2863 27.3413 92.097 27.12 93.1156 27.12C93.8836 27.12 94.5583 27.2453 95.1396 27.496C95.7263 27.7467 96.161 28.1573 96.4436 28.728C96.5983 29.032 96.6916 29.344 96.7236 29.664C96.7556 29.9787 96.7716 30.3227 96.7716 30.696V36H95.0836V34.128L95.3636 34.432C94.9743 35.056 94.5183 35.5147 93.9956 35.808C93.4783 36.096 92.8303 36.24 92.0516 36.24ZM92.4356 34.704C92.873 34.704 93.2463 34.6267 93.5556 34.472C93.865 34.3173 94.1103 34.128 94.2916 33.904C94.4783 33.68 94.6036 33.4693 94.6676 33.272C94.769 33.0267 94.825 32.7467 94.8356 32.432C94.8516 32.112 94.8596 31.8533 94.8596 31.656L95.4516 31.832C94.8703 31.9227 94.3716 32.0027 93.9556 32.072C93.5396 32.1413 93.1823 32.208 92.8836 32.272C92.585 32.3307 92.321 32.3973 92.0916 32.472C91.8676 32.552 91.6783 32.6453 91.5236 32.752C91.369 32.8587 91.249 32.9813 91.1636 33.12C91.0836 33.2587 91.0436 33.4213 91.0436 33.608C91.0436 33.8213 91.097 34.0107 91.2036 34.176C91.3103 34.336 91.465 34.464 91.6676 34.56C91.8756 34.656 92.1316 34.704 92.4356 34.704ZM103.918 36C103.348 36.1067 102.788 36.152 102.238 36.136C101.694 36.1253 101.206 36.0267 100.774 35.84C100.342 35.648 100.014 35.3467 99.7904 34.936C99.593 34.5627 99.489 34.1813 99.4784 33.792C99.4677 33.4027 99.4624 32.9627 99.4624 32.472V24.96H101.382V32.36C101.382 32.7067 101.385 33.0107 101.39 33.272C101.401 33.5333 101.457 33.7467 101.558 33.912C101.75 34.232 102.057 34.4107 102.478 34.448C102.9 34.4853 103.38 34.464 103.918 34.384V36ZM97.8944 28.872V27.36H103.918V28.872H97.8944ZM109.267 36.24C108.392 36.24 107.624 36.0507 106.963 35.672C106.301 35.2933 105.784 34.768 105.411 34.096C105.043 33.424 104.859 32.6507 104.859 31.776C104.859 30.832 105.04 30.0133 105.403 29.32C105.765 28.6213 106.269 28.08 106.915 27.696C107.56 27.312 108.307 27.12 109.155 27.12C110.051 27.12 110.811 27.3307 111.435 27.752C112.064 28.168 112.531 28.7573 112.835 29.52C113.139 30.2827 113.253 31.1813 113.179 32.216H111.267V31.512C111.261 30.5733 111.096 29.888 110.771 29.456C110.445 29.024 109.933 28.808 109.235 28.808C108.445 28.808 107.859 29.0533 107.475 29.544C107.091 30.0293 106.899 30.7413 106.899 31.68C106.899 32.5547 107.091 33.232 107.475 33.712C107.859 34.192 108.419 34.432 109.155 34.432C109.629 34.432 110.037 34.328 110.379 34.12C110.725 33.9067 110.992 33.6 111.179 33.2L113.083 33.776C112.752 34.5547 112.24 35.16 111.547 35.592C110.859 36.024 110.099 36.24 109.267 36.24ZM106.291 32.216V30.76H112.235V32.216H106.291ZM121.503 36.24C120.436 36.24 119.57 36 118.903 35.52C118.236 35.04 117.831 34.3653 117.687 33.496L119.655 33.192C119.756 33.6187 119.98 33.9547 120.327 34.2C120.674 34.4453 121.111 34.568 121.639 34.568C122.103 34.568 122.46 34.4773 122.711 34.296C122.967 34.1093 123.095 33.856 123.095 33.536C123.095 33.3387 123.047 33.1813 122.951 33.064C122.86 32.9413 122.658 32.824 122.343 32.712C122.028 32.6 121.546 32.4587 120.895 32.288C120.17 32.096 119.594 31.8907 119.167 31.672C118.74 31.448 118.434 31.184 118.247 30.88C118.06 30.576 117.967 30.208 117.967 29.776C117.967 29.2373 118.108 28.768 118.391 28.368C118.674 27.968 119.068 27.6613 119.575 27.448C120.082 27.2293 120.679 27.12 121.367 27.12C122.039 27.12 122.634 27.224 123.151 27.432C123.674 27.64 124.095 27.936 124.415 28.32C124.735 28.704 124.932 29.1547 125.007 29.672L123.039 30.024C122.991 29.656 122.823 29.3653 122.535 29.152C122.252 28.9387 121.874 28.8187 121.399 28.792C120.946 28.7653 120.58 28.8347 120.303 29C120.026 29.16 119.887 29.3867 119.887 29.68C119.887 29.8453 119.943 29.9867 120.055 30.104C120.167 30.2213 120.391 30.3387 120.727 30.456C121.068 30.5733 121.575 30.7173 122.247 30.888C122.935 31.064 123.484 31.2667 123.895 31.496C124.311 31.72 124.61 31.9893 124.791 32.304C124.978 32.6187 125.071 33 125.071 33.448C125.071 34.3173 124.754 35 124.119 35.496C123.49 35.992 122.618 36.24 121.503 36.24ZM130.575 36.24C129.684 36.24 128.924 36.0427 128.295 35.648C127.666 35.248 127.183 34.704 126.847 34.016C126.516 33.328 126.348 32.5493 126.343 31.68C126.348 30.7947 126.522 30.0107 126.863 29.328C127.21 28.64 127.7 28.1013 128.335 27.712C128.97 27.3173 129.724 27.12 130.599 27.12C131.58 27.12 132.41 27.368 133.087 27.864C133.77 28.3547 134.215 29.0267 134.423 29.88L132.503 30.4C132.354 29.936 132.106 29.576 131.759 29.32C131.412 29.0587 131.018 28.928 130.575 28.928C130.074 28.928 129.66 29.048 129.335 29.288C129.01 29.5227 128.77 29.848 128.615 30.264C128.46 30.68 128.383 31.152 128.383 31.68C128.383 32.5013 128.567 33.1653 128.935 33.672C129.303 34.1787 129.85 34.432 130.575 34.432C131.087 34.432 131.49 34.3147 131.783 34.08C132.082 33.8453 132.306 33.5067 132.455 33.064L134.423 33.504C134.156 34.384 133.69 35.0613 133.023 35.536C132.356 36.0053 131.54 36.24 130.575 36.24ZM136.026 36V27.36H137.73V29.464L137.522 29.192C137.629 28.904 137.77 28.6427 137.946 28.408C138.128 28.168 138.344 27.9707 138.594 27.816C138.808 27.672 139.042 27.56 139.298 27.48C139.56 27.3947 139.826 27.344 140.098 27.328C140.37 27.3067 140.634 27.3173 140.89 27.36V29.16C140.634 29.0853 140.338 29.0613 140.002 29.088C139.672 29.1147 139.373 29.208 139.106 29.368C138.84 29.512 138.621 29.696 138.45 29.92C138.285 30.144 138.162 30.4 138.082 30.688C138.002 30.9707 137.962 31.2773 137.962 31.608V36H136.026ZM146.189 36.24C145.314 36.24 144.546 36.0507 143.885 35.672C143.223 35.2933 142.706 34.768 142.333 34.096C141.965 33.424 141.781 32.6507 141.781 31.776C141.781 30.832 141.962 30.0133 142.325 29.32C142.687 28.6213 143.191 28.08 143.837 27.696C144.482 27.312 145.229 27.12 146.077 27.12C146.973 27.12 147.733 27.3307 148.357 27.752C148.986 28.168 149.453 28.7573 149.757 29.52C150.061 30.2827 150.175 31.1813 150.101 32.216H148.189V31.512C148.183 30.5733 148.018 29.888 147.693 29.456C147.367 29.024 146.855 28.808 146.157 28.808C145.367 28.808 144.781 29.0533 144.397 29.544C144.013 30.0293 143.821 30.7413 143.821 31.68C143.821 32.5547 144.013 33.232 144.397 33.712C144.781 34.192 145.341 34.432 146.077 34.432C146.551 34.432 146.959 34.328 147.301 34.12C147.647 33.9067 147.914 33.6 148.101 33.2L150.005 33.776C149.674 34.5547 149.162 35.16 148.469 35.592C147.781 36.024 147.021 36.24 146.189 36.24ZM143.213 32.216V30.76H149.157V32.216H143.213ZM155.814 36.24C154.939 36.24 154.171 36.0507 153.51 35.672C152.848 35.2933 152.331 34.768 151.958 34.096C151.59 33.424 151.406 32.6507 151.406 31.776C151.406 30.832 151.587 30.0133 151.95 29.32C152.312 28.6213 152.816 28.08 153.462 27.696C154.107 27.312 154.854 27.12 155.702 27.12C156.598 27.12 157.358 27.3307 157.982 27.752C158.611 28.168 159.078 28.7573 159.382 29.52C159.686 30.2827 159.8 31.1813 159.726 32.216H157.814V31.512C157.808 30.5733 157.643 29.888 157.318 29.456C156.992 29.024 156.48 28.808 155.782 28.808C154.992 28.808 154.406 29.0533 154.022 29.544C153.638 30.0293 153.446 30.7413 153.446 31.68C153.446 32.5547 153.638 33.232 154.022 33.712C154.406 34.192 154.966 34.432 155.702 34.432C156.176 34.432 156.584 34.328 156.926 34.12C157.272 33.9067 157.539 33.6 157.726 33.2L159.63 33.776C159.299 34.5547 158.787 35.16 158.094 35.592C157.406 36.024 156.646 36.24 155.814 36.24ZM152.838 32.216V30.76H158.782V32.216H152.838ZM167.252 36V31.84C167.252 31.568 167.234 31.2667 167.196 30.936C167.159 30.6053 167.071 30.288 166.932 29.984C166.799 29.6747 166.596 29.4213 166.324 29.224C166.058 29.0267 165.695 28.928 165.236 28.928C164.991 28.928 164.748 28.968 164.508 29.048C164.268 29.128 164.05 29.2667 163.852 29.464C163.66 29.656 163.506 29.9227 163.388 30.264C163.271 30.6 163.212 31.032 163.212 31.56L162.068 31.072C162.068 30.336 162.21 29.6693 162.492 29.072C162.78 28.4747 163.202 28 163.756 27.648C164.311 27.2907 164.994 27.112 165.804 27.112C166.444 27.112 166.972 27.2187 167.388 27.432C167.804 27.6453 168.135 27.9173 168.38 28.248C168.626 28.5787 168.807 28.9307 168.924 29.304C169.042 29.6773 169.116 30.032 169.148 30.368C169.186 30.6987 169.204 30.968 169.204 31.176V36H167.252ZM161.26 36V27.36H162.98V30.04H163.212V36H161.26ZM175.079 36.24C174.205 36.24 173.437 36.0507 172.775 35.672C172.114 35.2933 171.597 34.768 171.223 34.096C170.855 33.424 170.671 32.6507 170.671 31.776C170.671 30.832 170.853 30.0133 171.215 29.32C171.578 28.6213 172.082 28.08 172.727 27.696C173.373 27.312 174.119 27.12 174.967 27.12C175.863 27.12 176.623 27.3307 177.247 27.752C177.877 28.168 178.343 28.7573 178.647 29.52C178.951 30.2827 179.066 31.1813 178.991 32.216H177.079V31.512C177.074 30.5733 176.909 29.888 176.583 29.456C176.258 29.024 175.746 28.808 175.047 28.808C174.258 28.808 173.671 29.0533 173.287 29.544C172.903 30.0293 172.711 30.7413 172.711 31.68C172.711 32.5547 172.903 33.232 173.287 33.712C173.671 34.192 174.231 34.432 174.967 34.432C175.442 34.432 175.85 34.328 176.191 34.12C176.538 33.9067 176.805 33.6 176.991 33.2L178.895 33.776C178.565 34.5547 178.053 35.16 177.359 35.592C176.671 36.024 175.911 36.24 175.079 36.24ZM172.103 32.216V30.76H178.047V32.216H172.103ZM180.776 36V27.36H182.48V29.464L182.272 29.192C182.379 28.904 182.52 28.6427 182.696 28.408C182.878 28.168 183.094 27.9707 183.344 27.816C183.558 27.672 183.792 27.56 184.048 27.48C184.31 27.3947 184.576 27.344 184.848 27.328C185.12 27.3067 185.384 27.3173 185.64 27.36V29.16C185.384 29.0853 185.088 29.0613 184.752 29.088C184.422 29.1147 184.123 29.208 183.856 29.368C183.59 29.512 183.371 29.696 183.2 29.92C183.035 30.144 182.912 30.4 182.832 30.688C182.752 30.9707 182.712 31.2773 182.712 31.608V36H180.776ZM190.19 36.24C189.124 36.24 188.257 36 187.59 35.52C186.924 35.04 186.518 34.3653 186.374 33.496L188.342 33.192C188.444 33.6187 188.668 33.9547 189.014 34.2C189.361 34.4453 189.798 34.568 190.326 34.568C190.79 34.568 191.148 34.4773 191.398 34.296C191.654 34.1093 191.782 33.856 191.782 33.536C191.782 33.3387 191.734 33.1813 191.638 33.064C191.548 32.9413 191.345 32.824 191.03 32.712C190.716 32.6 190.233 32.4587 189.582 32.288C188.857 32.096 188.281 31.8907 187.854 31.672C187.428 31.448 187.121 31.184 186.934 30.88C186.748 30.576 186.654 30.208 186.654 29.776C186.654 29.2373 186.796 28.768 187.078 28.368C187.361 27.968 187.756 27.6613 188.262 27.448C188.769 27.2293 189.366 27.12 190.054 27.12C190.726 27.12 191.321 27.224 191.838 27.432C192.361 27.64 192.782 27.936 193.102 28.32C193.422 28.704 193.62 29.1547 193.694 29.672L191.726 30.024C191.678 29.656 191.51 29.3653 191.222 29.152C190.94 28.9387 190.561 28.8187 190.086 28.792C189.633 28.7653 189.268 28.8347 188.99 29C188.713 29.16 188.574 29.3867 188.574 29.68C188.574 29.8453 188.63 29.9867 188.742 30.104C188.854 30.2213 189.078 30.3387 189.414 30.456C189.756 30.5733 190.262 30.7173 190.934 30.888C191.622 31.064 192.172 31.2667 192.582 31.496C192.998 31.72 193.297 31.9893 193.478 32.304C193.665 32.6187 193.758 33 193.758 33.448C193.758 34.3173 193.441 35 192.806 35.496C192.177 35.992 191.305 36.24 190.19 36.24ZM200.554 36L197.914 27.344L199.802 27.36L201.49 32.904L203.202 27.36H204.826L206.53 32.904L208.226 27.36H210.114L207.474 36H205.97L204.01 30.056L202.058 36H200.554ZM211.718 26.048V24.28H213.646V26.048H211.718ZM211.718 36V27.36H213.646V36H211.718ZM221.106 36C220.535 36.1067 219.975 36.152 219.426 36.136C218.882 36.1253 218.394 36.0267 217.962 35.84C217.53 35.648 217.202 35.3467 216.978 34.936C216.781 34.5627 216.677 34.1813 216.666 33.792C216.655 33.4027 216.65 32.9627 216.65 32.472V24.96H218.57V32.36C218.57 32.7067 218.573 33.0107 218.578 33.272C218.589 33.5333 218.645 33.7467 218.746 33.912C218.938 34.232 219.245 34.4107 219.666 34.448C220.087 34.4853 220.567 34.464 221.106 34.384V36ZM215.082 28.872V27.36H221.106V28.872H215.082ZM228.94 36V31.84C228.94 31.568 228.921 31.2667 228.884 30.936C228.846 30.6053 228.758 30.288 228.62 29.984C228.486 29.6747 228.284 29.4213 228.012 29.224C227.745 29.0267 227.382 28.928 226.924 28.928C226.678 28.928 226.436 28.968 226.196 29.048C225.956 29.128 225.737 29.2667 225.54 29.464C225.348 29.656 225.193 29.9227 225.076 30.264C224.958 30.6 224.9 31.032 224.9 31.56L223.756 31.072C223.756 30.336 223.897 29.6693 224.18 29.072C224.468 28.4747 224.889 28 225.444 27.648C225.998 27.2907 226.681 27.112 227.492 27.112C228.132 27.112 228.66 27.2187 229.076 27.432C229.492 27.6453 229.822 27.9173 230.068 28.248C230.313 28.5787 230.494 28.9307 230.612 29.304C230.729 29.6773 230.804 30.032 230.836 30.368C230.873 30.6987 230.892 30.968 230.892 31.176V36H228.94ZM222.948 36V24.48H224.668V30.544H224.9V36H222.948ZM236.183 36V24.48H243.119V26.408H238.111V29.28H242.159V31.2H238.111V36H236.183ZM244.718 36V24.48H246.646V36H244.718ZM248.242 36L251.874 24.48H254.698L258.33 36H256.346L253.05 25.664H253.482L250.226 36H248.242ZM250.266 33.504V31.704H256.314V33.504H250.266Z" fill="white"/>
<g opacity="0.35" filter="url(#filter3_f_179_23300)">
<circle cx="297.949" cy="72.3195" r="36.8005" fill="#BF5D4A"/>
</g>
<g opacity="0.35" filter="url(#filter4_f_179_23300)">
<circle cx="-20.8212" cy="63.5269" r="28.1788" fill="#AD9885"/>
</g>
<path opacity="0.4" fill-rule="evenodd" clip-rule="evenodd" d="M320 38C314.477 38 310 33.5228 310 28C310 22.4772 314.477 18 320 18C325.523 18 330 22.4772 330 28C330 33.5228 325.523 38 320 38Z" fill="white"/>
<path d="M318.21 32.0602C317.92 31.7702 317.92 31.2902 318.21 31.0002L321.21 28.0002L318.21 25.0002C317.92 24.7102 317.92 24.2302 318.21 23.9402C318.5 23.6502 318.98 23.6502 319.27 23.9402L322.8 27.4702C323.09 27.7602 323.09 28.2402 322.8 28.5302L319.27 32.0602C319.12 32.2102 318.93 32.2802 318.74 32.2802C318.55 32.2802 318.36 32.2102 318.21 32.0602Z" fill="white"/>
<g clip-path="url(#clip1_179_23300)">
<path d="M43.5275 35.6072C43.5275 34.0609 42.4655 33.3432 41.9346 33.3581L39.9114 36.1977C42.9907 36.1977 43.5275 35.6072 43.5275 35.6072Z" fill="#520052"/>
<mask id="mask0_179_23300" style="mask-type:alpha" maskUnits="userSpaceOnUse" x="12" y="13" width="32" height="32">
<path d="M12.0363 28.6095V28.6095C12.0363 37.2304 19.0577 44.219 27.7189 44.219H27.719C36.3802 44.219 43.4016 37.2304 43.4016 28.6095V28.6095C43.4016 19.9886 36.3802 13 27.719 13H27.7189C19.0577 13 12.0363 19.9886 12.0363 28.6095Z" fill="url(#paint2_radial_179_23300)"/>
</mask>
<g mask="url(#mask0_179_23300)">
<path d="M12.0363 28.6096V28.6096C12.0363 37.2305 19.0576 44.2191 27.7188 44.2191H27.7189C36.3802 44.2191 43.4015 37.2305 43.4015 28.6096V28.6096C43.4015 19.9887 36.3802 13.0001 27.7189 13.0001H27.7188C19.0576 13.0001 12.0363 19.9887 12.0363 28.6096Z" fill="#051961"/>
<g filter="url(#filter5_f_179_23300)">
<path d="M16.0707 41.548C22.5666 47.3824 32.1564 47.3426 37.4901 41.4593C42.8238 35.576 41.8817 26.077 35.3858 20.2427C28.8898 14.4084 19.3 14.4481 13.9663 20.3314C8.63259 26.2147 9.57474 35.7137 16.0707 41.548Z" fill="url(#paint3_linear_179_23300)"/>
</g>
<g filter="url(#filter6_f_179_23300)">
<path d="M57.4365 52.4192C62.1591 45.341 60.2228 35.7925 53.1115 31.0918C46.0002 26.3912 36.4069 28.3185 31.6842 35.3967C26.9616 42.4748 28.8979 52.0234 36.0092 56.724C43.1205 61.4247 52.7138 59.4973 57.4365 52.4192Z" fill="url(#paint4_linear_179_23300)"/>
</g>
<g filter="url(#filter7_f_179_23300)">
<path d="M16.9728 38.7959C24.4703 38.7959 30.5482 32.4713 30.5482 24.6696C30.5482 16.8679 24.4703 10.5433 16.9728 10.5433C9.47538 10.5433 3.3975 16.8679 3.3975 24.6696C3.3975 32.4713 9.47538 38.7959 16.9728 38.7959Z" fill="url(#paint5_linear_179_23300)"/>
</g>
<g filter="url(#filter8_f_179_23300)">
<path d="M26.8293 23.3559C33.3895 23.2332 38.6076 17.8405 38.4844 11.3109C38.3611 4.78128 32.9431 -0.412557 26.383 -0.289878C19.8228 -0.1672 14.6046 5.22554 14.7278 11.7551C14.8511 18.2848 20.2691 23.4786 26.8293 23.3559Z" fill="url(#paint6_linear_179_23300)"/>
</g>
<g filter="url(#filter9_f_179_23300)">
<path d="M38.1917 48.826C46.0816 48.6785 52.3575 42.1926 52.2093 34.3395C52.061 26.4863 45.5448 20.2397 37.6549 20.3873C29.765 20.5348 23.4891 27.0206 23.6373 34.8738C23.7856 42.7269 30.3018 48.9735 38.1917 48.826Z" fill="url(#paint7_linear_179_23300)"/>
</g>
<g filter="url(#filter10_f_179_23300)">
<path d="M16.3557 47.333C24.8414 47.333 31.7205 40.486 31.7205 32.0398C31.7205 23.5936 24.8414 16.7466 16.3557 16.7466C7.86992 16.7466 0.990856 23.5936 0.990856 32.0398C0.990856 40.486 7.86992 47.333 16.3557 47.333Z" stroke="url(#paint8_linear_179_23300)" stroke-width="0.147002"/>
</g>
<g filter="url(#filter11_f_179_23300)">
<path d="M15.7221 44.2382C22.2823 44.1156 27.5004 38.7228 27.3772 32.1932C27.2539 25.6636 21.8359 20.4698 15.2757 20.5924C8.71555 20.7151 3.49739 26.1079 3.62064 32.6375C3.74389 39.1671 9.16189 44.3609 15.7221 44.2382Z" fill="url(#paint9_linear_179_23300)"/>
</g>
<g filter="url(#filter12_f_179_23300)">
<path fill-rule="evenodd" clip-rule="evenodd" d="M40.1054 15.2893C40.2836 15.4227 40.4585 15.5588 40.63 15.6975C40.8118 15.8232 40.9918 15.9527 41.17 16.0861C41.3483 16.2195 41.5232 16.3556 41.6946 16.4943C41.8763 16.62 42.0564 16.7495 42.2347 16.8829C49.8784 22.6038 51.3193 33.2842 45.453 40.7384C39.5866 48.1926 28.6346 49.5977 20.9909 43.8769C20.8126 43.7435 20.6377 43.6074 20.4663 43.4687C20.2845 43.343 20.1045 43.2135 19.9262 43.0801C19.748 42.9466 19.5731 42.8105 19.4016 42.6719C19.2199 42.5462 19.0398 42.4167 18.8616 42.2833C11.2179 36.5624 9.77701 25.882 15.6433 18.4278C21.5096 10.9736 32.4617 9.5685 40.1054 15.2893ZM40.3194 17.167C46.4618 22.6025 47.399 31.8168 42.259 38.348C37.1191 44.8791 27.7497 46.3796 20.7769 41.9992C14.6345 36.5637 13.6973 27.3494 18.8372 20.8182C23.9771 14.2871 33.3466 12.7866 40.3194 17.167Z" fill="url(#paint10_linear_179_23300)"/>
</g>
<g filter="url(#filter13_f_179_23300)">
<path d="M15.7329 33.7281C17.5057 39.0178 21.7465 41.0596 24.4622 41.2525C22.3284 35.2716 17.1705 27.3958 18.6427 24.4672C23.8803 14.0487 36.7904 34.2488 39.1182 30.1972C40.1592 28.3853 28.986 22.1067 31.3138 20.3702C33.6416 18.6339 38.4292 20.4156 36.6834 18.6791C34.9375 16.9427 27.954 13.4699 20.9705 16.9427C13.9871 20.4156 13.4052 26.7824 15.7329 33.7281Z" fill="url(#paint11_linear_179_23300)"/>
</g>
<path fill-rule="evenodd" clip-rule="evenodd" d="M27.4969 23.0624V38.2849L25.5277 34.9457V30.0843H22.8082L21.4955 27.8747H25.5277V25.9596H20.3701L18.776 23.0624H27.4969ZM36.9212 23.0624L35.327 25.9596H30.1695V27.8747H34.1549L32.8889 30.0843H30.1695V34.9457L28.2002 38.2849V23.0624H36.9212Z" fill="white"/>
</g>
<path d="M28.4417 39.7101C28.4417 37.4546 30.3498 35.6635 32.6137 35.7628C37.0786 35.9586 43.5275 36.1396 43.5275 35.5513C43.5275 35.1316 43.5275 36.5104 43.5275 38.1013C43.5275 40.2647 41.7655 42.0186 39.5921 42.0186H28.9102C28.6515 42.0186 28.4417 41.8098 28.4417 41.5523V39.7101Z" fill="#CC00CC"/>
<path d="M38.6581 40.6937L39.7496 37.3507H40.4517L41.5432 40.6937H41.0371L40.0318 37.6432H40.1578L39.1642 40.6937H38.6581ZM39.2248 39.9392V39.4842H40.9788V39.9392H39.2248Z" fill="white"/>
<path d="M37.207 40.6937V37.808H36.0898V37.3507H38.8117V37.808H37.6945V40.6937H37.207Z" fill="white"/>
<path d="M33.5273 40.6937V37.3507H35.6732V37.808H34.0148V38.746H35.3933V39.2033H34.0148V40.2364H35.6732V40.6937H33.5273Z" fill="white"/>
<path d="M30.5323 40.6937V37.3507H31.8525C32.0655 37.3507 32.2443 37.3941 32.3889 37.4807C32.5335 37.5674 32.6423 37.6796 32.7155 37.8173C32.7885 37.9535 32.8251 38.0975 32.8251 38.2492C32.8251 38.4333 32.7792 38.5912 32.6875 38.7227C32.5973 38.8543 32.4752 38.944 32.3212 38.9921L32.3166 38.8783C32.5312 38.9309 32.696 39.0338 32.8111 39.187C32.9261 39.3387 32.9837 39.5159 32.9837 39.7186C32.9837 39.9152 32.944 40.0863 32.8647 40.2318C32.787 40.3772 32.6727 40.4909 32.5219 40.573C32.3726 40.6535 32.1914 40.6937 31.9784 40.6937H30.5323ZM31.0268 40.2318H31.9038C32.0142 40.2318 32.1129 40.2108 32.2 40.169C32.2886 40.1273 32.3578 40.0676 32.4076 39.9903C32.4589 39.9114 32.4845 39.8177 32.4845 39.7094C32.4845 39.6088 32.462 39.5183 32.4169 39.4377C32.3733 39.3557 32.3096 39.2915 32.2256 39.2451C32.1432 39.1971 32.046 39.1731 31.9341 39.1731H31.0268V40.2318ZM31.0268 38.7158H31.8455C31.9356 38.7158 32.0165 38.698 32.088 38.6624C32.1611 38.6252 32.2186 38.5726 32.2606 38.5045C32.3042 38.4349 32.3259 38.3513 32.3259 38.2538C32.3259 38.1238 32.2824 38.017 32.1953 37.9334C32.1082 37.8498 31.9916 37.808 31.8455 37.808H31.0268V38.7158Z" fill="white"/>
</g>
</g>
<defs>
<filter id="filter0_f_179_23300" x="-50.2681" y="-59.8262" width="143.334" height="142.088" filterUnits="userSpaceOnUse" color-interpolation-filters="sRGB">
<feFlood flood-opacity="0" result="BackgroundImageFix"/>
<feBlend mode="normal" in="SourceGraphic" in2="BackgroundImageFix" result="shape"/>
<feGaussianBlur stdDeviation="16.6184" result="effect1_foregroundBlur_179_23300"/>
</filter>
<filter id="filter1_f_179_23300" x="-119.696" y="-24.5854" width="160.617" height="160.617" filterUnits="userSpaceOnUse" color-interpolation-filters="sRGB">
<feFlood flood-opacity="0" result="BackgroundImageFix"/>
<feBlend mode="normal" in="SourceGraphic" in2="BackgroundImageFix" result="shape"/>
<feGaussianBlur stdDeviation="22.8088" result="effect1_foregroundBlur_179_23300"/>
</filter>
<filter id="filter2_f_179_23300" x="-108.868" y="-108.801" width="170.173" height="170.173" filterUnits="userSpaceOnUse" color-interpolation-filters="sRGB">
<feFlood flood-opacity="0" result="BackgroundImageFix"/>
<feBlend mode="normal" in="SourceGraphic" in2="BackgroundImageFix" result="shape"/>
<feGaussianBlur stdDeviation="22.8088" result="effect1_foregroundBlur_179_23300"/>
</filter>
<filter id="filter3_f_179_23300" x="216.542" y="-9.08762" width="162.814" height="162.814" filterUnits="userSpaceOnUse" color-interpolation-filters="sRGB">
<feFlood flood-opacity="0" result="BackgroundImageFix"/>
<feBlend mode="normal" in="SourceGraphic" in2="BackgroundImageFix" result="shape"/>
<feGaussianBlur stdDeviation="22.3033" result="effect1_foregroundBlur_179_23300"/>
</filter>
<filter id="filter4_f_179_23300" x="-67.7029" y="16.6452" width="93.7633" height="93.7632" filterUnits="userSpaceOnUse" color-interpolation-filters="sRGB">
<feFlood flood-opacity="0" result="BackgroundImageFix"/>
<feBlend mode="normal" in="SourceGraphic" in2="BackgroundImageFix" result="shape"/>
<feGaussianBlur stdDeviation="9.35145" result="effect1_foregroundBlur_179_23300"/>
</filter>
<filter id="filter5_f_179_23300" x="4.62894" y="10.0128" width="42.1986" height="41.7653" filterUnits="userSpaceOnUse" color-interpolation-filters="sRGB">
<feFlood flood-opacity="0" result="BackgroundImageFix"/>
<feBlend mode="normal" in="SourceGraphic" in2="BackgroundImageFix" result="shape"/>
<feGaussianBlur stdDeviation="2.94004" result="effect1_foregroundBlur_179_23300"/>
</filter>
<filter id="filter6_f_179_23300" x="26.0147" y="25.4343" width="37.0912" height="36.9471" filterUnits="userSpaceOnUse" color-interpolation-filters="sRGB">
<feFlood flood-opacity="0" result="BackgroundImageFix"/>
<feBlend mode="normal" in="SourceGraphic" in2="BackgroundImageFix" result="shape"/>
<feGaussianBlur stdDeviation="1.54352" result="effect1_foregroundBlur_179_23300"/>
</filter>
<filter id="filter7_f_179_23300" x="-2.48257" y="4.66326" width="38.9108" height="40.0127" filterUnits="userSpaceOnUse" color-interpolation-filters="sRGB">
<feFlood flood-opacity="0" result="BackgroundImageFix"/>
<feBlend mode="normal" in="SourceGraphic" in2="BackgroundImageFix" result="shape"/>
<feGaussianBlur stdDeviation="2.94004" result="effect1_foregroundBlur_179_23300"/>
</filter>
<filter id="filter8_f_179_23300" x="11.6387" y="-3.37902" width="29.9349" height="29.8241" filterUnits="userSpaceOnUse" color-interpolation-filters="sRGB">
<feFlood flood-opacity="0" result="BackgroundImageFix"/>
<feBlend mode="normal" in="SourceGraphic" in2="BackgroundImageFix" result="shape"/>
<feGaussianBlur stdDeviation="1.54352" result="effect1_foregroundBlur_179_23300"/>
</filter>
<filter id="filter9_f_179_23300" x="20.5477" y="17.2976" width="34.7511" height="34.618" filterUnits="userSpaceOnUse" color-interpolation-filters="sRGB">
<feFlood flood-opacity="0" result="BackgroundImageFix"/>
<feBlend mode="normal" in="SourceGraphic" in2="BackgroundImageFix" result="shape"/>
<feGaussianBlur stdDeviation="1.54352" result="effect1_foregroundBlur_179_23300"/>
</filter>
<filter id="filter10_f_179_23300" x="-0.552662" y="15.2031" width="33.8167" height="33.6734" filterUnits="userSpaceOnUse" color-interpolation-filters="sRGB">
<feFlood flood-opacity="0" result="BackgroundImageFix"/>
<feBlend mode="normal" in="SourceGraphic" in2="BackgroundImageFix" result="shape"/>
<feGaussianBlur stdDeviation="0.735009" result="effect1_foregroundBlur_179_23300"/>
</filter>
<filter id="filter11_f_179_23300" x="0.531466" y="17.5033" width="29.9349" height="29.8241" filterUnits="userSpaceOnUse" color-interpolation-filters="sRGB">
<feFlood flood-opacity="0" result="BackgroundImageFix"/>
<feBlend mode="normal" in="SourceGraphic" in2="BackgroundImageFix" result="shape"/>
<feGaussianBlur stdDeviation="1.54352" result="effect1_foregroundBlur_179_23300"/>
</filter>
<filter id="filter12_f_179_23300" x="8.50822" y="8.24369" width="44.0798" height="42.6789" filterUnits="userSpaceOnUse" color-interpolation-filters="sRGB">
<feFlood flood-opacity="0" result="BackgroundImageFix"/>
<feBlend mode="normal" in="SourceGraphic" in2="BackgroundImageFix" result="shape"/>
<feGaussianBlur stdDeviation="1.76402" result="effect1_foregroundBlur_179_23300"/>
</filter>
<filter id="filter13_f_179_23300" x="8.62431" y="9.57672" width="36.4426" height="37.5559" filterUnits="userSpaceOnUse" color-interpolation-filters="sRGB">
<feFlood flood-opacity="0" result="BackgroundImageFix"/>
<feBlend mode="normal" in="SourceGraphic" in2="BackgroundImageFix" result="shape"/>
<feGaussianBlur stdDeviation="2.94004" result="effect1_foregroundBlur_179_23300"/>
</filter>
<linearGradient id="paint0_linear_179_23300" x1="158.69" y1="1.05556" x2="158.509" y2="57.884" gradientUnits="userSpaceOnUse">
<stop stop-color="#27074A"/>
<stop offset="0.465" stop-color="#260748"/>
<stop offset="0.67" stop-color="#1B0D2A"/>
</linearGradient>
<radialGradient id="paint1_radial_179_23300" cx="0" cy="0" r="1" gradientUnits="userSpaceOnUse" gradientTransform="translate(27.0504 25.6068) rotate(45.5962) scale(71.4805 72.5498)">
<stop stop-color="#4E31FC"/>
<stop offset="1" stop-color="#2C0977"/>
</radialGradient>
<radialGradient id="paint2_radial_179_23300" cx="0" cy="0" r="1" gradientUnits="userSpaceOnUse" gradientTransform="translate(27.7189 28.6095) rotate(-52.8513) scale(9.8727 9.8853)">
<stop stop-color="#051961"/>
<stop offset="1" stop-color="#1F1F1F"/>
</radialGradient>
<linearGradient id="paint3_linear_179_23300" x1="29.3141" y1="16.6852" x2="39.119" y2="33.3083" gradientUnits="userSpaceOnUse">
<stop stop-color="#9E58EE"/>
<stop offset="1" stop-color="#5A3288" stop-opacity="0"/>
</linearGradient>
<linearGradient id="paint4_linear_179_23300" x1="33.4419" y1="32.889" x2="39.3906" y2="39.7372" gradientUnits="userSpaceOnUse">
<stop stop-color="#436AF5"/>
<stop offset="1" stop-color="#273E8F" stop-opacity="0"/>
</linearGradient>
<linearGradient id="paint5_linear_179_23300" x1="9.35442" y1="28.8073" x2="30.437" y2="11.3383" gradientUnits="userSpaceOnUse">
<stop stop-color="#436AF5"/>
<stop offset="0.24" stop-color="#9E58EE"/>
<stop offset="0.605" stop-color="#FF9999"/>
<stop offset="1" stop-color="#FFEA70"/>
</linearGradient>
<linearGradient id="paint6_linear_179_23300" x1="28.4694" y1="1.71026" x2="27.8637" y2="12.7334" gradientUnits="userSpaceOnUse">
<stop stop-color="#436AF5"/>
<stop offset="1" stop-color="#273E8F" stop-opacity="0"/>
</linearGradient>
<linearGradient id="paint7_linear_179_23300" x1="40.1642" y1="22.7928" x2="39.4358" y2="36.0504" gradientUnits="userSpaceOnUse">
<stop stop-color="#FF9999"/>
<stop offset="1" stop-color="#273E8F" stop-opacity="0"/>
</linearGradient>
<linearGradient id="paint8_linear_179_23300" x1="22.2071" y1="17.2146" x2="29.0672" y2="34.18" gradientUnits="userSpaceOnUse">
<stop stop-color="white"/>
<stop offset="1" stop-color="white" stop-opacity="0"/>
</linearGradient>
<linearGradient id="paint9_linear_179_23300" x1="28.697" y1="41.2526" x2="12.7499" y2="19.6848" gradientUnits="userSpaceOnUse">
<stop stop-color="#FF9999"/>
<stop offset="1" stop-color="#273E8F" stop-opacity="0"/>
</linearGradient>
<linearGradient id="paint10_linear_179_23300" x1="28.8525" y1="13.4662" x2="15.3745" y2="82.3146" gradientUnits="userSpaceOnUse">
<stop stop-color="#FF9999"/>
<stop offset="0.385084" stop-color="#436AF5"/>
<stop offset="1" stop-color="#99FFFF"/>
</linearGradient>
<linearGradient id="paint11_linear_179_23300" x1="23.1433" y1="16.071" x2="29.2637" y2="26.5414" gradientUnits="userSpaceOnUse">
<stop stop-color="#FF9999"/>
<stop offset="0.25" stop-color="#FFEA70"/>
<stop offset="0.5" stop-color="white" stop-opacity="0.5"/>
<stop offset="1" stop-color="white" stop-opacity="0"/>
</linearGradient>
<clipPath id="clip0_179_23300">
<rect width="344" height="57" rx="8" fill="white"/>
</clipPath>
<clipPath id="clip1_179_23300">
<rect width="33" height="30.9692" fill="white" transform="translate(12 13)"/>
</clipPath>
</defs>
</svg>
