<svg width="16" height="16" viewBox="0 0 16 16" fill="none" xmlns="http://www.w3.org/2000/svg">
<path d="M2.93359 14.6667V1.33334C2.93359 1.06 3.16026 0.833336 3.43359 0.833336C3.70693 0.833336 3.93359 1.06 3.93359 1.33334V14.6667C3.93359 14.94 3.70693 15.1667 3.43359 15.1667C3.16026 15.1667 2.93359 14.94 2.93359 14.6667Z" fill="#2A394E"/>
<path d="M3.43359 11.1667C3.16026 11.1667 2.93359 10.94 2.93359 10.6667C2.93359 10.3933 3.16026 10.1667 3.43359 10.1667H10.9003C11.6269 10.1667 11.9669 9.97333 12.0336 9.80666C12.1003 9.64 12.0003 9.26666 11.4803 8.75333L10.6803 7.95333C10.3536 7.66666 10.1536 7.23333 10.1336 6.75333C10.1136 6.24666 10.3136 5.74666 10.6803 5.38L11.4803 4.58C11.9736 4.08666 12.1269 3.68666 12.0536 3.51333C11.9803 3.34 11.6003 3.16666 10.9003 3.16666H3.43359C3.15359 3.16666 2.93359 2.94 2.93359 2.66666C2.93359 2.39333 3.16026 2.16666 3.43359 2.16666H10.9003C12.3603 2.16666 12.8269 2.77333 12.9803 3.13333C13.1269 3.49333 13.2269 4.25333 12.1869 5.29333L11.3869 6.09333C11.2203 6.26 11.1269 6.49333 11.1336 6.72666C11.1403 6.92666 11.2203 7.10666 11.3603 7.23333L12.1869 8.05333C13.2069 9.07333 13.1069 9.83333 12.9603 10.2C12.8069 10.5533 12.3336 11.1667 10.9003 11.1667H3.43359Z" fill="#2A394E"/>
</svg>
