<svg width="32" height="32" viewBox="0 0 32 32" fill="none" xmlns="http://www.w3.org/2000/svg">
<path opacity="0.4" d="M10.4127 2.66666C5.55935 2.66666 2.66602 5.55999 2.66602 10.4133V21.5733C2.66602 26.44 5.55935 29.3333 10.4127 29.3333H21.5727C26.426 29.3333 29.3193 26.44 29.3193 21.5867V10.4133C29.3327 5.55999 26.4394 2.66666 21.586 2.66666H10.4127Z" fill="#943ACF"/>
<path d="M8.33203 18.1332V13.8665C8.33203 13.3198 8.78536 12.8665 9.33203 12.8665C9.8787 12.8665 10.332 13.3198 10.332 13.8665V18.1465C10.332 18.6932 9.8787 19.1332 9.33203 19.1332C8.78536 19.1332 8.33203 18.6799 8.33203 18.1332Z" fill="#943ACF"/>
<path d="M15 20.4535V11.5469C15 11.0002 15.4533 10.5469 16 10.5469C16.5467 10.5469 17 11.0002 17 11.5469V20.4535C17 21.0002 16.5467 21.4535 16 21.4535C15.4533 21.4535 15 21.0002 15 20.4535Z" fill="#943ACF"/>
<path d="M21.666 18.1332V13.8665C21.666 13.3198 22.1193 12.8665 22.666 12.8665C23.2127 12.8665 23.666 13.3198 23.666 13.8665V18.1465C23.666 18.6932 23.2127 19.1332 22.666 19.1332C22.1193 19.1332 21.666 18.6799 21.666 18.1332Z" fill="#943ACF"/>
</svg>
