<svg width="80" height="21" viewBox="0 0 80 21" fill="none" xmlns="http://www.w3.org/2000/svg">
<path d="M13.5328 0V21L10.6842 16.3936V9.6875H6.74963L4.8512 6.63867H10.6842V3.99707H3.22327L0.916626 0H13.5328ZM24.86 3.99707H17.399V6.63867H23.1647L21.3336 9.6875H17.399V16.3936L14.5504 21V0H27.1666L24.86 3.99707Z" fill="#436AF5"/>
<path fill-rule="evenodd" clip-rule="evenodd" d="M45.8742 12.0686V16.3333H43.4762V12.0686L39.4166 4.08325H42.123L44.6923 9.68175L47.2445 4.08325H49.9166L45.8742 12.0686ZM33.1299 11.156V16.3333H30.6666V4.08326H38.25V6.06642H33.1299V9.2079H37.0535V11.156H33.1299ZM57.5 16.3333V14.3354H52.9197V11.0933H56.9815V9.14799H52.9197V6.08111H57.5V4.08325H50.5V16.3333H57.5ZM62.3365 11.5596V16.3333H59.8333V4.08325H64.5179C65.4834 4.08325 66.3059 4.24998 66.9853 4.58343C67.6647 4.91688 68.1743 5.36734 68.514 5.93479C68.8538 6.50225 69.0236 7.13698 69.0236 7.83898C69.0236 8.64629 68.7852 9.37462 68.3084 10.024C67.8316 10.6733 67.1224 11.1209 66.1807 11.3666L69.1667 16.3333H66.2701L63.5166 11.5596H62.3365ZM64.5304 9.33328H62.75V5.83328H64.5304C65.1087 5.83328 65.5398 5.9841 65.8239 6.28572C66.108 6.58735 66.25 7.01133 66.25 7.55767C66.25 8.1154 66.108 8.55076 65.8239 8.86377C65.5398 9.17678 65.1087 9.33328 64.5304 9.33328ZM77.112 15.845C76.4664 16.1705 75.6997 16.3333 74.8121 16.3333C73.9705 16.3333 73.2125 16.1905 72.5381 15.9049C71.8637 15.6194 71.3305 15.2082 70.9385 14.6714C70.5466 14.1345 70.3448 13.5006 70.3333 12.7696H72.9272C72.9618 13.2608 73.1376 13.6491 73.4546 13.9346C73.7716 14.2202 74.2068 14.363 74.7602 14.363C75.3251 14.363 75.7689 14.2288 76.0917 13.9603C76.4145 13.6919 76.5759 13.3407 76.5759 12.9067C76.5759 12.5526 76.4664 12.2613 76.2473 12.0329C76.0283 11.8045 75.7545 11.6246 75.426 11.4932C75.0974 11.3619 74.6449 11.2162 74.0685 11.0563C73.2846 10.8279 72.6476 10.6023 72.1577 10.3796C71.6677 10.1569 71.2469 9.81991 70.8953 9.36874C70.5437 8.91758 70.3679 8.31507 70.3679 7.56122C70.3679 6.85307 70.5466 6.23628 70.904 5.71087C71.2613 5.18547 71.7628 4.78284 72.4084 4.50301C73.054 4.22317 73.7918 4.08325 74.6219 4.08325C75.8669 4.08325 76.8785 4.38308 77.6567 4.98273C78.4348 5.58238 78.8643 6.41903 78.945 7.49269H76.2819C76.2589 7.0815 76.0831 6.7417 75.7545 6.47329C75.426 6.20487 74.9908 6.07066 74.4489 6.07066C73.9763 6.07066 73.5987 6.19059 73.3163 6.43045C73.0338 6.67031 72.8926 7.01868 72.8926 7.47556C72.8926 7.79537 72.9992 8.06093 73.2125 8.27224C73.4258 8.48354 73.6909 8.65487 74.008 8.78622C74.325 8.91758 74.7717 9.06892 75.3481 9.24024C76.1321 9.46868 76.7719 9.69712 77.2676 9.92556C77.7633 10.154 78.1899 10.4967 78.5472 10.9535C78.9046 11.4104 79.0833 12.0101 79.0833 12.7525C79.0833 13.3921 78.9162 13.986 78.5818 14.5343C78.2475 15.0826 77.7576 15.5194 77.112 15.845Z" fill="#6A7582"/>
</svg>
