<svg width="29" height="28" viewBox="0 0 29 28" fill="none" xmlns="http://www.w3.org/2000/svg">
<path d="M0.600098 4C0.600098 1.79086 2.39096 0 4.6001 0H24.6001C26.8092 0 28.6001 1.79086 28.6001 4V24C28.6001 26.2091 26.8092 28 24.6001 28H4.6001C2.39096 28 0.600098 26.2091 0.600098 24V4Z" fill="#3C1C16"/>
<path d="M13.4 16.7C13.0687 16.7 12.8 16.4314 12.8 16.1V15.4001H12.2001C11.8687 15.4001 11.6001 15.1314 11.6001 14.8001C11.6001 14.4687 11.8687 14.2001 12.2001 14.2001H12.8V13.6C12.8 13.2686 13.0687 13 13.4 13C13.7314 13 14 13.2686 14 13.6V14.2001H14.7001C15.0315 14.2001 15.3001 14.4687 15.3001 14.8001C15.3001 15.1314 15.0315 15.4001 14.7001 15.4001H14V16.1C14 16.4314 13.7314 16.7 13.4 16.7Z" fill="#954535"/>
<path fill-rule="evenodd" clip-rule="evenodd" d="M6.80005 16.456C6.80005 19.88 7.70405 22 12.2 22H17C17.0103 22 17.0205 21.9997 17.0306 21.9992C17.1793 21.9916 17.3192 21.9288 17.424 21.824L22.224 17.024C22.2402 17.0071 22.2553 16.9894 22.2694 16.9711C22.351 16.8686 22.4 16.7393 22.4 16.6V11.52C22.4 7.728 21.12 6.184 17.8 6H11.368C8.08005 6.184 6.80005 7.728 6.80005 11.52V16.456ZM16.4 19V20.8H12.2C8.58405 20.8 8.00005 19.52 8.00005 16.456V11.52C8.00005 8.79887 8.70605 7.77214 10.0801 7.39142V10.7574C10.0801 11.3606 10.7491 11.7234 11.2547 11.3943L13.0001 10.258L14.7454 11.3943C15.251 11.7234 15.9201 11.3606 15.9201 10.7574V7.2H17.768C20.04 7.328 21.2 8.032 21.2 11.52V16H19.4C17.464 16 16.4 17.064 16.4 19ZM14.8801 7.2H11.4C11.3048 7.20545 11.2114 7.21193 11.1201 7.21963V10.241L12.5854 9.28697C12.8375 9.12285 13.1626 9.12285 13.4147 9.28697L14.8801 10.241V7.2ZM17.6 19V19.952L20.352 17.2H19.4C18.136 17.2 17.6 17.736 17.6 19Z" fill="#954535"/>
</svg>
