<svg width="29" height="28" viewBox="0 0 29 28" fill="none" xmlns="http://www.w3.org/2000/svg">
<path d="M0.599976 4C0.599976 1.79086 2.39084 0 4.59998 0H24.6C26.8091 0 28.6 1.79086 28.6 4V24C28.6 26.2091 26.8091 28 24.6 28H4.59998C2.39084 28 0.599976 26.2091 0.599976 24V4Z" fill="#FAF2F0"/>
<path d="M13.3999 16.7C13.0686 16.7 12.7999 16.4314 12.7999 16.1V15.4001H12.2C11.8686 15.4001 11.6 15.1314 11.6 14.8001C11.6 14.4687 11.8686 14.2001 12.2 14.2001H12.7999V13.6C12.7999 13.2686 13.0686 13 13.3999 13C13.7313 13 13.9999 13.2686 13.9999 13.6V14.2001H14.7C15.0313 14.2001 15.3 14.4687 15.3 14.8001C15.3 15.1314 15.0313 15.4001 14.7 15.4001H13.9999V16.1C13.9999 16.4314 13.7313 16.7 13.3999 16.7Z" fill="#CA7868"/>
<path fill-rule="evenodd" clip-rule="evenodd" d="M6.79993 16.456C6.79993 19.88 7.70393 22 12.1999 22H16.9999C17.0102 22 17.0204 21.9997 17.0305 21.9992C17.1792 21.9916 17.3191 21.9288 17.4239 21.824L22.2239 17.024C22.2401 17.0071 22.2552 16.9894 22.2692 16.9711C22.3508 16.8686 22.3999 16.7393 22.3999 16.6V11.52C22.3999 7.728 21.1199 6.184 17.7999 6H11.3679C8.07993 6.184 6.79993 7.728 6.79993 11.52V16.456ZM16.3999 19V20.8H12.1999C8.58393 20.8 7.99993 19.52 7.99993 16.456V11.52C7.99993 8.79887 8.70592 7.77214 10.0799 7.39142V10.7574C10.0799 11.3606 10.749 11.7234 11.2546 11.3943L12.9999 10.258L14.7453 11.3943C15.2508 11.7234 15.9199 11.3606 15.9199 10.7574V7.2H17.7679C20.0399 7.328 21.1999 8.032 21.1999 11.52V16H19.3999C17.4639 16 16.3999 17.064 16.3999 19ZM14.8799 7.2H11.3999C11.3046 7.20545 11.2113 7.21193 11.1199 7.21963V10.241L12.5853 9.28697C12.8374 9.12285 13.1625 9.12285 13.4146 9.28697L14.8799 10.241V7.2ZM17.5999 19V19.952L20.3519 17.2H19.3999C18.1359 17.2 17.5999 17.736 17.5999 19Z" fill="#CA7868"/>
</svg>
