<svg width="16" height="17" viewBox="0 0 16 17" fill="none" xmlns="http://www.w3.org/2000/svg">
<path fill-rule="evenodd" clip-rule="evenodd" d="M4.66634 15.6667C1.72634 15.6667 0.833008 14.7734 0.833008 11.8334V10.5C0.833008 7.56002 1.72634 6.66669 4.66634 6.66669H11.333C14.273 6.66669 15.1663 7.56002 15.1663 10.5V11.8334C15.1663 14.7734 14.273 15.6667 11.333 15.6667H4.66634ZM1.83301 10.5V11.8334C1.83301 14.2134 2.27967 14.6667 4.66634 14.6667H11.333C13.7197 14.6667 14.1663 14.2134 14.1663 11.8334V10.5C14.1663 8.12002 13.7197 7.66669 11.333 7.66669H4.66634C2.27967 7.66669 1.83301 8.12002 1.83301 10.5Z" fill="#404040"/>
<path fill-rule="evenodd" clip-rule="evenodd" d="M5.83301 11.1667C5.83301 9.97333 6.80634 9 7.99967 9C9.19301 9 10.1663 9.97333 10.1663 11.1667C10.1663 12.36 9.19301 13.3333 7.99967 13.3333C6.80634 13.3333 5.83301 12.36 5.83301 11.1667ZM6.83301 11.1667C6.83301 11.8067 7.35967 12.3333 7.99967 12.3333C8.63967 12.3333 9.16634 11.8067 9.16634 11.1667C9.16634 10.5267 8.63967 10 7.99967 10C7.35967 10 6.83301 10.5267 6.83301 11.1667Z" fill="#404040"/>
<path d="M3.5 5.83398V7.16732C3.5 7.44065 3.72667 7.66732 4 7.66732C4.27333 7.66732 4.5 7.44065 4.5 7.16732V5.83398C4.5 3.73398 5.09333 2.33398 8 2.33398C9.71084 2.33398 10.5993 2.79491 11.0521 3.42989C11.1882 3.62084 11.4099 3.74782 11.6416 3.71127C11.9641 3.66039 12.1642 3.32591 11.9987 3.04449C11.3296 1.90679 9.99277 1.33398 8 1.33398C3.96667 1.33398 3.5 3.90065 3.5 5.83398Z" fill="#404040"/>
</svg>
