<svg width="47" height="47" viewBox="0 0 47 47" fill="none" xmlns="http://www.w3.org/2000/svg">
<path d="M0 6.76824C0 3.03025 3.03024 0 6.76823 0H39.3371C43.0751 0 46.1054 3.03024 46.1054 6.76823V39.3371C46.1054 43.0751 43.0751 46.1054 39.3372 46.1054H6.76824C3.03025 46.1054 0 43.0751 0 39.3372V6.76824Z" fill="#2E1042"/>
<circle cx="23.6888" cy="23.6888" r="14.3825" stroke="#943ACF" stroke-width="1.69206"/>
<path d="M18.9611 28.6895V26.5659H13.4619V24.8908L17.4213 16.5066H19.4433L15.4839 24.8908H18.9611V21.5913H20.7546V24.8908H21.9645V26.5659H20.7546V28.6895H18.9611ZM22.6499 28.6895L26.8039 22.5219L22.7599 16.5066H24.9257L27.8953 21.0244L30.8479 16.5066H33.0222L28.9782 22.5219L33.1237 28.6895H30.9579L27.8953 24.0278L24.8242 28.6895H22.6499Z" fill="#943ACF"/>
</svg>
