<svg width="89" height="63" viewBox="0 0 89 63" fill="none" xmlns="http://www.w3.org/2000/svg">
<g clip-path="url(#clip0_9299_65876)">
<rect width="89" height="63" fill="white"/>
<g filter="url(#filter0_f_9299_65876)">
<ellipse cx="44.5" cy="32" rx="36.5" ry="31" fill="#FFFCEB"/>
</g>
<path d="M57.4268 29.6743L57.4268 36.7442" stroke="#10161F" stroke-width="2" stroke-linecap="round"/>
<path d="M57.5676 31.8859C53.3042 32.0856 44.7773 29.7893 44.7773 19.0066C49.0408 18.8069 57.5676 21.1033 57.5676 31.8859Z" fill="url(#paint0_linear_9299_65876)"/>
<path d="M57.4597 31.8859C61.7231 32.0856 70.25 29.7893 70.25 19.0066C65.9866 18.8069 57.4597 21.1033 57.4597 31.8859Z" fill="url(#paint1_linear_9299_65876)"/>
<path d="M23.8857 42.6437L23.8857 49.7136" stroke="#10161F" stroke-width="2" stroke-linecap="round"/>
<path d="M24.0266 44.8554C19.7632 45.0551 11.2363 42.7588 11.2363 31.9761C15.4998 31.7764 24.0266 34.0727 24.0266 44.8554Z" fill="url(#paint2_linear_9299_65876)"/>
<path d="M23.9187 44.8554C28.1821 45.055 36.709 42.7587 36.709 31.976C32.4456 31.7764 23.9187 34.0727 23.9187 44.8554Z" fill="url(#paint3_linear_9299_65876)"/>
<g filter="url(#filter1_d_9299_65876)">
<path d="M74.9853 56.275H45.7341C45.1367 56.275 44.6523 56.7593 44.6523 57.3568V61.6753C44.6523 62.2728 45.1367 62.7571 45.7341 62.7571H74.9853C75.5828 62.7571 76.0671 62.2728 76.0671 61.6753V57.3568C76.0671 56.7593 75.5828 56.275 74.9853 56.275Z" fill="url(#paint4_linear_9299_65876)" stroke="#FFE580" stroke-width="0.0566908"/>
<path d="M67.5334 56.8345H63.5615V62.2365H67.5334V56.8345Z" fill="#FFE580"/>
<path d="M70.7954 56.8341H68.6289V62.2362H70.7954V56.8341Z" fill="#FFE580"/>
<path d="M73.3152 56.8341H71.5098V62.2362H73.3152V56.8341Z" fill="#FFE580"/>
<path d="M74.7795 56.8341H73.6963V62.2362H74.7795V56.8341Z" fill="#FFE580"/>
<path fill-rule="evenodd" clip-rule="evenodd" d="M62.4924 56.834L46.9629 62.2335H62.4924V56.834Z" fill="#FFE580"/>
</g>
<g filter="url(#filter2_d_9299_65876)">
<path d="M42.2646 56.275H13.0134C12.4159 56.275 11.9316 56.7593 11.9316 57.3568V61.6753C11.9316 62.2728 12.4159 62.7571 13.0134 62.7571H42.2646C42.8621 62.7571 43.3464 62.2728 43.3464 61.6753V57.3568C43.3464 56.7593 42.8621 56.275 42.2646 56.275Z" fill="url(#paint5_linear_9299_65876)" stroke="#FFE580" stroke-width="0.0566908"/>
<path d="M34.8606 56.8341H30.8887V62.2362H34.8606V56.8341Z" fill="#FFE580"/>
<path d="M38.1235 56.8341H35.957V62.2362H38.1235V56.8341Z" fill="#FFE580"/>
<path d="M40.6443 56.8341H38.8389V62.2362H40.6443V56.8341Z" fill="#FFE580"/>
<path d="M42.1086 56.8341H41.0254V62.2362H42.1086V56.8341Z" fill="#FFE580"/>
<path fill-rule="evenodd" clip-rule="evenodd" d="M29.8215 56.834L14.292 62.2335H29.8215V56.834Z" fill="#FFE580"/>
</g>
<path d="M39.333 49.4799H10.0817C9.48431 49.4799 9 49.9642 9 50.5616V54.8802C9 55.4776 9.48431 55.9619 10.0817 55.9619H39.333C39.9304 55.9619 40.4147 55.4776 40.4147 54.8802V50.5616C40.4147 49.9642 39.9304 49.4799 39.333 49.4799Z" fill="url(#paint6_linear_9299_65876)" stroke="#FFE580" stroke-width="0.0566908"/>
<path d="M31.9036 50.0016H27.9316V55.4037H31.9036V50.0016Z" fill="#FFE580"/>
<path d="M35.1665 50.0016H33V55.4037H35.1665V50.0016Z" fill="#FFE580"/>
<path d="M37.6882 50.0016H35.8828V55.4037H37.6882V50.0016Z" fill="#FFE580"/>
<path d="M39.1516 50.0016H38.0684V55.4037H39.1516V50.0016Z" fill="#FFE580"/>
<path fill-rule="evenodd" clip-rule="evenodd" d="M26.8644 50.0016L11.335 55.4011H26.8644V50.0016Z" fill="#FFE580"/>
<path d="M72.8252 49.455H43.5739C42.9765 49.455 42.4922 49.9393 42.4922 50.5367V54.8553C42.4922 55.4528 42.9765 55.9371 43.5739 55.9371H72.8252C73.4226 55.9371 73.9069 55.4528 73.9069 54.8553V50.5367C73.9069 49.9393 73.4226 49.455 72.8252 49.455Z" fill="url(#paint7_linear_9299_65876)" stroke="#FFE580" stroke-width="0.0566908"/>
<path d="M65.4455 50.0016H61.4736V55.4037H65.4455V50.0016Z" fill="#FFE580"/>
<path d="M68.7085 50.0016H66.542V55.4037H68.7085V50.0016Z" fill="#FFE580"/>
<path d="M71.2292 50.0016H69.4238V55.4037H71.2292V50.0016Z" fill="#FFE580"/>
<path d="M72.6936 50.0016H71.6104V55.4037H72.6936V50.0016Z" fill="#FFE580"/>
<path fill-rule="evenodd" clip-rule="evenodd" d="M60.4064 50.0016L44.877 55.4011H60.4064V50.0016Z" fill="#FFE580"/>
<path d="M78.6377 42.5977H49.3864C48.789 42.5977 48.3047 43.082 48.3047 43.6794V47.998C48.3047 48.5955 48.789 49.0798 49.3864 49.0798H78.6377C79.2351 49.0798 79.7194 48.5955 79.7194 47.998V43.6794C79.7194 43.082 79.2351 42.5977 78.6377 42.5977Z" fill="url(#paint8_linear_9299_65876)" stroke="#FFE580" stroke-width="0.0566908"/>
<path d="M71.1838 43.1567H67.2119V48.5588H71.1838V43.1567Z" fill="#FFE580"/>
<path d="M74.4468 43.1567H72.2803V48.5588H74.4468V43.1567Z" fill="#FFE580"/>
<path d="M76.9675 43.1567H75.1621V48.5588H76.9675V43.1567Z" fill="#FFE580"/>
<path d="M78.4319 43.1567H77.3486V48.5588H78.4319V43.1567Z" fill="#FFE580"/>
<path fill-rule="evenodd" clip-rule="evenodd" d="M66.1447 43.1567L50.6152 48.5562H66.1447V43.1567Z" fill="#FFE580"/>
<path d="M71.8057 35.8895H42.5544C41.957 35.8895 41.4727 36.3738 41.4727 36.9712V41.2898C41.4727 41.8872 41.957 42.3715 42.5544 42.3715H71.8057C72.4031 42.3715 72.8874 41.8872 72.8874 41.2898V36.9712C72.8874 36.3738 72.4031 35.8895 71.8057 35.8895Z" fill="url(#paint9_linear_9299_65876)" stroke="#FFE580" stroke-width="0.0566908"/>
<path d="M64.4016 36.436H60.4297V41.838H64.4016V36.436Z" fill="#FFE580"/>
<path d="M67.6636 36.4371H65.4971V41.8392H67.6636V36.4371Z" fill="#FFE580"/>
<path d="M70.1863 36.436H68.3809V41.838H70.1863V36.436Z" fill="#FFE580"/>
<path d="M71.6497 36.436H70.5664V41.838H71.6497V36.436Z" fill="#FFE580"/>
<path fill-rule="evenodd" clip-rule="evenodd" d="M59.3625 36.436L43.833 41.8355H59.3625V36.436Z" fill="#FFE580"/>
</g>
<defs>
<filter id="filter0_f_9299_65876" x="-6.59611" y="-13.5961" width="102.192" height="91.1922" filterUnits="userSpaceOnUse" color-interpolation-filters="sRGB">
<feFlood flood-opacity="0" result="BackgroundImageFix"/>
<feBlend mode="normal" in="SourceGraphic" in2="BackgroundImageFix" result="shape"/>
<feGaussianBlur stdDeviation="7.29806" result="effect1_foregroundBlur_9299_65876"/>
</filter>
<filter id="filter1_d_9299_65876" x="44.3645" y="56.1169" width="32.2504" height="7.31738" filterUnits="userSpaceOnUse" color-interpolation-filters="sRGB">
<feFlood flood-opacity="0" result="BackgroundImageFix"/>
<feColorMatrix in="SourceAlpha" type="matrix" values="0 0 0 0 0 0 0 0 0 0 0 0 0 0 0 0 0 0 127 0" result="hardAlpha"/>
<feOffset dx="0.12978" dy="0.259561"/>
<feGaussianBlur stdDeviation="0.19467"/>
<feColorMatrix type="matrix" values="0 0 0 0 0.164706 0 0 0 0 0.223529 0 0 0 0 0.305882 0 0 0 0.1 0"/>
<feBlend mode="normal" in2="BackgroundImageFix" result="effect1_dropShadow_9299_65876"/>
<feBlend mode="normal" in="SourceGraphic" in2="effect1_dropShadow_9299_65876" result="shape"/>
</filter>
<filter id="filter2_d_9299_65876" x="11.6438" y="56.1169" width="32.2504" height="7.31738" filterUnits="userSpaceOnUse" color-interpolation-filters="sRGB">
<feFlood flood-opacity="0" result="BackgroundImageFix"/>
<feColorMatrix in="SourceAlpha" type="matrix" values="0 0 0 0 0 0 0 0 0 0 0 0 0 0 0 0 0 0 127 0" result="hardAlpha"/>
<feOffset dx="0.12978" dy="0.259561"/>
<feGaussianBlur stdDeviation="0.19467"/>
<feColorMatrix type="matrix" values="0 0 0 0 0.164706 0 0 0 0 0.223529 0 0 0 0 0.305882 0 0 0 0.1 0"/>
<feBlend mode="normal" in2="BackgroundImageFix" result="effect1_dropShadow_9299_65876"/>
<feBlend mode="normal" in="SourceGraphic" in2="effect1_dropShadow_9299_65876" result="shape"/>
</filter>
<linearGradient id="paint0_linear_9299_65876" x1="51.1725" y1="18.995" x2="51.1725" y2="31.8976" gradientUnits="userSpaceOnUse">
<stop stop-color="#79E293"/>
<stop offset="1" stop-color="#6FB380"/>
</linearGradient>
<linearGradient id="paint1_linear_9299_65876" x1="63.8549" y1="18.995" x2="63.8549" y2="31.8976" gradientUnits="userSpaceOnUse">
<stop stop-color="#79E293"/>
<stop offset="1" stop-color="#6FB380"/>
</linearGradient>
<linearGradient id="paint2_linear_9299_65876" x1="17.6315" y1="31.9645" x2="17.6315" y2="44.867" gradientUnits="userSpaceOnUse">
<stop stop-color="#79E293"/>
<stop offset="1" stop-color="#6FB380"/>
</linearGradient>
<linearGradient id="paint3_linear_9299_65876" x1="30.3138" y1="31.9644" x2="30.3138" y2="44.867" gradientUnits="userSpaceOnUse">
<stop stop-color="#79E293"/>
<stop offset="1" stop-color="#6FB380"/>
</linearGradient>
<linearGradient id="paint4_linear_9299_65876" x1="45.1646" y1="59.5161" x2="75.6114" y2="59.5161" gradientUnits="userSpaceOnUse">
<stop stop-color="#FFE580"/>
<stop offset="1" stop-color="#FFCC02"/>
</linearGradient>
<linearGradient id="paint5_linear_9299_65876" x1="12.4439" y1="59.5161" x2="42.8907" y2="59.5161" gradientUnits="userSpaceOnUse">
<stop stop-color="#FFE580"/>
<stop offset="1" stop-color="#FFCC02"/>
</linearGradient>
<linearGradient id="paint6_linear_9299_65876" x1="9.5123" y1="52.7209" x2="39.9591" y2="52.7209" gradientUnits="userSpaceOnUse">
<stop stop-color="#FFE580"/>
<stop offset="1" stop-color="#FFCC02"/>
</linearGradient>
<linearGradient id="paint7_linear_9299_65876" x1="43.0045" y1="52.696" x2="73.4512" y2="52.696" gradientUnits="userSpaceOnUse">
<stop stop-color="#FFE580"/>
<stop offset="1" stop-color="#FFCC02"/>
</linearGradient>
<linearGradient id="paint8_linear_9299_65876" x1="48.817" y1="45.8387" x2="79.2637" y2="45.8387" gradientUnits="userSpaceOnUse">
<stop stop-color="#FFE580"/>
<stop offset="1" stop-color="#FFCC02"/>
</linearGradient>
<linearGradient id="paint9_linear_9299_65876" x1="41.985" y1="39.1305" x2="72.4317" y2="39.1305" gradientUnits="userSpaceOnUse">
<stop stop-color="#FFE580"/>
<stop offset="1" stop-color="#FFCC02"/>
</linearGradient>
<clipPath id="clip0_9299_65876">
<rect width="89" height="63" fill="white"/>
</clipPath>
</defs>
</svg>
