<svg width="29" height="28" viewBox="0 0 29 28" fill="none" xmlns="http://www.w3.org/2000/svg">
<path d="M0.800049 4C0.800049 1.79086 2.59091 0 4.80005 0H24.8C27.0092 0 28.8 1.79086 28.8 4V24C28.8 26.2091 27.0092 28 24.8 28H4.80005C2.59091 28 0.800049 26.2091 0.800049 24V4Z" fill="#3D3400"/>
<path d="M10.2049 15.1487C9.89088 15.1487 9.6305 14.8883 9.6305 14.5744C9.6305 14.2604 9.89088 14 10.2049 14H13.2681C13.5821 14 13.8425 14.2604 13.8425 14.5744C13.8425 14.8883 13.5821 15.1487 13.2681 15.1487H10.2049Z" fill="#8F7900"/>
<path d="M9.6305 11.1281C9.6305 11.4421 9.83606 11.7025 10.0839 11.7025H14.9206C15.1685 11.7025 15.3741 11.4421 15.3741 11.1281C15.3741 10.8142 15.1685 10.5538 14.9206 10.5538H10.0839C9.83606 10.5538 9.6305 10.8142 9.6305 11.1281Z" fill="#8F7900"/>
<path fill-rule="evenodd" clip-rule="evenodd" d="M6.80029 8.66667C6.80029 7.19391 7.9942 6 9.46696 6H16.6875C18.1602 6 19.3541 7.19391 19.3541 8.66667V11.1689H20.7745C21.8938 11.1689 22.8011 12.0762 22.8011 13.1955V19.7432C22.8011 20.9572 21.8424 21.9473 20.6408 21.9976V22L9.46696 22C7.9942 22 6.80029 20.8061 6.80029 19.3333V8.66667ZM18.2875 20.9333V8.66667C18.2875 7.78301 17.5711 7.06667 16.6875 7.06667H9.46696C8.5833 7.06667 7.86696 7.78301 7.86696 8.66667V19.3333C7.86696 20.217 8.5833 20.9333 9.46696 20.9333H18.2875ZM19.355 12.2355V19.7432C19.355 20.4003 19.8876 20.933 20.5447 20.933C21.2018 20.933 21.7345 20.4003 21.7345 19.7432V13.1955C21.7345 12.6654 21.3047 12.2355 20.7745 12.2355H19.355Z" fill="#8F7900"/>
</svg>
