<svg width="89" height="63" viewBox="0 0 89 63" fill="none" xmlns="http://www.w3.org/2000/svg">
<g clip-path="url(#clip0_8340_231968)">
<rect width="89" height="63" fill="white"/>
<g filter="url(#filter0_f_8340_231968)">
<ellipse cx="47.5" cy="32.5" rx="36.5" ry="30.5" fill="#F6EFFB"/>
</g>
<rect x="16.2344" y="27.9429" width="40.0068" height="29.7193" rx="14.8597" fill="#B8ABFF"/>
<rect x="10.8984" y="37.8491" width="17.5268" height="11.4305" rx="5.71525" fill="#B8ABFF"/>
<path d="M21.9779 23.2889C21.9779 22.7027 22.4545 22.2214 23.037 22.2868C23.9206 22.3859 24.7877 22.6089 25.6124 22.9505C26.7647 23.4278 27.8117 24.1274 28.6936 25.0093C29.5755 25.8912 30.2751 26.9382 30.7524 28.0905C31.094 28.9152 31.3169 29.7822 31.4161 30.6658C31.4814 31.2483 31.0001 31.725 30.414 31.725L23.0392 31.725C22.4531 31.725 21.9779 31.2498 21.9779 30.6636V23.2889Z" fill="#B8ABFF"/>
<path d="M35.8114 51.7123C36.2762 50.5465 35.4175 49.2798 34.1626 49.2798H29.5675C28.6366 49.2798 27.8638 49.999 27.797 50.9276L27.0364 61.5072C26.9625 62.535 27.7764 63.4096 28.8069 63.4096H29.9445C30.6711 63.4096 31.3243 62.9668 31.5934 62.2919L35.8114 51.7123Z" fill="#B8ABFF"/>
<path d="M39.3018 51.7123C38.8371 50.5465 39.6958 49.2798 40.9507 49.2798H45.5457C46.4767 49.2798 47.2495 49.999 47.3163 50.9276L48.0769 61.5072C48.1508 62.535 47.3369 63.4096 46.3064 63.4096H45.1687C44.4422 63.4096 43.7889 62.9668 43.5199 62.2919L39.3018 51.7123Z" fill="#B8ABFF"/>
<path fill-rule="evenodd" clip-rule="evenodd" d="M33.6523 57.3786H41.6083C49.7686 57.3786 56.3838 50.7634 56.3838 42.6031C56.3838 34.4429 49.7686 27.8276 41.6083 27.8276H33.6523C41.8126 27.8276 48.4278 34.4429 48.4278 42.6031C48.4278 50.7634 41.8126 57.3786 33.6523 57.3786Z" fill="#A291FF"/>
<circle cx="24.4849" cy="37.3618" r="2.03174" fill="white"/>
<path d="M32.9961 31.7529H49.7608V31.8829C49.7608 32.8633 48.9661 33.658 47.9857 33.658H34.7712C33.7908 33.658 32.9961 32.8633 32.9961 31.8829V31.7529Z" fill="#8D78FF"/>
<mask id="mask0_8340_231968" style="mask-type:alpha" maskUnits="userSpaceOnUse" x="32" y="24" width="19" height="9">
<rect x="32.6172" y="24.1323" width="17.5268" height="8.38237" fill="#D9D9D9"/>
</mask>
<g mask="url(#mask0_8340_231968)">
<circle cx="41.3817" cy="32.1337" r="6.8583" fill="url(#paint0_linear_8340_231968)" stroke="url(#paint1_linear_8340_231968)" stroke-width="1.19007"/>
<mask id="mask1_8340_231968" style="mask-type:alpha" maskUnits="userSpaceOnUse" x="34" y="25" width="15" height="14">
<circle cx="41.2903" cy="32.0422" r="6.76686" fill="#FFD322"/>
<circle cx="41.2903" cy="32.0422" r="6.76686" stroke="#FFE580"/>
</mask>
<g mask="url(#mask1_8340_231968)">
<rect width="4.06071" height="21.0321" transform="matrix(-0.707107 -0.707107 -0.707107 0.707107 52.6719 26.9067)" fill="white" fill-opacity="0.25"/>
<rect width="1.26508" height="21.0321" transform="matrix(-0.707107 -0.707107 -0.707107 0.707107 47.7305 25.2554)" fill="white" fill-opacity="0.25"/>
</g>
<path d="M43.2323 27.3974C43.9964 26.6698 44.2966 24.9141 44.2966 24.9141C44.2966 24.9141 44.5088 26.6636 45.2427 27.3974C45.9765 28.1313 47.7261 28.3435 47.7261 28.3435C47.7261 28.3435 46.0961 28.429 45.3609 29.053C44.4914 29.7912 44.2966 31.7729 44.2966 31.7729C44.2966 31.7729 44.1019 29.7912 43.2323 29.053C42.4972 28.429 40.8672 28.3435 40.8672 28.3435C40.8672 28.3435 42.5119 28.0835 43.2323 27.3974Z" fill="white"/>
</g>
<circle cx="36.1932" cy="11.432" r="4.31819" fill="url(#paint2_linear_8340_231968)" stroke="url(#paint3_linear_8340_231968)" stroke-width="0.749306"/>
<mask id="mask2_8340_231968" style="mask-type:alpha" maskUnits="userSpaceOnUse" x="31" y="7" width="10" height="9">
<circle cx="36.1356" cy="11.3744" r="4.26061" fill="#FFD322"/>
<circle cx="36.1356" cy="11.3744" r="4.26061" stroke="#FFE580"/>
</mask>
<g mask="url(#mask2_8340_231968)">
<rect width="2.55674" height="13.2424" transform="matrix(-0.707107 -0.707107 -0.707107 0.707107 43.3047 8.14111)" fill="white" fill-opacity="0.25"/>
<rect width="0.796533" height="13.2424" transform="matrix(-0.707107 -0.707107 -0.707107 0.707107 40.1914 7.10107)" fill="white" fill-opacity="0.25"/>
</g>
<path d="M37.2481 9.31419C37.8267 8.76314 38.054 7.43359 38.054 7.43359C38.054 7.43359 38.2147 8.75847 38.7705 9.31419C39.3262 9.86991 40.6511 10.0306 40.6511 10.0306C40.6511 10.0306 39.4167 10.0953 38.86 10.5679C38.2015 11.1269 38.054 12.6276 38.054 12.6276C38.054 12.6276 37.9066 11.1269 37.2481 10.5679C36.6914 10.0953 35.457 10.0306 35.457 10.0306C35.457 10.0306 36.7026 9.83372 37.2481 9.31419Z" fill="white"/>
<path d="M80.4535 48.9819H50.4682C49.8558 48.9819 49.3594 49.4784 49.3594 50.0908V54.5178C49.3594 55.1302 49.8558 55.6266 50.4682 55.6266H80.4535C81.0659 55.6266 81.5623 55.1302 81.5623 54.5178V50.0908C81.5623 49.4784 81.0659 48.9819 80.4535 48.9819Z" fill="url(#paint4_linear_8340_231968)" stroke="#FFE580" stroke-width="0.916518"/>
<path d="M72.8606 49.5356H68.7891V55.0733H72.8606V49.5356Z" fill="#FFE580"/>
<path d="M76.1935 49.5356H73.9727V55.0733H76.1935V49.5356Z" fill="#FFE580"/>
<path d="M78.7843 49.5356H76.9336V55.0733H78.7843V49.5356Z" fill="#FFE580"/>
<path d="M80.2628 49.5356H79.1523V55.0733H80.2628V49.5356Z" fill="#FFE580"/>
<path fill-rule="evenodd" clip-rule="evenodd" d="M67.6769 49.5356L51.7578 55.0706H67.6769V49.5356Z" fill="#FFE580"/>
<path d="M74.0941 42H44.1089C43.4965 42 43 42.4965 43 43.1089V47.5358C43 48.1482 43.4965 48.6447 44.1089 48.6447H74.0941C74.7065 48.6447 75.203 48.1482 75.203 47.5358V43.1089C75.203 42.4965 74.7065 42 74.0941 42Z" fill="url(#paint5_linear_8340_231968)" stroke="#FFE580" stroke-width="0.916518"/>
<path d="M66.5013 42.5537H62.4297V48.0913H66.5013V42.5537Z" fill="#FFE580"/>
<path d="M69.8341 42.5537H67.6133V48.0913H69.8341V42.5537Z" fill="#FFE580"/>
<path d="M72.4249 42.5537H70.5742V48.0913H72.4249V42.5537Z" fill="#FFE580"/>
<path d="M73.9034 42.5537H72.793V48.0913H73.9034V42.5537Z" fill="#FFE580"/>
<path fill-rule="evenodd" clip-rule="evenodd" d="M61.3176 42.5537L45.3984 48.0887H61.3176V42.5537Z" fill="#FFE580"/>
<path d="M71.4261 55.9639H41.4409C40.8285 55.9639 40.332 56.4603 40.332 57.0727V61.4997C40.332 62.1121 40.8285 62.6086 41.4409 62.6086H71.4261C72.0385 62.6086 72.535 62.1121 72.535 61.4997V57.0727C72.535 56.4603 72.0385 55.9639 71.4261 55.9639Z" fill="url(#paint6_linear_8340_231968)" stroke="#FFE580" stroke-width="0.916518"/>
<path d="M63.8372 56.5171H59.7656V62.0547H63.8372V56.5171Z" fill="#FFE580"/>
<path d="M67.1701 56.5171H64.9492V62.0547H67.1701V56.5171Z" fill="#FFE580"/>
<path d="M69.7609 56.5171H67.9102V62.0547H69.7609V56.5171Z" fill="#FFE580"/>
<path d="M71.2432 56.5171H70.1328V62.0547H71.2432V56.5171Z" fill="#FFE580"/>
<path fill-rule="evenodd" clip-rule="evenodd" d="M58.6535 56.5171L42.7344 62.0521H58.6535V56.5171Z" fill="#FFE580"/>
<path d="M54.6399 46.8435C56.0568 45.4941 56.6135 42.2383 56.6135 42.2383C56.6135 42.2383 57.0071 45.4827 58.3679 46.8435C59.7288 48.2044 62.9732 48.5979 62.9732 48.5979C62.9732 48.5979 59.9505 48.7564 58.5872 49.9137C56.9747 51.2826 56.6135 54.9576 56.6135 54.9576C56.6135 54.9576 56.2524 51.2826 54.6399 49.9137C53.2766 48.7564 50.2539 48.5979 50.2539 48.5979C50.2539 48.5979 53.304 48.1158 54.6399 46.8435Z" fill="white"/>
</g>
<defs>
<filter id="filter0_f_8340_231968" x="-3.59611" y="-12.5961" width="102.192" height="90.1922" filterUnits="userSpaceOnUse" color-interpolation-filters="sRGB">
<feFlood flood-opacity="0" result="BackgroundImageFix"/>
<feBlend mode="normal" in="SourceGraphic" in2="BackgroundImageFix" result="shape"/>
<feGaussianBlur stdDeviation="7.29806" result="effect1_foregroundBlur_8340_231968"/>
</filter>
<linearGradient id="paint0_linear_8340_231968" x1="34.7471" y1="32.1337" x2="48.0411" y2="32.1337" gradientUnits="userSpaceOnUse">
<stop stop-color="#FFE580"/>
<stop offset="1" stop-color="#FFCC02"/>
</linearGradient>
<linearGradient id="paint1_linear_8340_231968" x1="36.1694" y1="28.293" x2="46.2283" y2="36.7973" gradientUnits="userSpaceOnUse">
<stop offset="0.0294125" stop-color="#FFCC02"/>
<stop offset="0.938935" stop-color="#FFE580"/>
</linearGradient>
<linearGradient id="paint2_linear_8340_231968" x1="32.0158" y1="11.432" x2="40.3861" y2="11.432" gradientUnits="userSpaceOnUse">
<stop stop-color="#FFE580"/>
<stop offset="1" stop-color="#FFCC02"/>
</linearGradient>
<linearGradient id="paint3_linear_8340_231968" x1="32.9114" y1="9.01377" x2="39.2447" y2="14.3683" gradientUnits="userSpaceOnUse">
<stop offset="0.0294125" stop-color="#FFCC02"/>
<stop offset="0.938935" stop-color="#FFE580"/>
</linearGradient>
<linearGradient id="paint4_linear_8340_231968" x1="49.8845" y1="52.3043" x2="81.0952" y2="52.3043" gradientUnits="userSpaceOnUse">
<stop stop-color="#FFE580"/>
<stop offset="1" stop-color="#FFCC02"/>
</linearGradient>
<linearGradient id="paint5_linear_8340_231968" x1="43.5252" y1="45.3223" x2="74.7359" y2="45.3223" gradientUnits="userSpaceOnUse">
<stop stop-color="#FFE580"/>
<stop offset="1" stop-color="#FFCC02"/>
</linearGradient>
<linearGradient id="paint6_linear_8340_231968" x1="40.8572" y1="59.2862" x2="72.0679" y2="59.2862" gradientUnits="userSpaceOnUse">
<stop stop-color="#FFE580"/>
<stop offset="1" stop-color="#FFCC02"/>
</linearGradient>
<clipPath id="clip0_8340_231968">
<rect width="89" height="63" fill="white"/>
</clipPath>
</defs>
</svg>
