<svg width="28" height="28" viewBox="0 0 28 28" fill="none" xmlns="http://www.w3.org/2000/svg">
<path d="M0 4C0 1.79086 1.79086 0 4 0H24C26.2091 0 28 1.79086 28 4V24C28 26.2091 26.2091 28 24 28H4C1.79086 28 0 26.2091 0 24V4Z" fill="#FFF9D6"/>
<path fill-rule="evenodd" clip-rule="evenodd" d="M16.2278 20.0684C15.8401 20.0385 15.4003 19.964 14.9455 19.8522L13.6931 19.554C10.2564 18.7414 9.13069 16.9224 9.93582 13.4931L10.6664 10.3695C10.8304 9.66131 11.0242 9.08728 11.2628 8.61016C12.545 5.96367 14.9977 6.20223 16.7422 6.61225L17.9871 6.90299C19.7316 7.31301 20.8349 7.96159 21.4537 8.95309C22.065 9.94459 22.1619 11.2194 21.7519 12.9638L21.0213 16.08C20.3801 18.8085 19.0457 20.0982 16.8391 20.0982C16.6452 20.0982 16.444 20.0907 16.2278 20.0684ZM12.2692 9.09473C12.0754 9.4973 11.9039 9.99678 11.7548 10.623L11.0242 13.7466C10.3608 16.5645 11.1286 17.7946 13.9466 18.4655L15.199 18.7637C15.6016 18.8607 15.9818 18.9203 16.3247 18.9501C18.3524 19.1514 19.3588 18.2643 19.9254 15.8265L20.656 12.7104C20.9914 11.2716 20.9467 10.2652 20.4994 9.54203C20.0521 8.8189 19.1725 8.32688 17.7262 7.99141L16.4812 7.70067C15.8625 7.55157 15.3108 7.47702 14.8337 7.47702C13.5887 7.47702 12.7985 7.99141 12.2692 9.09473Z" fill="#B89C00"/>
<path fill-rule="evenodd" clip-rule="evenodd" d="M7.34077 18.0704L6.38655 15.1257C5.32795 11.8455 6.27472 9.99671 9.53997 8.93812L10.7178 8.55791C11.1055 8.43864 11.3962 8.35663 11.6572 8.3119C11.8734 8.26717 12.0821 8.34918 12.2088 8.52064C12.3356 8.6921 12.3579 8.91575 12.2685 9.10958C12.0746 9.50469 11.9032 10.0042 11.7615 10.6304L11.031 13.754C10.3675 16.5719 11.1353 17.802 13.9533 18.4729L15.2057 18.7711C15.6083 18.868 15.9885 18.9277 16.3314 18.9575C16.5699 18.9799 16.7638 19.1439 16.8309 19.375C16.8905 19.6061 16.801 19.8446 16.6072 19.9788C16.1152 20.3143 15.4964 20.5976 14.7137 20.8511L13.5358 21.2387C12.6785 21.5071 11.933 21.6413 11.2621 21.6413C9.34614 21.6413 8.12354 20.4932 7.34077 18.0704ZM9.89035 10.0042C7.22895 10.8615 6.59528 12.1139 7.4526 14.7828L8.40683 17.7274C9.27159 20.3889 10.524 21.03 13.1854 20.1727L14.3633 19.785C14.408 19.7701 14.4453 19.7552 14.49 19.7403L13.6998 19.5539C10.2631 18.7413 9.13741 16.9223 9.94254 13.4931L10.6731 10.3695C10.7253 10.1309 10.7849 9.8998 10.852 9.69106L9.89035 10.0042Z" fill="#B89C00"/>
<path d="M17.9493 12.8744L14.3337 11.9574C14.0355 11.8829 13.8566 11.5772 13.9311 11.279C14.0057 10.9808 14.3113 10.8019 14.6095 10.8765L18.2252 11.7934C18.5234 11.868 18.7023 12.1736 18.6277 12.4718C18.5681 12.7178 18.337 12.8893 18.091 12.8893C18.0463 12.8893 18.0015 12.8818 17.9493 12.8744Z" fill="#B89C00"/>
<path d="M15.7649 15.394L13.5955 14.8424C13.2973 14.7678 13.1184 14.4622 13.1929 14.164C13.2675 13.8658 13.5731 13.6869 13.8713 13.7614L16.0407 14.3131C16.3389 14.3876 16.5178 14.6933 16.4433 14.9915C16.3836 15.2449 16.16 15.4089 15.9065 15.4089C15.8618 15.4089 15.8171 15.4015 15.7649 15.394Z" fill="#B89C00"/>
</svg>
