<svg width="28" height="28" viewBox="0 0 28 28" fill="none" xmlns="http://www.w3.org/2000/svg">
<path d="M0 4C0 1.79086 1.79086 0 4 0H24C26.2091 0 28 1.79086 28 4V24C28 26.2091 26.2091 28 24 28H4C1.79086 28 0 26.2091 0 24V4Z" fill="#3D3400"/>
<path fill-rule="evenodd" clip-rule="evenodd" d="M16.2279 20.0684C15.8402 20.0385 15.4004 19.964 14.9456 19.8522L13.6932 19.554C10.2565 18.7414 9.13082 16.9224 9.93595 13.4931L10.6665 10.3695C10.8305 9.66131 11.0244 9.08728 11.2629 8.61016C12.5452 5.96367 14.9978 6.20223 16.7423 6.61225L17.9872 6.90299C19.7317 7.31301 20.835 7.96159 21.4538 8.95309C22.0651 9.94459 22.162 11.2194 21.752 12.9638L21.0214 16.08C20.3803 18.8085 19.0458 20.0982 16.8392 20.0982C16.6454 20.0982 16.4441 20.0907 16.2279 20.0684ZM12.2693 9.09473C12.0755 9.4973 11.904 9.99678 11.7549 10.623L11.0244 13.7466C10.3609 16.5645 11.1287 17.7946 13.9467 18.4655L15.1991 18.7637C15.6017 18.8607 15.9819 18.9203 16.3248 18.9501C18.3525 19.1514 19.3589 18.2643 19.9255 15.8265L20.6561 12.7104C20.9916 11.2716 20.9468 10.2652 20.4995 9.54203C20.0523 8.8189 19.1726 8.32688 17.7263 7.99141L16.4814 7.70067C15.8626 7.55157 15.3109 7.47702 14.8338 7.47702C13.5889 7.47702 12.7986 7.99141 12.2693 9.09473Z" fill="#8F7900"/>
<path fill-rule="evenodd" clip-rule="evenodd" d="M7.3409 18.0704L6.38667 15.1257C5.32807 11.8455 6.27484 9.99671 9.54009 8.93812L10.718 8.55791C11.1056 8.43864 11.3964 8.35663 11.6573 8.3119C11.8735 8.26717 12.0822 8.34918 12.2089 8.52064C12.3357 8.6921 12.358 8.91575 12.2686 9.10958C12.0748 9.50469 11.9033 10.0042 11.7617 10.6304L11.0311 13.754C10.3676 16.5719 11.1354 17.802 13.9534 18.4729L15.2058 18.7711C15.6084 18.868 15.9886 18.9277 16.3315 18.9575C16.5701 18.9799 16.7639 19.1439 16.831 19.375C16.8906 19.6061 16.8012 19.8446 16.6073 19.9788C16.1153 20.3143 15.4966 20.5976 14.7138 20.8511L13.5359 21.2387C12.6786 21.5071 11.9331 21.6413 11.2622 21.6413C9.34627 21.6413 8.12366 20.4932 7.3409 18.0704ZM9.89047 10.0042C7.22907 10.8615 6.59541 12.1139 7.45272 14.7828L8.40695 17.7274C9.27172 20.3889 10.5241 21.03 13.1855 20.1727L14.3634 19.785C14.4081 19.7701 14.4454 19.7552 14.4902 19.7403L13.6999 19.5539C10.2632 18.7413 9.13753 16.9223 9.94266 13.4931L10.6732 10.3695C10.7254 10.1309 10.7851 9.8998 10.8522 9.69106L9.89047 10.0042Z" fill="#8F7900"/>
<path d="M17.9495 12.8744L14.3338 11.9574C14.0356 11.8829 13.8567 11.5772 13.9313 11.279C14.0058 10.9808 14.3115 10.8019 14.6097 10.8765L18.2253 11.7934C18.5235 11.868 18.7024 12.1736 18.6279 12.4718C18.5682 12.7178 18.3371 12.8893 18.0911 12.8893C18.0464 12.8893 18.0016 12.8818 17.9495 12.8744Z" fill="#8F7900"/>
<path d="M15.765 15.394L13.5956 14.8424C13.2974 14.7678 13.1185 14.4622 13.1931 14.164C13.2676 13.8658 13.5733 13.6869 13.8715 13.7614L16.0408 14.3131C16.339 14.3876 16.5179 14.6933 16.4434 14.9915C16.3838 15.2449 16.1601 15.4089 15.9066 15.4089C15.8619 15.4089 15.8172 15.4015 15.765 15.394Z" fill="#8F7900"/>
</svg>
