<svg width="131" height="81" viewBox="0 0 131 81" fill="none" xmlns="http://www.w3.org/2000/svg">
<mask id="mask0_356_4425" style="mask-type:alpha" maskUnits="userSpaceOnUse" x="0" y="0" width="131" height="81">
<rect x="0.300781" y="0.410828" width="130.667" height="80" fill="#D9D9D9"/>
</mask>
<g mask="url(#mask0_356_4425)">
<mask id="mask1_356_4425" style="mask-type:alpha" maskUnits="userSpaceOnUse" x="45" y="-43" width="150" height="65">
<rect x="194.514" y="21.7866" width="149.475" height="64.6154" rx="16" transform="rotate(-180 194.514 21.7866)" fill="#F0F0F0"/>
</mask>
<g mask="url(#mask1_356_4425)">
<path d="M146.499 62.5672C134.854 62.2721 125.467 52.8855 125.172 41.2401L125.165 40.6746C125.165 28.5801 134.97 18.7752 147.064 18.7752L147.63 18.782C159.463 19.082 168.964 28.7691 168.964 40.6746L168.957 41.2401C168.657 53.0733 158.97 62.574 147.064 62.574L146.499 62.5672ZM147.064 61.574C158.607 61.574 167.964 52.2169 167.964 40.6746C167.964 29.1324 158.607 19.7753 147.064 19.7752C135.522 19.7752 126.165 29.1324 126.165 40.6746C126.165 52.217 135.522 61.574 147.064 61.574Z" fill="url(#paint0_linear_356_4425)"/>
<path d="M95.4639 22.1326L94.9492 22.1199C89.8362 21.8605 85.7358 17.7603 85.4766 12.6473L85.4639 12.1326V-19.3654C85.4639 -24.7155 89.6657 -29.0847 94.9492 -29.3527L95.4639 -29.3654H114.897L115.412 -29.3527C120.696 -29.085 124.897 -24.7157 124.897 -19.3654V12.1326L124.885 12.6473C124.625 17.7605 120.525 21.8608 115.412 22.1199L114.897 22.1326H95.4639ZM114.897 21.1326C119.868 21.1326 123.897 17.1031 123.897 12.1326V-19.3654C123.897 -24.336 119.868 -28.3654 114.897 -28.3654H95.4639C90.6488 -28.3652 86.7165 -24.5836 86.4756 -19.8283L86.4639 -19.3654V12.1326C86.464 17.103 90.4936 21.1324 95.4639 21.1326H114.897Z" fill="url(#paint1_linear_356_4425)"/>
<path d="M51.834 82.8992C46.5505 82.6312 42.3487 78.262 42.3486 72.9119V25.3787L42.3623 24.8641C42.6214 19.7509 46.7208 15.6508 51.834 15.3914L52.3486 15.3787H98.4756L98.9902 15.3914C104.103 15.6507 108.204 19.7508 108.463 24.8641L108.476 25.3787V72.9119C108.475 78.2621 104.274 82.6314 98.9902 82.8992L98.4756 82.9119H52.3486L51.834 82.8992ZM98.4756 81.9119C103.446 81.9119 107.475 77.8824 107.476 72.9119V25.3787C107.476 20.4082 103.446 16.3788 98.4756 16.3787H52.3486C47.3782 16.3789 43.3486 20.4083 43.3486 25.3787V72.9119C43.3487 77.8823 47.3783 81.9118 52.3486 81.9119H98.4756Z" fill="url(#paint2_linear_356_4425)"/>
</g>
<path opacity="0.4" d="M92.0386 61.4854C95.3216 61.4854 97.9838 64.1468 97.9839 67.4297V69.3057H133.897V79.4532H97.9839V82.2569H72.9517L72.9526 84.1026H48.0444L48.0435 80.4542H32.354V85.0665H14.8267V80.5772C14.8268 77.9615 16.9473 75.8409 19.563 75.8409H31.9214C31.9871 73.2824 34.0805 71.2286 36.6548 71.2286H48.0405L48.0396 68.9249C48.0382 64.8481 51.3427 61.5421 55.4194 61.5421H71.6733V61.4854H92.0386Z" fill="#E6E1DB"/>
<path d="M119.993 49.4098L120.115 49.8984C120.194 50.2185 120.444 50.4684 120.764 50.5481L121.253 50.6698L120.764 50.7915C120.444 50.8712 120.194 51.1212 120.115 51.4412L119.993 51.9298L119.871 51.4412C119.792 51.1212 119.542 50.8712 119.222 50.7915L118.733 50.6698L119.222 50.5481C119.542 50.4684 119.792 50.2185 119.871 49.8984L119.993 49.4098Z" fill="#CA7868"/>
<path d="M115.429 64.8421H110.322L105.753 69.4137H110.86L115.429 64.8421Z" fill="#E6E1DB"/>
<path d="M111.13 97.6504L110.861 69.4141H105.754V97.6504H111.13Z" fill="#E6E1DB"/>
<path d="M119.998 69.1448L115.429 64.8421L110.86 69.4137V97.6499H119.998V69.1448Z" fill="#937962"/>
<path d="M85.9669 38.0172H77.5571L86.3101 44.3707H94.5483L85.9669 38.0172Z" fill="#CA7868"/>
<path d="M84.0151 26.0254H85.8602V39.8631C85.8602 40.3726 85.4471 40.7856 84.9377 40.7856C84.4282 40.7856 84.0151 40.3726 84.0151 39.8631V26.0254Z" fill="#EBCAC1"/>
<path d="M84.0151 27.8704H93.2403L91.3184 31.0992L93.2403 34.328H84.0151V27.8704Z" fill="#CA7868"/>
<rect width="8.92471" height="1.71768" transform="matrix(1 8.7468e-08 8.73775e-08 -1 89.0144 57.4211)" fill="#EBCAC1"/>
<rect width="8.92471" height="25.0708" transform="matrix(-1 0 0 1 99.3967 55.5458)" fill="#C5D1D3"/>
<rect width="8.92471" height="25.0708" transform="matrix(-1 0 0 1 108.323 55.6079)" fill="#608080"/>
<rect opacity="0.2" x="103" y="63.6898" width="3.77287" height="5.66223" fill="white"/>
<rect opacity="0.2" x="103" y="72.1816" width="3.77287" height="5.66223" fill="white"/>
<path d="M86.4817 44.3707L77.557 38.0172V89.0775H86.4817V44.3707Z" fill="#EBCAC1"/>
<rect opacity="0.2" x="93.4475" y="63.8475" width="3.77287" height="5.66223" fill="white"/>
<rect opacity="0.2" x="113.743" y="76.7636" width="3.77287" height="5.66223" fill="white"/>
<rect opacity="0.2" x="80.323" y="49.0873" width="3.77287" height="5.66223" fill="white"/>
<rect opacity="0.2" x="93.4475" y="72.3394" width="3.77287" height="5.66223" fill="white"/>
<rect opacity="0.2" x="80.323" y="57.5782" width="3.77287" height="5.66223" fill="white"/>
<rect width="9.22513" height="29.5204" transform="matrix(-1 0 0 1 71.1016 59.2358)" fill="#C5D1D3"/>
<rect width="8.30262" height="29.5204" transform="matrix(-1 0 0 1 79.4043 59.2358)" fill="#608080"/>
<rect opacity="0.2" x="74.4026" y="67.3799" width="3.77287" height="5.66223" fill="white"/>
<rect opacity="0.2" x="74.4026" y="75.8717" width="3.77287" height="5.66223" fill="white"/>
<rect width="8.92471" height="1.71768" transform="matrix(1 8.7468e-08 8.73775e-08 -1 99.3975 57.2638)" fill="#608080"/>
<path d="M94.7214 44.3712H86.4832V89.078H94.7214V44.3712Z" fill="#CA7868"/>
<rect x="41.522" y="53.7008" width="3.34411" height="26.7529" fill="#C5D1D3"/>
<path d="M41.522 57.0449H58.2425L54.7591 62.8971L58.2425 68.7493H41.522V57.0449Z" fill="#608080"/>
</g>
<defs>
<linearGradient id="paint0_linear_356_4425" x1="162.24" y1="30.0137" x2="174.699" y2="18.968" gradientUnits="userSpaceOnUse">
<stop stop-color="#F0F0F0"/>
<stop offset="1" stop-color="#EBCAC1"/>
</linearGradient>
<linearGradient id="paint1_linear_356_4425" x1="118.844" y1="-16.1514" x2="146.201" y2="-21.5683" gradientUnits="userSpaceOnUse">
<stop stop-color="#F0F0F0"/>
<stop offset="1" stop-color="#CA7868"/>
</linearGradient>
<linearGradient id="paint2_linear_356_4425" x1="98.3247" y1="32.7073" x2="133.286" y2="-9.42109" gradientUnits="userSpaceOnUse">
<stop stop-color="#F0F0F0"/>
<stop offset="1" stop-color="#CA7868"/>
</linearGradient>
</defs>
</svg>
