<svg width="29" height="28" viewBox="0 0 29 28" fill="none" xmlns="http://www.w3.org/2000/svg">
<path d="M0.199951 4C0.199951 1.79086 1.99081 0 4.19995 0H24.2C26.4091 0 28.2 1.79086 28.2 4V24C28.2 26.2091 26.4091 28 24.2 28H4.19995C1.99081 28 0.199951 26.2091 0.199951 24V4Z" fill="#F3F6F6"/>
<path d="M6.19995 16.2326C6.19995 20.2735 7.92646 22 11.9674 22H14.9441C15.2493 22 15.5023 21.747 15.5023 21.4419C15.5023 21.1367 15.2493 20.8837 14.9441 20.8837H11.9674C8.5367 20.8837 7.31623 19.6633 7.31623 16.2326V11.7674C7.31623 8.33674 8.5367 7.11628 11.9674 7.11628H16.4325C19.8632 7.11628 21.0837 8.33674 21.0837 11.7674V14.7442C21.0837 15.0493 21.3367 15.3023 21.6418 15.3023C21.9469 15.3023 22.2 15.0493 22.2 14.7442V11.7674C22.2 7.72651 20.4734 6 16.4325 6H11.9674C7.92646 6 6.19995 7.72651 6.19995 11.7674V16.2326Z" fill="#608080"/>
<path d="M13.4558 13.0698V15.4586C13.4558 15.7637 13.7088 16.0168 14.0139 16.0168C14.319 16.0168 14.572 15.7712 14.572 15.4586V13.0698C14.572 12.7647 14.319 12.5116 14.0139 12.5116C13.7088 12.5116 13.4558 12.7647 13.4558 13.0698Z" fill="#608080"/>
<path d="M10.4788 17.2968V12.3256C10.4788 12.0205 10.7318 11.7674 11.0369 11.7674C11.342 11.7674 11.595 12.0205 11.595 12.3256V17.2968C11.595 17.6019 11.342 17.8549 11.0369 17.8549C10.7318 17.8549 10.4788 17.6019 10.4788 17.2968Z" fill="#608080"/>
<path d="M15.6883 10.093V12.4819C15.6883 12.787 15.9413 13.04 16.2465 13.04C16.5516 13.04 16.8046 12.7944 16.8046 12.4819V10.093C16.8046 9.78791 16.5516 9.53489 16.2465 9.53489C15.9413 9.53489 15.6883 9.78791 15.6883 10.093Z" fill="#608080"/>
<path fill-rule="evenodd" clip-rule="evenodd" d="M18.5315 14.1071C18.7834 13.822 19.1774 13.7197 19.5371 13.8583C19.8959 13.9927 20.1257 14.3294 20.1257 14.7103V16.9074H20.7934C21.1565 16.9074 21.4743 17.1146 21.6223 17.4439C21.7705 17.7738 21.712 18.149 21.4741 18.4202L18.6573 21.6203C18.4797 21.8219 18.23 21.9272 17.9767 21.9272C17.8675 21.9272 17.7585 21.9082 17.6543 21.8704L17.6526 21.8698C17.2933 21.7356 17.063 21.3987 17.063 21.0173V18.8203H16.3953C16.0322 18.8203 15.7144 18.6131 15.5664 18.2837C15.4182 17.9538 15.4766 17.5786 15.7145 17.3074L18.5315 14.1071ZM19.1579 17.3894V14.8518L16.5131 17.8599H17.545C17.8097 17.8599 18.0271 18.0773 18.0271 18.342V20.8795L20.6718 17.8714H19.6399C19.3753 17.8714 19.1579 17.654 19.1579 17.3894Z" fill="#608080"/>
</svg>
