<svg width="32" height="32" viewBox="0 0 32 32" fill="none" xmlns="http://www.w3.org/2000/svg">
<path opacity="0.4" d="M10.4264 2.66666C5.57302 2.66666 2.67969 5.55999 2.67969 10.4133V21.5733C2.67969 26.4266 5.57302 29.32 10.4264 29.32H21.5863C26.4397 29.32 29.333 26.4266 29.333 21.5733V10.4133C29.333 5.55999 26.4397 2.66666 21.5863 2.66666H10.4264Z" fill="#954535"/>
<path d="M9.94771 14.8672C9.10771 14.8672 8.42773 15.5471 8.42773 16.3871V23.2138H13.481V14.8672H9.94771Z" fill="#954535"/>
<path opacity="0.4" d="M14.9868 8.80014C14.1468 8.80014 13.4668 9.48016 13.4668 10.3202V23.2002H18.5201V10.3202C18.5201 9.48016 17.8535 8.80014 17.0135 8.80014H14.9868Z" fill="#954535"/>
<path d="M18.5352 17.1335V23.2002H23.5885V18.6535C23.5752 17.8135 22.8951 17.1335 22.0685 17.1335H18.5352Z" fill="#954535"/>
</svg>
