<svg width="28" height="28" viewBox="0 0 28 28" fill="none" xmlns="http://www.w3.org/2000/svg">
<path d="M0 4C0 1.79086 1.79086 0 4 0H24C26.2091 0 28 1.79086 28 4V24C28 26.2091 26.2091 28 24 28H4C1.79086 28 0 26.2091 0 24V4Z" fill="#2E1042"/>
<path d="M13.8975 6C17.7067 6 20.8066 8.96513 20.8066 12.6383C20.8066 16.3115 17.7067 19.2766 13.8975 19.2766H8.21088C7.83486 19.2766 7.53003 18.9718 7.53003 18.5957C7.53003 18.2197 7.83486 17.9149 8.21088 17.9149H13.8975C16.9679 17.9149 19.4449 15.5455 19.4449 12.6383C19.4449 9.73105 16.9679 7.3617 13.8975 7.3617H8.21088C7.83486 7.3617 7.53003 7.05687 7.53003 6.68085C7.53003 6.30483 7.83486 6 8.21088 6H13.8975Z" fill="#943ACF"/>
<path d="M13.7983 9.2629L16.8333 12.2934L13.7991 15.3322C13.5334 15.5982 13.1023 15.5986 12.8362 15.3329C12.5701 15.0672 12.5698 14.6361 12.8355 14.37L14.2143 12.9872L11.7853 12.9887C10.2186 12.9887 8.94847 14.0646 8.94847 15.3917V21.3993C8.94847 21.731 8.63094 22 8.23925 22C7.84756 22 7.53003 21.731 7.53003 21.3993V15.3917C7.53003 13.401 9.4352 11.7872 11.7853 11.7872L14.3981 11.7855L12.8362 10.2265C12.6034 9.99399 12.574 9.63488 12.7483 9.37048L12.8355 9.26361C13.1012 8.99752 13.5323 8.9972 13.7983 9.2629Z" fill="#943ACF"/>
</svg>
