<svg width="89" height="63" viewBox="0 0 89 63" fill="none" xmlns="http://www.w3.org/2000/svg">
<g clip-path="url(#clip0_12375_243192)">
<rect width="89" height="63" fill="white"/>
<g filter="url(#filter0_f_12375_243192)">
<ellipse cx="42" cy="29.5" rx="42" ry="28.5" fill="#F6EFFB"/>
</g>
<path opacity="0.5" fill-rule="evenodd" clip-rule="evenodd" d="M46.9808 55.0037C41.185 56.1069 35.5975 54.4597 30.261 50.9987C24.8892 47.5147 19.9801 42.3152 15.7794 36.7716C11.5972 31.2523 8.23198 25.5458 5.90672 21.2003C4.74696 19.033 3.85273 17.2171 3.25131 15.9495C2.95074 15.3161 2.72369 14.8204 2.57357 14.4872C2.49852 14.3207 2.44274 14.1948 2.40663 14.1127L2.36731 14.0229L2.35882 14.0033L2.3574 14L2.35739 14C2.35758 14.0004 2.35785 14.0011 -0.821538 15.3677C-4.00092 16.7344 -4.0005 16.7354 -3.99999 16.7366L-3.99857 16.7399L-3.99431 16.7497L-3.98007 16.7826C-3.96805 16.8102 -3.95097 16.8493 -3.92889 16.8995C-3.88473 16.9999 -3.82054 17.1447 -3.73675 17.3306C-3.56919 17.7025 -3.3231 18.2395 -3.00183 18.9166C-2.35957 20.2702 -1.41532 22.1869 -0.195863 24.4658C2.2373 29.013 5.79343 35.0533 10.2629 40.9517C14.7139 46.8257 20.1869 52.7145 26.4948 56.8056C32.8381 60.9197 40.2281 63.3346 48.275 61.803C57.8328 59.9837 64.3547 53.0362 68.3466 47.0805C70.3746 44.055 71.8438 41.1482 72.8069 39.0005C73.2091 38.1036 73.5257 37.3328 73.7603 36.7331L77.4761 39.9594L74.8799 24.5891L61.9029 33.3722L67.453 33.8518C67.4436 33.8766 67.434 33.902 67.424 33.928C67.2235 34.4544 66.9141 35.226 66.4914 36.1686C65.643 38.0606 64.3545 40.6053 62.5974 43.2269C59.0191 48.5653 53.8612 53.6941 46.9808 55.0037ZM70.6022 34.1238C70.6821 34.1502 70.7642 34.1772 70.8486 34.205L70.772 34.1385L70.6022 34.1238Z" fill="url(#paint0_linear_12375_243192)"/>
<path d="M56.7359 36.0076C56.7359 44.0436 50.322 50.5364 42.4366 50.5364C34.5512 50.5364 28.1373 44.0436 28.1373 36.0076C28.1373 27.9717 34.5512 21.4789 42.4366 21.4789C50.322 21.4789 56.7359 27.9717 56.7359 36.0076Z" fill="url(#paint1_linear_12375_243192)" stroke="#FFE580" stroke-width="1.68227"/>
<path d="M51.9205 27.1174C53.6256 25.4689 54.2956 21.4916 54.2956 21.4916C54.2956 21.4916 54.7691 25.455 56.4068 27.1174C58.0444 28.7798 61.9486 29.2606 61.9486 29.2606C61.9486 29.2606 58.3112 29.4542 56.6707 30.8679C54.7302 32.5402 54.2956 37.0295 54.2956 37.0295C54.2956 37.0295 53.8609 32.5402 51.9205 30.8679C50.28 29.4542 46.6426 29.2606 46.6426 29.2606C46.6426 29.2606 50.313 28.6716 51.9205 27.1174Z" fill="white"/>
<path opacity="0.56" d="M46.6076 33.462L46.1395 35.2601H37.3904L37.8651 33.462H46.6076ZM42.21 44.0859L37.5948 38.3073L37.5882 36.7837H39.8694C40.4144 36.7837 40.8694 36.6899 41.2342 36.5023C41.6034 36.3102 41.8825 36.0425 42.0715 35.6994C42.2649 35.3516 42.3616 34.9444 42.3616 34.4777C42.3616 33.7777 42.1638 33.215 41.7682 32.7894C41.3727 32.3639 40.7397 32.1512 39.8694 32.1512H37.3904L37.9046 30.0305H39.8694C40.9771 30.0305 41.8935 30.209 42.6188 30.5658C43.3484 30.9181 43.8934 31.4168 44.2539 32.062C44.6187 32.7071 44.8011 33.462 44.8011 34.3268C44.8011 35.0908 44.667 35.7726 44.3989 36.3719C44.1308 36.9713 43.7088 37.4631 43.133 37.8475C42.5572 38.2318 41.8034 38.488 40.8716 38.6161L40.7925 38.6436L44.9593 43.9624V44.0859H42.21ZM46.6208 30.0305L46.1395 31.8561L39.0453 31.8286L39.5266 30.0305H46.6208Z" fill="white"/>
</g>
<defs>
<filter id="filter0_f_12375_243192" x="-14.5961" y="-13.5961" width="113.192" height="86.1922" filterUnits="userSpaceOnUse" color-interpolation-filters="sRGB">
<feFlood flood-opacity="0" result="BackgroundImageFix"/>
<feBlend mode="normal" in="SourceGraphic" in2="BackgroundImageFix" result="shape"/>
<feGaussianBlur stdDeviation="7.29806" result="effect1_foregroundBlur_12375_243192"/>
</filter>
<linearGradient id="paint0_linear_12375_243192" x1="77.3334" y1="20.8829" x2="14.1546" y2="27.226" gradientUnits="userSpaceOnUse">
<stop offset="0.267704" stop-color="#449C47"/>
<stop offset="1" stop-color="white" stop-opacity="0"/>
</linearGradient>
<linearGradient id="paint1_linear_12375_243192" x1="27.2961" y1="36.0076" x2="57.577" y2="36.0076" gradientUnits="userSpaceOnUse">
<stop stop-color="#FFDA46"/>
<stop offset="1" stop-color="#F1C30C"/>
</linearGradient>
<clipPath id="clip0_12375_243192">
<rect width="89" height="63" fill="white"/>
</clipPath>
</defs>
</svg>
