<svg width="29" height="28" viewBox="0 0 29 28" fill="none" xmlns="http://www.w3.org/2000/svg">
<path d="M0.199951 4C0.199951 1.79086 1.99081 0 4.19995 0H24.2C26.4091 0 28.2 1.79086 28.2 4V24C28.2 26.2091 26.4091 28 24.2 28H4.19995C1.99081 28 0.199951 26.2091 0.199951 24V4Z" fill="#F7F5F3"/>
<path d="M10.4793 15.3023C10.1741 15.3023 9.92113 15.0493 9.92113 14.7442C9.92113 14.4391 10.1741 14.186 10.4793 14.186H14.9444C15.2495 14.186 15.5025 14.4391 15.5025 14.7442C15.5025 15.0493 15.2495 15.3023 14.9444 15.3023H10.4793Z" fill="#937962"/>
<path d="M9.92113 17.7209C9.92113 18.026 10.1741 18.2791 10.4793 18.2791H13.456C13.7611 18.2791 14.0141 18.026 14.0141 17.7209C14.0141 17.4158 13.7611 17.1628 13.456 17.1628H10.4793C10.1741 17.1628 9.92113 17.4158 9.92113 17.7209Z" fill="#937962"/>
<path fill-rule="evenodd" clip-rule="evenodd" d="M6.2002 16.2326C6.2002 20.2735 7.92671 22 11.9676 22H16.4328C20.4737 22 22.2002 20.2735 22.2002 16.2326V12.5116C22.2002 12.41 22.1721 12.3141 22.1234 12.2314C22.0995 12.19 22.0703 12.1514 22.036 12.1172L16.0826 6.1637C16.0704 6.15209 16.0578 6.14104 16.0448 6.13059C15.9478 6.04929 15.8232 6 15.6886 6H11.9676C7.92671 6 6.2002 7.72651 6.2002 11.7674V16.2326ZM15.13 7.11628H11.9676C8.53694 7.11628 7.31647 8.33674 7.31647 11.7674V16.2326C7.31647 19.6633 8.53694 20.8837 11.9676 20.8837H16.4328C19.8635 20.8837 21.0839 19.6633 21.0839 16.2326V13.0698H18.6649C16.1198 13.0698 15.13 12.08 15.13 9.53487V7.11628ZM18.6649 11.9535C16.7449 11.9535 16.2463 11.4549 16.2463 9.53487V7.9051L20.2946 11.9535H18.6649Z" fill="#937962"/>
</svg>
