<svg width="29" height="28" viewBox="0 0 29 28" fill="none" xmlns="http://www.w3.org/2000/svg">
<path d="M0.399902 4C0.399902 1.79086 2.19076 0 4.3999 0H24.3999C26.609 0 28.3999 1.79086 28.3999 4V24C28.3999 26.2091 26.609 28 24.3999 28H4.3999C2.19076 28 0.399902 26.2091 0.399902 24V4Z" fill="#2E1042"/>
<path fill-rule="evenodd" clip-rule="evenodd" d="M10.6938 19.111C10.2473 19.0514 9.8678 18.7685 9.68175 18.3665L8.74408 16.3041C7.25571 15.2023 6.3999 13.5569 6.3999 11.77C6.3999 8.59093 9.15338 6 12.5394 6C14.9282 6 17.1087 7.31035 18.0985 9.34289C18.478 10.0949 18.6789 10.9138 18.6789 11.77C18.6789 14.8672 16.0668 17.4061 12.8073 17.5326L11.8697 18.6643C11.6166 18.9547 11.252 19.1259 10.8724 19.1259C10.8129 19.1259 10.7534 19.1185 10.6938 19.111ZM7.51618 11.7626C7.51618 13.2293 8.24547 14.5843 9.51058 15.4777C9.59244 15.5373 9.65942 15.6117 9.69663 15.7011L10.6938 17.8974C10.7311 17.9793 10.8055 18.0017 10.8427 18.0017C10.8799 18.0091 10.9543 18.0017 11.0064 17.9421L12.1078 16.6169C12.212 16.4903 12.3683 16.4158 12.5394 16.4158C15.3078 16.4158 17.5627 14.3312 17.5627 11.7626C17.5627 11.0851 17.4064 10.4373 17.1013 9.83426C16.2975 8.17397 14.5041 7.10933 12.5394 7.10933C9.77105 7.10933 7.51618 9.19399 7.51618 11.7626Z" fill="#943ACF"/>
<path fill-rule="evenodd" clip-rule="evenodd" d="M16.9302 21.5309L15.9925 20.4067C14.1916 20.3323 12.4948 19.5058 11.4083 18.1657C11.2372 17.9572 11.2446 17.6595 11.4158 17.4584L12.1078 16.6246C12.212 16.498 12.3683 16.4235 12.5395 16.4235C15.3078 16.4235 17.5627 14.3389 17.5627 11.7703C17.5627 11.0928 17.4064 10.445 17.1013 9.84195C17.0046 9.64838 17.0269 9.41759 17.1609 9.24635C17.2948 9.07511 17.5181 9.00064 17.7264 9.04531C20.4799 9.67815 22.3999 11.9787 22.3999 14.6441C22.3999 16.431 21.5441 18.0764 20.0557 19.1783L19.1181 21.2406C18.9246 21.6575 18.545 21.9404 18.0911 21.9925C18.039 22 17.9795 22 17.9274 22C17.5404 22 17.1832 21.8288 16.9302 21.5309ZM16.2604 19.2899C16.4241 19.2899 16.5804 19.3644 16.692 19.491L17.7934 20.8162C17.8455 20.8832 17.9125 20.8907 17.9571 20.8832C17.9869 20.8832 18.0688 20.8609 18.1134 20.7715L19.1106 18.5752C19.1553 18.4859 19.2148 18.4039 19.2967 18.3518C20.5618 17.4584 21.2911 16.1034 21.2911 14.6367C21.2911 12.8498 20.1971 11.264 18.5302 10.4823C18.6343 10.8992 18.6864 11.3236 18.6864 11.7628C18.6864 14.86 16.0743 17.3989 12.8148 17.5254L12.5841 17.7934C13.5144 18.739 14.8539 19.2899 16.2604 19.2899Z" fill="#943ACF"/>
<path d="M10.679 12.3212C10.3739 12.3212 10.1209 12.068 10.1209 11.7628C10.1209 11.4575 10.3739 11.2044 10.679 11.2044H14.3999C14.7051 11.2044 14.9581 11.4575 14.9581 11.7628C14.9581 12.068 14.7051 12.3212 14.3999 12.3212H10.679Z" fill="#943ACF"/>
</svg>
