<svg width="29" height="28" viewBox="0 0 29 28" fill="none" xmlns="http://www.w3.org/2000/svg">
<path d="M0.400024 4C0.400024 1.79086 2.19089 0 4.40002 0H24.4C26.6092 0 28.4 1.79086 28.4 4V24C28.4 26.2091 26.6092 28 24.4 28H4.40002C2.19089 28 0.400024 26.2091 0.400024 24V4Z" fill="#F6EFFB"/>
<path fill-rule="evenodd" clip-rule="evenodd" d="M10.694 19.111C10.2475 19.0514 9.86792 18.7685 9.68188 18.3665L8.7442 16.3041C7.25583 15.2023 6.40002 13.5569 6.40002 11.77C6.40002 8.59093 9.1535 6 12.5395 6C14.9284 6 17.1088 7.31035 18.0986 9.34289C18.4781 10.0949 18.679 10.9138 18.679 11.77C18.679 14.8672 16.067 17.4061 12.8074 17.5326L11.8698 18.6643C11.6168 18.9547 11.2521 19.1259 10.8726 19.1259C10.813 19.1259 10.7535 19.1185 10.694 19.111ZM7.5163 11.7626C7.5163 13.2293 8.24559 14.5843 9.5107 15.4777C9.59257 15.5373 9.65954 15.6117 9.69675 15.7011L10.694 17.8974C10.7312 17.9793 10.8056 18.0017 10.8428 18.0017C10.88 18.0091 10.9544 18.0017 11.0065 17.9421L12.1079 16.6169C12.2121 16.4903 12.3684 16.4158 12.5395 16.4158C15.3079 16.4158 17.5628 14.3312 17.5628 11.7626C17.5628 11.0851 17.4065 10.4373 17.1014 9.83426C16.2977 8.17397 14.5042 7.10933 12.5395 7.10933C9.77117 7.10933 7.5163 9.19399 7.5163 11.7626Z" fill="#AC6CDA"/>
<path fill-rule="evenodd" clip-rule="evenodd" d="M16.9303 21.5309L15.9926 20.4067C14.1917 20.3323 12.4949 19.5058 11.4084 18.1657C11.2373 17.9572 11.2447 17.6595 11.4159 17.4584L12.108 16.6246C12.2122 16.498 12.3684 16.4235 12.5396 16.4235C15.308 16.4235 17.5628 14.3389 17.5628 11.7703C17.5628 11.0928 17.4066 10.445 17.1014 9.84195C17.0047 9.64838 17.027 9.41759 17.161 9.24635C17.2949 9.07511 17.5182 9.00064 17.7266 9.04531C20.48 9.67815 22.4 11.9787 22.4 14.6441C22.4 16.431 21.5442 18.0764 20.0559 19.1783L19.1182 21.2406C18.9247 21.6575 18.5452 21.9404 18.0912 21.9925C18.0391 22 17.9796 22 17.9275 22C17.5405 22 17.1833 21.8288 16.9303 21.5309ZM16.2605 19.2899C16.4242 19.2899 16.5805 19.3644 16.6921 19.491L17.7935 20.8162C17.8456 20.8832 17.9126 20.8907 17.9572 20.8832C17.987 20.8832 18.0689 20.8609 18.1135 20.7715L19.1107 18.5752C19.1554 18.4859 19.2149 18.4039 19.2968 18.3518C20.5619 17.4584 21.2912 16.1034 21.2912 14.6367C21.2912 12.8498 20.1972 11.264 18.5303 10.4823C18.6345 10.8992 18.6865 11.3236 18.6865 11.7628C18.6865 14.86 16.0745 17.3989 12.8149 17.5254L12.5842 17.7934C13.5145 18.739 14.854 19.2899 16.2605 19.2899Z" fill="#AC6CDA"/>
<path d="M10.6792 12.3212C10.374 12.3212 10.121 12.068 10.121 11.7628C10.121 11.4575 10.374 11.2044 10.6792 11.2044H14.4001C14.7052 11.2044 14.9582 11.4575 14.9582 11.7628C14.9582 12.068 14.7052 12.3212 14.4001 12.3212H10.6792Z" fill="#AC6CDA"/>
</svg>
