<svg width="28" height="28" viewBox="0 0 28 28" fill="none" xmlns="http://www.w3.org/2000/svg">
<path d="M0 4C0 1.79086 1.79086 0 4 0H24C26.2091 0 28 1.79086 28 4V24C28 26.2091 26.2091 28 24 28H4C1.79086 28 0 26.2091 0 24V4Z" fill="#FAF2F0"/>
<path d="M8.53707 9.65209C8.32126 9.43628 8.32126 9.07907 8.53707 8.86326L11.2385 6.16186C11.4543 5.94605 11.8115 5.94605 12.0273 6.16186C12.2431 6.37767 12.2431 6.73488 12.0273 6.9507L9.32591 9.65209C9.21428 9.75628 9.07289 9.81581 8.93149 9.81581C8.7901 9.81581 8.64126 9.75628 8.53707 9.65209Z" fill="#CA7868"/>
<path d="M18.6716 9.65209L15.9702 6.9507C15.7544 6.73488 15.7544 6.37767 15.9702 6.16186C16.186 5.94605 16.5432 5.94605 16.759 6.16186L19.4604 8.86326C19.6763 9.07907 19.6763 9.43628 19.4604 9.65209C19.3563 9.75628 19.2074 9.81581 19.066 9.81581C18.9246 9.81581 18.7832 9.76372 18.6716 9.65209Z" fill="#CA7868"/>
<path fill-rule="evenodd" clip-rule="evenodd" d="M19.9537 12.9593H8.04673C7.52579 12.9667 6.93045 12.9667 6.49882 12.5351C6.15649 12.2002 6.00021 11.6793 6.00021 10.9128C6.00021 8.86628 7.49603 8.86628 8.21045 8.86628H19.79C20.5044 8.86628 22.0002 8.86628 22.0002 10.9128C22.0002 11.6867 21.8439 12.2002 21.5016 12.5351C21.1146 12.9221 20.5937 12.9593 20.11 12.9593C20.0579 12.9593 20.0058 12.9593 19.9537 12.9593ZM19.9611 11.843C20.296 11.8505 20.6086 11.8505 20.7128 11.7463C20.7649 11.6942 20.8765 11.5156 20.8765 10.9128C20.8765 10.0719 20.6681 9.98256 19.7825 9.98256H8.21045C7.32486 9.98256 7.11649 10.0719 7.11649 10.9128C7.11649 11.5156 7.23556 11.6942 7.28021 11.7463C7.3844 11.843 7.7044 11.843 8.03184 11.843H19.9611Z" fill="#CA7868"/>
<path d="M11.7764 18.1302V15.4884C11.7764 15.1833 12.0294 14.9302 12.3345 14.9302C12.6396 14.9302 12.8927 15.1833 12.8927 15.4884V18.1302C12.8927 18.4428 12.6396 18.6884 12.3345 18.6884C12.0294 18.6884 11.7764 18.4353 11.7764 18.1302Z" fill="#CA7868"/>
<path d="M15.1979 18.1303V15.4884C15.1979 15.1833 15.4509 14.9303 15.7561 14.9303C16.0612 14.9303 16.3142 15.1833 16.3142 15.4884V18.1303C16.3142 18.4429 16.0612 18.6884 15.7561 18.6884C15.4509 18.6884 15.1979 18.4354 15.1979 18.1303Z" fill="#CA7868"/>
<path d="M11.664 22.0005C8.99983 22.0005 8.40448 20.4154 8.17378 19.0387L7.12448 12.6015C7.07239 12.2964 7.28076 12.0136 7.58587 11.9615C7.89099 11.9094 8.17378 12.1178 8.22587 12.4229L9.27518 18.8526C9.49099 20.1698 9.9375 20.8843 11.664 20.8843H16.1515C18.064 20.8843 18.2798 20.2145 18.5254 18.9196L19.7756 12.408C19.8352 12.1029 20.1254 11.9019 20.4305 11.9689C20.7356 12.0285 20.9291 12.3187 20.8696 12.6238L19.6194 19.1354C19.3291 20.6461 18.8454 22.0005 16.1515 22.0005H11.664Z" fill="#CA7868"/>
</svg>
