<svg width="16" height="16" viewBox="0 0 16 16" fill="none" xmlns="http://www.w3.org/2000/svg">
<path d="M4.08594 12.1007V10.7207C4.08594 10.4474 4.3126 10.2207 4.58594 10.2207C4.85927 10.2207 5.08594 10.4474 5.08594 10.7207V12.1007C5.08594 12.3807 4.85927 12.6007 4.58594 12.6007C4.3126 12.6007 4.08594 12.374 4.08594 12.1007Z" fill="#2A394E"/>
<path d="M7.5 12.1007V9.33398C7.5 9.06065 7.72667 8.83398 8 8.83398C8.27333 8.83398 8.5 9.06065 8.5 9.33398V12.1007C8.5 12.3807 8.27333 12.6007 8 12.6007C7.72667 12.6007 7.5 12.374 7.5 12.1007Z" fill="#2A394E"/>
<path d="M10.9141 12.0998V7.95312C10.9141 7.67979 11.1407 7.45312 11.4141 7.45312C11.6874 7.45312 11.9141 7.67979 11.9141 7.95312V12.0998C11.9141 12.3798 11.6941 12.5998 11.4141 12.5998C11.1407 12.5998 10.9141 12.3731 10.9141 12.0998Z" fill="#2A394E"/>
<path d="M4.09712 8.40694C4.03045 8.14027 4.19045 7.86694 4.46379 7.80027C6.91712 7.18694 9.07712 5.84694 10.7238 3.93361L11.0305 3.57361C11.2105 3.36694 11.5238 3.34027 11.7371 3.52027C11.9438 3.70027 11.9705 4.01361 11.7905 4.22694L11.4838 4.58694C9.70379 6.66694 7.35712 8.11361 4.70379 8.77361C4.66379 8.78694 4.62379 8.78694 4.58379 8.78694C4.35712 8.78694 4.15712 8.63361 4.09712 8.40694Z" fill="#2A394E"/>
<path d="M10.9143 5.84706V4.40039H9.46094C9.1876 4.40039 8.96094 4.17372 8.96094 3.90039C8.96094 3.62706 9.1876 3.40039 9.46094 3.40039H11.4143C11.6876 3.40039 11.9143 3.62706 11.9143 3.90039V5.85372C11.9143 6.12706 11.6943 6.34706 11.4143 6.34706C11.1409 6.34706 10.9143 6.12039 10.9143 5.84706Z" fill="#2A394E"/>
<path fill-rule="evenodd" clip-rule="evenodd" d="M6.0026 15.1654C2.3826 15.1654 0.835938 13.6187 0.835938 9.9987V5.9987C0.835938 2.3787 2.3826 0.832031 6.0026 0.832031H10.0026C13.6226 0.832031 15.1693 2.3787 15.1693 5.9987V9.9987C15.1693 13.6187 13.6226 15.1654 10.0026 15.1654H6.0026ZM1.83594 5.9987V9.9987C1.83594 13.072 2.92927 14.1654 6.0026 14.1654H10.0026C13.0759 14.1654 14.1693 13.072 14.1693 9.9987V5.9987C14.1693 2.92536 13.0759 1.83203 10.0026 1.83203H6.0026C2.92927 1.83203 1.83594 2.92536 1.83594 5.9987Z" fill="#2A394E"/>
</svg>
