<svg width="25" height="24" viewBox="0 0 25 24" fill="none" xmlns="http://www.w3.org/2000/svg">
<path fill-rule="evenodd" clip-rule="evenodd" d="M1.25342 15C1.25342 20.43 3.57986 22.75 9.02495 22.75H15.0416C20.4867 22.75 22.8131 20.43 22.8131 15V9C22.8131 3.57 20.4867 1.25 15.0416 1.25H9.02495C3.57986 1.25 1.25342 3.57 1.25342 9V15Z" fill="#436AF5"/>
<path fill-rule="evenodd" clip-rule="evenodd" d="M12.7854 16.5V7.5C12.7854 5.98 14.0188 4.75 15.543 4.75C17.0673 4.75 18.3007 5.98 18.3007 7.5V16.5C18.3007 18.02 17.0673 19.25 15.543 19.25C14.0188 19.25 12.7854 18.02 12.7854 16.5ZM14.2896 7.5V16.5C14.2896 17.19 14.8511 17.75 15.543 17.75C16.235 17.75 16.7965 17.19 16.7965 16.5V7.5C16.7965 6.81 16.235 6.25 15.543 6.25C14.8511 6.25 14.2896 6.81 14.2896 7.5Z" fill="#F0F0F0"/>
<path fill-rule="evenodd" clip-rule="evenodd" d="M5.76587 16.5V13C5.76587 11.48 6.99929 10.25 8.52351 10.25C10.0477 10.25 11.2811 11.48 11.2811 13V16.5C11.2811 18.02 10.0477 19.25 8.52351 19.25C6.99929 19.25 5.76587 18.02 5.76587 16.5ZM7.27004 13V16.5C7.27004 17.19 7.83159 17.75 8.52351 17.75C9.21542 17.75 9.77698 17.19 9.77698 16.5V13C9.77698 12.31 9.21542 11.75 8.52351 11.75C7.83159 11.75 7.27004 12.31 7.27004 13Z" fill="#F0F0F0"/>
</svg>
