<svg width="26" height="26" viewBox="0 0 26 26" fill="none" xmlns="http://www.w3.org/2000/svg">
<path fill-rule="evenodd" clip-rule="evenodd" d="M10.0265 23.7501C4.58067 23.7501 2.25391 21.4301 2.25391 16.0001V10.0001C2.25391 4.57012 4.58067 2.25012 10.0265 2.25012H16.044C21.4898 2.25012 23.8166 4.57012 23.8166 10.0001V16.0001C23.8166 21.4301 21.4898 23.7501 16.044 23.7501H10.0265ZM3.75828 10.0001V16.0001C3.75828 20.6101 5.40306 22.2501 10.0265 22.2501H16.044C20.6675 22.2501 22.3122 20.6101 22.3122 16.0001V10.0001C22.3122 5.39012 20.6675 3.75012 16.044 3.75012H10.0265C5.40306 3.75012 3.75828 5.39012 3.75828 10.0001Z" fill="#B0B0B0"/>
<path d="M10.0265 23.5279C7.32896 23.5279 5.45683 22.9524 4.25493 21.754C3.05317 20.5557 2.47613 18.6895 2.47613 16.0001H2.03168C2.03168 18.7408 2.61803 20.7495 3.94111 22.0687C5.26405 23.3878 7.27823 23.9723 10.0265 23.9723V23.5279ZM2.47613 16.0001V10.0001H2.03168V16.0001H2.47613ZM2.47613 10.0001C2.47613 7.31078 3.05317 5.4445 4.25493 4.24624C5.45683 3.04783 7.32896 2.47234 10.0265 2.47234V2.0279C7.27823 2.0279 5.26405 2.61242 3.94111 3.93151C2.61803 5.25075 2.03168 7.25947 2.03168 10.0001H2.47613ZM10.0265 2.47234H16.044V2.0279H10.0265V2.47234ZM16.044 2.47234C18.7416 2.47234 20.6137 3.04783 21.8156 4.24624C23.0174 5.4445 23.5944 7.31078 23.5944 10.0001H24.0388C24.0388 7.25947 23.4525 5.25075 22.1294 3.93151C20.8065 2.61242 18.7923 2.0279 16.044 2.0279V2.47234ZM23.5944 10.0001V16.0001H24.0388V10.0001H23.5944ZM23.5944 16.0001C23.5944 18.6895 23.0174 20.5557 21.8156 21.754C20.6137 22.9524 18.7416 23.5279 16.044 23.5279V23.9723C18.7923 23.9723 20.8065 23.3878 22.1294 22.0687C23.4525 20.7495 24.0388 18.7408 24.0388 16.0001H23.5944ZM16.044 23.5279H10.0265V23.9723H16.044V23.5279ZM3.53606 10.0001V16.0001H3.9805V10.0001H3.53606ZM3.53606 16.0001C3.53606 18.3209 3.94778 19.9604 5.0017 21.0112C6.05544 22.0619 7.69923 22.4723 10.0265 22.4723V22.0279C7.73034 22.0279 6.24002 21.6183 5.31551 20.6965C4.39118 19.7749 3.9805 18.2893 3.9805 16.0001H3.53606ZM10.0265 22.4723H16.044V22.0279H10.0265V22.4723ZM16.044 22.4723C18.3713 22.4723 20.0151 22.0619 21.0688 21.0112C22.1227 19.9604 22.5345 18.3209 22.5345 16.0001H22.09C22.09 18.2893 21.6793 19.7749 20.755 20.6965C19.8305 21.6183 18.3402 22.0279 16.044 22.0279V22.4723ZM22.5345 16.0001V10.0001H22.09V16.0001H22.5345ZM22.5345 10.0001C22.5345 7.67932 22.1227 6.03986 21.0688 4.98901C20.0151 3.93833 18.3713 3.5279 16.044 3.5279V3.97234C18.3402 3.97234 19.8305 4.38191 20.755 5.30374C21.6793 6.22538 22.09 7.71092 22.09 10.0001H22.5345ZM16.044 3.5279H10.0265V3.97234H16.044V3.5279ZM10.0265 3.5279C7.69923 3.5279 6.05544 3.93833 5.0017 4.98901C3.94778 6.03986 3.53606 7.67932 3.53606 10.0001H3.9805C3.9805 7.71092 4.39118 6.22538 5.31551 5.30374C6.24002 4.38191 7.73034 3.97234 10.0265 3.97234V3.5279Z" fill="#B0B0B0"/>
<path fill-rule="evenodd" clip-rule="evenodd" d="M13.7871 17.4998V8.49976C13.7871 6.97976 15.0207 5.74976 16.5451 5.74976C18.0696 5.74976 19.3032 6.97976 19.3032 8.49976V17.4998C19.3032 19.0198 18.0696 20.2498 16.5451 20.2498C15.0207 20.2498 13.7871 19.0198 13.7871 17.4998ZM15.2915 8.49976V17.4998C15.2915 18.1898 15.8531 18.7498 16.5451 18.7498C17.2371 18.7498 17.7988 18.1898 17.7988 17.4998V8.49976C17.7988 7.80976 17.2371 7.24976 16.5451 7.24976C15.8531 7.24976 15.2915 7.80976 15.2915 8.49976Z" fill="#B0B0B0"/>
<path d="M14.0093 17.4998V8.49976H13.5649V17.4998H14.0093ZM14.0093 8.49976C14.0093 7.1031 15.1428 5.97198 16.5451 5.97198V5.52753C14.8986 5.52753 13.5649 6.85642 13.5649 8.49976H14.0093ZM16.5451 5.97198C17.9474 5.97198 19.0809 7.1031 19.0809 8.49976H19.5254C19.5254 6.85642 18.1917 5.52753 16.5451 5.52753V5.97198ZM19.0809 8.49976V17.4998H19.5254V8.49976H19.0809ZM19.0809 17.4998C19.0809 18.8964 17.9474 20.0275 16.5451 20.0275V20.472C18.1917 20.472 19.5254 19.1431 19.5254 17.4998H19.0809ZM16.5451 20.0275C15.1428 20.0275 14.0093 18.8964 14.0093 17.4998H13.5649C13.5649 19.1431 14.8986 20.472 16.5451 20.472V20.0275ZM15.0693 8.49976V17.4998H15.5137V8.49976H15.0693ZM15.0693 17.4998C15.0693 18.3131 15.731 18.972 16.5451 18.972V18.5275C15.9752 18.5275 15.5137 18.0664 15.5137 17.4998H15.0693ZM16.5451 18.972C17.3593 18.972 18.021 18.3131 18.021 17.4998H17.5766C17.5766 18.0664 17.115 18.5275 16.5451 18.5275V18.972ZM18.021 17.4998V8.49976H17.5766V17.4998H18.021ZM18.021 8.49976C18.021 7.68642 17.3593 7.02753 16.5451 7.02753V7.47198C17.115 7.47198 17.5766 7.9331 17.5766 8.49976H18.021ZM16.5451 7.02753C15.731 7.02753 15.0693 7.68642 15.0693 8.49976H15.5137C15.5137 7.9331 15.9752 7.47198 16.5451 7.47198V7.02753Z" fill="#B0B0B0"/>
<path fill-rule="evenodd" clip-rule="evenodd" d="M6.76709 17.5001V14.0001C6.76709 12.4801 8.00068 11.2501 9.52511 11.2501C11.0495 11.2501 12.2831 12.4801 12.2831 14.0001V17.5001C12.2831 19.0201 11.0495 20.2501 9.52511 20.2501C8.00068 20.2501 6.76709 19.0201 6.76709 17.5001ZM8.27146 14.0001V17.5001C8.27146 18.1901 8.8331 18.7501 9.52511 18.7501C10.2171 18.7501 10.7788 18.1901 10.7788 17.5001V14.0001C10.7788 13.3101 10.2171 12.7501 9.52511 12.7501C8.8331 12.7501 8.27146 13.3101 8.27146 14.0001Z" fill="#B0B0B0"/>
<path d="M6.98931 17.5001V14.0001H6.54487V17.5001H6.98931ZM6.98931 14.0001C6.98931 12.6035 8.1228 11.4723 9.52511 11.4723V11.0279C7.87856 11.0279 6.54487 12.3568 6.54487 14.0001H6.98931ZM9.52511 11.4723C10.9274 11.4723 12.0609 12.6035 12.0609 14.0001H12.5054C12.5054 12.3568 11.1717 11.0279 9.52511 11.0279V11.4723ZM12.0609 14.0001V17.5001H12.5054V14.0001H12.0609ZM12.0609 17.5001C12.0609 18.8968 10.9274 20.0279 9.52511 20.0279V20.4723C11.1717 20.4723 12.5054 19.1435 12.5054 17.5001H12.0609ZM9.52511 20.0279C8.1228 20.0279 6.98931 18.8968 6.98931 17.5001H6.54487C6.54487 19.1435 7.87856 20.4723 9.52511 20.4723V20.0279ZM8.04924 14.0001V17.5001H8.49369V14.0001H8.04924ZM8.04924 17.5001C8.04924 18.3135 8.71098 18.9723 9.52511 18.9723V18.5279C8.95522 18.5279 8.49369 18.0668 8.49369 17.5001H8.04924ZM9.52511 18.9723C10.3392 18.9723 11.001 18.3135 11.001 17.5001H10.5565C10.5565 18.0668 10.095 18.5279 9.52511 18.5279V18.9723ZM11.001 17.5001V14.0001H10.5565V17.5001H11.001ZM11.001 14.0001C11.001 13.1868 10.3392 12.5279 9.52511 12.5279V12.9723C10.095 12.9723 10.5565 13.4335 10.5565 14.0001H11.001ZM9.52511 12.5279C8.71098 12.5279 8.04924 13.1868 8.04924 14.0001H8.49369C8.49369 13.4335 8.95522 12.9723 9.52511 12.9723V12.5279Z" fill="#B0B0B0"/>
<path opacity="0.01" fill-rule="evenodd" clip-rule="evenodd" d="M14.4033 1C20.2944 1 25.07 5.77563 25.07 11.6667V14.3333C25.07 20.2244 20.2944 25 14.4033 25H11.6667C5.77563 25 1 20.2244 1 14.3333V11.6667C1 5.77563 5.77563 1 11.6667 1H14.4033Z" fill="#B0B0B0" stroke="#B0B0B0" stroke-width="0.444444"/>
</svg>
