<svg width="24" height="24" viewBox="0 0 24 24" fill="none" xmlns="http://www.w3.org/2000/svg">
<path d="M6.42158 10.2592C5.9637 10.2592 5.58398 9.87947 5.58398 9.42158C5.58398 8.9637 5.9637 8.58398 6.42158 8.58398H13.1224C13.5803 8.58398 13.96 8.9637 13.96 9.42158C13.96 9.87947 13.5803 10.2592 13.1224 10.2592H6.42158Z" fill="#436AF5"/>
<path fill-rule="evenodd" clip-rule="evenodd" d="M5.30479 22.4272C2.37878 22.4272 0 20.0484 0 17.1224V8.30479C0 5.37878 2.37878 3 5.30479 3H16.4728C19.3988 3 21.7776 5.37878 21.7776 8.30479V9.9241C21.7776 10.382 21.3979 10.7617 20.94 10.7617H19.7338C19.3429 10.7617 18.9856 10.9069 18.7287 11.1749L18.7176 11.1861C18.349 11.5546 18.2038 12.0683 18.3378 12.5709C18.5053 13.1963 19.1643 13.6542 19.9014 13.6542H20.94C21.3979 13.6542 21.7776 14.0339 21.7776 14.4918V17.1112C21.7776 20.0484 19.3988 22.4272 16.4728 22.4272H5.30479Z" fill="#436AF5"/>
<path fill-rule="evenodd" clip-rule="evenodd" d="M1.6748 8.30477V17.1224C1.6748 19.1214 3.30533 20.752 5.3044 20.752H16.4724C18.4715 20.752 20.102 19.1214 20.102 17.1224V15.3406H19.901C18.3933 15.3406 17.0866 14.3913 16.7181 13.0176C16.4277 11.9343 16.7404 10.784 17.5334 10.0023C18.1141 9.41035 18.8958 9.08647 19.7334 9.08647H20.102V8.30477C20.102 6.3057 18.4715 4.67517 16.4724 4.67517H5.3044C3.30533 4.67517 1.6748 6.3057 1.6748 8.30477Z" fill="#436AF5"/>
<path d="M6.42158 10.2592C5.9637 10.2592 5.58398 9.87947 5.58398 9.42158C5.58398 8.9637 5.9637 8.58398 6.42158 8.58398H13.1224C13.5803 8.58398 13.96 8.9637 13.96 9.42158C13.96 9.87947 13.5803 10.2592 13.1224 10.2592H6.42158Z" fill="white"/>
<path fill-rule="evenodd" clip-rule="evenodd" d="M19.8678 15.3409C18.1815 15.3409 16.752 14.0901 16.618 12.4819C16.5286 11.555 16.8637 10.6503 17.5338 9.9914C18.0922 9.41066 18.885 9.08679 19.7226 9.08679H22.0121C23.1066 9.08679 24 9.96908 24 11.0635V13.3642C24.0112 14.4586 23.1177 15.3409 22.0232 15.3409H19.8678Z" fill="white"/>
<path fill-rule="evenodd" clip-rule="evenodd" d="M18.7287 11.1752C18.4049 11.4879 18.2485 11.9123 18.2932 12.3367C18.349 13.0738 19.0637 13.6657 19.8678 13.6657H22.0232C22.1908 13.6657 22.336 13.5317 22.336 13.3642V11.0635C22.336 10.896 22.1908 10.762 22.0232 10.762H19.7338C19.3429 10.762 18.9856 10.9072 18.7287 11.1752Z" fill="#436AF5"/>
</svg>
