<svg width="24" height="24" viewBox="0 0 24 24" fill="none" xmlns="http://www.w3.org/2000/svg">
<g clip-path="url(#clip0_11765_2956)">
<path d="M6.44735 10.2879C5.98766 10.2879 5.60645 9.90669 5.60645 9.44699C5.60645 8.98729 5.98766 8.60608 6.44735 8.60608H13.1746C13.6343 8.60608 14.0155 8.98729 14.0155 9.44699C14.0155 9.90669 13.6343 10.2879 13.1746 10.2879H6.44735Z" fill="#B0B0B0"/>
<path fill-rule="evenodd" clip-rule="evenodd" d="M5.32576 22.5C2.38818 22.5 0 20.1118 0 17.1742V8.32576C0 5.38818 2.38818 3 5.32576 3H16.5379C19.4755 3 21.8636 5.38818 21.8636 8.32576V9.95146C21.8636 10.4112 21.4824 10.7924 21.0227 10.7924H19.8118C19.4194 10.7924 19.0606 10.9381 18.8027 11.2072L18.7915 11.2184C18.4215 11.5884 18.2757 12.1042 18.4103 12.6087C18.5785 13.2366 19.24 13.6963 19.98 13.6963H21.0227C21.4824 13.6963 21.8636 14.0776 21.8636 14.5372V17.163C21.8636 20.1118 19.4755 22.5 16.5379 22.5H5.32576ZM1.68182 8.32576V17.1742C1.68182 19.1812 3.31879 20.8182 5.32576 20.8182H16.5379C18.5448 20.8182 20.1818 19.1812 20.1818 17.1742V15.3894H19.98C18.4664 15.3894 17.1545 14.4363 16.7845 13.0572C16.493 11.9697 16.807 10.8148 17.603 10.03C18.1861 9.43571 18.9709 9.11055 19.8118 9.11055H20.1818V8.32576C20.1818 6.31879 18.5448 4.68182 16.5379 4.68182H5.32576C3.31879 4.68182 1.68182 6.31879 1.68182 8.32576Z" fill="#B0B0B0"/>
<path fill-rule="evenodd" clip-rule="evenodd" d="M19.9459 15.3897C18.2529 15.3897 16.8178 14.1339 16.6832 12.5194C16.5935 11.5888 16.9299 10.6805 17.6026 10.019C18.1632 9.43599 18.9592 9.11084 19.8001 9.11084H22.0987C23.1975 9.11084 24.0944 9.99662 24.0944 11.0954V13.4051C24.1056 14.5039 23.2086 15.3897 22.1098 15.3897H19.9459ZM18.8023 11.2075C18.4772 11.5214 18.3202 11.9475 18.365 12.3736C18.4211 13.1136 19.1386 13.7078 19.9459 13.7078H22.1098C22.278 13.7078 22.4238 13.5733 22.4238 13.4051V11.0954C22.4238 10.9272 22.278 10.7927 22.1098 10.7927H19.8114C19.4189 10.7927 19.0602 10.9384 18.8023 11.2075Z" fill="#B0B0B0"/>
</g>
<defs>
<clipPath id="clip0_11765_2956">
<rect width="24" height="24" fill="white"/>
</clipPath>
</defs>
</svg>
