<svg width="25" height="24" viewBox="0 0 25 24" fill="none" xmlns="http://www.w3.org/2000/svg">
<path fill-rule="evenodd" clip-rule="evenodd" d="M3.78001 22.45C3.00787 22 2.56665 21.09 2.56665 19.96V5.86C2.56665 3.32 4.6424 1.25 7.18946 1.25H16.8663C19.4133 1.25 21.4891 3.32 21.4891 5.86V19.95C21.4891 21.08 21.0478 21.99 20.2757 22.44C19.5036 22.89 18.4908 22.84 17.498 22.29L12.6045 19.58C12.3137 19.42 11.7421 19.42 11.4513 19.58L6.55771 22.29C6.01621 22.59 5.46468 22.75 4.94323 22.75C4.52207 22.75 4.13098 22.65 3.78001 22.45ZM4.08084 5.86V19.95C4.08084 20.54 4.25132 20.98 4.55215 21.15C4.85298 21.33 5.32429 21.27 5.83571 20.98L10.7293 18.27C11.4713 17.86 12.5944 17.86 13.3365 18.27L18.23 20.98C18.7415 21.27 19.2128 21.33 19.5136 21.15C19.8144 20.97 19.9849 20.53 19.9849 19.95V5.86C19.9849 4.15 18.581 2.75 16.8663 2.75H7.19948C5.48473 2.75 4.08084 4.15 4.08084 5.86Z" fill="#B0B0B0"/>
<path opacity="0.01" fill-rule="evenodd" clip-rule="evenodd" d="M24.0667 0V24H0V0H24.0667Z" fill="#B0B0B0"/>
</svg>
