<svg width="25" height="24" viewBox="0 0 25 24" fill="none" xmlns="http://www.w3.org/2000/svg">
<path fill-rule="evenodd" clip-rule="evenodd" d="M3.78001 22.45C3.00787 22 2.56665 21.09 2.56665 19.96V5.86C2.56665 3.32 4.6424 1.25 7.18946 1.25H16.8663C19.4133 1.25 21.4891 3.32 21.4891 5.86V19.95C21.4891 21.08 21.0478 21.99 20.2757 22.44C19.5036 22.89 18.4908 22.84 17.498 22.29L12.6045 19.58C12.3137 19.42 11.7421 19.42 11.4513 19.58L6.55771 22.29C6.01621 22.59 5.46468 22.75 4.94323 22.75C4.52207 22.75 4.13098 22.65 3.78001 22.45Z" fill="#436AF5"/>
<path opacity="0.01" fill-rule="evenodd" clip-rule="evenodd" d="M24.0667 0V24H0V0H24.0667Z" fill="#B0B0B0"/>
</svg>
