<svg width="25" height="24" viewBox="0 0 25 24" fill="none" xmlns="http://www.w3.org/2000/svg">
<path d="M2.75757 18V7C2.75757 2.59 4.10129 1.25 8.52354 1.25H15.543C19.9652 1.25 21.309 2.59 21.309 7V17C21.309 17.16 21.309 17.31 21.2989 17.47C21.2688 17.88 20.8978 18.2 20.4967 18.17C20.0856 18.14 19.7647 17.78 19.7948 17.37C19.8048 17.25 19.8048 17.12 19.8048 17V7C19.8048 3.43 19.1329 2.75 15.543 2.75H8.52354C4.9336 2.75 4.26174 3.43 4.26174 7V18C4.26174 18.41 3.92079 18.75 3.50965 18.75C3.09851 18.75 2.75757 18.41 2.75757 18Z" fill="#B0B0B0"/>
<path fill-rule="evenodd" clip-rule="evenodd" d="M7.01937 22.75C4.67287 22.75 2.75757 20.84 2.75757 18.5V17.85C2.75757 15.86 4.38207 14.25 6.36757 14.25H20.5569C20.968 14.25 21.309 14.59 21.309 15V18.5C21.309 20.84 19.3937 22.75 17.0472 22.75H7.01937ZM4.26174 17.85V18.5C4.26174 20.02 5.49515 21.25 7.01937 21.25H17.0472C18.5714 21.25 19.8048 20.02 19.8048 18.5V15.75H6.36757C5.20435 15.75 4.26174 16.69 4.26174 17.85Z" fill="#B0B0B0"/>
<path d="M8.0221 7.75C7.61096 7.75 7.27002 7.41 7.27002 7C7.27002 6.59 7.61096 6.25 8.0221 6.25H16.0443C16.4555 6.25 16.7964 6.59 16.7964 7C16.7964 7.41 16.4555 7.75 16.0443 7.75H8.0221Z" fill="#B0B0B0"/>
<path d="M8.0221 11.25C7.61096 11.25 7.27002 10.91 7.27002 10.5C7.27002 10.09 7.61096 9.75 8.0221 9.75H13.036C13.4471 9.75 13.7881 10.09 13.7881 10.5C13.7881 10.91 13.4471 11.25 13.036 11.25H8.0221Z" fill="#B0B0B0"/>
<path opacity="0.01" fill-rule="evenodd" clip-rule="evenodd" d="M24.0667 0V24H0V0H24.0667Z" fill="#E23030"/>
</svg>
