<svg width="25" height="24" viewBox="0 0 25 24" fill="none" xmlns="http://www.w3.org/2000/svg">
<path fill-rule="evenodd" clip-rule="evenodd" d="M8.02244 22.75C3.38961 22.75 2.52722 20.6 2.30661 18.51L1.55452 10.5C1.44422 9.45001 1.41413 7.90001 2.45702 6.74001C3.35952 5.74001 4.85366 5.26001 7.01966 5.26001H17.0474C19.2235 5.26001 20.7176 5.75001 21.6101 6.74001C22.653 7.90001 22.6229 9.45001 22.5126 10.51L21.7605 18.5C21.5399 20.6 20.6775 22.75 16.0447 22.75H8.02244ZM3.57011 7.74001C3.07875 8.28001 2.9183 9.11001 3.04866 10.35L3.80075 18.36C3.97122 19.94 4.40241 21.25 8.02244 21.25H16.0447C19.6547 21.25 20.0959 19.94 20.2664 18.35L21.0184 10.36C21.1488 9.11001 20.9884 8.28001 20.497 7.74001C19.9054 7.08001 18.7421 6.75001 17.0474 6.75001H7.01966C5.32497 6.75001 4.16175 7.08001 3.57011 7.74001Z" fill="#B0B0B0"/>
<path d="M15.2922 6V5.2C15.2922 3.42 15.2922 2.75 12.8354 2.75H11.231C8.77419 2.75 8.77419 3.42 8.77419 5.2V6C8.77419 6.41 8.43324 6.75 8.0221 6.75C7.61096 6.75 7.27002 6.41 7.27002 6V5.2C7.27002 3.44 7.27002 1.25 11.231 1.25H12.8354C16.7964 1.25 16.7964 3.44 16.7964 5.2V6C16.7964 6.41 16.4555 6.75 16.0443 6.75C15.6332 6.75 15.2922 6.41 15.2922 6Z" fill="#B0B0B0"/>
<path fill-rule="evenodd" clip-rule="evenodd" d="M9.27563 14.03V13C9.27563 11.59 9.61658 11.25 11.0305 11.25H13.0361C14.45 11.25 14.7909 11.59 14.7909 13V14C14.7909 15.04 14.7909 16.75 12.0333 16.75C9.27563 16.75 9.27563 15.05 9.27563 14.03ZM10.7798 13V14.03C10.7798 15.06 10.7798 15.25 12.0333 15.25C13.2867 15.25 13.2867 15.09 13.2867 14.02V13C13.2867 12.92 13.2867 12.83 13.2867 12.75C13.2065 12.75 13.1163 12.75 13.0361 12.75H11.0305C10.9503 12.75 10.86 12.75 10.7798 12.75C10.7798 12.83 10.7798 12.92 10.7798 13Z" fill="#B0B0B0"/>
<path d="M13.2964 14.11C13.2463 13.7 13.5371 13.32 13.9482 13.27C16.5955 12.94 19.1326 11.94 21.2685 10.39C21.5994 10.14 22.0707 10.22 22.3214 10.56C22.5621 10.89 22.4919 11.36 22.1509 11.61C19.8044 13.31 17.0368 14.4 14.1287 14.77C14.0986 14.77 14.0685 14.77 14.0384 14.77C13.6674 14.77 13.3365 14.49 13.2964 14.11Z" fill="#B0B0B0"/>
<path d="M9.9382 14.7799C7.19059 14.4699 4.51318 13.4699 2.19676 11.8899C1.85581 11.6599 1.76556 11.1899 1.9962 10.8499C2.22684 10.5099 2.69815 10.4199 3.03909 10.6499C5.15495 12.0899 7.5917 12.9999 10.0986 13.2899C10.5098 13.3399 10.8106 13.7099 10.7605 14.1199C10.7304 14.4999 10.4095 14.7799 10.0285 14.7799C9.99837 14.7799 9.96829 14.7799 9.9382 14.7799Z" fill="#B0B0B0"/>
</svg>
