<svg width="25" height="24" viewBox="0 0 25 24" fill="none" xmlns="http://www.w3.org/2000/svg">
<path fill-rule="evenodd" clip-rule="evenodd" d="M15.7737 11.25C13.7581 11.25 12.7854 10.36 12.7854 8.52V3.98C12.7854 2.14 13.7681 1.25 15.7737 1.25H19.8249C21.8405 1.25 22.8132 2.14 22.8132 3.98V8.51C22.8132 10.36 21.8305 11.25 19.8249 11.25H15.7737Z" fill="#436AF5"/>
<path fill-rule="evenodd" clip-rule="evenodd" d="M15.7737 22.75C13.7581 22.75 12.7854 21.77 12.7854 19.77V15.73C12.7854 13.72 13.7681 12.75 15.7737 12.75H19.8249C21.8405 12.75 22.8132 13.73 22.8132 15.73V19.77C22.8132 21.77 21.8305 22.75 19.8249 22.75H15.7737Z" fill="#436AF5"/>
<path fill-rule="evenodd" clip-rule="evenodd" d="M4.2417 11.25C2.22611 11.25 1.25342 10.36 1.25342 8.52V3.98C1.25342 2.14 2.23614 1.25 4.2417 1.25H8.29292C10.3085 1.25 11.2812 2.14 11.2812 3.98V8.51C11.2812 10.36 10.2985 11.25 8.29292 11.25H4.2417Z" fill="#436AF5"/>
<path fill-rule="evenodd" clip-rule="evenodd" d="M4.2417 22.75C2.22611 22.75 1.25342 21.77 1.25342 19.77V15.73C1.25342 13.72 2.23614 12.75 4.2417 12.75H8.29292C10.3085 12.75 11.2812 13.73 11.2812 15.73V19.77C11.2812 21.77 10.2985 22.75 8.29292 22.75H4.2417Z" fill="#436AF5"/>
</svg>
