<svg width="25" height="24" viewBox="0 0 25 24" fill="none" xmlns="http://www.w3.org/2000/svg">
<path fill-rule="evenodd" clip-rule="evenodd" d="M15.7737 11.25C13.7581 11.25 12.7854 10.36 12.7854 8.52V3.98C12.7854 2.14 13.7681 1.25 15.7737 1.25H19.8249C21.8405 1.25 22.8132 2.14 22.8132 3.98V8.51C22.8132 10.36 21.8305 11.25 19.8249 11.25H15.7737ZM14.2896 3.98V8.51C14.2896 9.37 14.43 9.74 15.7737 9.74H19.8249C21.1686 9.74 21.309 9.36 21.309 8.51V3.98C21.309 3.12 21.1686 2.75 19.8249 2.75H15.7737C14.43 2.75 14.2896 3.13 14.2896 3.98Z" fill="#B0B0B0"/>
<path fill-rule="evenodd" clip-rule="evenodd" d="M15.7737 22.75C13.7581 22.75 12.7854 21.77 12.7854 19.77V15.73C12.7854 13.72 13.7681 12.75 15.7737 12.75H19.8249C21.8405 12.75 22.8132 13.73 22.8132 15.73V19.77C22.8132 21.77 21.8305 22.75 19.8249 22.75H15.7737ZM14.2896 15.73V19.77C14.2896 20.95 14.5904 21.25 15.7737 21.25H19.8249C21.0082 21.25 21.309 20.95 21.309 19.77V15.73C21.309 14.55 21.0082 14.25 19.8249 14.25H15.7737C14.5904 14.25 14.2896 14.55 14.2896 15.73Z" fill="#B0B0B0"/>
<path fill-rule="evenodd" clip-rule="evenodd" d="M4.2417 11.25C2.22611 11.25 1.25342 10.36 1.25342 8.52V3.98C1.25342 2.14 2.23614 1.25 4.2417 1.25H8.29292C10.3085 1.25 11.2812 2.14 11.2812 3.98V8.51C11.2812 10.36 10.2985 11.25 8.29292 11.25H4.2417ZM2.75758 3.98V8.51C2.75758 9.37 2.89797 9.74 4.2417 9.74H8.29292C9.63664 9.74 9.77703 9.36 9.77703 8.51V3.98C9.77703 3.12 9.63664 2.75 8.29292 2.75H4.2417C2.89797 2.75 2.75758 3.13 2.75758 3.98Z" fill="#B0B0B0"/>
<path fill-rule="evenodd" clip-rule="evenodd" d="M4.2417 22.75C2.22611 22.75 1.25342 21.77 1.25342 19.77V15.73C1.25342 13.72 2.23614 12.75 4.2417 12.75H8.29292C10.3085 12.75 11.2812 13.73 11.2812 15.73V19.77C11.2812 21.77 10.2985 22.75 8.29292 22.75H4.2417ZM2.75758 15.73V19.77C2.75758 20.95 3.05842 21.25 4.2417 21.25H8.29292C9.4762 21.25 9.77703 20.95 9.77703 19.77V15.73C9.77703 14.55 9.4762 14.25 8.29292 14.25H4.2417C3.05842 14.25 2.75758 14.55 2.75758 15.73Z" fill="#B0B0B0"/>
</svg>
