<svg width="16" height="16" viewBox="0 0 16 16" fill="none" xmlns="http://www.w3.org/2000/svg">
<path d="M3.27293 4.27167C3.0796 4.07833 3.0796 3.75833 3.27293 3.565L5.69293 1.145C5.88626 0.951667 6.20626 0.951667 6.3996 1.145C6.59293 1.33833 6.59293 1.65833 6.3996 1.85167L3.9796 4.27167C3.8796 4.365 3.75293 4.41833 3.62626 4.41833C3.4996 4.41833 3.36626 4.365 3.27293 4.27167Z" fill="#747E8B"/>
<path d="M12.3516 4.27167L9.93162 1.85167C9.73829 1.65833 9.73829 1.33833 9.93162 1.145C10.125 0.951667 10.445 0.951667 10.6383 1.145L13.0583 3.565C13.2516 3.75833 13.2516 4.07833 13.0583 4.27167C12.965 4.365 12.8316 4.41833 12.705 4.41833C12.5783 4.41833 12.4516 4.37167 12.3516 4.27167Z" fill="#747E8B"/>
<path fill-rule="evenodd" clip-rule="evenodd" d="M13.5 7.23503H13.3467H2.83333C2.36667 7.24169 1.83333 7.24169 1.44667 6.85503C1.14 6.55503 1 6.08836 1 5.40169C1 3.56836 2.34 3.56836 2.98 3.56836H13.3533C13.9933 3.56836 15.3333 3.56836 15.3333 5.40169C15.3333 6.09503 15.1933 6.55503 14.8867 6.85503C14.54 7.20169 14.0733 7.23503 13.64 7.23503C13.5933 7.23503 13.5467 7.23503 13.5 7.23503ZM13.5067 6.23503C13.8067 6.24169 14.0867 6.24169 14.18 6.14836C14.2267 6.10169 14.3267 5.94169 14.3267 5.40169C14.3267 4.64836 14.14 4.56836 13.3467 4.56836H2.98C2.18667 4.56836 2 4.64836 2 5.40169C2 5.94169 2.10667 6.10169 2.14667 6.14836C2.24 6.23503 2.52667 6.23503 2.82 6.23503H2.98H13.5067Z" fill="#747E8B"/>
<path d="M6.1748 11.8667V9.5C6.1748 9.22667 6.40147 9 6.6748 9C6.94814 9 7.1748 9.22667 7.1748 9.5V11.8667C7.1748 12.1467 6.94814 12.3667 6.6748 12.3667C6.40147 12.3667 6.1748 12.14 6.1748 11.8667Z" fill="#747E8B"/>
<path d="M9.23975 11.8667V9.5C9.23975 9.22667 9.46641 9 9.73975 9C10.0131 9 10.2397 9.22667 10.2397 9.5V11.8667C10.2397 12.1467 10.0131 12.3667 9.73975 12.3667C9.46641 12.3667 9.23975 12.14 9.23975 11.8667Z" fill="#747E8B"/>
<path d="M6.07431 15.3325C3.68764 15.3325 3.15431 13.9125 2.94764 12.6792L2.00764 6.91252C1.96098 6.63919 2.14764 6.38585 2.42098 6.33919C2.69431 6.29252 2.94764 6.47919 2.99431 6.75252L3.93431 12.5125C4.12764 13.6925 4.52764 14.3325 6.07431 14.3325H10.0943C11.8076 14.3325 12.001 13.7325 12.221 12.5725L13.341 6.73918C13.3943 6.46585 13.6543 6.28585 13.9276 6.34585C14.201 6.39919 14.3743 6.65918 14.321 6.93252L13.201 12.7659C12.941 14.1192 12.5076 15.3325 10.0943 15.3325H6.07431Z" fill="#747E8B"/>
</svg>
