<svg width="20" height="20" viewBox="0 0 20 20" fill="none" xmlns="http://www.w3.org/2000/svg">
<path d="M6.04297 4.16406V1.66406C6.04297 1.3224 6.3263 1.03906 6.66797 1.03906C7.00964 1.03906 7.29297 1.3224 7.29297 1.66406V4.16406C7.29297 4.50573 7.00964 4.78906 6.66797 4.78906C6.3263 4.78906 6.04297 4.50573 6.04297 4.16406Z" fill="#959CA6"/>
<path d="M12.707 4.16406V1.66406C12.707 1.3224 12.9904 1.03906 13.332 1.03906C13.6737 1.03906 13.957 1.3224 13.957 1.66406V4.16406C13.957 4.50573 13.6737 4.78906 13.332 4.78906C12.9904 4.78906 12.707 4.50573 12.707 4.16406Z" fill="#959CA6"/>
<path d="M2.91797 8.20312C2.5763 8.20312 2.29297 7.91979 2.29297 7.57812C2.29297 7.23646 2.5763 6.95312 2.91797 6.95312H17.0846C17.4263 6.95312 17.7096 7.23646 17.7096 7.57812C17.7096 7.91979 17.4263 8.20312 17.0846 8.20312H2.91797Z" fill="#959CA6"/>
<path fill-rule="evenodd" clip-rule="evenodd" d="M6.66667 18.9557C3.625 18.9557 1.875 17.2057 1.875 14.1641V7.08073C1.875 4.03906 3.625 2.28906 6.66667 2.28906H13.3333C16.375 2.28906 18.125 4.03906 18.125 7.08073V14.1641C18.125 17.2057 16.375 18.9557 13.3333 18.9557H6.66667ZM3.125 7.08073V14.1641C3.125 16.5474 4.28333 17.7057 6.66667 17.7057H13.3333C15.7167 17.7057 16.875 16.5474 16.875 14.1641V7.08073C16.875 4.6974 15.7167 3.53906 13.3333 3.53906H6.66667C4.28333 3.53906 3.125 4.6974 3.125 7.08073Z" fill="#959CA6"/>
<path d="M6.76666 12.0141C6.66666 11.9724 6.57501 11.9141 6.49167 11.8391C6.41667 11.7557 6.35832 11.6641 6.31666 11.5641C6.27499 11.4641 6.25 11.3557 6.25 11.2474C6.25 11.0307 6.34167 10.8141 6.49167 10.6557C6.57501 10.5807 6.66666 10.5224 6.76666 10.4807C6.91666 10.4141 7.08334 10.3974 7.25001 10.4307C7.30001 10.4391 7.35 10.4557 7.4 10.4807C7.45 10.4974 7.5 10.5224 7.55 10.5558C7.59166 10.5891 7.63333 10.6224 7.67499 10.6557C7.70833 10.6974 7.74999 10.7391 7.77499 10.7807C7.80832 10.8307 7.83334 10.8807 7.85001 10.9307C7.87501 10.9807 7.89168 11.0307 7.90001 11.0807C7.90834 11.1391 7.91667 11.1891 7.91667 11.2474C7.91667 11.4641 7.82499 11.6807 7.67499 11.8391C7.51666 11.9891 7.3 12.0807 7.08333 12.0807C6.975 12.0807 6.86666 12.0558 6.76666 12.0141Z" fill="#959CA6"/>
<path d="M9.40964 11.8381C9.37631 11.7965 9.34298 11.7548 9.30965 11.7131C9.27631 11.6631 9.25129 11.6131 9.23462 11.5631C9.20962 11.5131 9.19296 11.4632 9.18463 11.4132C9.17629 11.3548 9.16797 11.3048 9.16797 11.2465C9.16797 11.1381 9.19296 11.0298 9.23462 10.9298C9.27629 10.8298 9.33464 10.7382 9.40964 10.6548C9.64298 10.4215 10.018 10.3465 10.318 10.4798C10.4263 10.5215 10.5096 10.5798 10.593 10.6548C10.743 10.8132 10.8346 11.0298 10.8346 11.2465C10.8346 11.3048 10.8263 11.3548 10.818 11.4132C10.8096 11.4632 10.793 11.5131 10.768 11.5631C10.7513 11.6131 10.7263 11.6631 10.693 11.7131C10.6596 11.7548 10.6263 11.7965 10.593 11.8381C10.5096 11.9131 10.4263 11.9715 10.318 12.0132C10.218 12.0548 10.1096 12.0798 10.0013 12.0798C9.78464 12.0798 9.56798 11.9881 9.40964 11.8381Z" fill="#959CA6"/>
<path d="M6.76666 14.935C6.66666 14.8934 6.57501 14.835 6.49167 14.76C6.41667 14.6767 6.35832 14.5934 6.31666 14.485C6.27499 14.385 6.25 14.2767 6.25 14.1684C6.25 13.9517 6.34167 13.735 6.49167 13.5767C6.57501 13.5017 6.66666 13.4433 6.76666 13.4017C7.075 13.2683 7.44166 13.3434 7.67499 13.5767C7.70833 13.6184 7.74999 13.66 7.77499 13.7017C7.80832 13.7517 7.83334 13.8017 7.85001 13.8517C7.87501 13.9017 7.89168 13.9517 7.90001 14.01C7.90834 14.06 7.91667 14.1184 7.91667 14.1684C7.91667 14.385 7.82499 14.6017 7.67499 14.76C7.51666 14.91 7.3 15.0017 7.08333 15.0017C6.975 15.0017 6.86666 14.9767 6.76666 14.935Z" fill="#959CA6"/>
</svg>
