<svg width="16" height="16" viewBox="0 0 16 16" fill="none" xmlns="http://www.w3.org/2000/svg">
<path d="M3.44186 15C2.09395 15 1 13.906 1 12.5581V1.48837C1 1.2214 1.2214 1 1.48837 1C1.75535 1 1.97674 1.2214 1.97674 1.48837V12.5581C1.97674 13.3656 2.63442 14.0233 3.44186 14.0233H14.5116C14.7786 14.0233 15 14.2447 15 14.5116C15 14.7786 14.7786 15 14.5116 15H3.44186Z" fill="#747E8B"/>
<path d="M3.62901 11.5907C3.43926 11.4167 3.41477 11.1137 3.58004 10.9075L6.38971 7.45291C6.69577 7.07909 7.1365 6.85352 7.60172 6.83418C8.06694 6.82129 8.52603 7.00175 8.85658 7.34978L9.4381 7.96208C9.59113 8.12321 9.79313 8.20054 10.0074 8.20054C10.2216 8.1941 10.4175 8.09097 10.5583 7.91696L13.368 4.46239C13.5332 4.26259 13.8209 4.2368 14.0168 4.41081C14.2066 4.58483 14.2311 4.88775 14.0658 5.09399L11.2561 8.54858C10.9501 8.9224 10.5093 9.14797 10.0441 9.16731C9.57889 9.1802 9.11979 8.99975 8.78924 8.65171L8.21385 8.03942C8.06081 7.87829 7.85881 7.7945 7.64457 7.80095C7.43032 7.80739 7.23444 7.91052 7.09365 8.08454L4.28399 11.5391C4.18605 11.6487 4.0575 11.7067 3.92896 11.7067C3.8249 11.7067 3.71471 11.668 3.62901 11.5907Z" fill="#747E8B"/>
</svg>
