<svg width="22" height="22" viewBox="0 0 22 22" fill="none" xmlns="http://www.w3.org/2000/svg">
<path fill-rule="evenodd" clip-rule="evenodd" d="M0 10.75C0 4.82 4.82 0 10.75 0C16.68 0 21.5 4.82 21.5 10.75C21.5 16.68 16.68 21.5 10.75 21.5C4.82 21.5 0 16.68 0 10.75ZM1.5 10.75C1.5 15.85 5.65 20 10.75 20C15.85 20 20 15.85 20 10.75C20 5.65 15.85 1.5 10.75 1.5C5.65 1.5 1.5 5.65 1.5 10.75Z" fill="#6A7582"/>
<path d="M7.38938 14.1094C7.09938 13.8194 7.09938 13.3394 7.38938 13.0494L13.0494 7.38938C13.3394 7.09938 13.8194 7.09938 14.1094 7.38938C14.3994 7.67937 14.3994 8.15937 14.1094 8.44937L8.44937 14.1094C8.30937 14.2594 8.10937 14.3294 7.91937 14.3294C7.72937 14.3294 7.53938 14.2594 7.38938 14.1094Z" fill="#6A7582"/>
<path d="M13.0494 14.1094L7.38938 8.44937C7.09938 8.15937 7.09938 7.67937 7.38938 7.38938C7.67937 7.09938 8.15937 7.09938 8.44937 7.38938L14.1094 13.0494C14.3994 13.3394 14.3994 13.8194 14.1094 14.1094C13.9594 14.2594 13.7694 14.3294 13.5794 14.3294C13.3894 14.3294 13.1994 14.2594 13.0494 14.1094Z" fill="#6A7582"/>
</svg>
