<svg width="24" height="24" viewBox="0 0 24 24" fill="none" xmlns="http://www.w3.org/2000/svg">
<rect width="24" height="24" rx="6" fill="#EBF9EE"/>
<path d="M9.99992 19.7635C6.37983 19.7635 4.83313 18.0879 4.83313 14.1662V9.83271C4.83313 5.91095 6.37983 4.23535 9.99992 4.23535H13.3333C13.6067 4.23535 13.8334 4.48091 13.8334 4.77703C13.8334 5.07315 13.6067 5.31871 13.3333 5.31871H9.99992C6.92651 5.31871 5.83315 6.50318 5.83315 9.83271V14.1662C5.83315 17.4957 6.92651 18.6802 9.99992 18.6802H14C17.0734 18.6802 18.1668 17.4957 18.1668 14.1662V10.555C18.1668 10.2588 18.3935 10.0133 18.6668 10.0133C18.9401 10.0133 19.1668 10.2588 19.1668 10.555V14.1662C19.1668 18.0879 17.6201 19.7635 14 19.7635H9.99992Z" fill="#299E47"/>
<path fill-rule="evenodd" clip-rule="evenodd" d="M16.0002 11.0975C13.7202 11.0975 12.8335 10.1369 12.8335 7.66688V4.77792C12.8335 4.56125 12.9535 4.35902 13.1402 4.27957C13.3268 4.1929 13.5402 4.24346 13.6869 4.39513L19.0203 10.1731C19.1603 10.3247 19.207 10.5631 19.127 10.7653C19.047 10.9675 18.867 11.0975 18.667 11.0975H16.0002ZM13.8335 7.66688C13.8335 9.53026 14.2802 10.0142 16.0002 10.0142H17.4603L13.8335 6.08517V7.66688Z" fill="#299E47"/>
<path d="M8.66652 13.265C8.39318 13.265 8.1665 13.0194 8.1665 12.7233C8.1665 12.4272 8.39318 12.1816 8.66652 12.1816H14.8822C15.1555 12.1816 15.3822 12.4272 15.3822 12.7233C15.3822 13.0194 15.1555 13.265 14.8822 13.265H8.66652Z" fill="#299E47"/>
<path d="M10.3159 16.831C10.3159 17.1044 10.0703 17.3311 9.77422 17.3311C9.47811 17.3311 9.23254 17.1044 9.23254 16.831V10.6154C9.23254 10.342 9.47811 10.1154 9.77422 10.1154C10.0703 10.1154 10.3159 10.342 10.3159 10.6154V16.831Z" fill="#299E47"/>
<path d="M14.3818 16.8926C14.3818 17.1659 14.1363 17.3926 13.8401 17.3926C13.544 17.3926 13.2985 17.1659 13.2985 16.8926V11.9998C13.2985 11.7265 13.544 11.4998 13.8401 11.4998C14.1363 11.4998 14.3818 11.7265 14.3818 11.9998V16.8926Z" fill="#299E47"/>
<path d="M8.66652 16.1527C8.39318 16.1527 8.1665 15.9071 8.1665 15.611C8.1665 15.3149 8.39318 15.0693 8.66652 15.0693H15C15.2733 15.0693 15.5 15.3149 15.5 15.611C15.5 15.9071 15.2733 16.1527 15 16.1527L8.66652 16.1527Z" fill="#299E47"/>
</svg>
