<svg width="12" height="12" viewBox="0 0 12 13" fill="none" xmlns="http://www.w3.org/2000/svg">
<path d="M4.37023 11.6251C1.91523 11.6251 0.865234 10.5751 0.865234 8.12014V8.05514C0.865234 5.83513 1.74023 4.76513 3.70023 4.58013C3.90023 4.56513 4.09023 4.71514 4.11023 4.92014C4.13023 5.12514 3.98023 5.31013 3.77023 5.33013C2.20023 5.47513 1.61523 6.21514 1.61523 8.06014V8.12514C1.61523 10.1601 2.33523 10.8801 4.37023 10.8801H7.63023C9.66523 10.8801 10.3852 10.1601 10.3852 8.12514V8.06014C10.3852 6.20514 9.79023 5.46513 8.19023 5.33013C7.98523 5.31013 7.83023 5.13014 7.85023 4.92514C7.87023 4.72014 8.04523 4.56513 8.25523 4.58513C10.2452 4.75513 11.1352 5.83014 11.1352 8.06514V8.13014C11.1352 10.5751 10.0852 11.6251 7.63023 11.6251H4.37023Z" fill="#2A394E"/>
<path d="M5.625 7.94V1.5C5.625 1.295 5.795 1.125 6 1.125C6.205 1.125 6.375 1.295 6.375 1.5V7.94C6.375 8.15 6.205 8.315 6 8.315C5.795 8.315 5.625 8.145 5.625 7.94Z" fill="#2A394E"/>
<path d="M5.73492 8.76492L4.05992 7.08992C3.91492 6.94492 3.91492 6.70492 4.05992 6.55992C4.20492 6.41492 4.44492 6.41492 4.58992 6.55992L5.99992 7.96992L7.40992 6.55992C7.55492 6.41492 7.79492 6.41492 7.93992 6.55992C8.08492 6.70492 8.08492 6.94492 7.93992 7.08992L6.26492 8.76492C6.18992 8.83992 6.09492 8.87492 5.99992 8.87492C5.90492 8.87492 5.80992 8.83992 5.73492 8.76492Z" fill="#2A394E"/>
</svg>
