<svg width="20" height="20" viewBox="0 0 20 20" fill="none" xmlns="http://www.w3.org/2000/svg">
<path d="M7.408 1.44193C11.108 1.44193 12.8913 2.90026 13.1997 6.16693C13.233 6.5086 12.983 6.81693 12.633 6.85026C12.2997 6.8836 11.983 6.62526 11.9497 6.2836C11.708 3.66693 10.4747 2.69193 7.39966 2.69193L7.29133 2.69193C3.89966 2.69193 2.69966 3.89193 2.69966 7.28359L2.69966 12.7169C2.69966 16.1086 3.89966 17.3086 7.29133 17.3086L7.39966 17.3086C10.4913 17.3086 11.7247 16.3169 11.9497 13.6503C11.9913 13.3086 12.283 13.0503 12.633 13.0836C12.983 13.1086 13.233 13.4169 13.208 13.7586C12.9247 17.0753 11.133 18.5586 7.408 18.5586L7.29966 18.5586C3.208 18.5586 1.458 16.8086 1.458 12.7169L1.458 7.28359C1.458 3.19193 3.208 1.44193 7.29966 1.44193L7.408 1.44193Z" fill="#747E8B"/>
<path d="M16.9841 9.375C17.3258 9.375 17.6091 9.65833 17.6091 10C17.6091 10.3417 17.3258 10.625 16.9841 10.625L7.5008 10.625C7.15913 10.625 6.8758 10.3417 6.8758 10C6.8758 9.65833 7.15913 9.375 7.5008 9.375L16.9841 9.375Z" fill="#747E8B"/>
<path d="M15.5671 6.76615L18.3588 9.55781C18.6005 9.79948 18.6005 10.1995 18.3588 10.4411L15.5671 13.2328C15.3255 13.4745 14.9255 13.4745 14.6838 13.2328C14.4421 12.9911 14.4421 12.5911 14.6838 12.3495L17.0338 9.99948L14.6838 7.64948C14.4421 7.40781 14.4421 7.00781 14.6838 6.76615C14.8005 6.64115 14.9671 6.58281 15.1255 6.58281C15.2838 6.58281 15.4421 6.64115 15.5671 6.76615Z" fill="#747E8B"/>
</svg>
