<svg width="20" height="20" viewBox="0 0 20 20" fill="none" xmlns="http://www.w3.org/2000/svg">
<path d="M9.42771 1.46355C9.80685 1.24466 10.274 1.24466 10.6531 1.46355L17.1271 5.20133C17.5063 5.42022 17.7399 5.82476 17.7399 6.26256V13.7381C17.7399 14.1759 17.5063 14.5804 17.1271 14.7993L10.6531 18.5371C10.274 18.756 9.80685 18.756 9.42771 18.5371L2.95366 14.7993C2.57452 14.5804 2.34096 14.1759 2.34096 13.7381V6.26256C2.34096 5.82476 2.57452 5.42022 2.95366 5.20133L9.42771 1.46355Z" stroke="#747E8B" stroke-width="1.2"/>
<path d="M11.6523 12.0831C11.6266 12.01 11.5576 11.9612 11.4802 11.9612H8.5515C8.47406 11.9612 8.40504 12.01 8.37932 12.0831L7.98195 13.2116C7.91764 13.3942 7.74511 13.5164 7.5515 13.5164H6.70088C6.63774 13.5164 6.59367 13.4538 6.61494 13.3944L9.25514 6.01461C9.28111 5.94201 9.3499 5.89355 9.42701 5.89355H10.6156C10.6927 5.89355 10.7615 5.942 10.7875 6.01461L13.4277 13.3944C13.4489 13.4538 13.4049 13.5164 13.3417 13.5164H12.4802C12.2865 13.5164 12.114 13.3942 12.0497 13.2116L11.6523 12.0831ZM11.1303 10.9426C11.1932 10.9426 11.2372 10.8805 11.2165 10.8212L10.1071 7.65015C10.0786 7.56876 9.96356 7.5686 9.93486 7.64991L8.81566 10.821C8.7947 10.8803 8.83876 10.9426 8.90173 10.9426H11.1303Z" fill="#747E8B"/>
</svg>
