<svg width="24" height="24" viewBox="0 0 24 24" fill="none" xmlns="http://www.w3.org/2000/svg">
<rect width="24" height="24" rx="6" fill="#FFEBEA"/>
<path d="M9.99992 19.7635C6.37983 19.7635 4.83313 18.0879 4.83313 14.1662V9.83271C4.83313 5.91095 6.37983 4.23535 9.99992 4.23535H13.3333C13.6067 4.23535 13.8334 4.48091 13.8334 4.77703C13.8334 5.07315 13.6067 5.31871 13.3333 5.31871H9.99992C6.92651 5.31871 5.83315 6.50318 5.83315 9.83271V14.1662C5.83315 17.4957 6.92651 18.6802 9.99992 18.6802H14C17.0734 18.6802 18.1668 17.4957 18.1668 14.1662V10.555C18.1668 10.2588 18.3935 10.0133 18.6668 10.0133C18.9401 10.0133 19.1668 10.2588 19.1668 10.555V14.1662C19.1668 18.0879 17.6201 19.7635 14 19.7635H9.99992Z" fill="#C9221C"/>
<path fill-rule="evenodd" clip-rule="evenodd" d="M16.0002 11.0985C13.7202 11.0985 12.8335 10.1379 12.8335 7.66785V4.7789C12.8335 4.56222 12.9535 4.36 13.1402 4.28055C13.3268 4.19388 13.5402 4.24444 13.6869 4.39611L19.0203 10.174C19.1603 10.3257 19.207 10.564 19.127 10.7663C19.047 10.9685 18.867 11.0985 18.667 11.0985H16.0002ZM13.8335 7.66785C13.8335 9.53123 14.2802 10.0151 16.0002 10.0151H17.4603L13.8335 6.08615V7.66785Z" fill="#C9221C"/>
<path d="M8.66652 13.265C8.39318 13.265 8.1665 13.0194 8.1665 12.7233C8.1665 12.4272 8.39318 12.1816 8.66652 12.1816H12.6666C12.94 12.1816 13.1666 12.4272 13.1666 12.7233C13.1666 13.0194 12.94 13.265 12.6666 13.265H8.66652Z" fill="#C9221C"/>
<path d="M8.66652 16.1527C8.39318 16.1527 8.1665 15.9071 8.1665 15.611C8.1665 15.3149 8.39318 15.0693 8.66652 15.0693H11.3332C11.6066 15.0693 11.8333 15.3149 11.8333 15.611C11.8333 15.9071 11.6066 16.1527 11.3332 16.1527H8.66652Z" fill="#C9221C"/>
<path opacity="0.01" fill-rule="evenodd" clip-rule="evenodd" d="M20.0001 3.33398V20.6677H3.99976V3.33398H20.0001Z" fill="#C9221C"/>
</svg>
