<svg width="122" height="107" viewBox="0 0 122 107" fill="none" xmlns="http://www.w3.org/2000/svg">
<g clip-path="url(#clip0_511_239161)">
<ellipse cx="67.409" cy="74.0963" rx="64.409" ry="64.0963" fill="url(#paint0_linear_511_239161)"/>
<circle cx="68.5857" cy="74.657" r="55.029" fill="url(#paint1_linear_511_239161)"/>
<rect x="9.80566" y="54.6464" width="40.0211" height="23.7625" rx="3.75198" fill="url(#paint2_linear_511_239161)"/>
<path d="M14.665 60.486H24.7224" stroke="url(#paint3_linear_511_239161)" stroke-width="1.18322" stroke-linecap="round"/>
<path d="M14.6426 63.0632H30.3408" stroke="url(#paint4_linear_511_239161)" stroke-width="1.18322" stroke-linecap="round"/>
<rect x="14.1826" y="71.5303" width="19.3852" height="3.75198" rx="1.25066" fill="#D7E0FF"/>
<rect x="18.5605" y="72.781" width="10.6306" height="1.25066" rx="0.62533" fill="#CAD6FF"/>
<line x1="14.1826" y1="68.9665" x2="37.9452" y2="68.9665" stroke="#D7E0FF" stroke-width="0.125066"/>
<rect x="36.9102" y="32.3399" width="64.4856" height="82.8255" rx="5.64306" fill="url(#paint5_linear_511_239161)"/>
<rect x="46.2646" y="53.9513" width="11.2133" height="1.40166" rx="0.700832" fill="url(#paint6_linear_511_239161)"/>
<rect x="46.2646" y="57.7195" width="16.82" height="1.40166" rx="0.700832" fill="url(#paint7_linear_511_239161)"/>
<rect x="67.3658" y="51.1751" width="21.7223" height="10.7223" rx="2.36115" fill="url(#paint8_linear_511_239161)"/>
<rect x="67.3658" y="51.1751" width="21.7223" height="10.7223" rx="2.36115" stroke="#C0CEFF" stroke-width="0.280333"/>
<path d="M74.3016 53.6661V54.6164H72.7373V59.5362H71.5599V54.6164H69.9957V53.6661H74.3016ZM78.7601 58.4177H76.4222L76.0353 59.5362H74.799L76.9099 53.6576H78.2808L80.3917 59.5362H79.147L78.7601 58.4177ZM78.4405 57.4758L77.5911 55.0201L76.7417 57.4758H78.4405ZM84.6961 59.5362L83.4262 57.5599L82.274 59.5362H80.9452L82.7954 56.5759L80.92 53.6661H82.274L83.5439 55.634L84.6877 53.6661H86.0164L84.1746 56.618L86.0501 59.5362H84.6961Z" fill="#F8FAFF"/>
<path d="M46.0123 67.5216H92.6654C93.3671 67.5216 93.936 68.0905 93.936 68.7922V107.189H44.7417V68.7922C44.7417 68.0905 45.3106 67.5216 46.0123 67.5216Z" stroke="#C0CEFF" stroke-width="0.280333"/>
<path d="M46.968 67.5216H91.7097C92.9393 67.5216 93.936 68.5183 93.936 69.7479V72.1471H44.7417V69.7479C44.7417 68.5183 45.7385 67.5216 46.968 67.5216Z" fill="url(#paint9_linear_511_239161)" stroke="#C0CEFF" stroke-width="0.280333"/>
<line x1="53.1148" y1="72.2872" x2="53.1148" y2="107.329" stroke="#C0CEFF" stroke-width="0.280333"/>
<line x1="83.5611" y1="72.2872" x2="83.5611" y2="107.329" stroke="#C0CEFF" stroke-width="0.280333"/>
<line x1="94.0771" y1="78.7349" x2="44.6025" y2="78.7349" stroke="#C0CEFF" stroke-width="0.280333"/>
<line x1="94.0771" y1="82.9398" x2="44.6025" y2="82.9398" stroke="#C0CEFF" stroke-width="0.280333"/>
<line x1="94.0771" y1="87.1449" x2="44.6025" y2="87.1449" stroke="#C0CEFF" stroke-width="0.280333"/>
<line x1="94.0771" y1="101.161" x2="44.6025" y2="101.161" stroke="#C0CEFF" stroke-width="0.280333"/>
<path d="M25.3768 100.836H53.3597C53.9312 100.836 54.3945 101.3 54.3945 101.872V106.006C54.3945 106.578 53.9312 107.042 53.3597 107.042H25.3768C24.8053 107.042 24.342 106.578 24.342 106.006V101.872C24.342 101.3 24.8053 100.836 25.3768 100.836Z" fill="url(#paint10_linear_511_239161)" stroke="#FFE580" stroke-width="0.26136"/>
<path d="M32.4591 101.353H36.2588V106.525H32.4591V101.353Z" fill="#FFE580"/>
<path d="M29.3503 101.353H31.4229V106.525H29.3503V101.353Z" fill="#FFE580"/>
<path d="M26.933 101.353H28.6602V106.525H26.933V101.353Z" fill="#FFE580"/>
<path d="M25.5506 101.353H26.5869V106.525H25.5506V101.353Z" fill="#FFE580"/>
<path fill-rule="evenodd" clip-rule="evenodd" d="M37.2982 101.353L52.1543 106.522H37.2982V101.353Z" fill="#FFE580"/>
<path d="M31.582 102.061C31.582 101.674 31.8958 101.361 32.2829 101.361H53.0639C53.451 101.361 53.7648 101.674 53.7648 102.061V105.701C53.7648 106.088 53.451 106.402 53.0639 106.402H32.2829C31.8958 106.402 31.582 106.088 31.582 105.701V102.061Z" fill="url(#paint11_linear_511_239161)"/>
<path d="M29.0282 94.6044H57.0111C57.5826 94.6044 58.0459 95.068 58.0459 95.6399V99.7739C58.0459 100.346 57.5826 100.809 57.0111 100.809H29.0282C28.4567 100.809 27.9934 100.346 27.9934 99.7739V95.6399C27.9934 95.068 28.4567 94.6044 29.0282 94.6044Z" fill="url(#paint12_linear_511_239161)" stroke="#FFE580" stroke-width="0.26136"/>
<path d="M36.1095 95.1211H39.9092V100.292H36.1095V95.1211Z" fill="#FFE580"/>
<path d="M33.0007 95.1211H35.0732V100.292H33.0007V95.1211Z" fill="#FFE580"/>
<path d="M30.5834 95.1211H32.3105V100.292H30.5834V95.1211Z" fill="#FFE580"/>
<path d="M29.201 95.1211H30.2373V100.292H29.201V95.1211Z" fill="#FFE580"/>
<path fill-rule="evenodd" clip-rule="evenodd" d="M40.9486 95.1214L55.8047 100.29H40.9486V95.1214Z" fill="#FFE580"/>
<path d="M38.1357 95.5077C38.1357 95.1207 38.4495 94.8069 38.8366 94.8069H57.0969C57.4839 94.8069 57.7977 95.1207 57.7977 95.5077V99.6517C57.7977 100.039 57.4839 100.353 57.0969 100.353H38.8366C38.4495 100.353 38.1357 100.039 38.1357 99.6517V95.5077Z" fill="url(#paint13_linear_511_239161)"/>
<path d="M25.0555 88.3722H53.0384C53.6099 88.3722 54.0732 88.8359 54.0732 89.4077V93.5418C54.0732 94.1137 53.6099 94.5773 53.0384 94.5773H25.0555C24.484 94.5773 24.0207 94.1137 24.0207 93.5418V89.4077C24.0207 88.8359 24.484 88.3722 25.0555 88.3722Z" fill="url(#paint14_linear_511_239161)" stroke="#FFE580" stroke-width="0.26136"/>
<path d="M32.1388 88.8896H35.9385V94.0609H32.1388V88.8896Z" fill="#FFE580"/>
<path d="M29.03 88.8896H31.1025V94.0609H29.03V88.8896Z" fill="#FFE580"/>
<path d="M26.6117 88.8896H28.3389V94.0609H26.6117V88.8896Z" fill="#FFE580"/>
<path d="M25.2293 88.8896H26.2656V94.0609H25.2293V88.8896Z" fill="#FFE580"/>
<path fill-rule="evenodd" clip-rule="evenodd" d="M36.9769 88.8895L51.833 94.0583H36.9769V88.8895Z" fill="#FFE580"/>
<path d="M31.583 89.4581C31.583 89.071 31.8968 88.7573 32.2838 88.7573H53.0649C53.452 88.7573 53.7657 89.071 53.7657 89.4581V93.6021C53.7657 93.9892 53.452 94.3029 53.0649 94.3029H32.2838C31.8968 94.3029 31.583 93.9892 31.583 93.6021V89.4581Z" fill="url(#paint15_linear_511_239161)"/>
<path d="M27.8348 82.0127H55.8177C56.3892 82.0127 56.8525 82.4764 56.8525 83.0483V87.1823C56.8525 87.7542 56.3892 88.2178 55.8177 88.2178H27.8348C27.2633 88.2178 26.8 87.7542 26.8 87.1823V83.0483C26.8 82.4764 27.2633 82.0127 27.8348 82.0127Z" fill="url(#paint16_linear_511_239161)" stroke="#FFE580" stroke-width="0.26136"/>
<path d="M34.9171 82.5296H38.7168V87.7009H34.9171V82.5296Z" fill="#FFE580"/>
<path d="M31.8093 82.5296H33.8818V87.7009H31.8093V82.5296Z" fill="#FFE580"/>
<path d="M29.391 82.5296H31.1182V87.7009H29.391V82.5296Z" fill="#FFE580"/>
<path d="M28.0086 82.5296H29.0449V87.7009H28.0086V82.5296Z" fill="#FFE580"/>
<path fill-rule="evenodd" clip-rule="evenodd" d="M39.7562 82.5297L54.6123 87.6985H39.7562V82.5297Z" fill="#FFE580"/>
<path d="M37.1279 82.904C37.1279 82.5169 37.4417 82.2031 37.8288 82.2031H55.5849C55.972 82.2031 56.2857 82.5169 56.2857 82.904V87.048C56.2857 87.435 55.972 87.7488 55.5849 87.7488H37.8288C37.4417 87.7488 37.1279 87.435 37.1279 87.048V82.904Z" fill="url(#paint17_linear_511_239161)"/>
<path d="M34.9867 93.6138C35.7307 92.9034 36.0231 91.1895 36.0231 91.1895C36.0231 91.1895 36.2297 92.8974 36.9443 93.6138C37.6589 94.3302 39.3625 94.5374 39.3625 94.5374C39.3625 94.5374 37.7753 94.6208 37.0594 95.23C36.2127 95.9507 36.0231 97.8853 36.0231 97.8853C36.0231 97.8853 35.8334 95.9507 34.9867 95.23C34.2708 94.6208 32.6836 94.5374 32.6836 94.5374C32.6836 94.5374 34.2852 94.2836 34.9867 93.6138Z" fill="white"/>
<rect x="100.213" y="78.4856" width="29.861" height="28.9942" rx="2.82153" fill="#6F8FFF"/>
<rect x="102.651" y="80.9241" width="24.9842" height="5.73408" rx="1.41076" fill="#BFCEFF"/>
<rect x="102.651" y="89.0965" width="3.65762" height="3.65762" rx="1.41076" fill="#BFCEFF"/>
<rect x="102.651" y="95.2116" width="3.65762" height="3.65762" rx="1.41076" fill="#BFCEFF"/>
<rect x="102.651" y="101.327" width="3.65762" height="3.65762" rx="1.41076" fill="#BFCEFF"/>
<rect x="107.947" y="89.0965" width="3.65762" height="3.65762" rx="1.41076" fill="#BFCEFF"/>
<rect x="107.947" y="95.2116" width="3.65762" height="3.65762" rx="1.41076" fill="#BFCEFF"/>
<rect x="107.947" y="101.327" width="3.65762" height="3.65762" rx="1.41076" fill="#BFCEFF"/>
<rect x="113.243" y="89.0966" width="3.65762" height="3.65762" rx="1.41076" fill="#BFCEFF"/>
<rect x="113.243" y="95.2117" width="3.65762" height="3.65762" rx="1.41076" fill="#BFCEFF"/>
<rect x="113.243" y="101.327" width="3.65762" height="3.65762" rx="1.41076" fill="#BFCEFF"/>
<rect x="118.539" y="89.0966" width="3.65762" height="3.65762" rx="1.41076" fill="#BFCEFF"/>
<rect x="118.539" y="95.2118" width="3.65762" height="3.65762" rx="1.41076" fill="#BFCEFF"/>
<rect x="118.539" y="101.327" width="3.65762" height="3.65762" rx="1.41076" fill="#BFCEFF"/>
<circle cx="41.9848" cy="38.404" r="1.05807" fill="#8FA6E6"/>
<circle cx="45.5122" cy="38.404" r="1.05807" fill="#8FA6E6"/>
<circle cx="49.0385" cy="38.4039" r="1.05807" fill="#8FA6E6"/>
<line x1="38.8623" y1="42.8479" x2="96.8402" y2="42.8479" stroke="url(#paint18_linear_511_239161)" stroke-width="0.282153"/>
<rect x="0.295834" y="0.295813" width="17.4543" height="17.4471" rx="8.6179" transform="matrix(1 2.40497e-05 9.57191e-05 1 88.1631 74.0727)" fill="#FFD42C" stroke="#FFE88C" stroke-width="0.591611"/>
<path d="M100.508 81.1547L100.218 82.2277L94.7903 82.2276L95.08 81.1546L100.508 81.1547ZM97.867 87.914L94.9023 84.1389L94.8939 83.2919L96.3637 83.2919C96.7308 83.2919 97.0413 83.2325 97.2952 83.1138C97.5491 82.9951 97.7423 82.8228 97.8747 82.5969C98.0072 82.3681 98.0734 82.0901 98.0734 81.7628C98.0733 81.2763 97.9353 80.8897 97.6593 80.6029C97.3832 80.3162 96.9513 80.1729 96.3634 80.1728L94.7901 80.1728L95.0923 79.0173L96.3633 79.0173C97.0478 79.0173 97.6122 79.1317 98.0566 79.3605C98.501 79.5893 98.8322 79.9065 99.0503 80.3119C99.2684 80.7174 99.3774 81.1851 99.3775 81.7151C99.3775 82.1871 99.2879 82.6143 99.1085 82.9966C98.9292 83.3788 98.6435 83.6901 98.2516 83.9305C97.8597 84.1709 97.345 84.3113 96.7074 84.3519L96.6701 84.3605L99.3781 87.8402L99.3781 87.9141L97.867 87.914ZM100.512 79.0174L100.218 80.0991L95.879 80.0729L96.1728 79.0173L100.512 79.0174Z" fill="#FFFAE8"/>
<circle cx="99.644" cy="39.9514" r="11.2285" fill="url(#paint19_linear_511_239161)" stroke="#75D98F" stroke-width="0.680517"/>
<path d="M94.3047 40.0663L97.7869 43.511L104.983 36.3919" stroke="white" stroke-width="1.62277" stroke-linecap="round"/>
<path opacity="0.7" d="M8 81.0026C8 78.2398 10.2398 76 13.0026 76H116.997C119.76 76 122 78.2398 122 81.0026V93.9974C122 96.7602 119.76 99 116.997 99H13.0026C10.2398 99 8 96.7602 8 93.9974V81.0026Z" fill="url(#paint20_linear_511_239161)"/>
<path d="M86.1034 19.6207C87.106 18.5598 87.5 16 87.5 16C87.5 16 87.7785 18.5508 88.7414 19.6207C89.7043 20.6906 92 21 92 21C92 21 89.8612 21.1246 88.8966 22.0345C87.7556 23.1107 87.5 26 87.5 26C87.5 26 87.2444 23.1107 86.1034 22.0345C85.1388 21.1246 83 21 83 21C83 21 85.1582 20.6209 86.1034 19.6207Z" fill="white"/>
<path d="M5.87599 17L7.50064 19.814H4.25133L5.87599 17Z" fill="#ABBEFF"/>
<path d="M9.87599 79L11.5006 81.814H8.25133L9.87599 79Z" fill="#ABBEFF"/>
<circle cx="117.876" cy="13.876" r="1.87599" fill="#D0DBFF"/>
<circle cx="42.4805" cy="21.8865" r="1.87599" fill="#D0DBFF"/>
</g>
<defs>
<linearGradient id="paint0_linear_511_239161" x1="67.409" y1="10" x2="67.409" y2="138.193" gradientUnits="userSpaceOnUse">
<stop stop-color="#E0E7FF"/>
<stop offset="1" stop-color="#E5EBFF"/>
</linearGradient>
<linearGradient id="paint1_linear_511_239161" x1="68.5857" y1="19.628" x2="68.5857" y2="129.686" gradientUnits="userSpaceOnUse">
<stop stop-color="#D4DEFF"/>
<stop offset="1" stop-color="#E5EBFF"/>
</linearGradient>
<linearGradient id="paint2_linear_511_239161" x1="-0.946276" y1="58.8517" x2="36.2322" y2="48.3834" gradientUnits="userSpaceOnUse">
<stop stop-color="#BBCAFF"/>
<stop offset="1" stop-color="#7C99FF"/>
</linearGradient>
<linearGradient id="paint3_linear_511_239161" x1="14.665" y1="60.986" x2="24.7224" y2="60.986" gradientUnits="userSpaceOnUse">
<stop stop-color="#DEE5FF"/>
<stop offset="1" stop-color="#D9E2FF" stop-opacity="0.12"/>
</linearGradient>
<linearGradient id="paint4_linear_511_239161" x1="14.6426" y1="63.5632" x2="30.3408" y2="63.5632" gradientUnits="userSpaceOnUse">
<stop stop-color="#DEE5FF"/>
<stop offset="1" stop-color="#D9E2FF" stop-opacity="0.12"/>
</linearGradient>
<linearGradient id="paint5_linear_511_239161" x1="76.5481" y1="33.8189" x2="50.2834" y2="113.065" gradientUnits="userSpaceOnUse">
<stop stop-color="white"/>
<stop offset="1" stop-color="#CDD8FF"/>
</linearGradient>
<linearGradient id="paint6_linear_511_239161" x1="46.2646" y1="54.6522" x2="57.478" y2="54.6522" gradientUnits="userSpaceOnUse">
<stop stop-color="#7A97FF"/>
<stop offset="1" stop-color="#D0DCFF"/>
</linearGradient>
<linearGradient id="paint7_linear_511_239161" x1="46.2646" y1="58.4203" x2="63.0846" y2="58.4203" gradientUnits="userSpaceOnUse">
<stop stop-color="#7A97FF"/>
<stop offset="1" stop-color="#D0DCFF"/>
</linearGradient>
<linearGradient id="paint8_linear_511_239161" x1="67.2256" y1="56.5362" x2="89.2282" y2="56.5362" gradientUnits="userSpaceOnUse">
<stop stop-color="#5F82FF"/>
<stop offset="1" stop-color="#BECFFF"/>
</linearGradient>
<linearGradient id="paint9_linear_511_239161" x1="44.6016" y1="69.8343" x2="94.0762" y2="69.8343" gradientUnits="userSpaceOnUse">
<stop stop-color="#5F82FF"/>
<stop offset="1" stop-color="#BECFFF"/>
</linearGradient>
<linearGradient id="paint10_linear_511_239161" x1="53.9044" y1="103.939" x2="24.7779" y2="103.939" gradientUnits="userSpaceOnUse">
<stop stop-color="#FFE580"/>
<stop offset="1" stop-color="#FFCC02"/>
</linearGradient>
<linearGradient id="paint11_linear_511_239161" x1="51.9162" y1="101.393" x2="34.5482" y2="111.021" gradientUnits="userSpaceOnUse">
<stop stop-color="#FFCC02"/>
<stop offset="1" stop-color="#FFCC02" stop-opacity="0"/>
</linearGradient>
<linearGradient id="paint12_linear_511_239161" x1="57.5558" y1="97.7069" x2="28.4293" y2="97.7069" gradientUnits="userSpaceOnUse">
<stop stop-color="#FFE580"/>
<stop offset="1" stop-color="#FFCC02"/>
</linearGradient>
<linearGradient id="paint13_linear_511_239161" x1="56.1592" y1="94.843" x2="39.3817" y2="102.337" gradientUnits="userSpaceOnUse">
<stop stop-color="#FFCC02"/>
<stop offset="1" stop-color="#FFCC02" stop-opacity="0"/>
</linearGradient>
<linearGradient id="paint14_linear_511_239161" x1="53.5832" y1="91.4748" x2="24.4566" y2="91.4748" gradientUnits="userSpaceOnUse">
<stop stop-color="#FFE580"/>
<stop offset="1" stop-color="#FFCC02"/>
</linearGradient>
<linearGradient id="paint15_linear_511_239161" x1="51.9172" y1="88.7934" x2="33.8105" y2="97.9182" gradientUnits="userSpaceOnUse">
<stop stop-color="#FFCC02"/>
<stop offset="1" stop-color="#FFCC02" stop-opacity="0"/>
</linearGradient>
<linearGradient id="paint16_linear_511_239161" x1="56.3625" y1="85.1153" x2="27.2359" y2="85.1153" gradientUnits="userSpaceOnUse">
<stop stop-color="#FFE580"/>
<stop offset="1" stop-color="#FFCC02"/>
</linearGradient>
<linearGradient id="paint17_linear_511_239161" x1="54.6893" y1="82.2393" x2="38.2031" y2="89.4145" gradientUnits="userSpaceOnUse">
<stop stop-color="#FFCC02"/>
<stop offset="1" stop-color="#FFCC02" stop-opacity="0"/>
</linearGradient>
<linearGradient id="paint18_linear_511_239161" x1="38.8623" y1="43.489" x2="96.8402" y2="43.489" gradientUnits="userSpaceOnUse">
<stop stop-color="#B2C3FF"/>
<stop offset="1" stop-color="#DFE6FF"/>
</linearGradient>
<linearGradient id="paint19_linear_511_239161" x1="99.644" y1="28.3826" x2="99.644" y2="51.5202" gradientUnits="userSpaceOnUse">
<stop stop-color="#3EB05B"/>
<stop offset="1" stop-color="#65C97F"/>
</linearGradient>
<linearGradient id="paint20_linear_511_239161" x1="65" y1="86.7069" x2="65" y2="99" gradientUnits="userSpaceOnUse">
<stop stop-color="#E5EBFF" stop-opacity="0"/>
<stop offset="1" stop-color="#E5EBFF" stop-opacity="0.32"/>
</linearGradient>
<clipPath id="clip0_511_239161">
<rect width="122" height="107" fill="white"/>
</clipPath>
</defs>
</svg>
