<svg width="10" height="10" viewBox="0 0 10 10" fill="none" xmlns="http://www.w3.org/2000/svg">
<path d="M9.51624 5.01601C9.51624 7.64808 7.38245 9.78187 4.75031 9.78187C2.11824 9.78187 -0.015625 7.64808 -0.015625 5.01601C-0.015625 2.38363 2.11824 0.25 4.75031 0.25C7.38245 0.25 9.51624 2.38363 9.51624 5.01601Z" fill="white"/>
<path d="M4.75096 1.39062C2.66872 1.39062 0.980469 3.0788 0.980469 5.16096C0.980469 7.24367 2.66872 8.93192 4.75096 8.93192C6.83359 8.93192 8.52153 7.24367 8.52153 5.16096C8.52153 3.0788 6.83359 1.39062 4.75096 1.39062ZM4.72514 7.60159C3.3771 7.60159 2.28483 6.50932 2.28483 5.16072C2.28483 3.81323 3.3771 2.7204 4.72514 2.7204C6.07311 2.7204 7.16562 3.81307 7.16562 5.16072C7.16562 6.50932 6.07303 7.60159 4.72514 7.60159Z" fill="#436AF5"/>
<path d="M5.99573 9.62038C6.48225 9.48892 6.9378 9.28255 7.34942 9.01399L4.78082 6.44531L3.80078 7.42535L5.99573 9.62038Z" fill="#436AF5"/>
</svg>
