<svg width="10" height="10" viewBox="0 0 10 10" fill="none" xmlns="http://www.w3.org/2000/svg">
<path d="M9.52015 4.78164C9.52015 7.4137 7.38636 9.54749 4.75422 9.54749C2.12215 9.54749 -0.0117188 7.4137 -0.0117188 4.78164C-0.0117188 2.14925 2.12215 0.015625 4.75422 0.015625C7.38636 0.015625 9.52015 2.14925 9.52015 4.78164Z" fill="#2962FF"/>
<path d="M4.75486 1.15625C2.67263 1.15625 0.984375 2.84442 0.984375 4.92658C0.984375 7.00929 2.67263 8.69755 4.75486 8.69755C6.8375 8.69755 8.52543 7.00929 8.52543 4.92658C8.52543 2.84442 6.8375 1.15625 4.75486 1.15625ZM4.72905 7.36722C3.381 7.36722 2.28873 6.27494 2.28873 4.92634C2.28873 3.57885 3.381 2.48603 4.72905 2.48603C6.07701 2.48603 7.16953 3.5787 7.16953 4.92634C7.16953 6.27494 6.07693 7.36722 4.72905 7.36722Z" fill="white"/>
<path d="M5.99964 9.386C6.48616 9.25454 6.9417 9.04818 7.35332 8.77962L4.78472 6.21094L3.80469 7.19097L5.99964 9.386Z" fill="white"/>
</svg>
