<svg width="16" height="16" viewBox="0 0 16 16" fill="none" xmlns="http://www.w3.org/2000/svg">
<path d="M2.62516 7.96478L1.81849 7.1581L1.01182 7.96478C0.818488 8.15812 0.49849 8.15812 0.305156 7.96478C0.111823 7.77145 0.111823 7.45145 0.305156 7.25812L1.46515 6.09813C1.65849 5.90479 1.97849 5.90479 2.17182 6.09813L3.33182 7.25812C3.52516 7.45145 3.52516 7.77145 3.33182 7.96478C3.23849 8.06478 3.10516 8.11143 2.97849 8.11143C2.85182 8.11143 2.72516 8.06478 2.62516 7.96478Z" fill="#299E47" stroke="#299E47" stroke-width="0.3"/>
<path d="M13.8206 9.90228L12.6606 8.74229C12.4673 8.54896 12.4673 8.22896 12.6606 8.03563C12.854 7.84229 13.174 7.84229 13.3673 8.03563L14.174 8.84231L14.9806 8.03563C15.174 7.84229 15.494 7.84229 15.6873 8.03563C15.8806 8.22896 15.8806 8.54896 15.6873 8.74229L14.5273 9.90228C14.434 9.99562 14.3006 10.049 14.174 10.049C14.0473 10.049 13.9206 10.0023 13.8206 9.90228Z" fill="#299E47" stroke="#299E47" stroke-width="0.3"/>
<path d="M13.6721 9.54928V8.0026C13.6721 4.87594 11.1254 2.32926 7.99873 2.32926C6.27207 2.32926 4.65873 3.1026 3.57207 4.45593C3.39873 4.66927 3.0854 4.7026 2.87206 4.53593C2.65873 4.3626 2.61873 4.04927 2.79207 3.83594C4.0654 2.2426 5.9654 1.33594 7.99873 1.33594C11.6787 1.33594 14.6721 4.32928 14.6721 8.00928V9.55595C14.6721 9.82261 14.4521 10.0493 14.1721 10.0493C13.8987 10.0493 13.6721 9.82261 13.6721 9.54928Z" fill="#299E47" stroke="#299E47" stroke-width="0.3"/>
<path d="M1.32812 7.9998V6.45312C1.32812 6.17979 1.55479 5.95312 1.82812 5.95312C2.10146 5.95312 2.32812 6.17979 2.32812 6.45312V7.9998C2.32812 11.1265 4.87479 13.6731 8.00146 13.6731C9.72813 13.6731 11.3415 12.8998 12.4281 11.5465C12.6015 11.3331 12.9148 11.2931 13.1281 11.4665C13.3415 11.6398 13.3815 11.9531 13.2081 12.1665C11.9348 13.7598 10.0348 14.6731 8.00146 14.6731C4.32146 14.6731 1.32812 11.6798 1.32812 7.9998Z" fill="#299E47" stroke="#299E47" stroke-width="0.3"/>
<g clip-path="url(#clip0_239_104300)">
<path d="M5.67193 5.41581C5.67193 5.15557 5.88218 4.94531 6.14243 4.94531H9.90642C10.1667 4.94531 10.3769 5.15557 10.3769 5.41581C10.3769 5.67606 10.1667 5.88631 9.90642 5.88631H9.08011C9.22126 6.09804 9.32565 6.33623 9.38446 6.59206H9.90642C10.1667 6.59206 10.3769 6.80232 10.3769 7.06256C10.3769 7.32281 10.1667 7.53306 9.90642 7.53306H9.38299C9.18891 8.39025 8.47287 9.05042 7.58627 9.16364L9.7094 10.6795C9.92113 10.831 9.96965 11.125 9.81821 11.3353C9.66676 11.5455 9.3727 11.5955 9.16245 11.4441L5.86895 9.09159C5.7028 8.97397 5.63223 8.76077 5.69398 8.56522C5.75573 8.36967 5.93805 8.23881 6.14243 8.23881H7.31867C7.80094 8.23881 8.21556 7.94916 8.39641 7.53306H6.14243C5.88218 7.53306 5.67193 7.32281 5.67193 7.06256C5.67193 6.80232 5.88218 6.59206 6.14243 6.59206H8.39641C8.21556 6.17596 7.80094 5.88631 7.31867 5.88631H6.14243C5.88218 5.88631 5.67193 5.67606 5.67193 5.41581Z" fill="#299E47" stroke="#299E47" stroke-width="0.1"/>
</g>
<defs>
<clipPath id="clip0_239_104300">
<rect width="6" height="8" fill="white" transform="translate(5 4)"/>
</clipPath>
</defs>
</svg>
