<svg width="32" height="32" viewBox="0 0 32 32" fill="none" xmlns="http://www.w3.org/2000/svg">
<rect x="0.5" y="0.5" width="31" height="31" rx="15.5" fill="white"/>
<rect x="0.5" y="0.5" width="31" height="31" rx="15.5" stroke="#EAEBED"/>
<path d="M21.3575 22.0975L15.8175 16.5575L10.2775 22.0975C9.9875 22.3875 9.5075 22.3875 9.2175 22.0975C8.9275 21.8075 8.9275 21.3275 9.2175 21.0375L15.2875 14.9675C15.5775 14.6775 16.0575 14.6775 16.3475 14.9675L22.4175 21.0375C22.7075 21.3275 22.7075 21.8075 22.4175 22.0975C22.2775 22.2475 22.0775 22.3175 21.8875 22.3175C21.6975 22.3175 21.5075 22.2475 21.3575 22.0975Z" fill="#2A394E"/>
<path d="M9.56757 12.5C9.2573 12.5 9 12.16 9 11.75C9 11.34 9.2573 11 9.56757 11H22.4324C22.7427 11 23 11.34 23 11.75C23 12.16 22.7427 12.5 22.4324 12.5H9.56757Z" fill="#949CA6"/>
</svg>
