<svg xmlns="http://www.w3.org/2000/svg" width="16" height="16" viewBox="0 0 16 16" fill="none">
  <path fill-rule="evenodd" clip-rule="evenodd" d="M0.832031 7.66927C0.832031 3.9026 3.8987 0.835938 7.66536 0.835938C11.432 0.835938 14.4987 3.9026 14.4987 7.66927C14.4987 11.4359 11.432 14.5026 7.66536 14.5026C3.8987 14.5026 0.832031 11.4359 0.832031 7.66927ZM1.83203 7.66927C1.83203 10.8826 4.44536 13.5026 7.66536 13.5026C10.8854 13.5026 13.4987 10.8826 13.4987 7.66927C13.4987 4.45594 10.8854 1.83594 7.66536 1.83594C4.44536 1.83594 1.83203 4.45594 1.83203 7.66927Z" fill="white"/>
  <path d="M14.3143 15.0209L12.9809 13.6876C12.7876 13.4943 12.7876 13.1743 12.9809 12.9809C13.1743 12.7876 13.4943 12.7876 13.6876 12.9809L15.0209 14.3143C15.2143 14.5076 15.2143 14.8276 15.0209 15.0209C14.9209 15.1209 14.7943 15.1676 14.6676 15.1676C14.5409 15.1676 14.4143 15.1209 14.3143 15.0209Z" fill="white"/>
</svg>