<svg width="287" height="127" viewBox="0 0 287 127" fill="none" xmlns="http://www.w3.org/2000/svg">
<g clip-path="url(#clip0_2007_44826)">
<rect width="287" height="127" fill="#EBFFFF"/>
<g opacity="0.2">
<path d="M294.883 83.4863C293.003 94.1725 283.173 102.981 277.705 106.585C277.248 106.886 276.664 106.884 276.195 106.603L258.129 95.762C257.247 95.2324 257.174 93.978 257.961 93.3146C266.04 86.5023 269.44 79.3301 270.47 75.2303C270.706 74.2948 271.7 73.6817 272.604 74.0172L293.971 81.9436C294.605 82.1789 295.001 82.8199 294.883 83.4863Z" fill="url(#paint0_linear_2007_44826)"/>
<path d="M273.577 81.1333C273.235 81.04 272.872 81.2193 272.741 81.5569C272.611 81.8945 272.761 82.2708 273.077 82.4309L273.142 82.4599L287.683 88.0657C288.044 88.2044 288.448 88.025 288.586 87.6649C288.725 87.3048 288.546 86.9008 288.186 86.7619L273.644 81.1561L273.577 81.1333Z" fill="url(#paint1_linear_2007_44826)"/>
<path d="M272.763 85.3805C272.404 85.2381 271.998 85.4136 271.856 85.7723C271.713 86.131 271.889 86.5374 272.247 86.6798L285.4 91.9015C285.759 92.0439 286.165 91.8684 286.307 91.5097C286.45 91.151 286.274 90.7446 285.916 90.6022L272.763 85.3805Z" fill="url(#paint2_linear_2007_44826)"/>
<path d="M275.354 90.8921C274.998 90.7447 274.589 90.9141 274.442 91.2707C274.294 91.6274 274.464 92.0358 274.82 92.1833L282.991 95.559C283.347 95.7063 283.756 95.537 283.903 95.1804C284.051 94.8237 283.881 94.4152 283.525 94.2678L275.354 90.8921Z" fill="url(#paint3_linear_2007_44826)"/>
</g>
<g filter="url(#filter0_f_2007_44826)">
<g filter="url(#filter1_f_2007_44826)">
<circle cx="200.36" cy="-82.7274" r="85.0971" transform="rotate(-1.07635 200.36 -82.7274)" fill="url(#paint4_linear_2007_44826)"/>
</g>
</g>
<g opacity="0.4">
<path d="M185.801 102.359C186.749 103.623 188.645 106.72 188.645 108.995" stroke="#D0D0D0" stroke-width="0.379167"/>
<path d="M191.488 98.5625C190.54 99.8264 189.592 106.715 189.592 108.99" stroke="#D0D0D0" stroke-width="0.379167"/>
<path d="M186.75 103.724C182.326 104.356 171.963 102.928 169.688 93.8285C174.111 91.9326 183.717 92.3494 186.75 103.724Z" fill="url(#paint5_linear_2007_44826)"/>
<path d="M190.5 101.505C195.754 100.159 206.744 93.3735 205.069 82.1138C199.228 82.0427 188.618 87.3425 190.5 101.505Z" fill="url(#paint6_linear_2007_44826)"/>
<path d="M185.801 91.9297C187.065 94.7734 189.403 102.167 188.645 108.992" stroke="#D0D0D0" stroke-width="0.379167"/>
<path d="M176.323 83.3984C179.357 88.7068 184.605 92.0545 186.501 93.0024C186.501 87.3149 186.751 89.0859 187.699 81.5026C188.457 75.4359 179.799 70.7595 175.375 69.1797C174.427 71.7075 173.29 78.0901 176.323 83.3984Z" fill="url(#paint7_linear_2007_44826)"/>
<path d="M180.113 113.734H200.967L197.176 127.005H183.905L180.113 113.734Z" fill="url(#paint8_linear_2007_44826)"/>
<path d="M178.219 111.208C178.219 112.434 179.311 113.371 180.523 113.185L190.542 111.643L202.865 113.539V107.852L190.542 105.956L178.219 107.852V111.208Z" fill="url(#paint9_linear_2007_44826)"/>
<path d="M178.219 108.047L184.513 110.037C188.436 111.277 192.647 111.277 196.57 110.037L202.865 108.047V113.734L196.57 115.724C192.647 116.965 188.436 116.965 184.513 115.724L179.616 114.176C178.784 113.913 178.219 113.141 178.219 112.269V108.047Z" fill="url(#paint10_linear_2007_44826)"/>
</g>
<path d="M197.176 45.8714C197.176 43.5607 199.049 41.6875 201.36 41.6875H261.242C263.553 41.6875 265.426 43.5607 265.426 45.8714V127H197.176V45.8714Z" fill="url(#paint11_linear_2007_44826)"/>
<rect opacity="0.8" x="203" y="70" width="53" height="1.8" rx="0.9" fill="#F3F6F6"/>
<rect opacity="0.3" x="203" y="77" width="53" height="1.8" rx="0.9" fill="#F3F6F6"/>
<rect opacity="0.3" x="203" y="84" width="53" height="1.8" rx="0.9" fill="#F3F6F6"/>
<rect opacity="0.3" x="224" y="98" width="32" height="1.8" rx="0.9" fill="#F3F6F6"/>
<rect opacity="0.3" x="224" y="104" width="19" height="1.8" rx="0.9" fill="#F3F6F6"/>
<g opacity="0.6">
<rect x="202.867" y="96.6641" width="15.1667" height="15.1667" rx="4" fill="#EBFFFF"/>
<path d="M205.707 105.063C205.316 104.672 205.316 104.039 205.707 103.649C206.097 103.258 206.731 103.258 207.121 103.649L210.657 107.184L209.242 108.598L205.707 105.063Z" fill="url(#paint12_linear_2007_44826)"/>
<path d="M213.485 101.527C213.876 101.137 214.509 101.137 214.899 101.527C215.29 101.918 215.29 102.551 214.899 102.941L209.242 108.598L207.828 107.184L213.485 101.527Z" fill="url(#paint13_linear_2007_44826)"/>
</g>
<path opacity="0.6" d="M211.241 64.5312V53.0783H206.845V50.9462H217.911V53.0783H213.515V64.5312H211.241ZM218.108 64.5312L222.391 50.9462H225.721L230.004 64.5312H227.664L223.777 52.3425H224.287L220.447 64.5312H218.108ZM220.494 61.5878V59.4652H227.626V61.5878H220.494ZM230.577 64.5312L235.181 57.6633L230.709 50.9462H233.493L236.587 55.7293L239.653 50.9462H242.455L237.983 57.6633L242.568 64.5312H239.785L236.587 59.5973L233.379 64.5312H230.577Z" fill="white"/>
<circle cx="261.634" cy="49.2708" r="13.2708" fill="url(#paint14_linear_2007_44826)"/>
<g opacity="0.9">
<path d="M254.968 49.781C254.407 49.22 254.407 48.3104 254.968 47.7494C255.529 47.1884 256.438 47.1884 256.999 47.7494L262.078 52.8283L260.047 54.8599L254.968 49.781Z" fill="#EBFFFF"/>
<path d="M266.141 44.702C266.702 44.141 267.612 44.141 268.173 44.702C268.734 45.263 268.734 46.1726 268.173 46.7336L260.047 54.8599L258.015 52.8283L266.141 44.702Z" fill="#EBFFFF"/>
</g>
<g opacity="0.12">
<path d="M128.378 93.4863C130.259 104.173 140.089 112.981 145.557 116.585C146.014 116.886 146.597 116.884 147.066 116.603L165.132 105.762C166.015 105.232 166.087 103.978 165.3 103.315C157.222 96.5023 153.822 89.3301 152.791 85.2303C152.556 84.2948 151.562 83.6817 150.658 84.0172L129.291 91.9436C128.656 92.1789 128.261 92.8199 128.378 93.4863Z" fill="url(#paint15_linear_2007_44826)"/>
<path d="M149.685 91.1333C150.027 91.04 150.39 91.2193 150.52 91.5569C150.65 91.8945 150.501 92.2708 150.185 92.4309L150.119 92.4599L135.578 98.0657C135.218 98.2044 134.814 98.025 134.675 97.6649C134.537 97.3048 134.716 96.9008 135.076 96.7619L149.617 91.1561L149.685 91.1333Z" fill="url(#paint16_linear_2007_44826)"/>
<path d="M150.499 95.3805C150.857 95.2381 151.264 95.4136 151.406 95.7723C151.549 96.131 151.373 96.5374 151.014 96.6798L137.862 101.901C137.503 102.044 137.097 101.868 136.954 101.51C136.812 101.151 136.987 100.745 137.346 100.602L150.499 95.3805Z" fill="url(#paint17_linear_2007_44826)"/>
<path d="M147.907 100.892C148.264 100.745 148.673 100.914 148.82 101.271C148.967 101.627 148.798 102.036 148.441 102.183L140.271 105.559C139.914 105.706 139.506 105.537 139.359 105.18C139.211 104.824 139.381 104.415 139.737 104.268L147.907 100.892Z" fill="url(#paint18_linear_2007_44826)"/>
</g>
</g>
<defs>
<filter id="filter0_f_2007_44826" x="97.1292" y="-185.961" width="206.46" height="206.46" filterUnits="userSpaceOnUse" color-interpolation-filters="sRGB">
<feFlood flood-opacity="0" result="BackgroundImageFix"/>
<feBlend mode="normal" in="SourceGraphic" in2="BackgroundImageFix" result="shape"/>
<feGaussianBlur stdDeviation="9.06628" result="effect1_foregroundBlur_2007_44826"/>
</filter>
<filter id="filter1_f_2007_44826" x="98.7958" y="-184.294" width="203.127" height="203.127" filterUnits="userSpaceOnUse" color-interpolation-filters="sRGB">
<feFlood flood-opacity="0" result="BackgroundImageFix"/>
<feBlend mode="normal" in="SourceGraphic" in2="BackgroundImageFix" result="shape"/>
<feGaussianBlur stdDeviation="8.23297" result="effect1_foregroundBlur_2007_44826"/>
</filter>
<linearGradient id="paint0_linear_2007_44826" x1="256.641" y1="69.7322" x2="287.781" y2="158.171" gradientUnits="userSpaceOnUse">
<stop stop-color="#00A3A3"/>
<stop offset="1" stop-color="#193919"/>
</linearGradient>
<linearGradient id="paint1_linear_2007_44826" x1="285.261" y1="86.5059" x2="290.84" y2="99.354" gradientUnits="userSpaceOnUse">
<stop stop-color="#00A3A3"/>
<stop offset="1" stop-color="#99FFFF"/>
</linearGradient>
<linearGradient id="paint2_linear_2007_44826" x1="283.277" y1="90.4326" x2="288.7" y2="102.447" gradientUnits="userSpaceOnUse">
<stop stop-color="#00A3A3"/>
<stop offset="1" stop-color="#99FFFF"/>
</linearGradient>
<linearGradient id="paint3_linear_2007_44826" x1="281.913" y1="94.5447" x2="285.162" y2="102.708" gradientUnits="userSpaceOnUse">
<stop stop-color="#00A3A3"/>
<stop offset="1" stop-color="#99FFFF"/>
</linearGradient>
<linearGradient id="paint4_linear_2007_44826" x1="215.032" y1="-153.153" x2="209.163" y2="-73.9242" gradientUnits="userSpaceOnUse">
<stop stop-color="#436AF5"/>
<stop offset="1" stop-color="#273E8F" stop-opacity="0"/>
</linearGradient>
<linearGradient id="paint5_linear_2007_44826" x1="186.873" y1="91.9094" x2="179.945" y2="108.758" gradientUnits="userSpaceOnUse">
<stop stop-color="#00A3A3"/>
<stop offset="1" stop-color="#193919"/>
</linearGradient>
<linearGradient id="paint6_linear_2007_44826" x1="184.76" y1="88.0405" x2="200.694" y2="103.933" gradientUnits="userSpaceOnUse">
<stop stop-color="#00A3A3"/>
<stop offset="1" stop-color="#193919"/>
</linearGradient>
<linearGradient id="paint7_linear_2007_44826" x1="187.841" y1="66.8613" x2="166.488" y2="85.4834" gradientUnits="userSpaceOnUse">
<stop stop-color="#00A3A3"/>
<stop offset="1" stop-color="#193919"/>
</linearGradient>
<linearGradient id="paint8_linear_2007_44826" x1="199.999" y1="117.505" x2="190.372" y2="143.349" gradientUnits="userSpaceOnUse">
<stop stop-color="#00A3A3"/>
<stop offset="1" stop-color="#193919"/>
</linearGradient>
<linearGradient id="paint9_linear_2007_44826" x1="201.72" y1="111.384" x2="198.786" y2="95.0955" gradientUnits="userSpaceOnUse">
<stop stop-color="#00A3A3"/>
<stop offset="1" stop-color="#193919"/>
</linearGradient>
<linearGradient id="paint10_linear_2007_44826" x1="201.72" y1="110.77" x2="197.121" y2="130.976" gradientUnits="userSpaceOnUse">
<stop stop-color="#00A3A3"/>
<stop offset="1" stop-color="#193919"/>
</linearGradient>
<linearGradient id="paint11_linear_2007_44826" x1="265.916" y1="33.3851" x2="154.499" y2="169.5" gradientUnits="userSpaceOnUse">
<stop stop-color="#00A3A3"/>
<stop offset="1" stop-color="#193919"/>
</linearGradient>
<linearGradient id="paint12_linear_2007_44826" x1="215.262" y1="100.518" x2="206.774" y2="121.376" gradientUnits="userSpaceOnUse">
<stop stop-color="#00A3A3"/>
<stop offset="1" stop-color="#193919"/>
</linearGradient>
<linearGradient id="paint13_linear_2007_44826" x1="215.262" y1="100.518" x2="206.774" y2="121.376" gradientUnits="userSpaceOnUse">
<stop stop-color="#00A3A3"/>
<stop offset="1" stop-color="#193919"/>
</linearGradient>
<linearGradient id="paint14_linear_2007_44826" x1="275.096" y1="33.417" x2="245.243" y2="84.5629" gradientUnits="userSpaceOnUse">
<stop stop-color="#00A3A3"/>
<stop offset="1" stop-color="#193919"/>
</linearGradient>
<linearGradient id="paint15_linear_2007_44826" x1="166.621" y1="79.7322" x2="135.481" y2="168.171" gradientUnits="userSpaceOnUse">
<stop stop-color="#00A3A3"/>
<stop offset="1" stop-color="#193919"/>
</linearGradient>
<linearGradient id="paint16_linear_2007_44826" x1="138.001" y1="96.5059" x2="132.421" y2="109.354" gradientUnits="userSpaceOnUse">
<stop stop-color="#00A3A3"/>
<stop offset="1" stop-color="#99FFFF"/>
</linearGradient>
<linearGradient id="paint17_linear_2007_44826" x1="139.985" y1="100.433" x2="134.562" y2="112.447" gradientUnits="userSpaceOnUse">
<stop stop-color="#00A3A3"/>
<stop offset="1" stop-color="#99FFFF"/>
</linearGradient>
<linearGradient id="paint18_linear_2007_44826" x1="141.349" y1="104.545" x2="138.1" y2="112.708" gradientUnits="userSpaceOnUse">
<stop stop-color="#00A3A3"/>
<stop offset="1" stop-color="#99FFFF"/>
</linearGradient>
<clipPath id="clip0_2007_44826">
<rect width="287" height="127" fill="white"/>
</clipPath>
</defs>
</svg>
