<?xml version="1.0" encoding="UTF-8"?>
<svg width="24px" height="24px" viewBox="0 0 24 24" version="1.1" xmlns="http://www.w3.org/2000/svg" xmlns:xlink="http://www.w3.org/1999/xlink">
    <title>Group 25</title>
    <g id="Symbols" stroke="none" stroke-width="1" fill="none" fill-rule="evenodd">
        <g id="Group-48" transform="translate(-12.000000, -8.000000)">
            <g id="Group-25" transform="translate(12.000000, 8.000000)">
                <rect id="Rectangle" x="0" y="0" width="24" height="24"></rect>
                <path d="M3,9.193696 L3,15.139626 C3,19.708126 4.625227,21.333326 9.193697,21.333326 L15.139667,21.333326 C19.708067,21.333326 21.333367,19.708126 21.333367,15.139626 L21.333367,9.193696 C21.333367,4.625226 19.708067,3 15.139667,3 L9.193697,3 C4.625227,3 3,4.625226 3,9.193696 Z" id="Path" fill="#33C659"></path>
                <path d="M3.833337,9.463886 L3.833337,14.869326 C3.833337,19.022426 5.310807,20.499926 9.463967,20.499926 L14.869367,20.499926 C19.022567,20.499926 20.499967,19.022426 20.499967,14.869326 L20.499967,9.463886 C20.499967,5.310726 19.022567,3.833256 14.869367,3.833256 L9.463967,3.833256 C5.310807,3.833256 3.833337,5.310726 3.833337,9.463886 Z" id="Path" fill="#EAF9EE"></path>
                <path d="M13.312467,7.999996 C14.520667,7.999996 15.499967,8.959386 15.499967,10.142856 C15.499967,10.782876 15.213567,11.357356 14.759467,11.749996 C15.213567,12.142646 15.499967,12.717126 15.499967,13.357126 C15.499967,14.540626 14.520667,15.500026 13.312467,15.500026 L9.666667,15.500026 L9.666667,7.999996 L13.312467,7.999996 Z M10.760417,11.214286 L13.312467,11.214286 C13.916567,11.214286 14.406267,10.734586 14.406267,10.142856 C14.406267,9.572256 13.950867,9.105836 13.376767,9.073246 L13.312467,9.071426 L10.760417,9.071426 L10.760417,11.214286 Z M10.760417,12.285726 L10.760417,14.428526 L13.312467,14.428526 C13.916567,14.428526 14.406267,13.948926 14.406267,13.357126 C14.406267,12.786526 13.950867,12.320126 13.376767,12.287526 L13.312467,12.285726 L10.760417,12.285726 Z" id="Shape" fill="#33C659"></path>
            </g>
        </g>
    </g>
</svg>