<?xml version="1.0" encoding="UTF-8"?>
<svg width="20px" height="20px" viewBox="0 0 20 20" version="1.1" xmlns="http://www.w3.org/2000/svg" xmlns:xlink="http://www.w3.org/1999/xlink">
    <title>filter</title>
    <g id="Symbols" stroke="none" stroke-width="1" fill="none" fill-rule="evenodd">
        <g id="compact-1" transform="translate(-987.000000, -104.000000)">
            <g id="Group-4" transform="translate(981.000000, 98.000000)">
                <g id="filter" transform="translate(6.000000, 6.000000)">
                    <path d="M13.3333333,6.04166667 C12.9916667,6.04166667 12.7083333,5.75833333 12.7083333,5.41666667 C12.7083333,5.075 12.9916667,4.79166667 13.3333333,4.79166667 L18.3333333,4.79166667 C18.675,4.79166667 18.9583333,5.075 18.9583333,5.41666667 C18.9583333,5.75833333 18.675,6.04166667 18.3333333,6.04166667 L13.3333333,6.04166667 Z" id="Vector" fill="#6A7483" fill-rule="nonzero"></path>
                    <path d="M1.66666667,6.04166667 C1.325,6.04166667 1.04166667,5.75833333 1.04166667,5.41666667 C1.04166667,5.075 1.325,4.79166667 1.66666667,4.79166667 L5,4.79166667 C5.34166666,4.79166667 5.625,5.075 5.625,5.41666667 C5.625,5.75833333 5.34166666,6.04166667 5,6.04166667 L1.66666667,6.04166667 Z" id="Vector" fill="#6A7483" fill-rule="nonzero"></path>
                    <path d="M4.79166667,5.41666667 C4.79166667,3.46666674 6.3833334,1.875 8.33333333,1.875 C10.2833333,1.875 11.875,3.46666674 11.875,5.41666667 C11.875,7.3666666 10.2833333,8.95833333 8.33333333,8.95833333 C6.3833334,8.95833333 4.79166667,7.3666666 4.79166667,5.41666667 Z M6.04166667,5.41666667 C6.04166667,6.68333332 7.06666668,7.70833333 8.33333333,7.70833333 C9.59999998,7.70833333 10.625,6.68333332 10.625,5.41666667 C10.625,4.15000002 9.59999998,3.125 8.33333333,3.125 C7.06666668,3.125 6.04166667,4.15000002 6.04166667,5.41666667 Z" id="Vector" fill="#6A7483"></path>
                    <path d="M15,15.2083333 C14.6583333,15.2083333 14.375,14.925 14.375,14.5833333 C14.375,14.2416667 14.6583333,13.9583333 15,13.9583333 L18.3333333,13.9583333 C18.675,13.9583333 18.9583333,14.2416667 18.9583333,14.5833333 C18.9583333,14.925 18.675,15.2083333 18.3333333,15.2083333 L15,15.2083333 Z" id="Vector" fill="#6A7483" fill-rule="nonzero"></path>
                    <path d="M1.66666667,15.2083333 C1.325,15.2083333 1.04166667,14.925 1.04166667,14.5833333 C1.04166667,14.2416667 1.325,13.9583333 1.66666667,13.9583333 L6.66666667,13.9583333 C7.00833333,13.9583333 7.29166667,14.2416667 7.29166667,14.5833333 C7.29166667,14.925 7.00833333,15.2083333 6.66666667,15.2083333 L1.66666667,15.2083333 Z" id="Vector" fill="#6A7483" fill-rule="nonzero"></path>
                    <path d="M8.125,14.5833333 C8.125,12.6333334 9.71666674,11.0416667 11.6666667,11.0416667 C13.6166666,11.0416667 15.2083333,12.6333334 15.2083333,14.5833333 C15.2083333,16.5333333 13.6166666,18.125 11.6666667,18.125 C9.71666674,18.125 8.125,16.5333333 8.125,14.5833333 Z M9.375,14.5833333 C9.375,15.85 10.4,16.875 11.6666667,16.875 C12.9333333,16.875 13.9583333,15.85 13.9583333,14.5833333 C13.9583333,13.3166667 12.9333333,12.2916667 11.6666667,12.2916667 C10.4,12.2916667 9.375,13.3166667 9.375,14.5833333 Z" id="Vector" fill="#6A7483"></path>
                    <path d="M20,0 L20,20 L0,20 L0,0 L20,0 Z" id="Vector" opacity="0"></path>
                </g>
            </g>
        </g>
    </g>
</svg>