<?xml version="1.0" encoding="UTF-8"?>
<svg width="38px" height="38px" viewBox="0 0 38 38" version="1.1" xmlns="http://www.w3.org/2000/svg" xmlns:xlink="http://www.w3.org/1999/xlink">
    <title>icon-search</title>
    <g id="icon-search" stroke="none" stroke-width="1" fill="none" fill-rule="evenodd">
        <g id="Group-57">
            <rect id="Rectangle" x="0" y="0" width="38" height="38" rx="2"></rect>
            <g id="Group-20" transform="translate(7.307692, 7.307692)">
                <path d="M1.21794872,11.2051282 C1.21794872,5.69999991 5.69999991,1.21794872 11.2051282,1.21794872 C16.7102565,1.21794872 21.1923077,5.69999991 21.1923077,11.2051282 C21.1923077,16.7102565 16.7102565,21.1923077 11.2051282,21.1923077 C5.69999991,21.1923077 1.21794872,16.7102565 1.21794872,11.2051282 Z M2.67948718,11.2051282 C2.67948718,15.9015386 6.49897443,19.7307692 11.2051282,19.7307692 C15.911282,19.7307692 19.7307692,15.9015386 19.7307692,11.2051282 C19.7307692,6.50871778 15.911282,2.67948718 11.2051282,2.67948718 C6.49897443,2.67948718 2.67948718,6.50871778 2.67948718,11.2051282 Z" id="Vector" fill="#1A2330"></path>
                <path d="M20.9199058,21.9522519 L18.9711879,20.003534 C18.6886238,19.7209699 18.6886238,19.2532762 18.9711879,18.9707121 C19.253752,18.688148 19.7214456,18.688148 20.0040097,18.9707121 L21.9527277,20.9194301 C22.2352918,21.2019942 22.2352918,21.6696878 21.9527277,21.9522519 C21.8065738,22.0984058 21.6214449,22.1666102 21.4363167,22.1666102 C21.2511885,22.1666102 21.0660597,22.0984058 20.9199058,21.9522519 Z" id="Vector" fill="#1A2330" fill-rule="nonzero"></path>
                <path d="M23.3846154,0 L23.3846154,23.3846154 L0,23.3846154 L0,0 L23.3846154,0 Z" id="Vector" opacity="0"></path>
            </g>
        </g>
    </g>
</svg>