<?xml version="1.0" encoding="UTF-8"?>
<svg width="24px" height="24px" viewBox="0 0 24 24" version="1.1" xmlns="http://www.w3.org/2000/svg" xmlns:xlink="http://www.w3.org/1999/xlink">
    <title>icon-info</title>
    <g id="Design" stroke="none" stroke-width="1" fill="none" fill-rule="evenodd">
        <g id="8" transform="translate(-475.000000, -143.000000)">
            <g id="Group-5" transform="translate(293.000000, 105.000000)">
                <g id="Group-25-Copy-2" transform="translate(20.000000, 16.000000)">
                    <g id="icon-info" transform="translate(174.000000, 34.000000) rotate(-180.000000) translate(-174.000000, -34.000000) translate(162.000000, 22.000000)">
                        <rect id="Rectangle" x="0" y="0" width="24" height="24"></rect>
                        <g id="Group-2" transform="translate(4.000000, 4.000000)">
                            <path d="M0.833333333,8 C0.833333333,4.04666678 4.04666678,0.833333333 8,0.833333333 C11.9533332,0.833333333 15.1666667,4.04666678 15.1666667,8 C15.1666667,11.9533332 11.9533332,15.1666667 8,15.1666667 C4.04666678,15.1666667 0.833333333,11.9533332 0.833333333,8 Z M1.83333333,8 C1.83333333,11.3999999 4.60000006,14.1666667 8,14.1666667 C11.3999999,14.1666667 14.1666667,11.3999999 14.1666667,8 C14.1666667,4.60000006 11.3999999,1.83333333 8,1.83333333 C4.60000006,1.83333333 1.83333333,4.60000006 1.83333333,8 Z" id="Vector" fill="#6A7483"></path>
                            <path d="M7.5,8.66666667 L7.5,5.33333333 C7.5,5.06 7.72666667,4.83333333 8,4.83333333 C8.27333333,4.83333333 8.5,5.06 8.5,5.33333333 L8.5,8.66666667 C8.5,8.94 8.27333333,9.16666667 8,9.16666667 C7.72666667,9.16666667 7.5,8.94 7.5,8.66666667 Z" id="Vector" fill="#6A7483" fill-rule="nonzero"></path>
                            <path d="M7.74666659,11.279922 C7.66666659,11.2465887 7.59333331,11.1999213 7.52666664,11.1399213 C7.46666664,11.0732547 7.41999995,11.0065881 7.38666662,10.9199214 C7.35333328,10.8399214 7.33333333,10.7532552 7.33333333,10.6665886 C7.33333333,10.5799219 7.35333328,10.4932552 7.38666662,10.4132552 C7.41999995,10.3332552 7.46666664,10.2599219 7.52666664,10.1932552 C7.59333331,10.1332552 7.66666659,10.0865885 7.74666659,10.0532552 C7.90666659,9.98658854 8.09333341,9.98658854 8.25333341,10.0532552 C8.33333333,10.0865885 8.40666669,10.1332552 8.47333336,10.1932552 C8.53333336,10.2599219 8.58000005,10.3332552 8.61333338,10.4132552 C8.64666672,10.4932552 8.66666667,10.5799219 8.66666667,10.6665886 C8.66666667,10.7532552 8.64666672,10.8399214 8.61333338,10.9199214 C8.58000005,11.0065881 8.53333336,11.0732547 8.47333336,11.1399213 C8.40666669,11.1999213 8.33333333,11.2465887 8.25333341,11.279922 C8.17333341,11.3132553 8.08666666,11.3332553 8,11.3332553 C7.91333334,11.3332553 7.82666659,11.3132553 7.74666659,11.279922 Z" id="Vector" fill="#6A7483" fill-rule="nonzero"></path>
                            <path d="M16,0 L16,16 L0,16 L0,0 L16,0 Z" id="Vector" opacity="0"></path>
                        </g>
                    </g>
                </g>
            </g>
        </g>
    </g>
</svg>