<?xml version="1.0" encoding="UTF-8"?>
<svg width="24px" height="24px" viewBox="0 0 24 24" version="1.1" xmlns="http://www.w3.org/2000/svg" xmlns:xlink="http://www.w3.org/1999/xlink">
    <title>Group</title>
    <g id="Symbols" stroke="none" stroke-width="1" fill="none" fill-rule="evenodd">
        <g id="Group-48" transform="translate(-44.000000, -8.000000)">
            <g id="Group" transform="translate(44.000000, 8.000000)">
                <rect id="Rectangle-Copy-44" x="0" y="0" width="24" height="24"></rect>
                <g id="Group-36" transform="translate(3.000000, 3.000000)">
                    <path d="M0,6.193696 L0,12.139626 C0,16.708126 1.6253,18.333326 6.1937,18.333326 L12.1397,18.333326 C16.7081,18.333326 18.3334,16.708126 18.3334,12.139626 L18.3334,6.193696 C18.3334,1.625226 16.7081,0 12.1397,0 L6.1937,0 C1.6253,0 0,1.625226 0,6.193696 Z" id="Path" fill="#FF3B2F"></path>
                    <path d="M0.8334,6.463886 L0.8334,11.869326 C0.8334,16.022426 2.3108,17.499926 6.464,17.499926 L11.8694,17.499926 C16.0226,17.499926 17.5,16.022426 17.5,11.869326 L17.5,6.463886 C17.5,2.310726 16.0226,0.833256 11.8694,0.833256 L6.464,0.833256 C2.3108,0.833256 0.8334,2.310726 0.8334,6.463886 Z" id="Path" fill="#FFEBEA"></path>
                    <path d="M9.1976,12.500026 C8.7175,12.500026 8.2854,12.413826 7.9013,12.241526 C7.5172,12.069226 7.2154,11.824926 6.9959,11.508426 C6.8964,11.364926 6.8194,11.210526 6.765,11.045326 C6.6519,10.701926 6.9598,10.400826 7.3214,10.400826 C7.6611,10.400826 7.9228,10.680226 8.1069,10.965726 C8.1571,11.043526 8.2171,11.115426 8.2871,11.181426 C8.5031,11.385326 8.8066,11.487326 9.1976,11.487326 C9.6022,11.487326 9.9177,11.387126 10.1441,11.186726 C10.3704,10.986326 10.4836,10.727826 10.4836,10.411426 C10.4836,10.165226 10.4133,9.964826 10.2727,9.810126 C10.1321,9.655426 9.9572,9.535826 9.748,9.451526 C9.5388,9.367126 9.249,9.275626 8.8786,9.177226 C8.4122,9.050636 8.0333,8.922296 7.7418,8.792196 C7.4503,8.662096 7.2017,8.459916 6.9959,8.185656 C6.7902,7.911396 6.6873,7.545706 6.6873,7.088606 C6.6873,6.666666 6.7902,6.297466 6.9959,5.981016 C7.2017,5.664556 7.4897,5.421936 7.8601,5.253166 C8.2305,5.084386 8.6592,4.999996 9.1461,4.999996 C9.8389,4.999996 10.4064,5.177566 10.8488,5.532696 C11.1144,5.745936 11.309,6.006716 11.4324,6.315036 C11.5723,6.664546 11.2628,6.993666 10.8863,6.993666 C10.5487,6.993666 10.281,6.707866 10.0623,6.450716 C10.02,6.400946 9.9718,6.353376 9.9177,6.308016 C9.6914,6.118146 9.393,6.023206 9.0227,6.023206 C8.6866,6.023206 8.4122,6.111116 8.1996,6.286916 C7.987,6.462726 7.8807,6.715896 7.8807,7.046416 C7.8807,7.271446 7.9476,7.456046 8.0813,7.600206 C8.2151,7.744376 8.3848,7.858646 8.5906,7.943036 C8.7963,8.027426 9.0775,8.118846 9.4342,8.217296 C9.9074,8.350916 10.2932,8.484526 10.5916,8.618146 C10.89,8.751756 11.1437,8.957456 11.3529,9.235226 C11.5621,9.513026 11.6667,9.883926 11.6667,10.348126 C11.6667,10.720826 11.569,11.072426 11.3735,11.402926 C11.178,11.733426 10.8934,11.998926 10.5196,12.199326 C10.1458,12.399826 9.7051,12.500026 9.1976,12.500026 Z" id="Path" fill="#FF3B2F" fill-rule="nonzero"></path>
                </g>
            </g>
        </g>
    </g>
</svg>