<?xml version="1.0" encoding="UTF-8"?>
<svg width="14px" height="14px" viewBox="0 0 14 14" version="1.1" xmlns="http://www.w3.org/2000/svg" xmlns:xlink="http://www.w3.org/1999/xlink">
    <title>icon/info</title>
    <g id="✅-Watchlist" stroke="none" stroke-width="1" fill="none" fill-rule="evenodd">
        <g id="Related-news-disabled" transform="translate(-173.000000, -441.000000)">
            <g id="Group-4" transform="translate(-1.000000, 394.000000)">
                <g id="Group-3" transform="translate(0.000000, 8.000000)">
                    <g id="icon/info" transform="translate(174.000000, 39.000000)">
                        <g id="info-circle" transform="translate(7.000000, 7.000000) scale(1, -1) translate(-7.000000, -7.000000) ">
                            <path d="M0.729166667,7 C0.729166667,3.54083343 3.54083343,0.729166667 7,0.729166667 C10.4591666,0.729166667 13.2708333,3.54083343 13.2708333,7 C13.2708333,10.4591666 10.4591666,13.2708333 7,13.2708333 C3.54083343,13.2708333 0.729166667,10.4591666 0.729166667,7 Z M1.60416667,7 C1.60416667,9.97499994 4.02500006,12.3958333 7,12.3958333 C9.97499994,12.3958333 12.3958333,9.97499994 12.3958333,7 C12.3958333,4.02500006 9.97499994,1.60416667 7,1.60416667 C4.02500006,1.60416667 1.60416667,4.02500006 1.60416667,7 Z" id="Vector" fill="#949CA6"></path>
                            <path d="M6.5625,7.58333333 L6.5625,4.66666667 C6.5625,4.4275 6.76083334,4.22916667 7,4.22916667 C7.23916666,4.22916667 7.4375,4.4275 7.4375,4.66666667 L7.4375,7.58333333 C7.4375,7.8225 7.23916666,8.02083333 7,8.02083333 C6.76083334,8.02083333 6.5625,7.8225 6.5625,7.58333333 Z" id="Vector" fill="#949CA6" fill-rule="nonzero"></path>
                            <path d="M6.77833327,9.86993176 C6.70833327,9.84076509 6.64416665,9.79993118 6.58583331,9.74743118 C6.53333331,9.68909784 6.49249996,9.63076455 6.46333329,9.55493122 C6.43416662,9.48493122 6.41666667,9.40909834 6.41666667,9.33326501 C6.41666667,9.25743168 6.43416662,9.18159828 6.46333329,9.11159828 C6.49249996,9.04159828 6.53333331,8.97743166 6.58583331,8.91909832 C6.64416665,8.86659832 6.70833327,8.82576498 6.77833327,8.79659831 C6.91833326,8.73826497 7.08166674,8.73826497 7.22166673,8.79659831 C7.29166673,8.82576498 7.35583335,8.86659832 7.41416669,8.91909832 C7.46666669,8.97743166 7.50750004,9.04159828 7.53666671,9.11159828 C7.56583338,9.18159828 7.58333333,9.25743168 7.58333333,9.33326501 C7.58333333,9.40909834 7.56583338,9.48493122 7.53666671,9.55493122 C7.50750004,9.63076455 7.46666669,9.68909784 7.41416669,9.74743118 C7.35583335,9.79993118 7.29166673,9.84076509 7.22166673,9.86993176 C7.15166673,9.89909842 7.07583333,9.91659838 7,9.91659838 C6.92416667,9.91659838 6.84833327,9.89909842 6.77833327,9.86993176 Z" id="Vector" fill="#949CA6" fill-rule="nonzero"></path>
                            <path d="M14,0 L14,14 L0,14 L0,0 L14,0 Z" id="Vector" opacity="0"></path>
                        </g>
                    </g>
                </g>
            </g>
        </g>
    </g>
</svg>