<svg width="14" height="14" viewBox="0 0 14 14" fill="none" xmlns="http://www.w3.org/2000/svg"><path d="M6.563 8.167V5.25A.44.44 0 0 1 7 4.813a.44.44 0 0 1 .438.437v2.917A.44.44 0 0 1 7 8.604a.44.44 0 0 1-.437-.437m.317 2.322a.4.4 0 0 1-.104-.036.4.4 0 0 1-.105-.052l-.088-.07a.6.6 0 0 1-.169-.414c0-.152.064-.304.17-.414q.043-.036.087-.07a.4.4 0 0 1 .105-.053.5.5 0 0 1 .332-.035q.06.01.111.035.053.018.105.053l.088.07a.6.6 0 0 1 .169.414.6.6 0 0 1-.17.414l-.087.07a.4.4 0 0 1-.105.053.4.4 0 0 1-.11.034 1 1 0 0 1-.112.012q-.053-.002-.116-.011" fill="#971915"/><path fill-rule="evenodd" clip-rule="evenodd" d="M3.466 12.927c-1.137 0-2.007-.415-2.45-1.161-.437-.747-.38-1.71.175-2.707l3.535-6.358c.583-1.05 1.388-1.628 2.275-1.628s1.692.578 2.275 1.628l3.535 6.364c.554.997.618 1.954.175 2.707-.443.74-1.312 1.155-2.45 1.155zm2.024-9.8L1.961 9.49c-.397.711-.46 1.365-.187 1.837.275.473.881.73 1.698.73h7.07c.817 0 1.417-.257 1.697-.73.28-.472.21-1.12-.186-1.837L8.512 3.127c-.426-.759-.963-1.179-1.51-1.179-.55 0-1.086.42-1.512 1.179" fill="#971915"/></svg>