<svg width="24" height="24" viewBox="0 0 24 24" fill="none" xmlns="http://www.w3.org/2000/svg"><path d="M13.9 18.6a.754.754 0 0 1 0-1.06L19.44 12 13.9 6.46a.754.754 0 0 1 0-1.06c.29-.29.77-.29 1.06 0l6.07 6.07c.29.29.29.77 0 1.06l-6.07 6.07c-.15.15-.34.22-.53.22s-.38-.07-.53-.22" fill="#747E8B"/><path d="M3.5 12.75c-.41 0-.75-.34-.75-.75s.34-.75.75-.75h16.83c.41 0 .75.34.75.75s-.34.75-.75.75z" fill="#747E8B"/><path d="M22.5 5v13.5" stroke="#747E8B" stroke-width="1.2" stroke-linecap="round"/></svg>