<svg width="156" height="89" viewBox="0 0 156 89" fill="none" xmlns="http://www.w3.org/2000/svg"><rect x="20" y="25" width="135.652" height="31.456" rx="7.864" fill="#222E3E"/><path d="m143.464 36.001-.489 1.725h-9.153l.489-1.725zm-4.455 10.863-4.998-6.067-.014-1.361h2.478q.929 0 1.571-.286.642-.287.977-.831.335-.552.335-1.34 0-1.173-.698-1.864t-2.185-.692h-2.653l.51-1.857h2.143q1.731 0 2.855.552 1.124.55 1.676 1.529.552.977.552 2.255 0 1.137-.454 2.06-.454.921-1.445 1.5-.991.58-2.604.677l-.063.014 4.566 5.593v.118zm4.461-14.298-.495 1.739-7.317-.042.496-1.697z" fill="#fff"/><rect x="29.828" y="33.844" width="24.575" height="3.932" rx="1.966" fill="#6A7483"/><rect x="29.828" y="42.69" width="52.098" height="3.932" rx="1.966" fill="#6A7483"/><g opacity=".75"><rect x="62.732" y="18" width="96.858" height="31.456" rx="7.864" transform="rotate(13.293 62.732 18)" fill="#11171F"/><path d="m145.835 48.937-.872 1.566-8.907-2.104.872-1.566zm-6.832 9.548-3.47-7.053.299-1.328 2.412.57q.904.213 1.595.082.69-.13 1.142-.584.453-.459.634-1.227.27-1.142-.251-1.975-.52-.833-1.967-1.175l-2.582-.61.923-1.69 2.086.493q1.685.398 2.652 1.193t1.279 1.873.018 2.322q-.261 1.107-.915 1.9t-1.752 1.128q-1.097.336-2.69.06h-.064l3.158 6.492-.027.115zm7.629-12.889-.882 1.578-7.111-1.723.872-1.537z" fill="#fff"/><rect x="67.529" y="28.221" width="17.547" height="3.932" rx="1.966" transform="rotate(13.293 67.53 28.22)" fill="#fff"/><rect x="65.494" y="36.831" width="37.199" height="3.932" rx="1.966" transform="rotate(13.293 65.494 36.831)" fill="#fff"/></g><g opacity=".5"><path d="m143.977 40.637-.489 1.724h-9.152l.488-1.724zM139.523 51.5l-4.999-6.067-.014-1.361h2.479q.928 0 1.57-.287.643-.285.978-.83.335-.552.335-1.34 0-1.174-.698-1.865-.699-.69-2.185-.69h-2.653l.509-1.858h2.144q1.731 0 2.855.552 1.124.55 1.676 1.529.55.977.551 2.255 0 1.138-.454 2.059-.453.922-1.445 1.501-.992.58-2.604.677l-.063.014 4.566 5.592v.119zm4.461-14.298-.496 1.738-7.316-.041.495-1.697z" fill="#6A7483"/><rect x="35.395" y="38.185" width="23.488" height="2.75" rx="1.375" fill="#fff"/><rect x="35.395" y="44.372" width="49.794" height="2.75" rx="1.375" fill="#fff"/><path d="M26 34.86A2.86 2.86 0 0 1 28.86 32h126.792v14.136A7.864 7.864 0 0 1 147.788 54H33.864A7.864 7.864 0 0 1 26 46.136z" fill="#222E3E"/></g><rect y="39" width="156" height="50" rx="9.043" fill="#2A394E"/><rect x="6.5" y="46" width="18" height="18" rx="6" fill="#222E3E"/><path d="M13.125 51.5V50c0-.205.17-.375.375-.375s.375.17.375.375v1.5c0 .205-.17.375-.375.375a.38.38 0 0 1-.375-.375Zm4 0V50c0-.205.17-.375.375-.375s.375.17.375.375v1.5c0 .205-.17.375-.375.375a.38.38 0 0 1-.375-.375Zm-5.875 2.42a.38.38 0 0 1-.375-.375c0-.205.17-.375.375-.375h8.5c.205 0 .375.17.375.375s-.17.375-.375.375z" fill="#F6F8FF" stroke="#F6F8FF" stroke-width=".3"/><path fill-rule="evenodd" clip-rule="evenodd" d="M13.5 60.375c-1.825 0-2.875-1.05-2.875-2.875v-4.25c0-1.825 1.05-2.875 2.875-2.875h4c1.825 0 2.875 1.05 2.875 2.875v4.25c0 1.825-1.05 2.875-2.875 2.875zm-2.125-7.125v4.25c0 1.43.695 2.125 2.125 2.125h4c1.43 0 2.125-.695 2.125-2.125v-4.25c0-1.43-.695-2.125-2.125-2.125h-4c-1.43 0-2.125.695-2.125 2.125" fill="#F6F8FF"/><path d="M13.5 60.225c-.884 0-1.56-.254-2.016-.71s-.709-1.131-.709-2.015h-.3c0 .941.271 1.702.797 2.228s1.287.797 2.228.797zM10.775 57.5v-4.25h-.3v4.25zm0-4.25c0-.884.254-1.56.71-2.016s1.131-.709 2.015-.709v-.3c-.941 0-1.702.271-2.228.797s-.797 1.287-.797 2.228zm2.725-2.725h4v-.3h-4zm4 0c.884 0 1.56.254 2.016.71s.709 1.131.709 2.015h.3c0-.941-.271-1.702-.797-2.228s-1.287-.797-2.228-.797zm2.725 2.725v4.25h.3v-4.25zm0 4.25c0 .884-.254 1.56-.71 2.016s-1.131.709-2.015.709v.3c.941 0 1.702-.271 2.228-.797s.797-1.287.797-2.228zM17.5 60.225h-4v.3h4zm-6.275-6.975v4.25h.3v-4.25zm0 4.25c0 .737.18 1.314.57 1.705.391.39.968.57 1.705.57v-.3c-.693 0-1.179-.168-1.493-.482s-.482-.8-.482-1.493zm2.275 2.275h4v-.3h-4zm4 0c.737 0 1.314-.18 1.705-.57.39-.391.57-.968.57-1.705h-.3c0 .693-.168 1.179-.482 1.493s-.8.482-1.493.482zm2.275-2.275v-4.25h-.3v4.25zm0-4.25c0-.737-.18-1.314-.57-1.705-.391-.39-.968-.57-1.705-.57v.3c.693 0 1.179.168 1.493.482s.482.8.482 1.493zM17.5 50.975h-4v.3h4zm-4 0c-.737 0-1.314.18-1.705.57-.39.391-.57.968-.57 1.705h.3c0-.693.168-1.179.482-1.493s.8-.482 1.493-.482z" fill="#F6F8FF"/><path d="M13.56 56.21a.6.6 0 0 1-.165-.105.6.6 0 0 1-.105-.165.5.5 0 0 1-.04-.19c0-.13.055-.26.145-.355a.6.6 0 0 1 .165-.105.48.48 0 0 1 .38 0q.045.015.09.045l.075.06c.02.025.045.05.06.075q.03.045.045.09.023.045.03.09c.005.035.01.065.01.1 0 .13-.055.26-.145.355a.53.53 0 0 1-.355.145.5.5 0 0 1-.19-.04Zm1.585-.106-.06-.075a.4.4 0 0 1-.045-.09.3.3 0 0 1-.03-.09q-.009-.05-.01-.1.001-.099.04-.19a.6.6 0 0 1 .105-.164.5.5 0 0 1 .545-.106c.065.025.115.06.165.105.09.096.145.225.145.355q-.001.05-.01.1a.3.3 0 0 1-.03.09.4.4 0 0 1-.045.09l-.06.075c-.05.045-.1.08-.165.105a.5.5 0 0 1-.19.04.53.53 0 0 1-.355-.145ZM13.56 57.96a.6.6 0 0 1-.165-.106.5.5 0 0 1-.105-.164.5.5 0 0 1-.04-.19c0-.13.055-.26.145-.355a.6.6 0 0 1 .165-.106.5.5 0 0 1 .545.105c.02.026.045.05.06.075q.03.045.045.09.023.044.03.095c.005.03.01.065.01.095 0 .13-.055.26-.145.355a.53.53 0 0 1-.355.145.5.5 0 0 1-.19-.04Z" fill="#F6F8FF" stroke="#F6F8FF" stroke-width=".3"/><path opacity=".01" clip-rule="evenodd" d="M21.5 49v12h-12V49z" stroke="#F6F8FF" stroke-width=".3"/><circle cx="81.273" cy="63.773" r="14.773" fill="#222E3E"/><rect x="76.051" y="56.461" width="17.727" height="2.955" rx="1.477" transform="rotate(45 76.05 56.46)" fill="#fff"/><rect x="73.961" y="68.996" width="17.727" height="2.955" rx="1.477" transform="rotate(-45 73.96 68.996)" fill="#fff"/></svg>