<svg width="157" height="89" viewBox="0 0 157 89" fill="none" xmlns="http://www.w3.org/2000/svg"><rect x="20.5" y="25" width="135.652" height="31.456" rx="7.864" fill="#ECF0FE"/><path d="m143.964 36.001-.489 1.725h-9.152l.488-1.725zm-4.454 10.863-4.999-6.067-.014-1.361h2.479q.928 0 1.57-.286.643-.287.978-.831.335-.552.335-1.34 0-1.173-.698-1.864-.699-.692-2.185-.692h-2.653l.509-1.857h2.144q1.731 0 2.855.552 1.124.55 1.676 1.529.55.977.551 2.255 0 1.137-.454 2.06-.453.921-1.445 1.5-.991.58-2.604.677l-.063.014 4.566 5.593v.118zm4.461-14.298-.496 1.739-7.316-.042.495-1.697z" fill="#fff"/><rect x="30.329" y="33.844" width="24.575" height="3.932" rx="1.966" fill="#fff"/><rect x="30.329" y="42.69" width="52.098" height="3.932" rx="1.966" fill="#fff"/><g opacity=".75"><rect x="63.232" y="18" width="96.858" height="31.456" rx="7.864" transform="rotate(13.293 63.232 18)" fill="#A1B5FA"/><path d="m146.335 48.937-.872 1.566-8.908-2.104.872-1.566zm-6.833 9.548-3.47-7.053.3-1.328 2.412.57q.903.213 1.594.082a2.1 2.1 0 0 0 1.142-.584q.453-.459.635-1.227.27-1.142-.251-1.975-.52-.833-1.968-1.175l-2.582-.61.923-1.69 2.086.493q1.686.398 2.652 1.193t1.279 1.873.019 2.322q-.263 1.107-.915 1.9-.654.792-1.752 1.128t-2.69.06h-.064l3.157 6.492-.027.115zm7.629-12.889-.882 1.578-7.111-1.723.873-1.537z" fill="#fff"/><rect x="68.029" y="28.221" width="17.547" height="3.932" rx="1.966" transform="rotate(13.293 68.029 28.22)" fill="#fff"/><rect x="65.995" y="36.831" width="37.199" height="3.932" rx="1.966" transform="rotate(13.293 65.995 36.831)" fill="#fff"/></g><rect x=".5" y="39" width="156" height="50" rx="9.043" fill="#C7D2FC"/><g opacity=".5"><path d="m144.477 43.001-.488 1.725h-9.153l.489-1.725zm-4.454 10.863-4.998-6.067-.014-1.361h2.478q.929 0 1.571-.286.642-.287.977-.831.335-.552.335-1.34 0-1.173-.698-1.864t-2.185-.692h-2.653l.51-1.857h2.143q1.731 0 2.855.552 1.125.55 1.676 1.529.552.977.552 2.255 0 1.137-.454 2.06-.455.921-1.445 1.5-.991.58-2.605.677l-.062.014 4.566 5.593v.118zm4.461-14.298-.495 1.739-7.317-.042.496-1.697z" fill="#fff"/><rect x="35.895" y="40.844" width="23.488" height="3.932" rx="1.966" fill="#fff"/><rect x="35.895" y="49.69" width="49.794" height="3.932" rx="1.966" fill="#fff"/><path d="M26.5 34.86A2.86 2.86 0 0 1 29.36 32h126.792v23.592a7.864 7.864 0 0 1-7.864 7.864H34.364a7.864 7.864 0 0 1-7.864-7.864z" fill="#C7D2FC"/></g><rect x="7" y="46" width="18" height="18" rx="6" fill="#A1B5FA"/><path d="M13.625 51.5V50c0-.205.17-.375.375-.375s.375.17.375.375v1.5c0 .205-.17.375-.375.375a.38.38 0 0 1-.375-.375Zm4 0V50c0-.205.17-.375.375-.375s.375.17.375.375v1.5c0 .205-.17.375-.375.375a.38.38 0 0 1-.375-.375Zm-5.875 2.42a.38.38 0 0 1-.375-.375c0-.205.17-.375.375-.375h8.5c.205 0 .375.17.375.375s-.17.375-.375.375z" fill="#F6F8FF" stroke="#F6F8FF" stroke-width=".3"/><path fill-rule="evenodd" clip-rule="evenodd" d="M14 60.375c-1.825 0-2.875-1.05-2.875-2.875v-4.25c0-1.825 1.05-2.875 2.875-2.875h4c1.825 0 2.875 1.05 2.875 2.875v4.25c0 1.825-1.05 2.875-2.875 2.875zm-2.125-7.125v4.25c0 1.43.695 2.125 2.125 2.125h4c1.43 0 2.125-.695 2.125-2.125v-4.25c0-1.43-.695-2.125-2.125-2.125h-4c-1.43 0-2.125.695-2.125 2.125" fill="#F6F8FF"/><path d="M14 60.225c-.884 0-1.56-.254-2.016-.71s-.709-1.131-.709-2.015h-.3c0 .941.271 1.702.797 2.228s1.287.797 2.228.797zM11.275 57.5v-4.25h-.3v4.25zm0-4.25c0-.884.254-1.56.71-2.016s1.131-.709 2.015-.709v-.3c-.941 0-1.702.271-2.228.797s-.797 1.287-.797 2.228zM14 50.525h4v-.3h-4zm4 0c.884 0 1.56.254 2.016.71s.709 1.131.709 2.015h.3c0-.941-.271-1.702-.797-2.228s-1.287-.797-2.228-.797zm2.725 2.725v4.25h.3v-4.25zm0 4.25c0 .884-.254 1.56-.71 2.016s-1.131.709-2.015.709v.3c.941 0 1.702-.271 2.228-.797s.797-1.287.797-2.228zM18 60.225h-4v.3h4zm-6.275-6.975v4.25h.3v-4.25zm0 4.25c0 .737.18 1.314.57 1.705.391.39.968.57 1.705.57v-.3c-.693 0-1.179-.168-1.493-.482s-.482-.8-.482-1.493zM14 59.775h4v-.3h-4zm4 0c.737 0 1.314-.18 1.705-.57.39-.391.57-.968.57-1.705h-.3c0 .693-.168 1.179-.482 1.493s-.8.482-1.493.482zm2.275-2.275v-4.25h-.3v4.25zm0-4.25c0-.737-.18-1.314-.57-1.705-.391-.39-.968-.57-1.705-.57v.3c.693 0 1.179.168 1.493.482s.482.8.482 1.493zM18 50.975h-4v.3h4zm-4 0c-.737 0-1.314.18-1.705.57-.39.391-.57.968-.57 1.705h.3c0-.693.168-1.179.482-1.493s.8-.482 1.493-.482z" fill="#F6F8FF"/><path d="M14.06 56.21a.6.6 0 0 1-.165-.105.6.6 0 0 1-.105-.165.5.5 0 0 1-.04-.19c0-.13.055-.26.145-.355a.6.6 0 0 1 .165-.105.48.48 0 0 1 .38 0q.045.015.09.045l.075.06c.02.025.045.05.06.075q.03.045.045.09.023.045.03.09c.005.035.01.065.01.1 0 .13-.055.26-.145.355a.53.53 0 0 1-.355.145.5.5 0 0 1-.19-.04Zm1.585-.106-.06-.075a.4.4 0 0 1-.045-.09.3.3 0 0 1-.03-.09q-.009-.05-.01-.1.001-.099.04-.19a.6.6 0 0 1 .105-.164.5.5 0 0 1 .545-.106c.065.025.115.06.165.105.09.096.145.225.145.355q-.001.05-.01.1a.3.3 0 0 1-.03.09.4.4 0 0 1-.045.09l-.06.075c-.05.045-.1.08-.165.105a.5.5 0 0 1-.19.04.53.53 0 0 1-.355-.145ZM14.06 57.96a.6.6 0 0 1-.165-.106.5.5 0 0 1-.105-.164.5.5 0 0 1-.04-.19c0-.13.055-.26.145-.355a.6.6 0 0 1 .165-.106.5.5 0 0 1 .545.105c.02.026.045.05.06.075q.03.045.045.09.023.044.03.095c.005.03.01.065.01.095 0 .13-.055.26-.145.355a.53.53 0 0 1-.355.145.5.5 0 0 1-.19-.04Z" fill="#F6F8FF" stroke="#F6F8FF" stroke-width=".3"/><path opacity=".01" clip-rule="evenodd" d="M22 49v12H10V49z" stroke="#F6F8FF" stroke-width=".3"/><circle cx="81.773" cy="63.773" r="14.773" fill="#BDCBFB"/><rect x="76.551" y="56.461" width="17.727" height="2.955" rx="1.477" transform="rotate(45 76.55 56.46)" fill="#fff"/><rect x="74.461" y="68.996" width="17.727" height="2.955" rx="1.477" transform="rotate(-45 74.46 68.996)" fill="#fff"/></svg>