<svg width="156" height="77" viewBox="0 0 156 77" fill="none" xmlns="http://www.w3.org/2000/svg"><rect x="21.479" y="50.101" width="113.043" height="26.213" rx="6.553" fill="#F6F8FF"/><path d="m125.199 59.6-.407 1.438h-7.628l.408-1.437zm-3.712 9.053-4.166-5.055-.011-1.135h2.065q.774 0 1.309-.238.535-.24.815-.693.279-.459.279-1.117 0-.978-.582-1.553-.582-.576-1.821-.576h-2.211l.425-1.548h1.786q1.443 0 2.38.46t1.396 1.274.459 1.88q0 .947-.378 1.716-.378.768-1.204 1.25-.826.483-2.17.565l-.052.011 3.804 4.66v.1zm3.718-11.915-.413 1.449-6.098-.035.413-1.414z" fill="#fff"/><rect x="29.67" y="57.47" width="20.479" height="3.277" rx="1.638" fill="#fff"/><rect x="29.67" y="64.842" width="43.415" height="3.277" rx="1.638" fill="#fff"/><rect x="10.174" y="29.392" width="135.652" height="31.456" rx="7.864" fill="#ECF0FE"/><path d="m133.637 40.393-.488 1.724h-9.153l.489-1.724zm-4.454 10.863-4.999-6.067-.013-1.361h2.478q.929 0 1.571-.287.642-.285.977-.83.335-.552.335-1.34 0-1.174-.698-1.865-.698-.69-2.185-.691h-2.653l.51-1.857h2.143q1.731 0 2.855.551 1.124.552 1.676 1.53.551.976.551 2.254 0 1.139-.453 2.06-.455.922-1.446 1.5-.99.58-2.604.678l-.062.014 4.565 5.592v.119zm4.461-14.298-.495 1.738-7.317-.042.496-1.696z" fill="#fff"/><rect x="20.002" y="38.235" width="24.575" height="3.932" rx="1.966" fill="#fff"/><rect x="20.002" y="47.082" width="52.098" height="3.932" rx="1.966" fill="#fff"/><rect y="5.652" width="156" height="36.174" rx="9.043" fill="#C7D2FC"/><path d="m144.921 17.137-.489 1.724h-9.153l.489-1.724zM140.466 28l-4.998-6.067-.014-1.361h2.478q.929 0 1.571-.287.642-.285.977-.83.335-.552.335-1.34 0-1.174-.698-1.865-.698-.69-2.185-.69h-2.653l.51-1.858h2.143q1.731 0 2.856.552 1.123.55 1.675 1.529.552.977.552 2.255 0 1.137-.454 2.059t-1.445 1.501q-.992.58-2.604.677l-.063.014 4.566 5.592V28zm4.462-14.298-.496 1.738-7.317-.041.496-1.697z" fill="#fff"/><rect x="9" y="14" width="18" height="18" rx="6" fill="#A1B5FA"/><path d="M15.625 19.5V18c0-.205.17-.375.375-.375s.375.17.375.375v1.5c0 .205-.17.375-.375.375a.38.38 0 0 1-.375-.375Zm4 0V18c0-.205.17-.375.375-.375s.375.17.375.375v1.5c0 .205-.17.375-.375.375a.38.38 0 0 1-.375-.375Zm-5.875 2.42a.38.38 0 0 1-.375-.375c0-.205.17-.375.375-.375h8.5c.205 0 .375.17.375.375s-.17.375-.375.375z" fill="#F6F8FF" stroke="#F6F8FF" stroke-width=".3"/><path fill-rule="evenodd" clip-rule="evenodd" d="M16 28.375c-1.825 0-2.875-1.05-2.875-2.875v-4.25c0-1.825 1.05-2.875 2.875-2.875h4c1.825 0 2.875 1.05 2.875 2.875v4.25c0 1.825-1.05 2.875-2.875 2.875zm-2.125-7.125v4.25c0 1.43.695 2.125 2.125 2.125h4c1.43 0 2.125-.695 2.125-2.125v-4.25c0-1.43-.695-2.125-2.125-2.125h-4c-1.43 0-2.125.695-2.125 2.125" fill="#F6F8FF"/><path d="M16 28.225c-.884 0-1.56-.254-2.016-.71s-.709-1.131-.709-2.015h-.3c0 .941.271 1.702.797 2.228s1.287.797 2.228.797zM13.275 25.5v-4.25h-.3v4.25zm0-4.25c0-.884.254-1.56.71-2.016s1.131-.709 2.015-.709v-.3c-.941 0-1.702.271-2.228.797s-.797 1.287-.797 2.228zM16 18.525h4v-.3h-4zm4 0c.884 0 1.56.254 2.016.71s.709 1.131.709 2.015h.3c0-.941-.271-1.702-.797-2.228s-1.287-.797-2.228-.797zm2.725 2.725v4.25h.3v-4.25zm0 4.25c0 .884-.254 1.56-.71 2.016s-1.131.709-2.015.709v.3c.941 0 1.702-.271 2.228-.797s.797-1.287.797-2.228zM20 28.225h-4v.3h4zm-6.275-6.975v4.25h.3v-4.25zm0 4.25c0 .737.18 1.314.57 1.705.391.39.968.57 1.705.57v-.3c-.693 0-1.179-.168-1.493-.482s-.482-.8-.482-1.493zM16 27.775h4v-.3h-4zm4 0c.737 0 1.314-.18 1.705-.57.39-.391.57-.968.57-1.705h-.3c0 .693-.168 1.179-.482 1.493s-.8.482-1.493.482zm2.275-2.275v-4.25h-.3v4.25zm0-4.25c0-.737-.18-1.314-.57-1.705-.391-.39-.968-.57-1.705-.57v.3c.693 0 1.179.168 1.493.482s.482.8.482 1.493zM20 18.975h-4v.3h4zm-4 0c-.737 0-1.314.18-1.705.57-.39.391-.57.968-.57 1.705h.3c0-.693.168-1.179.482-1.493s.8-.482 1.493-.482z" fill="#F6F8FF"/><path d="M16.06 24.21a.6.6 0 0 1-.165-.105.6.6 0 0 1-.105-.165.5.5 0 0 1-.04-.19c0-.13.055-.26.145-.355a.6.6 0 0 1 .165-.105.48.48 0 0 1 .38 0q.045.015.09.045l.075.06c.02.025.045.05.06.075q.03.045.045.09.023.045.03.09c.005.035.01.065.01.1 0 .13-.055.26-.145.355a.53.53 0 0 1-.355.145.5.5 0 0 1-.19-.04Zm1.585-.106-.06-.075a.4.4 0 0 1-.045-.09.3.3 0 0 1-.03-.09c-.005-.035-.01-.065-.01-.1q.001-.099.04-.19a.6.6 0 0 1 .105-.165.5.5 0 0 1 .545-.105c.065.025.115.06.165.105.09.096.145.225.145.355q-.001.05-.01.1a.3.3 0 0 1-.03.09.4.4 0 0 1-.045.09l-.06.075c-.05.045-.1.08-.165.105a.5.5 0 0 1-.19.04.53.53 0 0 1-.355-.145ZM16.06 25.96a.6.6 0 0 1-.165-.106.5.5 0 0 1-.105-.165.5.5 0 0 1-.04-.19c0-.13.055-.26.145-.354a.6.6 0 0 1 .165-.106.5.5 0 0 1 .545.105c.02.026.045.05.06.075q.03.045.045.09.023.044.03.095c.005.03.01.065.01.095 0 .13-.055.26-.145.355a.53.53 0 0 1-.355.145.5.5 0 0 1-.19-.04Z" fill="#F6F8FF" stroke="#F6F8FF" stroke-width=".3"/><path opacity=".01" clip-rule="evenodd" d="M24 17v12H12V17z" stroke="#F6F8FF" stroke-width=".3"/><rect opacity=".6" x="32.781" y="15.826" width="28.261" height="4.522" rx="2.261" fill="#fff"/><rect x="32.781" y="26" width="59.913" height="4.522" rx="2.261" fill="#fff"/></svg>