<svg width="160" height="161" viewBox="0 0 160 161" fill="none" xmlns="http://www.w3.org/2000/svg">
<rect x="0.0409573" y="0.168296" width="30.8188" height="40.301" rx="0.405101" transform="matrix(0.69058 0.723256 -0.281007 0.959706 88.6953 9.86315)" fill="#E9E9E9" stroke="#7A7A7A" stroke-width="0.2"/>
<rect x="0.0409573" y="0.168296" width="30.6603" height="40.7809" rx="0.405101" transform="matrix(0.69058 0.723256 -0.281007 0.959706 86.1205 10.4198)" fill="white" stroke="#7A7A7A" stroke-width="0.2"/>
<rect x="0.139115" y="0.0407384" width="2.94831" height="30.9246" transform="matrix(0.971648 -0.236432 0.690626 0.723212 85.7441 10.8161)" fill="#E9E9E9" stroke="#7A7A7A" stroke-width="0.167379"/>
<rect x="0.0690565" y="0.0723194" width="3.13769" height="40.5111" rx="0.405101" transform="matrix(0.971633 -0.236494 -0.281068 0.959688 106.902 32.9143)" fill="#E9E9E9" stroke="#7A7A7A" stroke-width="0.2"/>
<circle cx="2.66636" cy="2.66636" r="2.66636" transform="matrix(0.69058 0.723256 -0.281007 0.959706 87.1423 16.7563)" fill="#7A7A7A"/>
<rect opacity="0.3" x="0.0409573" y="0.168296" width="17.9295" height="0.866441" transform="matrix(0.69058 0.723256 -0.281007 0.959706 91.3216 22.3844)" fill="#7A7A7A" stroke="#7A7A7A" stroke-width="0.2"/>
<rect opacity="0.3" x="0.0409573" y="0.168296" width="8.33235" height="0.866544" transform="matrix(0.69058 0.723256 -0.281007 0.959706 90.7223 24.4315)" fill="#7A7A7A" stroke="#7A7A7A" stroke-width="0.2"/>
<circle cx="2.66636" cy="2.66636" r="2.66636" transform="matrix(0.69058 0.723256 -0.281007 0.959706 84.6412 25.2971)" fill="#7A7A7A"/>
<rect opacity="0.3" x="0.0409573" y="0.168296" width="17.9295" height="0.866441" transform="matrix(0.69058 0.723256 -0.281007 0.959706 88.8205 30.9252)" fill="#7A7A7A" stroke="#7A7A7A" stroke-width="0.2"/>
<rect opacity="0.3" x="0.0409573" y="0.168296" width="8.33235" height="0.866544" transform="matrix(0.69058 0.723256 -0.281007 0.959706 88.2212 32.9723)" fill="#7A7A7A" stroke="#7A7A7A" stroke-width="0.2"/>
<circle cx="2.66636" cy="2.66636" r="2.66636" transform="matrix(0.69058 0.723256 -0.281007 0.959706 81.9907 34.3481)" fill="#7A7A7A"/>
<rect opacity="0.3" x="0.0409573" y="0.168296" width="17.9295" height="0.866441" transform="matrix(0.69058 0.723256 -0.281007 0.959706 86.1699 39.9764)" fill="#7A7A7A" stroke="#7A7A7A" stroke-width="0.2"/>
<rect opacity="0.3" x="0.0409573" y="0.168296" width="8.33235" height="0.866544" transform="matrix(0.69058 0.723256 -0.281007 0.959706 85.5706 42.0238)" fill="#7A7A7A" stroke="#7A7A7A" stroke-width="0.2"/>
<rect x="-0.0349534" y="0.169645" width="27.7037" height="36.2337" rx="0.405101" transform="matrix(-0.664453 0.74733 0.31492 0.949118 72.9439 28.2689)" fill="#E9E9E9" stroke="#7A7A7A" stroke-width="0.2"/>
<rect x="-0.0349534" y="0.169645" width="27.5611" height="36.6653" rx="0.405101" transform="matrix(-0.664453 0.74733 0.31492 0.949118 75.2765 28.6869)" fill="white" stroke="#7A7A7A" stroke-width="0.2"/>
<rect x="-0.13758" y="0.0456542" width="2.63541" height="27.8022" transform="matrix(-0.979433 -0.201769 -0.664501 0.747288 75.4193 28.9227)" fill="#E9E9E9" stroke="#7A7A7A" stroke-width="0.167379"/>
<rect x="-0.066444" y="0.0747267" width="2.8025" height="36.4226" rx="0.405101" transform="matrix(-0.97942 -0.201831 0.31498 0.949098 57.2339 49.4926)" fill="#E9E9E9" stroke="#7A7A7A" stroke-width="0.2"/>
<circle cx="2.39859" cy="2.39859" r="2.39859" transform="matrix(0.664453 -0.74733 -0.31492 -0.949118 66.6604 71.0564)" fill="#7A7A7A"/>
<rect opacity="0.3" x="0.0349534" y="-0.169645" width="16.1088" height="0.759344" transform="matrix(0.664453 -0.74733 -0.31492 -0.949118 70.1413 65.5397)" fill="#7A7A7A" stroke="#7A7A7A" stroke-width="0.2"/>
<rect opacity="0.3" x="0.0349534" y="-0.169645" width="7.47549" height="0.759436" transform="matrix(0.664453 -0.74733 -0.31492 -0.949118 69.537 63.7182)" fill="#7A7A7A" stroke="#7A7A7A" stroke-width="0.2"/>
<circle cx="2.39859" cy="2.39859" r="2.39859" transform="matrix(0.664453 -0.74733 -0.31492 -0.949118 64.139 63.4583)" fill="#7A7A7A"/>
<rect opacity="0.3" x="0.0349534" y="-0.169645" width="16.1088" height="0.759344" transform="matrix(0.664453 -0.74733 -0.31492 -0.949118 67.62 57.9418)" fill="#7A7A7A" stroke="#7A7A7A" stroke-width="0.2"/>
<rect opacity="0.3" x="0.0349534" y="-0.169645" width="7.47549" height="0.759436" transform="matrix(0.664453 -0.74733 -0.31492 -0.949118 67.0156 56.1203)" fill="#7A7A7A" stroke="#7A7A7A" stroke-width="0.2"/>
<circle cx="2.39859" cy="2.39859" r="2.39859" transform="matrix(0.664453 -0.74733 -0.31492 -0.949118 61.4669 55.4058)" fill="#7A7A7A"/>
<rect opacity="0.3" x="0.0349534" y="-0.169645" width="16.1088" height="0.759344" transform="matrix(0.664453 -0.74733 -0.31492 -0.949118 64.948 49.8896)" fill="#7A7A7A" stroke="#7A7A7A" stroke-width="0.2"/>
<rect opacity="0.3" x="0.0349534" y="-0.169645" width="7.47549" height="0.759436" transform="matrix(0.664453 -0.74733 -0.31492 -0.949118 64.3436 48.068)" fill="#7A7A7A" stroke="#7A7A7A" stroke-width="0.2"/>
<rect x="0.173205" width="61.7999" height="61.7999" transform="matrix(0.866025 -0.5 0.866025 0.5 26.3451 128.526)" fill="white" stroke="#9F9F9F" stroke-width="0.2"/>
<path d="M80.0084 141.319L79.5245 141.803L80.0084 142.287L80.4923 141.803L80.0084 141.319ZM80.0084 158.039L80.4923 157.555L80.0084 157.072L79.5245 157.555L80.0084 158.039ZM80.0084 141.803L79.9246 141.803L79.9246 141.967L80.0084 141.967L80.0922 141.967L80.0922 141.803L80.0084 141.803ZM80.0084 142.624L79.9246 142.624L79.9246 142.952L80.0084 142.952L80.0922 142.952L80.0922 142.624L80.0084 142.624ZM80.0084 143.608L79.9246 143.608L79.9246 143.936L80.0084 143.936L80.0922 143.936L80.0922 143.608L80.0084 143.608ZM80.0084 144.593L79.9246 144.593L79.9246 144.921L80.0084 144.921L80.0922 144.921L80.0922 144.593L80.0084 144.593ZM80.0084 145.577L79.9246 145.577L79.9246 145.905L80.0084 145.905L80.0922 145.905L80.0922 145.577L80.0084 145.577ZM80.0084 146.562L79.9246 146.562L79.9246 146.89L80.0084 146.89L80.0922 146.89L80.0922 146.562L80.0084 146.562ZM80.0084 147.546L79.9246 147.546L79.9246 147.874L80.0084 147.874L80.0922 147.874L80.0922 147.546L80.0084 147.546ZM80.0084 148.531L79.9246 148.531L79.9246 148.859L80.0084 148.859L80.0922 148.859L80.0922 148.531L80.0084 148.531ZM80.0084 149.515L79.9246 149.515L79.9246 149.843L80.0084 149.843L80.0922 149.843L80.0922 149.515L80.0084 149.515ZM80.0084 150.5L79.9246 150.5L79.9246 150.828L80.0084 150.828L80.0922 150.828L80.0922 150.5L80.0084 150.5ZM80.0084 151.484L79.9246 151.484L79.9246 151.812L80.0084 151.812L80.0922 151.812L80.0922 151.484L80.0084 151.484ZM80.0084 152.469L79.9246 152.469L79.9246 152.797L80.0084 152.797L80.0922 152.797L80.0922 152.469L80.0084 152.469ZM80.0084 153.453L79.9246 153.453L79.9246 153.781L80.0084 153.781L80.0922 153.781L80.0922 153.453L80.0084 153.453ZM80.0084 154.438L79.9246 154.438L79.9246 154.766L80.0084 154.766L80.0922 154.766L80.0922 154.438L80.0084 154.438ZM80.0084 155.422L79.9246 155.422L79.9246 155.751L80.0084 155.751L80.0922 155.751L80.0922 155.422L80.0084 155.422ZM80.0084 156.407L79.9246 156.407L79.9246 156.735L80.0084 156.735L80.0922 156.735L80.0922 156.407L80.0084 156.407ZM80.0084 157.391L79.9246 157.391L79.9246 157.555L80.0084 157.555L80.0922 157.555L80.0922 157.391L80.0084 157.391Z" fill="#9F9F9F"/>
<path d="M26.7664 110.725L26.2825 111.209L26.7664 111.693L27.2503 111.209L26.7664 110.725ZM26.7664 127.42L27.2503 126.936L26.7664 126.452L26.2825 126.936L26.7664 127.42ZM26.7664 111.209L26.6826 111.209L26.6826 111.373L26.7664 111.373L26.8502 111.373L26.8502 111.209L26.7664 111.209ZM26.7664 112.028L26.6826 112.028L26.6826 112.356L26.7664 112.356L26.8502 112.356L26.8502 112.028L26.7664 112.028ZM26.7664 113.011L26.6826 113.011L26.6826 113.338L26.7664 113.338L26.8502 113.338L26.8502 113.011L26.7664 113.011ZM26.7664 113.994L26.6826 113.994L26.6826 114.321L26.7664 114.321L26.8502 114.321L26.8502 113.994L26.7664 113.994ZM26.7664 114.977L26.6826 114.977L26.6826 115.304L26.7664 115.304L26.8502 115.304L26.8502 114.977L26.7664 114.977ZM26.7664 115.96L26.6826 115.96L26.6826 116.287L26.7664 116.287L26.8502 116.287L26.8502 115.96L26.7664 115.96ZM26.7664 116.943L26.6826 116.943L26.6826 117.27L26.7664 117.27L26.8502 117.27L26.8502 116.943L26.7664 116.943ZM26.7664 117.926L26.6826 117.926L26.6826 118.253L26.7664 118.253L26.8502 118.253L26.8502 117.926L26.7664 117.926ZM26.7664 118.909L26.6826 118.909L26.6826 119.236L26.7664 119.236L26.8502 119.236L26.8502 118.909L26.7664 118.909ZM26.7664 119.891L26.6826 119.891L26.6826 120.219L26.7664 120.219L26.8502 120.219L26.8502 119.891L26.7664 119.891ZM26.7664 120.874L26.6826 120.874L26.6826 121.202L26.7664 121.202L26.8502 121.202L26.8502 120.874L26.7664 120.874ZM26.7664 121.857L26.6826 121.857L26.6826 122.185L26.7664 122.185L26.8502 122.185L26.8502 121.857L26.7664 121.857ZM26.7664 122.84L26.6826 122.84L26.6826 123.168L26.7664 123.168L26.8502 123.168L26.8502 122.84L26.7664 122.84ZM26.7664 123.823L26.6826 123.823L26.6826 124.151L26.7664 124.151L26.8502 124.151L26.8502 123.823L26.7664 123.823ZM26.7664 124.806L26.6826 124.806L26.6826 125.134L26.7664 125.134L26.8502 125.134L26.8502 124.806L26.7664 124.806ZM26.7664 125.789L26.6826 125.789L26.6826 126.117L26.7664 126.117L26.8502 126.117L26.8502 125.789L26.7664 125.789ZM26.7664 126.772L26.6826 126.772L26.6826 126.936L26.7664 126.936L26.8502 126.936L26.8502 126.772L26.7664 126.772Z" fill="#9F9F9F"/>
<path d="M133.267 110.725L132.783 111.209L133.267 111.693L133.751 111.209L133.267 110.725ZM133.267 127.42L133.751 126.936L133.267 126.452L132.783 126.936L133.267 127.42ZM133.267 111.209L133.183 111.209L133.183 111.373L133.267 111.373L133.351 111.373L133.351 111.209L133.267 111.209ZM133.267 112.028L133.183 112.028L133.183 112.356L133.267 112.356L133.351 112.356L133.351 112.028L133.267 112.028ZM133.267 113.011L133.183 113.011L133.183 113.338L133.267 113.338L133.351 113.338L133.351 113.011L133.267 113.011ZM133.267 113.994L133.183 113.994L133.183 114.321L133.267 114.321L133.351 114.321L133.351 113.994L133.267 113.994ZM133.267 114.977L133.183 114.977L133.183 115.304L133.267 115.304L133.351 115.304L133.351 114.977L133.267 114.977ZM133.267 115.96L133.183 115.96L133.183 116.287L133.267 116.287L133.351 116.287L133.351 115.96L133.267 115.96ZM133.267 116.943L133.183 116.943L133.183 117.27L133.267 117.27L133.351 117.27L133.351 116.943L133.267 116.943ZM133.267 117.926L133.183 117.926L133.183 118.253L133.267 118.253L133.351 118.253L133.351 117.926L133.267 117.926ZM133.267 118.909L133.183 118.909L133.183 119.236L133.267 119.236L133.351 119.236L133.351 118.909L133.267 118.909ZM133.267 119.891L133.183 119.891L133.183 120.219L133.267 120.219L133.351 120.219L133.351 119.891L133.267 119.891ZM133.267 120.874L133.183 120.874L133.183 121.202L133.267 121.202L133.351 121.202L133.351 120.874L133.267 120.874ZM133.267 121.857L133.183 121.857L133.183 122.185L133.267 122.185L133.351 122.185L133.351 121.857L133.267 121.857ZM133.267 122.84L133.183 122.84L133.183 123.168L133.267 123.168L133.351 123.168L133.351 122.84L133.267 122.84ZM133.267 123.823L133.183 123.823L133.183 124.151L133.267 124.151L133.351 124.151L133.351 123.823L133.267 123.823ZM133.267 124.806L133.183 124.806L133.183 125.134L133.267 125.134L133.351 125.134L133.351 124.806L133.267 124.806ZM133.267 125.789L133.183 125.789L133.183 126.117L133.267 126.117L133.351 126.117L133.351 125.789L133.267 125.789ZM133.267 126.772L133.183 126.772L133.183 126.936L133.267 126.936L133.351 126.936L133.351 126.772L133.267 126.772Z" fill="#9F9F9F"/>
<path d="M133.508 108.999L79.6964 139.967L26.5147 108.979L79.9522 78.1414L133.508 108.999Z" fill="white" stroke="#9F9F9F" stroke-width="0.2"/>
<path d="M65.6294 111.233L29.7937 37.665C48.4717 13.7219 106.581 12.0569 130.237 38.4779L93.3065 108.868L93.4191 110.637C93.1299 111.034 92.81 111.407 92.4623 111.753L91.4497 112.762C90.6044 113.604 89.6076 114.279 88.5117 114.751C87.7517 115.078 86.9521 115.305 86.1333 115.424L80.4294 116.258C78.7756 116.499 77.0897 116.393 75.4795 115.945L72.2825 115.056C70.6824 114.611 69.192 113.839 67.9057 112.788L67.6225 112.557C67.0712 112.107 66.4809 111.706 65.8586 111.36L65.6294 111.233Z" fill="url(#paint0_linear_2228_31416)" fill-opacity="0.2"/>
<path d="M114.332 109.884L79.8099 129.751L45.6898 109.871L79.974 90.0859L114.332 109.884Z" fill="#E9E9E9" stroke="#7A7A7A" stroke-width="0.167379"/>
<path opacity="0.1" d="M114.528 109.901L113.523 110.478L80.0004 91.1633L46.5473 110.468L45.5502 109.887L80.0004 90.0061L114.528 109.901Z" fill="#222222"/>
<ellipse cx="80.0122" cy="109.047" rx="14.4198" ry="7.93822" fill="#7A7A7A"/>
<g opacity="0.5">
<ellipse cx="98.1015" cy="123.455" rx="1.50918" ry="0.830815" fill="#7A7A7A"/>
<ellipse opacity="0.4" cx="102.102" cy="121.455" rx="1.50918" ry="0.830815" fill="#7A7A7A"/>
<ellipse opacity="0.2" cx="106.102" cy="119.455" rx="1.50918" ry="0.830815" fill="#7A7A7A"/>
<ellipse opacity="0.1" cx="110.102" cy="117.455" rx="1.50918" ry="0.830815" fill="#7A7A7A"/>
</g>
<ellipse cx="80.0124" cy="108.111" rx="13.7035" ry="7.243" fill="#E9E9E9"/>
<ellipse opacity="0.5" cx="80.0123" cy="108.111" rx="10.216" ry="5.39967" fill="white"/>
<ellipse cx="80.0123" cy="108.111" rx="4.89862" ry="2.58916" fill="white"/>
<path opacity="0.4" d="M102.921 78.3051C105.851 80.7149 107.56 83.6127 107.56 86.7302C107.56 95.1056 95.2263 101.895 80.0123 101.895C64.7983 101.895 52.4649 95.1056 52.4649 86.7302C52.4649 83.161 54.7047 79.8798 58.4528 77.2893" stroke="url(#paint1_linear_2228_31416)" stroke-width="0.446344"/>
<path opacity="0.4" d="M97.9915 93.0084C100.291 94.8996 101.632 97.1739 101.632 99.6206C101.632 106.194 91.9526 111.523 80.0123 111.523C68.0719 111.523 58.3924 106.194 58.3924 99.6206C58.3924 96.8194 60.1503 94.2443 63.0918 92.2112" stroke="url(#paint2_linear_2228_31416)" stroke-width="0.446344"/>
<path opacity="0.4" d="M106.151 64.0054C109.6 66.8414 111.611 70.2519 111.611 73.9209C111.611 83.7781 97.0955 91.7689 79.1899 91.7689C61.2844 91.7689 46.769 83.7781 46.769 73.9209C46.769 69.7203 49.4051 65.8586 53.8162 62.8098" stroke="url(#paint3_linear_2228_31416)" stroke-width="0.446344"/>
<defs>
<linearGradient id="paint0_linear_2228_31416" x1="80.0152" y1="117.365" x2="80.0152" y2="45.4051" gradientUnits="userSpaceOnUse">
<stop offset="0.481737" stop-color="#7A7A7A"/>
<stop offset="1" stop-color="white"/>
</linearGradient>
<linearGradient id="paint1_linear_2228_31416" x1="80.0123" y1="71.5652" x2="80.0123" y2="103.722" gradientUnits="userSpaceOnUse">
<stop offset="0.239618" stop-color="#F2F4FF"/>
<stop offset="0.959626" stop-color="#7A7A7A"/>
</linearGradient>
<linearGradient id="paint2_linear_2228_31416" x1="80.0123" y1="87.7188" x2="80.0123" y2="112.956" gradientUnits="userSpaceOnUse">
<stop offset="0.239618" stop-color="#F2F4FF"/>
<stop offset="0.959626" stop-color="#7A7A7A"/>
</linearGradient>
<linearGradient id="paint3_linear_2228_31416" x1="79.1899" y1="56.0731" x2="79.1899" y2="93.9183" gradientUnits="userSpaceOnUse">
<stop offset="0.239618" stop-color="#F2F4FF"/>
<stop offset="0.959626" stop-color="#7A7A7A"/>
</linearGradient>
</defs>
</svg>
