<svg width="17" height="17" viewBox="0 0 17 17" fill="none" xmlns="http://www.w3.org/2000/svg"><path d="m5.577 7.604 2.69-2.774 2.774 2.69a.37.37 0 0 0 .523-.007.37.37 0 0 0-.008-.523l-3.04-2.948a.37.37 0 0 0-.522.008L5.047 7.09a.37.37 0 0 0 .008.522c.07.073.169.106.263.105a.37.37 0 0 0 .26-.113" fill="#2A394E"/><path d="m8.757 12.685-.127-8.3a.373.373 0 0 0-.375-.363.373.373 0 0 0-.365.375l.128 8.3a.373.373 0 0 0 .375.364.373.373 0 0 0 .364-.376" fill="#2A394E"/><path d="m5.577 7.604 2.69-2.774 2.774 2.69a.37.37 0 0 0 .523-.007.37.37 0 0 0-.008-.523l-3.04-2.948a.37.37 0 0 0-.522.008L5.047 7.09a.37.37 0 0 0 .008.522c.07.073.169.106.263.105a.37.37 0 0 0 .26-.113Z" stroke="#2A394E" stroke-width=".5"/><path d="m8.757 12.685-.127-8.3a.373.373 0 0 0-.375-.363.373.373 0 0 0-.365.375l.128 8.3a.373.373 0 0 0 .375.364.373.373 0 0 0 .364-.376Z" stroke="#2A394E" stroke-width=".5"/></svg>