<svg width="82" height="82" xmlns="http://www.w3.org/2000/svg"><defs><linearGradient x1="17.831%" y1="0%" x2="91.93%" y2="96.66%" id="a"><stop stop-color="#EAFFFD" offset="0%"/><stop stop-color="#EBE7FF" offset="99.904%"/><stop stop-color="#BEB2FF" offset="100%"/></linearGradient><linearGradient x1="53.539%" y1="100%" x2="53.539%" y2="5.082%" id="b"><stop stop-color="#446BF5" offset="0%"/><stop stop-color="#8EA6FC" offset="100%"/></linearGradient><linearGradient x1="53.539%" y1="100%" x2="53.539%" y2="5.082%" id="c"><stop stop-color="#446BF5" offset="0%"/><stop stop-color="#8EA6FC" offset="100%"/></linearGradient><linearGradient x1="53.539%" y1="100%" x2="53.539%" y2="5.082%" id="d"><stop stop-color="#446BF5" offset="0%"/><stop stop-color="#8EA6FC" offset="100%"/></linearGradient></defs><g fill="none" fill-rule="evenodd"><g><circle cx="41" cy="41" r="41" fill="url(#a)"/><g transform="translate(22.507 19.893)"><rect fill="#FFBD36" width="37.933" height="29.179" rx="1"/><g transform="translate(6.565 7.295)" fill="#FFF"><circle cx="2.918" cy="2.918" r="2.918"/><circle cx="12.401" cy="2.918" r="2.918"/><circle cx="21.884" cy="2.918" r="2.918"/></g></g><path fill="url(#b)" d="M43.733 0v28.45H0z" transform="translate(19.589 29.707)"/><path fill="url(#b)" transform="matrix(-1 0 0 1 63.322 29.707)" d="M43.733 0v28.45H0z"/><path fill="url(#c)" d="M43.733 28.45H0l21.867-14.225z" transform="translate(19.589 29.707)"/><ellipse fill="#DADCFF" cx="42.139" cy="68.713" rx="18.602" ry="2.657"/></g><path d="M1 0h30.8a1 1 0 0 1 1 1v20.13a1 1 0 0 1-1 1h-3.85a1 1 0 0 0-1 1v5.392l-5.797-6.082a1 1 0 0 0-.723-.31H1a1 1 0 0 1-1-1V1a1 1 0 0 1 1-1Z" fill="url(#d)" transform="translate(46.467 12.3)"/><g transform="translate(51.812 20.68)" fill="#FFF"><circle cx="2.46" cy="2.46" r="2.46"/><circle cx="10.455" cy="2.46" r="2.46"/><circle cx="18.45" cy="2.46" r="2.46"/></g></g></svg>