<svg width="90" height="24" xmlns="http://www.w3.org/2000/svg"><g fill="none" fill-rule="evenodd"><path d="M14.419 0H0l2.636 4.568h8.527v3.02H4.496l2.17 3.483h4.497v7.664L14.419 24V0Zm1.162 0H30l-2.636 4.568h-8.527v3.02h6.59l-2.094 3.483h-4.496v7.664L15.581 24V0Z" fill="#436AF5"/><path d="M36.815 18.667V12.75H41.3v-2.227h-4.484v-3.59h5.852V4.667H34v14h2.815Zm14.565 0v-4.874L56 4.667h-3.054l-2.917 6.398-2.936-6.398H44l4.64 9.126v4.874h2.74Zm13.287 0v-2.284h-5.235v-3.705h4.642v-2.223h-4.642V6.95h5.235V4.667h-8v14h8Zm5.527 0V13.21h1.349l3.147 5.456H78l-3.413-5.677c1.077-.28 1.887-.792 2.432-1.534a4.117 4.117 0 0 0 .818-2.497c0-.802-.195-1.528-.583-2.176-.388-.649-.97-1.164-1.747-1.545-.776-.38-1.716-.571-2.82-.571h-5.354v14h2.861Zm2.507-8h-2.034v-4H72.7c.661 0 1.154.172 1.479.517.324.344.487.829.487 1.453 0 .638-.163 1.135-.487 1.493-.325.358-.818.537-1.479.537Zm11.75 8c1.015 0 1.892-.186 2.63-.558.737-.372 1.297-.872 1.68-1.498a3.84 3.84 0 0 0 .572-2.037c0-.848-.204-1.533-.612-2.056a3.933 3.933 0 0 0-1.463-1.174c-.566-.261-1.298-.523-2.193-.784a16.508 16.508 0 0 1-1.532-.519 2.79 2.79 0 0 1-.91-.587 1.229 1.229 0 0 1-.365-.91c0-.523.162-.92.484-1.195.323-.274.755-.411 1.295-.411.62 0 1.116.153 1.492.46.375.307.576.695.603 1.165h3.043c-.092-1.227-.583-2.183-1.472-2.868-.89-.686-2.046-1.028-3.468-1.028-.95 0-1.792.16-2.53.48-.738.32-1.311.78-1.72 1.38-.408.6-.612 1.305-.612 2.114 0 .862.2 1.55.603 2.066.401.516.882.9 1.442 1.155.56.255 1.288.513 2.184.774.659.183 1.176.35 1.551.5.376.15.689.355.94.616.25.261.375.594.375.999 0 .496-.185.897-.554 1.204-.369.307-.876.46-1.521.46-.633 0-1.13-.163-1.492-.49-.363-.326-.564-.77-.603-1.331h-2.965c.014.835.244 1.56.692 2.173.448.614 1.057 1.084 1.828 1.41.77.326 1.637.49 2.599.49Z" fill="#6A7582" fill-rule="nonzero"/></g></svg>