<svg width="320" height="319" xmlns="http://www.w3.org/2000/svg" xmlns:xlink="http://www.w3.org/1999/xlink"><defs><linearGradient x1="50%" y1="0%" x2="50%" y2="98.779%" id="a"><stop stop-color="#ECE9FF" offset="0%"/><stop stop-color="#F5F3FF" offset="100%"/></linearGradient><linearGradient x1=".942%" y1="31.378%" x2="95.393%" y2="56.367%" id="c"><stop stop-color="#FFF" stop-opacity=".186" offset="0%"/><stop stop-color="#FFF" stop-opacity=".562" offset="100%"/></linearGradient><linearGradient x1="50%" y1="0%" x2="50%" y2="98.779%" id="b"><stop stop-color="#E4DFFF" offset="0%"/><stop stop-color="#DCE4FF" offset="100%"/></linearGradient><linearGradient x1=".942%" y1="31.378%" x2="95.393%" y2="56.367%" id="e"><stop stop-color="#FFF" stop-opacity=".186" offset="0%"/><stop stop-color="#FFF" stop-opacity=".562" offset="100%"/></linearGradient><linearGradient x1="50%" y1="0%" x2="50%" y2="98.779%" id="d"><stop stop-color="#DCD6FF" offset="0%"/><stop stop-color="#A4B8FF" offset="100%"/></linearGradient><linearGradient x1="50%" y1="0%" x2="50%" y2="100%" id="f"><stop stop-color="#78A3FB" offset="0%"/><stop stop-color="#436AF5" offset="100%"/></linearGradient><linearGradient x1="65.436%" y1="4.45%" x2="28.673%" y2="86.929%" id="h"><stop stop-color="#FFF" stop-opacity="0" offset="0%"/><stop stop-color="#FFF" stop-opacity=".223" offset="100%"/></linearGradient><path d="M40.5 0 0 14.922v30.146c0 29.34 14.224 37.607 38.13 51.722L40.598 98l2.47-1.21C66.873 82.675 81 74.407 81 45.068V14.922L40.5 0Z" id="g"/></defs><g fill="none" fill-rule="evenodd"><path d="M157.682 286.398c71.428.169 129.195-57.124 129.026-127.966-.169-70.843-58.21-128.41-129.639-128.579C85.641 29.684 27.874 86.977 28.042 157.82c.17 70.843 58.211 128.41 129.64 128.579Z" stroke="url(#a)" stroke-width="2" stroke-linecap="round" stroke-dasharray="79,20" transform="rotate(-15 163.908 148.845)"/><path d="M157.59 259.668c55.43 0 100.367-45.366 100.367-101.327S213.02 57.014 157.589 57.014c-55.432 0-100.368 45.366-100.368 101.327s44.936 101.327 100.368 101.327Z" stroke="url(#b)" stroke-width="2" fill="url(#c)" stroke-linecap="round" stroke-dasharray="79,20" transform="rotate(-90 159.375 157.5)"/><path d="M157.028 223.44c35.923 0 65.043-29.4 65.043-65.665 0-36.265-29.12-65.664-65.043-65.664-35.922 0-65.043 29.399-65.043 65.664s29.121 65.664 65.043 65.664Z" stroke="url(#d)" stroke-width="2" fill="url(#e)" stroke-linecap="round" stroke-dasharray="52,20" transform="rotate(-90 159.375 157.5)"/><g transform="rotate(-90 153.266 118.333)" fill="#8D78FF"><ellipse opacity=".1" cx="75.035" cy="2.989" rx="2.95" ry="2.989"/><ellipse opacity=".1" cx="2.95" cy="192.51" rx="2.95" ry="2.989"/><ellipse opacity=".5" cx="12.568" cy="110.475" rx="2.95" ry="2.989"/><ellipse opacity=".5" cx="116.861" cy="58.396" rx="2.95" ry="2.989"/><ellipse opacity=".5" cx="60.79" cy="167.082" rx="2.95" ry="2.989"/><ellipse opacity=".5" cx="174.054" cy="143.307" rx="2.95" ry="2.989"/><ellipse opacity=".1" cx="63.497" cy="244.588" rx="2.95" ry="2.989"/><ellipse opacity=".1" cx="214.021" cy="47.505" rx="2.95" ry="2.989"/><ellipse opacity=".1" cx="208.626" cy="208.065" rx="2.95" ry="2.989"/></g><path d="M40.5 0 0 14.922v30.146c0 29.34 14.224 37.607 38.13 51.722L40.598 98l2.47-1.21C66.873 82.675 81 74.407 81 45.068V14.922L40.5 0Z" fill="url(#f)" transform="translate(121 114)"/><g transform="translate(121 114)"><mask id="i" fill="#fff"><use xlink:href="#g"/></mask><path stroke="#F3F1FF" stroke-width="2" d="M40.5 1.066 80 15.619v29.449c0 28.791-13.915 36.913-37.15 50.689l-2.256 1.127-1.99-.975C14.994 81.97 1 73.838 1 45.068V15.619L40.5 1.066Z"/><path fill="url(#h)" mask="url(#i)" d="M-19.238-14.442h59.737v122.758h-59.737z"/></g><g fill="#FFF" fill-rule="nonzero"><path d="M171.296 156.583c-.567 0-1.031.455-1.031 1.011 0 1.117-.923 2.022-2.062 2.022-1.14 0-2.062-.905-2.062-2.022v-6.066c0-2.23-1.852-4.045-4.125-4.045-2.274 0-4.125 1.815-4.125 4.045v13.144c0 2.23 1.85 4.045 4.125 4.045 2.273 0 4.124-1.815 4.124-4.045 0-.556-.464-1.011-1.031-1.011s-1.031.455-1.031 1.011c0 1.117-.923 2.022-2.062 2.022-1.14 0-2.062-.905-2.062-2.022v-13.144c0-1.117.922-2.022 2.062-2.022 1.139 0 2.062.905 2.062 2.022v6.066c0 2.23 1.85 4.045 4.124 4.045 2.274 0 4.125-1.815 4.125-4.045 0-.556-.464-1.01-1.031-1.01Z"/><path d="M177.94 152.311c0-8.964-7.018-16.261-15.639-16.261-8.625 0-15.638 7.297-15.638 16.261 0 .56.44 1.017.978 1.017s.977-.458.977-1.017c0-7.846 6.138-14.229 13.684-14.229 7.545 0 13.683 6.382 13.683 14.228v13.212c0 7.846-6.138 14.228-13.683 14.228-7.546 0-13.684-6.382-13.684-14.228v-6.098c0-1.122.875-2.032 1.955-2.032s1.955.91 1.955 2.032c0 .56.44 1.017.977 1.017.538 0 .978-.457.978-1.017 0-2.24-1.755-4.065-3.91-4.065-2.155 0-3.91 1.824-3.91 4.065v6.098c0 8.964 7.013 16.261 15.639 16.261 8.62 0 15.639-7.297 15.639-16.261l-.001-13.21Z"/><path d="M172.326 152.446c0-5.89-4.496-10.68-10.024-10.68-5.529 0-10.025 4.79-10.025 10.68 0 .588.451 1.068 1.003 1.068.551 0 1.002-.48 1.002-1.068 0-4.71 3.6-8.544 8.02-8.544s8.02 3.835 8.02 8.544v2.136c0 .587.45 1.068 1.002 1.068s1.003-.48 1.003-1.068l-.001-2.136ZM153.28 163.817c-.552 0-1.003.459-1.003 1.02v1.022c0 5.63 4.496 10.208 10.025 10.208s10.025-4.579 10.025-10.208c0-.562-.451-1.021-1.003-1.021-.551 0-1.002.459-1.002 1.02 0 4.502-3.6 8.167-8.02 8.167-4.421 0-8.02-3.665-8.02-8.166v-1.021c0-.562-.45-1.021-1.002-1.021ZM181.416 136.05h-4.901c-.54 0-.98.45-.98.998 0 .55.44.998.98.998h4.9c.54 0 .98.45.98.999v4.99c0 .55.442.998.981.998.54 0 .98-.449.98-.998v-4.99c0-1.653-1.318-2.995-2.94-2.995ZM140.426 145.033c.54 0 .98-.449.98-.998v-4.99c0-.55.44-.999.98-.999h4.901c.54 0 .98-.449.98-.998a.992.992 0 0 0-.98-.998h-4.901c-1.622 0-2.94 1.343-2.94 2.995v4.99c0 .55.44.998.98.998ZM183.376 172.8c-.54 0-.98.45-.98.998v4.991c0 .55-.441.998-.98.998h-4.901c-.54 0-.98.449-.98.998 0 .55.44.998.98.998h4.901c1.622 0 2.94-1.342 2.94-2.994v-4.99a.992.992 0 0 0-.98-.999ZM147.287 179.787h-4.9c-.54 0-.98-.45-.98-.998v-4.99a.992.992 0 0 0-.981-.999c-.54 0-.98.45-.98.998v4.991c0 1.652 1.318 2.994 2.94 2.994h4.901c.54 0 .98-.449.98-.998a.992.992 0 0 0-.98-.998Z"/></g></g></svg>