<svg width="320" height="319" xmlns="http://www.w3.org/2000/svg" xmlns:xlink="http://www.w3.org/1999/xlink"><defs><linearGradient x1="50%" y1="0%" x2="50%" y2="98.779%" id="a"><stop stop-color="#ECE9FF" offset="0%"/><stop stop-color="#F5F3FF" offset="100%"/></linearGradient><linearGradient x1="50%" y1="0%" x2="50%" y2="98.779%" id="b"><stop stop-color="#E4DFFF" offset="0%"/><stop stop-color="#DCE4FF" offset="100%"/></linearGradient><linearGradient x1="50%" y1="0%" x2="50%" y2="98.779%" id="c"><stop stop-color="#DCD6FF" offset="0%"/><stop stop-color="#A4B8FF" offset="100%"/></linearGradient><linearGradient x1=".942%" y1="31.378%" x2="95.393%" y2="56.367%" id="d"><stop stop-color="#FFF" stop-opacity=".186" offset="0%"/><stop stop-color="#FFF" stop-opacity=".562" offset="100%"/></linearGradient><linearGradient x1="50%" y1="0%" x2="50%" y2="100%" id="e"><stop stop-color="#78A3FB" offset="0%"/><stop stop-color="#436AF5" offset="100%"/></linearGradient><linearGradient x1="65.436%" y1="4.45%" x2="28.673%" y2="86.929%" id="g"><stop stop-color="#FFF" stop-opacity="0" offset="0%"/><stop stop-color="#FFF" stop-opacity=".223" offset="100%"/></linearGradient><path d="M40.5 0 0 14.922v30.146c0 29.34 14.224 37.607 38.13 51.722L40.598 98l2.47-1.21C66.873 82.675 81 74.407 81 45.068V14.922L40.5 0Z" id="f"/></defs><g fill="none" fill-rule="evenodd"><path d="M233.14 53.644a1 1 0 1 1-1.143 1.64c-21.45-14.958-46.972-23.142-73.705-23.206a1 1 0 0 1 .005-2c27.144.065 53.062 8.376 74.844 23.566Zm53.383 81.43a1 1 0 0 1-1.963.386c-5.082-25.887-18.165-49.456-37.249-67.656a1 1 0 1 1 1.38-1.447c19.38 18.482 32.669 42.422 37.832 68.718Zm-18.782 95.472a1 1 0 0 1-1.667-1.103c13.596-20.547 20.92-44.612 20.86-69.787a128.55 128.55 0 0 0-.091-4.54 1.001 1.001 0 0 1 1.998-.076c.058 1.533.089 3.07.093 4.611.06 25.572-7.38 50.022-21.193 70.895Zm-80.322 55.04a1 1 0 1 1-.429-1.954 127.668 127.668 0 0 0 66.906-38.584 1 1 0 1 1 1.477 1.349 129.668 129.668 0 0 1-67.954 39.188Zm-96.122-15.827a1 1 0 1 1 1.034-1.712c19.925 12.034 42.783 18.52 66.584 18.576 2.837.007 5.662-.078 8.473-.253a1 1 0 1 1 .124 1.996c-2.854.178-5.722.264-8.601.257-24.168-.057-47.38-6.644-67.614-18.864Zm-58.684-77.772a1 1 0 0 1 1.933-.516c6.79 25.43 21.406 48.127 41.643 65.053a1 1 0 0 1-1.283 1.534c-20.55-17.188-35.395-40.24-42.293-66.07Zm12.332-96.484a1 1 0 0 1 1.738.99c-10.76 18.91-16.468 40.307-16.415 62.56.01 4.362.242 8.699.693 12.998a1 1 0 0 1-1.99.208 129.82 129.82 0 0 1-.703-13.202c-.054-22.603 5.746-44.342 16.677-63.554Zm76.57-60.288a1 1 0 0 1 .556 1.92 127.706 127.706 0 0 0-64.225 42.901 1 1 0 0 1-1.562-1.249 129.706 129.706 0 0 1 65.232-43.572Zm36.774-5.137a1 1 0 0 1-.005 2 130.482 130.482 0 0 0-16.92 1.058 1 1 0 1 1-.254-1.984 132.482 132.482 0 0 1 17.179-1.074Z" fill="url(#a)" fill-rule="nonzero" transform="rotate(-15 159.868 154.11)"/><path d="M230.566 87.285a1 1 0 0 1-1.422 1.406c-18.521-18.735-43.584-29.452-70.33-29.452a1 1 0 1 1 0-2c27.287 0 52.86 10.935 71.752 30.046Zm27.715 92.104a1 1 0 0 1-1.963-.381 101.877 101.877 0 0 0 1.864-19.481c-.008-20.028-5.838-39.177-16.595-55.49a1 1 0 1 1 1.67-1.1c10.97 16.637 16.917 36.167 16.925 56.59 0 6.745-.64 13.375-1.9 19.862Zm-60.52 74.679a1 1 0 0 1-.775-1.844c24.232-10.188 43.61-29.785 53.662-54.268a1 1 0 1 1 1.85.76c-10.252 24.971-30.017 44.958-54.737 55.352Zm-95.528-9.587a1 1 0 1 1 1.125-1.653c16.263 11.064 35.415 17.065 55.456 17.065 6.51 0 12.938-.632 19.224-1.876a1 1 0 1 1 .388 1.962 100.945 100.945 0 0 1-19.612 1.914c-20.445 0-39.989-6.124-56.581-17.412Zm-44.786-85.075a1 1 0 0 1 2 .003v.157c0 26.785 10.441 51.9 28.73 70.562a1 1 0 1 1-1.43 1.4C68.284 212.686 57.66 187.39 57.45 160.385l-.003-.979Zm45.061-84.942a1 1 0 1 1 1.12 1.658c-21.764 14.702-37.06 37.542-42.238 63.6a1 1 0 1 1-1.962-.39c5.281-26.578 20.882-49.872 43.08-64.868Zm56.3-17.225a1 1 0 1 1 0 2c-13.126.001-25.896 2.572-37.774 7.506a1 1 0 1 1-.767-1.847c12.12-5.034 25.15-7.658 38.541-7.659Z" fill="url(#b)" fill-rule="nonzero" transform="matrix(0 -1 1 0 .65 318.1)"/><path d="M205.602 112.525a1 1 0 1 1-1.44 1.388c-11.982-12.435-28.382-19.577-45.908-19.577a1 1 0 0 1 0-2c18.076 0 34.993 7.367 47.348 20.19ZM220.8 180.46a1 1 0 1 1-1.896-.638c2.239-6.65 3.392-13.659 3.392-20.86-.005-10.23-2.366-20.118-6.83-29.051a1 1 0 1 1 1.79-.894c4.601 9.209 7.034 19.402 7.04 29.945 0 7.419-1.188 14.642-3.496 21.498Zm-53.386 44.568a1 1 0 1 1-.278-1.98c17.188-2.408 32.553-11.781 42.749-25.782a1 1 0 1 1 1.616 1.177c-10.511 14.435-26.357 24.102-44.087 26.585Zm-63.548-28.2a1 1 0 0 1 1.65-1.128c9.78 14.3 24.88 24.13 41.96 27.053a1 1 0 0 1-.338 1.971c-17.619-3.014-33.19-13.152-43.272-27.895Zm-3.735-69.51a1 1 0 0 1 1.763.945c-5.022 9.368-7.683 19.862-7.683 30.798a65.226 65.226 0 0 0 2.817 18.967 1 1 0 0 1-1.913.582 67.228 67.228 0 0 1-2.904-19.548c0-11.269 2.744-22.087 7.92-31.744Zm58.123-34.982a1 1 0 1 1 0 2c-16.848 0-32.665 6.596-44.531 18.19a1 1 0 1 1-1.398-1.43c12.236-11.955 28.552-18.76 45.929-18.76Z" fill="url(#c)" fill-rule="nonzero" transform="matrix(0 -1 1 0 .65 318.1)"/><path d="M158.254 224.664c35.922 0 65.042-29.398 65.042-65.664 0-36.265-29.12-65.664-65.042-65.664-35.923 0-65.043 29.399-65.043 65.664 0 36.266 29.12 65.664 65.043 65.664Z" fill="url(#d)" transform="matrix(0 -1 1 0 .65 318.1)"/><g transform="rotate(-90 153.266 118.333)" fill="#8D78FF"><ellipse opacity=".1" cx="75.035" cy="2.989" rx="2.95" ry="2.989"/><ellipse opacity=".1" cx="2.95" cy="192.51" rx="2.95" ry="2.989"/><ellipse opacity=".5" cx="12.568" cy="110.475" rx="2.95" ry="2.989"/><ellipse opacity=".5" cx="116.861" cy="58.396" rx="2.95" ry="2.989"/><ellipse opacity=".5" cx="60.79" cy="167.082" rx="2.95" ry="2.989"/><ellipse opacity=".5" cx="174.054" cy="143.307" rx="2.95" ry="2.989"/><ellipse opacity=".1" cx="63.497" cy="244.588" rx="2.95" ry="2.989"/><ellipse opacity=".1" cx="214.021" cy="47.505" rx="2.95" ry="2.989"/><ellipse opacity=".1" cx="208.626" cy="208.065" rx="2.95" ry="2.989"/></g><path d="M40.5 0 0 14.922v30.146c0 29.34 14.224 37.607 38.13 51.722L40.598 98l2.47-1.21C66.873 82.675 81 74.407 81 45.068V14.922L40.5 0Z" fill="url(#e)" transform="translate(121 114)"/><g transform="translate(121 114)"><mask id="h" fill="#fff"><use xlink:href="#f"/></mask><path stroke="#F3F1FF" stroke-width="2" d="M40.5 1.066 80 15.619v29.449c0 28.791-13.915 36.913-37.15 50.689l-2.256 1.127-1.99-.975C14.994 81.97 1 73.838 1 45.068V15.619L40.5 1.066Z"/><path fill="url(#g)" mask="url(#h)" d="M-19.238-14.442h59.737v122.758h-59.737z"/></g><g fill="#FFF" fill-rule="nonzero"><path d="M171.296 156.583c-.567 0-1.031.455-1.031 1.011 0 1.117-.923 2.022-2.062 2.022-1.14 0-2.062-.905-2.062-2.022v-6.066c0-2.23-1.852-4.045-4.125-4.045-2.274 0-4.125 1.815-4.125 4.045v13.144c0 2.23 1.85 4.045 4.125 4.045 2.273 0 4.124-1.815 4.124-4.045 0-.556-.464-1.011-1.031-1.011s-1.031.455-1.031 1.011c0 1.117-.923 2.022-2.062 2.022-1.14 0-2.062-.905-2.062-2.022v-13.144c0-1.117.922-2.022 2.062-2.022 1.139 0 2.062.905 2.062 2.022v6.066c0 2.23 1.85 4.045 4.124 4.045 2.274 0 4.125-1.815 4.125-4.045 0-.556-.464-1.01-1.031-1.01Z"/><path d="M177.94 152.311c0-8.964-7.018-16.261-15.639-16.261-8.625 0-15.638 7.297-15.638 16.261 0 .56.44 1.017.978 1.017s.977-.458.977-1.017c0-7.846 6.138-14.229 13.684-14.229 7.545 0 13.683 6.382 13.683 14.228v13.212c0 7.846-6.138 14.228-13.683 14.228-7.546 0-13.684-6.382-13.684-14.228v-6.098c0-1.122.875-2.032 1.955-2.032s1.955.91 1.955 2.032c0 .56.44 1.017.977 1.017.538 0 .978-.457.978-1.017 0-2.24-1.755-4.065-3.91-4.065-2.155 0-3.91 1.824-3.91 4.065v6.098c0 8.964 7.013 16.261 15.639 16.261 8.62 0 15.639-7.297 15.639-16.261l-.001-13.21Z"/><path d="M172.326 152.446c0-5.89-4.496-10.68-10.024-10.68-5.529 0-10.025 4.79-10.025 10.68 0 .588.451 1.068 1.003 1.068.551 0 1.002-.48 1.002-1.068 0-4.71 3.6-8.544 8.02-8.544s8.02 3.835 8.02 8.544v2.136c0 .587.45 1.068 1.002 1.068s1.003-.48 1.003-1.068l-.001-2.136ZM153.28 163.817c-.552 0-1.003.459-1.003 1.02v1.022c0 5.63 4.496 10.208 10.025 10.208s10.025-4.579 10.025-10.208c0-.562-.451-1.021-1.003-1.021-.551 0-1.002.459-1.002 1.02 0 4.502-3.6 8.167-8.02 8.167-4.421 0-8.02-3.665-8.02-8.166v-1.021c0-.562-.45-1.021-1.002-1.021ZM181.416 136.05h-4.901c-.54 0-.98.45-.98.998 0 .55.44.998.98.998h4.9c.54 0 .98.45.98.999v4.99c0 .55.442.998.981.998.54 0 .98-.449.98-.998v-4.99c0-1.653-1.318-2.995-2.94-2.995ZM140.426 145.033c.54 0 .98-.449.98-.998v-4.99c0-.55.44-.999.98-.999h4.901c.54 0 .98-.449.98-.998a.992.992 0 0 0-.98-.998h-4.901c-1.622 0-2.94 1.343-2.94 2.995v4.99c0 .55.44.998.98.998ZM183.376 172.8c-.54 0-.98.45-.98.998v4.991c0 .55-.441.998-.98.998h-4.901c-.54 0-.98.449-.98.998 0 .55.44.998.98.998h4.901c1.622 0 2.94-1.342 2.94-2.994v-4.99a.992.992 0 0 0-.98-.999ZM147.287 179.787h-4.9c-.54 0-.98-.45-.98-.998v-4.99a.992.992 0 0 0-.981-.999c-.54 0-.98.45-.98.998v4.991c0 1.652 1.318 2.994 2.94 2.994h4.901c.54 0 .98-.449.98-.998a.992.992 0 0 0-.98-.998Z"/></g></g></svg>