<svg width="46" height="46" fill="none" xmlns="http://www.w3.org/2000/svg"><path d="M23.977 42.033a3.755 3.755 0 0 1-1.955 0c-9.296-2.569-16.1-11.347-16.1-20.72V12.9c0-1.571 1.188-3.354 2.664-3.948l10.676-4.37a9.943 9.943 0 0 1 7.494 0l10.676 4.37c1.457.594 2.664 2.377 2.664 3.948l-.019 8.415c0 9.372-6.804 18.15-16.1 20.719Z" fill="#FF3B2F"/><path fill-rule="evenodd" clip-rule="evenodd" d="M29.166 20.32c0-1.53 0-6.166-6.166-6.166s-6.166 4.637-6.166 6.166v1.2c-2.006.444-2.68 1.743-2.68 4.555v1.644c0 3.617 1.118 4.736 4.735 4.736h8.222c3.617 0 4.735-1.119 4.735-4.736v-1.644c0-2.812-.674-4.11-2.68-4.555v-1.2Zm-7.975 6.577c0-1.003.806-1.809 1.809-1.809s1.809.806 1.809 1.809A1.803 1.803 0 0 1 23 28.706a1.803 1.803 0 0 1-1.809-1.81Zm-1.89-5.558v-1.02c0-2.4.591-3.699 3.699-3.699 3.108 0 3.7 1.3 3.7 3.7v1.02h-7.4Z" fill="#fff"/></svg>