<svg width="15" height="17" viewBox="0 0 15 17" fill="none" xmlns="http://www.w3.org/2000/svg">
<path d="M11.1718 6.51826L10.7365 6.92598C10.3958 7.24569 9.52909 8.03953 8.75163 8.74992C8.362 9.10593 7.99364 9.44249 7.72254 9.68969C7.58702 9.81326 7.47607 9.91499 7.39876 9.98544C7.36012 10.0206 7.32955 10.0478 7.30903 10.0665C7.2988 10.0758 7.2909 10.0833 7.28563 10.0881L7.2786 10.0951L7.10618 10.2518H6.62479L5.12212 8.8642L4.68442 8.4588L5.50208 7.59239L6.86822 8.85494C6.88189 8.84247 6.89613 8.83006 6.91035 8.8171C7.18125 8.57009 7.55021 8.23452 7.93944 7.87888C8.71959 7.16602 9.57916 6.37863 9.91258 6.06575L10.3471 5.65725L11.1718 6.51826Z" fill="#2A2A2A"/>
<path fill-rule="evenodd" clip-rule="evenodd" d="M8.22811 0.250305L11.4246 2.08505L14.9277 4.07733L14.9192 8.07888L14.9277 12.0773L11.4238 14.0688L11.4246 14.0696L8.22811 15.9044L7.92773 16.0773L7.62736 15.9044L4.43086 14.0696L0.927734 12.0773L0.936317 8.07888L0.927734 4.07733L4.43086 2.08505L7.62736 0.250305L7.92773 0.0773315L8.22811 0.250305ZM5.03239 3.11131L5.03005 3.11208L2.12691 4.76305L2.13471 8.07579V8.07888L2.12691 11.3908L5.03005 13.0426L5.03239 13.0434L7.92773 14.7059L10.8231 13.0434L10.8254 13.0426L13.7278 11.3908L13.7208 8.07888V8.07579L13.7278 4.76305L10.8254 3.11208L10.8231 3.11131L7.92773 1.44799L5.03239 3.11131Z" fill="#2A2A2A"/>
</svg>
