<svg width="16" height="16" viewBox="0 0 16 16" fill="none" xmlns="http://www.w3.org/2000/svg">
<path fill-rule="evenodd" clip-rule="evenodd" d="M8 0C12.4177 0 16 3.58139 16 8C16 12.4178 12.4178 16 8 16C3.58139 16 0 12.4177 0 8C0 3.58143 3.58143 0 8 0ZM5.03516 14.1211C5.93122 14.5559 6.93707 14.8 8 14.8C11.755 14.8 14.8 11.755 14.8 8C14.8 5.65974 13.6176 3.59602 11.818 2.37266L5.03516 14.1211ZM8 1.2C4.24417 1.2 1.2 4.24417 1.2 8C1.2 10.2628 2.30658 12.2662 4.00703 13.5023L10.7695 1.78984C9.92334 1.41188 8.98657 1.2 8 1.2Z" fill="#2A2A2A"/>
</svg>
