<svg width="16" height="16" viewBox="0 0 16 16" fill="none" xmlns="http://www.w3.org/2000/svg">
<path d="M12.1484 7.99922C12.1483 10.3187 10.2672 12.1992 7.94766 12.1992C6.65109 12.1991 5.49401 11.6095 4.72422 10.6875L4.50313 11.4695L3.36484 11.1477L4.09063 8.58438L6.69453 8.85625L6.55703 10.0648L5.96797 10.0031L5.68906 9.97344C6.23952 10.6027 7.04821 10.9992 7.94844 10.9992C9.60501 10.999 10.9483 9.65581 10.9484 7.99922H12.1484Z" fill="#2A2A2A"/>
<path d="M8.04609 3.79922C9.34164 3.79934 10.4989 4.38706 11.2688 5.30781L11.3242 5.11328L11.4898 4.52813L12.6281 4.85L11.9016 7.41563L9.37734 7.1375L9.52109 5.93047L10.2945 6.01562C9.74434 5.39222 8.94139 4.99933 8.04609 4.99922C6.38931 4.99931 5.04609 6.34242 5.04609 7.99922H3.84609C3.84609 5.67968 5.72657 3.79931 8.04609 3.79922Z" fill="#2A2A2A"/>
<path fill-rule="evenodd" clip-rule="evenodd" d="M8 0C12.4183 0 16 3.58172 16 8C16 12.4183 12.4183 16 8 16C3.58172 16 0 12.4183 0 8C0 3.58172 3.58172 0 8 0ZM8 1.2C4.24446 1.2 1.2 4.24446 1.2 8C1.2 11.7555 4.24446 14.8 8 14.8C11.7555 14.8 14.8 11.7555 14.8 8C14.8 4.24446 11.7555 1.2 8 1.2Z" fill="#2A2A2A"/>
</svg>
