<svg width="16" height="16" viewBox="0 0 16 16" fill="none" xmlns="http://www.w3.org/2000/svg">
<path d="M7.67107 1.18165H7.0678C3.83033 1.18184 1.20586 3.7523 1.20556 6.92297C1.20556 10.0939 3.83014 12.6649 7.0678 12.6651C10.3056 12.6651 12.9308 10.094 12.9308 6.92297V6.33215H14.1374V6.92297C14.1374 8.70831 13.4466 10.3355 12.3134 11.5634L15.999 15.163L15.1467 16L11.4297 12.3689C10.228 13.2935 8.71441 13.8467 7.0678 13.8467C3.16379 13.8465 -0.000976562 10.7465 -0.000976562 6.92297C-0.000674779 3.09969 3.16398 0.000191625 7.0678 0H7.67107V1.18165Z" fill="#2A2A2A"/>
<path fill-rule="evenodd" clip-rule="evenodd" d="M9.50131 1.03702C9.7907 0.970492 10.1107 0.959706 10.4337 1.0501C10.6094 1.0993 10.7751 1.17701 10.9301 1.28012C11.0852 1.17701 11.2509 1.0993 11.4266 1.0501C11.7956 0.946833 12.1606 0.975583 12.4807 1.06856L12.6559 1.1278C13.5066 1.45067 13.9429 2.21045 13.9465 2.98644L13.9418 3.13876C13.893 3.89176 13.457 4.50833 12.9583 4.96509C12.4221 5.45623 11.7484 5.82571 11.1579 6.06135L10.9309 6.15213L10.7023 6.06135C10.1119 5.82572 9.43813 5.45619 8.90196 4.96509C8.37013 4.47794 7.9094 3.80876 7.9138 2.98644C7.91764 2.1588 8.41343 1.34883 9.37955 1.06856L9.50131 1.03702ZM12.1375 2.20175C11.9879 2.15831 11.8616 2.15738 11.7581 2.18636C11.6605 2.21374 11.5392 2.27971 11.4109 2.44562L10.9301 3.06722L10.4494 2.44562C10.3211 2.27972 10.1998 2.21374 10.1022 2.18636C9.99865 2.15738 9.87242 2.15831 9.72282 2.20175C9.3711 2.30386 9.17502 2.55433 9.13055 2.85874L9.12034 2.9926C9.1184 3.35495 9.32133 3.73208 9.72596 4.1027C10.0655 4.41362 10.5031 4.67553 10.9301 4.86893C11.3573 4.67549 11.7948 4.41295 12.1343 4.10193C12.5389 3.73132 12.7419 3.35492 12.74 2.9926C12.7383 2.62938 12.5393 2.31842 12.1375 2.20175Z" fill="#2A2A2A"/>
</svg>
