<svg width="16" height="16" viewBox="0 0 16 16" fill="none" xmlns="http://www.w3.org/2000/svg">
<path d="M11.0998 7.19375L10.6557 7.60625C10.3378 7.90204 9.53024 8.63651 8.80574 9.29297C8.44256 9.62204 8.09846 9.93245 7.84575 10.1609C7.71942 10.2752 7.61615 10.3692 7.54407 10.4344C7.50804 10.4669 7.47963 10.4921 7.46049 10.5094C7.45092 10.518 7.44392 10.5252 7.43899 10.5297C7.43663 10.5318 7.43465 10.5333 7.43342 10.5344L7.43183 10.5359L7.25591 10.6945H6.76557L6.58965 10.5328L4.9037 8.98828L5.73792 8.11094L7.01472 9.28125L7.0179 9.27891C7.2704 9.05061 7.61354 8.73963 7.9763 8.41094C8.70357 7.75197 9.50464 7.02483 9.81508 6.73594L10.2585 6.32266L11.0998 7.19375Z" fill="#2A2A2A"/>
<path fill-rule="evenodd" clip-rule="evenodd" d="M11.591 1.27891H15.5002L15.501 16H0.501773L0.500977 1.27891H4.41097V0H11.591V1.27891ZM1.72365 2.47891V14.8H14.2775V2.47891H11.591V3.75781H4.41097V2.47891H1.72365ZM5.63364 2.55781H10.3683V1.2H5.63364V2.55781Z" fill="#2A2A2A"/>
</svg>
