<svg width="16" height="16" viewBox="0 0 16 16" fill="none" xmlns="http://www.w3.org/2000/svg">
<path d="M9.29462 15.1704L9.32909 15.4341C9.00137 15.4758 8.66751 15.5 8.32815 15.5C7.98854 15.5 7.65442 15.4759 7.32647 15.4341L7.47481 14.3208C7.75353 14.3563 8.03844 14.375 8.32815 14.375C8.61786 14.375 8.90277 14.3563 9.18149 14.3208L9.29462 15.1704Z" fill="#2A2A2A"/>
<path d="M8.32815 0.5C8.43559 0.5 8.54248 0.502788 8.64881 0.507324C8.69789 0.509297 8.74682 0.511778 8.79565 0.514648C8.85227 0.518137 8.9087 0.522426 8.96497 0.5271C9.0723 0.535723 9.17885 0.54716 9.28488 0.560059C9.29961 0.561858 9.31438 0.563312 9.32909 0.565186C10.0059 0.651354 10.6541 0.822833 11.2635 1.06982C11.2667 1.07113 11.2708 1.07218 11.274 1.07349C11.3117 1.08884 11.349 1.10517 11.3864 1.12109C11.4538 1.14978 11.5208 1.1792 11.5872 1.20972C11.6253 1.22724 11.6633 1.24507 11.7011 1.26318C11.7578 1.29038 11.8137 1.31889 11.8696 1.34741C11.9499 1.38834 12.0293 1.43053 12.1079 1.47412C12.1405 1.49222 12.173 1.5105 12.2053 1.52905C12.2587 1.55973 12.3122 1.59018 12.3649 1.62207C12.3954 1.64061 12.4252 1.66026 12.4555 1.6792C12.5522 1.73966 12.6473 1.80218 12.741 1.8667C12.7682 1.88548 12.7956 1.90398 12.8226 1.9231C13.4856 2.39254 14.0684 2.96278 14.548 3.61133C14.5543 3.61984 14.5605 3.62843 14.5668 3.63696C14.64 3.73692 14.7105 3.83884 14.7788 3.94238C14.8016 3.97698 14.8247 4.01141 14.847 4.04639C14.8834 4.10365 14.9185 4.16169 14.9534 4.21997C14.9663 4.24158 14.9789 4.26341 14.9916 4.28516C15.0523 4.3891 15.1104 4.49458 15.1661 4.60156C15.1816 4.63132 15.1975 4.66093 15.2126 4.69092C15.2356 4.73655 15.2579 4.78247 15.28 4.82861C15.3054 4.88173 15.33 4.93523 15.3542 4.98901C15.7282 5.82194 15.9521 6.73321 15.9918 7.69165C15.9963 7.79392 16 7.89667 16 8C16 11.0237 14.169 13.6261 11.534 14.813C11.5098 14.8239 11.4856 14.8346 11.4613 14.8452C11.2508 14.9374 11.0363 15.0227 10.8163 15.0964L10.4432 14.0322C11.6963 13.6124 12.7756 12.829 13.5531 11.8123C13.6218 11.7225 13.6893 11.6317 13.7531 11.5383C14.4455 10.5258 14.8492 9.30891 14.8492 8C14.8492 4.47918 11.9296 1.625 8.32815 1.625C6.22111 1.625 4.34598 2.60169 3.1534 4.1189L3.15415 4.11963C3.01466 4.29708 2.88463 4.48194 2.76456 4.67334L4.73272 4.12915L5.05038 5.22632L1.14553 6.30737L0 2.35229L1.09159 2.05054L1.71418 4.19873C1.74524 4.14718 1.7763 4.09567 1.80858 4.04492C1.83061 4.0103 1.85416 3.97663 1.87676 3.94238C2.35562 3.21622 2.95862 2.57578 3.65761 2.05054C3.66553 2.04459 3.67364 2.03888 3.68159 2.03296C3.73694 1.9917 3.79288 1.95119 3.84941 1.91138C3.85987 1.90401 3.87038 1.89672 3.88088 1.8894C3.93654 1.85062 3.99269 1.8125 4.04945 1.77515C4.06151 1.7672 4.0733 1.75885 4.08541 1.75098C4.1392 1.716 4.19325 1.68138 4.24799 1.64771C4.26915 1.63468 4.29037 1.62171 4.31167 1.60889C4.36714 1.57549 4.42309 1.54278 4.47949 1.51074C4.49012 1.5047 4.50104 1.49916 4.51171 1.49316C4.57389 1.45823 4.63649 1.42389 4.69976 1.39062C4.70988 1.3853 4.72032 1.38053 4.73047 1.37524C4.79491 1.34173 4.85975 1.30886 4.92527 1.2771C4.95187 1.2642 4.97865 1.25162 5.00543 1.23901C5.04828 1.21885 5.09101 1.19836 5.13429 1.17896C5.18781 1.15496 5.24195 1.13219 5.29612 1.10938C6.07634 0.780805 6.92328 0.575307 7.81195 0.517578C7.83614 0.515941 7.86037 0.5146 7.88462 0.513184C7.94563 0.509783 8.00679 0.506393 8.06818 0.504395C8.15447 0.501408 8.24114 0.5 8.32815 0.5Z" fill="#2A2A2A"/>
<path d="M4.35887 13.0581C4.80796 13.3955 5.30303 13.6769 5.83255 13.8916L5.39127 14.9294C4.76748 14.6765 4.18557 14.3455 3.65761 13.9487L4.35887 13.0581Z" fill="#2A2A2A"/>
<path d="M2.30155 10.4397C2.52114 10.9574 2.80904 11.4413 3.15415 11.8804L2.24237 12.5652C1.83662 12.049 1.49784 11.4802 1.23918 10.8704L2.30155 10.4397Z" fill="#2A2A2A"/>
<path d="M1.86252 7.16577C1.82616 7.43825 1.80708 7.71678 1.80708 8C1.80708 8.28322 1.82616 8.56175 1.86252 8.83423L0.722982 8.97852C0.680274 8.65817 0.656303 8.33173 0.656303 8C0.656303 7.66803 0.680211 7.34133 0.722982 7.02075L1.86252 7.16577Z" fill="#2A2A2A"/>
</svg>
