<svg width="16" height="16" viewBox="0 0 16 16" fill="none" xmlns="http://www.w3.org/2000/svg">
<path d="M16.001 11.7242L12.314 15.5023L11.351 14.5155L13.394 12.422H2.77996C1.4009 12.422 0.282954 11.2764 0.282954 9.86324V9.16539H1.64496V9.86324C1.64496 10.5056 2.15312 11.0263 2.77996 11.0263H13.394L11.351 8.93278L12.314 7.94598L16.001 11.7242Z" fill="#2A2A2A"/>
<path d="M4.65094 1.48911L2.60794 3.58264H13.222C14.6011 3.58264 15.719 4.72824 15.719 6.1414V7.7697H14.357V6.1414C14.357 5.49906 13.8488 4.97833 13.222 4.97833H2.60794L4.65094 7.07186L3.68796 8.05866L0.000976562 4.28049L3.68796 0.502319L4.65094 1.48911Z" fill="#2A2A2A"/>
</svg>
