<svg width="15" height="16" viewBox="0 0 15 16" fill="none" xmlns="http://www.w3.org/2000/svg">
<path d="M8.71465 0.837855L6.96855 2.42509C7.03708 2.42317 7.10582 2.42134 7.1748 2.42134C11.0464 2.42134 14.1748 5.46689 14.1748 9.21101C14.1746 12.955 11.0463 15.9999 7.1748 15.9999C3.30327 15.9999 0.174968 12.955 0.174805 9.21101C0.174805 8.16147 0.420941 7.16568 0.860742 6.2768L1.11855 5.75573L2.20215 6.25128L1.94434 6.7716C1.57956 7.50879 1.3748 8.33606 1.3748 9.21101C1.37497 12.329 3.9773 14.8467 7.1748 14.8467C10.3723 14.8467 12.9746 12.329 12.9748 9.21101C12.9748 6.09291 10.3724 3.5746 7.1748 3.5746C6.51603 3.5746 5.8838 3.68136 5.29512 3.87718L4.68652 2.91313L7.89043 -6.10352e-05L8.71465 0.837855Z" fill="#2A2A2A"/>
<path fill-rule="evenodd" clip-rule="evenodd" d="M8.98106 12.4163L3.65605 9.16671L8.98106 5.91716V12.4163ZM5.89512 9.16596L7.78105 10.317V8.01496L5.89512 9.16596Z" fill="#2A2A2A"/>
</svg>
