<svg width="16" height="12" viewBox="0 0 16 12" fill="none" xmlns="http://www.w3.org/2000/svg">
<path d="M0 7.08203C2.62302e-07 4.36486 2.24899 2.16216 5.02326 2.16216L10.8975 2.16216L9.46366 0.796957L10.2529 0.00189209L12.6817 2.31377L13.0756 2.6896L10.2326 5.55382L9.44331 4.80289L10.9782 3.25547L5.02326 3.25547C2.86549 3.25547 1.11628 4.96868 1.11628 7.08203C1.1164 9.19528 2.86557 10.9086 5.02326 10.9086H11.383C13.3162 10.9084 14.8834 9.37334 14.8837 7.47992V6.93326H16V7.47992C15.9997 9.97715 13.9327 12.0017 11.383 12.0019H5.02326C2.24906 12.0019 0.000122858 9.79909 0 7.08203Z" fill="#2A2A2A"/>
</svg>
