<svg width="16" height="16" viewBox="0 0 16 16" fill="none" xmlns="http://www.w3.org/2000/svg">
<path d="M7.67205 1.18238H7.06878C3.83131 1.18258 1.20684 3.75304 1.20654 6.92371C1.20654 10.0946 3.83112 12.6656 7.06878 12.6658C10.3066 12.6658 12.9318 10.0947 12.9318 6.92371V6.33288H14.1383V6.92371C14.1383 8.70904 13.4476 10.3362 12.3144 11.5642L16 15.1637L15.1477 16.0007L11.4307 12.3696C10.229 13.2942 8.71539 13.8474 7.06878 13.8474C3.16477 13.8473 0 10.7472 0 6.92371C0.000301784 3.10043 3.16495 0.000924046 7.06878 0.000732422H7.67205V1.18238Z" fill="#2A2A2A"/>
<path d="M11.7025 4.11882L11.6883 5.30047H8.87309L8.88723 4.11882H11.7025Z" fill="#2A2A2A"/>
<path d="M13.2971 3.34952L12.6938 3.34875H8.87309L8.88645 2.16709H13.3112L13.2971 3.34952Z" fill="#2A2A2A"/>
</svg>
