<svg width="16" height="16" viewBox="0 0 16 16" fill="none" xmlns="http://www.w3.org/2000/svg">
<path fill-rule="evenodd" clip-rule="evenodd" d="M7.06878 0C10.9728 0 14.138 3.09958 14.1383 6.92297C14.1383 8.70831 13.4476 10.3355 12.3144 11.5634L16 15.163L15.1477 16L11.4307 12.3689C10.229 13.2935 8.71539 13.8467 7.06878 13.8467C3.16477 13.8465 0 10.7465 0 6.92297C0.000301784 3.09969 3.16495 0.000191625 7.06878 0ZM7.06878 1.18165C3.83131 1.18184 1.20684 3.7523 1.20654 6.92297C1.20654 10.0939 3.83112 12.6649 7.06878 12.6651C10.3066 12.6651 12.9318 10.094 12.9318 6.92297C12.9315 3.75218 10.3064 1.18165 7.06878 1.18165Z" fill="#2A2A2A"/>
</svg>
