<svg width="16" height="17" viewBox="0 0 16 17" fill="none" xmlns="http://www.w3.org/2000/svg">
<path fill-rule="evenodd" clip-rule="evenodd" d="M12.8821 0.75C14.3414 0.750228 15.5252 1.94125 15.5254 3.41047L15.522 3.5473C15.4515 4.95321 14.296 6.07157 12.8821 6.07179L12.7465 6.06841C12.0316 6.03196 11.3921 5.70846 10.9378 5.21115L5.65541 7.85811C5.75416 8.13714 5.81106 8.43685 5.81109 8.75L5.80774 8.88682C5.78477 9.34345 5.64537 9.7685 5.42188 10.136L10.7503 12.5203C11.231 11.8592 12.0061 11.4283 12.8821 11.4282C14.3413 11.4284 15.5251 12.6196 15.5254 14.0887L15.522 14.2255C15.4515 15.6314 14.296 16.7498 12.8821 16.75L12.7465 16.7466C11.3501 16.6754 10.2397 15.5123 10.2397 14.0887C10.2397 13.964 10.2483 13.8414 10.2648 13.7213L4.40575 11.1005C4.03631 11.2981 3.61525 11.4113 3.16782 11.4113L3.03223 11.4079C1.63594 11.3368 0.525555 10.1735 0.525391 8.75C0.525543 7.28073 1.70852 6.08968 3.16782 6.08953C3.84632 6.08953 4.46331 6.3488 4.93139 6.77196L10.3242 4.0701C10.2707 3.85893 10.2397 3.63842 10.2397 3.41047C10.2398 1.9412 11.4228 0.750152 12.8821 0.75ZM12.8821 12.7255C12.1303 12.7257 11.5256 13.3387 11.5253 14.0887C11.5253 14.8389 12.1301 15.4526 12.8821 15.4527C13.6341 15.4525 14.2397 14.8389 14.2397 14.0887C14.2395 13.3388 13.6339 12.7257 12.8821 12.7255ZM3.16782 7.38682C2.41587 7.38698 1.81119 7.99992 1.81103 8.75C1.8112 9.50007 2.41588 10.1139 3.16782 10.114C3.91989 10.114 4.52528 9.50016 4.52545 8.75C4.52529 7.99982 3.9199 7.38682 3.16782 7.38682ZM12.8821 2.0473C12.1302 2.04745 11.5255 2.66039 11.5253 3.41047C11.5253 4.16069 12.1301 4.77434 12.8821 4.77449C13.6341 4.77427 14.2397 4.16064 14.2397 3.41047C14.2396 2.66044 13.634 2.04752 12.8821 2.0473Z" fill="#2A2A2A"/>
</svg>
