<svg width="136" height="114" viewBox="0 0 136 114" fill="none" xmlns="http://www.w3.org/2000/svg">
<path d="M34.5157 92.1596L43.307 38.4922H110.817C111.697 38.4922 112.388 39.2462 112.312 40.1229L107.358 96.7641C107.155 99.0885 105.209 100.872 102.875 100.872H41.9171C37.291 100.872 33.7679 96.7249 34.5157 92.1596Z" fill="url(#paint0_linear_244_692680)" stroke="#A1B5FA"/>
<path d="M28.3916 32.1782C28.3916 31.3498 29.0632 30.6782 29.8916 30.6782H103.163C103.991 30.6782 104.663 31.3498 104.663 32.1782V99.372C104.663 100.2 103.991 100.872 103.163 100.872H34.8916C31.3018 100.872 28.3916 97.9619 28.3916 94.372V32.1782Z" fill="url(#paint1_linear_244_692680)" stroke="#A1B5FA"/>
<rect x="34.8369" y="38.8604" width="63.3798" height="21.7054" rx="2" fill="#FBFCFF"/>
<rect opacity="0.8" x="34.8369" y="64.0388" width="63.3798" height="7.81395" rx="1" fill="#FBFCFF"/>
<rect opacity="0.8" x="63.4883" y="76.1938" width="34.7287" height="7.81395" rx="1" fill="#FBFCFF"/>
<rect opacity="0.6" x="63" y="87" width="35" height="7" rx="1" fill="#FBFCFF"/>
<path d="M35 77C35 76.4477 35.4477 76 36 76H59C59.5523 76 60 76.4477 60 77V93C60 93.5523 59.5523 94 59 94H39C36.7909 94 35 92.2091 35 90V77Z" fill="#FBFCFF"/>
<path d="M54.6995 53.9221H52.603L49.0965 49.1043V53.9221H47V46.1113H49.0965L52.603 50.9513V46.1113H54.6995V53.9221Z" fill="#A1B5FA"/>
<path d="M58.3157 47.6356V49.2156H61.1234V50.6843H58.3157V52.3978H61.4912V53.9221H56.2192V46.1113H61.4912V47.6356H58.3157Z" fill="#A1B5FA"/>
<path d="M74.6958 46.1113L72.4521 53.9221H69.9142L68.5411 48.7816L67.1189 53.9221H64.581L62.3986 46.1113H64.6423L65.8806 51.7969L67.4131 46.1113H69.7181L71.1893 51.7969L72.4399 46.1113H74.6958Z" fill="#A1B5FA"/>
<path d="M78.8613 54C78.232 54 77.668 53.9073 77.1694 53.7218C76.6708 53.5364 76.2703 53.2619 75.9679 52.8985C75.6736 52.535 75.5184 52.0974 75.502 51.5855H77.7334C77.7661 51.8748 77.8764 52.0974 78.0644 52.2531C78.2524 52.4015 78.4976 52.4757 78.8 52.4757C79.1106 52.4757 79.3558 52.4126 79.5357 52.2865C79.7155 52.153 79.8054 51.9713 79.8054 51.7413C79.8054 51.5484 79.7318 51.389 79.5847 51.2629C79.4458 51.1368 79.27 51.0329 79.0575 50.9513C78.8532 50.8697 78.5589 50.777 78.1748 50.6732C77.619 50.5174 77.1653 50.3616 76.8139 50.2058C76.4624 50.0501 76.16 49.8201 75.9066 49.516C75.6532 49.2119 75.5265 48.815 75.5265 48.3255C75.5265 47.5985 75.8167 47.0311 76.397 46.6231C76.9773 46.2077 77.7334 46 78.6652 46C79.6133 46 80.3775 46.2077 80.9579 46.6231C81.5382 47.0311 81.8488 47.6022 81.8897 48.3366H79.6215C79.6051 48.0844 79.503 47.8878 79.315 47.7469C79.127 47.5985 78.8859 47.5243 78.5916 47.5243C78.3382 47.5243 78.1339 47.5874 77.9786 47.7135C77.8233 47.8322 77.7457 48.0065 77.7457 48.2364C77.7457 48.4886 77.8764 48.6852 78.138 48.8261C78.3995 48.9671 78.8082 49.1191 79.364 49.2823C79.9198 49.4529 80.3694 49.6161 80.7127 49.7719C81.0641 49.9277 81.3665 50.1539 81.6199 50.4506C81.8733 50.7473 82 51.1293 82 51.5967C82 52.0417 81.8733 52.446 81.6199 52.8095C81.3747 53.1729 81.0151 53.4622 80.541 53.6773C80.0669 53.8924 79.5071 54 78.8613 54Z" fill="#A1B5FA"/>
<path fill-rule="evenodd" clip-rule="evenodd" d="M28.9267 36.1681V36.1684L28.0006 37.3651C26.7156 39.022 25.6622 38.5749 25.6622 36.3657V26.8976H22.0851C20.4644 26.8976 20.0129 25.7667 21.0895 24.3859L28.9263 14.2608V14.2605L29.8524 13.0638C31.1374 11.4069 32.1908 11.854 32.1908 14.0632V23.5313H35.7679C37.3885 23.5313 37.84 24.6622 36.7634 26.043L28.9267 36.1681Z" fill="#FFCC02"/>
<path d="M28.9267 36.1681L28.5313 35.8621L28.4267 35.9972V36.1681H28.9267ZM28.9267 36.1684L29.3221 36.4744L29.4267 36.3393V36.1684H28.9267ZM28.0006 37.3651L28.3957 37.6715L28.396 37.6711L28.0006 37.3651ZM25.6622 26.8976H26.1622V26.3976H25.6622V26.8976ZM21.0895 24.3859L21.4838 24.6933L21.4849 24.6919L21.0895 24.3859ZM28.9263 14.2608L29.3217 14.5668L29.4263 14.4317V14.2608H28.9263ZM28.9263 14.2605L28.5309 13.9544L28.4263 14.0896V14.2605H28.9263ZM29.8524 13.0638L29.4573 12.7574L29.457 12.7578L29.8524 13.0638ZM32.1908 23.5313H31.6908V24.0313H32.1908V23.5313ZM36.7634 26.043L36.3691 25.7355L36.368 25.737L36.7634 26.043ZM28.4267 36.1681V36.1684H29.4267V36.1681H28.4267ZM28.5312 35.8624L27.6051 37.0591L28.396 37.6711L29.3221 36.4744L28.5312 35.8624ZM27.6055 37.0587C27.3063 37.4445 27.0477 37.6709 26.8487 37.7824C26.6537 37.8917 26.5689 37.8652 26.5456 37.8553C26.5103 37.8402 26.4104 37.7734 26.3167 37.5159C26.2248 37.2632 26.1622 36.8844 26.1622 36.3657H25.1622C25.1622 36.9516 25.2312 37.4571 25.377 37.8578C25.521 38.2538 25.7648 38.6094 26.1534 38.7751C26.5541 38.946 26.9736 38.8587 27.3375 38.6548C27.6974 38.4532 28.0524 38.1142 28.3957 37.6715L27.6055 37.0587ZM26.1622 36.3657V26.8976H25.1622V36.3657H26.1622ZM25.6622 26.3976H22.0851V27.3976H25.6622V26.3976ZM22.0851 26.3976C21.3653 26.3976 21.1109 26.1522 21.0405 25.9749C20.9577 25.7665 20.9864 25.3313 21.4838 24.6933L20.6952 24.0785C20.116 24.8213 19.8322 25.6419 20.1112 26.3441C20.4025 27.0775 21.1842 27.3976 22.0851 27.3976V26.3976ZM21.4849 24.6919L29.3217 14.5668L28.5309 13.9547L20.6941 24.0799L21.4849 24.6919ZM29.4263 14.2608V14.2605H28.4263V14.2608H29.4263ZM29.3217 14.5665L30.2478 13.3698L29.457 12.7578L28.5309 13.9544L29.3217 14.5665ZM30.2475 13.3702C30.5467 12.9844 30.8052 12.758 31.0042 12.6465C31.1993 12.5372 31.2841 12.5637 31.3073 12.5736C31.3427 12.5887 31.4426 12.6555 31.5362 12.9129C31.6282 13.1657 31.6908 13.5445 31.6908 14.0632H32.6908C32.6908 13.4773 32.6217 12.9718 32.476 12.5711C32.332 12.1751 32.0882 11.8195 31.6996 11.6538C31.2989 11.4829 30.8793 11.5702 30.5155 11.7741C30.1556 11.9757 29.8006 12.3147 29.4573 12.7574L30.2475 13.3702ZM31.6908 14.0632V23.5313H32.6908V14.0632H31.6908ZM32.1908 24.0313H35.7679V23.0313H32.1908V24.0313ZM35.7679 24.0313C36.4877 24.0313 36.742 24.2767 36.8124 24.454C36.8952 24.6624 36.8665 25.0976 36.3691 25.7355L37.1577 26.3504C37.7369 25.6076 38.0208 24.787 37.7418 24.0848C37.4504 23.3514 36.6687 23.0313 35.7679 23.0313V24.0313ZM36.368 25.737L28.5313 35.8621L29.3221 36.4742L37.1588 26.349L36.368 25.737Z" fill="white"/>
<path opacity="0.9" d="M11.395 88.3488C10.3689 88.3488 9.35277 88.0793 8.40474 87.5557C7.45671 87.0321 6.5953 86.2647 5.86971 85.2972C5.14412 84.3298 4.56854 83.1812 4.17586 81.9172C3.78317 80.6532 3.58105 79.2984 3.58105 77.9302L11.395 77.9302L11.395 88.3488Z" fill="#FEBFBD"/>
<path opacity="0.9" d="M123.395 81.403C124.421 81.403 125.437 81.1335 126.385 80.6099C127.333 80.0863 128.195 79.3189 128.92 78.3514C129.646 77.384 130.221 76.2354 130.614 74.9714C131.007 73.7074 131.209 72.3526 131.209 70.9844L123.395 70.9844L123.395 81.403Z" fill="#FFF0B3"/>
<path opacity="0.4" d="M91.271 4.13169C92.2971 4.13169 93.3132 4.40117 94.2613 4.92476C95.2093 5.44834 96.0707 6.21577 96.7963 7.18323C97.5219 8.15068 98.0975 9.29922 98.4902 10.5633C98.8828 11.8273 99.085 13.1821 99.085 14.5503L91.271 14.5503L91.271 4.13169Z" fill="#99E3AC"/>
<defs>
<linearGradient id="paint0_linear_244_692680" x1="101.177" y1="20.6072" x2="40.6137" y2="105.652" gradientUnits="userSpaceOnUse">
<stop stop-color="#CCD7FF"/>
<stop offset="0.432004" stop-color="#9EB2FB"/>
<stop offset="1" stop-color="#B8C5F8"/>
</linearGradient>
<linearGradient id="paint1_linear_244_692680" x1="98.9061" y1="22.4433" x2="40.1" y2="106.621" gradientUnits="userSpaceOnUse">
<stop stop-color="#E8EDFF"/>
<stop offset="0.432004" stop-color="#CAD6FF"/>
<stop offset="1" stop-color="#D8E0FF"/>
</linearGradient>
</defs>
</svg>
