<svg width="90" height="84" viewBox="0 0 90 84" fill="none" xmlns="http://www.w3.org/2000/svg">
<ellipse opacity="0.8" cx="36.8017" cy="36.2436" rx="20.7622" ry="20.9233" fill="#F6EFFB"/>
<ellipse opacity="0.7" cx="22.0848" cy="67.3852" rx="4.36507" ry="4.35782" fill="#F6EFFB"/>
<path opacity="0.8" d="M26.0894 29.5993C26.0894 28.6436 26.8593 27.8663 27.815 27.8574L68.807 27.4743C69.8843 27.4643 70.7123 28.4247 70.5437 29.4887L64.4083 68.2178C64.272 69.0784 63.5208 69.7058 62.6497 69.6867L27.7931 68.9221C26.8461 68.9014 26.0894 68.1278 26.0894 67.1807V29.5993Z" fill="#D1AFE9"/>
<path d="M22.3403 24.5935C22.3403 23.8719 22.9252 23.287 23.6467 23.287H61.1732C61.8947 23.287 62.4796 23.872 62.4796 24.5935V69.2842H23.6467C22.9252 69.2842 22.3403 68.6993 22.3403 67.9778V24.5935Z" fill="white" stroke="#D1AFE9" stroke-width="0.870955"/>
<rect x="28.6001" y="46.2891" width="26.7822" height="1.67386" rx="0.836931" fill="#F6EFFB"/>
<rect x="28.6001" y="41.2637" width="10.0433" height="2.51079" rx="1.2554" fill="#F6EFFB"/>
<rect x="28.6001" y="51.3105" width="26.7822" height="1.67386" rx="0.836931" fill="#F6EFFB"/>
<rect x="28.6001" y="56.332" width="26.7822" height="1.67386" rx="0.836931" fill="#F6EFFB"/>
<rect x="28.6001" y="61.3516" width="20.9236" height="1.67386" rx="0.836931" fill="#F6EFFB"/>
<path d="M35.982 33.4238V29.6613H36.6196L38.3649 32.3134V29.6613H39.0025V33.4238H38.3649L36.6196 30.7718V33.4238H35.982ZM41.0158 33.5022C40.7301 33.5022 40.4793 33.4404 40.2633 33.3167C40.0473 33.193 39.8784 33.0214 39.7564 32.802C39.6362 32.5825 39.5761 32.3299 39.5761 32.0442C39.5761 31.7359 39.6354 31.4685 39.7538 31.2421C39.8723 31.0139 40.0369 30.8371 40.2476 30.7117C40.4584 30.5863 40.7023 30.5235 40.9792 30.5235C41.2719 30.5235 41.5201 30.5924 41.7239 30.73C41.9294 30.8658 42.0819 31.0583 42.1812 31.3074C42.2804 31.5565 42.3179 31.85 42.2935 32.1879H41.669V31.958C41.6673 31.6514 41.6133 31.4276 41.507 31.2865C41.4008 31.1454 41.2336 31.0749 41.0054 31.0749C40.7476 31.0749 40.556 31.155 40.4305 31.3152C40.3051 31.4738 40.2424 31.7063 40.2424 32.0129C40.2424 32.2986 40.3051 32.5198 40.4305 32.6765C40.556 32.8333 40.7389 32.9117 40.9792 32.9117C41.1343 32.9117 41.2675 32.8777 41.379 32.8098C41.4922 32.7401 41.5793 32.64 41.6403 32.5093L42.2622 32.6975C42.1542 32.9518 41.9869 33.1495 41.7605 33.2906C41.5358 33.4317 41.2876 33.5022 41.0158 33.5022ZM40.0438 32.1879V31.7124H41.9852V32.1879H40.0438ZM43.3754 33.4238L42.5132 30.5967L43.1298 30.6019L43.6811 32.4126L44.2403 30.6019H44.7707L45.3272 32.4126L45.8811 30.6019H46.4978L45.6355 33.4238H45.1443L44.5042 31.4825L43.8666 33.4238H43.3754ZM47.9568 33.5022C47.6084 33.5022 47.3254 33.4238 47.1076 33.2671C46.8899 33.1103 46.7575 32.8899 46.7105 32.606L47.3532 32.5067C47.3863 32.6461 47.4595 32.7558 47.5727 32.8359C47.6859 32.9161 47.8288 32.9561 48.0012 32.9561C48.1528 32.9561 48.2695 32.9265 48.3514 32.8673C48.435 32.8063 48.4768 32.7236 48.4768 32.6191C48.4768 32.5546 48.4611 32.5032 48.4297 32.4649C48.4001 32.4248 48.3339 32.3865 48.2312 32.3499C48.1284 32.3134 47.9707 32.2672 47.7582 32.2115C47.5213 32.1488 47.3332 32.0817 47.1939 32.0103C47.0545 31.9371 46.9543 31.8509 46.8934 31.7516C46.8324 31.6523 46.8019 31.5321 46.8019 31.391C46.8019 31.2151 46.8481 31.0618 46.9404 30.9312C47.0327 30.8005 47.1616 30.7004 47.3271 30.6307C47.4926 30.5593 47.6877 30.5235 47.9124 30.5235C48.1319 30.5235 48.3261 30.5575 48.4951 30.6255C48.6658 30.6934 48.8034 30.7901 48.9079 30.9155C49.0124 31.0409 49.0769 31.1881 49.1012 31.3571L48.4585 31.472C48.4428 31.3518 48.3879 31.2569 48.2939 31.1872C48.2015 31.1175 48.0779 31.0783 47.9228 31.0696C47.7748 31.0609 47.6555 31.0836 47.5649 31.1376C47.4743 31.1898 47.429 31.2639 47.429 31.3597C47.429 31.4137 47.4473 31.4598 47.4839 31.4981C47.5205 31.5365 47.5936 31.5748 47.7034 31.6131C47.8148 31.6514 47.9803 31.6985 48.1998 31.7542C48.4245 31.8117 48.6039 31.8779 48.7381 31.9528C48.8739 32.0259 48.9715 32.1139 49.0307 32.2167C49.0917 32.3195 49.1221 32.444 49.1221 32.5903C49.1221 32.8743 49.0185 33.0972 48.8112 33.2592C48.6057 33.4212 48.3209 33.5022 47.9568 33.5022Z" fill="#AC6CDA"/>
<path opacity="0.7" d="M62.308 17.945C62.1536 18.3079 61.6676 18.3742 61.4226 18.0657L59.0812 15.1179C58.8305 14.8023 59.0192 14.3334 59.4187 14.2789L63.2353 13.7588C63.6349 13.7043 63.9411 14.1058 63.7831 14.4771L62.308 17.945Z" fill="#F6EFFB"/>
<path opacity="0.7" d="M69.7067 69.8614C69.7182 70.1341 69.4342 70.32 69.1894 70.2002L66.8496 69.0547C66.5991 68.9321 66.5775 68.583 66.8109 68.4301L69.041 66.9699C69.2744 66.8171 69.5852 66.9769 69.5969 67.2558L69.7067 69.8614Z" fill="#F6EFFB"/>
<path opacity="0.7" d="M17.8447 56.4285C17.8526 56.6173 17.6561 56.746 17.4865 56.663L15.8667 55.8701C15.6933 55.7852 15.6784 55.5435 15.84 55.4377L17.3838 54.4268C17.5454 54.321 17.7605 54.4316 17.7687 54.6247L17.8447 56.4285Z" fill="#F6EFFB"/>
<path opacity="0.7" d="M75.3089 12.9962C75.4778 12.8792 75.7105 12.985 75.7327 13.1891L75.9584 15.2563C75.9812 15.4651 75.7677 15.6194 75.5764 15.5324L73.6398 14.6511C73.4485 14.5641 73.4251 14.302 73.5979 14.1822L75.3089 12.9962Z" fill="#F6EFFB"/>
</svg>
