<svg width="14" height="14" viewBox="0 0 14 14" fill="none" xmlns="http://www.w3.org/2000/svg">
<g id="Component 11">
<g id="Notice-Board---Detail">
<g id="Group-2">
<g id="icon-sort-copy">
<g id="Group-6">
<path id="Triangle" fill-rule="evenodd" clip-rule="evenodd" d="M8.30334 12.6461L10.8173 9.44647C11.1089 9.07545 11.0444 8.53835 10.6734 8.24683C10.5229 8.12855 10.337 8.06426 10.1455 8.06426H5.11755C4.6457 8.06426 4.26318 8.44678 4.26318 8.91863C4.26318 9.11006 4.32747 9.29594 4.44575 9.44647L6.95974 12.6461C7.25126 13.0171 7.78836 13.0816 8.15939 12.7901C8.21294 12.748 8.26127 12.6997 8.30334 12.6461Z" fill="#949CA6"/>
<path id="Triangle-Copy-2" fill-rule="evenodd" clip-rule="evenodd" d="M8.30334 1.92812L10.8173 5.12775C11.1089 5.49877 11.0444 6.03587 10.6734 6.32739C10.5229 6.44566 10.337 6.50995 10.1455 6.50995H5.11755C4.6457 6.50995 4.26318 6.12744 4.26318 5.65559C4.26318 5.46416 4.32747 5.27827 4.44575 5.12775L6.95974 1.92812C7.25126 1.55709 7.78836 1.49264 8.15939 1.78416C8.21294 1.82624 8.26127 1.87457 8.30334 1.92812Z" fill="#C9CDD2"/>
</g>
</g>
</g>
</g>
</g>
</svg>
