<svg width="14" height="14" viewBox="0 0 14 14" fill="none" xmlns="http://www.w3.org/2000/svg">
<g id="Close">
<circle id="Ellipse 477" cx="7" cy="7" r="7" fill="#C9221C"/>
<path id="Union" fill-rule="evenodd" clip-rule="evenodd" d="M5.50471 4.09163C5.11419 3.70111 4.48102 3.70111 4.0905 4.09163C3.69997 4.48216 3.69997 5.11532 4.0905 5.50584L5.58228 6.99763L4.08715 8.49276C3.69663 8.88329 3.69663 9.51645 4.08715 9.90698C4.47768 10.2975 5.11084 10.2975 5.50137 9.90698L6.9965 8.41184L8.49163 9.90698C8.88215 10.2975 9.51532 10.2975 9.90584 9.90698C10.2964 9.51645 10.2964 8.88329 9.90584 8.49276L8.41071 6.99763L9.9025 5.50584C10.293 5.11532 10.293 4.48216 9.9025 4.09163C9.51197 3.70111 8.87881 3.70111 8.48828 4.09163L6.9965 5.58342L5.50471 4.09163Z" fill="white"/>
</g>
</svg>
