<svg width="93" height="52" viewBox="0 0 93 52" fill="none" xmlns="http://www.w3.org/2000/svg">
<mask id="mask0_2369_34768" style="mask-type:alpha" maskUnits="userSpaceOnUse" x="0" y="0" width="93" height="52">
<path d="M0 4C0 1.79086 1.79086 0 4 0H89C91.2091 0 93 1.79086 93 4V48C93 50.2091 91.2091 52 89 52H4C1.79086 52 0 50.2091 0 48V4Z" fill="#D9D9D9"/>
</mask>
<g mask="url(#mask0_2369_34768)">
<path d="M0 4C0 1.79086 1.79086 0 4 0H89C91.2091 0 93 1.79086 93 4V48C93 50.2091 91.2091 52 89 52H4C1.79086 52 0 50.2091 0 48V4Z" fill="white"/>
<g filter="url(#filter0_f_2369_34768)">
<ellipse cx="312.556" cy="131.444" rx="298" ry="120" fill="#DEC8F9"/>
</g>
<g filter="url(#filter1_f_2369_34768)">
<ellipse cx="244.322" cy="97.6888" rx="244.5" ry="90" fill="#EBCAC1"/>
</g>
<g filter="url(#filter2_f_2369_34768)">
<ellipse cx="125.5" cy="71.4445" rx="122.5" ry="60" fill="#FFF9D6"/>
</g>
<path d="M11 22C11 17.5817 14.5817 14 19 14H110C114.418 14 118 17.5817 118 22V52C118 56.4183 114.418 60 110 60H19C14.5817 60 11 56.4183 11 52V22Z" fill="white"/>
<path fill-rule="evenodd" clip-rule="evenodd" d="M18 22H23.2868V31L22.093 29.0258V26.1516H20.4444L19.6486 24.8452H22.093V23.7129H18.9664L18 22ZM29 22H23.7132V31L24.907 29.0258V26.1516H26.5555L27.323 24.8452H24.907V23.7129H28.0336L29 22Z" fill="#436AF5"/>
<rect x="79" y="22" width="8" height="8" rx="4" fill="#E04B00"/>
<rect x="67" y="22" width="8" height="8" rx="4" fill="#228B22"/>
<path d="M18 37C18 35.3431 19.3431 34 21 34H93C94.6569 34 96 35.3431 96 37V59C96 60.6569 94.6569 62 93 62H21C19.3431 62 18 60.6569 18 59V37Z" fill="#F3F6F6"/>
<rect x="48" y="39" width="49" height="18" rx="3" fill="white"/>
<rect x="22" y="39" width="22" height="7" rx="2" fill="#DCE3E5"/>
<rect x="22" y="49" width="22" height="7" rx="2" fill="#DCE3E5"/>
</g>
<defs>
<filter id="filter0_f_2369_34768" x="-50.4443" y="-53.5555" width="726" height="370" filterUnits="userSpaceOnUse" color-interpolation-filters="sRGB">
<feFlood flood-opacity="0" result="BackgroundImageFix"/>
<feBlend mode="normal" in="SourceGraphic" in2="BackgroundImageFix" result="shape"/>
<feGaussianBlur stdDeviation="32.5" result="effect1_foregroundBlur_2369_34768"/>
</filter>
<filter id="filter1_f_2369_34768" x="-23.2888" y="-15.4223" width="535.222" height="226.222" filterUnits="userSpaceOnUse" color-interpolation-filters="sRGB">
<feFlood flood-opacity="0" result="BackgroundImageFix"/>
<feBlend mode="normal" in="SourceGraphic" in2="BackgroundImageFix" result="shape"/>
<feGaussianBlur stdDeviation="11.5556" result="effect1_foregroundBlur_2369_34768"/>
</filter>
<filter id="filter2_f_2369_34768" x="-20.1111" y="-11.6667" width="291.222" height="166.222" filterUnits="userSpaceOnUse" color-interpolation-filters="sRGB">
<feFlood flood-opacity="0" result="BackgroundImageFix"/>
<feBlend mode="normal" in="SourceGraphic" in2="BackgroundImageFix" result="shape"/>
<feGaussianBlur stdDeviation="11.5556" result="effect1_foregroundBlur_2369_34768"/>
</filter>
</defs>
</svg>
