<svg width="17" height="14" viewBox="0 0 17 14" fill="none" xmlns="http://www.w3.org/2000/svg">
<path fill-rule="evenodd" clip-rule="evenodd" d="M8.16992 0.103035C10.4858 0.185104 12.3408 1.89377 12.8809 4.10808C14.9913 4.64753 16.5996 6.37264 16.5996 8.51566C16.5996 11.1142 14.2352 13.0998 11.4777 13.1H4.89961C2.54041 13.1 0.59964 11.2413 0.599609 8.9143C0.599609 7.28815 1.54783 5.89159 2.92383 5.19733C3.07882 2.31723 5.36875 0.00410038 8.16992 0.103035ZM8.12695 1.29817C6.20301 1.2303 4.49851 2.7205 4.17148 4.78935C4.40844 4.7499 4.65164 4.72862 4.89961 4.72862C6.13289 4.72862 7.24794 5.23575 8.0332 6.0491L7.16836 6.87751C6.60331 6.29237 5.79792 5.92452 4.89961 5.92452C3.17192 5.92452 1.79961 7.27843 1.79961 8.9143C1.79964 10.5501 3.17194 11.9041 4.89961 11.9041H11.4777C13.715 11.9039 15.3996 10.3201 15.3996 8.51566C15.3996 6.71124 13.7151 5.12742 11.4777 5.12725C11.1394 5.12725 10.8113 5.16399 10.4996 5.23314L10.2395 4.06604C10.6366 3.97795 11.0517 3.93134 11.4777 3.93134C11.5111 3.93135 11.5445 3.93232 11.5777 3.9329C11.0286 2.41627 9.68807 1.35342 8.12695 1.29817Z" fill="#2A2A2A"/>
</svg>
