<svg width="16" height="12" viewBox="0 0 16 12" fill="none" xmlns="http://www.w3.org/2000/svg">
<path d="M10.6 4.65779V5.79572H4.2V4.65779H10.6Z" fill="#2A2A2A"/>
<path d="M7.8 6.93365V8.07158L4.2 8.07158V6.93365L7.8 6.93365Z" fill="#2A2A2A"/>
<path d="M3.40781 6.93365V8.07158H2.2L2.2 6.93365H3.40781Z" fill="#2A2A2A"/>
<path d="M3.40781 4.65779L3.40781 5.79572H2.2V4.65779L3.40781 4.65779Z" fill="#2A2A2A"/>
<path fill-rule="evenodd" clip-rule="evenodd" d="M16 0.864685V4.27848H15.4C14.185 4.27848 13.2 5.2125 13.2 6.36468C13.2 7.51686 14.185 8.45089 15.4 8.45089H16V11.8647L5.07054e-07 11.8647L0 0.864686L16 0.864685ZM14.8 10.7268V9.5377C13.2085 9.2689 12 7.95112 12 6.36468C12 4.7782 13.2084 3.45968 14.8 3.19092V2.00262L1.2 2.00262L1.2 10.7268L14.8 10.7268Z" fill="#2A2A2A"/>
</svg>
