<svg width="56" height="56" viewBox="0 0 56 56" fill="none" xmlns="http://www.w3.org/2000/svg">
<path d="M4.66675 27.9998C4.66675 34.1882 7.12507 40.1231 11.5009 44.499C15.8768 48.8748 21.8117 51.3332 28.0001 51.3332C34.1885 51.3332 40.1234 48.8748 44.4992 44.499C48.8751 40.1231 51.3334 34.1882 51.3334 27.9998C51.3334 21.8115 48.8751 15.8765 44.4992 11.5007C40.1234 7.12483 34.1885 4.6665 28.0001 4.6665C21.8117 4.6665 15.8768 7.12483 11.5009 11.5007C7.12507 15.8765 4.66675 21.8115 4.66675 27.9998Z" fill="url(#paint0_linear_23_10681)"/>
<path d="M27.9998 3.1665C34.586 3.1665 40.9032 5.78279 45.5603 10.4399C50.2173 15.097 52.8337 21.4135 52.8337 27.9995C52.8337 34.5857 50.2175 40.9029 45.5603 45.5601C40.9032 50.2172 34.586 52.8335 27.9998 52.8335C21.4137 52.8334 15.0972 50.217 10.4402 45.5601C5.78303 40.9029 3.16675 34.5857 3.16675 27.9995C3.16683 21.4134 5.78311 15.097 10.4402 10.4399C15.0973 5.78286 21.4137 3.16659 27.9998 3.1665Z" stroke="url(#paint1_linear_23_10681)" stroke-opacity="0.3" stroke-width="3"/>
<g opacity="0.8" filter="url(#filter0_di_23_10681)">
<path d="M42.0071 28.4196L46.4536 30.7762C46.6978 30.904 46.9728 30.9611 47.2478 30.9412C47.5227 30.9213 47.7866 30.8251 48.0098 30.6634C48.2331 30.5017 48.4069 30.281 48.5116 30.026C48.6163 29.771 48.6478 29.4919 48.6027 29.22L47.7578 24.2252C47.7146 23.9882 47.7298 23.7441 47.8021 23.5143C47.8744 23.2844 48.0016 23.0757 48.1728 22.9061L51.8041 19.3786C52.0039 19.1862 52.1457 18.9417 52.2134 18.6727C52.2811 18.4037 52.2719 18.1212 52.187 17.8571C52.1021 17.5931 51.9448 17.3582 51.733 17.1791C51.5212 17 51.2634 16.884 50.9889 16.8442L45.9941 16.1179C45.7566 16.0823 45.5314 15.9894 45.3378 15.8474C45.1441 15.7054 44.9879 15.5185 44.8825 15.3027L42.6445 10.7526C42.5231 10.502 42.3336 10.2907 42.0977 10.1428C41.8618 9.99493 41.589 9.9165 41.3105 9.9165C41.0321 9.9165 40.7593 9.99493 40.5234 10.1428C40.2875 10.2907 40.098 10.502 39.9766 10.7526L37.7386 15.3027C37.6332 15.5185 37.477 15.7054 37.2833 15.8474C37.0897 15.9894 36.8645 16.0823 36.627 16.1179L31.6026 16.8442C31.3281 16.884 31.0703 17 30.8585 17.1791C30.6467 17.3582 30.4894 17.5931 30.4044 17.8571C30.3195 18.1212 30.3104 18.4037 30.3781 18.6727C30.4458 18.9417 30.5876 19.1862 30.7874 19.3786L34.4186 22.9061C34.5924 23.0742 34.7225 23.2823 34.7974 23.5123C34.8723 23.7422 34.8898 23.9869 34.8484 24.2252L33.9888 29.22C33.9436 29.4919 33.9752 29.771 34.0799 30.026C34.1846 30.281 34.3583 30.5017 34.5816 30.6634C34.8049 30.8251 35.0688 30.9213 35.3437 30.9412C35.6186 30.9611 35.8936 30.904 36.1379 30.7762L40.5843 28.4196C40.8024 28.3003 41.0471 28.2377 41.2957 28.2377C41.5444 28.2377 41.789 28.3003 42.0071 28.4196Z" fill="#228B22"/>
</g>
<g opacity="0.8" filter="url(#filter1_di_23_10681)">
<path d="M16.3406 28.4196L20.7871 30.7762C21.0313 30.904 21.3063 30.9611 21.5812 30.9412C21.8562 30.9213 22.1201 30.8251 22.3433 30.6634C22.5666 30.5017 22.7403 30.281 22.8451 30.026C22.9498 29.771 22.9813 29.4919 22.9361 29.22L22.0913 24.2252C22.0481 23.9882 22.0632 23.7441 22.1356 23.5143C22.2079 23.2844 22.3351 23.0757 22.5063 22.9061L26.1376 19.3786C26.3374 19.1862 26.4792 18.9417 26.5469 18.6727C26.6146 18.4037 26.6054 18.1212 26.5205 17.8571C26.4356 17.5931 26.2783 17.3582 26.0665 17.1791C25.8547 17 25.5969 16.884 25.3224 16.8442L20.3276 16.1179C20.0901 16.0823 19.8649 15.9894 19.6713 15.8474C19.4776 15.7054 19.3214 15.5185 19.216 15.3027L16.978 10.7526C16.8566 10.502 16.6671 10.2907 16.4312 10.1428C16.1953 9.99493 15.9225 9.9165 15.644 9.9165C15.3656 9.9165 15.0928 9.99493 14.8569 10.1428C14.621 10.2907 14.4315 10.502 14.3101 10.7526L12.0721 15.3027C11.9667 15.5185 11.8105 15.7054 11.6168 15.8474C11.4232 15.9894 11.198 16.0823 10.9605 16.1179L5.93605 16.8442C5.66157 16.884 5.40377 17 5.19197 17.1791C4.98017 17.3582 4.82286 17.5931 4.73793 17.8571C4.65301 18.1212 4.64388 18.4037 4.71157 18.6727C4.77927 18.9417 4.92108 19.1862 5.12088 19.3786L8.75211 22.9061C8.92593 23.0742 9.05597 23.2823 9.13089 23.5123C9.20581 23.7422 9.22333 23.9869 9.18193 24.2252L8.32229 29.22C8.27711 29.4919 8.30865 29.771 8.41337 30.026C8.51809 30.281 8.69184 30.5017 8.91509 30.6634C9.13835 30.8251 9.40227 30.9213 9.67719 30.9412C9.95211 30.9611 10.2271 30.904 10.4714 30.7762L14.9178 28.4196C15.1359 28.3003 15.3806 28.2377 15.6292 28.2377C15.8779 28.2377 16.1225 28.3003 16.3406 28.4196Z" fill="#228B22"/>
</g>
<g opacity="0.8" filter="url(#filter2_di_23_10681)">
<path d="M34.0667 37.9166C34.5821 37.9166 35.0093 38.3388 34.9035 38.8433C34.8162 39.2596 34.6701 39.6677 34.4672 40.0596C34.1154 40.7391 33.5998 41.3564 32.9497 41.8764C32.2997 42.3964 31.5281 42.8089 30.6788 43.0903C29.8295 43.3718 28.9193 43.5166 28 43.5166C27.0807 43.5166 26.1705 43.3718 25.3212 43.0903C24.4719 42.8089 23.7003 42.3964 23.0503 41.8764C22.4002 41.3564 21.8846 40.7391 21.5328 40.0596C21.3299 39.6677 21.1838 39.2596 21.0965 38.8433C20.9907 38.3388 21.4179 37.9166 21.9333 37.9166L34.0667 37.9166Z" fill="#228B22"/>
</g>
<defs>
<filter id="filter0_di_23_10681" x="29.3333" y="9.9165" width="23.925" height="23.0288" filterUnits="userSpaceOnUse" color-interpolation-filters="sRGB">
<feFlood flood-opacity="0" result="BackgroundImageFix"/>
<feColorMatrix in="SourceAlpha" type="matrix" values="0 0 0 0 0 0 0 0 0 0 0 0 0 0 0 0 0 0 127 0" result="hardAlpha"/>
<feOffset dy="1"/>
<feGaussianBlur stdDeviation="0.5"/>
<feComposite in2="hardAlpha" operator="out"/>
<feColorMatrix type="matrix" values="0 0 0 0 1 0 0 0 0 1 0 0 0 0 1 0 0 0 0.35 0"/>
<feBlend mode="normal" in2="BackgroundImageFix" result="effect1_dropShadow_23_10681"/>
<feBlend mode="normal" in="SourceGraphic" in2="effect1_dropShadow_23_10681" result="shape"/>
<feColorMatrix in="SourceAlpha" type="matrix" values="0 0 0 0 0 0 0 0 0 0 0 0 0 0 0 0 0 0 127 0" result="hardAlpha"/>
<feOffset dy="1"/>
<feGaussianBlur stdDeviation="1"/>
<feComposite in2="hardAlpha" operator="arithmetic" k2="-1" k3="1"/>
<feColorMatrix type="matrix" values="0 0 0 0 0 0 0 0 0 0 0 0 0 0 0 0 0 0 0.25 0"/>
<feBlend mode="normal" in2="shape" result="effect2_innerShadow_23_10681"/>
</filter>
<filter id="filter1_di_23_10681" x="3.66675" y="9.9165" width="23.925" height="23.0288" filterUnits="userSpaceOnUse" color-interpolation-filters="sRGB">
<feFlood flood-opacity="0" result="BackgroundImageFix"/>
<feColorMatrix in="SourceAlpha" type="matrix" values="0 0 0 0 0 0 0 0 0 0 0 0 0 0 0 0 0 0 127 0" result="hardAlpha"/>
<feOffset dy="1"/>
<feGaussianBlur stdDeviation="0.5"/>
<feComposite in2="hardAlpha" operator="out"/>
<feColorMatrix type="matrix" values="0 0 0 0 1 0 0 0 0 1 0 0 0 0 1 0 0 0 0.35 0"/>
<feBlend mode="normal" in2="BackgroundImageFix" result="effect1_dropShadow_23_10681"/>
<feBlend mode="normal" in="SourceGraphic" in2="effect1_dropShadow_23_10681" result="shape"/>
<feColorMatrix in="SourceAlpha" type="matrix" values="0 0 0 0 0 0 0 0 0 0 0 0 0 0 0 0 0 0 127 0" result="hardAlpha"/>
<feOffset dy="1"/>
<feGaussianBlur stdDeviation="1"/>
<feComposite in2="hardAlpha" operator="arithmetic" k2="-1" k3="1"/>
<feColorMatrix type="matrix" values="0 0 0 0 0 0 0 0 0 0 0 0 0 0 0 0 0 0 0.25 0"/>
<feBlend mode="normal" in2="shape" result="effect2_innerShadow_23_10681"/>
</filter>
<filter id="filter2_di_23_10681" x="20.0803" y="37.9165" width="15.8394" height="7.6001" filterUnits="userSpaceOnUse" color-interpolation-filters="sRGB">
<feFlood flood-opacity="0" result="BackgroundImageFix"/>
<feColorMatrix in="SourceAlpha" type="matrix" values="0 0 0 0 0 0 0 0 0 0 0 0 0 0 0 0 0 0 127 0" result="hardAlpha"/>
<feOffset dy="1"/>
<feGaussianBlur stdDeviation="0.5"/>
<feComposite in2="hardAlpha" operator="out"/>
<feColorMatrix type="matrix" values="0 0 0 0 1 0 0 0 0 1 0 0 0 0 1 0 0 0 0.35 0"/>
<feBlend mode="normal" in2="BackgroundImageFix" result="effect1_dropShadow_23_10681"/>
<feBlend mode="normal" in="SourceGraphic" in2="effect1_dropShadow_23_10681" result="shape"/>
<feColorMatrix in="SourceAlpha" type="matrix" values="0 0 0 0 0 0 0 0 0 0 0 0 0 0 0 0 0 0 127 0" result="hardAlpha"/>
<feOffset dy="1"/>
<feGaussianBlur stdDeviation="1"/>
<feComposite in2="hardAlpha" operator="arithmetic" k2="-1" k3="1"/>
<feColorMatrix type="matrix" values="0 0 0 0 0 0 0 0 0 0 0 0 0 0 0 0 0 0 0.25 0"/>
<feBlend mode="normal" in2="shape" result="effect2_innerShadow_23_10681"/>
</filter>
<linearGradient id="paint0_linear_23_10681" x1="28.0001" y1="4.6665" x2="28.0001" y2="51.3332" gradientUnits="userSpaceOnUse">
<stop stop-color="#EFFBEF"/>
<stop offset="1" stop-color="#228B22"/>
</linearGradient>
<linearGradient id="paint1_linear_23_10681" x1="28.0001" y1="4.6665" x2="28.0001" y2="51.3332" gradientUnits="userSpaceOnUse">
<stop stop-color="#7FC782"/>
<stop offset="1" stop-color="#7FC782"/>
</linearGradient>
</defs>
</svg>
