<svg width="129" height="77" viewBox="0 0 129 77" fill="none" xmlns="http://www.w3.org/2000/svg">
<rect opacity="0.82" x="33.0034" y="10.3037" width="84.3273" height="34.8482" rx="5.05125" fill="url(#paint0_linear_2708_12587)"/>
<rect opacity="0.1" width="61.4894" height="2.64444" rx="1.32222" transform="matrix(1 0 0 -1 43.1177 26.5962)" fill="#B57EDC"/>
<rect opacity="0.3" width="32.0491" height="3.27729" rx="1.63865" transform="matrix(1 0 0 -1 43.1182 21.2065)" fill="#B57EDC"/>
<rect x="10.4165" y="30.9287" width="87.7094" height="46.0712" rx="5.05101" fill="url(#paint1_linear_2708_12587)"/>
<path d="M22.0196 17.2642V17.2642C22.3875 15.9824 22.0176 14.6021 21.0581 13.676V13.676V13.676C22.3399 14.0439 23.7202 13.674 24.6464 12.7145V12.7145V12.7145C24.2785 13.9964 24.6483 15.3766 25.6078 16.3028V16.3028V16.3028C24.326 15.9349 22.9457 16.3047 22.0196 17.2642V17.2642Z" fill="#D1AFE9"/>
<path d="M121.826 24.4692V24.4692C122.323 22.7378 121.823 20.8735 120.527 19.6226V19.6226V19.6226C122.259 20.1195 124.123 19.6199 125.374 18.3239V18.3239V18.3239C124.877 20.0553 125.376 21.9196 126.672 23.1705V23.1705V23.1705C124.941 22.6736 123.077 23.1731 121.826 24.4692V24.4692Z" fill="#D1AFE9"/>
<path opacity="0.4" d="M21.5513 59.4034C21.5513 60.1336 22.1432 60.7256 22.8735 60.7256H85.6669C86.3971 60.7256 86.9891 60.1336 86.9891 59.4034V59.4034C86.9891 58.6731 86.3971 58.0811 85.6669 58.0811H22.8735C22.1433 58.0811 21.5513 58.6731 21.5513 59.4034V59.4034Z" fill="#F6EFFB"/>
<path d="M21.5513 49.1937C21.5513 50.2932 22.4426 51.1846 23.5422 51.1846H55.943C57.0426 51.1846 57.9339 50.2932 57.9339 49.1937V49.1937C57.9339 48.0941 57.0426 47.2028 55.943 47.2028H23.5422C22.4426 47.2028 21.5513 48.0941 21.5513 49.1937V49.1937Z" fill="#F6EFFB"/>
<circle opacity="0.7" cx="2.99423" cy="64.0396" r="2.441" fill="#AC6CDA"/>
<circle opacity="0.2" cx="82.5938" cy="2.441" r="2.441" fill="#AC6CDA"/>
<rect opacity="0.2" x="101.355" y="64.6582" width="9.60529" height="9.60529" rx="4.80264" transform="rotate(-45 101.355 64.6582)" fill="#AC6CDA"/>
<defs>
<linearGradient id="paint0_linear_2708_12587" x1="33.0034" y1="27.7278" x2="128.001" y2="26.8941" gradientUnits="userSpaceOnUse">
<stop offset="1" stop-color="#F6EFFB"/>
</linearGradient>
<linearGradient id="paint1_linear_2708_12587" x1="122.883" y1="40.787" x2="-12.3718" y2="66.0693" gradientUnits="userSpaceOnUse">
<stop stop-color="#F6EFFB"/>
<stop offset="1" stop-color="#AC6CDA"/>
</linearGradient>
</defs>
</svg>
