<svg width="14" height="14" viewBox="0 0 14 14" fill="none" xmlns="http://www.w3.org/2000/svg">
<path fill-rule="evenodd" clip-rule="evenodd" d="M4.03476 11.0888C3.67755 11.0411 3.37393 10.8148 3.22509 10.4932L2.47495 8.8433C1.28425 7.96178 0.599609 6.64549 0.599609 5.21601C0.599609 2.67272 2.80239 0.599976 5.51122 0.599976C7.42228 0.599976 9.16665 1.64826 9.95846 3.27429C10.2621 3.87586 10.4228 4.53105 10.4228 5.21601C10.4228 7.69377 8.33316 9.72482 5.72554 9.82608L4.97541 10.7314C4.77299 10.9637 4.48127 11.1007 4.17764 11.1007C4.13001 11.1007 4.08239 11.0947 4.03476 11.0888ZM1.49263 5.21005C1.49263 6.38341 2.07606 7.46743 3.08815 8.18217C3.15364 8.22982 3.20722 8.28937 3.23699 8.36085L4.03476 10.1179C4.06453 10.1834 4.12406 10.2013 4.15383 10.2013C4.1836 10.2073 4.24313 10.2013 4.28481 10.1537L5.16592 9.09348C5.24927 8.99222 5.37429 8.93265 5.51122 8.93265C7.72591 8.93265 9.52981 7.26492 9.52981 5.21005C9.52981 4.66803 9.40479 4.14983 9.1607 3.66738C8.51772 2.33916 7.08293 1.48744 5.51122 1.48744C3.29653 1.48744 1.49263 3.15517 1.49263 5.21005Z" fill="#404040"/>
<path fill-rule="evenodd" clip-rule="evenodd" d="M9.02381 13.0247L8.27367 12.1253C6.83294 12.0658 5.47554 11.4046 4.60634 10.3325C4.46941 10.1658 4.47537 9.92754 4.6123 9.76673L5.16597 9.09964C5.24931 8.99838 5.37434 8.93881 5.51127 8.93881C7.72596 8.93881 9.52986 7.27108 9.52986 5.2162C9.52986 4.67419 9.40484 4.15599 9.16074 3.67354C9.08335 3.51868 9.10121 3.33404 9.20837 3.19705C9.31554 3.06006 9.49414 3.00049 9.66083 3.03622C11.8636 3.5425 13.3996 5.38297 13.3996 7.51528C13.3996 8.94476 12.715 10.2611 11.5243 11.1426L10.7741 12.7924C10.6193 13.126 10.3157 13.3523 9.95256 13.394C9.91088 13.4 9.86325 13.4 9.82158 13.4C9.512 13.4 9.22623 13.263 9.02381 13.0247ZM8.488 11.2319C8.61898 11.2319 8.744 11.2915 8.8333 11.3927L9.71441 12.4529C9.75609 12.5065 9.80967 12.5125 9.84539 12.5065C9.8692 12.5065 9.9347 12.4887 9.97042 12.4172L10.7682 10.6602C10.8039 10.5887 10.8515 10.5231 10.917 10.4814C11.9291 9.7667 12.5125 8.68268 12.5125 7.50931C12.5125 6.07983 11.6374 4.81119 10.3038 4.1858C10.3872 4.51934 10.4288 4.85883 10.4288 5.21024C10.4288 7.68801 8.33916 9.71906 5.73154 9.82031L5.54699 10.0347C6.29117 10.7912 7.36279 11.2319 8.488 11.2319Z" fill="#404040"/>
<path d="M4.02291 5.6569C3.77882 5.6569 3.5764 5.45439 3.5764 5.21019C3.5764 4.96599 3.77882 4.76348 4.02291 4.76348H6.99964C7.24374 4.76348 7.44615 4.96599 7.44615 5.21019C7.44615 5.45439 7.24374 5.6569 6.99964 5.6569H4.02291Z" fill="#404040"/>
</svg>
