<svg width="20" height="20" viewBox="0 0 20 20" fill="none" xmlns="http://www.w3.org/2000/svg">
<path d="M11.5 5V8.5H15C15.2733 8.5 15.5 8.72667 15.5 9C15.5 9.27333 15.2733 9.5 15 9.5H11C10.7267 9.5 10.5 9.27333 10.5 9V5C10.5 4.72667 10.7267 4.5 11 4.5C11.2733 4.5 11.5 4.72667 11.5 5Z" fill="#747E8B" stroke="#747E8B" stroke-width="0.2"/>
<path d="M9 10.5C9.27333 10.5 9.5 10.7267 9.5 11V15C9.5 15.2733 9.27333 15.5 9 15.5C8.72667 15.5 8.5 15.2733 8.5 15V11.5H5C4.72667 11.5 4.5 11.2733 4.5 11C4.5 10.7267 4.72667 10.5 5 10.5H9Z" fill="#747E8B" stroke="#747E8B" stroke-width="0.2"/>
<path d="M10.6463 9.35328C10.453 9.15995 10.453 8.83995 10.6463 8.64662L15.6463 3.64662C15.8396 3.45328 16.1596 3.45328 16.353 3.64662C16.5463 3.83995 16.5463 4.15995 16.353 4.35328L11.353 9.35328C11.253 9.45328 11.1263 9.49995 10.9996 9.49995C10.873 9.49995 10.7463 9.45328 10.6463 9.35328Z" fill="#747E8B" stroke="#747E8B" stroke-width="0.2"/>
<path d="M3.6463 16.3533C3.45296 16.16 3.45296 15.84 3.6463 15.6466L8.6463 10.6466C8.83963 10.4533 9.15963 10.4533 9.35296 10.6466C9.5463 10.84 9.5463 11.16 9.35296 11.3533L4.35296 16.3533C4.25296 16.4533 4.1263 16.5 3.99963 16.5C3.87296 16.5 3.7463 16.4533 3.6463 16.3533Z" fill="#747E8B" stroke="#747E8B" stroke-width="0.2"/>
</svg>
