<svg width="16" height="16" viewBox="0 0 16 16" fill="none" xmlns="http://www.w3.org/2000/svg">
<path fill-rule="evenodd" clip-rule="evenodd" d="M11.3544 8.6856C13.1227 8.6858 14.556 10.1172 14.556 11.8824C14.556 12.5714 14.336 13.2086 13.9645 13.7305L14.9257 14.6868L15.3639 15.1243L14.4891 16L13.0654 14.5829C12.5704 14.8961 11.9839 15.0783 11.3544 15.0783C9.58612 15.0783 8.15223 13.6475 8.15203 11.8824C8.15208 10.1171 9.58603 8.6856 11.3544 8.6856ZM11.3544 9.92306C10.2707 9.92306 9.39172 10.8005 9.39167 11.8824C9.39187 12.9641 10.2708 13.8409 11.3544 13.8409C12.4379 13.8407 13.3162 12.964 13.3164 11.8824C13.3163 10.8007 12.438 9.92326 11.3544 9.92306Z" fill="#2A2A2A"/>
<path fill-rule="evenodd" clip-rule="evenodd" d="M5.53231 1.20524H10.4683V0H11.7079V1.20524H15.4971V8.85237H14.2574V6.88822H1.73671V14.7432H7.99707V15.9807H0.49707V1.20524H4.29267V0H5.53231V1.20524ZM1.73671 5.65076H14.2574V2.4427H11.7079V3.74864H10.4683V2.4427H5.53231V3.74864H4.29267V2.4427H1.73671V5.65076Z" fill="#2A2A2A"/>
<path d="M5.22724 12.8338H3.98034V11.5964H5.22724V12.8338Z" fill="#2A2A2A"/>
<path d="M5.22724 9.86828H3.98034V8.63082H5.22724V9.86828Z" fill="#2A2A2A"/>
</svg>
