<svg width="16" height="16" viewBox="0 0 16 16" fill="none" xmlns="http://www.w3.org/2000/svg">
<path d="M5.26605 12.8487H4.00865V11.6098H5.26605V12.8487Z" fill="#2A2A2A"/>
<path d="M8.69397 12.8487H7.43657V11.6098H8.69397V12.8487Z" fill="#2A2A2A"/>
<path d="M5.26605 9.87972H4.00865V8.64082H5.26605V9.87972Z" fill="#2A2A2A"/>
<path d="M8.69397 9.87972H7.43657V8.64082H8.69397V9.87972Z" fill="#2A2A2A"/>
<path d="M12.1146 9.87972H10.8572V8.64082H12.1146V9.87972Z" fill="#2A2A2A"/>
<path fill-rule="evenodd" clip-rule="evenodd" d="M5.57368 1.20663H10.5512V0H11.8012V1.20663H15.4961V16H0.496094V1.20663H4.32361V0H5.57368V1.20663ZM1.74616 6.8954V14.7611H14.246V6.8954H1.74616ZM1.74616 5.6565H14.246V2.44553H11.8012V3.75299H10.5512V2.44553H5.57368V3.75299H4.32361V2.44553H1.74616V5.6565Z" fill="#2A2A2A"/>
</svg>
