<svg width="16" height="18" viewBox="0 0 16 18" fill="none" xmlns="http://www.w3.org/2000/svg">
<path d="M9.56979 1.39029L7.78682 3.07672C7.85679 3.07468 7.92699 3.07274 7.99743 3.07274C11.9508 3.07274 15.1452 6.30863 15.1452 10.2868C15.1451 14.2648 11.9507 17.5 7.99743 17.5C4.04413 17.5 0.849776 14.2648 0.849609 10.2868C0.849609 9.17163 1.10094 8.1136 1.55003 7.16917L1.81329 6.61553L2.91976 7.14205L2.65651 7.69488C2.28403 8.47816 2.07495 9.35713 2.07495 10.2868C2.07512 13.5996 4.7324 16.2747 7.99743 16.2747C11.2625 16.2747 13.9197 13.5996 13.9199 10.2868C13.9199 6.97378 11.2626 4.29808 7.99743 4.29808C7.32474 4.29808 6.67917 4.41151 6.07805 4.61957L5.4566 3.59526L8.72817 0.5L9.56979 1.39029Z" fill="#2A2A2A"/>
<path d="M8.50081 11.1084L11.0129 12.5189L10.4138 13.5878L7.27547 11.8264V6.83092H8.50081V11.1084Z" fill="#2A2A2A"/>
</svg>
