<svg width="16" height="16" viewBox="0 0 16 16" fill="none" xmlns="http://www.w3.org/2000/svg">
<path d="M8.32969 8.21406L11.568 10.1461L10.9539 11.1766L7.42266 9.07031C7.2413 8.96213 7.12983 8.76584 7.12969 8.55469V4.07734H8.32969V8.21406Z" fill="#2A2A2A"/>
<path fill-rule="evenodd" clip-rule="evenodd" d="M8 0C12.4186 0 16 3.58143 16 8C16 12.4186 12.4186 16 8 16C3.58143 16 0 12.4186 0 8C0 3.58143 3.58143 0 8 0ZM8 1.2C4.24417 1.2 1.2 4.24417 1.2 8C1.2 11.7558 4.24417 14.8 8 14.8C11.7558 14.8 14.8 11.7558 14.8 8C14.8 4.24417 11.7558 1.2 8 1.2Z" fill="#2A2A2A"/>
</svg>
