<svg width="51" height="17" viewBox="0 0 51 17" fill="none" xmlns="http://www.w3.org/2000/svg">
<g id="Group 104">
<g id="Market depth">
<path id="Vector" d="M46.5827 11.0671C46.5571 11.2463 46.5443 11.3615 46.5443 11.4127C46.5443 11.6815 46.6275 11.8799 46.794 12.008C46.9604 12.1232 47.2356 12.1808 47.6196 12.1808H48.9638L48.6374 14.005H46.9092C46.0643 14.005 45.4178 13.8386 44.9698 13.5057C44.5217 13.1601 44.2977 12.616 44.2977 11.8735C44.2977 11.5919 44.3233 11.3231 44.3745 11.0671L45.4114 5.21042H44.1633L44.4705 3.42463H45.7378L46.1987 0.793945H48.4069L47.9461 3.42463H50.5L50.1927 5.21042H47.6196L46.5827 11.0671Z" fill="url(#paint0_linear_1155_18078)"/>
<path id="Vector_2" d="M41.9464 5.28737C42.3816 4.6473 42.8937 4.14805 43.4826 3.78961C44.0842 3.43117 44.7499 3.25195 45.4796 3.25195L45.0763 5.5178H44.5195C43.6746 5.5178 42.9961 5.72902 42.4841 6.15147C41.972 6.57391 41.6136 7.30359 41.4087 8.3405L40.4102 14.0051H38.2212L40.0838 3.42477H42.2728L41.9464 5.28737Z" fill="url(#paint1_linear_1155_18078)"/>
<path id="Vector_3" d="M27.4986 8.66694C27.6907 7.60442 28.0747 6.66352 28.6508 5.84423C29.2396 5.02494 29.9565 4.39128 30.8014 3.94323C31.6463 3.48238 32.5296 3.25195 33.4513 3.25195C34.2834 3.25195 34.981 3.41837 35.5443 3.75121C36.1076 4.07124 36.53 4.47448 36.8116 4.96094L37.0805 3.42477H39.2887L37.4261 14.0051H35.2179L35.5059 12.4305C35.0451 12.9298 34.4626 13.3458 33.7585 13.6787C33.0672 14.0115 32.312 14.1779 31.4927 14.1779C30.699 14.1779 29.9885 13.9987 29.3612 13.6403C28.7468 13.2818 28.2603 12.7762 27.9019 12.1233C27.5562 11.4576 27.3834 10.696 27.3834 9.83826C27.3834 9.45422 27.4218 9.06378 27.4986 8.66694ZM36.1588 8.70534C36.21 8.46212 36.2356 8.19969 36.2356 7.91806C36.2356 7.06036 35.9796 6.38829 35.4675 5.90184C34.9682 5.40259 34.341 5.15296 33.5857 5.15296C33.0224 5.15296 32.472 5.29377 31.9343 5.5754C31.3967 5.84423 30.9294 6.24748 30.5326 6.78513C30.1357 7.30999 29.8733 7.93726 29.7453 8.66694C29.6941 8.91016 29.6685 9.17259 29.6685 9.45422C29.6685 10.3247 29.9181 11.016 30.4174 11.528C30.9294 12.0273 31.5631 12.2769 32.3184 12.2769C32.8816 12.2769 33.4321 12.1361 33.9697 11.8545C34.5074 11.5729 34.9746 11.1632 35.3715 10.6255C35.7683 10.0751 36.0308 9.43502 36.1588 8.70534Z" fill="url(#paint2_linear_1155_18078)"/>
<path id="Vector_4" d="M24.1243 3.25195C25.238 3.25195 26.1277 3.55279 26.7934 4.15445C27.4591 4.75612 27.7919 5.60741 27.7919 6.70833C27.7919 7.00276 27.7599 7.3548 27.6959 7.76444L26.5822 14.0051H24.4123L25.4685 8.09088C25.5197 7.73244 25.5453 7.47641 25.5453 7.32279C25.5453 6.61872 25.3469 6.08106 24.95 5.70982C24.566 5.33858 24.0283 5.15296 23.337 5.15296C22.5049 5.15296 21.8009 5.40899 21.2248 5.92104C20.6615 6.4203 20.3031 7.14357 20.1495 8.09088L19.0934 14.0051H16.9235L17.9797 8.09088C18.0309 7.73244 18.0565 7.47641 18.0565 7.32279C18.0565 6.61872 17.858 6.08106 17.4612 5.70982C17.0772 5.33858 16.5395 5.15296 15.8482 5.15296C15.0161 5.15296 14.3121 5.40899 13.736 5.92104C13.1727 6.4203 12.8143 7.14357 12.6607 8.09088V8.03327L11.6046 14.0051H9.41553L11.2781 3.42477H13.4672L13.2559 4.6537C13.6784 4.21846 14.184 3.87922 14.7729 3.63599C15.3746 3.37997 15.9954 3.25195 16.6355 3.25195C17.4804 3.25195 18.2037 3.43117 18.8053 3.78961C19.4198 4.14805 19.8487 4.66651 20.0919 5.34498C20.5143 4.70491 21.0968 4.19925 21.8393 3.82801C22.5818 3.44397 23.3434 3.25195 24.1243 3.25195Z" fill="url(#paint3_linear_1155_18078)"/>
<path id="Vector_5" d="M4.83967 14.14C4.02038 14.14 3.2843 14.012 2.63143 13.7559C1.97856 13.4871 1.4601 13.1031 1.07606 12.6038C0.692021 12.0918 0.5 11.4901 0.5 10.7988C0.5 10.7092 0.512801 10.5492 0.538404 10.3188H2.70824C2.65703 10.9076 2.82985 11.4005 3.2267 11.7973C3.62354 12.1814 4.1932 12.3734 4.93568 12.3734C5.72937 12.3734 6.35023 12.2134 6.79828 11.8933C7.24633 11.5605 7.47035 11.0869 7.47035 10.4724C7.47035 10.1011 7.35514 9.78751 7.12472 9.53148C6.90709 9.26265 6.62546 9.03863 6.27983 8.85941C5.94699 8.68019 5.47974 8.46897 4.87807 8.22574C4.08439 7.89291 3.45072 7.59207 2.97707 7.32324C2.50342 7.05442 2.09377 6.68318 1.74813 6.20952C1.4153 5.73587 1.24888 5.14061 1.24888 4.42373C1.24888 3.63005 1.4537 2.93877 1.86335 2.34991C2.27299 1.74824 2.83625 1.28739 3.55313 0.967357C4.28281 0.647322 5.1021 0.487305 6.011 0.487305C6.91989 0.487305 7.70078 0.640922 8.35365 0.948155C9.01932 1.24259 9.51858 1.66503 9.85141 2.21549C10.197 2.75315 10.3507 3.38682 10.3123 4.1165H8.00801C8.05922 3.59164 7.8992 3.15639 7.52796 2.81076C7.15672 2.45232 6.61906 2.2731 5.91499 2.2731C5.17251 2.2731 4.57724 2.44592 4.12919 2.79155C3.69395 3.12439 3.47632 3.57884 3.47632 4.1549C3.47632 4.51334 3.58513 4.82697 3.80276 5.0958C4.03318 5.35183 4.32121 5.57586 4.66685 5.76788C5.01249 5.9471 5.47974 6.16472 6.0686 6.42075C6.86229 6.77919 7.49596 7.09922 7.96961 7.38085C8.45606 7.66248 8.8721 8.04652 9.21774 8.53298C9.56338 9.00663 9.7362 9.59549 9.7362 10.2996C9.7362 11.042 9.53138 11.7077 9.12173 12.2966C8.71209 12.8726 8.13603 13.3271 7.39355 13.6599C6.65107 13.98 5.79977 14.14 4.83967 14.14Z" fill="url(#paint4_linear_1155_18078)"/>
</g>
<path id="Star 4" d="M28.7384 4.77782L29.6634 8.11318L32.7975 9.58207L29.4622 10.5071L27.9933 13.6412L27.0683 10.3059L23.9342 8.83697L27.2695 7.91194L28.7384 4.77782Z" fill="#FFCE22"/>
<path id="Star 4 (Stroke)" fill-rule="evenodd" clip-rule="evenodd" d="M28.9313 2.48072L30.3359 7.54511L35.0948 9.77547L30.0303 11.18L27.8 15.9389L26.3954 10.8745L21.6366 8.64412L26.701 7.23955L28.9313 2.48072ZM27.2693 7.91221L23.934 8.83724L27.0681 10.3061L27.9931 13.6415L29.462 10.5074L32.7974 9.58234L29.6633 8.11345L28.7382 4.77809L27.2693 7.91221Z" fill="white"/>
</g>
<defs>
<linearGradient id="paint0_linear_1155_18078" x1="0.578349" y1="10.0045" x2="47.4901" y2="-1.08111" gradientUnits="userSpaceOnUse">
<stop stop-color="#436AF5"/>
<stop offset="0.38391" stop-color="#8D78FF"/>
<stop offset="1" stop-color="#FB2A23"/>
</linearGradient>
<linearGradient id="paint1_linear_1155_18078" x1="0.578436" y1="10.0047" x2="47.4902" y2="-1.08096" gradientUnits="userSpaceOnUse">
<stop stop-color="#436AF5"/>
<stop offset="0.38391" stop-color="#8D78FF"/>
<stop offset="1" stop-color="#FB2A23"/>
</linearGradient>
<linearGradient id="paint2_linear_1155_18078" x1="0.578363" y1="10.0047" x2="47.4901" y2="-1.08096" gradientUnits="userSpaceOnUse">
<stop stop-color="#436AF5"/>
<stop offset="0.38391" stop-color="#8D78FF"/>
<stop offset="1" stop-color="#FB2A23"/>
</linearGradient>
<linearGradient id="paint3_linear_1155_18078" x1="0.578402" y1="10.0047" x2="47.4902" y2="-1.08096" gradientUnits="userSpaceOnUse">
<stop stop-color="#436AF5"/>
<stop offset="0.38391" stop-color="#8D78FF"/>
<stop offset="1" stop-color="#FB2A23"/>
</linearGradient>
<linearGradient id="paint4_linear_1155_18078" x1="0.578391" y1="10.0051" x2="47.4902" y2="-1.08051" gradientUnits="userSpaceOnUse">
<stop stop-color="#436AF5"/>
<stop offset="0.38391" stop-color="#8D78FF"/>
<stop offset="1" stop-color="#FB2A23"/>
</linearGradient>
</defs>
</svg>
