<svg width="21" height="21" viewBox="0 0 21 21" fill="none" xmlns="http://www.w3.org/2000/svg">
<path d="M15.5894 8.5V5H12.0894C11.816 5 11.5894 4.77333 11.5894 4.5C11.5894 4.22667 11.816 4 12.0894 4H16.0894C16.3627 4 16.5894 4.22667 16.5894 4.5V8.5C16.5894 8.77333 16.3627 9 16.0894 9C15.816 9 15.5894 8.77333 15.5894 8.5Z" fill="#747E8B" stroke="#747E8B" stroke-width="0.2"/>
<path d="M4.08936 17C3.81602 17 3.58936 16.7733 3.58936 16.5V12.5C3.58936 12.2267 3.81602 12 4.08936 12C4.36269 12 4.58936 12.2267 4.58936 12.5V16H8.08936C8.36269 16 8.58936 16.2267 8.58936 16.5C8.58936 16.7733 8.36269 17 8.08936 17H4.08936Z" fill="#747E8B" stroke="#747E8B" stroke-width="0.2"/>
<path d="M10.7356 9.85313C10.5422 9.6598 10.5422 9.3398 10.7356 9.14647L15.7356 4.14646C15.9289 3.95313 16.2489 3.95313 16.4422 4.14646C16.6356 4.3398 16.6356 4.6598 16.4422 4.85313L11.4422 9.85313C11.3422 9.95313 11.2156 9.9998 11.0889 9.9998C10.9622 9.9998 10.8356 9.95313 10.7356 9.85313Z" fill="#747E8B" stroke="#747E8B" stroke-width="0.2"/>
<path d="M3.73558 16.8531C3.54224 16.6598 3.54224 16.3398 3.73558 16.1465L8.73558 11.1465C8.92891 10.9531 9.24891 10.9531 9.44224 11.1465C9.63558 11.3398 9.63558 11.6598 9.44224 11.8531L4.44224 16.8531C4.34224 16.9531 4.21558 16.9998 4.08891 16.9998C3.96224 16.9998 3.83558 16.9531 3.73558 16.8531Z" fill="#747E8B" stroke="#747E8B" stroke-width="0.2"/>
</svg>
