<svg width="160" height="160" viewBox="0 0 160 160" fill="none" xmlns="http://www.w3.org/2000/svg">
<circle cx="3.60754" cy="3.60754" r="3.50754" transform="matrix(0.983355 0.181695 0.334325 0.942458 62.3533 59.2192)" fill="#383838" stroke="#7A7A7A" stroke-width="0.2"/>
<path d="M63.2675 61.7332L63.7221 60.631" stroke="#7A7A7A" stroke-width="0.2"/>
<path d="M70.0667 66.8459L70.695 65.531" stroke="#7A7A7A" stroke-width="0.2"/>
<circle cx="3.60754" cy="3.60754" r="3.50754" transform="matrix(0.983355 0.181695 0.334325 0.942458 61.7452 60.4961)" fill="#222222" stroke="#7A7A7A" stroke-width="0.2"/>
<circle cx="1.15447" cy="1.15447" r="1.05447" transform="matrix(0.983355 0.181695 0.334325 0.942458 64.9776 63.2539)" fill="#222222" stroke="#7A7A7A" stroke-width="0.2"/>
<circle cx="3.60754" cy="3.60754" r="3.50754" transform="matrix(0.983355 0.181695 0.334325 0.942458 80.017 62.1338)" fill="#383838" stroke="#7A7A7A" stroke-width="0.2"/>
<path d="M80.9312 64.6477L81.3858 63.5456" stroke="#7A7A7A" stroke-width="0.2"/>
<path d="M87.7304 69.7604L88.3587 68.4456" stroke="#7A7A7A" stroke-width="0.2"/>
<circle cx="3.60754" cy="3.60754" r="3.50754" transform="matrix(0.983355 0.181695 0.334325 0.942458 79.4089 63.4106)" fill="#222222" stroke="#7A7A7A" stroke-width="0.2"/>
<circle cx="1.15447" cy="1.15447" r="1.05447" transform="matrix(0.983355 0.181695 0.334325 0.942458 82.6413 66.1685)" fill="#222222" stroke="#7A7A7A" stroke-width="0.2"/>
<path d="M44.9536 39.2034L45.2579 38.8468C45.383 38.7002 45.6035 38.6833 45.7501 38.8084L59.955 50.9271C60.1015 51.0522 60.1189 51.2719 59.9939 51.4186L59.6897 51.7752C59.5646 51.9218 59.3443 51.9399 59.1976 51.8149L44.9927 39.6962C44.846 39.5711 44.8285 39.3501 44.9536 39.2034Z" fill="#383838" stroke="#7A7A7A" stroke-width="0.2"/>
<path d="M55.4737 27.5007L55.778 27.1441C55.9031 26.9975 56.1235 26.9807 56.2702 27.1058L68.9885 37.9561C69.1351 38.0813 69.1532 38.3016 69.0281 38.4483L68.7239 38.8049C68.5988 38.9516 68.3777 38.9691 68.231 38.844L55.5128 27.9936C55.3661 27.8685 55.3486 27.6474 55.4737 27.5007Z" fill="#383838" stroke="#7A7A7A" stroke-width="0.2"/>
<path d="M65.2109 25.7104L102.673 32.6324L85.613 52.6299L48.1504 45.7079L65.2109 25.7104Z" fill="#7A7A7A" stroke="#7A7A7A" stroke-width="0.2"/>
<path d="M67.9664 33.335L97.4296 38.7789L85.6133 52.6294L56.1501 47.1855L67.9664 33.335Z" fill="#222222" stroke="#7A7A7A" stroke-width="0.2"/>
<path d="M65.2568 25.8003L68.5965 35.215" stroke="#7A7A7A" stroke-width="0.2"/>
<path d="M68.5739 35.0212L96.2701 40.1387L85.6137 52.6296L57.9175 47.5121L68.5739 35.0212Z" fill="#383838" stroke="#7A7A7A" stroke-width="0.2"/>
<rect x="0.0595975" y="0.0110119" width="19.2818" height="1.96337" transform="matrix(0.64903 -0.760763 0.334325 0.942458 45.3795 40.1417)" fill="#383838" stroke="#7A7A7A" stroke-width="0.121213"/>
<path d="M43.4335 39.7303L44.1304 41.6949L46.0996 41.9855L45.4027 40.0209" stroke="#7A7A7A" stroke-width="0.121213"/>
<rect x="0.0989328" y="-0.0350951" width="19.1898" height="1.99333" transform="matrix(0.64903 -0.760763 0.983355 0.181695 43.4414 39.7712)" fill="#222222" stroke="#7A7A7A" stroke-width="0.121213"/>
<path d="M85.5624 52.796L90.8639 67.741L59.8836 62.0752L48.168 45.8867L85.5624 52.796Z" fill="#383838" stroke="#7A7A7A" stroke-width="0.2"/>
<path d="M103.666 52.4146C103.673 52.5777 103.619 52.7531 103.528 52.8596L90.9844 67.563L85.7419 52.7846L102.758 32.7771L103.666 52.4146Z" fill="#383838" stroke="#7A7A7A" stroke-width="0.2" stroke-miterlimit="16"/>
<path d="M98.9762 47.554L99.3865 49.5254L94.6006 55.1353L94.1896 53.1647L98.9762 47.554Z" fill="#383838" stroke="#7A7A7A" stroke-width="0.2"/>
<rect x="0.131768" y="0.112415" width="0.994525" height="7.34862" transform="matrix(0.983355 0.181695 0.334325 0.942458 61.5568 53.7232)" fill="#7A7A7A" stroke="#7A7A7A" stroke-width="0.2"/>
<rect x="0.131768" y="0.112415" width="0.994525" height="7.34862" transform="matrix(0.983355 0.181695 0.334325 0.942458 64.9193 54.1251)" fill="#7A7A7A" stroke="#7A7A7A" stroke-width="0.2"/>
<rect x="0.131768" y="0.112415" width="0.994525" height="7.34862" transform="matrix(0.983355 0.181695 0.334325 0.942458 68.2819 54.527)" fill="#7A7A7A" stroke="#7A7A7A" stroke-width="0.2"/>
<rect x="0.131768" y="0.112415" width="0.994525" height="7.34862" transform="matrix(0.983355 0.181695 0.334325 0.942458 71.6439 54.9293)" fill="#7A7A7A" stroke="#7A7A7A" stroke-width="0.2"/>
<rect x="0.131768" y="0.112415" width="0.994525" height="7.34862" transform="matrix(0.983355 0.181695 0.334325 0.942458 75.1721 55.7994)" fill="#7A7A7A" stroke="#7A7A7A" stroke-width="0.2"/>
<rect x="0.173205" width="61.7999" height="61.7999" transform="matrix(0.866025 -0.5 0.866025 0.5 26.3452 126.663)" fill="#222222" stroke="#6D6D6D" stroke-width="0.2"/>
<path d="M80.0085 139.456L79.5246 139.94L80.0085 140.424L80.4924 139.94L80.0085 139.456ZM80.0085 156.176L80.4924 155.692L80.0085 155.208L79.5246 155.692L80.0085 156.176ZM80.0085 139.94L79.9247 139.94L79.9247 140.104L80.0085 140.104L80.0923 140.104L80.0923 139.94L80.0085 139.94ZM80.0085 140.76L79.9247 140.76L79.9247 141.089L80.0085 141.089L80.0923 141.089L80.0923 140.76L80.0085 140.76ZM80.0085 141.745L79.9247 141.745L79.9247 142.073L80.0085 142.073L80.0923 142.073L80.0923 141.745L80.0085 141.745ZM80.0085 142.729L79.9247 142.729L79.9247 143.058L80.0085 143.058L80.0923 143.058L80.0923 142.729L80.0085 142.729ZM80.0085 143.714L79.9247 143.714L79.9247 144.042L80.0085 144.042L80.0923 144.042L80.0923 143.714L80.0085 143.714ZM80.0085 144.698L79.9247 144.698L79.9247 145.027L80.0085 145.027L80.0923 145.027L80.0923 144.698L80.0085 144.698ZM80.0085 145.683L79.9247 145.683L79.9247 146.011L80.0085 146.011L80.0923 146.011L80.0923 145.683L80.0085 145.683ZM80.0085 146.667L79.9247 146.667L79.9247 146.996L80.0085 146.996L80.0923 146.996L80.0923 146.667L80.0085 146.667ZM80.0085 147.652L79.9247 147.652L79.9247 147.98L80.0085 147.98L80.0923 147.98L80.0923 147.652L80.0085 147.652ZM80.0085 148.636L79.9247 148.636L79.9247 148.965L80.0085 148.965L80.0923 148.965L80.0923 148.636L80.0085 148.636ZM80.0085 149.621L79.9247 149.621L79.9247 149.949L80.0085 149.949L80.0923 149.949L80.0923 149.621L80.0085 149.621ZM80.0085 150.606L79.9247 150.606L79.9247 150.934L80.0085 150.934L80.0923 150.934L80.0923 150.606L80.0085 150.606ZM80.0085 151.59L79.9247 151.59L79.9247 151.918L80.0085 151.918L80.0923 151.918L80.0923 151.59L80.0085 151.59ZM80.0085 152.575L79.9247 152.575L79.9247 152.903L80.0085 152.903L80.0923 152.903L80.0923 152.575L80.0085 152.575ZM80.0085 153.559L79.9247 153.559L79.9247 153.887L80.0085 153.887L80.0923 153.887L80.0923 153.559L80.0085 153.559ZM80.0085 154.544L79.9247 154.544L79.9247 154.872L80.0085 154.872L80.0923 154.872L80.0923 154.544L80.0085 154.544ZM80.0085 155.528L79.9247 155.528L79.9247 155.692L80.0085 155.692L80.0923 155.692L80.0923 155.528L80.0085 155.528Z" fill="#6D6D6D"/>
<path d="M26.7665 108.862L26.2826 109.346L26.7665 109.83L27.2504 109.346L26.7665 108.862ZM26.7665 125.557L27.2504 125.073L26.7665 124.589L26.2826 125.073L26.7665 125.557ZM26.7665 109.346L26.6827 109.346L26.6827 109.51L26.7665 109.51L26.8504 109.51L26.8504 109.346L26.7665 109.346ZM26.7665 110.165L26.6827 110.165L26.6827 110.492L26.7665 110.492L26.8504 110.492L26.8504 110.165L26.7665 110.165ZM26.7665 111.148L26.6827 111.148L26.6827 111.475L26.7665 111.475L26.8504 111.475L26.8504 111.148L26.7665 111.148ZM26.7665 112.131L26.6827 112.131L26.6827 112.458L26.7665 112.458L26.8504 112.458L26.8504 112.131L26.7665 112.131ZM26.7665 113.114L26.6827 113.114L26.6827 113.441L26.7665 113.441L26.8504 113.441L26.8504 113.114L26.7665 113.114ZM26.7665 114.097L26.6827 114.097L26.6827 114.424L26.7665 114.424L26.8504 114.424L26.8504 114.097L26.7665 114.097ZM26.7665 115.08L26.6827 115.08L26.6827 115.407L26.7665 115.407L26.8504 115.407L26.8504 115.08L26.7665 115.08ZM26.7665 116.063L26.6827 116.063L26.6827 116.39L26.7665 116.39L26.8504 116.39L26.8504 116.063L26.7665 116.063ZM26.7665 117.045L26.6827 117.045L26.6827 117.373L26.7665 117.373L26.8504 117.373L26.8504 117.045L26.7665 117.045ZM26.7665 118.028L26.6827 118.028L26.6827 118.356L26.7665 118.356L26.8504 118.356L26.8504 118.028L26.7665 118.028ZM26.7665 119.011L26.6827 119.011L26.6827 119.339L26.7665 119.339L26.8504 119.339L26.8504 119.011L26.7665 119.011ZM26.7665 119.994L26.6827 119.994L26.6827 120.322L26.7665 120.322L26.8504 120.322L26.8504 119.994L26.7665 119.994ZM26.7665 120.977L26.6827 120.977L26.6827 121.305L26.7665 121.305L26.8504 121.305L26.8504 120.977L26.7665 120.977ZM26.7665 121.96L26.6827 121.96L26.6827 122.288L26.7665 122.288L26.8504 122.288L26.8504 121.96L26.7665 121.96ZM26.7665 122.943L26.6827 122.943L26.6827 123.271L26.7665 123.271L26.8504 123.271L26.8504 122.943L26.7665 122.943ZM26.7665 123.926L26.6827 123.926L26.6827 124.254L26.7665 124.254L26.8504 124.254L26.8504 123.926L26.7665 123.926ZM26.7665 124.909L26.6827 124.909L26.6827 125.073L26.7665 125.073L26.8504 125.073L26.8504 124.909L26.7665 124.909Z" fill="#6D6D6D"/>
<path d="M133.267 108.862L132.783 109.346L133.267 109.83L133.751 109.346L133.267 108.862ZM133.267 125.557L133.751 125.073L133.267 124.589L132.783 125.073L133.267 125.557ZM133.267 109.346L133.183 109.346L133.183 109.51L133.267 109.51L133.351 109.51L133.351 109.346L133.267 109.346ZM133.267 110.165L133.183 110.165L133.183 110.492L133.267 110.492L133.351 110.492L133.351 110.165L133.267 110.165ZM133.267 111.148L133.183 111.148L133.183 111.475L133.267 111.475L133.351 111.475L133.351 111.148L133.267 111.148ZM133.267 112.131L133.183 112.131L133.183 112.458L133.267 112.458L133.351 112.458L133.351 112.131L133.267 112.131ZM133.267 113.114L133.183 113.114L133.183 113.441L133.267 113.441L133.351 113.441L133.351 113.114L133.267 113.114ZM133.267 114.097L133.183 114.097L133.183 114.424L133.267 114.424L133.351 114.424L133.351 114.097L133.267 114.097ZM133.267 115.08L133.183 115.08L133.183 115.407L133.267 115.407L133.351 115.407L133.351 115.08L133.267 115.08ZM133.267 116.063L133.183 116.063L133.183 116.39L133.267 116.39L133.351 116.39L133.351 116.063L133.267 116.063ZM133.267 117.045L133.183 117.045L133.183 117.373L133.267 117.373L133.351 117.373L133.351 117.045L133.267 117.045ZM133.267 118.028L133.183 118.028L133.183 118.356L133.267 118.356L133.351 118.356L133.351 118.028L133.267 118.028ZM133.267 119.011L133.183 119.011L133.183 119.339L133.267 119.339L133.351 119.339L133.351 119.011L133.267 119.011ZM133.267 119.994L133.183 119.994L133.183 120.322L133.267 120.322L133.351 120.322L133.351 119.994L133.267 119.994ZM133.267 120.977L133.183 120.977L133.183 121.305L133.267 121.305L133.351 121.305L133.351 120.977L133.267 120.977ZM133.267 121.96L133.183 121.96L133.183 122.288L133.267 122.288L133.351 122.288L133.351 121.96L133.267 121.96ZM133.267 122.943L133.183 122.943L133.183 123.271L133.267 123.271L133.351 123.271L133.351 122.943L133.267 122.943ZM133.267 123.926L133.183 123.926L133.183 124.254L133.267 124.254L133.351 124.254L133.351 123.926L133.267 123.926ZM133.267 124.909L133.183 124.909L133.183 125.073L133.267 125.073L133.351 125.073L133.351 124.909L133.267 124.909Z" fill="#6D6D6D"/>
<path d="M133.508 107.136L79.6965 138.104L26.5149 107.116L79.9524 76.2783L133.508 107.136Z" fill="#222222" stroke="#6D6D6D" stroke-width="0.2"/>
<path d="M114.333 108.021L79.8101 127.888L45.6899 108.008L79.9741 88.2227L114.333 108.021Z" fill="#383838" stroke="#7A7A7A" stroke-width="0.167379"/>
<path opacity="0.1" d="M114.528 108.038L113.523 108.615L80.0005 89.3003L46.5474 108.605L45.5504 108.024L80.0005 88.1431L114.528 108.038Z" fill="white"/>
<ellipse cx="80.0123" cy="107.184" rx="14.4198" ry="7.93822" fill="#7A7A7A"/>
<g opacity="0.5">
<ellipse cx="98.1016" cy="121.592" rx="1.50918" ry="0.830815" fill="#7A7A7A"/>
<ellipse opacity="0.4" cx="102.102" cy="119.592" rx="1.50918" ry="0.830815" fill="#7A7A7A"/>
<ellipse opacity="0.2" cx="106.102" cy="117.592" rx="1.50918" ry="0.830815" fill="#7A7A7A"/>
<ellipse opacity="0.1" cx="110.102" cy="115.592" rx="1.50918" ry="0.830815" fill="#7A7A7A"/>
</g>
<ellipse cx="80.0125" cy="106.248" rx="13.7035" ry="7.243" fill="#383838"/>
<ellipse opacity="0.5" cx="80.0124" cy="106.248" rx="10.216" ry="5.39967" fill="#222222"/>
<ellipse cx="80.0124" cy="106.248" rx="4.89862" ry="2.58916" fill="#222222"/>
<path opacity="0.4" d="M102.921 76.4416C105.851 78.8513 107.56 81.7491 107.56 84.8667C107.56 93.2421 95.2264 100.032 80.0124 100.032C64.7985 100.032 52.4651 93.2421 52.4651 84.8667C52.4651 81.2975 54.7049 78.0163 58.4529 75.4258" stroke="url(#paint0_linear_3437_29333)" stroke-width="0.446344"/>
<path opacity="0.4" d="M97.9916 91.1449C100.291 93.0361 101.632 95.3104 101.632 97.7571C101.632 104.33 91.9527 109.659 80.0124 109.659C68.0721 109.659 58.3925 104.33 58.3925 97.7571C58.3925 94.9559 60.1504 92.3807 63.0919 90.3477" stroke="url(#paint1_linear_3437_29333)" stroke-width="0.446344"/>
<path opacity="0.4" d="M106.151 62.1418C109.6 64.9779 111.611 68.3883 111.611 72.0574C111.611 81.9145 97.0956 89.9053 79.19 89.9053C61.2845 89.9053 46.7692 81.9145 46.7692 72.0574C46.7692 67.8568 49.4052 63.9951 53.8164 60.9463" stroke="url(#paint2_linear_3437_29333)" stroke-width="0.446344"/>
<path d="M40.4592 62.5591C39.425 63.555 38.2526 64.0179 37.179 63.7612L37.1204 63.7476L37.1135 63.7446L37.1077 63.7446L37.095 63.7417C37.0413 63.7268 36.9883 63.7096 36.9358 63.6909L36.7649 63.6235L36.7581 63.6206L35.6731 63.2437L35.7532 62.9399L35.7668 62.8892L35.7317 62.8491C35.0697 62.0823 34.6505 60.9178 34.5432 59.5493C34.5195 59.2467 34.5103 58.9342 34.5178 58.6147C34.5292 58.1337 34.5773 57.6357 34.6633 57.1284L34.7629 56.6187L34.8879 56.1021C35.2569 54.726 35.857 53.5186 36.5784 52.5815C36.7585 52.3475 36.9464 52.1307 37.1399 51.9321C37.2367 51.8327 37.3352 51.738 37.4348 51.6479C37.584 51.5132 37.7359 51.3893 37.8899 51.2769C37.9413 51.2393 37.9932 51.2025 38.0452 51.1675C38.2521 51.0279 38.462 50.9084 38.6731 50.812C38.7784 50.764 38.8844 50.722 38.9905 50.6851L39.0403 50.6675L39.054 50.6167L39.134 50.3198L40.1594 50.519L40.1711 50.52L40.4045 50.5483C40.4819 50.5611 40.5589 50.5768 40.635 50.5972C40.7706 50.6335 40.9018 50.6807 41.0276 50.7378C41.4059 50.9096 41.7433 51.1736 42.0334 51.5151C42.1302 51.629 42.2217 51.7517 42.3079 51.8823C42.3937 52.0126 42.4742 52.1514 42.5491 52.2974C42.624 52.4434 42.694 52.5966 42.7571 52.7563C42.8202 52.9162 42.8768 53.0833 42.928 53.2563C43.0047 53.5159 43.0674 53.7892 43.1155 54.0737C43.1796 54.4532 43.2184 54.853 43.2288 55.2681C43.2521 56.2021 43.1339 57.2124 42.8586 58.2397C42.3739 60.0483 41.4922 61.5644 40.4592 62.5591Z" fill="#383838" stroke="#7A7A7A" stroke-width="0.2"/>
<path d="M33.318 55.7348C32.8367 57.5312 32.8613 59.2764 33.2847 60.6434C33.7086 62.0119 34.5268 62.9871 35.6231 63.2809C36.7194 63.5745 37.9149 63.1388 38.9661 62.1657C40.0163 61.1936 40.9102 59.6945 41.3916 57.8981C41.8728 56.1018 41.848 54.3573 41.4246 52.9904C41.0008 51.622 40.1836 50.6461 39.0874 50.3522C37.991 50.0584 36.7946 50.4948 35.7432 51.4681C34.6931 52.4402 33.7993 53.9386 33.318 55.7348Z" fill="#222222" stroke="#7A7A7A" stroke-width="0.2"/>
<path d="M37.7157 57.7688L37.7395 57.7327C37.7934 57.6523 37.8372 57.5833 37.871 57.5257C37.9036 57.4664 37.9382 57.3931 37.9749 57.3061C38.1239 56.9445 38.1709 56.5904 38.1151 56.2446C38.0744 55.9911 37.9897 55.7527 37.8623 55.5288L38.1724 55.0642L37.8266 54.6043L37.515 55.0698C37.4195 54.9744 37.3219 54.8974 37.2194 54.8411C37.153 54.8037 37.0855 54.7785 37.0179 54.7613L37.4434 54.1254L37.0976 53.6655L35.9697 55.3502C35.9668 55.3544 35.9629 55.3578 35.9602 55.3618L35.3547 56.2652L35.7841 56.8364L36.3722 55.9593C36.3968 55.9225 36.4246 55.8848 36.4553 55.8462C36.4859 55.8042 36.5185 55.7691 36.5518 55.7407C36.64 55.6628 36.7278 55.6266 36.8157 55.631C36.9049 55.6337 36.9888 55.6637 37.0672 55.7216C37.0697 55.7233 37.0722 55.7257 37.0747 55.7274L36.0853 57.2031L36.4311 57.663L37.4205 56.1873C37.4217 56.1903 37.4233 56.1931 37.4245 56.1961C37.4689 56.3015 37.4947 56.4175 37.5017 56.5428C37.5087 56.6647 37.4879 56.7913 37.4389 56.9215C37.4207 56.97 37.3977 57.0174 37.371 57.0644C37.3455 57.1096 37.3213 57.1509 37.2968 57.1875L36.7084 58.0658L37.136 58.634L39.0772 58.4339L39.6693 57.5514L37.7157 57.7688Z" fill="#7A7A7A"/>
<path d="M93.7062 13.2539L93.7433 13.2891L93.7941 13.2793C95.3846 12.9585 97.6985 13.8288 99.6544 15.6797C99.8949 15.9073 100.121 16.1415 100.332 16.3799C100.755 16.857 101.119 17.3514 101.418 17.8477C102.167 19.0908 102.507 20.3359 102.384 21.335L102.378 21.3857L102.415 21.4209L102.712 21.6992L101.852 22.6094L101.848 22.6123C101.822 22.6425 101.804 22.6667 101.781 22.6904C101.108 23.4017 99.9852 23.5859 98.6886 23.2764C97.395 22.9675 95.9491 22.17 94.6632 20.9531L94.4298 20.7256L94.2042 20.4932C93.1064 19.3263 92.3715 18.0361 92.0675 16.8672C91.7629 15.696 91.8939 14.6639 92.4972 13.9883L92.5626 13.916L92.5577 13.9111L93.4259 12.9932L93.7062 13.2539Z" fill="#383838" stroke="#7A7A7A" stroke-width="0.2"/>
<path d="M100.597 14.6832C99.3108 13.4665 97.865 12.6702 96.5715 12.3613C95.2749 12.0517 94.1522 12.2355 93.4791 12.9468C92.8061 13.658 92.6845 14.7892 93.065 16.0668C93.4448 17.3412 94.3203 18.7402 95.6061 19.957C96.892 21.1739 98.3376 21.9714 99.6312 22.2803C100.928 22.5899 102.051 22.4061 102.724 21.6948C103.397 20.9836 103.518 19.8524 103.138 18.5748C102.758 17.3002 101.883 15.9001 100.597 14.6832Z" fill="#222222" stroke="#7A7A7A" stroke-width="0.2"/>
<path d="M99.3795 17.8212L99.3791 17.7813C99.3791 17.69 99.3777 17.6128 99.374 17.5497C99.3685 17.4859 99.3579 17.4098 99.3415 17.3216C99.2704 16.956 99.1249 16.6448 98.9061 16.3885C98.746 16.2007 98.5603 16.0458 98.3494 15.9228L98.3486 15.3973L97.8506 15.1846L97.8514 15.7101C97.7297 15.6771 97.6154 15.6611 97.5084 15.6633C97.4392 15.664 97.3755 15.6758 97.3155 15.6935L97.3146 14.973L96.8166 14.7603L96.8165 16.7714L96.8178 16.7714L96.8167 17.7054L97.4353 17.9697L97.4354 16.9762C97.4354 16.9346 97.4366 16.8906 97.4402 16.8446C97.4421 16.7958 97.4486 16.7514 97.4595 16.7125C97.4869 16.6074 97.5356 16.5361 97.6048 16.4984C97.674 16.4587 97.7532 16.4441 97.8424 16.4545C97.8453 16.4548 97.8481 16.456 97.851 16.4562L97.8506 18.1271L98.3487 18.3398L98.349 16.6689C98.3515 16.6708 98.3539 16.6727 98.3564 16.6746C98.4439 16.7398 98.523 16.8217 98.5922 16.9208C98.6596 17.0169 98.7079 17.1298 98.737 17.259C98.748 17.3073 98.7552 17.3573 98.7588 17.4083C98.7625 17.4575 98.7646 17.5033 98.7646 17.5449L98.7645 18.5384L99.3791 18.8016L100.755 17.7243L100.755 16.7243L99.3795 17.8212Z" fill="#7A7A7A"/>
<path d="M117.825 69.8855C116.39 69.9334 115.209 69.4928 114.583 68.5835L114.549 68.5341L114.546 68.5274L114.541 68.5235L114.534 68.5128C114.504 68.4658 114.476 68.4175 114.449 68.3685L114.368 68.2041L114.364 68.1973L113.811 67.1911L114.073 67.0191L114.117 66.9905L114.118 66.9372C114.139 65.9244 114.607 64.7786 115.443 63.6899C115.628 63.4492 115.831 63.2108 116.05 62.9785C116.38 62.6286 116.749 62.2908 117.153 61.9715L117.568 61.6593L118.007 61.3591C119.202 60.5836 120.456 60.088 121.619 59.8745C121.909 59.8212 122.194 59.7858 122.471 59.7678C122.609 59.7587 122.746 59.7542 122.88 59.754C123.081 59.7537 123.277 59.7633 123.466 59.7828C123.53 59.7893 123.593 59.7967 123.655 59.8054C123.902 59.8402 124.138 59.8919 124.359 59.9616C124.47 59.9963 124.577 60.0361 124.68 60.0796L124.729 60.0999L124.773 60.0713L125.031 59.9043L125.66 60.7386L125.668 60.7471L125.822 60.9244C125.871 60.9856 125.918 61.0488 125.961 61.1149C126.037 61.2326 126.103 61.3555 126.159 61.4821C126.325 61.863 126.399 62.285 126.386 62.7329C126.381 62.8823 126.367 63.0347 126.344 63.1894C126.321 63.3436 126.287 63.5006 126.245 63.6592C126.203 63.8179 126.153 63.9785 126.093 64.1394C126.033 64.3005 125.963 64.4625 125.885 64.6253C125.768 64.8695 125.632 65.1146 125.477 65.3582C125.271 65.683 125.032 66.0061 124.762 66.3214C124.155 67.0311 123.391 67.7027 122.499 68.2818C120.928 69.3013 119.258 69.8377 117.825 69.8855Z" fill="#383838" stroke="#7A7A7A" stroke-width="0.2"/>
<path d="M117.086 60.0353C115.526 61.048 114.376 62.3613 113.776 63.6604C113.175 64.9609 113.13 66.2331 113.749 67.1852C114.367 68.137 115.546 68.6133 116.979 68.5938C118.41 68.5742 120.077 68.0586 121.637 67.0459C123.197 66.0333 124.346 64.7204 124.946 63.4214C125.547 62.121 125.593 60.8489 124.975 59.8969C124.357 58.9449 123.176 58.4684 121.743 58.488C120.313 58.5076 118.646 59.0228 117.086 60.0353Z" fill="#222222" stroke="#7A7A7A" stroke-width="0.2"/>
<path d="M118.992 64.4898L119.034 64.4789C119.128 64.4552 119.207 64.4333 119.27 64.4131C119.334 64.3908 119.409 64.3596 119.495 64.3195C119.847 64.1505 120.119 63.9188 120.309 63.6245C120.449 63.409 120.545 63.1751 120.6 62.9235L121.142 62.7858L121.192 62.2127L120.649 62.35C120.642 62.2152 120.621 62.0927 120.583 61.9822C120.559 61.91 120.525 61.8461 120.486 61.7881L121.228 61.6003L121.279 61.0272L119.314 61.5242C119.309 61.5254 119.303 61.5252 119.299 61.5264L118.244 61.7925L118.181 62.5043L119.205 62.2461C119.248 62.2353 119.294 62.2259 119.342 62.2177C119.393 62.207 119.441 62.2027 119.485 62.2039C119.602 62.2051 119.692 62.2369 119.754 62.299C119.819 62.3607 119.861 62.4391 119.88 62.5346C119.881 62.5376 119.881 62.541 119.882 62.544L118.159 62.9783L118.109 63.5514L119.831 63.1171C119.83 63.1201 119.829 63.1233 119.828 63.1264C119.791 63.2344 119.732 63.3378 119.654 63.4356C119.577 63.5309 119.477 63.611 119.354 63.675C119.308 63.6989 119.259 63.7187 119.208 63.7357C119.158 63.7522 119.113 63.7667 119.07 63.7775L118.045 64.0364L117.982 64.7447L119.559 65.8952L120.589 65.6357L118.992 64.4898Z" fill="#7A7A7A"/>
<path d="M65.6296 109.37L29.7938 35.8017C48.4718 11.8587 106.581 10.1936 130.237 36.6146L93.3066 107.005L93.4193 108.774C93.1301 109.171 92.8101 109.544 92.4625 109.89L91.4499 110.899C90.6045 111.741 89.6077 112.416 88.5119 112.888C87.7519 113.215 86.9523 113.441 86.1335 113.561L80.4295 114.395C78.7758 114.636 77.0898 114.53 75.4796 114.082L72.2827 113.193C70.6825 112.748 69.1921 111.976 67.9059 110.925L67.6227 110.694C67.0714 110.243 66.481 109.843 65.8587 109.497L65.6296 109.37Z" fill="url(#paint3_linear_3437_29333)" fill-opacity="0.2"/>
<defs>
<linearGradient id="paint0_linear_3437_29333" x1="80.0124" y1="69.7017" x2="80.0124" y2="101.858" gradientUnits="userSpaceOnUse">
<stop offset="0.239618" stop-color="#222222"/>
<stop offset="0.959626" stop-color="#7A7A7A"/>
</linearGradient>
<linearGradient id="paint1_linear_3437_29333" x1="80.0124" y1="85.8552" x2="80.0124" y2="111.092" gradientUnits="userSpaceOnUse">
<stop offset="0.239618" stop-color="#222222"/>
<stop offset="0.959626" stop-color="#7A7A7A"/>
</linearGradient>
<linearGradient id="paint2_linear_3437_29333" x1="79.19" y1="54.2095" x2="79.19" y2="92.0547" gradientUnits="userSpaceOnUse">
<stop offset="0.239618" stop-color="#222222"/>
<stop offset="0.959626" stop-color="#7A7A7A"/>
</linearGradient>
<linearGradient id="paint3_linear_3437_29333" x1="80.0153" y1="115.502" x2="80.0154" y2="43.5418" gradientUnits="userSpaceOnUse">
<stop offset="0.481737" stop-color="#7A7A7A"/>
<stop offset="1" stop-color="#111111"/>
</linearGradient>
</defs>
</svg>
