<svg width="160" height="160" viewBox="0 0 160 160" fill="none" xmlns="http://www.w3.org/2000/svg">
<path d="M33.6442 87.9243L83.7878 58.9739V80.2257L33.6442 109.176V87.9243Z" fill="#222222" stroke="#7A7A7A" stroke-width="0.255721"/>
<path d="M45.2326 83.4443V100.371L35.6513 105.903V88.9761L45.2326 83.4443Z" fill="#111111" stroke="#7A7A7A" stroke-width="0.17048"/>
<path opacity="0.6" d="M39.3133 91.8962L40.598 93.7727L40.6623 93.8655L40.7266 93.6985L42.0231 90.3318L43.1073 89.7058L41.3321 94.0178L41.3076 94.0769L41.3321 94.1086L43.1225 96.3611L42.0374 96.9875L40.7257 95.2322L40.6623 95.1477L40.5988 95.3054L39.2914 98.573L38.2021 99.2019L39.9739 94.8918L39.9975 94.8333L39.9739 94.802L38.2249 92.5247L39.3133 91.8962Z" fill="#7A7A7A" stroke="#7A7A7A" stroke-width="0.17048"/>
<rect x="0.0738202" y="0.0426201" width="12.061" height="1.77394" transform="matrix(0.866025 -0.5 0 1 46.6451 82.8418)" fill="#111111" stroke="#7A7A7A" stroke-width="0.17048"/>
<path d="M67.2366 76.1667V77.9412L46.8731 89.698V87.9236L67.2366 76.1667Z" fill="#111111" stroke="#7A7A7A" stroke-width="0.17048"/>
<rect width="8.09395" height="0.587189" transform="matrix(0.866025 -0.5 0 1 46.7995 98.1003)" fill="#7A7A7A"/>
<rect width="8.09395" height="0.587189" transform="matrix(0.866025 -0.5 0 1 54.6315 93.5784)" fill="#7A7A7A"/>
<rect width="8.09395" height="0.587189" transform="matrix(0.866025 -0.5 0 1 46.7996 95.543)" fill="#7A7A7A"/>
<rect width="8.09395" height="0.587189" transform="matrix(0.866025 -0.5 0 1 54.6315 91.0212)" fill="#7A7A7A"/>
<rect width="8.09395" height="0.587189" transform="matrix(0.866025 -0.5 0 1 62.4635 89.0566)" fill="#7A7A7A"/>
<rect width="8.09395" height="0.587189" transform="matrix(0.866025 -0.5 0 1 70.2955 84.5349)" fill="#7A7A7A"/>
<circle cx="0.949647" cy="0.949647" r="0.949647" transform="matrix(0.866025 -0.5 0 1 80.7731 62.8625)" fill="#D9D9D9"/>
<mask id="path-13-inside-1_5580_37873" fill="white">
<path d="M79.885 60.166C92.2542 53.0249 102.281 58.8141 102.281 73.0967V73.2646C102.203 87.5154 92.2058 104.776 79.885 111.89L79.7395 111.973C67.4372 118.985 57.488 113.185 57.4875 98.959C57.4877 84.6761 67.5158 67.3076 79.885 60.166ZM95.1145 77.2354C95.1143 67.5234 88.2959 63.5865 79.885 68.4424C71.4742 73.2986 64.6559 85.1082 64.6555 94.8203C64.6558 104.532 71.4742 108.469 79.885 103.613C88.2956 98.7571 95.114 86.9473 95.1145 77.2354Z"/>
</mask>
<path d="M79.885 60.166C92.2542 53.0249 102.281 58.8141 102.281 73.0967V73.2646C102.203 87.5154 92.2058 104.776 79.885 111.89L79.7395 111.973C67.4372 118.985 57.488 113.185 57.4875 98.959C57.4877 84.6761 67.5158 67.3076 79.885 60.166ZM95.1145 77.2354C95.1143 67.5234 88.2959 63.5865 79.885 68.4424C71.4742 73.2986 64.6559 85.1082 64.6555 94.8203C64.6558 104.532 71.4742 108.469 79.885 103.613C88.2956 98.7571 95.114 86.9473 95.1145 77.2354Z" fill="#383838"/>
<path d="M79.885 60.166L79.7998 60.0184L79.7998 60.0184L79.885 60.166ZM102.281 73.0967H102.452V73.0967L102.281 73.0967ZM102.281 73.2646L102.452 73.2656V73.2646H102.281ZM79.885 111.89L79.9695 112.038L79.9703 112.037L79.885 111.89ZM79.7395 111.973L79.8239 112.121L79.824 112.121L79.7395 111.973ZM57.4875 98.959L57.3171 98.959V98.959L57.4875 98.959ZM95.1145 77.2354L95.285 77.2354V77.2353L95.1145 77.2354ZM79.885 68.4424L79.7998 68.2947L79.7998 68.2947L79.885 68.4424ZM64.6555 94.8203L64.485 94.8203V94.8203L64.6555 94.8203ZM79.885 103.613L79.9702 103.761L79.9703 103.761L79.885 103.613ZM79.885 60.166L79.9702 60.3137C86.1238 56.761 91.6548 56.4463 95.6364 58.7451C99.618 61.0439 102.111 65.9913 102.111 73.0967L102.281 73.0967L102.452 73.0967C102.452 65.9195 99.9311 60.831 95.8068 58.4498C91.6826 56.0686 86.0154 56.4299 79.7998 60.0184L79.885 60.166ZM102.281 73.0967H102.111V73.2646H102.281H102.452V73.0967H102.281ZM102.281 73.2646L102.111 73.2637C102.072 80.3525 99.5649 88.2014 95.5267 95.1681C91.4884 102.135 85.9283 108.204 79.7998 111.742L79.885 111.89L79.9703 112.037C86.1625 108.462 91.7614 102.344 95.8217 95.3391C99.8819 88.3344 102.413 80.4276 102.452 73.2656L102.281 73.2646ZM79.885 111.89L79.8005 111.742L79.655 111.825L79.7395 111.973L79.824 112.121L79.9695 112.038L79.885 111.89ZM79.7395 111.973L79.6551 111.825C73.5353 115.313 68.0405 115.593 64.0863 113.283C60.1319 110.973 57.6582 106.036 57.658 98.959L57.4875 98.959L57.3171 98.959C57.3173 106.108 59.8184 111.185 63.9143 113.578C68.0104 115.971 73.6414 115.645 79.8239 112.121L79.7395 111.973ZM57.4875 98.959L57.658 98.959C57.6581 91.8545 60.1533 83.9709 64.1955 76.9698C68.2377 69.9686 73.8176 63.866 79.9703 60.3137L79.885 60.166L79.7998 60.0184C73.5831 63.6077 67.9644 69.76 63.9002 76.7993C59.8361 83.8385 57.3172 91.7806 57.3171 98.959L57.4875 98.959ZM95.1145 77.2354L95.285 77.2353C95.2849 72.3435 93.5663 68.8607 90.739 67.2283C87.9117 65.5958 84.0363 65.8488 79.7998 68.2947L79.885 68.4424L79.9702 68.59C84.1447 66.18 87.8839 65.9735 90.5685 67.5235C93.2532 69.0736 94.9439 72.4152 94.944 77.2354L95.1145 77.2354ZM79.885 68.4424L79.7998 68.2947C75.5624 70.7413 71.7357 74.9326 68.9687 79.7251C66.2017 84.5176 64.4852 89.9273 64.485 94.8203L64.6555 94.8203L64.826 94.8203C64.8262 90.0012 66.519 84.65 69.264 79.8956C72.009 75.1412 75.7969 70.9996 79.9703 68.59L79.885 68.4424ZM64.6555 94.8203L64.485 94.8203C64.4852 99.7121 66.2038 103.195 69.0311 104.827C71.8584 106.46 75.7338 106.207 79.9702 103.761L79.885 103.613L79.7998 103.466C75.6254 105.876 71.8862 106.082 69.2016 104.532C66.5169 102.982 64.8261 99.6403 64.826 94.8203L64.6555 94.8203ZM79.885 103.613L79.9703 103.761C84.2076 101.314 88.0342 97.123 90.8012 92.3305C93.5682 87.538 95.2847 82.1283 95.285 77.2354L95.1145 77.2354L94.944 77.2353C94.9438 82.0544 93.2509 87.4056 90.5059 92.16C87.7609 96.9144 83.973 101.056 79.7998 103.466L79.885 103.613Z" fill="#7A7A7A" mask="url(#path-13-inside-1_5580_37873)"/>
<path d="M64.3445 108.156L54.3777 120.564L52.8115 118.34L62.7784 105.932L64.3445 108.156Z" fill="#383838"/>
<path d="M101.297 61.488L97.3179 68.0935L83.4819 67.2751L66.4478 89.1453L60.646 94.8728L79.0933 64.7458L95.2856 58.366L101.297 61.488Z" fill="#383838"/>
<path d="M58.0712 118.555L39.5413 141.993L35.9504 137.101L54.4803 113.664L58.0712 118.555Z" fill="#383838" stroke="#7A7A7A" stroke-width="0.17048"/>
<path d="M65.556 112.288L59.5667 119.601L55.5638 115.004L59.9847 109.514L65.556 112.288Z" fill="#383838" stroke="#7A7A7A" stroke-width="0.17048"/>
<path d="M68.9195 110.663L59.0811 122.912L57.5884 120.793L67.4268 108.544L68.9195 110.663Z" fill="#7A7A7A" stroke="#7A7A7A" stroke-width="0.17048"/>
<mask id="path-20-inside-2_5580_37873" fill="white">
<path d="M84.7363 62.6052C97.1056 55.4641 107.133 61.2532 107.133 75.5359V75.7039C107.055 89.9548 97.0573 107.215 84.7363 114.329L84.5908 114.412C72.288 121.425 62.3389 115.625 62.3389 101.398C62.3389 87.1151 72.3668 69.7468 84.7363 62.6052ZM99.9658 79.6746C99.9658 69.9623 93.1473 66.0257 84.7363 70.8816C76.3252 75.7378 69.5059 87.5482 69.5059 97.2605C69.5061 106.972 76.3253 110.91 84.7363 106.053C93.1473 101.197 99.9657 89.3868 99.9658 79.6746Z"/>
</mask>
<path d="M84.7363 62.6052C97.1056 55.4641 107.133 61.2532 107.133 75.5359V75.7039C107.055 89.9548 97.0573 107.215 84.7363 114.329L84.5908 114.412C72.288 121.425 62.3389 115.625 62.3389 101.398C62.3389 87.1151 72.3668 69.7468 84.7363 62.6052ZM99.9658 79.6746C99.9658 69.9623 93.1473 66.0257 84.7363 70.8816C76.3252 75.7378 69.5059 87.5482 69.5059 97.2605C69.5061 106.972 76.3253 110.91 84.7363 106.053C93.1473 101.197 99.9657 89.3868 99.9658 79.6746Z" fill="#222222"/>
<path d="M84.7363 62.6052L84.6511 62.4576L84.6511 62.4576L84.7363 62.6052ZM107.133 75.5359H107.303V75.5359L107.133 75.5359ZM107.133 75.7039L107.303 75.7048V75.7039H107.133ZM84.7363 114.329L84.8208 114.477L84.8216 114.476L84.7363 114.329ZM84.5908 114.412L84.6752 114.56L84.6753 114.56L84.5908 114.412ZM62.3389 101.398H62.1684H62.3389ZM99.9658 79.6746L100.136 79.6746V79.6746H99.9658ZM84.7363 70.8816L84.6511 70.734L84.6511 70.734L84.7363 70.8816ZM69.5059 97.2605H69.3354V97.2605L69.5059 97.2605ZM84.7363 106.053L84.8216 106.201H84.8216L84.7363 106.053ZM84.7363 62.6052L84.8216 62.7529C90.9751 59.2002 96.5061 58.8855 100.488 61.1843C104.469 63.483 106.962 68.4304 106.962 75.5359L107.133 75.5359L107.303 75.5359C107.303 68.3587 104.783 63.2701 100.658 60.889C96.5339 58.5078 90.8668 58.8691 84.6511 62.4576L84.7363 62.6052ZM107.133 75.5359H106.962V75.7039H107.133H107.303V75.5359H107.133ZM107.133 75.7039L106.962 75.7029C106.924 82.7918 104.416 90.6406 100.378 97.6073C96.3399 104.574 90.7797 110.643 84.6511 114.181L84.7363 114.329L84.8216 114.476C91.014 110.901 96.6129 104.783 100.673 97.7783C104.733 90.7736 107.264 82.8669 107.303 75.7048L107.133 75.7039ZM84.7363 114.329L84.6519 114.181L84.5063 114.264L84.5908 114.412L84.6753 114.56L84.8208 114.477L84.7363 114.329ZM84.5908 114.412L84.5064 114.264C78.3864 117.752 72.8915 118.033 68.9373 115.723C64.9829 113.413 62.5094 108.476 62.5093 101.398H62.3389H62.1684C62.1684 108.548 64.6695 113.624 68.7653 116.017C72.8614 118.41 78.4925 118.084 84.6752 114.56L84.5908 114.412ZM62.3389 101.398H62.5093C62.5094 94.2936 65.0045 86.41 69.0467 79.4089C73.0889 72.4078 78.6688 66.3052 84.8216 62.7529L84.7363 62.6052L84.6511 62.4576C78.4343 66.0468 72.8156 72.1992 68.7514 79.2384C64.6872 86.2776 62.1684 94.2197 62.1684 101.398H62.3389ZM99.9658 79.6746H100.136C100.136 74.7826 98.4178 71.2998 95.5904 69.6674C92.7631 68.035 88.8877 68.2881 84.6511 70.734L84.7363 70.8816L84.8216 71.0292C88.996 68.6192 92.7353 68.4126 95.42 69.9627C98.1046 71.5127 99.7953 74.8543 99.7953 79.6746H99.9658ZM84.7363 70.8816L84.6511 70.734C80.4135 73.1805 76.5865 77.372 73.8193 82.1647C71.0521 86.9575 69.3354 92.3674 69.3354 97.2605H69.5059H69.6763C69.6763 92.4413 71.3693 87.0898 74.1146 82.3352C76.8598 77.5806 80.648 73.4388 84.8216 71.0292L84.7363 70.8816ZM69.5059 97.2605L69.3354 97.2605C69.3355 102.152 71.0543 105.635 73.8818 107.268C76.7094 108.9 80.585 108.647 84.8216 106.201L84.7363 106.053L84.6511 105.906C80.4767 108.316 76.7372 108.522 74.0523 106.972C71.3674 105.422 69.6765 102.081 69.6763 97.2605L69.5059 97.2605ZM84.7363 106.053L84.8216 106.201C89.0591 103.755 92.8858 99.563 95.6528 94.7703C98.4198 89.9775 100.136 84.5676 100.136 79.6746L99.9658 79.6746L99.7953 79.6746C99.7953 84.4937 98.1025 89.8452 95.3575 94.5998C92.6125 99.3544 88.8246 103.496 84.6511 105.906L84.7363 106.053Z" fill="#7A7A7A" mask="url(#path-20-inside-2_5580_37873)"/>
<path d="M59.2458 115.771L44.778 139.72L40.8366 139.578L35.9304 137.104C35.8339 137.056 35.8057 136.931 35.8727 136.846L54.5319 113.355L59.2458 115.771Z" fill="#111111" stroke="#7A7A7A" stroke-width="0.17048"/>
<path d="M40.7007 139.554L44.146 144.352L39.5894 142.041L35.9937 137.176L40.7007 139.554Z" fill="#111111" stroke="#7A7A7A" stroke-width="0.17048"/>
<path d="M62.9223 120.994L44.3924 144.432L40.8014 139.54L59.3313 116.103L62.9223 120.994Z" fill="#7A7A7A" stroke="#7A7A7A" stroke-width="0.17048"/>
<path d="M63.0987 42.2705L113.242 13.3201V34.5719L63.0987 63.5224V42.2705Z" fill="#222222" stroke="#7A7A7A" stroke-width="0.255721"/>
<path d="M74.6872 37.7905V54.7173L65.1059 60.249V43.3223L74.6872 37.7905Z" fill="#383838" stroke="#7A7A7A" stroke-width="0.17048"/>
<path d="M86.6089 31.1628V32.9373L76.1634 38.968V37.1936L86.6089 31.1628Z" fill="#111111" stroke="#7A7A7A" stroke-width="0.17048"/>
<path d="M96.6912 30.5129V32.2874L76.3277 44.0442V42.2698L96.6912 30.5129Z" fill="#111111" stroke="#7A7A7A" stroke-width="0.17048"/>
<rect width="8.09395" height="0.587189" transform="matrix(0.866025 -0.5 0 1 76.2541 52.4463)" fill="#7A7A7A"/>
<rect width="8.09395" height="0.587189" transform="matrix(0.866025 -0.5 0 1 84.0861 47.9246)" fill="#7A7A7A"/>
<rect width="8.09395" height="0.587189" transform="matrix(0.866025 -0.5 0 1 76.2542 49.8892)" fill="#7A7A7A"/>
<rect width="8.09395" height="0.587189" transform="matrix(0.866025 -0.5 0 1 84.0861 45.3674)" fill="#7A7A7A"/>
<rect width="8.09395" height="0.587189" transform="matrix(0.866025 -0.5 0 1 91.9181 43.4028)" fill="#7A7A7A"/>
<rect width="8.09395" height="0.587189" transform="matrix(0.866025 -0.5 0 1 99.7501 38.8811)" fill="#7A7A7A"/>
<circle cx="0.949647" cy="0.949647" r="0.949647" transform="matrix(0.866025 -0.5 0 1 110.228 17.2087)" fill="#7A7A7A"/>
<path d="M76.2121 102.192L126.356 73.2412V94.4931L76.2121 123.444V102.192Z" fill="#222222" stroke="#7A7A7A" stroke-width="0.255721"/>
<path d="M87.8005 97.7114V114.638L78.2193 120.17V103.243L87.8005 97.7114Z" fill="#383838" stroke="#7A7A7A" stroke-width="0.17048"/>
<path d="M99.6765 91.0837V92.8582L89.2309 98.8889V97.1145L99.6765 91.0837Z" fill="#111111" stroke="#7A7A7A" stroke-width="0.17048"/>
<path d="M109.805 90.4341V92.2085L89.4411 103.965V102.191L109.805 90.4341Z" fill="#111111" stroke="#7A7A7A" stroke-width="0.17048"/>
<rect width="8.09395" height="0.587189" transform="matrix(0.866025 -0.5 0 1 89.3675 112.367)" fill="#7A7A7A"/>
<rect width="8.09395" height="0.587189" transform="matrix(0.866025 -0.5 0 1 97.1995 107.846)" fill="#7A7A7A"/>
<rect width="8.09395" height="0.587189" transform="matrix(0.866025 -0.5 0 1 89.3675 109.81)" fill="#7A7A7A"/>
<rect width="8.09395" height="0.587189" transform="matrix(0.866025 -0.5 0 1 97.1995 105.289)" fill="#7A7A7A"/>
<rect width="8.09395" height="0.587189" transform="matrix(0.866025 -0.5 0 1 105.031 103.324)" fill="#7A7A7A"/>
<rect width="8.09395" height="0.587189" transform="matrix(0.866025 -0.5 0 1 112.863 98.802)" fill="#7A7A7A"/>
<circle cx="0.949647" cy="0.949647" r="0.949647" transform="matrix(0.866025 -0.5 0 1 123.341 77.1299)" fill="#7A7A7A"/>
</svg>
