<svg width="112" height="143" viewBox="0 0 112 143" fill="none" xmlns="http://www.w3.org/2000/svg">
<path d="M77.2579 13.0425C77.839 13.0633 78.3766 13.1701 78.8731 13.356L78.9053 13.3677L78.9376 13.3579L78.9893 13.3413L85.5997 17.2466L82.6329 19.1841L82.5801 19.2183L82.5889 19.2808C82.693 20.0812 82.7471 20.9602 82.7471 21.9204C82.7471 24.8972 82.245 27.6975 81.2432 30.3198C80.2406 32.9354 78.888 35.2609 77.1856 37.2964C76.581 38.0161 75.9507 38.6828 75.2969 39.2993L75.2198 39.3716L75.296 39.4448L78.4405 42.4683L70.92 47.5161L63.1046 43.0503L63.1065 43.0005L63.1085 42.9487L63.0665 42.9175C62.6034 42.5708 62.1858 42.1279 61.8155 41.5894C60.8337 40.1369 60.335 37.9369 60.335 34.9751C60.3351 31.9985 60.8331 29.2061 61.8272 26.5972C62.8299 23.9725 64.1791 21.6489 65.8741 19.6265V19.6255C67.5773 17.5892 69.4832 15.9634 71.5909 14.7466C73.5538 13.6133 75.3361 13.0473 76.9395 13.0376L77.2579 13.0425ZM72.2374 35.3423L72.1319 35.646L72.3907 35.4565C73.1034 34.9335 73.7251 34.3084 74.2549 33.5796C74.9815 32.5772 75.5276 31.4141 75.8936 30.0933C76.2671 28.7597 76.4541 27.2844 76.4542 25.6694C76.4541 25.0702 76.4275 24.5201 76.376 24.019L76.1817 23.9966L72.2374 35.3423Z" fill="#383838" stroke="#7A7A7A" stroke-width="0.2"/>
<path d="M87.9067 30.3005L83.1244 41.3874L72.8347 41.967C71.4579 39.8415 69.6898 35.6635 73.6317 35.9533C78.5584 36.3154 79.7186 32.5479 80.2259 31.0259C80.6316 29.8086 78.6068 26.6055 77.544 25.1562L84.8633 20.5909L87.9067 30.3005Z" fill="#383838"/>
<path d="M78.8841 18.8485C80.9746 17.6416 82.8675 17.0741 84.564 17.1434C86.1529 17.2003 87.4357 17.8718 88.4129 19.1595L88.604 19.4252C89.6013 20.8754 90.1026 23.0844 90.1026 26.0599C90.1026 29.0355 89.6014 31.8282 88.604 34.4388C87.6053 37.0442 86.2587 39.3583 84.564 41.3846C82.8675 43.4043 80.9747 45.0184 78.8841 46.2255C76.9099 47.3653 75.1161 47.9389 73.5018 47.9491L73.1813 47.9437C71.5994 47.8665 70.3201 47.1887 69.3434 45.9076L69.1523 45.6429C68.1624 44.1795 67.6646 41.9726 67.6646 39.0145C67.6647 36.0389 68.1625 33.2531 69.1523 30.6556C70.1511 28.0411 71.4941 25.7284 73.1813 23.7152C74.8777 21.6871 76.7783 20.0643 78.8841 18.8485ZM78.8841 24.9921C77.8257 25.6031 76.9255 26.4153 76.1896 27.4305C75.4614 28.4324 74.9112 29.6073 74.5353 30.9491L74.5345 30.9496C74.1664 32.2777 73.9848 33.7499 73.9848 35.3656C73.9848 36.9812 74.1666 38.2478 74.5345 39.1595L74.5353 39.16C74.9112 40.0591 75.4619 40.5976 76.1896 40.7675L76.1904 40.7679C76.9263 40.9243 77.8261 40.6927 78.8841 40.0819C79.9421 39.471 80.8382 38.6652 81.5667 37.663C82.2101 36.7752 82.7124 35.7652 83.0746 34.6361L83.221 34.1454C83.5967 32.804 83.7834 31.3244 83.7834 29.7084C83.7834 28.2945 83.6403 27.1534 83.3529 26.288L83.221 25.9335C82.8526 25.0214 82.3016 24.483 81.5659 24.3265C80.8375 24.1569 79.9418 24.3814 78.8841 24.9921Z" fill="#222222" stroke="#7A7A7A" stroke-width="0.2"/>
<path d="M56.0987 12.6292C56.8626 12.6525 57.5189 12.8485 58.0723 13.2131L58.1046 13.2346L58.1133 13.2327L64.5264 16.9172L60.1651 17.9915L60.086 18.011L60.0889 18.0911C60.0924 18.2212 60.0997 18.3435 60.0997 18.4719C60.0996 19.8193 59.7827 20.6578 59.3321 21.6926L59.2715 21.8333H62.0352V30.425L54.5723 33.8518V30.1711C54.6247 30.1362 54.6811 30.1001 54.7364 30.0608C57.6099 28.0155 58.3794 25.6867 58.3155 23.8547L58.3096 23.6858L58.1651 23.7717C57.9004 23.9291 57.5753 24.0075 57.211 24.053C56.8444 24.0987 56.4542 24.11 56.0508 24.1399C55.3065 24.195 54.5335 24.3132 53.9698 24.8674L53.8604 24.9846C53.5118 25.3861 53.291 26.0298 53.1241 26.7649C52.9565 27.503 52.839 28.3546 52.709 29.1819C52.5785 30.0125 52.4344 30.8195 52.2149 31.4817C51.9943 32.1473 51.7043 32.6446 51.295 32.8811L47.7989 34.9006L47.7491 34.929V42.8977L41.6378 46.426V19.8137L51.6212 14.05C53.3383 13.0586 54.8307 12.5906 56.0987 12.6292ZM53.5225 21.5217L48.835 24.0793L47.8995 23.5217L47.7491 23.4319V29.4973L47.8985 29.4104L50.1241 28.1262C50.8741 27.6931 51.5143 27.1727 52.044 26.5657V26.5647C52.5807 25.945 52.9921 25.2691 53.2764 24.5374C53.5684 23.8009 53.7139 23.0456 53.7139 22.2727C53.7139 22.0283 53.6977 21.8024 53.669 21.5959L53.6495 21.4524L53.5225 21.5217Z" fill="#383838" stroke="#7A7A7A" stroke-width="0.2"/>
<path d="M63.4178 16.7975C64.6818 16.836 65.6585 17.3464 66.3582 18.3287C67.06 19.3141 67.4178 20.748 67.4178 22.6422C67.4177 24.551 67.0491 26.4168 66.3123 28.2399V28.2408C65.5826 30.0606 64.5549 31.7318 63.2303 33.2526C61.9136 34.7684 60.3749 36.0337 58.6141 37.0504L55.118 39.069L55.0682 39.0983V47.066L48.9559 50.5944L48.8651 24.0436L58.9412 18.2194C60.6583 17.2281 62.15 16.759 63.4178 16.7975ZM59.285 24.069C58.7384 24.0742 58.0893 24.3 57.3426 24.7311L55.118 26.0162L55.0682 26.0446V33.6676L55.2176 33.5807L57.4422 32.2965C58.1924 31.8634 58.8332 31.3432 59.3631 30.736H59.3641C59.8338 30.1935 60.2076 29.6076 60.4842 28.9791L60.5965 28.7076C60.8884 27.9713 61.0349 27.2158 61.035 26.443C61.035 25.7624 60.9235 25.2188 60.6902 24.8248L60.5828 24.6647C60.2815 24.2478 59.8436 24.0511 59.2869 24.069H59.285Z" fill="#7A7A7A" stroke="#7A7A7A" stroke-width="0.2"/>
<path d="M48.7811 24.0248L48.8036 24.0385H48.91V50.6693L41.6434 46.1605V19.9349L48.7811 24.0248Z" fill="#383838" stroke="#7A7A7A" stroke-width="0.2"/>
<path d="M38.7117 36.0305L40.1023 38.4358L38.8865 62.8264L31.3669 58.8635L31.405 31.9192L38.7117 36.0305Z" fill="#383838" stroke="#7A7A7A" stroke-width="0.2"/>
<path d="M45.0824 32.4244L38.7552 36.1022L31.2113 31.8278L37.9486 27.9879L45.0824 32.4244Z" fill="#383838" stroke="#7A7A7A" stroke-width="0.2"/>
<path d="M44.9957 32.4108V59.1803L38.602 62.7281V36.0846L44.9957 32.4108Z" fill="#222222" stroke="#7A7A7A" stroke-width="0.2"/>
<rect x="0.173205" width="61.7999" height="61.7999" transform="matrix(0.866025 -0.5 0.866025 0.5 2.34504 111.527)" fill="#222222" stroke="#6D6D6D" stroke-width="0.2"/>
<path d="M56.0084 124.32L55.5245 124.804L56.0084 125.288L56.4923 124.804L56.0084 124.32ZM56.0084 141.04L56.4923 140.557L56.0084 140.073L55.5245 140.557L56.0084 141.04ZM56.0084 124.804L55.9245 124.804L55.9245 124.968L56.0084 124.968L56.0922 124.968L56.0922 124.804L56.0084 124.804ZM56.0084 125.625L55.9245 125.625L55.9245 125.953L56.0084 125.953L56.0922 125.953L56.0922 125.625L56.0084 125.625ZM56.0084 126.609L55.9245 126.609L55.9245 126.937L56.0084 126.937L56.0922 126.937L56.0922 126.609L56.0084 126.609ZM56.0084 127.594L55.9245 127.594L55.9245 127.922L56.0084 127.922L56.0922 127.922L56.0922 127.594L56.0084 127.594ZM56.0084 128.578L55.9245 128.578L55.9245 128.906L56.0084 128.906L56.0922 128.906L56.0922 128.578L56.0084 128.578ZM56.0084 129.563L55.9245 129.563L55.9245 129.891L56.0084 129.891L56.0922 129.891L56.0922 129.563L56.0084 129.563ZM56.0084 130.547L55.9245 130.547L55.9245 130.875L56.0084 130.875L56.0922 130.875L56.0922 130.547L56.0084 130.547ZM56.0084 131.532L55.9245 131.532L55.9245 131.86L56.0084 131.86L56.0922 131.86L56.0922 131.532L56.0084 131.532ZM56.0084 132.516L55.9245 132.516L55.9245 132.845L56.0084 132.845L56.0922 132.845L56.0922 132.516L56.0084 132.516ZM56.0084 133.501L55.9245 133.501L55.9245 133.829L56.0084 133.829L56.0922 133.829L56.0922 133.501L56.0084 133.501ZM56.0084 134.485L55.9245 134.485L55.9245 134.814L56.0084 134.814L56.0922 134.814L56.0922 134.485L56.0084 134.485ZM56.0084 135.47L55.9245 135.47L55.9245 135.798L56.0084 135.798L56.0922 135.798L56.0922 135.47L56.0084 135.47ZM56.0084 136.454L55.9245 136.454L55.9245 136.783L56.0084 136.783L56.0922 136.783L56.0922 136.454L56.0084 136.454ZM56.0084 137.439L55.9245 137.439L55.9245 137.767L56.0084 137.767L56.0922 137.767L56.0922 137.439L56.0084 137.439ZM56.0084 138.423L55.9245 138.423L55.9245 138.752L56.0084 138.752L56.0922 138.752L56.0922 138.423L56.0084 138.423ZM56.0084 139.408L55.9245 139.408L55.9245 139.736L56.0084 139.736L56.0922 139.736L56.0922 139.408L56.0084 139.408ZM56.0084 140.392L55.9245 140.392L55.9245 140.557L56.0084 140.557L56.0922 140.557L56.0922 140.392L56.0084 140.392Z" fill="#6D6D6D"/>
<path d="M2.76642 93.7259L2.28252 94.2098L2.76642 94.6937L3.25032 94.2098L2.76642 93.7259ZM2.76642 110.421L3.25032 109.937L2.76642 109.453L2.28252 109.937L2.76642 110.421ZM2.76642 94.2098L2.6826 94.2098L2.6826 94.3737L2.76642 94.3737L2.85023 94.3737L2.85023 94.2098L2.76642 94.2098ZM2.76642 95.029L2.6826 95.029L2.6826 95.3566L2.76642 95.3566L2.85023 95.3566L2.85023 95.029L2.76642 95.029ZM2.76642 96.0119L2.6826 96.0119L2.6826 96.3396L2.76642 96.3396L2.85023 96.3396L2.85023 96.0119L2.76642 96.0119ZM2.76642 96.9949L2.6826 96.9949L2.6826 97.3225L2.76642 97.3225L2.85023 97.3225L2.85023 96.9949L2.76642 96.9949ZM2.76642 97.9778L2.6826 97.9778L2.6826 98.3055L2.76642 98.3055L2.85023 98.3055L2.85023 97.9778L2.76642 97.9778ZM2.76642 98.9608L2.6826 98.9608L2.6826 99.2884L2.76642 99.2884L2.85023 99.2884L2.85023 98.9608L2.76642 98.9608ZM2.76642 99.9437L2.6826 99.9437L2.6826 100.271L2.76642 100.271L2.85023 100.271L2.85023 99.9437L2.76642 99.9437ZM2.76642 100.927L2.6826 100.927L2.6826 101.254L2.76642 101.254L2.85023 101.254L2.85023 100.927L2.76642 100.927ZM2.76642 101.91L2.6826 101.91L2.6826 102.237L2.76642 102.237L2.85023 102.237L2.85023 101.91L2.76642 101.91ZM2.76642 102.893L2.6826 102.893L2.6826 103.22L2.76642 103.22L2.85023 103.22L2.85023 102.893L2.76642 102.893ZM2.76642 103.876L2.6826 103.876L2.6826 104.203L2.76642 104.203L2.85023 104.203L2.85023 103.876L2.76642 103.876ZM2.76642 104.858L2.6826 104.858L2.6826 105.186L2.76642 105.186L2.85023 105.186L2.85023 104.858L2.76642 104.858ZM2.76642 105.841L2.6826 105.841L2.6826 106.169L2.76642 106.169L2.85023 106.169L2.85023 105.841L2.76642 105.841ZM2.76642 106.824L2.6826 106.824L2.6826 107.152L2.76642 107.152L2.85023 107.152L2.85023 106.824L2.76642 106.824ZM2.76642 107.807L2.6826 107.807L2.6826 108.135L2.76642 108.135L2.85023 108.135L2.85023 107.807L2.76642 107.807ZM2.76642 108.79L2.6826 108.79L2.6826 109.118L2.76642 109.118L2.85023 109.118L2.85023 108.79L2.76642 108.79ZM2.76642 109.773L2.6826 109.773L2.6826 109.937L2.76642 109.937L2.85023 109.937L2.85023 109.773L2.76642 109.773Z" fill="#6D6D6D"/>
<path d="M109.267 93.7259L108.783 94.2098L109.267 94.6937L109.751 94.2098L109.267 93.7259ZM109.267 110.421L109.751 109.937L109.267 109.453L108.783 109.937L109.267 110.421ZM109.267 94.2098L109.183 94.2098L109.183 94.3737L109.267 94.3737L109.351 94.3737L109.351 94.2098L109.267 94.2098ZM109.267 95.029L109.183 95.029L109.183 95.3566L109.267 95.3566L109.351 95.3566L109.351 95.029L109.267 95.029ZM109.267 96.0119L109.183 96.0119L109.183 96.3396L109.267 96.3396L109.351 96.3396L109.351 96.0119L109.267 96.0119ZM109.267 96.9949L109.183 96.9949L109.183 97.3225L109.267 97.3225L109.351 97.3225L109.351 96.9949L109.267 96.9949ZM109.267 97.9778L109.183 97.9778L109.183 98.3055L109.267 98.3055L109.351 98.3055L109.351 97.9778L109.267 97.9778ZM109.267 98.9608L109.183 98.9608L109.183 99.2884L109.267 99.2884L109.351 99.2884L109.351 98.9608L109.267 98.9608ZM109.267 99.9437L109.183 99.9437L109.183 100.271L109.267 100.271L109.351 100.271L109.351 99.9437L109.267 99.9437ZM109.267 100.927L109.183 100.927L109.183 101.254L109.267 101.254L109.351 101.254L109.351 100.927L109.267 100.927ZM109.267 101.91L109.183 101.91L109.183 102.237L109.267 102.237L109.351 102.237L109.351 101.91L109.267 101.91ZM109.267 102.893L109.183 102.893L109.183 103.22L109.267 103.22L109.351 103.22L109.351 102.893L109.267 102.893ZM109.267 103.876L109.183 103.876L109.183 104.203L109.267 104.203L109.351 104.203L109.351 103.876L109.267 103.876ZM109.267 104.858L109.183 104.858L109.183 105.186L109.267 105.186L109.351 105.186L109.351 104.858L109.267 104.858ZM109.267 105.841L109.183 105.841L109.183 106.169L109.267 106.169L109.351 106.169L109.351 105.841L109.267 105.841ZM109.267 106.824L109.183 106.824L109.183 107.152L109.267 107.152L109.351 107.152L109.351 106.824L109.267 106.824ZM109.267 107.807L109.183 107.807L109.183 108.135L109.267 108.135L109.351 108.135L109.351 107.807L109.267 107.807ZM109.267 108.79L109.183 108.79L109.183 109.118L109.267 109.118L109.351 109.118L109.351 108.79L109.267 108.79ZM109.267 109.773L109.183 109.773L109.183 109.937L109.267 109.937L109.351 109.937L109.351 109.773L109.267 109.773Z" fill="#6D6D6D"/>
<path d="M109.508 91.9998L55.6964 122.968L2.51477 91.9802L55.9523 61.1423L109.508 91.9998Z" fill="#222222" stroke="#6D6D6D" stroke-width="0.2"/>
<path d="M41.6294 94.234L5.7937 20.666C24.4717 -3.27708 82.581 -4.9421 106.237 21.4789L69.3065 91.869L69.4191 93.6385C69.1299 94.0349 68.81 94.408 68.4624 94.7543L67.4497 95.763C66.6044 96.6051 65.6076 97.2799 64.5117 97.7519C63.7518 98.0793 62.9522 98.3057 62.1334 98.4253L56.4294 99.2588C54.7757 99.5004 53.0897 99.394 51.4795 98.9462L48.2825 98.0572C46.6824 97.6122 45.192 96.84 43.9058 95.7892L43.6226 95.5579C43.0712 95.1075 42.4809 94.7071 41.8586 94.3613L41.6294 94.234Z" fill="url(#paint0_linear_4163_27947)" fill-opacity="0.2"/>
<path d="M90.3324 92.8848L55.8099 112.752L21.6898 92.8721L55.974 73.0869L90.3324 92.8848Z" fill="#383838" stroke="#7A7A7A" stroke-width="0.167379"/>
<path opacity="0.1" d="M90.5278 92.9016L89.5229 93.4788L56.0004 74.1643L22.5473 93.469L21.5502 92.8879L56.0004 73.0071L90.5278 92.9016Z" fill="white"/>
<ellipse cx="56.0122" cy="92.0483" rx="14.4198" ry="7.93822" fill="#7A7A7A"/>
<g opacity="0.5">
<ellipse cx="74.1015" cy="106.456" rx="1.50918" ry="0.830815" fill="#7A7A7A"/>
<ellipse opacity="0.4" cx="78.1015" cy="104.456" rx="1.50918" ry="0.830815" fill="#7A7A7A"/>
<ellipse opacity="0.2" cx="82.1015" cy="102.456" rx="1.50918" ry="0.830815" fill="#7A7A7A"/>
<ellipse opacity="0.1" cx="86.1015" cy="100.456" rx="1.50918" ry="0.830815" fill="#7A7A7A"/>
</g>
<ellipse cx="56.0124" cy="91.1119" rx="13.7035" ry="7.243" fill="#383838"/>
<ellipse opacity="0.5" cx="56.0123" cy="91.1121" rx="10.216" ry="5.39967" fill="#222222"/>
<ellipse cx="56.0123" cy="91.112" rx="4.89862" ry="2.58916" fill="#222222"/>
<path opacity="0.4" d="M78.9208 61.306C81.8509 63.7157 83.5597 66.6135 83.5597 69.731C83.5597 78.1065 71.2263 84.8961 56.0123 84.8961C40.7983 84.8961 28.465 78.1065 28.465 69.731C28.465 66.1619 30.7048 62.8806 34.4528 60.2902" stroke="url(#paint1_linear_4163_27947)" stroke-width="0.446344"/>
<path opacity="0.4" d="M73.9915 76.0093C76.2911 77.9005 77.6322 80.1748 77.6322 82.6215C77.6322 89.1947 67.9526 94.5234 56.0123 94.5234C44.0719 94.5234 34.3924 89.1947 34.3924 82.6215C34.3924 79.8203 36.1503 77.2451 39.0918 75.212" stroke="url(#paint2_linear_4163_27947)" stroke-width="0.446344"/>
<path opacity="0.4" d="M82.1512 47.0063C85.5997 49.8424 87.6108 53.2529 87.6108 56.9219C87.6108 66.779 73.0955 74.7698 55.1899 74.7698C37.2844 74.7698 22.769 66.779 22.769 56.9219C22.769 52.7213 25.4051 48.8596 29.8162 45.8108" stroke="url(#paint3_linear_4163_27947)" stroke-width="0.446344"/>
<defs>
<linearGradient id="paint0_linear_4163_27947" x1="56.0152" y1="100.366" x2="56.0152" y2="28.4061" gradientUnits="userSpaceOnUse">
<stop offset="0.481737" stop-color="#7A7A7A"/>
<stop offset="1" stop-color="#111111"/>
</linearGradient>
<linearGradient id="paint1_linear_4163_27947" x1="56.0123" y1="54.5661" x2="56.0123" y2="86.7224" gradientUnits="userSpaceOnUse">
<stop offset="0.239618" stop-color="#222222"/>
<stop offset="0.959626" stop-color="#7A7A7A"/>
</linearGradient>
<linearGradient id="paint2_linear_4163_27947" x1="56.0123" y1="70.7196" x2="56.0123" y2="95.9567" gradientUnits="userSpaceOnUse">
<stop offset="0.239618" stop-color="#222222"/>
<stop offset="0.959626" stop-color="#7A7A7A"/>
</linearGradient>
<linearGradient id="paint3_linear_4163_27947" x1="55.1899" y1="39.074" x2="55.1899" y2="76.9192" gradientUnits="userSpaceOnUse">
<stop offset="0.239618" stop-color="#222222"/>
<stop offset="0.959626" stop-color="#7A7A7A"/>
</linearGradient>
</defs>
</svg>
