<svg width="160" height="160" viewBox="0 0 160 160" fill="none" xmlns="http://www.w3.org/2000/svg">
<path d="M16.5784 58.9999L72.8182 26.5298L107.474 46.5384L51.2343 79.0085L16.5784 58.9999Z" fill="#222222" stroke="#6D6D6D" stroke-width="0.591026"/>
<path d="M107.223 46.4957V100.906L51.5875 133.027V78.6168L107.223 46.4957Z" fill="#222222" stroke="#6D6D6D" stroke-width="0.591026"/>
<path d="M17.0518 58.6951L51.9223 78.8276V133.251L17.0518 113.119L17.0518 58.6951Z" fill="#222222" stroke="#6D6D6D" stroke-width="0.591026"/>
<rect width="47.944" height="41.1755" transform="matrix(0.866025 -0.5 0.866025 0.5 58.4235 105.298)" fill="#383838" stroke="#7A7A7A" stroke-width="0.591026"/>
<ellipse cx="97.0883" cy="94.7007" rx="8.52249" ry="4.6917" fill="#7A7A7A"/>
<ellipse cx="97.0884" cy="94.1476" rx="8.09915" ry="4.2808" fill="#383838"/>
<ellipse opacity="0.5" cx="97.0884" cy="94.1476" rx="6.03793" ry="3.19134" fill="#222222"/>
<ellipse cx="97.0884" cy="94.1476" rx="2.89521" ry="1.53026" fill="#222222"/>
<path d="M100.386 81.3173V64.4835L58.4235 88.7108V105.545L100.386 81.3173Z" fill="#222222" stroke="#6D6D6D" stroke-width="0.591026"/>
<path d="M100.078 81.4955V64.8688L135.848 85.5208V102.148L100.078 81.4955Z" fill="#222222" stroke="#6D6D6D" stroke-width="0.591026"/>
<path d="M135.848 102.309V85.7296L94.5429 109.577V126.156L135.848 102.309Z" fill="#222222" stroke="#6D6D6D" stroke-width="0.591026"/>
<path d="M121.072 103.593V101.096L108.661 108.262V110.759L121.072 103.593Z" fill="#222222" stroke="#6D6D6D" stroke-width="0.591026"/>
<path d="M58.4235 105.372V88.9199L94.4761 109.735V126.187L58.4235 105.372Z" fill="#222222" stroke="#6D6D6D" stroke-width="0.591026"/>
<path d="M137.621 83.9018L142.645 81.0013" stroke="#6D6D6D" stroke-width="0.591026"/>
<path d="M135.98 83.2559L136.043 77.4553" stroke="#6D6D6D" stroke-width="0.591026"/>
<path d="M137.621 86.4698L143.422 86.4642" stroke="#6D6D6D" stroke-width="0.591026"/>
<ellipse cx="51.6268" cy="72.8226" rx="1.47757" ry="0.886539" fill="#7A7A7A"/>
<ellipse opacity="0.4" cx="55.1729" cy="71.0495" rx="1.47757" ry="0.886539" fill="#7A7A7A"/>
<ellipse opacity="0.2" cx="58.7191" cy="69.2764" rx="1.47757" ry="0.886539" fill="#7A7A7A"/>
<ellipse opacity="0.1" cx="62.2652" cy="67.5034" rx="1.47757" ry="0.886539" fill="#7A7A7A"/>
</svg>
