<svg width="160" height="160" viewBox="0 0 160 160" fill="none" xmlns="http://www.w3.org/2000/svg">
<path d="M33.6442 87.9243L83.7878 58.9739V80.2257L33.6442 109.176V87.9243Z" fill="white" stroke="#7A7A7A" stroke-width="0.255721"/>
<path d="M45.2326 83.4443V100.371L35.6513 105.903V88.9761L45.2326 83.4443Z" fill="white" stroke="#7A7A7A" stroke-width="0.17048"/>
<path opacity="0.6" d="M39.3133 91.8962L40.598 93.7727L40.6623 93.8655L40.7266 93.6985L42.0231 90.3318L43.1073 89.7058L41.3321 94.0178L41.3076 94.0769L41.3321 94.1086L43.1225 96.3611L42.0374 96.9875L40.7257 95.2322L40.6623 95.1477L40.5988 95.3054L39.2914 98.573L38.2021 99.2019L39.9739 94.8918L39.9975 94.8333L39.9739 94.802L38.2249 92.5247L39.3133 91.8962Z" fill="#7A7A7A" stroke="#7A7A7A" stroke-width="0.17048"/>
<rect x="0.0738202" y="0.0426201" width="12.061" height="1.77394" transform="matrix(0.866025 -0.5 0 1 46.6451 82.8418)" fill="white" stroke="#7A7A7A" stroke-width="0.17048"/>
<path d="M67.2366 76.1669V77.9413L46.8731 89.6981V87.9237L67.2366 76.1669Z" fill="white" stroke="#7A7A7A" stroke-width="0.17048"/>
<rect width="8.09395" height="0.587189" transform="matrix(0.866025 -0.5 0 1 46.7995 98.1002)" fill="#7A7A7A"/>
<rect width="8.09395" height="0.587189" transform="matrix(0.866025 -0.5 0 1 54.6315 93.5784)" fill="#7A7A7A"/>
<rect width="8.09395" height="0.587189" transform="matrix(0.866025 -0.5 0 1 46.7996 95.543)" fill="#7A7A7A"/>
<rect width="8.09395" height="0.587189" transform="matrix(0.866025 -0.5 0 1 54.6315 91.0212)" fill="#7A7A7A"/>
<rect width="8.09395" height="0.587189" transform="matrix(0.866025 -0.5 0 1 62.4635 89.0566)" fill="#7A7A7A"/>
<rect width="8.09395" height="0.587189" transform="matrix(0.866025 -0.5 0 1 70.2955 84.5348)" fill="#7A7A7A"/>
<circle cx="0.949647" cy="0.949647" r="0.949647" transform="matrix(0.866025 -0.5 0 1 80.7731 62.8625)" fill="#D9D9D9"/>
<mask id="path-13-inside-1_5580_37812" fill="white">
<path d="M79.885 60.1661C92.2542 53.025 102.281 58.8143 102.281 73.0968V73.2648C102.203 87.5156 92.2058 104.776 79.885 111.89L79.7395 111.973C67.4372 118.985 57.488 113.186 57.4875 98.9591C57.4877 84.6762 67.5158 67.3077 79.885 60.1661ZM95.1145 77.2355C95.1143 67.5235 88.2959 63.5866 79.885 68.4425C71.4742 73.2987 64.6559 85.1084 64.6555 94.8204C64.6558 104.532 71.4742 108.469 79.885 103.613C88.2956 98.7572 95.114 86.9474 95.1145 77.2355Z"/>
</mask>
<path d="M79.885 60.1661C92.2542 53.025 102.281 58.8143 102.281 73.0968V73.2648C102.203 87.5156 92.2058 104.776 79.885 111.89L79.7395 111.973C67.4372 118.985 57.488 113.186 57.4875 98.9591C57.4877 84.6762 67.5158 67.3077 79.885 60.1661ZM95.1145 77.2355C95.1143 67.5235 88.2959 63.5866 79.885 68.4425C71.4742 73.2987 64.6559 85.1084 64.6555 94.8204C64.6558 104.532 71.4742 108.469 79.885 103.613C88.2956 98.7572 95.114 86.9474 95.1145 77.2355Z" fill="#E9E9E9"/>
<path d="M79.885 60.1661L79.7998 60.0185L79.7998 60.0185L79.885 60.1661ZM102.281 73.0968H102.452V73.0968L102.281 73.0968ZM102.281 73.2648L102.452 73.2657V73.2648H102.281ZM79.885 111.89L79.9695 112.038L79.9703 112.037L79.885 111.89ZM79.7395 111.973L79.8239 112.121L79.824 112.121L79.7395 111.973ZM57.4875 98.9591L57.3171 98.9591V98.9591L57.4875 98.9591ZM95.1145 77.2355L95.285 77.2355V77.2355L95.1145 77.2355ZM79.885 68.4425L79.7998 68.2949L79.7998 68.2949L79.885 68.4425ZM64.6555 94.8204L64.485 94.8204V94.8204L64.6555 94.8204ZM79.885 103.613L79.9702 103.761L79.9703 103.761L79.885 103.613ZM79.885 60.1661L79.9702 60.3138C86.1238 56.7611 91.6548 56.4464 95.6364 58.7452C99.618 61.044 102.111 65.9914 102.111 73.0968L102.281 73.0968L102.452 73.0968C102.452 65.9197 99.9311 60.8311 95.8068 58.4499C91.6826 56.0688 86.0154 56.43 79.7998 60.0185L79.885 60.1661ZM102.281 73.0968H102.111V73.2648H102.281H102.452V73.0968H102.281ZM102.281 73.2648L102.111 73.2638C102.072 80.3526 99.5649 88.2015 95.5267 95.1682C91.4884 102.135 85.9283 108.204 79.7998 111.742L79.885 111.89L79.9703 112.037C86.1625 108.462 91.7614 102.344 95.8217 95.3392C99.8819 88.3345 102.413 80.4277 102.452 73.2657L102.281 73.2648ZM79.885 111.89L79.8005 111.742L79.655 111.825L79.7395 111.973L79.824 112.121L79.9695 112.038L79.885 111.89ZM79.7395 111.973L79.6551 111.825C73.5353 115.313 68.0405 115.594 64.0863 113.283C60.1319 110.973 57.6582 106.037 57.658 98.9591L57.4875 98.9591L57.3171 98.9591C57.3173 106.108 59.8184 111.185 63.9143 113.578C68.0104 115.971 73.6414 115.645 79.8239 112.121L79.7395 111.973ZM57.4875 98.9591L57.658 98.9591C57.6581 91.8546 60.1533 83.971 64.1955 76.9699C68.2377 69.9687 73.8176 63.8661 79.9703 60.3138L79.885 60.1661L79.7998 60.0185C73.5831 63.6078 67.9644 69.7602 63.9002 76.7994C59.8361 83.8386 57.3172 91.7807 57.3171 98.9591L57.4875 98.9591ZM95.1145 77.2355L95.285 77.2355C95.2849 72.3436 93.5663 68.8608 90.739 67.2284C87.9117 65.596 84.0363 65.849 79.7998 68.2949L79.885 68.4425L79.9702 68.5901C84.1447 66.1801 87.8839 65.9736 90.5685 67.5237C93.2532 69.0737 94.9439 72.4153 94.944 77.2355L95.1145 77.2355ZM79.885 68.4425L79.7998 68.2949C75.5624 70.7414 71.7357 74.9328 68.9687 79.7253C66.2017 84.5178 64.4852 89.9274 64.485 94.8204L64.6555 94.8204L64.826 94.8204C64.8262 90.0014 66.519 84.6502 69.264 79.8957C72.009 75.1413 75.7969 70.9997 79.9703 68.5901L79.885 68.4425ZM64.6555 94.8204L64.485 94.8204C64.4852 99.7122 66.2038 103.195 69.0311 104.827C71.8584 106.46 75.7338 106.207 79.9702 103.761L79.885 103.613L79.7998 103.466C75.6254 105.876 71.8862 106.082 69.2016 104.532C66.5169 102.982 64.8261 99.6404 64.826 94.8204L64.6555 94.8204ZM79.885 103.613L79.9703 103.761C84.2076 101.314 88.0342 97.1231 90.8012 92.3306C93.5682 87.5381 95.2847 82.1284 95.285 77.2355L95.1145 77.2355L94.944 77.2355C94.9438 82.0545 93.2509 87.4057 90.5059 92.1601C87.7609 96.9145 83.973 101.056 79.7998 103.466L79.885 103.613Z" fill="#7A7A7A" mask="url(#path-13-inside-1_5580_37812)"/>
<path d="M64.3445 108.156L54.3777 120.564L52.8115 118.34L62.7784 105.932L64.3445 108.156Z" fill="#E9E9E9"/>
<path d="M101.297 61.488L97.3179 68.0935L83.4819 67.2751L66.4478 89.1453L60.646 94.8728L79.0933 64.7458L95.2856 58.366L101.297 61.488Z" fill="#E9E9E9"/>
<path d="M58.0712 118.555L39.5413 141.993L35.9504 137.101L54.4803 113.664L58.0712 118.555Z" fill="#E9E9E9" stroke="#7A7A7A" stroke-width="0.17048"/>
<path d="M65.556 112.288L59.5667 119.601L55.5638 115.004L59.9847 109.514L65.556 112.288Z" fill="#E9E9E9" stroke="#7A7A7A" stroke-width="0.17048"/>
<path d="M68.9195 110.663L59.0811 122.911L57.5884 120.793L67.4268 108.544L68.9195 110.663Z" fill="#7A7A7A" stroke="#7A7A7A" stroke-width="0.17048"/>
<mask id="path-20-inside-2_5580_37812" fill="white">
<path d="M84.7363 62.6051C97.1056 55.464 107.133 61.2531 107.133 75.5358V75.7037C107.055 89.9547 97.0573 107.215 84.7363 114.329L84.5908 114.412C72.288 121.425 62.3389 115.625 62.3389 101.398C62.3389 87.115 72.3668 69.7467 84.7363 62.6051ZM99.9658 79.6744C99.9658 69.9622 93.1473 66.0255 84.7363 70.8815C76.3252 75.7376 69.5059 87.548 69.5059 97.2604C69.5061 106.972 76.3253 110.909 84.7363 106.053C93.1473 101.197 99.9657 89.3867 99.9658 79.6744Z"/>
</mask>
<path d="M84.7363 62.6051C97.1056 55.464 107.133 61.2531 107.133 75.5358V75.7037C107.055 89.9547 97.0573 107.215 84.7363 114.329L84.5908 114.412C72.288 121.425 62.3389 115.625 62.3389 101.398C62.3389 87.115 72.3668 69.7467 84.7363 62.6051ZM99.9658 79.6744C99.9658 69.9622 93.1473 66.0255 84.7363 70.8815C76.3252 75.7376 69.5059 87.548 69.5059 97.2604C69.5061 106.972 76.3253 110.909 84.7363 106.053C93.1473 101.197 99.9657 89.3867 99.9658 79.6744Z" fill="white"/>
<path d="M84.7363 62.6051L84.6511 62.4575L84.6511 62.4575L84.7363 62.6051ZM107.133 75.5358H107.303V75.5358L107.133 75.5358ZM107.133 75.7037L107.303 75.7047V75.7037H107.133ZM84.7363 114.329L84.8208 114.477L84.8216 114.476L84.7363 114.329ZM84.5908 114.412L84.6752 114.56L84.6753 114.56L84.5908 114.412ZM62.3389 101.398H62.1684H62.3389ZM99.9658 79.6744L100.136 79.6744V79.6744H99.9658ZM84.7363 70.8815L84.6511 70.7338L84.6511 70.7338L84.7363 70.8815ZM69.5059 97.2604H69.3354V97.2604L69.5059 97.2604ZM84.7363 106.053L84.8216 106.201H84.8216L84.7363 106.053ZM84.7363 62.6051L84.8216 62.7527C90.9751 59.2001 96.5061 58.8854 100.488 61.1841C104.469 63.4829 106.962 68.4303 106.962 75.5358L107.133 75.5358L107.303 75.5358C107.303 68.3586 104.783 63.27 100.658 60.8889C96.5339 58.5077 90.8668 58.869 84.6511 62.4575L84.7363 62.6051ZM107.133 75.5358H106.962V75.7037H107.133H107.303V75.5358H107.133ZM107.133 75.7037L106.962 75.7028C106.924 82.7917 104.416 90.6405 100.378 97.6072C96.3399 104.574 90.7797 110.643 84.6511 114.181L84.7363 114.329L84.8216 114.476C91.014 110.901 96.6129 104.783 100.673 97.7782C104.733 90.7735 107.264 82.8667 107.303 75.7047L107.133 75.7037ZM84.7363 114.329L84.6519 114.181L84.5063 114.264L84.5908 114.412L84.6753 114.56L84.8208 114.477L84.7363 114.329ZM84.5908 114.412L84.5064 114.264C78.3864 117.752 72.8915 118.033 68.9373 115.723C64.9829 113.412 62.5094 108.476 62.5093 101.398H62.3389H62.1684C62.1684 108.547 64.6695 113.624 68.7653 116.017C72.8614 118.41 78.4925 118.084 84.6752 114.56L84.5908 114.412ZM62.3389 101.398H62.5093C62.5094 94.2935 65.0045 86.4099 69.0467 79.4088C73.0889 72.4076 78.6688 66.305 84.8216 62.7527L84.7363 62.6051L84.6511 62.4575C78.4343 66.0467 72.8156 72.1991 68.7514 79.2383C64.6872 86.2775 62.1684 94.2196 62.1684 101.398H62.3389ZM99.9658 79.6744H100.136C100.136 74.7825 98.4178 71.2997 95.5904 69.6673C92.7631 68.0349 88.8877 68.2879 84.6511 70.7338L84.7363 70.8815L84.8216 71.0291C88.996 68.6191 92.7353 68.4125 95.42 69.9625C98.1046 71.5126 99.7953 74.8542 99.7953 79.6744H99.9658ZM84.7363 70.8815L84.6511 70.7338C80.4135 73.1804 76.5865 77.3719 73.8193 82.1646C71.0521 86.9573 69.3354 92.3672 69.3354 97.2604H69.5059H69.6763C69.6763 92.4412 71.3693 87.0897 74.1146 82.3351C76.8598 77.5805 80.648 73.4387 84.8216 71.0291L84.7363 70.8815ZM69.5059 97.2604L69.3354 97.2604C69.3355 102.152 71.0543 105.635 73.8818 107.268C76.7094 108.9 80.585 108.647 84.8216 106.201L84.7363 106.053L84.6511 105.906C80.4767 108.316 76.7372 108.522 74.0523 106.972C71.3674 105.422 69.6765 102.08 69.6763 97.2604L69.5059 97.2604ZM84.7363 106.053L84.8216 106.201C89.0591 103.754 92.8858 99.5629 95.6528 94.7701C98.4198 89.9774 100.136 84.5675 100.136 79.6744L99.9658 79.6744L99.7953 79.6744C99.7953 84.4936 98.1025 89.845 95.3575 94.5997C92.6125 99.3543 88.8246 103.496 84.6511 105.906L84.7363 106.053Z" fill="#7A7A7A" mask="url(#path-20-inside-2_5580_37812)"/>
<path d="M59.2458 115.771L44.778 139.72L40.8366 139.578L35.9304 137.104C35.8339 137.056 35.8057 136.931 35.8727 136.846L54.5319 113.355L59.2458 115.771Z" fill="white" stroke="#7A7A7A" stroke-width="0.17048"/>
<path d="M40.7007 139.554L44.146 144.352L39.5894 142.041L35.9937 137.176L40.7007 139.554Z" fill="white" stroke="#7A7A7A" stroke-width="0.17048"/>
<path d="M62.9223 120.994L44.3924 144.432L40.8014 139.54L59.3313 116.103L62.9223 120.994Z" fill="#7A7A7A" stroke="#7A7A7A" stroke-width="0.17048"/>
<path d="M63.0987 42.2705L113.242 13.3201V34.5719L63.0987 63.5224V42.2705Z" fill="white" stroke="#7A7A7A" stroke-width="0.255721"/>
<path d="M74.6872 37.7904V54.7172L65.1059 60.2489V43.3221L74.6872 37.7904Z" fill="#E9E9E9" stroke="#7A7A7A" stroke-width="0.17048"/>
<path d="M86.6089 31.1628V32.9373L76.1634 38.968V37.1936L86.6089 31.1628Z" fill="white" stroke="#7A7A7A" stroke-width="0.17048"/>
<path d="M96.6912 30.5129V32.2874L76.3277 44.0442V42.2698L96.6912 30.5129Z" fill="white" stroke="#7A7A7A" stroke-width="0.17048"/>
<rect width="8.09395" height="0.587189" transform="matrix(0.866025 -0.5 0 1 76.2541 52.4464)" fill="#7A7A7A"/>
<rect width="8.09395" height="0.587189" transform="matrix(0.866025 -0.5 0 1 84.0861 47.9247)" fill="#7A7A7A"/>
<rect width="8.09395" height="0.587189" transform="matrix(0.866025 -0.5 0 1 76.2542 49.8892)" fill="#7A7A7A"/>
<rect width="8.09395" height="0.587189" transform="matrix(0.866025 -0.5 0 1 84.0861 45.3674)" fill="#7A7A7A"/>
<rect width="8.09395" height="0.587189" transform="matrix(0.866025 -0.5 0 1 91.9181 43.4028)" fill="#7A7A7A"/>
<rect width="8.09395" height="0.587189" transform="matrix(0.866025 -0.5 0 1 99.7501 38.881)" fill="#7A7A7A"/>
<circle cx="0.949647" cy="0.949647" r="0.949647" transform="matrix(0.866025 -0.5 0 1 110.228 17.2087)" fill="#7A7A7A"/>
<path d="M76.2121 102.192L126.356 73.2412V94.4931L76.2121 123.444V102.192Z" fill="white" stroke="#7A7A7A" stroke-width="0.255721"/>
<path d="M87.8005 97.7115V114.638L78.2193 120.17V103.243L87.8005 97.7115Z" fill="#E9E9E9" stroke="#7A7A7A" stroke-width="0.17048"/>
<path d="M99.6765 91.0837V92.8582L89.2309 98.8889V97.1145L99.6765 91.0837Z" fill="white" stroke="#7A7A7A" stroke-width="0.17048"/>
<path d="M109.805 90.4341V92.2085L89.4411 103.965V102.191L109.805 90.4341Z" fill="white" stroke="#7A7A7A" stroke-width="0.17048"/>
<rect width="8.09395" height="0.587189" transform="matrix(0.866025 -0.5 0 1 89.3675 112.367)" fill="#7A7A7A"/>
<rect width="8.09395" height="0.587189" transform="matrix(0.866025 -0.5 0 1 97.1995 107.846)" fill="#7A7A7A"/>
<rect width="8.09395" height="0.587189" transform="matrix(0.866025 -0.5 0 1 89.3675 109.81)" fill="#7A7A7A"/>
<rect width="8.09395" height="0.587189" transform="matrix(0.866025 -0.5 0 1 97.1995 105.289)" fill="#7A7A7A"/>
<rect width="8.09395" height="0.587189" transform="matrix(0.866025 -0.5 0 1 105.031 103.324)" fill="#7A7A7A"/>
<rect width="8.09395" height="0.587189" transform="matrix(0.866025 -0.5 0 1 112.863 98.8021)" fill="#7A7A7A"/>
<circle cx="0.949647" cy="0.949647" r="0.949647" transform="matrix(0.866025 -0.5 0 1 123.341 77.1298)" fill="#7A7A7A"/>
</svg>
