<svg width="112" height="146" viewBox="0 0 112 146" fill="none" xmlns="http://www.w3.org/2000/svg">
<path d="M76.2196 21.6753L66.1955 58.5884L60.1312 39.3856L60.1079 39.3115L60.0308 39.3159L48.2887 39.8885L58.2324 3.45751L76.2196 21.6753Z" fill="white" stroke="#9F9F9F" stroke-width="0.2"/>
<path d="M88.6479 18.2786C88.7156 18.3457 88.6849 18.4609 88.5928 18.4853L76.2756 21.7423L58.2121 3.45519C58.2102 3.45326 58.2097 3.45165 58.2093 3.4504C58.2089 3.44882 58.2084 3.44649 58.209 3.44423C58.2096 3.44193 58.2112 3.44028 58.2124 3.43909C58.2133 3.43816 58.2145 3.4371 58.2172 3.43635L70.4221 0.216662L88.6479 18.2786Z" fill="#E9E9E9" stroke="#7A7A7A" stroke-width="0.2"/>
<path d="M78.5969 55.7173L66.2367 58.8229L76.1957 21.8587L88.6686 18.6288L78.5969 55.7173Z" fill="#7A7A7A" stroke="#7A7A7A" stroke-width="0.2"/>
<path d="M33.518 36.6005L43.4915 64.5916L47.0327 49.3831L47.0507 49.3083L47.1275 49.3058L56.2537 49.047L46.3655 21.406L33.518 36.6005Z" fill="#7A7A7A" stroke="#7A7A7A" stroke-width="0.2"/>
<path d="M23.6503 34.7179C23.6129 34.7611 23.6374 34.829 23.6936 34.8393L33.4452 36.627L46.358 21.3625L36.7172 19.6007L23.6503 34.7179Z" fill="#E9E9E9" stroke="#7A7A7A" stroke-width="0.2"/>
<path d="M33.6946 63.022L43.4338 64.6845L33.4951 36.6136L23.6611 34.8625L33.6946 63.022Z" fill="#E9E9E9" stroke="#7A7A7A" stroke-width="0.2"/>
<rect x="0.173205" width="61.7999" height="61.7999" transform="matrix(0.866025 -0.5 0.866025 0.5 2.34506 114.527)" fill="white" stroke="#9F9F9F" stroke-width="0.2"/>
<path d="M56.0084 127.32L55.5245 127.804L56.0084 128.288L56.4923 127.804L56.0084 127.32ZM56.0084 144.04L56.4923 143.556L56.0084 143.073L55.5245 143.556L56.0084 144.04ZM56.0084 127.804L55.9246 127.804L55.9246 127.968L56.0084 127.968L56.0922 127.968L56.0922 127.804L56.0084 127.804ZM56.0084 128.625L55.9246 128.625L55.9246 128.953L56.0084 128.953L56.0922 128.953L56.0922 128.625L56.0084 128.625ZM56.0084 129.609L55.9246 129.609L55.9246 129.937L56.0084 129.937L56.0922 129.937L56.0922 129.609L56.0084 129.609ZM56.0084 130.594L55.9246 130.594L55.9246 130.922L56.0084 130.922L56.0922 130.922L56.0922 130.594L56.0084 130.594ZM56.0084 131.578L55.9246 131.578L55.9246 131.906L56.0084 131.906L56.0922 131.906L56.0922 131.578L56.0084 131.578ZM56.0084 132.563L55.9246 132.563L55.9246 132.891L56.0084 132.891L56.0922 132.891L56.0922 132.563L56.0084 132.563ZM56.0084 133.547L55.9246 133.547L55.9246 133.875L56.0084 133.875L56.0922 133.875L56.0922 133.547L56.0084 133.547ZM56.0084 134.532L55.9246 134.532L55.9246 134.86L56.0084 134.86L56.0922 134.86L56.0922 134.532L56.0084 134.532ZM56.0084 135.516L55.9246 135.516L55.9246 135.844L56.0084 135.844L56.0922 135.844L56.0922 135.516L56.0084 135.516ZM56.0084 136.501L55.9246 136.501L55.9246 136.829L56.0084 136.829L56.0922 136.829L56.0922 136.501L56.0084 136.501ZM56.0084 137.485L55.9246 137.485L55.9246 137.813L56.0084 137.813L56.0922 137.813L56.0922 137.485L56.0084 137.485ZM56.0084 138.47L55.9246 138.47L55.9246 138.798L56.0084 138.798L56.0922 138.798L56.0922 138.47L56.0084 138.47ZM56.0084 139.454L55.9246 139.454L55.9246 139.783L56.0084 139.783L56.0922 139.783L56.0922 139.454L56.0084 139.454ZM56.0084 140.439L55.9246 140.439L55.9246 140.767L56.0084 140.767L56.0922 140.767L56.0922 140.439L56.0084 140.439ZM56.0084 141.423L55.9246 141.423L55.9246 141.752L56.0084 141.752L56.0922 141.752L56.0922 141.423L56.0084 141.423ZM56.0084 142.408L55.9246 142.408L55.9246 142.736L56.0084 142.736L56.0922 142.736L56.0922 142.408L56.0084 142.408ZM56.0084 143.392L55.9246 143.392L55.9246 143.556L56.0084 143.556L56.0922 143.556L56.0922 143.392L56.0084 143.392Z" fill="#9F9F9F"/>
<path d="M2.76643 96.7259L2.28253 97.2098L2.76643 97.6937L3.25034 97.2098L2.76643 96.7259ZM2.76643 113.421L3.25034 112.937L2.76643 112.453L2.28253 112.937L2.76643 113.421ZM2.76643 97.2098L2.68262 97.2098L2.68262 97.3736L2.76643 97.3736L2.85025 97.3736L2.85025 97.2098L2.76643 97.2098ZM2.76643 98.0289L2.68262 98.0289L2.68262 98.3566L2.76643 98.3566L2.85025 98.3566L2.85025 98.0289L2.76643 98.0289ZM2.76643 99.0119L2.68262 99.0119L2.68262 99.3395L2.76643 99.3395L2.85025 99.3395L2.85025 99.0119L2.76643 99.0119ZM2.76643 99.9948L2.68262 99.9948L2.68262 100.322L2.76643 100.322L2.85025 100.322L2.85025 99.9948L2.76643 99.9948ZM2.76643 100.978L2.68262 100.978L2.68262 101.305L2.76643 101.305L2.85025 101.305L2.85025 100.978L2.76643 100.978ZM2.76643 101.961L2.68262 101.961L2.68262 102.288L2.76643 102.288L2.85025 102.288L2.85025 101.961L2.76643 101.961ZM2.76643 102.944L2.68262 102.944L2.68262 103.271L2.76643 103.271L2.85025 103.271L2.85025 102.944L2.76643 102.944ZM2.76643 103.927L2.68262 103.927L2.68262 104.254L2.76643 104.254L2.85025 104.254L2.85025 103.927L2.76643 103.927ZM2.76643 104.91L2.68262 104.91L2.68262 105.237L2.76643 105.237L2.85025 105.237L2.85025 104.91L2.76643 104.91ZM2.76643 105.893L2.68262 105.893L2.68262 106.22L2.76643 106.22L2.85025 106.22L2.85025 105.893L2.76643 105.893ZM2.76643 106.875L2.68262 106.875L2.68262 107.203L2.76643 107.203L2.85025 107.203L2.85025 106.875L2.76643 106.875ZM2.76643 107.858L2.68262 107.858L2.68262 108.186L2.76643 108.186L2.85025 108.186L2.85025 107.858L2.76643 107.858ZM2.76643 108.841L2.68262 108.841L2.68262 109.169L2.76643 109.169L2.85025 109.169L2.85025 108.841L2.76643 108.841ZM2.76643 109.824L2.68262 109.824L2.68262 110.152L2.76643 110.152L2.85025 110.152L2.85025 109.824L2.76643 109.824ZM2.76643 110.807L2.68262 110.807L2.68262 111.135L2.76643 111.135L2.85025 111.135L2.85025 110.807L2.76643 110.807ZM2.76643 111.79L2.68262 111.79L2.68262 112.118L2.76643 112.118L2.85025 112.118L2.85025 111.79L2.76643 111.79ZM2.76643 112.773L2.68262 112.773L2.68262 112.937L2.76643 112.937L2.85025 112.937L2.85025 112.773L2.76643 112.773Z" fill="#9F9F9F"/>
<path d="M109.267 96.7259L108.783 97.2098L109.267 97.6937L109.751 97.2098L109.267 96.7259ZM109.267 113.421L109.751 112.937L109.267 112.453L108.783 112.937L109.267 113.421ZM109.267 97.2098L109.183 97.2098L109.183 97.3736L109.267 97.3736L109.351 97.3736L109.351 97.2098L109.267 97.2098ZM109.267 98.0289L109.183 98.0289L109.183 98.3566L109.267 98.3566L109.351 98.3566L109.351 98.0289L109.267 98.0289ZM109.267 99.0119L109.183 99.0119L109.183 99.3395L109.267 99.3395L109.351 99.3395L109.351 99.0119L109.267 99.0119ZM109.267 99.9948L109.183 99.9948L109.183 100.322L109.267 100.322L109.351 100.322L109.351 99.9948L109.267 99.9948ZM109.267 100.978L109.183 100.978L109.183 101.305L109.267 101.305L109.351 101.305L109.351 100.978L109.267 100.978ZM109.267 101.961L109.183 101.961L109.183 102.288L109.267 102.288L109.351 102.288L109.351 101.961L109.267 101.961ZM109.267 102.944L109.183 102.944L109.183 103.271L109.267 103.271L109.351 103.271L109.351 102.944L109.267 102.944ZM109.267 103.927L109.183 103.927L109.183 104.254L109.267 104.254L109.351 104.254L109.351 103.927L109.267 103.927ZM109.267 104.91L109.183 104.91L109.183 105.237L109.267 105.237L109.351 105.237L109.351 104.91L109.267 104.91ZM109.267 105.893L109.183 105.893L109.183 106.22L109.267 106.22L109.351 106.22L109.351 105.893L109.267 105.893ZM109.267 106.875L109.183 106.875L109.183 107.203L109.267 107.203L109.351 107.203L109.351 106.875L109.267 106.875ZM109.267 107.858L109.183 107.858L109.183 108.186L109.267 108.186L109.351 108.186L109.351 107.858L109.267 107.858ZM109.267 108.841L109.183 108.841L109.183 109.169L109.267 109.169L109.351 109.169L109.351 108.841L109.267 108.841ZM109.267 109.824L109.183 109.824L109.183 110.152L109.267 110.152L109.351 110.152L109.351 109.824L109.267 109.824ZM109.267 110.807L109.183 110.807L109.183 111.135L109.267 111.135L109.351 111.135L109.351 110.807L109.267 110.807ZM109.267 111.79L109.183 111.79L109.183 112.118L109.267 112.118L109.351 112.118L109.351 111.79L109.267 111.79ZM109.267 112.773L109.183 112.773L109.183 112.937L109.267 112.937L109.351 112.937L109.351 112.773L109.267 112.773Z" fill="#9F9F9F"/>
<path d="M109.508 94.9997L55.6964 125.967L2.51474 94.9802L55.9522 64.1423L109.508 94.9997Z" fill="white" stroke="#9F9F9F" stroke-width="0.2"/>
<path d="M41.6294 97.234L5.79367 23.6659C24.4717 -0.277138 82.581 -1.94216 106.237 24.4788L69.3065 94.8689L69.4191 96.6384C69.1299 97.0348 68.81 97.4079 68.4623 97.7542L67.4497 98.7629C66.6044 99.605 65.6076 100.28 64.5117 100.752C63.7517 101.079 62.9521 101.306 62.1333 101.425L56.4294 102.259C54.7756 102.5 53.0897 102.394 51.4795 101.946L48.2825 101.057C46.6824 100.612 45.192 99.8399 43.9057 98.7892L43.6225 98.5578C43.0712 98.1074 42.4809 97.707 41.8586 97.3613L41.6294 97.234Z" fill="url(#paint0_linear_2596_23889)" fill-opacity="0.2"/>
<path d="M90.3324 95.8847L55.8099 115.752L21.6898 95.872L55.974 76.0869L90.3324 95.8847Z" fill="#E9E9E9" stroke="#7A7A7A" stroke-width="0.167379"/>
<path opacity="0.1" d="M90.5278 95.9016L89.5229 96.4788L56.0004 77.1643L22.5473 96.469L21.5502 95.8879L56.0004 76.0071L90.5278 95.9016Z" fill="#222222"/>
<ellipse cx="56.0122" cy="95.0482" rx="14.4198" ry="7.93822" fill="#7A7A7A"/>
<g opacity="0.5">
<ellipse cx="74.1015" cy="109.456" rx="1.50918" ry="0.830815" fill="#7A7A7A"/>
<ellipse opacity="0.4" cx="78.1015" cy="107.456" rx="1.50918" ry="0.830815" fill="#7A7A7A"/>
<ellipse opacity="0.2" cx="82.1015" cy="105.456" rx="1.50918" ry="0.830815" fill="#7A7A7A"/>
<ellipse opacity="0.1" cx="86.1015" cy="103.456" rx="1.50918" ry="0.830815" fill="#7A7A7A"/>
</g>
<ellipse cx="56.0124" cy="94.1119" rx="13.7035" ry="7.243" fill="#E9E9E9"/>
<ellipse opacity="0.5" cx="56.0123" cy="94.1121" rx="10.216" ry="5.39967" fill="white"/>
<ellipse cx="56.0123" cy="94.1119" rx="4.89862" ry="2.58916" fill="white"/>
<path opacity="0.4" d="M78.9207 64.306C81.8508 66.7157 83.5596 69.6135 83.5596 72.731C83.5596 81.1065 71.2263 87.8961 56.0123 87.8961C40.7983 87.8961 28.4649 81.1065 28.4649 72.731C28.4649 69.1619 30.7047 65.8806 34.4528 63.2902" stroke="url(#paint1_linear_2596_23889)" stroke-width="0.446344"/>
<path opacity="0.4" d="M73.9915 79.0093C76.2911 80.9005 77.6322 83.1748 77.6322 85.6215C77.6322 92.1947 67.9526 97.5234 56.0123 97.5234C44.0719 97.5234 34.3924 92.1947 34.3924 85.6215C34.3924 82.8203 36.1503 80.2451 39.0918 78.212" stroke="url(#paint2_linear_2596_23889)" stroke-width="0.446344"/>
<path opacity="0.4" d="M82.1512 50.0062C85.5997 52.8423 87.6108 56.2527 87.6108 59.9218C87.6108 69.7789 73.0955 77.7697 55.1899 77.7697C37.2844 77.7697 22.769 69.7789 22.769 59.9218C22.769 55.7211 25.4051 51.8594 29.8162 48.8107" stroke="url(#paint3_linear_2596_23889)" stroke-width="0.446344"/>
<defs>
<linearGradient id="paint0_linear_2596_23889" x1="56.0152" y1="103.366" x2="56.0152" y2="31.406" gradientUnits="userSpaceOnUse">
<stop offset="0.481737" stop-color="#7A7A7A"/>
<stop offset="1" stop-color="white"/>
</linearGradient>
<linearGradient id="paint1_linear_2596_23889" x1="56.0123" y1="57.5661" x2="56.0123" y2="89.7224" gradientUnits="userSpaceOnUse">
<stop offset="0.239618" stop-color="#F2F4FF"/>
<stop offset="0.959626" stop-color="#7A7A7A"/>
</linearGradient>
<linearGradient id="paint2_linear_2596_23889" x1="56.0123" y1="73.7196" x2="56.0123" y2="98.9567" gradientUnits="userSpaceOnUse">
<stop offset="0.239618" stop-color="#F2F4FF"/>
<stop offset="0.959626" stop-color="#7A7A7A"/>
</linearGradient>
<linearGradient id="paint3_linear_2596_23889" x1="55.1899" y1="42.0739" x2="55.1899" y2="79.9191" gradientUnits="userSpaceOnUse">
<stop offset="0.239618" stop-color="#F2F4FF"/>
<stop offset="0.959626" stop-color="#7A7A7A"/>
</linearGradient>
</defs>
</svg>
