<svg width="112" height="150" viewBox="0 0 112 150" fill="none" xmlns="http://www.w3.org/2000/svg">
<rect x="0.0409573" y="0.168296" width="30.8188" height="40.301" rx="0.405101" transform="matrix(0.69058 0.723256 -0.281007 0.959706 64.6953 -0.136855)" fill="#383838" stroke="#7A7A7A" stroke-width="0.2"/>
<rect x="0.0409573" y="0.168296" width="30.6603" height="40.7809" rx="0.405101" transform="matrix(0.69058 0.723256 -0.281007 0.959706 62.1205 0.419786)" fill="#222222" stroke="#7A7A7A" stroke-width="0.2"/>
<rect x="0.139115" y="0.0407384" width="2.94831" height="30.9246" transform="matrix(0.971648 -0.236432 0.690626 0.723212 61.7441 0.81614)" fill="#383838" stroke="#7A7A7A" stroke-width="0.167379"/>
<rect x="0.0690565" y="0.0723194" width="3.13769" height="40.5111" rx="0.405101" transform="matrix(0.971633 -0.236494 -0.281068 0.959688 82.9019 22.9143)" fill="#383838" stroke="#7A7A7A" stroke-width="0.2"/>
<circle cx="2.66636" cy="2.66636" r="2.66636" transform="matrix(0.69058 0.723256 -0.281007 0.959706 63.1423 6.75635)" fill="#7A7A7A"/>
<rect opacity="0.3" x="0.0409573" y="0.168296" width="17.9295" height="0.866441" transform="matrix(0.69058 0.723256 -0.281007 0.959706 67.3216 12.3844)" fill="#7A7A7A" stroke="#7A7A7A" stroke-width="0.2"/>
<rect opacity="0.3" x="0.0409573" y="0.168296" width="8.33235" height="0.866544" transform="matrix(0.69058 0.723256 -0.281007 0.959706 66.7223 14.4315)" fill="#7A7A7A" stroke="#7A7A7A" stroke-width="0.2"/>
<circle cx="2.66636" cy="2.66636" r="2.66636" transform="matrix(0.69058 0.723256 -0.281007 0.959706 60.6412 15.2971)" fill="#7A7A7A"/>
<rect opacity="0.3" x="0.0409573" y="0.168296" width="17.9295" height="0.866441" transform="matrix(0.69058 0.723256 -0.281007 0.959706 64.8205 20.9252)" fill="#7A7A7A" stroke="#7A7A7A" stroke-width="0.2"/>
<rect opacity="0.3" x="0.0409573" y="0.168296" width="8.33235" height="0.866544" transform="matrix(0.69058 0.723256 -0.281007 0.959706 64.2212 22.9723)" fill="#7A7A7A" stroke="#7A7A7A" stroke-width="0.2"/>
<circle cx="2.66636" cy="2.66636" r="2.66636" transform="matrix(0.69058 0.723256 -0.281007 0.959706 57.9907 24.3481)" fill="#7A7A7A"/>
<rect opacity="0.3" x="0.0409573" y="0.168296" width="17.9295" height="0.866441" transform="matrix(0.69058 0.723256 -0.281007 0.959706 62.17 29.9764)" fill="#7A7A7A" stroke="#7A7A7A" stroke-width="0.2"/>
<rect opacity="0.3" x="0.0409573" y="0.168296" width="8.33235" height="0.866544" transform="matrix(0.69058 0.723256 -0.281007 0.959706 61.5706 32.0238)" fill="#7A7A7A" stroke="#7A7A7A" stroke-width="0.2"/>
<rect x="-0.0349534" y="0.169645" width="27.7037" height="36.2337" rx="0.405101" transform="matrix(-0.664453 0.74733 0.31492 0.949118 48.9439 18.2689)" fill="#383838" stroke="#7A7A7A" stroke-width="0.2"/>
<rect x="-0.0349534" y="0.169645" width="27.5611" height="36.6653" rx="0.405101" transform="matrix(-0.664453 0.74733 0.31492 0.949118 51.2765 18.6869)" fill="#222222" stroke="#7A7A7A" stroke-width="0.2"/>
<rect x="-0.13758" y="0.0456542" width="2.63541" height="27.8022" transform="matrix(-0.979433 -0.201769 -0.664501 0.747288 51.4194 18.9227)" fill="#383838" stroke="#7A7A7A" stroke-width="0.167379"/>
<rect x="-0.066444" y="0.0747267" width="2.8025" height="36.4226" rx="0.405101" transform="matrix(-0.97942 -0.201831 0.31498 0.949098 33.2339 39.4926)" fill="#383838" stroke="#7A7A7A" stroke-width="0.2"/>
<circle cx="2.39859" cy="2.39859" r="2.39859" transform="matrix(0.664453 -0.74733 -0.31492 -0.949118 42.6604 61.0564)" fill="#7A7A7A"/>
<rect opacity="0.3" x="0.0349534" y="-0.169645" width="16.1088" height="0.759344" transform="matrix(0.664453 -0.74733 -0.31492 -0.949118 46.1414 55.5397)" fill="#7A7A7A" stroke="#7A7A7A" stroke-width="0.2"/>
<rect opacity="0.3" x="0.0349534" y="-0.169645" width="7.47549" height="0.759436" transform="matrix(0.664453 -0.74733 -0.31492 -0.949118 45.537 53.7182)" fill="#7A7A7A" stroke="#7A7A7A" stroke-width="0.2"/>
<circle cx="2.39859" cy="2.39859" r="2.39859" transform="matrix(0.664453 -0.74733 -0.31492 -0.949118 40.139 53.4583)" fill="#7A7A7A"/>
<rect opacity="0.3" x="0.0349534" y="-0.169645" width="16.1088" height="0.759344" transform="matrix(0.664453 -0.74733 -0.31492 -0.949118 43.62 47.9418)" fill="#7A7A7A" stroke="#7A7A7A" stroke-width="0.2"/>
<rect opacity="0.3" x="0.0349534" y="-0.169645" width="7.47549" height="0.759436" transform="matrix(0.664453 -0.74733 -0.31492 -0.949118 43.0156 46.1203)" fill="#7A7A7A" stroke="#7A7A7A" stroke-width="0.2"/>
<circle cx="2.39859" cy="2.39859" r="2.39859" transform="matrix(0.664453 -0.74733 -0.31492 -0.949118 37.4669 45.4058)" fill="#7A7A7A"/>
<rect opacity="0.3" x="0.0349534" y="-0.169645" width="16.1088" height="0.759344" transform="matrix(0.664453 -0.74733 -0.31492 -0.949118 40.948 39.8896)" fill="#7A7A7A" stroke="#7A7A7A" stroke-width="0.2"/>
<rect opacity="0.3" x="0.0349534" y="-0.169645" width="7.47549" height="0.759436" transform="matrix(0.664453 -0.74733 -0.31492 -0.949118 40.3436 38.068)" fill="#7A7A7A" stroke="#7A7A7A" stroke-width="0.2"/>
<rect x="0.173205" width="61.7999" height="61.7999" transform="matrix(0.866025 -0.5 0.866025 0.5 2.34504 118.526)" fill="#222222" stroke="#6D6D6D" stroke-width="0.2"/>
<path d="M56.0084 131.319L55.5245 131.803L56.0084 132.287L56.4923 131.803L56.0084 131.319ZM56.0084 148.039L56.4923 147.555L56.0084 147.072L55.5245 147.555L56.0084 148.039ZM56.0084 131.803L55.9245 131.803L55.9245 131.967L56.0084 131.967L56.0922 131.967L56.0922 131.803L56.0084 131.803ZM56.0084 132.624L55.9245 132.624L55.9245 132.952L56.0084 132.952L56.0922 132.952L56.0922 132.624L56.0084 132.624ZM56.0084 133.608L55.9245 133.608L55.9245 133.936L56.0084 133.936L56.0922 133.936L56.0922 133.608L56.0084 133.608ZM56.0084 134.593L55.9245 134.593L55.9245 134.921L56.0084 134.921L56.0922 134.921L56.0922 134.593L56.0084 134.593ZM56.0084 135.577L55.9245 135.577L55.9245 135.905L56.0084 135.905L56.0922 135.905L56.0922 135.577L56.0084 135.577ZM56.0084 136.562L55.9245 136.562L55.9245 136.89L56.0084 136.89L56.0922 136.89L56.0922 136.562L56.0084 136.562ZM56.0084 137.546L55.9245 137.546L55.9245 137.874L56.0084 137.874L56.0922 137.874L56.0922 137.546L56.0084 137.546ZM56.0084 138.531L55.9245 138.531L55.9245 138.859L56.0084 138.859L56.0922 138.859L56.0922 138.531L56.0084 138.531ZM56.0084 139.515L55.9245 139.515L55.9245 139.843L56.0084 139.843L56.0922 139.843L56.0922 139.515L56.0084 139.515ZM56.0084 140.5L55.9245 140.5L55.9245 140.828L56.0084 140.828L56.0922 140.828L56.0922 140.5L56.0084 140.5ZM56.0084 141.484L55.9245 141.484L55.9245 141.812L56.0084 141.812L56.0922 141.812L56.0922 141.484L56.0084 141.484ZM56.0084 142.469L55.9245 142.469L55.9245 142.797L56.0084 142.797L56.0922 142.797L56.0922 142.469L56.0084 142.469ZM56.0084 143.453L55.9245 143.453L55.9245 143.781L56.0084 143.781L56.0922 143.781L56.0922 143.453L56.0084 143.453ZM56.0084 144.438L55.9245 144.438L55.9245 144.766L56.0084 144.766L56.0922 144.766L56.0922 144.438L56.0084 144.438ZM56.0084 145.422L55.9245 145.422L55.9245 145.751L56.0084 145.751L56.0922 145.751L56.0922 145.422L56.0084 145.422ZM56.0084 146.407L55.9245 146.407L55.9245 146.735L56.0084 146.735L56.0922 146.735L56.0922 146.407L56.0084 146.407ZM56.0084 147.391L55.9245 147.391L55.9245 147.555L56.0084 147.555L56.0922 147.555L56.0922 147.391L56.0084 147.391Z" fill="#6D6D6D"/>
<path d="M2.76642 100.725L2.28252 101.209L2.76642 101.693L3.25032 101.209L2.76642 100.725ZM2.76642 117.42L3.25032 116.936L2.76642 116.452L2.28252 116.936L2.76642 117.42ZM2.76642 101.209L2.6826 101.209L2.6826 101.373L2.76642 101.373L2.85023 101.373L2.85023 101.209L2.76642 101.209ZM2.76642 102.028L2.6826 102.028L2.6826 102.356L2.76642 102.356L2.85023 102.356L2.85023 102.028L2.76642 102.028ZM2.76642 103.011L2.6826 103.011L2.6826 103.338L2.76642 103.338L2.85023 103.338L2.85023 103.011L2.76642 103.011ZM2.76642 103.994L2.6826 103.994L2.6826 104.321L2.76642 104.321L2.85023 104.321L2.85023 103.994L2.76642 103.994ZM2.76642 104.977L2.6826 104.977L2.6826 105.304L2.76642 105.304L2.85023 105.304L2.85023 104.977L2.76642 104.977ZM2.76642 105.96L2.6826 105.96L2.6826 106.287L2.76642 106.287L2.85023 106.287L2.85023 105.96L2.76642 105.96ZM2.76642 106.943L2.6826 106.943L2.6826 107.27L2.76642 107.27L2.85023 107.27L2.85023 106.943L2.76642 106.943ZM2.76642 107.926L2.6826 107.926L2.6826 108.253L2.76642 108.253L2.85023 108.253L2.85023 107.926L2.76642 107.926ZM2.76642 108.909L2.6826 108.909L2.6826 109.236L2.76642 109.236L2.85023 109.236L2.85023 108.909L2.76642 108.909ZM2.76642 109.891L2.6826 109.891L2.6826 110.219L2.76642 110.219L2.85023 110.219L2.85023 109.891L2.76642 109.891ZM2.76642 110.874L2.6826 110.874L2.6826 111.202L2.76642 111.202L2.85023 111.202L2.85023 110.874L2.76642 110.874ZM2.76642 111.857L2.6826 111.857L2.6826 112.185L2.76642 112.185L2.85023 112.185L2.85023 111.857L2.76642 111.857ZM2.76642 112.84L2.6826 112.84L2.6826 113.168L2.76642 113.168L2.85023 113.168L2.85023 112.84L2.76642 112.84ZM2.76642 113.823L2.6826 113.823L2.6826 114.151L2.76642 114.151L2.85023 114.151L2.85023 113.823L2.76642 113.823ZM2.76642 114.806L2.6826 114.806L2.6826 115.134L2.76642 115.134L2.85023 115.134L2.85023 114.806L2.76642 114.806ZM2.76642 115.789L2.6826 115.789L2.6826 116.117L2.76642 116.117L2.85023 116.117L2.85023 115.789L2.76642 115.789ZM2.76642 116.772L2.6826 116.772L2.6826 116.936L2.76642 116.936L2.85023 116.936L2.85023 116.772L2.76642 116.772Z" fill="#6D6D6D"/>
<path d="M109.267 100.725L108.783 101.209L109.267 101.693L109.751 101.209L109.267 100.725ZM109.267 117.42L109.751 116.936L109.267 116.452L108.783 116.936L109.267 117.42ZM109.267 101.209L109.183 101.209L109.183 101.373L109.267 101.373L109.351 101.373L109.351 101.209L109.267 101.209ZM109.267 102.028L109.183 102.028L109.183 102.356L109.267 102.356L109.351 102.356L109.351 102.028L109.267 102.028ZM109.267 103.011L109.183 103.011L109.183 103.338L109.267 103.338L109.351 103.338L109.351 103.011L109.267 103.011ZM109.267 103.994L109.183 103.994L109.183 104.321L109.267 104.321L109.351 104.321L109.351 103.994L109.267 103.994ZM109.267 104.977L109.183 104.977L109.183 105.304L109.267 105.304L109.351 105.304L109.351 104.977L109.267 104.977ZM109.267 105.96L109.183 105.96L109.183 106.287L109.267 106.287L109.351 106.287L109.351 105.96L109.267 105.96ZM109.267 106.943L109.183 106.943L109.183 107.27L109.267 107.27L109.351 107.27L109.351 106.943L109.267 106.943ZM109.267 107.926L109.183 107.926L109.183 108.253L109.267 108.253L109.351 108.253L109.351 107.926L109.267 107.926ZM109.267 108.909L109.183 108.909L109.183 109.236L109.267 109.236L109.351 109.236L109.351 108.909L109.267 108.909ZM109.267 109.891L109.183 109.891L109.183 110.219L109.267 110.219L109.351 110.219L109.351 109.891L109.267 109.891ZM109.267 110.874L109.183 110.874L109.183 111.202L109.267 111.202L109.351 111.202L109.351 110.874L109.267 110.874ZM109.267 111.857L109.183 111.857L109.183 112.185L109.267 112.185L109.351 112.185L109.351 111.857L109.267 111.857ZM109.267 112.84L109.183 112.84L109.183 113.168L109.267 113.168L109.351 113.168L109.351 112.84L109.267 112.84ZM109.267 113.823L109.183 113.823L109.183 114.151L109.267 114.151L109.351 114.151L109.351 113.823L109.267 113.823ZM109.267 114.806L109.183 114.806L109.183 115.134L109.267 115.134L109.351 115.134L109.351 114.806L109.267 114.806ZM109.267 115.789L109.183 115.789L109.183 116.117L109.267 116.117L109.351 116.117L109.351 115.789L109.267 115.789ZM109.267 116.772L109.183 116.772L109.183 116.936L109.267 116.936L109.351 116.936L109.351 116.772L109.267 116.772Z" fill="#6D6D6D"/>
<path d="M109.508 98.9988L55.6964 129.967L2.51477 98.9792L55.9523 68.1414L109.508 98.9988Z" fill="#222222" stroke="#6D6D6D" stroke-width="0.2"/>
<path d="M41.6294 101.233L5.7937 27.665C24.4717 3.72195 82.581 2.05693 106.237 28.4779L69.3065 98.868L69.4191 100.637C69.1299 101.034 68.81 101.407 68.4624 101.753L67.4497 102.762C66.6044 103.604 65.6076 104.279 64.5117 104.751C63.7518 105.078 62.9522 105.305 62.1334 105.424L56.4294 106.258C54.7757 106.499 53.0897 106.393 51.4795 105.945L48.2825 105.056C46.6824 104.611 45.192 103.839 43.9058 102.788L43.6226 102.557C43.0712 102.107 42.4809 101.706 41.8586 101.36L41.6294 101.233Z" fill="url(#paint0_linear_4163_26333)" fill-opacity="0.2"/>
<path d="M90.3324 99.8838L55.8099 119.751L21.6898 99.8711L55.974 80.0859L90.3324 99.8838Z" fill="#383838" stroke="#7A7A7A" stroke-width="0.167379"/>
<path opacity="0.1" d="M90.5278 99.9006L89.5229 100.478L56.0004 81.1633L22.5473 100.468L21.5502 99.887L56.0004 80.0061L90.5278 99.9006Z" fill="white"/>
<ellipse cx="56.0122" cy="99.0473" rx="14.4198" ry="7.93822" fill="#7A7A7A"/>
<g opacity="0.5">
<ellipse cx="74.1015" cy="113.455" rx="1.50918" ry="0.830815" fill="#7A7A7A"/>
<ellipse opacity="0.4" cx="78.1015" cy="111.455" rx="1.50918" ry="0.830815" fill="#7A7A7A"/>
<ellipse opacity="0.2" cx="82.1015" cy="109.455" rx="1.50918" ry="0.830815" fill="#7A7A7A"/>
<ellipse opacity="0.1" cx="86.1015" cy="107.455" rx="1.50918" ry="0.830815" fill="#7A7A7A"/>
</g>
<ellipse cx="56.0124" cy="98.1109" rx="13.7035" ry="7.243" fill="#383838"/>
<ellipse opacity="0.5" cx="56.0123" cy="98.1111" rx="10.216" ry="5.39967" fill="#222222"/>
<ellipse cx="56.0123" cy="98.1111" rx="4.89862" ry="2.58916" fill="#222222"/>
<path opacity="0.4" d="M78.9208 68.3051C81.8509 70.7149 83.5597 73.6127 83.5597 76.7302C83.5597 85.1056 71.2263 91.8952 56.0123 91.8952C40.7983 91.8952 28.465 85.1056 28.465 76.7302C28.465 73.161 30.7048 69.8798 34.4528 67.2893" stroke="url(#paint1_linear_4163_26333)" stroke-width="0.446344"/>
<path opacity="0.4" d="M73.9915 83.0084C76.2911 84.8996 77.6322 87.1739 77.6322 89.6206C77.6322 96.1939 67.9526 101.523 56.0123 101.523C44.0719 101.523 34.3924 96.1939 34.3924 89.6206C34.3924 86.8194 36.1503 84.2443 39.0918 82.2112" stroke="url(#paint2_linear_4163_26333)" stroke-width="0.446344"/>
<path opacity="0.4" d="M82.1512 54.0054C85.5997 56.8414 87.6108 60.2519 87.6108 63.9209C87.6108 73.7781 73.0955 81.7689 55.1899 81.7689C37.2844 81.7689 22.769 73.7781 22.769 63.9209C22.769 59.7203 25.4051 55.8586 29.8162 52.8098" stroke="url(#paint3_linear_4163_26333)" stroke-width="0.446344"/>
<defs>
<linearGradient id="paint0_linear_4163_26333" x1="56.0152" y1="107.365" x2="56.0152" y2="35.4051" gradientUnits="userSpaceOnUse">
<stop offset="0.481737" stop-color="#7A7A7A"/>
<stop offset="1" stop-color="#111111"/>
</linearGradient>
<linearGradient id="paint1_linear_4163_26333" x1="56.0123" y1="61.5652" x2="56.0123" y2="93.7215" gradientUnits="userSpaceOnUse">
<stop offset="0.239618" stop-color="#222222"/>
<stop offset="0.959626" stop-color="#7A7A7A"/>
</linearGradient>
<linearGradient id="paint2_linear_4163_26333" x1="56.0123" y1="77.7188" x2="56.0123" y2="102.956" gradientUnits="userSpaceOnUse">
<stop offset="0.239618" stop-color="#222222"/>
<stop offset="0.959626" stop-color="#7A7A7A"/>
</linearGradient>
<linearGradient id="paint3_linear_4163_26333" x1="55.1899" y1="46.0731" x2="55.1899" y2="83.9183" gradientUnits="userSpaceOnUse">
<stop offset="0.239618" stop-color="#222222"/>
<stop offset="0.959626" stop-color="#7A7A7A"/>
</linearGradient>
</defs>
</svg>
