<svg width="160" height="161" viewBox="0 0 160 161" fill="none" xmlns="http://www.w3.org/2000/svg">
<path d="M66.6666 81.148L77.0936 78.6392L72.4264 70.4509L77.0853 41.0084L70.3482 29.5474L67.1622 73.2132L58.9284 75.4583L66.6666 81.148Z" fill="#222222"/>
<path d="M81.1437 52.3064L81.1837 52.3355L89.7501 58.5001L89.8564 58.5769L89.8807 58.448L90.6944 54.1685L90.7012 54.1348L90.6818 54.1061L82.4799 41.7716L82.3531 41.5804L81.1437 52.3064ZM74.1001 36.2187L74.0541 36.1909L64.842 30.6453L64.8023 30.6222L63.991 24.9005L63.9796 24.8187L64.0598 24.7963L75.7218 21.3822L75.7706 21.367L75.8109 21.402L77.3816 22.7948L77.3815 22.7958L77.3888 22.8005L93.7847 34.6044C94.2008 34.9039 94.7523 35.3261 95.4366 35.8697L95.4384 35.8709C96.1492 36.4083 96.7784 36.937 97.3232 37.4583L97.3241 37.4593C99.8287 39.7768 101.816 42.3028 103.278 45.0374L103.278 45.0365L103.548 45.5514C104.879 48.1358 105.784 50.8029 106.263 53.5455L106.264 53.5466C106.776 56.4429 106.869 59.3318 106.545 62.2078C106.22 65.0844 105.528 67.4124 104.471 69.1923L104.47 69.1922C103.55 70.7673 102.322 71.7762 100.79 72.2326L100.745 72.2462L100.733 72.2911L100.732 72.2919L88.5101 75.294L87.0116 75.3963L86.6628 75.3963L88.124 67.701L88.1349 67.6393L88.0801 67.6106L79.9876 63.3706L79.8967 63.323L79.8688 63.422L76.2464 76.2955L76.2463 76.2964L76.2418 76.3107L76.2289 76.3033L76.2279 76.3032L70.0778 73.0085L69.9592 72.945L74.1001 36.2187Z" fill="#222222" stroke="#7A7A7A" stroke-width="0.167379"/>
<path d="M78.0396 68.2448L76.8834 78.4991L66.5362 81.6704L66.4281 73.7824L68.0516 60.6207L78.0396 68.2448Z" fill="#383838" stroke="#7A7A7A" stroke-width="0.167379"/>
<path d="M81.5307 46.1356L80.8253 52.3918L80.8662 52.421L88.1113 57.4392L84.2483 68.2807L67.5407 63.146L70.5109 36.8021L81.5307 46.1356Z" fill="#222222" stroke="#7A7A7A" stroke-width="0.167379"/>
<path d="M81.6405 46.1875L80.9431 52.3729L69.3495 54.9535L69.5871 38.9526L71.1229 38.5184L81.6405 46.1875Z" fill="#383838" stroke="#7A7A7A" stroke-width="0.167379"/>
<path d="M82.0864 37.9352C82.4993 38.2324 83.0482 38.653 83.7333 39.1974L83.7357 39.1991C84.4413 39.7325 85.0618 40.2553 85.5974 40.7679L85.5988 40.77C88.0843 43.0694 90.0432 45.5623 91.4789 48.248L91.4796 48.2495C92.9364 50.9523 93.9159 53.7435 94.4187 56.6247C94.9248 59.4854 95.0173 62.3436 94.6953 65.1993C94.3935 67.8763 93.7719 70.0742 92.8309 71.7943L92.6386 72.1321C91.6772 73.7777 90.3749 74.8084 88.7312 75.2251L88.3971 75.3004C86.7278 75.648 84.7119 75.2455 82.3469 74.0885L81.8694 73.8476C81.3085 73.5457 80.671 73.1636 79.9567 72.7005C79.2409 72.2364 78.6862 71.8625 78.2931 71.5795L68.2727 64.3662L66.3185 81.6978L58.3976 75.9958L64.1451 25.02L82.0864 37.9352ZM69.2711 55.5111L78.9364 62.4689C79.3531 62.7688 79.812 63.0739 80.3124 63.3828C80.815 63.693 81.2843 63.9271 81.7199 64.0854L81.7192 64.0839C82.8553 64.5143 83.775 64.5298 84.4734 64.1203L84.4743 64.1199C85.1698 63.6897 85.6865 63.039 86.0227 62.1667C86.3791 61.2907 86.6099 60.3865 86.715 59.4546C86.8201 58.5225 86.8106 57.4573 86.6877 56.2612C86.5991 55.2007 86.3567 54.1183 85.9595 53.0144L85.7791 52.5394C85.2737 51.2378 84.4905 50.0131 83.435 48.8658L83.4358 48.8664C83.0326 48.4209 82.5848 47.9959 82.093 47.5902C81.6033 47.1864 81.1498 46.8337 80.7331 46.5337L71.0677 39.576L69.2711 55.5111Z" fill="#383838" stroke="#7A7A7A" stroke-width="0.167379"/>
<rect x="0.173205" width="61.7999" height="61.7999" transform="matrix(0.866025 -0.5 0.866025 0.5 26.345 127.335)" fill="#222222" stroke="#6D6D6D" stroke-width="0.2"/>
<path d="M80.0084 140.129L79.5245 140.613L80.0084 141.096L80.4923 140.613L80.0084 140.129ZM80.0084 156.849L80.4923 156.365L80.0084 155.881L79.5245 156.365L80.0084 156.849ZM80.0084 140.613L79.9245 140.613L79.9245 140.777L80.0084 140.777L80.0922 140.777L80.0922 140.613L80.0084 140.613ZM80.0084 141.433L79.9245 141.433L79.9245 141.761L80.0084 141.761L80.0922 141.761L80.0922 141.433L80.0084 141.433ZM80.0084 142.417L79.9245 142.417L79.9245 142.746L80.0084 142.746L80.0922 142.746L80.0922 142.417L80.0084 142.417ZM80.0084 143.402L79.9245 143.402L79.9245 143.73L80.0084 143.73L80.0922 143.73L80.0922 143.402L80.0084 143.402ZM80.0084 144.387L79.9245 144.387L79.9245 144.715L80.0084 144.715L80.0922 144.715L80.0922 144.387L80.0084 144.387ZM80.0084 145.371L79.9245 145.371L79.9245 145.699L80.0084 145.699L80.0922 145.699L80.0922 145.371L80.0084 145.371ZM80.0084 146.356L79.9245 146.356L79.9245 146.684L80.0084 146.684L80.0922 146.684L80.0922 146.356L80.0084 146.356ZM80.0084 147.34L79.9245 147.34L79.9245 147.668L80.0084 147.668L80.0922 147.668L80.0922 147.34L80.0084 147.34ZM80.0084 148.325L79.9245 148.325L79.9245 148.653L80.0084 148.653L80.0922 148.653L80.0922 148.325L80.0084 148.325ZM80.0084 149.309L79.9245 149.309L79.9245 149.637L80.0084 149.637L80.0922 149.637L80.0922 149.309L80.0084 149.309ZM80.0084 150.294L79.9245 150.294L79.9245 150.622L80.0084 150.622L80.0922 150.622L80.0922 150.294L80.0084 150.294ZM80.0084 151.278L79.9245 151.278L79.9245 151.606L80.0084 151.606L80.0922 151.606L80.0922 151.278L80.0084 151.278ZM80.0084 152.263L79.9245 152.263L79.9245 152.591L80.0084 152.591L80.0922 152.591L80.0922 152.263L80.0084 152.263ZM80.0084 153.247L79.9245 153.247L79.9245 153.575L80.0084 153.575L80.0922 153.575L80.0922 153.247L80.0084 153.247ZM80.0084 154.232L79.9245 154.232L79.9245 154.56L80.0084 154.56L80.0922 154.56L80.0922 154.232L80.0084 154.232ZM80.0084 155.216L79.9245 155.216L79.9245 155.544L80.0084 155.544L80.0922 155.544L80.0922 155.216L80.0084 155.216ZM80.0084 156.201L79.9245 156.201L79.9245 156.365L80.0084 156.365L80.0922 156.365L80.0922 156.201L80.0084 156.201Z" fill="#6D6D6D"/>
<path d="M26.7664 109.534L26.2825 110.018L26.7664 110.502L27.2503 110.018L26.7664 109.534ZM26.7664 126.229L27.2503 125.745L26.7664 125.261L26.2825 125.745L26.7664 126.229ZM26.7664 110.018L26.6826 110.018L26.6826 110.182L26.7664 110.182L26.8502 110.182L26.8502 110.018L26.7664 110.018ZM26.7664 110.837L26.6826 110.837L26.6826 111.165L26.7664 111.165L26.8502 111.165L26.8502 110.837L26.7664 110.837ZM26.7664 111.82L26.6826 111.82L26.6826 112.148L26.7664 112.148L26.8502 112.148L26.8502 111.82L26.7664 111.82ZM26.7664 112.803L26.6826 112.803L26.6826 113.131L26.7664 113.131L26.8502 113.131L26.8502 112.803L26.7664 112.803ZM26.7664 113.786L26.6826 113.786L26.6826 114.114L26.7664 114.114L26.8502 114.114L26.8502 113.786L26.7664 113.786ZM26.7664 114.769L26.6826 114.769L26.6826 115.097L26.7664 115.097L26.8502 115.097L26.8502 114.769L26.7664 114.769ZM26.7664 115.752L26.6826 115.752L26.6826 116.08L26.7664 116.08L26.8502 116.08L26.8502 115.752L26.7664 115.752ZM26.7664 116.735L26.6826 116.735L26.6826 117.063L26.7664 117.063L26.8502 117.063L26.8502 116.735L26.7664 116.735ZM26.7664 117.718L26.6826 117.718L26.6826 118.046L26.7664 118.046L26.8502 118.046L26.8502 117.718L26.7664 117.718ZM26.7664 118.701L26.6826 118.701L26.6826 119.028L26.7664 119.028L26.8502 119.028L26.8502 118.701L26.7664 118.701ZM26.7664 119.684L26.6826 119.684L26.6826 120.011L26.7664 120.011L26.8502 120.011L26.8502 119.684L26.7664 119.684ZM26.7664 120.667L26.6826 120.667L26.6826 120.994L26.7664 120.994L26.8502 120.994L26.8502 120.667L26.7664 120.667ZM26.7664 121.65L26.6826 121.65L26.6826 121.977L26.7664 121.977L26.8502 121.977L26.8502 121.65L26.7664 121.65ZM26.7664 122.633L26.6826 122.633L26.6826 122.96L26.7664 122.96L26.8502 122.96L26.8502 122.633L26.7664 122.633ZM26.7664 123.616L26.6826 123.616L26.6826 123.943L26.7664 123.943L26.8502 123.943L26.8502 123.616L26.7664 123.616ZM26.7664 124.599L26.6826 124.599L26.6826 124.926L26.7664 124.926L26.8502 124.926L26.8502 124.599L26.7664 124.599ZM26.7664 125.581L26.6826 125.581L26.6826 125.745L26.7664 125.745L26.8502 125.745L26.8502 125.581L26.7664 125.581Z" fill="#6D6D6D"/>
<path d="M133.267 109.534L132.783 110.018L133.267 110.502L133.751 110.018L133.267 109.534ZM133.267 126.229L133.751 125.745L133.267 125.261L132.783 125.745L133.267 126.229ZM133.267 110.018L133.183 110.018L133.183 110.182L133.267 110.182L133.351 110.182L133.351 110.018L133.267 110.018ZM133.267 110.837L133.183 110.837L133.183 111.165L133.267 111.165L133.351 111.165L133.351 110.837L133.267 110.837ZM133.267 111.82L133.183 111.82L133.183 112.148L133.267 112.148L133.351 112.148L133.351 111.82L133.267 111.82ZM133.267 112.803L133.183 112.803L133.183 113.131L133.267 113.131L133.351 113.131L133.351 112.803L133.267 112.803ZM133.267 113.786L133.183 113.786L133.183 114.114L133.267 114.114L133.351 114.114L133.351 113.786L133.267 113.786ZM133.267 114.769L133.183 114.769L133.183 115.097L133.267 115.097L133.351 115.097L133.351 114.769L133.267 114.769ZM133.267 115.752L133.183 115.752L133.183 116.08L133.267 116.08L133.351 116.08L133.351 115.752L133.267 115.752ZM133.267 116.735L133.183 116.735L133.183 117.063L133.267 117.063L133.351 117.063L133.351 116.735L133.267 116.735ZM133.267 117.718L133.183 117.718L133.183 118.046L133.267 118.046L133.351 118.046L133.351 117.718L133.267 117.718ZM133.267 118.701L133.183 118.701L133.183 119.028L133.267 119.028L133.351 119.028L133.351 118.701L133.267 118.701ZM133.267 119.684L133.183 119.684L133.183 120.011L133.267 120.011L133.351 120.011L133.351 119.684L133.267 119.684ZM133.267 120.667L133.183 120.667L133.183 120.994L133.267 120.994L133.351 120.994L133.351 120.667L133.267 120.667ZM133.267 121.65L133.183 121.65L133.183 121.977L133.267 121.977L133.351 121.977L133.351 121.65L133.267 121.65ZM133.267 122.633L133.183 122.633L133.183 122.96L133.267 122.96L133.351 122.96L133.351 122.633L133.267 122.633ZM133.267 123.616L133.183 123.616L133.183 123.943L133.267 123.943L133.351 123.943L133.351 123.616L133.267 123.616ZM133.267 124.599L133.183 124.599L133.183 124.926L133.267 124.926L133.351 124.926L133.351 124.599L133.267 124.599ZM133.267 125.581L133.183 125.581L133.183 125.745L133.267 125.745L133.351 125.745L133.351 125.581L133.267 125.581Z" fill="#6D6D6D"/>
<path d="M133.508 107.808L79.6964 138.776L26.5148 107.789L79.9523 76.9507L133.508 107.808Z" fill="#222222" stroke="#6D6D6D" stroke-width="0.2"/>
<path d="M65.6294 110.042L29.7937 36.4743C48.4717 12.5313 106.581 10.8663 130.237 37.2872L93.3065 107.677L93.4191 109.447C93.1299 109.843 92.81 110.216 92.4624 110.563L91.4497 111.571C90.6044 112.413 89.6076 113.088 88.5117 113.56C87.7518 113.888 86.9522 114.114 86.1334 114.234L80.4294 115.067C78.7757 115.309 77.0897 115.202 75.4795 114.755L72.2825 113.866C70.6824 113.421 69.192 112.648 67.9058 111.598L67.6226 111.366C67.0712 110.916 66.4809 110.515 65.8586 110.17L65.6294 110.042Z" fill="url(#paint0_linear_2228_31765)" fill-opacity="0.2"/>
<path d="M114.332 108.693L79.8099 128.56L45.6898 108.68L79.974 88.8953L114.332 108.693Z" fill="#383838" stroke="#7A7A7A" stroke-width="0.167379"/>
<path opacity="0.1" d="M114.528 108.71L113.523 109.287L80.0004 89.9727L46.5473 109.277L45.5502 108.696L80.0004 88.8154L114.528 108.71Z" fill="white"/>
<ellipse cx="80.0122" cy="107.857" rx="14.4198" ry="7.93822" fill="#7A7A7A"/>
<g opacity="0.5">
<ellipse cx="98.1015" cy="122.264" rx="1.50918" ry="0.830815" fill="#7A7A7A"/>
<ellipse opacity="0.4" cx="102.102" cy="120.264" rx="1.50918" ry="0.830815" fill="#7A7A7A"/>
<ellipse opacity="0.2" cx="106.102" cy="118.264" rx="1.50918" ry="0.830815" fill="#7A7A7A"/>
<ellipse opacity="0.1" cx="110.102" cy="116.264" rx="1.50918" ry="0.830815" fill="#7A7A7A"/>
</g>
<ellipse cx="80.0124" cy="106.92" rx="13.7035" ry="7.243" fill="#383838"/>
<ellipse opacity="0.5" cx="80.0123" cy="106.92" rx="10.216" ry="5.39967" fill="#222222"/>
<ellipse cx="80.0123" cy="106.92" rx="4.89862" ry="2.58916" fill="#222222"/>
<path opacity="0.4" d="M102.921 77.1145C105.851 79.5242 107.56 82.422 107.56 85.5395C107.56 93.9149 95.2263 100.705 80.0123 100.705C64.7983 100.705 52.465 93.9149 52.465 85.5395C52.465 81.9703 54.7048 78.6891 58.4528 76.0986" stroke="url(#paint1_linear_2228_31765)" stroke-width="0.446344"/>
<path opacity="0.4" d="M97.9915 91.8178C100.291 93.709 101.632 95.9833 101.632 98.43C101.632 105.003 91.9526 110.332 80.0123 110.332C68.0719 110.332 58.3924 105.003 58.3924 98.43C58.3924 95.6288 60.1503 93.0536 63.0918 91.0205" stroke="url(#paint2_linear_2228_31765)" stroke-width="0.446344"/>
<path opacity="0.4" d="M106.151 62.8147C109.6 65.6507 111.611 69.0612 111.611 72.7303C111.611 82.5874 97.0955 90.5782 79.1899 90.5782C61.2844 90.5782 46.769 82.5874 46.769 72.7303C46.769 68.5296 49.4051 64.6679 53.8162 61.6191" stroke="url(#paint3_linear_2228_31765)" stroke-width="0.446344"/>
<path d="M44.1663 47.3066L44.2034 47.3418L44.2542 47.332C45.8447 47.0112 48.1587 47.8816 50.1146 49.7324C50.355 49.96 50.581 50.1942 50.7923 50.4326C51.2151 50.9097 51.5793 51.4041 51.8782 51.9004C52.6271 53.1435 52.9675 54.3887 52.8441 55.3877L52.8382 55.4385L52.8753 55.4736L53.1722 55.752L52.3118 56.6621L52.3079 56.665C52.282 56.6952 52.2639 56.7195 52.2415 56.7432C51.5684 57.4544 50.4454 57.6387 49.1487 57.3291C47.8551 57.0202 46.4093 56.2227 45.1234 55.0059L44.89 54.7783L44.6644 54.5459C43.5666 53.379 42.8317 52.0888 42.5276 50.9199C42.2231 49.7488 42.354 48.7166 42.9573 48.041L43.0228 47.9687L43.0179 47.9639L43.886 47.0459L44.1663 47.3066Z" fill="#383838" stroke="#7A7A7A" stroke-width="0.2"/>
<path d="M51.0568 48.7362C49.7709 47.5195 48.3252 46.7231 47.0317 46.4143C45.7351 46.1047 44.6123 46.2885 43.9392 46.9997C43.2662 47.711 43.1446 48.8422 43.5252 50.1197C43.9049 51.3942 44.7804 52.7932 46.0662 54.01C47.3522 55.2269 48.7977 56.0244 50.0913 56.3333C51.3879 56.6428 52.5107 56.459 53.1838 55.7478C53.8568 55.0365 53.9784 53.9054 53.5978 52.6278C53.2181 51.3532 52.3427 49.9531 51.0568 48.7362Z" fill="#222222" stroke="#7A7A7A" stroke-width="0.2"/>
<path d="M49.8397 51.8744L49.8392 51.8345C49.8392 51.7433 49.8378 51.666 49.8342 51.603C49.8287 51.5392 49.8181 51.4631 49.8017 51.3748C49.7306 51.0092 49.5851 50.698 49.3662 50.4417C49.2062 50.2539 49.0204 50.099 48.8095 49.9761L48.8088 49.4505L48.3107 49.2378L48.3115 49.7634C48.1899 49.7303 48.0755 49.7143 47.9686 49.7165C47.8994 49.7172 47.8357 49.729 47.7757 49.7467L47.7748 49.0262L47.2767 48.8135L47.2766 50.8247L47.2779 50.8246L47.2769 51.7586L47.8954 52.0229L47.8955 51.0295C47.8955 50.9878 47.8967 50.9438 47.9004 50.8978C47.9022 50.849 47.9087 50.8046 47.9196 50.7657C47.947 50.6606 47.9957 50.5893 48.0649 50.5516C48.1342 50.5119 48.2133 50.4973 48.3026 50.5077C48.3055 50.508 48.3083 50.5092 48.3111 50.5095L48.3108 52.1803L48.8088 52.393L48.8092 50.7222C48.8116 50.724 48.8141 50.726 48.8165 50.7279C48.904 50.7931 48.9831 50.8749 49.0524 50.974C49.1197 51.0702 49.168 51.183 49.1972 51.3123C49.2081 51.3605 49.2153 51.4105 49.219 51.4615C49.2226 51.5107 49.2247 51.5565 49.2247 51.5982L49.2246 52.5917L49.8393 52.8548L51.2153 51.7775L51.2152 50.7775L49.8397 51.8744Z" fill="#7A7A7A"/>
<path d="M69.5005 17.205C69.7554 15.792 70.4345 14.7301 71.4551 14.3093L71.5106 14.286L71.5178 14.2844L71.5226 14.281L71.5346 14.2759C71.5868 14.2565 71.6399 14.2394 71.6933 14.2238L71.8713 14.1784L71.8786 14.1767L72.9788 13.8468L73.0917 14.1398L73.1104 14.189L73.1623 14.2009C74.148 14.4346 75.1699 15.1329 76.0584 16.1793C76.2549 16.4107 76.4454 16.6585 76.6264 16.9219C76.8989 17.3185 77.1517 17.7502 77.379 18.2118L77.5969 18.6833L77.7981 19.1752C78.305 20.5066 78.526 21.8368 78.4901 23.0187C78.4811 23.3139 78.4559 23.5997 78.4153 23.874C78.3951 24.0113 78.3708 24.1458 78.3428 24.2771C78.3008 24.4737 78.2502 24.6631 78.1913 24.8444C78.1716 24.9049 78.1511 24.9652 78.1295 25.024C78.0435 25.2584 77.9434 25.4782 77.8288 25.6799C77.7716 25.7805 77.7102 25.8766 77.6459 25.9687L77.6158 26.0121L77.6345 26.0613L77.7434 26.3488L76.7957 26.7879L76.7856 26.794L76.5798 26.9078C76.5097 26.9428 76.438 26.9751 76.3644 27.0032C76.2333 27.0531 76.0993 27.0917 75.9639 27.1191C75.5566 27.2015 75.1285 27.1851 74.6933 27.0783C74.5482 27.0426 74.4022 26.9968 74.2558 26.9414C74.1099 26.8861 73.9634 26.8207 73.8172 26.7463C73.6709 26.6718 73.5245 26.5886 73.3798 26.4961C73.235 26.4035 73.0912 26.3012 72.9484 26.1909C72.7342 26.0255 72.5233 25.8407 72.3177 25.6383C72.0435 25.3683 71.7778 25.0669 71.5263 24.7366C70.9603 23.9932 70.4644 23.1051 70.0857 22.1112C69.4192 20.3615 69.2459 18.6162 69.5005 17.205Z" fill="#383838" stroke="#7A7A7A" stroke-width="0.2"/>
<path d="M79.2857 18.5534C78.6237 16.8155 77.5815 15.4154 76.4376 14.5554C75.2925 13.6945 74.0581 13.3833 72.9974 13.7874C71.9369 14.1915 71.2231 15.2449 70.9411 16.6493C70.6593 18.0524 70.8128 19.791 71.4749 21.5289C72.1369 23.2667 73.1789 24.6661 74.3227 25.526C75.4677 26.3869 76.7017 26.6992 77.7623 26.2953C78.823 25.8912 79.5371 24.8368 79.8192 23.4321C80.1009 22.0292 79.9476 20.2912 79.2857 18.5534Z" fill="#222222" stroke="#7A7A7A" stroke-width="0.2"/>
<path d="M76.4735 20.8008L76.4717 20.7575C76.4683 20.6608 76.4633 20.5792 76.457 20.5127C76.4487 20.4456 76.4338 20.3659 76.4127 20.2739C76.3215 19.8936 76.1522 19.579 75.9045 19.3315C75.723 19.1498 75.5147 19.0062 75.2803 18.8993L75.2595 18.3412L74.7099 18.171L74.73 18.7307C74.5967 18.7094 74.4725 18.7042 74.3564 18.7185C74.2807 18.7271 74.2113 18.7462 74.1463 18.7719L74.1188 18.0073L73.5691 17.8371L73.6417 19.8631C73.6419 19.8683 73.6406 19.8733 73.6408 19.8781L73.6792 20.9649L74.3618 21.1764L74.3247 20.1211C74.3231 20.0769 74.3236 20.03 74.3258 19.9808C74.326 19.9288 74.3319 19.8812 74.3423 19.8387C74.3681 19.724 74.4181 19.6431 74.4919 19.5952C74.5658 19.5452 74.6513 19.5203 74.7488 19.5213C74.7519 19.5213 74.7552 19.5217 74.7583 19.5217L74.8207 21.2973L75.3703 21.4675L75.3079 19.6919C75.3107 19.6936 75.3136 19.6949 75.3164 19.6967C75.4141 19.7561 75.5029 19.835 75.582 19.9324C75.659 20.0271 75.7163 20.1419 75.7529 20.2762C75.7666 20.3261 75.7757 20.378 75.7816 20.4318C75.7873 20.4833 75.7919 20.531 75.7935 20.5751L75.8311 21.6316L76.5104 21.8416L77.9666 20.5423L77.9296 19.4803L76.4735 20.8008Z" fill="#7A7A7A"/>
<path d="M112.577 49.8459L112.573 49.8508L112.638 49.9231C112.8 50.1038 112.927 50.3093 113.021 50.5354C113.115 50.7618 113.177 51.0096 113.207 51.2747C113.346 52.5383 112.752 54.1832 111.546 55.7151L111.35 55.9563C111.284 56.0359 111.216 56.1152 111.146 56.1936C111.076 56.2725 111.004 56.351 110.93 56.429C110.784 56.5842 110.631 56.7376 110.472 56.8879C109.186 58.1048 107.74 58.9023 106.447 59.2112C105.15 59.5207 104.028 59.3362 103.355 58.6252C103.333 58.6016 103.314 58.5773 103.288 58.5471L103.284 58.5442L102.422 57.634L102.72 57.3557L102.757 57.3206L102.752 57.2698C102.727 57.0705 102.72 56.8611 102.732 56.6438C102.756 56.2088 102.853 55.7418 103.019 55.259C103.309 54.4144 103.81 53.524 104.498 52.675C104.688 52.4404 104.893 52.2093 105.111 51.9827C105.231 51.8584 105.354 51.735 105.481 51.6145C106.09 51.0379 106.737 50.5551 107.385 50.1741C107.515 50.0976 107.645 50.0252 107.775 49.9573C108.294 49.6853 108.81 49.4799 109.306 49.344C109.554 49.2762 109.796 49.2252 110.032 49.1926C110.268 49.16 110.496 49.1453 110.715 49.1487C110.77 49.1495 110.824 49.1514 110.878 49.1545C110.985 49.1608 111.089 49.1714 111.191 49.1868C111.241 49.1943 111.291 49.204 111.341 49.2141L111.392 49.2239L111.429 49.1887L111.709 48.928L112.577 49.8459Z" fill="#383838" stroke="#7A7A7A" stroke-width="0.2"/>
<path d="M104.539 50.6178C105.825 49.4011 107.271 48.6047 108.564 48.2959C109.861 47.9863 110.984 48.1701 111.657 48.8813C112.33 49.5926 112.451 50.7238 112.071 52.0013C111.691 53.2758 110.815 54.6748 109.53 55.8916C108.244 57.1085 106.798 57.906 105.504 58.2149C104.208 58.5244 103.085 58.3406 102.412 57.6294C101.739 56.9181 101.617 55.787 101.998 54.5094C102.378 53.2348 103.253 51.8347 104.539 50.6178Z" fill="#222222" stroke="#7A7A7A" stroke-width="0.2"/>
<path d="M108.942 50.9707L108.819 51.4985L108.109 51.6233C108.137 51.6796 108.159 51.741 108.172 51.8095C108.193 51.914 108.196 52.0289 108.185 52.1539L108.703 52.0625L108.58 52.5903L108.063 52.6817C107.978 52.911 107.858 53.1217 107.701 53.3121C107.486 53.5719 107.204 53.7688 106.857 53.9023C106.773 53.9336 106.7 53.9579 106.639 53.9743C106.577 53.9888 106.501 54.004 106.412 54.0198L106.372 54.0264L107.691 55.1915L106.707 55.3647L105.406 54.1966L105.559 53.5452L106.538 53.3719C106.579 53.3647 106.624 53.3559 106.671 53.3438C106.721 53.3314 106.769 53.315 106.814 53.296C106.936 53.2448 107.039 53.1768 107.122 53.0937C107.207 53.0084 107.275 52.9176 107.324 52.8202C107.326 52.8174 107.326 52.8135 107.327 52.8107L105.683 53.1003L105.806 52.5739L107.451 52.2835C107.451 52.2808 107.451 52.278 107.451 52.2753C107.446 52.1855 107.418 52.1097 107.367 52.0484C107.318 51.987 107.239 51.9519 107.131 51.9431C107.091 51.9391 107.046 51.9411 106.997 51.9477C106.951 51.9521 106.908 51.9577 106.867 51.9649L105.888 52.1368L106.042 51.482L108.942 50.9707Z" fill="#7A7A7A"/>
<defs>
<linearGradient id="paint0_linear_2228_31765" x1="80.0152" y1="116.174" x2="80.0152" y2="44.2144" gradientUnits="userSpaceOnUse">
<stop offset="0.481737" stop-color="#7A7A7A"/>
<stop offset="1" stop-color="#111111"/>
</linearGradient>
<linearGradient id="paint1_linear_2228_31765" x1="80.0123" y1="70.3745" x2="80.0123" y2="102.531" gradientUnits="userSpaceOnUse">
<stop offset="0.239618" stop-color="#222222"/>
<stop offset="0.959626" stop-color="#7A7A7A"/>
</linearGradient>
<linearGradient id="paint2_linear_2228_31765" x1="80.0123" y1="86.5281" x2="80.0123" y2="111.765" gradientUnits="userSpaceOnUse">
<stop offset="0.239618" stop-color="#222222"/>
<stop offset="0.959626" stop-color="#7A7A7A"/>
</linearGradient>
<linearGradient id="paint3_linear_2228_31765" x1="79.1899" y1="54.8824" x2="79.1899" y2="92.7276" gradientUnits="userSpaceOnUse">
<stop offset="0.239618" stop-color="#222222"/>
<stop offset="0.959626" stop-color="#7A7A7A"/>
</linearGradient>
</defs>
</svg>
