<svg width="160" height="161" viewBox="0 0 160 161" fill="none" xmlns="http://www.w3.org/2000/svg">
<rect x="0.173205" width="61.7999" height="61.7999" transform="matrix(0.866025 -0.5 0.866025 0.5 26.3451 123.526)" fill="white" stroke="#9F9F9F" stroke-width="0.2"/>
<path d="M80.0084 136.319L79.5245 136.803L80.0084 137.287L80.4923 136.803L80.0084 136.319ZM80.0084 153.039L80.4923 152.555L80.0084 152.072L79.5245 152.555L80.0084 153.039ZM80.0084 136.803L79.9246 136.803L79.9246 136.967L80.0084 136.967L80.0922 136.967L80.0922 136.803L80.0084 136.803ZM80.0084 137.624L79.9246 137.624L79.9246 137.952L80.0084 137.952L80.0922 137.952L80.0922 137.624L80.0084 137.624ZM80.0084 138.608L79.9246 138.608L79.9246 138.936L80.0084 138.936L80.0922 138.936L80.0922 138.608L80.0084 138.608ZM80.0084 139.593L79.9246 139.593L79.9246 139.921L80.0084 139.921L80.0922 139.921L80.0922 139.593L80.0084 139.593ZM80.0084 140.577L79.9246 140.577L79.9246 140.905L80.0084 140.905L80.0922 140.905L80.0922 140.577L80.0084 140.577ZM80.0084 141.562L79.9246 141.562L79.9246 141.89L80.0084 141.89L80.0922 141.89L80.0922 141.562L80.0084 141.562ZM80.0084 142.546L79.9246 142.546L79.9246 142.874L80.0084 142.874L80.0922 142.874L80.0922 142.546L80.0084 142.546ZM80.0084 143.531L79.9246 143.531L79.9246 143.859L80.0084 143.859L80.0922 143.859L80.0922 143.531L80.0084 143.531ZM80.0084 144.515L79.9246 144.515L79.9246 144.843L80.0084 144.843L80.0922 144.843L80.0922 144.515L80.0084 144.515ZM80.0084 145.5L79.9246 145.5L79.9246 145.828L80.0084 145.828L80.0922 145.828L80.0922 145.5L80.0084 145.5ZM80.0084 146.484L79.9246 146.484L79.9246 146.812L80.0084 146.812L80.0922 146.812L80.0922 146.484L80.0084 146.484ZM80.0084 147.469L79.9246 147.469L79.9246 147.797L80.0084 147.797L80.0922 147.797L80.0922 147.469L80.0084 147.469ZM80.0084 148.453L79.9246 148.453L79.9246 148.781L80.0084 148.781L80.0922 148.781L80.0922 148.453L80.0084 148.453ZM80.0084 149.438L79.9246 149.438L79.9246 149.766L80.0084 149.766L80.0922 149.766L80.0922 149.438L80.0084 149.438ZM80.0084 150.422L79.9246 150.422L79.9246 150.751L80.0084 150.751L80.0922 150.751L80.0922 150.422L80.0084 150.422ZM80.0084 151.407L79.9246 151.407L79.9246 151.735L80.0084 151.735L80.0922 151.735L80.0922 151.407L80.0084 151.407ZM80.0084 152.391L79.9246 152.391L79.9246 152.555L80.0084 152.555L80.0922 152.555L80.0922 152.391L80.0084 152.391Z" fill="#9F9F9F"/>
<path d="M26.7664 105.725L26.2825 106.209L26.7664 106.693L27.2503 106.209L26.7664 105.725ZM26.7664 122.42L27.2503 121.936L26.7664 121.452L26.2825 121.936L26.7664 122.42ZM26.7664 106.209L26.6826 106.209L26.6826 106.373L26.7664 106.373L26.8502 106.373L26.8502 106.209L26.7664 106.209ZM26.7664 107.028L26.6826 107.028L26.6826 107.356L26.7664 107.356L26.8502 107.356L26.8502 107.028L26.7664 107.028ZM26.7664 108.011L26.6826 108.011L26.6826 108.339L26.7664 108.339L26.8502 108.339L26.8502 108.011L26.7664 108.011ZM26.7664 108.994L26.6826 108.994L26.6826 109.322L26.7664 109.322L26.8502 109.322L26.8502 108.994L26.7664 108.994ZM26.7664 109.977L26.6826 109.977L26.6826 110.305L26.7664 110.305L26.8502 110.305L26.8502 109.977L26.7664 109.977ZM26.7664 110.96L26.6826 110.96L26.6826 111.288L26.7664 111.288L26.8502 111.288L26.8502 110.96L26.7664 110.96ZM26.7664 111.943L26.6826 111.943L26.6826 112.271L26.7664 112.271L26.8502 112.271L26.8502 111.943L26.7664 111.943ZM26.7664 112.926L26.6826 112.926L26.6826 113.253L26.7664 113.253L26.8502 113.253L26.8502 112.926L26.7664 112.926ZM26.7664 113.909L26.6826 113.909L26.6826 114.236L26.7664 114.236L26.8502 114.236L26.8502 113.909L26.7664 113.909ZM26.7664 114.892L26.6826 114.892L26.6826 115.219L26.7664 115.219L26.8502 115.219L26.8502 114.892L26.7664 114.892ZM26.7664 115.875L26.6826 115.875L26.6826 116.202L26.7664 116.202L26.8502 116.202L26.8502 115.875L26.7664 115.875ZM26.7664 116.858L26.6826 116.858L26.6826 117.185L26.7664 117.185L26.8502 117.185L26.8502 116.858L26.7664 116.858ZM26.7664 117.841L26.6826 117.841L26.6826 118.168L26.7664 118.168L26.8502 118.168L26.8502 117.841L26.7664 117.841ZM26.7664 118.824L26.6826 118.824L26.6826 119.151L26.7664 119.151L26.8502 119.151L26.8502 118.824L26.7664 118.824ZM26.7664 119.806L26.6826 119.806L26.6826 120.134L26.7664 120.134L26.8502 120.134L26.8502 119.806L26.7664 119.806ZM26.7664 120.789L26.6826 120.789L26.6826 121.117L26.7664 121.117L26.8502 121.117L26.8502 120.789L26.7664 120.789ZM26.7664 121.772L26.6826 121.772L26.6826 121.936L26.7664 121.936L26.8502 121.936L26.8502 121.772L26.7664 121.772Z" fill="#9F9F9F"/>
<path d="M133.267 105.725L132.783 106.209L133.267 106.693L133.751 106.209L133.267 105.725ZM133.267 122.42L133.751 121.936L133.267 121.452L132.783 121.936L133.267 122.42ZM133.267 106.209L133.183 106.209L133.183 106.373L133.267 106.373L133.351 106.373L133.351 106.209L133.267 106.209ZM133.267 107.028L133.183 107.028L133.183 107.356L133.267 107.356L133.351 107.356L133.351 107.028L133.267 107.028ZM133.267 108.011L133.183 108.011L133.183 108.339L133.267 108.339L133.351 108.339L133.351 108.011L133.267 108.011ZM133.267 108.994L133.183 108.994L133.183 109.322L133.267 109.322L133.351 109.322L133.351 108.994L133.267 108.994ZM133.267 109.977L133.183 109.977L133.183 110.305L133.267 110.305L133.351 110.305L133.351 109.977L133.267 109.977ZM133.267 110.96L133.183 110.96L133.183 111.288L133.267 111.288L133.351 111.288L133.351 110.96L133.267 110.96ZM133.267 111.943L133.183 111.943L133.183 112.271L133.267 112.271L133.351 112.271L133.351 111.943L133.267 111.943ZM133.267 112.926L133.183 112.926L133.183 113.253L133.267 113.253L133.351 113.253L133.351 112.926L133.267 112.926ZM133.267 113.909L133.183 113.909L133.183 114.236L133.267 114.236L133.351 114.236L133.351 113.909L133.267 113.909ZM133.267 114.892L133.183 114.892L133.183 115.219L133.267 115.219L133.351 115.219L133.351 114.892L133.267 114.892ZM133.267 115.875L133.183 115.875L133.183 116.202L133.267 116.202L133.351 116.202L133.351 115.875L133.267 115.875ZM133.267 116.858L133.183 116.858L133.183 117.185L133.267 117.185L133.351 117.185L133.351 116.858L133.267 116.858ZM133.267 117.841L133.183 117.841L133.183 118.168L133.267 118.168L133.351 118.168L133.351 117.841L133.267 117.841ZM133.267 118.824L133.183 118.824L133.183 119.151L133.267 119.151L133.351 119.151L133.351 118.824L133.267 118.824ZM133.267 119.806L133.183 119.806L133.183 120.134L133.267 120.134L133.351 120.134L133.351 119.806L133.267 119.806ZM133.267 120.789L133.183 120.789L133.183 121.117L133.267 121.117L133.351 121.117L133.351 120.789L133.267 120.789ZM133.267 121.772L133.183 121.772L133.183 121.936L133.267 121.936L133.351 121.936L133.351 121.772L133.267 121.772Z" fill="#9F9F9F"/>
<path d="M133.508 103.999L79.6964 134.967L26.5147 103.979L79.9522 73.1416L133.508 103.999Z" fill="white" stroke="#9F9F9F" stroke-width="0.2"/>
<rect x="83.2763" y="63.0269" width="5.26383" height="3.03363" fill="#7A7A7A" stroke="#7A7A7A" stroke-width="0.311668" stroke-linejoin="bevel"/>
<rect x="0.0936011" y="0.035197" width="8.56583" height="19.3677" transform="matrix(0.772821 -0.634624 0.16319 0.986595 64.2936 40.0838)" fill="#7A7A7A" stroke="#7A7A7A" stroke-width="0.2" stroke-linejoin="bevel"/>
<path d="M64.4883 19.0138L77.6714 37.292L71.0662 42.7161L57.8831 24.4379L64.4883 19.0138Z" fill="white" stroke="#7A7A7A" stroke-width="0.2"/>
<path d="M101.448 61.2519L91.3399 67.2727L84.381 69.8501L94.4862 63.8302L101.448 61.2519Z" fill="#7A7A7A" stroke="#7A7A7A" stroke-width="0.311668" stroke-linejoin="bevel"/>
<path d="M71.027 42.4097L64.3805 39.9097L64.2467 40.02L67.4079 59.1313L59.654 56.2153L56.4743 36.9907L56.4108 36.9126L49.5114 34.3188L57.9489 24.3345L71.027 42.4097Z" fill="#E9E9E9" stroke="#7A7A7A" stroke-width="0.2" stroke-linejoin="bevel"/>
<path d="M96.9441 55.9446L102.602 60.6383L94.6131 63.5972L88.9549 58.9035L96.9441 55.9446Z" fill="white" stroke="#7A7A7A" stroke-width="0.2"/>
<path d="M84.3872 45.7683L90.3972 50.7538L82.408 53.7127L76.3981 48.7272L84.3872 45.7683Z" fill="white" stroke="#7A7A7A" stroke-width="0.2"/>
<rect x="0.170741" y="0.0291147" width="8.51934" height="8.23036" transform="matrix(0.93775 -0.347312 0.769656 0.638459 85.4975 34.4668)" fill="white" stroke="#7A7A7A" stroke-width="0.2"/>
<path d="M92.0406 39.6577L88.7662 58.8657L88.8004 58.9595L94.4733 63.6646L83.2369 70.3442L76.7809 48.9878L82.2477 53.5239L82.4098 53.4634L85.6656 34.3677L92.0406 39.6577Z" fill="#E9E9E9" stroke="#7A7A7A" stroke-width="0.2" stroke-linejoin="bevel"/>
<rect x="0.0769656" y="0.0638459" width="8.56583" height="19.3677" transform="matrix(0.93775 -0.347312 -0.168094 0.985771 91.9706 39.7581)" fill="#7A7A7A" stroke="#7A7A7A" stroke-width="0.2" stroke-linejoin="bevel"/>
<path d="M65.6294 106.233L29.7937 32.665C48.4717 8.72195 106.581 7.05693 130.237 33.4779L93.3065 103.868L93.4191 105.637C93.1299 106.034 92.81 106.407 92.4623 106.753L91.4497 107.762C90.6044 108.604 89.6076 109.279 88.5117 109.751C87.7517 110.078 86.9521 110.305 86.1333 110.424L80.4294 111.258C78.7756 111.499 77.0897 111.393 75.4795 110.945L72.2825 110.056C70.6824 109.611 69.192 108.839 67.9057 107.788L67.6225 107.557C67.0712 107.107 66.4809 106.706 65.8586 106.36L65.6294 106.233Z" fill="url(#paint0_linear_2228_31980)" fill-opacity="0.2"/>
<path d="M114.332 104.884L79.8099 124.751L45.6898 104.871L79.974 85.0859L114.332 104.884Z" fill="#E9E9E9" stroke="#7A7A7A" stroke-width="0.167379"/>
<path opacity="0.1" d="M114.528 104.901L113.523 105.478L80.0004 86.1636L46.5473 105.468L45.5502 104.887L80.0004 85.0063L114.528 104.901Z" fill="#222222"/>
<ellipse cx="80.0122" cy="104.047" rx="14.4198" ry="7.93822" fill="#7A7A7A"/>
<g opacity="0.5">
<ellipse cx="98.1015" cy="118.455" rx="1.50918" ry="0.830815" fill="#7A7A7A"/>
<ellipse opacity="0.4" cx="102.102" cy="116.455" rx="1.50918" ry="0.830815" fill="#7A7A7A"/>
<ellipse opacity="0.2" cx="106.102" cy="114.455" rx="1.50918" ry="0.830815" fill="#7A7A7A"/>
<ellipse opacity="0.1" cx="110.102" cy="112.455" rx="1.50918" ry="0.830815" fill="#7A7A7A"/>
</g>
<ellipse cx="80.0124" cy="103.111" rx="13.7035" ry="7.243" fill="#E9E9E9"/>
<ellipse opacity="0.5" cx="80.0123" cy="103.111" rx="10.216" ry="5.39967" fill="white"/>
<ellipse cx="80.0123" cy="103.111" rx="4.89862" ry="2.58916" fill="white"/>
<path opacity="0.4" d="M102.921 73.3049C105.851 75.7146 107.56 78.6124 107.56 81.7299C107.56 90.1054 95.2263 96.895 80.0123 96.895C64.7983 96.895 52.4649 90.1054 52.4649 81.7299C52.4649 78.1608 54.7047 74.8795 58.4528 72.2891" stroke="url(#paint1_linear_2228_31980)" stroke-width="0.446344"/>
<path opacity="0.4" d="M97.9915 88.0082C100.291 89.8994 101.632 92.1737 101.632 94.6204C101.632 101.194 91.9526 106.522 80.0123 106.522C68.0719 106.522 58.3924 101.194 58.3924 94.6204C58.3924 91.8192 60.1503 89.244 63.0918 87.2109" stroke="url(#paint2_linear_2228_31980)" stroke-width="0.446344"/>
<path opacity="0.4" d="M106.151 59.0051C109.6 61.8412 111.611 65.2516 111.611 68.9207C111.611 78.7778 97.0955 86.7686 79.1899 86.7686C61.2844 86.7686 46.769 78.7778 46.769 68.9207C46.769 64.72 49.4051 60.8584 53.8162 57.8096" stroke="url(#paint3_linear_2228_31980)" stroke-width="0.446344"/>
<defs>
<linearGradient id="paint0_linear_2228_31980" x1="80.0152" y1="112.365" x2="80.0152" y2="40.4051" gradientUnits="userSpaceOnUse">
<stop offset="0.481737" stop-color="#7A7A7A"/>
<stop offset="1" stop-color="white"/>
</linearGradient>
<linearGradient id="paint1_linear_2228_31980" x1="80.0123" y1="66.565" x2="80.0123" y2="98.7213" gradientUnits="userSpaceOnUse">
<stop offset="0.239618" stop-color="#F2F4FF"/>
<stop offset="0.959626" stop-color="#7A7A7A"/>
</linearGradient>
<linearGradient id="paint2_linear_2228_31980" x1="80.0123" y1="82.7185" x2="80.0123" y2="107.956" gradientUnits="userSpaceOnUse">
<stop offset="0.239618" stop-color="#F2F4FF"/>
<stop offset="0.959626" stop-color="#7A7A7A"/>
</linearGradient>
<linearGradient id="paint3_linear_2228_31980" x1="79.1899" y1="51.0728" x2="79.1899" y2="88.918" gradientUnits="userSpaceOnUse">
<stop offset="0.239618" stop-color="#F2F4FF"/>
<stop offset="0.959626" stop-color="#7A7A7A"/>
</linearGradient>
</defs>
</svg>
