<svg width="160" height="161" viewBox="0 0 160 161" fill="none" xmlns="http://www.w3.org/2000/svg">
<rect x="0.173205" width="61.7999" height="61.7999" transform="matrix(0.866025 -0.5 0.866025 0.5 26.3451 123.526)" fill="#222222" stroke="#6D6D6D" stroke-width="0.2"/>
<path d="M80.0084 136.32L79.5245 136.803L80.0084 137.287L80.4923 136.803L80.0084 136.32ZM80.0084 153.04L80.4923 152.556L80.0084 152.072L79.5245 152.556L80.0084 153.04ZM80.0084 136.803L79.9246 136.803L79.9246 136.968L80.0084 136.968L80.0922 136.968L80.0922 136.803L80.0084 136.803ZM80.0084 137.624L79.9246 137.624L79.9246 137.952L80.0084 137.952L80.0922 137.952L80.0922 137.624L80.0084 137.624ZM80.0084 138.608L79.9246 138.608L79.9246 138.937L80.0084 138.937L80.0922 138.937L80.0922 138.608L80.0084 138.608ZM80.0084 139.593L79.9246 139.593L79.9246 139.921L80.0084 139.921L80.0922 139.921L80.0922 139.593L80.0084 139.593ZM80.0084 140.577L79.9246 140.577L79.9246 140.906L80.0084 140.906L80.0922 140.906L80.0922 140.577L80.0084 140.577ZM80.0084 141.562L79.9246 141.562L79.9246 141.89L80.0084 141.89L80.0922 141.89L80.0922 141.562L80.0084 141.562ZM80.0084 142.546L79.9246 142.546L79.9246 142.875L80.0084 142.875L80.0922 142.875L80.0922 142.546L80.0084 142.546ZM80.0084 143.531L79.9246 143.531L79.9246 143.859L80.0084 143.859L80.0922 143.859L80.0922 143.531L80.0084 143.531ZM80.0084 144.515L79.9246 144.515L79.9246 144.844L80.0084 144.844L80.0922 144.844L80.0922 144.515L80.0084 144.515ZM80.0084 145.5L79.9246 145.5L79.9246 145.828L80.0084 145.828L80.0922 145.828L80.0922 145.5L80.0084 145.5ZM80.0084 146.485L79.9246 146.485L79.9246 146.813L80.0084 146.813L80.0922 146.813L80.0922 146.485L80.0084 146.485ZM80.0084 147.469L79.9246 147.469L79.9246 147.797L80.0084 147.797L80.0922 147.797L80.0922 147.469L80.0084 147.469ZM80.0084 148.454L79.9246 148.454L79.9246 148.782L80.0084 148.782L80.0922 148.782L80.0922 148.454L80.0084 148.454ZM80.0084 149.438L79.9246 149.438L79.9246 149.766L80.0084 149.766L80.0922 149.766L80.0922 149.438L80.0084 149.438ZM80.0084 150.423L79.9246 150.423L79.9246 150.751L80.0084 150.751L80.0922 150.751L80.0922 150.423L80.0084 150.423ZM80.0084 151.407L79.9246 151.407L79.9246 151.735L80.0084 151.735L80.0922 151.735L80.0922 151.407L80.0084 151.407ZM80.0084 152.392L79.9246 152.392L79.9246 152.556L80.0084 152.556L80.0922 152.556L80.0922 152.392L80.0084 152.392Z" fill="#6D6D6D"/>
<path d="M26.7665 105.725L26.2826 106.209L26.7665 106.693L27.2504 106.209L26.7665 105.725ZM26.7665 122.42L27.2504 121.936L26.7665 121.452L26.2826 121.936L26.7665 122.42ZM26.7665 106.209L26.6827 106.209L26.6827 106.373L26.7665 106.373L26.8503 106.373L26.8503 106.209L26.7665 106.209ZM26.7665 107.028L26.6827 107.028L26.6827 107.356L26.7665 107.356L26.8503 107.356L26.8503 107.028L26.7665 107.028ZM26.7665 108.011L26.6827 108.011L26.6827 108.339L26.7665 108.339L26.8503 108.339L26.8503 108.011L26.7665 108.011ZM26.7665 108.994L26.6827 108.994L26.6827 109.322L26.7665 109.322L26.8503 109.322L26.8503 108.994L26.7665 108.994ZM26.7665 109.977L26.6827 109.977L26.6827 110.305L26.7665 110.305L26.8503 110.305L26.8503 109.977L26.7665 109.977ZM26.7665 110.96L26.6827 110.96L26.6827 111.288L26.7665 111.288L26.8503 111.288L26.8503 110.96L26.7665 110.96ZM26.7665 111.943L26.6827 111.943L26.6827 112.271L26.7665 112.271L26.8503 112.271L26.8503 111.943L26.7665 111.943ZM26.7665 112.926L26.6827 112.926L26.6827 113.253L26.7665 113.253L26.8503 113.253L26.8503 112.926L26.7665 112.926ZM26.7665 113.909L26.6827 113.909L26.6827 114.236L26.7665 114.236L26.8503 114.236L26.8503 113.909L26.7665 113.909ZM26.7665 114.892L26.6827 114.892L26.6827 115.219L26.7665 115.219L26.8503 115.219L26.8503 114.892L26.7665 114.892ZM26.7665 115.875L26.6827 115.875L26.6827 116.202L26.7665 116.202L26.8503 116.202L26.8503 115.875L26.7665 115.875ZM26.7665 116.858L26.6827 116.858L26.6827 117.185L26.7665 117.185L26.8503 117.185L26.8503 116.858L26.7665 116.858ZM26.7665 117.841L26.6827 117.841L26.6827 118.168L26.7665 118.168L26.8503 118.168L26.8503 117.841L26.7665 117.841ZM26.7665 118.824L26.6827 118.824L26.6827 119.151L26.7665 119.151L26.8503 119.151L26.8503 118.824L26.7665 118.824ZM26.7665 119.806L26.6827 119.806L26.6827 120.134L26.7665 120.134L26.8503 120.134L26.8503 119.806L26.7665 119.806ZM26.7665 120.789L26.6827 120.789L26.6827 121.117L26.7665 121.117L26.8503 121.117L26.8503 120.789L26.7665 120.789ZM26.7665 121.772L26.6827 121.772L26.6827 121.936L26.7665 121.936L26.8503 121.936L26.8503 121.772L26.7665 121.772Z" fill="#6D6D6D"/>
<path d="M133.267 105.725L132.783 106.209L133.267 106.693L133.751 106.209L133.267 105.725ZM133.267 122.42L133.751 121.936L133.267 121.452L132.783 121.936L133.267 122.42ZM133.267 106.209L133.183 106.209L133.183 106.373L133.267 106.373L133.351 106.373L133.351 106.209L133.267 106.209ZM133.267 107.028L133.183 107.028L133.183 107.356L133.267 107.356L133.351 107.356L133.351 107.028L133.267 107.028ZM133.267 108.011L133.183 108.011L133.183 108.339L133.267 108.339L133.351 108.339L133.351 108.011L133.267 108.011ZM133.267 108.994L133.183 108.994L133.183 109.322L133.267 109.322L133.351 109.322L133.351 108.994L133.267 108.994ZM133.267 109.977L133.183 109.977L133.183 110.305L133.267 110.305L133.351 110.305L133.351 109.977L133.267 109.977ZM133.267 110.96L133.183 110.96L133.183 111.288L133.267 111.288L133.351 111.288L133.351 110.96L133.267 110.96ZM133.267 111.943L133.183 111.943L133.183 112.271L133.267 112.271L133.351 112.271L133.351 111.943L133.267 111.943ZM133.267 112.926L133.183 112.926L133.183 113.253L133.267 113.253L133.351 113.253L133.351 112.926L133.267 112.926ZM133.267 113.909L133.183 113.909L133.183 114.236L133.267 114.236L133.351 114.236L133.351 113.909L133.267 113.909ZM133.267 114.892L133.183 114.892L133.183 115.219L133.267 115.219L133.351 115.219L133.351 114.892L133.267 114.892ZM133.267 115.875L133.183 115.875L133.183 116.202L133.267 116.202L133.351 116.202L133.351 115.875L133.267 115.875ZM133.267 116.858L133.183 116.858L133.183 117.185L133.267 117.185L133.351 117.185L133.351 116.858L133.267 116.858ZM133.267 117.841L133.183 117.841L133.183 118.168L133.267 118.168L133.351 118.168L133.351 117.841L133.267 117.841ZM133.267 118.824L133.183 118.824L133.183 119.151L133.267 119.151L133.351 119.151L133.351 118.824L133.267 118.824ZM133.267 119.806L133.183 119.806L133.183 120.134L133.267 120.134L133.351 120.134L133.351 119.806L133.267 119.806ZM133.267 120.789L133.183 120.789L133.183 121.117L133.267 121.117L133.351 121.117L133.351 120.789L133.267 120.789ZM133.267 121.772L133.183 121.772L133.183 121.936L133.267 121.936L133.351 121.936L133.351 121.772L133.267 121.772Z" fill="#6D6D6D"/>
<path d="M133.508 103.999L79.6964 134.967L26.5148 103.979L79.9523 73.1416L133.508 103.999Z" fill="#222222" stroke="#6D6D6D" stroke-width="0.2"/>
<rect x="0.0865978" y="0.0499972" width="2.48965" height="9.85357" rx="0.1" transform="matrix(0.86601 -0.500028 -3.18351e-05 1 75.8721 62.6075)" fill="#383838" stroke="#7A7A7A" stroke-width="0.2"/>
<rect x="0.0866041" y="0.150003" width="2.42423" height="9.94697" rx="0.1" transform="matrix(0.86601 0.500028 3.18351e-05 1 73.765 61.1112)" fill="#222222" stroke="#7A7A7A" stroke-width="0.2"/>
<rect x="0.173208" width="2.28937" height="2.42218" rx="0.1" transform="matrix(0.866041 -0.499972 0.866041 0.499972 73.7078 61.3781)" fill="#222222" stroke="#7A7A7A" stroke-width="0.2"/>
<rect x="0.0865978" y="0.0499972" width="8.46911" height="27.7465" rx="0.1" transform="matrix(0.86601 -0.500028 -3.18351e-05 1 75.8611 38.2152)" fill="#383838" stroke="#7A7A7A" stroke-width="0.2"/>
<rect x="0.0866041" y="0.150003" width="9.00046" height="27.8134" rx="0.1" transform="matrix(0.86601 0.500028 3.18351e-05 1 68.0651 33.4716)" fill="#222222" stroke="#7A7A7A" stroke-width="0.2"/>
<rect x="0.173208" width="8.42319" height="9.04173" rx="0.1" transform="matrix(0.866041 -0.499972 0.866041 0.499972 67.9746 33.7756)" fill="#222222" stroke="#7A7A7A" stroke-width="0.2"/>
<rect x="0.0865978" y="0.0499972" width="2.31991" height="12.3808" rx="0.1" transform="matrix(0.86601 -0.500028 -3.18351e-05 1 75.9598 23.1224)" fill="#383838" stroke="#7A7A7A" stroke-width="0.2"/>
<rect x="0.0866041" y="0.150003" width="2.50142" height="12.3766" rx="0.1" transform="matrix(0.86601 0.500028 3.18351e-05 1 73.792 21.6908)" fill="#222222" stroke="#7A7A7A" stroke-width="0.2"/>
<rect x="0.173208" width="2.3622" height="2.47436" rx="0.1" transform="matrix(0.866041 -0.499972 0.866041 0.499972 73.7078 21.9938)" fill="#222222" stroke="#7A7A7A" stroke-width="0.2"/>
<mask id="path-15-inside-1_2228_31898" fill="white">
<rect width="2.443" height="5.20298" rx="0.122519" transform="matrix(0.86601 -0.500028 -3.18351e-05 1 93.8813 76.9539)"/>
</mask>
<rect width="2.443" height="5.20298" rx="0.122519" transform="matrix(0.86601 -0.500028 -3.18351e-05 1 93.8813 76.9539)" fill="#383838" stroke="#7A7A7A" stroke-width="0.4" mask="url(#path-15-inside-1_2228_31898)"/>
<mask id="path-16-inside-2_2228_31898" fill="white">
<rect width="2.68326" height="5.18136" rx="0.122519" transform="matrix(0.86601 0.500028 3.18351e-05 1 91.7229 75.6797)"/>
</mask>
<rect width="2.68326" height="5.18136" rx="0.122519" transform="matrix(0.86601 0.500028 3.18351e-05 1 91.7229 75.6797)" fill="#222222" stroke="#7A7A7A" stroke-width="0.4" mask="url(#path-16-inside-2_2228_31898)"/>
<mask id="path-17-inside-3_2228_31898" fill="white">
<rect width="2.46389" height="2.59807" rx="0.122519" transform="matrix(0.866041 -0.499972 0.866041 0.499972 91.6613 75.7561)"/>
</mask>
<rect width="2.46389" height="2.59807" rx="0.122519" transform="matrix(0.866041 -0.499972 0.866041 0.499972 91.6613 75.7561)" fill="#222222" stroke="#7A7A7A" stroke-width="0.4" mask="url(#path-17-inside-3_2228_31898)"/>
<rect x="0.0865978" y="0.0499972" width="8.75536" height="18.8726" rx="0.34912" transform="matrix(0.86601 -0.500028 -3.18351e-05 1 93.6852 60.1956)" fill="#383838" stroke="#7A7A7A" stroke-width="0.2"/>
<rect x="0.0866041" y="0.150003" width="9.18622" height="19.0731" rx="0.34912" transform="matrix(0.86601 0.500028 3.18351e-05 1 85.9251 55.2462)" fill="#222222" stroke="#7A7A7A" stroke-width="0.2"/>
<rect x="0.173208" width="8.65457" height="9.36654" rx="0.34912" transform="matrix(0.866041 -0.499972 0.866041 0.499972 85.7069 55.7621)" fill="#222222" stroke="#7A7A7A" stroke-width="0.2"/>
<mask id="path-21-inside-4_2228_31898" fill="white">
<rect width="2.52613" height="5.20298" rx="0.122519" transform="matrix(0.86601 -0.500028 -3.18351e-05 1 93.8093 52.4915)"/>
</mask>
<rect width="2.52613" height="5.20298" rx="0.122519" transform="matrix(0.86601 -0.500028 -3.18351e-05 1 93.8093 52.4915)" fill="#383838" stroke="#7A7A7A" stroke-width="0.4" mask="url(#path-21-inside-4_2228_31898)"/>
<mask id="path-22-inside-5_2228_31898" fill="white">
<rect width="2.60844" height="5.18136" rx="0.122519" transform="matrix(0.86601 0.500028 3.18351e-05 1 91.7229 51.1758)"/>
</mask>
<rect width="2.60844" height="5.18136" rx="0.122519" transform="matrix(0.86601 0.500028 3.18351e-05 1 91.7229 51.1758)" fill="#222222" stroke="#7A7A7A" stroke-width="0.4" mask="url(#path-22-inside-5_2228_31898)"/>
<mask id="path-23-inside-6_2228_31898" fill="white">
<rect width="2.46389" height="2.59807" rx="0.122519" transform="matrix(0.866041 -0.499972 0.866041 0.499972 91.6613 51.2522)"/>
</mask>
<rect width="2.46389" height="2.59807" rx="0.122519" transform="matrix(0.866041 -0.499972 0.866041 0.499972 91.6613 51.2522)" fill="#222222" stroke="#7A7A7A" stroke-width="0.4" mask="url(#path-23-inside-6_2228_31898)"/>
<mask id="path-24-inside-7_2228_31898" fill="white">
<rect width="2.52124" height="5.20298" rx="0.122519" transform="matrix(0.86601 -0.500028 -3.18351e-05 1 58.2831 45.1382)"/>
</mask>
<rect width="2.52124" height="5.20298" rx="0.122519" transform="matrix(0.86601 -0.500028 -3.18351e-05 1 58.2831 45.1382)" fill="#383838" stroke="#7A7A7A" stroke-width="0.4" mask="url(#path-24-inside-7_2228_31898)"/>
<mask id="path-25-inside-8_2228_31898" fill="white">
<rect width="2.60844" height="5.18136" rx="0.122519" transform="matrix(0.86601 0.500028 3.18351e-05 1 56.1924 43.8247)"/>
</mask>
<rect width="2.60844" height="5.18136" rx="0.122519" transform="matrix(0.86601 0.500028 3.18351e-05 1 56.1924 43.8247)" fill="#222222" stroke="#7A7A7A" stroke-width="0.4" mask="url(#path-25-inside-8_2228_31898)"/>
<mask id="path-26-inside-9_2228_31898" fill="white">
<rect width="2.46389" height="2.59807" rx="0.122519" transform="matrix(0.866041 -0.499972 0.866041 0.499972 56.1307 43.9011)"/>
</mask>
<rect width="2.46389" height="2.59807" rx="0.122519" transform="matrix(0.866041 -0.499972 0.866041 0.499972 56.1307 43.9011)" fill="#222222" stroke="#7A7A7A" stroke-width="0.4" mask="url(#path-26-inside-9_2228_31898)"/>
<rect x="0.0865978" y="0.0499972" width="8.75536" height="18.8726" rx="0.34912" transform="matrix(0.86601 -0.500028 -3.18351e-05 1 58.1547 28.3407)" fill="#383838" stroke="#7A7A7A" stroke-width="0.2"/>
<rect x="0.0866041" y="0.150003" width="9.18622" height="19.0731" rx="0.34912" transform="matrix(0.86601 0.500028 3.18351e-05 1 50.3945 23.3913)" fill="#222222" stroke="#7A7A7A" stroke-width="0.2"/>
<rect x="0.173208" width="8.65457" height="9.36654" rx="0.34912" transform="matrix(0.866041 -0.499972 0.866041 0.499972 50.1764 23.9072)" fill="#222222" stroke="#7A7A7A" stroke-width="0.2"/>
<mask id="path-30-inside-10_2228_31898" fill="white">
<rect width="2.52145" height="5.15125" rx="0.122519" transform="matrix(0.86601 -0.500028 -3.18351e-05 1 58.283 20.6343)"/>
</mask>
<rect width="2.52145" height="5.15125" rx="0.122519" transform="matrix(0.86601 -0.500028 -3.18351e-05 1 58.283 20.6343)" fill="#383838" stroke="#7A7A7A" stroke-width="0.4" mask="url(#path-30-inside-10_2228_31898)"/>
<mask id="path-31-inside-11_2228_31898" fill="white">
<rect width="2.60844" height="5.18136" rx="0.122519" transform="matrix(0.86601 0.500028 3.18351e-05 1 56.1924 19.3208)"/>
</mask>
<rect width="2.60844" height="5.18136" rx="0.122519" transform="matrix(0.86601 0.500028 3.18351e-05 1 56.1924 19.3208)" fill="#222222" stroke="#7A7A7A" stroke-width="0.4" mask="url(#path-31-inside-11_2228_31898)"/>
<mask id="path-32-inside-12_2228_31898" fill="white">
<rect width="2.46389" height="2.59807" rx="0.122519" transform="matrix(0.866041 -0.499972 0.866041 0.499972 56.1307 19.3972)"/>
</mask>
<rect width="2.46389" height="2.59807" rx="0.122519" transform="matrix(0.866041 -0.499972 0.866041 0.499972 56.1307 19.3972)" fill="#222222" stroke="#7A7A7A" stroke-width="0.4" mask="url(#path-32-inside-12_2228_31898)"/>
<path d="M35.8635 25.7715L35.9006 25.8066L35.9514 25.7969C37.5419 25.4761 39.8559 26.3464 41.8118 28.1973C42.0522 28.4248 42.2782 28.6591 42.4895 28.8975C42.9123 29.3746 43.2765 29.869 43.5754 30.3652C44.3243 31.6084 44.6647 32.8535 44.5413 33.8525L44.5354 33.9033L44.5725 33.9385L44.8694 34.2168L44.009 35.127L44.0051 35.1299C43.9792 35.1601 43.9611 35.1843 43.9387 35.208C43.2656 35.9192 42.1426 36.1035 40.8459 35.7939C39.5523 35.4851 38.1065 34.6875 36.8206 33.4707L36.5872 33.2432L36.3616 33.0107C35.2638 31.8439 34.5289 30.5537 34.2249 29.3848C33.9203 28.2136 34.0512 27.1815 34.6545 26.5059L34.72 26.4336L34.7151 26.4287L35.5833 25.5107L35.8635 25.7715Z" fill="#383838" stroke="#7A7A7A" stroke-width="0.2"/>
<path d="M42.754 27.201C41.4682 25.9843 40.0224 25.188 38.7289 24.8791C37.4323 24.5696 36.3096 24.7533 35.6365 25.4646C34.9635 26.1759 34.8419 27.3071 35.2224 28.5846C35.6022 29.8591 36.4777 31.258 37.7635 32.4748C39.0494 33.6917 40.495 34.4893 41.7886 34.7981C43.0852 35.1077 44.2079 34.9239 44.881 34.2127C45.5541 33.5014 45.6757 32.3702 45.2951 31.0926C44.9154 29.818 44.04 28.418 42.754 27.201Z" fill="#222222" stroke="#7A7A7A" stroke-width="0.2"/>
<path d="M41.5368 30.3392L41.5364 30.2993C41.5364 30.2081 41.535 30.1308 41.5313 30.0678C41.5258 30.004 41.5152 29.9279 41.4988 29.8396C41.4277 29.474 41.2822 29.1628 41.0634 28.9066C40.9033 28.7188 40.7176 28.5639 40.5067 28.4409L40.5059 27.9154L40.0079 27.7027L40.0086 28.2282C39.887 28.1951 39.7727 28.1792 39.6657 28.1814C39.5965 28.1821 39.5328 28.1939 39.4728 28.2116L39.4719 27.491L38.9739 27.2783L38.9738 29.2895L38.9751 29.2895L38.974 30.2234L39.5926 30.4878L39.5926 29.4943C39.5926 29.4527 39.5939 29.4087 39.5975 29.3626C39.5993 29.3138 39.6058 29.2695 39.6168 29.2305C39.6442 29.1255 39.6929 29.0542 39.7621 29.0164C39.8313 28.9767 39.9105 28.9621 39.9997 28.9726C40.0026 28.9728 40.0054 28.974 40.0083 28.9743L40.0079 30.6452L40.506 30.8579L40.5063 29.187C40.5088 29.1889 40.5112 29.1908 40.5137 29.1927C40.6012 29.2579 40.6802 29.3398 40.7495 29.4388C40.8169 29.535 40.8652 29.6478 40.8943 29.7771C40.9053 29.8254 40.9125 29.8753 40.9161 29.9264C40.9198 29.9755 40.9219 30.0214 40.9219 30.063L40.9218 31.0565L41.5364 31.3197L42.9125 30.2424L42.9124 29.2424L41.5368 30.3392Z" fill="#7A7A7A"/>
<path d="M117.277 44.7424L117.273 44.7473L117.339 44.8196C117.5 45.0002 117.627 45.2058 117.722 45.4319C117.816 45.6583 117.878 45.906 117.907 46.1711C118.046 47.4348 117.453 49.0797 116.247 50.6116L116.051 50.8528C115.984 50.9323 115.916 51.0117 115.847 51.0901C115.777 51.169 115.704 51.2474 115.631 51.3254C115.485 51.4807 115.332 51.634 115.173 51.7844C113.887 53.0013 112.441 53.7988 111.147 54.1077C109.851 54.4172 108.729 54.2327 108.056 53.5217C108.033 53.498 108.014 53.4738 107.988 53.4436L107.984 53.4407L107.123 52.5305L107.421 52.2522L107.458 52.217L107.452 52.1663C107.427 51.967 107.421 51.7576 107.432 51.5403C107.456 51.1053 107.554 50.6382 107.72 50.1555C108.01 49.3109 108.511 48.4205 109.198 47.5715C109.388 47.3368 109.593 47.1058 109.811 46.8792C109.931 46.7549 110.054 46.6315 110.182 46.511C110.791 45.9343 111.437 45.4515 112.086 45.0706C112.216 44.9941 112.346 44.9217 112.475 44.8538C112.994 44.5818 113.51 44.3764 114.007 44.2405C114.254 44.1726 114.497 44.1217 114.732 44.0891C114.968 44.0565 115.197 44.0417 115.416 44.0452C115.471 44.046 115.525 44.0479 115.578 44.051C115.685 44.0573 115.79 44.0679 115.891 44.0833C115.942 44.0908 115.992 44.1005 116.042 44.1106L116.093 44.1204L116.13 44.0852L116.409 43.8245L117.277 44.7424Z" fill="#383838" stroke="#7A7A7A" stroke-width="0.2"/>
<path d="M109.24 45.5143C110.525 44.2976 111.971 43.5012 113.265 43.1923C114.561 42.8828 115.684 43.0665 116.357 43.7778C117.03 44.4891 117.152 45.6203 116.771 46.8978C116.391 48.1723 115.516 49.5713 114.23 50.788C112.944 52.0049 111.499 52.8025 110.205 53.1114C108.908 53.4209 107.786 53.2371 107.113 52.5259C106.44 51.8146 106.318 50.6834 106.699 49.4059C107.078 48.1313 107.954 46.7312 109.24 45.5143Z" fill="#222222" stroke="#7A7A7A" stroke-width="0.2"/>
<path d="M113.642 45.8672L113.519 46.395L112.809 46.5198C112.837 46.5761 112.86 46.6375 112.872 46.706C112.893 46.8105 112.896 46.9254 112.885 47.0504L113.404 46.959L113.281 47.4868L112.763 47.5782C112.679 47.8075 112.559 48.0182 112.401 48.2086C112.187 48.4684 111.905 48.6653 111.557 48.7988C111.474 48.8301 111.401 48.8544 111.339 48.8708C111.278 48.8853 111.202 48.9005 111.112 48.9163L111.073 48.9228L112.392 50.088L111.407 50.2612L110.107 49.0931L110.26 48.4417L111.238 48.2684C111.279 48.2612 111.324 48.2524 111.372 48.2403C111.421 48.2279 111.469 48.2115 111.515 48.1924C111.637 48.1413 111.739 48.0733 111.822 47.9902C111.908 47.9049 111.976 47.8141 112.025 47.7167C112.026 47.7139 112.026 47.71 112.028 47.7071L110.383 47.9968L110.506 47.4704L112.151 47.18C112.151 47.1773 112.152 47.1745 112.152 47.1717C112.146 47.082 112.118 47.0062 112.067 46.9449C112.018 46.8835 111.94 46.8484 111.832 46.8396C111.792 46.8356 111.746 46.8375 111.698 46.8442C111.652 46.8486 111.608 46.8541 111.567 46.8613L110.589 47.0333L110.742 46.3785L113.642 45.8672Z" fill="#7A7A7A"/>
<path d="M91.1045 17.8933C90.0703 18.8892 88.8979 19.3522 87.8242 19.0955L87.7656 19.0818L87.7588 19.0789L87.7529 19.0789L87.7402 19.0759C87.6865 19.0611 87.6336 19.0438 87.5811 19.0251L87.4102 18.9578L87.4033 18.9548L86.3184 18.5779L86.3984 18.2742L86.4121 18.2234L86.377 18.1833C85.715 17.4165 85.2957 16.2521 85.1885 14.8835C85.1648 14.5809 85.1555 14.2685 85.1631 13.949C85.1745 13.4679 85.2225 12.9699 85.3086 12.4626L85.4082 11.9529L85.5332 11.4363C85.9022 10.0602 86.5022 8.85278 87.2236 7.91577C87.4038 7.68177 87.5917 7.46493 87.7852 7.26636C87.882 7.16697 87.9804 7.07219 88.0801 6.98218C88.2293 6.84738 88.3812 6.72354 88.5352 6.61108C88.5865 6.57357 88.6385 6.53674 88.6904 6.50171C88.8974 6.36213 89.1073 6.24264 89.3184 6.14624C89.4236 6.09818 89.5297 6.05625 89.6357 6.01929L89.6855 6.00171L89.6992 5.95093L89.7793 5.65405L90.8047 5.85327L90.8164 5.85425L91.0498 5.88257C91.1271 5.89528 91.2042 5.91102 91.2803 5.9314C91.4159 5.96773 91.547 6.0149 91.6729 6.07202C92.0512 6.24379 92.3886 6.50788 92.6787 6.84937C92.7755 6.96327 92.867 7.08592 92.9531 7.21655C93.039 7.34683 93.1194 7.48562 93.1943 7.63159C93.2693 7.77767 93.3392 7.93083 93.4023 8.09058C93.4655 8.25047 93.5221 8.41755 93.5732 8.59058C93.65 8.85012 93.7127 9.1234 93.7607 9.40796C93.8248 9.78742 93.8637 10.1873 93.874 10.6023C93.8973 11.5363 93.7791 12.5466 93.5039 13.574C93.0192 15.3825 92.1374 16.8986 91.1045 17.8933Z" fill="#383838" stroke="#7A7A7A" stroke-width="0.2"/>
<path d="M83.9632 11.069C83.4819 12.8654 83.5065 14.6106 83.9299 15.9776C84.3538 17.3462 85.172 18.3214 86.2683 18.6151C87.3646 18.9087 88.5601 18.4731 89.6113 17.5C90.6615 16.5278 91.5554 15.0287 92.0368 13.2323C92.518 11.4361 92.4932 9.69157 92.0698 8.32462C91.646 6.95624 90.8288 5.98033 89.7326 5.68644C88.6362 5.39267 87.4398 5.82905 86.3884 6.80229C85.3383 7.77442 84.4445 9.27285 83.9632 11.069Z" fill="#222222" stroke="#7A7A7A" stroke-width="0.2"/>
<path d="M88.3609 13.103L88.3848 13.0669C88.4387 12.9865 88.4825 12.9175 88.5163 12.8599C88.5489 12.8006 88.5835 12.7273 88.6202 12.6404C88.7692 12.2787 88.8161 11.9246 88.7603 11.5788C88.7197 11.3253 88.635 11.0869 88.5076 10.863L88.8176 10.3984L88.4718 9.93856L88.1603 10.404C88.0648 10.3087 87.9671 10.2316 87.8647 10.1753C87.7983 10.1379 87.7308 10.1127 87.6631 10.0955L88.0886 9.45963L87.7428 8.99976L86.615 10.6844C86.6121 10.6887 86.6081 10.692 86.6054 10.696L86 11.5994L86.4294 12.1706L87.0174 11.2935C87.042 11.2568 87.0699 11.2191 87.1005 11.1805C87.1311 11.1384 87.1637 11.1033 87.1971 11.0749C87.2852 10.9971 87.3731 10.9608 87.461 10.9652C87.5501 10.968 87.634 10.9979 87.7125 11.0558C87.715 11.0575 87.7174 11.0599 87.7199 11.0617L86.7305 12.5373L87.0763 12.9972L88.0657 11.5215C88.0669 11.5245 88.0686 11.5274 88.0698 11.5304C88.1142 11.6358 88.1399 11.7517 88.147 11.877C88.154 11.9989 88.1331 12.1255 88.0842 12.2558C88.066 12.3042 88.043 12.3517 88.0162 12.3986C87.9907 12.4438 87.9665 12.4852 87.942 12.5218L87.3536 13.4001L87.7812 13.9682L89.7225 13.7681L90.3146 12.8856L88.3609 13.103Z" fill="#7A7A7A"/>
<path d="M65.6294 106.233L29.7937 32.6653C48.4717 8.72219 106.581 7.05717 130.237 33.4782L93.3065 103.868L93.4191 105.638C93.1299 106.034 92.81 106.407 92.4624 106.754L91.4497 107.762C90.6044 108.604 89.6076 109.279 88.5117 109.751C87.7518 110.079 86.9522 110.305 86.1334 110.425L80.4294 111.258C78.7757 111.5 77.0897 111.393 75.4795 110.945L72.2825 110.056C70.6824 109.612 69.192 108.839 67.9058 107.788L67.6226 107.557C67.0712 107.107 66.4809 106.706 65.8586 106.361L65.6294 106.233Z" fill="url(#paint0_linear_2228_31898)" fill-opacity="0.2"/>
<path d="M114.332 104.884L79.8099 124.751L45.6898 104.871L79.974 85.0862L114.332 104.884Z" fill="#383838" stroke="#7A7A7A" stroke-width="0.167379"/>
<path opacity="0.1" d="M114.528 104.901L113.523 105.478L80.0005 86.1636L46.5474 105.468L45.5503 104.887L80.0005 85.0063L114.528 104.901Z" fill="white"/>
<ellipse cx="80.0121" cy="104.048" rx="14.4198" ry="7.93822" fill="#7A7A7A"/>
<g opacity="0.5">
<ellipse cx="98.1015" cy="118.455" rx="1.50918" ry="0.830815" fill="#7A7A7A"/>
<ellipse opacity="0.4" cx="102.101" cy="116.455" rx="1.50918" ry="0.830815" fill="#7A7A7A"/>
<ellipse opacity="0.2" cx="106.101" cy="114.455" rx="1.50918" ry="0.830815" fill="#7A7A7A"/>
<ellipse opacity="0.1" cx="110.101" cy="112.455" rx="1.50918" ry="0.830815" fill="#7A7A7A"/>
</g>
<ellipse cx="80.0124" cy="103.111" rx="13.7035" ry="7.243" fill="#383838"/>
<ellipse opacity="0.5" cx="80.0123" cy="103.111" rx="10.216" ry="5.39967" fill="#222222"/>
<ellipse cx="80.0123" cy="103.111" rx="4.89862" ry="2.58916" fill="#222222"/>
<path opacity="0.4" d="M102.921 73.3054C105.851 75.7151 107.56 78.6129 107.56 81.7304C107.56 90.1058 95.2263 96.8955 80.0123 96.8955C64.7983 96.8955 52.465 90.1058 52.465 81.7304C52.465 78.1612 54.7048 74.88 58.4528 72.2896" stroke="url(#paint1_linear_2228_31898)" stroke-width="0.446344"/>
<path opacity="0.4" d="M97.9914 88.0087C100.291 89.8999 101.632 92.1742 101.632 94.6209C101.632 101.194 91.9526 106.523 80.0122 106.523C68.0719 106.523 58.3923 101.194 58.3923 94.6209C58.3923 91.8197 60.1502 89.2445 63.0918 87.2114" stroke="url(#paint2_linear_2228_31898)" stroke-width="0.446344"/>
<path opacity="0.4" d="M106.151 59.0056C109.6 61.8416 111.611 65.2521 111.611 68.9212C111.611 78.7783 97.0955 86.7691 79.1899 86.7691C61.2844 86.7691 46.769 78.7783 46.769 68.9212C46.769 64.7205 49.4051 60.8588 53.8162 57.8101" stroke="url(#paint3_linear_2228_31898)" stroke-width="0.446344"/>
<defs>
<linearGradient id="paint0_linear_2228_31898" x1="80.0152" y1="112.365" x2="80.0152" y2="40.4054" gradientUnits="userSpaceOnUse">
<stop offset="0.481737" stop-color="#7A7A7A"/>
<stop offset="1" stop-color="#111111"/>
</linearGradient>
<linearGradient id="paint1_linear_2228_31898" x1="80.0123" y1="66.5655" x2="80.0123" y2="98.7218" gradientUnits="userSpaceOnUse">
<stop offset="0.239618" stop-color="#222222"/>
<stop offset="0.959626" stop-color="#7A7A7A"/>
</linearGradient>
<linearGradient id="paint2_linear_2228_31898" x1="80.0122" y1="82.719" x2="80.0122" y2="107.956" gradientUnits="userSpaceOnUse">
<stop offset="0.239618" stop-color="#222222"/>
<stop offset="0.959626" stop-color="#7A7A7A"/>
</linearGradient>
<linearGradient id="paint3_linear_2228_31898" x1="79.1899" y1="51.0733" x2="79.1899" y2="88.9185" gradientUnits="userSpaceOnUse">
<stop offset="0.239618" stop-color="#222222"/>
<stop offset="0.959626" stop-color="#7A7A7A"/>
</linearGradient>
</defs>
</svg>
