<svg width="160" height="161" viewBox="0 0 160 161" fill="none" xmlns="http://www.w3.org/2000/svg">
<rect x="0.173205" width="61.7999" height="61.7999" transform="matrix(0.866025 -0.5 0.866025 0.5 26.3451 123.526)" fill="#222222" stroke="#6D6D6D" stroke-width="0.2"/>
<path d="M80.0084 136.32L79.5245 136.803L80.0084 137.287L80.4923 136.803L80.0084 136.32ZM80.0084 153.04L80.4923 152.556L80.0084 152.072L79.5245 152.556L80.0084 153.04ZM80.0084 136.803L79.9246 136.803L79.9246 136.968L80.0084 136.968L80.0922 136.968L80.0922 136.803L80.0084 136.803ZM80.0084 137.624L79.9246 137.624L79.9246 137.952L80.0084 137.952L80.0922 137.952L80.0922 137.624L80.0084 137.624ZM80.0084 138.608L79.9246 138.608L79.9246 138.937L80.0084 138.937L80.0922 138.937L80.0922 138.608L80.0084 138.608ZM80.0084 139.593L79.9246 139.593L79.9246 139.921L80.0084 139.921L80.0922 139.921L80.0922 139.593L80.0084 139.593ZM80.0084 140.577L79.9246 140.577L79.9246 140.906L80.0084 140.906L80.0922 140.906L80.0922 140.577L80.0084 140.577ZM80.0084 141.562L79.9246 141.562L79.9246 141.89L80.0084 141.89L80.0922 141.89L80.0922 141.562L80.0084 141.562ZM80.0084 142.546L79.9246 142.546L79.9246 142.875L80.0084 142.875L80.0922 142.875L80.0922 142.546L80.0084 142.546ZM80.0084 143.531L79.9246 143.531L79.9246 143.859L80.0084 143.859L80.0922 143.859L80.0922 143.531L80.0084 143.531ZM80.0084 144.515L79.9246 144.515L79.9246 144.844L80.0084 144.844L80.0922 144.844L80.0922 144.515L80.0084 144.515ZM80.0084 145.5L79.9246 145.5L79.9246 145.828L80.0084 145.828L80.0922 145.828L80.0922 145.5L80.0084 145.5ZM80.0084 146.485L79.9246 146.485L79.9246 146.813L80.0084 146.813L80.0922 146.813L80.0922 146.485L80.0084 146.485ZM80.0084 147.469L79.9246 147.469L79.9246 147.797L80.0084 147.797L80.0922 147.797L80.0922 147.469L80.0084 147.469ZM80.0084 148.454L79.9246 148.454L79.9246 148.782L80.0084 148.782L80.0922 148.782L80.0922 148.454L80.0084 148.454ZM80.0084 149.438L79.9246 149.438L79.9246 149.766L80.0084 149.766L80.0922 149.766L80.0922 149.438L80.0084 149.438ZM80.0084 150.423L79.9246 150.423L79.9246 150.751L80.0084 150.751L80.0922 150.751L80.0922 150.423L80.0084 150.423ZM80.0084 151.407L79.9246 151.407L79.9246 151.735L80.0084 151.735L80.0922 151.735L80.0922 151.407L80.0084 151.407ZM80.0084 152.392L79.9246 152.392L79.9246 152.556L80.0084 152.556L80.0922 152.556L80.0922 152.392L80.0084 152.392Z" fill="#6D6D6D"/>
<path d="M26.7664 105.725L26.2825 106.209L26.7664 106.693L27.2504 106.209L26.7664 105.725ZM26.7664 122.42L27.2504 121.936L26.7664 121.452L26.2825 121.936L26.7664 122.42ZM26.7664 106.209L26.6826 106.209L26.6826 106.373L26.7664 106.373L26.8503 106.373L26.8503 106.209L26.7664 106.209ZM26.7664 107.028L26.6826 107.028L26.6826 107.356L26.7664 107.356L26.8503 107.356L26.8503 107.028L26.7664 107.028ZM26.7664 108.011L26.6826 108.011L26.6826 108.339L26.7664 108.339L26.8503 108.339L26.8503 108.011L26.7664 108.011ZM26.7664 108.994L26.6826 108.994L26.6826 109.322L26.7664 109.322L26.8503 109.322L26.8503 108.994L26.7664 108.994ZM26.7664 109.977L26.6826 109.977L26.6826 110.305L26.7664 110.305L26.8503 110.305L26.8503 109.977L26.7664 109.977ZM26.7664 110.96L26.6826 110.96L26.6826 111.288L26.7664 111.288L26.8503 111.288L26.8503 110.96L26.7664 110.96ZM26.7664 111.943L26.6826 111.943L26.6826 112.271L26.7664 112.271L26.8503 112.271L26.8503 111.943L26.7664 111.943ZM26.7664 112.926L26.6826 112.926L26.6826 113.253L26.7664 113.253L26.8503 113.253L26.8503 112.926L26.7664 112.926ZM26.7664 113.909L26.6826 113.909L26.6826 114.236L26.7664 114.236L26.8503 114.236L26.8503 113.909L26.7664 113.909ZM26.7664 114.892L26.6826 114.892L26.6826 115.219L26.7664 115.219L26.8503 115.219L26.8503 114.892L26.7664 114.892ZM26.7664 115.875L26.6826 115.875L26.6826 116.202L26.7664 116.202L26.8503 116.202L26.8503 115.875L26.7664 115.875ZM26.7664 116.858L26.6826 116.858L26.6826 117.185L26.7664 117.185L26.8503 117.185L26.8503 116.858L26.7664 116.858ZM26.7664 117.841L26.6826 117.841L26.6826 118.168L26.7664 118.168L26.8503 118.168L26.8503 117.841L26.7664 117.841ZM26.7664 118.824L26.6826 118.824L26.6826 119.151L26.7664 119.151L26.8503 119.151L26.8503 118.824L26.7664 118.824ZM26.7664 119.806L26.6826 119.806L26.6826 120.134L26.7664 120.134L26.8503 120.134L26.8503 119.806L26.7664 119.806ZM26.7664 120.789L26.6826 120.789L26.6826 121.117L26.7664 121.117L26.8503 121.117L26.8503 120.789L26.7664 120.789ZM26.7664 121.772L26.6826 121.772L26.6826 121.936L26.7664 121.936L26.8503 121.936L26.8503 121.772L26.7664 121.772Z" fill="#6D6D6D"/>
<path d="M133.267 105.725L132.783 106.209L133.267 106.693L133.751 106.209L133.267 105.725ZM133.267 122.42L133.751 121.936L133.267 121.452L132.783 121.936L133.267 122.42ZM133.267 106.209L133.183 106.209L133.183 106.373L133.267 106.373L133.351 106.373L133.351 106.209L133.267 106.209ZM133.267 107.028L133.183 107.028L133.183 107.356L133.267 107.356L133.351 107.356L133.351 107.028L133.267 107.028ZM133.267 108.011L133.183 108.011L133.183 108.339L133.267 108.339L133.351 108.339L133.351 108.011L133.267 108.011ZM133.267 108.994L133.183 108.994L133.183 109.322L133.267 109.322L133.351 109.322L133.351 108.994L133.267 108.994ZM133.267 109.977L133.183 109.977L133.183 110.305L133.267 110.305L133.351 110.305L133.351 109.977L133.267 109.977ZM133.267 110.96L133.183 110.96L133.183 111.288L133.267 111.288L133.351 111.288L133.351 110.96L133.267 110.96ZM133.267 111.943L133.183 111.943L133.183 112.271L133.267 112.271L133.351 112.271L133.351 111.943L133.267 111.943ZM133.267 112.926L133.183 112.926L133.183 113.253L133.267 113.253L133.351 113.253L133.351 112.926L133.267 112.926ZM133.267 113.909L133.183 113.909L133.183 114.236L133.267 114.236L133.351 114.236L133.351 113.909L133.267 113.909ZM133.267 114.892L133.183 114.892L133.183 115.219L133.267 115.219L133.351 115.219L133.351 114.892L133.267 114.892ZM133.267 115.875L133.183 115.875L133.183 116.202L133.267 116.202L133.351 116.202L133.351 115.875L133.267 115.875ZM133.267 116.858L133.183 116.858L133.183 117.185L133.267 117.185L133.351 117.185L133.351 116.858L133.267 116.858ZM133.267 117.841L133.183 117.841L133.183 118.168L133.267 118.168L133.351 118.168L133.351 117.841L133.267 117.841ZM133.267 118.824L133.183 118.824L133.183 119.151L133.267 119.151L133.351 119.151L133.351 118.824L133.267 118.824ZM133.267 119.806L133.183 119.806L133.183 120.134L133.267 120.134L133.351 120.134L133.351 119.806L133.267 119.806ZM133.267 120.789L133.183 120.789L133.183 121.117L133.267 121.117L133.351 121.117L133.351 120.789L133.267 120.789ZM133.267 121.772L133.183 121.772L133.183 121.936L133.267 121.936L133.351 121.936L133.351 121.772L133.267 121.772Z" fill="#6D6D6D"/>
<path d="M133.508 103.999L79.6964 134.967L26.5147 103.979L79.9522 73.1416L133.508 103.999Z" fill="#222222" stroke="#6D6D6D" stroke-width="0.2"/>
<path d="M51.7618 41.9553L51.7989 41.9905L51.8497 41.9807C53.4402 41.6599 55.7542 42.5303 57.7101 44.3811C57.9505 44.6087 58.1765 44.8429 58.3878 45.0813C58.8106 45.5584 59.1748 46.0528 59.4737 46.5491C60.2226 47.7922 60.5629 49.0373 60.4395 50.0364L60.4337 50.0872L60.4708 50.1223L60.7677 50.4006L59.9073 51.3108L59.9034 51.3137C59.8775 51.3439 59.8594 51.3682 59.837 51.3918C59.1639 52.1031 58.0409 52.2874 56.7442 51.9778C55.4506 51.6689 54.0048 50.8714 52.7188 49.6545L52.4854 49.427L52.2599 49.1946C51.1621 48.0277 50.4272 46.7375 50.1231 45.5686C49.8185 44.3975 49.9495 43.3653 50.5528 42.6897L50.6183 42.6174L50.6134 42.6125L51.4815 41.6946L51.7618 41.9553Z" fill="#383838" stroke="#7A7A7A" stroke-width="0.2"/>
<path d="M58.6523 43.3849C57.3664 42.1682 55.9207 41.3718 54.6272 41.063C53.3306 40.7534 52.2078 40.9371 51.5347 41.6484C50.8617 42.3597 50.7401 43.4909 51.1207 44.7684C51.5004 46.0429 52.376 47.4419 53.6617 48.6587C54.9477 49.8756 56.3932 50.6731 57.6868 50.982C58.9834 51.2915 60.1062 51.1077 60.7793 50.3965C61.4524 49.6852 61.5739 48.554 61.1933 47.2765C60.8136 46.0019 59.9383 44.6018 58.6523 43.3849Z" fill="#222222" stroke="#7A7A7A" stroke-width="0.2"/>
<path d="M57.4352 46.5231L57.4347 46.4832C57.4347 46.3919 57.4333 46.3147 57.4296 46.2516C57.4242 46.1878 57.4136 46.1117 57.3972 46.0235C57.3261 45.6579 57.1805 45.3467 56.9617 45.0904C56.8017 44.9026 56.6159 44.7477 56.405 44.6247L56.4043 44.0992L55.9062 43.8865L55.907 44.412C55.7854 44.379 55.671 44.363 55.5641 44.3652C55.4949 44.3659 55.4311 44.3777 55.3712 44.3954L55.3703 43.6749L54.8722 43.4622L54.8721 45.4734L54.8734 45.4733L54.8723 46.4073L55.4909 46.6716L55.491 45.6781C55.491 45.6365 55.4922 45.5925 55.4959 45.5465C55.4977 45.4977 55.5042 45.4533 55.5151 45.4144C55.5425 45.3093 55.5912 45.238 55.6604 45.2003C55.7297 45.1606 55.8088 45.146 55.8981 45.1564C55.901 45.1567 55.9037 45.1579 55.9066 45.1581L55.9063 46.829L56.4043 47.0417L56.4047 45.3709C56.4071 45.3727 56.4096 45.3747 56.412 45.3765C56.4995 45.4417 56.5786 45.5236 56.6479 45.6227C56.7152 45.7188 56.7635 45.8317 56.7927 45.961C56.8036 46.0092 56.8108 46.0592 56.8145 46.1102C56.8181 46.1594 56.8202 46.2052 56.8202 46.2469L56.8201 47.2403L57.4347 47.5035L58.8108 46.4262L58.8107 45.4262L57.4352 46.5231Z" fill="#7A7A7A"/>
<path d="M107.176 18.9265L107.172 18.9314L107.237 19.0037C107.398 19.1843 107.526 19.3899 107.62 19.616C107.714 19.8424 107.776 20.0901 107.805 20.3552C107.945 21.6189 107.351 23.2638 106.145 24.7957L105.949 25.0369C105.882 25.1164 105.815 25.1958 105.745 25.2742C105.675 25.353 105.603 25.4315 105.529 25.5095C105.383 25.6648 105.23 25.8181 105.071 25.9685C103.785 27.1854 102.339 27.9829 101.046 28.2917C99.7493 28.6013 98.627 28.4168 97.9539 27.7058C97.9315 27.6821 97.9124 27.6579 97.8865 27.6277L97.8826 27.6248L97.0213 26.7146L97.3192 26.4363L97.3563 26.4011L97.3504 26.3503C97.3258 26.1511 97.3189 25.9416 97.3309 25.7244C97.3548 25.2894 97.4522 24.8223 97.618 24.3396C97.9081 23.495 98.4089 22.6046 99.0965 21.7556C99.2866 21.5209 99.4916 21.2899 99.7098 21.0632C99.8294 20.939 99.9526 20.8156 100.08 20.6951C100.689 20.1184 101.336 19.6356 101.984 19.2546C102.114 19.1782 102.244 19.1057 102.374 19.0378C102.893 18.7659 103.409 18.5604 103.905 18.4246C104.153 18.3567 104.395 18.3058 104.631 18.2732C104.867 18.2406 105.095 18.2258 105.314 18.2292C105.369 18.2301 105.423 18.232 105.476 18.2351C105.584 18.2414 105.688 18.252 105.79 18.2673C105.84 18.2749 105.89 18.2846 105.94 18.2947L105.991 18.3044L106.028 18.2693L106.307 18.0085L107.176 18.9265Z" fill="#383838" stroke="#7A7A7A" stroke-width="0.2"/>
<path d="M99.1379 19.6984C100.424 18.4816 101.87 17.6853 103.163 17.3764C104.46 17.0669 105.582 17.2506 106.255 17.9619C106.929 18.6732 107.05 19.8044 106.67 21.0819C106.29 22.3564 105.414 23.7553 104.129 24.9721C102.843 26.189 101.397 26.9866 100.103 27.2954C98.8068 27.605 97.684 27.4212 97.0109 26.71C96.3379 25.9987 96.2163 24.8675 96.5969 23.59C96.9766 22.3153 97.852 20.9153 99.1379 19.6984Z" fill="#222222" stroke="#7A7A7A" stroke-width="0.2"/>
<path d="M103.541 20.0513L103.418 20.5791L102.708 20.7039C102.736 20.7602 102.758 20.8216 102.771 20.8901C102.791 20.9946 102.795 21.1095 102.783 21.2344L103.302 21.1431L103.179 21.6709L102.662 21.7623C102.577 21.9916 102.457 22.2023 102.3 22.3927C102.085 22.6525 101.803 22.8494 101.456 22.9828C101.372 23.0142 101.299 23.0384 101.238 23.0549C101.176 23.0694 101.1 23.0846 101.01 23.1004L100.971 23.1069L102.29 24.2721L101.306 24.4453L100.005 23.2772L100.158 22.6258L101.137 22.4525C101.178 22.4453 101.223 22.4365 101.27 22.4244C101.32 22.4119 101.368 22.3956 101.413 22.3765C101.535 22.3253 101.638 22.2573 101.721 22.1743C101.806 22.089 101.874 21.9982 101.923 21.9008C101.924 21.898 101.925 21.8941 101.926 21.8912L100.281 22.1809L100.404 21.6544L102.05 21.3641C102.05 21.3614 102.05 21.3585 102.05 21.3558C102.045 21.266 102.017 21.1903 101.966 21.129C101.917 21.0676 101.838 21.0325 101.73 21.0237C101.69 21.0197 101.644 21.0216 101.596 21.0283C101.55 21.0327 101.507 21.0382 101.466 21.0454L100.487 21.2174L100.64 20.5626L103.541 20.0513Z" fill="#7A7A7A"/>
<path d="M97.2585 63.2671C98.812 62.8408 100.331 62.6459 101.289 62.5952L102.07 68.1431C102.052 68.2063 102.005 68.3038 101.912 68.4296C101.813 68.5639 101.664 68.7258 101.454 68.9073C101.033 69.2704 100.366 69.7087 99.3533 70.1556C97.3562 71.0366 96.0941 70.5093 95.7181 70.1614L92.9947 65.3583C94.0809 64.3689 95.6809 63.7 97.2585 63.2671Z" fill="#7A7A7A" stroke="#7A7A7A" stroke-width="0.2" stroke-linejoin="bevel"/>
<path d="M65.067 69.5754C65.8328 70.6764 66.4644 71.792 66.8285 72.513L64.2025 74.0291C63.9 74.0406 62.3621 74.2038 61.247 72.8983C60.6568 72.2074 60.3892 71.6822 60.275 71.2911C60.1654 70.9151 60.1966 70.6563 60.2259 70.4793L62.4988 66.719C63.3926 67.3783 64.2949 68.4653 65.067 69.5754Z" fill="#7A7A7A" stroke="#7A7A7A" stroke-width="0.2" stroke-linejoin="bevel"/>
<mask id="path-14-inside-1_2228_31643" fill="white">
<path d="M87.7921 35.6826C97.2858 35.6826 104.983 43.3784 104.983 52.8721C104.983 61.0763 99.2343 67.9368 91.546 69.6494L80.7853 73.6924C78.8047 74.486 76.6431 74.9238 74.379 74.9238C64.8614 74.9238 57.1456 67.2081 57.1456 57.6904C57.1457 50.0459 62.1238 43.5647 69.0148 41.3096L82.4962 36.5068L82.4991 36.5137C84.1666 35.9745 85.9452 35.6826 87.7921 35.6826Z"/>
</mask>
<path d="M87.7921 35.6826C97.2858 35.6826 104.983 43.3784 104.983 52.8721C104.983 61.0763 99.2343 67.9368 91.546 69.6494L80.7853 73.6924C78.8047 74.486 76.6431 74.9238 74.379 74.9238C64.8614 74.9238 57.1456 67.2081 57.1456 57.6904C57.1457 50.0459 62.1238 43.5647 69.0148 41.3096L82.4962 36.5068L82.4991 36.5137C84.1666 35.9745 85.9452 35.6826 87.7921 35.6826Z" fill="#222222"/>
<path d="M87.7921 35.6826V35.4826H87.7921L87.7921 35.6826ZM104.983 52.8721H105.183H104.983ZM91.546 69.6494L91.5025 69.4542L91.4888 69.4573L91.4757 69.4622L91.546 69.6494ZM80.7853 73.6924L80.7149 73.5051L80.7109 73.5067L80.7853 73.6924ZM74.379 74.9238V75.1238V74.9238ZM57.1456 57.6904L56.9456 57.6904V57.6904H57.1456ZM69.0148 41.3096L69.077 41.4997L69.0819 41.498L69.0148 41.3096ZM82.4962 36.5068L82.68 36.4281L82.606 36.2554L82.4291 36.3184L82.4962 36.5068ZM82.4991 36.5137L82.3153 36.5925L82.3872 36.7601L82.5607 36.704L82.4991 36.5137ZM87.7921 35.6826V35.8826C97.1753 35.8826 104.783 43.4889 104.783 52.8721H104.983H105.183C105.183 43.2679 97.3962 35.4826 87.7921 35.4826V35.6826ZM104.983 52.8721H104.783C104.783 60.9806 99.1014 67.7615 91.5025 69.4542L91.546 69.6494L91.5895 69.8446C99.3673 68.1121 105.183 61.1721 105.183 52.8721H104.983ZM91.546 69.6494L91.4757 69.4622L80.7149 73.5052L80.7853 73.6924L80.8556 73.8796L91.6164 69.8366L91.546 69.6494ZM80.7853 73.6924L80.7109 73.5067C78.7535 74.2911 76.6171 74.7238 74.379 74.7238V74.9238V75.1238C76.6691 75.1238 78.856 74.6809 80.8597 73.878L80.7853 73.6924ZM74.379 74.9238V74.7238C64.9718 74.7238 57.3456 67.0976 57.3456 57.6904H57.1456H56.9456C56.9456 67.3185 64.7509 75.1238 74.379 75.1238V74.9238ZM57.1456 57.6904L57.3456 57.6904C57.3457 50.1349 62.2658 43.7287 69.077 41.4997L69.0148 41.3096L68.9526 41.1195C61.9819 43.4007 56.9457 49.9568 56.9456 57.6904L57.1456 57.6904ZM69.0148 41.3096L69.0819 41.498L82.5633 36.6952L82.4962 36.5068L82.4291 36.3184L68.9477 41.1212L69.0148 41.3096ZM82.4962 36.5068L82.3124 36.5856L82.3153 36.5925L82.4991 36.5137L82.683 36.4349L82.68 36.4281L82.4962 36.5068ZM82.4991 36.5137L82.5607 36.704C84.2085 36.1712 85.9664 35.8826 87.7921 35.8826L87.7921 35.6826L87.7921 35.4826C85.924 35.4826 84.1246 35.7779 82.4376 36.3234L82.4991 36.5137Z" fill="#7A7A7A" mask="url(#path-14-inside-1_2228_31643)"/>
<path d="M77.922 73.2693C79.2575 73.1065 80.5384 73.1199 81.3429 73.1853V77.6248C81.3216 77.6692 81.275 77.7389 81.1847 77.8259C81.0872 77.9198 80.945 78.0307 80.7491 78.1501C80.3572 78.3892 79.7515 78.6611 78.8556 78.9011C77.0932 79.3733 76.11 78.818 75.8409 78.5076L74.1446 74.4343C75.1619 73.7821 76.564 73.4349 77.922 73.2693Z" fill="#7A7A7A" stroke="#7A7A7A" stroke-width="0.2" stroke-linejoin="bevel"/>
<path d="M78.3154 46.5112C78.6708 46.4497 79.1788 46.4102 79.6963 46.4751C80.2931 46.55 80.8874 46.7586 81.2812 47.2017C82.318 48.3681 82.655 49.0499 82.7793 49.4644C82.8308 49.6362 82.9428 50.0828 83.0615 50.5718L83.3857 51.9331C83.4181 52.0764 83.4259 52.3145 83.3418 52.5513C83.2587 52.785 83.0856 53.0193 82.749 53.1636C82.0927 53.4448 81.3935 53.673 81.0498 53.7456C80.8383 52.0832 80.5696 50.8488 80.1396 49.7349C79.7161 48.6376 79.1374 47.6623 78.3154 46.5112Z" fill="#222222" stroke="#7A7A7A" stroke-width="0.2"/>
<path d="M63.3668 41.3699C64.0313 41.1918 64.6838 41.5202 65.1851 41.9158C65.4331 42.1115 65.6385 42.319 65.7818 42.4783C65.8461 42.5497 65.8969 42.6121 65.9342 42.658C64.9809 43.228 63.5687 43.9973 62.6129 45.0164L62.0055 42.4226H62.0064L62.0055 42.4197L61.9918 42.3337C61.9871 42.2369 62.0158 42.1106 62.1393 41.9714C62.3092 41.78 62.6627 41.5585 63.3668 41.3699Z" fill="#222222" stroke="#7A7A7A" stroke-width="0.2"/>
<path d="M59.8515 59.7075C60.0929 59.4729 60.8221 59.0489 61.7529 59.2983C62.7147 59.5561 64.4498 60.2663 65.206 60.5933C65.8927 60.9806 67.4301 62.1467 68.1113 63.7134C68.8029 65.3042 69.7824 67.8629 70.1894 68.9526H70.1904C70.2297 69.0926 70.2796 69.3208 70.2997 69.5464C70.3098 69.6591 70.3117 69.7694 70.3027 69.8657C70.2935 69.9632 70.2729 70.0397 70.2431 70.0913C70.1644 70.2273 69.9623 70.403 69.163 70.6362C68.3772 70.8655 67.0396 71.1425 64.7363 71.5063L58.3027 61.1714L59.8505 59.7085L59.8515 59.7075Z" fill="#7A7A7A" stroke="#7A7A7A" stroke-width="0.2" stroke-linejoin="bevel"/>
<path d="M58.523 60.8954C56.9256 61.7983 56.7577 64.1656 56.8735 65.2363C57.2902 68.2228 59.1886 69.9534 60.0857 70.4453C60.433 70.6624 62.6034 71.5306 63.4716 71.7476C64.1661 71.9212 65.1501 71.6174 65.5552 71.4437C67.335 70.1849 67.552 67.9276 66.9009 65.4533C66.38 63.4739 64.6871 62.1109 63.9057 61.6768L61.0841 60.635C59.7645 60.2814 58.8269 60.6613 58.523 60.8954Z" fill="#383838" stroke="#7A7A7A" stroke-width="0.2"/>
<path d="M62.4457 65.9949C62.6331 65.7661 62.9322 65.6551 63.2753 65.6707C63.6185 65.6864 63.9995 65.8294 64.3322 66.1016C64.6648 66.3739 64.8803 66.7192 64.9635 67.0525C65.0465 67.3857 64.9968 67.701 64.8095 67.9298C64.6222 68.1586 64.323 68.2697 63.9799 68.2541C63.6367 68.2384 63.2557 68.0954 62.9231 67.8231C62.5904 67.5508 62.375 67.2055 62.2918 66.8722C62.2087 66.539 62.2584 66.2238 62.4457 65.9949Z" fill="#7A7A7A" stroke="#7A7A7A" stroke-width="0.2" stroke-linejoin="bevel"/>
<path d="M58.3274 64.3763C58.5147 64.1474 58.8139 64.0364 59.1569 64.052C59.5001 64.0677 59.8812 64.2107 60.2138 64.483C60.5465 64.7553 60.7619 65.1006 60.8451 65.4339C60.9282 65.7671 60.8785 66.0823 60.6911 66.3112C60.5038 66.54 60.2046 66.651 59.8616 66.6354C59.5184 66.6197 59.1374 66.4767 58.8047 66.2044C58.4721 65.9321 58.2566 65.5869 58.1734 65.2535C58.0903 64.9203 58.1401 64.6051 58.3274 64.3763Z" fill="#7A7A7A" stroke="#7A7A7A" stroke-width="0.2" stroke-linejoin="bevel"/>
<path d="M87.1422 37.7086L89.6936 38.6898L78.7718 42.5941L76.2669 41.5625L87.1422 37.7086Z" fill="#383838" stroke="#7A7A7A" stroke-width="0.2"/>
<path d="M87.1283 37.8539L89.2409 38.6688L87.1093 39.4455L87.1283 37.8539Z" fill="#7A7A7A"/>
<path d="M63.0058 49.9487C63.7582 50.1329 64.1348 50.9779 63.7685 51.6605L63.4596 52.2359C63.0142 53.0659 62.7849 53.9948 62.7935 54.9368L62.7949 55.0524C62.8018 55.8259 62.0782 56.3989 61.3268 56.2149C60.8 56.086 60.4273 55.6161 60.4224 55.0738L60.4189 54.7019C60.4082 53.5321 60.6928 52.3782 61.2459 51.3475L61.6797 50.5397C61.9353 50.0635 62.4809 49.8203 63.0058 49.9487Z" fill="#7A7A7A" stroke="#7A7A7A" stroke-width="0.2" stroke-linejoin="bevel"/>
<path d="M69.2619 51.8247C70.0143 52.0089 70.3908 52.8539 70.0245 53.5364L69.7156 54.1118C69.2702 54.9419 69.0409 55.8708 69.0496 56.8127L69.0509 56.9284C69.0578 57.7019 68.3343 58.2749 67.5828 58.0909C67.056 57.9619 66.6834 57.4921 66.6784 56.9498L66.675 56.5778C66.6642 55.4081 66.9488 54.2542 67.502 53.2235L67.9358 52.4157C68.1914 51.9395 68.7369 51.6962 69.2619 51.8247Z" fill="#7A7A7A" stroke="#7A7A7A" stroke-width="0.2" stroke-linejoin="bevel"/>
<path d="M79.8793 26.5928C80.9135 25.5969 82.0859 25.1339 83.1596 25.3906L83.2182 25.4043L83.225 25.4072L83.2309 25.4072L83.2436 25.4102C83.2973 25.425 83.3502 25.4422 83.4027 25.4609L83.5736 25.5283L83.5805 25.5312L84.6654 25.9082L84.5854 26.2119L84.5717 26.2627L84.6068 26.3027C85.2688 27.0696 85.688 28.234 85.7953 29.6025C85.819 29.9052 85.8283 30.2176 85.8207 30.5371C85.8093 31.0182 85.7613 31.5162 85.6752 32.0234L85.5756 32.5332L85.4506 33.0498C85.0816 34.4258 84.4816 35.6333 83.7602 36.5703C83.58 36.8043 83.3921 37.0212 83.1986 37.2197C83.1018 37.3191 83.0034 37.4139 82.9037 37.5039C82.7545 37.6387 82.6026 37.7625 82.4486 37.875C82.3973 37.9125 82.3453 37.9493 82.2934 37.9844C82.0864 38.124 81.8765 38.2434 81.6654 38.3398C81.5602 38.3879 81.4541 38.4298 81.3481 38.4668L81.2982 38.4844L81.2846 38.5352L81.2045 38.832L80.1791 38.6328L80.1674 38.6318L79.934 38.6035C79.8567 38.5908 79.7796 38.5751 79.7035 38.5547C79.5679 38.5184 79.4368 38.4712 79.3109 38.4141C78.9326 38.2423 78.5952 37.9782 78.3051 37.6367C78.2083 37.5228 78.1168 37.4002 78.0307 37.2695C77.9448 37.1393 77.8644 37.0005 77.7895 36.8545C77.7145 36.7084 77.6446 36.5553 77.5815 36.3955C77.5183 36.2356 77.4617 36.0685 77.4106 35.8955C77.3338 35.636 77.2711 35.3627 77.2231 35.0781C77.1589 34.6987 77.1201 34.2988 77.1098 33.8838C77.0865 32.9498 77.2046 31.9395 77.4799 30.9121C77.9646 29.1036 78.8464 27.5875 79.8793 26.5928Z" fill="#383838" stroke="#7A7A7A" stroke-width="0.2"/>
<path d="M87.0206 33.4171C87.5019 31.6207 87.4773 29.8755 87.0539 28.5084C86.63 27.1399 85.8118 26.1647 84.7154 25.8709C83.6192 25.5774 82.4237 26.013 81.3725 26.9861C80.3222 27.9583 79.4283 29.4574 78.947 31.2538C78.4657 33.05 78.4906 34.7945 78.9139 36.1615C79.3378 37.5298 80.155 38.5058 81.2512 38.7996C82.3476 39.0934 83.544 38.657 84.5953 37.6838C85.6454 36.7117 86.5392 35.2132 87.0206 33.4171Z" fill="#222222" stroke="#7A7A7A" stroke-width="0.2"/>
<path d="M83.4248 33.5916L83.4486 33.5554C83.5025 33.475 83.5463 33.406 83.5801 33.3484C83.6127 33.2891 83.6473 33.2158 83.6841 33.1289C83.833 32.7672 83.88 32.4131 83.8242 32.0673C83.7836 31.8138 83.6988 31.5755 83.5715 31.3515L83.8815 30.887L83.5357 30.4271L83.2241 30.8925C83.1286 30.7972 83.031 30.7202 82.9285 30.6638C82.8622 30.6264 82.7946 30.6012 82.727 30.5841L83.1525 29.9482L82.8067 29.4883L81.6788 31.1729C81.6759 31.1772 81.672 31.1805 81.6693 31.1846L81.0638 32.0879L81.4932 32.6591L82.0813 31.782C82.1059 31.7453 82.1337 31.7076 82.1644 31.669C82.195 31.6269 82.2276 31.5918 82.261 31.5634C82.3491 31.4856 82.4369 31.4493 82.5248 31.4538C82.614 31.4565 82.6979 31.4864 82.7763 31.5443C82.7788 31.5461 82.7813 31.5484 82.7838 31.5502L81.7944 33.0258L82.1402 33.4857L83.1296 32.0101C83.1308 32.0131 83.1324 32.0159 83.1336 32.0189C83.178 32.1243 83.2038 32.2403 83.2108 32.3656C83.2178 32.4874 83.197 32.614 83.148 32.7443C83.1298 32.7928 83.1068 32.8402 83.0801 32.8872C83.0546 32.9323 83.0304 32.9737 83.0059 33.0103L82.4175 33.8886L82.8451 34.4567L84.7863 34.2566L85.3784 33.3742L83.4248 33.5916Z" fill="#7A7A7A"/>
<path d="M65.6294 106.233L29.7937 32.6653C48.4717 8.72219 106.581 7.05717 130.237 33.4782L93.3065 103.868L93.4191 105.638C93.1299 106.034 92.81 106.407 92.4623 106.754L91.4497 107.762C90.6044 108.604 89.6076 109.279 88.5117 109.751C87.7517 110.079 86.9521 110.305 86.1333 110.425L80.4294 111.258C78.7756 111.5 77.0897 111.393 75.4795 110.945L72.2825 110.056C70.6824 109.612 69.192 108.839 67.9057 107.788L67.6225 107.557C67.0712 107.107 66.4809 106.706 65.8586 106.361L65.6294 106.233Z" fill="url(#paint0_linear_2228_31643)" fill-opacity="0.2"/>
<path d="M114.332 104.884L79.8099 124.751L45.6898 104.871L79.974 85.0862L114.332 104.884Z" fill="#383838" stroke="#7A7A7A" stroke-width="0.167379"/>
<path opacity="0.1" d="M114.528 104.901L113.523 105.478L80.0004 86.1636L46.5473 105.468L45.5502 104.887L80.0004 85.0063L114.528 104.901Z" fill="white"/>
<ellipse cx="80.0122" cy="104.048" rx="14.4198" ry="7.93822" fill="#7A7A7A"/>
<g opacity="0.5">
<ellipse cx="98.1015" cy="118.455" rx="1.50918" ry="0.830815" fill="#7A7A7A"/>
<ellipse opacity="0.4" cx="102.102" cy="116.455" rx="1.50918" ry="0.830815" fill="#7A7A7A"/>
<ellipse opacity="0.2" cx="106.102" cy="114.455" rx="1.50918" ry="0.830815" fill="#7A7A7A"/>
<ellipse opacity="0.1" cx="110.102" cy="112.455" rx="1.50918" ry="0.830815" fill="#7A7A7A"/>
</g>
<ellipse cx="80.0124" cy="103.111" rx="13.7035" ry="7.243" fill="#383838"/>
<ellipse opacity="0.5" cx="80.0123" cy="103.111" rx="10.216" ry="5.39967" fill="#222222"/>
<ellipse cx="80.0123" cy="103.111" rx="4.89862" ry="2.58916" fill="#222222"/>
<path opacity="0.4" d="M102.921 73.3054C105.851 75.7151 107.56 78.6129 107.56 81.7304C107.56 90.1058 95.2263 96.8955 80.0123 96.8955C64.7983 96.8955 52.4649 90.1058 52.4649 81.7304C52.4649 78.1612 54.7047 74.88 58.4528 72.2896" stroke="url(#paint1_linear_2228_31643)" stroke-width="0.446344"/>
<path opacity="0.4" d="M97.9915 88.0087C100.291 89.8999 101.632 92.1742 101.632 94.6209C101.632 101.194 91.9526 106.523 80.0123 106.523C68.0719 106.523 58.3924 101.194 58.3924 94.6209C58.3924 91.8197 60.1503 89.2445 63.0918 87.2114" stroke="url(#paint2_linear_2228_31643)" stroke-width="0.446344"/>
<path opacity="0.4" d="M106.151 59.0056C109.6 61.8416 111.611 65.2521 111.611 68.9212C111.611 78.7783 97.0955 86.7691 79.1899 86.7691C61.2844 86.7691 46.769 78.7783 46.769 68.9212C46.769 64.7205 49.4051 60.8588 53.8162 57.8101" stroke="url(#paint3_linear_2228_31643)" stroke-width="0.446344"/>
<defs>
<linearGradient id="paint0_linear_2228_31643" x1="80.0152" y1="112.365" x2="80.0152" y2="40.4054" gradientUnits="userSpaceOnUse">
<stop offset="0.481737" stop-color="#7A7A7A"/>
<stop offset="1" stop-color="#111111"/>
</linearGradient>
<linearGradient id="paint1_linear_2228_31643" x1="80.0123" y1="66.5655" x2="80.0123" y2="98.7218" gradientUnits="userSpaceOnUse">
<stop offset="0.239618" stop-color="#222222"/>
<stop offset="0.959626" stop-color="#7A7A7A"/>
</linearGradient>
<linearGradient id="paint2_linear_2228_31643" x1="80.0123" y1="82.719" x2="80.0123" y2="107.956" gradientUnits="userSpaceOnUse">
<stop offset="0.239618" stop-color="#222222"/>
<stop offset="0.959626" stop-color="#7A7A7A"/>
</linearGradient>
<linearGradient id="paint3_linear_2228_31643" x1="79.1899" y1="51.0733" x2="79.1899" y2="88.9185" gradientUnits="userSpaceOnUse">
<stop offset="0.239618" stop-color="#222222"/>
<stop offset="0.959626" stop-color="#7A7A7A"/>
</linearGradient>
</defs>
</svg>
