<svg width="148" height="104" viewBox="0 0 148 104" fill="none" xmlns="http://www.w3.org/2000/svg">
<path d="M0.504761 61.4136L74.0001 18.9811L147.495 61.4136L74.0001 103.846L0.504761 61.4136Z" fill="#222222" stroke="#7A7A7A" stroke-width="0.281009"/>
<path d="M0.504761 55.1134L74.0001 12.6809L147.495 55.1134L74.0001 97.5459L0.504761 55.1134Z" fill="#383838"/>
<rect width="67.9349" height="67.9349" transform="matrix(0.866025 -0.5 0.866025 0.5 15.299 55.103)" fill="#222222" stroke="#7A7A7A" stroke-width="0.3"/>
<rect width="67.8123" height="67.8123" transform="matrix(0.866025 -0.5 0.866025 0.5 15.299 34.6337)" fill="#222222" stroke="#7A7A7A" stroke-width="0.3"/>
<rect x="0.0929093" width="62.7232" height="62.7232" transform="matrix(0.866025 -0.5 0.866025 0.5 19.2427 34.661)" stroke="#E9E9E9" stroke-width="0.107282" stroke-dasharray="0.34 0.5"/>
<path d="M22.2705 34.6146L73.6429 4.9547L125.015 34.6146L73.6429 64.2744L22.2705 34.6146Z" fill="#383838"/>
<circle cx="1.40899" cy="1.40899" r="1.40899" transform="matrix(0.866025 -0.5 0.866025 0.5 4.73157 54.8644)" fill="#7A7A7A"/>
<circle cx="1.40899" cy="1.40899" r="1.40899" transform="matrix(0.866025 -0.5 0.866025 0.5 71.6918 93.256)" fill="#7A7A7A"/>
<circle cx="0.832837" cy="0.832837" r="0.832837" transform="matrix(0.866025 -0.5 0.866025 0.5 24.0992 34.5615)" fill="#7A7A7A"/>
<circle cx="0.832837" cy="0.832837" r="0.832837" transform="matrix(0.866025 -0.5 0.866025 0.5 120.607 34.5615)" fill="#7A7A7A"/>
<circle cx="0.832837" cy="0.832837" r="0.832837" transform="matrix(0.866025 -0.5 0.866025 0.5 72.1691 62.1422)" fill="#7A7A7A"/>
<circle cx="1.40899" cy="1.40899" r="1.40899" transform="matrix(0.866025 -0.5 0.866025 0.5 137.529 54.8644)" fill="#7A7A7A"/>
<path d="M75.8951 90.2443L83.8213 85.6682L86.5971 87.2708L78.671 91.847L75.8951 90.2443Z" fill="#222222"/>
<path d="M85.0537 84.9538L88.0911 83.2001L90.867 84.8028L87.8296 86.5564L85.0537 84.9538Z" fill="#222222"/>
<path d="M74.1248 69.2624L73.6409 69.7463L74.1248 70.2302L74.6087 69.7463L74.1248 69.2624ZM74.1248 87.4904L74.6087 87.0065L74.1248 86.5226L73.6409 87.0065L74.1248 87.4904ZM74.0409 69.9156C74.0409 69.9618 74.0785 69.9994 74.1248 69.9994C74.171 69.9994 74.2086 69.9618 74.2086 69.9156L74.1248 69.9156L74.0409 69.9156ZM74.2086 70.5924C74.2086 70.5461 74.171 70.5086 74.1248 70.5086C74.0785 70.5086 74.0409 70.5461 74.0409 70.5924L74.1248 70.5924L74.2086 70.5924ZM74.0409 70.9309C74.0409 70.9771 74.0785 71.0147 74.1248 71.0147C74.171 71.0147 74.2086 70.9771 74.2086 70.9309L74.1248 70.9309L74.0409 70.9309ZM74.2086 71.6077C74.2086 71.5614 74.171 71.5239 74.1248 71.5239C74.0785 71.5239 74.0409 71.5614 74.0409 71.6077L74.1248 71.6077L74.2086 71.6077ZM74.0409 71.9462C74.0409 71.9924 74.0785 72.03 74.1248 72.03C74.171 72.03 74.2086 71.9924 74.2086 71.9462L74.1248 71.9462L74.0409 71.9462ZM74.2086 72.623C74.2086 72.5767 74.171 72.5392 74.1248 72.5392C74.0785 72.5392 74.0409 72.5767 74.0409 72.623L74.1248 72.623L74.2086 72.623ZM74.0409 72.9615C74.0409 73.0077 74.0785 73.0453 74.1248 73.0453C74.171 73.0453 74.2086 73.0077 74.2086 72.9615L74.1248 72.9615L74.0409 72.9615ZM74.2086 73.6383C74.2086 73.592 74.171 73.5545 74.1248 73.5545C74.0785 73.5545 74.0409 73.592 74.0409 73.6383L74.1248 73.6383L74.2086 73.6383ZM74.0409 73.9768C74.0409 74.023 74.0785 74.0606 74.1248 74.0606C74.171 74.0606 74.2086 74.023 74.2086 73.9768L74.1248 73.9768L74.0409 73.9768ZM74.2086 74.6536C74.2086 74.6073 74.171 74.5698 74.1248 74.5698C74.0785 74.5698 74.0409 74.6073 74.0409 74.6536L74.1248 74.6536L74.2086 74.6536ZM74.0409 74.9921C74.0409 75.0384 74.0785 75.0759 74.1248 75.0759C74.171 75.0759 74.2086 75.0384 74.2086 74.9921L74.1248 74.9921L74.0409 74.9921ZM74.2086 75.6689C74.2086 75.6226 74.171 75.5851 74.1248 75.5851C74.0785 75.5851 74.0409 75.6226 74.0409 75.6689L74.1248 75.6689L74.2086 75.6689ZM74.0409 76.0074C74.0409 76.0537 74.0785 76.0912 74.1248 76.0912C74.171 76.0912 74.2086 76.0537 74.2086 76.0074L74.1248 76.0074L74.0409 76.0074ZM74.2086 76.6842C74.2086 76.6379 74.171 76.6004 74.1248 76.6004C74.0785 76.6004 74.0409 76.6379 74.0409 76.6842L74.1248 76.6842L74.2086 76.6842ZM74.0409 77.0227C74.0409 77.069 74.0785 77.1065 74.1248 77.1065C74.171 77.1065 74.2086 77.069 74.2086 77.0227L74.1248 77.0227L74.0409 77.0227ZM74.2086 77.6995C74.2086 77.6532 74.171 77.6157 74.1248 77.6157C74.0785 77.6157 74.0409 77.6532 74.0409 77.6995L74.1248 77.6995L74.2086 77.6995ZM74.0409 78.038C74.0409 78.0843 74.0785 78.1218 74.1248 78.1218C74.171 78.1218 74.2086 78.0843 74.2086 78.038L74.1248 78.038L74.0409 78.038ZM74.2086 78.7148C74.2086 78.6685 74.171 78.631 74.1248 78.631C74.0785 78.631 74.0409 78.6685 74.0409 78.7148L74.1248 78.7148L74.2086 78.7148ZM74.0409 79.0533C74.0409 79.0996 74.0785 79.1371 74.1248 79.1371C74.171 79.1371 74.2086 79.0996 74.2086 79.0533L74.1248 79.0533L74.0409 79.0533ZM74.2086 79.7301C74.2086 79.6838 74.171 79.6463 74.1248 79.6463C74.0785 79.6463 74.0409 79.6838 74.0409 79.7301L74.1248 79.7301L74.2086 79.7301ZM74.0409 80.0686C74.0409 80.1149 74.0785 80.1524 74.1248 80.1524C74.171 80.1524 74.2086 80.1149 74.2086 80.0686L74.1248 80.0686L74.0409 80.0686ZM74.2086 80.7454C74.2086 80.6991 74.171 80.6616 74.1248 80.6616C74.0785 80.6616 74.0409 80.6991 74.0409 80.7454L74.1248 80.7454L74.2086 80.7454ZM74.0409 81.0839C74.0409 81.1302 74.0785 81.1677 74.1248 81.1677C74.171 81.1677 74.2086 81.1302 74.2086 81.0839L74.1248 81.0839L74.0409 81.0839ZM74.2086 81.7607C74.2086 81.7144 74.171 81.6769 74.1248 81.6769C74.0785 81.6769 74.0409 81.7144 74.0409 81.7607L74.1248 81.7607L74.2086 81.7607ZM74.0409 82.0992C74.0409 82.1455 74.0785 82.183 74.1248 82.183C74.171 82.183 74.2086 82.1455 74.2086 82.0992L74.1248 82.0992L74.0409 82.0992ZM74.2086 82.776C74.2086 82.7297 74.171 82.6922 74.1248 82.6922C74.0785 82.6922 74.0409 82.7297 74.0409 82.776L74.1248 82.776L74.2086 82.776ZM74.0409 83.1145C74.0409 83.1608 74.0785 83.1983 74.1248 83.1983C74.171 83.1983 74.2086 83.1608 74.2086 83.1145L74.1248 83.1145L74.0409 83.1145ZM74.2086 83.7913C74.2086 83.7451 74.171 83.7075 74.1248 83.7075C74.0785 83.7075 74.0409 83.7451 74.0409 83.7913L74.1248 83.7913L74.2086 83.7913ZM74.0409 84.1298C74.0409 84.1761 74.0785 84.2136 74.1248 84.2136C74.171 84.2136 74.2086 84.1761 74.2086 84.1298L74.1248 84.1298L74.0409 84.1298ZM74.2086 84.8066C74.2086 84.7604 74.171 84.7228 74.1248 84.7228C74.0785 84.7228 74.0409 84.7604 74.0409 84.8066L74.1248 84.8066L74.2086 84.8066ZM74.0409 85.1451C74.0409 85.1914 74.0785 85.2289 74.1248 85.2289C74.171 85.2289 74.2086 85.1914 74.2086 85.1451L74.1248 85.1451L74.0409 85.1451ZM74.2086 85.8219C74.2086 85.7757 74.171 85.7381 74.1248 85.7381C74.0785 85.7381 74.0409 85.7757 74.0409 85.8219L74.1248 85.8219L74.2086 85.8219ZM74.0409 86.1604C74.0409 86.2067 74.0785 86.2442 74.1248 86.2442C74.171 86.2442 74.2086 86.2067 74.2086 86.1604L74.1248 86.1604L74.0409 86.1604ZM74.2086 86.8372C74.2086 86.791 74.171 86.7534 74.1248 86.7534C74.0785 86.7534 74.0409 86.791 74.0409 86.8372L74.1248 86.8372L74.2086 86.8372ZM74.1248 69.7463L74.0409 69.7463L74.0409 69.9156L74.1248 69.9156L74.2086 69.9156L74.2086 69.7463L74.1248 69.7463ZM74.1248 70.5924L74.0409 70.5924L74.0409 70.9309L74.1248 70.9309L74.2086 70.9309L74.2086 70.5924L74.1248 70.5924ZM74.1248 71.6077L74.0409 71.6077L74.0409 71.9462L74.1248 71.9462L74.2086 71.9462L74.2086 71.6077L74.1248 71.6077ZM74.1248 72.623L74.0409 72.623L74.0409 72.9615L74.1248 72.9615L74.2086 72.9615L74.2086 72.623L74.1248 72.623ZM74.1248 73.6383L74.0409 73.6383L74.0409 73.9768L74.1248 73.9768L74.2086 73.9768L74.2086 73.6383L74.1248 73.6383ZM74.1248 74.6536L74.0409 74.6536L74.0409 74.9921L74.1248 74.9921L74.2086 74.9921L74.2086 74.6536L74.1248 74.6536ZM74.1248 75.6689L74.0409 75.6689L74.0409 76.0074L74.1248 76.0074L74.2086 76.0074L74.2086 75.6689L74.1248 75.6689ZM74.1248 76.6842L74.0409 76.6842L74.0409 77.0227L74.1248 77.0227L74.2086 77.0227L74.2086 76.6842L74.1248 76.6842ZM74.1248 77.6995L74.0409 77.6995L74.0409 78.038L74.1248 78.038L74.2086 78.038L74.2086 77.6995L74.1248 77.6995ZM74.1248 78.7148L74.0409 78.7148L74.0409 79.0533L74.1248 79.0533L74.2086 79.0533L74.2086 78.7148L74.1248 78.7148ZM74.1248 79.7301L74.0409 79.7301L74.0409 80.0686L74.1248 80.0686L74.2086 80.0686L74.2086 79.7301L74.1248 79.7301ZM74.1248 80.7454L74.0409 80.7454L74.0409 81.0839L74.1248 81.0839L74.2086 81.0839L74.2086 80.7454L74.1248 80.7454ZM74.1248 81.7607L74.0409 81.7607L74.0409 82.0992L74.1248 82.0992L74.2086 82.0992L74.2086 81.7607L74.1248 81.7607ZM74.1248 82.776L74.0409 82.776L74.0409 83.1145L74.1248 83.1145L74.2086 83.1145L74.2086 82.776L74.1248 82.776ZM74.1248 83.7913L74.0409 83.7913L74.0409 84.1298L74.1248 84.1298L74.2086 84.1298L74.2086 83.7913L74.1248 83.7913ZM74.1248 84.8066L74.0409 84.8066L74.0409 85.1451L74.1248 85.1451L74.2086 85.1451L74.2086 84.8066L74.1248 84.8066ZM74.1248 85.8219L74.0409 85.8219L74.0409 86.1604L74.1248 86.1604L74.2086 86.1604L74.2086 85.8219L74.1248 85.8219ZM74.1248 86.8372L74.0409 86.8372L74.0409 87.0065L74.1248 87.0065L74.2086 87.0065L74.2086 86.8372L74.1248 86.8372Z" fill="#E9E9E9"/>
<path d="M15.7864 35.7392L15.3025 36.2231L15.7864 36.707L16.2703 36.2231L15.7864 35.7392ZM15.7864 53.9398L16.2703 53.4559L15.7864 52.972L15.3025 53.4559L15.7864 53.9398ZM15.7026 36.3921C15.7026 36.4384 15.7401 36.4759 15.7864 36.4759C15.8327 36.4759 15.8702 36.4384 15.8702 36.3921L15.7864 36.3921L15.7026 36.3921ZM15.8702 37.0679C15.8702 37.0216 15.8327 36.9841 15.7864 36.9841C15.7401 36.9841 15.7026 37.0216 15.7026 37.0679L15.7864 37.0679L15.8702 37.0679ZM15.7026 37.4058C15.7026 37.4521 15.7401 37.4896 15.7864 37.4896C15.8327 37.4896 15.8702 37.4521 15.8702 37.4058L15.7864 37.4058L15.7026 37.4058ZM15.8702 38.0816C15.8702 38.0353 15.8327 37.9978 15.7864 37.9978C15.7401 37.9978 15.7026 38.0353 15.7026 38.0816L15.7864 38.0816L15.8702 38.0816ZM15.7026 38.4195C15.7026 38.4658 15.7401 38.5033 15.7864 38.5033C15.8327 38.5033 15.8702 38.4658 15.8702 38.4195L15.7864 38.4195L15.7026 38.4195ZM15.8702 39.0953C15.8702 39.049 15.8327 39.0115 15.7864 39.0115C15.7401 39.0115 15.7026 39.049 15.7026 39.0953L15.7864 39.0953L15.8702 39.0953ZM15.7026 39.4332C15.7026 39.4795 15.7401 39.517 15.7864 39.517C15.8327 39.517 15.8702 39.4795 15.8702 39.4332L15.7864 39.4332L15.7026 39.4332ZM15.8702 40.109C15.8702 40.0627 15.8327 40.0251 15.7864 40.0251C15.7401 40.0251 15.7026 40.0627 15.7026 40.109L15.7864 40.109L15.8702 40.109ZM15.7026 40.4469C15.7026 40.4931 15.7401 40.5307 15.7864 40.5307C15.8327 40.5307 15.8702 40.4931 15.8702 40.4469L15.7864 40.4469L15.7026 40.4469ZM15.8702 41.1226C15.8702 41.0764 15.8327 41.0388 15.7864 41.0388C15.7401 41.0388 15.7026 41.0764 15.7026 41.1226L15.7864 41.1226L15.8702 41.1226ZM15.7026 41.4605C15.7026 41.5068 15.7401 41.5444 15.7864 41.5444C15.8327 41.5444 15.8702 41.5068 15.8702 41.4605L15.7864 41.4605L15.7026 41.4605ZM15.8702 42.1363C15.8702 42.09 15.8327 42.0525 15.7864 42.0525C15.7401 42.0525 15.7026 42.09 15.7026 42.1363L15.7864 42.1363L15.8702 42.1363ZM15.7026 42.4742C15.7026 42.5205 15.7401 42.558 15.7864 42.558C15.8327 42.558 15.8702 42.5205 15.8702 42.4742L15.7864 42.4742L15.7026 42.4742ZM15.8702 43.15C15.8702 43.1037 15.8327 43.0662 15.7864 43.0662C15.7401 43.0662 15.7026 43.1037 15.7026 43.15L15.7864 43.15L15.8702 43.15ZM15.7026 43.4879C15.7026 43.5342 15.7401 43.5717 15.7864 43.5717C15.8327 43.5717 15.8702 43.5342 15.8702 43.4879L15.7864 43.4879L15.7026 43.4879ZM15.8702 44.1637C15.8702 44.1174 15.8327 44.0799 15.7864 44.0799C15.7401 44.0799 15.7026 44.1174 15.7026 44.1637L15.7864 44.1637L15.8702 44.1637ZM15.7026 44.5016C15.7026 44.5479 15.7401 44.5854 15.7864 44.5854C15.8327 44.5854 15.8702 44.5479 15.8702 44.5016L15.7864 44.5016L15.7026 44.5016ZM15.8702 45.1774C15.8702 45.1311 15.8327 45.0936 15.7864 45.0936C15.7401 45.0936 15.7026 45.1311 15.7026 45.1774L15.7864 45.1774L15.8702 45.1774ZM15.7026 45.5153C15.7026 45.5616 15.7401 45.5991 15.7864 45.5991C15.8327 45.5991 15.8702 45.5616 15.8702 45.5153L15.7864 45.5153L15.7026 45.5153ZM15.8702 46.1911C15.8702 46.1448 15.8327 46.1073 15.7864 46.1073C15.7401 46.1073 15.7026 46.1448 15.7026 46.1911L15.7864 46.1911L15.8702 46.1911ZM15.7026 46.529C15.7026 46.5753 15.7401 46.6128 15.7864 46.6128C15.8327 46.6128 15.8702 46.5753 15.8702 46.529L15.7864 46.529L15.7026 46.529ZM15.8702 47.2048C15.8702 47.1585 15.8327 47.121 15.7864 47.121C15.7401 47.121 15.7026 47.1585 15.7026 47.2048L15.7864 47.2048L15.8702 47.2048ZM15.7026 47.5427C15.7026 47.589 15.7401 47.6265 15.7864 47.6265C15.8327 47.6265 15.8702 47.589 15.8702 47.5427L15.7864 47.5427L15.7026 47.5427ZM15.8702 48.2185C15.8702 48.1722 15.8327 48.1347 15.7864 48.1347C15.7401 48.1347 15.7026 48.1722 15.7026 48.2185L15.7864 48.2185L15.8702 48.2185ZM15.7026 48.5564C15.7026 48.6027 15.7401 48.6402 15.7864 48.6402C15.8327 48.6402 15.8702 48.6027 15.8702 48.5564L15.7864 48.5564L15.7026 48.5564ZM15.8702 49.2322C15.8702 49.1859 15.8327 49.1484 15.7864 49.1484C15.7401 49.1484 15.7026 49.1859 15.7026 49.2322L15.7864 49.2322L15.8702 49.2322ZM15.7026 49.5701C15.7026 49.6164 15.7401 49.6539 15.7864 49.6539C15.8327 49.6539 15.8702 49.6164 15.8702 49.5701L15.7864 49.5701L15.7026 49.5701ZM15.8702 50.2459C15.8702 50.1996 15.8327 50.162 15.7864 50.162C15.7401 50.162 15.7026 50.1996 15.7026 50.2459L15.7864 50.2459L15.8702 50.2459ZM15.7026 50.5838C15.7026 50.63 15.7401 50.6676 15.7864 50.6676C15.8327 50.6676 15.8702 50.63 15.8702 50.5838L15.7864 50.5838L15.7026 50.5838ZM15.8702 51.2595C15.8702 51.2133 15.8327 51.1757 15.7864 51.1757C15.7401 51.1757 15.7026 51.2133 15.7026 51.2595L15.7864 51.2595L15.8702 51.2595ZM15.7026 51.5974C15.7026 51.6437 15.7401 51.6813 15.7864 51.6813C15.8327 51.6813 15.8702 51.6437 15.8702 51.5974L15.7864 51.5974L15.7026 51.5974ZM15.8702 52.2732C15.8702 52.2269 15.8327 52.1894 15.7864 52.1894C15.7401 52.1894 15.7026 52.2269 15.7026 52.2732L15.7864 52.2732L15.8702 52.2732ZM15.7026 52.6111C15.7026 52.6574 15.7401 52.6949 15.7864 52.6949C15.8327 52.6949 15.8702 52.6574 15.8702 52.6111L15.7864 52.6111L15.7026 52.6111ZM15.8702 53.2869C15.8702 53.2406 15.8327 53.2031 15.7864 53.2031C15.7401 53.2031 15.7026 53.2406 15.7026 53.2869L15.7864 53.2869L15.8702 53.2869ZM15.7864 36.2231L15.7026 36.2231L15.7026 36.3921L15.7864 36.3921L15.8702 36.3921L15.8702 36.2231L15.7864 36.2231ZM15.7864 37.0679L15.7026 37.0679L15.7026 37.4058L15.7864 37.4058L15.8702 37.4058L15.8702 37.0679L15.7864 37.0679ZM15.7864 38.0816L15.7026 38.0816L15.7026 38.4195L15.7864 38.4195L15.8702 38.4195L15.8702 38.0816L15.7864 38.0816ZM15.7864 39.0953L15.7026 39.0953L15.7026 39.4332L15.7864 39.4332L15.8702 39.4332L15.8702 39.0953L15.7864 39.0953ZM15.7864 40.109L15.7026 40.109L15.7026 40.4469L15.7864 40.4469L15.8702 40.4469L15.8702 40.109L15.7864 40.109ZM15.7864 41.1226L15.7026 41.1226L15.7026 41.4605L15.7864 41.4605L15.8702 41.4605L15.8702 41.1226L15.7864 41.1226ZM15.7864 42.1363L15.7026 42.1363L15.7026 42.4742L15.7864 42.4742L15.8702 42.4742L15.8702 42.1363L15.7864 42.1363ZM15.7864 43.15L15.7026 43.15L15.7026 43.4879L15.7864 43.4879L15.8702 43.4879L15.8702 43.15L15.7864 43.15ZM15.7864 44.1637L15.7026 44.1637L15.7026 44.5016L15.7864 44.5016L15.8702 44.5016L15.8702 44.1637L15.7864 44.1637ZM15.7864 45.1774L15.7026 45.1774L15.7026 45.5153L15.7864 45.5153L15.8702 45.5153L15.8702 45.1774L15.7864 45.1774ZM15.7864 46.1911L15.7026 46.1911L15.7026 46.529L15.7864 46.529L15.8702 46.529L15.8702 46.1911L15.7864 46.1911ZM15.7864 47.2048L15.7026 47.2048L15.7026 47.5427L15.7864 47.5427L15.8702 47.5427L15.8702 47.2048L15.7864 47.2048ZM15.7864 48.2185L15.7026 48.2185L15.7026 48.5564L15.7864 48.5564L15.8702 48.5564L15.8702 48.2185L15.7864 48.2185ZM15.7864 49.2322L15.7026 49.2322L15.7026 49.5701L15.7864 49.5701L15.8702 49.5701L15.8702 49.2322L15.7864 49.2322ZM15.7864 50.2459L15.7026 50.2459L15.7026 50.5838L15.7864 50.5838L15.8702 50.5838L15.8702 50.2459L15.7864 50.2459ZM15.7864 51.2595L15.7026 51.2595L15.7026 51.5974L15.7864 51.5974L15.8702 51.5974L15.8702 51.2595L15.7864 51.2595ZM15.7864 52.2732L15.7026 52.2732L15.7026 52.6111L15.7864 52.6111L15.8702 52.6111L15.8702 52.2732L15.7864 52.2732ZM15.7864 53.2869L15.7026 53.2869L15.7026 53.4559L15.7864 53.4559L15.8702 53.4559L15.8702 53.2869L15.7864 53.2869Z" fill="#E9E9E9"/>
<path d="M132.482 35.7392L131.998 36.2231L132.482 36.707L132.965 36.2231L132.482 35.7392ZM132.482 53.9398L132.965 53.4559L132.482 52.972L131.998 53.4559L132.482 53.9398ZM132.398 36.3921C132.398 36.4384 132.435 36.4759 132.482 36.4759C132.528 36.4759 132.565 36.4384 132.565 36.3921L132.482 36.3921L132.398 36.3921ZM132.565 37.0679C132.565 37.0216 132.528 36.9841 132.482 36.9841C132.435 36.9841 132.398 37.0216 132.398 37.0679L132.482 37.0679L132.565 37.0679ZM132.398 37.4058C132.398 37.4521 132.435 37.4896 132.482 37.4896C132.528 37.4896 132.565 37.4521 132.565 37.4058L132.482 37.4058L132.398 37.4058ZM132.565 38.0816C132.565 38.0353 132.528 37.9978 132.482 37.9978C132.435 37.9978 132.398 38.0353 132.398 38.0816L132.482 38.0816L132.565 38.0816ZM132.398 38.4195C132.398 38.4658 132.435 38.5033 132.482 38.5033C132.528 38.5033 132.565 38.4658 132.565 38.4195L132.482 38.4195L132.398 38.4195ZM132.565 39.0953C132.565 39.049 132.528 39.0115 132.482 39.0115C132.435 39.0115 132.398 39.049 132.398 39.0953L132.482 39.0953L132.565 39.0953ZM132.398 39.4332C132.398 39.4795 132.435 39.517 132.482 39.517C132.528 39.517 132.565 39.4795 132.565 39.4332L132.482 39.4332L132.398 39.4332ZM132.565 40.109C132.565 40.0627 132.528 40.0251 132.482 40.0251C132.435 40.0251 132.398 40.0627 132.398 40.109L132.482 40.109L132.565 40.109ZM132.398 40.4469C132.398 40.4931 132.435 40.5307 132.482 40.5307C132.528 40.5307 132.565 40.4931 132.565 40.4469L132.482 40.4469L132.398 40.4469ZM132.565 41.1226C132.565 41.0764 132.528 41.0388 132.482 41.0388C132.435 41.0388 132.398 41.0764 132.398 41.1226L132.482 41.1226L132.565 41.1226ZM132.398 41.4605C132.398 41.5068 132.435 41.5444 132.482 41.5444C132.528 41.5444 132.565 41.5068 132.565 41.4605L132.482 41.4605L132.398 41.4605ZM132.565 42.1363C132.565 42.09 132.528 42.0525 132.482 42.0525C132.435 42.0525 132.398 42.09 132.398 42.1363L132.482 42.1363L132.565 42.1363ZM132.398 42.4742C132.398 42.5205 132.435 42.558 132.482 42.558C132.528 42.558 132.565 42.5205 132.565 42.4742L132.482 42.4742L132.398 42.4742ZM132.565 43.15C132.565 43.1037 132.528 43.0662 132.482 43.0662C132.435 43.0662 132.398 43.1037 132.398 43.15L132.482 43.15L132.565 43.15ZM132.398 43.4879C132.398 43.5342 132.435 43.5717 132.482 43.5717C132.528 43.5717 132.565 43.5342 132.565 43.4879L132.482 43.4879L132.398 43.4879ZM132.565 44.1637C132.565 44.1174 132.528 44.0799 132.482 44.0799C132.435 44.0799 132.398 44.1174 132.398 44.1637L132.482 44.1637L132.565 44.1637ZM132.398 44.5016C132.398 44.5479 132.435 44.5854 132.482 44.5854C132.528 44.5854 132.565 44.5479 132.565 44.5016L132.482 44.5016L132.398 44.5016ZM132.565 45.1774C132.565 45.1311 132.528 45.0936 132.482 45.0936C132.435 45.0936 132.398 45.1311 132.398 45.1774L132.482 45.1774L132.565 45.1774ZM132.398 45.5153C132.398 45.5616 132.435 45.5991 132.482 45.5991C132.528 45.5991 132.565 45.5616 132.565 45.5153L132.482 45.5153L132.398 45.5153ZM132.565 46.1911C132.565 46.1448 132.528 46.1073 132.482 46.1073C132.435 46.1073 132.398 46.1448 132.398 46.1911L132.482 46.1911L132.565 46.1911ZM132.398 46.529C132.398 46.5753 132.435 46.6128 132.482 46.6128C132.528 46.6128 132.565 46.5753 132.565 46.529L132.482 46.529L132.398 46.529ZM132.565 47.2048C132.565 47.1585 132.528 47.121 132.482 47.121C132.435 47.121 132.398 47.1585 132.398 47.2048L132.482 47.2048L132.565 47.2048ZM132.398 47.5427C132.398 47.589 132.435 47.6265 132.482 47.6265C132.528 47.6265 132.565 47.589 132.565 47.5427L132.482 47.5427L132.398 47.5427ZM132.565 48.2185C132.565 48.1722 132.528 48.1347 132.482 48.1347C132.435 48.1347 132.398 48.1722 132.398 48.2185L132.482 48.2185L132.565 48.2185ZM132.398 48.5564C132.398 48.6027 132.435 48.6402 132.482 48.6402C132.528 48.6402 132.565 48.6027 132.565 48.5564L132.482 48.5564L132.398 48.5564ZM132.565 49.2322C132.565 49.1859 132.528 49.1484 132.482 49.1484C132.435 49.1484 132.398 49.1859 132.398 49.2322L132.482 49.2322L132.565 49.2322ZM132.398 49.5701C132.398 49.6164 132.435 49.6539 132.482 49.6539C132.528 49.6539 132.565 49.6164 132.565 49.5701L132.482 49.5701L132.398 49.5701ZM132.565 50.2459C132.565 50.1996 132.528 50.162 132.482 50.162C132.435 50.162 132.398 50.1996 132.398 50.2459L132.482 50.2459L132.565 50.2459ZM132.398 50.5838C132.398 50.63 132.435 50.6676 132.482 50.6676C132.528 50.6676 132.565 50.63 132.565 50.5838L132.482 50.5838L132.398 50.5838ZM132.565 51.2595C132.565 51.2133 132.528 51.1757 132.482 51.1757C132.435 51.1757 132.398 51.2133 132.398 51.2595L132.482 51.2595L132.565 51.2595ZM132.398 51.5974C132.398 51.6437 132.435 51.6813 132.482 51.6813C132.528 51.6813 132.565 51.6437 132.565 51.5974L132.482 51.5974L132.398 51.5974ZM132.565 52.2732C132.565 52.2269 132.528 52.1894 132.482 52.1894C132.435 52.1894 132.398 52.2269 132.398 52.2732L132.482 52.2732L132.565 52.2732ZM132.398 52.6111C132.398 52.6574 132.435 52.6949 132.482 52.6949C132.528 52.6949 132.565 52.6574 132.565 52.6111L132.482 52.6111L132.398 52.6111ZM132.565 53.2869C132.565 53.2406 132.528 53.2031 132.482 53.2031C132.435 53.2031 132.398 53.2406 132.398 53.2869L132.482 53.2869L132.565 53.2869ZM132.482 36.2231L132.398 36.2231L132.398 36.3921L132.482 36.3921L132.565 36.3921L132.565 36.2231L132.482 36.2231ZM132.482 37.0679L132.398 37.0679L132.398 37.4058L132.482 37.4058L132.565 37.4058L132.565 37.0679L132.482 37.0679ZM132.482 38.0816L132.398 38.0816L132.398 38.4195L132.482 38.4195L132.565 38.4195L132.565 38.0816L132.482 38.0816ZM132.482 39.0953L132.398 39.0953L132.398 39.4332L132.482 39.4332L132.565 39.4332L132.565 39.0953L132.482 39.0953ZM132.482 40.109L132.398 40.109L132.398 40.4469L132.482 40.4469L132.565 40.4469L132.565 40.109L132.482 40.109ZM132.482 41.1226L132.398 41.1226L132.398 41.4605L132.482 41.4605L132.565 41.4605L132.565 41.1226L132.482 41.1226ZM132.482 42.1363L132.398 42.1363L132.398 42.4742L132.482 42.4742L132.565 42.4742L132.565 42.1363L132.482 42.1363ZM132.482 43.15L132.398 43.15L132.398 43.4879L132.482 43.4879L132.565 43.4879L132.565 43.15L132.482 43.15ZM132.482 44.1637L132.398 44.1637L132.398 44.5016L132.482 44.5016L132.565 44.5016L132.565 44.1637L132.482 44.1637ZM132.482 45.1774L132.398 45.1774L132.398 45.5153L132.482 45.5153L132.565 45.5153L132.565 45.1774L132.482 45.1774ZM132.482 46.1911L132.398 46.1911L132.398 46.529L132.482 46.529L132.565 46.529L132.565 46.1911L132.482 46.1911ZM132.482 47.2048L132.398 47.2048L132.398 47.5427L132.482 47.5427L132.565 47.5427L132.565 47.2048L132.482 47.2048ZM132.482 48.2185L132.398 48.2185L132.398 48.5564L132.482 48.5564L132.565 48.5564L132.565 48.2185L132.482 48.2185ZM132.482 49.2322L132.398 49.2322L132.398 49.5701L132.482 49.5701L132.565 49.5701L132.565 49.2322L132.482 49.2322ZM132.482 50.2459L132.398 50.2459L132.398 50.5838L132.482 50.5838L132.565 50.5838L132.565 50.2459L132.482 50.2459ZM132.482 51.2595L132.398 51.2595L132.398 51.5974L132.482 51.5974L132.565 51.5974L132.565 51.2595L132.482 51.2595ZM132.482 52.2732L132.398 52.2732L132.398 52.6111L132.482 52.6111L132.565 52.6111L132.565 52.2732L132.482 52.2732ZM132.482 53.2869L132.398 53.2869L132.398 53.4559L132.482 53.4559L132.565 53.4559L132.565 53.2869L132.482 53.2869Z" fill="#E9E9E9"/>
<path d="M73.6846 26.1794V36.0827L55.3205 25.4802V15.5768L73.6846 26.1794Z" fill="#222222" stroke="#E9E9E9" stroke-width="0.15"/>
<path opacity="0.32" d="M73.6846 26.1794V36.0827L55.3205 25.4802V15.5768L73.6846 26.1794Z" fill="#7A7A7A" stroke="#E9E9E9" stroke-width="0.15"/>
<path d="M91.9936 15.4375V25.3389L73.6295 35.9414V26.04L91.9936 15.4375Z" fill="#222222" stroke="#E9E9E9" stroke-width="0.15"/>
<path opacity="0.32" d="M91.9936 15.4375V25.3389L73.6295 35.9414V26.04L91.9936 15.4375Z" fill="#7A7A7A" stroke="#E9E9E9" stroke-width="0.15"/>
<rect x="0.129904" width="21.205" height="21.205" transform="matrix(0.866025 -0.5 0.866025 0.5 55.1474 15.6483)" fill="#383838" stroke="#E9E9E9" stroke-width="0.15"/>
<path d="M94.2801 38.1347V48.038L75.916 37.4355V27.5322L94.2801 38.1347Z" fill="#222222" stroke="#E9E9E9" stroke-width="0.15"/>
<path opacity="0.32" d="M94.2801 38.1347V48.038L75.916 37.4355V27.5322L94.2801 38.1347Z" fill="#7A7A7A" stroke="#E9E9E9" stroke-width="0.15"/>
<path d="M112.596 27.6044V37.5057L94.2317 48.1083V38.2069L112.596 27.6044Z" fill="#383838" stroke="#E9E9E9" stroke-width="0.15"/>
<rect x="0.129904" width="21.205" height="21.205" transform="matrix(0.866025 -0.5 0.866025 0.5 75.8682 27.6636)" fill="#383838" stroke="#E9E9E9" stroke-width="0.15"/>
<rect width="14.7798" height="14.7798" transform="matrix(0.866025 -0.5 0.866025 0.5 81.5139 27.426)" stroke="#7A7A7A" stroke-width="0.15" stroke-linejoin="bevel"/>
<rect width="14.7798" height="14.7798" transform="matrix(0.866025 -0.5 0.866025 0.5 60.9498 15.3975)" stroke="#7A7A7A" stroke-width="0.15" stroke-linejoin="bevel"/>
<path d="M53.665 32.2898V47.8884L35.3008 37.2859V21.6873L53.665 32.2898Z" fill="#222222" stroke="#E9E9E9" stroke-width="0.15"/>
<path d="M71.9841 21.8266L71.9351 37.3198L53.6386 47.8832V32.2514L71.9841 21.8266Z" fill="#383838" stroke="#7A7A7A" stroke-width="0.15"/>
<rect x="0.129904" width="21.205" height="21.205" transform="matrix(0.866025 -0.5 0.866025 0.5 35.2531 21.8979)" fill="#2A2A2A" stroke="#EDEDED" stroke-width="0.15"/>
<rect width="14.7798" height="14.7798" transform="matrix(0.866025 -0.5 0.866025 0.5 40.386 21.5978)" stroke="#7A7A7A" stroke-width="0.15" stroke-linejoin="bevel"/>
<path d="M73.559 49.7789V59.6823L55.1949 49.0797V39.1764L73.559 49.7789Z" fill="#222222" stroke="#E9E9E9" stroke-width="0.15"/>
<path d="M91.8685 39.246V49.1473L73.5043 59.7499V49.8485L91.8685 39.246Z" fill="#383838" stroke="#E9E9E9" stroke-width="0.15"/>
<rect x="0.129904" width="21.205" height="21.205" transform="matrix(0.866025 -0.5 0.866025 0.5 55.1188 39.4019)" fill="#2A2A2A" stroke="#EDEDED" stroke-width="0.15"/>
<path opacity="0.5" d="M80.4562 16.1608L78.8341 17.0974L72.1857 14.9909L72.1241 15.0261L75.7765 18.862L74.1544 19.7995L64.0255 16.5534L65.8448 15.5036L72.6202 17.9099L72.6857 17.8727L68.6515 13.8835L70.2091 12.9841L77.1261 15.322L77.1954 15.2819L73.0157 11.364L74.8351 10.3132L80.4562 16.1608Z" fill="#7A7A7A"/>
<rect width="14.7798" height="14.7798" transform="matrix(0.866025 -0.5 0.866025 0.5 60.8628 39.2684)" stroke="#7A7A7A" stroke-width="0.15" stroke-linejoin="bevel"/>
<path d="M51.2253 18.2556C51.8636 18.118 52.483 18.0812 53.0828 18.1462C53.6826 18.2114 54.2212 18.3779 54.698 18.6443L53.1023 19.5652C52.7614 19.4039 52.3882 19.3412 51.9832 19.3767C51.5782 19.4122 51.1759 19.5453 50.7761 19.7761C50.5044 19.933 50.3131 20.0876 50.2029 20.24C50.0901 20.3909 50.0504 20.534 50.0837 20.6687C50.1197 20.8017 50.2224 20.9168 50.3914 21.0144C50.5272 21.0988 50.6802 21.1528 50.8494 21.1765C51.021 21.1987 51.2032 21.1987 51.3953 21.1765C51.5848 21.1528 51.7835 21.114 51.991 21.0593C52.196 21.0031 52.4038 20.9361 52.614 20.8591L53.491 20.5486C53.9112 20.3948 54.3288 20.2721 54.7439 20.1804C55.159 20.0887 55.5654 20.0356 55.9626 20.0222C56.36 20.0089 56.7439 20.0419 57.113 20.1218C57.4847 20.2003 57.8361 20.3343 58.1667 20.5222C58.6459 20.8019 58.9403 21.114 59.0505 21.4587C59.1607 21.8005 59.0853 22.1591 58.824 22.5349C58.5625 22.9079 58.1113 23.2802 57.4705 23.6501C56.8348 24.0171 56.1837 24.2804 55.5173 24.4402C54.8535 24.5985 54.1984 24.643 53.5525 24.575C52.9065 24.5039 52.293 24.3087 51.7136 23.989L53.325 23.0593C53.6069 23.2014 53.9034 23.2851 54.2136 23.3103C54.5237 23.3325 54.8368 23.3038 55.1521 23.2253C55.4672 23.1439 55.7685 23.0209 56.0554 22.8552C56.3373 22.6925 56.5411 22.5273 56.6667 22.3601C56.7948 22.1915 56.8439 22.0315 56.8132 21.8806C56.7825 21.7297 56.6718 21.5995 56.4822 21.49C56.3053 21.3879 56.1042 21.3319 55.8787 21.323C55.6556 21.3126 55.4015 21.3414 55.1169 21.408C54.8351 21.4731 54.5161 21.5684 54.1599 21.6941L53.0867 22.0642C52.2612 22.3543 51.4846 22.5112 50.7566 22.5349C50.0286 22.5586 49.375 22.4016 48.7957 22.0642C48.3165 21.7905 48.0266 21.4773 47.9265 21.1238C47.8291 20.7687 47.9059 20.4029 48.157 20.0271C48.4082 19.6512 48.8211 19.2971 49.3953 18.9656C49.9796 18.6282 50.5897 18.3918 51.2253 18.2556Z" fill="#8F8F8F"/>
<path opacity="0.5" d="M71.5288 35.8632C72.4029 35.7226 73.3027 35.7321 74.228 35.8934C75.1558 36.0532 76.0491 36.3812 76.9077 36.8768C77.7665 37.3726 78.335 37.889 78.6118 38.4247C78.8911 38.9588 78.9104 39.4792 78.6694 39.9852C78.4285 40.4883 77.9607 40.9407 77.2661 41.3417C76.5663 41.7457 75.7789 42.0165 74.9048 42.1542C74.0307 42.2918 73.1309 42.2793 72.2056 42.118C71.2801 41.9567 70.3889 41.6289 69.5327 41.1346C68.6741 40.6389 68.1051 40.1239 67.8257 39.5897C67.5464 39.0556 67.5272 38.5371 67.7681 38.0341C68.0065 37.5294 68.4755 37.0748 69.1753 36.6708C69.87 36.2697 70.6547 36.0008 71.5288 35.8632ZM73.563 37.1835C73.017 37.0577 72.4949 37.0247 71.9976 37.0839C71.5003 37.1431 71.0504 37.289 70.6479 37.5214C70.2456 37.7537 69.9927 38.0136 69.8901 38.3007C69.7879 38.5876 69.8449 38.8894 70.0601 39.2059C70.278 39.5211 70.665 39.839 71.2212 40.16C71.7775 40.4812 72.3285 40.7051 72.8745 40.8309C73.4229 40.9552 73.9457 40.9877 74.4429 40.9286C74.9402 40.8694 75.391 40.7234 75.7935 40.4911C76.1957 40.2588 76.4478 39.9988 76.5503 39.7118C76.6528 39.4247 76.5953 39.1236 76.3774 38.8085C76.1621 38.4918 75.7765 38.1726 75.2202 37.8514C74.664 37.5303 74.1115 37.3078 73.563 37.1835Z" fill="#7A7A7A"/>
<path opacity="0.5" d="M95.2341 23.871L92.823 25.2626L99.325 29.0165L97.6794 29.9667L91.1775 26.2128L88.7664 27.6044L87.3933 26.8124L93.8611 23.079L95.2341 23.871Z" fill="#7A7A7A"/>
</svg>
