<?xml version="1.0" encoding="UTF-8"?>
<svg width="22px" height="22px" viewBox="0 0 22 22" version="1.1" xmlns="http://www.w3.org/2000/svg" xmlns:xlink="http://www.w3.org/1999/xlink">
    <title>F6B4536F-2DDF-4020-94F7-77A9A617BCD7</title>
    <g id="⚙️icons" stroke="none" stroke-width="1" fill="none" fill-rule="evenodd">
        <g id="Design-System/Icons" transform="translate(-427.000000, -3345.000000)">
            <g id="arrow-right" transform="translate(427.000000, 3345.000000)">
                <path d="M7.68130859,18.7458515 C7.41547527,18.4800182 7.41547527,18.0400169 7.68130859,17.7741836 L13.657975,11.7975183 C14.097975,11.3575183 14.097975,10.642518 13.657975,10.202518 L7.68130859,4.22585138 C7.41547527,3.96001805 7.41547527,3.5200179 7.68130859,3.25418457 C7.94714192,2.98835125 8.38714142,2.98835125 8.65297474,3.25418457 L14.629642,9.23085097 C15.097142,9.69835097 15.3629751,10.3308517 15.3629751,11.0000184 C15.3629751,11.669185 15.1063087,12.3016853 14.629642,12.7691853 L8.65297474,18.7458515 C8.51547474,18.8741849 8.34130832,18.9475176 8.16714166,18.9475176 C7.99297499,18.9475176 7.8188086,18.8833515 7.68130859,18.7458515 Z" id="Vector" stroke="#6A7483" stroke-width="0.8" fill="#6A7483" fill-rule="nonzero" stroke-dasharray="0,0"></path>
                <path d="M22,0 L22,22 L0,22 L0,0 L22,0 Z" id="Vector" opacity="0"></path>
            </g>
        </g>
    </g>
</svg>