<?xml version="1.0" encoding="UTF-8"?>
<svg version="1.1" viewBox="0 0 64 64" xmlns="http://www.w3.org/2000/svg" xmlns:xlink="http://www.w3.org/1999/xlink">
<title>guest-user</title>
<defs>
<circle id="path-1" cx="32" cy="32" r="32"/>
<circle id="c" cx="32" cy="32" r="32"/>
<linearGradient id="i" x1="100%" x2="6.7307e-14%" y1="28.292%" y2="76.988%">
<stop stop-color="#B8ABFF" offset="0"/>
<stop stop-color="#879EF5" offset="1"/>
</linearGradient>
<circle id="b" cx="32" cy="32" r="32"/>
<circle id="a" cx="32" cy="32" r="32"/>
<linearGradient id="j" x1="54.026%" x2="54.026%" y1="150.18%" y2="44.707%">
<stop stop-color="#A6A6FB" offset="0"/>
<stop stop-color="#fff" offset="1"/>
</linearGradient>
</defs>
<g fill="none" fill-rule="evenodd">
<g transform="translate(-24 -94)">
<g transform="translate(24 94)">
<mask id="h" fill="white">
<use xlink:href="#d"/>
</mask>
<circle cx="32" cy="32" r="31.5" stroke="#979797"/>
<g mask="url(#h)">
<g id="Oval" fill="#ECF0FE" fill-rule="nonzero">
<circle id="d" cx="32" cy="32" r="32"/>
</g>
<mask id="g" fill="white">
<use xlink:href="#c"/>
</mask>
<g mask="url(#g)" opacity=".9">
<g id="Rectangle" transform="translate(-16.92 -2)">
<rect width="103.68" height="72" fill="url(#i)" fill-rule="nonzero"/>
</g>
</g>
<mask id="f" fill="white">
<use xlink:href="#b"/>
</mask>
<path id="Rectangle" d="m32.5 9c5.2467 0 9.5 4.2533 9.5 9.5v7.5c0 2.7614-2.2386 5-5 5h-9c-2.7614 0-5-2.2386-5-5v-7.5c0-5.2467 4.2533-9.5 9.5-9.5z" fill="#fff" fill-rule="nonzero" mask="url(#f)"/>
<mask id="e" fill="white">
<use xlink:href="#a"/>
</mask>
<g mask="url(#e)">
<g transform="translate(8 34)" fill-rule="nonzero">
<path id="Rectangle" d="m24 0c13.255 0 24 10.745 24 24v11h-48v-11c0-13.255 10.745-24 24-24z" fill="#fff"/>
<path id="k" d="m24 0c13.255 0 24 10.745 24 24v11h-48v-11c0-13.255 10.745-24 24-24z" fill="url(#j)"/>
<g transform="translate(26 1)">
<path d="m4 15h10v6.0964c0 0.55228-0.44772 1-1 1-0.20268 0-0.40057-0.061587-0.56746-0.1766l-3.4325-2.3656-3.4325 2.3656c-0.45475 0.3134-1.0775 0.19881-1.3909-0.25594-0.11501-0.16689-0.1766-0.36478-0.1766-0.56746v-6.0964z" fill="#B8ABFF"/>
<circle id="l" cx="9" cy="9" r="9" fill="#fff"/>
<circle cx="9" cy="9" r="8" fill="#436AF5"/>
</g>
<g transform="translate(30.633 5.9841)" fill="#fff">
<path d="m6.9657 2.6083c-0.23176-0.43263-0.55365-0.75918-0.96567-0.97965s-0.88841-0.33071-1.4292-0.33071c-0.59227 0-1.1202 0.12896-1.5837 0.38687-0.46352 0.25791-0.82618 0.62398-1.088 1.0982-0.2618 0.47423-0.3927 1.0233-0.3927 1.6473s0.1309 1.1752 0.3927 1.6536c0.2618 0.47839 0.62446 0.84654 1.088 1.1045 0.46352 0.25791 0.99142 0.38687 1.5837 0.38687 0.79828 0 1.4464-0.21631 1.9442-0.64894 0.49785-0.43263 0.80258-1.0192 0.91416-1.7596h-3.3605v-1.1356h4.9313v1.1107c-0.094421 0.6739-0.3412 1.2937-0.74034 1.8595s-0.91845 1.0171-1.5579 1.354-1.3498 0.50543-2.1309 0.50543c-0.8412 0-1.6094-0.18927-2.3047-0.56782s-1.2468-0.90478-1.6545-1.5787c-0.40773-0.6739-0.61159-1.4352-0.61159-2.2838s0.20386-1.6099 0.61159-2.2838c0.40773-0.6739 0.96137-1.2001 1.6609-1.5787 0.69957-0.37855 1.4657-0.56782 2.2983-0.56782 0.95279 0 1.8004 0.22671 2.5429 0.68014 0.74249 0.45343 1.2811 1.0961 1.6159 1.9281h-1.7639z"/>
</g>
</g>
</g>
</g>
</g>
</g>
</g>
</svg>