<?xml version="1.0" encoding="UTF-8"?>
<svg width="22px" height="22px" viewBox="0 0 22 22" version="1.1" xmlns="http://www.w3.org/2000/svg" xmlns:xlink="http://www.w3.org/1999/xlink">
    <title>89B9E1D8-9DDB-4D73-A73E-DBDB26E04D02</title>
    <g id="⚙️icons" stroke="none" stroke-width="1" fill="none" fill-rule="evenodd">
        <g id="Design-System/Icons" transform="translate(-209.000000, -1576.000000)" fill="#6A7582">
            <g id="close-circle" transform="translate(209.000000, 1576.000000)">
                <path d="M0,10.75 C0,4.82000017 4.82000017,0 10.75,0 C16.6799998,0 21.5,4.82000017 21.5,10.75 C21.5,16.6799998 16.6799998,21.5 10.75,21.5 C4.82000017,21.5 0,16.6799998 0,10.75 Z M1.5,10.75 C1.5,15.8499999 5.6500001,20 10.75,20 C15.8499999,20 20,15.8499999 20,10.75 C20,5.6500001 15.8499999,1.5 10.75,1.5 C5.6500001,1.5 1.5,5.6500001 1.5,10.75 Z" id="Vector"></path>
                <path d="M7.389375,14.1101069 C7.09937501,13.820107 7.09937501,13.3401075 7.389375,13.0501075 L13.0493751,7.39010742 C13.339375,7.10010743 13.8193745,7.10010743 14.1093745,7.39010742 C14.3993745,7.68010741 14.3993745,8.16010687 14.1093745,8.45010686 L8.44937444,14.1101069 C8.30937444,14.260107 8.1093747,14.3301072 7.9193747,14.3301072 C7.72937471,14.3301072 7.53937501,14.260107 7.389375,14.1101069 Z" id="Vector" fill-rule="nonzero"></path>
                <path d="M13.0493751,14.1101069 L7.389375,8.45010686 C7.09937501,8.16010687 7.09937501,7.68010741 7.389375,7.39010742 C7.67937499,7.10010743 8.15937445,7.10010743 8.44937444,7.39010742 L14.1093745,13.0501075 C14.3993745,13.3401075 14.3993745,13.820107 14.1093745,14.1101069 C13.9593745,14.260107 13.7693748,14.3301072 13.5793748,14.3301072 C13.3893748,14.3301072 13.1993751,14.260107 13.0493751,14.1101069 Z" id="Vector" fill-rule="nonzero"></path>
            </g>
        </g>
    </g>
</svg>