<svg xmlns="http://www.w3.org/2000/svg" width="22" height="22"><g fill="#FFF" fill-rule="evenodd"><path d="M1.146 10.542c0-5.18 4.216-9.396 9.396-9.396 5.179 0 9.396 4.216 9.396 9.396 0 5.179-4.217 9.396-9.396 9.396-5.18 0-9.396-4.217-9.396-9.396Zm1.375 0c0 4.418 3.593 8.02 8.02 8.02 4.428 0 8.021-3.602 8.021-8.02 0-4.419-3.593-8.021-8.02-8.021-4.428 0-8.021 3.602-8.021 8.02Z"/><path fill-rule="nonzero" d="m19.681 20.652-1.833-1.833a.692.692 0 0 1 0-.972.692.692 0 0 1 .972 0l1.833 1.834a.692.692 0 0 1 0 .971.68.68 0 0 1-.486.202.68.68 0 0 1-.486-.202Z"/></g></svg>