<?xml version="1.0" encoding="UTF-8"?>
<svg width="24px" height="24px" viewBox="0 0 24 24" version="1.1" xmlns="http://www.w3.org/2000/svg" xmlns:xlink="http://www.w3.org/1999/xlink">
    <title>F02BB774-2DA8-4D20-A808-99A8861A2DFB</title>
    <g id="⚙️icons" stroke="none" stroke-width="1" fill="none" fill-rule="evenodd">
        <g id="Design-System/Icons" transform="translate(-104.000000, -2978.000000)">
            <g id="icon/left-arrow" transform="translate(116.000000, 2990.000000) rotate(90.000000) translate(-116.000000, -2990.000000) translate(104.000000, 2978.000000)">
                <g id="arrow-down" transform="translate(12.000000, 12.000000) scale(-1, 1) translate(-12.000000, -12.000000) ">
                    <path d="M11.469141,21.0301185 L5.39914063,14.9601176 C5.10914063,14.6701176 5.10914063,14.1901172 5.39914063,13.9001172 C5.68914062,13.6101172 6.16914055,13.6101172 6.45914054,13.9001172 L11.9991407,19.4401183 L17.5391417,13.9001172 C17.8291416,13.6101172 18.3091411,13.6101172 18.5991411,13.9001172 C18.8891411,14.1901172 18.8891411,14.6701176 18.5991411,14.9601176 L12.5291405,21.0301185 C12.3791405,21.1801185 12.1891407,21.2501178 11.9991407,21.2501178 C11.8091407,21.2501178 11.619141,21.1801185 11.469141,21.0301185 Z" id="Vector" fill="#6A7483" fill-rule="nonzero"></path>
                    <path d="M11.25,20.3299999 L11.25,3.5 C11.25,3.09 11.59,2.75 12,2.75 C12.41,2.75 12.75,3.09 12.75,3.5 L12.75,20.3299999 C12.75,20.7399999 12.41,21.0799999 12,21.0799999 C11.59,21.0799999 11.25,20.7399999 11.25,20.3299999 Z" id="Vector" fill="#6A7483" fill-rule="nonzero"></path>
                    <path d="M24,0 L24,24 L0,24 L0,0 L24,0 Z" id="Vector" opacity="0"></path>
                </g>
            </g>
        </g>
    </g>
</svg>