<?xml version="1.0" encoding="UTF-8"?>
<svg width="12px" height="12px" viewBox="0 0 12 12" version="1.1" xmlns="http://www.w3.org/2000/svg" xmlns:xlink="http://www.w3.org/1999/xlink">
    <title>90E697A5-A5B3-4A59-873F-71D12E25A0E5</title>
    <g id="⚙️icons" stroke="none" stroke-width="1" fill="none" fill-rule="evenodd">
        <g id="Design-System/Icons" transform="translate(-845.000000, -3215.000000)">
            <g id="arrow-down" transform="translate(845.000000, 3215.000000)">
                <path d="M5.03476548,8.00006843 L1.77476563,4.74006808 C1.62976563,4.59506808 1.62976563,4.35506836 1.77476563,4.21006836 C1.91976562,4.06506836 2.15976571,4.06506836 2.3047657,4.21006836 L5.56476569,7.47006822 C5.80476569,7.71006821 6.19476582,7.71006821 6.43476582,7.47006822 L9.69476509,4.21006836 C9.83976509,4.06506836 10.0797658,4.06506836 10.2247658,4.21006836 C10.3697658,4.35506836 10.3697658,4.59506808 10.2247658,4.74006808 L6.96476603,8.00006843 C6.69976604,8.26506841 6.34976587,8.40006781 5.99976587,8.40006781 C5.64976588,8.40006781 5.29976547,8.26506841 5.03476548,8.00006843 Z" id="Vector" fill="#BFC3CA" fill-rule="nonzero"></path>
                <path d="M12,0 L12,12 L0,12 L0,0 L12,0 Z" id="Vector" opacity="0"></path>
            </g>
        </g>
    </g>
</svg>