<svg xmlns="http://www.w3.org/2000/svg" width="233" height="232" fill="none"><circle cx="111.5" cy="122.278" r="83.5" fill="#ECF0FE" opacity=".1"/><circle cx="111.5" cy="122.278" r="63.5" fill="#ECF0FE" opacity=".1"/><circle cx="111" cy="122.778" r="48" fill="#fff"/><path fill="url(#a)" fill-rule="evenodd" d="M121.977 118.273v-.209l-8.048-16.886h-10.595l8.187 17.175 1.744 3.569 8.712-3.649Z" clip-rule="evenodd"/><path fill="url(#b)" fill-rule="evenodd" d="m84.617 135.167 18.718-33.989h10.594l-18.8 34.05a.27.27 0 0 1-.237.14H84.736a.136.136 0 0 1-.12-.201Z" clip-rule="evenodd"/><path fill="url(#c)" fill-rule="evenodd" d="m113.929 101.178-5.686 10.298-4.909-10.298H113.929Z" clip-rule="evenodd"/><path fill="url(#d)" fill-rule="evenodd" d="m136.95 132.84-10.501-22.031h-10.594l10.52 22.071c.045.094.14.155.245.155h10.208a.136.136 0 0 0 .122-.195Z" clip-rule="evenodd"/><path fill="url(#e)" fill-rule="evenodd" d="m97.137 144.798 18.718-33.989h10.594l-18.799 34.05a.273.273 0 0 1-.238.14H97.256a.136.136 0 0 1-.119-.201Z" clip-rule="evenodd"/><path fill="url(#f)" fill-rule="evenodd" d="m126.449 110.809-5.686 10.298-4.908-10.298h10.594Z" clip-rule="evenodd"/><path fill="url(#g)" fill-rule="evenodd" d="m171.238 52.354.019.012 7.659-14.581-10.098 12.79a1.518 1.518 0 1 0 2.42 1.779Z" clip-rule="evenodd"/><path fill="url(#h)" fill-rule="evenodd" d="m20.14 193.077-.016-.016L9.6 205.732l12.536-10.412a1.518 1.518 0 1 0-1.998-2.243Z" clip-rule="evenodd"/><path fill="url(#i)" fill-rule="evenodd" d="M55.8 43.909 52.422 46.1 41.688 25.875l14.111 18.034ZM94.88 24.25a2.013 2.013 0 1 1-2.192-3.375 2.013 2.013 0 0 1 2.192 3.375Z" clip-rule="evenodd"/><circle cx="213.5" cy="87.278" r="7" stroke="#B489CE" stroke-width="3"/><circle cx="7.5" cy="130.278" r="6" stroke="#B489CE" stroke-width="3"/><circle cx="180.5" cy="193.278" r="5" stroke="#B489CE" stroke-width="3"/><rect width="4.372" height="1" x="222" y="140.778" fill="#879EF5" rx=".5"/><rect width="4.372" height="1" x="228.628" y="140.778" fill="#879EF5" rx=".5"/><rect width="4.372" height="1" x="228" y="135.778" fill="#879EF5" rx=".5" transform="rotate(90 228 135.778)"/><rect width="4.372" height="1" x="228" y="142.407" fill="#879EF5" rx=".5" transform="rotate(90 228 142.407)"/><rect width="4.769" height="1" x="1" y="55.778" fill="#879EF5" rx=".5"/><rect width="4.769" height="1" x="8.231" y="55.778" fill="#879EF5" rx=".5"/><rect width="4.769" height="1" x="7.5" y="50.278" fill="#879EF5" rx=".5" transform="rotate(90 7.5 50.278)"/><rect width="4.769" height="1" x="7.5" y="57.509" fill="#879EF5" rx=".5" transform="rotate(90 7.5 57.51)"/><rect width="4.769" height="1" x="51" y="225.278" fill="#879EF5" rx=".5"/><rect width="4.769" height="1" x="58.231" y="225.278" fill="#879EF5" rx=".5"/><rect width="4.769" height="1" x="57.5" y="219.778" fill="#879EF5" rx=".5" transform="rotate(90 57.5 219.778)"/><rect width="4.769" height="1" x="57.5" y="227.009" fill="#879EF5" rx=".5" transform="rotate(90 57.5 227.009)"/><defs><linearGradient id="a" x1="122.023" x2="110.419" y1="102.999" y2="109.842" gradientUnits="userSpaceOnUse"><stop stop-color="#FEBFBD"/><stop offset="1" stop-color="#FC6A65"/></linearGradient><linearGradient id="b" x1="109.8" x2="88.031" y1="110.178" y2="113.243" gradientUnits="userSpaceOnUse"><stop stop-color="#8D78FF"/><stop offset="1" stop-color="#436AF5"/></linearGradient><linearGradient id="c" x1="118.28" x2="100.944" y1="99.947" y2="113.188" gradientUnits="userSpaceOnUse"><stop stop-color="#7160CC"/><stop offset="1" stop-color="#436AF5"/></linearGradient><linearGradient id="d" x1="137.015" x2="124.26" y1="112.759" y2="120.708" gradientUnits="userSpaceOnUse"><stop stop-color="#FEBFBD"/><stop offset="1" stop-color="#FC6A65"/></linearGradient><linearGradient id="e" x1="122.32" x2="100.552" y1="119.809" y2="122.874" gradientUnits="userSpaceOnUse"><stop stop-color="#8D78FF"/><stop offset="1" stop-color="#436AF5"/></linearGradient><linearGradient id="f" x1="130.8" x2="113.464" y1="109.578" y2="122.819" gradientUnits="userSpaceOnUse"><stop stop-color="#7160CC"/><stop offset="1" stop-color="#436AF5"/></linearGradient><linearGradient id="g" x1="181.026" x2="169.505" y1="31.236" y2="48.977" gradientUnits="userSpaceOnUse"><stop stop-color="#AC71B5"/><stop offset="1" stop-color="#7770D9"/></linearGradient><linearGradient id="h" x1="6.175" x2="21.133" y1="211.698" y2="196.74" gradientUnits="userSpaceOnUse"><stop stop-color="#AC71B5"/><stop offset="1" stop-color="#7770D9"/></linearGradient><linearGradient id="i" x1="41.071" x2="56.755" y1="-6.314" y2="17.837" gradientUnits="userSpaceOnUse"><stop stop-color="#C680D0"/><stop offset="1" stop-color="#847ED6"/></linearGradient></defs></svg>