<svg xmlns="http://www.w3.org/2000/svg" xmlns:xlink="http://www.w3.org/1999/xlink" width="199" height="68"><defs><circle id="a" cx="27" cy="27" r="27"/></defs><g fill="none" fill-rule="evenodd"><g transform="translate(63)"><circle cx="37" cy="34" r="34" fill="#436AF5" opacity=".1"/><g fill="#DAE2FD"><path d="M3 4h2v8H3z"/><path d="M8 7v2H0V7z"/></g><g fill="#DAE2FD"><path d="M11 60h2v8h-2z"/><path d="M16 63v2H8v-2z"/></g><g fill="#DAE2FD"><path d="M64 3h1v5h-1z"/><path d="M67 5v1h-5V5z"/></g><g transform="translate(10 7)"><mask id="b" fill="#fff"><use xlink:href="#a"/></mask><use xlink:href="#a" fill="#FFF"/><ellipse cx="27.059" cy="27" fill="#FFF" mask="url(#b)" opacity=".499" rx="27.059" ry="27"/><g mask="url(#b)"><path d="M1.702 1.699H51.01v50H1.702z"/><path fill="#A1B4FA" d="M34.351 23.273v-.15l-5.71-12.147h-7.515l5.808 12.354 1.237 2.568z"/><path fill="#A1B4FA" d="m44.973 33.753-7.45-15.849h-7.515l7.463 15.877c.032.068.1.111.174.111h7.241a.097.097 0 0 0 .087-.14Z"/><path fill="#436AF5" d="m7.848 35.426 13.278-24.45h7.516L15.306 35.47a.192.192 0 0 1-.17.1H7.933a.097.097 0 0 1-.096-.097c0-.016.004-.032.012-.047ZM16.73 42.354l13.278-24.45h7.515L24.187 42.398a.192.192 0 0 1-.168.101h-7.205a.097.097 0 0 1-.096-.098c0-.016.004-.032.012-.047Z"/></g></g></g><g fill="#436AF5" opacity=".1" transform="translate(141 14)"><rect width="28" height="6" x="2" rx="3"/><rect width="52" height="6" x="6" y="16" rx="3"/><rect width="26" height="6" y="30" rx="3"/></g><g fill="#436AF5" opacity=".1" transform="matrix(-1 0 0 1 58 14)"><rect width="28" height="6" x="2" rx="3"/><rect width="52" height="6" x="6" y="16" rx="3"/><rect width="26" height="6" y="30" rx="3"/></g><path fill="#A1B4FA" d="m134.98 25.593-1.882 3.589-2.006-3.521-3.59-1.882 3.522-2.007 1.882-3.588 2.006 3.52 3.59 1.883z"/></g></svg>