<svg xmlns="http://www.w3.org/2000/svg" width="256" height="100" fill="none"><rect width="28" height="6" x="194" y="32" fill="#DBA1C3" rx="3"/><rect width="52" height="6" x="204" y="48" fill="#BE8BA3" rx="3"/><rect width="26" height="6" x="194" y="62" fill="#B47483" rx="3"/><rect width="28" height="6" fill="#B8A8FF" rx="3" transform="matrix(-1 0 0 1 62 31)"/><rect width="52" height="6" fill="#A395E6" rx="3" transform="matrix(-1 0 0 1 52 47)"/><rect width="26" height="6" fill="#968AC4" rx="3" transform="matrix(-1 0 0 1 62 61)"/><circle cx="129" cy="50" r="50" fill="url(#a)"/><circle cx="129" cy="50" r="40" fill="#fff"/><path fill="#BA9D9D" fill-rule="evenodd" d="m188.188 79.138-1.387 2.644-1.478-2.594-2.645-1.387 2.595-1.478 1.386-2.645 1.479 2.594 2.644 1.387-2.594 1.479Z" clip-rule="evenodd"/><path fill="#9481D9" fill-rule="evenodd" d="m79.87 90.151-1.062 2.025-1.132-1.986-2.024-1.062 1.986-1.131 1.061-2.024 1.132 1.985 2.024 1.062-1.986 1.131Z" clip-rule="evenodd"/><path fill="#9A87E7" fill-rule="evenodd" d="m83.77 14.737-.92 1.754-.981-1.721-1.755-.92 1.721-.982.92-1.754.982 1.721 1.754.92-1.721.982Z" clip-rule="evenodd"/><path fill="#CFAFF5" fill-rule="evenodd" d="m168.983 7.963-.575 1.097-.614-1.077-1.097-.575 1.076-.614.576-1.097.614 1.076 1.097.576-1.077.614Z" clip-rule="evenodd"/><path fill="#DAE2FD" d="M67.5 49h1v4h-1z"/><path fill="#DAE2FD" fill-rule="evenodd" d="M70 50.5v1h-4v-1h4Z" clip-rule="evenodd"/><path fill="url(#b)" fill-rule="evenodd" d="M138.148 46.246v-.175L131.44 32h-8.828l6.822 14.312 1.454 2.974 7.26-3.04Z" clip-rule="evenodd"/><path fill="url(#c)" fill-rule="evenodd" d="M107.014 60.324 122.612 32h8.829l-15.667 28.375a.224.224 0 0 1-.198.117h-8.463a.113.113 0 0 1-.099-.168Z" clip-rule="evenodd"/><path fill="url(#d)" fill-rule="evenodd" d="m131.44 32-4.737 8.581-4.091-8.58V32h8.828Z" clip-rule="evenodd"/><path fill="url(#e)" fill-rule="evenodd" d="m150.625 58.385-8.751-18.36h-8.828l8.767 18.393a.225.225 0 0 0 .204.129h8.506a.113.113 0 0 0 .102-.162Z" clip-rule="evenodd"/><path fill="url(#f)" fill-rule="evenodd" d="m117.448 68.35 15.598-28.324h8.828L126.208 68.4a.227.227 0 0 1-.198.117h-8.463a.113.113 0 0 1-.099-.168Z" clip-rule="evenodd"/><path fill="url(#g)" fill-rule="evenodd" d="m141.874 40.026-4.738 8.581-4.09-8.581h8.828Z" clip-rule="evenodd"/><defs><linearGradient id="a" x1="123.5" x2="125" y1="14.5" y2="100" gradientUnits="userSpaceOnUse"><stop stop-color="#9A87E7"/><stop offset="1" stop-color="#5E4E60"/></linearGradient><linearGradient id="b" x1="138.186" x2="128.516" y1="33.517" y2="39.219" gradientUnits="userSpaceOnUse"><stop stop-color="#FEBFBD"/><stop offset="1" stop-color="#FC6A65"/></linearGradient><linearGradient id="c" x1="128" x2="109.859" y1="39.5" y2="42.054" gradientUnits="userSpaceOnUse"><stop stop-color="#8D78FF"/><stop offset="1" stop-color="#436AF5"/></linearGradient><linearGradient id="d" x1="135.066" x2="120.62" y1="30.974" y2="42.008" gradientUnits="userSpaceOnUse"><stop stop-color="#7160CC"/><stop offset="1" stop-color="#436AF5"/></linearGradient><linearGradient id="e" x1="150.679" x2="140.05" y1="41.651" y2="48.275" gradientUnits="userSpaceOnUse"><stop stop-color="#FEBFBD"/><stop offset="1" stop-color="#FC6A65"/></linearGradient><linearGradient id="f" x1="138.434" x2="120.293" y1="47.526" y2="50.08" gradientUnits="userSpaceOnUse"><stop stop-color="#8D78FF"/><stop offset="1" stop-color="#436AF5"/></linearGradient><linearGradient id="g" x1="145.5" x2="131.053" y1="39" y2="50.034" gradientUnits="userSpaceOnUse"><stop stop-color="#7160CC"/><stop offset="1" stop-color="#436AF5"/></linearGradient></defs></svg>