<svg width="16" height="16" viewBox="0 0 16 16" fill="none" xmlns="http://www.w3.org/2000/svg">
<path d="M1.18656 11.3171H2.38357V16H1.18656V11.3171ZM1.18656 0H2.38357V9.7561H1.18656V0Z" fill="#2A2A2A"/>
<path d="M3.59102 8.78049V12.2927H0V8.78049H3.59102ZM1.19701 11.122H2.39402V9.95122H1.19701V11.122Z" fill="#2A2A2A"/>
<path d="M13.6139 11.122H14.8109V16H13.6139V11.122ZM13.6139 0H14.8109V9.97561H13.6139V0Z" fill="#2A2A2A"/>
<path d="M16 8.78049V12.2927H12.409V8.78049H16ZM13.606 11.122H14.803V9.95122H13.606V11.122Z" fill="#2A2A2A"/>
<path d="M7.40025 5.07317H8.59726V16H7.40025V5.07317ZM7.40025 0H8.59726V3.4878H7.40025V0Z" fill="#2A2A2A"/>
<path d="M9.7995 2.53659V6.04878H6.20848V2.53659H9.7995ZM7.40549 4.87805H8.6025V3.70732H7.40549V4.87805Z" fill="#2A2A2A"/>
</svg>
