<svg width="16" height="16" viewBox="0 0 16 16" fill="none" xmlns="http://www.w3.org/2000/svg">
<path fill-rule="evenodd" clip-rule="evenodd" d="M8.00274 4.50361C9.96969 4.50361 11.5642 6.06899 11.5642 8C11.5642 9.93098 9.96967 11.4964 8.00274 11.4964C6.03582 11.4964 4.44131 9.93097 4.44126 8C4.44128 6.069 6.0358 4.50363 8.00274 4.50361ZM8.00274 5.68549C6.70068 5.6855 5.64516 6.72174 5.64514 8C5.64519 9.27823 6.7007 10.3145 8.00274 10.3145C9.30479 10.3145 10.3603 9.27824 10.3603 8C10.3603 6.72173 9.30481 5.68549 8.00274 5.68549Z" fill="#2A2A2A"/>
<path fill-rule="evenodd" clip-rule="evenodd" d="M14.1178 2.39685L14.059 2.79311L13.7752 4.72829L16.002 5.60315V10.3968L13.7745 11.2717L14.1162 13.6032L9.88772 16L9.56715 15.753L8.00195 14.5434L6.11776 16L1.8885 13.6032L2.22944 11.2717L0.00195312 10.3968V5.60315L0.380517 5.45465L2.22866 4.72752L1.88772 2.39685L6.11619 0L6.43675 0.246994L8.00195 1.45657L9.56794 0.246994L9.8885 0L14.1178 2.39685ZM8.00274 2.96085L6.01195 1.42349L3.19506 3.0201L3.55638 5.48004L3.11668 5.65317L1.20583 6.40262V9.59661L3.55716 10.52L3.19584 12.9791L6.01273 14.5757L8.00274 13.0399L9.99118 14.5757L12.8081 12.9791L12.5157 10.9801L12.4475 10.52L14.7981 9.59661V6.40262L12.4483 5.48081L12.5165 5.02068L12.8096 3.0201L9.99196 1.42349L8.00274 2.96085Z" fill="#2A2A2A"/>
</svg>
