<svg xmlns="http://www.w3.org/2000/svg" width="24" height="24" viewBox="0 0 24 24" fill="none">
  <path d="M11.375 13.6667V9.5C11.375 9.15833 11.6583 8.875 12 8.875C12.3417 8.875 12.625 9.15833 12.625 9.5V13.6667C12.625 14.0083 12.3417 14.2917 12 14.2917C11.6583 14.2917 11.375 14.0083 11.375 13.6667Z" fill="#C9221C"/>
  <path d="M11.8333 16.9831C11.7833 16.9748 11.7333 16.9581 11.6833 16.9331C11.6333 16.9165 11.5833 16.8915 11.5333 16.8581C11.4916 16.8248 11.45 16.7915 11.4083 16.7581C11.2583 16.5998 11.1666 16.3831 11.1666 16.1665C11.1666 15.9498 11.2583 15.7331 11.4083 15.5748C11.45 15.5415 11.4916 15.5081 11.5333 15.4748C11.5833 15.4415 11.6333 15.4165 11.6833 15.3998C11.7333 15.3748 11.7833 15.3581 11.8333 15.3498C11.9416 15.3248 12.0583 15.3248 12.1583 15.3498C12.2166 15.3581 12.2666 15.3748 12.3166 15.3998C12.3666 15.4165 12.4166 15.4415 12.4666 15.4748C12.5083 15.5081 12.55 15.5415 12.5916 15.5748C12.7416 15.7331 12.8333 15.9498 12.8333 16.1665C12.8333 16.3831 12.7416 16.5998 12.5916 16.7581C12.55 16.7915 12.5083 16.8248 12.4666 16.8581C12.4166 16.8915 12.3666 16.9165 12.3166 16.9331C12.2666 16.9581 12.2166 16.9748 12.1583 16.9831C12.1083 16.9915 12.05 16.9998 12 16.9998C11.95 16.9998 11.8916 16.9915 11.8333 16.9831Z" fill="#C9221C"/>
  <path fill-rule="evenodd" clip-rule="evenodd" d="M6.95035 20.4665C5.32535 20.4665 4.08368 19.8749 3.45035 18.8082C2.82535 17.7415 2.90868 16.3665 3.70035 14.9415L8.75035 5.8582C9.58368 4.3582 10.7337 3.5332 12.0003 3.5332C13.267 3.5332 14.417 4.3582 15.2503 5.8582L20.3003 14.9499C21.092 16.3749 21.1837 17.7415 20.5503 18.8165C19.917 19.8749 18.6753 20.4665 17.0503 20.4665H6.95035ZM9.84201 6.46654L4.80035 15.5582C4.23368 16.5749 4.14201 17.5082 4.53368 18.1832C4.92535 18.8582 5.79201 19.2249 6.95868 19.2249H17.0587C18.2253 19.2249 19.0837 18.8582 19.4837 18.1832C19.8837 17.5082 19.7837 16.5832 19.217 15.5582L14.1587 6.46654C13.5503 5.3832 12.7837 4.7832 12.0003 4.7832C11.217 4.7832 10.4503 5.3832 9.84201 6.46654Z" fill="#C9221C"/>
  <path opacity="0.01" fill-rule="evenodd" clip-rule="evenodd" d="M22 2V22H2V2H22Z" fill="#C9221C"/>
</svg>