<svg width="20" height="20" viewBox="0 0 20 20" fill="none" xmlns="http://www.w3.org/2000/svg">
<path d="M12.5947 2C16.5815 2.00007 18 3.41844 18 7.40527V12.5947C18 16.5816 16.5815 17.9999 12.5947 18H7.40527C3.41829 18 2.00003 16.5817 2 12.5947V7.40527C2.00003 3.41835 3.41829 2 7.40527 2H12.5947ZM12.7119 4.38477C11.5344 4.38477 10.5813 5.33717 10.5811 6.51465V13.4883C10.5812 14.6658 11.5343 15.6182 12.7119 15.6182C13.8893 15.618 14.8416 14.6657 14.8418 13.4883V6.51465C14.8416 5.33728 13.8893 4.38495 12.7119 4.38477ZM7.28809 8.64258C6.11043 8.64258 5.15723 9.59578 5.15723 10.7734V13.4854C5.15743 14.6628 6.11055 15.6152 7.28809 15.6152C8.4656 15.6152 9.41874 14.6628 9.41895 13.4854V10.7734C9.41895 9.59579 8.46573 8.6426 7.28809 8.64258ZM12.7119 5.54688C13.2462 5.54706 13.6795 5.98034 13.6797 6.51465V13.4883C13.6795 14.0226 13.2463 14.4559 12.7119 14.4561C12.1774 14.4561 11.7433 14.0227 11.7432 13.4883V6.51465C11.7434 5.98023 12.1774 5.54688 12.7119 5.54688ZM7.28809 9.80469C7.82266 9.80471 8.25684 10.2389 8.25684 10.7734V13.4854C8.25663 14.0198 7.82254 14.4531 7.28809 14.4531C6.75362 14.4531 6.31954 14.0198 6.31934 13.4854V10.7734C6.31934 10.2388 6.75349 9.80469 7.28809 9.80469Z" fill="#436AF5"/>
</svg>
