<svg width="20" height="20" viewBox="0 0 20 20" fill="none" xmlns="http://www.w3.org/2000/svg">
<path d="M5.10077 2C4.7694 2 4.50077 2.26863 4.50077 2.6V12H2.77698C2.2158 12 1.96176 12.7017 2.39287 13.0609L8.01666 17.7474C8.40746 18.0731 9.00077 17.7952 9.00077 17.2865V2.6C9.00077 2.26864 8.73215 2 8.40077 2H5.10077Z" fill="#ADADAD"/>
<path d="M14.9008 18C15.2321 18 15.5008 17.7314 15.5008 17.4V8H17.2246C17.7857 8 18.0398 7.29833 17.6087 6.93907L11.9849 2.25257C11.5941 1.92691 11.0008 2.2048 11.0008 2.7135V17.4C11.0008 17.7314 11.2694 18 11.6008 18H14.9008Z" fill="#ADADAD"/>
</svg>
