<svg width="20" height="20" viewBox="0 0 20 20" fill="none" xmlns="http://www.w3.org/2000/svg">
<path d="M5.39493 17.8531L13.1013 17.9166H14.25C15.4441 17.9166 16.4167 16.9441 16.4167 15.75V13.5833H5.375C4.48088 13.5833 3.75 14.3142 3.75 15.2083V15.75C3.75 16.7643 4.45174 17.6188 5.39493 17.8531Z" fill="#436AF5"/>
<path fill-rule="evenodd" clip-rule="evenodd" d="M3 6.16667V13.1799C3.5737 12.5092 4.42575 12.0833 5.375 12.0833H17.1667V6.16667C17.1667 2.83333 16.3333 2 13 2H7.16667C3.83333 2 3 2.83333 3 6.16667ZM6 6.16663C6 5.75241 6.33579 5.41663 6.75 5.41663H13.4167C13.8309 5.41663 14.1667 5.75241 14.1667 6.16663C14.1667 6.58084 13.8309 6.91663 13.4167 6.91663H6.75C6.33579 6.91663 6 6.58084 6 6.16663ZM6 9.08331C6 8.6691 6.33579 8.33331 6.75 8.33331H10.9167C11.3309 8.33331 11.6667 8.6691 11.6667 9.08331C11.6667 9.49753 11.3309 9.83331 10.9167 9.83331H6.75C6.33579 9.83331 6 9.49753 6 9.08331Z" fill="#436AF5"/>
</svg>
