<svg width="20" height="20" viewBox="0 0 20 20" fill="none" xmlns="http://www.w3.org/2000/svg">
<path d="M3.6092 6.14305C4.22515 5.35968 5.28117 4.97674 6.82766 4.97674H13.7843C15.3308 4.97674 16.3868 5.35968 17.0028 6.14305C17.6127 6.91882 17.6707 7.93798 17.573 8.88828L17.5403 9.26084C17.5414 9.14521 17.509 9.02823 17.4405 8.92753C17.271 8.67823 16.9447 8.62312 16.7117 8.80442C15.3462 9.86676 13.8065 10.5466 12.2185 10.8533L12.2185 10.7197C12.2185 10.5552 12.2186 10.3884 12.2044 10.2523C12.19 10.1136 12.1515 9.88319 11.9787 9.69835C11.8059 9.51352 11.5906 9.47231 11.4609 9.4569C11.3337 9.44178 11.1778 9.44181 11.024 9.44185H9.58691C9.43307 9.44181 9.27717 9.44178 9.14996 9.4569C9.02029 9.47231 8.8049 9.51352 8.63212 9.69835C8.45934 9.88319 8.42081 10.1136 8.40641 10.2523C8.39227 10.3884 8.39231 10.5552 8.39234 10.7197L8.39235 10.8688C6.87718 10.5958 5.40056 9.96695 4.07419 8.9958C3.8364 8.8217 3.5117 8.88677 3.34894 9.14114C3.18619 9.39552 3.24702 9.74287 3.48481 9.91698C4.99003 11.0191 6.67535 11.7205 8.40513 12.0015C8.40908 12.0542 8.41425 12.1069 8.42102 12.1589C8.45032 12.3841 8.51392 12.6388 8.66756 12.8706C8.99432 13.3638 9.56762 13.5349 10.3054 13.5349C11.0473 13.5349 11.622 13.3616 11.9476 12.8644C12.1002 12.6312 12.1626 12.3757 12.1911 12.1505C12.1979 12.0969 12.203 12.0425 12.2068 11.9881C14.0137 11.6719 15.7719 10.9159 17.3255 9.7072C17.4388 9.61898 17.5093 9.49104 17.5322 9.3542L17.051 14.8446C16.9744 15.6097 16.7948 16.4485 16.1562 17.0725C15.5224 17.692 14.5404 18 13.0886 18H7.52332C6.07158 18 5.08956 17.692 4.45571 17.0725C3.81714 16.4485 3.63764 15.6097 3.56101 14.8446L3.56027 14.8372L3.03897 8.88829C2.94121 7.93799 2.99923 6.91882 3.6092 6.14305Z" fill="#ADADAD"/>
<path d="M11.175 11.5107C11.175 11.7174 11.1735 11.8702 11.157 12.0008C11.1409 12.128 11.115 12.1902 11.0929 12.224C11.0688 12.2607 10.9479 12.4186 10.3054 12.4186C9.6658 12.4186 9.54345 12.2622 9.5189 12.2252C9.49688 12.1919 9.47091 12.1308 9.45456 12.005C9.43755 11.8743 9.43584 11.7202 9.43584 11.5107V10.7442C9.43584 10.6724 9.43585 10.6118 9.4364 10.5587C9.48606 10.5581 9.54266 10.5581 9.60976 10.5581H11.0011C11.0682 10.5581 11.1248 10.5581 11.1744 10.5587C11.175 10.6118 11.175 10.6724 11.175 10.7442L11.175 11.5107Z" fill="#ADADAD"/>
<path d="M8.07493 4.084C8.04538 4.32615 8.04454 4.60134 8.04454 4.93953V5.53488C8.04454 5.84314 7.81095 6.09302 7.52279 6.09302C7.23464 6.09302 7.00104 5.84314 7.00104 5.53488L7.00104 4.92019C7.00103 4.60501 7.00101 4.26075 7.04022 3.93949C7.08084 3.60661 7.1679 3.25321 7.37185 2.93755C7.80089 2.27348 8.58682 2 9.74892 2H10.862C12.0241 2 12.81 2.27348 13.239 2.93755C13.443 3.25321 13.5301 3.60661 13.5707 3.93949C13.6099 4.26075 13.6099 4.60501 13.6099 4.9202L13.6098 5.53488C13.6098 5.84314 13.3763 6.09302 13.0881 6.09302C12.7999 6.09302 12.5664 5.84314 12.5664 5.53488V4.93953C12.5664 4.60134 12.5655 4.32615 12.536 4.084C12.507 3.84688 12.4549 3.68725 12.3806 3.57222C12.2531 3.37489 11.926 3.11628 10.862 3.11628H9.74892C8.68489 3.11628 8.35776 3.37489 8.23027 3.57222C8.15595 3.68725 8.10387 3.84688 8.07493 4.084Z" fill="#ADADAD"/>
</svg>
