<svg width="20" height="20" viewBox="0 0 20 20" fill="none" xmlns="http://www.w3.org/2000/svg">
<path d="M14 3H4.5L3.5 5V17L5 17.5L10 15L15.5 17.5L16.5 17V4.5L14 3Z" fill="#436AF5"/>
<path fill-rule="evenodd" clip-rule="evenodd" d="M3.89772 17.7767C3.32644 17.4419 3 16.7647 3 15.9237V5.4307C3 3.54047 4.53577 2 6.42024 2H13.5798C15.4642 2 17 3.54047 17 5.4307V15.9163C17 16.7572 16.6736 17.4344 16.1023 17.7693C15.531 18.1042 14.7817 18.067 14.0472 17.6577L10.4266 15.6409C10.2114 15.5219 9.78855 15.5219 9.5734 15.6409L5.95283 17.6577C5.5522 17.8809 5.14414 18 4.75835 18C4.44674 18 4.15739 17.9256 3.89772 17.7767ZM4.1203 5.4307V15.9163C4.1203 16.3554 4.24642 16.6828 4.469 16.8093C4.69157 16.9433 5.04028 16.8986 5.41865 16.6828L9.03921 14.666C9.58823 14.3609 10.4192 14.3609 10.9682 14.666L14.5888 16.6828C14.9671 16.8986 15.3158 16.9433 15.5384 16.8093C15.761 16.6753 15.8871 16.3479 15.8871 15.9163V5.4307C15.8871 4.15814 14.8484 3.11628 13.5798 3.11628H6.42766C5.15898 3.11628 4.1203 4.15814 4.1203 5.4307Z" fill="#436AF5"/>
</svg>
