<svg width="16" height="12" viewBox="0 0 16 12" fill="none" xmlns="http://www.w3.org/2000/svg">
<path d="M10.4781 8.57068L8.70481 6.87137L4.73782 10.9228L2.60606 8.78328L0.766401 10.4983L0 9.65165L0.4175 9.26313L2.63483 7.19551L3.01839 7.58104L4.7297 9.29757L8.67973 5.26563L10.4464 6.9597L11.7616 5.598L12.1577 5.18702L12.9669 5.99177L10.4781 8.57068Z" fill="#2434E7"/>
<path d="M16 6C15.9999 9.31346 13.3528 11.9999 10.0879 12H9.52137V10.8502H10.0879C12.7271 10.8501 14.8669 8.67842 14.867 6C14.8669 3.32158 12.7271 1.14994 10.0879 1.14984C7.4486 1.14984 5.30885 3.32152 5.30875 6V6.57492H4.17574V6C4.17584 2.68648 6.82286 0 10.0879 0C13.3528 0.000100559 15.9999 2.68654 16 6Z" fill="#2434E7"/>
</svg>
