<svg width="17" height="16" viewBox="0 0 17 16" fill="none" xmlns="http://www.w3.org/2000/svg">
<path d="M7.74831 0.5C8.74145 0.500031 9.68993 0.70535 10.5545 1.07735L11.1988 1.35434L10.6608 2.68029L10.0165 2.40331C9.3194 2.10333 8.55346 1.93734 7.74831 1.93731C4.4969 1.93731 1.86087 4.65198 1.86065 8C1.86096 11.3479 4.49696 14.0627 7.74831 14.0627C10.9996 14.0626 13.6357 11.3479 13.636 8V7.28135H15.0318V8C15.0315 12.1417 11.7704 15.4999 7.74831 15.5C3.72608 15.5 0.46515 12.1417 0.464844 8C0.465059 3.85818 3.72602 0.5 7.74831 0.5Z" fill="#2434E7"/>
<path d="M16.4648 1.86525L16.3331 6.69744L14.9373 6.65721L15.0027 4.2776L8.83152 10.1466L6.71781 7.97193L4.08704 10.5415L3.12651 9.49906L6.74326 5.96569L8.87332 8.15814L14.044 3.23331L11.575 3.16126L11.614 1.72489L16.4648 1.86525Z" fill="#2434E7"/>
</svg>
