<svg width="16" height="16" viewBox="0 0 16 16" fill="none" xmlns="http://www.w3.org/2000/svg">
<path d="M14.3185 1.22421L10.251 7.90634L5.16805 4.40263C5.14633 4.43599 5.12438 4.47118 5.10095 4.50716C4.84015 4.90767 4.47497 5.46727 4.06014 6.10432C3.23048 7.37842 2.19951 8.96182 1.39429 10.1984L1.04654 10.7327L0 10.0211L0.348573 9.48678C1.1538 8.2502 2.18479 6.66676 3.01442 5.3927C3.42919 4.75575 3.79364 4.19601 4.05441 3.79555C4.18474 3.59541 4.28939 3.43513 4.36126 3.32476C4.39718 3.2696 4.4251 3.22653 4.4439 3.19766C4.45323 3.18333 4.46039 3.1724 4.46517 3.16505C4.46745 3.16155 4.46888 3.15854 4.47008 3.15668L4.47172 3.15418L4.47254 3.15334L4.82275 2.61566L9.87215 6.09595L13.5829 0L14.6499 0.678165L14.3185 1.22421Z" fill="#2434E7"/>
<path d="M15.6686 6.49148L11.6011 13.1736L6.51734 9.66991L2.39665 16L1.35011 15.2884L6.17285 7.88293L11.2223 11.3632L14.933 5.26727L16 5.94544L15.6686 6.49148Z" fill="#2434E7"/>
</svg>
