<?xml version="1.0" encoding="UTF-8"?>
<svg viewBox="0 0 164 144" xmlns="http://www.w3.org/2000/svg">
<rect width="164" height="144" fill="#fff"/>
<rect x="42" y="58" width="39" height="15" rx="3.2481" fill="#AC6CDA"/>
<rect x="46.06" y="62.06" width="7.3082" height="1.624" rx=".81202" fill="#F6EFFB"/>
<rect x="46.06" y="66.121" width="14.616" height="1.624" rx=".81202" fill="#F6EFFB"/>
<rect x="54" y="77" width="42" height="13" rx="3.6735" fill="#AC6CDA" opacity=".56"/>
<rect x="57.572" y="80.592" width="8.2653" height="1.8367" rx=".91837" fill="#fff"/>
<rect x="57.572" y="85.184" width="16.531" height="1.8367" rx=".91837" fill="#fff" opacity=".2"/>
<rect x="57" y="41" width="48" height="13" rx="3.6735" fill="#AC6CDA" opacity=".56"/>
<rect x="60.572" y="44.592" width="8.2653" height="1.8367" rx=".91837" fill="#fff"/>
<rect x="60.572" y="49.184" width="16.531" height="1.8367" rx=".91837" fill="#fff" opacity=".2"/>
<path d="m107.64 77.607c3.637-5.399 3.055-12.77-1.748-17.537-5.466-5.4257-14.328-5.4257-19.794 0-5.466 5.4257-5.466 14.223 0 19.648 4.937 4.9006 12.645 5.375 18.118 1.423 0.085 0.1215 0.182 0.2372 0.291 0.3454l6.334 6.2875c0.984 0.9766 2.58 0.9766 3.563 0 0.984-0.9767 0.984-2.5601 0-3.5367l-6.334-6.2875c-0.133-0.1321-0.277-0.2463-0.429-0.3427z" fill="#AC6CDA" fill-opacity=".32"/>
<path d="m103.92 77.423 1.076-1.5968c2.798-4.1527 2.349-9.8231-1.35-13.495-4.2237-4.1923-11.081-4.1923-15.304 0-4.2103 4.1793-4.2103 10.946 0 15.125 3.8111 3.783 9.7764 4.1558 14.007 1.101l1.571-1.1343zm4.148-0.4952c3.153-5.3247 2.427-12.288-2.177-16.858-5.466-5.4257-14.328-5.4257-19.794 0-5.466 5.4257-5.466 14.223 0 19.648 4.8308 4.7952 12.314 5.3525 17.762 1.6719 0.12-0.0809 0.239-0.1639 0.356-0.2489 0.015 0.0212 0.03 0.0422 0.046 0.063 0.073 0.0986 0.155 0.193 0.245 0.2824l6.334 6.2875c0.984 0.9766 2.58 0.9766 3.563 0 0.984-0.9767 0.984-2.5601 0-3.5367l-6.334-6.2875c-0.097-0.0966-0.2-0.1836-0.308-0.261-0.04-0.0285-0.08-0.0557-0.121-0.0817 0.15-0.2231 0.293-0.4496 0.429-0.6792z" clip-rule="evenodd" fill="#AC6CDA" fill-rule="evenodd"/>
<rect transform="matrix(-.70711 -.70711 -.70711 .70711 44.651 88.272)" width="1.7991" height="3.3644" rx=".89954" fill="#AC6CDA" opacity=".8"/>
<circle cx="115.95" cy="51.946" r=".94584" fill="#AC6CDA" opacity=".7"/>
<ellipse cx="76" cy="104.5" rx="22" ry="1.5" fill="#AC6CDA" opacity=".23"/>
</svg>
