<?xml version="1.0" encoding="UTF-8"?>
<svg viewBox="0 0 165 144" xmlns="http://www.w3.org/2000/svg">
<rect transform="translate(.5)" width="164" height="144" fill="#fff"/>
<path d="m71.371 48.053c0-6.7723 5.49-12.262 12.262-12.262s12.262 5.4901 12.262 12.262v3.5601c0 0.8738-0.7084 1.5822-1.5822 1.5822s-1.5822-0.7084-1.5822-1.5822v-3.5601c0-5.0246-4.0733-9.0979-9.0979-9.0979s-9.0978 4.0733-9.0978 9.0979v3.5601c0 0.8738-0.7084 1.5822-1.5823 1.5822-0.8738 0-1.5822-0.7084-1.5822-1.5822v-3.5601z" clip-rule="evenodd" fill="#AC6CDA" fill-rule="evenodd"/>
<path d="m55.003 54.969c0.3094-3.2482 3.0375-5.7289 6.3004-5.7289h44.66c3.263 0 5.991 2.4807 6.301 5.729l3.541 37.183c0.354 3.7156-2.568 6.9289-6.301 6.9289h-51.742c-3.7325 0-6.6544-3.2133-6.3005-6.9289l3.5412-37.183z" fill="#AC6CDA" opacity=".56"/>
<ellipse cx="84.029" cy="75.348" rx="14.24" ry="14.24" fill="#AC6CDA"/>
<path d="m78.903 83.315c-0.5272 0.3215-1.203-0.0579-1.203-0.6754v-13.622c0-0.4369 0.3541-0.7911 0.7911-0.7911h5.9333v11.722l-5.5214 3.3672z" fill="#F6EFFB"/>
<path d="m89.946 83.315c0.5272 0.3215 1.203-0.0579 1.203-0.6754v-13.622c0-0.4369-0.3541-0.7911-0.7911-0.7911h-5.9334v11.722l5.5215 3.3672z" fill="#F6EFFB"/>
<ellipse cx="83.633" cy="107.78" rx="26.502" ry="1.5822" fill="#AC6CDA" opacity=".23"/>
<rect transform="matrix(-.7071 -.70711 -.7071 .70711 43.251 53.43)" width="3.2399" height="4.8934" rx="1.62" fill="#AC6CDA" opacity=".8"/>
<ellipse cx="107.76" cy="36.582" rx="1.5822" ry="1.5822" fill="#AC6CDA"/>
<rect transform="matrix(.7071 -.70711 .7071 .70711 123.92 83.691)" width="2.5285" height="2.5285" rx=".79112" fill="#AC6CDA" opacity=".6"/>
<ellipse cx="42.23" cy="80.224" rx=".9215" ry=".9215" fill="#AC6CDA" opacity=".7"/>
<path d="m91.94 83.259-15.822-15.822 1.3505-1.3506 15.822 15.822-1.3505 1.3505z" clip-rule="evenodd" fill="#AC6CDA" fill-rule="evenodd"/>
</svg>
