<svg width="11" height="15" viewBox="0 0 11 15" fill="none" xmlns="http://www.w3.org/2000/svg">
<path d="M7.946 7.098C8.478 7.182 8.96101 7.399 9.39501 7.749C9.84301 8.099 10.193 8.533 10.445 9.051C10.711 9.569 10.844 10.122 10.844 10.71C10.844 11.452 10.655 12.124 10.277 12.726C9.899 13.314 9.34601 13.783 8.618 14.133C7.904 14.469 7.057 14.637 6.077 14.637H0.617004V0H5.867C6.861 0 7.708 0.168 8.408 0.504C9.108 0.826 9.63301 1.267 9.983 1.827C10.333 2.387 10.508 3.017 10.508 3.717C10.508 4.585 10.27 5.306 9.794 5.88C9.332 6.44 8.71601 6.846 7.946 7.098ZM2.528 6.321H5.741C6.637 6.321 7.33 6.111 7.82 5.691C8.31 5.271 8.555 4.69 8.555 3.948C8.555 3.206 8.31 2.625 7.82 2.205C7.33 1.785 6.623 1.575 5.699 1.575H2.528V6.321ZM5.909 13.062C6.861 13.062 7.603 12.838 8.135 12.39C8.667 11.942 8.933 11.319 8.933 10.521C8.933 9.709 8.653 9.072 8.093 8.61C7.533 8.134 6.784 7.896 5.846 7.896H2.528V13.062H5.909Z" fill="#33C659"/>
</svg>
