<svg width="16" height="16" viewBox="0 0 16 16" fill="none" xmlns="http://www.w3.org/2000/svg">
<path d="M4.83301 3.3335V1.3335C4.83301 1.06016 5.05967 0.833496 5.33301 0.833496C5.60634 0.833496 5.83301 1.06016 5.83301 1.3335V3.3335C5.83301 3.60683 5.60634 3.8335 5.33301 3.8335C5.05967 3.8335 4.83301 3.60683 4.83301 3.3335Z" fill="#6A7483"/>
<path d="M10.167 3.3335V1.3335C10.167 1.06016 10.3937 0.833496 10.667 0.833496C10.9403 0.833496 11.167 1.06016 11.167 1.3335V3.3335C11.167 3.60683 10.9403 3.8335 10.667 3.8335C10.3937 3.8335 10.167 3.60683 10.167 3.3335Z" fill="#6A7483"/>
<path d="M2.33301 6.56006C2.05967 6.56006 1.83301 6.33339 1.83301 6.06006C1.83301 5.78673 2.05967 5.56006 2.33301 5.56006H13.6663C13.9397 5.56006 14.1663 5.78673 14.1663 6.06006C14.1663 6.33339 13.9397 6.56006 13.6663 6.56006H2.33301Z" fill="#6A7483"/>
<path fill-rule="evenodd" clip-rule="evenodd" d="M5.33333 15.1668C2.9 15.1668 1.5 13.7668 1.5 11.3335V5.66683C1.5 3.2335 2.9 1.8335 5.33333 1.8335H10.6667C13.1 1.8335 14.5 3.2335 14.5 5.66683V11.3335C14.5 13.7668 13.1 15.1668 10.6667 15.1668H5.33333ZM2.5 5.66683V11.3335C2.5 13.2402 3.42667 14.1668 5.33333 14.1668H10.6667C12.5733 14.1668 13.5 13.2402 13.5 11.3335V5.66683C13.5 3.76016 12.5733 2.8335 10.6667 2.8335H5.33333C3.42667 2.8335 2.5 3.76016 2.5 5.66683Z" fill="#6A7483"/>
<path d="M5.41333 9.61351C5.33333 9.58018 5.26001 9.5335 5.19334 9.4735C5.13334 9.40683 5.08666 9.33351 5.05332 9.25351C5.01999 9.17351 5 9.08684 5 9.00017C5 8.82684 5.07334 8.65351 5.19334 8.52684C5.26001 8.46684 5.33333 8.42016 5.41333 8.38683C5.53333 8.33349 5.66667 8.32016 5.80001 8.34683C5.84001 8.3535 5.88 8.36683 5.92 8.38683C5.96 8.40016 6 8.42018 6.04 8.44685C6.07333 8.47351 6.10666 8.50018 6.13999 8.52684C6.16666 8.56018 6.19999 8.59351 6.21999 8.62684C6.24666 8.66684 6.26668 8.70683 6.28001 8.74683C6.30001 8.78683 6.31334 8.82683 6.32001 8.86683C6.32667 8.9135 6.33333 8.9535 6.33333 9.00017C6.33333 9.1735 6.25999 9.34683 6.13999 9.4735C6.01333 9.5935 5.84 9.66684 5.66667 9.66684C5.58 9.66684 5.49333 9.64685 5.41333 9.61351Z" fill="#6A7483"/>
<path d="M7.52635 9.47324C7.49968 9.43991 7.47302 9.40658 7.44635 9.37325C7.41968 9.33325 7.39967 9.29325 7.38633 9.25325C7.36633 9.21325 7.353 9.17326 7.34633 9.13326C7.33967 9.08659 7.33301 9.04658 7.33301 8.99992C7.33301 8.91325 7.353 8.82658 7.38633 8.74658C7.41967 8.66658 7.46635 8.59325 7.52635 8.52659C7.71301 8.33992 8.01301 8.27991 8.25301 8.38657C8.33968 8.41991 8.40634 8.46659 8.473 8.52659C8.593 8.65325 8.66634 8.82658 8.66634 8.99992C8.66634 9.04658 8.65968 9.08659 8.65302 9.13326C8.64635 9.17326 8.63302 9.21325 8.61302 9.25325C8.59968 9.29325 8.57967 9.33325 8.553 9.37325C8.52633 9.40658 8.49967 9.43991 8.473 9.47324C8.40634 9.53324 8.33968 9.57992 8.25301 9.61326C8.17301 9.64659 8.08634 9.66658 7.99967 9.66658C7.82634 9.66658 7.65301 9.59324 7.52635 9.47324Z" fill="#6A7483"/>
<path d="M5.41333 11.9468C5.33333 11.9134 5.26001 11.8667 5.19334 11.8067C5.13334 11.7401 5.08666 11.6734 5.05332 11.5867C5.01999 11.5067 5 11.4201 5 11.3334C5 11.1601 5.07334 10.9868 5.19334 10.8601C5.26001 10.8001 5.33333 10.7534 5.41333 10.7201C5.66 10.6134 5.95333 10.6734 6.13999 10.8601C6.16666 10.8934 6.19999 10.9267 6.21999 10.9601C6.24666 11.0001 6.26668 11.0401 6.28001 11.0801C6.30001 11.1201 6.31334 11.1601 6.32001 11.2067C6.32667 11.2467 6.33333 11.2934 6.33333 11.3334C6.33333 11.5067 6.25999 11.6801 6.13999 11.8067C6.01333 11.9267 5.84 12.0001 5.66667 12.0001C5.58 12.0001 5.49333 11.9801 5.41333 11.9468Z" fill="#6A7483"/>
</svg>
