<svg width="16" height="16" viewBox="0 0 16 16" fill="none" xmlns="http://www.w3.org/2000/svg">
<path d="M3.44186 15C2.09395 15 1 13.906 1 12.5581V1.48837C1 1.2214 1.2214 1 1.48837 1C1.75535 1 1.97674 1.2214 1.97674 1.48837V12.5581C1.97674 13.3656 2.63442 14.0233 3.44186 14.0233H14.5116C14.7786 14.0233 15 14.2447 15 14.5116C15 14.7786 14.7786 15 14.5116 15H3.44186Z" fill="#747E8B" stroke="#6A7483" stroke-width="0.4"/>
<path d="M3.62877 11.5902C3.43901 11.4162 3.41453 11.1133 3.5798 10.907L6.38946 7.45242C6.69553 7.0786 7.13626 6.85303 7.60147 6.83369C8.06669 6.8208 8.52579 7.00126 8.85633 7.3493L9.43786 7.96159C9.59089 8.12272 9.79289 8.20006 10.0071 8.20006C10.2214 8.19361 10.4173 8.09049 10.558 7.91647L13.3677 4.4619C13.533 4.2621 13.8207 4.23631 14.0166 4.41033C14.2063 4.58434 14.2308 4.88726 14.0655 5.09351L11.2559 8.5481C10.9498 8.92191 10.5091 9.14749 10.0439 9.16682C9.57864 9.17971 9.11955 8.99926 8.789 8.65122L8.2136 8.03893C8.06057 7.8778 7.85857 7.79402 7.64432 7.80046C7.43008 7.80691 7.2342 7.91003 7.09341 8.08405L4.28375 11.5386C4.18581 11.6482 4.05726 11.7062 3.92871 11.7062C3.82465 11.7062 3.71447 11.6675 3.62877 11.5902Z" fill="#747E8B" stroke="#6A7483" stroke-width="0.4"/>
</svg>
