<svg width="22" height="22" viewBox="0 0 22 22" fill="none" xmlns="http://www.w3.org/2000/svg">
<path opacity="0.01" fill-rule="evenodd" clip-rule="evenodd" d="M21 1V21H1V1H21Z" stroke="#2A394E" stroke-width="0.25"/>
<path fill-rule="evenodd" clip-rule="evenodd" d="M1.83325 8.50016C1.83325 4.82537 4.82512 1.8335 8.49992 1.8335C12.1747 1.8335 15.1666 4.82537 15.1666 8.50016C15.1666 12.175 12.1747 15.1668 8.49992 15.1668C4.82512 15.1668 1.83325 12.175 1.83325 8.50016ZM2.80886 8.50016C2.80886 11.6351 5.35846 14.1912 8.49992 14.1912C11.6414 14.1912 14.191 11.6351 14.191 8.50016C14.191 5.3652 11.6414 2.80911 8.49992 2.80911C5.35846 2.80911 2.80886 5.3652 2.80886 8.50016Z" fill="#2A394E"/>
<path d="M1.98325 8.50016C1.98325 4.90821 4.90796 1.9835 8.49992 1.9835V1.6835C4.74228 1.6835 1.68325 4.74252 1.68325 8.50016H1.98325ZM8.49992 1.9835C12.0919 1.9835 15.0166 4.90821 15.0166 8.50016H15.3166C15.3166 4.74252 12.2576 1.6835 8.49992 1.6835V1.9835ZM15.0166 8.50016C15.0166 12.0921 12.0919 15.0168 8.49992 15.0168V15.3168C12.2576 15.3168 15.3166 12.2578 15.3166 8.50016H15.0166ZM8.49992 15.0168C4.90796 15.0168 1.98325 12.0921 1.98325 8.50016H1.68325C1.68325 12.2578 4.74228 15.3168 8.49992 15.3168V15.0168ZM2.65886 8.50016C2.65886 11.7179 5.2755 14.3412 8.49992 14.3412V14.0412C5.44141 14.0412 2.95886 11.5524 2.95886 8.50016H2.65886ZM8.49992 14.3412C11.7243 14.3412 14.341 11.7179 14.341 8.50016H14.041C14.041 11.5524 11.5584 14.0412 8.49992 14.0412V14.3412ZM14.341 8.50016C14.341 5.28247 11.7243 2.65911 8.49992 2.65911V2.95911C11.5584 2.95911 14.041 5.44793 14.041 8.50016H14.341ZM8.49992 2.65911C5.2755 2.65911 2.65886 5.28247 2.65886 8.50016H2.95886C2.95886 5.44793 5.44141 2.95911 8.49992 2.95911V2.65911Z" fill="#2A394E"/>
<path d="M15.3135 16.02L13.9802 14.6866C13.7869 14.4933 13.7869 14.1733 13.9802 13.98C14.1735 13.7866 14.4935 13.7866 14.6869 13.98L16.0202 15.3133C16.2135 15.5066 16.2135 15.8266 16.0202 16.02C15.9202 16.12 15.7935 16.1666 15.6669 16.1666C15.5402 16.1666 15.4135 16.12 15.3135 16.02Z" fill="#2A394E" stroke="#2A394E" stroke-width="0.3"/>
</svg>
