<svg width="13" height="12" viewBox="0 0 13 12" fill="none" xmlns="http://www.w3.org/2000/svg">
<path d="M2.96973 4.43457C2.96973 2.84957 4.25973 1.55957 5.84473 1.55957C7.42973 1.55957 8.71973 2.84957 8.71973 4.43457L8.71973 9.93457C8.71973 10.1396 8.54973 10.3096 8.34473 10.3096C8.13973 10.3096 7.96973 10.1396 7.96973 9.93457L7.96973 4.43457C7.96973 3.26457 7.01473 2.30957 5.84473 2.30957C4.67473 2.30957 3.71973 3.26457 3.71973 4.43457L3.71973 8.43457C3.71973 8.63957 3.54973 8.80957 3.34473 8.80957C3.13973 8.80957 2.96973 8.64457 2.96973 8.43457L2.96973 4.43457Z" fill="#2A394E"/>
<path d="M6.83055 8.51988C6.97555 8.37488 7.21555 8.37488 7.36055 8.51988L8.37555 9.53488L9.39055 8.51988C9.53555 8.37488 9.77555 8.37488 9.92055 8.51988C10.0655 8.66488 10.0655 8.90488 9.92055 9.04988L8.64055 10.3299C8.49555 10.4749 8.25555 10.4749 8.11055 10.3299L6.83055 9.04988C6.75555 8.97488 6.72055 8.87988 6.72055 8.78488C6.72055 8.68988 6.75555 8.59488 6.83055 8.51988Z" fill="#2A394E"/>
</svg>
