<svg width="12" height="13" viewBox="0 0 12 13" fill="none" xmlns="http://www.w3.org/2000/svg">
<path d="M2.46997 8.06543C2.46997 9.65043 3.75997 10.9404 5.34497 10.9404C6.92997 10.9404 8.21997 9.65043 8.21997 8.06543L8.21997 2.56543C8.21997 2.36043 8.04997 2.19043 7.84497 2.19043C7.63997 2.19043 7.46997 2.36043 7.46997 2.56543L7.46997 8.06543C7.46997 9.23543 6.51497 10.1904 5.34497 10.1904C4.17497 10.1904 3.21997 9.23543 3.21997 8.06543L3.21997 4.06543C3.21997 3.86043 3.04997 3.69043 2.84497 3.69043C2.63997 3.69043 2.46997 3.85543 2.46997 4.06543L2.46997 8.06543Z" fill="#2A394E"/>
<path d="M6.33006 3.98012C6.47506 4.12512 6.71506 4.12512 6.86006 3.98012L7.87506 2.96512L8.89006 3.98012C9.03506 4.12512 9.27506 4.12512 9.42006 3.98012C9.56506 3.83512 9.56506 3.59512 9.42006 3.45012L8.14006 2.17012C7.99506 2.02512 7.75506 2.02512 7.61006 2.17012L6.33006 3.45012C6.25506 3.52512 6.22006 3.62012 6.22006 3.71512C6.22006 3.81012 6.25506 3.90512 6.33006 3.98012Z" fill="#2A394E"/>
</svg>
