<svg width="12" height="13" viewBox="0 0 12 13" fill="none" xmlns="http://www.w3.org/2000/svg">
<path d="M8.76957 7.45003L5.99957 10.22L3.22957 7.45003C3.08457 7.30503 2.84457 7.30503 2.69957 7.45003C2.55457 7.59503 2.55457 7.83503 2.69957 7.98003L5.73457 11.015C5.87957 11.16 6.11957 11.16 6.26457 11.015L9.29957 7.98003C9.44457 7.83503 9.44457 7.59503 9.29957 7.45003C9.22957 7.37503 9.12957 7.34003 9.03457 7.34003C8.93957 7.34003 8.84457 7.37503 8.76957 7.45003Z" fill="#B52A21"/>
<path d="M5.625 2.25004V10.665C5.625 10.87 5.795 11.04 6 11.04C6.205 11.04 6.375 10.87 6.375 10.665V2.25004C6.375 2.04504 6.205 1.87504 6 1.87504C5.795 1.87504 5.625 2.04504 5.625 2.25004Z" fill="#B52A21"/>
</svg>
