<svg width="16" height="16" viewBox="0 0 16 16" fill="none" xmlns="http://www.w3.org/2000/svg">
<path fill-rule="evenodd" clip-rule="evenodd" d="M2.85586 14.5312C2.37461 14.25 2.09961 13.6812 2.09961 12.975V4.1625C2.09961 2.575 3.39336 1.28125 4.98086 1.28125H11.0121C12.5996 1.28125 13.8934 2.575 13.8934 4.1625V12.9687C13.8934 13.675 13.6184 14.2437 13.1371 14.525C12.6559 14.8062 12.0246 14.775 11.4059 14.4312L8.35586 12.7375C8.17461 12.6375 7.81836 12.6375 7.63711 12.7375L4.58711 14.4312C4.24961 14.6187 3.90586 14.7187 3.58086 14.7187C3.31836 14.7187 3.07461 14.6562 2.85586 14.5312ZM3.04336 4.1625V12.9687C3.04336 13.3375 3.14961 13.6125 3.33711 13.7187C3.52461 13.8312 3.81836 13.7937 4.13711 13.6125L7.18711 11.9187C7.64961 11.6625 8.34961 11.6625 8.81211 11.9187L11.8621 13.6125C12.1809 13.7937 12.4746 13.8312 12.6621 13.7187C12.8496 13.6062 12.9559 13.3312 12.9559 12.9687V4.1625C12.9559 3.09375 12.0809 2.21875 11.0121 2.21875H4.98711C3.91836 2.21875 3.04336 3.09375 3.04336 4.1625Z" fill="#747E8B"/>
<path d="M2.85586 14.5312L2.75494 14.7039L2.75663 14.7049L2.85586 14.5312ZM11.4059 14.4312L11.503 14.2564L11.503 14.2564L11.4059 14.4312ZM8.35586 12.7375L8.45296 12.5626L8.45248 12.5624L8.35586 12.7375ZM7.63711 12.7375L7.54049 12.5624L7.54001 12.5627L7.63711 12.7375ZM4.58711 14.4312L4.49001 14.2564L4.48998 14.2564L4.58711 14.4312ZM3.33711 13.7187L3.44004 13.5472L3.43571 13.5447L3.33711 13.7187ZM4.13711 13.6125L4.04001 13.4376L4.03825 13.4386L4.13711 13.6125ZM7.18711 11.9187L7.09018 11.7438L7.09001 11.7439L7.18711 11.9187ZM8.81211 11.9187L8.90921 11.7439L8.90904 11.7438L8.81211 11.9187ZM11.8621 13.6125L11.961 13.4386L11.9592 13.4376L11.8621 13.6125ZM2.95677 14.3586C2.55412 14.1233 2.29961 13.6327 2.29961 12.975H1.89961C1.89961 13.7298 2.1951 14.3767 2.75495 14.7039L2.95677 14.3586ZM2.29961 12.975V4.1625H1.89961V12.975H2.29961ZM2.29961 4.1625C2.29961 2.68546 3.50382 1.48125 4.98086 1.48125V1.08125C3.2829 1.08125 1.89961 2.46454 1.89961 4.1625H2.29961ZM4.98086 1.48125H11.0121V1.08125H4.98086V1.48125ZM11.0121 1.48125C12.4892 1.48125 13.6934 2.68546 13.6934 4.1625H14.0934C14.0934 2.46454 12.7101 1.08125 11.0121 1.08125V1.48125ZM13.6934 4.1625V12.9687H14.0934V4.1625H13.6934ZM13.6934 12.9687C13.6934 13.6264 13.4388 14.117 13.0362 14.3523L13.238 14.6977C13.7979 14.3705 14.0934 13.7236 14.0934 12.9687H13.6934ZM13.0362 14.3523C12.6319 14.5886 12.078 14.5759 11.503 14.2564L11.3087 14.6061C11.9712 14.9741 12.6798 15.0239 13.238 14.6977L13.0362 14.3523ZM11.503 14.2564L8.45296 12.5627L8.25876 12.9123L11.3088 14.6061L11.503 14.2564ZM8.45248 12.5624C8.32095 12.4898 8.14881 12.4625 7.99648 12.4625C7.84416 12.4625 7.67202 12.4898 7.54049 12.5624L7.73373 12.9126C7.78345 12.8852 7.88006 12.8625 7.99648 12.8625C8.11291 12.8625 8.20952 12.8852 8.25924 12.9126L8.45248 12.5624ZM7.54001 12.5627L4.49001 14.2564L4.68421 14.6061L7.73421 12.9123L7.54001 12.5627ZM4.48998 14.2564C4.17563 14.4311 3.86508 14.5187 3.58086 14.5187V14.9187C3.94664 14.9187 4.32359 14.8064 4.68424 14.6061L4.48998 14.2564ZM3.58086 14.5187C3.3512 14.5187 3.14196 14.4644 2.95509 14.3576L2.75663 14.7049C3.00726 14.8481 3.28552 14.9187 3.58086 14.9187V14.5187ZM2.84336 4.1625V12.9687H3.24336V4.1625H2.84336ZM2.84336 12.9687C2.84336 13.3553 2.9523 13.7306 3.23851 13.8928L3.43571 13.5447C3.34692 13.4944 3.24336 13.3197 3.24336 12.9687H2.84336ZM3.23421 13.8902C3.5166 14.0597 3.89721 13.979 4.23597 13.7864L4.03825 13.4386C3.73951 13.6085 3.53262 13.6028 3.44001 13.5472L3.23421 13.8902ZM4.23421 13.7873L7.28421 12.0936L7.09001 11.7439L4.04001 13.4376L4.23421 13.7873ZM7.28404 12.0937C7.47995 11.9851 7.73576 11.9266 7.99961 11.9266C8.26346 11.9266 8.51927 11.9851 8.71518 12.0937L8.90904 11.7438C8.64245 11.5961 8.31701 11.5266 7.99961 11.5266C7.68221 11.5266 7.35677 11.5961 7.09018 11.7438L7.28404 12.0937ZM8.71501 12.0936L11.765 13.7873L11.9592 13.4376L8.90921 11.7439L8.71501 12.0936ZM11.7632 13.7864C12.102 13.979 12.4826 14.0597 12.765 13.8902L12.5592 13.5472C12.4666 13.6028 12.2597 13.6085 11.961 13.4386L11.7632 13.7864ZM12.765 13.8902C13.0455 13.722 13.1559 13.3523 13.1559 12.9687H12.7559C12.7559 13.3102 12.6537 13.4905 12.5592 13.5472L12.765 13.8902ZM13.1559 12.9687V4.1625H12.7559V12.9687H13.1559ZM13.1559 4.1625C13.1559 2.98329 12.1913 2.01875 11.0121 2.01875V2.41875C11.9704 2.41875 12.7559 3.20421 12.7559 4.1625H13.1559ZM11.0121 2.01875H4.98711V2.41875H11.0121V2.01875ZM4.98711 2.01875C3.8079 2.01875 2.84336 2.98329 2.84336 4.1625H3.24336C3.24336 3.20421 4.02882 2.41875 4.98711 2.41875V2.01875Z" fill="#747E8B"/>
</svg>
