<svg width="194" height="135" viewBox="0 0 194 135" fill="none" xmlns="http://www.w3.org/2000/svg">
<path d="M28 66.9489H169.677V94.9489H28V66.9489Z" fill="#C7D2FC"/>
<rect x="50.2725" y="75.9489" width="7.98179" height="3.34392" rx="1.67196" fill="white"/>
<rect width="7.98179" height="3.34392" rx="1.67196" transform="matrix(-1 0 0 1 149.047 75.9489)" fill="white"/>
<rect x="77.2109" y="75.9489" width="7.98179" height="3.34392" rx="1.67196" fill="white"/>
<rect width="7.98179" height="3.34392" rx="1.67196" transform="matrix(-1 0 0 1 122.109 75.9489)" fill="white"/>
<rect x="42.2906" y="82.6367" width="15.9636" height="3.34392" rx="1.67196" fill="white"/>
<rect width="15.9636" height="3.34392" rx="1.67196" transform="matrix(-1 0 0 1 157.029 82.6367)" fill="white"/>
<rect x="69.2291" y="82.6367" width="15.9636" height="3.34392" rx="1.67196" fill="white"/>
<rect width="15.9636" height="3.34392" rx="1.67196" transform="matrix(-1 0 0 1 130.09 82.6367)" fill="white"/>
<path d="M28 95H170V113C170 118.523 165.523 123 160 123H38C32.4772 123 28 118.523 28 113V95Z" fill="#ECF0FE"/>
<rect x="50" y="103.949" width="8" height="3.34392" rx="1.67196" fill="white"/>
<rect width="8" height="3.34392" rx="1.67196" transform="matrix(-1 0 0 1 149 103.949)" fill="white"/>
<rect x="77" y="103.949" width="8" height="3.34392" rx="1.67196" fill="white"/>
<rect width="8" height="3.34392" rx="1.67196" transform="matrix(-1 0 0 1 122 103.949)" fill="white"/>
<rect x="42" y="110.637" width="16" height="3.34392" rx="1.67196" fill="white"/>
<rect width="16" height="3.34392" rx="1.67196" transform="matrix(-1 0 0 1 157 110.637)" fill="white"/>
<rect x="69" y="110.637" width="16" height="3.34392" rx="1.67196" fill="white"/>
<rect width="16" height="3.34392" rx="1.67196" transform="matrix(-1 0 0 1 130 110.637)" fill="white"/>
<path d="M28 38C28 33.5817 31.5817 30 36 30H162C166.418 30 170 33.5817 170 38H28Z" fill="#ECF0FE"/>
<path d="M28 39H170V67H28V39Z" fill="#ECF0FE"/>
<rect x="50" y="47.9489" width="8" height="3.34392" rx="1.67196" fill="white"/>
<rect width="8" height="3.34392" rx="1.67196" transform="matrix(-1 0 0 1 149 47.9489)" fill="white"/>
<rect x="77" y="47.9489" width="8" height="3.34392" rx="1.67196" fill="white"/>
<rect width="8" height="3.34392" rx="1.67196" transform="matrix(-1 0 0 1 122 47.9489)" fill="white"/>
<rect x="42" y="54.6367" width="16" height="3.34392" rx="1.67196" fill="white"/>
<rect width="16" height="3.34392" rx="1.67196" transform="matrix(-1 0 0 1 157 54.6367)" fill="white"/>
<rect x="69" y="54.6367" width="16" height="3.34392" rx="1.67196" fill="white"/>
<rect width="16" height="3.34392" rx="1.67196" transform="matrix(-1 0 0 1 130 54.6367)" fill="white"/>
<rect x="0.707267" width="3.21333" height="18.3813" transform="matrix(0.707267 -0.706946 0.707267 0.706946 164.018 114.859)" fill="#FDFCFF" stroke="#C7D2FC"/>
<mask id="path-30-inside-1_6914_108398" fill="white">
<path fill-rule="evenodd" clip-rule="evenodd" d="M166.791 113.763C177.982 102.577 177.982 84.4407 166.791 73.2544C155.6 62.0682 137.455 62.0682 126.264 73.2544C115.072 84.4407 115.072 102.577 126.264 113.763C137.455 124.95 155.6 124.95 166.791 113.763ZM162.227 109.201C170.897 100.535 170.897 86.4832 162.227 77.8165C153.556 69.1498 139.498 69.1498 130.828 77.8165C122.157 86.4832 122.157 100.535 130.828 109.201C139.498 117.868 153.556 117.868 162.227 109.201Z"/>
</mask>
<path fill-rule="evenodd" clip-rule="evenodd" d="M166.791 113.763C177.982 102.577 177.982 84.4407 166.791 73.2544C155.6 62.0682 137.455 62.0682 126.264 73.2544C115.072 84.4407 115.072 102.577 126.264 113.763C137.455 124.95 155.6 124.95 166.791 113.763ZM162.227 109.201C170.897 100.535 170.897 86.4832 162.227 77.8165C153.556 69.1498 139.498 69.1498 130.828 77.8165C122.157 86.4832 122.157 100.535 130.828 109.201C139.498 117.868 153.556 117.868 162.227 109.201Z" fill="#FDFCFF"/>
<path d="M166.084 73.9614C176.884 84.7572 176.884 102.261 166.084 113.056L167.498 114.47C179.08 102.894 179.08 84.1242 167.498 72.5475L166.084 73.9614ZM126.971 73.9614C137.772 63.1656 155.283 63.1656 166.084 73.9614L167.498 72.5475C155.916 60.9708 137.138 60.9708 125.556 72.5475L126.971 73.9614ZM126.971 113.056C116.17 102.261 116.17 84.7572 126.971 73.9614L125.556 72.5475C113.974 84.1242 113.974 102.894 125.556 114.47L126.971 113.056ZM166.084 113.056C155.283 123.852 137.772 123.852 126.971 113.056L125.556 114.47C137.138 126.047 155.916 126.047 167.498 114.47L166.084 113.056ZM161.52 78.5235C169.8 86.7997 169.8 100.218 161.52 108.494L162.934 109.908C171.995 100.851 171.995 86.1667 162.934 77.1096L161.52 78.5235ZM131.535 78.5235C139.815 70.2472 153.24 70.2472 161.52 78.5235L162.934 77.1096C153.873 68.0525 139.182 68.0525 130.12 77.1096L131.535 78.5235ZM131.535 108.494C123.255 100.218 123.255 86.7997 131.535 78.5235L130.12 77.1096C121.059 86.1667 121.059 100.851 130.12 109.908L131.535 108.494ZM161.52 108.494C153.24 116.771 139.815 116.771 131.535 108.494L130.12 109.908C139.182 118.965 153.873 118.965 162.934 109.908L161.52 108.494Z" fill="#C7D2FC" mask="url(#path-30-inside-1_6914_108398)"/>
<circle cx="22.1975" cy="22.1975" r="22.1975" transform="matrix(0.707267 -0.706946 0.707267 0.706946 115.128 93.5089)" fill="#FDFCFF" fill-opacity="0.71"/>
<path d="M169.593 121.815L174.25 117.16L182.231 125.138C183.517 126.423 183.517 128.507 182.231 129.792C180.945 131.078 178.86 131.078 177.574 129.792L169.593 121.815Z" fill="#FDFCFF" stroke="#C7D2FC"/>
<path opacity="0.2" d="M184.758 43.5343C185.863 43.5343 186.958 43.829 187.979 44.4015C189.001 44.974 189.929 45.8131 190.711 46.871C191.493 47.9288 192.113 49.1846 192.536 50.5668C192.959 51.9489 193.177 53.4303 193.177 54.9263L184.758 54.9263L184.758 43.5343Z" fill="#DDD6FF"/>
<path opacity="0.9" d="M8.59599 93.7412C7.49036 93.7412 6.39556 93.4465 5.37409 92.874C4.35262 92.3015 3.42449 91.4624 2.64269 90.4046C1.8609 89.3467 1.24074 88.0909 0.817634 86.7087C0.394528 85.3266 0.176758 83.8453 0.176758 82.3492L8.59599 82.3492L8.59599 93.7412Z" fill="#F4F1FF"/>
<path d="M90.101 4.34133e-05C91.2067 4.33479e-05 92.3015 0.294705 93.3229 0.867203C94.3444 1.4397 95.2725 2.27882 96.0543 3.33666C96.8361 4.3945 97.4563 5.65034 97.8794 7.03247C98.3025 8.4146 98.5203 9.89596 98.5203 11.392L90.101 11.392L90.101 4.34133e-05Z" fill="url(#paint0_linear_6914_108398)"/>
<line x1="99.5" y1="43" x2="99.5" y2="120" stroke="white"/>
<defs>
<linearGradient id="paint0_linear_6914_108398" x1="93.2043" y1="-0.053362" x2="93.2043" y2="10.4297" gradientUnits="userSpaceOnUse">
<stop stop-color="#EAEFFF"/>
<stop offset="1" stop-color="#EDF2FF"/>
</linearGradient>
</defs>
</svg>
