<svg width="24" height="24" viewBox="0 0 24 24" fill="none" xmlns="http://www.w3.org/2000/svg">
<path d="M2.96988 12.5309L9.03988 18.6009C9.32988 18.8909 9.80988 18.8909 10.0999 18.6009C10.3899 18.3109 10.3899 17.8309 10.0999 17.5409L4.55988 12.0009L10.0999 6.46086C10.3899 6.17086 10.3899 5.69086 10.0999 5.40086C9.80988 5.11086 9.32988 5.11086 9.03988 5.40086L2.96988 11.4709C2.81988 11.6209 2.74988 11.8109 2.74988 12.0009C2.74988 12.1909 2.81988 12.3809 2.96988 12.5309Z" fill="#6A7483"/>
<path d="M3.67 12.75L20.5 12.75C20.91 12.75 21.25 12.41 21.25 12C21.25 11.59 20.91 11.25 20.5 11.25L3.67 11.25C3.26 11.25 2.92 11.59 2.92 12C2.92 12.41 3.26 12.75 3.67 12.75Z" fill="#6A7483"/>
</svg>
