<svg width="20" height="20" viewBox="0 0 20 20" fill="none" xmlns="http://www.w3.org/2000/svg">
<path fill-rule="evenodd" clip-rule="evenodd" d="M1.04187 9.99984C1.04187 5.05817 5.05854 1.0415 10.0002 1.0415C14.9419 1.0415 18.9585 5.05817 18.9585 9.99984C18.9585 14.9415 14.9419 18.9582 10.0002 18.9582C5.05854 18.9582 1.04187 14.9415 1.04187 9.99984ZM2.29187 9.99984C2.29187 14.2498 5.7502 17.7082 10.0002 17.7082C14.2502 17.7082 17.7085 14.2498 17.7085 9.99984C17.7085 5.74984 14.2502 2.2915 10.0002 2.2915C5.7502 2.2915 2.29187 5.74984 2.29187 9.99984Z" fill="#436AF5"/>
<path d="M7.19968 12.8003C6.95802 12.5586 6.95802 12.1586 7.19968 11.917L11.9163 7.20029C12.158 6.95863 12.558 6.95863 12.7997 7.20029C13.0413 7.44196 13.0413 7.84196 12.7997 8.08363L8.08302 12.8003C7.96635 12.9253 7.79968 12.9836 7.64135 12.9836C7.48302 12.9836 7.32468 12.9253 7.19968 12.8003Z" fill="#436AF5"/>
<path d="M11.9163 12.8003L7.19968 8.08363C6.95802 7.84196 6.95802 7.44196 7.19968 7.20029C7.44135 6.95863 7.84135 6.95863 8.08302 7.20029L12.7997 11.917C13.0413 12.1586 13.0413 12.5586 12.7997 12.8003C12.6747 12.9253 12.5163 12.9836 12.358 12.9836C12.1997 12.9836 12.0413 12.9253 11.9163 12.8003Z" fill="#436AF5"/>
</svg>
