<svg width="18" height="18" viewBox="0 0 18 18" fill="none" xmlns="http://www.w3.org/2000/svg">
<g id="vuesax/outline/setting-5">
<g id="vuesax/outline/setting-5_2">
<g id="setting-5">
<path id="Vector" d="M13.6875 16.5V8.25C13.6875 7.9425 13.9425 7.6875 14.25 7.6875C14.5575 7.6875 14.8125 7.9425 14.8125 8.25V16.5C14.8125 16.8075 14.5575 17.0625 14.25 17.0625C13.9425 17.0625 13.6875 16.8075 13.6875 16.5Z" fill="#6A7483"/>
<path id="Vector_2" d="M13.6875 5.25V1.5C13.6875 1.1925 13.9425 0.9375 14.25 0.9375C14.5575 0.9375 14.8125 1.1925 14.8125 1.5V5.25C14.8125 5.5575 14.5575 5.8125 14.25 5.8125C13.9425 5.8125 13.6875 5.5575 13.6875 5.25Z" fill="#6A7483"/>
<path id="Vector_3" d="M8.4375 16.5V12.75C8.4375 12.4425 8.6925 12.1875 9 12.1875C9.3075 12.1875 9.5625 12.4425 9.5625 12.75V16.5C9.5625 16.8075 9.3075 17.0625 9 17.0625C8.6925 17.0625 8.4375 16.8075 8.4375 16.5Z" fill="#6A7483"/>
<path id="Vector_4" d="M8.4375 9.75V1.5C8.4375 1.1925 8.6925 0.9375 9 0.9375C9.3075 0.9375 9.5625 1.1925 9.5625 1.5V9.75C9.5625 10.0575 9.3075 10.3125 9 10.3125C8.6925 10.3125 8.4375 10.0575 8.4375 9.75Z" fill="#6A7483"/>
<path id="Vector_5" d="M3.1875 16.5V8.25C3.1875 7.9425 3.4425 7.6875 3.75 7.6875C4.0575 7.6875 4.3125 7.9425 4.3125 8.25V16.5C4.3125 16.8075 4.0575 17.0625 3.75 17.0625C3.4425 17.0625 3.1875 16.8075 3.1875 16.5Z" fill="#6A7483"/>
<path id="Vector_6" d="M3.1875 5.25V1.5C3.1875 1.1925 3.4425 0.9375 3.75 0.9375C4.0575 0.9375 4.3125 1.1925 4.3125 1.5V5.25C4.3125 5.5575 4.0575 5.8125 3.75 5.8125C3.4425 5.8125 3.1875 5.5575 3.1875 5.25Z" fill="#6A7483"/>
<path id="Vector_7" d="M2.25 8.8125C1.9425 8.8125 1.6875 8.5575 1.6875 8.25C1.6875 7.9425 1.9425 7.6875 2.25 7.6875H5.25C5.5575 7.6875 5.8125 7.9425 5.8125 8.25C5.8125 8.5575 5.5575 8.8125 5.25 8.8125H2.25Z" fill="#6A7483"/>
<path id="Vector_8" d="M12.75 8.8125C12.4425 8.8125 12.1875 8.5575 12.1875 8.25C12.1875 7.9425 12.4425 7.6875 12.75 7.6875H15.75C16.0575 7.6875 16.3125 7.9425 16.3125 8.25C16.3125 8.5575 16.0575 8.8125 15.75 8.8125H12.75Z" fill="#6A7483"/>
<path id="Vector_9" d="M7.5 10.3125C7.1925 10.3125 6.9375 10.0575 6.9375 9.75C6.9375 9.4425 7.1925 9.1875 7.5 9.1875H10.5C10.8075 9.1875 11.0625 9.4425 11.0625 9.75C11.0625 10.0575 10.8075 10.3125 10.5 10.3125H7.5Z" fill="#6A7483"/>
</g>
</g>
</g>
</svg>
