<svg width="12" height="13" viewBox="0 0 12 13" fill="none" xmlns="http://www.w3.org/2000/svg">
<path d="M8.76957 5.54997L5.99957 2.77997L3.22957 5.54997C3.08457 5.69497 2.84457 5.69497 2.69957 5.54997C2.55457 5.40497 2.55457 5.16497 2.69957 5.01997L5.73457 1.98497C5.87957 1.83997 6.11957 1.83997 6.26457 1.98497L9.29957 5.01997C9.44457 5.16497 9.44457 5.40497 9.29957 5.54997C9.22957 5.62497 9.12957 5.65997 9.03457 5.65997C8.93957 5.65997 8.84457 5.62497 8.76957 5.54997Z" fill="#218038"/>
<path d="M5.625 10.75V2.33496C5.625 2.12996 5.795 1.95996 6 1.95996C6.205 1.95996 6.375 2.12996 6.375 2.33496V10.75C6.375 10.955 6.205 11.125 6 11.125C5.795 11.125 5.625 10.955 5.625 10.75Z" fill="#218038"/>
</svg>
