<svg width="11" height="15" viewBox="0 0 11 15" fill="none" xmlns="http://www.w3.org/2000/svg">
<path d="M5.25799 14.973C4.29199 14.973 3.42399 14.805 2.65399 14.469C1.89799 14.119 1.30299 13.643 0.868991 13.041C0.434991 12.425 0.210991 11.718 0.196991 10.92H2.23399C2.30399 11.606 2.58399 12.187 3.07399 12.663C3.57799 13.125 4.30599 13.356 5.25799 13.356C6.16799 13.356 6.88199 13.132 7.39999 12.684C7.93199 12.222 8.19799 11.634 8.19799 10.92C8.19799 10.36 8.04399 9.905 7.73599 9.555C7.42799 9.205 7.04299 8.939 6.58099 8.757C6.11899 8.575 5.49599 8.379 4.71199 8.169C3.74599 7.917 2.96899 7.665 2.38099 7.413C1.80699 7.161 1.30999 6.769 0.889991 6.237C0.483991 5.691 0.280991 4.963 0.280991 4.053C0.280991 3.255 0.483991 2.548 0.889991 1.932C1.29599 1.316 1.86299 0.84 2.59099 0.504C3.33299 0.168 4.17999 0 5.13199 0C6.50399 0 7.62399 0.343 8.49199 1.029C9.37399 1.715 9.87099 2.625 9.98299 3.759H7.88299C7.81299 3.199 7.51899 2.709 7.00099 2.289C6.48299 1.855 5.79699 1.638 4.94299 1.638C4.14499 1.638 3.49399 1.848 2.98999 2.268C2.48599 2.674 2.23399 3.248 2.23399 3.99C2.23399 4.522 2.38099 4.956 2.67499 5.292C2.98299 5.628 3.35399 5.887 3.78799 6.069C4.23599 6.237 4.85899 6.433 5.65699 6.657C6.62299 6.923 7.39999 7.189 7.98799 7.455C8.57599 7.707 9.07999 8.106 9.49999 8.652C9.91999 9.184 10.13 9.912 10.13 10.836C10.13 11.55 9.94099 12.222 9.56299 12.852C9.18499 13.482 8.62499 13.993 7.88299 14.385C7.14099 14.777 6.26599 14.973 5.25799 14.973Z" fill="#FB2A23"/>
</svg>
