<svg width="20" height="5" viewBox="0 0 20 5" fill="none" xmlns="http://www.w3.org/2000/svg">
<path d="M19.02 0L20 1.79015L17.9399 3.58363L19.02 0Z" fill="#2B8B4B"/>
<path d="M18.334 0L19.314 1.79015L17.2539 3.58363L18.334 0Z" fill="#D9782D"/>
<path d="M4.78897 3.46362C4.88565 3.39361 4.94899 3.31028 4.97899 3.21026L5.30569 2.13684C5.33569 2.04017 5.32235 1.95683 5.26568 1.89015C5.20901 1.82349 5.12901 1.79015 5.01899 1.79015C5.12567 1.79015 5.22901 1.75682 5.32568 1.68681C5.42236 1.62013 5.4857 1.53679 5.51237 1.43678L5.83906 0.363364C5.86906 0.260021 5.85906 0.173347 5.80572 0.103343C5.75239 0.0333363 5.66905 0 5.55903 0H1.31202L0.231927 3.55697H4.48228C4.58896 3.56696 4.6923 3.53362 4.78897 3.46362ZM1.87206 0.703392H4.6723C4.74897 0.72006 4.81231 0.766731 4.84898 0.830069C4.86231 0.873406 4.86898 0.920076 4.86898 0.966747C4.86898 0.993414 4.86564 1.01675 4.86231 1.04009L4.85565 1.06342L4.82898 1.15343C4.75564 1.31011 4.59895 1.42345 4.40895 1.44345H1.64872L1.87206 0.703392ZM4.39227 2.60022C4.3156 2.7469 4.16559 2.85023 3.98224 2.87358H1.21534L1.4387 2.14018H4.23225C4.3356 2.16351 4.41227 2.23686 4.43561 2.3302C4.43895 2.3502 4.44227 2.37353 4.44227 2.39354C4.44227 2.40353 4.44227 2.41687 4.43895 2.42686V2.4402L4.39227 2.60022ZM11.0562 0.013335L9.99607 3.5603H9.23268L9.65938 2.13684H6.59246L6.16575 3.5603H5.40569L6.46578 0.013335H7.22918L6.80248 1.44345H9.8694L10.2961 0.013335H11.0562ZM11.2795 3.57029H10.5128L11.5795 0.0266687H12.3463L11.2795 3.57029ZM17.6834 0.0200013L16.6233 3.55363H15.8599L16.3633 1.86015L14.3498 3.55697L13.133 1.64014L12.5596 3.55363H11.7962L12.6162 0.823402L12.8564 0.0166675H12.8696L14.4931 2.49687L17.6834 0.0200013Z" fill="#6D6E71"/>
<path d="M0 4.52033L0.136678 3.99696H0.290024C0.333361 3.99696 0.366697 3.99696 0.383366 4.00362C0.403367 4.00695 0.420034 4.01362 0.430036 4.02363C0.446703 4.03696 0.456704 4.0503 0.460038 4.07029C0.466706 4.0903 0.466706 4.1103 0.460038 4.13363C0.453371 4.1603 0.440037 4.18363 0.420034 4.20364C0.400033 4.22364 0.376698 4.23698 0.346696 4.24365C0.380032 4.24697 0.403367 4.26365 0.420034 4.28698C0.433369 4.31031 0.436703 4.34032 0.426702 4.37365C0.420034 4.39366 0.413367 4.41366 0.396699 4.43366C0.383364 4.45366 0.366697 4.47033 0.346696 4.48366C0.326693 4.497 0.303358 4.507 0.276689 4.51366C0.250021 4.52033 0.210017 4.52367 0.150012 4.52367H0V4.52033ZM0.113342 4.45033H0.146678C0.180014 4.45033 0.206683 4.45033 0.223352 4.447C0.240019 4.44366 0.256688 4.44033 0.266688 4.43366C0.280023 4.42699 0.293358 4.417 0.303358 4.40699C0.313359 4.39366 0.320027 4.38366 0.323359 4.36698C0.326693 4.35032 0.326693 4.33698 0.323359 4.32365C0.320027 4.31031 0.310026 4.30032 0.296691 4.29365C0.286691 4.29032 0.276689 4.28698 0.266688 4.28365C0.253354 4.28365 0.240019 4.28031 0.220018 4.28031H0.156679L0.113342 4.45033ZM0.173348 4.21697H0.210017C0.256688 4.21697 0.290024 4.21031 0.313359 4.20031C0.336694 4.1903 0.350029 4.17031 0.356696 4.14364C0.363363 4.11364 0.360029 4.09363 0.346696 4.08363C0.330027 4.07363 0.300024 4.06696 0.250021 4.06696H0.213351L0.173348 4.21697ZM0.840069 4.52033L0.906742 4.26698H1.20343L1.13676 4.52033H1.23343L1.37012 3.99696H1.27344L1.22344 4.1903H0.926743L0.976748 3.99696H0.880073L0.743394 4.52033H0.840069ZM2.03017 4.52033L1.99683 4.38366H1.75681L1.65347 4.52033H1.55013L1.98349 3.97363L2.13351 4.52033H2.03017ZM1.81015 4.31365H1.98016L1.95016 4.19364C1.95016 4.18697 1.94683 4.17698 1.94683 4.16697C1.94683 4.15697 1.9435 4.14697 1.9435 4.13363C1.93683 4.14364 1.93016 4.15697 1.92349 4.16697C1.91683 4.17698 1.91016 4.18697 1.90349 4.19364L1.81015 4.31365ZM2.59688 4.28698L2.53688 4.52033H2.44354L2.58021 3.99696H2.71689C2.7569 3.99696 2.7869 4.0003 2.81024 4.00362C2.83023 4.00695 2.84691 4.01696 2.86024 4.02696C2.87691 4.04029 2.8869 4.05697 2.89024 4.07696C2.89357 4.09696 2.89357 4.12031 2.8869 4.14364C2.87691 4.18697 2.8569 4.21697 2.8269 4.24365C2.7969 4.26698 2.76022 4.28365 2.71356 4.28698L2.86024 4.527H2.75023L2.61021 4.29365H2.59688V4.28698ZM2.62022 4.22031H2.63689C2.68689 4.22031 2.72356 4.21364 2.74356 4.20364C2.76356 4.19364 2.7769 4.17364 2.78357 4.14697C2.79023 4.11697 2.7869 4.09696 2.77356 4.08697C2.7569 4.07363 2.7269 4.07029 2.67689 4.07029H2.66022L2.62022 4.22031ZM3.57029 4.52033L3.53697 4.38366H3.29695L3.19026 4.52033H3.08693L3.52029 3.97363L3.6703 4.52033H3.57029ZM3.35362 4.31365H3.52363L3.49362 4.19364C3.49029 4.18697 3.49029 4.17698 3.49029 4.16697C3.49029 4.15697 3.48695 4.14697 3.48695 4.13363C3.48028 4.14364 3.47363 4.15697 3.47029 4.16697C3.46362 4.17698 3.45695 4.18697 3.45028 4.19364L3.35362 4.31365ZM4.4137 4.06696L4.43371 3.99363H4.01367L3.99366 4.06696H4.15368L4.037 4.52033H4.13368L4.25036 4.06696H4.4137ZM5.2371 4.52033L5.37378 3.99696H5.27378L5.13709 4.52033H5.2371ZM5.72381 4.52033L5.82048 4.15697C5.82715 4.16697 5.83382 4.17698 5.84049 4.18697C5.84715 4.19697 5.85715 4.20698 5.86382 4.21364L6.17052 4.54034L6.31386 3.99696H6.22385L6.13051 4.36033C6.1205 4.34699 6.11385 4.33698 6.10718 4.32365C6.10051 4.31365 6.0905 4.30366 6.08384 4.29365L5.78382 3.97363L5.64046 4.52033H5.72381ZM7.04059 4.06696L7.05725 3.99363H6.64055L6.62055 4.06696H6.78056L6.66388 4.52033H6.7639L6.88057 4.06696H7.04059ZM7.59063 4.52033L7.61064 4.44366H7.37062L7.41395 4.27365H7.65397L7.67398 4.20031H7.43396L7.46728 4.06696H7.7073L7.72731 3.99363H7.38728L7.25061 4.517H7.59063V4.52033ZM8.11067 4.28698L8.05067 4.52033H7.95733L8.09401 3.99696H8.23068C8.27069 3.99696 8.30069 4.0003 8.32069 4.00362C8.34069 4.00695 8.35736 4.01696 8.37069 4.02696C8.38737 4.04029 8.39736 4.05697 8.40069 4.07696C8.40403 4.09696 8.40403 4.12031 8.39736 4.14364C8.38737 4.18697 8.36736 4.21697 8.33735 4.24365C8.30735 4.26698 8.27069 4.28365 8.22401 4.28698L8.37069 4.527H8.26069L8.12068 4.29365H8.11067V4.28698ZM8.13401 4.22031H8.15068C8.20402 4.22031 8.23735 4.21364 8.25735 4.20364C8.27735 4.19364 8.29069 4.17364 8.29736 4.14697C8.30403 4.11697 8.30069 4.09696 8.28735 4.08697C8.27069 4.07363 8.24069 4.07029 8.19068 4.07029H8.17401L8.13401 4.22031ZM8.78407 4.52033L8.8474 4.27365H9.08742L9.10743 4.20031H8.86741L8.90074 4.07029H9.14076L9.16076 3.99696H8.82406L8.68739 4.52033H8.78407ZM9.75414 4.52033L9.7208 4.38366H9.48078L9.37411 4.52033H9.27077L9.70414 3.97363L9.85415 4.52033H9.75414ZM9.53413 4.31365H9.70414L9.67414 4.19364C9.6708 4.18697 9.6708 4.17698 9.6708 4.16697C9.6708 4.15697 9.66747 4.14697 9.66747 4.13363C9.6608 4.14364 9.65414 4.15697 9.64747 4.16697C9.6408 4.17698 9.63413 4.18697 9.6308 4.19364L9.53413 4.31365ZM10.7709 4.03696C10.7442 4.02029 10.7176 4.00695 10.6876 3.99696C10.6576 3.98696 10.6242 3.98362 10.5875 3.98362C10.5442 3.98362 10.5009 3.99029 10.4575 4.00362C10.4142 4.01696 10.3742 4.03696 10.3409 4.06362C10.3042 4.0903 10.2742 4.12031 10.2475 4.15364C10.2242 4.18697 10.2042 4.22364 10.1942 4.26031C10.1842 4.30032 10.1842 4.33365 10.1909 4.37032C10.1975 4.40366 10.2142 4.43366 10.2342 4.46033C10.2575 4.48699 10.2875 4.50367 10.3242 4.517C10.3609 4.53034 10.4009 4.53701 10.4475 4.53701C10.4842 4.53701 10.5175 4.53367 10.5509 4.52367C10.5842 4.517 10.6175 4.50367 10.6475 4.48699L10.6709 4.39033C10.6342 4.41366 10.6009 4.43032 10.5642 4.44033C10.5275 4.45033 10.4942 4.45699 10.4575 4.45699C10.3975 4.45699 10.3509 4.43699 10.3209 4.40032C10.2909 4.36365 10.2809 4.31698 10.2975 4.26031C10.3142 4.20031 10.3475 4.15363 10.3975 4.11697C10.4475 4.0803 10.5075 4.0603 10.5742 4.0603C10.6076 4.0603 10.6409 4.06696 10.6676 4.07696C10.6942 4.08697 10.7209 4.10363 10.7442 4.12364L10.7709 4.03696ZM11.3543 4.52033L11.3743 4.44366H11.1343L11.1776 4.27365H11.4176L11.4376 4.20031H11.1976L11.2309 4.06696H11.471L11.491 3.99363H11.1543L11.0176 4.517H11.3543V4.52033ZM12.331 4.52033L12.3944 4.27365H12.6344L12.6544 4.20031H12.4144L12.4477 4.07029H12.6877L12.7077 3.99696H12.371L12.2344 4.52033H12.331ZM13.6177 4.26031C13.6078 4.29699 13.5911 4.33365 13.5644 4.36698C13.5412 4.40032 13.5078 4.43032 13.4711 4.45699C13.4344 4.48367 13.3944 4.50367 13.3511 4.517C13.3077 4.53034 13.2644 4.53701 13.2245 4.53701C13.1812 4.53701 13.1411 4.53034 13.1045 4.517C13.0677 4.50367 13.0378 4.48367 13.0144 4.45699C12.991 4.43032 12.9744 4.40032 12.9678 4.37032C12.9611 4.33698 12.9611 4.30032 12.9711 4.26365C12.9811 4.22698 12.9977 4.1903 13.0211 4.15697C13.0445 4.12364 13.0777 4.09363 13.1145 4.06696C13.1511 4.04029 13.1911 4.02029 13.2345 4.00695C13.2778 3.99363 13.3211 3.98696 13.3645 3.98696C13.4078 3.98696 13.4478 3.99363 13.4845 4.00695C13.5211 4.02029 13.5478 4.04029 13.5744 4.06696C13.5978 4.09363 13.6145 4.12364 13.6212 4.15697C13.6278 4.18697 13.6278 4.22364 13.6177 4.26031ZM13.5144 4.26031C13.5211 4.23365 13.5211 4.20698 13.5178 4.18363C13.5144 4.1603 13.5044 4.13697 13.4878 4.12031C13.4711 4.1003 13.4511 4.08697 13.4277 4.07696C13.4045 4.06696 13.3777 4.06362 13.3478 4.06362C13.3177 4.06362 13.2878 4.06696 13.2611 4.07696C13.2311 4.08697 13.2044 4.1003 13.1777 4.12031C13.1511 4.13697 13.1311 4.1603 13.1145 4.18363C13.0978 4.20698 13.0844 4.23365 13.0777 4.26031C13.0711 4.28698 13.0711 4.31365 13.0744 4.33698C13.0777 4.36033 13.0911 4.38366 13.1045 4.40032C13.121 4.42033 13.1411 4.43366 13.1645 4.44366C13.1877 4.45367 13.2144 4.45699 13.2444 4.45699C13.2744 4.45699 13.3045 4.45033 13.3311 4.44366C13.3612 4.43366 13.3878 4.42033 13.4145 4.40032C13.4411 4.38032 13.4611 4.36033 13.4812 4.33698C13.4944 4.31031 13.5078 4.28698 13.5144 4.26031ZM14.0711 4.28698L14.0111 4.52033H13.9178L14.0545 3.99696H14.1911C14.2312 3.99696 14.2611 4.0003 14.2845 4.00362C14.3046 4.00695 14.3211 4.01696 14.3345 4.02696C14.3512 4.04029 14.3612 4.05697 14.3646 4.07696C14.3679 4.09696 14.3679 4.12031 14.3612 4.14364C14.3512 4.18697 14.3312 4.21697 14.3012 4.24365C14.2712 4.26698 14.2345 4.28365 14.1879 4.28698L14.3345 4.527H14.2245L14.0845 4.29365H14.0711V4.28698ZM14.0945 4.22031H14.1112C14.1645 4.22031 14.1978 4.21364 14.2178 4.20364C14.2379 4.19364 14.2511 4.17364 14.2578 4.14697C14.2645 4.11697 14.2611 4.09696 14.2479 4.08697C14.2312 4.07363 14.2011 4.07029 14.1512 4.07029H14.1345L14.0945 4.22031ZM15.8047 4.52033L15.8013 3.97363L15.5413 4.30364L15.5313 4.31698C15.5112 4.34032 15.498 4.36033 15.488 4.37365C15.4846 4.35699 15.4813 4.34032 15.4779 4.32699C15.4746 4.31365 15.4746 4.30698 15.4713 4.30032L15.3813 3.97029L15.0946 4.517H15.1846L15.318 4.25698C15.3247 4.24365 15.3312 4.23031 15.3346 4.22031C15.3379 4.20698 15.3446 4.19697 15.3479 4.18697C15.3479 4.19697 15.3513 4.21031 15.3513 4.22031C15.3546 4.23031 15.3546 4.24365 15.3579 4.25364L15.4413 4.54034L15.6713 4.26031C15.6813 4.24697 15.6913 4.23698 15.698 4.22364C15.7047 4.21031 15.7113 4.20031 15.7179 4.18697C15.7179 4.19697 15.7146 4.21031 15.7146 4.22364C15.7113 4.24365 15.7113 4.25364 15.7113 4.25698V4.52033H15.8047ZM16.8281 4.26031C16.8181 4.29699 16.8014 4.33365 16.778 4.36698C16.7547 4.40032 16.7213 4.43032 16.6847 4.45699C16.6481 4.48367 16.608 4.50367 16.5647 4.517C16.5214 4.53034 16.478 4.53701 16.4347 4.53701C16.3914 4.53701 16.3513 4.53034 16.3147 4.517C16.278 4.50367 16.248 4.48367 16.2247 4.45699C16.2014 4.43032 16.1847 4.40032 16.178 4.37032C16.1713 4.33698 16.1713 4.30032 16.1814 4.26365C16.1914 4.22698 16.2081 4.1903 16.2313 4.15697C16.2547 4.12364 16.288 4.09363 16.3247 4.06696C16.3614 4.04029 16.4013 4.02029 16.4447 4.00695C16.488 3.99363 16.5313 3.98696 16.5747 3.98696C16.618 3.98696 16.658 3.99363 16.6914 4.00695C16.728 4.02029 16.7581 4.04029 16.7813 4.06696C16.8047 4.09363 16.8214 4.12364 16.8281 4.15697C16.8381 4.18697 16.8381 4.22364 16.8281 4.26031ZM16.7247 4.26031C16.7314 4.23365 16.7314 4.20698 16.728 4.18363C16.7247 4.1603 16.7113 4.13697 16.6981 4.12031C16.6814 4.1003 16.6613 4.08697 16.6381 4.07696C16.6147 4.06696 16.5881 4.06362 16.558 4.06362C16.528 4.06362 16.498 4.06696 16.468 4.07696C16.438 4.08697 16.4113 4.1003 16.3847 4.12031C16.358 4.13697 16.3381 4.1603 16.3214 4.18363C16.3047 4.20698 16.2913 4.23365 16.2847 4.26031C16.278 4.28698 16.278 4.31365 16.2813 4.33698C16.288 4.36033 16.298 4.38366 16.3114 4.40032C16.3281 4.42033 16.348 4.43366 16.3714 4.44366C16.3946 4.45367 16.4213 4.45699 16.4514 4.45699C16.4813 4.45699 16.5114 4.45033 16.5413 4.44366C16.5714 4.43366 16.598 4.42033 16.6247 4.40032C16.6513 4.38032 16.6714 4.36033 16.6881 4.33698C16.7048 4.31031 16.718 4.28698 16.7247 4.26031ZM17.218 4.52033L17.3114 4.15697C17.3181 4.16697 17.3248 4.17698 17.3315 4.18697C17.3381 4.19697 17.3447 4.20698 17.3547 4.21364L17.6614 4.54034L17.8048 3.99696H17.7148L17.6214 4.36033C17.6114 4.34699 17.6049 4.33698 17.5947 4.32365C17.5882 4.31365 17.5781 4.30366 17.5715 4.29365L17.2715 3.97363L17.1281 4.52033H17.218ZM18.3982 4.52033L18.4181 4.44366H18.1781L18.2215 4.27365H18.4615L18.4816 4.20031H18.2415L18.2749 4.06696H18.5149L18.5349 3.99363H18.1982L18.0615 4.517H18.3982V4.52033ZM18.9949 4.52033L19.0582 4.28031L19.3416 3.99696H19.2415L19.0649 4.17364C19.0582 4.18031 19.0515 4.18697 19.045 4.19364C19.0383 4.20031 19.0316 4.21031 19.0249 4.21697C19.0216 4.20698 19.0216 4.20031 19.0182 4.19364C19.0149 4.18697 19.0116 4.18031 19.0116 4.17698L18.9315 4.0003H18.8282L18.9582 4.28365L18.8949 4.52367H18.9949V4.52033Z" fill="#6D6E71"/>
</svg>
