<svg width="16" height="18" viewBox="0 0 16 18" fill="none" xmlns="http://www.w3.org/2000/svg">
<path d="M8.0044 17.5298C7.90762 17.5298 7.81965 17.5034 7.73167 17.4594L0.781525 13.5445C0.605572 13.4477 0.5 13.2718 0.5 13.0694V1.02543C0.5 0.726314 0.737537 0.47998 1.04545 0.47998H14.9545C15.2537 0.47998 15.5 0.717517 15.5 1.02543V13.0694C15.5 13.263 15.3856 13.4477 15.2185 13.5445L8.26833 17.4594C8.18035 17.5122 8.10117 17.5298 8.0044 17.5298ZM1.59971 12.7615L8.0044 16.3685L14.4179 12.7615V1.57089H1.59971V12.7615Z" fill="#200B4F"/>
<path d="M8.0044 12.0841C7.90762 12.0841 7.81965 12.0577 7.73167 12.0137L5.53226 10.7644C5.3563 10.6677 5.25073 10.4917 5.25073 10.2894V8.00198H6.34164V9.96386L8.0044 10.8964L9.93988 9.8055L10.4765 10.7556L8.27713 12.0049C8.18035 12.0577 8.10117 12.0841 8.0044 12.0841Z" fill="#200B4F"/>
<path d="M8.00502 14.8114C7.90824 14.8114 7.82027 14.785 7.73229 14.741L3.14871 12.1633C2.97276 12.0665 2.86719 11.8818 2.86719 11.6882V5.78498C2.86719 5.48586 3.10472 5.23952 3.41264 5.23952H10.134V6.33043H3.9581V11.3803L7.98742 13.6501L12.0167 11.3803V9.01372H13.1253V11.6794C13.1253 11.873 13.0109 12.0577 12.8437 12.1545L8.26015 14.7322C8.18097 14.7938 8.10179 14.8114 8.00502 14.8114Z" fill="#200B4F"/>
<path d="M13.1257 6.92865H12.0348V3.95504H4.80313V2.86413H12.5715C12.8706 2.86413 13.1169 3.10167 13.1169 3.40958V6.92865H13.1257Z" fill="#200B4F"/>
</svg>
