<svg width="20" height="17" viewBox="0 0 20 17" fill="none" xmlns="http://www.w3.org/2000/svg">
<path d="M17.3319 3.59772C16.0412 3.33654 13.96 2.98333 13.3786 4.19836C11.6016 7.27623 10.5814 10.4975 9.81348 11.8797C9.89414 11.9263 13.4335 13.9798 13.6839 14.1012C14.4796 14.4874 15.8081 14.3136 16.374 13.2929C17.9439 10.4614 17.5449 11.1986 19.213 8.30945C20.2909 6.44239 18.9432 3.92369 17.3319 3.59772Z" fill="#EA4335"/>
<path d="M6.16456 16.093C5.29786 15.1015 4.66209 13.1178 5.42365 12.0068C7.64841 8.15335 9.42936 5.82061 10.83 3.48235C11.5727 3.91118 14.5486 5.5992 14.7468 5.77313C15.4117 6.35637 15.9625 7.47082 15.3615 8.47127C13.6943 11.2467 13.0102 12.5027 11.3157 15.4378C10.2375 17.3053 7.2473 17.3317 6.16456 16.093Z" fill="#FDBD00"/>
<path d="M14.1444 1.63325C12.4106 0.620115 11.5195 0.752896 10.5871 0.902427C9.7394 1.11432 8.59324 1.73034 8.11009 2.52174C6.89124 4.51809 5.73678 6.49354 4.24123 9.17055C3.7806 9.99505 4.12251 11.008 4.54761 11.41C4.83569 11.6826 6.95539 12.8521 7.3465 13.0202C7.89974 13.2581 8.72846 13.0926 9.22836 12.5781C9.36643 12.4359 12.5286 7.00442 13.4191 5.40243C13.795 4.72641 14.1336 4.3523 14.6957 3.99168C15.7816 3.42185 16.6295 3.34835 17.9281 3.8232C17.9281 3.8232 15.1017 2.18495 14.1444 1.63325Z" fill="#2DA94F"/>
<path d="M2.98879 14.3801C1.24442 13.3851 0.91381 12.547 0.577101 11.6647C0.336827 10.8247 0.297228 9.52409 0.741024 8.70984C1.8606 6.65624 1.85255 6.64584 3.42315 4.01209C3.90687 3.20093 4.95514 2.99058 5.51586 3.15767C5.89591 3.27085 7.96853 4.52183 8.30971 4.77649C8.79237 5.1367 9.06338 5.93713 8.86775 6.62738C8.81367 6.81797 6.83237 10.2952 5.89038 11.8675C5.49277 12.531 5.33811 13.0112 5.30689 13.6783C5.35633 14.9036 5.71653 15.6746 6.77716 16.5619C6.77716 16.5619 3.94517 14.9332 2.98879 14.3801Z" fill="#297AEC"/>
</svg>
