<svg width="20" height="7" viewBox="0 0 20 7" fill="none" xmlns="http://www.w3.org/2000/svg">
<path d="M19.8284 2.0988C19.6488 1.58518 19.1591 1.21633 18.5841 1.21633H18.5721C18.1983 1.21633 17.8613 1.3719 17.6215 1.62166C17.3814 1.3719 17.0444 1.21633 16.671 1.21633H16.6589C16.3303 1.21633 16.03 1.33666 15.7993 1.53578V1.43451C15.7914 1.33366 15.7084 1.25441 15.6059 1.25441H14.7239C14.616 1.25441 14.5289 1.34158 14.5289 1.4498V6.23985C14.5289 6.34815 14.616 6.43524 14.7239 6.43524H15.6059C15.7043 6.43524 15.7851 6.36178 15.798 6.26678L15.7976 2.82809C15.7976 2.81605 15.798 2.80489 15.7994 2.79365C15.8134 2.64015 15.9259 2.51404 16.1035 2.4982H16.2661C16.3404 2.50485 16.403 2.53098 16.4524 2.5704C16.5291 2.63136 16.5719 2.72518 16.5719 2.82809L16.5751 6.24983C16.5751 6.35813 16.6628 6.44569 16.7701 6.44569H17.6523C17.7564 6.44569 17.841 6.36273 17.846 6.25941L17.8456 2.82358C17.8453 2.71069 17.8975 2.60864 17.9891 2.54808C18.0344 2.51903 18.0888 2.49955 18.1514 2.49369H18.314C18.5049 2.51031 18.6203 2.65511 18.6198 2.82358L18.6231 6.24073C18.6231 6.34903 18.7106 6.43611 18.8181 6.43611H19.7003C19.8076 6.43611 19.8951 6.34895 19.8951 6.24073V2.56558C19.8951 2.31493 19.867 2.20829 19.8284 2.0988ZM13.8569 1.26693H13.3523V0.44707C13.3523 0.348745 13.2726 0.269104 13.1744 0.269104C13.1626 0.269104 13.1515 0.270767 13.1406 0.272825C12.5814 0.426329 12.6934 1.20098 11.6724 1.26693H11.5732C11.5582 1.26693 11.5441 1.26898 11.5304 1.27191C11.4433 1.29139 11.3777 1.36896 11.3777 1.46191V2.34406C11.3777 2.45149 11.4653 2.53905 11.5731 2.53905H12.1054L12.1046 6.27944C12.1046 6.38608 12.1909 6.47236 12.2976 6.47236H13.1696C13.2759 6.47236 13.3621 6.38608 13.3621 6.27944L13.3626 2.53905H13.8568C13.9641 2.53905 14.0518 2.45149 14.0518 2.34406V1.46199C14.0519 1.35448 13.9644 1.26693 13.8569 1.26693Z" fill="#54C1F0"/>
<path d="M10.6832 1.26693H9.80112C9.69368 1.26693 9.60652 1.35448 9.60652 1.46191V3.28583C9.60447 3.39873 9.51319 3.48913 9.39991 3.48913H9.03067C8.91619 3.48913 8.82364 3.39706 8.82364 3.2825L8.82032 1.46191C8.82032 1.35448 8.73276 1.26693 8.62533 1.26693H7.74318C7.63528 1.26693 7.54819 1.35448 7.54819 1.46191V3.46095C7.54819 4.22024 8.08961 4.76165 8.84929 4.76165C8.84929 4.76165 9.41938 4.76165 9.43679 4.76498C9.53971 4.77661 9.61974 4.86291 9.61974 4.96915C9.61974 5.07413 9.54129 5.16001 9.43964 5.17284C9.43466 5.17364 9.43006 5.1749 9.42468 5.17578L8.13473 5.18036C8.02683 5.18036 7.93974 5.26793 7.93974 5.37535V6.25703C7.93974 6.36494 8.02691 6.45201 8.13473 6.45201H9.57692C10.337 6.45201 10.878 5.911 10.878 5.15131V1.46199C10.8782 1.35448 10.7911 1.26693 10.6832 1.26693ZM2.22281 1.26676H0.294782C0.189016 1.26676 0.103516 1.35258 0.103516 1.45803V2.32229L0.103912 2.32728C0.103912 2.3314 0.103516 2.33559 0.103516 2.33931V6.25094C0.103516 6.35718 0.183157 6.44386 0.281957 6.44631H1.18066C1.28808 6.44631 1.37564 6.35916 1.37564 6.25134L1.37897 4.9108H2.22288C2.92906 4.9108 3.42116 4.42084 3.42116 3.71175V2.46749C3.42107 1.75839 2.92897 1.26676 2.22281 1.26676ZM2.14522 3.42754C2.14522 3.54161 2.05268 3.63456 1.93859 3.63456L1.37889 3.63495V2.5442H1.93859C2.05268 2.5442 2.14522 2.63626 2.14522 2.75083V3.42754ZM5.66489 1.27175H4.44098C4.33268 1.27175 4.24512 1.35393 4.24512 1.4547V1.79781L4.24552 1.80446L4.24512 1.8119V2.282C4.24512 2.38864 4.33806 2.47571 4.45253 2.47571H5.61803C5.71009 2.4902 5.78317 2.55741 5.79354 2.66239V2.77608C5.78317 2.87606 5.71097 2.94905 5.62302 2.95736H5.04589C4.27829 2.95736 3.73148 3.46728 3.73148 4.18343V5.20903C3.73148 5.92096 4.20158 6.42756 4.96372 6.42756H6.56319C6.85033 6.42756 7.08308 6.21016 7.08308 5.9425V2.59574C7.08308 1.7842 6.66484 1.27175 5.66489 1.27175ZM5.80518 5.09178C5.80518 5.10303 5.80352 5.11379 5.80186 5.12416C5.79978 5.1339 5.79699 5.14348 5.79354 5.15281C5.76614 5.23 5.68896 5.28598 5.59728 5.28598H5.23011C5.11563 5.28598 5.02222 5.19881 5.02222 5.09178V4.92536L5.02182 4.91911L5.02222 4.33788L5.02262 4.33661C5.02301 4.22998 5.11556 4.14368 5.23003 4.14368H5.59721C5.71216 4.14368 5.80511 4.23036 5.80511 4.33788L5.80518 5.09178Z" fill="#233266"/>
</svg>
