<svg width="20" height="20" viewBox="0 0 20 20" fill="none" xmlns="http://www.w3.org/2000/svg">
<path d="M9.99844 19.6C15.3004 19.6 19.5984 15.3019 19.5984 9.99996C19.5984 4.69803 15.3004 0.399963 9.99844 0.399963C4.6965 0.399963 0.398438 4.69803 0.398438 9.99996C0.398438 15.3019 4.6965 19.6 9.99844 19.6Z" fill="#5F259F"/>
<path d="M14.3554 7.49462C14.3554 7.11935 14.0336 6.79752 13.6583 6.79752H12.3713L9.42168 3.41888C9.15358 3.09705 8.72457 2.98987 8.29556 3.09705L7.27662 3.41888C7.11571 3.47261 7.06198 3.68698 7.16944 3.79416L10.3872 6.85125H5.50628C5.34537 6.85125 5.23819 6.95843 5.23819 7.11935V7.65554C5.23819 8.03082 5.56002 8.35265 5.93529 8.35265H6.68613V10.927C6.68613 12.8577 7.70507 13.9841 9.4214 13.9841C9.95759 13.9841 10.3869 13.9304 10.9231 13.716V15.4323C10.9231 15.9151 11.2984 16.2903 11.7811 16.2903H12.5319C12.6929 16.2903 12.8538 16.1294 12.8538 15.9685V8.2992H14.0873C14.2483 8.2992 14.3554 8.19201 14.3554 8.0311V7.49462ZM10.9231 12.1068C10.6012 12.2678 10.1722 12.3215 9.85041 12.3215C8.99239 12.3215 8.56338 11.8925 8.56338 10.927V8.35265H10.9231V12.1068Z" fill="white"/>
</svg>
