<svg width="16" height="16" viewBox="0 0 16 16" fill="none" xmlns="http://www.w3.org/2000/svg"><g fill="#2A394E"><path d="M4.832 3.334v-2c0-.274.227-.5.5-.5s.5.226.5.5v2c0 .273-.227.5-.5.5a.504.504 0 0 1-.5-.5m5.336 0v-2c0-.274.227-.5.5-.5s.5.226.5.5v2c0 .273-.227.5-.5.5a.504.504 0 0 1-.5-.5"/><path fill-rule="evenodd" clip-rule="evenodd" d="M9.5 12.133A2.635 2.635 0 0 1 12.133 9.5a2.635 2.635 0 0 1 2.634 2.633 2.635 2.635 0 0 1-2.634 2.634A2.635 2.635 0 0 1 9.5 12.133m1 0c0 .9.733 1.634 1.633 1.634s1.634-.734 1.634-1.634-.734-1.633-1.634-1.633-1.633.733-1.633 1.633"/><path d="m14.312 15.02-.667-.667a.503.503 0 0 1 0-.707.503.503 0 0 1 .707 0l.666.667a.503.503 0 0 1 0 .707c-.1.1-.226.146-.353.146a.5.5 0 0 1-.353-.146M5.413 9.613a.6.6 0 0 1-.22-.14c-.026-.033-.06-.066-.08-.1a.5.5 0 0 1-.06-.12.4.4 0 0 1-.04-.12A1 1 0 0 1 5 9a.7.7 0 0 1 .193-.473.6.6 0 0 1 .22-.14.67.67 0 0 1 .727.14.7.7 0 0 1 .18.606.4.4 0 0 1-.04.12.5.5 0 0 1-.06.12l-.08.1a.7.7 0 0 1-.473.194.7.7 0 0 1-.254-.054m2.112-.14A.7.7 0 0 1 7.332 9q.002-.132.053-.253a.8.8 0 0 1 .14-.22c.247-.247.694-.247.947 0a.7.7 0 0 1 .18.606.4.4 0 0 1-.04.12.5.5 0 0 1-.06.12l-.08.1a.7.7 0 0 1-.473.194.7.7 0 0 1-.474-.194m-2.332 2.334A.7.7 0 0 1 5 11.333q.002-.132.053-.253a.6.6 0 0 1 .14-.22.7.7 0 0 1 .947 0c.12.127.193.3.193.473a.7.7 0 0 1-.193.473.7.7 0 0 1-.473.194.7.7 0 0 1-.474-.194M2.332 6.56a.504.504 0 0 1-.5-.5c0-.273.227-.5.5-.5h11.333c.274 0 .5.227.5.5s-.226.5-.5.5z"/><path d="M5.333 15.167c-2.433 0-3.833-1.4-3.833-3.833V5.667c0-2.433 1.4-3.833 3.833-3.833h5.334c2.433 0 3.833 1.4 3.833 3.833v3c0 .273-.227.5-.5.5a.504.504 0 0 1-.5-.5v-3c0-1.907-.927-2.833-2.833-2.833H5.333c-1.906 0-2.833.926-2.833 2.833v5.667c0 1.906.927 2.833 2.833 2.833h3.58c.274 0 .5.226.5.5 0 .273-.226.5-.5.5z"/><path opacity=".01" fill-rule="evenodd" clip-rule="evenodd" d="M16 0v16H0V0z"/></g></svg>