<svg width="20" height="20" viewBox="0 0 20 20" fill="none" xmlns="http://www.w3.org/2000/svg"><path fill-rule="evenodd" clip-rule="evenodd" d="M5.972 18.424a1.45 1.45 0 0 1-.766-1.283v-1.183c-2.517-.259-4.167-2.109-4.167-4.759v-5c0-2.867 1.925-4.792 4.792-4.792h8.333c2.867 0 4.792 1.925 4.792 4.792v5c0 2.867-1.925 4.792-4.792 4.792h-3.142l-3.55 2.367a1.47 1.47 0 0 1-1.5.067M2.29 6.191v5c0 2.15 1.392 3.541 3.542 3.541a.63.63 0 0 1 .625.626v1.774c0 .109.066.159.108.184s.125.05.217-.008l3.708-2.467a.64.64 0 0 1 .35-.108h3.333c2.15 0 3.542-1.392 3.542-3.542v-5c0-2.15-1.392-3.542-3.542-3.542H5.831c-2.15 0-3.542 1.392-3.542 3.542" fill="#2A394E"/><path d="M9.376 9.466v-.175c0-.967.708-1.442.975-1.625.308-.208.408-.35.408-.567A.76.76 0 0 0 10 6.341a.76.76 0 0 0-.759.758.63.63 0 0 1-.625.625.63.63 0 0 1-.625-.625 2.01 2.01 0 0 1 4.017 0c0 .95-.7 1.425-.959 1.6-.325.217-.425.359-.425.592v.175a.624.624 0 1 1-1.25 0m.001 2.075a.63.63 0 0 1 .625-.625.624.624 0 1 1-.625.625" fill="#2A394E"/></svg>