<svg width="87" height="32" viewBox="0 0 87 32" fill="none" xmlns="http://www.w3.org/2000/svg"><g clip-path="url(#a)" fill-rule="evenodd" clip-rule="evenodd"><path d="M0 4h14.042v23.2l-3.17-5.09v-7.408h-4.38L4.38 11.334h6.492V8.415H2.567zm29.216 0H15.174v23.2l3.17-5.09v-7.408h4.38l2.038-3.368h-6.417V8.415h8.304z" fill="#C7D2FC"/><path d="M35.853 16.325v5.72h-2.742V8.51h8.44v2.191h-5.698v3.47h4.367v2.153zm14.184 1.008v4.712h-2.67v-4.712L42.85 8.511h3.012l2.86 6.185 2.84-6.185h2.974zm12.94 4.712v-2.208h-5.098v-3.581h4.52v-2.15h-4.52v-3.388h5.098V8.511h-7.791v13.534zm5.383-5.274v5.273h-2.786V8.512h5.214q1.612 0 2.746.553 1.135.552 1.702 1.493.567.94.567 2.103a3.96 3.96 0 0 1-.796 2.414q-.795 1.077-2.368 1.484l3.323 5.486h-3.224l-3.064-5.273zm2.442-2.46H68.82v-3.867h1.982q.965 0 1.44.5.474.5.474 1.405 0 .925-.474 1.443-.475.519-1.44.519m14.004 7.194q-1.077.54-2.56.54-1.405 0-2.53-.474-1.126-.473-1.78-1.363-.655-.889-.674-2.1h2.887q.057.813.587 1.287.53.473 1.453.473.944 0 1.482-.445.54-.444.539-1.164 0-.587-.366-.965a2.6 2.6 0 0 0-.914-.596q-.55-.218-1.511-.483-1.309-.38-2.127-.748a3.7 3.7 0 0 1-1.405-1.117q-.587-.747-.587-1.996 0-1.174.597-2.045.597-.87 1.674-1.334 1.078-.465 2.464-.464 2.079 0 3.378.994t1.434 2.773h-2.964a1.5 1.5 0 0 0-.587-1.126q-.549-.445-1.454-.445-.789 0-1.26.397-.472.397-.472 1.155 0 .53.356.88.357.35.886.568t1.491.502q1.31.378 2.137.757.827.378 1.424 1.135T87 18.09q0 1.059-.559 1.968-.558.909-1.636 1.448" fill="#EAEBED"/></g><defs><clipPath id="a"><path fill="#fff" d="M0 0h87v32H0z"/></clipPath></defs></svg>