<svg width="24" height="24" viewBox="0 0 24 24" fill="none" xmlns="http://www.w3.org/2000/svg"><path d="M6.041 4.167v-2.5a.63.63 0 0 1 .625-.625.63.63 0 0 1 .625.625v2.5a.63.63 0 0 1-.625.625.63.63 0 0 1-.625-.625m6.668 0v-2.5a.63.63 0 0 1 .625-.625.63.63 0 0 1 .625.625v2.5a.63.63 0 0 1-.625.625.63.63 0 0 1-.625-.625" fill="#2A394E"/><path fill-rule="evenodd" clip-rule="evenodd" d="M6.667 18.958c-3.042 0-4.792-1.75-4.792-4.791V7.083c0-3.041 1.75-4.791 4.792-4.791h6.666c3.042 0 4.792 1.75 4.792 4.791v4.275a.64.64 0 0 1-.35.567.63.63 0 0 1-.658-.075 3 3 0 0 0-.253-.184c-1.312-.862-3.17-.8-4.406.209A3.68 3.68 0 0 0 11.05 14.8c0 .683.183 1.35.542 1.925q.278.454.641.8.178.168.375.308c.217.159.809.659.725.917-.1.25-.825.208-1.1.208zM3.125 7.083v7.083c0 2.384 1.158 3.542 3.542 3.542h4.075a3 3 0 0 1-.225-.341 4.9 4.9 0 0 1-.725-2.576c0-1.541.683-2.958 1.883-3.9 1.425-1.158 3.533-1.408 5.2-.641V7.083c0-2.383-1.158-3.541-3.542-3.541H6.667c-2.384 0-3.542 1.158-3.542 3.541" fill="#2A394E"/><path d="M5.834 9.792a.63.63 0 0 1-.625-.626.63.63 0 0 1 .625-.625h5a.63.63 0 0 1 .625.625.63.63 0 0 1-.625.625zm0 4.167a.63.63 0 0 1-.625-.625.63.63 0 0 1 .625-.625h2.183a.624.624 0 1 1 0 1.25z" fill="#2A394E"/><path d="M17.385 10.917a4.58 4.58 0 0 1 .81 6.42q-.478.617-1.102 1.055a.364.364 0 0 1-.51-.089.364.364 0 0 1 .089-.509c.352-.248.674-.552.948-.904a3.847 3.847 0 0 0-.678-5.395 3.847 3.847 0 0 0-5.395.678 3.847 3.847 0 0 0 2.761 6.195.36.36 0 0 1 .336.39.36.36 0 0 1-.39.336 4.55 4.55 0 0 1-2.482-.95 4.585 4.585 0 0 1-.804-6.42 4.58 4.58 0 0 1 6.417-.807Z" fill="#2A394E" stroke="#2A394E" stroke-width=".333"/><path d="m16.403 18.132 2.134-.12a.37.37 0 0 1 .385.343.367.367 0 0 1-.342.386l-2.134.12a.367.367 0 0 1-.385-.343.33.33 0 0 1 .073-.245.37.37 0 0 1 .27-.14Z" fill="#2A394E" stroke="#2A394E" stroke-width=".25"/><path d="M16.493 16.107a.37.37 0 0 1 .355.374l-.06 2.025a.365.365 0 0 1-.73-.02l.057-2.027a.373.373 0 0 1 .378-.352Z" fill="#2A394E" stroke="#2A394E" stroke-width=".25"/></svg>