<svg width="15" height="14" viewBox="0 0 15 14" fill="none" xmlns="http://www.w3.org/2000/svg"><path fill-rule="evenodd" clip-rule="evenodd" d="M4.307 12.896a1.01 1.01 0 0 1-.553-.898v-.829C1.94 10.99.75 9.694.75 7.84v-3.5C.75 2.332 2.138.984 4.205.984h6.008c2.067 0 3.455 1.348 3.455 3.355v3.5c0 2.006-1.388 3.354-3.455 3.354H7.948l-2.56 1.656a1.09 1.09 0 0 1-1.081.047M1.65 4.333v3.5c0 1.505 1.004 2.479 2.554 2.479.246 0 .45.198.45.437v1.243c0 .076.048.11.079.128a.15.15 0 0 0 .156-.006l2.673-1.726a.47.47 0 0 1 .253-.076h2.403c1.55 0 2.554-.974 2.554-2.48v-3.5c0-1.504-1.004-2.478-2.554-2.478H4.205c-1.55 0-2.554.974-2.554 2.479" fill="#2A394E"/><path d="M6.76 6.625v-.122c0-.677.51-1.01.702-1.138.222-.146.294-.245.294-.397a.54.54 0 0 0-.546-.53.54.54 0 0 0-.547.53c0 .24-.204.438-.45.438a.447.447 0 0 1-.451-.438c0-.775.649-1.405 1.448-1.405s1.448.63 1.448 1.405c0 .665-.505.998-.691 1.12-.235.152-.307.251-.307.415v.122a.444.444 0 0 1-.45.438.447.447 0 0 1-.45-.438m-.002 1.453c0-.239.204-.437.45-.437s.451.198.451.437c0 .24-.198.438-.45.438a.444.444 0 0 1-.451-.438" fill="#2A394E"/></svg>