<svg width="16" height="16" viewBox="0 0 16 16" fill="none" xmlns="http://www.w3.org/2000/svg"><path fill-rule="evenodd" clip-rule="evenodd" d="M10.667 7.834a.504.504 0 0 1-.5-.5v-4.66c0-.493.193-.953.54-1.3.346-.347.806-.54 1.3-.54h.006c.834.007 1.62.333 2.22.927.6.606.927 1.406.927 2.24v1.613c.007 1.327-.887 2.22-2.213 2.22zm2.28-1c.773 0 1.22-.447 1.22-1.22V4.001c0-.574-.227-1.12-.634-1.534a2.2 2.2 0 0 0-1.52-.633h-.006a.84.84 0 0 0-.594.247.83.83 0 0 0-.246.593v4.16z" fill="#6A7483"/><path fill-rule="evenodd" clip-rule="evenodd" d="m5.173 15.207-1.106-1.113a.164.164 0 0 0-.22-.013l-1.14.853c-.354.267-.82.313-1.22.113s-.647-.6-.647-1.046V4C.84 1.987 1.993.834 4.007.834h8c.273 0 .5.227.5.5s-.227.5-.5.5a.834.834 0 0 0-.834.833v11.334c0 .446-.246.846-.646 1.046s-.867.16-1.22-.106l-1.14-.854a.16.16 0 0 0-.214.014l-1.12 1.12a1.2 1.2 0 0 1-.833.333c-.313 0-.607-.12-.827-.347m-.4-1.813 1.107 1.113c.04.04.093.047.12.047s.08-.007.12-.047l1.12-1.12a1.16 1.16 0 0 1 1.527-.1l1.133.847c.073.053.14.033.173.013.034-.02.093-.06.093-.146V2.667c0-.3.074-.586.2-.833H4c-1.48 0-2.167.687-2.167 2.167v10c0 .093.06.133.094.153.04.02.106.033.173-.02l1.14-.853a1.174 1.174 0 0 1 1.533.113" fill="#6A7483"/><path d="M6.953 8.72c0-.367.3-.667.667-.667.366 0 .666.3.666.666s-.3.667-.666.667a.664.664 0 0 1-.667-.667M3.714 6.02c0-.366.3-.666.666-.666s.667.3.667.666-.3.667-.667.667a.664.664 0 0 1-.667-.667m.114 3.487a.503.503 0 0 1 0-.706l3.64-3.64a.503.503 0 0 1 .707 0 .503.503 0 0 1 0 .706l-3.64 3.64a.5.5 0 0 1-.353.147.5.5 0 0 1-.354-.147" fill="#6A7483"/></svg>