<svg width="14" height="14" viewBox="0 0 14 14" fill="none" xmlns="http://www.w3.org/2000/svg">
<path fill-rule="evenodd" clip-rule="evenodd" d="M2.30367 11.0362C2.00034 10.7504 1.8545 10.3187 1.907 9.85208L2.12284 7.96208C2.16367 7.60625 2.3795 7.13375 2.63034 6.87708L7.4195 1.80791C8.61534 0.542081 9.86367 0.507081 11.1295 1.70291C12.3953 2.89875 12.4303 4.14708 11.2345 5.41291L6.44534 10.4821C6.20034 10.7446 5.74534 10.9896 5.3895 11.0479L3.51117 11.3687C3.412 11.3746 3.3245 11.3862 3.23117 11.3862C2.87534 11.3862 2.54284 11.2637 2.30367 11.0362ZM8.05534 2.39708L3.26617 7.47208C3.1495 7.59458 3.01534 7.88625 2.992 8.05542L2.77617 9.94541C2.75284 10.1379 2.7995 10.2954 2.9045 10.3946C3.0095 10.4937 3.167 10.5287 3.3595 10.4996L5.23784 10.1787C5.407 10.1496 5.687 9.99792 5.80367 9.87542L10.5928 4.80625C11.3162 4.03625 11.5787 3.32458 10.5228 2.33291C10.0562 1.88375 9.65367 1.69708 9.292 1.69708C8.84284 1.69708 8.452 1.97708 8.05534 2.39708Z" fill="#2A394E"/>
<path d="M10.0747 6.38733C8.25475 6.2065 6.79058 4.824 6.51058 3.01566C6.47558 2.7765 6.63891 2.55483 6.87808 2.514C7.11725 2.479 7.33891 2.64233 7.37975 2.8815C7.60141 4.29316 8.74475 5.37816 10.1681 5.51816C10.4072 5.5415 10.5822 5.75733 10.5589 5.9965C10.5297 6.21816 10.3372 6.38733 10.1156 6.38733C10.1039 6.38733 10.0864 6.38733 10.0747 6.38733Z" fill="#2A394E"/>
</svg>
