<svg width="16" height="17" viewBox="0 0 16 17" fill="none" xmlns="http://www.w3.org/2000/svg">
<g id="ico-info-uic">
<g id="Vector">
<path fill-rule="evenodd" clip-rule="evenodd" d="M0.833374 8.4974C0.833374 12.4507 4.04671 15.6641 8.00004 15.6641C11.9534 15.6641 15.1667 12.4507 15.1667 8.4974C15.1667 4.54406 11.9534 1.33073 8.00004 1.33073C4.04671 1.33073 0.833374 4.54406 0.833374 8.4974ZM1.83337 8.4974C1.83337 5.0974 4.60004 2.33073 8.00004 2.33073C11.4 2.33073 14.1667 5.0974 14.1667 8.4974C14.1667 11.8974 11.4 14.6641 8.00004 14.6641C4.60004 14.6641 1.83337 11.8974 1.83337 8.4974Z" fill="#949CA6"/>
<path d="M1.03337 8.4974C1.03337 12.3403 4.15716 15.4641 8.00004 15.4641V15.8641C3.93625 15.8641 0.633374 12.5612 0.633374 8.4974H1.03337ZM8.00004 15.4641C11.8429 15.4641 14.9667 12.3403 14.9667 8.4974H15.3667C15.3667 12.5612 12.0638 15.8641 8.00004 15.8641V15.4641ZM14.9667 8.4974C14.9667 4.65452 11.8429 1.53073 8.00004 1.53073V1.13073C12.0638 1.13073 15.3667 4.43361 15.3667 8.4974H14.9667ZM8.00004 1.53073C4.15716 1.53073 1.03337 4.65452 1.03337 8.4974H0.633374C0.633374 4.43361 3.93625 1.13073 8.00004 1.13073V1.53073ZM1.63337 8.4974C1.63337 4.98694 4.48958 2.13073 8.00004 2.13073V2.53073C4.7105 2.53073 2.03337 5.20785 2.03337 8.4974H1.63337ZM8.00004 2.13073C11.5105 2.13073 14.3667 4.98694 14.3667 8.4974H13.9667C13.9667 5.20785 11.2896 2.53073 8.00004 2.53073V2.13073ZM14.3667 8.4974C14.3667 12.0079 11.5105 14.8641 8.00004 14.8641V14.4641C11.2896 14.4641 13.9667 11.7869 13.9667 8.4974H14.3667ZM8.00004 14.8641C4.48958 14.8641 1.63337 12.0079 1.63337 8.4974H2.03337C2.03337 11.7869 4.7105 14.4641 8.00004 14.4641V14.8641Z" fill="#949CA6"/>
</g>
<path id="Vector_2" d="M7.5 8.49737L7.5 11.1641C7.5 11.4374 7.72667 11.6641 8 11.6641C8.27333 11.6641 8.5 11.4374 8.5 11.1641L8.5 8.49737C8.5 8.22404 8.27333 7.99737 8 7.99737C7.72667 7.99737 7.5 8.22404 7.5 8.49737Z" fill="#949CA6" stroke="#949CA6" stroke-width="0.4"/>
<path id="Vector_3" d="M7.74671 5.22333C7.66671 5.25667 7.59337 5.30333 7.52671 5.36333C7.46671 5.43 7.42004 5.49667 7.38671 5.58333C7.35337 5.66333 7.33337 5.75 7.33337 5.83667C7.33337 5.92333 7.35337 6.01 7.38671 6.09C7.42004 6.17 7.46671 6.24333 7.52671 6.31C7.59337 6.37 7.66671 6.41667 7.74671 6.45C7.90671 6.51667 8.09337 6.51667 8.25337 6.45C8.33337 6.41667 8.40671 6.37 8.47337 6.31C8.53337 6.24333 8.58004 6.17 8.61337 6.09C8.64671 6.01 8.66671 5.92333 8.66671 5.83667C8.66671 5.75 8.64671 5.66333 8.61337 5.58333C8.58004 5.49667 8.53337 5.43 8.47337 5.36333C8.40671 5.30333 8.33337 5.25667 8.25337 5.22333C8.17337 5.19 8.08671 5.17 8.00004 5.17C7.91337 5.17 7.82671 5.19 7.74671 5.22333Z" fill="#949CA6" stroke="#949CA6" stroke-width="0.4"/>
</g>
</svg>
