<svg width="18" height="18" viewBox="0 0 18 18" fill="none" xmlns="http://www.w3.org/2000/svg">
<g id="Group 35787">
<g id="Group 35785">
<g id="Vector">
<path fill-rule="evenodd" clip-rule="evenodd" d="M1.83301 8.4987C1.83301 4.8239 4.82488 1.83203 8.49967 1.83203C12.1745 1.83203 15.1663 4.8239 15.1663 8.4987C15.1663 12.1735 12.1745 15.1654 8.49967 15.1654C4.82488 15.1654 1.83301 12.1735 1.83301 8.4987ZM2.80862 8.4987C2.80862 11.6337 5.35821 14.1898 8.49967 14.1898C11.6411 14.1898 14.1907 11.6337 14.1907 8.4987C14.1907 5.36374 11.6411 2.80764 8.49967 2.80764C5.35821 2.80764 2.80862 5.36374 2.80862 8.4987Z" fill="#2A394E"/>
<path d="M1.98301 8.4987C1.98301 4.90674 4.90772 1.98203 8.49967 1.98203V1.68203C4.74203 1.68203 1.68301 4.74106 1.68301 8.4987H1.98301ZM8.49967 1.98203C12.0916 1.98203 15.0163 4.90674 15.0163 8.4987H15.3163C15.3163 4.74106 12.2573 1.68203 8.49967 1.68203V1.98203ZM15.0163 8.4987C15.0163 12.0907 12.0916 15.0154 8.49967 15.0154V15.3154C12.2573 15.3154 15.3163 12.2563 15.3163 8.4987H15.0163ZM8.49967 15.0154C4.90772 15.0154 1.98301 12.0907 1.98301 8.4987H1.68301C1.68301 12.2563 4.74203 15.3154 8.49967 15.3154V15.0154ZM2.65862 8.4987C2.65862 11.7164 5.27526 14.3398 8.49967 14.3398V14.0398C5.44116 14.0398 2.95862 11.5509 2.95862 8.4987H2.65862ZM8.49967 14.3398C11.7241 14.3398 14.3407 11.7164 14.3407 8.4987H14.0407C14.0407 11.5509 11.5582 14.0398 8.49967 14.0398V14.3398ZM14.3407 8.4987C14.3407 5.28101 11.7241 2.65764 8.49967 2.65764V2.95764C11.5582 2.95764 14.0407 5.44647 14.0407 8.4987H14.3407ZM8.49967 2.65764C5.27526 2.65764 2.65862 5.28101 2.65862 8.4987H2.95862C2.95862 5.44647 5.44116 2.95764 8.49967 2.95764V2.65764Z" fill="#2A394E"/>
</g>
<path id="Vector_2" d="M15.3133 16.0209L13.98 14.6876C13.7866 14.4943 13.7866 14.1743 13.98 13.9809C14.1733 13.7876 14.4933 13.7876 14.6866 13.9809L16.02 15.3143C16.2133 15.5076 16.2133 15.8276 16.02 16.0209C15.92 16.1209 15.7933 16.1676 15.6666 16.1676C15.54 16.1676 15.4133 16.1209 15.3133 16.0209Z" fill="#2A394E" stroke="#2A394E" stroke-width="0.3"/>
<path id="Vector_3" opacity="0.01" fill-rule="evenodd" clip-rule="evenodd" d="M17 1V17H1V1H17Z" stroke="#2A394E" stroke-width="0.3"/>
</g>
</g>
</svg>
