<svg width="24" height="24" viewBox="0 0 24 24" fill="none" xmlns="http://www.w3.org/2000/svg">
<path fill-rule="evenodd" clip-rule="evenodd" d="M9.5 12C9.5 10.62 10.62 9.5 12 9.5C13.38 9.5 14.5 10.62 14.5 12C14.5 13.38 13.38 14.5 12 14.5C10.62 14.5 9.5 13.38 9.5 12ZM10.5 12C10.5 12.8267 11.1733 13.5 12 13.5C12.8267 13.5 13.5 12.8267 13.5 12C13.5 11.1733 12.8267 10.5 12 10.5C11.1733 10.5 10.5 11.1733 10.5 12Z" fill="#6A7483"/>
<path fill-rule="evenodd" clip-rule="evenodd" d="M13.7202 18.7399C13.3068 18.6265 12.9602 18.3665 12.7402 17.9999L12.6602 17.8665C12.2668 17.1865 11.7268 17.1865 11.3335 17.8665L11.2602 17.9932C11.0402 18.3665 10.6935 18.6332 10.2802 18.7399C9.86016 18.8532 9.42683 18.7932 9.06016 18.5732L7.9135 17.9132C7.50683 17.6799 7.2135 17.2999 7.08683 16.8399C6.96683 16.3799 7.02683 15.9065 7.26016 15.4999C7.4535 15.1599 7.50683 14.8532 7.3935 14.6599C7.28016 14.4665 6.9935 14.3532 6.60016 14.3532C5.62683 14.3532 4.8335 13.5599 4.8335 12.5865V11.4132C4.8335 10.4399 5.62683 9.64653 6.60016 9.64653C6.9935 9.64653 7.28016 9.5332 7.3935 9.33987C7.50683 9.14653 7.46016 8.83987 7.26016 8.49987C7.02683 8.0932 6.96683 7.6132 7.08683 7.15987C7.20683 6.69987 7.50016 6.31987 7.9135 6.08653L9.06683 5.42653C9.82016 4.97987 10.8135 5.23987 11.2668 6.00653L11.3468 6.13987C11.7402 6.81987 12.2802 6.81987 12.6735 6.13987L12.7468 6.0132C13.2002 5.23987 14.1935 4.97987 14.9535 5.4332L16.1002 6.0932C16.5068 6.32653 16.8002 6.70653 16.9268 7.16653C17.0468 7.62653 16.9868 8.09987 16.7535 8.50653C16.5602 8.84653 16.5068 9.1532 16.6202 9.34653C16.7335 9.53987 17.0202 9.6532 17.4135 9.6532C18.3868 9.6532 19.1802 10.4465 19.1802 11.4199V12.5932C19.1802 13.5665 18.3868 14.3599 17.4135 14.3599C17.0202 14.3599 16.7335 14.4732 16.6202 14.6665C16.5068 14.8599 16.5535 15.1665 16.7535 15.5065C16.9868 15.9132 17.0535 16.3932 16.9268 16.8465C16.8068 17.3065 16.5135 17.6865 16.1002 17.9199L14.9468 18.5799C14.6935 18.7199 14.4202 18.7932 14.1402 18.7932C14.0002 18.7932 13.8602 18.7732 13.7202 18.7399ZM13.5268 17.3599L13.6002 17.4865C13.6802 17.6265 13.8135 17.7265 13.9735 17.7665C14.1335 17.8065 14.2935 17.7865 14.4268 17.7065L15.5802 17.0399C15.7535 16.9399 15.8868 16.7732 15.9402 16.5732C15.9935 16.3732 15.9668 16.1665 15.8668 15.9932C15.4868 15.3399 15.4402 14.6665 15.7335 14.1532C16.0268 13.6399 16.6335 13.3465 17.3935 13.3465C17.8202 13.3465 18.1602 13.0065 18.1602 12.5799V11.4065C18.1602 10.9865 17.8202 10.6399 17.3935 10.6399C16.6335 10.6399 16.0268 10.3465 15.7335 9.8332C15.4402 9.31987 15.4868 8.64653 15.8668 7.9932C15.9668 7.81987 15.9935 7.6132 15.9402 7.4132C15.8868 7.2132 15.7602 7.0532 15.5868 6.94653L14.4335 6.28653C14.1468 6.1132 13.7668 6.2132 13.5935 6.50653L13.5202 6.6332C13.1402 7.2932 12.5868 7.66653 11.9935 7.66653C11.4002 7.66653 10.8468 7.2932 10.4668 6.6332L10.3935 6.49987C10.2268 6.21987 9.8535 6.11987 9.56683 6.28653L8.4135 6.9532C8.24016 7.0532 8.10683 7.21987 8.0535 7.41987C8.00016 7.61987 8.02683 7.82653 8.12683 7.99987C8.50683 8.6532 8.5535 9.32653 8.26016 9.83987C7.96683 10.3532 7.36016 10.6465 6.60016 10.6465C6.1735 10.6465 5.8335 10.9865 5.8335 11.4132V12.5865C5.8335 13.0065 6.1735 13.3532 6.60016 13.3532C7.36016 13.3532 7.96683 13.6465 8.26016 14.1599C8.5535 14.6732 8.50683 15.3465 8.12683 15.9999C8.02683 16.1732 8.00016 16.3799 8.0535 16.5799C8.10683 16.7799 8.2335 16.9399 8.40683 17.0465L9.56016 17.7065C9.70016 17.7932 9.86683 17.8132 10.0202 17.7732C10.1802 17.7332 10.3135 17.6265 10.4002 17.4865L10.4735 17.3599C10.8535 16.7065 11.4068 16.3265 12.0002 16.3265C12.5935 16.3265 13.1468 16.6999 13.5268 17.3599Z" fill="#6A7483"/>
</svg>
