<svg width="17" height="17" viewBox="0 0 17 17" fill="none" xmlns="http://www.w3.org/2000/svg"><path d="m5.577 9.669 2.69 2.774 2.774-2.69a.37.37 0 0 1 .523.007.37.37 0 0 1-.008.523l-3.04 2.948a.37.37 0 0 1-.522-.008l-2.947-3.04a.37.37 0 0 1 .008-.522.36.36 0 0 1 .263-.105.37.37 0 0 1 .26.113" fill="#2A394E"/><path d="m8.757 4.588-.127 8.3a.373.373 0 0 1-.375.363.373.373 0 0 1-.365-.375l.128-8.3a.373.373 0 0 1 .375-.364.373.373 0 0 1 .364.376" fill="#2A394E"/><path d="m5.577 9.669 2.69 2.774 2.774-2.69a.37.37 0 0 1 .523.007.37.37 0 0 1-.008.523l-3.04 2.948a.37.37 0 0 1-.522-.008l-2.947-3.04a.37.37 0 0 1 .008-.522.36.36 0 0 1 .263-.105.37.37 0 0 1 .26.113Z" stroke="#2A394E" stroke-width=".5"/><path d="m8.757 4.588-.127 8.3a.373.373 0 0 1-.375.363.373.373 0 0 1-.365-.375l.128-8.3a.373.373 0 0 1 .375-.364.373.373 0 0 1 .364.376Z" stroke="#2A394E" stroke-width=".5"/></svg>