<svg width="14" height="14" viewBox="0 0 14 14" fill="none" xmlns="http://www.w3.org/2000/svg"><path d="M4.229 2.917v-1.75a.44.44 0 0 1 .437-.438.44.44 0 0 1 .438.438v1.75a.44.44 0 0 1-.438.437.44.44 0 0 1-.437-.437m4.667 0v-1.75a.44.44 0 0 1 .438-.438.44.44 0 0 1 .437.438v1.75a.44.44 0 0 1-.437.437.44.44 0 0 1-.438-.437M2.041 5.74a.44.44 0 0 1-.437-.438.44.44 0 0 1 .437-.437h9.917a.44.44 0 0 1 .437.437.44.44 0 0 1-.437.438z" fill="#6A7483"/><path fill-rule="evenodd" clip-rule="evenodd" d="M4.667 13.27c-2.13 0-3.354-1.224-3.354-3.353V4.958c0-2.129 1.225-3.354 3.354-3.354h4.666c2.13 0 3.355 1.225 3.355 3.354v4.959c0 2.129-1.226 3.354-3.355 3.354zm-2.48-8.312v4.959c0 1.668.811 2.479 2.48 2.479h4.666c1.669 0 2.48-.81 2.48-2.48V4.959c0-1.668-.811-2.479-2.48-2.479H4.667c-1.669 0-2.48.811-2.48 2.48" fill="#6A7483"/><path d="M4.737 8.412a.7.7 0 0 1-.193-.123.7.7 0 0 1-.122-.192.6.6 0 0 1-.047-.222c0-.152.064-.303.17-.414a.7.7 0 0 1 .192-.123.56.56 0 0 1 .443 0q.053.018.105.053l.087.07c.024.03.053.058.07.087q.036.053.053.105a.4.4 0 0 1 .035.105c.006.041.012.076.012.117a.6.6 0 0 1-.17.414.6.6 0 0 1-.414.17.6.6 0 0 1-.221-.047m1.848-.122q-.034-.046-.07-.088a.4.4 0 0 1-.052-.105.4.4 0 0 1-.035-.105c-.006-.041-.012-.076-.012-.117a.6.6 0 0 1 .047-.222q.044-.105.122-.192a.59.59 0 0 1 .636-.123c.076.03.134.07.193.123a.6.6 0 0 1 .169.414c0 .04-.006.076-.012.117a.4.4 0 0 1-.035.105.4.4 0 0 1-.052.105l-.07.087a.6.6 0 0 1-.193.123.6.6 0 0 1-.222.046.6.6 0 0 1-.414-.169m-1.848 2.164a.7.7 0 0 1-.193-.122.6.6 0 0 1-.122-.193.6.6 0 0 1-.047-.221c0-.152.064-.304.17-.414a.7.7 0 0 1 .192-.123.58.58 0 0 1 .635.123c.024.029.053.058.07.087q.036.053.053.105.027.051.035.11a1 1 0 0 1 .012.112.6.6 0 0 1-.17.414.6.6 0 0 1-.414.169.6.6 0 0 1-.221-.047" fill="#6A7483"/></svg>