<svg width="16" height="16" viewBox="0 0 16 16" fill="none" xmlns="http://www.w3.org/2000/svg"><path d="M5.065 15.167c-2.926 0-4.233-1.307-4.233-4.234V8.4c0-2.927 1.307-4.233 4.233-4.233h2c.274 0 .5.226.5.5 0 .273-.226.5-.5.5h-2c-2.386 0-3.233.846-3.233 3.233v2.533c0 2.387.847 3.233 3.233 3.233H7.6c2.386 0 3.233-.846 3.233-3.233v-2c0-.273.227-.5.5-.5s.5.227.5.5v2c0 2.927-1.307 4.233-4.233 4.233z" fill="#6A7483"/><path fill-rule="evenodd" clip-rule="evenodd" d="M9.2 9.433c-1.874 0-2.634-.76-2.634-2.633V4.667c0-.2.12-.387.307-.46.187-.08.4-.034.547.106l4.266 4.267a.502.502 0 0 1-.353.853zM7.566 6.8c0 1.327.307 1.633 1.634 1.633h.926l-2.56-2.56z" fill="#6A7483"/><path d="M7.734 1.834a.504.504 0 0 1-.5-.5c0-.274.227-.5.5-.5h2.667c.273 0 .5.226.5.5 0 .273-.227.5-.5.5z" fill="#6A7483"/><path d="M4.168 3.334a2.5 2.5 0 0 1 2.5-2.5h1.747c.273 0 .5.226.5.5 0 .273-.227.5-.5.5H6.668c-.827 0-1.5.673-1.5 1.5 0 .273-.227.5-.5.5a.504.504 0 0 1-.5-.5m8.125 8c0-.274.227-.5.5-.5.76 0 1.373-.62 1.373-1.374V5.333c0-.273.227-.5.5-.5.274 0 .5.227.5.5V9.46a2.38 2.38 0 0 1-2.373 2.374.504.504 0 0 1-.5-.5" fill="#6A7483"/><path fill-rule="evenodd" clip-rule="evenodd" d="M12.668 5.833c-1.773 0-2.5-.726-2.5-2.5v-2c0-.2.12-.386.307-.46.186-.08.4-.033.546.107l4 4a.502.502 0 0 1-.353.853zm-1.5-2.5c0 1.22.28 1.5 1.5 1.5h.793L11.168 2.54z" fill="#6A7483"/></svg>