<svg width="24" height="24" viewBox="0 0 24 24" fill="none" xmlns="http://www.w3.org/2000/svg"><path d="M9.999 19.764c-3.62 0-5.167-1.676-5.167-5.598V9.833c0-3.922 1.547-5.598 5.167-5.598h3.333c.274 0 .5.246.5.542s-.226.542-.5.542H10c-3.074 0-4.167 1.184-4.167 4.514v4.333c0 3.33 1.093 4.514 4.167 4.514h4c3.073 0 4.167-1.184 4.167-4.514v-3.611c0-.296.226-.542.5-.542.273 0 .5.246.5.542v3.611c0 3.922-1.547 5.598-5.167 5.598z" fill="#299E47"/><path fill-rule="evenodd" clip-rule="evenodd" d="M15.999 11.098c-2.28 0-3.167-.96-3.167-3.43v-2.89c0-.217.12-.419.307-.498a.48.48 0 0 1 .546.115l5.334 5.778c.14.152.187.39.107.592a.5.5 0 0 1-.46.333zm-2.167-3.43c0 1.862.447 2.346 2.167 2.346h1.46l-3.627-3.929z" fill="#299E47"/><path d="M8.664 13.265c-.273 0-.5-.246-.5-.542s.227-.542.5-.542h6.216c.273 0 .5.246.5.542s-.227.542-.5.542z" fill="#299E47"/><path d="M10.314 16.831c0 .273-.246.5-.542.5s-.542-.227-.542-.5v-6.216c0-.273.246-.5.542-.5s.542.227.542.5zm4.066.062c0 .273-.245.5-.541.5s-.542-.227-.542-.5V12c0-.273.245-.5.542-.5.296 0 .541.227.541.5z" fill="#299E47"/><path d="M8.664 16.153c-.273 0-.5-.246-.5-.542s.227-.542.5-.542h6.334c.273 0 .5.246.5.542s-.227.542-.5.542z" fill="#299E47"/></svg>