<svg width="12" height="12" viewBox="0 0 12 13" fill="none" xmlns="http://www.w3.org/2000/svg"><path d="M4.37 11.625c-2.455 0-3.505-1.05-3.505-3.505v-.065c0-2.22.875-3.29 2.835-3.475.2-.015.39.135.41.34s-.13.39-.34.41c-1.57.145-2.155.885-2.155 2.73v.065c0 2.035.72 2.755 2.755 2.755h3.26c2.035 0 2.755-.72 2.755-2.755V8.06c0-1.855-.595-2.595-2.195-2.73a.375.375 0 0 1 .065-.745c1.99.17 2.88 1.245 2.88 3.48v.065c0 2.445-1.05 3.495-3.505 3.495z" fill="#2A394E"/><path d="M5.625 7.94V1.5c0-.205.17-.375.375-.375s.375.17.375.375v6.44a.374.374 0 1 1-.75 0" fill="#2A394E"/><path d="M5.735 8.765 4.06 7.09a.377.377 0 0 1 0-.53.377.377 0 0 1 .53 0L6 7.97l1.41-1.41a.377.377 0 0 1 .53 0 .377.377 0 0 1 0 .53L6.265 8.765a.37.37 0 0 1-.265.11.37.37 0 0 1-.265-.11" fill="#2A394E"/></svg>