<svg width="21" height="21" viewBox="0 0 21 21" fill="none" xmlns="http://www.w3.org/2000/svg"><path d="M13.838 6.542a.63.63 0 0 1-.625-.625.63.63 0 0 1 .625-.625h5a.63.63 0 0 1 .624.625.63.63 0 0 1-.625.625zm-11.668 0a.63.63 0 0 1-.626-.625.63.63 0 0 1 .625-.625h3.334a.63.63 0 0 1 .625.625.63.63 0 0 1-.625.625z" fill="#747E8B"/><path fill-rule="evenodd" clip-rule="evenodd" d="M5.294 5.917a3.55 3.55 0 0 1 3.541-3.542 3.55 3.55 0 0 1 3.542 3.542 3.55 3.55 0 0 1-3.542 3.541 3.55 3.55 0 0 1-3.541-3.541m1.25 0a2.29 2.29 0 0 0 2.291 2.291 2.29 2.29 0 0 0 2.292-2.291 2.29 2.29 0 0 0-2.292-2.292 2.29 2.29 0 0 0-2.291 2.292" fill="#747E8B"/><path d="M15.503 15.709a.63.63 0 0 1-.625-.625.63.63 0 0 1 .625-.625h3.334a.63.63 0 0 1 .625.625.63.63 0 0 1-.625.625zm-13.333 0a.63.63 0 0 1-.626-.625.63.63 0 0 1 .625-.625h5a.63.63 0 0 1 .625.625.63.63 0 0 1-.625.625z" fill="#747E8B"/><path fill-rule="evenodd" clip-rule="evenodd" d="M8.629 15.084a3.55 3.55 0 0 1 3.541-3.542 3.55 3.55 0 0 1 3.542 3.542 3.55 3.55 0 0 1-3.542 3.541 3.55 3.55 0 0 1-3.541-3.541m1.25 0a2.29 2.29 0 0 0 2.291 2.291 2.29 2.29 0 0 0 2.292-2.291 2.29 2.29 0 0 0-2.292-2.292 2.29 2.29 0 0 0-2.291 2.292" fill="#747E8B"/></svg>