<svg width="19" height="19" viewBox="0 0 19 19" fill="none" xmlns="http://www.w3.org/2000/svg"><path d="M4.832 3.333v-2c0-.273.227-.5.5-.5s.5.227.5.5v2c0 .274-.227.5-.5.5a.504.504 0 0 1-.5-.5m5.336 0v-2c0-.273.227-.5.5-.5s.5.227.5.5v2c0 .274-.227.5-.5.5a.504.504 0 0 1-.5-.5" fill="#2A394E"/><path fill-rule="evenodd" clip-rule="evenodd" d="M5.333 15.167c-2.433 0-3.833-1.4-3.833-3.834V5.667c0-2.434 1.4-3.834 3.833-3.834h5.334c2.433 0 3.833 1.4 3.833 3.834v3.42a.52.52 0 0 1-.28.453.5.5 0 0 1-.527-.06 3 3 0 0 0-.202-.147c-1.05-.69-2.536-.64-3.524.167a2.94 2.94 0 0 0-1.127 2.34c0 .547.147 1.08.433 1.54q.223.364.514.64.142.135.3.247c.173.126.646.526.58.733-.08.2-.66.167-.88.167zM2.5 5.667v5.666c0 1.907.927 2.834 2.833 2.834h3.26a2.4 2.4 0 0 1-.18-.274 3.9 3.9 0 0 1-.58-2.06 3.93 3.93 0 0 1 1.507-3.12c1.14-.926 2.827-1.126 4.16-.513V5.667c0-1.907-.927-2.834-2.833-2.834H5.333c-1.906 0-2.833.927-2.833 2.834" fill="#2A394E"/><path d="M4.668 7.833a.504.504 0 0 1-.5-.5c0-.273.227-.5.5-.5h4c.273 0 .5.227.5.5 0 .274-.227.5-.5.5zm0 3.334a.504.504 0 0 1-.5-.5c0-.274.227-.5.5-.5h1.747a.5.5 0 1 1 0 1z" fill="#2A394E"/><path d="M13.908 8.733a3.665 3.665 0 0 1 .649 5.136 4 4 0 0 1-.882.844.29.29 0 0 1-.408-.07.29.29 0 0 1 .071-.408 3.6 3.6 0 0 0 .759-.723 3.08 3.08 0 0 0-.543-4.316 3.08 3.08 0 0 0-4.316.542 3.078 3.078 0 0 0 2.21 4.956.29.29 0 0 1 .268.312.29.29 0 0 1-.312.27 3.64 3.64 0 0 1-1.986-.761 3.67 3.67 0 0 1-.643-5.136 3.66 3.66 0 0 1 5.133-.646Z" fill="#2A394E" stroke="#2A394E" stroke-width=".267"/><path d="m13.126 14.506 1.706-.096c.16-.009.3.115.309.274s-.115.3-.274.309l-1.707.095a.294.294 0 0 1-.308-.274.27.27 0 0 1 .058-.195.3.3 0 0 1 .216-.113Z" fill="#2A394E" stroke="#2A394E" stroke-width=".2"/><path d="M13.196 12.886a.296.296 0 0 1 .284.3l-.048 1.619a.292.292 0 0 1-.583-.016l.045-1.622c0-.063.024-.119.062-.168a.3.3 0 0 1 .24-.113Z" fill="#2A394E" stroke="#2A394E" stroke-width=".2"/></svg>