<svg width="10" height="10" viewBox="0 0 10 10" fill="none" xmlns="http://www.w3.org/2000/svg"><path fill-rule="evenodd" clip-rule="evenodd" d="M.52 5C.52 2.529 2.528.52 4.999.52S9.478 2.53 9.478 5a4.483 4.483 0 0 1-4.48 4.479A4.483 4.483 0 0 1 .52 4.999m.625 0a3.86 3.86 0 0 0 3.854 3.854A3.86 3.86 0 0 0 8.853 5a3.86 3.86 0 0 0-3.854-3.854A3.86 3.86 0 0 0 1.145 5" fill="#6A7483"/><path d="M4.688 5V3.334c0-.171.141-.313.312-.313.17 0 .313.142.313.313V5A.315.315 0 0 1 5 5.313.315.315 0 0 1 4.688 5Zm.152 2.05a.5.5 0 0 1-.137-.088.4.4 0 0 1-.088-.137.4.4 0 0 1-.033-.158q.002-.083.033-.159.031-.075.088-.137a.5.5 0 0 1 .137-.088.42.42 0 0 1 .317 0q.075.031.138.088a.5.5 0 0 1 .087.137q.031.076.033.159a.4.4 0 0 1-.033.158.4.4 0 0 1-.087.137.5.5 0 0 1-.138.088.4.4 0 0 1-.158.033.4.4 0 0 1-.159-.033Z" fill="#6A7483" stroke="#6A7483" stroke-width=".333"/></svg>