<svg width="22" height="22" viewBox="0 0 22 22" fill="none" xmlns="http://www.w3.org/2000/svg"><path fill-rule="evenodd" clip-rule="evenodd" d="M3.125 10.781c-.84 0-1.531-.69-1.531-1.53V6.344c0-.595.411-1.199.962-1.417l7.875-3.15a1.7 1.7 0 0 1 1.138 0l7.875 3.15c.551.218.962.83.962 1.417V9.25c0 .84-.691 1.531-1.531 1.531zm7.788-7.787-7.867 3.15c-.052.026-.14.14-.14.201V9.25c0 .123.096.219.219.219h15.75a.217.217 0 0 0 .219-.219V6.345c0-.061-.079-.175-.14-.201l-7.875-3.15c-.018-.009-.044-.009-.079-.009s-.07 0-.088.009M2.25 20.406a.66.66 0 0 1-.656-.656v-2.625c0-.84.691-1.531 1.531-1.531h15.75c.84 0 1.531.691 1.531 1.531v2.625a.66.66 0 0 1-.656.656zm16.844-1.312v-1.969a.217.217 0 0 0-.219-.219H3.125a.217.217 0 0 0-.219.219v1.969z" fill="#2A394E"/><path d="M3.344 16.25v-6.125c0-.359.297-.656.656-.656s.656.297.656.656v6.125a.66.66 0 0 1-.656.656.66.66 0 0 1-.656-.656m3.5 0v-6.125c0-.359.297-.656.656-.656s.656.297.656.656v6.125a.66.66 0 0 1-.656.656.66.66 0 0 1-.656-.656m3.5 0v-6.125c0-.359.297-.656.656-.656s.656.297.656.656v6.125a.66.66 0 0 1-.656.656.66.66 0 0 1-.656-.656m3.5 0v-6.125c0-.359.297-.656.656-.656s.656.297.656.656v6.125a.66.66 0 0 1-.656.656.66.66 0 0 1-.656-.656m3.5 0v-6.125c0-.359.297-.656.656-.656s.656.297.656.656v6.125a.66.66 0 0 1-.656.656.66.66 0 0 1-.656-.656M1.375 20.406a.66.66 0 0 1-.656-.656.66.66 0 0 1 .656-.656h19.25a.66.66 0 0 1 .656.656.66.66 0 0 1-.656.656z" fill="#2A394E"/><path fill-rule="evenodd" clip-rule="evenodd" d="M9.031 6.625c0-1.085.884-1.969 1.969-1.969s1.969.884 1.969 1.969A1.97 1.97 0 0 1 11 8.594a1.97 1.97 0 0 1-1.969-1.969m1.313 0a.66.66 0 0 0 .656.656.66.66 0 0 0 .656-.656.66.66 0 0 0-.656-.656.66.66 0 0 0-.656.656" fill="#2A394E"/></svg>