<svg width="130" height="130" viewBox="0 0 130 130" fill="none" xmlns="http://www.w3.org/2000/svg"><circle cx="65" cy="65" r="65" fill="#EDF1FA"/><g clip-path="url(#a)"><path d="M56.396 60.799q1.153.073 2.38.073 1.25 0 2.427-.172a11.4 11.4 0 0 0 2.281-.613 6.6 6.6 0 0 0 1.938-1.152 5.7 5.7 0 0 0 1.398-1.84q.564-1.128.71-2.698H55.343a8 8 0 0 1 .392-.71q.344-.566.711-1.178.443-.712.981-1.545h9.492q0-.637-.614-1.275a6.5 6.5 0 0 0-1.496-1.178 9.6 9.6 0 0 0-1.765-.833q-.908-.344-1.496-.344h-6.205q.097-.294.417-.883.344-.588.71-1.152.369-.59.639-1.03.294-.442.318-.442h20.43l-.147.27q-.123.27-.344.662-.22.367-.49.834-.27.441-.515.834a15 15 0 0 1-.393.662l-.147.245h-5.37q.514.884.882 1.79.393.884.49 1.84h6.034l-2.036 3.433h-3.777q-.294 2.28-1.3 3.9a9.4 9.4 0 0 1-2.427 2.698 11.3 11.3 0 0 1-3.189 1.643 19.4 19.4 0 0 1-3.63.785q0 .024.074.171.1.123.22.295a5 5 0 0 0 .295.417l10.89 15.033v.614h-4.66l-11.92-15.917z" fill="#D6DDEC"/><path d="M78.335 36.7H47.14a7.386 7.386 0 0 0-7.386 7.386v40.829m13.86 6.043H84.81a7.386 7.386 0 0 0 7.386-7.387V42.743" stroke="#fff" stroke-width="4.432" stroke-linecap="round"/><path d="m101.973 49.431-9.777-8.3-9.777 8.3M29.977 78.226l9.777 8.3 9.777-8.3" stroke="#fff" stroke-width="4.432" stroke-linecap="round"/><circle cx="90.117" cy="87.159" r="14.773" fill="#D6DDEC"/><rect x="84.894" y="79.847" width="17.727" height="2.955" rx="1.477" transform="rotate(45 84.894 79.847)" fill="#fff"/><rect x="82.805" y="92.382" width="17.727" height="2.955" rx="1.477" transform="rotate(-45 82.805 92.382)" fill="#fff"/></g><defs><clipPath id="a"><path fill="#fff" d="M29.977 33.977h74.91v67.954h-74.91z"/></clipPath></defs></svg>