<svg width="130" height="130" viewBox="0 0 130 130" fill="none" xmlns="http://www.w3.org/2000/svg"><g clip-path="url(#a)"><path d="M65 130c35.899 0 65-29.101 65-65S100.899 0 65 0 0 29.102 0 65c0 35.899 29.102 65 65 65" fill="#222E3E"/><mask id="b" style="mask-type:luminance" maskUnits="userSpaceOnUse" x="27" y="33" width="78" height="69"><path d="M104.887 33.978H27v67.954h77.887z" fill="#fff"/></mask><g mask="url(#b)"><path d="M56.396 60.799q1.153.073 2.38.073 1.25 0 2.427-.172a11.4 11.4 0 0 0 2.281-.613 6.6 6.6 0 0 0 1.938-1.152 5.7 5.7 0 0 0 1.398-1.84q.564-1.128.71-2.698H55.343a8 8 0 0 1 .392-.71q.344-.566.711-1.178.443-.712.981-1.545h9.492q0-.637-.614-1.275a6.5 6.5 0 0 0-1.496-1.178 9.6 9.6 0 0 0-1.765-.833q-.908-.344-1.496-.344h-6.205q.097-.294.417-.883.344-.588.71-1.152.369-.59.639-1.03.294-.442.318-.442h20.43l-.147.27q-.123.27-.344.662-.22.368-.49.834-.27.441-.515.834a15 15 0 0 1-.393.662l-.147.245h-5.37q.514.884.882 1.79.393.884.49 1.84h6.034l-2.036 3.433h-3.777q-.294 2.28-1.3 3.9a9.4 9.4 0 0 1-2.427 2.698 11.3 11.3 0 0 1-3.189 1.643 19.4 19.4 0 0 1-3.63.785q0 .024.074.171.1.123.22.295a5 5 0 0 0 .295.417l10.89 15.034v.612h-4.66l-11.92-15.916z" fill="#6A7483"/><path d="M78.335 36.7H47.14a7.386 7.386 0 0 0-7.386 7.387v40.828m13.859 6.043h31.195a7.386 7.386 0 0 0 7.386-7.386V42.743" stroke="#19222F" stroke-width="4.432" stroke-linecap="round"/><path d="m101.972 49.432-9.777-8.3-9.777 8.3M29.977 78.227l9.777 8.3 9.777-8.3" stroke="#19222F" stroke-width="4.432" stroke-linecap="round"/><path d="M90.116 101.932c8.16 0 14.773-6.614 14.773-14.773s-6.614-14.772-14.773-14.772S75.344 79 75.344 87.159c0 8.16 6.614 14.773 14.772 14.773" fill="#19222F"/><path d="M96.385 91.338 85.939 80.892a1.477 1.477 0 1 0-2.09 2.09l10.447 10.445a1.477 1.477 0 1 0 2.089-2.089" fill="#BFC4CA"/><path d="M94.295 80.892 83.85 91.338a1.477 1.477 0 0 0 2.09 2.09l10.445-10.446a1.477 1.477 0 0 0-2.089-2.09" fill="#BFC4CA"/></g></g><defs><clipPath id="a"><path fill="#fff" d="M0 0h130v130H0z"/></clipPath></defs></svg>