<svg width="24" height="24" viewBox="0 0 24 24" fill="none" xmlns="http://www.w3.org/2000/svg"><path d="M9.999 19.764c-3.62 0-5.167-1.676-5.167-5.598V9.833c0-3.922 1.547-5.598 5.167-5.598h3.333c.274 0 .5.246.5.542s-.226.542-.5.542H10c-3.074 0-4.167 1.184-4.167 4.514v4.333c0 3.33 1.093 4.514 4.167 4.514h4c3.073 0 4.167-1.184 4.167-4.514v-3.611c0-.296.226-.542.5-.542.273 0 .5.246.5.542v3.611c0 3.922-1.547 5.598-5.167 5.598z" fill="#C9221C"/><path fill-rule="evenodd" clip-rule="evenodd" d="M15.999 11.099c-2.28 0-3.167-.961-3.167-3.431v-2.89c0-.216.12-.418.307-.497a.48.48 0 0 1 .546.115l5.334 5.778c.14.152.187.39.107.592a.5.5 0 0 1-.46.332zm-2.167-3.431c0 1.863.447 2.347 2.167 2.347h1.46l-3.627-3.929z" fill="#C9221C"/><path d="M8.668 13.265c-.273 0-.5-.245-.5-.541s.227-.542.5-.542h4c.273 0 .5.245.5.542 0 .296-.227.541-.5.541zm0 2.888c-.273 0-.5-.246-.5-.542s.227-.542.5-.542h2.667c.273 0 .5.246.5.542s-.227.542-.5.542z" fill="#C9221C"/><path opacity=".01" fill-rule="evenodd" clip-rule="evenodd" d="M20 3.334v17.334H4V3.334z" fill="#C9221C"/></svg>