<svg width="30" height="30" viewBox="0 0 30 30" fill="none" xmlns="http://www.w3.org/2000/svg"><path d="M15 30c8.284 0 15-6.716 15-15S23.284 0 15 0 0 6.716 0 15s6.716 15 15 15" fill="#FFCC02"/><path d="m9.719 21.45-1.05.406.001.002zm.96-3.277.753.835.005-.004zM14.159 15l.758.831.912-.831-.912-.831zm-3.48-3.172.758-.832-.005-.004zm-.96-3.278 1.049.406zm10.56 0 1.049-.406-.001-.002zm-.96 3.278-.754-.836-.004.004zM15.839 15l-.758-.831-.913.832.914.831zm3.487 3.172-.757.833zm.96 3.278 1.046.415.003-.009zm-8.85-2.453-.757-.832-.003.003zm-.667 2.04-1.05.405.001.004zm8.46 0-1.05-.404zm-.668-2.04-.757.833.002.001zM15 15.757l.757-.832-.757-.688-.757.688zm-4.23-6.794 1.05.404zm.667 2.04.757-.833-.002-.001zM15 14.243l-.757.832.757.688.757-.688zm3.562-3.24.757.832.003-.003zm.668-2.04 1.05-.405-.002-.004zm-6.66 12.975c-1.115 0-1.625-.44-1.802-.896l-2.097.816c.618 1.585 2.178 2.33 3.899 2.33zm-1.801-.894c-.212-.548-.05-1.392.664-2.036l-1.507-1.671c-1.266 1.141-1.868 2.937-1.255 4.52zm.669-2.04 3.48-3.173L13.4 14.17l-3.48 3.17zm3.48-4.835-3.48-3.173L9.92 12.66l3.48 3.172zm-3.485-3.177c-.714-.644-.876-1.488-.664-2.036L8.67 8.144c-.613 1.582-.01 3.378 1.255 4.52zm-.664-2.036c.177-.458.682-.893 1.8-.893v-2.25c-1.715 0-3.28.734-3.899 2.331zm1.8-.893h4.86v-2.25h-4.86zm4.86 0c1.115 0 1.625.44 1.802.896l2.097-.817c-.618-1.585-2.178-2.33-3.898-2.33zm1.802.893c.212.548.05 1.392-.665 2.036l1.507 1.671c1.266-1.141 1.869-2.937 1.256-4.52zm-.67 2.04-3.48 3.173 1.517 1.662 3.48-3.172zm-3.478 4.836 3.487 3.173 1.514-1.665-3.487-3.172zm3.488 3.173c.713.648.878 1.495.667 2.039l2.098.812c.615-1.586 0-3.38-1.252-4.516zm.67 2.03c-.183.463-.7.902-1.811.902v2.25c1.723 0 3.277-.745 3.903-2.322zm-1.811.902h-4.86v2.25h4.86zm-6.753-3.769c-.848.777-1.416 2.083-.957 3.274l2.1-.81c-.021-.053-.035-.428.377-.805zm-.956 3.278c.474 1.214 1.716 1.616 2.849 1.616v-2.25c-.35 0-.558-.061-.663-.114a.3.3 0 0 1-.078-.052l-.011-.017zm2.849 1.616h4.86v-2.25h-4.86zm4.86 0c1.124 0 2.376-.39 2.85-1.62l-2.1-.808a.04.04 0 0 1-.01.017.3.3 0 0 1-.075.049c-.104.052-.312.113-.665.113zm2.85-1.62c.457-1.186-.096-2.494-.963-3.278l-1.51 1.667c.409.37.396.743.373.802zm-.96-3.277-3.563-3.24-1.514 1.665 3.562 3.24zm-5.077-3.24-3.563 3.24 1.514 1.665 3.563-3.24zM9.719 8.558c-.457 1.186.096 2.494.962 3.278l1.51-1.667c-.408-.37-.395-.743-.373-.802zm.96 3.277 3.563 3.24 1.514-1.665-3.563-3.24zm5.077 3.24 3.562-3.24-1.514-1.665-3.562 3.24zm3.565-3.243c.848-.777 1.417-2.083.957-3.274l-2.099.81c.02.053.034.427-.378.805zm.956-3.278c-.473-1.214-1.715-1.617-2.848-1.617v2.25c.35 0 .558.062.663.115a.3.3 0 0 1 .077.052q.009.008.011.017zm-2.848-1.617h-4.86v2.25h4.86zm-4.86 0c-1.125 0-2.377.39-2.85 1.622l2.1.807a.04.04 0 0 1 .01-.017.3.3 0 0 1 .074-.049c.104-.052.312-.113.666-.113z" fill="#fff"/></svg>