<svg width="16" height="16" viewBox="0 0 16 16" fill="none" xmlns="http://www.w3.org/2000/svg"><path d="M2.627 7.967 1.82 7.16l-.806.807a.503.503 0 0 1-.707 0 .503.503 0 0 1 0-.707l1.16-1.16a.503.503 0 0 1 .707 0l1.16 1.16a.503.503 0 0 1 0 .707.48.48 0 0 1-.354.146.5.5 0 0 1-.353-.146ZM13.82 9.9l-1.16-1.16a.503.503 0 0 1 0-.707.503.503 0 0 1 .707 0l.807.807.807-.807a.503.503 0 0 1 .706 0 .503.503 0 0 1 0 .707l-1.16 1.16a.495.495 0 0 1-.707 0Z" fill="#10161F" stroke="#10161F" stroke-width=".3"/><path d="M13.674 9.547V8a5.68 5.68 0 0 0-5.673-5.673c-1.727 0-3.34.773-4.427 2.126a.505.505 0 0 1-.7.08.5.5 0 0 1-.08-.7 6.63 6.63 0 0 1 5.207-2.5 6.68 6.68 0 0 1 6.673 6.674v1.546c0 .267-.22.494-.5.494a.504.504 0 0 1-.5-.5ZM1.326 8V6.453c0-.273.227-.5.5-.5.274 0 .5.227.5.5V8A5.68 5.68 0 0 0 8 13.673a5.65 5.65 0 0 0 4.426-2.126.498.498 0 0 1 .78.62A6.64 6.64 0 0 1 8 14.673 6.68 6.68 0 0 1 1.326 8Z" fill="#10161F" stroke="#10161F" stroke-width=".3"/><g clip-path="url(#a)"><path d="M5.67 5.413c0-.26.21-.47.47-.47h3.764a.47.47 0 1 1 0 .94h-.826c.141.213.246.45.305.707h.521a.47.47 0 1 1 0 .94h-.523a2.12 2.12 0 0 1-1.797 1.631l2.123 1.516a.47.47 0 1 1-.547.765L5.867 9.089a.471.471 0 0 1 .273-.853h1.177c.482 0 .897-.29 1.077-.705H6.14a.47.47 0 1 1 0-.941h2.254a1.17 1.17 0 0 0-1.077-.706H6.14a.47.47 0 0 1-.47-.47Z" fill="#10161F" stroke="#10161F" stroke-width=".1"/></g><defs><clipPath id="a"><path fill="#fff" d="M5 4h6v8H5z"/></clipPath></defs></svg>