<svg width="22" height="20" viewBox="0 0 22 20" fill="none" xmlns="http://www.w3.org/2000/svg"><path d="M10.92 8.614 8.348 5.983l-2.632 2.57a.354.354 0 0 1-.497-.005.354.354 0 0 1 .005-.498l2.883-2.817a.354.354 0 0 1 .498.006l2.817 2.883a.354.354 0 0 1-.006.498.34.34 0 0 1-.25.1.35.35 0 0 1-.248-.106" fill="#BFC4CA"/><path d="m7.91 13.462.092-7.901a.355.355 0 0 1 .356-.348c.192.002.35.163.348.356l-.092 7.902a.355.355 0 0 1-.356.348.355.355 0 0 1-.348-.357" fill="#BFC4CA"/><path d="M10.92 8.614 8.348 5.983l-2.632 2.57a.354.354 0 0 1-.497-.005.354.354 0 0 1 .005-.498l2.883-2.817a.354.354 0 0 1 .498.006l2.817 2.883a.354.354 0 0 1-.006.498.34.34 0 0 1-.25.1.35.35 0 0 1-.248-.106Z" stroke="#BFC4CA" stroke-width=".5"/><path d="m7.91 13.462.092-7.901a.355.355 0 0 1 .356-.348c.192.002.35.163.348.356l-.092 7.902a.355.355 0 0 1-.356.348.355.355 0 0 1-.348-.357Z" stroke="#BFC4CA" stroke-width=".5"/><path opacity=".01" clip-rule="evenodd" d="M8.259 16.687 1 9.257 8.429 2l7.259 7.429z" stroke="#BFC4CA" stroke-width=".5"/><path d="m11.606 10.174 2.514 2.592 2.593-2.514a.35.35 0 0 1 .488.007.35.35 0 0 1-.007.489l-2.84 2.755a.35.35 0 0 1-.49-.008l-2.754-2.84a.35.35 0 0 1 .007-.489.33.33 0 0 1 .246-.098.34.34 0 0 1 .243.106" fill="#BFC4CA"/><path d="m14.578 5.425-.119 7.757a.35.35 0 0 1-.35.34.35.35 0 0 1-.341-.35l.119-7.758a.35.35 0 0 1 .35-.34.35.35 0 0 1 .341.35" fill="#BFC4CA"/><path d="m11.606 10.174 2.514 2.592 2.593-2.514a.35.35 0 0 1 .488.007.35.35 0 0 1-.007.489l-2.84 2.755a.35.35 0 0 1-.49-.008l-2.754-2.84a.35.35 0 0 1 .007-.489.33.33 0 0 1 .246-.098.34.34 0 0 1 .243.106Z" stroke="#BFC4CA" stroke-width=".5"/><path d="m14.578 5.425-.119 7.757a.35.35 0 0 1-.35.34.35.35 0 0 1-.341-.35l.119-7.758a.35.35 0 0 1 .35-.34.35.35 0 0 1 .341.35Z" stroke="#BFC4CA" stroke-width=".5"/><path opacity=".01" fill-rule="evenodd" clip-rule="evenodd" d="M14.098 16.418 7 9.098 14.32 2l7.098 7.32z" fill="#BFC4CA"/></svg>