<svg width="16" height="16" viewBox="0 0 16 16" fill="none" xmlns="http://www.w3.org/2000/svg"><path fill-rule="evenodd" clip-rule="evenodd" d="M.832 8A7.173 7.173 0 0 1 7.999.833 7.173 7.173 0 0 1 15.165 8 7.173 7.173 0 0 1 8 15.166 7.173 7.173 0 0 1 .832 8m1 0c0 3.4 2.767 6.166 6.167 6.166S14.165 11.4 14.165 8 11.4 1.833 8 1.833A6.174 6.174 0 0 0 1.832 8" fill="#436AF5"/><path d="M10.218 10.547 8.15 9.313c-.513-.306-.893-.98-.893-1.573V5.007c0-.273.226-.5.5-.5.273 0 .5.227.5.5V7.74c0 .24.2.594.406.713l2.067 1.234a.5.5 0 0 1 .174.687.51.51 0 0 1-.434.246.45.45 0 0 1-.253-.073" fill="#436AF5"/></svg>