<svg width="54" height="54" viewBox="0 0 54 54" fill="none" xmlns="http://www.w3.org/2000/svg"><circle cx="27" cy="27" r="27" fill="url(#a)"/><path d="M37.447 33.031c-3.33 5.77-10.708 7.746-16.477 4.415-5.769-3.33-7.745-10.707-4.414-16.477 3.33-5.769 10.707-7.745 16.476-4.414 5.77 3.33 7.746 10.707 4.415 16.476" fill="url(#b)"/><path d="m21.519 36.497 10.965-18.993m4.963 15.527c-3.33 5.77-10.708 7.746-16.477 4.415-5.769-3.33-7.745-10.707-4.414-16.477 3.33-5.769 10.707-7.745 16.476-4.414 5.77 3.33 7.746 10.707 4.415 16.476Z" stroke="#fff" stroke-width="4"/><defs><linearGradient id="a" x1="12.367" y1="5.959" x2="58.083" y2="70.223" gradientUnits="userSpaceOnUse"><stop stop-color="#FB2A23"/><stop offset="1" stop-color="#FB2A23" stop-opacity="0"/></linearGradient><linearGradient id="b" x1="20.463" y1="17.599" x2="40.89" y2="46.313" gradientUnits="userSpaceOnUse"><stop stop-color="#FB2A23"/><stop offset="1" stop-color="#FB2A23" stop-opacity="0"/></linearGradient></defs></svg>