<svg width="16" height="16" viewBox="0 0 16 16" fill="none" xmlns="http://www.w3.org/2000/svg"><g fill="#2A394E"><path fill-rule="evenodd" clip-rule="evenodd" d="M2.633 12.614c-.346-.327-.513-.82-.453-1.354l.247-2.16c.046-.406.293-.946.58-1.24L8.48 2.067C9.847.62 11.273.58 12.72 1.947s1.487 2.793.12 4.24L7.367 11.98c-.28.3-.8.58-1.207.647l-2.147.367c-.113.006-.213.02-.32.02a1.53 1.53 0 0 1-1.06-.4M9.207 2.74l-5.474 5.8c-.133.14-.286.474-.313.667l-.247 2.16c-.026.22.027.4.147.513.12.114.3.154.52.12l2.147-.366a1.5 1.5 0 0 0 .646-.347l5.474-5.793c.826-.88 1.126-1.694-.08-2.827-.534-.513-.994-.727-1.407-.727-.513 0-.96.32-1.413.8"/><path d="M11.514 7.3A4.57 4.57 0 0 1 7.44 3.447a.51.51 0 0 1 .42-.573.51.51 0 0 1 .574.42 3.58 3.58 0 0 0 3.186 3.013.5.5 0 0 1 .447.547.516.516 0 0 1-.507.446zM2 15.167a.504.504 0 0 1-.5-.5c0-.273.227-.5.5-.5h12c.273 0 .5.227.5.5s-.227.5-.5.5z"/></g></svg>