<svg width="21" height="21" viewBox="0 0 21 21" fill="none" xmlns="http://www.w3.org/2000/svg"><path d="M7.953 13.002a2.98 2.98 0 1 1 4.217-4.217z" stroke="#949CA6" stroke-width="1.5" stroke-linecap="round" stroke-linejoin="round"/><path d="M14.914 5.702c-1.458-1.1-3.125-1.7-4.85-1.7-2.941 0-5.683 1.733-7.591 4.733-.75 1.175-.75 3.15 0 4.325a12 12 0 0 0 2.258 2.642m2.347 1.467c.95.4 1.958.616 2.984.616 2.941 0 5.683-1.733 7.591-4.733.75-1.175.75-3.15 0-4.325a14 14 0 0 0-.883-1.225" stroke="#949CA6" stroke-width="1.5" stroke-linecap="round" stroke-linejoin="round"/><path d="M12.987 11.477a2.97 2.97 0 0 1-2.35 2.35m-2.682-.825L1.73 19.227M18.397 2.56l-6.225 6.226" stroke="#949CA6" stroke-width="1.5" stroke-linecap="round" stroke-linejoin="round"/></svg>