<svg width="24" height="24" viewBox="0 0 24 24" fill="none" xmlns="http://www.w3.org/2000/svg"><circle cx="12" cy="12" r="12" fill="#248A3D"/><path fill-rule="evenodd" clip-rule="evenodd" d="M3.938 12c0-4.447 3.615-8.062 8.062-8.062 4.448 0 8.063 3.615 8.063 8.062 0 4.448-3.615 8.063-8.063 8.063-4.447 0-8.062-3.615-8.062-8.063m1.124 0A6.946 6.946 0 0 0 12 18.938 6.946 6.946 0 0 0 18.938 12 6.946 6.946 0 0 0 12 5.063 6.946 6.946 0 0 0 5.063 12" fill="#fff"/><path d="m10.536 14.52-2.123-2.123a.566.566 0 0 1 0-.795.566.566 0 0 1 .795 0l1.725 1.725 3.855-3.855a.566.566 0 0 1 .795 0 .566.566 0 0 1 0 .795l-4.252 4.252a.56.56 0 0 1-.795 0" fill="#fff"/></svg>