<svg width="16" height="16" viewBox="0 0 16 16" fill="none" xmlns="http://www.w3.org/2000/svg"><path fill-rule="evenodd" clip-rule="evenodd" d="M.833 8A7.173 7.173 0 0 0 8 15.166 7.173 7.173 0 0 0 15.167 8 7.173 7.173 0 0 0 8 .833 7.173 7.173 0 0 0 .833 8m1 0C1.833 4.6 4.6 1.833 8 1.833S14.167 4.6 14.167 8 11.4 14.166 8 14.166A6.174 6.174 0 0 1 1.833 8" fill="#CCA302"/><path d="M7.5 7.333v3.333c0 .274.227.5.5.5s.5-.226.5-.5V7.333c0-.273-.227-.5-.5-.5s-.5.227-.5.5m.247-2.613a.8.8 0 0 0-.22.14.7.7 0 0 0-.14.22.7.7 0 0 0-.054.253q.002.132.054.254a.8.8 0 0 0 .14.22.8.8 0 0 0 .22.14c.16.066.346.066.506 0a.8.8 0 0 0 .22-.14.8.8 0 0 0 .14-.22.7.7 0 0 0 .054-.254.7.7 0 0 0-.054-.253.7.7 0 0 0-.14-.22.8.8 0 0 0-.22-.14A.7.7 0 0 0 8 4.667a.7.7 0 0 0-.253.053" fill="#CCA302"/></svg>