<svg width="93" height="61" viewBox="0 0 93 61" fill="none" xmlns="http://www.w3.org/2000/svg"><g opacity=".2"><rect x="31.912" width="63.242" height="45.926" rx="5.93" transform="rotate(15 31.912 0)" fill="url(#a)"/><path d="m47.432 16.196-1.03 1.743-9.823-2.632 1.038-1.74zm-7.92 9.808-3.56-7.443.421-1.598 2.561.686q.919.246 1.611.116a2.2 2.2 0 0 0 1.166-.59q.472-.458.669-1.192.294-1.1-.193-1.947-.486-.847-1.952-1.24l-2.783-.746 1.172-2.067 2.206.59q1.865.501 2.937 1.389 1.08.882 1.415 2.06.343 1.177-.021 2.537-.322 1.2-1.026 2.022-.705.82-1.835 1.165-1.132.344-2.755.125l-.097.005 3.185 6.826-.034.13zm8.898-13.4-1.053 1.769L39.4 12.21l1.045-1.74z" fill="#fff"/><rect x="72.955" y="19.182" width="11.858" height="8.47" rx="4.235" transform="rotate(15 72.955 19.182)" fill="#fff"/></g><rect y="14.756" width="63.242" height="45.926" rx="5.93" fill="url(#b)"/><path fill-rule="evenodd" clip-rule="evenodd" d="M9.815 28.08a.81.81 0 0 1-.807-.808v-1.53a.84.84 0 0 1 .507-.748l4.15-1.66a.9.9 0 0 1 .6 0l4.15 1.66c.29.116.507.438.507.747v1.531a.81.81 0 0 1-.807.807zm4.104-4.105-4.146 1.66c-.027.014-.073.074-.073.106v1.531c0 .065.05.116.115.116h8.3a.115.115 0 0 0 .116-.116v-1.53c0-.033-.042-.093-.074-.107l-4.15-1.66q-.015-.006-.042-.005c-.018 0-.037 0-.046.005m-4.565 9.177a.35.35 0 0 1-.346-.346v-1.384a.81.81 0 0 1 .807-.807h8.3a.81.81 0 0 1 .807.807v1.384a.35.35 0 0 1-.346.346zm8.877-.692v-1.038a.114.114 0 0 0-.116-.115h-8.3a.114.114 0 0 0-.115.115v1.038z" fill="#fff"/><path d="M9.93 30.962v-3.229c0-.189.156-.345.345-.345.19 0 .346.156.346.345v3.229a.347.347 0 0 1-.346.345.35.35 0 0 1-.345-.345m1.845 0v-3.229c0-.189.157-.345.346-.345.19 0 .346.156.346.345v3.229a.35.35 0 0 1-.346.345.35.35 0 0 1-.346-.345m1.845 0v-3.229c0-.189.156-.345.345-.345.19 0 .346.156.346.345v3.229a.35.35 0 0 1-.346.345.35.35 0 0 1-.346-.345m1.844 0v-3.229c0-.189.157-.345.346-.345s.346.156.346.345v3.229a.35.35 0 0 1-.346.345.35.35 0 0 1-.346-.345m1.846 0v-3.229c0-.189.156-.345.345-.345.19 0 .346.156.346.345v3.229a.35.35 0 0 1-.346.345.35.35 0 0 1-.345-.345m-8.416 2.19a.35.35 0 0 1-.346-.346c0-.19.157-.346.346-.346h10.145c.189 0 .346.157.346.346s-.157.346-.346.346z" fill="#fff"/><path fill-rule="evenodd" clip-rule="evenodd" d="M12.928 25.89a1.04 1.04 0 0 1 1.037-1.038 1.04 1.04 0 0 1 1.038 1.037 1.04 1.04 0 0 1-1.038 1.038 1.04 1.04 0 0 1-1.037-1.038m.691 0c0 .188.157.345.346.345.19 0 .346-.157.346-.346a.35.35 0 0 0-.346-.346.35.35 0 0 0-.346.346" fill="#fff"/><path opacity=".01" fill-rule="evenodd" clip-rule="evenodd" d="M19.499 22.661v11.067H8.432V22.661z" fill="#fff"/><path opacity=".56" d="m52.692 25.363-.374 1.416h-6.994l.38-1.416zm-3.515 8.365-3.69-4.55-.005-1.2h1.824q.654 0 1.09-.22.444-.228.67-.633.232-.411.232-.962 0-.826-.474-1.33-.475-.502-1.518-.502h-1.982l.411-1.67h1.57q1.329 0 2.199.422.874.416 1.306 1.178.438.762.438 1.783 0 .903-.322 1.61-.32.709-1.012 1.162-.69.455-1.807.606l-.063.021 3.33 4.188v.097zm3.525-11.067-.384 1.438-5.671-.022.385-1.416z" fill="#fff"/><defs><linearGradient id="a" x1="58.412" y1="9.244" x2="94.912" y2="44.744" gradientUnits="userSpaceOnUse"><stop stop-color="#FFCC02"/><stop offset="1" stop-color="#FFCC02" stop-opacity=".39"/></linearGradient><linearGradient id="b" x1="26.5" y1="24" x2="63" y2="59.499" gradientUnits="userSpaceOnUse"><stop stop-color="#FFCC02"/><stop offset="1" stop-color="#FFCC02" stop-opacity=".02"/></linearGradient></defs></svg>