<svg width="64" height="64" viewBox="0 0 64 64" fill="none" xmlns="http://www.w3.org/2000/svg"><g clip-path="url(#a)"><rect width="64" height="64" rx="32" fill="#fff" fill-opacity=".42"/><path d="M15 20a4 4 0 0 1 4-4h26a4 4 0 0 1 4 4v53H15z" fill="#fff"/><path d="M17 24a4 4 0 0 1 4-4h22a4 4 0 0 1 4 4v45H17z" fill="url(#b)"/><circle cx="32.368" cy="34.313" r="7.5" fill="#fff"/><path d="m28.868 34.313 2.5 2.5 4.5-4.5" stroke="#7B97F8" stroke-linecap="round"/><rect x="22.06" y="45.813" width="20.615" height="8.038" rx="4.019" fill="#fff"/><circle cx="26.08" cy="49.831" r="1.096" fill="#A1B5FA"/><circle cx="30.272" cy="49.831" r="1.096" fill="#A1B5FA"/><circle cx="34.464" cy="49.831" r="1.096" fill="#A1B5FA"/><circle cx="38.657" cy="49.831" r="1.096" fill="#A1B5FA"/></g><defs><linearGradient id="b" x1="32" y1="20" x2="32" y2="69" gradientUnits="userSpaceOnUse"><stop stop-color="#C8D4FF"/><stop offset="1" stop-color="#fff" stop-opacity="0"/></linearGradient><clipPath id="a"><rect width="64" height="64" rx="32" fill="#fff"/></clipPath></defs></svg>