<svg width="64" height="64" viewBox="0 0 64 64" fill="none" xmlns="http://www.w3.org/2000/svg"><g clip-path="url(#a)"><rect width="64" height="64" rx="32" fill="#222E3E"/><path d="M15 20a4 4 0 0 1 4-4h26a4 4 0 0 1 4 4v53H15z" fill="#19222F"/><path d="M17 24a4 4 0 0 1 4-4h22a4 4 0 0 1 4 4v45H17z" fill="url(#b)"/><circle cx="32.369" cy="34.313" r="7.5" fill="#19222F"/><path d="m28.87 34.313 2.5 2.5 4.5-4.5" stroke="#959CA6" stroke-linecap="round"/><rect x="22.061" y="45.813" width="20.615" height="8.038" rx="4.019" fill="#19222F"/><circle cx="26.081" cy="49.831" r="1.096" fill="#959CA6"/><circle cx="30.272" cy="49.831" r="1.096" fill="#959CA6"/><circle cx="34.465" cy="49.831" r="1.096" fill="#959CA6"/><circle cx="38.657" cy="49.831" r="1.096" fill="#959CA6"/></g><defs><linearGradient id="b" x1="32" y1="30.5" x2="32" y2="74.5" gradientUnits="userSpaceOnUse"><stop stop-color="#2A394E"/><stop offset="1" stop-color="#19222F" stop-opacity="0"/></linearGradient><clipPath id="a"><rect width="64" height="64" rx="32" fill="#fff"/></clipPath></defs></svg>