<svg width="13" height="13" viewBox="0 0 13 13" fill="none" xmlns="http://www.w3.org/2000/svg"><path d="M1.397 7.22A5.11 5.11 0 0 1 6.5 2.112q.871-.001 1.685.25a.407.407 0 0 1 .27.509.407.407 0 0 1-.509.27A5 5 0 0 0 6.5 2.926a4.293 4.293 0 0 0-4.29 4.29 4.293 4.293 0 0 0 4.29 4.29 4.293 4.293 0 0 0 3.57-6.673.404.404 0 0 1 .113-.564.404.404 0 0 1 .564.114c.563.84.86 1.82.86 2.838A5.116 5.116 0 0 1 6.5 12.323 5.11 5.11 0 0 1 1.397 7.22" fill="#2A394E"/><path d="M8.429 3.147 6.863 1.35a.41.41 0 0 1 .038-.574.41.41 0 0 1 .574.038L9.041 2.61a.41.41 0 0 1-.038.574.37.37 0 0 1-.265.103.41.41 0 0 1-.31-.14" fill="#2A394E"/><path d="M6.581 4.453a.41.41 0 0 1 .087-.57l1.825-1.332a.407.407 0 0 1 .482.656L7.15 4.545a.38.38 0 0 1-.239.076.42.42 0 0 1-.33-.168" fill="#2A394E"/></svg>