<svg width="20" height="20" viewBox="0 0 20 20" fill="none" xmlns="http://www.w3.org/2000/svg"><path d="m10.375 8.654-.218.793H6l.218-.793zM8.425 14l-2.348-3.062-.013-.575h1.168q.455 0 .776-.136.32-.141.49-.417.17-.28.17-.705 0-.626-.352-.98-.353-.36-1.084-.36H6L6.218 7h1.014q.782 0 1.283.277.503.273.744.752.244.475.244 1.076 0 .544-.225 1.002a1.7 1.7 0 0 1-.712.731q-.488.277-1.29.277h-.019l2.169 2.83V14zm1.95-7-.218.793-3.272-.027L7.103 7zm.674-1.875V3.15H15V17h-2.185V5.125z" fill="#fff"/></svg>