<svg width="102" height="60" viewBox="0 0 102 60" fill="none" xmlns="http://www.w3.org/2000/svg"><rect width="68.633" height="49.841" rx="5.93" fill="url(#a)"/><path fill-rule="evenodd" clip-rule="evenodd" d="M10.651 14.459a.88.88 0 0 1-.876-.876v-1.661a.91.91 0 0 1 .55-.811l4.505-1.802a.97.97 0 0 1 .65 0l4.505 1.802c.315.125.55.475.55.81v1.662a.88.88 0 0 1-.876.876zm4.454-4.454-4.499 1.801c-.03.016-.08.08-.08.116v1.661c0 .07.055.125.125.125h9.008c.07 0 .125-.055.125-.125v-1.661c0-.036-.045-.1-.08-.116l-4.504-1.8q-.015-.006-.045-.005c-.02 0-.04 0-.05.005m-4.955 9.958a.38.38 0 0 1-.375-.375v-1.501a.88.88 0 0 1 .876-.876h9.008a.88.88 0 0 1 .876.876v1.501c0 .205-.17.375-.375.375zm9.634-.75v-1.126a.124.124 0 0 0-.125-.125h-9.008a.124.124 0 0 0-.125.125v1.126z" fill="#fff"/><path d="M10.777 17.588v-3.504c0-.205.17-.375.376-.375.205 0 .375.17.375.375v3.503c0 .206-.17.376-.375.376a.38.38 0 0 1-.376-.376m2.003.001v-3.504c0-.205.17-.375.375-.375s.375.17.375.375v3.503c0 .206-.17.376-.375.376a.38.38 0 0 1-.376-.376m2.002.001v-3.504c0-.205.17-.375.376-.375.205 0 .375.17.375.375v3.503c0 .206-.17.376-.375.376a.38.38 0 0 1-.376-.376m2 .001v-3.504c0-.205.17-.375.376-.375.205 0 .375.17.375.375v3.503c0 .206-.17.376-.375.376a.38.38 0 0 1-.376-.376m2.002.001v-3.504c0-.205.17-.375.375-.375.206 0 .376.17.376.375v3.503c0 .206-.17.376-.375.376a.38.38 0 0 1-.376-.376M9.65 19.964a.38.38 0 0 1-.375-.376c0-.205.17-.375.376-.375h11.01c.205 0 .375.17.375.375s-.17.376-.375.376z" fill="#fff"/><path fill-rule="evenodd" clip-rule="evenodd" d="M14.03 12.082c0-.62.505-1.126 1.125-1.126s1.126.505 1.126 1.126a1.127 1.127 0 0 1-2.252 0m.75 0c0 .205.17.375.375.375.206 0 .376-.17.376-.375a.38.38 0 0 0-.376-.375.38.38 0 0 0-.375.375" fill="#fff"/><path opacity=".01" fill-rule="evenodd" clip-rule="evenodd" d="M21.161 8.58v12.01H9.151V8.58z" fill="#fff"/><path d="m57.183 11.511-.406 1.537h-7.59l.412-1.537zm-3.815 9.079-4.003-4.938-.006-1.302h1.979q.709 0 1.184-.24.48-.247.726-.687.252-.446.252-1.044 0-.897-.515-1.442-.515-.546-1.647-.546h-2.15l.446-1.812h1.704q1.44 0 2.385.458.95.45 1.418 1.278.475.827.475 1.935 0 .98-.349 1.748a2.96 2.96 0 0 1-1.098 1.261q-.75.492-1.962.657l-.068.023 3.614 4.545v.106zm3.827-12.01-.418 1.56-6.154-.024.418-1.537z" fill="#fff"/><rect x="24" y="32" width="77.419" height="27.646" rx="13.823" fill="url(#b)"/><path fill-rule="evenodd" clip-rule="evenodd" d="M37.824 52.575a6.75 6.75 0 1 1 0-13.5 6.75 6.75 0 0 1 0 13.5" fill="#EBF9EE"/><path d="m36.506 48.092-1.91-1.91a.51.51 0 0 1 0-.716.51.51 0 0 1 .716 0l1.552 1.553 3.47-3.47a.51.51 0 0 1 .715 0 .51.51 0 0 1 0 .716l-3.827 3.827a.506.506 0 0 1-.716 0Z" fill="#33C659" stroke="#3DCB62" stroke-width=".715"/><path d="M55.591 44.436q0 .531-.25 1.001t-.801.772q-.551.29-1.413.29h-1.262v2.824h-1.141v-6.96h2.403q.802 0 1.352.28.56.27.832.741.28.471.28 1.052m-2.464 1.132q.651 0 .972-.29.32-.302.32-.842 0-1.142-1.292-1.142h-1.262v2.274zm4.695-.962q.25-.42.66-.65.422-.241.992-.241v1.182h-.29q-.67 0-1.022.34-.34.34-.34 1.182v2.904H56.68v-5.518h1.142zm3.283-1.532a.7.7 0 0 1-.521-.21.7.7 0 0 1-.21-.521q0-.31.21-.521.21-.21.52-.21.3 0 .511.21.21.21.21.52t-.21.522-.51.21m.56.73v5.52h-1.141v-5.52zm8.18-.09q.65 0 1.161.271.521.27.811.801.3.531.301 1.282v3.255h-1.132V46.24q0-.741-.37-1.132-.371-.4-1.012-.4t-1.021.4q-.37.39-.37 1.132v3.084H67.08V46.24q0-.741-.37-1.132-.37-.4-1.012-.4-.64 0-1.021.4-.37.39-.37 1.132v3.084h-1.143v-5.518h1.142v.63q.28-.34.711-.53t.922-.19q.66 0 1.181.28.522.281.802.811.25-.5.78-.79.532-.301 1.142-.301m3.345 2.825q0-.831.34-1.472a2.54 2.54 0 0 1 2.264-1.352q.65 0 1.132.26.49.25.781.631v-.801h1.152v5.518h-1.152v-.821q-.29.39-.791.651-.501.26-1.142.26-.711 0-1.302-.36a2.7 2.7 0 0 1-.941-1.022 3.2 3.2 0 0 1-.34-1.492m4.517.02q0-.57-.24-.991a1.6 1.6 0 0 0-.611-.641 1.6 1.6 0 0 0-.822-.22q-.44 0-.82.22-.38.21-.622.63-.23.41-.23.982 0 .57.23 1.002.24.43.621.66a1.65 1.65 0 0 0 1.643 0q.38-.22.61-.64.24-.431.241-1.002m3.793-1.953q.25-.42.661-.65.42-.241.992-.241v1.182h-.29q-.672 0-1.022.34-.34.34-.34 1.182v2.904h-1.143v-5.518H81.5zm7.67-.801-3.386 8.112h-1.181l1.121-2.684-2.173-5.428h1.272l1.552 4.206 1.613-4.206z" fill="#EBF9EE"/><defs><linearGradient id="a" x1="28.759" y1="10.032" x2="64" y2="52" gradientUnits="userSpaceOnUse"><stop stop-color="#1F7735"/><stop offset="1" stop-color="#1F7735" stop-opacity="0"/></linearGradient><linearGradient id="b" x1="27.617" y1="32.715" x2="103.954" y2="64.664" gradientUnits="userSpaceOnUse"><stop stop-color="#33C659"/><stop offset="1" stop-color="#1F7735"/></linearGradient></defs></svg>