<svg width="16" height="16" viewBox="0 0 16 16" fill="none" xmlns="http://www.w3.org/2000/svg"><g fill="#2A394E"><path fill-rule="evenodd" clip-rule="evenodd" d="M.833 8A7.173 7.173 0 0 1 8 .833 7.173 7.173 0 0 1 15.167 8 7.173 7.173 0 0 1 8 15.166 7.173 7.173 0 0 1 .833 8m1 0c0 3.4 2.767 6.166 6.167 6.166S14.167 11.4 14.167 8 11.4 1.833 8 1.833A6.174 6.174 0 0 0 1.833 8"/><path d="M6.7 10.24 4.813 8.353a.503.503 0 0 1 0-.706.503.503 0 0 1 .707 0L7.053 9.18l3.427-3.427a.503.503 0 0 1 .706 0 .503.503 0 0 1 0 .707l-3.78 3.78a.5.5 0 0 1-.706 0"/></g></svg>