<svg width="24" height="24" viewBox="0 0 24 24" fill="none" xmlns="http://www.w3.org/2000/svg"><path fill-rule="evenodd" clip-rule="evenodd" d="M1.25 12C1.25 6.07 6.07 1.25 12 1.25S22.75 6.07 22.75 12 17.93 22.75 12 22.75 1.25 17.93 1.25 12m1.5 0c0 5.1 4.15 9.25 9.25 9.25s9.25-4.15 9.25-9.25S17.1 2.75 12 2.75 2.75 6.9 2.75 12" fill="#FB2A23"/><path d="M11.25 13V8c0-.41.34-.75.75-.75s.75.34.75.75v5c0 .41-.34.75-.75.75s-.75-.34-.75-.75m.37 3.92q-.18-.075-.33-.21c-.09-.1-.16-.2-.21-.33A1 1 0 0 1 11 16c0-.13.03-.26.08-.38q.075-.18.21-.33.15-.135.33-.21a1 1 0 0 1 .76 0q.18.075.33.21.135.15.21.33c.05.12.08.25.08.38s-.03.26-.08.38c-.05.13-.12.23-.21.33q-.15.135-.33.21c-.12.05-.25.08-.38.08s-.26-.03-.38-.08" fill="#FB2A23"/><path opacity=".01" fill-rule="evenodd" clip-rule="evenodd" d="M24 0v24H0V0z" fill="#FB2A23"/></svg>