<svg width="24" height="24" viewBox="0 0 24 24" fill="none" xmlns="http://www.w3.org/2000/svg"><path fill-rule="evenodd" clip-rule="evenodd" d="M9.625 20.152a.697.697 0 0 1 .502.856.704.704 0 0 1-.679.521c-.056 0-.12-.009-.177-.018-4.39-1.155-7.45-5.14-7.45-9.683 0-5.522 4.483-10.01 10-10.01 4.232 0 7.088 2.226 8.604 3.855V3.448c0-.382.316-.699.698-.699s.697.317.697.699v4.301a.8.8 0 0 1-.093.289.6.6 0 0 1-.195.214.8.8 0 0 1-.223.112.8.8 0 0 1-.196.028h-4.12a.703.703 0 0 1 0-1.406h2.734c-1.237-1.425-3.879-3.78-7.907-3.78a8.617 8.617 0 0 0-2.195 16.946m5.823 1.006a9.8 9.8 0 0 1-2.936.655q-.015.005-.031.006a.693.693 0 0 1-.689-.652l-.009-.037c0-.373.289-.69.651-.708a8.7 8.7 0 0 0 2.512-.568.717.717 0 0 1 .902.4.7.7 0 0 1-.4.904m4.624-3.678a10.3 10.3 0 0 1-2.028 2.188.75.75 0 0 1-.438.149.7.7 0 0 1-.549-.26.72.72 0 0 1-.148-.448c0-.214.102-.41.26-.54a8.6 8.6 0 0 0 1.744-1.862l.014-.018v-.01a.715.715 0 0 1 .968-.167.68.68 0 0 1 .177.968m1.748-5.652a10 10 0 0 1-.446 2.961.68.68 0 0 1-.66.484.695.695 0 0 1-.698-.689c0-.074.009-.14.028-.214.25-.81.381-1.667.381-2.542 0-.381.316-.698.698-.698s.688.307.697.689z" fill="#949CA6"/><path d="m14.92 15.371-2.884-1.72c-.717-.429-1.247-1.368-1.247-2.196V7.641c0-.381.316-.698.698-.698s.697.317.697.698v3.814c0 .335.28.828.568.995l2.884 1.721a.696.696 0 0 1 .241.958.72.72 0 0 1-.604.345.6.6 0 0 1-.354-.103" fill="#949CA6"/></svg>