<svg width="16" height="16" viewBox="0 0 16 16" fill="none" xmlns="http://www.w3.org/2000/svg"><g fill="#FB2A23"><path d="M13.946 4.486C10.42 4.133 6.9 4 3.413 4.353l-1.36.133a.503.503 0 0 1-.107-1l1.36-.133c3.547-.36 7.14-.22 10.74.133a.5.5 0 0 1 .447.547.494.494 0 0 1-.493.453z"/><path d="M5.58 3.806a.5.5 0 0 1-.406-.573l.147-.873c.106-.64.253-1.527 1.806-1.527h1.747c1.56 0 1.707.92 1.806 1.533l.147.867a.495.495 0 0 1-.406.573.495.495 0 0 1-.574-.406l-.146-.867c-.094-.58-.114-.693-.82-.693H7.134c-.707 0-.72.093-.82.686l-.153.867a.5.5 0 0 1-.494.42q-.038.002-.086-.007m.279 11.361c-2.326 0-2.42-1.287-2.493-2.327l-.433-6.713a.505.505 0 0 1 .466-.534.505.505 0 0 1 .534.467l.433 6.713c.073 1.014.1 1.394 1.493 1.394h4.28c1.4 0 1.427-.38 1.494-1.394l.433-6.713a.51.51 0 0 1 .533-.467.5.5 0 0 1 .467.534l-.433 6.713c-.074 1.04-.167 2.327-2.494 2.327z"/><path d="M6.887 11.5a.504.504 0 0 1-.5-.5c0-.273.226-.5.5-.5h2.22c.273 0 .5.227.5.5s-.227.5-.5.5zm-.554-2.667a.504.504 0 0 1-.5-.5c0-.273.227-.5.5-.5h3.334c.273 0 .5.227.5.5s-.227.5-.5.5z"/></g></svg>