<svg width="37" height="37" viewBox="0 0 37 37" fill="none" xmlns="http://www.w3.org/2000/svg"><circle cx="18.5" cy="18.5" r="18.5" fill="#FFCC02"/><path d="m16.375 17.654-.218.793H12l.218-.793zM14.425 23l-2.348-3.062-.013-.575h1.168q.455 0 .776-.136.32-.141.49-.417.17-.28.17-.704 0-.627-.352-.982-.353-.358-1.084-.358H12l.218-.766h1.014q.782 0 1.283.277.503.273.744.752.244.475.244 1.076 0 .544-.225 1.002a1.7 1.7 0 0 1-.712.731q-.487.277-1.29.277h-.019l2.169 2.83V23zm1.95-7-.218.793-3.272-.027.218-.766zm.481-1.876v-1.976h3.951V26h-2.184V14.124z" fill="#fff"/></svg>