<svg width="42" height="45" viewBox="0 0 42 45" fill="none" xmlns="http://www.w3.org/2000/svg"><path d="M6.055 1.496v35.995c0 .573.465 1.038 1.038 1.038h33.771" stroke="#A1B5FA" stroke-width="1.038" stroke-linecap="round"/><path d="M36.07 43.493V8.438c0-.574-.465-1.039-1.038-1.039H1.26" stroke="#A1B5FA" stroke-width="1.038" stroke-linecap="round"/><path fill-rule="evenodd" clip-rule="evenodd" d="M29.554 11.926h-4.617l6.66 6.66v12.578c0 1.147-.93 2.076-2.076 2.076H13.692a2.077 2.077 0 0 1-2.077-2.076V14.003c0-1.147.93-2.077 2.077-2.077z" fill="#436AF5"/><path d="m24.934 11.926 6.66 6.66h-5.622a1.04 1.04 0 0 1-1.038-1.038z" fill="#C7D2FC"/><path d="M26.266 27.912H16.94m5.33-4.839h-5.33" stroke="#fff" stroke-width="2.077" stroke-linecap="round"/></svg>