<svg width="13" height="14" viewBox="0 0 13 14" fill="none" xmlns="http://www.w3.org/2000/svg"><path fill-rule="evenodd" clip-rule="evenodd" d="M4.874 12.824c-2.942 0-4.198-1.257-4.198-4.198v-3.25c0-2.942 1.256-4.198 4.198-4.198h3.25c2.94 0 4.198 1.256 4.198 4.198v3.25c0 2.94-1.257 4.198-4.198 4.198zM1.488 5.376v3.25c0 2.497.889 3.385 3.386 3.385h3.25c2.497 0 3.385-.888 3.385-3.385v-3.25c0-2.497-.888-3.386-3.385-3.386h-3.25c-2.497 0-3.386.889-3.386 3.386" fill="#fff"/><path d="M6.212 4.74 4.587 6.365a.41.41 0 0 0 0 .574.41.41 0 0 0 .574 0L6.499 5.6l1.338 1.338a.41.41 0 0 0 .574 0 .41.41 0 0 0 0-.574L6.786 4.74a.4.4 0 0 0-.287-.12.4.4 0 0 0-.287.12" fill="#fff"/><path d="M6.094 5.026v4.333a.41.41 0 0 0 .406.407.41.41 0 0 0 .406-.407V5.026a.406.406 0 1 0-.812 0" fill="#fff"/></svg>