<svg width="26" height="26" viewBox="0 0 26 26" fill="none" xmlns="http://www.w3.org/2000/svg">
<path d="M8.63357 17.3658C8.31941 17.0516 8.31941 16.5316 8.63357 16.2174L16.2169 8.63411C16.5311 8.31994 17.0511 8.31994 17.3652 8.63411C17.6794 8.94827 17.6794 9.46827 17.3652 9.78244L9.7819 17.3658C9.6194 17.5283 9.41357 17.6041 9.20774 17.6041C9.00191 17.6041 8.79607 17.5283 8.63357 17.3658Z" fill="#2A394E"/>
<path d="M16.2169 17.3658L8.63357 9.78244C8.31941 9.46827 8.31941 8.94827 8.63357 8.63411C8.94774 8.31994 9.46774 8.31994 9.7819 8.63411L17.3652 16.2174C17.6794 16.5316 17.6794 17.0516 17.3652 17.3658C17.2027 17.5283 16.9969 17.6041 16.7911 17.6041C16.5852 17.6041 16.3794 17.5283 16.2169 17.3658Z" fill="#2A394E"/>
</svg>
