<svg width="12" height="12" viewBox="0 0 12 12" fill="none" xmlns="http://www.w3.org/2000/svg">
<path fill-rule="evenodd" clip-rule="evenodd" d="M4.97 10.825L4.465 10.15C4.36 10.01 4.22 9.93 4.07 9.92C3.92 9.915 3.77 9.98 3.65 10.105L3.365 9.85L3.64 10.105C2.92 10.875 2.365 10.815 2.1 10.71C1.83 10.605 1.375 10.26 1.375 9.15V3.52C1.375 1.3 2.015 0.625 4.11 0.625H7.89C9.985 0.625 10.625 1.3 10.625 3.52V9.15C10.625 10.255 10.17 10.6 9.9 10.71C9.635 10.815 9.085 10.875 8.36 10.105C8.24 9.975 8.095 9.905 7.935 9.92C7.785 9.93 7.64 10.01 7.535 10.15L7.03 10.825C6.77 11.175 6.39 11.375 6 11.375C5.61 11.375 5.23 11.175 4.97 10.825ZM4.105 9.165C4.475 9.185 4.825 9.38 5.06 9.695L5.565 10.37C5.81 10.695 6.185 10.695 6.43 10.37L6.935 9.695C7.175 9.38 7.52 9.185 7.895 9.165C8.265 9.145 8.635 9.3 8.905 9.59C9.285 9.995 9.535 10.045 9.62 10.01C9.74 9.96 9.87 9.67 9.87 9.15V3.52C9.87 1.715 9.555 1.375 7.885 1.375H4.11C2.44 1.375 2.125 1.715 2.125 3.52V9.15C2.125 9.675 2.255 9.965 2.375 10.01C2.46 10.045 2.71 9.995 3.09 9.59C3.36 9.315 3.695 9.165 4.04 9.165C4.06 9.165 4.085 9.165 4.105 9.165Z" fill="#436AF5"/>
<path d="M4 3.875C3.795 3.875 3.625 3.705 3.625 3.5C3.625 3.295 3.795 3.125 4 3.125H8C8.205 3.125 8.375 3.295 8.375 3.5C8.375 3.705 8.205 3.875 8 3.875H4Z" fill="#436AF5"/>
<path d="M4.5 5.875C4.295 5.875 4.125 5.705 4.125 5.5C4.125 5.295 4.295 5.125 4.5 5.125H7.5C7.705 5.125 7.875 5.295 7.875 5.5C7.875 5.705 7.705 5.875 7.5 5.875H4.5Z" fill="#436AF5"/>
</svg>
