<svg width="12" height="16" viewBox="0 0 12 16" fill="none" xmlns="http://www.w3.org/2000/svg">
<path d="M9.54242 13.2987H11.0713V14.4548H9.54242V16H8.42095V14.4548H6.89208V13.2987H8.42095V11.7535H9.54242V13.2987Z" fill="#2A2A2A"/>
<path d="M5.21061 9.44209C6.17633 9.43964 7.10261 9.65185 7.90841 10.1112L8.39905 10.3904L7.85584 11.402L7.3652 11.1228C6.75108 10.7727 6.01806 10.5951 5.21134 10.5974H5.20842C4.26342 10.5947 3.42126 10.8372 2.75083 11.3155C2.17673 11.725 1.70375 12.3253 1.39719 13.1504C2.50783 13.8009 3.79842 14.0696 5.20842 14.0657L5.76915 14.0642L5.77207 15.2202L5.21134 15.2218C3.49454 15.2265 1.83792 14.8641 0.412986 13.8835L0.0712891 13.6487L0.185188 13.2423C0.542444 11.9669 1.21694 11.0038 2.11271 10.3649C3.00309 9.7297 4.07821 9.43935 5.20842 9.44209L5.21134 9.44134L5.21061 9.44209Z" fill="#2A2A2A"/>
<path fill-rule="evenodd" clip-rule="evenodd" d="M5.15074 0C7.2847 0 9.016 1.78351 9.016 3.98457C9.01592 6.18556 7.28466 7.96914 5.15074 7.96914C3.016 7.96908 1.28483 6.18564 1.28475 3.98457C1.28475 1.78343 3.01596 5.71751e-05 5.15074 0ZM5.15074 1.15608C3.63489 1.15614 2.40622 2.42236 2.40622 3.98457C2.40629 5.54671 3.63494 6.813 5.15074 6.81306C6.6655 6.81306 7.89446 5.54686 7.89453 3.98457C7.89453 2.42222 6.66555 1.15608 5.15074 1.15608Z" fill="#2A2A2A"/>
</svg>
