<svg width="16" height="16" viewBox="0 0 16 16" fill="none" xmlns="http://www.w3.org/2000/svg">
<path fill-rule="evenodd" clip-rule="evenodd" d="M2.06948 9.43805H3.15396V14.0745H2.06948V16H1.08447V14.0745H0V9.43805H1.08447V7.43032H2.06948V9.43805ZM1.18233 12.87H1.97082V10.6425H1.18233V12.87Z" fill="#2A2A2A"/>
<path fill-rule="evenodd" clip-rule="evenodd" d="M8.18088 3.91455H9.26535V13.9027H8.18088V16H7.19507V13.9027H6.11059V3.91455H7.19507V2.00692H8.18088V3.91455ZM7.29373 12.6975H8.08222V5.11902H7.29373V12.6975Z" fill="#2A2A2A"/>
<path fill-rule="evenodd" clip-rule="evenodd" d="M14.9163 2.10783H16V10.409H14.9163V12.1831H13.9305V10.409H12.846V2.10783H13.9305V0H14.9163V2.10783ZM14.0292 9.20448H14.8177V3.31231H14.0292V9.20448Z" fill="#2A2A2A"/>
</svg>
