<svg width="20" height="20" viewBox="0 0 20 20" fill="none" xmlns="http://www.w3.org/2000/svg">
<path d="M8.23425 2.00005L12.0455 2L12.0451 3.17073L8.2339 3.17078L8.23425 2.00005Z" fill="#2A2A2A"/>
<path d="M9.50828 10.5527L7.65404 10.552L7.65365 9.38127L9.50789 9.38192L9.5078 7.48253L10.6512 7.4829L10.6513 9.38153L12.5055 9.38142L12.5059 10.5522L10.6517 10.5523L10.651 12.4501L9.50765 12.4505L9.50828 10.5527Z" fill="#2A2A2A"/>
<path fill-rule="evenodd" clip-rule="evenodd" d="M9.41568 15.1037L4 15.055L4.04522 9.77872C4.07437 6.39875 6.7743 3.68282 10.0753 3.71248C13.3761 3.74238 16.0285 6.50631 15.9998 9.88614L15.9545 15.1624L13.5906 15.1412C13.5587 15.4788 13.4808 15.7887 13.3593 16.0705C13.134 16.593 12.7787 16.9847 12.3813 17.2698C11.603 17.828 10.6368 17.9997 9.98785 17.9998L9.41617 18L9.41568 15.1037ZM14.8565 9.87587C14.8797 7.14257 12.7347 4.90735 10.0653 4.88312C7.39569 4.85913 5.21211 7.05555 5.1885 9.789L5.15331 13.8946L14.8213 13.9815L14.8565 9.87587ZM10.5589 16.774C10.952 16.7033 11.3792 16.5596 11.7256 16.3111C11.9808 16.128 12.1858 15.8944 12.3138 15.5977C12.3715 15.4638 12.4152 15.309 12.4406 15.1308L10.559 15.1139L10.5589 16.774Z" fill="#2A2A2A"/>
</svg>
