<svg width="16" height="16" viewBox="0 0 16 16" fill="none" xmlns="http://www.w3.org/2000/svg">
<path fill-rule="evenodd" clip-rule="evenodd" d="M15.4475 13.3579L6.81923 13.346L3.08126 15.5001L2.76516 14.9545C2.20908 13.9945 1.87094 13.3954 1.53495 12.7979C1.1997 12.2018 0.866039 11.6065 0.315308 10.6522L0 10.1064L3.70966 7.96758L7.46521 1.44883L8.0131 0.500061L15.4475 13.3579ZM4.90234 8.4302L7.01394 12.0822L13.2536 12.0911L8.01454 3.02883L4.90234 8.4302ZM1.72521 10.5704C2.10246 11.2288 2.37173 11.7043 2.63868 12.179C2.9045 12.6517 3.17073 13.123 3.54512 13.7742L5.78446 12.4835L3.93999 9.29315L1.72521 10.5704Z" fill="#2A2A2A"/>
<path d="M12.3057 2.33881C14.5902 3.66712 15.9923 6.09251 15.9986 8.72785L16 9.35933L14.7344 9.36243L14.733 8.73095C14.7278 6.54575 13.5658 4.5356 11.6687 3.43234L11.1219 3.11371L11.7585 2.02198L12.3057 2.33881Z" fill="#2A2A2A"/>
</svg>
