<svg width="16" height="17" viewBox="0 0 16 17" fill="none" xmlns="http://www.w3.org/2000/svg">
<path d="M5.52513 12.9467C4.95211 12.6565 4.46094 12.2249 4.10373 11.689C3.80606 11.2425 3.80606 10.6695 4.10373 10.223C4.46094 9.68718 4.95211 9.25555 5.52513 8.97276C5.80048 8.83136 6.13536 8.95043 6.27676 9.22578C6.41815 9.50113 6.30653 9.83602 6.02373 9.97741C5.62187 10.1783 5.27955 10.4835 5.03397 10.8556C4.98932 10.9225 4.98932 11.0118 5.03397 11.0862C5.27955 11.4583 5.62187 11.7635 6.02373 11.9644C6.29908 12.1058 6.41071 12.4407 6.27676 12.716C6.17257 12.8946 5.97164 13.0062 5.77071 13.0062C5.68885 13.0062 5.59955 12.9839 5.52513 12.9467Z" fill="#F7F7F7"/>
<path d="M9.89068 12.7007C9.74928 12.4253 9.86091 12.0905 10.1437 11.9491C10.5456 11.7481 10.8879 11.443 11.1335 11.0709C11.1781 11.0039 11.1781 10.9146 11.1335 10.8402C10.8879 10.4681 10.5456 10.163 10.1437 9.96208C9.86835 9.82068 9.75672 9.4858 9.89068 9.21045C10.0321 8.9351 10.367 8.82347 10.6423 8.95743C11.2153 9.24766 11.7065 9.67929 12.0637 10.2151C12.3614 10.6616 12.3614 11.2346 12.0637 11.6811C11.7065 12.217 11.2153 12.6486 10.6423 12.9314C10.553 12.9835 10.4711 13.0058 10.3893 13.0058C10.1809 13.0058 9.98742 12.8942 9.89068 12.7007Z" fill="#F7F7F7"/>
<path fill-rule="evenodd" clip-rule="evenodd" d="M5.76744 16.7266C1.72651 16.7266 0 15.0001 0 10.9591V6.494C0 2.45307 1.72651 0.726562 5.76744 0.726562H10.2326C14.2735 0.726562 16 2.45307 16 6.494V10.9591C16 15.0001 14.2735 16.7266 10.2326 16.7266H5.76744ZM1.11628 6.494V10.9591C1.11628 14.3898 2.33674 15.6103 5.76744 15.6103H10.2326C13.6633 15.6103 14.8837 14.3898 14.8837 10.9591V6.494C14.8837 3.06331 13.6633 1.84284 10.2326 1.84284H5.76744C2.33674 1.84284 1.11628 3.06331 1.11628 6.494Z" fill="#F7F7F7"/>
<path d="M0.174754 5.75802C0.174754 5.4529 0.420335 5.19988 0.732894 5.19988L15.0362 5.19243C15.3413 5.19243 15.5943 5.44546 15.5943 5.75057C15.5943 6.05569 15.3487 6.30871 15.0362 6.30871L0.732894 6.31616C0.427777 6.31616 0.174754 6.06313 0.174754 5.75802Z" fill="#F7F7F7"/>
</svg>
