<svg width="15" height="16" viewBox="0 0 15 16" fill="none" xmlns="http://www.w3.org/2000/svg">
<path fill-rule="evenodd" clip-rule="evenodd" d="M15 16H0V6.25065L3.51811 7.20992L6.04406 3.8204L6.43744 3.89874L10.3431 4.68549L15 0V16ZM12.0061 10.0235L11.7618 10.2536L7.93314 9.41598L5.39642 12.8197L5.00718 12.7463L1.27208 12.0363V14.7199H13.7279V8.39587L12.0061 10.0235ZM11.0024 5.83311L10.7614 6.0748L10.4276 6.00813L6.57989 5.23388L4.27672 8.3242L4.01833 8.67174L1.27208 7.92333V10.7328L4.85396 11.4145L7.40559 7.99083L11.3775 8.86092L13.7279 6.63902V3.09032L11.0024 5.83311Z" fill="#2A2A2A"/>
</svg>
