<svg width="20" height="21" viewBox="0 0 20 21" fill="none" xmlns="http://www.w3.org/2000/svg">
<path d="M16.1673 15.7639V17.1072L5.98487 17.1072V15.7639L16.1673 15.7639Z" fill="#F7F7F7"/>
<path d="M18.0004 5.91313L17.1695 15.3161L4.98269 15.3161L4.15174 5.91313L18.0004 5.91313ZM6.19757 13.9728H15.9537L16.5478 7.25641L5.60353 7.25641L6.19757 13.9728Z" fill="#F7F7F7"/>
<path d="M2.00043 4.56985L2.00043 3.22656L4.98011 3.22656L5.65975 6.66348L4.35754 6.92759L3.89061 4.56985L2.00043 4.56985Z" fill="#F7F7F7"/>
<path d="M6.64893 16.4355H7.97707V17.5549C7.97707 17.9259 7.67976 18.2266 7.313 18.2266L-nan -nanL7.313 18.2266C6.94624 18.2266 6.64893 17.9259 6.64893 17.5549V16.4355Z" fill="#F7F7F7"/>
<path d="M14.1751 16.4355H15.5032V17.5549C15.5032 17.9259 15.2059 18.2266 14.8392 18.2266L-nan -nanL14.8392 18.2266C14.4724 18.2266 14.1751 17.9259 14.1751 17.5549V16.4355Z" fill="#F7F7F7"/>
</svg>
