<svg width="14" height="16" viewBox="0 0 14 16" fill="none" xmlns="http://www.w3.org/2000/svg">
<path d="M5.86672 9.92481C6.92059 9.92224 7.93142 10.1453 8.81076 10.6281L9.34619 10.9216L8.7534 11.9849L8.21797 11.6914C7.54781 11.3234 6.74788 11.1368 5.86752 11.1392H5.86433C4.83307 11.1363 3.91404 11.3913 3.18242 11.894C2.55592 12.3244 2.03977 12.9554 1.70522 13.8227C2.91724 14.5064 4.32563 14.7888 5.86433 14.7848L6.47625 14.7832L6.47943 15.9984L5.86752 16C3.99401 16.0049 2.18618 15.624 0.631186 14.5933L0.258301 14.3465L0.382596 13.9193C0.772461 12.5787 1.50852 11.5664 2.48605 10.8947C3.45771 10.2271 4.63096 9.92193 5.86433 9.92481L5.86752 9.92402L5.86672 9.92481Z" fill="#2A2A2A"/>
<path d="M13.2583 12.5569L10.378 15.4169C10.158 15.6353 9.80801 15.6551 9.5645 15.4628L7.93273 14.174L8.69444 13.2231L9.89835 14.174L12.393 11.6978L13.2583 12.5569Z" fill="#2A2A2A"/>
<path fill-rule="evenodd" clip-rule="evenodd" d="M5.80139 0C8.13013 0 10.0195 1.87469 10.0195 4.18828C10.0194 6.5018 8.13008 8.37656 5.80139 8.37656C3.4718 8.3765 1.58261 6.50188 1.58252 4.18828C1.58252 1.87461 3.47175 6.00981e-05 5.80139 0ZM5.80139 1.21519C4.14718 1.21525 2.80635 2.54621 2.80635 4.18828C2.80644 5.83028 4.14723 7.16131 5.80139 7.16137C7.45441 7.16137 8.79554 5.83043 8.79563 4.18828C8.79563 2.54605 7.45446 1.21519 5.80139 1.21519Z" fill="#2A2A2A"/>
</svg>
