<svg width="16" height="14" viewBox="0 0 16 14" fill="none" xmlns="http://www.w3.org/2000/svg">
<path d="M14.8455 10.9723H8.59827L9.43555 10.4167L8.34423 8.5923L8.07441 8.13992L5.98271 9.13977V4.57734H8.42465V3.43636H4.82826V5.16863H3.78354L0 7.79748L0.66366 8.73047L1.13641 8.40288L4.14882 6.30961H4.82826V9.69168L3.71665 10.2235L3.71439 10.225L4.21496 11.2531L5.65502 10.5727L5.98271 10.4174V10.407L7.62044 9.62409L7.88726 10.069L3.99399 12.6518L0.196167 12.8613L0.260053 14.0001L4.21721 13.7832L4.37505 13.7742L4.50658 13.6873L6.87862 12.1133H16V3.43636H14.8455V10.9723Z" fill="#2A2A2A"/>
<path d="M9.34536 0.000803859V1.14178H10.8636C11.2511 1.14665 11.5918 1.34422 11.7911 1.64244L9.34536 1.64319L9.34611 2.78416L9.92334 2.78342H11.8422C11.6518 3.13245 11.2786 3.36938 10.8493 3.36951L9.34761 3.37025V4.87447L12.6704 7.32728L13.3619 6.41286L12.8989 6.0719L10.7847 4.51049H10.8493C11.9253 4.51033 12.8251 3.77397 13.0658 2.78342L13.4408 2.78416H14.018L14.0173 1.64244H13.0432C12.9928 1.46577 12.9221 1.29799 12.832 1.14178H14.0173V0.000803859H10.8786C10.8689 0.000681018 10.8591 6.24867e-05 10.8493 6.10352e-05L9.34536 0.000803859Z" fill="#2A2A2A"/>
</svg>
