<svg width="16" height="16" viewBox="0 0 16 16" fill="none" xmlns="http://www.w3.org/2000/svg">
<path d="M16.0039 7.93933C16.0038 11.5195 13.71 14.5573 10.5277 15.6384L9.46209 16L10.4256 12.3694L11.5901 12.685L11.243 13.9967C13.3618 12.824 14.7977 10.5504 14.7978 7.93933H16.0039Z" fill="#2A2A2A"/>
<path fill-rule="evenodd" clip-rule="evenodd" d="M12.4067 9.23836H9.1904V12.4867H3.15978V6.39603H6.37611V3.14766H12.4067V9.23836ZM4.3659 11.2686H7.98428V7.61418H4.3659V11.2686ZM7.58223 6.39603H9.1904V8.02022H11.2006V4.3658H7.58223V6.39603Z" fill="#2A2A2A"/>
<path d="M5.58223 3.63063L4.41773 3.31499L4.7648 2.00327C2.64608 3.1761 1.21003 5.44958 1.21003 8.06067H0.00390625C0.00390625 4.48052 2.29782 1.44274 5.48015 0.361636L6.54572 0L5.58223 3.63063Z" fill="#2A2A2A"/>
</svg>
