<svg width="16" height="17" viewBox="0 0 16 17" fill="none" xmlns="http://www.w3.org/2000/svg">
<path d="M5.35984 11.2593C5.16651 11.066 5.16651 10.746 5.35984 10.5527L9.7265 6.18602C9.91984 5.99268 10.2398 5.99268 10.4332 6.18602C10.6265 6.37935 10.6265 6.69935 10.4332 6.89268L6.06651 11.2593C5.96651 11.3593 5.83984 11.406 5.71318 11.406C5.58651 11.406 5.45984 11.3593 5.35984 11.2593Z" fill="#F7F7F7"/>
<path fill-rule="evenodd" clip-rule="evenodd" d="M4.66667 6.81219C4.66667 6.08553 5.26001 5.49219 5.98667 5.49219C6.71334 5.49219 7.30666 6.08553 7.30666 6.81219C7.30666 7.53886 6.71334 8.13218 5.98667 8.13218C5.26001 8.13218 4.66667 7.53886 4.66667 6.81219ZM5.66667 6.81887C5.66667 6.99887 5.80667 7.13885 5.98667 7.13885C6.16667 7.13885 6.30666 6.99887 6.30666 6.81887C6.30666 6.63887 6.16001 6.49886 5.98667 6.49886C5.81334 6.49886 5.66667 6.63887 5.66667 6.81887Z" fill="#F7F7F7"/>
<path fill-rule="evenodd" clip-rule="evenodd" d="M9.02604 10.6325C9.02604 9.90582 9.61936 9.3125 10.346 9.3125C11.0727 9.3125 11.666 9.90582 11.666 10.6325C11.666 11.3592 11.0727 11.9525 10.346 11.9525C9.61936 11.9525 9.02604 11.3592 9.02604 10.6325ZM10.026 10.6392C10.026 10.8192 10.166 10.9592 10.346 10.9592C10.526 10.9592 10.666 10.8192 10.666 10.6392C10.666 10.4592 10.526 10.3192 10.346 10.3192C10.1727 10.3192 10.026 10.4592 10.026 10.6392Z" fill="#F7F7F7"/>
<path fill-rule="evenodd" clip-rule="evenodd" d="M0.833334 8.72721C0.833334 4.77388 4.04667 1.56055 8 1.56055C11.9533 1.56055 15.1667 4.77388 15.1667 8.72721C15.1667 12.6805 11.9533 15.8939 8 15.8939C4.04667 15.8939 0.833334 12.6805 0.833334 8.72721ZM1.83333 8.72721C1.83333 12.1272 4.6 14.8939 8 14.8939C11.4 14.8939 14.1667 12.1272 14.1667 8.72721C14.1667 5.32721 11.4 2.56055 8 2.56055C4.6 2.56055 1.83333 5.32721 1.83333 8.72721Z" fill="#F7F7F7"/>
</svg>
