<svg width="12" height="16" viewBox="0 0 12 16" fill="none" xmlns="http://www.w3.org/2000/svg">
<path d="M4.23425 5.3579e-05L8.04548 0L8.04512 1.17073L4.2339 1.17078L4.23425 5.3579e-05Z" fill="#2A2A2A"/>
<path d="M5.50828 8.55266L3.65404 8.552L3.65365 7.38127L5.50789 7.38192L5.5078 5.48253L6.65116 5.4829L6.65126 7.38153L8.50551 7.38142L8.5059 8.55215L6.65165 8.55226L6.65102 10.4501L5.50765 10.4505L5.50828 8.55266Z" fill="#2A2A2A"/>
<path fill-rule="evenodd" clip-rule="evenodd" d="M5.41568 13.1037L0 13.055L0.0452187 7.77872C0.0743705 4.39875 2.7743 1.68282 6.07531 1.71248C9.37612 1.74238 12.0285 4.50631 11.9998 7.88614L11.9545 13.1624L9.59058 13.1412C9.55871 13.4788 9.48079 13.7887 9.35931 14.0705C9.13397 14.593 8.77872 14.9847 8.38133 15.2698C7.60304 15.828 6.63685 15.9997 5.98785 15.9998L5.41617 16L5.41568 13.1037ZM10.8565 7.87587C10.8797 5.14257 8.73467 2.90735 6.06528 2.88312C3.39569 2.85913 1.21211 5.05555 1.1885 7.789L1.15331 11.8946L10.8213 11.9815L10.8565 7.87587ZM6.55888 14.774C6.95199 14.7033 7.37915 14.5596 7.72556 14.3111C7.98085 14.128 8.18582 13.8944 8.31378 13.5977C8.37149 13.4638 8.41521 13.309 8.44061 13.1308L6.55896 13.1139L6.55888 14.774Z" fill="#2A2A2A"/>
</svg>
