<svg width="16" height="16" viewBox="0 0 16 16" fill="none" xmlns="http://www.w3.org/2000/svg">
<path fill-rule="evenodd" clip-rule="evenodd" d="M8 0.000793457C9.88263 0.000793457 11.6119 0.652952 12.9784 1.74118L13.972 0.74839L14.8421 1.61858L13.8806 2.57932C15.1955 4.00489 16 5.90847 16 8.00079C16 12.4191 12.4183 16.0008 8 16.0008C5.90768 16.0008 4.0041 15.1963 2.57853 13.8814L1.20753 15.2532L0.33734 14.383L1.74038 12.9792C0.652159 11.6127 0 9.88342 0 8.00079C0 3.58252 3.58172 0.000793457 8 0.000793457ZM3.44872 13.0112C4.65085 14.1038 6.24754 14.77 8 14.77C11.7385 14.77 14.7692 11.7393 14.7692 8.00079C14.7692 6.24833 14.103 4.65164 13.0104 3.44951L3.44872 13.0112ZM8 1.23156C4.26146 1.23156 1.23077 4.26225 1.23077 8.00079C1.23077 9.54338 1.74739 10.965 2.61619 12.1034L12.1026 2.61698C10.9642 1.74819 9.54259 1.23156 8 1.23156Z" fill="#2A2A2A"/>
</svg>
