<svg width="20" height="6" viewBox="0 0 20 6" fill="none" xmlns="http://www.w3.org/2000/svg">
<path fill-rule="evenodd" clip-rule="evenodd" d="M4.344 0.0171507C4.89578 0.0171507 5.37068 0.116744 5.76888 0.315573C6.17279 0.508751 6.4803 0.78429 6.69078 1.14224C6.90684 1.49438 7.01526 1.90896 7.01531 2.38601C7.01531 2.55072 6.99516 2.75835 6.95537 3.00823C6.85297 3.59345 6.63111 4.11372 6.28978 4.56826C5.95419 5.02271 5.52458 5.37476 5.00132 5.62474C4.48364 5.87474 3.91145 6 3.28568 6H1.04156L1.48391 3.49874H0.528935L0.386998 2.55888L1.64927 2.56026L1.71059 2.21587H0.335322L0.194074 1.28013L1.87596 1.27807L1.93452 0.949463L0.141709 0.932998L0.00390625 0.0171507H4.344ZM2.72275 4.75555H3.41384C3.96565 4.75555 4.42364 4.60203 4.78773 4.29522C5.15179 3.98841 5.37952 3.55933 5.47054 3.00823C5.49896 2.83789 5.51326 2.69579 5.51326 2.58221C5.51323 2.16183 5.38476 1.83804 5.12879 1.61079C4.8728 1.37795 4.50877 1.26161 4.0367 1.26161H3.33735L2.72275 4.75555Z" fill="#2A2A2A"/>
<path fill-rule="evenodd" clip-rule="evenodd" d="M10.1172 0C10.669 0 11.1439 0.0996287 11.5421 0.298422C11.946 0.4916 12.2535 0.767139 12.464 1.12509C12.6802 1.47734 12.7886 1.89231 12.7886 2.36954C12.7885 2.53427 12.7684 2.7419 12.7286 2.99177C12.6262 3.57686 12.4043 4.09665 12.063 4.55111C11.7274 5.00558 11.2978 5.3576 10.7746 5.60759C10.2569 5.85759 9.6847 5.98285 9.05892 5.98285H6.81481L7.87313 0H10.1172ZM8.496 4.73839H9.18708C9.7389 4.73839 10.1969 4.58488 10.561 4.27807C10.925 3.97132 11.1527 3.54271 11.2438 2.99177C11.2722 2.82132 11.2865 2.67869 11.2865 2.56506C11.2865 2.1448 11.1586 1.82086 10.9027 1.59364C10.6467 1.36069 10.2821 1.24445 9.80995 1.24445H9.1106L8.496 4.73839Z" fill="#2A2A2A"/>
<path fill-rule="evenodd" clip-rule="evenodd" d="M16.0104 0C16.636 3.41677e-05 17.1085 0.139422 17.427 0.417791C17.7454 0.690467 17.9045 1.06257 17.9045 1.53396C17.9045 1.676 17.8935 1.80705 17.8707 1.92637C17.8138 2.27288 17.6795 2.59092 17.469 2.88063C17.2586 3.16457 16.9716 3.39469 16.6078 3.57078C16.2494 3.74691 15.8251 3.8349 15.3358 3.8349H14.4312L14.0474 5.98285H12.5881L13.6464 0H16.0104ZM14.6365 2.69335H15.4213C15.9673 2.69335 16.2891 2.4376 16.3859 1.92637C16.3973 1.8355 16.4024 1.76994 16.4024 1.73016C16.4024 1.54835 16.3428 1.40896 16.2233 1.31237C16.1095 1.2102 15.9329 1.15939 15.6941 1.15939H14.9011L14.6365 2.69335Z" fill="#2A2A2A"/>
<path d="M18.9456 5.98285H17.4862L18.5446 0H20.0039L18.9456 5.98285Z" fill="#2A2A2A"/>
</svg>
