<svg width="14" height="16" viewBox="0 0 14 16" fill="none" xmlns="http://www.w3.org/2000/svg">
<path d="M6.59647 6.80078H9.89721V7.60078H8.24726C8.41112 7.81344 8.5304 8.05796 8.59076 8.32344H9.89721V9.12344H8.59242C8.39715 9.99717 7.57097 10.6539 6.58063 10.6539H5.46594V10.7937L8.80753 13.1328L8.29645 13.7742L7.95462 13.5344L4.6122 11.1945V9.85391H6.58063C7.09542 9.85388 7.53308 9.54977 7.7045 9.12344H4.60969V8.32344H7.702C7.53074 7.90544 7.10277 7.60757 6.59814 7.60078H4.60969V6.80078L6.58063 6.8C6.58592 6.8 6.5912 6.80074 6.59647 6.80078Z" fill="#2A2A2A"/>
<path fill-rule="evenodd" clip-rule="evenodd" d="M10.525 3.72187H12.7452L14 16H0L1.2556 3.72187H3.39995L2.65293 0H11.3662L10.525 3.72187ZM1.40984 14.8H12.5902L11.5805 4.92188H2.41949L1.40984 14.8ZM4.70391 3.72187H9.21689L9.78633 1.2H4.197L4.70391 3.72187Z" fill="#2A2A2A"/>
</svg>
