<svg width="16" height="16" viewBox="0 0 16 16" fill="none" xmlns="http://www.w3.org/2000/svg">
<path fill-rule="evenodd" clip-rule="evenodd" d="M2.83945 8.28481C4.17502 8.28481 5.43201 9.12411 5.64636 10.3734H5.6789V12.6519C5.6789 14.2249 4.40763 15.5 2.83945 15.5C1.27126 15.5 0 14.2249 0 12.6519V10.3734H0.0325354C0.246893 9.12411 1.50387 8.28481 2.83945 8.28481ZM4.53868 12.7298C4.05128 13.0432 3.45386 13.2215 2.83945 13.2215C2.22482 13.2215 1.62697 13.0434 1.13948 12.7298C1.18011 13.6374 1.92459 14.3608 2.83945 14.3608C3.7543 14.3608 4.49803 13.6374 4.53868 12.7298ZM2.83945 9.42405C1.79719 9.42405 1.13578 10.1119 1.13578 10.7532C1.13578 11.3944 1.79719 12.0823 2.83945 12.0823C3.88171 12.0823 4.54312 11.3944 4.54312 10.7532C4.54312 10.1119 3.88171 9.42405 2.83945 9.42405Z" fill="#2A2A2A"/>
<path fill-rule="evenodd" clip-rule="evenodd" d="M14.0065 0.500742V2.75994H16V14.9304H7.19327V13.7911H14.8642V11.4822H12.3464C10.9519 11.4815 9.72838 10.4377 9.72733 9.03985L9.73103 8.91006C9.80402 7.5772 10.9957 6.59822 12.3464 6.59746H14.8642V3.89918H2.17247V6.76582H1.03669V0.5L14.0065 0.500742ZM12.1867 7.74412C11.4016 7.81652 10.8631 8.4117 10.8631 9.03985C10.864 9.71031 11.4766 10.3425 12.3472 10.343H14.8642V7.7367H12.3472L12.1867 7.74412ZM2.17247 2.75994H12.8707V1.63924H2.17247V2.75994Z" fill="#2A2A2A"/>
</svg>
