<svg width="16" height="16" viewBox="0 0 16 16" fill="none" xmlns="http://www.w3.org/2000/svg">
<path fill-rule="evenodd" clip-rule="evenodd" d="M7.38013 2.39373V8.59681H13.5639V9.1968C13.5639 10.5423 13.1658 11.8577 12.4206 12.9765C11.6754 14.0951 10.6161 14.967 9.377 15.4819C8.13787 15.9967 6.77425 16.1319 5.45881 15.8694C4.14331 15.6069 2.93452 14.9591 1.98609 14.0077C1.03767 13.0563 0.391876 11.8437 0.13019 10.5241C-0.131469 9.20458 0.00327414 7.83671 0.516479 6.5937C1.02974 5.35071 1.89899 4.28811 3.01412 3.5406C4.12935 2.7931 5.44074 2.39376 6.78201 2.39373H7.38013ZM6.18388 3.62653C5.29072 3.72305 4.43027 4.03432 3.67845 4.53825C2.7601 5.1539 2.04431 6.0294 1.62161 7.05307C1.19902 8.07672 1.08841 9.20309 1.30386 10.2898C1.51938 11.3766 2.05153 12.3749 2.83266 13.1585C3.61379 13.9421 4.609 14.4759 5.69245 14.6921C6.77573 14.9082 7.89861 14.7972 8.91906 14.3733C9.93954 13.9493 10.8123 13.2313 11.4261 12.3101C11.9284 11.5559 12.2387 10.6928 12.3349 9.7968H6.18388V3.62653Z" fill="#2A2A2A"/>
<path fill-rule="evenodd" clip-rule="evenodd" d="M9.21812 0C11.0167 1.8072e-05 12.7414 0.717203 14.0133 1.99295C15.2851 3.26875 16 4.99883 16 6.80307V7.40307H8.62V0H9.21812ZM9.81625 6.20308H14.771C14.6352 4.93773 14.073 3.74972 13.1675 2.84138C12.262 1.9331 11.0776 1.36987 9.81625 1.23358V6.20308Z" fill="#2A2A2A"/>
</svg>
