<svg width="16" height="16" viewBox="0 0 16 16" fill="none" xmlns="http://www.w3.org/2000/svg">
<path d="M7.99922 0C3.58172 0.000396141 0.000317051 3.58187 0 7.99961C0 12.4176 3.58152 15.9996 7.99922 16H8.59573V14.8069H7.99922C4.2404 14.8065 1.19301 11.7587 1.19301 7.99961C1.19333 4.24078 4.2406 1.19346 7.99922 1.19307C11.7582 1.19307 14.8059 4.24054 14.8062 7.99961V8.59614H16V7.99961C15.9997 3.58163 12.4171 -1.89625e-07 7.99922 0Z" fill="#2A2A2A"/>
<path d="M8 2.84286C5.15193 2.84296 2.84272 5.15216 2.84272 8.00039C2.84285 10.8485 5.15201 13.157 8 13.1571H8.59651V11.9641H8C5.81089 11.964 4.03586 10.1896 4.03573 8.00039C4.03573 5.81107 5.81081 4.03603 8 4.03592C10.1892 4.03605 11.9635 5.81109 11.9635 8.00039V8.59692H13.1565V8.00039C13.1565 5.15217 10.848 2.84298 8 2.84286Z" fill="#2A2A2A"/>
<path fill-rule="evenodd" clip-rule="evenodd" d="M8 5.29657C7.6013 5.29659 7.22305 5.38317 6.88233 5.53813C6.88053 5.53893 6.87869 5.53964 6.87689 5.54046L6.87379 5.54202C6.83625 5.55925 6.79931 5.57751 6.76272 5.59639C6.75726 5.5992 6.75184 5.60209 6.74641 5.60493C6.67592 5.64191 6.60724 5.68171 6.54058 5.72455C6.52889 5.73203 6.51718 5.73944 6.50563 5.74708C6.48654 5.75977 6.46768 5.77275 6.44893 5.78591C6.4294 5.79956 6.40977 5.81297 6.39068 5.82708C6.37408 5.8394 6.35805 5.85245 6.34175 5.86514C6.32699 5.87658 6.31195 5.8876 6.29748 5.89932L6.28039 5.9133C6.27402 5.91855 6.26807 5.9243 6.26175 5.92961C6.16807 6.00816 6.08028 6.09203 5.99922 6.18127C5.96996 6.21344 5.94149 6.24635 5.91379 6.27992L5.84 6.37312C5.81194 6.41045 5.78524 6.44869 5.75922 6.48731C5.58598 6.74345 5.45614 7.03091 5.37864 7.33939C5.36985 7.37415 5.36197 7.40913 5.35456 7.44424C5.34124 7.50796 5.32991 7.57238 5.32117 7.63765C5.28767 7.88331 5.28804 8.1348 5.32427 8.38565C5.32672 8.40279 5.32927 8.41988 5.33204 8.43691C5.33685 8.46623 5.34254 8.49542 5.34835 8.52468C5.35049 8.53556 5.35229 8.54648 5.35456 8.55731C5.36154 8.59029 5.36961 8.62308 5.37786 8.65595C5.37946 8.66236 5.38011 8.66899 5.38175 8.67537L5.39806 8.73596C5.3994 8.74068 5.40135 8.74522 5.40272 8.74994C5.42456 8.82574 5.44992 8.89996 5.47806 8.97286C5.48438 8.9892 5.49082 9.00552 5.49748 9.0218C5.50653 9.04396 5.51581 9.06596 5.52544 9.08782C5.53061 9.09959 5.53484 9.11181 5.54019 9.12355C5.54264 9.1289 5.54627 9.13376 5.54874 9.13908C5.60051 9.25032 5.65921 9.35749 5.72505 9.45988C5.73253 9.47157 5.73993 9.48328 5.74757 9.49483C5.75617 9.50775 5.7644 9.5209 5.7732 9.53367C5.96786 9.81707 6.21076 10.0543 6.48544 10.2397C6.53766 10.2751 6.59147 10.3082 6.64621 10.3399C6.70497 10.3739 6.76461 10.4061 6.82563 10.4355C7.04001 10.539 7.27014 10.6143 7.51146 10.6584C7.53653 10.663 7.56158 10.6677 7.5868 10.6716C7.58886 10.6719 7.59095 10.6721 7.59301 10.6724C7.63276 10.6785 7.67256 10.6844 7.71262 10.6887C7.72577 10.6901 7.73902 10.6906 7.75223 10.6918C7.7866 10.695 7.821 10.6977 7.85553 10.6995C7.86019 10.6998 7.86485 10.7001 7.86951 10.7003C7.90983 10.7023 7.95019 10.7033 7.99068 10.7034C7.99379 10.7034 7.99689 10.7042 8 10.7042C8.00259 10.7042 8.00518 10.7035 8.00777 10.7034C8.38145 10.7026 8.76104 10.6248 9.12311 10.4595C9.20104 10.4239 9.27629 10.3849 9.34913 10.343L11.7833 12.5342L12.581 11.6472L10.2299 9.52978C10.5862 9.00914 10.7535 8.37273 10.6905 7.73474C10.6894 7.72386 10.6886 7.71297 10.6874 7.70212C10.6843 7.67414 10.6805 7.6462 10.6765 7.61823C10.6736 7.59771 10.6705 7.57725 10.6672 7.55687C10.6625 7.52862 10.6573 7.50041 10.6517 7.47221C10.6488 7.45764 10.6454 7.44319 10.6423 7.42871C10.6358 7.39889 10.6289 7.36912 10.6214 7.33939C10.6163 7.31937 10.6113 7.29941 10.6058 7.27958C10.6022 7.26664 10.5987 7.25365 10.595 7.24074C10.572 7.16225 10.5454 7.0854 10.5157 7.01005C10.5135 7.00442 10.5118 6.99859 10.5095 6.99296C10.1101 5.99849 9.13727 5.29657 8 5.29657ZM8 6.48963C8.61444 6.48963 9.14259 6.85629 9.37864 7.38288C9.71763 8.13972 9.38311 9.02933 8.62757 9.37444C7.88009 9.71568 7.00068 9.39615 6.64311 8.66139C6.63523 8.64526 6.6279 8.62891 6.62058 8.61246C6.28716 7.86143 6.61454 6.98237 7.35845 6.63333C7.55331 6.54168 7.7704 6.48966 8 6.48963Z" fill="#2A2A2A"/>
</svg>
