<svg width="17" height="16" viewBox="0 0 17 16" fill="none" xmlns="http://www.w3.org/2000/svg">
<path d="M9.47961 7.66821H4.13624V6.54321H9.47961V7.66821Z" fill="#2A2A2A"/>
<path fill-rule="evenodd" clip-rule="evenodd" d="M14.5897 0.885986V3.11694H16.6187V15.8853H0.618652V0.885254L14.5897 0.885986ZM1.77463 14.7603H15.4627V12.4802H12.9001C11.4808 12.4794 10.2355 11.4487 10.2345 10.0684L10.2382 9.94019C10.3125 8.62399 11.5254 7.65725 12.9001 7.65649H15.4627V4.24194H1.77463V14.7603ZM12.7376 8.78882C11.9385 8.86032 11.3904 9.44806 11.3904 10.0684C11.3913 10.7304 12.0148 11.3547 12.9009 11.3552H15.4627V8.78149H12.9009L12.7376 8.78882ZM1.77463 3.11694H13.4337V2.01025H1.77463V3.11694Z" fill="#2A2A2A"/>
</svg>
