<svg width="80" height="22" viewBox="0 0 80 22" fill="none" xmlns="http://www.w3.org/2000/svg">
<path d="M13.5329 0.727539V21.7275L10.6843 17.1211V10.415H6.74969L4.85126 7.36621H10.6843V4.72461H3.22333L0.916687 0.727539H13.5329ZM24.86 4.72461H17.3991V7.36621H23.1647L21.3337 10.415H17.3991V17.1211L14.5505 21.7275V0.727539H27.1667L24.86 4.72461Z" fill="#2638FF"/>
<path fill-rule="evenodd" clip-rule="evenodd" d="M45.8743 12.7959V17.0605H43.4762V12.7959L39.4167 4.81055H42.123L44.6924 10.409L47.2446 4.81055H49.9167L45.8743 12.7959ZM33.1299 11.8833V17.0606H30.6667V4.81055H38.25V6.79372H33.1299V9.93519H37.0535V11.8833H33.1299ZM57.5 17.0605V15.0627H52.9198V11.8206H56.9815V9.87528H52.9198V6.8084H57.5V4.81055H50.5V17.0605H57.5ZM62.3365 12.2869V17.0605H59.8334V4.81055H64.5179C65.4834 4.81055 66.3059 4.97727 66.9853 5.31073C67.6648 5.64418 68.1744 6.09463 68.5141 6.66209C68.8538 7.22954 69.0236 7.86427 69.0236 8.56628C69.0236 9.37358 68.7852 10.1019 68.3084 10.7513C67.8316 11.4006 67.1224 11.8482 66.1807 12.0939L69.1667 17.0605H66.2701L63.5166 12.2869H62.3365ZM64.5305 10.0606H62.75V6.56058H64.5305C65.1087 6.56058 65.5399 6.71139 65.8239 7.01302C66.108 7.31464 66.25 7.73863 66.25 8.28497C66.25 8.84269 66.108 9.27806 65.8239 9.59107C65.5399 9.90407 65.1087 10.0606 64.5305 10.0606ZM77.112 16.5723C76.4664 16.8978 75.6998 17.0605 74.8121 17.0605C73.9705 17.0605 73.2125 16.9178 72.5381 16.6322C71.8637 16.3467 71.3305 15.9355 70.9386 15.3987C70.5466 14.8618 70.3449 14.2279 70.3333 13.4969H72.9272C72.9618 13.9881 73.1376 14.3764 73.4546 14.6619C73.7717 14.9475 74.2069 15.0903 74.7602 15.0903C75.3251 15.0903 75.769 14.9561 76.0917 14.6876C76.4145 14.4192 76.5759 14.068 76.5759 13.634C76.5759 13.2799 76.4664 12.9886 76.2474 12.7602C76.0283 12.5318 75.7545 12.3519 75.426 12.2205C75.0974 12.0892 74.6449 11.9435 74.0685 11.7836C73.2846 11.5552 72.6477 11.3296 72.1577 11.1069C71.6677 10.8841 71.247 10.5472 70.8954 10.096C70.5437 9.64487 70.3679 9.04237 70.3679 8.28852C70.3679 7.58036 70.5466 6.96358 70.904 6.43817C71.2614 5.91276 71.7629 5.51014 72.4084 5.2303C73.054 4.95047 73.7918 4.81055 74.6219 4.81055C75.8669 4.81055 76.8786 5.11037 77.6567 5.71002C78.4349 6.30967 78.8643 7.14633 78.945 8.21999H76.282C76.2589 7.8088 76.0831 7.469 75.7545 7.20058C75.426 6.93217 74.9908 6.79796 74.449 6.79796C73.9763 6.79796 73.5987 6.91789 73.3163 7.15775C73.0339 7.39761 72.8926 7.74598 72.8926 8.20285C72.8926 8.52267 72.9993 8.78823 73.2125 8.99953C73.4258 9.21084 73.691 9.38217 74.008 9.51352C74.325 9.64487 74.7718 9.79621 75.3482 9.96754C76.1321 10.196 76.7719 10.4244 77.2676 10.6529C77.7634 10.8813 78.1899 11.2239 78.5473 11.6808C78.9047 12.1377 79.0833 12.7374 79.0833 13.4798C79.0833 14.1194 78.9162 14.7133 78.5819 15.2616C78.2475 15.8098 77.7576 16.2467 77.112 16.5723Z" fill="#6A7582"/>
</svg>
