<svg width="18" height="16" viewBox="0 0 18 16" fill="none" xmlns="http://www.w3.org/2000/svg">
<path fill-rule="evenodd" clip-rule="evenodd" d="M17.3652 15.2914H0.365234L3.30405 5.64259H14.4256L17.3652 15.2914ZM2.09613 13.9756H11.923L10.2847 6.95833H4.23353L2.09613 13.9756ZM13.2284 13.9756H15.6335L13.4961 6.95833H11.5901L13.2284 13.9756Z" fill="#2A2A2A"/>
<path d="M15.0833 2.48429C15.0833 3.08847 15.7535 3.79971 16.3523 3.80003C15.7305 3.80035 15.0833 4.50425 15.0833 5.11578C15.0832 4.50027 14.3966 3.80036 13.815 3.80003C14.4196 3.79971 15.0833 3.08847 15.0833 2.48429Z" fill="#2A2A2A"/>
<path d="M11.2744 0.291382C11.2744 1.29792 12.3912 2.48258 13.3887 2.48258C12.3528 2.48258 11.2744 3.65582 11.2744 4.67463C11.2744 3.64918 10.1298 2.48258 9.16102 2.48258C10.1682 2.48258 11.2744 1.29792 11.2744 0.291382Z" fill="#2A2A2A"/>
</svg>
