<svg width="16" height="17" viewBox="0 0 16 17" fill="none" xmlns="http://www.w3.org/2000/svg">
<path fill-rule="evenodd" clip-rule="evenodd" d="M2.00069 8.46116C1.36069 8.46116 0.834025 7.93449 0.834025 7.29449V5.88115C0.834025 5.42782 1.14734 4.96782 1.56734 4.80116L7.56734 2.40117C7.82068 2.30117 8.18071 2.30117 8.43404 2.40117L14.434 4.80116C14.854 4.96782 15.1674 5.43449 15.1674 5.88115V7.29449C15.1674 7.93449 14.6407 8.46116 14.0007 8.46116H13.834V11.3277H14.0007C14.6407 11.3277 15.1674 11.8544 15.1674 12.4944V13.9944H15.334C15.6074 13.9944 15.834 14.2211 15.834 14.4944C15.834 14.7677 15.6074 14.9944 15.334 14.9944H14.6674H1.33403H0.667358C0.394025 14.9944 0.167358 14.7677 0.167358 14.4944C0.167358 14.2211 0.394025 13.9944 0.667358 13.9944H0.834025V12.4944C0.834025 11.8544 1.36069 11.3277 2.00069 11.3277H2.16736V8.46116H2.00069ZM14.1674 12.4944V13.9944H1.83403V12.4944C1.83403 12.4011 1.90736 12.3277 2.00069 12.3277H2.66736H5.33403H8.00069H10.6674H13.334H14.0007C14.094 12.3277 14.1674 12.4011 14.1674 12.4944ZM12.834 11.3277V8.46116H11.1674V11.3277H12.834ZM13.3434 7.46116L13.334 7.46107L13.3246 7.46116H10.6768L10.6674 7.46107L10.6579 7.46116H8.0101L8.00069 7.46107L7.99128 7.46116H5.34344L5.33403 7.46107L5.32462 7.46116H2.67677L2.66736 7.46107L2.65795 7.46116H2.00069C1.90736 7.46116 1.83403 7.38782 1.83403 7.29449V5.88115C1.83403 5.83449 1.90067 5.74783 1.94067 5.72783L7.93404 3.32781C7.94731 3.32117 7.97376 3.32117 8.00029 3.32118H8.0011C8.02756 3.32117 8.04744 3.32117 8.06071 3.32781L14.0607 5.72783C14.1074 5.74783 14.1674 5.83449 14.1674 5.88115V7.29449C14.1674 7.38782 14.094 7.46116 14.0007 7.46116H13.3434ZM10.1674 11.3277V8.46116H8.50069V11.3277H10.1674ZM7.50069 11.3277V8.46116H5.83403V11.3277H7.50069ZM4.83403 11.3277V8.46116H3.16736V11.3277H4.83403Z" fill="#F7F7F7"/>
</svg>
