<svg width="20" height="20" viewBox="0 0 20 20" fill="none" xmlns="http://www.w3.org/2000/svg">
<path fill-rule="evenodd" clip-rule="evenodd" d="M12.3347 2C14.911 2.00006 16.9996 3.24804 17 4.78732V13.1509H16.9896C16.9238 14.0365 16.3037 14.7461 15.5201 15.2143C14.6776 15.7176 13.5487 16.0112 12.3307 16.0113C12.2429 16.0113 12.1558 16.0077 12.0691 16.0047C11.8049 16.4934 11.3668 16.8995 10.8588 17.203C10.0162 17.7063 8.88739 17.9999 7.66932 18C6.45109 18 5.32171 17.7064 4.4791 17.203C3.67072 16.7201 3.03764 15.9801 3.00638 15.0551H3V12.2678H3.00319L3.00877 12.1241C3.13416 10.6525 5.17077 9.48189 7.66454 9.48046L7.66693 4.78814L7.66853 4.78732L7.67491 4.64369C7.80042 3.17113 9.83883 2 12.3347 2ZM10.9664 14.2384C10.175 14.711 9.10157 15.0157 7.90933 15.0518L7.66932 15.0559C6.3812 15.0559 5.21499 14.7436 4.37066 14.2393C4.15919 14.4925 4.06527 14.7472 4.06527 14.9837C4.06536 15.3894 4.34477 15.8589 5.01173 16.2575C5.66551 16.6481 6.60431 16.9076 7.66932 16.9076C8.73426 16.9075 9.67242 16.6481 10.3261 16.2575C10.9932 15.8589 11.2725 15.3894 11.2726 14.9837C11.2726 14.7469 11.1782 14.492 10.9664 14.2384ZM15.4994 12.111C14.6599 12.6065 13.5417 12.8958 12.3347 12.8965V14.918C13.398 14.9174 14.3345 14.6589 14.9875 14.2688C15.6546 13.8702 15.9339 13.4007 15.9339 12.995C15.9339 12.7148 15.8027 12.4091 15.4994 12.111ZM7.66932 10.5729C6.53453 10.5729 5.55873 10.8504 4.90329 11.2418C4.22129 11.6493 4.06547 12.0506 4.06527 12.2678C4.06527 12.4849 4.22086 12.886 4.90329 13.2937C5.55873 13.6853 6.53433 13.9627 7.66932 13.9627C8.80425 13.9626 9.77999 13.6853 10.4354 13.2937C11.1174 12.8861 11.2734 12.4848 11.2734 12.2678C11.2732 12.0506 11.1173 11.6493 10.4354 11.2418C9.77999 10.8503 8.80425 10.573 7.66932 10.5729ZM15.8311 9.45009C15.7322 9.5219 15.6298 9.59045 15.5241 9.65364C14.6816 10.1569 13.5527 10.4506 12.3347 10.4506C11.8826 10.4506 11.4429 10.409 11.0254 10.3324C11.6649 10.7281 12.1091 11.2367 12.2685 11.8032C12.2892 11.8034 12.3099 11.8049 12.3307 11.8049C13.3956 11.8048 14.3337 11.5454 14.9875 11.1548C15.6546 10.7562 15.9339 10.2868 15.9339 9.88099C15.9339 9.74219 15.9002 9.59776 15.8311 9.45009ZM8.83107 9.44598C8.81286 9.48451 8.79727 9.52274 8.78403 9.56089C8.88176 9.57521 8.97827 9.59138 9.07347 9.60932C8.99053 9.55752 8.9095 9.5032 8.83107 9.44598ZM15.67 6.735C14.8751 7.22077 13.7862 7.53464 12.5747 7.57136L12.3347 7.57546C11.0272 7.57546 9.84567 7.2536 8.99852 6.73582C8.81348 6.97377 8.73061 7.21221 8.73061 7.43429C8.73081 7.83994 9.01023 8.30962 9.67707 8.70812C10.3308 9.09868 11.2696 9.35816 12.3347 9.35816C13.3996 9.35812 14.3377 9.09865 14.9915 8.70812C15.6584 8.30959 15.9377 7.83998 15.9379 7.43429C15.9379 7.21204 15.8552 6.97321 15.67 6.735ZM12.3347 3.09244C11.1998 3.09244 10.2241 3.36987 9.56863 3.76136C8.88663 4.16884 8.7308 4.57014 8.73061 4.78732C8.73061 5.00439 8.88627 5.40556 9.56863 5.81328C10.2241 6.20485 11.1996 6.4822 12.3347 6.4822C13.4697 6.48217 14.4453 6.20486 15.1007 5.81328C15.7829 5.4056 15.9387 5.00437 15.9387 4.78732C15.9385 4.57015 15.7827 4.16884 15.1007 3.76136C14.4453 3.36981 13.4696 3.09247 12.3347 3.09244Z" fill="#2A2A2A"/>
</svg>
