<svg width="20" height="20" viewBox="0 0 20 20" fill="none" xmlns="http://www.w3.org/2000/svg">
<path fill-rule="evenodd" clip-rule="evenodd" d="M6.1849 18H2V13.5998H6.1849V18ZM3.25521 16.8003H4.92882V14.8003H3.25521V16.8003Z" fill="#2A2A2A"/>
<path fill-rule="evenodd" clip-rule="evenodd" d="M12.0434 18H7.85851V11.5998H12.0434V18ZM9.11372 16.8003H10.7882V12.8003H9.11372V16.8003Z" fill="#2A2A2A"/>
<path fill-rule="evenodd" clip-rule="evenodd" d="M18 18H13.717V9H18V18ZM14.9722 16.8003H16.7448V10.1997H14.9722V16.8003Z" fill="#2A2A2A"/>
<path d="M17.987 8.36719L16.5868 8.36545L16.5929 4.39757L10.9288 10.066L7.76389 6.98003L2.99045 11.7561L2 10.7648L7.26215 5.49826L7.7526 5.00955L10.9167 8.09722L15.6024 3.40712L11.6398 3.41493L11.6372 2.01389L18 2L17.987 8.36719Z" fill="#2A2A2A"/>
</svg>
