<svg width="20" height="21" viewBox="0 0 20 21" fill="none" xmlns="http://www.w3.org/2000/svg">
<path d="M14.979 16.9881C16.82 15.5223 17.9999 13.2623 17.9999 10.727C17.9999 6.30848 14.4162 2.72656 9.99541 2.72656C6.09985 2.72656 2.85425 5.50793 2.13804 9.19218L8.01376 13.3131L8.83746 13.8842L13.8747 9.00917L14.3757 9.51563V7.1381H12.0241L12.5596 7.67958L8.64136 11.4412L4.31788 8.45601C5.2197 6.20577 7.42185 4.61643 9.99541 4.61643C13.3719 4.61643 16.1091 7.35222 16.1091 10.727C16.1091 12.0466 15.6906 13.2685 14.979 14.2673V16.9881Z" fill="#DEE1FF"/>
<path d="M2 11.1101L8.46691 15.7888L11.0627 13.2847V18.6563C10.7136 18.7028 10.3573 18.7268 9.99546 18.7268C5.7034 18.7268 2.20034 15.3504 2 11.1101Z" fill="#DEE1FF"/>
<path d="M11.6687 18.5518V12.6971L13.8575 10.627V17.7357C13.1816 18.1085 12.446 18.3865 11.6687 18.5518Z" fill="#DEE1FF"/>
</svg>
