<svg width="16" height="15" viewBox="0 0 16 15" fill="none" xmlns="http://www.w3.org/2000/svg">
<path fill-rule="evenodd" clip-rule="evenodd" d="M3.21715 7.17684C3.90777 7.17684 4.5586 7.37503 5.05182 7.72507C5.48662 8.03374 5.82731 8.48663 5.90121 9.03592H5.91658V12.7723C5.91658 14.0027 4.89664 15 3.63861 15H2.79569C1.5378 14.9998 0.517721 14.0026 0.517721 12.7723V9.03592H0.533091C0.606972 8.48674 0.947833 8.03374 1.38248 7.72507C1.87563 7.37507 2.52662 7.17689 3.21715 7.17684ZM4.65221 12.9764C4.34663 13.1253 4.00324 13.2121 3.63861 13.2121H2.79569C2.43075 13.2121 2.08705 13.1256 1.78128 12.9764C1.87775 13.4378 2.29534 13.7847 2.79569 13.7849H3.63861C4.13902 13.7849 4.55565 13.4378 4.65221 12.9764ZM1.76187 11.0168C1.7795 11.5609 2.2351 11.9969 2.79569 11.997H3.63861C4.19901 11.997 4.65438 11.5614 4.67243 11.0176C4.24496 11.2266 3.74259 11.342 3.21715 11.342C2.69155 11.3419 2.18943 11.226 1.76187 11.0168ZM3.21715 8.39196C2.76019 8.39202 2.37185 8.52469 2.11295 8.7084C1.85369 8.89248 1.76039 9.09466 1.76025 9.25901C1.76033 9.42342 1.85345 9.62622 2.11295 9.8104C2.37185 9.9941 2.7602 10.1268 3.21715 10.1268C3.67416 10.1268 4.0632 9.9941 4.32216 9.8104C4.58146 9.62627 4.67397 9.42337 4.67405 9.25901C4.67391 9.09468 4.58135 8.89247 4.32216 8.7084C4.0632 8.52463 3.67427 8.39196 3.21715 8.39196Z" fill="#2A2A2A"/>
<path fill-rule="evenodd" clip-rule="evenodd" d="M16 15H7.82891V13.7849H14.7575V11.1481H12.7893C11.5731 11.148 10.5874 10.1834 10.5874 8.99399C10.5876 7.8047 11.5732 6.84073 12.7893 6.84062H14.7575V3.3321H6.57505V2.11698H16V15ZM12.7893 8.05575C12.2594 8.05585 11.8301 8.47579 11.8299 8.99399C11.8299 9.51234 12.2593 9.93291 12.7893 9.93302H14.7575V8.05575H12.7893Z" fill="#2A2A2A"/>
<path d="M9.42495 1.21592H3.83841V4.75291L5.71758 3.4658L6.43025 4.46179L3.13545 6.718L0.499115 4.79959L0 4.43727L0.741797 3.46184L1.2401 3.82496L2.59588 4.81066V0H9.42495V1.21592Z" fill="#2A2A2A"/>
</svg>
