<svg width="20" height="21" viewBox="0 0 20 21" fill="none" xmlns="http://www.w3.org/2000/svg">
<path d="M4.93359 17.3939V4.06055C4.93359 3.78721 5.16026 3.56055 5.43359 3.56055C5.70693 3.56055 5.93359 3.78721 5.93359 4.06055V17.3939C5.93359 17.6672 5.70693 17.8939 5.43359 17.8939C5.16026 17.8939 4.93359 17.6672 4.93359 17.3939Z" fill="#F7F7F7"/>
<path d="M5.43359 13.8926C5.16026 13.8926 4.93359 13.6659 4.93359 13.3926C4.93359 13.1192 5.16026 12.8926 5.43359 12.8926H12.9003C13.6269 12.8926 13.9669 12.6992 14.0336 12.5326C14.1003 12.3659 14.0003 11.9926 13.4803 11.4792L12.6803 10.6792C12.3536 10.3926 12.1531 9.95927 12.1336 9.47925C12.1131 8.9726 12.3136 8.47258 12.6803 8.10591L13.4803 7.30591C13.9736 6.81258 14.1269 6.41258 14.0536 6.23924C13.9803 6.06591 13.6003 5.89258 12.9003 5.89258H5.43359C5.15359 5.89258 4.93359 5.66591 4.93359 5.39258C4.93359 5.11924 5.16026 4.89258 5.43359 4.89258H12.9003C14.3603 4.89258 14.8269 5.49924 14.9803 5.85924C15.1269 6.21924 15.2269 6.97924 14.1869 8.01924L13.3869 8.81925C13.2203 8.98591 13.1269 9.21925 13.1336 9.45258C13.1403 9.65258 13.2203 9.83258 13.3603 9.95925L14.1869 10.7792C15.2069 11.7992 15.1069 12.5592 14.9603 12.9259C14.8069 13.2792 14.3336 13.8926 12.9003 13.8926H5.43359Z" fill="#F7F7F7"/>
</svg>
