<svg width="16" height="16" viewBox="0 0 16 16" fill="none" xmlns="http://www.w3.org/2000/svg">
<path fill-rule="evenodd" clip-rule="evenodd" d="M10.8201 8.98496C12.9872 8.98086 15.0389 9.81041 15.8031 11.8029L16 12.3163L15.4982 12.5686C14.275 13.1834 12.8861 13.4553 11.4415 13.5117C11.485 13.6318 11.527 13.7543 11.5645 13.8801L11.6941 14.3153L11.3053 14.5668C9.68456 15.6164 7.80047 16.0039 5.84786 15.9992L5.84537 16C3.89306 16.0046 2.00927 15.6163 0.388805 14.5668L0 14.3153L0.129602 13.8801C0.536112 12.5143 1.30359 11.4829 2.32286 10.7986C3.336 10.1184 4.55935 9.80742 5.84537 9.81035H5.84703C6.41648 9.80899 6.9746 9.86966 7.50693 9.99655L7.58087 9.94093C8.05101 9.58422 8.51429 9.33566 9.05301 9.18244C9.58228 9.03192 10.1516 8.98369 10.8184 8.98496H10.8201ZM5.84537 11.0476C4.77008 11.0447 3.81182 11.3044 3.04896 11.8166C2.39571 12.2552 1.85752 12.898 1.5087 13.7817C2.77246 14.4783 4.24097 14.766 5.84537 14.7619H5.84869C7.45282 14.766 8.92092 14.4781 10.1845 13.7817C9.83593 12.8995 9.29793 12.2563 8.64427 11.8174C7.88077 11.3048 6.92224 11.0447 5.84869 11.0476H5.84537ZM10.8184 10.2222C10.2091 10.221 9.77582 10.2671 9.41191 10.3706C9.2547 10.4153 9.10432 10.4729 8.95332 10.5471C9.09573 10.6249 9.2351 10.7085 9.37037 10.7994C9.94482 11.1851 10.439 11.6813 10.8342 12.2849C12.1259 12.2863 13.3116 12.117 14.3418 11.7191C13.7007 10.7401 12.4432 10.2188 10.8209 10.2222H10.8184Z" fill="#2A2A2A"/>
<path fill-rule="evenodd" clip-rule="evenodd" d="M5.40589 0C6.91546 2.1079e-05 8.24099 0.765102 8.99486 1.91677C9.5569 1.5167 10.2512 1.28 11.002 1.28C12.8767 1.28 14.3974 2.75446 14.3974 4.5743C14.3974 6.39416 12.8767 7.86859 11.002 7.86859C10.0479 7.86859 9.18679 7.48582 8.57033 6.87232C7.79214 7.71463 6.66308 8.24581 5.40589 8.24582C3.05919 8.24582 1.156 6.40092 1.15562 4.12372C1.15562 1.84619 3.05896 0 5.40589 0ZM5.40589 1.23889C3.76323 1.23889 2.43169 2.53044 2.43169 4.12372C2.43208 5.71667 3.76346 7.00774 5.40589 7.00774C7.0471 7.00771 8.37887 5.71677 8.37925 4.12372C8.37925 3.65627 8.26368 3.21487 8.06023 2.82438L8.05691 2.82115L8.05774 2.81954C7.56677 1.8816 6.5638 1.23891 5.40589 1.23889ZM11.002 2.51808C10.4264 2.51809 9.90591 2.74079 9.52324 3.10246C9.60899 3.42897 9.65533 3.77128 9.65533 4.12372C9.65523 4.71703 9.5241 5.2802 9.29145 5.78981C9.67814 6.30074 10.3005 6.6305 11.002 6.63051C12.1722 6.63051 13.1213 5.71015 13.1213 4.5743C13.1213 3.43847 12.1721 2.51808 11.002 2.51808Z" fill="#2A2A2A"/>
</svg>
