<svg width="16" height="16" viewBox="0 0 16 16" fill="none" xmlns="http://www.w3.org/2000/svg">
<path d="M7.43367 16H8.55828V14.2817H7.43367V16Z" fill="#2A2A2A"/>
<path d="M12.0419 12.8423L13.2566 14.0569L14.0517 13.2618L12.837 12.0465L12.0419 12.8423Z" fill="#2A2A2A"/>
<path d="M1.94829 13.2618L2.74342 14.0569L3.95808 12.8416L3.16295 12.0465L1.94829 13.2618Z" fill="#2A2A2A"/>
<path fill-rule="evenodd" clip-rule="evenodd" d="M8.02526 2.70815C5.05782 2.70835 2.6521 5.11397 2.6519 8.08127C2.6519 11.0487 5.0577 13.4549 8.02526 13.4551C10.993 13.4551 13.3994 11.0489 13.3994 8.08127C13.3992 5.11385 10.9929 2.70815 8.02526 2.70815ZM8.02526 3.83271C10.3718 3.83271 12.2745 5.73492 12.2747 8.08127C12.2747 10.4278 10.3719 12.3306 8.02526 12.3306C5.67881 12.3304 3.77651 10.4277 3.77651 8.08127C3.7767 5.73504 5.67893 3.83291 8.02526 3.83271Z" fill="#2A2A2A"/>
<path d="M14.2816 8.56594H16V7.44138H14.2816V8.56594Z" fill="#2A2A2A"/>
<path d="M0 8.56594H1.71839V7.44138H0V8.56594Z" fill="#2A2A2A"/>
<path d="M12.047 3.16354L12.8422 3.95863L14.0576 2.7433L13.2617 1.9482L12.047 3.16354Z" fill="#2A2A2A"/>
<path d="M1.94243 2.7433L3.15783 3.95863L3.95296 3.16354L2.73756 1.9482L1.94243 2.7433Z" fill="#2A2A2A"/>
<path d="M7.43367 1.71831H8.55828V0H7.43367V1.71831Z" fill="#2A2A2A"/>
</svg>
