<svg width="14" height="16" viewBox="0 0 14 16" fill="none" xmlns="http://www.w3.org/2000/svg">
<path fill-rule="evenodd" clip-rule="evenodd" d="M7.62903 11.7573V16H6.37097V14.5953H0.5L0.5 4.86509L6.37097 4.86509L6.37097 0L7.62903 5.31649e-08V2.02712L13.5 2.02712V11.7573H7.62903ZM1.75806 6.08136L1.75806 7.70306H6.37097V6.08136L1.75806 6.08136ZM1.75806 11.7573V13.379H6.37097V11.7573H1.75806ZM1.75806 8.91933L1.75806 10.541H6.37097L6.37097 8.91933H1.75806ZM12.2419 8.91933H7.62903V10.541H12.2419V8.91933ZM7.62903 3.24339V4.86509L12.2419 4.86509V3.24339L7.62903 3.24339ZM7.62903 6.08136V7.70306H12.2419V6.08136L7.62903 6.08136Z" fill="#2A2A2A"/>
</svg>
