<svg width="20" height="20" viewBox="0 0 20 20" fill="none" xmlns="http://www.w3.org/2000/svg">
<path d="M17.1143 14.2871H14.5137V15.416H16.5508V16.3867H14.5137V18H13.543V13.3164H17.1143V14.2871Z" fill="#2A2A2A"/>
<path d="M9.40137 3.96777C10.1398 3.9354 11.5567 3.9668 12.2803 3.9668V5.13184C11.4845 5.13184 10.1246 5.09903 9.42871 5.13184H9.40137C6.96425 5.13185 5.39657 5.2635 4.45312 5.49121C3.97914 5.60568 3.7166 5.73341 3.58398 5.83691C3.47707 5.9206 3.48044 5.96478 3.48047 5.98926C3.48045 5.99153 3.47356 6.04946 3.60352 6.16309C3.74512 6.28663 4.01204 6.43958 4.47266 6.59082C5.39254 6.89278 6.92634 7.13708 9.30859 7.23242C10.0341 7.26146 11.639 7.32218 12.292 7.33594L12.2676 8.5C11.6012 8.48596 9.98377 8.42538 9.26172 8.39648C6.84452 8.29975 5.18328 8.05074 4.10938 7.69824C3.85788 7.61568 3.62985 7.52397 3.42676 7.42285L3.38477 8.91992H3.39258C3.39229 8.82539 3.32787 8.88974 3.61426 9.06738C3.87007 9.22597 4.2838 9.39442 4.86035 9.55566C6.00384 9.87543 7.65642 10.1289 9.63477 10.2773C10.3523 10.3103 11.8302 10.374 12.2168 10.374V11.54C11.7939 11.54 10.2662 11.4744 9.56934 11.4424L9.56055 11.4414H9.55176C7.53405 11.2902 5.79546 11.0259 4.54688 10.6768C4.09411 10.5501 3.68771 10.4056 3.34863 10.2432L3.2998 12.0283C3.30564 12.0357 3.31235 12.0473 3.32422 12.0596C3.38877 12.1257 3.514 12.2182 3.72656 12.3242C4.15025 12.5355 4.80324 12.7447 5.66211 12.9307C7.37034 13.3005 9.77367 13.5542 12.4951 13.6104L12.4697 14.7744C9.70097 14.7172 7.21886 14.4599 5.41504 14.0693C4.51796 13.8751 3.75623 13.6406 3.20605 13.3662C2.93257 13.2298 2.68089 13.0685 2.49023 12.873C2.313 12.6911 2.15884 12.445 2.13477 12.1426H2.12988L2.13184 12.0879C2.13158 12.0792 2.12988 12.0703 2.12988 12.0615H2.13184L2.30273 5.9375H2.31836C2.3341 5.52604 2.53359 5.17855 2.86719 4.91797C3.19036 4.66568 3.63912 4.48991 4.17969 4.35938C5.26639 4.09703 6.95179 3.96779 9.40137 3.96777Z" fill="#2A2A2A"/>
<path d="M17.8271 8.70898H16.1602V12.1377H15.1895V8.70898H13.5215V7.73828H17.8271V8.70898Z" fill="#2A2A2A"/>
<path d="M15.6699 4.36133L16.5918 2.30273L16.7139 2H17.8701V6.38379H16.8994V4.11719L16.124 5.81934H15.2617L14.4502 3.83496V6.38379H13.4795V2H14.6885L15.6699 4.36133Z" fill="#2A2A2A"/>
</svg>
