<svg width="12" height="16" viewBox="0 0 12 16" fill="none" xmlns="http://www.w3.org/2000/svg">
<path fill-rule="evenodd" clip-rule="evenodd" d="M5.58335 8.89258C7.6084 8.89258 9.25002 7.25095 9.25002 5.22591C9.25002 3.20087 7.6084 1.55924 5.58335 1.55924C3.55831 1.55924 1.91669 3.20087 1.91669 5.22591C1.91669 7.25095 3.55831 8.89258 5.58335 8.89258ZM5.58335 9.80924C8.11466 9.80924 10.1667 7.75722 10.1667 5.22591C10.1667 2.69461 8.11466 0.642578 5.58335 0.642578C3.05205 0.642578 1.00002 2.69461 1.00002 5.22591C1.00002 7.75722 3.05205 9.80924 5.58335 9.80924Z" fill="#F7F7F7"/>
<path fill-rule="evenodd" clip-rule="evenodd" d="M6.00002 10.6426C6.23014 10.6426 6.41669 10.8291 6.41669 11.0592L6.41669 14.3926C6.41669 14.6227 6.23014 14.8092 6.00002 14.8092C5.7699 14.8092 5.58335 14.6227 5.58335 14.3926L5.58335 11.0592C5.58335 10.8291 5.7699 10.6426 6.00002 10.6426Z" fill="#F7F7F7"/>
<path fill-rule="evenodd" clip-rule="evenodd" d="M3.95835 3.55859C3.95835 3.35149 4.12625 3.18359 4.33335 3.18359H5.33335C6.09275 3.18359 6.70835 3.7992 6.70835 4.55859C6.70835 5.31799 6.09274 5.93359 5.33335 5.93359H5.3314L6.58029 7.02638C6.73616 7.16276 6.75195 7.39967 6.61557 7.55553C6.47919 7.7114 6.24228 7.72719 6.08641 7.59081L4.12543 5.87495C3.85131 5.63509 4.02095 5.18359 4.3852 5.18359H5.33335C5.67853 5.18359 5.95835 4.90377 5.95835 4.55859C5.95835 4.21342 5.67853 3.93359 5.33335 3.93359H4.33335C4.12625 3.93359 3.95835 3.7657 3.95835 3.55859Z" fill="#F7F7F7"/>
<path fill-rule="evenodd" clip-rule="evenodd" d="M3.95835 4.55859C3.95835 4.35149 4.12625 4.18359 4.33335 4.18359H6.83335C7.04046 4.18359 7.20835 4.35149 7.20835 4.55859C7.20835 4.7657 7.04046 4.93359 6.83335 4.93359H4.33335C4.12625 4.93359 3.95835 4.7657 3.95835 4.55859Z" fill="#F7F7F7"/>
<path fill-rule="evenodd" clip-rule="evenodd" d="M3.95835 3.55859C3.95835 3.35149 4.12625 3.18359 4.33335 3.18359H6.83335C7.04046 3.18359 7.20835 3.35149 7.20835 3.55859C7.20835 3.7657 7.04046 3.93359 6.83335 3.93359H4.33335C4.12625 3.93359 3.95835 3.7657 3.95835 3.55859Z" fill="#F7F7F7"/>
<path fill-rule="evenodd" clip-rule="evenodd" d="M10.3489 11.9357C9.90431 12.7152 8.92235 13.7104 7.154 13.9308C7.70819 13.1307 8.76622 12.1522 10.3489 11.9357ZM6.03371 14.2278C6.4905 13.162 8.11024 11.0586 11 11.0586H11.5524L11.4007 11.5897C11.0804 12.7107 9.63232 14.8086 6.41669 14.8086H5.78479L6.03371 14.2278Z" fill="#F7F7F7"/>
<path fill-rule="evenodd" clip-rule="evenodd" d="M1.6511 11.9357C2.09573 12.7152 3.07769 13.7104 4.84604 13.9308C4.29185 13.1307 3.23381 12.1522 1.6511 11.9357ZM5.96633 14.2278C5.50954 13.162 3.88979 11.0586 1.00002 11.0586H0.447632L0.599385 11.5897C0.91965 12.7107 2.36771 14.8086 5.58335 14.8086H6.21524L5.96633 14.2278Z" fill="#F7F7F7"/>
</svg>
