<svg width="20" height="21" viewBox="0 0 20 21" fill="none" xmlns="http://www.w3.org/2000/svg">
<path d="M9.10879 12.6514C10.1552 12.6488 11.1589 12.8719 12.032 13.3547L12.5637 13.6482L11.9751 14.7115L11.4434 14.418C10.778 14.05 9.98372 13.8633 9.10958 13.8658H9.10642C8.08244 13.8629 7.1699 14.1178 6.44345 14.6205C5.82137 15.051 5.30886 15.682 4.97668 16.5493C6.18014 17.233 7.57858 17.5154 9.10642 17.5113L9.71401 17.5097L9.71717 18.7249L9.10958 18.7265C7.24931 18.7315 5.45425 18.3505 3.91023 17.3199L3.53998 17.073L3.6634 16.6458C4.05051 15.3053 4.78137 14.293 5.752 13.6213C6.71679 12.9537 7.88176 12.6485 9.10642 12.6514L9.10958 12.6506L9.10879 12.6514Z" fill="#F7F7F7"/>
<path d="M16.4482 15.2835L13.5882 18.1434C13.3698 18.3619 13.0222 18.3816 12.7805 18.1893L11.1602 16.9006L11.9165 15.9496L13.1119 16.9006L15.589 14.4243L16.4482 15.2835Z" fill="#F7F7F7"/>
<path fill-rule="evenodd" clip-rule="evenodd" d="M9.04392 2.72656C11.3562 2.72656 13.2322 4.60125 13.2322 6.91484C13.2321 9.22836 11.3562 11.1031 9.04392 11.1031C6.73078 11.1031 4.85493 9.22844 4.85485 6.91484C4.85485 4.60117 6.73073 2.72662 9.04392 2.72656ZM9.04392 3.94175C7.40139 3.94181 6.07003 5.27277 6.07003 6.91484C6.07012 8.55684 7.40144 9.88787 9.04392 9.88793C10.6853 9.88793 12.0169 8.557 12.017 6.91484C12.017 5.27261 10.6853 3.94175 9.04392 3.94175Z" fill="#F7F7F7"/>
</svg>
