<svg width="13" height="16" viewBox="0 0 13 16" fill="none" xmlns="http://www.w3.org/2000/svg">
<path fill-rule="evenodd" clip-rule="evenodd" d="M6.5 0C3.58757 0.000211101 1.22573 2.48493 1.22562 5.55V8.96797L0.164059 10.1008L0 10.2766V13.2859H3.55065C3.74555 14.8179 4.99182 15.9998 6.50074 16C8.00972 15.9999 9.256 14.8179 9.45083 13.2859H13V10.2766L11.7736 8.96797V5.55C11.7735 2.4849 9.41247 0.000159149 6.5 0ZM8.29277 13.2859C8.11061 14.1517 7.37818 14.7999 6.50074 14.8C5.62336 14.7998 4.89096 14.1517 4.70871 13.2859H8.29277ZM6.5 1.2C8.78273 1.20016 10.6333 3.14764 10.6334 5.55V9.46094L11.859 10.768V12.0859H1.14025V10.768L2.36586 9.46094V5.55C2.36598 3.14767 4.21731 1.20021 6.5 1.2Z" fill="#2A2A2A"/>
</svg>
