<svg width="16" height="16" viewBox="0 0 16 16" fill="none" xmlns="http://www.w3.org/2000/svg">
<path d="M3.47145 4.93011L2.86361 5.53795C0.765328 7.63623 0.765467 11.0384 2.86361 13.1368C4.96196 15.2351 8.36409 15.2351 10.4624 13.1368L11.0703 12.5289L11.982 13.4407L11.3742 14.0485C8.77224 16.6505 4.5538 16.6505 1.95185 14.0485C-0.649896 11.4466 -0.650035 7.22807 1.95185 4.62619L2.55969 4.01835L3.47145 4.93011Z" fill="#2A2A2A"/>
<path d="M4.62668 1.95136C7.22856 -0.650523 11.4471 -0.650384 14.049 1.95136C16.651 4.55332 16.651 8.77175 14.049 11.3737L13.4412 11.9815L12.5294 11.0698L13.1373 10.4619C15.2356 8.3636 15.2356 4.96147 13.1373 2.86312C11.0389 0.764979 7.63672 0.764839 5.53844 2.86312L4.9306 3.47096L4.01884 2.5592L4.62668 1.95136Z" fill="#2A2A2A"/>
<path d="M10.4322 6.47993L6.17734 10.7356L5.26558 9.82388L9.52045 5.56817L10.4322 6.47993Z" fill="#2A2A2A"/>
</svg>
