<svg width="16" height="16" viewBox="0 0 16 16" fill="none" xmlns="http://www.w3.org/2000/svg">
<path d="M5.52926 7.05372C6.54467 6.03886 8.19102 6.03855 9.20623 7.05372L8.3577 7.90222C7.81112 7.35567 6.92457 7.35598 6.37779 7.90222L4.83873 9.44124C4.29199 9.98796 4.29199 10.8744 4.83873 11.4211C5.38548 11.9676 6.27196 11.9677 6.81863 11.4211L8.01243 10.2273L8.86096 11.0758L7.66716 12.2696C6.65186 13.2848 5.00558 13.2847 3.99019 12.2696C2.97483 11.2542 2.97483 9.60807 3.99019 8.59274L5.52926 7.05372Z" fill="#2A2A2A"/>
<path d="M8.59303 3.99006C9.6084 2.97473 11.2546 2.97473 12.27 3.99006C13.2853 5.00539 13.2853 6.6516 12.27 7.6669L10.7309 9.20591C9.71558 10.2209 8.06925 10.2211 7.05397 9.20591L7.9025 8.35741C8.44915 8.90395 9.33567 8.90383 9.8824 8.35741L11.4215 6.8184C11.9682 6.27171 11.9681 5.38528 11.4215 4.83856C10.8747 4.29184 9.9883 4.29184 9.44156 4.83856L8.24777 6.03232L7.39923 5.18381L8.59303 3.99006Z" fill="#2A2A2A"/>
<path fill-rule="evenodd" clip-rule="evenodd" d="M16 0.00055241V15.9994L0 16V0L16 0.00055241ZM1.19988 14.8002L14.8001 14.7996V1.20039L1.19988 1.19983V14.8002Z" fill="#2A2A2A"/>
</svg>
