<svg width="16" height="16" viewBox="0 0 16 16" fill="none" xmlns="http://www.w3.org/2000/svg">
<path d="M3.00098 10.0042C4.65783 10.0042 6.00098 11.3473 6.00098 13.0042C6.00098 14.661 4.65783 16.0042 3.00098 16.0042C1.34412 16.0042 0.000976562 14.661 0.000976562 13.0042C0.000976562 11.3473 1.34412 10.0042 3.00098 10.0042ZM13.001 10.0042C14.6578 10.0042 16.001 11.3473 16.001 13.0042C16.001 14.661 14.6578 16.0042 13.001 16.0042C11.3441 16.0042 10.001 14.661 10.001 13.0042C10.001 11.3473 11.3441 10.0042 13.001 10.0042ZM3.00098 11.5042C2.17255 11.5042 1.50098 12.1757 1.50098 13.0042C1.50098 13.8326 2.17255 14.5042 3.00098 14.5042C3.8294 14.5042 4.50098 13.8326 4.50098 13.0042C4.50098 12.1757 3.8294 11.5042 3.00098 11.5042ZM13.001 11.5042C12.1725 11.5042 11.501 12.1757 11.501 13.0042C11.501 13.8326 12.1725 14.5042 13.001 14.5042C13.8294 14.5042 14.501 13.8326 14.501 13.0042C14.501 12.1757 13.8294 11.5042 13.001 11.5042ZM3.00098 0.00415039C4.65783 0.00415039 6.00098 1.3473 6.00098 3.00415C6.00098 4.661 4.65783 6.00415 3.00098 6.00415C1.34412 6.00415 0.000976562 4.661 0.000976562 3.00415C0.000976562 1.3473 1.34412 0.00415039 3.00098 0.00415039ZM13.001 0.00415039C14.6578 0.00415039 16.001 1.3473 16.001 3.00415C16.001 4.661 14.6578 6.00415 13.001 6.00415C11.3441 6.00415 10.001 4.661 10.001 3.00415C10.001 1.3473 11.3441 0.00415039 13.001 0.00415039ZM3.00098 1.50415C2.17255 1.50415 1.50098 2.17572 1.50098 3.00415C1.50098 3.83258 2.17255 4.50415 3.00098 4.50415C3.8294 4.50415 4.50098 3.83258 4.50098 3.00415C4.50098 2.17572 3.8294 1.50415 3.00098 1.50415ZM13.001 1.50415C12.1725 1.50415 11.501 2.17572 11.501 3.00415C11.501 3.83258 12.1725 4.50415 13.001 4.50415C13.8294 4.50415 14.501 3.83258 14.501 3.00415C14.501 2.17572 13.8294 1.50415 13.001 1.50415Z" fill="#2A2A2A"/>
</svg>
