<svg width="17" height="16" viewBox="0 0 17 16" fill="none" xmlns="http://www.w3.org/2000/svg">
<path d="M16.3032 10.1246L16.1117 15.6646H0.494713L0.303223 10.1246L1.50297 10.0835L1.65538 14.4741H14.9518L15.1035 10.0835L16.3032 10.1246Z" fill="#2A2A2A"/>
<path fill-rule="evenodd" clip-rule="evenodd" d="M11.5926 2.71219H16.3032V8.80705L16.0062 8.97989C14.0779 10.0992 11.5978 10.7919 8.90388 10.8826V12.9078H7.70335V10.8834C5.00703 10.7937 2.53101 10.1001 0.60101 8.97989L0.304004 8.80705V2.71219H5.01467L5.75171 1.02339L5.90881 0.664551H10.6992L11.5926 2.71219ZM1.50453 8.1165C3.33389 9.10186 5.70252 9.70377 8.29971 9.70377C10.8972 9.70374 13.2728 9.10177 15.1027 8.1165V3.90264H1.50453V8.1165ZM6.32306 2.71219H10.2842L9.90979 1.855H6.69744L6.32306 2.71219Z" fill="#2A2A2A"/>
</svg>
