<svg width="16" height="16" viewBox="0 0 16 16" fill="none" xmlns="http://www.w3.org/2000/svg">
<path d="M12.0399 9.24038V13.9564L10.4837 12.4854L9.73364 13.305L12.5863 16L15.5 13.3138L14.7599 12.4854L13.1414 13.9775V9.24038H12.0399Z" fill="#2A2A2A"/>
<path d="M7.88562 0C3.8069 0.000371573 0.500172 3.36035 0.5 7.50421C0.500193 11.6481 3.80691 15.0081 7.88562 15.0084H8.43637V13.8893H7.88562C4.41525 13.889 1.60169 11.03 1.6015 7.50421C1.60167 3.9784 4.41524 1.12017 7.88562 1.1198C11.3563 1.1198 14.1703 3.97817 14.1705 7.50421V8.06375H15.272V7.50421C15.2718 3.36012 11.9647 -1.77872e-07 7.88562 0Z" fill="#2A2A2A"/>
<path d="M5.51984 4.61108V5.73016H6.99998C7.43424 5.73565 7.80841 5.98936 7.9939 6.35818H5.5012V7.47726H7.95375C7.75505 7.80962 7.39638 8.03241 6.98563 8.03242H5.52199V9.52962L5.74286 9.69792L8.7813 12.0038L9.44034 11.107L6.86372 9.1515H6.98563C8.01668 9.15149 8.88425 8.44183 9.14201 7.47726H10.2521V6.35818H9.15994C9.10789 6.13384 9.0218 5.92334 8.90967 5.73016H10.2528V4.61108H7.01432C7.00477 4.61096 6.99521 4.61035 6.98563 4.61035L5.51984 4.61108Z" fill="#2A2A2A"/>
</svg>
