<svg width="16" height="16" viewBox="0 0 16 16" fill="none" xmlns="http://www.w3.org/2000/svg">
<path d="M9.84921 11.8742L10.6386 12.7131L12.3651 11.2028V16H13.54V11.2242L15.1999 12.7138L16 11.8838L12.9571 9.15466L9.84921 11.8742Z" fill="#2A2A2A"/>
<path d="M7.87799 0C3.52736 0.000376285 0.000183762 3.40296 0 7.59937C0.000206172 11.7958 3.52737 15.1984 7.87799 15.1987H8.46546V14.0655H7.87799C4.17627 14.0651 1.17514 11.1699 1.17493 7.59937C1.17511 4.02885 4.17625 1.13438 7.87799 1.134C11.5801 1.134 14.5816 4.02862 14.5818 7.59937V8.16601H15.7568V7.59937C15.7566 3.40273 12.229 -1.80128e-07 7.87799 0Z" fill="#2A2A2A"/>
<path d="M5.3545 4.66956V5.80282H6.93331C7.39652 5.80838 7.79563 6.06531 7.9935 6.43881H5.33461V7.57207H7.95066C7.73872 7.90865 7.35614 8.13427 6.91801 8.13428H5.35679V9.65047L5.59239 9.8209L8.83339 12.156L9.53636 11.2478L6.78797 9.26755H6.91801C8.01779 9.26754 8.9432 8.54888 9.21815 7.57207H10.4023V6.43881H9.23727C9.18175 6.21162 9.08992 5.99845 8.97031 5.80282H10.403V4.66956H6.94861C6.93842 4.66943 6.92823 4.66882 6.91801 4.66882L5.3545 4.66956Z" fill="#2A2A2A"/>
</svg>
