<svg width="16" height="16" viewBox="0 0 16 16" fill="none" xmlns="http://www.w3.org/2000/svg">
<path d="M5.89388 4.91519L5.43716 4.91597V6.10903H7.04034C7.5107 6.11489 7.91598 6.38537 8.1169 6.77858H5.41696V7.97165H8.0734C7.85819 8.32598 7.4697 8.56351 7.02481 8.56352H5.43949V10.1597L5.67872 10.3391L8.96976 12.7975L9.68358 11.8414L6.89276 9.75659H7.02481C8.14156 9.75658 9.08126 9 9.36045 7.97165H10.5628V6.77858H9.37987C9.32349 6.53941 9.23025 6.31498 9.10879 6.10903H10.5636V4.91597H7.05588C7.04553 4.91584 7.03518 4.91519 7.02481 4.91519H5.89388Z" fill="#2A2A2A"/>
<path fill-rule="evenodd" clip-rule="evenodd" d="M7.40385 0.0240788C3.46117 0.314757 0.31546 3.46115 0.0248556 7.40385H0V8.00039C6.67508e-05 9.59613 0.469395 11.0818 1.27462 12.3299C1.48201 12.6514 1.71204 12.9565 1.96204 13.2441C2.21405 13.5341 2.48681 13.8048 2.77761 14.0558C3.25982 14.4721 3.79136 14.8319 4.36371 15.1246C4.53491 15.2122 4.70839 15.2963 4.88645 15.3716C5.84331 15.7764 6.89535 15.9999 7.99961 16H8.59614V15.9751C12.5392 15.6847 15.6855 12.5392 15.9759 8.59614H16V7.99961C15.9999 5.92853 15.213 4.04133 13.9215 2.62071C13.7276 2.40745 13.5211 2.20613 13.3055 2.01485C12.7552 1.52676 12.1384 1.11196 11.4685 0.789164C11.1189 0.620668 10.7552 0.476496 10.3795 0.359629C10.026 0.249654 9.66165 0.165232 9.28899 0.104859C8.86949 0.0369002 8.43908 1.84167e-05 8.00039 0H7.40385V0.0240788ZM7.99961 1.19307C8.12589 1.19307 8.25174 1.19715 8.37633 1.20394C8.58479 1.2153 8.79078 1.2356 8.99383 1.2653C9.44172 1.33082 9.8751 1.44091 10.2902 1.5892C10.6208 1.70733 10.94 1.84928 11.2448 2.01485C11.4778 2.14144 11.7019 2.2823 11.9175 2.43429C12.127 2.58202 12.3275 2.74135 12.5187 2.91121C12.7008 3.07307 12.8752 3.24353 13.0391 3.42386C14.1376 4.6327 14.8069 6.23841 14.8069 8.00039C14.8067 11.7595 11.7595 14.8067 8.00039 14.8069C7.2955 14.8069 6.61567 14.6998 5.97621 14.5009C5.68574 14.4105 5.40425 14.2999 5.1319 14.1731C5.07072 14.1446 5.01032 14.1148 4.95014 14.0846C4.63112 13.9243 4.32694 13.7396 4.03903 13.5331C3.73595 13.3157 3.45001 13.0761 3.18695 12.813C3.03311 12.6592 2.88671 12.4979 2.74809 12.3299C2.63815 12.1967 2.53479 12.0581 2.43507 11.9167C1.65394 10.8087 1.19307 9.45822 1.19307 7.99961C1.19336 4.24076 4.24079 1.19346 7.99961 1.19307Z" fill="#2A2A2A"/>
</svg>
