<svg width="16" height="16" viewBox="0 0 16 16" fill="none" xmlns="http://www.w3.org/2000/svg">
<path d="M5.14309 14.0232C5.15267 14.0279 5.16825 14.0351 5.18914 14.0449C5.23103 14.0645 5.29478 14.0936 5.37747 14.129C5.54316 14.1999 5.78338 14.2953 6.07484 14.391C6.664 14.5846 7.4338 14.7692 8.21053 14.7692C8.98725 14.7692 9.75705 14.5846 10.3462 14.391C10.6377 14.2953 10.8779 14.1999 11.0436 14.129C11.1263 14.0936 11.19 14.0645 11.2319 14.0449C11.2528 14.0351 11.2684 14.0279 11.278 14.0232C11.2827 14.0209 11.286 14.0185 11.2878 14.0176L11.8692 15.1106L11.8684 15.1114L11.866 15.1122L11.8429 15.1234C11.8279 15.1307 11.8065 15.1413 11.7796 15.1538C11.7258 15.1791 11.6487 15.2141 11.5518 15.2556C11.3582 15.3385 11.0828 15.4484 10.75 15.5577C10.0904 15.7744 9.17579 16 8.21053 16C7.24527 16 6.3306 15.7744 5.67105 15.5577C5.33827 15.4484 5.06289 15.3385 4.86924 15.2556C4.77234 15.2141 4.69528 15.1791 4.64145 15.1538C4.6146 15.1413 4.59319 15.1307 4.57812 15.1234L4.5551 15.1122L4.55263 15.1114L4.55181 15.1106L5.1324 14.0176C5.1342 14.0185 5.13831 14.0209 5.14309 14.0232Z" fill="#2A2A2A"/>
<path fill-rule="evenodd" clip-rule="evenodd" d="M3.34211 8.4359C4.85343 8.4359 6.07895 9.62968 6.07895 11.1026C6.07895 12.5752 4.85348 13.7692 3.34211 13.7692C1.83046 13.7692 0.605263 12.5751 0.605263 11.1026C0.605263 9.62995 1.83073 8.4359 3.34211 8.4359ZM3.34211 9.66667C2.52836 9.66667 1.86842 10.3097 1.86842 11.1026C1.86842 11.8955 2.52817 12.5385 3.34211 12.5385C4.15585 12.5385 4.81579 11.8954 4.81579 11.1026C4.81579 10.3095 4.1559 9.66667 3.34211 9.66667Z" fill="#2A2A2A"/>
<path fill-rule="evenodd" clip-rule="evenodd" d="M13.0789 8.4359C14.5903 8.4359 15.8158 9.62968 15.8158 11.1026C15.8158 12.5752 14.5903 13.7692 13.0789 13.7692C11.5673 13.7692 10.3421 12.5751 10.3421 11.1026C10.3421 9.62995 11.5676 8.4359 13.0789 8.4359ZM13.0789 9.66667C12.2652 9.66667 11.6053 10.3097 11.6053 11.1026C11.6053 11.8955 12.265 12.5385 13.0789 12.5385C13.8927 12.5385 14.5526 11.8954 14.5526 11.1026C14.5526 10.3095 13.8927 9.66667 13.0789 9.66667Z" fill="#2A2A2A"/>
<path d="M3.95806 3.15865C3.29062 3.64732 2.60901 4.49571 2.09293 5.48397C1.5772 6.47168 1.26316 7.52989 1.26316 8.41026H0C0 7.2776 0.39268 6.0255 0.967105 4.92548C1.54127 3.82599 2.33372 2.80873 3.19984 2.17468L3.95806 3.15865Z" fill="#2A2A2A"/>
<path d="M12.8002 2.17468C13.6663 2.80873 14.4587 3.82599 15.0329 4.92548C15.6073 6.0255 16 7.2776 16 8.41026H14.7368C14.7368 7.52989 14.4228 6.47168 13.9071 5.48397C13.391 4.49571 12.7094 3.64732 12.0419 3.15865L12.8002 2.17468Z" fill="#2A2A2A"/>
<path fill-rule="evenodd" clip-rule="evenodd" d="M8.21053 0C9.72185 0 10.9474 1.19378 10.9474 2.66667C10.9474 4.13929 9.7219 5.33333 8.21053 5.33333C6.69888 5.33333 5.47368 4.13924 5.47368 2.66667C5.47368 1.19405 6.69915 0 8.21053 0ZM8.21053 1.23077C7.39678 1.23077 6.73684 1.87378 6.73684 2.66667C6.73684 3.45959 7.39659 4.10256 8.21053 4.10256C9.02427 4.10256 9.68421 3.45955 9.68421 2.66667C9.68421 1.8736 9.02432 1.23077 8.21053 1.23077Z" fill="#2A2A2A"/>
</svg>
