<svg width="17" height="16" viewBox="0 0 17 16" fill="none" xmlns="http://www.w3.org/2000/svg">
<path fill-rule="evenodd" clip-rule="evenodd" d="M12.8673 9.19553L16.04 7.4157L15.9696 8.50262C15.76 11.7483 13.4567 14.648 10.045 15.5367L9.7344 14.4088C12.2225 13.7606 14.0173 11.8522 14.5886 9.57888L13.4298 10.23L12.8673 9.28148V9.57508H9.66242V12.6905H3.65332V6.84905H6.85817V3.73359H12.8673V9.19553ZM4.85514 11.5222H8.4606V9.57508H6.85817V8.01735H4.85514V11.5222ZM8.05999 8.40678H11.6654V4.90189H8.05999V8.40678Z" fill="#2A2A2A"/>
<path d="M6.18997 1.10112L6.34568 1.66549C3.85752 2.31365 2.06201 4.22129 1.49067 6.49461L2.65024 5.84428L3.25115 6.8559L0.0400391 8.65854L0.110458 7.57163C0.319948 4.3257 2.62316 1.42546 6.03505 0.536743L6.18997 1.10112Z" fill="#2A2A2A"/>
</svg>
