<svg width="12" height="16" viewBox="0 0 12 16" fill="none" xmlns="http://www.w3.org/2000/svg">
<path fill-rule="evenodd" clip-rule="evenodd" d="M5.896 -6.10352e-05C8.93356 -6.10352e-05 11.396 1.99482 11.396 4.45564C11.396 4.87997 11.3212 5.28995 11.1845 5.67874V7.69614C11.1845 7.83253 11.1773 7.96754 11.1663 8.1012H11.1845V10.9366C11.1845 13.733 8.81673 15.9999 5.896 15.9999C2.97526 15.9999 0.607535 13.733 0.607535 10.9366V8.1012H0.625714C0.614658 7.96754 0.607536 7.83253 0.607535 7.69614V5.67874C0.470773 5.28995 0.395996 4.87997 0.395996 4.45564C0.395996 1.99482 2.85843 -6.10352e-05 5.896 -6.10352e-05ZM9.91357 10.9857C8.94364 12.0706 7.50448 12.7594 5.896 12.7594C4.28733 12.7594 2.84755 12.0708 1.87759 10.9857C1.90503 13.0883 3.69334 14.7847 5.896 14.7847C8.09865 14.7847 9.88613 13.0883 9.91357 10.9857ZM9.91523 7.49519C8.91139 8.3659 7.48268 8.91133 5.896 8.91133C4.30931 8.91133 2.88061 8.3659 1.87677 7.49519V7.69614C1.87678 9.82137 3.67626 11.5442 5.896 11.5442C8.11573 11.5442 9.91523 9.82137 9.91523 7.69614V7.49519ZM5.896 1.21513C3.35239 1.21513 1.66523 2.84833 1.66523 4.45564C1.66523 6.06294 3.35239 7.69614 5.896 7.69614C8.4396 7.69614 10.1268 6.06294 10.1268 4.45564C10.1268 2.84833 8.4396 1.21513 5.896 1.21513Z" fill="#2A2A2A"/>
</svg>
