<svg width="16" height="16" viewBox="0 0 16 16" fill="none" xmlns="http://www.w3.org/2000/svg">
<path fill-rule="evenodd" clip-rule="evenodd" d="M9.85315 0.857056C10.7204 0.581518 11.6021 0.651755 12.4133 0.919357L12.6344 0.996833C14.8816 1.84688 15.9914 4.00584 16 6.2157L15.9977 6.42816C15.9403 8.61984 14.8379 10.5139 13.3844 12.0256C11.8828 13.5873 9.95975 14.7939 8.24457 15.5712L8.0016 15.6806L8.00082 15.6798L7.99926 15.6814L7.75551 15.5712C6.04036 14.7939 4.11721 13.5873 2.61569 12.0256C1.11555 10.4654 -0.0105782 8.49811 7.49545e-05 6.2165C0.00868824 3.93514 1.19113 1.70849 3.58678 0.919357L3.89381 0.828302C4.61792 0.639339 5.38805 0.615949 6.14692 0.857056C6.81485 1.06933 7.44021 1.47688 7.99926 2.09987C8.55846 1.47645 9.18497 1.06943 9.85315 0.857056ZM5.79067 2.02879C5.20827 1.84375 4.58429 1.87859 3.95474 2.08629C2.15372 2.67957 1.2071 4.35438 1.20007 6.22129C1.19141 8.06471 2.10034 9.73889 3.47193 11.1654C4.77397 12.5196 6.45116 13.604 8.00004 14.3363C9.54899 13.604 11.2268 12.5197 12.5289 11.1654C13.8147 9.82806 14.693 8.2735 14.7906 6.56555L14.8 6.22129C14.7929 4.35449 13.8463 2.68031 12.0453 2.08709C11.4158 1.8794 10.7918 1.84374 10.2094 2.02879C9.63164 2.21243 9.03792 2.6304 8.49222 3.43135L8.00004 4.15419L7.50785 3.43135C6.96213 2.63036 6.36846 2.21242 5.79067 2.02879Z" fill="#2A2A2A"/>
</svg>
