<svg width="14" height="16" viewBox="0 0 14 16" fill="none" xmlns="http://www.w3.org/2000/svg">
<path d="M10.1753 6.33414L6.40638 10.031L4.56545 8.22219L4.14331 7.8083L4.98837 6.98128L6.40716 8.37464L9.33103 5.50636L10.1753 6.33414Z" fill="#2A2A2A"/>
<path fill-rule="evenodd" clip-rule="evenodd" d="M7.10217 0.0411605L13.4482 1.69901V8.80606C13.4479 11.4869 11.8017 13.2873 10.2484 14.3841C9.46822 14.9349 8.69157 15.3236 8.11204 15.5747C7.82152 15.7005 7.57787 15.7931 7.40536 15.8544C7.31938 15.885 7.25066 15.9081 7.20246 15.9238C7.17861 15.9315 7.15924 15.9371 7.14571 15.9413L7.12238 15.9489L6.94824 16L6.77566 15.9489L6.94824 15.3887C6.77998 15.9336 6.77602 15.9486 6.77566 15.9489H6.7741L6.77255 15.9482L6.75155 15.9413C6.73809 15.9371 6.71864 15.9315 6.6948 15.9238C6.64669 15.9082 6.57782 15.8849 6.4919 15.8544C6.31949 15.7932 6.07562 15.7005 5.78522 15.5747C5.20569 15.3236 4.42833 14.9349 3.6481 14.3841C2.09481 13.2873 0.44855 11.4869 0.448242 8.80606V1.69901L6.79509 0.0411605L6.94824 0L7.10217 0.0411605ZM1.64314 2.59845V8.80606C1.64344 10.955 2.9486 12.4467 4.34622 13.4336C5.04133 13.9243 5.74104 14.2754 6.268 14.5037C6.53039 14.6174 6.74835 14.7004 6.89849 14.7538C6.91576 14.7599 6.93282 14.7652 6.94824 14.7705C6.96395 14.7651 6.98116 14.76 6.99877 14.7538C7.14901 14.7004 7.36674 14.6175 7.62926 14.5037C8.15631 14.2754 8.85587 13.9244 9.55104 13.4336C10.9486 12.4467 12.2538 10.9549 12.2541 8.80606V2.59845L6.94824 1.21195L1.64314 2.59845Z" fill="#2A2A2A"/>
</svg>
