<svg width="16" height="16" viewBox="0 0 16 16" fill="none" xmlns="http://www.w3.org/2000/svg">
<path fill-rule="evenodd" clip-rule="evenodd" d="M5.19153 4.98097L0 6.22974L3.45603 10.2463L3.05583 15.5L8 13.501L12.9442 15.5L12.5432 10.2463L16 6.22974L10.8077 4.98097L8 0.5L5.19153 4.98097ZM9.90881 5.81659L10.0396 6.02472L10.2807 6.08219L13.8092 6.93024L11.4608 9.66231L11.3 9.84869L11.319 10.0925L11.5907 13.6633L8 12.2127L4.40847 13.6633L4.68104 10.0925L4.69995 9.84869L4.53924 9.66231L2.19005 6.93024L5.71935 6.08219L5.96041 6.02472L6.09119 5.81659L8 2.76922L9.90881 5.81659Z" fill="#2A2A2A"/>
</svg>
