<svg width="20" height="20" viewBox="0 0 20 20" fill="none" xmlns="http://www.w3.org/2000/svg">
<path d="M9.37859 13.6842H4.67076V12.4214H9.37859V13.6842Z" fill="#2A2A2A"/>
<path d="M15.2722 7.59134H10.5643V6.32854H15.2722V7.59134Z" fill="#2A2A2A"/>
<path fill-rule="evenodd" clip-rule="evenodd" d="M9.30357 3.49873C11.224 1.56278 14.3059 1.50224 16.2989 3.31786L16.4881 3.49956C17.4819 4.50137 17.9772 5.81381 17.9763 7.12437C17.9757 7.93774 17.9818 9.05608 17.9877 9.97143C17.9907 10.4286 17.9936 10.8353 17.9959 11.1274C17.997 11.2732 17.9985 11.391 17.9992 11.4718C17.9995 11.5121 17.9998 11.5436 18 11.5647V11.5968C18.0025 11.8933 17.7998 12.1514 17.5131 12.2175L17.5123 12.2183C17.5115 12.2185 17.5095 12.2189 17.5082 12.2192C17.5055 12.2198 17.5015 12.2206 17.4968 12.2216C17.4872 12.2238 17.4733 12.227 17.456 12.2307C17.4214 12.2381 17.3714 12.248 17.3084 12.2603C17.1825 12.2847 17.0025 12.3169 16.7816 12.3499C16.3408 12.4157 15.7301 12.4855 15.0536 12.497C14.1667 12.5122 13.0805 12.4298 12.1162 12.0473C12.3708 13.6198 11.8976 15.288 10.6964 16.4992C9.67514 17.5288 8.32931 18.0279 6.9941 17.9988C6.20667 17.9816 5.11745 17.9796 4.22142 17.9815C3.7744 17.9825 3.3769 17.9847 3.09115 17.9865C2.94837 17.9874 2.83348 17.9875 2.75435 17.9881C2.7148 17.9884 2.68372 17.9888 2.66302 17.9889C2.65306 17.989 2.6454 17.9897 2.64018 17.9898H2.63203C2.46407 17.9913 2.30232 17.9245 2.18351 17.8048C2.06476 17.685 1.99857 17.5219 2.00002 17.3526V17.3205C2.0002 17.2994 2.00051 17.2678 2.00084 17.2276C2.00151 17.1468 2.00297 17.029 2.0041 16.8832C2.00637 16.5911 2.00928 16.1844 2.01226 15.7272C2.01822 14.8119 2.02427 13.6935 2.02367 12.8802C2.02286 11.5696 2.51809 10.2572 3.51195 9.25535L3.70114 9.07366C4.85935 8.01849 6.38528 7.59801 7.83732 7.81003V7.75577C7.83734 5.77339 8.34145 4.4688 9.30357 3.49873ZM9.8108 10.1474C8.36416 8.68916 6.04146 8.64394 4.54028 10.0117L4.39757 10.1482C3.6482 10.9035 3.27566 11.8904 3.27627 12.8793C3.27687 13.6977 3.27082 14.8198 3.26485 15.7354C3.26241 16.1103 3.25958 16.4512 3.25751 16.7228C3.52297 16.7213 3.85457 16.7195 4.21898 16.7187C5.11575 16.7168 6.21749 16.7185 7.02101 16.736C8.02879 16.758 9.04085 16.3826 9.8108 15.6064C11.3043 14.1005 11.3069 11.6558 9.8108 10.1474ZM15.4597 4.25592C13.9585 2.88813 11.6358 2.93332 10.1892 4.39158C9.52125 5.06504 9.08994 6.01303 9.08991 7.75577V8.16108C9.67386 8.41047 10.2208 8.77504 10.6964 9.25453C10.9115 9.47141 11.1021 9.70391 11.2705 9.94677L11.7044 10.3463C12.4673 11.0486 13.7712 11.2557 15.0324 11.2342C15.6403 11.2239 16.1948 11.1613 16.5981 11.1011C16.6492 11.0934 16.6975 11.0838 16.7433 11.0764C16.7411 10.7895 16.7379 10.4067 16.7351 9.97966C16.7292 9.06404 16.7231 7.94191 16.7237 7.12354C16.7243 6.13458 16.3518 5.14774 15.6024 4.3924L15.4597 4.25592Z" fill="#2A2A2A"/>
</svg>
