<svg width="16" height="16" viewBox="0 0 16 16" fill="none" xmlns="http://www.w3.org/2000/svg">
<path d="M9.33965 7.88378L4.33884 12.6824L3.45013 11.8296L8.45095 7.03102L9.33965 7.88378Z" fill="#2A2A2A"/>
<path d="M9.35684 11.6302L8.46813 12.4829L7.5737 11.6247L8.4624 10.7719L9.35684 11.6302Z" fill="#2A2A2A"/>
<path d="M5.47059 7.90106L4.58188 8.75383L3.68826 7.89635L4.57697 7.0428L5.47059 7.90106Z" fill="#2A2A2A"/>
<path fill-rule="evenodd" clip-rule="evenodd" d="M12.4362 9.52022H15.2848L15.2856 16H0.285645V0L3.63753 2.8033L6.36093 0.525324L9.08434 2.8033L12.4362 0V9.52022ZM3.63753 4.40361L1.5426 2.65175V14.7939H11.1793V2.65175L9.08434 4.40361L6.36093 2.12642L3.63753 4.40361ZM12.4485 14.7939H14.0279V10.7263H12.4485V14.7939Z" fill="#2A2A2A"/>
</svg>
