<svg width="20" height="20" viewBox="0 0 20 20" fill="none" xmlns="http://www.w3.org/2000/svg">
<path d="M12.757 6.13593C12.757 4.51423 11.442 3.2 9.82108 3.2C8.19908 3.20006 6.88437 4.51438 6.88437 6.13593C6.88445 7.7574 8.19913 9.0718 9.82108 9.07186C11.4419 9.07186 12.7569 7.75756 12.757 6.13593ZM13.957 6.13593C13.9569 8.42053 12.1044 10.2719 9.82108 10.2719C7.53685 10.2718 5.68445 8.4206 5.68437 6.13593C5.68437 3.85118 7.5368 2.00006 9.82108 2C12.1045 2 13.957 3.85126 13.957 6.13593Z" fill="#2A2A2A"/>
<path d="M9.8492 11.6554C12.6456 11.649 15.1424 12.9534 16.0547 15.8382L16.1968 16.2867L15.7953 16.5312C14.032 17.6061 11.9819 18.0041 9.8492 17.9992L9.84686 18C7.71439 18.0048 5.66464 17.606 3.90156 16.5312L3.5 16.2867L3.64219 15.8382C4.55529 12.9508 7.04792 11.6492 9.84686 11.6554L9.84998 11.6547L9.8492 11.6554ZM9.84686 12.8547C7.59877 12.8489 5.77257 13.7879 4.95234 15.7453C6.37958 16.4952 8.03978 16.8044 9.84686 16.8H9.84998C11.6568 16.8044 13.3166 16.495 14.7437 15.7453C13.9237 13.7903 12.0951 12.8489 9.84998 12.8547H9.84686Z" fill="#2A2A2A"/>
</svg>
