<svg width="16" height="16" viewBox="0 0 16 16" fill="none" xmlns="http://www.w3.org/2000/svg">
<path d="M8.00039 0C12.4177 0.000211116 16 3.58152 16 8C15.9998 12.4175 12.4177 15.9998 8.00039 16C3.58209 16 0.000158321 12.4176 0 8C0 3.58143 3.58204 0 8.00039 0ZM8.00039 1.2C4.24474 1.2 1.20072 4.24417 1.20072 8C1.20088 11.7549 4.24488 14.8 8.00039 14.8C11.755 14.7998 14.7999 11.7548 14.8001 8C14.8001 4.24434 11.7551 1.20021 8.00039 1.2ZM8.60427 11.6367H7.39651V10.4367H8.60427V11.6367ZM8.59645 9.09844H7.39651V4.36328H8.59645V9.09844Z" fill="#0277B6"/>
</svg>
