<svg width="16" height="16" viewBox="0 0 16 16" fill="none" xmlns="http://www.w3.org/2000/svg">
<path d="M8 0C12.4186 -3.86287e-07 16 3.58227 16 8C15.9998 12.4183 12.4191 15.9998 8.00078 16C3.58317 16 0.000184383 12.4185 0 8C-3.86202e-07 3.58236 3.58241 0.000210827 8 0ZM8 1.2C4.24515 1.20021 1.2 4.2451 1.2 8C1.20018 11.7555 4.24522 14.7998 8 14.8C11.7557 14.8 14.7998 11.7557 14.8 8C14.8 4.24493 11.7558 1.2 8 1.2ZM8.60469 11.6367H7.40469L7.40391 6.90156H8.60391L8.60469 11.6367ZM8.60469 5.56328H7.39687L7.39609 4.36328H8.60391L8.60469 5.56328Z" fill="#9E6A0A"/>
</svg>
