<svg width="25" height="24" viewBox="0 0 25 24" fill="none" xmlns="http://www.w3.org/2000/svg">
<path d="M7.58957 8.28771C7.29966 7.99779 7.29966 7.51696 7.58957 7.22705C7.87949 6.93713 8.36032 6.93713 8.65023 7.22705L17.1355 15.7123C17.4254 16.0022 17.4254 16.4831 17.1355 16.773C16.8456 17.0629 16.3648 17.0629 16.0749 16.773L7.58957 8.28771Z" fill="#2A394E"/>
<path d="M7.58958 15.7123L16.0749 7.22705C16.3648 6.93713 16.8456 6.93713 17.1355 7.22705C17.4254 7.51696 17.4254 7.99779 17.1355 8.28771L8.65024 16.773C8.36033 17.0629 7.8795 17.0629 7.58958 16.773C7.29967 16.4831 7.29967 16.0022 7.58958 15.7123Z" fill="#2A394E"/>
</svg>
