<svg width="12" height="12" viewBox="0 0 12 12" fill="none" xmlns="http://www.w3.org/2000/svg">
<path fill-rule="evenodd" clip-rule="evenodd" d="M0.625 5.75C0.625 2.925 2.925 0.625 5.75 0.625C8.575 0.625 10.875 2.925 10.875 5.75C10.875 8.575 8.575 10.875 5.75 10.875C2.925 10.875 0.625 8.575 0.625 5.75ZM1.375 5.75C1.375 8.16 3.335 10.125 5.75 10.125C8.165 10.125 10.125 8.16 10.125 5.75C10.125 3.34 8.165 1.375 5.75 1.375C3.335 1.375 1.375 3.34 1.375 5.75Z" fill="#6A7483"/>
<path d="M10.7352 11.265L9.73521 10.265C9.59021 10.12 9.59021 9.87997 9.73521 9.73497C9.88021 9.58997 10.1202 9.58997 10.2652 9.73497L11.2652 10.735C11.4102 10.88 11.4102 11.12 11.2652 11.265C11.1902 11.34 11.0952 11.375 11.0002 11.375C10.9052 11.375 10.8102 11.34 10.7352 11.265Z" fill="#6A7483"/>
</svg>
