<svg width="16" height="17" viewBox="0 0 16 17" fill="none" xmlns="http://www.w3.org/2000/svg">
<path fill-rule="evenodd" clip-rule="evenodd" d="M1.66675 9.33333C1.66675 5.84 4.50675 3 8.00008 3C11.4934 3 14.3334 5.84 14.3334 9.33333C14.3334 12.8267 11.4934 15.6667 8.00008 15.6667C4.50675 15.6667 1.66675 12.8267 1.66675 9.33333ZM2.66675 9.33333C2.66675 12.2733 5.06008 14.6667 8.00008 14.6667C10.9401 14.6667 13.3334 12.2733 13.3334 9.33333C13.3334 6.39333 10.9401 4 8.00008 4C5.06008 4 2.66675 6.39333 2.66675 9.33333Z" fill="#997A01"/>
<path d="M7.5 9.16671V5.83337C7.5 5.56004 7.72667 5.33337 8 5.33337C8.27333 5.33337 8.5 5.56004 8.5 5.83337V9.16671C8.5 9.44004 8.27333 9.66671 8 9.66671C7.72667 9.66671 7.5 9.44004 7.5 9.16671Z" fill="#997A01"/>
<path d="M6 2.33337C5.72667 2.33337 5.5 2.10671 5.5 1.83337C5.5 1.56004 5.72667 1.33337 6 1.33337H10C10.2733 1.33337 10.5 1.56004 10.5 1.83337C10.5 2.10671 10.2733 2.33337 10 2.33337H6Z" fill="#997A01"/>
</svg>
