<svg width="17" height="17" viewBox="0 0 17 17" fill="none" xmlns="http://www.w3.org/2000/svg">
<path d="M8.38609 0.5C9.63291 0.5 10.814 0.793791 11.8635 1.31759L12.3571 1.56395L11.8714 2.56541L11.377 2.31904C10.4754 1.86913 9.46063 1.61628 8.38609 1.61628C4.63845 1.61628 1.60039 4.69823 1.60039 8.5C1.60039 12.3018 4.63845 15.3837 8.38609 15.3837C12.1337 15.3837 15.1718 12.3018 15.1718 8.5V7.94186H16.2722V8.5C16.2722 12.9183 12.7415 16.5 8.38609 16.5C4.03072 16.5 0.5 12.9183 0.5 8.5C0.5 4.08172 4.03072 0.5 8.38609 0.5Z" fill="#6D6D6D"/>
<path d="M16.5 2.75509L8.58167 10.8205L5.76551 7.88445L5.38224 7.48401L6.17028 6.70567L8.5917 9.22965L15.7206 1.9673L16.5 2.75509Z" fill="#6D6D6D"/>
</svg>
