<svg width="16" height="16" viewBox="0 0 16 16" fill="none" xmlns="http://www.w3.org/2000/svg">
<path d="M11.9542 5.87936L6.94477 10.9099L4.04506 7.99782L4.83648 7.21076L6.94549 9.32703L11.1635 5.09157L11.9542 5.87936Z" fill="#077537"/>
<path fill-rule="evenodd" clip-rule="evenodd" d="M8 0C12.4183 0 16 3.58172 16 8C16 12.4183 12.4183 16 8 16C3.58172 16 0 12.4183 0 8C0 3.58172 3.58172 0 8 0ZM8 1.11628C4.19823 1.11628 1.11628 4.19823 1.11628 8C1.11628 11.8018 4.19823 14.8837 8 14.8837C11.8018 14.8837 14.8837 11.8018 14.8837 8C14.8837 4.19823 11.8018 1.11628 8 1.11628Z" fill="#077537"/>
</svg>
