<svg width="16" height="16" viewBox="0 0 16 16" fill="none" xmlns="http://www.w3.org/2000/svg">
<path d="M12.4164 8.37137L12.2725 8.91061C11.6562 11.2103 9.29178 12.5754 6.99201 11.9593C6.27876 11.7682 5.65572 11.4074 5.15334 10.9339L5.09956 11.436L5.03924 11.9906L3.92951 11.8706L3.98983 11.3161L4.17078 9.6359L4.1686 9.63299L4.17078 9.63081L4.19041 9.45567L4.24855 8.92078L4.78488 8.9593L6.56686 9.08503L7.12355 9.125L7.04433 10.2384L6.48765 10.1991L5.96076 10.1613C6.32541 10.4927 6.77229 10.7444 7.28125 10.8808C8.98549 11.3373 10.7373 10.3255 11.194 8.62137L11.3387 8.08285L12.4164 8.37137Z" fill="#6D6D6D"/>
<path d="M3.72747 7.08939C4.34382 4.78969 6.70822 3.42463 9.00799 4.0407C9.72091 4.23176 10.3437 4.59215 10.8459 5.06541L10.9608 4.00872L12.0705 4.12863L11.8285 6.36337L11.8314 6.36701L11.8285 6.36846L11.8096 6.54433L11.7515 7.07922L11.2151 7.0407L9.43314 6.91497L8.87645 6.875L8.95567 5.7609L9.51235 5.80087L10.0378 5.83794C9.67334 5.50704 9.22721 5.25543 8.71875 5.11919C7.01455 4.66273 5.26282 5.67384 4.80596 7.37791L4.66134 7.91715L3.58358 7.62863L3.72747 7.08939Z" fill="#6D6D6D"/>
<path fill-rule="evenodd" clip-rule="evenodd" d="M8 0C12.4183 0 16 3.58172 16 8C16 12.4183 12.4183 16 8 16C3.58172 16 0 12.4183 0 8C0 3.58172 3.58172 0 8 0ZM8 1.11628C4.19823 1.11628 1.11628 4.19823 1.11628 8C1.11628 11.8018 4.19823 14.8837 8 14.8837C11.8018 14.8837 14.8837 11.8018 14.8837 8C14.8837 4.19823 11.8018 1.11628 8 1.11628Z" fill="#6D6D6D"/>
</svg>
