<svg width="16" height="16" viewBox="0 0 16 16" fill="none" xmlns="http://www.w3.org/2000/svg">
<path d="M10.899 5.87936L8.78706 7.99927L10.899 10.1206L10.1083 10.9077L7.99927 8.78997L5.89099 10.9077L5.10029 10.1206L7.21148 7.99927L5.10029 5.87936L5.89099 5.09157L7.99927 7.20858L10.1083 5.09157L10.899 5.87936Z" fill="#A21D11"/>
<path fill-rule="evenodd" clip-rule="evenodd" d="M8 0C12.4182 9.8191e-05 16 3.58178 16 8C15.9999 12.4181 12.4181 15.9999 8 16C3.58178 16 9.81936e-05 12.4182 0 8C0 3.58172 3.58172 0 8 0ZM8 1.11628C4.19823 1.11628 1.11628 4.19823 1.11628 8C1.11638 11.8017 4.19829 14.8837 8 14.8837C11.8016 14.8836 14.8836 11.8016 14.8837 8C14.8837 4.19829 11.8017 1.11638 8 1.11628Z" fill="#A21D11"/>
</svg>
