<svg width="16" height="16" viewBox="0 0 16 16" fill="none" xmlns="http://www.w3.org/2000/svg">
<path d="M11.669 6.14811L7.07912 10.7564L4.33007 7.99643L5.24084 7.08983L7.07912 8.93564L10.759 5.24152L11.669 6.14811Z" fill="#077537"/>
<path fill-rule="evenodd" clip-rule="evenodd" d="M5.85806 1.00126C6.97266 -0.336282 9.02709 -0.336111 10.1418 1.00126C10.4581 1.38067 10.9412 1.58035 11.4331 1.53569C13.167 1.37815 14.6199 2.83104 14.4623 4.56492C14.4176 5.05692 14.6173 5.53989 14.9968 5.85623C16.3344 6.9709 16.3344 9.02532 14.9968 10.14C14.6173 10.4563 14.4177 10.9393 14.4623 11.4313C14.6199 13.1652 13.167 14.618 11.4331 14.4605C10.9411 14.4159 10.4581 14.6155 10.1418 14.9949C9.02715 16.3326 6.97274 16.3326 5.85806 14.9949C5.54172 14.6155 5.05875 14.4158 4.56675 14.4605C2.83287 14.618 1.37999 13.1652 1.53752 11.4313C1.58218 10.9393 1.38251 10.4563 1.0031 10.14C-0.334278 9.02526 -0.334457 6.97082 1.0031 5.85623C1.38265 5.53989 1.58226 5.05698 1.53752 4.56492C1.38003 2.83107 2.83291 1.37819 4.56675 1.53569C5.05882 1.58042 5.54173 1.38081 5.85806 1.00126ZM9.15492 1.82339C8.5538 1.10236 7.44596 1.1022 6.84495 1.82339C6.25834 2.52736 5.36308 2.89822 4.4505 2.81529C3.51564 2.73045 2.73229 3.5138 2.81713 4.44867C2.90006 5.36124 2.5292 6.2565 1.82523 6.84311C1.10403 7.44412 1.10419 8.55196 1.82523 9.15309C2.5291 9.73968 2.90002 10.635 2.81713 11.5475C2.73218 12.4825 3.51556 13.2658 4.4505 13.1809C5.36296 13.098 6.25833 13.469 6.84495 14.1728C7.44605 14.8939 8.55389 14.894 9.15492 14.1728C9.74151 13.4689 10.6369 13.098 11.5494 13.1809C12.4843 13.2658 13.2677 12.4825 13.1827 11.5475C13.0999 10.635 13.4707 9.73967 14.1746 9.15309C14.8959 8.55205 14.8958 7.44421 14.1746 6.84311C13.4709 6.25649 13.0998 5.36113 13.1827 4.44867C13.2676 3.51373 12.4843 2.73034 11.5494 2.81529C10.6369 2.89819 9.74152 2.52726 9.15492 1.82339Z" fill="#077537"/>
</svg>
