<svg width="200" height="147" viewBox="0 0 200 147" fill="none" xmlns="http://www.w3.org/2000/svg">
<circle cx="158.338" cy="41.1626" r="1.1626" fill="#451863"/>
<rect opacity="0.42" x="54.748" y="44.3242" width="95.3823" height="61.7074" rx="6.32896" fill="url(#paint0_linear_8550_32204)"/>
<rect opacity="0.42" x="54.748" y="44.3242" width="26.1249" height="61.7074" rx="6.32896" fill="#2E1042"/>
<path opacity="0.3" d="M143.8 44.3242C147.295 44.3242 150.13 47.1583 150.13 50.6542V54.805H54.748V50.6542C54.748 47.1583 57.5821 44.3242 61.078 44.3242H143.8Z" fill="#B57EDC"/>
<path opacity="0.1" d="M80.8723 44.3242V105.896H60.7481C57.4343 105.896 54.748 103.209 54.748 99.8956V51.3242C54.748 47.4582 57.8821 44.3242 61.748 44.3242H80.8723Z" fill="#B57EDC"/>
<path d="M43.4679 67.6507C43.9482 65.9774 43.4654 64.1756 42.2128 62.9666C43.8861 63.4469 45.6879 62.9641 46.8969 61.7115C46.4166 63.3849 46.8994 65.1866 48.152 66.3956C46.4787 65.9154 44.6769 66.3982 43.4679 67.6507Z" fill="#451863"/>
<path d="M153.101 98.3285C153.581 96.6551 153.098 94.8534 151.846 93.6444C153.519 94.1246 155.321 93.6418 156.53 92.3893C156.049 94.0626 156.532 95.8644 157.785 97.0734C156.111 96.5931 154.31 97.0759 153.101 98.3285Z" fill="#451863"/>
<path opacity="0.6" d="M80.8737 44.4609V105.896H80.4805V44.4609H80.8737Z" fill="#391452"/>
<path opacity="0.6" d="M54.748 64.8919L150.13 64.8919L150.13 65.2852L54.748 65.2852L54.748 64.8919Z" fill="#391452"/>
<path opacity="0.6" d="M54.748 78.4407L150.13 78.4407L150.13 78.834L54.748 78.834L54.748 78.4407Z" fill="#391452"/>
<path opacity="0.6" d="M54.748 91.9895L150.13 91.9895L150.13 92.3828L54.748 92.3828L54.748 91.9895Z" fill="#391452"/>
<rect opacity="0.3" x="60.6445" y="57.8418" width="15.6247" height="1.90949" rx="0.954747" fill="#B57EDC"/>
<rect opacity="0.3" x="60.6445" y="49.0918" width="15.6247" height="0.946045" rx="0.473022" fill="#B57EDC"/>
<rect opacity="0.7" x="86.082" y="57.8418" width="9.43565" height="1.90949" rx="0.954747" fill="#B57EDC"/>
<rect opacity="0.3" x="86.082" y="49.0918" width="9.43565" height="0.946045" rx="0.473022" fill="#B57EDC"/>
<rect opacity="0.3" x="110.148" y="57.8418" width="10.2199" height="1.90949" rx="0.954747" fill="#B57EDC"/>
<rect opacity="0.3" x="110.148" y="49.0918" width="10.2199" height="0.946045" rx="0.473022" fill="#B57EDC"/>
<rect opacity="0.3" x="132.979" y="57.8418" width="9.78881" height="1.90949" rx="0.954747" fill="#B57EDC"/>
<rect opacity="0.3" x="132.979" y="49.0918" width="9.78881" height="0.946045" rx="0.473022" fill="#B57EDC"/>
<rect opacity="0.3" x="60.6445" y="71.0371" width="15.6247" height="1.90949" rx="0.954747" fill="#B57EDC"/>
<rect opacity="0.3" x="86.082" y="71.0371" width="9.43565" height="1.90949" rx="0.954747" fill="#B57EDC"/>
<rect opacity="0.3" x="110.148" y="71.0371" width="10.2199" height="1.90949" rx="0.954747" fill="#B57EDC"/>
<rect opacity="0.3" x="132.979" y="71.0371" width="9.78881" height="1.90949" rx="0.954747" fill="#B57EDC"/>
<rect opacity="0.3" x="60.6445" y="84.5859" width="15.6247" height="1.90949" rx="0.954747" fill="#B57EDC"/>
<rect opacity="0.3" x="86.082" y="84.5859" width="9.43565" height="1.90949" rx="0.954747" fill="#B57EDC"/>
<rect opacity="0.3" x="110.148" y="84.5859" width="10.2199" height="1.90949" rx="0.954747" fill="#B57EDC"/>
<rect opacity="0.7" x="132.979" y="84.5859" width="9.78881" height="1.90949" rx="0.954747" fill="#B57EDC"/>
<rect opacity="0.7" x="60.6445" y="98.1328" width="15.6247" height="1.90949" rx="0.954747" fill="#B57EDC"/>
<rect opacity="0.3" x="86.082" y="98.1328" width="9.43565" height="1.90949" rx="0.954747" fill="#B57EDC"/>
<rect opacity="0.3" x="110.148" y="98.1328" width="10.2199" height="1.90949" rx="0.954747" fill="#B57EDC"/>
<rect opacity="0.3" x="132.979" y="98.1328" width="9.78881" height="1.90949" rx="0.954747" fill="#B57EDC"/>
<circle opacity="0.3" cx="56.2789" cy="84.7457" r="15.2965" fill="url(#paint1_linear_8550_32204)"/>
<circle cx="56.2782" cy="84.745" r="12.2372" fill="url(#paint2_linear_8550_32204)"/>
<path d="M56.2793 89.334C57.124 89.334 57.8094 90.0186 57.8096 90.8633C57.8096 91.7081 57.1241 92.3936 56.2793 92.3936C55.4346 92.3934 54.75 91.708 54.75 90.8633C54.7501 90.0187 55.4347 89.3342 56.2793 89.334ZM56.2793 77.8613C57.0142 77.8613 57.6104 78.4575 57.6104 79.1924V86.4736C57.6103 87.2085 57.0142 87.8047 56.2793 87.8047C55.5446 87.8045 54.9492 87.2084 54.9492 86.4736V79.1924C54.9492 78.4576 55.5446 77.8615 56.2793 77.8613Z" fill="white"/>
<defs>
<linearGradient id="paint0_linear_8550_32204" x1="54.748" y1="75.1779" x2="162.204" y2="74.5755" gradientUnits="userSpaceOnUse">
<stop offset="1" stop-color="#2E1042"/>
</linearGradient>
<linearGradient id="paint1_linear_8550_32204" x1="61.0434" y1="66.5811" x2="46.1757" y2="73.2973" gradientUnits="userSpaceOnUse">
<stop stop-color="#2E1042"/>
<stop offset="1" stop-color="#2E1042"/>
</linearGradient>
<linearGradient id="paint2_linear_8550_32204" x1="75.4235" y1="77.7448" x2="36.7364" y2="81.5433" gradientUnits="userSpaceOnUse">
<stop stop-color="#2E1042"/>
<stop offset="1" stop-color="#AC6CDA"/>
</linearGradient>
</defs>
</svg>
