<svg width="120" height="100" viewBox="0 0 120 100" fill="none" xmlns="http://www.w3.org/2000/svg">
<path d="M20.6914 29.717C20.6914 26.5574 23.2528 23.9961 26.4123 23.9961H94.3174C97.477 23.9961 100.038 26.5574 100.038 29.717V30.6071C100.038 33.7667 97.477 36.3281 94.3174 36.3281H26.4123C23.2528 36.3281 20.6914 33.7667 20.6914 30.6071V29.717Z" fill="url(#paint0_linear_8550_207054)"/>
<path d="M35.3678 52.4778C35.3678 49.3183 37.9291 46.7569 41.0887 46.7569H79.641C82.8006 46.7569 85.3619 49.3183 85.3619 52.4778V53.368C85.3619 56.5275 82.8006 59.0889 79.641 59.0889H41.0887C37.9291 59.0889 35.3678 56.5275 35.3678 53.368V52.4778Z" fill="url(#paint1_linear_8550_207054)"/>
<path d="M50.0442 75.4305C50.0442 72.2709 52.6055 69.7096 55.7651 69.7096H64.9646C68.1242 69.7096 70.6855 72.2709 70.6855 75.4305V76.3206C70.6855 79.4802 68.1242 82.0415 64.9646 82.0415H55.7651C52.6055 82.0415 50.0442 79.4802 50.0442 76.3206V75.4305Z" fill="url(#paint2_linear_8550_207054)"/>
<circle cx="91.4716" cy="61.4911" r="18.3407" fill="url(#paint3_linear_8550_207054)" fill-opacity="0.3"/>
<ellipse cx="91.4714" cy="61.491" rx="14.6726" ry="14.6726" fill="url(#paint4_linear_8550_207054)" fill-opacity="0.6"/>
<ellipse cx="91.4708" cy="68.8282" rx="1.83407" ry="1.83407" fill="white"/>
<path fill-rule="evenodd" clip-rule="evenodd" d="M91.4724 53.2383C92.3536 53.2383 93.0679 53.9526 93.0679 54.8337V63.5643C93.0679 64.4455 92.3536 65.1598 91.4724 65.1598C90.5913 65.1598 89.877 64.4455 89.877 63.5643V54.8337C89.877 53.9526 90.5913 53.2383 91.4724 53.2383Z" fill="white"/>
<path d="M7.43475 70.4359C10.1945 73.3769 14.3523 74.554 18.2441 73.4961C15.3032 76.2558 14.1261 80.4137 15.184 84.3054C12.4243 81.3645 8.2664 80.1874 4.37461 81.2453C7.31555 78.4856 8.49264 74.3277 7.43475 70.4359Z" fill="#451863"/>
<path d="M115.94 90.2354C115.364 92.2417 115.943 94.4021 117.444 95.8517C115.438 95.2759 113.278 95.8547 111.828 97.3566C112.404 95.3503 111.825 93.1899 110.323 91.7403C112.33 92.3161 114.49 91.7373 115.94 90.2354Z" fill="#451863"/>
<ellipse cx="93.799" cy="14.1896" rx="3.66815" ry="3.66815" fill="#451863"/>
<defs>
<linearGradient id="paint0_linear_8550_207054" x1="72.3232" y1="26.6912" x2="34.3541" y2="38.4408" gradientUnits="userSpaceOnUse">
<stop stop-color="#2E1042"/>
<stop offset="1" stop-color="#451863"/>
</linearGradient>
<linearGradient id="paint1_linear_8550_207054" x1="72.3232" y1="26.6912" x2="34.3541" y2="38.4408" gradientUnits="userSpaceOnUse">
<stop stop-color="#2E1042"/>
<stop offset="1" stop-color="#451863"/>
</linearGradient>
<linearGradient id="paint2_linear_8550_207054" x1="72.3232" y1="26.6912" x2="34.3541" y2="38.4408" gradientUnits="userSpaceOnUse">
<stop stop-color="#2E1042"/>
<stop offset="1" stop-color="#451863"/>
</linearGradient>
<linearGradient id="paint3_linear_8550_207054" x1="123.881" y1="47.8758" x2="83.0885" y2="51.7045" gradientUnits="userSpaceOnUse">
<stop stop-color="#2E1042"/>
<stop offset="1" stop-color="#943ACF"/>
</linearGradient>
<linearGradient id="paint4_linear_8550_207054" x1="117.399" y1="50.5987" x2="87.2568" y2="54.6652" gradientUnits="userSpaceOnUse">
<stop stop-color="#2E1042"/>
<stop offset="1" stop-color="#943ACF"/>
</linearGradient>
</defs>
</svg>
