<svg width="120" height="72" viewBox="0 0 120 72" fill="none" xmlns="http://www.w3.org/2000/svg">
<rect opacity="0.82" x="30.6953" y="9.58691" width="78.4634" height="32.4249" rx="4.7" fill="url(#paint0_linear_5186_128687)"/>
<rect opacity="0.1" width="57.2136" height="2.46055" rx="1.23028" transform="matrix(1 0 0 -1 40.1055 24.7463)" fill="#B57EDC"/>
<rect opacity="0.3" width="29.8205" height="3.0494" rx="1.5247" transform="matrix(1 0 0 -1 40.1055 19.731)" fill="#B57EDC"/>
<rect x="9.67578" y="28.7771" width="81.6103" height="42.8676" rx="4.69978" fill="url(#paint1_linear_5186_128687)"/>
<path d="M20.4732 16.0633C20.8155 14.8706 20.4714 13.5864 19.5785 12.7246C20.7713 13.0669 22.0555 12.7228 22.9173 11.83C22.575 13.0227 22.9191 14.307 23.8119 15.1687C22.6192 14.8264 21.3349 15.1705 20.4732 16.0633Z" fill="#D1AFE9"/>
<path d="M113.336 22.7669C113.799 21.1559 113.334 19.4212 112.128 18.2573C113.739 18.7196 115.474 18.2548 116.638 17.0489C116.175 18.6599 116.64 20.3945 117.846 21.5585C116.235 21.0961 114.5 21.5609 113.336 22.7669Z" fill="#D1AFE9"/>
<path opacity="0.4" d="M20.0352 55.2719C20.0352 55.9514 20.586 56.5022 21.2654 56.5022H79.6923C80.3718 56.5022 80.9226 55.9514 80.9226 55.2719C80.9226 54.5925 80.3718 54.0416 79.6923 54.0416H21.2654C20.586 54.0416 20.0352 54.5925 20.0352 55.2719Z" fill="#F6EFFB"/>
<path d="M20.0352 45.7718C20.0352 46.7949 20.8645 47.6243 21.8876 47.6243H52.0354C53.0585 47.6243 53.8879 46.7949 53.8879 45.7718C53.8879 44.7487 53.0585 43.9193 52.0354 43.9193H21.8876C20.8645 43.9193 20.0352 44.7487 20.0352 45.7718Z" fill="#F6EFFB"/>
<circle opacity="0.7" cx="2.77126" cy="59.5862" r="2.27126" fill="#AC6CDA"/>
<circle opacity="0.2" cx="76.8377" cy="2.27053" r="2.27126" fill="#AC6CDA"/>
<rect opacity="0.2" x="94.293" y="60.1616" width="8.93736" height="8.93736" rx="4.46868" transform="rotate(-45 94.293 60.1616)" fill="#AC6CDA"/>
<defs>
<linearGradient id="paint0_linear_5186_128687" x1="30.6953" y1="25.7994" x2="119.087" y2="25.0236" gradientUnits="userSpaceOnUse">
<stop offset="1" stop-color="#F6EFFB"/>
</linearGradient>
<linearGradient id="paint1_linear_5186_128687" x1="114.321" y1="37.9498" x2="-11.5279" y2="61.4741" gradientUnits="userSpaceOnUse">
<stop stop-color="#F6EFFB"/>
<stop offset="1" stop-color="#AC6CDA"/>
</linearGradient>
</defs>
</svg>
