<svg width="200" height="168" viewBox="0 0 200 168" fill="none" xmlns="http://www.w3.org/2000/svg">
<rect x="42.0664" y="67.7546" width="61.0658" height="23.4868" rx="4.69978" fill="url(#paint0_linear_7625_253049)"/>
<path d="M48.4219 76.5327C48.4219 76.0843 48.7854 75.7207 49.2339 75.7207H54.918C55.3665 75.7207 55.73 76.0843 55.73 76.5327C55.73 76.9812 55.3665 77.3447 54.918 77.3447H49.2339C48.7854 77.3447 48.4219 76.9812 48.4219 76.5327Z" fill="#F6EFFB"/>
<path opacity="0.4" d="M48.4219 80.5928C48.4219 80.1443 48.7854 79.7808 49.2339 79.7808H70.4959C70.9444 79.7808 71.308 80.1443 71.308 80.5928C71.308 81.0412 70.9444 81.4048 70.4959 81.4048H49.2339C48.7854 81.4048 48.4219 81.0412 48.4219 80.5928Z" fill="#F6EFFB"/>
<rect opacity="0.82" x="60.8555" y="97.5046" width="65.7632" height="20.3553" rx="4.7" fill="url(#paint1_linear_7625_253049)"/>
<rect opacity="0.3" x="66.4492" y="104.947" width="8.26531" height="1.83673" rx="0.918367" fill="#B57EDC"/>
<rect opacity="0.1" x="66.4492" y="109.539" width="25.8835" height="1.83673" rx="0.918367" fill="#B57EDC"/>
<rect opacity="0.82" x="65.5508" y="41.1362" width="75.1579" height="20.3553" rx="4.7" fill="url(#paint2_linear_7625_253049)"/>
<rect opacity="0.3" x="71.1445" y="48.5789" width="8.26531" height="1.83673" rx="0.918367" fill="#B57EDC"/>
<rect opacity="0.1" x="71.1445" y="53.1707" width="25.8835" height="1.83673" rx="0.918367" fill="#B57EDC"/>
<path d="M144.848 98.4545C150.545 90.0007 149.633 78.4599 142.112 70.9947C133.553 62.4992 119.677 62.4992 111.118 70.9947C102.56 79.4903 102.56 93.2643 111.118 101.76C118.849 109.433 130.917 110.176 139.487 103.988C139.62 104.178 139.772 104.359 139.942 104.529L149.86 114.374C151.401 115.903 153.899 115.903 155.439 114.374C156.98 112.844 156.98 110.365 155.439 108.836L145.521 98.991C145.313 98.7842 145.087 98.6054 144.848 98.4545Z" fill="#AC6CDA" fill-opacity="0.32"/>
<path fill-rule="evenodd" clip-rule="evenodd" d="M136.566 99.9424C138.183 98.775 139.596 97.32 140.71 95.6662C145.092 89.1639 144.388 80.2851 138.597 74.5362C131.984 67.9719 121.247 67.9719 114.634 74.5362C108.041 81.0801 108.041 91.6745 114.634 98.2184C120.601 104.142 129.941 104.726 136.566 99.9424ZM145.521 97.3909C150.458 89.0536 149.322 78.1513 142.112 70.9947C133.553 62.4992 119.677 62.4992 111.118 70.9947C102.56 79.4903 102.56 93.2643 111.118 101.76C118.682 109.268 130.4 110.141 138.929 104.378C139.083 104.274 139.236 104.167 139.388 104.059C139.443 104.02 139.518 104.033 139.558 104.087C139.673 104.241 139.801 104.389 139.942 104.529L149.86 114.374C151.401 115.903 153.899 115.903 155.439 114.374C156.98 112.844 156.98 110.365 155.439 108.836L145.521 98.991C145.369 98.8398 145.207 98.7036 145.038 98.5823C144.936 98.5093 144.906 98.3687 144.975 98.2641C145.165 97.9764 145.347 97.6853 145.521 97.3909Z" fill="url(#paint3_linear_7625_253049)" fill-opacity="0.6"/>
<rect opacity="0.8" width="2.81697" height="5.26793" rx="1.40849" transform="matrix(-0.707107 -0.707107 -0.707107 0.707107 46.2188 115.155)" fill="#AC6CDA"/>
<circle opacity="0.7" cx="157.848" cy="58.2752" r="1.48099" fill="#AC6CDA"/>
<defs>
<linearGradient id="paint0_linear_7625_253049" x1="120.369" y1="72.7803" x2="28.873" y2="96.1376" gradientUnits="userSpaceOnUse">
<stop stop-color="#F6EFFB"/>
<stop offset="1" stop-color="#AC6CDA"/>
</linearGradient>
<linearGradient id="paint1_linear_7625_253049" x1="60.8555" y1="107.682" x2="134.935" y2="106.814" gradientUnits="userSpaceOnUse">
<stop offset="1" stop-color="#F6EFFB"/>
</linearGradient>
<linearGradient id="paint2_linear_7625_253049" x1="65.5508" y1="51.3139" x2="150.21" y2="50.1802" gradientUnits="userSpaceOnUse">
<stop offset="1" stop-color="#F6EFFB"/>
</linearGradient>
<linearGradient id="paint3_linear_7625_253049" x1="176.498" y1="71.1798" x2="123.231" y2="78.507" gradientUnits="userSpaceOnUse">
<stop stop-color="#F6EFFB"/>
<stop offset="1" stop-color="#AC6CDA"/>
</linearGradient>
</defs>
</svg>
