<svg width="120" height="68" viewBox="0 0 120 68" fill="none" xmlns="http://www.w3.org/2000/svg">
<circle cx="118.337" cy="1.66187" r="1.1626" fill="#D1AFE9"/>
<rect opacity="0.42" x="14.75" y="4.82446" width="95.3823" height="61.7074" rx="6.32896" fill="url(#paint0_linear_5186_88285)"/>
<rect opacity="0.42" x="14.75" y="4.82446" width="26.1249" height="61.7074" rx="6.32896" fill="#F6EFFB"/>
<path opacity="0.3" d="M103.801 4.82446C107.297 4.82446 110.131 7.6585 110.131 11.1545V15.3053H14.75V11.1545C14.75 7.6585 17.584 4.82446 21.08 4.82446H103.801Z" fill="#B57EDC"/>
<path opacity="0.1" d="M40.8743 4.82446V66.3959H20.75C17.4363 66.3959 14.75 63.7096 14.75 60.3959V11.8245C14.75 7.95847 17.884 4.82446 21.75 4.82446H40.8743Z" fill="#B57EDC"/>
<path d="M3.46985 28.1504C3.95011 26.477 3.46733 24.6753 2.21475 23.4663C3.88808 23.9465 5.68984 23.4637 6.89885 22.2112C6.41859 23.8845 6.90137 25.6863 8.15395 26.8953C6.48063 26.415 4.67887 26.8978 3.46985 28.1504Z" fill="#D1AFE9"/>
<path d="M113.102 58.829C113.582 57.1556 113.099 55.3539 111.847 54.1449C113.52 54.6251 115.322 54.1423 116.531 52.8898C116.05 54.5631 116.533 56.3648 117.786 57.5739C116.112 57.0936 114.311 57.5764 113.102 58.829Z" fill="#D1AFE9"/>
<path opacity="0.6" d="M40.8747 4.96106V66.3959H40.4814V4.96106H40.8747Z" fill="#D1AFE9"/>
<path opacity="0.6" d="M14.75 25.3921L110.131 25.3921L110.131 25.7854L14.75 25.7854L14.75 25.3921Z" fill="#D1AFE9"/>
<path opacity="0.6" d="M14.75 38.9408L110.131 38.9408L110.131 39.3341L14.75 39.3341L14.75 38.9408Z" fill="#D1AFE9"/>
<path opacity="0.6" d="M14.75 52.4895L110.131 52.4895L110.131 52.8828L14.75 52.8828L14.75 52.4895Z" fill="#D1AFE9"/>
<rect opacity="0.3" x="20.6455" y="18.3418" width="15.6247" height="1.90949" rx="0.954747" fill="#B57EDC"/>
<rect opacity="0.3" x="20.6455" y="9.5918" width="15.6247" height="0.946045" rx="0.473022" fill="#B57EDC"/>
<rect opacity="0.7" x="46.083" y="18.3418" width="9.43565" height="1.90949" rx="0.954747" fill="#B57EDC"/>
<rect opacity="0.3" x="46.083" y="9.5918" width="9.43565" height="0.946045" rx="0.473022" fill="#B57EDC"/>
<rect opacity="0.3" x="70.1484" y="18.3418" width="10.2199" height="1.90949" rx="0.954747" fill="#B57EDC"/>
<rect opacity="0.3" x="70.1484" y="9.5918" width="10.2199" height="0.946045" rx="0.473022" fill="#B57EDC"/>
<rect opacity="0.3" x="92.9795" y="18.3418" width="9.78881" height="1.90949" rx="0.954747" fill="#B57EDC"/>
<rect opacity="0.3" x="92.9795" y="9.5918" width="9.78881" height="0.946045" rx="0.473022" fill="#B57EDC"/>
<rect opacity="0.3" x="20.6455" y="31.5366" width="15.6247" height="1.90949" rx="0.954747" fill="#B57EDC"/>
<rect opacity="0.3" x="46.083" y="31.5366" width="9.43565" height="1.90949" rx="0.954747" fill="#B57EDC"/>
<rect opacity="0.3" x="70.1484" y="31.5366" width="10.2199" height="1.90949" rx="0.954747" fill="#B57EDC"/>
<rect opacity="0.3" x="92.9795" y="31.5366" width="9.78881" height="1.90949" rx="0.954747" fill="#B57EDC"/>
<rect opacity="0.3" x="20.6455" y="45.0852" width="15.6247" height="1.90949" rx="0.954747" fill="#B57EDC"/>
<rect opacity="0.3" x="46.083" y="45.0852" width="9.43565" height="1.90949" rx="0.954747" fill="#B57EDC"/>
<rect opacity="0.3" x="70.1484" y="45.0852" width="10.2199" height="1.90949" rx="0.954747" fill="#B57EDC"/>
<rect opacity="0.7" x="92.9795" y="45.0852" width="9.78881" height="1.90949" rx="0.954747" fill="#B57EDC"/>
<rect opacity="0.7" x="20.6455" y="58.6339" width="15.6247" height="1.90949" rx="0.954747" fill="#B57EDC"/>
<rect opacity="0.3" x="46.083" y="58.6339" width="9.43565" height="1.90949" rx="0.954747" fill="#B57EDC"/>
<rect opacity="0.3" x="70.1484" y="58.6339" width="10.2199" height="1.90949" rx="0.954747" fill="#B57EDC"/>
<rect opacity="0.3" x="92.9795" y="58.6339" width="9.78881" height="1.90949" rx="0.954747" fill="#B57EDC"/>
<circle opacity="0.3" cx="16.2799" cy="45.2468" r="15.2965" fill="url(#paint1_linear_5186_88285)"/>
<circle cx="16.2802" cy="45.2469" r="12.2372" fill="url(#paint2_linear_5186_88285)"/>
<path d="M16.2793 49.8357C17.124 49.8357 17.8094 50.5203 17.8096 51.365C17.8096 52.2098 17.1241 52.8953 16.2793 52.8953C15.4346 52.8951 14.75 52.2097 14.75 51.365C14.7501 50.5204 15.4347 49.8359 16.2793 49.8357ZM16.2793 38.363C17.0142 38.363 17.6104 38.9592 17.6104 39.6941V46.9753C17.6103 47.7102 17.0142 48.3064 16.2793 48.3064C15.5446 48.3062 14.9492 47.7101 14.9492 46.9753V39.6941C14.9492 38.9593 15.5446 38.3632 16.2793 38.363Z" fill="#F6EFFB"/>
<defs>
<linearGradient id="paint0_linear_5186_88285" x1="14.75" y1="35.6781" x2="122.206" y2="35.0757" gradientUnits="userSpaceOnUse">
<stop offset="1" stop-color="#F6EFFB"/>
</linearGradient>
<linearGradient id="paint1_linear_5186_88285" x1="21.0444" y1="27.0822" x2="6.17665" y2="33.7984" gradientUnits="userSpaceOnUse">
<stop stop-color="#F6EFFB"/>
<stop offset="1" stop-color="#F6EFFB"/>
</linearGradient>
<linearGradient id="paint2_linear_5186_88285" x1="35.4254" y1="38.2468" x2="-3.26161" y2="42.0453" gradientUnits="userSpaceOnUse">
<stop stop-color="#F6EFFB"/>
<stop offset="1" stop-color="#AC6CDA"/>
</linearGradient>
</defs>
</svg>
