<svg width="172" height="118" viewBox="0 0 172 118" fill="none" xmlns="http://www.w3.org/2000/svg">
<path d="M115.557 48.6271H145.755L141.022 35.6887L141.258 35.6027L141.492 35.5168L146.287 48.6271H146.699V49.1271H146.47L161.98 91.5383H162.049V91.7238L171.339 117.125L171.462 117.461H0.538086L0.661133 117.125L30.5078 35.5168L30.7422 35.6027L30.9775 35.6887L26.2451 48.6271H57.0186L60.9238 34.6291L61.165 34.6965L61.4053 34.7639L57.5381 48.6271H86.1533V35.6008H86.6533V48.6271H115.037L111.17 34.7639L111.41 34.6965L111.651 34.6291L115.557 48.6271ZM134.581 116.826L134.341 116.894L134.1 116.961H170.746L161.631 92.0383H127.666L134.581 116.826ZM38.4756 116.961H134.1L127.147 92.0383H86.6533V116.5H86.1533V92.0383H45.4277L38.4756 116.961ZM1.25391 116.961H38.4756L37.9932 116.826L44.9082 92.0383H10.3691L1.25391 116.961ZM10.5518 91.5383H45.0479L50.7461 71.1125H18.0215L10.5518 91.5383ZM45.5674 91.5383H86.1533V71.1125H51.2656L45.5674 91.5383ZM86.6533 91.5383H127.008L121.31 71.1125H86.6533V91.5383ZM127.526 91.5383H161.448L153.979 71.1125H121.829L127.526 91.5383ZM18.2051 70.6125H50.8857L56.8789 49.1271H26.0625L18.2051 70.6125ZM51.4053 70.6125H86.1533V49.1271H57.3984L51.4053 70.6125ZM86.6533 70.6125H121.17L115.177 49.1271H86.6533V70.6125ZM121.689 70.6125H153.795L145.938 49.1271H115.695L121.689 70.6125Z" fill="url(#paint0_linear_4667_116453)" fill-opacity="0.08"/>
<circle cx="41.7667" cy="78.4981" r="3.92384" stroke="#222222" stroke-width="0.2"/>
<path d="M136.909 47.7264L134.831 39.7446L142.782 41.9356L136.909 47.7264Z" stroke="#222222" stroke-width="0.2"/>
<ellipse cx="86.7899" cy="92.9564" rx="31.6192" ry="10.2709" transform="rotate(-0.296546 86.7899 92.9564)" fill="white"/>
<path d="M100.032 83.5657C95.9881 82.9778 91.4837 82.6613 86.7367 82.6858C69.2742 82.7762 55.1418 87.4479 55.1711 93.1203C55.2005 98.7927 69.3805 103.318 86.843 103.227C104.306 103.137 118.438 98.4654 118.409 92.793C118.4 91.1669 117.229 89.6352 115.151 88.2794" stroke="#7A7A7A" stroke-width="0.2"/>
<mask id="path-6-inside-1_4667_116453" fill="white">
<path d="M84.8776 89.7744C64.3958 89.2307 47.9509 71.6651 47.9509 50.0771L47.9636 49.0537C48.4824 27.5969 65.2486 10.3696 85.8552 10.3691L86.8346 10.3818C106.991 10.9172 123.237 27.9374 123.748 49.0536L123.76 50.0771C123.76 72.0078 106.789 89.787 85.8552 89.7871L84.8776 89.7744ZM104.299 27.4609C99.2979 22.8596 92.7982 20.123 85.8552 20.123C70.7311 20.1235 57.7054 33.1016 57.7048 50.0771C57.7048 55.564 59.067 60.6328 61.4196 64.9814L104.299 27.4609ZM85.8552 80.0331C100.98 80.0331 114.007 67.0535 114.007 50.0771C114.006 44.5917 112.645 39.5243 110.294 35.1767L67.4138 72.6972C72.4149 77.2974 78.9134 80.0329 85.8552 80.0331Z"/>
</mask>
<path d="M84.8776 89.7744C64.3958 89.2307 47.9509 71.6651 47.9509 50.0771L47.9636 49.0537C48.4824 27.5969 65.2486 10.3696 85.8552 10.3691L86.8346 10.3818C106.991 10.9172 123.237 27.9374 123.748 49.0536L123.76 50.0771C123.76 72.0078 106.789 89.787 85.8552 89.7871L84.8776 89.7744ZM104.299 27.4609C99.2979 22.8596 92.7982 20.123 85.8552 20.123C70.7311 20.1235 57.7054 33.1016 57.7048 50.0771C57.7048 55.564 59.067 60.6328 61.4196 64.9814L104.299 27.4609ZM85.8552 80.0331C100.98 80.0331 114.007 67.0535 114.007 50.0771C114.006 44.5917 112.645 39.5243 110.294 35.1767L67.4138 72.6972C72.4149 77.2974 78.9134 80.0329 85.8552 80.0331Z" fill="#E9E9E9"/>
<path d="M84.8776 89.7744L84.8723 89.9743L84.875 89.9743L84.8776 89.7744ZM47.9509 50.0771L47.7509 50.0746L47.7509 50.0771L47.9509 50.0771ZM47.9636 49.0537L47.7636 49.0488L47.7636 49.0512L47.9636 49.0537ZM85.8552 10.3691L85.8578 10.1691L85.8552 10.1691L85.8552 10.3691ZM86.8346 10.3818L86.84 10.1818L86.8372 10.1818L86.8346 10.3818ZM123.748 49.0536L123.948 49.0512L123.948 49.0488L123.748 49.0536ZM123.76 50.0771L123.96 50.0771L123.96 50.0746L123.76 50.0771ZM85.8552 89.7871L85.8526 89.9871L85.8552 89.9871L85.8552 89.7871ZM104.299 27.4609L104.431 27.6114L104.599 27.4646L104.435 27.3137L104.299 27.4609ZM85.8552 20.123L85.8552 19.923L85.8551 19.923L85.8552 20.123ZM57.7048 50.0771L57.5048 50.0771L57.5048 50.0771L57.7048 50.0771ZM61.4196 64.9814L61.2437 65.0766L61.3629 65.2968L61.5513 65.1319L61.4196 64.9814ZM85.8552 80.0331L85.8552 80.2331L85.8552 80.2331L85.8552 80.0331ZM114.007 50.0771L114.207 50.0771L114.207 50.0771L114.007 50.0771ZM110.294 35.1767L110.47 35.0815L110.35 34.8613L110.162 35.0262L110.294 35.1767ZM67.4138 72.6972L67.2821 72.5467L67.1143 72.6935L67.2784 72.8444L67.4138 72.6972ZM84.8776 89.7744L84.8829 89.5744C64.5175 89.0339 48.1509 71.5649 48.1509 50.0771L47.9509 50.0771L47.7509 50.0771C47.7509 71.7652 64.2741 89.4276 84.8723 89.9743L84.8776 89.7744ZM47.9509 50.0771L48.1508 50.0796L48.1635 49.0561L47.9636 49.0537L47.7636 49.0512L47.7509 50.0746L47.9509 50.0771ZM47.9636 49.0537L48.1635 49.0585C48.6799 27.7014 65.3658 10.5695 85.8552 10.5691L85.8552 10.3691L85.8552 10.1691C65.1314 10.1696 48.2848 27.4923 47.7636 49.0488L47.9636 49.0537ZM85.8552 10.3691L85.8526 10.5691L86.8321 10.5818L86.8346 10.3818L86.8372 10.1818L85.8577 10.1691L85.8552 10.3691ZM86.8346 10.3818L86.8293 10.5817C106.871 11.1141 123.04 28.0405 123.548 49.0585L123.748 49.0536L123.948 49.0488C123.435 27.8343 107.111 10.7203 86.84 10.1818L86.8346 10.3818ZM123.748 49.0536L123.548 49.0561L123.56 50.0796L123.76 50.0771L123.96 50.0746L123.948 49.0512L123.748 49.0536ZM123.76 50.0771L123.56 50.0771C123.56 71.9062 106.67 89.587 85.8552 89.5871L85.8552 89.7871L85.8552 89.9871C106.908 89.987 123.96 72.1093 123.96 50.0771L123.76 50.0771ZM85.8552 89.7871L85.8578 89.5871L84.8802 89.5744L84.8776 89.7744L84.875 89.9743L85.8526 89.987L85.8552 89.7871ZM104.299 27.4609L104.435 27.3137C99.399 22.6808 92.8517 19.923 85.8552 19.923L85.8552 20.123L85.8552 20.323C92.7446 20.323 99.1969 23.0384 104.164 27.6081L104.299 27.4609ZM85.8552 20.123L85.8551 19.923C70.6129 19.9235 57.5054 32.9991 57.5048 50.0771L57.7048 50.0771L57.9048 50.0771C57.9054 33.2041 70.8494 20.3235 85.8552 20.323L85.8552 20.123ZM57.7048 50.0771L57.5048 50.0771C57.5048 55.5975 58.8754 60.699 61.2437 65.0766L61.4196 64.9814L61.5955 64.8862C59.2586 60.5666 57.9048 55.5305 57.9048 50.0771L57.7048 50.0771ZM61.4196 64.9814L61.5513 65.1319L104.431 27.6114L104.299 27.4609L104.168 27.3104L61.2879 64.8309L61.4196 64.9814ZM85.8552 80.0331L85.8552 80.2331C101.098 80.2331 114.207 67.156 114.207 50.0771L114.007 50.0771L113.807 50.0771C113.807 66.951 100.862 79.8331 85.8552 79.8331L85.8552 80.0331ZM114.007 50.0771L114.207 50.0771C114.206 44.5582 112.837 39.4582 110.47 35.0815L110.294 35.1767L110.118 35.2718C112.454 39.5905 113.806 44.6252 113.807 50.0771L114.007 50.0771ZM110.294 35.1767L110.162 35.0262L67.2821 72.5467L67.4138 72.6972L67.5455 72.8477L110.425 35.3272L110.294 35.1767ZM67.4138 72.6972L67.2784 72.8444C72.3139 77.4762 78.8598 80.2329 85.8552 80.2331L85.8552 80.0331L85.8552 79.8331C78.9669 79.8329 72.516 77.1186 67.5492 72.55L67.4138 72.6972Z" fill="#222222" mask="url(#path-6-inside-1_4667_116453)"/>
<path d="M89.7543 88.8832C69.2725 88.3396 52.8276 70.774 52.8276 49.186L52.8403 48.1625C53.3591 26.7058 70.1253 9.47846 90.7319 9.47797L91.7114 9.49066C111.868 10.0261 128.114 27.0463 128.624 48.1625L128.637 49.186C128.637 71.1166 111.666 88.8959 90.7319 88.8959L89.7543 88.8832ZM109.177 26.5698C104.176 21.9682 97.6751 19.2319 90.7319 19.2319C75.6079 19.2324 62.5821 32.2105 62.5815 49.186C62.5815 54.6729 63.9437 59.7417 66.2963 64.0903L109.177 26.5698ZM90.7319 79.142C105.857 79.142 118.883 66.1624 118.883 49.186C118.883 43.7009 117.522 38.634 115.17 34.2866L72.2905 71.8061C77.2917 76.4063 83.7901 79.1418 90.7319 79.142Z" fill="#6D6D6D"/>
<path d="M65.4123 3.75475L62.4695 8.85195L59.526 3.75494L65.4123 3.75475Z" stroke="#222222" stroke-width="0.2"/>
<defs>
<linearGradient id="paint0_linear_4667_116453" x1="20.5681" y1="86.2338" x2="149.467" y2="86.204" gradientUnits="userSpaceOnUse">
<stop stop-color="white"/>
<stop offset="0.490283" stop-color="#111111"/>
<stop offset="1" stop-color="white"/>
</linearGradient>
</defs>
</svg>
