<svg width="172" height="118" viewBox="0 0 172 118" fill="none" xmlns="http://www.w3.org/2000/svg">
<path d="M115.557 48.6271H145.755L141.022 35.6887L141.258 35.6027L141.492 35.5168L146.287 48.6271H146.699V49.1271H146.47L161.98 91.5383H162.049V91.7238L171.339 117.125L171.462 117.461H0.538086L0.661133 117.125L30.5078 35.5168L30.7422 35.6027L30.9775 35.6887L26.2451 48.6271H57.0186L60.9238 34.6291L61.165 34.6965L61.4053 34.7639L57.5381 48.6271H86.1533V35.6008H86.6533V48.6271H115.037L111.17 34.7639L111.41 34.6965L111.651 34.6291L115.557 48.6271ZM134.581 116.826L134.341 116.894L134.1 116.961H170.746L161.631 92.0383H127.666L134.581 116.826ZM38.4756 116.961H134.1L127.147 92.0383H86.6533V116.5H86.1533V92.0383H45.4277L38.4756 116.961ZM1.25391 116.961H38.4756L37.9932 116.826L44.9082 92.0383H10.3691L1.25391 116.961ZM10.5518 91.5383H45.0479L50.7461 71.1125H18.0215L10.5518 91.5383ZM45.5674 91.5383H86.1533V71.1125H51.2656L45.5674 91.5383ZM86.6533 91.5383H127.008L121.31 71.1125H86.6533V91.5383ZM127.526 91.5383H161.448L153.979 71.1125H121.829L127.526 91.5383ZM18.2051 70.6125H50.8857L56.8789 49.1271H26.0625L18.2051 70.6125ZM51.4053 70.6125H86.1533V49.1271H57.3984L51.4053 70.6125ZM86.6533 70.6125H121.17L115.177 49.1271H86.6533V70.6125ZM121.689 70.6125H153.795L145.938 49.1271H115.695L121.689 70.6125Z" fill="url(#paint0_linear_5120_39470)" fill-opacity="0.08"/>
<circle cx="41.7667" cy="78.4981" r="3.92384" stroke="white" stroke-width="0.2"/>
<path d="M136.909 47.7264L134.831 39.7446L142.782 41.9356L136.909 47.7264Z" stroke="white" stroke-width="0.2"/>
<ellipse cx="86.7899" cy="92.9564" rx="31.6192" ry="10.2709" transform="rotate(-0.296546 86.7899 92.9564)" fill="#111111"/>
<path d="M100.032 83.5657C95.9881 82.9778 91.4837 82.6613 86.7367 82.6858C69.2742 82.7762 55.1418 87.4479 55.1711 93.1203C55.2005 98.7927 69.3805 103.318 86.843 103.227C104.306 103.137 118.438 98.4654 118.409 92.793C118.4 91.1669 117.229 89.6352 115.151 88.2794" stroke="#7A7A7A" stroke-width="0.2"/>
<path d="M86.8317 10.4804V10.4814C106.617 11.0069 122.63 27.4624 123.612 48.0712L123.648 49.0556L123.661 50.0781C123.66 71.9575 106.729 89.6865 85.8552 89.6865L84.8796 89.6747H84.8805C64.4572 89.1327 48.051 71.6155 48.0505 50.0781L48.0632 49.0556C48.581 27.6492 65.3068 10.4697 85.8542 10.4687L86.8317 10.4804ZM110.228 35.1015L67.3483 72.622L67.2643 72.6953L67.3464 72.7704C72.3647 77.3864 78.8866 80.1325 85.8552 80.1328C101.039 80.1328 114.106 67.1047 114.106 50.0771C114.106 44.575 112.741 39.491 110.382 35.1288L110.322 35.0185L110.228 35.1015ZM85.8552 20.0234C70.672 20.0239 57.6058 33.0503 57.6052 50.0771C57.6052 55.5807 58.9712 60.6661 61.3317 65.0292L61.3913 65.1386L61.485 65.0566L104.365 27.5361L104.449 27.4628L104.367 27.3876C99.3481 22.7706 92.825 20.0234 85.8552 20.0234Z" fill="#383838" stroke="white" stroke-width="0.2"/>
<path fill-rule="evenodd" clip-rule="evenodd" d="M89.7543 88.8832C69.2725 88.3396 52.8276 70.774 52.8276 49.186L52.8403 48.1625C53.3591 26.7058 70.1253 9.47846 90.7319 9.47797L91.7114 9.49066C111.868 10.0261 128.114 27.0463 128.624 48.1625L128.637 49.186C128.637 71.1166 111.666 88.8959 90.7319 88.8959L89.7543 88.8832ZM109.177 26.5698C104.176 21.9682 97.6751 19.2319 90.7319 19.2319C75.6079 19.2324 62.5821 32.2105 62.5815 49.186C62.5815 54.6729 63.9437 59.7417 66.2963 64.0903L109.177 26.5698ZM90.7319 79.142C105.857 79.142 118.883 66.1623 118.883 49.186C118.883 43.7009 117.522 38.634 115.17 34.2866L72.2905 71.8061C77.2916 76.4063 83.7901 79.1418 90.7319 79.142Z" fill="#9F9F9F"/>
<path d="M65.4123 3.75475L62.4695 8.85195L59.526 3.75494L65.4123 3.75475Z" stroke="white" stroke-width="0.2"/>
<defs>
<linearGradient id="paint0_linear_5120_39470" x1="20.5681" y1="86.2338" x2="149.467" y2="86.204" gradientUnits="userSpaceOnUse">
<stop stop-color="#111111"/>
<stop offset="0.490283" stop-color="white"/>
<stop offset="1" stop-color="#111111"/>
</linearGradient>
</defs>
</svg>
