<svg width="172" height="111" viewBox="0 0 172 111" fill="none" xmlns="http://www.w3.org/2000/svg">
<path d="M115.557 42.0007H145.755L141.022 29.0623L141.258 28.9763L141.492 28.8904L146.287 42.0007H146.699V42.5007H146.47L161.98 84.9119H162.049V85.0974L171.339 110.499L171.462 110.835H0.538086L0.661133 110.499L30.5078 28.8904L30.7422 28.9763L30.9775 29.0623L26.2451 42.0007H57.0186L60.9238 28.0027L61.165 28.0701L61.4053 28.1375L57.5381 42.0007H86.1533V28.9744H86.6533V42.0007H115.037L111.17 28.1375L111.41 28.0701L111.651 28.0027L115.557 42.0007ZM134.581 110.2L134.341 110.267L134.1 110.335H170.746L161.631 85.4119H127.666L134.581 110.2ZM38.4756 110.335H134.1L127.147 85.4119H86.6533V109.874H86.1533V85.4119H45.4277L38.4756 110.335ZM1.25391 110.335H38.4756L37.9932 110.2L44.9082 85.4119H10.3691L1.25391 110.335ZM10.5518 84.9119H45.0479L50.7461 64.4861H18.0215L10.5518 84.9119ZM45.5674 84.9119H86.1533V64.4861H51.2656L45.5674 84.9119ZM86.6533 84.9119H127.008L121.31 64.4861H86.6533V84.9119ZM127.526 84.9119H161.448L153.979 64.4861H121.829L127.526 84.9119ZM18.2051 63.9861H50.8857L56.8789 42.5007H26.0625L18.2051 63.9861ZM51.4053 63.9861H86.1533V42.5007H57.3984L51.4053 63.9861ZM86.6533 63.9861H121.17L115.177 42.5007H86.6533V63.9861ZM121.689 63.9861H153.795L145.938 42.5007H115.695L121.689 63.9861Z" fill="url(#paint0_linear_4667_116394)" fill-opacity="0.08"/>
<circle cx="41.7666" cy="71.8717" r="3.92384" stroke="#222222" stroke-width="0.2"/>
<path d="M131.698 43.7272L133.972 53.9881" stroke="#222222" stroke-width="0.2"/>
<path d="M137.967 47.7261L127.704 49.9883" stroke="#222222" stroke-width="0.2"/>
<path d="M132.516 46.9477C133.007 47.7082 133.805 48.216 134.701 48.3389L134.993 48.3792L134.746 48.5391C133.985 49.0293 133.476 49.8279 133.353 50.7242L133.313 51.0162L133.153 50.7686C132.663 50.0082 131.865 49.4992 130.969 49.3763L130.676 49.3362L130.925 49.1761C131.685 48.6859 132.193 47.8883 132.316 46.9921L132.356 46.6992L132.516 46.9477Z" fill="white" stroke="#222222" stroke-width="0.2"/>
<ellipse cx="86.6858" cy="86.33" rx="31.6192" ry="10.2709" transform="rotate(-0.296546 86.6858 86.33)" fill="white"/>
<path d="M95.8592 76.4457C108.882 77.6499 118.385 81.5239 118.409 86.1663C118.438 91.8387 104.306 96.5104 86.843 96.6008C69.3805 96.6911 55.2005 92.166 55.1711 86.4936C55.158 83.9575 57.9758 81.6214 62.6565 79.8053" stroke="#7A7A7A" stroke-width="0.2"/>
<path d="M45.3472 36.141L35.2078 48.3782L76.3481 84.8567H82.9244L128.167 1.15552L120.635 1.29411L74.7165 60.3823L52.1068 36.141H45.3472Z" fill="#DEE1FF" stroke="#222222" stroke-width="0.2" stroke-linejoin="bevel"/>
<path d="M52.1067 36.1409L41.9673 48.3781L83.1076 84.8566L141.38 12.0162L128.21 1.29407L81.476 60.3822L52.1067 36.1409Z" fill="#5160FF" stroke="#383838" stroke-width="0.2"/>
<path d="M70.9591 0.737305L69.8456 11.1882" stroke="#222222" stroke-width="0.2"/>
<path d="M75.6277 6.52551L65.1781 5.39937" stroke="#222222" stroke-width="0.2"/>
<path d="M70.7088 4.05077C70.9311 4.92778 71.526 5.66351 72.3365 6.06562L72.6004 6.19686L72.3148 6.26955C71.4377 6.49186 70.7011 7.08668 70.2989 7.89716L70.1677 8.16111L70.095 7.87544C69.8727 6.99843 69.2788 6.26184 68.4684 5.85972L68.2035 5.72837L68.4901 5.65579C69.3669 5.43345 70.1027 4.83934 70.5049 4.02904L70.6362 3.76412L70.7088 4.05077Z" fill="white" stroke="#222222" stroke-width="0.2"/>
<defs>
<linearGradient id="paint0_linear_4667_116394" x1="20.5681" y1="79.6074" x2="149.467" y2="79.5776" gradientUnits="userSpaceOnUse">
<stop stop-color="white"/>
<stop offset="0.490283" stop-color="#111111"/>
<stop offset="1" stop-color="white"/>
</linearGradient>
</defs>
</svg>
