<svg width="172" height="112" viewBox="0 0 172 112" fill="none" xmlns="http://www.w3.org/2000/svg">
<path d="M115.557 42.2148H145.755L141.022 29.2763L141.258 29.1904L141.492 29.1044L146.287 42.2148H146.699V42.7148H146.47L161.98 85.1259H162.049V85.3115L171.339 110.713L171.462 111.049H0.538086L0.661133 110.713L30.5078 29.1044L30.7422 29.1904L30.9775 29.2763L26.2451 42.2148H57.0186L60.9238 28.2167L61.165 28.2841L61.4053 28.3515L57.5381 42.2148H86.1533V29.1884H86.6533V42.2148H115.037L111.17 28.3515L111.41 28.2841L111.651 28.2167L115.557 42.2148ZM134.581 110.414L134.341 110.481L134.1 110.549H170.746L161.631 85.6259H127.666L134.581 110.414ZM38.4756 110.549H134.1L127.147 85.6259H86.6533V110.088H86.1533V85.6259H45.4277L38.4756 110.549ZM1.25391 110.549H38.4756L37.9932 110.414L44.9082 85.6259H10.3691L1.25391 110.549ZM10.5518 85.1259H45.0479L50.7461 64.7001H18.0215L10.5518 85.1259ZM45.5674 85.1259H86.1533V64.7001H51.2656L45.5674 85.1259ZM86.6533 85.1259H127.008L121.31 64.7001H86.6533V85.1259ZM127.526 85.1259H161.448L153.979 64.7001H121.829L127.526 85.1259ZM18.2051 64.2001H50.8857L56.8789 42.7148H26.0625L18.2051 64.2001ZM51.4053 64.2001H86.1533V42.7148H57.3984L51.4053 64.2001ZM86.6533 64.2001H121.17L115.177 42.7148H86.6533V64.2001ZM121.689 64.2001H153.795L145.938 42.7148H115.695L121.689 64.2001Z" fill="url(#paint0_linear_5120_39502)" fill-opacity="0.08"/>
<circle cx="41.7667" cy="72.0857" r="3.92384" stroke="white" stroke-width="0.2"/>
<path d="M119.045 29.7643L121.32 40.0253" stroke="white" stroke-width="0.2"/>
<path d="M125.315 33.7632L115.051 36.0254" stroke="white" stroke-width="0.2"/>
<path d="M119.864 32.9849C120.354 33.7453 121.152 34.2531 122.049 34.376L122.341 34.4163L122.093 34.5762C121.332 35.0664 120.824 35.865 120.701 36.7613L120.661 37.0534L120.501 36.8057C120.01 36.0453 119.213 35.5363 118.316 35.4134L118.024 35.3733L118.272 35.2132C119.032 34.723 119.541 33.9254 119.663 33.0292L119.704 32.7363L119.864 32.9849Z" fill="#111111" stroke="white" stroke-width="0.2"/>
<ellipse cx="86.6858" cy="86.544" rx="31.6192" ry="10.2709" transform="rotate(-0.296546 86.6858 86.544)" fill="#111111"/>
<path d="M103.266 77.6996C112.332 79.4592 118.389 82.675 118.409 86.3804C118.438 92.0527 104.306 96.7244 86.843 96.8148C69.3805 96.9052 55.2005 92.38 55.1711 86.7077C55.158 84.1715 57.9758 81.8354 62.6565 80.0194C63.8465 79.7091 67.1051 78.4256 70.2407 78.2068" stroke="#7A7A7A" stroke-width="0.2"/>
<path d="M76.3731 0.951294V65.9506L80.3952 68.838L93.1074 65.9506L97.2089 3.80421L93.1074 0.951294H76.3731Z" fill="#23264E" stroke="#E9E9E9" stroke-width="0.2"/>
<path d="M80.4705 3.84351V68.8428H97.2048V3.84351H80.4705Z" fill="#2534D3" stroke="#E9E9E9" stroke-width="0.2"/>
<path d="M76.3731 72.7618V85.8846L80.4005 88.7731L93.1075 85.8846L97.1733 75.5877L93.1075 72.7618H76.3731Z" fill="#23264E" stroke="#E9E9E9" stroke-width="0.2"/>
<path d="M80.4705 75.6541V88.7768H97.2048V75.6541H80.4705Z" fill="#2534D3" stroke="#E9E9E9" stroke-width="0.2"/>
<path d="M61.3523 17.209L60.2388 27.6599" stroke="white" stroke-width="0.2"/>
<path d="M66.0209 22.9972L55.5713 21.8711" stroke="white" stroke-width="0.2"/>
<path d="M61.102 20.5225C61.3243 21.3995 61.9192 22.1352 62.7297 22.5374L62.9937 22.6686L62.708 22.7413C61.831 22.9636 61.0943 23.5584 60.6922 24.3689L60.5609 24.6329L60.4882 24.3472C60.2659 23.4702 59.6721 22.7336 58.8616 22.3315L58.5967 22.2001L58.8833 22.1275C59.7602 21.9052 60.496 21.3111 60.8981 20.5008L61.0294 20.2359L61.102 20.5225Z" fill="#111111" stroke="white" stroke-width="0.2"/>
<defs>
<linearGradient id="paint0_linear_5120_39502" x1="20.5681" y1="79.8214" x2="149.467" y2="79.7916" gradientUnits="userSpaceOnUse">
<stop stop-color="#111111"/>
<stop offset="0.490283" stop-color="white"/>
<stop offset="1" stop-color="#111111"/>
</linearGradient>
</defs>
</svg>
