<svg width="172" height="112" viewBox="0 0 172 112" fill="none" xmlns="http://www.w3.org/2000/svg">
<path d="M115.557 42.2123H145.755L141.022 29.2738L141.258 29.1879L141.492 29.1019L146.287 42.2123H146.699V42.7123H146.47L161.98 85.1234H162.049V85.309L171.339 110.71L171.462 111.046H0.538086L0.661133 110.71L30.5078 29.1019L30.7422 29.1879L30.9775 29.2738L26.2451 42.2123H57.0186L60.9238 28.2142L61.165 28.2816L61.4053 28.349L57.5381 42.2123H86.1533V29.1859H86.6533V42.2123H115.037L111.17 28.349L111.41 28.2816L111.651 28.2142L115.557 42.2123ZM134.581 110.411L134.341 110.479L134.1 110.546H170.746L161.631 85.6234H127.666L134.581 110.411ZM38.4756 110.546H134.1L127.147 85.6234H86.6533V110.085H86.1533V85.6234H45.4277L38.4756 110.546ZM1.25391 110.546H38.4756L37.9932 110.411L44.9082 85.6234H10.3691L1.25391 110.546ZM10.5518 85.1234H45.0479L50.7461 64.6976H18.0215L10.5518 85.1234ZM45.5674 85.1234H86.1533V64.6976H51.2656L45.5674 85.1234ZM86.6533 85.1234H127.008L121.31 64.6976H86.6533V85.1234ZM127.526 85.1234H161.448L153.979 64.6976H121.829L127.526 85.1234ZM18.2051 64.1976H50.8857L56.8789 42.7123H26.0625L18.2051 64.1976ZM51.4053 64.1976H86.1533V42.7123H57.3984L51.4053 64.1976ZM86.6533 64.1976H121.17L115.177 42.7123H86.6533V64.1976ZM121.689 64.1976H153.795L145.938 42.7123H115.695L121.689 64.1976Z" fill="url(#paint0_linear_4667_116375)" fill-opacity="0.08"/>
<circle cx="41.7666" cy="72.0832" r="3.92384" stroke="#222222" stroke-width="0.2"/>
<path d="M131.698 43.9387L133.972 54.1997" stroke="#222222" stroke-width="0.2"/>
<path d="M137.967 47.9376L127.704 50.1998" stroke="#222222" stroke-width="0.2"/>
<path d="M132.516 47.1593C133.006 47.9197 133.805 48.4276 134.701 48.5505L134.993 48.5908L134.746 48.7507C133.985 49.2409 133.476 50.0394 133.353 50.9358L133.313 51.2278L133.153 50.9802C132.663 50.2197 131.865 49.7107 130.969 49.5878L130.676 49.5477L130.925 49.3876C131.685 48.8975 132.193 48.0999 132.316 47.2037L132.356 46.9107L132.516 47.1593Z" fill="white" stroke="#222222" stroke-width="0.2"/>
<ellipse cx="86.6858" cy="86.5415" rx="31.6192" ry="10.2709" transform="rotate(-0.296546 86.6858 86.5415)" fill="white"/>
<path d="M95.8592 76.6572C108.882 77.8615 118.385 81.7354 118.409 86.3779C118.438 92.0503 104.306 96.7219 86.843 96.8123C69.3805 96.9027 55.2005 92.3776 55.1711 86.7052C55.158 84.169 57.9758 81.8329 62.6565 80.0169" stroke="#7A7A7A" stroke-width="0.2"/>
<path d="M45.3472 36.3525L35.2078 48.5897L76.3481 85.0682H82.9244L128.167 1.36707L120.635 1.50566L74.7165 60.5938L52.1068 36.3525H45.3472Z" fill="#DEE1FF" stroke="#222222" stroke-width="0.2" stroke-linejoin="bevel"/>
<path d="M52.1067 36.3525L41.9673 48.5897L83.1076 85.0681L141.38 12.2277L128.21 1.50562L81.476 60.5938L52.1067 36.3525Z" fill="#0277B6" stroke="#383838" stroke-width="0.2"/>
<path d="M70.9591 0.948853L69.8456 11.3998" stroke="#222222" stroke-width="0.2"/>
<path d="M75.6277 6.737L65.1781 5.61086" stroke="#222222" stroke-width="0.2"/>
<path d="M70.7088 4.26232C70.9311 5.13932 71.526 5.87506 72.3365 6.27717L72.6004 6.40841L72.3148 6.48109C71.4377 6.70341 70.7011 7.29822 70.2989 8.10871L70.1677 8.37266L70.095 8.08698C69.8727 7.20997 69.2788 6.47339 68.4684 6.07126L68.2035 5.93992L68.4901 5.86734C69.3669 5.645 70.1027 5.05088 70.5049 4.24059L70.6362 3.97567L70.7088 4.26232Z" fill="white" stroke="#222222" stroke-width="0.2"/>
<defs>
<linearGradient id="paint0_linear_4667_116375" x1="20.5681" y1="79.8189" x2="149.467" y2="79.7891" gradientUnits="userSpaceOnUse">
<stop stop-color="white"/>
<stop offset="0.490283" stop-color="#111111"/>
<stop offset="1" stop-color="white"/>
</linearGradient>
</defs>
</svg>
