<svg width="172" height="120" viewBox="0 0 172 120" fill="none" xmlns="http://www.w3.org/2000/svg">
<path d="M115.557 50.332H145.755L141.022 37.3936L141.258 37.3076L141.492 37.2217L146.287 50.332H146.699V50.832H146.47L161.98 93.2432H162.049V93.4287L171.339 118.83L171.462 119.166H0.538086L0.661133 118.83L30.5078 37.2217L30.7422 37.3076L30.9775 37.3936L26.2451 50.332H57.0186L60.9238 36.334L61.165 36.4014L61.4053 36.4688L57.5381 50.332H86.1533V37.3057H86.6533V50.332H115.037L111.17 36.4688L111.41 36.4014L111.651 36.334L115.557 50.332ZM134.581 118.531L134.341 118.599L134.1 118.666H170.746L161.631 93.7432H127.666L134.581 118.531ZM38.4756 118.666H134.1L127.147 93.7432H86.6533V118.205H86.1533V93.7432H45.4277L38.4756 118.666ZM1.25391 118.666H38.4756L37.9932 118.531L44.9082 93.7432H10.3691L1.25391 118.666ZM10.5518 93.2432H45.0479L50.7461 72.8174H18.0215L10.5518 93.2432ZM45.5674 93.2432H86.1533V72.8174H51.2656L45.5674 93.2432ZM86.6533 93.2432H127.008L121.31 72.8174H86.6533V93.2432ZM127.526 93.2432H161.448L153.979 72.8174H121.829L127.526 93.2432ZM18.2051 72.3174H50.8857L56.8789 50.832H26.0625L18.2051 72.3174ZM51.4053 72.3174H86.1533V50.832H57.3984L51.4053 72.3174ZM86.6533 72.3174H121.17L115.177 50.832H86.6533V72.3174ZM121.689 72.3174H153.795L145.938 50.832H115.695L121.689 72.3174Z" fill="url(#paint0_linear_5120_39486)" fill-opacity="0.08"/>
<circle cx="81.7756" cy="4.85782" r="3.92384" stroke="white" stroke-width="0.2"/>
<path d="M130.4 42.5219L128.321 34.5401L136.273 36.7311L130.4 42.5219Z" stroke="white" stroke-width="0.2"/>
<ellipse cx="86.7899" cy="94.6613" rx="31.6192" ry="10.2709" transform="rotate(-0.296546 86.7899 94.6613)" fill="#111111"/>
<path d="M100.032 85.2706C95.9881 84.6827 91.4837 84.3662 86.7367 84.3908C69.2742 84.4812 55.1418 89.1528 55.1711 94.8252C55.2005 100.498 69.3805 105.023 86.843 104.932C104.306 104.842 118.438 100.17 118.409 94.4979C118.4 92.8719 117.229 91.3402 115.151 89.9844" stroke="#7A7A7A" stroke-width="0.2"/>
<path d="M87.2397 36.8965L106.909 14.5127L112.804 13.8359L122.246 24.6494L99.2211 52.3086L117.773 76.1729L112.933 87.9766L107.885 89.4473L87.5278 66.3555L69.3295 88.2188L64.309 89.6807L52.7612 76.1367L74.4203 51.4863L52.7602 26.916L63.6264 14.5498L68.6577 12.9941L87.2397 36.8965Z" fill="#3D0000"/>
<path d="M87.2397 36.8965L87.1607 36.9579L87.235 37.0533L87.3148 36.9625L87.2397 36.8965ZM106.909 14.5127L106.897 14.4133L106.859 14.4177L106.834 14.4467L106.909 14.5127ZM112.804 13.8359L112.879 13.7702L112.845 13.7306L112.793 13.7366L112.804 13.8359ZM122.246 24.6494L122.322 24.7134L122.377 24.6479L122.321 24.5836L122.246 24.6494ZM99.2211 52.3086L99.1443 52.2446L99.0928 52.3064L99.1422 52.37L99.2211 52.3086ZM117.773 76.1729L117.865 76.2108L117.887 76.1572L117.852 76.1115L117.773 76.1729ZM112.933 87.9766L112.961 88.0726L113.007 88.0591L113.026 88.0145L112.933 87.9766ZM107.885 89.4473L107.81 89.5134L107.852 89.561L107.913 89.5433L107.885 89.4473ZM87.5278 66.3555L87.6028 66.2893L87.5256 66.2018L87.4509 66.2915L87.5278 66.3555ZM69.3295 88.2188L69.3575 88.3148L69.3868 88.3062L69.4064 88.2827L69.3295 88.2188ZM64.309 89.6807L64.2329 89.7455L64.2749 89.7948L64.337 89.7767L64.309 89.6807ZM52.7612 76.1367L52.686 76.0707L52.6289 76.1357L52.6851 76.2016L52.7612 76.1367ZM74.4203 51.4863L74.4955 51.5523L74.5536 51.4862L74.4954 51.4202L74.4203 51.4863ZM52.7602 26.916L52.6851 26.85L52.627 26.9161L52.6852 26.9821L52.7602 26.916ZM63.6264 14.5498L63.5969 14.4543L63.5699 14.4626L63.5513 14.4838L63.6264 14.5498ZM68.6577 12.9941L68.7366 12.9328L68.6942 12.8782L68.6281 12.8986L68.6577 12.9941ZM87.2397 36.8965L87.3148 36.9625L106.984 14.5787L106.909 14.5127L106.834 14.4467L87.1646 36.8305L87.2397 36.8965ZM106.909 14.5127L106.92 14.612L112.816 13.9353L112.804 13.8359L112.793 13.7366L106.897 14.4133L106.909 14.5127ZM112.804 13.8359L112.729 13.9017L122.17 24.7152L122.246 24.6494L122.321 24.5836L112.879 13.7702L112.804 13.8359ZM122.246 24.6494L122.169 24.5854L99.1443 52.2446L99.2211 52.3086L99.298 52.3726L122.322 24.7134L122.246 24.6494ZM99.2211 52.3086L99.1422 52.37L117.694 76.2342L117.773 76.1729L117.852 76.1115L99.3001 52.2472L99.2211 52.3086ZM117.773 76.1729L117.68 76.1349L112.841 87.9386L112.933 87.9766L113.026 88.0145L117.865 76.2108L117.773 76.1729ZM112.933 87.9766L112.905 87.8806L107.857 89.3513L107.885 89.4473L107.913 89.5433L112.961 88.0726L112.933 87.9766ZM107.885 89.4473L107.96 89.3811L87.6028 66.2893L87.5278 66.3555L87.4528 66.4216L107.81 89.5134L107.885 89.4473ZM87.5278 66.3555L87.4509 66.2915L69.2527 88.1548L69.3295 88.2188L69.4064 88.2827L87.6046 66.4194L87.5278 66.3555ZM69.3295 88.2188L69.3016 88.1227L64.2811 89.5846L64.309 89.6807L64.337 89.7767L69.3575 88.3148L69.3295 88.2188ZM64.309 89.6807L64.3851 89.6158L52.8373 76.0718L52.7612 76.1367L52.6851 76.2016L64.2329 89.7455L64.309 89.6807ZM52.7612 76.1367L52.8363 76.2027L74.4955 51.5523L74.4203 51.4863L74.3452 51.4203L52.686 76.0707L52.7612 76.1367ZM74.4203 51.4863L74.4954 51.4202L52.8352 26.8499L52.7602 26.916L52.6852 26.9821L74.3453 51.5525L74.4203 51.4863ZM52.7602 26.916L52.8353 26.982L63.7015 14.6158L63.6264 14.5498L63.5513 14.4838L52.6851 26.85L52.7602 26.916ZM63.6264 14.5498L63.6559 14.6453L68.6872 13.0897L68.6577 12.9941L68.6281 12.8986L63.5969 14.4543L63.6264 14.5498ZM68.6577 12.9941L68.5787 13.0555L87.1607 36.9579L87.2397 36.8965L87.3186 36.8351L68.7366 12.9328L68.6577 12.9941Z" fill="#F2F4FF"/>
<path d="M123.827 26.3617L102.185 50.9906L123.827 75.6195L112.961 87.9847L91.3198 63.3558L69.6801 87.9847L58.8139 75.6195L80.4545 50.9906L58.8139 26.3617L69.6801 13.9965L91.3198 38.6244L112.961 13.9965L123.827 26.3617Z" fill="#A21D11"/>
<path d="M123.827 26.3617L123.902 26.4277L123.96 26.3617L123.902 26.2957L123.827 26.3617ZM102.185 50.9906L102.11 50.9246L102.052 50.9906L102.11 51.0566L102.185 50.9906ZM123.827 75.6195L123.902 75.6855L123.96 75.6195L123.902 75.5535L123.827 75.6195ZM112.961 87.9847L112.886 88.0508L112.961 88.1362L113.036 88.0508L112.961 87.9847ZM91.3198 63.3558L91.3949 63.2898L91.3198 63.2043L91.2446 63.2898L91.3198 63.3558ZM69.6801 87.9847L69.605 88.0508L69.6801 88.1362L69.7552 88.0507L69.6801 87.9847ZM58.8139 75.6195L58.7388 75.5535L58.6808 75.6195L58.7388 75.6855L58.8139 75.6195ZM80.4545 50.9906L80.5296 51.0566L80.5876 50.9906L80.5296 50.9246L80.4545 50.9906ZM58.8139 26.3617L58.7388 26.2957L58.6808 26.3617L58.7388 26.4277L58.8139 26.3617ZM69.6801 13.9965L69.7552 13.9305L69.6801 13.845L69.605 13.9304L69.6801 13.9965ZM91.3198 38.6244L91.2446 38.6904L91.3198 38.7759L91.3949 38.6904L91.3198 38.6244ZM112.961 13.9965L113.036 13.9305L112.961 13.845L112.886 13.9305L112.961 13.9965ZM123.827 26.3617L123.751 26.2957L102.11 50.9246L102.185 50.9906L102.26 51.0566L123.902 26.4277L123.827 26.3617ZM102.185 50.9906L102.11 51.0566L123.751 75.6855L123.827 75.6195L123.902 75.5535L102.26 50.9246L102.185 50.9906ZM123.827 75.6195L123.751 75.5535L112.886 87.9187L112.961 87.9847L113.036 88.0508L123.902 75.6855L123.827 75.6195ZM112.961 87.9847L113.036 87.9187L91.3949 63.2898L91.3198 63.3558L91.2446 63.4218L112.886 88.0508L112.961 87.9847ZM91.3198 63.3558L91.2446 63.2898L69.605 87.9187L69.6801 87.9847L69.7552 88.0507L91.3949 63.4218L91.3198 63.3558ZM69.6801 87.9847L69.7552 87.9187L58.889 75.5535L58.8139 75.6195L58.7388 75.6855L69.605 88.0508L69.6801 87.9847ZM58.8139 75.6195L58.889 75.6855L80.5296 51.0566L80.4545 50.9906L80.3794 50.9246L58.7388 75.5535L58.8139 75.6195ZM80.4545 50.9906L80.5296 50.9246L58.889 26.2957L58.8139 26.3617L58.7388 26.4277L80.3794 51.0566L80.4545 50.9906ZM58.8139 26.3617L58.889 26.4277L69.7552 14.0625L69.6801 13.9965L69.605 13.9304L58.7388 26.2957L58.8139 26.3617ZM69.6801 13.9965L69.605 14.0625L91.2446 38.6904L91.3198 38.6244L91.3949 38.5584L69.7552 13.9305L69.6801 13.9965ZM91.3198 38.6244L91.3949 38.6904L113.036 14.0625L112.961 13.9965L112.886 13.9305L91.2446 38.5584L91.3198 38.6244ZM112.961 13.9965L112.886 14.0625L123.751 26.4277L123.827 26.3617L123.902 26.2957L113.036 13.9305L112.961 13.9965Z" fill="#F2F4FF"/>
<path d="M45.6006 56.7021L42.6577 61.7993L39.7142 56.7023L45.6006 56.7021Z" stroke="white" stroke-width="0.2"/>
<defs>
<linearGradient id="paint0_linear_5120_39486" x1="20.5681" y1="87.9387" x2="149.467" y2="87.9089" gradientUnits="userSpaceOnUse">
<stop stop-color="#111111"/>
<stop offset="0.490283" stop-color="white"/>
<stop offset="1" stop-color="#111111"/>
</linearGradient>
</defs>
</svg>
