<svg width="172" height="112" viewBox="0 0 172 112" fill="none" xmlns="http://www.w3.org/2000/svg">
<path d="M115.557 42.4931H145.755L141.022 29.5546L141.258 29.4687L141.492 29.3828L146.287 42.4931H146.699V42.9931H146.47L161.98 85.4042H162.049V85.5898L171.339 110.991L171.462 111.327H0.538086L0.661133 110.991L30.5078 29.3828L30.7422 29.4687L30.9775 29.5546L26.2451 42.4931H57.0186L60.9238 28.4951L61.165 28.5624L61.4053 28.6298L57.5381 42.4931H86.1533V29.4667H86.6533V42.4931H115.037L111.17 28.6298L111.41 28.5624L111.651 28.4951L115.557 42.4931ZM134.581 110.692L134.341 110.76L134.1 110.827H170.746L161.631 85.9042H127.666L134.581 110.692ZM38.4756 110.827H134.1L127.147 85.9042H86.6533V110.366H86.1533V85.9042H45.4277L38.4756 110.827ZM1.25391 110.827H38.4756L37.9932 110.692L44.9082 85.9042H10.3691L1.25391 110.827ZM10.5518 85.4042H45.0479L50.7461 64.9785H18.0215L10.5518 85.4042ZM45.5674 85.4042H86.1533V64.9785H51.2656L45.5674 85.4042ZM86.6533 85.4042H127.008L121.31 64.9785H86.6533V85.4042ZM127.526 85.4042H161.448L153.979 64.9785H121.829L127.526 85.4042ZM18.2051 64.4785H50.8857L56.8789 42.9931H26.0625L18.2051 64.4785ZM51.4053 64.4785H86.1533V42.9931H57.3984L51.4053 64.4785ZM86.6533 64.4785H121.17L115.177 42.9931H86.6533V64.4785ZM121.689 64.4785H153.795L145.938 42.9931H115.695L121.689 64.4785Z" fill="url(#paint0_linear_5120_39522)" fill-opacity="0.08"/>
<circle cx="41.7667" cy="72.3641" r="3.92384" stroke="white" stroke-width="0.2"/>
<path d="M131.698 44.2195L133.972 54.4805" stroke="white" stroke-width="0.2"/>
<path d="M137.967 48.2184L127.704 50.4806" stroke="white" stroke-width="0.2"/>
<path d="M132.516 47.4401C133.006 48.2006 133.805 48.7084 134.701 48.8313L134.993 48.8716L134.746 49.0315C133.985 49.5217 133.476 50.3202 133.353 51.2166L133.313 51.5086L133.153 51.261C132.663 50.5005 131.865 49.9916 130.969 49.8686L130.676 49.8286L130.925 49.6684C131.685 49.1783 132.193 48.3807 132.316 47.4845L132.356 47.1915L132.516 47.4401Z" fill="#111111" stroke="white" stroke-width="0.2"/>
<ellipse cx="86.6858" cy="86.8223" rx="31.6192" ry="10.2709" transform="rotate(-0.296546 86.6858 86.8223)" fill="#111111"/>
<path d="M95.8592 76.9381C108.882 78.1423 118.385 82.0163 118.409 86.6587C118.438 92.3311 104.306 97.0027 86.843 97.0931C69.3805 97.1835 55.2005 92.6584 55.1711 86.986C55.158 84.4498 57.9758 82.1137 62.6565 80.2977" stroke="#7A7A7A" stroke-width="0.2"/>
<path d="M45.3472 36.6333L35.2078 48.8705L76.3481 85.349H82.9244L128.167 1.64789L120.635 1.78648L74.7165 60.8746L52.1068 36.6333H45.3472Z" fill="#003618" stroke="#F2F4FF" stroke-width="0.2" stroke-linejoin="bevel"/>
<path d="M52.1067 36.6333L41.9674 48.8705L83.1076 85.349L141.38 12.5085L128.21 1.78644L81.476 60.8746L52.1067 36.6333Z" fill="#077537" stroke="#F2F4FF" stroke-width="0.2"/>
<path d="M70.9591 1.22961L69.8456 11.6805" stroke="white" stroke-width="0.2"/>
<path d="M75.6277 7.01782L65.1781 5.89168" stroke="white" stroke-width="0.2"/>
<path d="M70.7088 4.54314C70.9311 5.42015 71.526 6.15588 72.3365 6.55799L72.6005 6.68924L72.3148 6.76192C71.4378 6.98423 70.7011 7.57905 70.299 8.38953L70.1677 8.65348L70.095 8.36781C69.8727 7.4908 69.2789 6.75421 68.4684 6.35209L68.2035 6.22074L68.4901 6.14816C69.3669 5.92582 70.1028 5.33171 70.5049 4.52141L70.6362 4.25649L70.7088 4.54314Z" fill="#111111" stroke="white" stroke-width="0.2"/>
<defs>
<linearGradient id="paint0_linear_5120_39522" x1="20.5681" y1="80.0998" x2="149.467" y2="80.07" gradientUnits="userSpaceOnUse">
<stop stop-color="#111111"/>
<stop offset="0.490283" stop-color="white"/>
<stop offset="1" stop-color="#111111"/>
</linearGradient>
</defs>
</svg>
