<svg width="14" height="14" viewBox="0 0 14 14" fill="none" xmlns="http://www.w3.org/2000/svg">
<path d="M5.8743 8.74776L2.07097 4.94443C1.9018 4.77526 1.9018 4.49526 2.07097 4.32609C2.24013 4.15693 2.52013 4.15693 2.6893 4.32609L6.49263 8.12943C6.77263 8.40943 7.22763 8.40943 7.50763 8.12943L11.311 4.32609C11.4801 4.15693 11.7601 4.15693 11.9293 4.32609C12.0985 4.49526 12.0985 4.77526 11.9293 4.94443L8.12597 8.74776C7.8168 9.05693 7.40847 9.21443 7.00013 9.21443C6.5918 9.21443 6.18347 9.05693 5.8743 8.74776Z" fill="#747E8B" stroke="#747E8B" stroke-width="0.3"/>
<path opacity="0.01" fill-rule="evenodd" clip-rule="evenodd" d="M14 14V0H0V14H14Z" fill="#747E8B"/>
</svg>
