<svg width="19" height="21" viewBox="0 0 19 21" fill="none" xmlns="http://www.w3.org/2000/svg">
<path d="M9.49996 16.25C10.098 16.25 10.5833 15.7647 10.5833 15.1667C10.5833 14.5686 10.098 14.0833 9.49996 14.0833C8.90189 14.0833 8.41663 14.5686 8.41663 15.1667C8.41663 15.7647 8.90189 16.25 9.49996 16.25Z" fill="#6A7483" stroke="#6A7483" stroke-width="0.5"/>
<path fill-rule="evenodd" clip-rule="evenodd" d="M9.49996 11.3335C9.95996 11.3335 10.3333 10.9602 10.3333 10.5002C10.3333 10.0402 9.95996 9.66683 9.49996 9.66683C9.03996 9.66683 8.66663 10.0402 8.66663 10.5002C8.66663 10.9602 9.03996 11.3335 9.49996 11.3335Z" fill="#6A7483" stroke="#6A7483"/>
<path fill-rule="evenodd" clip-rule="evenodd" d="M9.49996 6.6665C9.95996 6.6665 10.3333 6.29317 10.3333 5.83317C10.3333 5.37317 9.95996 4.99984 9.49996 4.99984C9.03996 4.99984 8.66663 5.37317 8.66663 5.83317C8.66663 6.29317 9.03996 6.6665 9.49996 6.6665Z" fill="#6A7483" stroke="#6A7483"/>
</svg>
