<svg width="87" height="32" viewBox="0 0 87 32" fill="none" xmlns="http://www.w3.org/2000/svg">
<g id="Logo" clip-path="url(#clip0_3610_20147)">
<rect width="87" height="32" fill="white"/>
<g id="Group 48372">
<path id="FYERS" fill-rule="evenodd" clip-rule="evenodd" d="M0 4H14.042V27.2L10.8712 22.1109V14.7019H6.49252L4.37868 11.3342H10.8712V8.41548H2.56681L0 4ZM29.2158 4H15.1738V27.2L18.3446 22.1109V14.7019H22.7233L24.7616 11.3342H18.3446V8.41548H26.649L29.2158 4Z" fill="#C7D2FC"/>
<path id="FYERS_2" fill-rule="evenodd" clip-rule="evenodd" d="M35.853 16.3254V22.045H33.1113V8.51172H41.5516V10.7026H35.853V14.1732H40.22V16.3254H35.853ZM50.0369 17.3336V22.045H47.3679V17.3336L42.8496 8.51172H45.8618L48.7215 14.6967L51.5621 8.51172H54.5362L50.0369 17.3336ZM62.9766 22.045V19.8379H57.8787V16.2561H62.3995V14.107H57.8787V10.7189H62.9766V8.51172H55.1855V22.045H62.9766ZM68.3603 16.7713V22.045H65.5743V8.51172H70.7882C71.8628 8.51172 72.7782 8.69591 73.5344 9.0643C74.2907 9.43268 74.8578 9.93033 75.2359 10.5572C75.614 11.1841 75.8031 11.8854 75.8031 12.6609C75.8031 13.5528 75.5378 14.3574 75.0071 15.0748C74.4764 15.7922 73.687 16.2866 72.6389 16.558L75.9623 22.045H72.7384L69.6738 16.7713H68.3603ZM70.8019 14.3115H68.8203V10.4448H70.8019C71.4455 10.4448 71.9254 10.6114 72.2416 10.9447C72.5577 11.2779 72.7158 11.7463 72.7158 12.3499C72.7158 12.966 72.5577 13.447 72.2416 13.7928C71.9254 14.1386 71.4455 14.3115 70.8019 14.3115ZM84.8064 21.5056C84.0879 21.8652 83.2346 22.045 82.2466 22.045C81.3099 22.045 80.4663 21.8873 79.7157 21.5718C78.965 21.2564 78.3716 20.8021 77.9354 20.209C77.4991 19.616 77.2746 18.9156 77.2617 18.1081H80.1487C80.1872 18.6507 80.3829 19.0797 80.7357 19.3951C81.0886 19.7106 81.573 19.8683 82.1889 19.8683C82.8176 19.8683 83.3116 19.7201 83.6708 19.4235C84.0301 19.127 84.2097 18.739 84.2097 18.2595C84.2097 17.8683 84.0879 17.5465 83.8441 17.2942C83.6003 17.0418 83.2955 16.8431 82.9298 16.6979C82.5642 16.5528 82.0605 16.392 81.419 16.2153C80.5465 15.9629 79.8376 15.7137 79.2922 15.4676C78.7469 15.2216 78.2786 14.8493 77.8872 14.3509C77.4959 13.8525 77.3002 13.1869 77.3002 12.354C77.3002 11.5717 77.4991 10.8903 77.8969 10.3099C78.2946 9.7294 78.8528 9.2846 79.5713 8.97545C80.2899 8.66629 81.111 8.51172 82.0349 8.51172C83.4206 8.51172 84.5466 8.84295 85.4127 9.50542C86.2788 10.1679 86.7567 11.0922 86.8465 12.2783H83.8826C83.8569 11.8241 83.6612 11.4487 83.2955 11.1521C82.9298 10.8556 82.4455 10.7073 81.8424 10.7073C81.3163 10.7073 80.8961 10.8398 80.5818 11.1048C80.2674 11.3698 80.1102 11.7547 80.1102 12.2594C80.1102 12.6127 80.2289 12.9061 80.4663 13.1395C80.7037 13.373 80.9988 13.5623 81.3516 13.7074C81.7045 13.8525 82.2017 14.0197 82.8432 14.209C83.7158 14.4613 84.4279 14.7137 84.9796 14.9661C85.5313 15.2184 86.0061 15.597 86.4039 16.1017C86.8016 16.6065 87.0005 17.2689 87.0005 18.0891C87.0005 18.7958 86.8145 19.4519 86.4424 20.0576C86.0703 20.6633 85.5249 21.146 84.8064 21.5056Z" fill="#EAEBED"/>
</g>
</g>
<defs>
<clipPath id="clip0_3610_20147">
<rect width="87" height="32" fill="white"/>
</clipPath>
</defs>
</svg>
