<svg width="196" height="151" viewBox="0 0 196 151" fill="none" xmlns="http://www.w3.org/2000/svg">
<g filter="url(#filter0_d_884_29284)">
<rect x="22" y="23" width="138.157" height="106" rx="7.14607" fill="white"/>
</g>
<path d="M22 30.1461C22 26.1994 25.1994 23 29.1461 23H153.011C156.958 23 160.157 26.1994 160.157 30.1461V38.4831H22V30.1461Z" fill="#F6F8FF"/>
<rect x="32.7192" y="86.124" width="108.382" height="4.76404" rx="2.38202" fill="url(#paint0_linear_884_29284)"/>
<rect x="32.7192" y="96.8428" width="108.382" height="4.76404" rx="2.38202" fill="url(#paint1_linear_884_29284)"/>
<rect x="32.7192" y="107.562" width="54.7865" height="4.76404" rx="2.38202" fill="url(#paint2_linear_884_29284)"/>
<circle cx="32.1235" cy="30.7412" r="2.97753" fill="#FB2A23"/>
<circle cx="41.6518" cy="30.7412" r="2.97753" fill="#FFCC02"/>
<circle cx="51.1797" cy="30.7412" r="2.97753" fill="#33C659"/>
<g filter="url(#filter1_d_884_29284)">
<rect x="30.3369" y="46.8203" width="148.876" height="29.7753" rx="4.76405" fill="white"/>
</g>
<g filter="url(#filter2_d_884_29284)">
<rect x="22" y="23" width="138.157" height="106" rx="7.14607" fill="white"/>
</g>
<path d="M22 30.1461C22 26.1994 25.1994 23 29.1461 23H153.011C156.958 23 160.157 26.1994 160.157 30.1461V38.4831H22V30.1461Z" fill="#F6F8FF"/>
<rect x="32.7192" y="86.124" width="108.382" height="4.76404" rx="2.38202" fill="url(#paint3_linear_884_29284)"/>
<rect x="32.7192" y="96.8428" width="108.382" height="4.76404" rx="2.38202" fill="url(#paint4_linear_884_29284)"/>
<rect x="32.7192" y="107.562" width="54.7865" height="4.76404" rx="2.38202" fill="url(#paint5_linear_884_29284)"/>
<circle cx="32.1235" cy="30.7412" r="2.97753" fill="#FB2A23"/>
<circle cx="41.6518" cy="30.7412" r="2.97753" fill="#FFCC02"/>
<circle cx="51.1797" cy="30.7412" r="2.97753" fill="#33C659"/>
<g filter="url(#filter3_d_884_29284)">
<rect x="30" y="44" width="152" height="36" rx="4.76405" fill="white"/>
</g>
<path d="M46.4089 53.2713C46.8485 52.3562 48.1515 52.3562 48.5911 53.2713L50.543 57.3341C50.7194 57.7014 51.0689 57.9553 51.4728 58.0096L55.9399 58.6104C56.946 58.7458 57.3487 59.985 56.6142 60.6859L53.3534 63.7977C53.0586 64.079 52.9251 64.4898 52.9983 64.8907L53.8073 69.3248C53.9895 70.3236 52.9353 71.0895 52.0418 70.6076L48.0746 68.4679C47.716 68.2745 47.284 68.2745 46.9254 68.4679L42.9582 70.6076C42.0647 71.0895 41.0105 70.3236 41.1927 69.3248L42.0017 64.8907C42.0749 64.4898 41.9414 64.079 41.6466 63.7977L38.3858 60.6859C37.6513 59.985 38.054 58.7458 39.0601 58.6104L43.5272 58.0096C43.9311 57.9553 44.2806 57.7014 44.457 57.3341L46.4089 53.2713Z" fill="#FFF0B3"/>
<path d="M71.4089 53.2713C71.8485 52.3562 73.1515 52.3562 73.5911 53.2713L75.543 57.3341C75.7194 57.7014 76.0689 57.9553 76.4728 58.0096L80.9399 58.6104C81.946 58.7458 82.3487 59.985 81.6142 60.6859L78.3534 63.7977C78.0586 64.079 77.9251 64.4898 77.9983 64.8907L78.8073 69.3248C78.9895 70.3236 77.9353 71.0895 77.0418 70.6076L73.0746 68.4679C72.716 68.2745 72.284 68.2745 71.9254 68.4679L67.9582 70.6076C67.0647 71.0895 66.0105 70.3236 66.1927 69.3248L67.0017 64.8907C67.0749 64.4898 66.9414 64.079 66.6466 63.7977L63.3858 60.6859C62.6513 59.985 63.054 58.7458 64.0601 58.6104L68.5273 58.0096C68.9311 57.9553 69.2806 57.7014 69.457 57.3341L71.4089 53.2713Z" fill="#FFF0B3"/>
<path d="M97.4089 53.2713C97.8485 52.3562 99.1515 52.3562 99.5911 53.2713L101.543 57.3341C101.719 57.7014 102.069 57.9553 102.473 58.0096L106.94 58.6104C107.946 58.7458 108.349 59.985 107.614 60.6859L104.353 63.7977C104.059 64.079 103.925 64.4898 103.998 64.8907L104.807 69.3248C104.989 70.3236 103.935 71.0895 103.042 70.6076L99.0746 68.4679C98.716 68.2745 98.284 68.2745 97.9254 68.4679L93.9582 70.6076C93.0647 71.0895 92.0105 70.3236 92.1927 69.3248L93.0017 64.8907C93.0749 64.4898 92.9414 64.079 92.6466 63.7977L89.3858 60.6859C88.6513 59.985 89.054 58.7458 90.0601 58.6104L94.5272 58.0096C94.9311 57.9553 95.2806 57.7014 95.457 57.3341L97.4089 53.2713Z" fill="#FFCC02"/>
<path d="M126.029 50.0613C126.622 48.8279 128.378 48.8279 128.971 50.0613L131.601 55.5372C131.839 56.0323 132.31 56.3745 132.855 56.4477L138.875 57.2575C140.232 57.4399 140.774 59.1102 139.784 60.0549L135.389 64.249C134.992 64.6282 134.812 65.1819 134.911 65.7223L136.001 71.6987C136.247 73.0448 134.826 74.0771 133.622 73.4276L128.275 70.5437C127.791 70.283 127.209 70.283 126.725 70.5437L121.378 73.4276C120.174 74.0771 118.753 73.0448 118.999 71.6987L120.089 65.7223C120.188 65.1819 120.008 64.6282 119.611 64.249L115.216 60.0549C114.226 59.1102 114.768 57.4399 116.125 57.2575L122.145 56.4477C122.69 56.3745 123.161 56.0323 123.399 55.5372L126.029 50.0613Z" fill="#FFCC02"/>
<path d="M159.029 50.0613C159.622 48.8279 161.378 48.8279 161.971 50.0613L164.601 55.5372C164.839 56.0323 165.31 56.3745 165.855 56.4477L171.875 57.2575C173.232 57.4399 173.774 59.1102 172.784 60.0549L168.389 64.249C167.992 64.6282 167.812 65.1819 167.911 65.7223L169.001 71.6987C169.247 73.0448 167.826 74.0771 166.622 73.4276L161.275 70.5437C160.791 70.283 160.209 70.283 159.725 70.5437L154.378 73.4276C153.174 74.0771 151.753 73.0448 151.999 71.6987L153.089 65.7223C153.188 65.1819 153.008 64.6282 152.611 64.249L148.216 60.0549C147.226 59.1102 147.768 57.4399 149.125 57.2575L155.145 56.4477C155.69 56.3745 156.161 56.0323 156.399 55.5372L159.029 50.0613Z" fill="#FFCC02"/>
<path d="M182.329 13.862L178.934 14.9881C175.159 16.2404 172.19 19.0828 170.808 22.7698L169.564 26.0856L168.291 22.6834C166.875 18.9003 163.881 15.8531 160.094 14.3412L156.687 12.9815L160.083 11.8554C163.858 10.6031 166.826 7.76065 168.209 4.07367L169.453 0.757908L170.726 4.16009C172.141 7.94315 175.136 10.9904 178.923 12.5023L182.329 13.862Z" fill="white"/>
<path d="M31.9689 127.772L29.7366 128.512C27.2544 129.335 25.3027 131.204 24.3936 133.628L23.5759 135.809L22.7389 133.572C21.8081 131.084 19.8394 129.081 17.3492 128.087L15.1097 127.193L17.342 126.452C19.8242 125.629 21.7759 123.76 22.6851 121.336L23.5027 119.156L24.3398 121.393C25.2705 123.88 27.2393 125.884 29.7295 126.878L31.9689 127.772Z" fill="#C7D2FC"/>
<circle cx="156.5" cy="120.5" r="15.5" fill="#33C659"/>
<path d="M149.893 120.961L154.269 125.103L163.525 116.34" stroke="#EAF9EE" stroke-width="3" stroke-linecap="round"/>
<defs>
<filter id="filter0_d_884_29284" x="8.71551" y="9.71551" width="164.726" height="132.569" filterUnits="userSpaceOnUse" color-interpolation-filters="sRGB">
<feFlood flood-opacity="0" result="BackgroundImageFix"/>
<feColorMatrix in="SourceAlpha" type="matrix" values="0 0 0 0 0 0 0 0 0 0 0 0 0 0 0 0 0 0 127 0" result="hardAlpha"/>
<feOffset/>
<feGaussianBlur stdDeviation="6.64225"/>
<feColorMatrix type="matrix" values="0 0 0 0 0.164706 0 0 0 0 0.223529 0 0 0 0 0.305882 0 0 0 0.05 0"/>
<feBlend mode="normal" in2="BackgroundImageFix" result="effect1_dropShadow_884_29284"/>
<feBlend mode="normal" in="SourceGraphic" in2="effect1_dropShadow_884_29284" result="shape"/>
</filter>
<filter id="filter1_d_884_29284" x="17.0524" y="33.5358" width="175.445" height="56.3444" filterUnits="userSpaceOnUse" color-interpolation-filters="sRGB">
<feFlood flood-opacity="0" result="BackgroundImageFix"/>
<feColorMatrix in="SourceAlpha" type="matrix" values="0 0 0 0 0 0 0 0 0 0 0 0 0 0 0 0 0 0 127 0" result="hardAlpha"/>
<feOffset/>
<feGaussianBlur stdDeviation="6.64225"/>
<feColorMatrix type="matrix" values="0 0 0 0 0.164706 0 0 0 0 0.223529 0 0 0 0 0.305882 0 0 0 0.05 0"/>
<feBlend mode="normal" in2="BackgroundImageFix" result="effect1_dropShadow_884_29284"/>
<feBlend mode="normal" in="SourceGraphic" in2="effect1_dropShadow_884_29284" result="shape"/>
</filter>
<filter id="filter2_d_884_29284" x="8.71551" y="9.71551" width="164.726" height="132.569" filterUnits="userSpaceOnUse" color-interpolation-filters="sRGB">
<feFlood flood-opacity="0" result="BackgroundImageFix"/>
<feColorMatrix in="SourceAlpha" type="matrix" values="0 0 0 0 0 0 0 0 0 0 0 0 0 0 0 0 0 0 127 0" result="hardAlpha"/>
<feOffset/>
<feGaussianBlur stdDeviation="6.64225"/>
<feColorMatrix type="matrix" values="0 0 0 0 0.164706 0 0 0 0 0.223529 0 0 0 0 0.305882 0 0 0 0.05 0"/>
<feBlend mode="normal" in2="BackgroundImageFix" result="effect1_dropShadow_884_29284"/>
<feBlend mode="normal" in="SourceGraphic" in2="effect1_dropShadow_884_29284" result="shape"/>
</filter>
<filter id="filter3_d_884_29284" x="16.7155" y="30.7155" width="178.569" height="62.569" filterUnits="userSpaceOnUse" color-interpolation-filters="sRGB">
<feFlood flood-opacity="0" result="BackgroundImageFix"/>
<feColorMatrix in="SourceAlpha" type="matrix" values="0 0 0 0 0 0 0 0 0 0 0 0 0 0 0 0 0 0 127 0" result="hardAlpha"/>
<feOffset/>
<feGaussianBlur stdDeviation="6.64225"/>
<feColorMatrix type="matrix" values="0 0 0 0 0.164706 0 0 0 0 0.223529 0 0 0 0 0.305882 0 0 0 0.05 0"/>
<feBlend mode="normal" in2="BackgroundImageFix" result="effect1_dropShadow_884_29284"/>
<feBlend mode="normal" in="SourceGraphic" in2="effect1_dropShadow_884_29284" result="shape"/>
</filter>
<linearGradient id="paint0_linear_884_29284" x1="32.7192" y1="88.506" x2="139.315" y2="88.506" gradientUnits="userSpaceOnUse">
<stop stop-color="#ECF0FE"/>
<stop offset="1" stop-color="#ECF0FE" stop-opacity="0.28"/>
</linearGradient>
<linearGradient id="paint1_linear_884_29284" x1="141.101" y1="99.2248" x2="39.8653" y2="99.2248" gradientUnits="userSpaceOnUse">
<stop stop-color="#ECF0FE"/>
<stop offset="1" stop-color="#ECF0FE" stop-opacity="0.51"/>
</linearGradient>
<linearGradient id="paint2_linear_884_29284" x1="32.7192" y1="109.944" x2="86.6027" y2="109.944" gradientUnits="userSpaceOnUse">
<stop stop-color="#ECF0FE"/>
<stop offset="1" stop-color="#ECF0FE" stop-opacity="0.28"/>
</linearGradient>
<linearGradient id="paint3_linear_884_29284" x1="32.7192" y1="88.506" x2="139.315" y2="88.506" gradientUnits="userSpaceOnUse">
<stop stop-color="#ECF0FE"/>
<stop offset="1" stop-color="#ECF0FE" stop-opacity="0.28"/>
</linearGradient>
<linearGradient id="paint4_linear_884_29284" x1="141.101" y1="99.2248" x2="39.8653" y2="99.2248" gradientUnits="userSpaceOnUse">
<stop stop-color="#ECF0FE"/>
<stop offset="1" stop-color="#ECF0FE" stop-opacity="0.51"/>
</linearGradient>
<linearGradient id="paint5_linear_884_29284" x1="32.7192" y1="109.944" x2="86.6027" y2="109.944" gradientUnits="userSpaceOnUse">
<stop stop-color="#ECF0FE"/>
<stop offset="1" stop-color="#ECF0FE" stop-opacity="0.28"/>
</linearGradient>
</defs>
</svg>
