<svg width="769" height="401" viewBox="0 0 769 401" xmlns="http://www.w3.org/2000/svg" xmlns:xlink="http://www.w3.org/1999/xlink"><defs><filter x="-21.2%" y="-27.9%" width="142.4%" height="155.8%" filterUnits="objectBoundingBox" id="a"><feGaussianBlur stdDeviation="20" in="SourceGraphic"/></filter><filter x="-43.7%" y="-50.4%" width="187.4%" height="200.8%" filterUnits="objectBoundingBox" id="b"><feGaussianBlur stdDeviation="20" in="SourceGraphic"/></filter><filter x="-26.5%" y="-33.1%" width="152.9%" height="166.3%" filterUnits="objectBoundingBox" id="c"><feGaussianBlur stdDeviation="20" in="SourceGraphic"/></filter><filter x="-25.7%" y="-20.1%" width="151.5%" height="142.1%" filterUnits="objectBoundingBox" id="d"><feMorphology radius="1" operator="dilate" in="SourceAlpha" result="shadowSpreadOuter1"/><feOffset dy="2" in="shadowSpreadOuter1" result="shadowOffsetOuter1"/><feGaussianBlur stdDeviation="14.5" in="shadowOffsetOuter1" result="shadowBlurOuter1"/><feComposite in="shadowBlurOuter1" in2="SourceAlpha" operator="out" result="shadowBlurOuter1"/><feColorMatrix values="0 0 0 0 0.903248069 0 0 0 0 0.921871127 0 0 0 0 0.968721694 0 0 0 1 0" in="shadowBlurOuter1"/></filter><filter x="-27%" y="-19.5%" width="154%" height="140.9%" filterUnits="objectBoundingBox" id="f"><feMorphology radius="1" operator="dilate" in="SourceAlpha" result="shadowSpreadOuter1"/><feOffset dy="2" in="shadowSpreadOuter1" result="shadowOffsetOuter1"/><feGaussianBlur stdDeviation="14.5" in="shadowOffsetOuter1" result="shadowBlurOuter1"/><feComposite in="shadowBlurOuter1" in2="SourceAlpha" operator="out" result="shadowBlurOuter1"/><feColorMatrix values="0 0 0 0 0.903248069 0 0 0 0 0.921871127 0 0 0 0 0.968721694 0 0 0 1 0" in="shadowBlurOuter1"/></filter><filter x="-25.7%" y="-20.1%" width="151.5%" height="142.1%" filterUnits="objectBoundingBox" id="h"><feMorphology radius="1" operator="dilate" in="SourceAlpha" result="shadowSpreadOuter1"/><feOffset dy="2" in="shadowSpreadOuter1" result="shadowOffsetOuter1"/><feGaussianBlur stdDeviation="14.5" in="shadowOffsetOuter1" result="shadowBlurOuter1"/><feComposite in="shadowBlurOuter1" in2="SourceAlpha" operator="out" result="shadowBlurOuter1"/><feColorMatrix values="0 0 0 0 0.903248069 0 0 0 0 0.921871127 0 0 0 0 0.968721694 0 0 0 1 0" in="shadowBlurOuter1"/></filter><filter x="-27.1%" y="-29.6%" width="152.3%" height="164.5%" filterUnits="objectBoundingBox" id="j"><feMorphology radius="1" operator="dilate" in="SourceAlpha" result="shadowSpreadOuter1"/><feOffset dy="2" in="shadowSpreadOuter1" result="shadowOffsetOuter1"/><feGaussianBlur stdDeviation="14.5" in="shadowOffsetOuter1" result="shadowBlurOuter1"/><feComposite in="shadowBlurOuter1" in2="SourceAlpha" operator="out" result="shadowBlurOuter1"/><feColorMatrix values="0 0 0 0 0.903248069 0 0 0 0 0.921871127 0 0 0 0 0.968721694 0 0 0 0 0" in="shadowBlurOuter1"/></filter><path d="M0 184.5v-41.4L94.8 7.5h57.3v132.6h24.6v44.4h-24.6v39h-51.3v-39zM104.4 63.9 54 140.1h50.4z" id="e"/><path d="M201.9 111q0-51.6 19.95-81.3T286.2 0t64.35 29.7T370.5 111q0 52.2-19.95 81.9t-64.35 29.7-64.35-29.7T201.9 111m118.2 0q0-30.3-6.6-46.65T286.2 48t-27.3 16.35-6.6 46.65q0 20.4 2.4 33.75t9.75 21.6 21.75 8.25 21.75-8.25 9.75-21.6 2.4-33.75" id="g"/><path d="M398.7 184.5v-41.4L493.5 7.5h57.3v132.6h24.6v44.4h-24.6v39h-51.3v-39zM503.1 63.9l-50.4 76.2h50.4z" id="i"/><path id="k" d="m236.44 235.69 31.168-52.442 20.426 16.292 35.861-55.656 22.339 28.698 26.817-42.546-18.217-13.447 62.23-29.9v70.69l-22.928-13.495-47.902 69.009-22.339-32.026-31.553 46.037-24.734-20.206z"/></defs><g fill="none" fill-rule="evenodd"><path fill="#E3DDFF" opacity=".4" filter="url(#a)" d="m107.5 65.628 93.098 53.75v107.5l-93.098 53.75-93.098-53.75v-107.5z" transform="translate(46 60)"/><path fill="#FFEFCD" opacity=".6" filter="url(#b)" d="m349.082 0 51.529 29.75v59.5L349.082 119l-51.528-29.75v-59.5z" transform="translate(46 60)"/><path fill="#F2FFFE" filter="url(#c)" d="m583.95 21.186 78.375 45.25v90.5l-78.375 45.25-78.376-45.25v-90.5z" transform="translate(46 60)"/><g fill-rule="nonzero"><g transform="translate(111.3 100.5)"><use fill="#000" filter="url(#d)" xlink:href="#e"/><use stroke="#FFF" stroke-width="2" fill-opacity=".566" fill="#FFF" xlink:href="#e"/></g><g transform="translate(111.3 100.5)"><use fill="#000" filter="url(#f)" xlink:href="#g"/><use stroke="#FFF" stroke-width="2" fill-opacity=".566" fill="#FFF" xlink:href="#g"/></g><g transform="translate(111.3 100.5)"><use fill="#000" filter="url(#h)" xlink:href="#i"/><use stroke="#FFF" stroke-width="2" fill-opacity=".566" fill="#FFF" xlink:href="#i"/></g></g><g fill-rule="nonzero" transform="matrix(1 0 0 -1 46 382.38)"><use fill="#000" filter="url(#j)" xlink:href="#k"/><use stroke="#FFF" stroke-width="2" fill="#FFF1F3" xlink:href="#k"/></g></g></svg>