<svg width="24" height="24" viewBox="0 0 24 24" fill="none" xmlns="http://www.w3.org/2000/svg">
<path d="M9.46139 3.18235C9.46139 2.75022 9.80602 2.3999 10.2311 2.3999H14.968C15.3931 2.3999 15.7377 2.75022 15.7377 3.18235C15.7377 3.61448 15.3931 3.96479 14.968 3.96479L10.2311 3.96479C9.80602 3.96479 9.46139 3.61448 9.46139 3.18235Z" fill="#404040"/>
<path d="M12.5996 10.766C12.992 10.766 13.3101 11.0894 13.3101 11.4883V12.2106H14.1391C14.5315 12.2106 14.8496 12.5339 14.8496 12.9328C14.8496 13.3317 14.5315 13.6551 14.1391 13.6551H13.3101V14.4977C13.3101 14.8966 12.992 15.22 12.5996 15.22C12.2072 15.22 11.8891 14.8966 11.8891 14.4977V13.6551H11.1785C10.7861 13.6551 10.468 13.3317 10.468 12.9328C10.468 12.5339 10.7861 12.2106 11.1785 12.2106H11.8891V11.4883C11.8891 11.0894 12.2072 10.766 12.5996 10.766Z" fill="#404040"/>
<path fill-rule="evenodd" clip-rule="evenodd" d="M4.78382 13.1736C4.78382 8.78576 8.28307 5.22874 12.5996 5.22874C16.9161 5.22874 20.4154 8.78576 20.4154 13.1736V17.2664H20.8891C21.2815 17.2664 21.5996 17.5897 21.5996 17.9886C21.5996 18.3875 21.2815 18.7109 20.8891 18.7109H15.6696C15.5486 20.3269 14.2204 21.5999 12.5996 21.5999H10.7049V18.7109H4.31014C3.91772 18.7109 3.59961 18.3875 3.59961 17.9886C3.59961 17.5897 3.91772 17.2664 4.31014 17.2664H4.78382V13.1736ZM18.9943 17.2664V13.1736C18.9943 9.58355 16.1313 6.67326 12.5996 6.67326C9.06789 6.67326 6.20487 9.58355 6.20487 13.1736V17.2664H18.9943ZM12.1259 18.7109V20.1554H12.5996C13.4348 20.1554 14.1258 19.5276 14.2407 18.7109H12.1259Z" fill="#404040"/>
</svg>
