<svg width="19" height="20" viewBox="0 0 19 20" fill="none" xmlns="http://www.w3.org/2000/svg">
<path d="M6.46188 1.18235C6.46188 0.750215 6.8065 0.399902 7.23162 0.399902H11.9685C12.3936 0.399902 12.7382 0.750216 12.7382 1.18235C12.7382 1.61448 12.3936 1.96479 11.9685 1.96479L7.23162 1.96479C6.8065 1.96479 6.46188 1.61448 6.46188 1.18235Z" fill="#F0F0F0"/>
<path d="M9.60009 8.76604C9.99251 8.76604 10.3106 9.08941 10.3106 9.4883V10.2106H11.1396C11.532 10.2106 11.8501 10.5339 11.8501 10.9328C11.8501 11.3317 11.532 11.6551 11.1396 11.6551H10.3106V12.4977C10.3106 12.8966 9.99251 13.22 9.60009 13.22C9.20768 13.22 8.88957 12.8966 8.88957 12.4977V11.6551H8.17903C7.78662 11.6551 7.4685 11.3317 7.4685 10.9328C7.4685 10.5339 7.78662 10.2106 8.17903 10.2106H8.88957V9.4883C8.88957 9.08941 9.20768 8.76604 9.60009 8.76604Z" fill="#F0F0F0"/>
<path fill-rule="evenodd" clip-rule="evenodd" d="M1.78431 11.1736C1.78431 6.78576 5.28356 3.22874 9.6001 3.22874C13.9166 3.22874 17.4159 6.78576 17.4159 11.1736V15.2664H17.8896C18.282 15.2664 18.6001 15.5897 18.6001 15.9886C18.6001 16.3875 18.282 16.7109 17.8896 16.7109H12.6701C12.5491 18.3269 11.2209 19.5999 9.6001 19.5999H7.70536V16.7109H1.31062C0.918211 16.7109 0.600098 16.3875 0.600098 15.9886C0.600098 15.5897 0.918211 15.2664 1.31062 15.2664H1.78431V11.1736ZM15.9948 15.2664V11.1736C15.9948 7.58355 13.1318 4.67326 9.6001 4.67326C6.06838 4.67326 3.20536 7.58355 3.20536 11.1736V15.2664H15.9948ZM9.12641 16.7109V18.1554H9.6001C10.4353 18.1554 11.1263 17.5276 11.2412 16.7109H9.12641Z" fill="#F0F0F0"/>
</svg>
