<svg width="24" height="24" viewBox="0 0 24 24" fill="none" xmlns="http://www.w3.org/2000/svg">
<path d="M9.03055 17.0641C8.34292 16.7158 7.75352 16.1979 7.32487 15.5549C6.96766 15.0191 6.96766 14.3314 7.32487 13.7956C7.75352 13.1526 8.34292 12.6347 9.03055 12.2953C9.36097 12.1257 9.76283 12.2685 9.9325 12.599C10.1022 12.9294 9.96822 13.3312 9.62887 13.5009C9.14664 13.742 8.73585 14.1082 8.44115 14.5547C8.38757 14.6351 8.38757 14.7422 8.44115 14.8315C8.73585 15.278 9.14664 15.6442 9.62887 15.8853C9.95929 16.055 10.0932 16.4568 9.9325 16.7872C9.80748 17.0016 9.56636 17.1355 9.32524 17.1355C9.22701 17.1355 9.11985 17.1087 9.03055 17.0641Z" fill="#404040"/>
<path d="M14.2692 16.7688C14.0995 16.4384 14.2335 16.0366 14.5728 15.8669C15.0551 15.6258 15.4659 15.2596 15.7605 14.8131C15.8141 14.7328 15.8141 14.6256 15.7605 14.5363C15.4659 14.0898 15.0551 13.7236 14.5728 13.4825C14.2424 13.3128 14.1085 12.911 14.2692 12.5806C14.4389 12.2501 14.8407 12.1162 15.1712 12.2769C15.8588 12.6252 16.4482 13.1432 16.8768 13.7861C17.234 14.322 17.234 15.0096 16.8768 15.5454C16.4482 16.1884 15.8588 16.7063 15.1712 17.0457C15.064 17.1082 14.9658 17.135 14.8675 17.135C14.6175 17.135 14.3853 17.001 14.2692 16.7688Z" fill="#404040"/>
<path fill-rule="evenodd" clip-rule="evenodd" d="M9.32132 21.5999C4.4722 21.5999 2.40039 19.5281 2.40039 14.679V9.32083C2.40039 4.47172 4.4722 2.3999 9.32132 2.3999H14.6795C19.5286 2.3999 21.6004 4.47172 21.6004 9.32083V14.679C21.6004 19.5281 19.5286 21.5999 14.6795 21.5999H9.32132ZM3.73993 9.32083V14.679C3.73993 18.7958 5.20448 20.2604 9.32132 20.2604H14.6795C18.7963 20.2604 20.2609 18.7958 20.2609 14.679V9.32083C20.2609 5.204 18.7963 3.73944 14.6795 3.73944H9.32132C5.20448 3.73944 3.73993 5.204 3.73993 9.32083Z" fill="#404040"/>
<path d="M2.6101 8.43765C2.6101 8.07151 2.90479 7.76788 3.27986 7.76788L20.4438 7.75895C20.8099 7.75895 21.1135 8.06258 21.1135 8.42872C21.1135 8.79486 20.8188 9.09848 20.4438 9.09848L3.27986 9.10741C2.91372 9.10741 2.6101 8.80379 2.6101 8.43765Z" fill="#404040"/>
</svg>
