<svg width="20" height="20" viewBox="0 0 20 20" fill="none" xmlns="http://www.w3.org/2000/svg">
<path d="M7.03006 15.0641C6.34243 14.7158 5.75304 14.1979 5.32438 13.5549C4.96717 13.0191 4.96717 12.3314 5.32438 11.7956C5.75304 11.1526 6.34243 10.6347 7.03006 10.2953C7.36048 10.1257 7.76234 10.2685 7.93201 10.599C8.10169 10.9294 7.96773 11.3312 7.62838 11.5009C7.14615 11.742 6.73536 12.1082 6.44066 12.5547C6.38708 12.6351 6.38708 12.7422 6.44066 12.8315C6.73536 13.278 7.14615 13.6442 7.62838 13.8853C7.9588 14.055 8.09276 14.4568 7.93201 14.7872C7.80699 15.0016 7.56587 15.1355 7.32476 15.1355C7.22652 15.1355 7.11936 15.1087 7.03006 15.0641Z" fill="#F0F0F0"/>
<path d="M12.2687 14.7688C12.099 14.4384 12.233 14.0366 12.5723 13.8669C13.0546 13.6258 13.4654 13.2596 13.7601 12.8131C13.8136 12.7328 13.8136 12.6256 13.7601 12.5363C13.4654 12.0898 13.0546 11.7236 12.5723 11.4825C12.2419 11.3128 12.108 10.911 12.2687 10.5806C12.4384 10.2501 12.8402 10.1162 13.1707 10.2769C13.8583 10.6252 14.4477 11.1432 14.8763 11.7861C15.2335 12.322 15.2335 13.0096 14.8763 13.5454C14.4477 14.1884 13.8583 14.7063 13.1707 15.0457C13.0635 15.1082 12.9653 15.135 12.867 15.135C12.617 15.135 12.3848 15.001 12.2687 14.7688Z" fill="#F0F0F0"/>
<path fill-rule="evenodd" clip-rule="evenodd" d="M7.32083 19.5999C2.47172 19.5999 0.399902 17.5281 0.399902 12.679V7.32083C0.399902 2.47172 2.47172 0.399902 7.32083 0.399902H12.679C17.5281 0.399902 19.5999 2.47172 19.5999 7.32083V12.679C19.5999 17.5281 17.5281 19.5999 12.679 19.5999H7.32083ZM1.73944 7.32083V12.679C1.73944 16.7958 3.204 18.2604 7.32083 18.2604H12.679C16.7958 18.2604 18.2604 16.7958 18.2604 12.679V7.32083C18.2604 3.204 16.7958 1.73944 12.679 1.73944H7.32083C3.204 1.73944 1.73944 3.204 1.73944 7.32083Z" fill="#F0F0F0"/>
<path d="M0.609607 6.43765C0.609607 6.07151 0.904305 5.76788 1.27937 5.76788L18.4433 5.75895C18.8094 5.75895 19.1131 6.06258 19.1131 6.42872C19.1131 6.79486 18.8184 7.09848 18.4433 7.09848L1.27937 7.10741C0.913235 7.10741 0.609607 6.80379 0.609607 6.43765Z" fill="#F0F0F0"/>
</svg>
