<svg width="16" height="16" viewBox="0 0 16 16" fill="none" xmlns="http://www.w3.org/2000/svg">
<path d="M2.53686 3.65209C2.32105 3.43628 2.32105 3.07907 2.53686 2.86326L5.23826 0.16186C5.45407 -0.0539535 5.81128 -0.0539535 6.02709 0.16186C6.24291 0.377674 6.24291 0.734884 6.02709 0.950698L3.3257 3.65209C3.21407 3.75628 3.07267 3.81581 2.93128 3.81581C2.78988 3.81581 2.64105 3.75628 2.53686 3.65209Z" fill="#404040"/>
<path d="M12.6714 3.65209L9.97 0.950698C9.75418 0.734884 9.75418 0.377674 9.97 0.16186C10.1858 -0.0539535 10.543 -0.0539535 10.7588 0.16186L13.4602 2.86326C13.676 3.07907 13.676 3.43628 13.4602 3.65209C13.356 3.75628 13.2072 3.81581 13.0658 3.81581C12.9244 3.81581 12.783 3.76372 12.6714 3.65209Z" fill="#404040"/>
<path fill-rule="evenodd" clip-rule="evenodd" d="M13.9535 6.9593H2.04651C1.52558 6.96674 0.930232 6.96674 0.498605 6.53512C0.156279 6.20023 0 5.6793 0 4.91279C0 2.86628 1.49581 2.86628 2.21023 2.86628H13.7898C14.5042 2.86628 16 2.86628 16 4.91279C16 5.68674 15.8437 6.20023 15.5014 6.53512C15.1144 6.92209 14.5935 6.9593 14.1098 6.9593C14.0577 6.9593 14.0056 6.9593 13.9535 6.9593ZM13.9609 5.84302C14.2958 5.85047 14.6084 5.85047 14.7126 5.74628C14.7647 5.69419 14.8763 5.51558 14.8763 4.91279C14.8763 4.07186 14.6679 3.98256 13.7823 3.98256H2.21023C1.32465 3.98256 1.11628 4.07186 1.11628 4.91279C1.11628 5.51558 1.23535 5.69419 1.28 5.74628C1.38419 5.84302 1.70419 5.84302 2.03163 5.84302H13.9609Z" fill="#404040"/>
<path d="M5.77616 12.1302V9.48837C5.77616 9.18326 6.02919 8.93023 6.3343 8.93023C6.63942 8.93023 6.89244 9.18326 6.89244 9.48837V12.1302C6.89244 12.4428 6.63942 12.6884 6.3343 12.6884C6.02919 12.6884 5.77616 12.4353 5.77616 12.1302Z" fill="#404040"/>
<path d="M9.19771 12.1303V9.48845C9.19771 9.18333 9.45073 8.93031 9.75585 8.93031C10.061 8.93031 10.314 9.18333 10.314 9.48845V12.1303C10.314 12.4429 10.061 12.6884 9.75585 12.6884C9.45073 12.6884 9.19771 12.4354 9.19771 12.1303Z" fill="#404040"/>
<path d="M5.6638 16.0005C2.99961 16.0005 2.40426 14.4154 2.17357 13.0387L1.12426 6.60147C1.07217 6.29636 1.28054 6.01357 1.58566 5.96147C1.89078 5.90938 2.17357 6.11775 2.22566 6.42287L3.27496 12.8526C3.49078 14.1698 3.93729 14.8843 5.6638 14.8843H10.1512C12.0638 14.8843 12.2796 14.2145 12.5252 12.9196L13.7754 6.40799C13.835 6.10287 14.1252 5.90194 14.4303 5.96892C14.7354 6.02845 14.9289 6.31868 14.8694 6.6238L13.6191 13.1354C13.3289 14.6461 12.8452 16.0005 10.1512 16.0005H5.6638Z" fill="#404040"/>
</svg>
