<svg width="24" height="24" viewBox="0 0 24 24" fill="none" xmlns="http://www.w3.org/2000/svg">
<path fill-rule="evenodd" clip-rule="evenodd" d="M7.78527 20.4001C7.08283 20.4001 6.56771 20.3713 6.12751 20.3041C3.01805 19.9585 2.3999 18.0481 2.3999 14.8801V9.1201C2.3999 5.9521 3.01805 4.0417 6.15561 3.6865C6.56771 3.6289 7.08283 3.6001 7.78527 3.6001H16.2145C16.917 3.6001 17.4321 3.6289 17.8723 3.6961C20.9818 4.0417 21.5999 5.9521 21.5999 9.1201V14.8801C21.5999 18.0481 20.9818 19.9585 17.8442 20.3137C17.4321 20.3713 16.917 20.4001 16.2145 20.4001H7.78527ZM6.33356 5.1169C4.43229 5.3377 3.80478 5.9425 3.80478 9.1201V14.8801C3.80478 18.0577 4.43229 18.6625 6.30546 18.8833C6.69883 18.9409 7.14839 18.9601 7.78527 18.9601H16.2145C16.8514 18.9601 17.301 18.9313 17.6662 18.8833C19.5675 18.6721 20.195 18.0577 20.195 14.8801V9.1201C20.195 5.9425 19.5675 5.3377 17.6943 5.1169C17.301 5.0593 16.8514 5.0401 16.2145 5.0401H7.78527C7.14839 5.0401 6.69883 5.0689 6.33356 5.1169Z" fill="#F0F0F0"/>
<path d="M9.28435 10.0803C9.28435 9.55233 9.69645 9.12033 10.2209 9.12033H10.2303C10.7454 9.12033 11.1669 9.55233 11.1669 10.0803C11.1669 10.6083 10.7454 11.0403 10.2209 11.0403C9.70582 11.0403 9.28435 10.6083 9.28435 10.0803Z" fill="#F0F0F0"/>
<path d="M6.4746 10.0803C6.4746 9.55233 6.8867 9.12033 7.41118 9.12033C7.9263 9.12033 8.34777 9.55233 8.34777 10.0803C8.34777 10.6083 7.93567 11.0403 7.41118 11.0403C6.89606 11.0403 6.4746 10.6083 6.4746 10.0803Z" fill="#F0F0F0"/>
<path d="M7.33732 16.0806C6.95332 16.0806 6.62551 15.7542 6.62551 15.3606C6.62551 14.967 6.93459 14.6406 7.31858 14.6406H16.6844C17.0684 14.6406 17.3869 14.967 17.3869 15.3606C17.3869 15.7542 17.0684 16.0806 16.6844 16.0806H7.33732Z" fill="#F0F0F0"/>
</svg>
