<svg width="24" height="24" viewBox="0 0 24 24" fill="none" xmlns="http://www.w3.org/2000/svg">
<path fill-rule="evenodd" clip-rule="evenodd" d="M7.78576 20.4001C7.08332 20.4001 6.5682 20.3713 6.128 20.3041C3.01854 19.9585 2.40039 18.0481 2.40039 14.8801V9.1201C2.40039 5.9521 3.01854 4.0417 6.1561 3.6865C6.5682 3.6289 7.08332 3.6001 7.78576 3.6001H16.215C16.9175 3.6001 17.4326 3.6289 17.8728 3.6961C20.9822 4.0417 21.6004 5.9521 21.6004 9.1201V14.8801C21.6004 18.0481 20.9822 19.9585 17.8447 20.3137C17.4326 20.3713 16.9175 20.4001 16.215 20.4001H7.78576ZM6.33405 5.1169C4.43278 5.3377 3.80527 5.9425 3.80527 9.1201V14.8801C3.80527 18.0577 4.43278 18.6625 6.30595 18.8833C6.69932 18.9409 7.14888 18.9601 7.78576 18.9601H16.215C16.8519 18.9601 17.3015 18.9313 17.6667 18.8833C19.568 18.6721 20.1955 18.0577 20.1955 14.8801V9.1201C20.1955 5.9425 19.568 5.3377 17.6948 5.1169C17.3015 5.0593 16.8519 5.0401 16.215 5.0401H7.78576C7.14888 5.0401 6.69932 5.0689 6.33405 5.1169Z" fill="#404040"/>
<path d="M9.28484 10.0803C9.28484 9.55233 9.69694 9.12033 10.2214 9.12033H10.2308C10.7459 9.12033 11.1674 9.55233 11.1674 10.0803C11.1674 10.6083 10.7459 11.0403 10.2214 11.0403C9.70631 11.0403 9.28484 10.6083 9.28484 10.0803Z" fill="#404040"/>
<path d="M6.47509 10.0803C6.47509 9.55233 6.88718 9.12033 7.41167 9.12033C7.92679 9.12033 8.34826 9.55233 8.34826 10.0803C8.34826 10.6083 7.93616 11.0403 7.41167 11.0403C6.89655 11.0403 6.47509 10.6083 6.47509 10.0803Z" fill="#404040"/>
<path d="M7.33781 16.0806C6.9538 16.0806 6.626 15.7542 6.626 15.3606C6.626 14.967 6.93507 14.6406 7.31907 14.6406H16.6849C17.0689 14.6406 17.3874 14.967 17.3874 15.3606C17.3874 15.7542 17.0689 16.0806 16.6849 16.0806H7.33781Z" fill="#404040"/>
</svg>
