<svg width="20" height="20" viewBox="0 0 20 20" fill="none" xmlns="http://www.w3.org/2000/svg">
<path fill-rule="evenodd" clip-rule="evenodd" d="M11.4315 17.4121C10.5368 17.0326 9.63467 16.5116 8.75489 15.8791C7.88257 15.2391 7.04007 14.5247 6.24231 13.7433C5.452 12.947 4.73625 12.106 4.10252 11.2428C3.46132 10.3498 2.94688 9.45674 2.58155 8.59349C2.19385 7.6707 2 6.77767 2 5.93674C2 5.35628 2.10438 4.80558 2.30568 4.29209C2.51445 3.76372 2.84995 3.27256 3.30475 2.84837C3.87884 2.28279 4.53495 2 5.23579 2C5.52656 2 5.82479 2.06698 6.07829 2.18605C6.36906 2.32 6.6151 2.52093 6.79404 2.78884L8.52377 5.22233C8.68034 5.43814 8.79963 5.64651 8.88164 5.85488C8.97856 6.07814 9.03076 6.3014 9.03076 6.51721C9.03076 6.8 8.94874 7.07535 8.79217 7.33581C8.68034 7.53674 8.50885 7.75256 8.29264 7.96837L7.78565 8.49674C7.7931 8.51907 7.80056 8.53395 7.80801 8.54884C7.89748 8.70512 8.07642 8.97302 8.41938 9.37488C8.78472 9.79163 9.12768 10.1712 9.47064 10.5209C9.91053 10.9526 10.2759 11.2949 10.6188 11.5777C11.0438 11.9349 11.3197 12.1135 11.4837 12.1953L11.4688 12.2326L12.013 11.6967C12.2442 11.466 12.4678 11.2949 12.6841 11.1833C13.0941 10.9302 13.616 10.8856 14.1379 11.1014C14.3318 11.1833 14.5405 11.2949 14.7642 11.4512L17.2395 13.2074C17.5154 13.3935 17.7167 13.6316 17.836 13.9144C17.9478 14.1972 18 14.4577 18 14.7181C18 15.0753 17.918 15.4326 17.7614 15.7674C17.6048 16.1023 17.411 16.3926 17.165 16.6605C16.74 17.1293 16.2777 17.4642 15.7409 17.68C15.2265 17.8884 14.6673 18 14.0783 18C13.2358 18 12.3486 17.7991 11.4315 17.4121ZM4.08015 3.65209C3.73719 3.97209 3.4986 4.32186 3.34949 4.7014C3.19292 5.08837 3.11836 5.49767 3.11836 5.93674C3.11836 6.62884 3.28239 7.38047 3.61044 8.15442C3.94595 8.94326 4.41566 9.76186 5.01212 10.5805C5.60857 11.3991 6.28705 12.1953 7.03262 12.947C7.77819 13.6837 8.58341 14.3684 9.411 14.9712C10.2162 15.5591 11.0438 16.0353 11.8639 16.3777C13.1389 16.9209 14.3318 17.0474 15.3159 16.6381C15.6962 16.4819 16.0317 16.2437 16.3374 15.9014C16.5089 15.7153 16.6431 15.5144 16.7549 15.2763C16.8444 15.0902 16.8891 14.8967 16.8891 14.7033C16.8891 14.5842 16.8667 14.4651 16.8071 14.3312C16.7847 14.2865 16.74 14.2047 16.5983 14.1079L14.123 12.3516C13.9739 12.2474 13.8397 12.173 13.713 12.1209C13.5489 12.054 13.4818 11.987 13.2283 12.1433C13.0792 12.2177 12.945 12.3293 12.7959 12.4781L12.2293 13.0363C11.9385 13.3191 11.4911 13.386 11.1482 13.2595L10.9469 13.1702C10.6412 13.0065 10.2833 12.7535 9.88816 12.4186C9.53029 12.1135 9.14259 11.7563 8.67288 11.2949C8.30755 10.9228 7.94222 10.5284 7.56198 10.0893C7.21156 9.68 6.95806 9.33023 6.80149 9.04L6.71202 8.81674C6.66729 8.64558 6.65238 8.54884 6.65238 8.44465C6.65238 8.17674 6.7493 7.9386 6.93569 7.75256L7.49487 7.17209C7.64399 7.02326 7.75582 6.88186 7.83038 6.75535C7.89003 6.6586 7.9124 6.57674 7.9124 6.50233C7.9124 6.44279 7.89003 6.35349 7.85275 6.26419C7.80056 6.14512 7.71855 6.01116 7.61417 5.86977L5.88444 3.42884C5.80988 3.32465 5.72041 3.25023 5.60857 3.19814C5.48928 3.14605 5.36253 3.11628 5.23579 3.11628C4.82572 3.11628 4.44548 3.29488 4.08015 3.65209Z" fill="#404040"/>
</svg>
