<svg width="20" height="20" viewBox="0 0 20 20" fill="none" xmlns="http://www.w3.org/2000/svg">
<path fill-rule="evenodd" clip-rule="evenodd" d="M2 10C2 5.58698 5.58698 2 10 2C14.413 2 18 5.58698 18 10C18 14.413 14.413 18 10 18C5.58698 18 2 14.413 2 10ZM3.11628 10C3.11628 10.5772 3.1877 11.138 3.32216 11.6741C3.37568 11.676 3.42929 11.6859 3.48151 11.704C4.39196 12.007 5.32264 12.2443 6.2648 12.4161C6.08764 10.8109 6.0877 9.18729 6.26499 7.58215C5.31997 7.75401 4.38647 7.99187 3.47333 8.29571C3.42319 8.31201 3.37263 8.32112 3.32274 8.32363C3.1879 8.86042 3.11628 9.42201 3.11628 10ZM3.79152 7.02811C4.65643 6.77063 5.53631 6.56842 6.4247 6.42145C6.56719 5.55778 6.76171 4.70216 7.00826 3.86045C6.97469 3.85963 6.94194 3.85593 6.91022 3.84958C5.55258 4.53447 4.45112 5.65587 3.79152 7.02811ZM7.40794 7.40708C7.19271 9.12621 7.19255 10.8713 7.40744 12.5916C9.12711 12.8069 10.8728 12.8073 12.5926 12.5927C12.8078 10.8735 12.8079 9.12847 12.593 7.40817C10.8733 7.19285 9.12767 7.19249 7.40794 7.40708ZM12.4172 6.26195C10.8128 6.08386 9.18927 6.08371 7.584 6.2615C7.75572 5.32046 7.99295 4.39075 8.2957 3.48091C8.31379 3.42891 8.32363 3.37553 8.32565 3.32224C8.86182 3.18772 9.42274 3.11628 10 3.11628C10.5781 3.11628 11.1398 3.18794 11.6767 3.32283C11.679 3.37312 11.6882 3.42381 11.7048 3.47362C12.0079 4.38635 12.2454 5.31865 12.4172 6.26195ZM13.7398 7.58444C13.917 9.18962 13.9163 10.813 13.7377 12.4172C14.682 12.2453 15.6147 12.0076 16.5271 11.704C16.5765 11.6869 16.6271 11.6771 16.6777 11.6744C16.8123 11.1382 16.8837 10.5773 16.8837 10C16.8837 9.42257 16.8122 8.8615 16.6776 8.32519C16.6247 8.32363 16.5718 8.31556 16.5189 8.29571C15.6098 7.99322 14.6805 7.75613 13.7398 7.58444ZM16.2096 7.03044C15.3462 6.77266 14.4674 6.57012 13.5799 6.42282C13.4334 5.5356 13.2317 4.65683 12.9749 3.79299C14.3861 4.47214 15.5316 5.61865 16.2096 7.03044ZM6.91017 16.1504C5.59171 15.4853 4.51486 14.4084 3.84969 13.09C3.85633 13.058 3.86021 13.0251 3.86105 12.9915C4.70396 13.2399 5.56016 13.4352 6.4246 13.5779C6.5671 14.4418 6.76166 15.2976 7.00826 16.1395C6.97467 16.1403 6.9419 16.144 6.91017 16.1504ZM8.2957 16.5265C7.99243 15.6135 7.7549 14.6809 7.58311 13.7372C8.38517 13.8256 9.19231 13.8696 10.0006 13.8696C10.8082 13.8696 11.6148 13.8257 12.4167 13.7374C12.2449 14.6789 12.0076 15.609 11.7048 16.5192C11.686 16.5716 11.6759 16.625 11.6737 16.6779C11.1377 16.8123 10.577 16.8837 10 16.8837C9.42262 16.8837 8.86159 16.8122 8.32531 16.6777C8.32269 16.6269 8.31294 16.5761 8.2957 16.5265ZM12.9676 16.2105C13.226 15.3462 13.4291 14.4666 13.5768 13.5781C14.4427 13.4354 15.3011 13.2401 16.1476 12.9915C16.1483 13.021 16.1512 13.05 16.1563 13.0781C15.4712 14.4425 14.3457 15.5493 12.9676 16.2105Z" fill="#404040"/>
</svg>
