<svg width="16" height="16" viewBox="0 0 16 16" fill="none" xmlns="http://www.w3.org/2000/svg">
<path fill-rule="evenodd" clip-rule="evenodd" d="M0 8C0 3.58698 3.58698 0 8 0C12.413 0 16 3.58698 16 8C16 12.413 12.413 16 8 16C3.58698 16 0 12.413 0 8ZM1.11628 8C1.11628 8.57716 1.1877 9.13797 1.32216 9.67406C1.37568 9.67602 1.42929 9.68587 1.48151 9.70403C2.39196 10.007 3.32264 10.2443 4.2648 10.4161C4.08764 8.81091 4.0877 7.18729 4.26499 5.58215C3.31997 5.75401 2.38647 5.99187 1.47333 6.29571C1.42319 6.31201 1.37263 6.32112 1.32274 6.32363C1.1879 6.86042 1.11628 7.42201 1.11628 8ZM1.79152 5.02811C2.65643 4.77063 3.53631 4.56842 4.4247 4.42145C4.56719 3.55778 4.76171 2.70216 5.00826 1.86045C4.97469 1.85963 4.94194 1.85593 4.91022 1.84958C3.55258 2.53447 2.45112 3.65587 1.79152 5.02811ZM5.40794 5.40708C5.19271 7.12621 5.19255 8.87127 5.40744 10.5916C7.12711 10.8069 8.87282 10.8073 10.5926 10.5927C10.8078 8.87353 10.8079 7.12847 10.593 5.40817C8.87335 5.19285 7.12767 5.19249 5.40794 5.40708ZM10.4172 4.26195C8.81284 4.08386 7.18927 4.08371 5.584 4.2615C5.75572 3.32046 5.99295 2.39075 6.2957 1.48091C6.31379 1.42891 6.32363 1.37553 6.32565 1.32224C6.86182 1.18772 7.42274 1.11628 8 1.11628C8.57812 1.11628 9.13983 1.18794 9.67672 1.32283C9.67902 1.37312 9.68817 1.42381 9.70477 1.47362C10.0079 2.38635 10.2454 3.31865 10.4172 4.26195ZM11.7398 5.58444C11.917 7.18962 11.9163 8.81304 11.7377 10.4172C12.682 10.2453 13.6147 10.0076 14.5271 9.70403C14.5765 9.68685 14.6271 9.67711 14.6777 9.67445C14.8123 9.13824 14.8837 8.5773 14.8837 8C14.8837 7.42257 14.8122 6.8615 14.6776 6.32519C14.6247 6.32363 14.5718 6.31556 14.5189 6.29571C13.6098 5.99322 12.6805 5.75613 11.7398 5.58444ZM14.2096 5.03044C13.3462 4.77266 12.4674 4.57012 11.5799 4.42282C11.4334 3.5356 11.2317 2.65683 10.9749 1.79299C12.3861 2.47214 13.5316 3.61865 14.2096 5.03044ZM4.91017 14.1504C3.59171 13.4853 2.51486 12.4084 1.84969 11.09C1.85633 11.058 1.86021 11.0251 1.86105 10.9915C2.70396 11.2399 3.56016 11.4352 4.4246 11.5779C4.5671 12.4418 4.76166 13.2976 5.00826 14.1395C4.97467 14.1403 4.9419 14.144 4.91017 14.1504ZM6.2957 14.5265C5.99243 13.6135 5.7549 12.6809 5.58311 11.7372C6.38517 11.8256 7.19231 11.8696 8.00058 11.8696C8.80824 11.8696 9.61478 11.8257 10.4167 11.7374C10.2449 12.6789 10.0076 13.609 9.70477 14.5192C9.68595 14.5716 9.67587 14.625 9.67371 14.6779C9.13773 14.8123 8.57703 14.8837 8 14.8837C7.42262 14.8837 6.86159 14.8122 6.32531 14.6777C6.32269 14.6269 6.31294 14.5761 6.2957 14.5265ZM10.9676 14.2105C11.226 13.3462 11.4291 12.4666 11.5768 11.5781C12.4427 11.4354 13.3011 11.2401 14.1476 10.9915C14.1483 11.021 14.1512 11.05 14.1563 11.0781C13.4712 12.4425 12.3457 13.5493 10.9676 14.2105Z" fill="#F0F0F0"/>
</svg>
