<svg width="16" height="11" viewBox="0 0 16 11" fill="none" xmlns="http://www.w3.org/2000/svg">
<path d="M0.5 3.03031L1.97836 4.50867C3.37565 2.95064 5.5437 1.95019 7.97794 1.95019C10.4369 1.95019 12.6242 2.97103 14.0198 4.55623L15.5 3.07599C13.6958 1.19491 10.9955 0 7.97794 0C4.98483 0 2.30398 1.17559 0.5 3.03031Z" fill="#449C47"/>
<path d="M12.797 5.77903C11.5089 4.55214 9.86003 3.81559 8.06273 3.81559C6.24643 3.81559 4.58172 4.56779 3.28779 5.8181L4.58145 7.11175C5.55033 6.26674 6.75597 5.76577 8.06273 5.76577C9.35032 5.76577 10.5397 6.25215 11.5012 7.07478L12.797 5.77903Z" fill="#449C47"/>
<path d="M10.1767 8.39934C9.55803 7.90593 8.87102 7.63117 8.14752 7.63117C7.37047 7.63117 6.63551 7.9481 5.98217 8.51247L7.24117 9.77148C8.04153 10.5141 7.85075 10.3445 8.04153 10.5141C8.23231 10.3233 8.23231 10.3233 8.87352 9.70247L10.1767 8.39934Z" fill="#449C47"/>
</svg>
