<svg width="24" height="24" viewBox="0 0 24 24" fill="none" xmlns="http://www.w3.org/2000/svg">
<path d="M0 4C0 1.79086 1.79086 0 4 0H20C22.2091 0 24 1.79086 24 4V20C24 22.2091 22.2091 24 20 24H4C1.79086 24 0 22.2091 0 20V4Z" fill="#F7F5F3"/>
<path d="M9.35984 14.5335C9.16651 14.3402 9.16651 14.0202 9.35984 13.8268L13.7265 9.46019C13.9198 9.26685 14.2398 9.26685 14.4332 9.46019C14.6265 9.65352 14.6265 9.97352 14.4332 10.1669L10.0665 14.5335C9.96651 14.6335 9.83984 14.6802 9.71318 14.6802C9.58651 14.6802 9.45984 14.6335 9.35984 14.5335Z" fill="#937962"/>
<path fill-rule="evenodd" clip-rule="evenodd" d="M8.66699 10.0866C8.66699 9.35994 9.26033 8.7666 9.987 8.7666C10.7137 8.7666 11.307 9.35994 11.307 10.0866C11.307 10.8133 10.7137 11.4066 9.987 11.4066C9.26033 11.4066 8.66699 10.8133 8.66699 10.0866ZM9.66699 10.0933C9.66699 10.2733 9.807 10.4133 9.987 10.4133C10.167 10.4133 10.307 10.2733 10.307 10.0933C10.307 9.91328 10.1603 9.77327 9.987 9.77327C9.81367 9.77327 9.66699 9.91328 9.66699 10.0933Z" fill="#937962"/>
<path fill-rule="evenodd" clip-rule="evenodd" d="M13.0264 13.9067C13.0264 13.18 13.6197 12.5867 14.3464 12.5867C15.073 12.5867 15.6664 13.18 15.6664 13.9067C15.6664 14.6333 15.073 15.2267 14.3464 15.2267C13.6197 15.2267 13.0264 14.6333 13.0264 13.9067ZM14.0264 13.9133C14.0264 14.0933 14.1664 14.2333 14.3464 14.2333C14.5264 14.2333 14.6664 14.0933 14.6664 13.9133C14.6664 13.7333 14.5264 13.5933 14.3464 13.5933C14.173 13.5933 14.0264 13.7333 14.0264 13.9133Z" fill="#937962"/>
<path fill-rule="evenodd" clip-rule="evenodd" d="M4.83301 11.9999C4.83301 8.04659 8.04634 4.83325 11.9997 4.83325C15.953 4.83325 19.1663 8.04659 19.1663 11.9999C19.1663 15.9533 15.953 19.1666 11.9997 19.1666C8.04634 19.1666 4.83301 15.9533 4.83301 11.9999ZM5.83301 11.9999C5.83301 15.3999 8.59967 18.1666 11.9997 18.1666C15.3997 18.1666 18.1663 15.3999 18.1663 11.9999C18.1663 8.59992 15.3997 5.83325 11.9997 5.83325C8.59967 5.83325 5.83301 8.59992 5.83301 11.9999Z" fill="#937962"/>
</svg>
