<svg width="24" height="24" viewBox="0 0 24 24" fill="none" xmlns="http://www.w3.org/2000/svg">
<path d="M0 4C0 1.79086 1.79086 0 4 0H20C22.2091 0 24 1.79086 24 4V20C24 22.2091 22.2091 24 20 24H4C1.79086 24 0 22.2091 0 20V4Z" fill="#251F18"/>
<path d="M9.35984 14.5333C9.16651 14.3399 9.16651 14.0199 9.35984 13.8266L13.7265 9.45994C13.9198 9.26661 14.2398 9.26661 14.4332 9.45994C14.6265 9.65327 14.6265 9.97327 14.4332 10.1666L10.0665 14.5333C9.96651 14.6333 9.83984 14.6799 9.71318 14.6799C9.58651 14.6799 9.45984 14.6333 9.35984 14.5333Z" fill="#7A6552"/>
<path fill-rule="evenodd" clip-rule="evenodd" d="M8.6665 10.0866C8.6665 9.35994 9.25984 8.7666 9.98651 8.7666C10.7132 8.7666 11.3065 9.35994 11.3065 10.0866C11.3065 10.8133 10.7132 11.4066 9.98651 11.4066C9.25984 11.4066 8.6665 10.8133 8.6665 10.0866ZM9.6665 10.0933C9.6665 10.2733 9.80651 10.4133 9.98651 10.4133C10.1665 10.4133 10.3065 10.2733 10.3065 10.0933C10.3065 9.91328 10.1598 9.77327 9.98651 9.77327C9.81318 9.77327 9.6665 9.91328 9.6665 10.0933Z" fill="#7A6552"/>
<path fill-rule="evenodd" clip-rule="evenodd" d="M13.0259 13.9064C13.0259 13.1797 13.6192 12.5864 14.3459 12.5864C15.0725 12.5864 15.6659 13.1797 15.6659 13.9064C15.6659 14.6331 15.0725 15.2264 14.3459 15.2264C13.6192 15.2264 13.0259 14.6331 13.0259 13.9064ZM14.0259 13.9131C14.0259 14.0931 14.1659 14.2331 14.3459 14.2331C14.5259 14.2331 14.6659 14.0931 14.6659 13.9131C14.6659 13.7331 14.5259 13.5931 14.3459 13.5931C14.1725 13.5931 14.0259 13.7331 14.0259 13.9131Z" fill="#7A6552"/>
<path fill-rule="evenodd" clip-rule="evenodd" d="M4.8335 12.0002C4.8335 8.04683 8.04683 4.8335 12.0002 4.8335C15.9535 4.8335 19.1668 8.04683 19.1668 12.0002C19.1668 15.9535 15.9535 19.1668 12.0002 19.1668C8.04683 19.1668 4.8335 15.9535 4.8335 12.0002ZM5.8335 12.0002C5.8335 15.4002 8.60016 18.1668 12.0002 18.1668C15.4002 18.1668 18.1668 15.4002 18.1668 12.0002C18.1668 8.60016 15.4002 5.8335 12.0002 5.8335C8.60016 5.8335 5.8335 8.60016 5.8335 12.0002Z" fill="#7A6552"/>
</svg>
