<svg width="198" height="110" viewBox="0 0 198 110" fill="none" xmlns="http://www.w3.org/2000/svg">
<g clip-path="url(#clip0_1412_46697)">
<path d="M0 4C0 1.79086 1.79086 0 4 0H194C196.209 0 198 1.79086 198 4V106C198 108.209 196.209 110 194 110H4C1.79087 110 0 108.209 0 106V4Z" fill="#1F1F1F"/>
<path d="M6.96045 60.6839L9.12181 53.8285H10.8023L12.9637 60.6839H11.7831L9.82164 54.5331H10.0787L8.14111 60.6839H6.96045ZM8.16491 59.1986V58.1274H11.764V59.1986H8.16491ZM13.9196 60.6839V53.8285H15.067V60.6839H13.9196ZM16.3978 58.1322V57.2324H19.2543V58.1322H16.3978ZM22.9621 60.8268C22.4606 60.8268 22.0401 60.7077 21.7005 60.4697C21.3609 60.2317 21.1054 59.9079 20.934 59.4985C20.7627 59.0859 20.677 58.6241 20.677 58.1132C20.677 57.5958 20.7627 57.1324 20.934 56.723C21.1054 56.3136 21.3562 55.9915 21.6862 55.7566C22.0195 55.5186 22.4305 55.3995 22.9193 55.3995C23.4049 55.3995 23.8254 55.5186 24.1809 55.7566C24.5395 55.9915 24.8172 56.3136 25.014 56.723C25.2108 57.1293 25.3091 57.5926 25.3091 58.1132C25.3091 58.6273 25.2123 59.0891 25.0187 59.4985C24.8251 59.9079 24.5522 60.2317 24.1999 60.4697C23.8476 60.7077 23.435 60.8268 22.9621 60.8268ZM20.4818 62.9691V55.5424H21.4958V59.151H21.6386V62.9691H20.4818ZM22.786 59.7984C23.0843 59.7984 23.3303 59.7239 23.5239 59.5747C23.7175 59.4255 23.8603 59.224 23.9523 58.9701C24.0476 58.713 24.0952 58.4274 24.0952 58.1132C24.0952 57.8021 24.0476 57.5196 23.9523 57.2657C23.8571 57.0087 23.7095 56.8055 23.5096 56.6564C23.3096 56.504 23.0557 56.4279 22.7479 56.4279C22.4559 56.4279 22.2179 56.4993 22.0338 56.6421C21.8497 56.7817 21.7132 56.9785 21.6243 57.2324C21.5387 57.4831 21.4958 57.7767 21.4958 58.1132C21.4958 58.4464 21.5387 58.74 21.6243 58.9939C21.7132 59.2478 21.8513 59.4462 22.0385 59.589C22.229 59.7286 22.4781 59.7984 22.786 59.7984ZM28.6294 60.8268C28.1152 60.8268 27.6661 60.7109 27.2821 60.4792C26.8981 60.2475 26.5997 59.9286 26.3871 59.5223C26.1776 59.1129 26.0729 58.6432 26.0729 58.1132C26.0729 57.5736 26.1808 57.1007 26.3966 56.6945C26.6124 56.2882 26.9123 55.9708 27.2964 55.7423C27.6804 55.5138 28.1247 55.3995 28.6294 55.3995C29.1467 55.3995 29.5974 55.5154 29.9814 55.7471C30.3654 55.9788 30.6638 56.2993 30.8764 56.7087C31.0891 57.115 31.1954 57.5831 31.1954 58.1132C31.1954 58.6464 31.0875 59.1177 30.8717 59.5271C30.659 59.9333 30.3607 60.2523 29.9767 60.484C29.5926 60.7125 29.1435 60.8268 28.6294 60.8268ZM28.6294 59.7508C29.0864 59.7508 29.426 59.5985 29.6482 59.2938C29.8703 58.9891 29.9814 58.5956 29.9814 58.1132C29.9814 57.6149 29.8687 57.2181 29.6434 56.923C29.4181 56.6246 29.0801 56.4755 28.6294 56.4755C28.3215 56.4755 28.0676 56.5453 27.8677 56.6849C27.6709 56.8214 27.5249 57.0134 27.4297 57.261C27.3345 57.5054 27.2868 57.7894 27.2868 58.1132C27.2868 58.6114 27.3995 59.0098 27.6249 59.3081C27.8534 59.6033 28.1882 59.7508 28.6294 59.7508ZM33.1533 60.6839L31.5823 55.5328L32.7058 55.5424L33.7103 58.8415L34.7291 55.5424H35.6955L36.7096 58.8415L37.7188 55.5424H38.8424L37.2713 60.6839H36.3763L35.2099 57.1467L34.0483 60.6839H33.1533ZM41.8531 60.8268C41.3326 60.8268 40.8755 60.7141 40.482 60.4887C40.0884 60.2634 39.7806 59.9508 39.5584 59.5509C39.3394 59.151 39.2299 58.6908 39.2299 58.1703C39.2299 57.6085 39.3378 57.1213 39.5536 56.7087C39.7695 56.293 40.0694 55.9708 40.4534 55.7423C40.8375 55.5138 41.2818 55.3995 41.7864 55.3995C42.3196 55.3995 42.7719 55.5249 43.1432 55.7756C43.5177 56.0232 43.7954 56.3739 43.9764 56.8278C44.1573 57.2816 44.2255 57.8164 44.1811 58.4321H43.0433V58.0132C43.0401 57.4546 42.9417 57.0467 42.7481 56.7897C42.5545 56.5326 42.2498 56.4041 41.834 56.4041C41.3643 56.4041 41.0152 56.55 40.7867 56.842C40.5582 57.1309 40.4439 57.5546 40.4439 58.1132C40.4439 58.6337 40.5582 59.0367 40.7867 59.3224C41.0152 59.608 41.3484 59.7508 41.7864 59.7508C42.0689 59.7508 42.3117 59.6889 42.5148 59.5652C42.7211 59.4382 42.8798 59.2557 42.9909 59.0177L44.1239 59.3605C43.9272 59.8238 43.6225 60.1841 43.2099 60.4411C42.8005 60.6982 42.3482 60.8268 41.8531 60.8268ZM40.0821 58.4321V57.5657H43.6193V58.4321H40.0821ZM45.2433 60.6839V55.5424H46.2573V56.7944L46.1336 56.6326C46.197 56.4612 46.2811 56.3057 46.3859 56.166C46.4938 56.0232 46.6223 55.9058 46.7715 55.8137C46.8984 55.728 47.0381 55.6614 47.1904 55.6138C47.346 55.563 47.5046 55.5328 47.6665 55.5233C47.8284 55.5106 47.9855 55.517 48.1378 55.5424V56.6135C47.9855 56.5691 47.8093 56.5548 47.6094 56.5707C47.4126 56.5865 47.2349 56.6421 47.0762 56.7373C46.9175 56.823 46.7874 56.9325 46.6858 57.0658C46.5874 57.1991 46.5144 57.3514 46.4668 57.5228C46.4192 57.691 46.3954 57.8735 46.3954 58.0703V60.6839H45.2433ZM51.2908 60.8268C50.7703 60.8268 50.3133 60.7141 49.9197 60.4887C49.5262 60.2634 49.2183 59.9508 48.9962 59.5509C48.7772 59.151 48.6677 58.6908 48.6677 58.1703C48.6677 57.6085 48.7756 57.1213 48.9914 56.7087C49.2072 56.293 49.5071 55.9708 49.8912 55.7423C50.2752 55.5138 50.7195 55.3995 51.2242 55.3995C51.7574 55.3995 52.2096 55.5249 52.581 55.7756C52.9555 56.0232 53.2332 56.3739 53.4141 56.8278C53.595 57.2816 53.6632 57.8164 53.6188 58.4321H52.481V58.0132C52.4778 57.4546 52.3794 57.0467 52.1858 56.7897C51.9922 56.5326 51.6876 56.4041 51.2718 56.4041C50.8021 56.4041 50.4529 56.55 50.2244 56.842C49.9959 57.1309 49.8817 57.5546 49.8817 58.1132C49.8817 58.6337 49.9959 59.0367 50.2244 59.3224C50.4529 59.608 50.7862 59.7508 51.2242 59.7508C51.5066 59.7508 51.7494 59.6889 51.9526 59.5652C52.1589 59.4382 52.3176 59.2557 52.4286 59.0177L53.5617 59.3605C53.3649 59.8238 53.0602 60.1841 52.6476 60.4411C52.2382 60.6982 51.7859 60.8268 51.2908 60.8268ZM49.5198 58.4321V57.5657H53.0571V58.4321H49.5198ZM56.7424 60.8268C56.2695 60.8268 55.8569 60.7077 55.5047 60.4697C55.1524 60.2317 54.8794 59.9079 54.6858 59.4985C54.4922 59.0891 54.3954 58.6273 54.3954 58.1132C54.3954 57.5926 54.4922 57.1293 54.6858 56.723C54.8826 56.3136 55.1603 55.9915 55.5189 55.7566C55.8776 55.5186 56.2997 55.3995 56.7853 55.3995C57.2741 55.3995 57.6835 55.5186 58.0136 55.7566C58.3468 55.9915 58.5991 56.3136 58.7705 56.723C58.9419 57.1324 59.0276 57.5958 59.0276 58.1132C59.0276 58.6241 58.9419 59.0859 58.7705 59.4985C58.5991 59.9079 58.3436 60.2317 58.004 60.4697C57.6644 60.7077 57.2439 60.8268 56.7424 60.8268ZM56.9186 59.7984C57.2264 59.7984 57.474 59.7286 57.6613 59.589C57.8517 59.4462 57.9897 59.2478 58.0754 58.9939C58.1643 58.74 58.2087 58.4464 58.2087 58.1132C58.2087 57.7767 58.1643 57.4831 58.0754 57.2324C57.9897 56.9785 57.8549 56.7817 57.6708 56.6421C57.4867 56.4993 57.2487 56.4279 56.9567 56.4279C56.6488 56.4279 56.3949 56.504 56.195 56.6564C55.995 56.8055 55.8474 57.0087 55.7522 57.2657C55.657 57.5196 55.6094 57.8021 55.6094 58.1132C55.6094 58.4274 55.6554 58.713 55.7475 58.9701C55.8427 59.224 55.9871 59.4255 56.1807 59.5747C56.3743 59.7239 56.6202 59.7984 56.9186 59.7984ZM58.2087 60.6839V57.0753H58.0659V53.8285H59.2228V60.6839H58.2087ZM9.42174 70.8268C8.78698 70.8268 8.27123 70.6839 7.87451 70.3983C7.47778 70.1127 7.23657 69.7112 7.15088 69.1938L8.32201 69.0129C8.38232 69.2668 8.51562 69.4668 8.72191 69.6128C8.92821 69.7588 9.18846 69.8318 9.50267 69.8318C9.77879 69.8318 9.99144 69.7778 10.1406 69.6699C10.2929 69.5588 10.3691 69.4081 10.3691 69.2176C10.3691 69.1002 10.3406 69.0066 10.2834 68.9368C10.2295 68.8638 10.1089 68.7939 9.92161 68.7273C9.73436 68.6606 9.44713 68.5765 9.05992 68.475C8.62829 68.3607 8.28551 68.2385 8.03161 68.1084C7.7777 67.9751 7.59521 67.818 7.48413 67.6371C7.37304 67.4562 7.3175 67.2372 7.3175 66.9801C7.3175 66.6595 7.40161 66.3802 7.56982 66.1422C7.73803 65.9042 7.97289 65.7217 8.27441 65.5947C8.57592 65.4646 8.93138 65.3995 9.34081 65.3995C9.74071 65.3995 10.0946 65.4614 10.4024 65.5852C10.7135 65.709 10.9642 65.8851 11.1546 66.1136C11.3451 66.3422 11.4625 66.6104 11.5069 66.9182L10.3358 67.1277C10.3072 66.9087 10.2073 66.7357 10.0359 66.6088C9.86766 66.4818 9.64232 66.4104 9.35985 66.3945C9.09008 66.3787 8.87267 66.4199 8.70763 66.5183C8.54259 66.6135 8.46007 66.7484 8.46007 66.923C8.46007 67.0214 8.4934 67.1055 8.56005 67.1753C8.6267 67.2451 8.76 67.3149 8.95995 67.3848C9.16307 67.4546 9.46459 67.5403 9.86449 67.6418C10.2739 67.7466 10.6008 67.8672 10.8452 68.0037C11.0928 68.137 11.2705 68.2972 11.3784 68.4845C11.4895 68.6717 11.545 68.8987 11.545 69.1653C11.545 69.6826 11.3562 70.0888 10.9785 70.384C10.604 70.6792 10.0851 70.8268 9.42174 70.8268ZM14.8205 70.8268C14.2905 70.8268 13.8382 70.7093 13.4637 70.4745C13.0892 70.2364 12.802 69.9127 12.602 69.5033C12.4053 69.0939 12.3053 68.6305 12.3021 68.1132C12.3053 67.5863 12.4084 67.1197 12.6116 66.7135C12.8179 66.3041 13.1099 65.9835 13.4875 65.7518C13.8652 65.517 14.3143 65.3995 14.8348 65.3995C15.4188 65.3995 15.9123 65.5471 16.3154 65.8423C16.7217 66.1343 16.9867 66.5342 17.1104 67.042L15.9679 67.3514C15.879 67.0753 15.7314 66.8611 15.5251 66.7087C15.3188 66.5532 15.084 66.4755 14.8205 66.4755C14.5222 66.4755 14.2762 66.5469 14.0826 66.6897C13.889 66.8293 13.7462 67.0229 13.6542 67.2705C13.5621 67.5181 13.5161 67.7989 13.5161 68.1132C13.5161 68.6019 13.6256 68.9971 13.8446 69.2986C14.0636 69.6001 14.3889 69.7508 14.8205 69.7508C15.1252 69.7508 15.3648 69.681 15.5394 69.5414C15.7171 69.4017 15.8504 69.2002 15.9393 68.9368L17.1104 69.1986C16.9518 69.7223 16.674 70.1253 16.2773 70.4078C15.8806 70.6871 15.395 70.8268 14.8205 70.8268ZM18.0644 70.6839V65.5424H19.0785V66.7944L18.9547 66.6326C19.0182 66.4612 19.1023 66.3057 19.207 66.166C19.3149 66.0232 19.4435 65.9058 19.5926 65.8137C19.7196 65.728 19.8592 65.6614 20.0116 65.6138C20.1671 65.563 20.3258 65.5328 20.4877 65.5233C20.6495 65.5106 20.8066 65.517 20.959 65.5424V66.6135C20.8066 66.5691 20.6305 66.5548 20.4305 66.5707C20.2337 66.5865 20.056 66.6421 19.8973 66.7373C19.7386 66.823 19.6085 66.9325 19.5069 67.0658C19.4086 67.1991 19.3356 67.3514 19.288 67.5228C19.2403 67.691 19.2165 67.8735 19.2165 68.0703V70.6839H18.0644ZM24.112 70.8268C23.5915 70.8268 23.1344 70.7141 22.7409 70.4887C22.3473 70.2634 22.0395 69.9508 21.8173 69.5509C21.5983 69.151 21.4888 68.6908 21.4888 68.1703C21.4888 67.6085 21.5967 67.1213 21.8125 66.7087C22.0284 66.293 22.3283 65.9708 22.7123 65.7423C23.0964 65.5138 23.5407 65.3995 24.0453 65.3995C24.5785 65.3995 25.0308 65.5249 25.4021 65.7756C25.7766 66.0232 26.0543 66.3739 26.2353 66.8278C26.4162 67.2816 26.4844 67.8164 26.44 68.4321H25.3022V68.0132C25.299 67.4546 25.2006 67.0467 25.007 66.7897C24.8134 66.5326 24.5087 66.4041 24.0929 66.4041C23.6232 66.4041 23.2741 66.55 23.0456 66.842C22.8171 67.1309 22.7028 67.5546 22.7028 68.1132C22.7028 68.6337 22.8171 69.0367 23.0456 69.3224C23.2741 69.608 23.6073 69.7508 24.0453 69.7508C24.3278 69.7508 24.5706 69.6889 24.7737 69.5652C24.98 69.4382 25.1387 69.2557 25.2498 69.0177L26.3828 69.3605C26.1861 69.8238 25.8814 70.1841 25.4688 70.4411C25.0594 70.6982 24.6071 70.8268 24.112 70.8268ZM22.341 68.4321V67.5657H25.8782V68.4321H22.341ZM29.8397 70.8268C29.3192 70.8268 28.8622 70.7141 28.4686 70.4887C28.0751 70.2634 27.7672 69.9508 27.545 69.5509C27.326 69.151 27.2166 68.6908 27.2166 68.1703C27.2166 67.6085 27.3245 67.1213 27.5403 66.7087C27.7561 66.293 28.056 65.9708 28.4401 65.7423C28.8241 65.5138 29.2684 65.3995 29.7731 65.3995C30.3063 65.3995 30.7585 65.5249 31.1299 65.7756C31.5044 66.0232 31.7821 66.3739 31.963 66.8278C32.1439 67.2816 32.2121 67.8164 32.1677 68.4321H31.0299V68.0132C31.0267 67.4546 30.9283 67.0467 30.7347 66.7897C30.5411 66.5326 30.2364 66.4041 29.8207 66.4041C29.3509 66.4041 29.0018 66.55 28.7733 66.842C28.5448 67.1309 28.4305 67.5546 28.4305 68.1132C28.4305 68.6337 28.5448 69.0367 28.7733 69.3224C29.0018 69.608 29.3351 69.7508 29.7731 69.7508C30.0555 69.7508 30.2983 69.6889 30.5014 69.5652C30.7077 69.4382 30.8664 69.2557 30.9775 69.0177L32.1106 69.3605C31.9138 69.8238 31.6091 70.1841 31.1965 70.4411C30.7871 70.6982 30.3348 70.8268 29.8397 70.8268ZM28.0687 68.4321V67.5657H31.6059V68.4321H28.0687ZM36.6467 70.6839V68.2084C36.6467 68.0465 36.6356 67.8672 36.6134 67.6704C36.5912 67.4736 36.5388 67.2848 36.4563 67.1039C36.3769 66.9198 36.2563 66.769 36.0945 66.6516C35.9358 66.5342 35.72 66.4755 35.447 66.4755C35.301 66.4755 35.1566 66.4993 35.0138 66.5469C34.871 66.5945 34.7408 66.677 34.6234 66.7944C34.5092 66.9087 34.4171 67.0674 34.3473 67.2705C34.2775 67.4705 34.2426 67.7275 34.2426 68.0417L33.5618 67.7513C33.5618 67.3133 33.6459 66.9166 33.8141 66.5612C33.9855 66.2057 34.2362 65.9232 34.5663 65.7137C34.8964 65.5011 35.3026 65.3948 35.785 65.3948C36.1659 65.3948 36.4801 65.4583 36.7276 65.5852C36.9752 65.7122 37.172 65.874 37.318 66.0708C37.464 66.2676 37.5719 66.4771 37.6417 66.6992C37.7115 66.9214 37.756 67.1324 37.775 67.3324C37.7972 67.5292 37.8083 67.6894 37.8083 67.8132V70.6839H36.6467ZM33.0809 70.6839V65.5424H34.1045V67.1372H34.2426V70.6839H33.0809ZM41.3045 70.8268C40.784 70.8268 40.3269 70.7141 39.9334 70.4887C39.5398 70.2634 39.232 69.9508 39.0098 69.5509C38.7908 69.151 38.6813 68.6908 38.6813 68.1703C38.6813 67.6085 38.7892 67.1213 39.0051 66.7087C39.2209 66.293 39.5208 65.9708 39.9048 65.7423C40.2889 65.5138 40.7332 65.3995 41.2378 65.3995C41.771 65.3995 42.2233 65.5249 42.5946 65.7756C42.9691 66.0232 43.2469 66.3739 43.4278 66.8278C43.6087 67.2816 43.6769 67.8164 43.6325 68.4321H42.4947V68.0132C42.4915 67.4546 42.3931 67.0467 42.1995 66.7897C42.0059 66.5326 41.7012 66.4041 41.2854 66.4041C40.8157 66.4041 40.4666 66.55 40.2381 66.842C40.0096 67.1309 39.8953 67.5546 39.8953 68.1132C39.8953 68.6337 40.0096 69.0367 40.2381 69.3224C40.4666 69.608 40.7998 69.7508 41.2378 69.7508C41.5203 69.7508 41.7631 69.6889 41.9662 69.5652C42.1725 69.4382 42.3312 69.2557 42.4423 69.0177L43.5753 69.3605C43.3786 69.8238 43.0739 70.1841 42.6613 70.4411C42.2519 70.6982 41.7996 70.8268 41.3045 70.8268ZM39.5335 68.4321V67.5657H43.0707V68.4321H39.5335ZM44.6947 70.6839V65.5424H45.7087V66.7944L45.585 66.6326C45.6484 66.4612 45.7325 66.3057 45.8373 66.166C45.9452 66.0232 46.0737 65.9058 46.2229 65.8137C46.3498 65.728 46.4895 65.6614 46.6418 65.6138C46.7974 65.563 46.956 65.5328 47.1179 65.5233C47.2798 65.5106 47.4369 65.517 47.5892 65.5424V66.6135C47.4369 66.5691 47.2607 66.5548 47.0608 66.5707C46.864 66.5865 46.6863 66.6421 46.5276 66.7373C46.3689 66.823 46.2388 66.9325 46.1372 67.0658C46.0388 67.1991 45.9658 67.3514 45.9182 67.5228C45.8706 67.691 45.8468 67.8735 45.8468 68.0703V70.6839H44.6947ZM52.8747 70.8268C52.3732 70.8268 51.9527 70.7077 51.6131 70.4697C51.2735 70.2317 51.018 69.9079 50.8466 69.4985C50.6752 69.0859 50.5895 68.6241 50.5895 68.1132C50.5895 67.5958 50.6752 67.1324 50.8466 66.723C51.018 66.3136 51.2687 65.9915 51.5988 65.7566C51.932 65.5186 52.343 65.3995 52.8318 65.3995C53.3174 65.3995 53.7379 65.5186 54.0934 65.7566C54.452 65.9915 54.7298 66.3136 54.9265 66.723C55.1233 67.1293 55.2217 67.5926 55.2217 68.1132C55.2217 68.6273 55.1249 69.0891 54.9313 69.4985C54.7377 69.9079 54.4647 70.2317 54.1124 70.4697C53.7602 70.7077 53.3476 70.8268 52.8747 70.8268ZM50.3943 70.6839V63.8285H51.5512V67.0753H51.4084V70.6839H50.3943ZM52.6985 69.7984C52.9969 69.7984 53.2428 69.7239 53.4364 69.5747C53.63 69.4255 53.7728 69.224 53.8649 68.9701C53.9601 68.713 54.0077 68.4274 54.0077 68.1132C54.0077 67.8021 53.9601 67.5196 53.8649 67.2657C53.7697 67.0087 53.6221 66.8055 53.4221 66.6564C53.2222 66.504 52.9683 66.4279 52.6604 66.4279C52.3684 66.4279 52.1304 66.4993 51.9463 66.6421C51.7622 66.7817 51.6258 66.9785 51.5369 67.2324C51.4512 67.4831 51.4084 67.7767 51.4084 68.1132C51.4084 68.4464 51.4512 68.74 51.5369 68.9939C51.6258 69.2478 51.7638 69.4462 51.9511 69.589C52.1415 69.7286 52.3907 69.7984 52.6985 69.7984ZM58.1991 70.8315C57.8183 70.8315 57.5041 70.768 57.2565 70.6411C57.009 70.5141 56.8122 70.3523 56.6662 70.1555C56.5202 69.9587 56.4123 69.7492 56.3425 69.5271C56.2726 69.3049 56.2266 69.0954 56.2044 68.8987C56.1854 68.6987 56.1758 68.5369 56.1758 68.4131V65.5424H57.3375V68.0179C57.3375 68.1766 57.3486 68.3559 57.3708 68.5559C57.393 68.7527 57.4438 68.9431 57.5231 69.1272C57.6056 69.3081 57.7262 69.4573 57.8849 69.5747C58.0468 69.6921 58.2642 69.7508 58.5372 69.7508C58.6832 69.7508 58.8276 69.727 58.9704 69.6794C59.1132 69.6318 59.2417 69.5509 59.356 69.4366C59.4734 69.3192 59.5671 69.1589 59.6369 68.9558C59.7067 68.7527 59.7416 68.4956 59.7416 68.1846L60.4224 68.475C60.4224 68.913 60.3367 69.3097 60.1653 69.6651C59.9971 70.0206 59.748 70.3047 59.4179 70.5173C59.0878 70.7268 58.6816 70.8315 58.1991 70.8315ZM59.8797 70.6839V69.0891H59.7416V65.5424H60.8937V70.6839H59.8797ZM62.3265 64.7616V63.7095H63.4738V64.7616H62.3265ZM62.3265 70.6839V65.5424H63.4738V70.6839H62.3265ZM64.9951 70.6839V63.6857H66.1424V70.6839H64.9951ZM69.6298 70.8268C69.157 70.8268 68.7444 70.7077 68.3921 70.4697C68.0398 70.2317 67.7668 69.9079 67.5732 69.4985C67.3796 69.0891 67.2828 68.6273 67.2828 68.1132C67.2828 67.5926 67.3796 67.1293 67.5732 66.723C67.77 66.3136 68.0477 65.9915 68.4063 65.7566C68.765 65.5186 69.1871 65.3995 69.6727 65.3995C70.1615 65.3995 70.5709 65.5186 70.901 65.7566C71.2342 65.9915 71.4865 66.3136 71.6579 66.723C71.8293 67.1324 71.915 67.5958 71.915 68.1132C71.915 68.6241 71.8293 69.0859 71.6579 69.4985C71.4865 69.9079 71.231 70.2317 70.8914 70.4697C70.5518 70.7077 70.1313 70.8268 69.6298 70.8268ZM69.806 69.7984C70.1139 69.7984 70.3614 69.7286 70.5487 69.589C70.7391 69.4462 70.8772 69.2478 70.9628 68.9939C71.0517 68.74 71.0961 68.4464 71.0961 68.1132C71.0961 67.7767 71.0517 67.4831 70.9628 67.2324C70.8772 66.9785 70.7423 66.7817 70.5582 66.6421C70.3741 66.4993 70.1361 66.4279 69.8441 66.4279C69.5362 66.4279 69.2823 66.504 69.0824 66.6564C68.8824 66.8055 68.7348 67.0087 68.6396 67.2657C68.5444 67.5196 68.4968 67.8021 68.4968 68.1132C68.4968 68.4274 68.5428 68.713 68.6349 68.9701C68.7301 69.224 68.8745 69.4255 69.0681 69.5747C69.2617 69.7239 69.5077 69.7984 69.806 69.7984ZM71.0961 70.6839V67.0753H70.9533V63.8285H72.1102V70.6839H71.0961ZM75.7825 70.8268C75.262 70.8268 74.8049 70.7141 74.4114 70.4887C74.0178 70.2634 73.71 69.9508 73.4878 69.5509C73.2688 69.151 73.1593 68.6908 73.1593 68.1703C73.1593 67.6085 73.2672 67.1213 73.4831 66.7087C73.6989 66.293 73.9988 65.9708 74.3828 65.7423C74.7669 65.5138 75.2112 65.3995 75.7158 65.3995C76.249 65.3995 76.7013 65.5249 77.0726 65.7756C77.4471 66.0232 77.7249 66.3739 77.9058 66.8278C78.0867 67.2816 78.1549 67.8164 78.1105 68.4321H76.9727V68.0132C76.9695 67.4546 76.8711 67.0467 76.6775 66.7897C76.4839 66.5326 76.1792 66.4041 75.7634 66.4041C75.2937 66.4041 74.9446 66.55 74.7161 66.842C74.4876 67.1309 74.3733 67.5546 74.3733 68.1132C74.3733 68.6337 74.4876 69.0367 74.7161 69.3224C74.9446 69.608 75.2778 69.7508 75.7158 69.7508C75.9983 69.7508 76.2411 69.6889 76.4442 69.5652C76.6505 69.4382 76.8092 69.2557 76.9203 69.0177L78.0533 69.3605C77.8566 69.8238 77.5519 70.1841 77.1393 70.4411C76.7299 70.6982 76.2776 70.8268 75.7825 70.8268ZM74.0115 68.4321V67.5657H77.5487V68.4321H74.0115ZM79.1727 70.6839V65.5424H80.1867V66.7944L80.063 66.6326C80.1264 66.4612 80.2105 66.3057 80.3153 66.166C80.4232 66.0232 80.5517 65.9058 80.7009 65.8137C80.8278 65.728 80.9675 65.6614 81.1198 65.6138C81.2754 65.563 81.434 65.5328 81.5959 65.5233C81.7578 65.5106 81.9149 65.517 82.0672 65.5424V66.6135C81.9149 66.5691 81.7387 66.5548 81.5388 66.5707C81.342 66.5865 81.1643 66.6421 81.0056 66.7373C80.8469 66.823 80.7168 66.9325 80.6152 67.0658C80.5168 67.1991 80.4438 67.3514 80.3962 67.5228C80.3486 67.691 80.3248 67.8735 80.3248 68.0703V70.6839H79.1727Z" fill="url(#paint0_linear_1412_46697)"/>
<mask id="mask0_1412_46697" style="mask-type:alpha" maskUnits="userSpaceOnUse" x="6" y="33" width="17" height="17">
<path d="M6.72311 41.6981V41.6982C6.72311 46.1478 10.3003 49.755 14.713 49.755H14.713C19.1257 49.755 22.7029 46.1478 22.7029 41.6982V41.6981C22.7029 37.2485 19.1257 33.6413 14.713 33.6413H14.713C10.3003 33.6413 6.72311 37.2485 6.72311 41.6981Z" fill="url(#paint1_radial_1412_46697)"/>
</mask>
<g mask="url(#mask0_1412_46697)">
<path d="M6.7231 41.6982V41.6982C6.7231 46.1479 10.3003 49.7551 14.713 49.7551H14.713C19.1257 49.7551 22.7029 46.1479 22.7029 41.6982V41.6982C22.7029 37.2485 19.1257 33.6414 14.713 33.6414H14.713C10.3003 33.6414 6.7231 37.2485 6.7231 41.6982Z" fill="#051961"/>
<g filter="url(#filter0_f_1412_46697)">
<path d="M8.7785 48.3764C12.088 51.3878 16.9738 51.3673 19.6912 48.3306C22.4085 45.294 21.9285 40.391 18.619 37.3797C15.3095 34.3683 10.4238 34.3888 7.70639 37.4254C4.989 40.4621 5.469 45.365 8.7785 48.3764Z" fill="url(#paint2_linear_1412_46697)"/>
</g>
<g filter="url(#filter1_f_1412_46697)">
<path d="M29.8535 53.9876C32.2595 50.3343 31.273 45.4058 27.65 42.9795C24.027 40.5533 19.1394 41.5481 16.7334 45.2015C14.3273 48.8549 15.3138 53.7834 18.9368 56.2096C22.5599 58.6358 27.4474 57.641 29.8535 53.9876Z" fill="url(#paint3_linear_1412_46697)"/>
</g>
<g filter="url(#filter2_f_1412_46697)">
<path d="M9.23812 46.9559C13.0579 46.9559 16.1544 43.6915 16.1544 39.6646C16.1544 35.6377 13.0579 32.3733 9.23812 32.3733C5.41836 32.3733 2.32184 35.6377 2.32184 39.6646C2.32184 43.6915 5.41836 46.9559 9.23812 46.9559Z" fill="url(#paint4_linear_1412_46697)"/>
</g>
<g filter="url(#filter3_f_1412_46697)">
<path d="M14.2597 38.9865C17.6019 38.9232 20.2604 36.1398 20.1976 32.7695C20.1348 29.3992 17.3745 26.7184 14.0323 26.7818C10.69 26.8451 8.0315 29.6285 8.09429 32.9988C8.15708 36.3691 10.9174 39.0499 14.2597 38.9865Z" fill="url(#paint5_linear_1412_46697)"/>
</g>
<g filter="url(#filter4_f_1412_46697)">
<path d="M20.0484 52.1329C24.0682 52.0567 27.2655 48.7091 27.19 44.6557C27.1145 40.6023 23.7947 37.3781 19.775 37.4542C15.7552 37.5304 12.5579 40.8781 12.6334 44.9315C12.7089 48.9849 16.0287 52.2091 20.0484 52.1329Z" fill="url(#paint6_linear_1412_46697)"/>
</g>
<g filter="url(#filter5_f_1412_46697)">
<path d="M8.924 51.3623C13.2473 51.3623 16.752 47.8282 16.752 43.4687C16.752 39.1092 13.2473 35.5751 8.924 35.5751C4.60073 35.5751 1.09602 39.1092 1.09602 43.4687C1.09602 47.8282 4.60073 51.3623 8.924 51.3623Z" stroke="url(#paint7_linear_1412_46697)" stroke-width="0.0631256"/>
</g>
<g filter="url(#filter6_f_1412_46697)">
<path d="M8.60089 49.765C11.9431 49.7017 14.6017 46.9182 14.5389 43.548C14.4761 40.1777 11.7157 37.4969 8.37349 37.5602C5.03125 37.6235 2.37273 40.407 2.43552 43.7773C2.49832 47.1475 5.25864 49.8283 8.60089 49.765Z" fill="url(#paint8_linear_1412_46697)"/>
</g>
<g filter="url(#filter7_f_1412_46697)">
<path fill-rule="evenodd" clip-rule="evenodd" d="M21.0236 34.8229C21.1144 34.8918 21.2035 34.962 21.2909 35.0336C21.3835 35.0985 21.4752 35.1653 21.566 35.2342C21.6568 35.3031 21.7459 35.3733 21.8333 35.4449C21.9258 35.5098 22.0176 35.5766 22.1084 35.6455C26.0027 38.5983 26.7368 44.111 23.748 47.9585C20.7593 51.8059 15.1795 52.5312 11.2852 49.5784C11.1944 49.5095 11.1053 49.4393 11.018 49.3677C10.9254 49.3028 10.8336 49.236 10.7428 49.1671C10.652 49.0983 10.5629 49.028 10.4756 48.9564C10.383 48.8916 10.2912 48.8247 10.2004 48.7559C6.30616 45.803 5.57207 40.2903 8.5608 36.4428C11.5495 32.5954 17.1293 31.8701 21.0236 34.8229ZM21.1326 35.7921C24.262 38.5976 24.7395 43.3536 22.1208 46.7246C19.5022 50.0957 14.7287 50.8701 11.1762 48.6092C8.04681 45.8037 7.56936 41.0477 10.188 37.6767C12.8066 34.3056 17.5801 33.5312 21.1326 35.7921Z" fill="url(#paint9_linear_1412_46697)"/>
</g>
<g filter="url(#filter8_f_1412_46697)">
<path d="M8.60664 44.3402C9.50981 47.0704 11.6704 48.1243 13.054 48.2239C11.9669 45.1368 9.33905 41.0717 10.0891 39.5602C12.7575 34.1826 19.3349 44.609 20.5208 42.5177C21.0512 41.5825 15.3587 38.3418 16.5447 37.4455C17.7307 36.5492 20.1698 37.4689 19.2803 36.5726C18.3909 35.6764 14.833 33.8839 11.2751 35.6764C7.71719 37.4689 7.42073 40.7552 8.60664 44.3402Z" fill="url(#paint10_linear_1412_46697)"/>
</g>
<path fill-rule="evenodd" clip-rule="evenodd" d="M14.6002 38.8351V46.6921L13.5969 44.9686V42.4594H12.2114L11.5426 41.3189H13.5969V40.3304H10.9693L10.1571 38.8351H14.6002ZM19.4016 38.8351L18.5894 40.3304H15.9618V41.3189H17.9922L17.3472 42.4594H15.9618V44.9686L14.9585 46.6921V38.8351H19.4016Z" fill="white"/>
</g>
<path d="M28.7297 39.4263V40.4293H26.1681V42.0182H28.1311V43.0034H26.1681V45.622H24.9358V39.4263H28.7297ZM30.2285 40.1186C30.0114 40.1186 29.8294 40.0506 29.6827 39.9145C29.5419 39.7724 29.4715 39.5979 29.4715 39.3908C29.4715 39.1837 29.5419 39.0121 29.6827 38.8759C29.8294 38.7339 30.0114 38.6629 30.2285 38.6629C30.4456 38.6629 30.6246 38.7339 30.7655 38.8759C30.9122 39.0121 30.9855 39.1837 30.9855 39.3908C30.9855 39.5979 30.9122 39.7724 30.7655 39.9145C30.6246 40.0506 30.4456 40.1186 30.2285 40.1186ZM30.8359 40.7045V45.622H29.6035V40.7045H30.8359ZM31.7365 43.1455C31.7365 42.6484 31.8334 42.2075 32.027 41.8229C32.2266 41.4382 32.4936 41.1424 32.8281 40.9353C33.1684 40.7281 33.5469 40.6246 33.9636 40.6246C34.3274 40.6246 34.6443 40.6985 34.9143 40.8465C35.1901 40.9944 35.4101 41.1808 35.5745 41.4057V40.7045H36.8158V45.622H35.5745V44.903C35.416 45.1337 35.196 45.3261 34.9143 45.4799C34.6385 45.6279 34.3186 45.7018 33.9548 45.7018C33.544 45.7018 33.1684 45.5953 32.8281 45.3823C32.4936 45.1693 32.2266 44.8704 32.027 44.4858C31.8334 44.0952 31.7365 43.6484 31.7365 43.1455ZM35.5745 43.1632C35.5745 42.8614 35.5158 42.604 35.3984 42.391C35.281 42.172 35.1226 42.0063 34.9231 41.8939C34.7236 41.7755 34.5094 41.7164 34.2805 41.7164C34.0516 41.7164 33.8403 41.7726 33.6467 41.885C33.453 41.9974 33.2946 42.1632 33.1714 42.3821C33.054 42.5951 32.9953 42.8496 32.9953 43.1455C32.9953 43.4413 33.054 43.7017 33.1714 43.9266C33.2946 44.1455 33.453 44.3142 33.6467 44.4325C33.8462 44.5509 34.0575 44.61 34.2805 44.61C34.5094 44.61 34.7236 44.5538 34.9231 44.4414C35.1226 44.3231 35.281 44.1574 35.3984 43.9443C35.5158 43.7254 35.5745 43.465 35.5745 43.1632Z" fill="url(#paint11_linear_1412_46697)"/>
<g filter="url(#filter9_f_1412_46697)">
<g filter="url(#filter10_f_1412_46697)">
<mask id="mask1_1412_46697" style="mask-type:alpha" maskUnits="userSpaceOnUse" x="102" y="-30" width="120" height="120">
<path d="M220.921 25.5005L220.921 25.5002C218.54 -7.46523 190.053 -32.1864 157.292 -29.7159L157.292 -29.7159C124.532 -27.2455 99.9045 1.48094 102.286 34.4464L102.286 34.4466C104.667 67.4121 133.154 92.1332 165.915 89.6628L165.915 89.6628C198.675 87.1924 223.302 58.4659 220.921 25.5005Z" fill="url(#paint12_radial_1412_46697)"/>
</mask>
<g mask="url(#mask1_1412_46697)">
<path d="M220.921 25.4999L220.921 25.4997C218.54 -7.46578 190.052 -32.1869 157.292 -29.7165L157.292 -29.7165C124.532 -27.2461 99.9043 1.48039 102.285 34.4459L102.285 34.4461C104.666 67.4115 133.154 92.1327 165.914 89.6623L165.915 89.6623C198.675 87.1918 223.302 58.4654 220.921 25.4999Z" fill="#051961"/>
<g filter="url(#filter11_f_1412_46697)">
<path d="M202.054 -22.8955C175.909 -43.3664 139.686 -40.4593 121.146 -16.4023C102.607 7.65468 108.772 43.7516 134.916 64.2225C161.06 84.6934 197.284 81.7863 215.823 57.7293C234.363 33.6723 228.198 -2.42467 202.054 -22.8955Z" fill="url(#paint13_linear_1412_46697)"/>
</g>
<g filter="url(#filter12_f_1412_46697)">
<path d="M42.7129 -52.7451C26.8149 -24.2844 36.7469 11.7228 64.8968 27.6791C93.0466 43.6355 128.755 33.4987 144.653 5.038C160.551 -23.4227 150.619 -59.4299 122.469 -75.3862C94.3188 -91.3426 58.611 -81.2058 42.7129 -52.7451Z" fill="url(#paint14_linear_1412_46697)"/>
</g>
<g filter="url(#filter13_f_1412_46697)">
<path d="M199.431 -11.965C171.059 -9.81437 149.797 16.1048 151.94 45.9272C154.082 75.7496 178.819 98.182 207.191 96.0314C235.562 93.8808 256.825 67.9616 254.682 38.1392C252.539 8.31688 227.802 -14.1155 199.431 -11.965Z" fill="url(#paint15_linear_1412_46697)"/>
</g>
<g filter="url(#filter14_f_1412_46697)">
<path d="M166.501 49.8992C141.712 52.2499 123.449 74.3604 125.709 99.2845C127.969 124.209 149.895 142.508 174.684 140.157C199.472 137.807 217.735 115.696 215.476 90.772C213.216 65.8479 191.289 47.5486 166.501 49.8992Z" fill="url(#paint16_linear_1412_46697)"/>
</g>
<g filter="url(#filter15_f_1412_46697)">
<path d="M116.445 -44.3905C86.6317 -41.5634 64.6667 -14.9711 67.3844 15.005C70.102 44.9811 96.4733 66.9897 126.286 64.1625C156.099 61.3354 178.064 34.7431 175.346 4.76702C172.629 -25.2091 146.258 -47.2177 116.445 -44.3905Z" fill="url(#paint17_linear_1412_46697)"/>
</g>
<g filter="url(#filter16_f_1412_46697)">
<path d="M199.377 -44.808C167.267 -42.3741 143.118 -14.2297 145.438 18.0543C147.758 50.3382 175.668 74.5365 207.778 72.1025C239.887 69.6686 264.037 41.5242 261.717 9.24024C259.397 -23.0437 231.487 -47.242 199.377 -44.808Z" stroke="url(#paint18_linear_1412_46697)" stroke-width="0.469437"/>
</g>
<g filter="url(#filter17_f_1412_46697)">
<path d="M202.618 -33.1607C177.83 -30.8101 159.567 -8.69952 161.826 16.2245C164.086 41.1486 186.013 59.4479 210.801 57.0973C235.589 54.7466 253.852 32.6361 251.593 7.71205C249.333 -17.212 227.406 -35.5114 202.618 -33.1607Z" fill="url(#paint19_linear_1412_46697)"/>
</g>
<g filter="url(#filter18_f_1412_46697)">
<path fill-rule="evenodd" clip-rule="evenodd" d="M118.404 84.4159C117.692 83.9572 116.993 83.4871 116.307 83.0062C115.584 82.578 114.868 82.1345 114.156 81.6758C113.445 81.217 112.746 80.747 112.059 80.266C111.337 79.8378 110.62 79.3944 109.909 78.9356C79.4161 59.2621 71.0308 18.8534 91.1803 -11.3198C111.33 -41.493 152.384 -50.0048 182.877 -30.3315C183.588 -29.8728 184.287 -29.4025 184.974 -28.9217C185.696 -28.4936 186.413 -28.05 187.124 -27.5913C187.835 -27.1325 188.534 -26.6625 189.221 -26.1817C189.943 -25.7534 190.66 -25.31 191.371 -24.8513C221.865 -5.17771 230.25 35.231 210.1 65.4043C189.951 95.5775 148.897 104.089 118.404 84.4159ZM117.078 77.3006C92.3438 58.287 86.2673 23.3376 103.922 -3.09933C121.576 -29.5363 156.616 -37.9585 184.203 -23.216C208.937 -4.20254 215.013 30.7468 197.359 57.1837C179.704 83.6209 144.665 92.0431 117.078 77.3006Z" fill="url(#paint20_linear_1412_46697)"/>
</g>
<g filter="url(#filter19_f_1412_46697)">
<path d="M205.55 6.97515C197.389 -12.7365 180.78 -19.325 170.45 -19.2835C180.168 2.96694 201.85 31.5934 197.083 43.2101C180.124 84.5378 125.722 11.0247 118.026 27.18C114.584 34.405 158.59 55.2002 150.258 62.5055C141.926 69.8109 123.32 64.3735 130.404 70.5101C137.487 76.6469 164.868 87.9189 190.341 72.6406C215.814 57.3622 216.267 32.8576 205.55 6.97515Z" fill="url(#paint21_linear_1412_46697)"/>
</g>
</g>
</g>
</g>
<rect x="95.4339" y="29.887" width="87.967" height="53.0468" rx="2.45902" fill="#1F1F1F"/>
<rect x="95.3358" y="29.7889" width="88.1632" height="53.2429" rx="2.55711" stroke="url(#paint22_linear_1412_46697)" stroke-opacity="0.4" stroke-width="0.196171"/>
<rect x="98.0994" y="32.2862" width="82.9022" height="48.2486" rx="0.859379" fill="#1F1F1F"/>
<rect opacity="0.5" x="98.6324" y="37.0843" width="29.5889" height="42.1175" rx="0.7997" fill="#404040"/>
<rect opacity="0.5" x="99.98" y="38.6447" width="3.17122" height="3.17122" rx="1.58561" fill="#1F1F1F"/>
<rect opacity="0.5" x="99.98" y="44.5643" width="13.5305" height="1.69132" rx="0.845659" fill="#1F1F1F"/>
<rect opacity="0.5" x="99.98" y="47.1013" width="23.6785" height="0.845659" rx="0.42283" fill="#1F1F1F"/>
<rect opacity="0.5" x="99.98" y="52.598" width="23.6785" height="0.845659" rx="0.42283" fill="#1F1F1F"/>
<rect opacity="0.5" x="99.98" y="57.672" width="23.6785" height="0.845659" rx="0.42283" fill="#1F1F1F"/>
<rect opacity="0.5" x="100.191" y="48.7927" width="11.8392" height="0.845659" rx="0.42283" fill="#1F1F1F"/>
<rect opacity="0.5" x="100.191" y="54.2895" width="11.8392" height="0.845659" rx="0.42283" fill="#1F1F1F"/>
<rect opacity="0.5" x="100.191" y="59.3634" width="11.8392" height="0.845659" rx="0.42283" fill="#1F1F1F"/>
<rect opacity="0.5" x="134.018" y="64.226" width="23.6785" height="0.845659" rx="0.42283" fill="#1F1F1F"/>
<rect opacity="0.5" x="134.229" y="65.9172" width="11.8392" height="0.845659" rx="0.42283" fill="#1F1F1F"/>
<mask id="mask2_1412_46697" style="mask-type:alpha" maskUnits="userSpaceOnUse" x="99" y="38" width="5" height="4">
<path d="M99.8913 40.154V40.154C99.8913 41.0549 100.622 41.7853 101.523 41.7853H101.523C102.423 41.7853 103.154 41.0549 103.154 40.154V40.154C103.154 39.2531 102.423 38.5228 101.523 38.5228H101.523C100.622 38.5228 99.8913 39.2531 99.8913 40.154Z" fill="url(#paint23_radial_1412_46697)"/>
</mask>
<g mask="url(#mask2_1412_46697)">
<path d="M99.8915 40.154V40.154C99.8915 41.0549 100.622 41.7853 101.523 41.7853H101.523C102.424 41.7853 103.154 41.0549 103.154 40.154V40.154C103.154 39.2531 102.424 38.5228 101.523 38.5228H101.523C100.622 38.5228 99.8915 39.2531 99.8915 40.154Z" fill="#051961"/>
<g filter="url(#filter20_f_1412_46697)">
<path d="M100.311 41.5061C100.987 42.1158 101.984 42.1117 102.539 41.4968C103.094 40.882 102.996 39.8894 102.32 39.2797C101.644 38.67 100.647 38.6741 100.092 39.2889C99.5372 39.9037 99.6352 40.8964 100.311 41.5061Z" fill="url(#paint24_linear_1412_46697)"/>
</g>
<g filter="url(#filter21_f_1412_46697)">
<path d="M104.614 42.6422C105.105 41.9025 104.904 40.9046 104.164 40.4134C103.424 39.9222 102.427 40.1236 101.935 40.8633C101.444 41.603 101.646 42.6008 102.385 43.092C103.125 43.5833 104.123 43.3818 104.614 42.6422Z" fill="url(#paint25_linear_1412_46697)"/>
</g>
<g filter="url(#filter22_f_1412_46697)">
<path d="M100.405 41.2185C101.185 41.2185 101.817 40.5575 101.817 39.7422C101.817 38.9269 101.185 38.266 100.405 38.266C99.6249 38.266 98.9927 38.9269 98.9927 39.7422C98.9927 40.5575 99.6249 41.2185 100.405 41.2185Z" fill="url(#paint26_linear_1412_46697)"/>
</g>
<g filter="url(#filter23_f_1412_46697)">
<path d="M101.43 39.6049C102.112 39.592 102.655 39.0285 102.642 38.3461C102.63 37.6638 102.066 37.121 101.384 37.1338C100.701 37.1467 100.159 37.7102 100.171 38.3926C100.184 39.0749 100.748 39.6177 101.43 39.6049Z" fill="url(#paint27_linear_1412_46697)"/>
</g>
<g filter="url(#filter24_f_1412_46697)">
<path d="M102.612 42.2666C103.432 42.2511 104.085 41.5734 104.07 40.7527C104.054 39.932 103.377 39.2792 102.556 39.2947C101.735 39.3101 101.082 39.9879 101.098 40.8085C101.113 41.6292 101.791 42.282 102.612 42.2666Z" fill="url(#paint28_linear_1412_46697)"/>
</g>
<g filter="url(#filter25_f_1412_46697)">
<path d="M100.341 42.1106C101.223 42.1106 101.939 41.3951 101.939 40.5125C101.939 39.6298 101.223 38.9143 100.341 38.9143C99.458 38.9143 98.7425 39.6298 98.7425 40.5125C98.7425 41.3951 99.458 42.1106 100.341 42.1106Z" stroke="url(#paint29_linear_1412_46697)" stroke-width="0.0128367"/>
</g>
<g filter="url(#filter26_f_1412_46697)">
<path d="M100.275 41.7871C100.957 41.7743 101.5 41.2107 101.487 40.5284C101.474 39.846 100.911 39.3032 100.228 39.3161C99.5459 39.3289 99.0031 39.8924 99.016 40.5748C99.0288 41.2571 99.5923 41.7999 100.275 41.7871Z" fill="url(#paint30_linear_1412_46697)"/>
</g>
<g filter="url(#filter27_f_1412_46697)">
<path fill-rule="evenodd" clip-rule="evenodd" d="M102.811 38.7621C102.83 38.776 102.848 38.7902 102.866 38.8047C102.885 38.8178 102.903 38.8314 102.922 38.8453C102.94 38.8593 102.959 38.8735 102.976 38.888C102.995 38.9011 103.014 38.9146 103.033 38.9286C103.828 39.5264 103.977 40.6426 103.367 41.4215C102.757 42.2005 101.618 42.3473 100.823 41.7495C100.804 41.7356 100.786 41.7213 100.768 41.7068C100.749 41.6937 100.731 41.6802 100.712 41.6662C100.694 41.6523 100.675 41.6381 100.658 41.6236C100.639 41.6104 100.62 41.5969 100.601 41.583C99.8063 40.9851 99.6565 39.869 100.267 39.09C100.877 38.3111 102.016 38.1642 102.811 38.7621ZM102.833 38.9583C103.472 39.5263 103.57 40.4892 103.035 41.1717C102.5 41.8542 101.526 42.011 100.801 41.5533C100.162 40.9853 100.064 40.0224 100.599 39.3398C101.133 38.6573 102.108 38.5005 102.833 38.9583Z" fill="url(#paint31_linear_1412_46697)"/>
</g>
<g filter="url(#filter28_f_1412_46697)">
<path d="M100.276 40.689C100.46 41.2417 100.901 41.4551 101.184 41.4753C100.962 40.8503 100.425 40.0272 100.579 39.7212C101.123 38.6324 102.466 40.7434 102.708 40.32C102.817 40.1306 101.654 39.4745 101.897 39.293C102.139 39.1116 102.637 39.2978 102.455 39.1163C102.274 38.9348 101.547 38.5719 100.821 38.9348C100.094 39.2978 100.034 39.9631 100.276 40.689Z" fill="url(#paint32_linear_1412_46697)"/>
</g>
<path fill-rule="evenodd" clip-rule="evenodd" d="M101.5 39.5744V41.1652L101.295 40.8162V40.3082H101.012L100.875 40.0773H101.295V39.8772H100.758L100.593 39.5744H101.5ZM102.48 39.5744L102.314 39.8772H101.778V40.0773H102.192L102.06 40.3082H101.778V40.8162L101.573 41.1652V39.5744H102.48Z" fill="white"/>
</g>
<rect opacity="0.5" x="129.554" y="37.0843" width="50.3811" height="42.1175" rx="0.7997" fill="#404040"/>
<rect opacity="0.5" x="130.62" y="38.1505" width="47.982" height="11.9955" fill="#1F1F1F"/>
<rect opacity="0.5" x="130.62" y="50.9458" width="49.3148" height="7.46387" fill="#1F1F1F"/>
<rect x="133.019" y="52.5452" width="17.86" height="4.26507" rx="1.06627" fill="#404040"/>
<rect x="152.479" y="52.5452" width="17.86" height="4.26507" rx="1.06627" fill="#404040"/>
<mask id="path-58-inside-1_1412_46697" fill="white">
<path d="M98.8052 32.5885C98.8052 32.3718 98.9808 32.1962 99.1975 32.1962H179.235C179.452 32.1962 179.627 32.3718 179.627 32.5885V35.3349C179.627 35.5516 179.452 35.7273 179.235 35.7273H99.1975C98.9808 35.7273 98.8052 35.5516 98.8052 35.3349V32.5885Z"/>
</mask>
<path d="M98.8052 32.5885C98.8052 32.3718 98.9808 32.1962 99.1975 32.1962H179.235C179.452 32.1962 179.627 32.3718 179.627 32.5885V35.3349C179.627 35.5516 179.452 35.7273 179.235 35.7273H99.1975C98.9808 35.7273 98.8052 35.5516 98.8052 35.3349V32.5885Z" fill="#282828"/>
<path d="M98.8052 32.1962H179.627H98.8052ZM179.627 35.3349C179.627 35.6599 179.364 35.9234 179.039 35.9234H99.3937C99.0687 35.9234 98.8052 35.6599 98.8052 35.3349C98.8052 35.4433 98.9808 35.5311 99.1975 35.5311H179.235C179.452 35.5311 179.627 35.4433 179.627 35.3349ZM98.8052 35.7273V32.1962V35.7273ZM179.627 32.1962V35.7273V32.1962Z" fill="#292929" mask="url(#path-58-inside-1_1412_46697)"/>
<g filter="url(#filter29_ddd_1412_46697)">
<rect x="124.293" y="48.5813" width="66.8071" height="9.51366" rx="1.06627" fill="url(#paint33_linear_1412_46697)"/>
<rect x="124.32" y="48.608" width="66.7537" height="9.46035" rx="1.03961" stroke="url(#paint34_linear_1412_46697)" stroke-width="0.0533133"/>
</g>
<rect opacity="0.5" x="126.567" y="50.805" width="55.8455" height="0.767635" rx="0.383818" fill="#1F1F1F"/>
<rect opacity="0.5" x="126.567" y="51.9565" width="55.8455" height="0.767635" rx="0.383818" fill="#1F1F1F"/>
<rect opacity="0.5" x="126.567" y="53.2999" width="19.1909" height="0.767635" rx="0.383818" fill="#1F1F1F"/>
<path fill-rule="evenodd" clip-rule="evenodd" d="M135.31 38.331C134.721 38.331 134.243 38.8084 134.243 39.3973V44.4806L134.243 44.4806V45.9712C134.243 46.1791 134.575 46.2648 134.73 46.1264C134.848 46.0211 134.995 45.9156 135.179 45.8174C135.406 45.6962 135.647 45.6128 135.881 45.5501H167.668C168.257 45.5501 168.735 45.0728 168.735 44.4839V39.3973C168.735 38.8084 168.257 38.331 167.668 38.331H135.31Z" fill="#454545"/>
<rect opacity="0.5" x="137.257" y="39.9804" width="28.7987" height="0.837171" rx="0.418585" fill="#1F1F1F"/>
<rect opacity="0.5" x="137.257" y="41.1524" width="28.7987" height="0.837171" rx="0.418585" fill="#1F1F1F"/>
<rect opacity="0.5" x="137.257" y="42.4918" width="9.87862" height="0.837171" rx="0.418585" fill="#1F1F1F"/>
<rect x="130.98" y="61.7439" width="47.5934" height="1.91909" fill="#454545"/>
<rect x="146.909" y="65.0063" width="4.98963" height="0.575727" rx="0.287863" fill="#454545"/>
<rect opacity="0.5" x="148.828" y="66.3497" width="3.07054" height="0.575727" rx="0.287863" fill="#1F1F1F"/>
<rect x="155.353" y="65.0063" width="4.98963" height="0.575727" rx="0.287863" fill="#454545"/>
<rect opacity="0.5" x="157.272" y="66.3497" width="3.07054" height="0.575727" rx="0.287863" fill="#1F1F1F"/>
<rect x="163.797" y="65.0063" width="4.98963" height="0.575727" rx="0.287863" fill="#454545"/>
<rect opacity="0.5" x="165.716" y="66.3497" width="3.07054" height="0.575727" rx="0.287863" fill="#1F1F1F"/>
<rect x="172.625" y="65.0063" width="4.98963" height="0.575727" rx="0.287863" fill="#454545"/>
<rect opacity="0.5" x="174.544" y="66.3497" width="3.07054" height="0.575727" rx="0.287863" fill="#1F1F1F"/>
<circle cx="132.228" cy="65.8699" r="1.24741" fill="#4F4E4E"/>
<rect x="134.243" y="64.8144" width="8.06017" height="0.575727" rx="0.287863" fill="#585656"/>
<rect opacity="0.5" x="134.243" y="65.9659" width="4.22199" height="0.575727" rx="0.287863" fill="#1F1F1F"/>
<rect x="146.909" y="69.6121" width="4.98963" height="0.575727" rx="0.287863" fill="#454545"/>
<rect opacity="0.5" x="148.828" y="70.9555" width="3.07054" height="0.575727" rx="0.287863" fill="#1F1F1F"/>
<rect x="155.353" y="69.6121" width="4.98963" height="0.575727" rx="0.287863" fill="#454545"/>
<rect opacity="0.5" x="157.272" y="70.9555" width="3.07054" height="0.575727" rx="0.287863" fill="#1F1F1F"/>
<rect x="163.797" y="69.6121" width="4.98963" height="0.575727" rx="0.287863" fill="#454545"/>
<rect opacity="0.5" x="165.716" y="70.9555" width="3.07054" height="0.575727" rx="0.287863" fill="#1F1F1F"/>
<rect x="172.625" y="69.6121" width="4.98963" height="0.575727" rx="0.287863" fill="#454545"/>
<rect opacity="0.5" x="174.544" y="70.9555" width="3.07054" height="0.575727" rx="0.287863" fill="#1F1F1F"/>
<circle cx="132.228" cy="70.4757" r="1.24741" fill="#4F4E4E"/>
<rect x="134.243" y="69.4202" width="8.06017" height="0.575727" rx="0.287863" fill="#585656"/>
<rect opacity="0.5" x="134.243" y="70.5717" width="4.22199" height="0.575727" rx="0.287863" fill="#1F1F1F"/>
<rect x="146.909" y="74.2178" width="4.98963" height="0.575727" rx="0.287863" fill="#454545"/>
<rect opacity="0.5" x="148.828" y="75.5612" width="3.07054" height="0.575727" rx="0.287863" fill="#1F1F1F"/>
<rect x="155.353" y="74.2178" width="4.98963" height="0.575727" rx="0.287863" fill="#454545"/>
<rect opacity="0.5" x="157.272" y="75.5612" width="3.07054" height="0.575727" rx="0.287863" fill="#1F1F1F"/>
<rect x="163.797" y="74.2178" width="4.98963" height="0.575727" rx="0.287863" fill="#454545"/>
<rect opacity="0.5" x="165.716" y="75.5612" width="3.07054" height="0.575727" rx="0.287863" fill="#1F1F1F"/>
<rect x="172.625" y="74.2178" width="4.98963" height="0.575727" rx="0.287863" fill="#454545"/>
<rect opacity="0.5" x="174.544" y="75.5612" width="3.07054" height="0.575727" rx="0.287863" fill="#1F1F1F"/>
<g filter="url(#filter30_ddd_1412_46697)">
<rect x="129.637" y="72.8746" width="50.2801" height="4.4139" rx="0.383818" fill="#404040" fill-opacity="0.12" shape-rendering="crispEdges"/>
<rect x="129.664" y="72.9012" width="50.2268" height="4.36059" rx="0.357161" stroke="url(#paint35_linear_1412_46697)" stroke-width="0.0533133" shape-rendering="crispEdges"/>
</g>
<circle cx="132.228" cy="75.0815" r="1.24741" fill="#4F4E4E"/>
<rect x="134.243" y="74.026" width="8.06017" height="0.575727" rx="0.287863" fill="#585656"/>
<rect opacity="0.5" x="134.243" y="75.1775" width="4.22199" height="0.575727" rx="0.287863" fill="#1F1F1F"/>
<g filter="url(#filter31_d_1412_46697)">
<rect x="121.769" y="33.3413" width="8.84822" height="8.84822" rx="4.42411" fill="url(#paint36_linear_1412_46697)"/>
</g>
<path d="M123.878 39.0015V39.8587H124.728L127.236 37.3304L126.386 36.4732L123.878 39.0015ZM127.893 36.6675C127.914 36.6463 127.931 36.6212 127.942 36.5936C127.954 36.5659 127.959 36.5363 127.959 36.5063C127.959 36.4764 127.954 36.4467 127.942 36.4191C127.931 36.3914 127.914 36.3663 127.893 36.3452L127.363 35.8102C127.342 35.789 127.317 35.7722 127.289 35.7608C127.262 35.7493 127.232 35.7434 127.203 35.7434C127.173 35.7434 127.144 35.7493 127.116 35.7608C127.089 35.7722 127.064 35.789 127.043 35.8102L126.628 36.2286L127.478 37.0858L127.893 36.6675Z" fill="white"/>
<path fill-rule="evenodd" clip-rule="evenodd" d="M177.647 27.2003C178.236 27.2003 178.713 27.6776 178.713 28.2665V33.3531C178.713 33.3593 178.713 33.3654 178.713 33.3715V34.8405C178.713 35.0483 178.381 35.1341 178.226 34.9957C178.109 34.8904 177.961 34.7848 177.777 34.6867C177.55 34.5655 177.309 34.482 177.075 34.4194H145.288C144.699 34.4194 144.222 33.942 144.222 33.3531V28.2665C144.222 27.6776 144.699 27.2003 145.288 27.2003H177.647Z" fill="#4F4F4F"/>
<rect opacity="0.5" width="28.7987" height="0.837171" rx="0.418585" transform="matrix(-1 0 0 1 175.7 28.8496)" fill="#1F1F1F"/>
<rect opacity="0.5" width="28.7987" height="0.837171" rx="0.418585" transform="matrix(-1 0 0 1 175.7 30.0217)" fill="#1F1F1F"/>
<rect opacity="0.5" width="9.87862" height="0.837171" rx="0.418585" transform="matrix(-1 0 0 1 175.7 31.3611)" fill="#1F1F1F"/>
<circle cx="179.726" cy="62.8953" r="2.49482" fill="#111111"/>
<g filter="url(#filter32_d_1412_46697)">
<path fill-rule="evenodd" clip-rule="evenodd" d="M179.654 63.6902C179.335 63.5808 178.83 63.1926 178.83 62.619C178.83 62.3268 179.065 62.0897 179.355 62.0897C179.496 62.0897 179.628 62.1448 179.725 62.2433C179.823 62.1448 179.955 62.0897 180.095 62.0897C180.385 62.0897 180.621 62.3276 180.621 62.619C180.621 63.1934 180.115 63.5808 179.797 63.6902C179.776 63.6977 179.751 63.701 179.725 63.701C179.7 63.701 179.675 63.6977 179.654 63.6902ZM178.955 62.619C178.955 63.1892 179.502 63.5065 179.695 63.5725C179.71 63.5775 179.742 63.5775 179.757 63.5725C179.949 63.5065 180.497 63.1901 180.497 62.619C180.497 62.3961 180.317 62.2149 180.096 62.2149C179.97 62.2149 179.852 62.2742 179.776 62.3769C179.753 62.4086 179.7 62.4086 179.676 62.3769C179.599 62.2733 179.482 62.2149 179.355 62.2149C179.135 62.2149 178.955 62.3961 178.955 62.619Z" fill="url(#paint37_linear_1412_46697)"/>
</g>
</g>
<defs>
<filter id="filter0_f_1412_46697" x="3.41997" y="32.6094" width="20.5576" height="20.5372" filterUnits="userSpaceOnUse" color-interpolation-filters="sRGB">
<feFlood flood-opacity="0" result="BackgroundImageFix"/>
<feBlend mode="normal" in="SourceGraphic" in2="BackgroundImageFix" result="shape"/>
<feGaussianBlur stdDeviation="1.26251" result="effect1_foregroundBlur_1412_46697"/>
</filter>
<filter id="filter1_f_1412_46697" x="14.092" y="40.3272" width="18.4028" height="18.5348" filterUnits="userSpaceOnUse" color-interpolation-filters="sRGB">
<feFlood flood-opacity="0" result="BackgroundImageFix"/>
<feBlend mode="normal" in="SourceGraphic" in2="BackgroundImageFix" result="shape"/>
<feGaussianBlur stdDeviation="0.662818" result="effect1_foregroundBlur_1412_46697"/>
</filter>
<filter id="filter2_f_1412_46697" x="-0.203187" y="29.8483" width="18.8826" height="19.6326" filterUnits="userSpaceOnUse" color-interpolation-filters="sRGB">
<feFlood flood-opacity="0" result="BackgroundImageFix"/>
<feBlend mode="normal" in="SourceGraphic" in2="BackgroundImageFix" result="shape"/>
<feGaussianBlur stdDeviation="1.26251" result="effect1_foregroundBlur_1412_46697"/>
</filter>
<filter id="filter3_f_1412_46697" x="6.76756" y="25.455" width="14.7568" height="14.8583" filterUnits="userSpaceOnUse" color-interpolation-filters="sRGB">
<feFlood flood-opacity="0" result="BackgroundImageFix"/>
<feBlend mode="normal" in="SourceGraphic" in2="BackgroundImageFix" result="shape"/>
<feGaussianBlur stdDeviation="0.662818" result="effect1_foregroundBlur_1412_46697"/>
</filter>
<filter id="filter4_f_1412_46697" x="11.3064" y="36.1273" width="17.2105" height="17.3326" filterUnits="userSpaceOnUse" color-interpolation-filters="sRGB">
<feFlood flood-opacity="0" result="BackgroundImageFix"/>
<feBlend mode="normal" in="SourceGraphic" in2="BackgroundImageFix" result="shape"/>
<feGaussianBlur stdDeviation="0.662818" result="effect1_foregroundBlur_1412_46697"/>
</filter>
<filter id="filter5_f_1412_46697" x="0.433197" y="34.9123" width="16.9816" height="17.1128" filterUnits="userSpaceOnUse" color-interpolation-filters="sRGB">
<feFlood flood-opacity="0" result="BackgroundImageFix"/>
<feBlend mode="normal" in="SourceGraphic" in2="BackgroundImageFix" result="shape"/>
<feGaussianBlur stdDeviation="0.315628" result="effect1_foregroundBlur_1412_46697"/>
</filter>
<filter id="filter6_f_1412_46697" x="1.1088" y="36.2335" width="14.7568" height="14.8583" filterUnits="userSpaceOnUse" color-interpolation-filters="sRGB">
<feFlood flood-opacity="0" result="BackgroundImageFix"/>
<feBlend mode="normal" in="SourceGraphic" in2="BackgroundImageFix" result="shape"/>
<feGaussianBlur stdDeviation="0.662818" result="effect1_foregroundBlur_1412_46697"/>
</filter>
<filter id="filter7_f_1412_46697" x="5.20808" y="31.4923" width="21.8927" height="21.4167" filterUnits="userSpaceOnUse" color-interpolation-filters="sRGB">
<feFlood flood-opacity="0" result="BackgroundImageFix"/>
<feBlend mode="normal" in="SourceGraphic" in2="BackgroundImageFix" result="shape"/>
<feGaussianBlur stdDeviation="0.757507" result="effect1_foregroundBlur_1412_46697"/>
</filter>
<filter id="filter8_f_1412_46697" x="5.45572" y="32.3844" width="17.6251" height="18.3645" filterUnits="userSpaceOnUse" color-interpolation-filters="sRGB">
<feFlood flood-opacity="0" result="BackgroundImageFix"/>
<feBlend mode="normal" in="SourceGraphic" in2="BackgroundImageFix" result="shape"/>
<feGaussianBlur stdDeviation="1.26251" result="effect1_foregroundBlur_1412_46697"/>
</filter>
<filter id="filter9_f_1412_46697" x="101.359" y="-30.6537" width="120.489" height="121.254" filterUnits="userSpaceOnUse" color-interpolation-filters="sRGB">
<feFlood flood-opacity="0" result="BackgroundImageFix"/>
<feBlend mode="normal" in="SourceGraphic" in2="BackgroundImageFix" result="shape"/>
<feGaussianBlur stdDeviation="0.383818" result="effect1_foregroundBlur_1412_46697"/>
</filter>
<filter id="filter10_f_1412_46697" x="82.9356" y="-49.077" width="157.336" height="158.101" filterUnits="userSpaceOnUse" color-interpolation-filters="sRGB">
<feFlood flood-opacity="0" result="BackgroundImageFix"/>
<feBlend mode="normal" in="SourceGraphic" in2="BackgroundImageFix" result="shape"/>
<feGaussianBlur stdDeviation="9.59544" result="effect1_foregroundBlur_1412_46697"/>
</filter>
<filter id="filter11_f_1412_46697" x="91.6697" y="-55.3101" width="153.63" height="151.947" filterUnits="userSpaceOnUse" color-interpolation-filters="sRGB">
<feFlood flood-opacity="0" result="BackgroundImageFix"/>
<feBlend mode="normal" in="SourceGraphic" in2="BackgroundImageFix" result="shape"/>
<feGaussianBlur stdDeviation="9.38873" result="effect1_foregroundBlur_1412_46697"/>
</filter>
<filter id="filter12_f_1412_46697" x="25.2775" y="-92.8013" width="136.81" height="137.896" filterUnits="userSpaceOnUse" color-interpolation-filters="sRGB">
<feFlood flood-opacity="0" result="BackgroundImageFix"/>
<feBlend mode="normal" in="SourceGraphic" in2="BackgroundImageFix" result="shape"/>
<feGaussianBlur stdDeviation="4.92908" result="effect1_foregroundBlur_1412_46697"/>
</filter>
<filter id="filter13_f_1412_46697" x="133.013" y="-30.885" width="140.595" height="145.836" filterUnits="userSpaceOnUse" color-interpolation-filters="sRGB">
<feFlood flood-opacity="0" result="BackgroundImageFix"/>
<feBlend mode="normal" in="SourceGraphic" in2="BackgroundImageFix" result="shape"/>
<feGaussianBlur stdDeviation="9.38873" result="effect1_foregroundBlur_1412_46697"/>
</filter>
<filter id="filter14_f_1412_46697" x="115.662" y="39.8377" width="109.861" height="110.381" filterUnits="userSpaceOnUse" color-interpolation-filters="sRGB">
<feFlood flood-opacity="0" result="BackgroundImageFix"/>
<feBlend mode="normal" in="SourceGraphic" in2="BackgroundImageFix" result="shape"/>
<feGaussianBlur stdDeviation="4.92908" result="effect1_foregroundBlur_1412_46697"/>
</filter>
<filter id="filter15_f_1412_46697" x="57.2989" y="-54.4933" width="128.133" height="128.759" filterUnits="userSpaceOnUse" color-interpolation-filters="sRGB">
<feFlood flood-opacity="0" result="BackgroundImageFix"/>
<feBlend mode="normal" in="SourceGraphic" in2="BackgroundImageFix" result="shape"/>
<feGaussianBlur stdDeviation="4.92908" result="effect1_foregroundBlur_1412_46697"/>
</filter>
<filter id="filter16_f_1412_46697" x="140.355" y="-49.9058" width="126.445" height="127.106" filterUnits="userSpaceOnUse" color-interpolation-filters="sRGB">
<feFlood flood-opacity="0" result="BackgroundImageFix"/>
<feBlend mode="normal" in="SourceGraphic" in2="BackgroundImageFix" result="shape"/>
<feGaussianBlur stdDeviation="2.34718" result="effect1_foregroundBlur_1412_46697"/>
</filter>
<filter id="filter17_f_1412_46697" x="151.779" y="-43.2222" width="109.861" height="110.381" filterUnits="userSpaceOnUse" color-interpolation-filters="sRGB">
<feFlood flood-opacity="0" result="BackgroundImageFix"/>
<feBlend mode="normal" in="SourceGraphic" in2="BackgroundImageFix" result="shape"/>
<feGaussianBlur stdDeviation="4.92908" result="effect1_foregroundBlur_1412_46697"/>
</filter>
<filter id="filter18_f_1412_46697" x="68.9414" y="-52.1926" width="163.398" height="158.47" filterUnits="userSpaceOnUse" color-interpolation-filters="sRGB">
<feFlood flood-opacity="0" result="BackgroundImageFix"/>
<feBlend mode="normal" in="SourceGraphic" in2="BackgroundImageFix" result="shape"/>
<feGaussianBlur stdDeviation="5.63324" result="effect1_foregroundBlur_1412_46697"/>
</filter>
<filter id="filter19_f_1412_46697" x="99.0562" y="-38.0612" width="131.892" height="137.139" filterUnits="userSpaceOnUse" color-interpolation-filters="sRGB">
<feFlood flood-opacity="0" result="BackgroundImageFix"/>
<feBlend mode="normal" in="SourceGraphic" in2="BackgroundImageFix" result="shape"/>
<feGaussianBlur stdDeviation="9.38873" result="effect1_foregroundBlur_1412_46697"/>
</filter>
<filter id="filter20_f_1412_46697" x="99.2189" y="38.3116" width="4.19298" height="4.16254" filterUnits="userSpaceOnUse" color-interpolation-filters="sRGB">
<feFlood flood-opacity="0" result="BackgroundImageFix"/>
<feBlend mode="normal" in="SourceGraphic" in2="BackgroundImageFix" result="shape"/>
<feGaussianBlur stdDeviation="0.256735" result="effect1_foregroundBlur_1412_46697"/>
</filter>
<filter id="filter21_f_1412_46697" x="101.397" y="39.8752" width="3.75498" height="3.75499" filterUnits="userSpaceOnUse" color-interpolation-filters="sRGB">
<feFlood flood-opacity="0" result="BackgroundImageFix"/>
<feBlend mode="normal" in="SourceGraphic" in2="BackgroundImageFix" result="shape"/>
<feGaussianBlur stdDeviation="0.134786" result="effect1_foregroundBlur_1412_46697"/>
</filter>
<filter id="filter22_f_1412_46697" x="98.4792" y="37.7525" width="3.851" height="3.97938" filterUnits="userSpaceOnUse" color-interpolation-filters="sRGB">
<feFlood flood-opacity="0" result="BackgroundImageFix"/>
<feBlend mode="normal" in="SourceGraphic" in2="BackgroundImageFix" result="shape"/>
<feGaussianBlur stdDeviation="0.256735" result="effect1_foregroundBlur_1412_46697"/>
</filter>
<filter id="filter23_f_1412_46697" x="99.9015" y="36.864" width="3.01062" height="3.01062" filterUnits="userSpaceOnUse" color-interpolation-filters="sRGB">
<feFlood flood-opacity="0" result="BackgroundImageFix"/>
<feBlend mode="normal" in="SourceGraphic" in2="BackgroundImageFix" result="shape"/>
<feGaussianBlur stdDeviation="0.134786" result="effect1_foregroundBlur_1412_46697"/>
</filter>
<filter id="filter24_f_1412_46697" x="100.828" y="39.0248" width="3.51158" height="3.51158" filterUnits="userSpaceOnUse" color-interpolation-filters="sRGB">
<feFlood flood-opacity="0" result="BackgroundImageFix"/>
<feBlend mode="normal" in="SourceGraphic" in2="BackgroundImageFix" result="shape"/>
<feGaussianBlur stdDeviation="0.134786" result="effect1_foregroundBlur_1412_46697"/>
</filter>
<filter id="filter25_f_1412_46697" x="98.6077" y="38.7795" width="3.46592" height="3.46591" filterUnits="userSpaceOnUse" color-interpolation-filters="sRGB">
<feFlood flood-opacity="0" result="BackgroundImageFix"/>
<feBlend mode="normal" in="SourceGraphic" in2="BackgroundImageFix" result="shape"/>
<feGaussianBlur stdDeviation="0.0641836" result="effect1_foregroundBlur_1412_46697"/>
</filter>
<filter id="filter26_f_1412_46697" x="98.7462" y="39.0463" width="3.01062" height="3.01062" filterUnits="userSpaceOnUse" color-interpolation-filters="sRGB">
<feFlood flood-opacity="0" result="BackgroundImageFix"/>
<feBlend mode="normal" in="SourceGraphic" in2="BackgroundImageFix" result="shape"/>
<feGaussianBlur stdDeviation="0.134786" result="effect1_foregroundBlur_1412_46697"/>
</filter>
<filter id="filter27_f_1412_46697" x="99.5834" y="38.0864" width="4.46718" height="4.33881" filterUnits="userSpaceOnUse" color-interpolation-filters="sRGB">
<feFlood flood-opacity="0" result="BackgroundImageFix"/>
<feBlend mode="normal" in="SourceGraphic" in2="BackgroundImageFix" result="shape"/>
<feGaussianBlur stdDeviation="0.154041" result="effect1_foregroundBlur_1412_46697"/>
</filter>
<filter id="filter28_f_1412_46697" x="99.6347" y="38.2661" width="3.59429" height="3.72265" filterUnits="userSpaceOnUse" color-interpolation-filters="sRGB">
<feFlood flood-opacity="0" result="BackgroundImageFix"/>
<feBlend mode="normal" in="SourceGraphic" in2="BackgroundImageFix" result="shape"/>
<feGaussianBlur stdDeviation="0.256735" result="effect1_foregroundBlur_1412_46697"/>
</filter>
<filter id="filter29_ddd_1412_46697" x="122.758" y="46.8542" width="69.8776" height="12.7761" filterUnits="userSpaceOnUse" color-interpolation-filters="sRGB">
<feFlood flood-opacity="0" result="BackgroundImageFix"/>
<feColorMatrix in="SourceAlpha" type="matrix" values="0 0 0 0 0 0 0 0 0 0 0 0 0 0 0 0 0 0 127 0" result="hardAlpha"/>
<feOffset dy="-0.191909"/>
<feGaussianBlur stdDeviation="0.767635"/>
<feComposite in2="hardAlpha" operator="out"/>
<feColorMatrix type="matrix" values="0 0 0 0 0.266667 0 0 0 0 0.419608 0 0 0 0 0.960784 0 0 0 1 0"/>
<feBlend mode="normal" in2="BackgroundImageFix" result="effect1_dropShadow_1412_46697"/>
<feColorMatrix in="SourceAlpha" type="matrix" values="0 0 0 0 0 0 0 0 0 0 0 0 0 0 0 0 0 0 127 0" result="hardAlpha"/>
<feOffset dy="0.767635"/>
<feGaussianBlur stdDeviation="0.383818"/>
<feComposite in2="hardAlpha" operator="out"/>
<feColorMatrix type="matrix" values="0 0 0 0 0.772549 0 0 0 0 0.239216 0 0 0 0 0.411765 0 0 0 1 0"/>
<feBlend mode="normal" in2="effect1_dropShadow_1412_46697" result="effect2_dropShadow_1412_46697"/>
<feColorMatrix in="SourceAlpha" type="matrix" values="0 0 0 0 0 0 0 0 0 0 0 0 0 0 0 0 0 0 127 0" result="hardAlpha"/>
<feOffset dy="0.767635"/>
<feGaussianBlur stdDeviation="0.383818"/>
<feComposite in2="hardAlpha" operator="out"/>
<feColorMatrix type="matrix" values="0 0 0 0 0 0 0 0 0 0 0 0 0 0 0 0 0 0 0.25 0"/>
<feBlend mode="normal" in2="effect2_dropShadow_1412_46697" result="effect3_dropShadow_1412_46697"/>
<feBlend mode="normal" in="SourceGraphic" in2="effect3_dropShadow_1412_46697" result="shape"/>
</filter>
<filter id="filter30_ddd_1412_46697" x="128.102" y="71.1474" width="53.3507" height="7.67635" filterUnits="userSpaceOnUse" color-interpolation-filters="sRGB">
<feFlood flood-opacity="0" result="BackgroundImageFix"/>
<feColorMatrix in="SourceAlpha" type="matrix" values="0 0 0 0 0 0 0 0 0 0 0 0 0 0 0 0 0 0 127 0" result="hardAlpha"/>
<feOffset dy="-0.191909"/>
<feGaussianBlur stdDeviation="0.767635"/>
<feComposite in2="hardAlpha" operator="out"/>
<feColorMatrix type="matrix" values="0 0 0 0 0.266667 0 0 0 0 0.419608 0 0 0 0 0.960784 0 0 0 1 0"/>
<feBlend mode="normal" in2="BackgroundImageFix" result="effect1_dropShadow_1412_46697"/>
<feColorMatrix in="SourceAlpha" type="matrix" values="0 0 0 0 0 0 0 0 0 0 0 0 0 0 0 0 0 0 127 0" result="hardAlpha"/>
<feOffset dy="0.767635"/>
<feGaussianBlur stdDeviation="0.383818"/>
<feComposite in2="hardAlpha" operator="out"/>
<feColorMatrix type="matrix" values="0 0 0 0 0.772549 0 0 0 0 0.239216 0 0 0 0 0.411765 0 0 0 1 0"/>
<feBlend mode="normal" in2="effect1_dropShadow_1412_46697" result="effect2_dropShadow_1412_46697"/>
<feColorMatrix in="SourceAlpha" type="matrix" values="0 0 0 0 0 0 0 0 0 0 0 0 0 0 0 0 0 0 127 0" result="hardAlpha"/>
<feOffset dy="0.767635"/>
<feGaussianBlur stdDeviation="0.383818"/>
<feComposite in2="hardAlpha" operator="out"/>
<feColorMatrix type="matrix" values="0 0 0 0 0 0 0 0 0 0 0 0 0 0 0 0 0 0 0.25 0"/>
<feBlend mode="normal" in2="effect2_dropShadow_1412_46697" result="effect3_dropShadow_1412_46697"/>
<feBlend mode="normal" in="SourceGraphic" in2="effect3_dropShadow_1412_46697" result="shape"/>
</filter>
<filter id="filter31_d_1412_46697" x="120.454" y="32.2142" width="11.8539" height="11.8539" filterUnits="userSpaceOnUse" color-interpolation-filters="sRGB">
<feFlood flood-opacity="0" result="BackgroundImageFix"/>
<feColorMatrix in="SourceAlpha" type="matrix" values="0 0 0 0 0 0 0 0 0 0 0 0 0 0 0 0 0 0 127 0" result="hardAlpha"/>
<feOffset dx="0.187855" dy="0.37571"/>
<feGaussianBlur stdDeviation="0.75142"/>
<feComposite in2="hardAlpha" operator="out"/>
<feColorMatrix type="matrix" values="0 0 0 0 0 0 0 0 0 0 0 0 0 0 0 0 0 0 0.08 0"/>
<feBlend mode="normal" in2="BackgroundImageFix" result="effect1_dropShadow_1412_46697"/>
<feBlend mode="normal" in="SourceGraphic" in2="effect1_dropShadow_1412_46697" result="shape"/>
</filter>
<filter id="filter32_d_1412_46697" x="177.968" y="61.3514" width="3.7604" height="3.5801" filterUnits="userSpaceOnUse" color-interpolation-filters="sRGB">
<feFlood flood-opacity="0" result="BackgroundImageFix"/>
<feColorMatrix in="SourceAlpha" type="matrix" values="0 0 0 0 0 0 0 0 0 0 0 0 0 0 0 0 0 0 127 0" result="hardAlpha"/>
<feOffset dx="0.123046" dy="0.246092"/>
<feGaussianBlur stdDeviation="0.492184"/>
<feComposite in2="hardAlpha" operator="out"/>
<feColorMatrix type="matrix" values="0 0 0 0 0 0 0 0 0 0 0 0 0 0 0 0 0 0 0.08 0"/>
<feBlend mode="normal" in2="BackgroundImageFix" result="effect1_dropShadow_1412_46697"/>
<feBlend mode="normal" in="SourceGraphic" in2="effect1_dropShadow_1412_46697" result="shape"/>
</filter>
<linearGradient id="paint0_linear_1412_46697" x1="26.2542" y1="64.6737" x2="31.7177" y2="40.0655" gradientUnits="userSpaceOnUse">
<stop stop-color="#436AF5"/>
<stop offset="0.24" stop-color="#9E58EE"/>
<stop offset="0.605" stop-color="#FF9999"/>
<stop offset="1" stop-color="#FFEA70"/>
</linearGradient>
<radialGradient id="paint1_radial_1412_46697" cx="0" cy="0" r="1" gradientUnits="userSpaceOnUse" gradientTransform="translate(14.713 41.6982) rotate(-53.2097) scale(5.07186 5.06007)">
<stop stop-color="#051961"/>
<stop offset="1" stop-color="#1F1F1F"/>
</radialGradient>
<linearGradient id="paint2_linear_1412_46697" x1="15.5257" y1="35.5434" x2="20.6181" y2="44.0655" gradientUnits="userSpaceOnUse">
<stop stop-color="#9E58EE"/>
<stop offset="1" stop-color="#5A3288" stop-opacity="0"/>
</linearGradient>
<linearGradient id="paint3_linear_1412_46697" x1="17.6289" y1="43.9071" x2="20.7046" y2="47.4022" gradientUnits="userSpaceOnUse">
<stop stop-color="#436AF5"/>
<stop offset="1" stop-color="#273E8F" stop-opacity="0"/>
</linearGradient>
<linearGradient id="paint4_linear_1412_46697" x1="5.35673" y1="41.8003" x2="16.2113" y2="32.9225" gradientUnits="userSpaceOnUse">
<stop stop-color="#436AF5"/>
<stop offset="0.24" stop-color="#9E58EE"/>
<stop offset="0.605" stop-color="#FF9999"/>
<stop offset="1" stop-color="#FFEA70"/>
</linearGradient>
<linearGradient id="paint5_linear_1412_46697" x1="15.0952" y1="27.8141" x2="14.7785" y2="33.5033" gradientUnits="userSpaceOnUse">
<stop stop-color="#436AF5"/>
<stop offset="1" stop-color="#273E8F" stop-opacity="0"/>
</linearGradient>
<linearGradient id="paint6_linear_1412_46697" x1="21.0534" y1="38.6959" x2="20.6725" y2="45.5382" gradientUnits="userSpaceOnUse">
<stop stop-color="#FF9999"/>
<stop offset="1" stop-color="#273E8F" stop-opacity="0"/>
</linearGradient>
<linearGradient id="paint7_linear_1412_46697" x1="11.9051" y1="35.8167" x2="15.4791" y2="44.541" gradientUnits="userSpaceOnUse">
<stop stop-color="white"/>
<stop offset="1" stop-color="white" stop-opacity="0"/>
</linearGradient>
<linearGradient id="paint8_linear_1412_46697" x1="15.2113" y1="48.224" x2="6.94933" y2="37.1946" gradientUnits="userSpaceOnUse">
<stop stop-color="#FF9999"/>
<stop offset="1" stop-color="#273E8F" stop-opacity="0"/>
</linearGradient>
<linearGradient id="paint9_linear_1412_46697" x1="15.2905" y1="33.8819" x2="8.24953" y2="69.3834" gradientUnits="userSpaceOnUse">
<stop stop-color="#FF9999"/>
<stop offset="0.385084" stop-color="#436AF5"/>
<stop offset="1" stop-color="#99FFFF"/>
</linearGradient>
<linearGradient id="paint10_linear_1412_46697" x1="12.382" y1="35.2264" x2="15.5611" y2="40.5947" gradientUnits="userSpaceOnUse">
<stop stop-color="#FF9999"/>
<stop offset="0.25" stop-color="#FFEA70"/>
<stop offset="0.5" stop-color="white" stop-opacity="0.5"/>
<stop offset="1" stop-color="white" stop-opacity="0"/>
</linearGradient>
<linearGradient id="paint11_linear_1412_46697" x1="36.4902" y1="40.6221" x2="25.6286" y2="41.6199" gradientUnits="userSpaceOnUse">
<stop offset="0.0264726" stop-color="#FF9999"/>
<stop offset="0.639101" stop-color="#9E58EE"/>
<stop offset="1" stop-color="#436AF5"/>
</linearGradient>
<radialGradient id="paint12_radial_1412_46697" cx="0" cy="0" r="1" gradientUnits="userSpaceOnUse" gradientTransform="translate(161.603 29.9734) rotate(122.658) scale(37.7617 37.5844)">
<stop stop-color="#051961"/>
<stop offset="1" stop-color="#1F1F1F"/>
</radialGradient>
<linearGradient id="paint13_linear_1412_46697" x1="158.833" y1="76.0985" x2="116.421" y2="15.8396" gradientUnits="userSpaceOnUse">
<stop stop-color="#9E58EE"/>
<stop offset="1" stop-color="#5A3288" stop-opacity="0"/>
</linearGradient>
<linearGradient id="paint14_linear_1412_46697" x1="138.701" y1="15.1455" x2="114.019" y2="-9.02699" gradientUnits="userSpaceOnUse">
<stop stop-color="#436AF5"/>
<stop offset="1" stop-color="#273E8F" stop-opacity="0"/>
</linearGradient>
<linearGradient id="paint15_linear_1412_46697" x1="231.004" y1="24.0314" x2="155.276" y2="96.0702" gradientUnits="userSpaceOnUse">
<stop stop-color="#436AF5"/>
<stop offset="0.24" stop-color="#9E58EE"/>
<stop offset="0.605" stop-color="#FF9999"/>
<stop offset="1" stop-color="#FFEA70"/>
</linearGradient>
<linearGradient id="paint16_linear_1412_46697" x1="166.24" y1="133.11" x2="165.385" y2="90.8029" gradientUnits="userSpaceOnUse">
<stop stop-color="#436AF5"/>
<stop offset="1" stop-color="#273E8F" stop-opacity="0"/>
</linearGradient>
<linearGradient id="paint17_linear_1412_46697" x1="116.131" y1="55.687" x2="115.102" y2="4.80417" gradientUnits="userSpaceOnUse">
<stop stop-color="#FF9999"/>
<stop offset="1" stop-color="#273E8F" stop-opacity="0"/>
</linearGradient>
<linearGradient id="paint18_linear_1412_46697" x1="185.508" y1="71.992" x2="154.287" y2="9.41348" gradientUnits="userSpaceOnUse">
<stop stop-color="white"/>
<stop offset="1" stop-color="white" stop-opacity="0"/>
</linearGradient>
<linearGradient id="paint19_linear_1412_46697" x1="154.344" y1="-18.0264" x2="221.427" y2="59.13" gradientUnits="userSpaceOnUse">
<stop stop-color="#FF9999"/>
<stop offset="1" stop-color="#273E8F" stop-opacity="0"/>
</linearGradient>
<linearGradient id="paint20_linear_1412_46697" x1="161.483" y1="88.1567" x2="193.588" y2="-178.854" gradientUnits="userSpaceOnUse">
<stop stop-color="#FF9999"/>
<stop offset="0.385084" stop-color="#436AF5"/>
<stop offset="1" stop-color="#99FFFF"/>
</linearGradient>
<linearGradient id="paint21_linear_1412_46697" x1="182.358" y1="76.5962" x2="155.924" y2="38.6045" gradientUnits="userSpaceOnUse">
<stop stop-color="#FF9999"/>
<stop offset="0.25" stop-color="#FFEA70"/>
<stop offset="0.5" stop-color="white" stop-opacity="0.5"/>
<stop offset="1" stop-color="white" stop-opacity="0"/>
</linearGradient>
<linearGradient id="paint22_linear_1412_46697" x1="162.215" y1="42.1677" x2="182.615" y2="27.2468" gradientUnits="userSpaceOnUse">
<stop stop-color="#BF5D4A"/>
<stop offset="1" stop-color="#8933EB"/>
</linearGradient>
<radialGradient id="paint23_radial_1412_46697" cx="0" cy="0" r="1" gradientUnits="userSpaceOnUse" gradientTransform="translate(101.523 40.154) rotate(-52.9801) scale(1.02997)">
<stop stop-color="#051961"/>
<stop offset="1" stop-color="#1F1F1F"/>
</radialGradient>
<linearGradient id="paint24_linear_1412_46697" x1="101.688" y1="38.9079" x2="102.715" y2="40.6408" gradientUnits="userSpaceOnUse">
<stop stop-color="#9E58EE"/>
<stop offset="1" stop-color="#5A3288" stop-opacity="0"/>
</linearGradient>
<linearGradient id="paint25_linear_1412_46697" x1="102.118" y1="40.6012" x2="102.74" y2="41.314" gradientUnits="userSpaceOnUse">
<stop stop-color="#436AF5"/>
<stop offset="1" stop-color="#273E8F" stop-opacity="0"/>
</linearGradient>
<linearGradient id="paint26_linear_1412_46697" x1="99.6123" y1="40.1746" x2="101.814" y2="38.3592" gradientUnits="userSpaceOnUse">
<stop stop-color="#436AF5"/>
<stop offset="0.24" stop-color="#9E58EE"/>
<stop offset="0.605" stop-color="#FF9999"/>
<stop offset="1" stop-color="#FFEA70"/>
</linearGradient>
<linearGradient id="paint27_linear_1412_46697" x1="101.601" y1="37.3428" x2="101.537" y2="38.4948" gradientUnits="userSpaceOnUse">
<stop stop-color="#436AF5"/>
<stop offset="1" stop-color="#273E8F" stop-opacity="0"/>
</linearGradient>
<linearGradient id="paint28_linear_1412_46697" x1="102.817" y1="39.546" x2="102.74" y2="40.9314" gradientUnits="userSpaceOnUse">
<stop stop-color="#FF9999"/>
<stop offset="1" stop-color="#273E8F" stop-opacity="0"/>
</linearGradient>
<linearGradient id="paint29_linear_1412_46697" x1="100.949" y1="38.9632" x2="101.669" y2="40.7338" gradientUnits="userSpaceOnUse">
<stop stop-color="white"/>
<stop offset="1" stop-color="white" stop-opacity="0"/>
</linearGradient>
<linearGradient id="paint30_linear_1412_46697" x1="101.624" y1="41.4751" x2="99.9555" y2="39.2287" gradientUnits="userSpaceOnUse">
<stop stop-color="#FF9999"/>
<stop offset="1" stop-color="#273E8F" stop-opacity="0"/>
</linearGradient>
<linearGradient id="paint31_linear_1412_46697" x1="101.641" y1="38.5715" x2="100.226" y2="45.7638" gradientUnits="userSpaceOnUse">
<stop stop-color="#FF9999"/>
<stop offset="0.385084" stop-color="#436AF5"/>
<stop offset="1" stop-color="#99FFFF"/>
</linearGradient>
<linearGradient id="paint32_linear_1412_46697" x1="101.047" y1="38.8437" x2="101.688" y2="39.9353" gradientUnits="userSpaceOnUse">
<stop stop-color="#FF9999"/>
<stop offset="0.25" stop-color="#FFEA70"/>
<stop offset="0.5" stop-color="white" stop-opacity="0.5"/>
<stop offset="1" stop-color="white" stop-opacity="0"/>
</linearGradient>
<linearGradient id="paint33_linear_1412_46697" x1="124.293" y1="53.3382" x2="191.1" y2="53.3382" gradientUnits="userSpaceOnUse">
<stop stop-color="#404040"/>
<stop offset="1" stop-color="#282828"/>
</linearGradient>
<linearGradient id="paint34_linear_1412_46697" x1="124.293" y1="53.3382" x2="191.1" y2="53.3382" gradientUnits="userSpaceOnUse">
<stop stop-color="#FFC782"/>
<stop offset="0.5" stop-color="#9F59EE"/>
<stop offset="1" stop-color="#446BF5"/>
</linearGradient>
<linearGradient id="paint35_linear_1412_46697" x1="129.637" y1="75.0815" x2="179.917" y2="75.0815" gradientUnits="userSpaceOnUse">
<stop stop-color="#FFC782"/>
<stop offset="0.5" stop-color="#9F59EE"/>
<stop offset="1" stop-color="#446BF5"/>
</linearGradient>
<linearGradient id="paint36_linear_1412_46697" x1="130.303" y1="33.3413" x2="124.527" y2="34.6886" gradientUnits="userSpaceOnUse">
<stop offset="0.0746837" stop-color="#FFEA70"/>
<stop offset="0.237129" stop-color="#FF9999"/>
<stop offset="0.639101" stop-color="#9E58EE"/>
<stop offset="1" stop-color="#436AF5"/>
</linearGradient>
<linearGradient id="paint37_linear_1412_46697" x1="180.558" y1="62.0897" x2="179.402" y2="62.3893" gradientUnits="userSpaceOnUse">
<stop offset="0.0746837" stop-color="#FFEA70"/>
<stop offset="0.237129" stop-color="#FF9999"/>
<stop offset="0.639101" stop-color="#9E58EE"/>
<stop offset="1" stop-color="#436AF5"/>
</linearGradient>
<clipPath id="clip0_1412_46697">
<path d="M0 4C0 1.79086 1.79086 0 4 0H194C196.209 0 198 1.79086 198 4V106C198 108.209 196.209 110 194 110H4C1.79087 110 0 108.209 0 106V4Z" fill="white"/>
</clipPath>
</defs>
</svg>
