<svg width="20" height="20" viewBox="0 0 20 20" fill="none" xmlns="http://www.w3.org/2000/svg">
<path d="M5.69961 10.4575C5.41069 10.4575 5.1711 10.2179 5.1711 9.92894C5.1711 9.64002 5.41069 9.40043 5.69961 9.40043H10.6324C10.9214 9.40043 11.1609 9.64002 11.1609 9.92894C11.1609 10.2179 10.9214 10.4575 10.6324 10.4575H5.69961Z" fill="#404040"/>
<path fill-rule="evenodd" clip-rule="evenodd" d="M3.64192 4.62132C2.66241 4.99481 2 5.94617 2 6.99616V14.9553C2 16.849 3.42347 18.3853 5.17814 18.3853H13.268C15.0226 18.3853 16.4461 16.849 16.4461 14.9476V14.4856C16.9111 14.3032 17.2374 13.8524 17.2374 13.3244L17.2373 11.68C17.2373 11.1557 16.9156 10.7076 16.4461 10.5227V9.83692C16.4461 7.94321 15.0226 6.40693 13.268 6.40693H11.7599V4.25491C11.7599 3.64183 11.464 3.07104 10.9566 2.7187C10.4563 2.36635 9.81499 2.2888 9.23715 2.50726L3.64192 4.62132ZM13.8358 11.8097C13.8414 11.8036 13.8471 11.7975 13.8529 11.7915L13.8599 11.7839C14.022 11.6013 14.2475 11.5025 14.4941 11.5025H15.9176C15.9508 11.5025 15.9834 11.4991 16.015 11.4925C16.115 11.5086 16.1873 11.5823 16.1873 11.68L16.1874 13.3244C16.1874 13.4301 16.1029 13.5146 16.0112 13.5146H14.623C14.1156 13.5146 13.6626 13.1322 13.6203 12.6671C13.595 12.4266 13.6719 12.0309 13.8358 11.8097ZM10.7029 6.40693V4.25491C10.7029 3.98713 10.5761 3.74048 10.3506 3.58545C10.1251 3.43042 9.85727 3.39518 9.60359 3.49384L4.00836 5.6079C3.43756 5.82635 3.04999 6.38308 3.04999 6.99616V7.28986C3.61345 6.74111 4.35978 6.40693 5.17814 6.40693H10.7029ZM3.05703 14.9553V9.83692C3.05703 8.57444 4.00836 7.54772 5.17814 7.54772H13.268C14.4377 7.54772 15.3891 8.57444 15.3891 9.83692V10.3617H14.4941C13.9656 10.3617 13.4723 10.5822 13.1059 10.9853C12.6831 11.434 12.4717 12.05 12.528 12.6737C12.6126 13.7688 13.5146 14.6206 14.5787 14.6206H15.3891V14.9553C15.3891 16.2177 14.4377 17.2445 13.268 17.2445H5.17814C4.00836 17.2445 3.05703 16.2177 3.05703 14.9553Z" fill="#404040"/>
</svg>
