<svg width="24" height="24" viewBox="0 0 24 24" fill="none" xmlns="http://www.w3.org/2000/svg">
<path d="M0 3.42857C0 1.53502 1.53502 0 3.42857 0H20.5714C22.465 0 24 1.53502 24 3.42857V20.5714C24 22.465 22.465 24 20.5714 24H3.42857C1.53502 24 0 22.465 0 20.5714V3.42857Z" fill="#ECF0FE"/>
<path d="M17.2112 6.78827V8.30975H16.0764V8.28436C16.0763 7.72041 15.8736 7.19682 15.5325 6.78827H17.2112Z" stroke="#436AF5" stroke-width="0.8"/>
<path d="M12.1932 6.78827C13.4685 6.78834 14.5027 7.82166 14.5028 9.09686V16.6467L12.9803 15.1242V9.48456C12.9803 8.83628 12.4547 8.30999 11.8065 8.30975H8.50964L7.24207 6.78827H12.1932Z" stroke="#436AF5" stroke-width="0.8"/>
</svg>
