<svg width="80" height="22" viewBox="0 0 80 22" fill="none" xmlns="http://www.w3.org/2000/svg">
<path fill-rule="evenodd" clip-rule="evenodd" d="M0.916504 0.142822H13.5328V21.1428L10.6839 16.5364V9.82992H6.74984L4.85061 6.78153H10.6839V4.1396H3.22271L0.916504 0.142822ZM27.1665 0.142822H14.5502V21.1428L17.3991 16.5364V9.82992H21.3332L23.1646 6.78153H17.3991V4.1396H24.8603L27.1665 0.142822Z" fill="#436AF5"/>
<path fill-rule="evenodd" clip-rule="evenodd" d="M45.8741 12.2114V16.4761H43.4761V12.2114L39.4165 4.22607H42.1229L44.6922 9.82457L47.2444 4.22607H49.9165L45.8741 12.2114ZM33.1298 11.2988V16.4761H30.6665V4.22608H38.2498V6.20925H33.1298V9.35072H37.0534V11.2988H33.1298ZM57.4999 16.4761V14.4782H52.9196V11.2361H56.9813V9.29081H52.9196V6.22393H57.4999V4.22607H50.4999V16.4761H57.4999ZM62.3364 11.7024V16.4761H59.8332V4.22607H64.5177C65.4833 4.22607 66.3057 4.3928 66.9852 4.72625C67.6646 5.05971 68.1742 5.51016 68.5139 6.07761C68.8536 6.64507 69.0235 7.2798 69.0235 7.9818C69.0235 8.78911 68.7851 9.51744 68.3083 10.1668C67.8315 10.8162 67.1223 11.2637 66.1806 11.5094L69.1665 16.4761H66.27L63.5165 11.7024H62.3364ZM64.5303 9.47611H62.7499V5.97611H64.5303C65.1086 5.97611 65.5397 6.12692 65.8238 6.42854C66.1078 6.73017 66.2499 7.15415 66.2499 7.7005C66.2499 8.25822 66.1078 8.69359 65.8238 9.00659C65.5397 9.3196 65.1086 9.47611 64.5303 9.47611ZM77.1118 15.9878C76.4663 16.3133 75.6996 16.4761 74.8119 16.4761C73.9704 16.4761 73.2124 16.3333 72.538 16.0478C71.8636 15.7622 71.3304 15.351 70.9384 14.8142C70.5465 14.2774 70.3447 13.6434 70.3332 12.9124H72.9271C72.9617 13.4036 73.1375 13.7919 73.4545 14.0775C73.7715 14.363 74.2067 14.5058 74.7601 14.5058C75.325 14.5058 75.7688 14.3716 76.0916 14.1032C76.4144 13.8348 76.5758 13.4835 76.5758 13.0495C76.5758 12.6954 76.4663 12.4042 76.2472 12.1757C76.0282 11.9473 75.7544 11.7674 75.4258 11.636C75.0973 11.5047 74.6448 11.3591 74.0684 11.1992C73.2844 10.9707 72.6475 10.7451 72.1575 10.5224C71.6676 10.2997 71.2468 9.96273 70.8952 9.51156C70.5436 9.0604 70.3678 8.45789 70.3678 7.70405C70.3678 6.99589 70.5465 6.3791 70.9038 5.8537C71.2612 5.32829 71.7627 4.92567 72.4083 4.64583C73.0539 4.36599 73.7917 4.22607 74.6217 4.22607C75.8668 4.22607 76.8784 4.5259 77.6566 5.12555C78.4347 5.7252 78.8642 6.56186 78.9449 7.63551H76.2818C76.2588 7.22433 76.0829 6.88452 75.7544 6.61611C75.4258 6.34769 74.9906 6.21349 74.4488 6.21349C73.9761 6.21349 73.5986 6.33342 73.3161 6.57328C73.0337 6.81314 72.8925 7.16151 72.8925 7.61838C72.8925 7.9382 72.9991 8.20375 73.2124 8.41506C73.4257 8.62637 73.6908 8.79769 74.0078 8.92905C74.3249 9.0604 74.7716 9.21174 75.348 9.38307C76.1319 9.61151 76.7718 9.83994 77.2675 10.0684C77.7632 10.2968 78.1897 10.6395 78.5471 11.0964C78.9045 11.5532 79.0832 12.1529 79.0832 12.8953C79.0832 13.5349 78.916 14.1289 78.5817 14.6771C78.2474 15.2254 77.7574 15.6623 77.1118 15.9878Z" fill="#6A7582"/>
</svg>
