<svg width="166" height="32" viewBox="0 0 166 32" fill="none" xmlns="http://www.w3.org/2000/svg">
<path d="M14 0.663994V4.27999H4.68801V10.008H11.824V13.56H4.68801V23H0.208008V0.663994H14Z" fill="#6A7582"/>
<path d="M34.9368 0.663994L27.3848 15.224V23H22.9048V15.224L15.3208 0.663994H20.3768L25.1768 10.872L29.9448 0.663994H34.9368Z" fill="#6A7582"/>
<path d="M42.0005 4.27999V9.87999H49.5205V13.432H42.0005V19.352H50.4805V23H37.5205V0.631992H50.4805V4.27999H42.0005Z" fill="#6A7582"/>
<path d="M66.0718 23L61.1438 14.296H59.0318V23H54.5518V0.663994H62.9358C64.6638 0.663994 66.1358 0.973327 67.3518 1.59199C68.5678 2.18933 69.4744 3.01066 70.0718 4.05599C70.6904 5.07999 70.9998 6.23199 70.9998 7.51199C70.9998 8.98399 70.5731 10.3173 69.7198 11.512C68.8664 12.6853 67.5971 13.496 65.9118 13.944L71.2558 23H66.0718ZM59.0318 10.936H62.7758C63.9918 10.936 64.8984 10.648 65.4958 10.072C66.0931 9.47466 66.3918 8.65333 66.3918 7.60799C66.3918 6.58399 66.0931 5.79466 65.4958 5.23999C64.8984 4.66399 63.9918 4.37599 62.7758 4.37599H59.0318V10.936Z" fill="#6A7582"/>
<path d="M82.7638 23.224C81.2064 23.224 79.7984 22.9573 78.5398 22.424C77.3024 21.8907 76.3211 21.1227 75.5958 20.12C74.8704 19.1173 74.4971 17.9333 74.4758 16.568H79.2758C79.3398 17.4853 79.6598 18.2107 80.2358 18.744C80.8331 19.2773 81.6438 19.544 82.6678 19.544C83.7131 19.544 84.5344 19.2987 85.1318 18.808C85.7291 18.296 86.0278 17.6347 86.0278 16.824C86.0278 16.1627 85.8251 15.6187 85.4198 15.192C85.0144 14.7653 84.5024 14.4347 83.8838 14.2C83.2864 13.944 82.4544 13.6667 81.3878 13.368C79.9371 12.9413 78.7531 12.5253 77.8358 12.12C76.9398 11.6933 76.1611 11.064 75.4998 10.232C74.8598 9.37866 74.5398 8.24799 74.5398 6.83999C74.5398 5.51733 74.8704 4.36533 75.5318 3.38399C76.1931 2.40266 77.1211 1.65599 78.3158 1.14399C79.5104 0.610661 80.8758 0.343994 82.4118 0.343994C84.7158 0.343994 86.5824 0.909327 88.0118 2.03999C89.4624 3.14933 90.2624 4.70666 90.4118 6.71199H85.4838C85.4411 5.94399 85.1104 5.31466 84.4918 4.82399C83.8944 4.31199 83.0944 4.05599 82.0918 4.05599C81.2171 4.05599 80.5131 4.27999 79.9798 4.72799C79.4678 5.17599 79.2118 5.82666 79.2118 6.67999C79.2118 7.27733 79.4038 7.77866 79.7878 8.18399C80.1931 8.56799 80.6838 8.88799 81.2598 9.14399C81.8571 9.37866 82.6891 9.65599 83.7558 9.97599C85.2064 10.4027 86.3904 10.8293 87.3078 11.256C88.2251 11.6827 89.0144 12.3227 89.6758 13.176C90.3371 14.0293 90.6678 15.1493 90.6678 16.536C90.6678 17.7307 90.3584 18.84 89.7398 19.864C89.1211 20.888 88.2144 21.7093 87.0198 22.328C85.8251 22.9253 84.4064 23.224 82.7638 23.224Z" fill="#6A7582"/>
<path d="M115.873 18.744H106.977L105.505 23H100.801L108.833 0.631992H114.049L122.081 23H117.345L115.873 18.744ZM114.657 15.16L111.425 5.81599L108.193 15.16H114.657Z" fill="#6A7582"/>
<path d="M129.563 7.83199C130.139 7.02133 130.928 6.34933 131.931 5.81599C132.955 5.26133 134.118 4.98399 135.419 4.98399C136.934 4.98399 138.299 5.35733 139.515 6.10399C140.752 6.85066 141.723 7.91733 142.427 9.30399C143.152 10.6693 143.515 12.2587 143.515 14.072C143.515 15.8853 143.152 17.496 142.427 18.904C141.723 20.2907 140.752 21.368 139.515 22.136C138.299 22.904 136.934 23.288 135.419 23.288C134.118 23.288 132.966 23.0213 131.963 22.488C130.982 21.9547 130.182 21.2827 129.563 20.472V31.448H125.083V5.27199H129.563V7.83199ZM138.939 14.072C138.939 13.0053 138.715 12.088 138.267 11.32C137.84 10.5307 137.264 9.93333 136.539 9.52799C135.835 9.12266 135.067 8.91999 134.235 8.91999C133.424 8.91999 132.656 9.13333 131.931 9.55999C131.227 9.96533 130.651 10.5627 130.203 11.352C129.776 12.1413 129.563 13.0693 129.563 14.136C129.563 15.2027 129.776 16.1307 130.203 16.92C130.651 17.7093 131.227 18.3173 131.931 18.744C132.656 19.1493 133.424 19.352 134.235 19.352C135.067 19.352 135.835 19.1387 136.539 18.712C137.264 18.2853 137.84 17.6773 138.267 16.888C138.715 16.0987 138.939 15.16 138.939 14.072Z" fill="#6A7582"/>
<path d="M151.251 7.83199C151.827 7.02133 152.616 6.34933 153.619 5.81599C154.643 5.26133 155.805 4.98399 157.107 4.98399C158.621 4.98399 159.987 5.35733 161.203 6.10399C162.44 6.85066 163.411 7.91733 164.115 9.30399C164.84 10.6693 165.203 12.2587 165.203 14.072C165.203 15.8853 164.84 17.496 164.115 18.904C163.411 20.2907 162.44 21.368 161.203 22.136C159.987 22.904 158.621 23.288 157.107 23.288C155.805 23.288 154.653 23.0213 153.651 22.488C152.669 21.9547 151.869 21.2827 151.251 20.472V31.448H146.771V5.27199H151.251V7.83199ZM160.627 14.072C160.627 13.0053 160.403 12.088 159.955 11.32C159.528 10.5307 158.952 9.93333 158.227 9.52799C157.523 9.12266 156.755 8.91999 155.923 8.91999C155.112 8.91999 154.344 9.13333 153.619 9.55999C152.915 9.96533 152.339 10.5627 151.891 11.352C151.464 12.1413 151.251 13.0693 151.251 14.136C151.251 15.2027 151.464 16.1307 151.891 16.92C152.339 17.7093 152.915 18.3173 153.619 18.744C154.344 19.1493 155.112 19.352 155.923 19.352C156.755 19.352 157.523 19.1387 158.227 18.712C158.952 18.2853 159.528 17.6773 159.955 16.888C160.403 16.0987 160.627 15.16 160.627 14.072Z" fill="#6A7582"/>
</svg>
