<svg width="24" height="24" viewBox="0 0 24 24" fill="none" xmlns="http://www.w3.org/2000/svg">
<path d="M0 4C0 1.79086 1.79086 0 4 0H20C22.2091 0 24 1.79086 24 4V20C24 22.2091 22.2091 24 20 24H4C1.79086 24 0 22.2091 0 20V4Z" fill="#FAF2F0"/>
<path fill-rule="evenodd" clip-rule="evenodd" d="M6.00033 11.7351C5.36033 11.7351 4.83366 11.2084 4.83366 10.5684V9.15508C4.83366 8.70175 5.14698 8.24175 5.56698 8.07508L11.567 5.6751C11.8203 5.5751 12.1803 5.5751 12.4337 5.6751L18.4337 8.07508C18.8537 8.24175 19.167 8.70841 19.167 9.15508V10.5684C19.167 11.2084 18.6403 11.7351 18.0003 11.7351H17.8337V14.6017H18.0003C18.6403 14.6017 19.167 15.1283 19.167 15.7683V17.2683H19.3337C19.607 17.2683 19.8337 17.495 19.8337 17.7683C19.8337 18.0417 19.607 18.2683 19.3337 18.2683H18.667H5.33366H4.66699C4.39366 18.2683 4.16699 18.0417 4.16699 17.7683C4.16699 17.495 4.39366 17.2683 4.66699 17.2683H4.83366V15.7683C4.83366 15.1283 5.36033 14.6017 6.00033 14.6017H6.16699V11.7351H6.00033ZM18.167 15.7683V17.2683H5.83366V15.7683C5.83366 15.675 5.90699 15.6017 6.00033 15.6017H6.66699H9.33366H12.0003H14.667H17.3337H18.0003C18.0937 15.6017 18.167 15.675 18.167 15.7683ZM16.8337 14.6017V11.7351H15.167V14.6017H16.8337ZM17.3431 10.7351L17.3337 10.735L17.3242 10.7351H14.6764L14.667 10.735L14.6576 10.7351H12.0097L12.0003 10.735L11.9909 10.7351H9.34307L9.33366 10.735L9.32425 10.7351H6.6764L6.66699 10.735L6.65758 10.7351H6.00033C5.90699 10.7351 5.83366 10.6618 5.83366 10.5684V9.15508C5.83366 9.10841 5.90031 9.02176 5.94031 9.00176L11.9337 6.60173C11.9469 6.5951 11.9734 6.5951 11.9999 6.5951H12.0007C12.0272 6.5951 12.0471 6.5951 12.0603 6.60173L18.0603 9.00176C18.107 9.02176 18.167 9.10841 18.167 9.15508V10.5684C18.167 10.6618 18.0937 10.7351 18.0003 10.7351H17.3431ZM14.167 14.6017V11.7351H12.5003V14.6017H14.167ZM11.5003 14.6017V11.7351H9.83366V14.6017H11.5003ZM8.83366 14.6017V11.7351H7.16699V14.6017H8.83366Z" fill="#CA7868"/>
</svg>
