<svg width="24" height="24" viewBox="0 0 24 24" fill="none" xmlns="http://www.w3.org/2000/svg">
<path d="M0 4C0 1.79086 1.79086 0 4 0H20C22.2091 0 24 1.79086 24 4V20C24 22.2091 22.2091 24 20 24H4C1.79086 24 0 22.2091 0 20V4Z" fill="#3C1C16"/>
<path fill-rule="evenodd" clip-rule="evenodd" d="M6.00081 11.7351C5.36081 11.7351 4.83415 11.2084 4.83415 10.5684V9.15508C4.83415 8.70175 5.14746 8.24175 5.56746 8.07508L11.5675 5.6751C11.8208 5.5751 12.1808 5.5751 12.4342 5.6751L18.4342 8.07508C18.8542 8.24175 19.1675 8.70841 19.1675 9.15508V10.5684C19.1675 11.2084 18.6408 11.7351 18.0008 11.7351H17.8341V14.6017H18.0008C18.6408 14.6017 19.1675 15.1283 19.1675 15.7683V17.2683H19.3341C19.6075 17.2683 19.8341 17.495 19.8341 17.7683C19.8341 18.0417 19.6075 18.2683 19.3341 18.2683H18.6675H5.33415H4.66748C4.39415 18.2683 4.16748 18.0417 4.16748 17.7683C4.16748 17.495 4.39415 17.2683 4.66748 17.2683H4.83415V15.7683C4.83415 15.1283 5.36081 14.6017 6.00081 14.6017H6.16748V11.7351H6.00081ZM18.1675 15.7683V17.2683H5.83415V15.7683C5.83415 15.675 5.90748 15.6017 6.00081 15.6017H6.66748H9.33415H12.0008H14.6675H17.3341H18.0008C18.0941 15.6017 18.1675 15.675 18.1675 15.7683ZM16.8341 14.6017V11.7351H15.1675V14.6017H16.8341ZM17.3436 10.7351L17.3341 10.735L17.3247 10.7351H14.6769L14.6675 10.735L14.6581 10.7351H12.0102L12.0008 10.735L11.9914 10.7351H9.34356L9.33415 10.735L9.32474 10.7351H6.67689L6.66748 10.735L6.65807 10.7351H6.00081C5.90748 10.7351 5.83415 10.6618 5.83415 10.5684V9.15508C5.83415 9.10841 5.9008 9.02176 5.9408 9.00176L11.9342 6.60173C11.9474 6.5951 11.9739 6.5951 12.0004 6.5951H12.0012C12.0277 6.5951 12.0476 6.5951 12.0608 6.60173L18.0608 9.00176C18.1075 9.02176 18.1675 9.10841 18.1675 9.15508V10.5684C18.1675 10.6618 18.0941 10.7351 18.0008 10.7351H17.3436ZM14.1675 14.6017V11.7351H12.5008V14.6017H14.1675ZM11.5008 14.6017V11.7351H9.83415V14.6017H11.5008ZM8.83415 14.6017V11.7351H7.16748V14.6017H8.83415Z" fill="#954535"/>
</svg>
