<svg width="22" height="10" viewBox="0 0 22 10" fill="none" xmlns="http://www.w3.org/2000/svg">
<path d="M0.615385 1.23077C0.278974 1.23077 0 0.951795 0 0.615385C0 0.278974 0.278974 0 0.615385 0H21.3846C21.721 0 22 0.278974 22 0.615385C22 0.951795 21.721 1.23077 21.3846 1.23077H0.615385Z" fill="#404040"/>
<path d="M0.615385 5.33327C0.278974 5.33327 0 5.0543 0 4.71789C0 4.38148 0.278974 4.1025 0.615385 4.1025H21.3846C21.721 4.1025 22 4.38148 22 4.71789C22 5.0543 21.721 5.33327 21.3846 5.33327H0.615385Z" fill="#404040"/>
<path d="M0 8.82039C0 9.1568 0.278974 9.43577 0.615385 9.43577H21.3846C21.721 9.43577 22 9.1568 22 8.82039C22 8.48398 21.721 8.205 21.3846 8.205H0.615385C0.278974 8.205 0 8.48398 0 8.82039Z" fill="#404040"/>
</svg>
