<svg width="20" height="21" viewBox="0 0 20 21" fill="none" xmlns="http://www.w3.org/2000/svg">
<path fill-rule="evenodd" clip-rule="evenodd" d="M2 10.1426C2 5.72955 5.59442 2.14258 10 2.14258C14.4056 2.14258 18 5.72955 18 10.1426C18 14.5556 14.413 18.1426 10 18.1426C5.59442 18.1426 2 14.5556 2 10.1426ZM3.11628 10.1426C3.11628 13.9379 6.20465 17.0263 10 17.0263C13.7953 17.0263 16.8837 13.9379 16.8837 10.1426C16.8837 6.34723 13.7953 3.25886 10 3.25886C6.20465 3.25886 3.11628 6.34723 3.11628 10.1426Z" fill="#404040"/>
<path fill-rule="evenodd" clip-rule="evenodd" d="M6.11483 10.1426C6.11483 7.99188 7.86366 6.2356 10.0218 6.2356C12.1799 6.2356 13.9288 7.99188 13.9288 10.1426C13.9288 12.2933 12.1799 14.0496 10.0218 14.0496C7.86366 14.0496 6.11483 12.2933 6.11483 10.1426ZM7.2311 10.1426C7.2311 11.683 8.48134 12.9333 10.0218 12.9333C11.5623 12.9333 12.8125 11.683 12.8125 10.1426C12.8125 8.60211 11.5623 7.35188 10.0218 7.35188C8.48134 7.35188 7.2311 8.60211 7.2311 10.1426Z" fill="#404040"/>
<path d="M6.97796 7.91011L4.34355 5.27569C4.12773 5.05987 4.12773 4.70267 4.34355 4.48685C4.55936 4.27104 4.91657 4.27104 5.13238 4.48685L7.7668 7.12127C7.98262 7.33708 7.98262 7.68685 7.7668 7.91011C7.65517 8.01429 7.51378 8.06639 7.37238 8.06639C7.23099 8.06639 7.08215 8.01429 6.97796 7.91011Z" fill="#404040"/>
<path d="M4.34355 15.7986C4.12773 15.5827 4.12773 15.2255 4.34355 15.0097L6.97796 12.3753C7.19378 12.1595 7.55099 12.1595 7.7668 12.3753C7.98262 12.5911 7.98262 12.9483 7.7668 13.1641L5.13238 15.7986C5.0282 15.9102 4.87936 15.9623 4.73797 15.9623C4.59657 15.9623 4.45517 15.9102 4.34355 15.7986Z" fill="#404040"/>
<path d="M14.866 15.7986L12.2316 13.1641C12.0158 12.9483 12.0158 12.5911 12.2316 12.3753C12.4474 12.1595 12.8047 12.1595 13.0205 12.3753L15.6549 15.0097C15.8707 15.2255 15.8707 15.5827 15.6549 15.7986C15.5507 15.9102 15.4093 15.9623 15.2605 15.9623C15.1191 15.9623 14.9777 15.9102 14.866 15.7986Z" fill="#404040"/>
<path d="M12.2389 7.90248C12.0231 7.68666 12.0231 7.32945 12.2389 7.11364L14.8733 4.47922C15.0891 4.26341 15.4463 4.26341 15.6622 4.47922C15.878 4.69503 15.878 5.05224 15.6622 5.26806L13.0277 7.90992C12.9161 8.0141 12.7747 8.0662 12.6333 8.0662C12.4919 8.0662 12.3505 8.0141 12.2389 7.90248Z" fill="#404040"/>
</svg>
