<svg width="24" height="24" xmlns="http://www.w3.org/2000/svg"><g fill="none" fill-rule="evenodd"><path d="M-4-4h32v32H-4z"/><g fill="#747E8B" fill-rule="nonzero" stroke="#747E8B" stroke-width=".3"><path d="M8.377 4h-2.72l-.096.006a.7.7 0 0 0-.605.694v8.454H2.6a.6.6 0 0 0-.427 1.022l4.458 4.511a.5.5 0 0 0 .702.01l4.7-4.51a.6.6 0 0 0 .018-.848l-.073-.065a.6.6 0 0 0-.36-.12H9.077V4.7a.7.7 0 0 0-.7-.7Zm-.3.999v9.155h2.546l-3.627 3.479-3.438-3.479h2.398V5h2.12ZM17.495 19.037h-2.72l-.096-.006a.7.7 0 0 1-.605-.694V9.883h-2.356a.6.6 0 0 1-.427-1.021L15.75 4.35a.5.5 0 0 1 .702-.009l4.7 4.51a.6.6 0 0 1 .018.848l-.073.064a.6.6 0 0 1-.36.12h-2.541v8.454a.7.7 0 0 1-.7.7Zm-.3-.999V8.883h2.546l-3.627-3.479-3.438 3.48h2.398v9.154h2.12Z"/></g></g></svg>