<svg width="25" height="24" xmlns="http://www.w3.org/2000/svg"><g fill="none" fill-rule="evenodd"><path d="M0 0h24v24H0z"/><path d="M1 0h24v24H1z"/><g fill="#436AF5" fill-rule="nonzero"><path d="M9.377 5a.7.7 0 0 1 .7.7v8.454h2.54a.6.6 0 0 1 .361.12l.073.065a.6.6 0 0 1-.018.848l-4.7 4.51a.5.5 0 0 1-.702-.01l-4.458-4.511a.6.6 0 0 1 .427-1.022h2.356V5.7a.7.7 0 0 1 .605-.694L6.656 5ZM17.451 5.341l4.7 4.51a.6.6 0 0 1 .018.848l-.073.064a.6.6 0 0 1-.36.12h-2.541v8.454a.7.7 0 0 1-.7.7h-2.72l-.096-.006a.7.7 0 0 1-.605-.694v-8.454h-2.356a.6.6 0 0 1-.427-1.021L16.75 5.35a.5.5 0 0 1 .702-.009Z"/></g></g></svg>