<svg width="24" height="24" viewBox="0 0 24 24" fill="none" xmlns="http://www.w3.org/2000/svg">
<path d="M16.6678 17.8767C18.3937 16.5018 19.4999 14.3821 19.4999 12.004C19.4999 7.85952 16.1402 4.49976 11.9957 4.49976C8.34359 4.49976 5.30084 7.10862 4.62939 10.5644L10.1379 14.4297L10.9101 14.9654L15.6325 10.3927L16.1022 10.8678V8.63768H13.8975L14.3996 9.14558L10.7263 12.6739L6.67299 9.87385C7.51845 7.76318 9.58297 6.27241 11.9957 6.27241C15.1611 6.27241 17.7273 8.83853 17.7273 12.004C17.7273 13.2417 17.3349 14.3879 16.6678 15.3248V17.8767Z" fill="url(#paint0_linear_4396_15960)"/>
<path d="M4.5 12.3641L10.5627 16.7526L12.9963 14.4038V19.4423C12.669 19.4859 12.335 19.5084 11.9958 19.5084C7.97194 19.5084 4.68782 16.3414 4.5 12.3641Z" fill="url(#paint1_linear_4396_15960)"/>
<path d="M13.5644 19.3442V13.8527L15.6164 11.9109V18.5787C14.9828 18.9284 14.2932 19.1892 13.5644 19.3442Z" fill="url(#paint2_linear_4396_15960)"/>
<defs>
<linearGradient id="paint0_linear_4396_15960" x1="11.0121" y1="14.2256" x2="16.0807" y2="5.67246" gradientUnits="userSpaceOnUse">
<stop stop-color="#FF8C00"/>
<stop offset="1" stop-color="#FFDB4E"/>
</linearGradient>
<linearGradient id="paint1_linear_4396_15960" x1="7.61364" y1="17.5602" x2="14.1966" y2="14.1135" gradientUnits="userSpaceOnUse">
<stop stop-color="#7160CC"/>
<stop offset="1" stop-color="#AFA0FF"/>
</linearGradient>
<linearGradient id="paint2_linear_4396_15960" x1="7.61364" y1="17.5602" x2="14.1966" y2="14.1135" gradientUnits="userSpaceOnUse">
<stop stop-color="#7160CC"/>
<stop offset="1" stop-color="#AFA0FF"/>
</linearGradient>
</defs>
</svg>
