<svg width="24" height="24" viewBox="0 0 24 24" fill="none" xmlns="http://www.w3.org/2000/svg">
<path d="M16.6683 17.877C18.3942 16.5021 19.5004 14.3823 19.5004 12.0042C19.5004 7.85976 16.1406 4.5 11.9962 4.5C8.34408 4.5 5.30133 7.10886 4.62988 10.5646L10.1384 14.43L10.9106 14.9656L15.633 10.393L16.1027 10.868V8.63793H13.898L14.4001 9.14582L10.7267 12.6741L6.67348 9.8741C7.51894 7.76343 9.58346 6.27265 11.9962 6.27265C15.1616 6.27265 17.7277 8.83877 17.7277 12.0042C17.7277 13.242 17.3354 14.3881 16.6683 15.325V17.877Z" fill="url(#paint0_linear_4396_15928)"/>
<path d="M4.5 12.3643L10.5627 16.7528L12.9963 14.4041V19.4425C12.669 19.4861 12.335 19.5086 11.9958 19.5086C7.97194 19.5086 4.68782 16.3417 4.5 12.3643Z" fill="url(#paint1_linear_4396_15928)"/>
<path d="M13.5644 19.3444V13.8529L15.6164 11.9111V18.579C14.9828 18.9287 14.2932 19.1894 13.5644 19.3444Z" fill="url(#paint2_linear_4396_15928)"/>
<defs>
<linearGradient id="paint0_linear_4396_15928" x1="11.0126" y1="14.2258" x2="16.0812" y2="5.6727" gradientUnits="userSpaceOnUse">
<stop stop-color="#FF8C00"/>
<stop offset="1" stop-color="#FFDB4E"/>
</linearGradient>
<linearGradient id="paint1_linear_4396_15928" x1="7.61364" y1="17.5604" x2="14.1966" y2="14.1137" gradientUnits="userSpaceOnUse">
<stop stop-color="#7160CC"/>
<stop offset="1" stop-color="#AFA0FF"/>
</linearGradient>
<linearGradient id="paint2_linear_4396_15928" x1="7.61364" y1="17.5604" x2="14.1966" y2="14.1137" gradientUnits="userSpaceOnUse">
<stop stop-color="#7160CC"/>
<stop offset="1" stop-color="#AFA0FF"/>
</linearGradient>
</defs>
</svg>
