<svg width="140" height="125" viewBox="0 0 140 125" fill="none" xmlns="http://www.w3.org/2000/svg">
<g opacity="0.9" filter="url(#filter0_f_2329_5884)">
<circle cx="125" cy="123" r="75" fill="#EBFFFF"/>
</g>
<rect x="107.082" y="103.838" width="26.2703" height="6.56758" rx="1" fill="#FFE085"/>
<rect x="110.73" y="111.135" width="26.2703" height="6.56758" rx="1" fill="#FFE085"/>
<rect x="110.73" y="118.433" width="26.2703" height="6.56758" rx="1" fill="#FFE085"/>
<rect x="83" y="118.433" width="26.2703" height="6.56758" rx="1" fill="#FFE085"/>
<path d="M88.8451 108.16C88.7487 109.894 89.6544 113.363 94.0479 113.363C94.1442 112.11 93.2385 109.316 88.8451 108.16Z" fill="#7FC782"/>
<path opacity="0.5" d="M99.7638 111.05C99.8386 112.399 99.136 115.097 95.7276 115.097C95.6529 114.123 96.3555 111.95 99.7638 111.05Z" fill="#7FC782"/>
<path opacity="0.7" d="M94.9404 107.706H95.2874V118.486H94.9404V107.706Z" fill="#7FC782"/>
<circle cx="95.463" cy="102.957" r="5.78088" fill="#7FC782"/>
<path opacity="0.8" d="M93.855 100.548H95.2499C95.3028 100.548 95.362 100.551 95.4275 100.556C95.4956 100.558 95.5649 100.566 95.6354 100.579C95.9177 100.624 96.1571 100.725 96.3537 100.881C96.5527 101.035 96.7027 101.229 96.8035 101.463C96.9068 101.695 96.9585 101.953 96.9585 102.238C96.9585 102.629 96.8627 102.969 96.6712 103.259C96.4797 103.546 96.1974 103.745 95.8244 103.856C95.7337 103.881 95.6417 103.899 95.5485 103.909C95.4578 103.919 95.3532 103.924 95.2347 103.924H93.855V103.395H95.2347C95.2826 103.395 95.3368 103.392 95.3973 103.387C95.4578 103.382 95.517 103.373 95.5749 103.361C95.7589 103.32 95.9114 103.245 96.0323 103.134C96.1533 103.021 96.2428 102.886 96.3007 102.729C96.3587 102.571 96.3877 102.407 96.3877 102.238C96.3877 102.069 96.3587 101.907 96.3007 101.75C96.2428 101.592 96.1533 101.456 96.0323 101.342C95.9114 101.226 95.7589 101.149 95.5749 101.112C95.517 101.099 95.4578 101.091 95.3973 101.089C95.3368 101.084 95.2826 101.081 95.2347 101.081H93.855V100.548ZM93.855 103.924L94.4144 103.712L96.9963 105.992H96.1949L93.855 103.924ZM93.8663 102.469V102.004H97.4877V102.469H93.8663ZM95.2045 101.013V100.548H97.4801V101.013H95.2045Z" fill="white"/>
<path d="M113.658 91.8079C113.539 93.9411 114.653 98.2075 120.057 98.2075C120.176 96.6669 119.062 93.23 113.658 91.8079Z" fill="#FFE085"/>
<path opacity="0.5" d="M127.088 95.363C127.18 97.0222 126.316 100.341 122.124 100.341C122.032 99.1423 122.896 96.4692 127.088 95.363Z" fill="#FFE085"/>
<path opacity="0.7" d="M121.155 91.2488H121.582V104.509H121.155V91.2488Z" fill="#FFE085"/>
<circle cx="121.797" cy="85.4081" r="7.11073" fill="#FFE085"/>
<path opacity="0.8" d="M119.82 82.4453H121.536C121.601 82.4453 121.674 82.4484 121.754 82.4546C121.838 82.4577 121.923 82.467 122.01 82.4825C122.357 82.5383 122.652 82.6623 122.893 82.8545C123.138 83.0436 123.323 83.2823 123.447 83.5705C123.574 83.8557 123.637 84.1735 123.637 84.5237C123.637 85.0042 123.519 85.4227 123.284 85.7792C123.048 86.1326 122.701 86.3774 122.242 86.5138C122.131 86.5448 122.018 86.5665 121.903 86.5789C121.791 86.5913 121.663 86.5975 121.517 86.5975H119.82V85.9466H121.517C121.576 85.9466 121.643 85.9435 121.717 85.9373C121.791 85.9311 121.864 85.9202 121.935 85.9047C122.162 85.8551 122.349 85.7621 122.498 85.6257C122.647 85.4862 122.757 85.3204 122.828 85.1282C122.9 84.9329 122.935 84.7314 122.935 84.5237C122.935 84.3161 122.9 84.1161 122.828 83.9239C122.757 83.7286 122.647 83.5613 122.498 83.4218C122.349 83.2792 122.162 83.1846 121.935 83.1381C121.864 83.1226 121.791 83.1133 121.717 83.1102C121.643 83.104 121.576 83.1009 121.517 83.1009H119.82V82.4453ZM119.82 86.5975L120.508 86.3371L123.684 89.1409H122.698L119.82 86.5975ZM119.834 84.8074V84.2355H124.288V84.8074H119.834ZM121.48 83.0172V82.4453H124.279V83.0172H121.48Z" fill="white"/>
<defs>
<filter id="filter0_f_2329_5884" x="0" y="-2" width="250" height="250" filterUnits="userSpaceOnUse" color-interpolation-filters="sRGB">
<feFlood flood-opacity="0" result="BackgroundImageFix"/>
<feBlend mode="normal" in="SourceGraphic" in2="BackgroundImageFix" result="shape"/>
<feGaussianBlur stdDeviation="25" result="effect1_foregroundBlur_2329_5884"/>
</filter>
</defs>
</svg>
