<svg width="24" height="24" viewBox="0 0 24 24" fill="none" xmlns="http://www.w3.org/2000/svg">
<path d="M0 3.42857C0 1.53502 1.53502 0 3.42857 0H20.5714C22.465 0 24 1.53502 24 3.42857V20.5714C24 22.465 22.465 24 20.5714 24H3.42857C1.53502 24 0 22.465 0 20.5714V3.42857Z" fill="#F3F6F6"/>
<path fill-rule="evenodd" clip-rule="evenodd" d="M7.71484 14.2888V18.009C7.71484 18.2632 7.92566 18.474 8.17989 18.474C8.43411 18.474 8.64493 18.2632 8.64493 18.009V14.7538H15.1245C16.4576 14.7538 16.8979 14.1834 17.0405 13.8547C17.1769 13.5137 17.2699 12.8068 16.3212 11.8582L15.5523 11.0955C15.4221 10.9777 15.3477 10.8103 15.3415 10.6243C15.3353 10.4072 15.4221 10.1902 15.5771 10.0352L16.3212 9.29113C17.2885 8.32385 17.1955 7.61698 17.0591 7.28215C16.9165 6.94732 16.4824 6.38307 15.1245 6.38307H8.64493V5.60786C8.64493 5.35364 8.43411 5.14282 8.17989 5.14282C7.92566 5.14282 7.71484 5.35364 7.71484 5.60786V6.84812V14.2888ZM8.64493 13.8237H15.1245C15.8004 13.8237 16.1166 13.6439 16.1786 13.4889C16.2406 13.3339 16.1476 12.9867 15.6639 12.5092L14.9199 11.7652C14.6161 11.4985 14.43 11.0955 14.4114 10.6491C14.3928 10.1778 14.5789 9.71277 14.9199 9.37174L15.6639 8.62767C16.1228 8.16883 16.2654 7.7968 16.1972 7.63559C16.129 7.47437 15.7756 7.31316 15.1245 7.31316H8.64493V13.8237Z" fill="#608080"/>
</svg>
