<svg width="24" height="24" viewBox="0 0 24 24" fill="none" xmlns="http://www.w3.org/2000/svg">
<path d="M6.93359 18.6668V5.3335C6.93359 5.06016 7.16026 4.8335 7.43359 4.8335C7.70693 4.8335 7.93359 5.06016 7.93359 5.3335V18.6668C7.93359 18.9402 7.70693 19.1668 7.43359 19.1668C7.16026 19.1668 6.93359 18.9402 6.93359 18.6668Z" fill="#608080"/>
<path d="M7.43359 15.1665C7.16026 15.1665 6.93359 14.9398 6.93359 14.6665C6.93359 14.3932 7.16026 14.1665 7.43359 14.1665H14.9003C15.6269 14.1665 15.9669 13.9732 16.0336 13.8065C16.1003 13.6398 16.0003 13.2665 15.4803 12.7532L14.6803 11.9532C14.3536 11.6665 14.1536 11.2332 14.1336 10.7532C14.1136 10.2465 14.3136 9.7465 14.6803 9.37984L15.4803 8.57984C15.9736 8.0865 16.1269 7.6865 16.0536 7.51317C15.9803 7.33984 15.6003 7.1665 14.9003 7.1665H7.43359C7.15359 7.1665 6.93359 6.93984 6.93359 6.6665C6.93359 6.39317 7.16026 6.1665 7.43359 6.1665H14.9003C16.3603 6.1665 16.8269 6.77317 16.9803 7.13317C17.1269 7.49317 17.2269 8.25317 16.1869 9.29317L15.3869 10.0932C15.2203 10.2598 15.1269 10.4932 15.1336 10.7265C15.1403 10.9265 15.2203 11.1065 15.3603 11.2332L16.1869 12.0532C17.2069 13.0732 17.1069 13.8332 16.9603 14.1998C16.8069 14.5532 16.3336 15.1665 14.9003 15.1665H7.43359Z" fill="#608080"/>
</svg>
