<svg width="24" height="24" viewBox="0 0 24 24" fill="none" xmlns="http://www.w3.org/2000/svg">
<path d="M0 3.42857C0 1.53502 1.53502 0 3.42857 0H20.5714C22.465 0 24 1.53502 24 3.42857V20.5714C24 22.465 22.465 24 20.5714 24H3.42857C1.53502 24 0 22.465 0 20.5714V3.42857Z" fill="#232F2F"/>
<path fill-rule="evenodd" clip-rule="evenodd" d="M7.71436 14.289V18.0092C7.71436 18.2634 7.92517 18.4742 8.1794 18.4742C8.43362 18.4742 8.64444 18.2634 8.64444 18.0092V14.7541H15.124C16.4571 14.7541 16.8974 14.1836 17.04 13.855C17.1764 13.514 17.2694 12.8071 16.3207 11.8584L15.5519 11.0957C15.4216 10.9779 15.3472 10.8105 15.341 10.6245C15.3348 10.4075 15.4216 10.1905 15.5767 10.0354L16.3207 9.29138C17.288 8.32409 17.195 7.61723 17.0586 7.2824C16.916 6.94757 16.4819 6.38332 15.124 6.38332H8.64444V5.60811C8.64444 5.35389 8.43362 5.14307 8.1794 5.14307C7.92517 5.14307 7.71436 5.35389 7.71436 5.60811V6.84836V14.289ZM8.64444 13.824H15.124C15.7999 13.824 16.1161 13.6442 16.1781 13.4891C16.2401 13.3341 16.1471 12.9869 15.6635 12.5095L14.9194 11.7654C14.6156 11.4988 14.4296 11.0957 14.4109 10.6493C14.3923 10.1781 14.5784 9.71301 14.9194 9.37198L15.6635 8.62792C16.1223 8.16908 16.2649 7.79704 16.1967 7.63583C16.1285 7.47462 15.7751 7.3134 15.124 7.3134H8.64444V13.824Z" fill="#608080"/>
</svg>
