<svg width="26" height="26" viewBox="0 0 26 26" fill="none" xmlns="http://www.w3.org/2000/svg">
<path d="M0 4C0 1.79086 1.79086 0 4 0H21.1429C23.352 0 25.1429 1.79086 25.1429 4V21.1429C25.1429 23.352 23.352 25.1429 21.1429 25.1429H4C1.79086 25.1429 0 23.352 0 21.1429V4Z" fill="#2E1042"/>
<path fill-rule="evenodd" clip-rule="evenodd" d="M10.5143 19.4286C6.6606 19.4286 5.88574 17.6115 5.88574 14.6766V10.4458C5.88574 7.1955 6.98289 5.87207 9.80117 5.71436H15.3143C18.16 5.87207 19.2572 7.1955 19.2572 10.4458V14.8001C19.2572 14.9195 19.2151 15.0303 19.1452 15.1182C19.1331 15.1339 19.1202 15.149 19.1063 15.1635L14.992 19.2778C14.9022 19.3676 14.7823 19.4215 14.6548 19.428C14.6461 19.4284 14.6374 19.4286 14.6286 19.4286H10.5143ZM14.1143 18.4001V16.8572C14.1143 15.1978 15.0263 14.2858 16.6857 14.2858H18.2286V10.4458C18.2286 7.45607 17.2343 6.85264 15.2869 6.74293H13.7029V9.7921C13.7029 10.3092 13.1294 10.6201 12.696 10.338L11.2 9.36406L9.70402 10.338C9.27069 10.6201 8.69718 10.3092 8.69718 9.7921V6.907C7.51945 7.23333 6.91431 8.11339 6.91431 10.4458V14.6766C6.91431 17.3029 7.41489 18.4001 10.5143 18.4001H14.1143ZM9.8286 6.74293H12.8115V9.34947L11.5555 8.53176C11.3394 8.39109 11.0607 8.39109 10.8446 8.53176L9.5886 9.34947V6.75975C9.66692 6.75315 9.74692 6.74759 9.8286 6.74293ZM15.1429 17.6732V16.8572C15.1429 15.7738 15.6023 15.3144 16.6857 15.3144H17.5017L15.1429 17.6732Z" fill="#943ACF"/>
</svg>
