<svg width="24" height="24" viewBox="0 0 24 24" fill="none" xmlns="http://www.w3.org/2000/svg">
<path d="M0 12C0 5.37258 5.37258 0 12 0C18.6274 0 24 5.37258 24 12C24 18.6274 18.6274 24 12 24C5.37258 24 0 18.6274 0 12Z" fill="#F0F0F0"/>
<rect x="11.5586" y="4.60229" width="0.854966" height="2.84989" rx="0.427483" fill="#404040"/>
<rect x="16.2686" y="7.05249" width="0.971552" height="1.93258" rx="0.485776" transform="rotate(45 16.2686 7.05249)" fill="#404040"/>
<rect x="9.34473" y="8.49438" width="0.971552" height="1.93258" rx="0.485776" transform="rotate(135 9.34473 8.49438)" fill="#404040"/>
<rect x="16.957" y="16.2668" width="0.971552" height="1.93258" rx="0.485776" transform="rotate(135 16.957 16.2668)" fill="#404040"/>
<rect x="8.65918" y="14.9011" width="0.971552" height="1.93258" rx="0.485776" transform="rotate(45 8.65918 14.9011)" fill="#404040"/>
<rect x="11.5" y="16.52" width="0.971552" height="2.84989" rx="0.485776" fill="#404040"/>
<rect x="19.3711" y="11.5591" width="0.854966" height="2.84989" rx="0.427483" transform="rotate(90 19.3711 11.5591)" fill="#404040"/>
<rect x="7.45312" y="11.5591" width="0.854985" height="2.84995" rx="0.427493" transform="rotate(90 7.45312 11.5591)" fill="#404040"/>
<ellipse cx="12.0683" cy="11.9859" rx="3.4814" ry="3.56236" fill="#404040"/>
</svg>
