<svg width="64" height="64" viewBox="0 0 64 64" fill="none" xmlns="http://www.w3.org/2000/svg">
<g clip-path="url(#clip0_296_13447)">
<rect x="0.142199" y="0.142199" width="63.7156" height="63.7156" stroke="black" stroke-opacity="0.05" stroke-width="0.284399" stroke-linejoin="bevel"/>
<path d="M30.2402 20.1875C30.7924 20.1875 31.2401 20.6353 31.2402 21.1875V50.5879L27.1211 43.9199V34.2109H22.2666C21.7486 34.2108 21.2669 33.9437 20.9932 33.5039L18.6875 29.7979H27.1211V25.9736H16.9121C16.5546 25.9736 16.2244 25.7824 16.0459 25.4727L13 20.1875H30.2402ZM47.9541 25.4727C47.7756 25.7824 47.4454 25.9736 47.0879 25.9736H36.8789V29.7979H45.2139L43.0029 33.4824C42.7318 33.9342 42.2437 34.2109 41.7168 34.2109H36.8789V43.9189L32.7598 50.5879V21.1875C32.7598 20.6353 33.2075 20.1876 33.7598 20.1875H51L47.9541 25.4727Z" fill="#436AF5"/>
</g>
<defs>
<clipPath id="clip0_296_13447">
<rect width="64" height="64" rx="32" fill="white"/>
</clipPath>
</defs>
</svg>
