<svg width="20" height="21" viewBox="0 0 20 21" fill="none" xmlns="http://www.w3.org/2000/svg">
<path d="M14.5386 13.0228C14.277 12.7576 14.277 12.3188 14.5386 12.0536L16.3697 10.1976L14.5386 8.34163C14.277 8.07648 14.277 7.63763 14.5386 7.37248C14.8002 7.10734 15.2332 7.10734 15.4947 7.37248L17.8038 9.71305C18.0654 9.9782 18.0654 10.4171 17.8038 10.6822L15.4947 13.0228C15.3594 13.1599 15.1881 13.2239 15.0167 13.2239C14.8453 13.2239 14.6739 13.1599 14.5386 13.0228Z" fill="#F50000"/>
<path d="M8.08842 10.8834C7.71861 10.8834 7.41193 10.5726 7.41193 10.1977C7.41193 9.82288 7.71861 9.51202 8.08842 9.51202H17.2616C17.6315 9.51202 17.9381 9.82288 17.9381 10.1977C17.9381 10.5726 17.6315 10.8834 17.2616 10.8834H8.08842Z" fill="#F50000"/>
<path d="M2 10.1428C2 5.43425 5.24716 2.14282 9.8924 2.14282C10.2622 2.14282 10.5689 2.45368 10.5689 2.82854C10.5689 3.20339 10.2622 3.51425 9.8924 3.51425C6.04091 3.51425 3.35298 6.23882 3.35298 10.1428C3.35298 14.0468 6.04091 16.7714 9.8924 16.7714C10.2622 16.7714 10.5689 17.0823 10.5689 17.4571C10.5689 17.832 10.2622 18.1428 9.8924 18.1428C5.24716 18.1428 2 14.8514 2 10.1428Z" fill="#F50000"/>
</svg>
