<svg width="20" height="20" viewBox="0 0 20 20" fill="none" xmlns="http://www.w3.org/2000/svg">
<path fill-rule="evenodd" clip-rule="evenodd" d="M1.99951 12.4884C1.99951 15.2047 3.5623 16.7674 6.27858 16.7674H13.7204C16.4367 16.7674 17.9995 15.2047 17.9995 12.4884V7.27907C17.9995 4.56279 16.4367 3 13.7204 3H6.27858C3.5623 3 1.99951 4.56279 1.99951 7.27907V12.4884ZM3.11579 12.4884V7.27907C3.11579 5.1507 4.15021 4.11628 6.27858 4.11628H13.7204C15.8488 4.11628 16.8832 5.1507 16.8832 7.27907V12.4884C16.8832 14.6167 15.8488 15.6512 13.7204 15.6512H6.27858C4.15021 15.6512 3.11579 14.6167 3.11579 12.4884ZM5.92792 8.08277L8.25723 9.94323C8.74095 10.3377 9.3735 10.5311 9.99862 10.5311C10.6237 10.5311 11.2563 10.3377 11.7326 9.94323L14.0619 8.08277C14.3075 7.89672 14.3447 7.53951 14.1512 7.30137C13.9651 7.05579 13.6079 7.01859 13.3698 7.21207L11.0405 9.07254C10.4749 9.52649 9.5149 9.52649 8.94931 9.07254L6.62002 7.21207C6.38188 7.01859 6.03211 7.06323 5.83862 7.30137C5.64513 7.53951 5.68978 7.88928 5.92792 8.08277Z" fill="#404040"/>
</svg>
