<svg width="42" height="42" viewBox="0 0 42 42" fill="none" xmlns="http://www.w3.org/2000/svg">
<rect width="42" height="42" rx="6.17647" fill="#EFFBEF"/>
<path fill-rule="evenodd" clip-rule="evenodd" d="M6.48569 29.6469C4.95064 29.6469 3.68281 28.394 3.92668 26.8784C5.2518 18.6433 12.3915 12.353 21.0004 12.353C29.6092 12.353 36.7489 18.6433 38.074 26.8784C38.3179 28.394 37.0501 29.6469 35.515 29.6469C33.98 29.6469 32.7695 28.3849 32.4105 26.8924C31.1712 21.7403 26.533 17.9119 21.0004 17.9119C15.4678 17.9119 10.8295 21.7403 9.59018 26.8924C9.23117 28.3849 8.0207 29.6469 6.48569 29.6469Z" fill="url(#paint0_linear_1778_2472)"/>
<circle cx="34.2794" cy="23.7792" r="2.47059" stroke="white" stroke-width="0.617647"/>
<defs>
<linearGradient id="paint0_linear_1778_2472" x1="3.89648" y1="30.5734" x2="35.6614" y2="29.6671" gradientUnits="userSpaceOnUse">
<stop stop-color="#EFFBEF"/>
<stop offset="1" stop-color="#7FC782"/>
</linearGradient>
</defs>
</svg>
