<svg width="74" height="74" viewBox="0 0 74 74" fill="none" xmlns="http://www.w3.org/2000/svg">
<rect width="74" height="74" rx="10.8824" fill="#291F00"/>
<path d="M37.001 21.7649C52.1685 21.765 64.7481 32.8473 67.0832 47.3563C67.5129 50.0268 65.2789 52.2346 62.5741 52.2346C59.8693 52.2346 57.7365 50.0108 57.1038 47.3811C54.92 38.3039 46.7485 31.559 37.001 31.5588C27.2531 31.5588 19.0809 38.3041 16.8971 47.3816C16.2645 50.011 14.1319 52.2346 11.4274 52.2346C8.7228 52.2346 6.48902 50.027 6.91871 47.3568C9.25358 32.8475 21.8332 21.7649 37.001 21.7649Z" fill="url(#paint0_linear_5261_16312)"/>
<circle cx="36.8971" cy="26.8971" r="4.35294" stroke="#D0D0D0" stroke-width="1.08824"/>
<defs>
<linearGradient id="paint0_linear_5261_16312" x1="-19.5874" y1="54.9551" x2="62.833" y2="52.287" gradientUnits="userSpaceOnUse">
<stop stop-color="#291F00"/>
<stop offset="1" stop-color="#B88A00"/>
</linearGradient>
</defs>
</svg>
