<svg width="340" height="72" viewBox="0 0 340 72" fill="none" xmlns="http://www.w3.org/2000/svg">
<path d="M0 8C0 3.58172 3.58172 0 8 0H332C336.418 0 340 3.58172 340 8V64C340 68.4183 336.418 72 332 72H8C3.58172 72 0 68.4183 0 64V8Z" fill="url(#paint0_linear_5306_22142)"/>
<path d="M16 36C16 24.9543 24.9543 16 36 16C47.0457 16 56 24.9543 56 36C56 47.0457 47.0457 56 36 56C24.9543 56 16 47.0457 16 36Z" fill="url(#paint1_linear_5306_22142)"/>
<path d="M31.0574 44V41.3556H24V38.8556L29.0995 28H32.1414L27.042 38.8556H31.0574V34.6889H33.7565V38.8556H35.2498V41.3556H33.7565V44H31.0574Z" fill="white"/>
<path d="M36.1861 44L40.5555 37.9333L36.2746 32H39.4161L42.1041 35.8333L44.7478 32H47.8894L43.6085 37.9333L48 44H44.8585L42.1041 40.0333L39.3276 44H36.1861Z" fill="white"/>
<path d="M64.84 32.5V23.86H66.142L69.13 29.98L72.118 23.86H73.42V32.5H72.07V26.962L69.418 32.5H68.842L66.196 26.962V32.5H64.84ZM76.9176 32.68C76.4496 32.68 76.0536 32.592 75.7296 32.416C75.4056 32.236 75.1596 31.998 74.9916 31.702C74.8276 31.406 74.7456 31.08 74.7456 30.724C74.7456 30.412 74.7976 30.132 74.9016 29.884C75.0056 29.632 75.1656 29.416 75.3816 29.236C75.5976 29.052 75.8776 28.902 76.2216 28.786C76.4816 28.702 76.7856 28.626 77.1336 28.558C77.4856 28.49 77.8656 28.428 78.2736 28.372C78.6856 28.312 79.1156 28.248 79.5636 28.18L79.0476 28.474C79.0516 28.026 78.9516 27.696 78.7476 27.484C78.5436 27.272 78.1996 27.166 77.7156 27.166C77.4236 27.166 77.1416 27.234 76.8696 27.37C76.5976 27.506 76.4076 27.74 76.2996 28.072L74.9796 27.658C75.1396 27.11 75.4436 26.67 75.8916 26.338C76.3436 26.006 76.9516 25.84 77.7156 25.84C78.2916 25.84 78.7976 25.934 79.2336 26.122C79.6736 26.31 79.9996 26.618 80.2116 27.046C80.3276 27.274 80.3976 27.508 80.4216 27.748C80.4456 27.984 80.4576 28.242 80.4576 28.522V32.5H79.1916V31.096L79.4016 31.324C79.1096 31.792 78.7676 32.136 78.3756 32.356C77.9876 32.572 77.5016 32.68 76.9176 32.68ZM77.2056 31.528C77.5336 31.528 77.8136 31.47 78.0456 31.354C78.2776 31.238 78.4616 31.096 78.5976 30.928C78.7376 30.76 78.8316 30.602 78.8796 30.454C78.9556 30.27 78.9976 30.06 79.0056 29.824C79.0176 29.584 79.0236 29.39 79.0236 29.242L79.4676 29.374C79.0316 29.442 78.6576 29.502 78.3456 29.554C78.0336 29.606 77.7656 29.656 77.5416 29.704C77.3176 29.748 77.1196 29.798 76.9476 29.854C76.7796 29.914 76.6376 29.984 76.5216 30.064C76.4056 30.144 76.3156 30.236 76.2516 30.34C76.1916 30.444 76.1616 30.566 76.1616 30.706C76.1616 30.866 76.2016 31.008 76.2816 31.132C76.3616 31.252 76.4776 31.348 76.6296 31.42C76.7856 31.492 76.9776 31.528 77.2056 31.528ZM82.0197 32.5V26.02H83.2977V27.598L83.1417 27.394C83.2217 27.178 83.3277 26.982 83.4597 26.806C83.5957 26.626 83.7577 26.478 83.9457 26.362C84.1057 26.254 84.2817 26.17 84.4737 26.11C84.6697 26.046 84.8697 26.008 85.0737 25.996C85.2777 25.98 85.4757 25.988 85.6677 26.02V27.37C85.4757 27.314 85.2537 27.296 85.0017 27.316C84.7537 27.336 84.5297 27.406 84.3297 27.526C84.1297 27.634 83.9657 27.772 83.8377 27.94C83.7137 28.108 83.6217 28.3 83.5617 28.516C83.5017 28.728 83.4717 28.958 83.4717 29.206V32.5H82.0197ZM89.3023 35.56C88.9423 35.56 88.5963 35.504 88.2643 35.392C87.9363 35.28 87.6403 35.118 87.3763 34.906C87.1123 34.698 86.8963 34.446 86.7283 34.15L88.0603 33.49C88.1843 33.726 88.3583 33.9 88.5823 34.012C88.8103 34.128 89.0523 34.186 89.3083 34.186C89.6083 34.186 89.8763 34.132 90.1123 34.024C90.3483 33.92 90.5303 33.764 90.6583 33.556C90.7903 33.352 90.8523 33.096 90.8443 32.788V30.946H91.0243V26.02H92.2903V32.812C92.2903 32.976 92.2823 33.132 92.2663 33.28C92.2543 33.432 92.2323 33.58 92.2003 33.724C92.1043 34.144 91.9203 34.488 91.6483 34.756C91.3763 35.028 91.0383 35.23 90.6343 35.362C90.2343 35.494 89.7903 35.56 89.3023 35.56ZM89.1763 32.68C88.5803 32.68 88.0603 32.53 87.6163 32.23C87.1723 31.93 86.8283 31.522 86.5843 31.006C86.3403 30.49 86.2183 29.908 86.2183 29.26C86.2183 28.604 86.3403 28.02 86.5843 27.508C86.8323 26.992 87.1823 26.586 87.6343 26.29C88.0863 25.99 88.6183 25.84 89.2303 25.84C89.8463 25.84 90.3623 25.99 90.7783 26.29C91.1983 26.586 91.5163 26.992 91.7323 27.508C91.9483 28.024 92.0563 28.608 92.0563 29.26C92.0563 29.904 91.9483 30.486 91.7323 31.006C91.5163 31.522 91.1943 31.93 90.7663 32.23C90.3383 32.53 89.8083 32.68 89.1763 32.68ZM89.3983 31.384C89.7863 31.384 90.0983 31.296 90.3343 31.12C90.5743 30.94 90.7483 30.69 90.8563 30.37C90.9683 30.05 91.0243 29.68 91.0243 29.26C91.0243 28.836 90.9683 28.466 90.8563 28.15C90.7483 27.83 90.5783 27.582 90.3463 27.406C90.1143 27.226 89.8143 27.136 89.4463 27.136C89.0583 27.136 88.7383 27.232 88.4863 27.424C88.2343 27.612 88.0483 27.868 87.9283 28.192C87.8083 28.512 87.7483 28.868 87.7483 29.26C87.7483 29.656 87.8063 30.016 87.9223 30.34C88.0423 30.66 88.2243 30.914 88.4683 31.102C88.7123 31.29 89.0223 31.384 89.3983 31.384ZM94.0928 25.036V23.71H95.5388V25.036H94.0928ZM94.0928 32.5V26.02H95.5388V32.5H94.0928ZM101.818 32.5V29.38C101.818 29.176 101.804 28.95 101.776 28.702C101.748 28.454 101.682 28.216 101.578 27.988C101.478 27.756 101.326 27.566 101.122 27.418C100.922 27.27 100.65 27.196 100.306 27.196C100.122 27.196 99.9401 27.226 99.7601 27.286C99.5801 27.346 99.4161 27.45 99.2681 27.598C99.1241 27.742 99.0081 27.942 98.9201 28.198C98.8321 28.45 98.7881 28.774 98.7881 29.17L97.9301 28.804C97.9301 28.252 98.0361 27.752 98.2481 27.304C98.4641 26.856 98.7801 26.5 99.1961 26.236C99.6121 25.968 100.124 25.834 100.732 25.834C101.212 25.834 101.608 25.914 101.92 26.074C102.232 26.234 102.48 26.438 102.664 26.686C102.848 26.934 102.984 27.198 103.072 27.478C103.16 27.758 103.216 28.024 103.24 28.276C103.268 28.524 103.282 28.726 103.282 28.882V32.5H101.818ZM97.3241 32.5V26.02H98.6141V28.03H98.7881V32.5H97.3241ZM109.326 32.5V25.216H106.53V23.86H113.568V25.216H110.772V32.5H109.326ZM113.93 32.5V26.02H115.208V27.598L115.052 27.394C115.132 27.178 115.238 26.982 115.37 26.806C115.506 26.626 115.668 26.478 115.856 26.362C116.016 26.254 116.192 26.17 116.384 26.11C116.58 26.046 116.78 26.008 116.984 25.996C117.188 25.98 117.386 25.988 117.578 26.02V27.37C117.386 27.314 117.164 27.296 116.912 27.316C116.664 27.336 116.44 27.406 116.24 27.526C116.04 27.634 115.876 27.772 115.748 27.94C115.624 28.108 115.532 28.3 115.472 28.516C115.412 28.728 115.382 28.958 115.382 29.206V32.5H113.93ZM120.382 32.68C119.914 32.68 119.518 32.592 119.194 32.416C118.87 32.236 118.624 31.998 118.456 31.702C118.292 31.406 118.21 31.08 118.21 30.724C118.21 30.412 118.262 30.132 118.366 29.884C118.47 29.632 118.63 29.416 118.846 29.236C119.062 29.052 119.342 28.902 119.686 28.786C119.946 28.702 120.25 28.626 120.598 28.558C120.95 28.49 121.33 28.428 121.738 28.372C122.15 28.312 122.58 28.248 123.028 28.18L122.512 28.474C122.516 28.026 122.416 27.696 122.212 27.484C122.008 27.272 121.664 27.166 121.18 27.166C120.888 27.166 120.606 27.234 120.334 27.37C120.062 27.506 119.872 27.74 119.764 28.072L118.444 27.658C118.604 27.11 118.908 26.67 119.356 26.338C119.808 26.006 120.416 25.84 121.18 25.84C121.756 25.84 122.262 25.934 122.698 26.122C123.138 26.31 123.464 26.618 123.676 27.046C123.792 27.274 123.862 27.508 123.886 27.748C123.91 27.984 123.922 28.242 123.922 28.522V32.5H122.656V31.096L122.866 31.324C122.574 31.792 122.232 32.136 121.84 32.356C121.452 32.572 120.966 32.68 120.382 32.68ZM120.67 31.528C120.998 31.528 121.278 31.47 121.51 31.354C121.742 31.238 121.926 31.096 122.062 30.928C122.202 30.76 122.296 30.602 122.344 30.454C122.42 30.27 122.462 30.06 122.47 29.824C122.482 29.584 122.488 29.39 122.488 29.242L122.932 29.374C122.496 29.442 122.122 29.502 121.81 29.554C121.498 29.606 121.23 29.656 121.006 29.704C120.782 29.748 120.584 29.798 120.412 29.854C120.244 29.914 120.102 29.984 119.986 30.064C119.87 30.144 119.78 30.236 119.716 30.34C119.656 30.444 119.626 30.566 119.626 30.706C119.626 30.866 119.666 31.008 119.746 31.132C119.826 31.252 119.942 31.348 120.094 31.42C120.25 31.492 120.442 31.528 120.67 31.528ZM128.083 32.68C127.487 32.68 126.967 32.53 126.523 32.23C126.079 31.93 125.735 31.522 125.491 31.006C125.247 30.49 125.125 29.908 125.125 29.26C125.125 28.604 125.247 28.02 125.491 27.508C125.739 26.992 126.089 26.586 126.541 26.29C126.993 25.99 127.525 25.84 128.137 25.84C128.753 25.84 129.269 25.99 129.685 26.29C130.105 26.586 130.423 26.992 130.639 27.508C130.855 28.024 130.963 28.608 130.963 29.26C130.963 29.904 130.855 30.486 130.639 31.006C130.423 31.522 130.101 31.93 129.673 32.23C129.245 32.53 128.715 32.68 128.083 32.68ZM128.305 31.384C128.693 31.384 129.005 31.296 129.241 31.12C129.481 30.94 129.655 30.69 129.763 30.37C129.875 30.05 129.931 29.68 129.931 29.26C129.931 28.836 129.875 28.466 129.763 28.15C129.655 27.83 129.485 27.582 129.253 27.406C129.021 27.226 128.721 27.136 128.353 27.136C127.965 27.136 127.645 27.232 127.393 27.424C127.141 27.612 126.955 27.868 126.835 28.192C126.715 28.512 126.655 28.868 126.655 29.26C126.655 29.656 126.713 30.016 126.829 30.34C126.949 30.66 127.131 30.914 127.375 31.102C127.619 31.29 127.929 31.384 128.305 31.384ZM129.931 32.5V27.952H129.751V23.86H131.209V32.5H129.931ZM133.011 25.036V23.71H134.457V25.036H133.011ZM133.011 32.5V26.02H134.457V32.5H133.011ZM140.736 32.5V29.38C140.736 29.176 140.722 28.95 140.694 28.702C140.666 28.454 140.6 28.216 140.496 27.988C140.396 27.756 140.244 27.566 140.04 27.418C139.84 27.27 139.568 27.196 139.224 27.196C139.04 27.196 138.858 27.226 138.678 27.286C138.498 27.346 138.334 27.45 138.186 27.598C138.042 27.742 137.926 27.942 137.838 28.198C137.75 28.45 137.706 28.774 137.706 29.17L136.848 28.804C136.848 28.252 136.954 27.752 137.166 27.304C137.382 26.856 137.698 26.5 138.114 26.236C138.53 25.968 139.042 25.834 139.65 25.834C140.13 25.834 140.526 25.914 140.838 26.074C141.15 26.234 141.398 26.438 141.582 26.686C141.766 26.934 141.902 27.198 141.99 27.478C142.078 27.758 142.134 28.024 142.158 28.276C142.186 28.524 142.2 28.726 142.2 28.882V32.5H140.736ZM136.242 32.5V26.02H137.532V28.03H137.706V32.5H136.242ZM146.49 35.56C146.13 35.56 145.784 35.504 145.452 35.392C145.124 35.28 144.828 35.118 144.564 34.906C144.3 34.698 144.084 34.446 143.916 34.15L145.248 33.49C145.372 33.726 145.546 33.9 145.77 34.012C145.998 34.128 146.24 34.186 146.496 34.186C146.796 34.186 147.064 34.132 147.3 34.024C147.536 33.92 147.718 33.764 147.846 33.556C147.978 33.352 148.04 33.096 148.032 32.788V30.946H148.212V26.02H149.478V32.812C149.478 32.976 149.47 33.132 149.454 33.28C149.442 33.432 149.42 33.58 149.388 33.724C149.292 34.144 149.108 34.488 148.836 34.756C148.564 35.028 148.226 35.23 147.822 35.362C147.422 35.494 146.978 35.56 146.49 35.56ZM146.364 32.68C145.768 32.68 145.248 32.53 144.804 32.23C144.36 31.93 144.016 31.522 143.772 31.006C143.528 30.49 143.406 29.908 143.406 29.26C143.406 28.604 143.528 28.02 143.772 27.508C144.02 26.992 144.37 26.586 144.822 26.29C145.274 25.99 145.806 25.84 146.418 25.84C147.034 25.84 147.55 25.99 147.966 26.29C148.386 26.586 148.704 26.992 148.92 27.508C149.136 28.024 149.244 28.608 149.244 29.26C149.244 29.904 149.136 30.486 148.92 31.006C148.704 31.522 148.382 31.93 147.954 32.23C147.526 32.53 146.996 32.68 146.364 32.68ZM146.586 31.384C146.974 31.384 147.286 31.296 147.522 31.12C147.762 30.94 147.936 30.69 148.044 30.37C148.156 30.05 148.212 29.68 148.212 29.26C148.212 28.836 148.156 28.466 148.044 28.15C147.936 27.83 147.766 27.582 147.534 27.406C147.302 27.226 147.002 27.136 146.634 27.136C146.246 27.136 145.926 27.232 145.674 27.424C145.422 27.612 145.236 27.868 145.116 28.192C144.996 28.512 144.936 28.868 144.936 29.26C144.936 29.656 144.994 30.016 145.11 30.34C145.23 30.66 145.412 30.914 145.656 31.102C145.9 31.29 146.21 31.384 146.586 31.384ZM153.563 32.5V23.86H158.765V25.306H155.009V27.46H158.045V28.9H155.009V32.5H153.563ZM161.422 32.68C160.954 32.68 160.558 32.592 160.234 32.416C159.91 32.236 159.664 31.998 159.496 31.702C159.332 31.406 159.25 31.08 159.25 30.724C159.25 30.412 159.302 30.132 159.406 29.884C159.51 29.632 159.67 29.416 159.886 29.236C160.102 29.052 160.382 28.902 160.726 28.786C160.986 28.702 161.29 28.626 161.638 28.558C161.99 28.49 162.37 28.428 162.778 28.372C163.19 28.312 163.62 28.248 164.068 28.18L163.552 28.474C163.556 28.026 163.456 27.696 163.252 27.484C163.048 27.272 162.704 27.166 162.22 27.166C161.928 27.166 161.646 27.234 161.374 27.37C161.102 27.506 160.912 27.74 160.804 28.072L159.484 27.658C159.644 27.11 159.948 26.67 160.396 26.338C160.848 26.006 161.456 25.84 162.22 25.84C162.796 25.84 163.302 25.934 163.738 26.122C164.178 26.31 164.504 26.618 164.716 27.046C164.832 27.274 164.902 27.508 164.926 27.748C164.95 27.984 164.962 28.242 164.962 28.522V32.5H163.696V31.096L163.906 31.324C163.614 31.792 163.272 32.136 162.88 32.356C162.492 32.572 162.006 32.68 161.422 32.68ZM161.71 31.528C162.038 31.528 162.318 31.47 162.55 31.354C162.782 31.238 162.966 31.096 163.102 30.928C163.242 30.76 163.336 30.602 163.384 30.454C163.46 30.27 163.502 30.06 163.51 29.824C163.522 29.584 163.528 29.39 163.528 29.242L163.972 29.374C163.536 29.442 163.162 29.502 162.85 29.554C162.538 29.606 162.27 29.656 162.046 29.704C161.822 29.748 161.624 29.798 161.452 29.854C161.284 29.914 161.142 29.984 161.026 30.064C160.91 30.144 160.82 30.236 160.756 30.34C160.696 30.444 160.666 30.566 160.666 30.706C160.666 30.866 160.706 31.008 160.786 31.132C160.866 31.252 160.982 31.348 161.134 31.42C161.29 31.492 161.482 31.528 161.71 31.528ZM169.338 32.68C168.67 32.68 168.1 32.532 167.628 32.236C167.156 31.936 166.794 31.528 166.542 31.012C166.294 30.496 166.168 29.912 166.164 29.26C166.168 28.596 166.298 28.008 166.554 27.496C166.814 26.98 167.182 26.576 167.658 26.284C168.134 25.988 168.7 25.84 169.356 25.84C170.092 25.84 170.714 26.026 171.222 26.398C171.734 26.766 172.068 27.27 172.224 27.91L170.784 28.3C170.672 27.952 170.486 27.682 170.226 27.49C169.966 27.294 169.67 27.196 169.338 27.196C168.962 27.196 168.652 27.286 168.408 27.466C168.164 27.642 167.984 27.886 167.868 28.198C167.752 28.51 167.694 28.864 167.694 29.26C167.694 29.876 167.832 30.374 168.108 30.754C168.384 31.134 168.794 31.324 169.338 31.324C169.722 31.324 170.024 31.236 170.244 31.06C170.468 30.884 170.636 30.63 170.748 30.298L172.224 30.628C172.024 31.288 171.674 31.796 171.174 32.152C170.674 32.504 170.062 32.68 169.338 32.68ZM173.37 25.036V23.71H174.816V25.036H173.37ZM173.37 32.5V26.02H174.816V32.5H173.37ZM176.733 32.5V23.68H178.179V32.5H176.733ZM180.097 25.036V23.71H181.543V25.036H180.097ZM180.097 32.5V26.02H181.543V32.5H180.097ZM187.138 32.5C186.71 32.58 186.29 32.614 185.878 32.602C185.47 32.594 185.104 32.52 184.78 32.38C184.456 32.236 184.21 32.01 184.042 31.702C183.894 31.422 183.816 31.136 183.808 30.844C183.8 30.552 183.796 30.222 183.796 29.854V24.22H185.236V29.77C185.236 30.03 185.238 30.258 185.242 30.454C185.25 30.65 185.292 30.81 185.368 30.934C185.512 31.174 185.742 31.308 186.058 31.336C186.374 31.364 186.734 31.348 187.138 31.288V32.5ZM182.62 27.154V26.02H187.138V27.154H182.62ZM189.208 35.38L190.456 31.954L190.48 32.962L187.654 26.02H189.16L191.164 31.156H190.78L192.73 26.02H194.176L190.564 35.38H189.208ZM200.509 34.426C200.041 33.882 199.641 33.266 199.309 32.578C198.977 31.894 198.725 31.176 198.553 30.424C198.381 29.672 198.301 28.924 198.313 28.18C198.301 27.436 198.381 26.688 198.553 25.936C198.725 25.18 198.977 24.46 199.309 23.776C199.641 23.092 200.041 22.478 200.509 21.934L201.577 22.726C201.097 23.306 200.713 23.892 200.425 24.484C200.141 25.076 199.937 25.68 199.813 26.296C199.689 26.908 199.625 27.536 199.621 28.18C199.625 28.824 199.689 29.454 199.813 30.07C199.941 30.682 200.147 31.286 200.431 31.882C200.715 32.474 201.097 33.056 201.577 33.628L200.509 34.426ZM202.91 32.5V23.86H204.212L207.2 29.98L210.188 23.86H211.49V32.5H210.14V26.962L207.488 32.5H206.912L204.266 26.962V32.5H202.91ZM215.252 32.5V25.216H212.456V23.86H219.494V25.216H216.698V32.5H215.252ZM220.453 32.5V23.86H225.655V25.306H221.899V27.46H224.935V28.9H221.899V32.5H220.453ZM227.455 34.426L226.387 33.628C226.867 33.056 227.249 32.474 227.533 31.882C227.817 31.286 228.021 30.682 228.145 30.07C228.273 29.454 228.339 28.824 228.343 28.18C228.339 27.536 228.275 26.908 228.151 26.296C228.027 25.68 227.821 25.076 227.533 24.484C227.249 23.892 226.867 23.306 226.387 22.726L227.455 21.934C227.923 22.478 228.323 23.092 228.655 23.776C228.987 24.46 229.239 25.18 229.411 25.936C229.583 26.688 229.663 27.436 229.651 28.18C229.663 28.924 229.583 29.672 229.411 30.424C229.239 31.176 228.987 31.894 228.655 32.578C228.323 33.266 227.923 33.882 227.455 34.426Z" fill="#404040"/>
<path d="M66.8765 48.5V41.3555H64.11V40.58H70.4515V41.3555H67.685V48.5H66.8765ZM70.7856 48.5V42.56H71.5116V43.99L71.3686 43.803C71.4346 43.627 71.5208 43.4657 71.6271 43.319C71.7335 43.1687 71.849 43.0458 71.9736 42.9505C72.1276 42.8148 72.3073 42.7122 72.5126 42.6425C72.718 42.5692 72.9251 42.527 73.1341 42.516C73.3431 42.5013 73.5338 42.516 73.7061 42.56V43.319C73.4898 43.264 73.2533 43.2512 72.9966 43.2805C72.74 43.3098 72.5035 43.4125 72.2871 43.5885C72.0891 43.7425 71.9406 43.9277 71.8416 44.144C71.7426 44.3567 71.6766 44.584 71.6436 44.826C71.6106 45.0643 71.5941 45.3008 71.5941 45.5355V48.5H70.7856ZM76.2234 48.665C75.7761 48.665 75.4002 48.5843 75.0959 48.423C74.7952 48.2617 74.5697 48.0472 74.4194 47.7795C74.2691 47.5118 74.1939 47.2203 74.1939 46.905C74.1939 46.5823 74.2581 46.3073 74.3864 46.08C74.5184 45.849 74.6962 45.6602 74.9199 45.5135C75.1472 45.3668 75.4094 45.255 75.7064 45.178C76.0071 45.1047 76.3389 45.0405 76.7019 44.9855C77.0686 44.9268 77.4261 44.8773 77.7744 44.837C78.1264 44.793 78.4344 44.7508 78.6984 44.7105L78.4124 44.8865C78.4234 44.2998 78.3097 43.8653 78.0714 43.583C77.8331 43.3007 77.4187 43.1595 76.8284 43.1595C76.4214 43.1595 76.0767 43.2512 75.7944 43.4345C75.5157 43.6178 75.3196 43.9075 75.2059 44.3035L74.4194 44.0725C74.5551 43.5408 74.8282 43.1283 75.2389 42.835C75.6496 42.5417 76.1831 42.395 76.8394 42.395C77.3821 42.395 77.8422 42.4977 78.2199 42.703C78.6012 42.9047 78.8707 43.198 79.0284 43.583C79.1017 43.7553 79.1494 43.9478 79.1714 44.1605C79.1934 44.3732 79.2044 44.5895 79.2044 44.8095V48.5H78.4839V47.0095L78.6929 47.0975C78.4912 47.6072 78.1777 47.9958 77.7524 48.2635C77.3271 48.5312 76.8174 48.665 76.2234 48.665ZM76.3169 47.9665C76.6946 47.9665 77.0246 47.8987 77.3069 47.763C77.5892 47.6273 77.8166 47.4422 77.9889 47.2075C78.1612 46.9692 78.2731 46.7015 78.3244 46.4045C78.3684 46.2138 78.3922 46.0048 78.3959 45.7775C78.3996 45.5465 78.4014 45.3742 78.4014 45.2605L78.7094 45.42C78.4344 45.4567 78.1356 45.4933 77.8129 45.53C77.4939 45.5667 77.1786 45.6088 76.8669 45.6565C76.5589 45.7042 76.2802 45.761 76.0309 45.827C75.8622 45.8747 75.6991 45.9425 75.5414 46.0305C75.3837 46.1148 75.2536 46.2285 75.1509 46.3715C75.0519 46.5145 75.0024 46.6923 75.0024 46.905C75.0024 47.0773 75.0446 47.2442 75.1289 47.4055C75.2169 47.5668 75.3562 47.7007 75.5469 47.807C75.7412 47.9133 75.9979 47.9665 76.3169 47.9665ZM82.9407 48.665C82.387 48.665 81.914 48.5275 81.5217 48.2525C81.1294 47.9738 80.8287 47.598 80.6197 47.125C80.4107 46.652 80.3062 46.1185 80.3062 45.5245C80.3062 44.9342 80.4089 44.4025 80.6142 43.9295C80.8232 43.4565 81.122 43.0825 81.5107 42.8075C81.8994 42.5325 82.365 42.395 82.9077 42.395C83.465 42.395 83.9344 42.5307 84.3157 42.802C84.697 43.0733 84.9849 43.4455 85.1792 43.9185C85.3772 44.3878 85.4762 44.9232 85.4762 45.5245C85.4762 46.1148 85.379 46.6483 85.1847 47.125C84.9904 47.598 84.7044 47.9738 84.3267 48.2525C83.949 48.5275 83.487 48.665 82.9407 48.665ZM83.0232 47.9115C83.4449 47.9115 83.7932 47.8088 84.0682 47.6035C84.3432 47.3982 84.5485 47.1158 84.6842 46.7565C84.8199 46.3935 84.8877 45.9828 84.8877 45.5245C84.8877 45.0588 84.8199 44.6482 84.6842 44.2925C84.5485 43.9332 84.3432 43.6527 84.0682 43.451C83.7969 43.2493 83.454 43.1485 83.0397 43.1485C82.6144 43.1485 82.2624 43.253 81.9837 43.462C81.705 43.671 81.4979 43.9552 81.3622 44.3145C81.2302 44.6738 81.1642 45.0772 81.1642 45.5245C81.1642 45.9755 81.232 46.3825 81.3677 46.7455C81.507 47.1048 81.7142 47.389 81.9892 47.598C82.2642 47.807 82.6089 47.9115 83.0232 47.9115ZM84.8877 48.5V44.0285H84.7997V40.58H85.6137V48.5H84.8877ZM89.6702 48.665C89.0909 48.665 88.5886 48.5367 88.1632 48.28C87.7416 48.0233 87.4134 47.6622 87.1787 47.1965C86.9441 46.7308 86.8267 46.1845 86.8267 45.5575C86.8267 44.9085 86.9422 44.3475 87.1732 43.8745C87.4042 43.4015 87.7287 43.0367 88.1467 42.78C88.5684 42.5233 89.0652 42.395 89.6372 42.395C90.2239 42.395 90.7244 42.5307 91.1387 42.802C91.5531 43.0697 91.8666 43.4547 92.0792 43.957C92.2919 44.4593 92.3891 45.0588 92.3707 45.7555H91.5457V45.4695C91.5311 44.6995 91.3642 44.1183 91.0452 43.726C90.7299 43.3337 90.2679 43.1375 89.6592 43.1375C89.0212 43.1375 88.5317 43.3447 88.1907 43.759C87.8534 44.1733 87.6847 44.7637 87.6847 45.53C87.6847 46.278 87.8534 46.8592 88.1907 47.2735C88.5317 47.6842 89.0139 47.8895 89.6372 47.8895C90.0626 47.8895 90.4329 47.7923 90.7482 47.598C91.0672 47.4 91.3184 47.1158 91.5017 46.7455L92.2552 47.037C92.0206 47.554 91.6741 47.9555 91.2157 48.2415C90.7611 48.5238 90.2459 48.665 89.6702 48.665ZM87.3987 45.7555V45.079H91.9362V45.7555H87.3987ZM97.0584 48.5L95.2434 42.5545L96.0519 42.56L97.4599 47.1745L98.8734 42.56H99.6104L101.024 47.1745L102.443 42.56H103.246L101.431 48.5H100.727L99.2419 43.77L97.7624 48.5H97.0584ZM104.347 41.4325V40.525H105.155V41.4325H104.347ZM104.347 48.5V42.56H105.155V48.5H104.347ZM110.038 48.5C109.705 48.5697 109.375 48.5972 109.048 48.5825C108.726 48.5678 108.436 48.4982 108.179 48.3735C107.926 48.2488 107.734 48.0545 107.602 47.7905C107.495 47.5705 107.437 47.3487 107.426 47.125C107.418 46.8977 107.415 46.6392 107.415 46.3495V40.91H108.218V46.3165C108.218 46.5658 108.22 46.7748 108.223 46.9435C108.231 47.1085 108.269 47.2552 108.339 47.3835C108.471 47.6292 108.68 47.7758 108.966 47.8235C109.255 47.8712 109.613 47.8602 110.038 47.7905V48.5ZM106.144 43.253V42.56H110.038V43.253H106.144ZM115.498 48.5V45.4695C115.498 45.1395 115.467 44.837 115.405 44.562C115.343 44.2833 115.242 44.0413 115.102 43.836C114.967 43.627 114.789 43.4657 114.569 43.352C114.353 43.2383 114.089 43.1815 113.777 43.1815C113.491 43.1815 113.238 43.231 113.018 43.33C112.802 43.429 112.618 43.572 112.468 43.759C112.321 43.9423 112.209 44.166 112.132 44.43C112.055 44.694 112.017 44.9947 112.017 45.332L111.445 45.2055C111.445 44.5968 111.551 44.0853 111.764 43.671C111.977 43.2567 112.27 42.9432 112.644 42.7305C113.018 42.5178 113.447 42.4115 113.931 42.4115C114.287 42.4115 114.596 42.4665 114.86 42.5765C115.128 42.6865 115.354 42.835 115.537 43.022C115.724 43.209 115.874 43.4235 115.988 43.6655C116.102 43.9038 116.184 44.1587 116.235 44.43C116.287 44.6977 116.312 44.9653 116.312 45.233V48.5H115.498ZM111.203 48.5V40.58H111.934V45.0515H112.017V48.5H111.203ZM123.429 48.5V46.9655H119.722V46.1955L122.373 40.58H123.28L120.629 46.1955H123.429V43.8855H124.243V46.1955H125.106V46.9655H124.243V48.5H123.429ZM125.663 48.5L127.984 45.497L125.712 42.56H126.68L128.457 44.8755L130.217 42.56H131.185L128.913 45.497L131.24 48.5H130.266L128.457 46.1185L126.636 48.5H125.663ZM141.41 48.5L141.415 44.6005C141.415 44.1422 141.287 43.7828 141.03 43.5225C140.777 43.2585 140.454 43.1265 140.062 43.1265C139.838 43.1265 139.62 43.1778 139.408 43.2805C139.195 43.3832 139.019 43.5482 138.88 43.7755C138.744 44.0028 138.676 44.2998 138.676 44.6665L138.198 44.529C138.187 44.1037 138.269 43.7315 138.445 43.4125C138.625 43.0935 138.87 42.846 139.182 42.67C139.497 42.4903 139.853 42.4005 140.249 42.4005C140.847 42.4005 141.325 42.5857 141.685 42.956C142.044 43.3227 142.224 43.8195 142.224 44.4465L142.218 48.5H141.41ZM134.32 48.5V42.56H135.046V44.023H135.134V48.5H134.32ZM137.873 48.5L137.879 44.6555C137.879 44.1825 137.752 43.8103 137.499 43.539C137.25 43.264 136.92 43.1265 136.509 43.1265C136.098 43.1265 135.767 43.2677 135.514 43.55C135.261 43.8287 135.134 44.2008 135.134 44.6665L134.65 44.4025C134.65 44.0212 134.74 43.6802 134.92 43.3795C135.099 43.0752 135.345 42.8368 135.657 42.6645C135.968 42.4885 136.322 42.4005 136.718 42.4005C137.096 42.4005 137.431 42.4812 137.725 42.6425C138.022 42.8038 138.254 43.0385 138.423 43.3465C138.592 43.6545 138.676 44.0285 138.676 44.4685L138.671 48.5H137.873ZM145.349 48.665C144.902 48.665 144.526 48.5843 144.222 48.423C143.921 48.2617 143.696 48.0472 143.545 47.7795C143.395 47.5118 143.32 47.2203 143.32 46.905C143.32 46.5823 143.384 46.3073 143.512 46.08C143.644 45.849 143.822 45.6602 144.046 45.5135C144.273 45.3668 144.535 45.255 144.832 45.178C145.133 45.1047 145.465 45.0405 145.828 44.9855C146.195 44.9268 146.552 44.8773 146.9 44.837C147.252 44.793 147.56 44.7508 147.824 44.7105L147.538 44.8865C147.549 44.2998 147.436 43.8653 147.197 43.583C146.959 43.3007 146.545 43.1595 145.954 43.1595C145.547 43.1595 145.203 43.2512 144.92 43.4345C144.642 43.6178 144.446 43.9075 144.332 44.3035L143.545 44.0725C143.681 43.5408 143.954 43.1283 144.365 42.835C144.776 42.5417 145.309 42.395 145.965 42.395C146.508 42.395 146.968 42.4977 147.346 42.703C147.727 42.9047 147.997 43.198 148.154 43.583C148.228 43.7553 148.275 43.9478 148.297 44.1605C148.319 44.3732 148.33 44.5895 148.33 44.8095V48.5H147.61V47.0095L147.819 47.0975C147.617 47.6072 147.304 47.9958 146.878 48.2635C146.453 48.5312 145.943 48.665 145.349 48.665ZM145.443 47.9665C145.821 47.9665 146.151 47.8987 146.433 47.763C146.715 47.6273 146.943 47.4422 147.115 47.2075C147.287 46.9692 147.399 46.7015 147.45 46.4045C147.494 46.2138 147.518 46.0048 147.522 45.7775C147.526 45.5465 147.527 45.3742 147.527 45.2605L147.835 45.42C147.56 45.4567 147.262 45.4933 146.939 45.53C146.62 45.5667 146.305 45.6088 145.993 45.6565C145.685 45.7042 145.406 45.761 145.157 45.827C144.988 45.8747 144.825 45.9425 144.667 46.0305C144.51 46.1148 144.38 46.2285 144.277 46.3715C144.178 46.5145 144.128 46.6923 144.128 46.905C144.128 47.0773 144.171 47.2442 144.255 47.4055C144.343 47.5668 144.482 47.7007 144.673 47.807C144.867 47.9133 145.124 47.9665 145.443 47.9665ZM149.762 48.5V42.56H150.488V43.99L150.345 43.803C150.411 43.627 150.497 43.4657 150.604 43.319C150.71 43.1687 150.826 43.0458 150.95 42.9505C151.104 42.8148 151.284 42.7122 151.489 42.6425C151.695 42.5692 151.902 42.527 152.111 42.516C152.32 42.5013 152.51 42.516 152.683 42.56V43.319C152.466 43.264 152.23 43.2512 151.973 43.2805C151.717 43.3098 151.48 43.4125 151.264 43.5885C151.066 43.7425 150.917 43.9277 150.818 44.144C150.719 44.3567 150.653 44.584 150.62 44.826C150.587 45.0643 150.571 45.3008 150.571 45.5355V48.5H149.762ZM155.871 51.305C155.566 51.305 155.266 51.2592 154.969 51.1675C154.675 51.0795 154.404 50.9383 154.155 50.744C153.905 50.5533 153.696 50.304 153.528 49.996L154.259 49.589C154.424 49.919 154.655 50.1555 154.952 50.2985C155.253 50.4452 155.559 50.5185 155.871 50.5185C156.3 50.5185 156.646 50.4378 156.91 50.2765C157.178 50.1188 157.372 49.8842 157.493 49.5725C157.614 49.2608 157.673 48.8722 157.669 48.4065V46.8225H157.763V42.56H158.483V48.4175C158.483 48.5862 158.478 48.7475 158.467 48.9015C158.459 49.0592 158.443 49.2132 158.417 49.3635C158.348 49.8072 158.203 50.172 157.983 50.458C157.766 50.744 157.48 50.9567 157.125 51.096C156.773 51.2353 156.355 51.305 155.871 51.305ZM155.816 48.665C155.262 48.665 154.789 48.5275 154.397 48.2525C154.004 47.9738 153.704 47.598 153.495 47.125C153.286 46.652 153.181 46.1185 153.181 45.5245C153.181 44.9342 153.284 44.4025 153.489 43.9295C153.698 43.4565 153.997 43.0825 154.386 42.8075C154.774 42.5325 155.24 42.395 155.783 42.395C156.34 42.395 156.809 42.5307 157.191 42.802C157.572 43.0733 157.86 43.4455 158.054 43.9185C158.252 44.3878 158.351 44.9232 158.351 45.5245C158.351 46.1148 158.254 46.6483 158.06 47.125C157.865 47.598 157.579 47.9738 157.202 48.2525C156.824 48.5275 156.362 48.665 155.816 48.665ZM155.898 47.9115C156.32 47.9115 156.668 47.8088 156.943 47.6035C157.218 47.3982 157.424 47.1158 157.559 46.7565C157.695 46.3935 157.763 45.9828 157.763 45.5245C157.763 45.0588 157.695 44.6482 157.559 44.2925C157.424 43.9332 157.218 43.6527 156.943 43.451C156.672 43.2493 156.329 43.1485 155.915 43.1485C155.489 43.1485 155.137 43.253 154.859 43.462C154.58 43.671 154.373 43.9552 154.237 44.3145C154.105 44.6738 154.039 45.0772 154.039 45.5245C154.039 45.9755 154.107 46.3825 154.243 46.7455C154.382 47.1048 154.589 47.389 154.864 47.598C155.139 47.807 155.484 47.9115 155.898 47.9115ZM160.131 41.4325V40.525H160.939V41.4325H160.131ZM160.131 48.5V42.56H160.939V48.5H160.131ZM166.878 48.5V45.4695C166.878 45.1395 166.847 44.837 166.785 44.562C166.723 44.2833 166.622 44.0413 166.482 43.836C166.347 43.627 166.169 43.4657 165.949 43.352C165.733 43.2383 165.469 43.1815 165.157 43.1815C164.871 43.1815 164.618 43.231 164.398 43.33C164.182 43.429 163.998 43.572 163.848 43.759C163.701 43.9423 163.589 44.166 163.512 44.43C163.435 44.694 163.397 44.9947 163.397 45.332L162.825 45.2055C162.825 44.5968 162.931 44.0853 163.144 43.671C163.357 43.2567 163.65 42.9432 164.024 42.7305C164.398 42.5178 164.827 42.4115 165.311 42.4115C165.667 42.4115 165.976 42.4665 166.24 42.5765C166.508 42.6865 166.734 42.835 166.917 43.022C167.104 43.209 167.254 43.4235 167.368 43.6655C167.482 43.9038 167.564 44.1587 167.615 44.43C167.667 44.6977 167.692 44.9653 167.692 45.233V48.5H166.878ZM162.583 48.5V42.56H163.314V44.023H163.397V48.5H162.583ZM173.868 48.665C173.428 48.665 173.019 48.6027 172.642 48.478C172.268 48.3497 171.954 48.1498 171.701 47.8785C171.503 47.6658 171.357 47.4293 171.261 47.169C171.166 46.905 171.113 46.6263 171.102 46.333C171.098 46.0543 171.138 45.7775 171.223 45.5025C171.307 45.2275 171.439 44.9837 171.619 44.771C171.725 44.639 171.844 44.529 171.976 44.441C172.112 44.353 172.251 44.2778 172.394 44.2155C172.119 43.9295 171.908 43.6655 171.762 43.4235C171.619 43.1778 171.547 42.8772 171.547 42.5215C171.547 42.1145 171.65 41.7423 171.855 41.405C172.064 41.0677 172.352 40.8165 172.719 40.6515C172.906 40.5672 173.096 40.5085 173.291 40.4755C173.489 40.4388 173.685 40.4205 173.879 40.4205C174.176 40.4205 174.468 40.4627 174.754 40.547C175.04 40.6277 175.284 40.756 175.485 40.932C175.621 41.0383 175.74 41.1648 175.843 41.3115C175.945 41.4545 176.026 41.6048 176.085 41.7625L175.304 41.9935C175.227 41.7955 175.098 41.6287 174.919 41.493C174.779 41.383 174.618 41.306 174.435 41.262C174.255 41.218 174.074 41.196 173.89 41.196C173.579 41.196 173.296 41.2565 173.043 41.3775C172.823 41.4875 172.658 41.6397 172.548 41.834C172.438 42.0283 172.383 42.2557 172.383 42.516C172.383 42.7397 172.42 42.9248 172.493 43.0715C172.567 43.2145 172.673 43.3703 172.812 43.539C172.893 43.627 172.983 43.7168 173.082 43.8085C173.181 43.8965 173.282 43.9882 173.384 44.0835L175.892 46.41C175.907 46.3073 175.916 46.2083 175.92 46.113C175.923 46.014 175.925 45.9168 175.925 45.8215L175.92 44.661H176.684V45.8765C176.684 46.1662 176.673 46.4027 176.651 46.586C176.629 46.7693 176.6 46.9215 176.563 47.0425L177.586 47.983L177.053 48.5495L176.178 47.7245C176.057 47.8822 175.903 48.0233 175.716 48.148C175.533 48.2727 175.35 48.3698 175.166 48.4395C174.968 48.5275 174.759 48.5862 174.539 48.6155C174.319 48.6485 174.096 48.665 173.868 48.665ZM173.879 47.884C174.088 47.884 174.277 47.8712 174.446 47.8455C174.614 47.8198 174.776 47.7667 174.93 47.686C175.124 47.5833 175.269 47.488 175.364 47.4C175.46 47.3083 175.537 47.2277 175.595 47.158L173.021 44.804C172.867 44.8517 172.722 44.9177 172.587 45.002C172.455 45.0827 172.341 45.1798 172.246 45.2935C172.139 45.4255 172.061 45.5777 172.009 45.75C171.958 45.9223 171.932 46.1038 171.932 46.2945C171.94 46.4962 171.973 46.6832 172.031 46.8555C172.094 47.0242 172.185 47.1745 172.306 47.3065C172.479 47.5082 172.71 47.6548 172.999 47.7465C173.289 47.8382 173.582 47.884 173.879 47.884ZM187.773 48.5L187.778 44.6005C187.778 44.1422 187.65 43.7828 187.393 43.5225C187.14 43.2585 186.818 43.1265 186.425 43.1265C186.202 43.1265 185.984 43.1778 185.771 43.2805C185.558 43.3832 185.382 43.5482 185.243 43.7755C185.107 44.0028 185.039 44.2998 185.039 44.6665L184.561 44.529C184.55 44.1037 184.632 43.7315 184.808 43.4125C184.988 43.0935 185.234 42.846 185.545 42.67C185.861 42.4903 186.216 42.4005 186.612 42.4005C187.21 42.4005 187.689 42.5857 188.048 42.956C188.407 43.3227 188.587 43.8195 188.587 44.4465L188.581 48.5H187.773ZM180.683 48.5V42.56H181.409V44.023H181.497V48.5H180.683ZM184.236 48.5L184.242 44.6555C184.242 44.1825 184.115 43.8103 183.862 43.539C183.613 43.264 183.283 43.1265 182.872 43.1265C182.462 43.1265 182.13 43.2677 181.877 43.55C181.624 43.8287 181.497 44.2008 181.497 44.6665L181.013 44.4025C181.013 44.0212 181.103 43.6802 181.283 43.3795C181.463 43.0752 181.708 42.8368 182.02 42.6645C182.332 42.4885 182.685 42.4005 183.081 42.4005C183.459 42.4005 183.795 42.4812 184.088 42.6425C184.385 42.8038 184.618 43.0385 184.786 43.3465C184.955 43.6545 185.039 44.0285 185.039 44.4685L185.034 48.5H184.236ZM191.713 48.665C191.265 48.665 190.889 48.5843 190.585 48.423C190.284 48.2617 190.059 48.0472 189.909 47.7795C189.758 47.5118 189.683 47.2203 189.683 46.905C189.683 46.5823 189.747 46.3073 189.876 46.08C190.008 45.849 190.185 45.6602 190.409 45.5135C190.636 45.3668 190.899 45.255 191.196 45.178C191.496 45.1047 191.828 45.0405 192.191 44.9855C192.558 44.9268 192.915 44.8773 193.264 44.837C193.616 44.793 193.924 44.7508 194.188 44.7105L193.902 44.8865C193.913 44.2998 193.799 43.8653 193.561 43.583C193.322 43.3007 192.908 43.1595 192.318 43.1595C191.911 43.1595 191.566 43.2512 191.284 43.4345C191.005 43.6178 190.809 43.9075 190.695 44.3035L189.909 44.0725C190.044 43.5408 190.317 43.1283 190.728 42.835C191.139 42.5417 191.672 42.395 192.329 42.395C192.871 42.395 193.331 42.4977 193.709 42.703C194.09 42.9047 194.36 43.198 194.518 43.583C194.591 43.7553 194.639 43.9478 194.661 44.1605C194.683 44.3732 194.694 44.5895 194.694 44.8095V48.5H193.973V47.0095L194.182 47.0975C193.98 47.6072 193.667 47.9958 193.242 48.2635C192.816 48.5312 192.307 48.665 191.713 48.665ZM191.806 47.9665C192.184 47.9665 192.514 47.8987 192.796 47.763C193.078 47.6273 193.306 47.4422 193.478 47.2075C193.65 46.9692 193.762 46.7015 193.814 46.4045C193.858 46.2138 193.881 46.0048 193.885 45.7775C193.889 45.5465 193.891 45.3742 193.891 45.2605L194.199 45.42C193.924 45.4567 193.625 45.4933 193.302 45.53C192.983 45.5667 192.668 45.6088 192.356 45.6565C192.048 45.7042 191.769 45.761 191.52 45.827C191.351 45.8747 191.188 45.9425 191.031 46.0305C190.873 46.1148 190.743 46.2285 190.64 46.3715C190.541 46.5145 190.492 46.6923 190.492 46.905C190.492 47.0773 190.534 47.2442 190.618 47.4055C190.706 47.5668 190.845 47.7007 191.036 47.807C191.23 47.9133 191.487 47.9665 191.806 47.9665ZM195.465 48.5L197.786 45.497L195.515 42.56H196.483L198.259 44.8755L200.019 42.56H200.987L198.716 45.497L201.042 48.5H200.069L198.259 46.1185L196.439 48.5H195.465ZM202.036 41.4325V40.525H202.845V41.4325H202.036ZM202.036 48.5V42.56H202.845V48.5H202.036ZM211.578 48.5L211.583 44.6005C211.583 44.1422 211.455 43.7828 211.198 43.5225C210.945 43.2585 210.622 43.1265 210.23 43.1265C210.006 43.1265 209.788 43.1778 209.576 43.2805C209.363 43.3832 209.187 43.5482 209.048 43.7755C208.912 44.0028 208.844 44.2998 208.844 44.6665L208.366 44.529C208.355 44.1037 208.437 43.7315 208.613 43.4125C208.793 43.0935 209.038 42.846 209.35 42.67C209.665 42.4903 210.021 42.4005 210.417 42.4005C211.015 42.4005 211.493 42.5857 211.853 42.956C212.212 43.3227 212.392 43.8195 212.392 44.4465L212.386 48.5H211.578ZM204.488 48.5V42.56H205.214V44.023H205.302V48.5H204.488ZM208.041 48.5L208.047 44.6555C208.047 44.1825 207.92 43.8103 207.667 43.539C207.418 43.264 207.088 43.1265 206.677 43.1265C206.266 43.1265 205.935 43.2677 205.682 43.55C205.429 43.8287 205.302 44.2008 205.302 44.6665L204.818 44.4025C204.818 44.0212 204.908 43.6802 205.088 43.3795C205.267 43.0752 205.513 42.8368 205.825 42.6645C206.136 42.4885 206.49 42.4005 206.886 42.4005C207.264 42.4005 207.599 42.4812 207.893 42.6425C208.19 42.8038 208.422 43.0385 208.591 43.3465C208.76 43.6545 208.844 44.0285 208.844 44.4685L208.839 48.5H208.041ZM213.928 41.4325V40.525H214.736V41.4325H213.928ZM213.928 48.5V42.56H214.736V48.5H213.928ZM218.602 48.6595C217.905 48.6595 217.331 48.5092 216.88 48.2085C216.433 47.9078 216.158 47.4898 216.055 46.9545L216.88 46.817C216.968 47.1543 217.168 47.4238 217.48 47.6255C217.795 47.8235 218.184 47.9225 218.646 47.9225C219.097 47.9225 219.452 47.829 219.713 47.642C219.973 47.4513 220.103 47.1928 220.103 46.8665C220.103 46.6832 220.061 46.5347 219.977 46.421C219.896 46.3037 219.729 46.1955 219.476 46.0965C219.223 45.9975 218.846 45.8802 218.343 45.7445C217.804 45.5978 217.383 45.4512 217.078 45.3045C216.774 45.1578 216.558 44.9892 216.429 44.7985C216.301 44.6042 216.237 44.3677 216.237 44.089C216.237 43.7517 216.332 43.4565 216.523 43.2035C216.713 42.9468 216.977 42.7488 217.315 42.6095C217.652 42.4665 218.044 42.395 218.492 42.395C218.939 42.395 219.339 42.4683 219.691 42.615C220.046 42.758 220.332 42.9597 220.549 43.22C220.765 43.4803 220.893 43.7828 220.934 44.1275L220.109 44.276C220.054 43.9277 219.88 43.6527 219.586 43.451C219.297 43.2457 218.928 43.1393 218.481 43.132C218.059 43.121 217.716 43.2017 217.452 43.374C217.188 43.5427 217.056 43.7682 217.056 44.0505C217.056 44.2082 217.104 44.3438 217.199 44.4575C217.295 44.5675 217.467 44.672 217.716 44.771C217.969 44.87 218.329 44.9782 218.794 45.0955C219.341 45.2348 219.77 45.3815 220.081 45.5355C220.393 45.6895 220.615 45.871 220.747 46.08C220.879 46.289 220.945 46.5475 220.945 46.8555C220.945 47.4165 220.736 47.8583 220.318 48.181C219.903 48.5 219.331 48.6595 218.602 48.6595ZM224.678 48.665C224.099 48.665 223.596 48.5367 223.171 48.28C222.749 48.0233 222.421 47.6622 222.187 47.1965C221.952 46.7308 221.835 46.1845 221.835 45.5575C221.835 44.9085 221.95 44.3475 222.181 43.8745C222.412 43.4015 222.737 43.0367 223.155 42.78C223.576 42.5233 224.073 42.395 224.645 42.395C225.232 42.395 225.732 42.5307 226.147 42.802C226.561 43.0697 226.874 43.4547 227.087 43.957C227.3 44.4593 227.397 45.0588 227.379 45.7555H226.554V45.4695C226.539 44.6995 226.372 44.1183 226.053 43.726C225.738 43.3337 225.276 43.1375 224.667 43.1375C224.029 43.1375 223.54 43.3447 223.199 43.759C222.861 44.1733 222.693 44.7637 222.693 45.53C222.693 46.278 222.861 46.8592 223.199 47.2735C223.54 47.6842 224.022 47.8895 224.645 47.8895C225.07 47.8895 225.441 47.7923 225.756 47.598C226.075 47.4 226.326 47.1158 226.51 46.7455L227.263 47.037C227.028 47.554 226.682 47.9555 226.224 48.2415C225.769 48.5238 225.254 48.665 224.678 48.665ZM222.407 45.7555V45.079H226.944V45.7555H222.407ZM231.648 51.14L232.798 48.0215L232.814 48.9455L230.213 42.56H231.071L233.205 47.9005H232.853L234.822 42.56H235.647L232.457 51.14H231.648ZM238.868 48.665C238.277 48.665 237.773 48.5312 237.355 48.2635C236.937 47.9958 236.616 47.6255 236.393 47.1525C236.169 46.6795 236.057 46.1368 236.057 45.5245C236.057 44.9012 236.171 44.3548 236.398 43.8855C236.626 43.4162 236.948 43.0513 237.366 42.791C237.788 42.527 238.288 42.395 238.868 42.395C239.462 42.395 239.968 42.5288 240.386 42.7965C240.807 43.0605 241.128 43.429 241.348 43.902C241.572 44.3713 241.684 44.9122 241.684 45.5245C241.684 46.1478 241.572 46.696 241.348 47.169C241.125 47.6383 240.802 48.005 240.38 48.269C239.959 48.533 239.454 48.665 238.868 48.665ZM238.868 47.8895C239.528 47.8895 240.019 47.6713 240.342 47.235C240.664 46.795 240.826 46.2248 240.826 45.5245C240.826 44.8058 240.663 44.2338 240.336 43.8085C240.014 43.3832 239.524 43.1705 238.868 43.1705C238.424 43.1705 238.057 43.2713 237.768 43.473C237.482 43.671 237.267 43.9478 237.124 44.3035C236.985 44.6555 236.915 45.0625 236.915 45.5245C236.915 46.2395 237.08 46.8133 237.41 47.246C237.74 47.675 238.226 47.8895 238.868 47.8895ZM245.168 48.6485C244.813 48.6485 244.501 48.5935 244.233 48.4835C243.969 48.3735 243.744 48.225 243.557 48.038C243.374 47.851 243.225 47.6383 243.111 47.4C242.998 47.158 242.915 46.9032 242.864 46.6355C242.813 46.3642 242.787 46.0947 242.787 45.827V42.56H243.601V45.5905C243.601 45.9168 243.632 46.2193 243.694 46.498C243.757 46.7767 243.856 47.0205 243.991 47.2295C244.131 47.4348 244.309 47.5943 244.525 47.708C244.745 47.8217 245.011 47.8785 245.322 47.8785C245.608 47.8785 245.86 47.829 246.076 47.73C246.296 47.631 246.479 47.4898 246.626 47.3065C246.776 47.1195 246.89 46.894 246.967 46.63C247.044 46.3623 247.082 46.0617 247.082 45.728L247.654 45.8545C247.654 46.4632 247.548 46.9747 247.335 47.389C247.123 47.8033 246.829 48.1168 246.455 48.3295C246.081 48.5422 245.652 48.6485 245.168 48.6485ZM247.165 48.5V47.037H247.082V42.56H247.891V48.5H247.165ZM249.428 48.5V42.56H250.154V43.99L250.011 43.803C250.077 43.627 250.163 43.4657 250.27 43.319C250.376 43.1687 250.492 43.0458 250.616 42.9505C250.77 42.8148 250.95 42.7122 251.155 42.6425C251.361 42.5692 251.568 42.527 251.777 42.516C251.986 42.5013 252.176 42.516 252.349 42.56V43.319C252.132 43.264 251.896 43.2512 251.639 43.2805C251.383 43.3098 251.146 43.4125 250.93 43.5885C250.732 43.7425 250.583 43.9277 250.484 44.144C250.385 44.3567 250.319 44.584 250.286 44.826C250.253 45.0643 250.237 45.3008 250.237 45.5355V48.5H249.428ZM257.954 51.305C257.649 51.305 257.349 51.2592 257.052 51.1675C256.758 51.0795 256.487 50.9383 256.238 50.744C255.988 50.5533 255.779 50.304 255.611 49.996L256.342 49.589C256.507 49.919 256.738 50.1555 257.035 50.2985C257.336 50.4452 257.642 50.5185 257.954 50.5185C258.383 50.5185 258.729 50.4378 258.993 50.2765C259.261 50.1188 259.455 49.8842 259.576 49.5725C259.697 49.2608 259.756 48.8722 259.752 48.4065V46.8225H259.846V42.56H260.566V48.4175C260.566 48.5862 260.561 48.7475 260.55 48.9015C260.542 49.0592 260.526 49.2132 260.5 49.3635C260.431 49.8072 260.286 50.172 260.066 50.458C259.849 50.744 259.563 50.9567 259.208 51.096C258.856 51.2353 258.438 51.305 257.954 51.305ZM257.899 48.665C257.345 48.665 256.872 48.5275 256.48 48.2525C256.087 47.9738 255.787 47.598 255.578 47.125C255.369 46.652 255.264 46.1185 255.264 45.5245C255.264 44.9342 255.367 44.4025 255.572 43.9295C255.781 43.4565 256.08 43.0825 256.469 42.8075C256.857 42.5325 257.323 42.395 257.866 42.395C258.423 42.395 258.892 42.5307 259.274 42.802C259.655 43.0733 259.943 43.4455 260.137 43.9185C260.335 44.3878 260.434 44.9232 260.434 45.5245C260.434 46.1148 260.337 46.6483 260.143 47.125C259.948 47.598 259.662 47.9738 259.285 48.2525C258.907 48.5275 258.445 48.665 257.899 48.665ZM257.981 47.9115C258.403 47.9115 258.751 47.8088 259.026 47.6035C259.301 47.3982 259.507 47.1158 259.642 46.7565C259.778 46.3935 259.846 45.9828 259.846 45.5245C259.846 45.0588 259.778 44.6482 259.642 44.2925C259.507 43.9332 259.301 43.6527 259.026 43.451C258.755 43.2493 258.412 43.1485 257.998 43.1485C257.572 43.1485 257.22 43.253 256.942 43.462C256.663 43.671 256.456 43.9552 256.32 44.3145C256.188 44.6738 256.122 45.0772 256.122 45.5245C256.122 45.9755 256.19 46.3825 256.326 46.7455C256.465 47.1048 256.672 47.389 256.947 47.598C257.222 47.807 257.567 47.9115 257.981 47.9115ZM263.803 48.665C263.356 48.665 262.98 48.5843 262.676 48.423C262.375 48.2617 262.15 48.0472 261.999 47.7795C261.849 47.5118 261.774 47.2203 261.774 46.905C261.774 46.5823 261.838 46.3073 261.966 46.08C262.098 45.849 262.276 45.6602 262.5 45.5135C262.727 45.3668 262.989 45.255 263.286 45.178C263.587 45.1047 263.919 45.0405 264.282 44.9855C264.649 44.9268 265.006 44.8773 265.354 44.837C265.706 44.793 266.014 44.7508 266.278 44.7105L265.992 44.8865C266.003 44.2998 265.89 43.8653 265.651 43.583C265.413 43.3007 264.999 43.1595 264.408 43.1595C264.001 43.1595 263.657 43.2512 263.374 43.4345C263.096 43.6178 262.9 43.9075 262.786 44.3035L261.999 44.0725C262.135 43.5408 262.408 43.1283 262.819 42.835C263.23 42.5417 263.763 42.395 264.419 42.395C264.962 42.395 265.422 42.4977 265.8 42.703C266.181 42.9047 266.451 43.198 266.608 43.583C266.682 43.7553 266.729 43.9478 266.751 44.1605C266.773 44.3732 266.784 44.5895 266.784 44.8095V48.5H266.064V47.0095L266.273 47.0975C266.071 47.6072 265.758 47.9958 265.332 48.2635C264.907 48.5312 264.397 48.665 263.803 48.665ZM263.897 47.9665C264.275 47.9665 264.605 47.8987 264.887 47.763C265.169 47.6273 265.397 47.4422 265.569 47.2075C265.741 46.9692 265.853 46.7015 265.904 46.4045C265.948 46.2138 265.972 46.0048 265.976 45.7775C265.98 45.5465 265.981 45.3742 265.981 45.2605L266.289 45.42C266.014 45.4567 265.716 45.4933 265.393 45.53C265.074 45.5667 264.759 45.6088 264.447 45.6565C264.139 45.7042 263.86 45.761 263.611 45.827C263.442 45.8747 263.279 45.9425 263.121 46.0305C262.964 46.1148 262.834 46.2285 262.731 46.3715C262.632 46.5145 262.582 46.6923 262.582 46.905C262.582 47.0773 262.625 47.2442 262.709 47.4055C262.797 47.5668 262.936 47.7007 263.127 47.807C263.321 47.9133 263.578 47.9665 263.897 47.9665ZM268.326 41.4325V40.525H269.135V41.4325H268.326ZM268.326 48.5V42.56H269.135V48.5H268.326ZM275.074 48.5V45.4695C275.074 45.1395 275.043 44.837 274.98 44.562C274.918 44.2833 274.817 44.0413 274.678 43.836C274.542 43.627 274.364 43.4657 274.144 43.352C273.928 43.2383 273.664 43.1815 273.352 43.1815C273.066 43.1815 272.813 43.231 272.593 43.33C272.377 43.429 272.194 43.572 272.043 43.759C271.897 43.9423 271.785 44.166 271.708 44.43C271.631 44.694 271.592 44.9947 271.592 45.332L271.02 45.2055C271.02 44.5968 271.127 44.0853 271.339 43.671C271.552 43.2567 271.845 42.9432 272.219 42.7305C272.593 42.5178 273.022 42.4115 273.506 42.4115C273.862 42.4115 274.172 42.4665 274.436 42.5765C274.703 42.6865 274.929 42.835 275.112 43.022C275.299 43.209 275.45 43.4235 275.563 43.6655C275.677 43.9038 275.759 44.1587 275.811 44.43C275.862 44.6977 275.888 44.9653 275.888 45.233V48.5H275.074ZM270.778 48.5V42.56H271.51V44.023H271.592V48.5H270.778ZM279.531 48.6595C278.835 48.6595 278.261 48.5092 277.81 48.2085C277.363 47.9078 277.088 47.4898 276.985 46.9545L277.81 46.817C277.898 47.1543 278.098 47.4238 278.409 47.6255C278.725 47.8235 279.113 47.9225 279.575 47.9225C280.026 47.9225 280.382 47.829 280.642 47.642C280.903 47.4513 281.033 47.1928 281.033 46.8665C281.033 46.6832 280.991 46.5347 280.906 46.421C280.826 46.3037 280.659 46.1955 280.406 46.0965C280.153 45.9975 279.775 45.8802 279.273 45.7445C278.734 45.5978 278.312 45.4512 278.008 45.3045C277.704 45.1578 277.487 44.9892 277.359 44.7985C277.231 44.6042 277.166 44.3677 277.166 44.089C277.166 43.7517 277.262 43.4565 277.452 43.2035C277.643 42.9468 277.907 42.7488 278.244 42.6095C278.582 42.4665 278.974 42.395 279.421 42.395C279.869 42.395 280.268 42.4683 280.62 42.615C280.976 42.758 281.262 42.9597 281.478 43.22C281.695 43.4803 281.823 43.7828 281.863 44.1275L281.038 44.276C280.983 43.9277 280.809 43.6527 280.516 43.451C280.226 43.2457 279.858 43.1393 279.41 43.132C278.989 43.121 278.646 43.2017 278.382 43.374C278.118 43.5427 277.986 43.7682 277.986 44.0505C277.986 44.2082 278.034 44.3438 278.129 44.4575C278.224 44.5675 278.397 44.672 278.646 44.771C278.899 44.87 279.258 44.9782 279.724 45.0955C280.27 45.2348 280.699 45.3815 281.011 45.5355C281.323 45.6895 281.544 45.871 281.676 46.08C281.808 46.289 281.874 46.5475 281.874 46.8555C281.874 47.4165 281.665 47.8583 281.247 48.181C280.833 48.5 280.261 48.6595 279.531 48.6595ZM283.248 48.5V47.5595H284.189V48.5H283.248Z" fill="#404040"/>
<defs>
<linearGradient id="paint0_linear_5306_22142" x1="334.299" y1="68" x2="1.42361" y2="-2.24601" gradientUnits="userSpaceOnUse">
<stop stop-color="#F6EFFB"/>
<stop offset="1" stop-color="#FFF9D6"/>
</linearGradient>
<linearGradient id="paint1_linear_5306_22142" x1="70.5" y1="-4.5" x2="16" y2="49.5" gradientUnits="userSpaceOnUse">
<stop stop-color="#CC00CC"/>
<stop offset="1" stop-color="#FFF099"/>
</linearGradient>
</defs>
</svg>
