<svg width="162" height="89" viewBox="0 0 162 89" fill="none" xmlns="http://www.w3.org/2000/svg">
<path d="M173 42.5977L64.3485 105.328" stroke="url(#paint0_linear_3886_17436)" stroke-width="0.155508" stroke-linecap="round" stroke-dasharray="0.31 0.62"/>
<path d="M109.022 5.55664L0.370605 68.2866" stroke="url(#paint1_linear_3886_17436)" stroke-width="0.155508" stroke-linecap="round" stroke-dasharray="0.31 0.62"/>
<path d="M118 39.707L31.5976 88.6049" stroke="url(#paint2_linear_3886_17436)" stroke-width="0.155508" stroke-linecap="round" stroke-dasharray="0.31 0.62"/>
<path d="M24.6729 20.9844L133.324 83.7143" stroke="url(#paint3_linear_3886_17436)" stroke-width="0.155508" stroke-linecap="round" stroke-dasharray="0.31 0.62"/>
<path d="M53.5264 7.63281L162.178 70.3628" stroke="url(#paint4_linear_3886_17436)" stroke-width="0.155508" stroke-linecap="round" stroke-dasharray="0.31 0.62"/>
<path opacity="0.1" d="M53.5903 57.709L95.6866 33.4047L142.54 60.4553L100.443 84.7597L53.5903 57.709Z" fill="#2534D3"/>
<path d="M48.7832 45.8555L87.714 23.3788V40.4498L48.7832 62.9265V45.8555Z" fill="#2534D3"/>
<path d="M48.7832 45.8555L87.714 23.3788V40.4498L48.7832 62.9265V45.8555Z" stroke="#2534D3" stroke-width="0.0916402" stroke-linejoin="bevel"/>
<path d="M55.5919 47.4395C55.9365 47.2432 56.2437 47.1348 56.5138 47.1133C56.7838 47.0891 57.0096 47.1506 57.1912 47.2983C57.3728 47.4462 57.5015 47.6776 57.576 47.9922L56.6711 48.6963C56.6338 48.5135 56.5616 48.3815 56.4546 48.3008C56.3498 48.2161 56.2201 48.1804 56.0664 48.1938C55.9152 48.206 55.7531 48.259 55.5809 48.353C55.4134 48.4471 55.2575 48.5668 55.1133 48.7119C54.9713 48.853 54.8558 49.0055 54.7674 49.1694C54.6812 49.332 54.638 49.4891 54.638 49.6396C54.638 49.7819 54.6753 49.8773 54.7496 49.9258C54.8241 49.9715 54.9167 49.9894 55.0261 49.98C55.1378 49.9665 55.2504 49.9454 55.3644 49.9146L56.266 49.6841C56.3893 49.6505 56.5277 49.6218 56.6812 49.5977C56.8349 49.5735 56.9832 49.5782 57.1252 49.6118C57.2671 49.6455 57.3838 49.7296 57.4745 49.8652C57.5676 49.9996 57.614 50.2122 57.6141 50.5024C57.6141 50.8036 57.5594 51.1004 57.45 51.3921C57.3429 51.6797 57.1974 51.9518 57.0136 52.2085C56.8297 52.4653 56.6185 52.7002 56.381 52.9126C56.146 53.1235 55.8993 53.304 55.641 53.4531C55.2733 53.6654 54.9412 53.7832 54.6456 53.8062C54.3522 53.8277 54.11 53.7557 53.9191 53.5918C53.7305 53.4238 53.61 53.165 53.5588 52.8154L54.4324 52.1577C54.507 52.4588 54.6595 52.6373 54.89 52.6924C55.1228 52.7461 55.3908 52.6855 55.6934 52.5107C55.8725 52.4073 56.041 52.2778 56.1992 52.1221C56.3575 51.9661 56.4862 51.7978 56.584 51.6177C56.684 51.4363 56.7337 51.2552 56.7337 51.0752C56.7336 50.9947 56.7222 50.9272 56.699 50.8735C56.6757 50.8172 56.6406 50.7754 56.5941 50.7485C56.55 50.7204 56.4918 50.706 56.4199 50.7046C56.3502 50.6992 56.2684 50.7071 56.1755 50.7285L54.8756 51.0356C54.764 51.0625 54.643 51.0823 54.5128 51.0957C54.3847 51.1051 54.2622 51.0879 54.1457 51.0449C54.0318 50.9979 53.9369 50.9107 53.8624 50.7817C53.7903 50.6487 53.7542 50.454 53.7542 50.1987C53.7542 49.825 53.8364 49.4636 53.9994 49.1167C54.1647 48.7662 54.3856 48.4477 54.6625 48.1616C54.9419 47.8739 55.252 47.633 55.5919 47.4395ZM62.9117 44.6577C63.247 44.4642 63.5417 44.3571 63.7955 44.3369C64.0515 44.3155 64.2413 44.413 64.3647 44.6294C64.4321 44.7436 64.4725 44.8776 64.4865 45.0308C64.5004 45.1813 64.5076 45.3509 64.5076 45.5391V48.2129L63.771 48.6382V48.0493C63.6296 48.3442 63.4717 48.6002 63.2957 48.8159C63.0699 49.0913 62.7871 49.3273 62.4474 49.5234C62.175 49.6807 61.9442 49.7545 61.7556 49.7451C61.567 49.733 61.4238 49.6552 61.326 49.5127C61.2306 49.3689 61.183 49.1771 61.183 48.938C61.1831 48.7284 61.213 48.5228 61.2735 48.3213C61.3341 48.1171 61.427 47.9181 61.5526 47.7246C61.6784 47.5283 61.8421 47.3327 62.0423 47.1392C62.1935 46.9955 62.3703 46.8421 62.5726 46.6797C62.7775 46.5157 62.999 46.3461 63.2365 46.1714C63.3804 46.0641 63.5281 45.953 63.6796 45.8394C63.6646 45.6198 63.6109 45.477 63.5122 45.4155C63.3934 45.3417 63.1933 45.3858 62.9117 45.5483C62.7418 45.6464 62.5778 45.7875 62.4195 45.9702C62.2612 46.1531 62.15 46.3743 62.0871 46.6338L61.3192 46.7988C61.4123 46.3767 61.5887 45.9787 61.8495 45.605C62.1126 45.2299 62.467 44.9145 62.9117 44.6577ZM74.4407 36.5571C74.7852 36.3609 75.0924 36.2525 75.3625 36.231C75.6326 36.2068 75.8592 36.2677 76.0408 36.4155C76.2224 36.5634 76.3503 36.7953 76.4248 37.1099L75.5198 37.814C75.4826 37.6312 75.4104 37.4991 75.3033 37.4185C75.1986 37.3338 75.0696 37.2976 74.916 37.311C74.7647 37.3231 74.6027 37.3762 74.4305 37.4702C74.2629 37.5643 74.1064 37.6844 73.962 37.8296C73.82 37.9707 73.7045 38.1232 73.6161 38.2871C73.53 38.4497 73.4876 38.6063 73.4875 38.7568C73.4875 38.8993 73.5247 38.9946 73.5992 39.043C73.6737 39.0887 73.7655 39.107 73.8749 39.0977C73.9866 39.0842 74.0999 39.0627 74.214 39.0317L75.1147 38.8018C75.2381 38.7682 75.3772 38.739 75.5308 38.7148C75.6843 38.6907 75.8321 38.6959 75.974 38.7295C76.1159 38.7631 76.2325 38.8473 76.3233 38.9829C76.4164 39.1173 76.4628 39.3299 76.4628 39.6201C76.4628 39.9212 76.4082 40.218 76.2987 40.5098C76.1917 40.7973 76.0462 41.0695 75.8623 41.3262C75.6784 41.5829 75.4672 41.8179 75.2297 42.0303C74.9947 42.2412 74.748 42.4217 74.4897 42.5708C74.122 42.7831 73.7899 42.9009 73.4943 42.9238C73.2009 42.9453 72.9588 42.8735 72.7678 42.7095C72.5792 42.5414 72.4588 42.2826 72.4075 41.9331L73.2812 41.2754C73.3557 41.5765 73.5082 41.7549 73.7387 41.8101C73.9716 41.8638 74.2395 41.8032 74.5422 41.6284C74.7214 41.5249 74.8905 41.3951 75.0488 41.2393C75.2069 41.0834 75.335 40.9154 75.4327 40.7354C75.5328 40.5539 75.5832 40.3725 75.5833 40.1924C75.5832 40.1119 75.571 40.0449 75.5477 39.9912C75.5245 39.9349 75.4894 39.8931 75.4429 39.8662C75.3987 39.8381 75.3406 39.8236 75.2686 39.8223C75.1989 39.8169 75.1172 39.8247 75.0242 39.8462L73.7243 40.1533C73.6127 40.1802 73.4918 40.1999 73.3615 40.2134C73.2335 40.2228 73.1109 40.2056 72.9945 40.1626C72.8806 40.1156 72.7864 40.0277 72.712 39.8989C72.6399 39.7659 72.6038 39.5712 72.6038 39.3159C72.6038 38.9422 72.6852 38.5812 72.8482 38.2344C73.0134 37.8838 73.2344 37.5654 73.5112 37.2793C73.7906 36.9916 74.1007 36.7507 74.4407 36.5571ZM59.4738 46.7627L60.5809 46.1235V46.8862L59.4738 47.5254V49.2842C59.4738 49.4586 59.4749 49.611 59.4772 49.7412C59.4819 49.8703 59.5066 49.9642 59.5508 50.022C59.6346 50.1348 59.7686 50.1479 59.9525 50.0605C60.1363 49.9732 60.3459 49.8415 60.5809 49.6655V50.48C60.3318 50.6775 60.0874 50.8413 59.8476 50.9717C59.6101 51.1034 59.3969 51.1766 59.2083 51.1914C59.0198 51.2034 58.8764 51.1339 58.7786 50.9834C58.6926 50.845 58.6471 50.6792 58.6425 50.4858C58.6378 50.2923 58.6357 50.0711 58.6357 49.8237V48.0093L57.9507 48.4048V47.6421L58.6357 47.2466V46.0366L59.4738 45.5527V46.7627ZM69.3113 41.083L70.4184 40.4438V41.2065L69.3113 41.8457V43.6045C69.3113 43.7789 69.3124 43.9313 69.3147 44.0615C69.3194 44.1906 69.3441 44.2845 69.3883 44.3423C69.4721 44.4549 69.6055 44.4685 69.7892 44.3813C69.9731 44.294 70.1832 44.1619 70.4184 43.9858V44.8003C70.1694 44.9978 69.9249 45.1616 69.6851 45.292C69.4477 45.4237 69.2344 45.4969 69.0458 45.5117C68.8572 45.5238 68.7139 45.4543 68.6161 45.3037C68.5301 45.1653 68.4847 44.9996 68.48 44.8062C68.4753 44.6126 68.4724 44.3919 68.4724 44.1445V42.3301L67.7882 42.7251V41.9624L68.4724 41.5674V40.3574L69.3113 39.873V41.083ZM67.5404 42.1055V43.0137C67.4287 43.0406 67.2996 43.1031 67.153 43.2012C67.0088 43.2979 66.8786 43.4197 66.7623 43.5674C66.6459 43.7072 66.5501 43.8553 66.4756 44.0112C66.4035 44.1657 66.3499 44.3256 66.3149 44.4907C66.28 44.6532 66.2625 44.8183 66.2625 44.9849V47.1997L65.4168 47.688V43.3315L66.161 42.9019V43.6001C66.1896 43.5245 66.2209 43.4492 66.2557 43.3755C66.3348 43.2091 66.429 43.0555 66.5382 42.9146C66.6313 42.7882 66.7343 42.6718 66.846 42.5669C66.96 42.4582 67.0767 42.3656 67.1953 42.2891C67.3138 42.21 67.4289 42.1484 67.5404 42.1055ZM78.1306 40.3477L77.2891 40.8335V35.0259L78.1306 34.54V40.3477ZM81.4441 32.6348C81.5207 32.5933 81.5914 32.5608 81.6564 32.5366C81.9473 32.4197 82.1876 32.392 82.3761 32.4551C82.5671 32.5169 82.7082 32.6542 82.799 32.8652C82.892 33.0722 82.9385 33.336 82.9385 33.6558C82.9385 33.9729 82.8921 34.2903 82.799 34.6074C82.7059 34.9219 82.5636 35.2207 82.3728 35.5029C82.1842 35.7838 81.945 36.0328 81.6564 36.2505C81.5913 36.2988 81.5189 36.3489 81.4399 36.3999C81.3635 36.4494 81.302 36.4873 81.2556 36.5142L80.0191 37.228V39.2573L79.1768 39.7437V33.936L81.2556 32.7358C81.3044 32.7077 81.3675 32.6736 81.4441 32.6348ZM63.2788 46.9419C63.0971 47.0817 62.9406 47.2054 62.8102 47.313C62.6799 47.4178 62.5644 47.5179 62.4643 47.6133C62.3666 47.71 62.284 47.8052 62.2165 47.8979C62.149 47.9907 62.0965 48.0829 62.0592 48.1743C62.0243 48.2644 62.0068 48.3566 62.0068 48.4507C62.0068 48.5582 62.0304 48.6398 62.077 48.6963C62.1235 48.75 62.1908 48.7756 62.2791 48.7729C62.3699 48.7689 62.4822 48.729 62.6149 48.6523C62.8057 48.5421 62.9687 48.4088 63.1037 48.2529C63.2387 48.0971 63.3459 47.9398 63.4251 47.7812C63.5066 47.6213 63.5612 47.4828 63.5891 47.3672C63.6333 47.2182 63.6581 47.063 63.6627 46.9019C63.6669 46.8037 63.667 46.7185 63.6686 46.6436C63.5241 46.7535 63.3942 46.8531 63.2788 46.9419ZM80.0191 36.3208L81.22 35.6274C81.2666 35.6006 81.3192 35.5678 81.3773 35.5288C81.4355 35.4899 81.4892 35.4481 81.538 35.4038C81.6777 35.2829 81.787 35.1483 81.8662 35.0005C81.9476 34.8513 82.0052 34.7025 82.0378 34.5547C82.0727 34.4056 82.0902 34.2691 82.0903 34.1455C82.0903 34.0218 82.0728 33.9048 82.0378 33.7959C82.0052 33.6831 81.9476 33.5995 81.8662 33.5444C81.787 33.4881 81.6776 33.4797 81.538 33.52C81.4892 33.5321 81.4355 33.5536 81.3773 33.5845C81.3192 33.6127 81.2666 33.6406 81.22 33.6675L80.0191 34.3608V36.3208Z" fill="#222222"/>
<path d="M85.3904 60.4453C91.5949 60.4453 96.9072 62.6494 99.1072 65.7744L100.203 65.7803V69.1328H100.187C100.053 73.7833 93.4801 77.5293 85.3904 77.5293C77.2166 77.5292 70.5906 73.7048 70.5906 68.9873C70.5906 68.8791 70.5954 68.7713 70.6023 68.6641V65.6445L71.7625 65.6494C74.0144 62.5903 79.2685 60.4454 85.3904 60.4453Z" fill="#2534D3"/>
<path d="M85.3904 60.4453V60.2999H85.3904L85.3904 60.4453ZM99.1072 65.7744L98.9883 65.8581L99.0314 65.9194L99.1064 65.9198L99.1072 65.7744ZM100.203 65.7803H100.348V65.6356L100.204 65.6349L100.203 65.7803ZM100.203 69.1328V69.2782H100.348V69.1328H100.203ZM100.187 69.1328V68.9874H100.046L100.042 69.1286L100.187 69.1328ZM85.3904 77.5293L85.3904 77.6747H85.3904V77.5293ZM70.5906 68.9873H70.4452V68.9873L70.5906 68.9873ZM70.6023 68.6641L70.7477 68.6734V68.6641H70.6023ZM70.6023 65.6445L70.6029 65.4991L70.4569 65.4985V65.6445H70.6023ZM71.7625 65.6494L71.7618 65.7948L71.8357 65.7951L71.8796 65.7356L71.7625 65.6494ZM85.3904 60.4453V60.5907C88.476 60.5907 91.3369 61.1389 93.697 62.0732C96.0587 63.0082 97.9096 64.3259 98.9883 65.8581L99.1072 65.7744L99.2261 65.6907C98.1048 64.0979 96.1995 62.7511 93.804 61.8028C91.4068 60.8538 88.5092 60.2999 85.3904 60.2999V60.4453ZM99.1072 65.7744L99.1064 65.9198L100.202 65.9257L100.203 65.7803L100.204 65.6349L99.108 65.629L99.1072 65.7744ZM100.203 65.7803H100.057V69.1328H100.203H100.348V65.7803H100.203ZM100.203 69.1328V68.9874H100.187V69.1328V69.2782H100.203V69.1328ZM100.187 69.1328L100.042 69.1286C99.9767 71.3816 98.3497 73.443 95.7001 74.9485C93.0544 76.4519 89.4145 77.3839 85.3904 77.3839V77.5293V77.6747C89.4559 77.6747 93.1471 76.7337 95.8438 75.2014C98.5366 73.6713 100.263 71.5345 100.333 69.137L100.187 69.1328ZM85.3904 77.5293L85.3904 77.3839C81.3244 77.3838 77.6504 76.4323 74.998 74.9014C72.3418 73.3683 70.736 71.2721 70.736 68.9873L70.5906 68.9873L70.4452 68.9873C70.4452 71.42 72.1524 73.5948 74.8526 75.1533C77.5567 76.714 81.2827 77.6747 85.3904 77.6747L85.3904 77.5293ZM70.5906 68.9873H70.736C70.736 68.8833 70.7406 68.7789 70.7474 68.6734L70.6023 68.6641L70.4572 68.6547C70.4501 68.7638 70.4452 68.8749 70.4452 68.9873H70.5906ZM70.6023 68.6641H70.7477V65.6445H70.6023H70.4569V68.6641H70.6023ZM70.6023 65.6445L70.6017 65.79L71.7618 65.7948L71.7625 65.6494L71.7631 65.504L70.6029 65.4991L70.6023 65.6445ZM71.7625 65.6494L71.8796 65.7356C74.0928 62.7291 79.2917 60.5908 85.3904 60.5907L85.3904 60.4453L85.3904 60.2999C79.2453 60.3 73.9359 62.4516 71.6453 65.5632L71.7625 65.6494Z" fill="#2534D3"/>
<path d="M85.3904 57.3828C89.4663 57.3828 93.1533 58.3361 95.8181 59.874C98.4849 61.4132 100.115 63.5285 100.115 65.8486C100.115 68.1687 98.4849 70.2841 95.8181 71.8232C93.1533 73.3612 89.4663 74.3145 85.3904 74.3145C81.3146 74.3144 77.6283 73.3611 74.9636 71.8232C72.2968 70.2841 70.6668 68.1687 70.6667 65.8486C70.6667 63.5285 72.2968 61.4132 74.9636 59.874C77.6283 58.3362 81.3146 57.3829 85.3904 57.3828Z" fill="#222222" stroke="#2534D3" stroke-width="0.15212"/>
<path d="M86.0643 62.4023L84.788 63.1387C84.9823 63.1611 85.1743 63.1928 85.3632 63.2393C85.6525 63.3088 85.9296 63.4036 86.1962 63.5186L87.1298 62.9805L88.0887 63.5342L87.1591 64.0703C87.5093 64.3392 87.7337 64.6237 87.8309 64.9248C87.9645 65.3347 87.8024 65.7508 87.3456 66.1729C87.2331 66.2743 87.1276 66.3597 87.0292 66.4287C86.9273 66.4956 86.7952 66.5757 86.6337 66.6689L86.5614 66.71L92.201 66.5166L90.4296 67.5391L84.826 67.7129L83.6395 67.0283L85.4003 66.0117C85.4741 65.9691 85.5495 65.9209 85.6268 65.8682C85.7077 65.8134 85.7767 65.758 85.8329 65.7012C85.9839 65.549 86.0544 65.4009 86.0438 65.2568C86.0333 65.1087 85.968 64.9715 85.8485 64.8457C85.8448 64.8416 85.8405 64.838 85.8368 64.834L82.8759 66.5439L81.9159 65.9902L84.8778 64.2793C84.8711 64.2772 84.864 64.2755 84.8573 64.2734C84.636 64.2025 84.3969 64.1643 84.1405 64.1582C83.8875 64.1501 83.631 64.191 83.371 64.2803C83.2726 64.3127 83.1772 64.3527 83.0858 64.4014C82.9947 64.4459 82.9124 64.4897 82.8387 64.5322L81.078 65.5488L79.8866 64.8613L85.1053 61.8477L86.0643 62.4023Z" fill="#2534D3"/>
<path d="M82.3904 56.8711C88.5949 56.8711 93.9072 59.0752 96.1072 62.2002L97.2029 62.2061V65.5586H97.1873C97.0526 70.209 90.4801 73.9551 82.3904 73.9551C74.2166 73.9549 67.5906 70.1306 67.5906 65.4131C67.5906 65.3048 67.5954 65.1971 67.6023 65.0898V62.0703L68.7625 62.0752C71.0144 59.0161 76.2685 56.8712 82.3904 56.8711Z" fill="#2534D3"/>
<path d="M82.3904 56.8711V56.7257H82.3904L82.3904 56.8711ZM96.1072 62.2002L95.9883 62.2839L96.0314 62.3452L96.1064 62.3456L96.1072 62.2002ZM97.2029 62.2061H97.3483V62.0614L97.2037 62.0606L97.2029 62.2061ZM97.2029 65.5586V65.704H97.3483V65.5586H97.2029ZM97.1873 65.5586V65.4132H97.046L97.0419 65.5544L97.1873 65.5586ZM82.3904 73.9551L82.3904 74.1005H82.3904V73.9551ZM67.5906 65.4131H67.4452V65.4131L67.5906 65.4131ZM67.6023 65.0898L67.7477 65.0992V65.0898H67.6023ZM67.6023 62.0703L67.6029 61.9249L67.4569 61.9243V62.0703H67.6023ZM68.7625 62.0752L68.7618 62.2206L68.8357 62.2209L68.8796 62.1614L68.7625 62.0752ZM82.3904 56.8711V57.0165C85.476 57.0165 88.3369 57.5647 90.697 58.499C93.0587 59.4339 94.9096 60.7517 95.9883 62.2839L96.1072 62.2002L96.2261 62.1165C95.1048 60.5237 93.1995 59.1769 90.804 58.2285C88.4068 57.2795 85.5092 56.7257 82.3904 56.7257V56.8711ZM96.1072 62.2002L96.1064 62.3456L97.2021 62.3515L97.2029 62.2061L97.2037 62.0606L96.108 62.0548L96.1072 62.2002ZM97.2029 62.2061H97.0575V65.5586H97.2029H97.3483V62.2061H97.2029ZM97.2029 65.5586V65.4132H97.1873V65.5586V65.704H97.2029V65.5586ZM97.1873 65.5586L97.0419 65.5544C96.9767 67.8074 95.3497 69.8688 92.7001 71.3743C90.0544 72.8776 86.4145 73.8097 82.3904 73.8097V73.9551V74.1005C86.4559 74.1005 90.1471 73.1595 92.8438 71.6272C95.5366 70.0971 97.2632 67.9603 97.3326 65.5628L97.1873 65.5586ZM82.3904 73.9551L82.3904 73.8097C78.3244 73.8096 74.6504 72.858 71.998 71.3271C69.3418 69.794 67.736 67.6979 67.736 65.4131L67.5906 65.4131L67.4452 65.4131C67.4452 67.8458 69.1524 70.0206 71.8526 71.579C74.5567 73.1397 78.2827 74.1004 82.3904 74.1005L82.3904 73.9551ZM67.5906 65.4131H67.736C67.736 65.309 67.7406 65.2047 67.7474 65.0992L67.6023 65.0898L67.4572 65.0805C67.4501 65.1896 67.4452 65.3006 67.4452 65.4131H67.5906ZM67.6023 65.0898H67.7477V62.0703H67.6023H67.4569V65.0898H67.6023ZM67.6023 62.0703L67.6017 62.2157L68.7618 62.2206L68.7625 62.0752L68.7631 61.9298L67.6029 61.9249L67.6023 62.0703ZM68.7625 62.0752L68.8796 62.1614C71.0928 59.1549 76.2917 57.0166 82.3904 57.0165L82.3904 56.8711L82.3904 56.7257C76.2453 56.7258 70.9359 58.8774 68.6453 61.989L68.7625 62.0752Z" fill="#2534D3"/>
<path d="M82.3904 53.8066C86.4663 53.8066 90.1533 54.7599 92.8181 56.2979C95.4849 57.837 97.115 59.9523 97.115 62.2725C97.115 64.5926 95.4849 66.7079 92.8181 68.2471C90.1533 69.785 86.4663 70.7383 82.3904 70.7383C78.3146 70.7382 74.6283 69.7849 71.9636 68.2471C69.2968 66.7079 67.6668 64.5926 67.6667 62.2725C67.6667 59.9523 69.2968 57.837 71.9636 56.2979C74.6283 54.76 78.3146 53.8067 82.3904 53.8066Z" fill="#222222" stroke="#2534D3" stroke-width="0.15212"/>
<path d="M83.0643 58.8242L81.788 59.5605C81.9823 59.583 82.1743 59.6146 82.3632 59.6611C82.6525 59.7306 82.9296 59.8255 83.1962 59.9404L84.1298 59.4023L85.0887 59.9561L84.1591 60.4922C84.5093 60.7611 84.7337 61.0455 84.8309 61.3467C84.9645 61.7565 84.8024 62.1727 84.3456 62.5947C84.2331 62.6962 84.1276 62.7816 84.0292 62.8506C83.9273 62.9175 83.7952 62.9975 83.6337 63.0908L83.5614 63.1318L89.201 62.9385L87.4296 63.9609L81.826 64.1348L80.6395 63.4502L82.4003 62.4336C82.4741 62.391 82.5495 62.3428 82.6268 62.29C82.7077 62.2353 82.7767 62.1799 82.8329 62.123C82.9839 61.9709 83.0544 61.8227 83.0438 61.6787C83.0333 61.5306 82.968 61.3934 82.8485 61.2676C82.8448 61.2635 82.8405 61.2599 82.8368 61.2559L79.8759 62.9658L78.9159 62.4121L81.8778 60.7012C81.8711 60.6991 81.864 60.6973 81.8573 60.6953C81.636 60.6244 81.3969 60.5862 81.1405 60.5801C80.8875 60.572 80.631 60.6129 80.371 60.7021C80.2726 60.7346 80.1772 60.7746 80.0858 60.8232C79.9947 60.8678 79.9124 60.9116 79.8387 60.9541L78.078 61.9707L76.8866 61.2832L82.1053 58.2695L83.0643 58.8242Z" fill="#2534D3"/>
<path d="M104.39 38.7656C110.595 38.7656 115.907 40.9697 118.107 44.0947L119.203 44.1006V47.4531H119.187C119.053 52.1036 112.48 55.8496 104.39 55.8496C96.2166 55.8495 89.5906 52.0251 89.5906 47.3076C89.5906 47.1994 89.5954 47.0916 89.6023 46.9844V43.9648L90.7625 43.9697C93.0144 40.9107 98.2685 38.7657 104.39 38.7656Z" fill="#2534D3"/>
<path d="M104.39 38.7656V38.6202H104.39L104.39 38.7656ZM118.107 44.0947L117.988 44.1784L118.031 44.2397L118.106 44.2401L118.107 44.0947ZM119.203 44.1006H119.348V43.9559L119.204 43.9552L119.203 44.1006ZM119.203 47.4531V47.5985H119.348V47.4531H119.203ZM119.187 47.4531V47.3077H119.046L119.042 47.4489L119.187 47.4531ZM104.39 55.8496L104.39 55.995H104.39V55.8496ZM89.5906 47.3076H89.4452V47.3076L89.5906 47.3076ZM89.6023 46.9844L89.7477 46.9938V46.9844H89.6023ZM89.6023 43.9648L89.6029 43.8194L89.4569 43.8188V43.9648H89.6023ZM90.7625 43.9697L90.7618 44.1151L90.8357 44.1155L90.8796 44.0559L90.7625 43.9697ZM104.39 38.7656V38.911C107.476 38.911 110.337 39.4592 112.697 40.3935C115.059 41.3285 116.91 42.6462 117.988 44.1784L118.107 44.0947L118.226 44.011C117.105 42.4182 115.199 41.0714 112.804 40.1231C110.407 39.1741 107.509 38.6202 104.39 38.6202V38.7656ZM118.107 44.0947L118.106 44.2401L119.202 44.246L119.203 44.1006L119.204 43.9552L118.108 43.9493L118.107 44.0947ZM119.203 44.1006H119.057V47.4531H119.203H119.348V44.1006H119.203ZM119.203 47.4531V47.3077H119.187V47.4531V47.5985H119.203V47.4531ZM119.187 47.4531L119.042 47.4489C118.977 49.7019 117.35 51.7633 114.7 53.2688C112.054 54.7722 108.415 55.7042 104.39 55.7042V55.8496V55.995C108.456 55.995 112.147 55.054 114.844 53.5217C117.537 51.9916 119.263 49.8548 119.333 47.4573L119.187 47.4531ZM104.39 55.8496L104.39 55.7042C100.324 55.7041 96.6504 54.7526 93.998 53.2217C91.3418 51.6886 89.736 49.5924 89.736 47.3076L89.5906 47.3076L89.4452 47.3076C89.4452 49.7403 91.1524 51.9151 93.8526 53.4736C96.5567 55.0343 100.283 55.995 104.39 55.995L104.39 55.8496ZM89.5906 47.3076H89.736C89.736 47.2036 89.7406 47.0992 89.7474 46.9937L89.6023 46.9844L89.4572 46.975C89.4501 47.0841 89.4452 47.1952 89.4452 47.3076H89.5906ZM89.6023 46.9844H89.7477V43.9648H89.6023H89.4569V46.9844H89.6023ZM89.6023 43.9648L89.6017 44.1103L90.7618 44.1151L90.7625 43.9697L90.7631 43.8243L89.6029 43.8194L89.6023 43.9648ZM90.7625 43.9697L90.8796 44.0559C93.0928 41.0494 98.2917 38.9111 104.39 38.911L104.39 38.7656L104.39 38.6202C98.2453 38.6203 92.9359 40.7719 90.6453 43.8835L90.7625 43.9697Z" fill="#2534D3"/>
<path d="M104.39 35.7012C108.466 35.7012 112.153 36.6544 114.818 38.1924C117.485 39.7315 119.115 41.8469 119.115 44.167C119.115 46.4871 117.485 48.6024 114.818 50.1416C112.153 51.6795 108.466 52.6328 104.39 52.6328C100.315 52.6327 96.6283 51.6795 93.9636 50.1416C91.2968 48.6024 89.6668 46.4871 89.6667 44.167C89.6667 41.8469 91.2968 39.7315 93.9636 38.1924C96.6283 36.6545 100.315 35.7012 104.39 35.7012Z" fill="#222222" stroke="#2534D3" stroke-width="0.15212"/>
<path d="M105.064 40.7188L103.788 41.4551C103.982 41.4775 104.174 41.5092 104.363 41.5557C104.653 41.6252 104.93 41.72 105.196 41.835L106.13 41.2969L107.089 41.8506L106.159 42.3867C106.509 42.6556 106.734 42.9401 106.831 43.2412C106.964 43.6511 106.802 44.0672 106.346 44.4893C106.233 44.5907 106.128 44.6761 106.029 44.7451C105.927 44.8121 105.795 44.8921 105.634 44.9854L105.561 45.0264L111.201 44.833L109.43 45.8555L103.826 46.0293L102.64 45.3447L104.4 44.3281C104.474 44.2855 104.55 44.2373 104.627 44.1846C104.708 44.1298 104.777 44.0744 104.833 44.0176C104.984 43.8654 105.054 43.7173 105.044 43.5732C105.033 43.4251 104.968 43.2879 104.849 43.1621C104.845 43.158 104.841 43.1544 104.837 43.1504L101.876 44.8604L100.916 44.3066L103.878 42.5957C103.871 42.5936 103.864 42.5919 103.857 42.5898C103.636 42.5189 103.397 42.4807 103.141 42.4746C102.887 42.4665 102.631 42.5074 102.371 42.5967C102.273 42.6291 102.177 42.6691 102.086 42.7178C101.995 42.7623 101.912 42.8061 101.839 42.8486L100.078 43.8652L98.8866 43.1777L104.105 40.1641L105.064 40.7188Z" fill="#2534D3"/>
<path d="M104.39 33.543C110.595 33.543 115.907 35.747 118.107 38.8721L119.203 38.8779V42.2305H119.187C119.053 46.8809 112.48 50.627 104.39 50.627C96.2166 50.6268 89.5906 46.8025 89.5906 42.085C89.5906 41.9767 89.5954 41.869 89.6023 41.7617V38.7422L90.7625 38.7471C93.0144 35.688 98.2685 33.5431 104.39 33.543Z" fill="#2534D3"/>
<path d="M104.39 33.543V33.3975H104.39L104.39 33.543ZM118.107 38.8721L117.988 38.9558L118.031 39.0171L118.106 39.0175L118.107 38.8721ZM119.203 38.8779H119.348V38.7333L119.204 38.7325L119.203 38.8779ZM119.203 42.2305V42.3759H119.348V42.2305H119.203ZM119.187 42.2305V42.085H119.046L119.042 42.2263L119.187 42.2305ZM104.39 50.627L104.39 50.7724H104.39V50.627ZM89.5906 42.085H89.4452V42.085L89.5906 42.085ZM89.6023 41.7617L89.7477 41.7711V41.7617H89.6023ZM89.6023 38.7422L89.6029 38.5968L89.4569 38.5962V38.7422H89.6023ZM90.7625 38.7471L90.7618 38.8925L90.8357 38.8928L90.8796 38.8333L90.7625 38.7471ZM104.39 33.543V33.6884C107.476 33.6884 110.337 34.2366 112.697 35.1708C115.059 36.1058 116.91 37.4236 117.988 38.9558L118.107 38.8721L118.226 38.7884C117.105 37.1955 115.199 35.8487 112.804 34.9004C110.407 33.9514 107.509 33.3975 104.39 33.3975V33.543ZM118.107 38.8721L118.106 39.0175L119.202 39.0233L119.203 38.8779L119.204 38.7325L118.108 38.7267L118.107 38.8721ZM119.203 38.8779H119.057V42.2305H119.203H119.348V38.8779H119.203ZM119.203 42.2305V42.085H119.187V42.2305V42.3759H119.203V42.2305ZM119.187 42.2305L119.042 42.2263C118.977 44.4792 117.35 46.5406 114.7 48.0462C112.054 49.5495 108.415 50.4815 104.39 50.4815V50.627V50.7724C108.456 50.7724 112.147 49.8314 114.844 48.2991C117.537 46.769 119.263 44.6321 119.333 42.2347L119.187 42.2305ZM104.39 50.627L104.39 50.4815C100.324 50.4815 96.6504 49.5299 93.998 47.999C91.3418 46.4659 89.736 44.3697 89.736 42.085L89.5906 42.085L89.4452 42.085C89.4452 44.5177 91.1524 46.6924 93.8526 48.2509C96.5567 49.8116 100.283 50.7723 104.39 50.7724L104.39 50.627ZM89.5906 42.085H89.736C89.736 41.9809 89.7406 41.8765 89.7474 41.7711L89.6023 41.7617L89.4572 41.7524C89.4501 41.8614 89.4452 41.9725 89.4452 42.085H89.5906ZM89.6023 41.7617H89.7477V38.7422H89.6023H89.4569V41.7617H89.6023ZM89.6023 38.7422L89.6017 38.8876L90.7618 38.8925L90.7625 38.7471L90.7631 38.6017L89.6029 38.5968L89.6023 38.7422ZM90.7625 38.7471L90.8796 38.8333C93.0928 35.8268 98.2917 33.6885 104.39 33.6884L104.39 33.543L104.39 33.3975C98.2453 33.3976 92.9359 35.5493 90.6453 38.6609L90.7625 38.7471Z" fill="#2534D3"/>
<path d="M104.39 30.4785C108.466 30.4785 112.153 31.4318 114.818 32.9697C117.485 34.5089 119.115 36.6242 119.115 38.9443C119.115 41.2644 117.485 43.3798 114.818 44.9189C112.153 46.4569 108.466 47.4102 104.39 47.4102C100.315 47.4101 96.6283 46.4568 93.9636 44.9189C91.2968 43.3798 89.6668 41.2644 89.6667 38.9443C89.6667 36.6242 91.2968 34.5089 93.9636 32.9697C96.6283 31.4319 100.315 30.4786 104.39 30.4785Z" fill="#222222" stroke="#2534D3" stroke-width="0.15212"/>
<path d="M105.064 35.4961L103.788 36.2324C103.982 36.2548 104.174 36.2865 104.363 36.333C104.653 36.4025 104.93 36.4974 105.196 36.6123L106.13 36.0742L107.089 36.6279L106.159 37.1641C106.509 37.433 106.734 37.7174 106.831 38.0186C106.964 38.4284 106.802 38.8446 106.346 39.2666C106.233 39.3681 106.128 39.4535 106.029 39.5225C105.927 39.5894 105.795 39.6694 105.634 39.7627L105.561 39.8037L111.201 39.6104L109.43 40.6328L103.826 40.8066L102.64 40.1221L104.4 39.1055C104.474 39.0629 104.55 39.0147 104.627 38.9619C104.708 38.9071 104.777 38.8517 104.833 38.7949C104.984 38.6428 105.054 38.4946 105.044 38.3506C105.033 38.2025 104.968 38.0653 104.849 37.9395C104.845 37.9354 104.841 37.9318 104.837 37.9277L101.876 39.6377L100.916 39.084L103.878 37.373C103.871 37.371 103.864 37.3692 103.857 37.3672C103.636 37.2962 103.397 37.258 103.141 37.252C102.887 37.2438 102.631 37.2848 102.371 37.374C102.273 37.4065 102.177 37.4464 102.086 37.4951C101.995 37.5397 101.912 37.5835 101.839 37.626L100.078 38.6426L98.8866 37.9551L104.105 34.9414L105.064 35.4961Z" fill="#2534D3"/>
<path d="M104.39 28.3164C110.595 28.3164 115.907 30.5205 118.107 33.6455L119.203 33.6514V37.0039H119.187C119.053 41.6544 112.48 45.4004 104.39 45.4004C96.2166 45.4003 89.5906 41.5759 89.5906 36.8584C89.5906 36.7502 89.5954 36.6424 89.6023 36.5352V33.5156L90.7625 33.5205C93.0144 30.4614 98.2685 28.3165 104.39 28.3164Z" fill="#2534D3"/>
<path d="M104.39 28.3164V28.171H104.39L104.39 28.3164ZM118.107 33.6455L117.988 33.7292L118.031 33.7905L118.106 33.7909L118.107 33.6455ZM119.203 33.6514H119.348V33.5067L119.204 33.5059L119.203 33.6514ZM119.203 37.0039V37.1493H119.348V37.0039H119.203ZM119.187 37.0039V36.8585H119.046L119.042 36.9997L119.187 37.0039ZM104.39 45.4004L104.39 45.5458H104.39V45.4004ZM89.5906 36.8584H89.4452V36.8584L89.5906 36.8584ZM89.6023 36.5352L89.7477 36.5445V36.5352H89.6023ZM89.6023 33.5156L89.6029 33.3702L89.4569 33.3696V33.5156H89.6023ZM90.7625 33.5205L90.7618 33.6659L90.8357 33.6662L90.8796 33.6067L90.7625 33.5205ZM104.39 28.3164V28.4618C107.476 28.4618 110.337 29.01 112.697 29.9443C115.059 30.8793 116.91 32.197 117.988 33.7292L118.107 33.6455L118.226 33.5618C117.105 31.969 115.199 30.6222 112.804 29.6739C110.407 28.7249 107.509 28.171 104.39 28.171V28.3164ZM118.107 33.6455L118.106 33.7909L119.202 33.7968L119.203 33.6514L119.204 33.5059L118.108 33.5001L118.107 33.6455ZM119.203 33.6514H119.057V37.0039H119.203H119.348V33.6514H119.203ZM119.203 37.0039V36.8585H119.187V37.0039V37.1493H119.203V37.0039ZM119.187 37.0039L119.042 36.9997C118.977 39.2527 117.35 41.3141 114.7 42.8196C112.054 44.323 108.415 45.255 104.39 45.255V45.4004V45.5458C108.456 45.5458 112.147 44.6048 114.844 43.0725C117.537 41.5424 119.263 39.4056 119.333 37.0081L119.187 37.0039ZM104.39 45.4004L104.39 45.255C100.324 45.2549 96.6504 44.3034 93.998 42.7725C91.3418 41.2394 89.736 39.1432 89.736 36.8584L89.5906 36.8584L89.4452 36.8584C89.4452 39.2911 91.1524 41.4659 93.8526 43.0244C96.5567 44.5851 100.283 45.5457 104.39 45.5458L104.39 45.4004ZM89.5906 36.8584H89.736C89.736 36.7544 89.7406 36.65 89.7474 36.5445L89.6023 36.5352L89.4572 36.5258C89.4501 36.6349 89.4452 36.746 89.4452 36.8584H89.5906ZM89.6023 36.5352H89.7477V33.5156H89.6023H89.4569V36.5352H89.6023ZM89.6023 33.5156L89.6017 33.661L90.7618 33.6659L90.7625 33.5205L90.7631 33.3751L89.6029 33.3702L89.6023 33.5156ZM90.7625 33.5205L90.8796 33.6067C93.0928 30.6002 98.2917 28.4619 104.39 28.4618L104.39 28.3164L104.39 28.171C98.2453 28.1711 92.9359 30.3227 90.6453 33.4343L90.7625 33.5205Z" fill="#2534D3"/>
<path d="M104.39 25.2539C108.466 25.2539 112.153 26.2072 114.818 27.7451C117.485 29.2843 119.115 31.3996 119.115 33.7197C119.115 36.0398 117.485 38.1552 114.818 39.6943C112.153 41.2323 108.466 42.1855 104.39 42.1855C100.315 42.1855 96.6283 41.2322 93.9636 39.6943C91.2968 38.1552 89.6668 36.0398 89.6667 33.7197C89.6667 31.3996 91.2968 29.2843 93.9636 27.7451C96.6283 26.2073 100.315 25.254 104.39 25.2539Z" fill="#222222" stroke="#2534D3" stroke-width="0.15212"/>
<path d="M105.064 30.2734L103.788 31.0098C103.982 31.0322 104.174 31.0639 104.363 31.1104C104.653 31.1799 104.93 31.2747 105.196 31.3896L106.13 30.8516L107.089 31.4053L106.159 31.9414C106.509 32.2103 106.734 32.4948 106.831 32.7959C106.964 33.2058 106.802 33.6219 106.346 34.0439C106.233 34.1454 106.128 34.2308 106.029 34.2998C105.927 34.3667 105.795 34.4468 105.634 34.54L105.561 34.5811L111.201 34.3877L109.43 35.4102L103.826 35.584L102.64 34.8994L104.4 33.8828C104.474 33.8402 104.55 33.792 104.627 33.7393C104.708 33.6845 104.777 33.6291 104.833 33.5723C104.984 33.4201 105.054 33.272 105.044 33.1279C105.033 32.9798 104.968 32.8426 104.849 32.7168C104.845 32.7127 104.841 32.7091 104.837 32.7051L101.876 34.415L100.916 33.8613L103.878 32.1504C103.871 32.1483 103.864 32.1466 103.857 32.1445C103.636 32.0736 103.397 32.0354 103.141 32.0293C102.887 32.0212 102.631 32.0621 102.371 32.1514C102.273 32.1838 102.177 32.2238 102.086 32.2725C101.995 32.317 101.912 32.3608 101.839 32.4033L100.078 33.4199L98.8866 32.7324L104.105 29.7188L105.064 30.2734Z" fill="#2534D3"/>
<path d="M104.39 23.0938C110.595 23.0938 115.907 25.2978 118.107 28.4229L119.203 28.4287V31.7812H119.187C119.053 36.4317 112.48 40.1777 104.39 40.1777C96.2166 40.1776 89.5906 36.3532 89.5906 31.6357C89.5906 31.5275 89.5954 31.4198 89.6023 31.3125V28.293L90.7625 28.2979C93.0144 25.2388 98.2685 23.0938 104.39 23.0938Z" fill="#2534D3"/>
<path d="M104.39 23.0938V22.9483H104.39L104.39 23.0938ZM118.107 28.4229L117.988 28.5066L118.031 28.5679L118.106 28.5683L118.107 28.4229ZM119.203 28.4287H119.348V28.2841L119.204 28.2833L119.203 28.4287ZM119.203 31.7812V31.9267H119.348V31.7812H119.203ZM119.187 31.7812V31.6358H119.046L119.042 31.777L119.187 31.7812ZM104.39 40.1777L104.39 40.3232H104.39V40.1777ZM89.5906 31.6357H89.4452V31.6357L89.5906 31.6357ZM89.6023 31.3125L89.7477 31.3219V31.3125H89.6023ZM89.6023 28.293L89.6029 28.1475L89.4569 28.1469V28.293H89.6023ZM90.7625 28.2979L90.7618 28.4433L90.8357 28.4436L90.8796 28.3841L90.7625 28.2979ZM104.39 23.0938V23.2392C107.476 23.2392 110.337 23.7873 112.697 24.7216C115.059 25.6566 116.91 26.9744 117.988 28.5066L118.107 28.4229L118.226 28.3391C117.105 26.7463 115.199 25.3995 112.804 24.4512C110.407 23.5022 107.509 22.9483 104.39 22.9483V23.0938ZM118.107 28.4229L118.106 28.5683L119.202 28.5741L119.203 28.4287L119.204 28.2833L118.108 28.2774L118.107 28.4229ZM119.203 28.4287H119.057V31.7812H119.203H119.348V28.4287H119.203ZM119.203 31.7812V31.6358H119.187V31.7812V31.9267H119.203V31.7812ZM119.187 31.7812L119.042 31.777C118.977 34.03 117.35 36.0914 114.7 37.597C112.054 39.1003 108.415 40.0323 104.39 40.0323V40.1777V40.3232C108.456 40.3232 112.147 39.3821 114.844 37.8498C117.537 36.3198 119.263 34.1829 119.333 31.7855L119.187 31.7812ZM104.39 40.1777L104.39 40.0323C100.324 40.0322 96.6504 39.0807 93.998 37.5498C91.3418 36.0167 89.736 33.9205 89.736 31.6357L89.5906 31.6357L89.4452 31.6357C89.4452 34.0685 91.1524 36.2432 93.8526 37.8017C96.5567 39.3624 100.283 40.3231 104.39 40.3232L104.39 40.1777ZM89.5906 31.6357H89.736C89.736 31.5317 89.7406 31.4273 89.7474 31.3219L89.6023 31.3125L89.4572 31.3031C89.4501 31.4122 89.4452 31.5233 89.4452 31.6357H89.5906ZM89.6023 31.3125H89.7477V28.293H89.6023H89.4569V31.3125H89.6023ZM89.6023 28.293L89.6017 28.4384L90.7618 28.4433L90.7625 28.2979L90.7631 28.1524L89.6029 28.1475L89.6023 28.293ZM90.7625 28.2979L90.8796 28.3841C93.0928 25.3775 98.2917 23.2393 104.39 23.2392L104.39 23.0938L104.39 22.9483C98.2453 22.9484 92.9359 25.1 90.6453 28.2116L90.7625 28.2979Z" fill="#2534D3"/>
<path d="M104.39 20.0293C108.466 20.0293 112.153 20.9826 114.818 22.5205C117.485 24.0597 119.115 26.175 119.115 28.4951C119.115 30.8152 117.485 32.9306 114.818 34.4697C112.153 36.0077 108.466 36.9609 104.39 36.9609C100.315 36.9609 96.6283 36.0076 93.9636 34.4697C91.2968 32.9306 89.6668 30.8152 89.6667 28.4951C89.6667 26.175 91.2968 24.0597 93.9636 22.5205C96.6283 20.9827 100.315 20.0294 104.39 20.0293Z" fill="#222222" stroke="#2534D3" stroke-width="0.15212"/>
<path d="M105.064 25.0469L103.788 25.7832C103.982 25.8056 104.174 25.8373 104.363 25.8838C104.653 25.9533 104.93 26.0481 105.196 26.1631L106.13 25.625L107.089 26.1787L106.159 26.7148C106.509 26.9838 106.734 27.2682 106.831 27.5693C106.964 27.9792 106.802 28.3954 106.346 28.8174C106.233 28.9188 106.128 29.0043 106.029 29.0732C105.927 29.1402 105.795 29.2202 105.634 29.3135L105.561 29.3545L111.201 29.1611L109.43 30.1836L103.826 30.3574L102.64 29.6729L104.4 28.6562C104.474 28.6136 104.55 28.5654 104.627 28.5127C104.708 28.4579 104.777 28.4025 104.833 28.3457C104.984 28.1936 105.054 28.0454 105.044 27.9014C105.033 27.7533 104.968 27.616 104.849 27.4902C104.845 27.4861 104.841 27.4826 104.837 27.4785L101.876 29.1885L100.916 28.6348L103.878 26.9238C103.871 26.9218 103.864 26.92 103.857 26.918C103.636 26.847 103.397 26.8088 103.141 26.8027C102.887 26.7946 102.631 26.8355 102.371 26.9248C102.273 26.9573 102.177 26.9972 102.086 27.0459C101.995 27.0904 101.912 27.1342 101.839 27.1768L100.078 28.1934L98.8866 27.5059L104.105 24.4922L105.064 25.0469Z" fill="#2534D3"/>
<path d="M101.39 17.8711C107.595 17.8711 112.907 20.0752 115.107 23.2002L116.203 23.2061V26.5586H116.187C116.053 31.209 109.48 34.9551 101.39 34.9551C93.2166 34.9549 86.5906 31.1306 86.5906 26.4131C86.5906 26.3048 86.5954 26.1971 86.6023 26.0898V23.0703L87.7625 23.0752C90.0144 20.0161 95.2685 17.8712 101.39 17.8711Z" fill="#2534D3"/>
<path d="M101.39 17.8711V17.7257H101.39L101.39 17.8711ZM115.107 23.2002L114.988 23.2839L115.031 23.3452L115.106 23.3456L115.107 23.2002ZM116.203 23.2061H116.348V23.0614L116.204 23.0606L116.203 23.2061ZM116.203 26.5586V26.704H116.348V26.5586H116.203ZM116.187 26.5586V26.4132H116.046L116.042 26.5544L116.187 26.5586ZM101.39 34.9551L101.39 35.1005H101.39V34.9551ZM86.5906 26.4131H86.4452V26.4131L86.5906 26.4131ZM86.6023 26.0898L86.7477 26.0992V26.0898H86.6023ZM86.6023 23.0703L86.6029 22.9249L86.4569 22.9243V23.0703H86.6023ZM87.7625 23.0752L87.7618 23.2206L87.8357 23.2209L87.8796 23.1614L87.7625 23.0752ZM101.39 17.8711V18.0165C104.476 18.0165 107.337 18.5647 109.697 19.499C112.059 20.4339 113.91 21.7517 114.988 23.2839L115.107 23.2002L115.226 23.1165C114.105 21.5237 112.199 20.1769 109.804 19.2285C107.407 18.2795 104.509 17.7257 101.39 17.7257V17.8711ZM115.107 23.2002L115.106 23.3456L116.202 23.3515L116.203 23.2061L116.204 23.0606L115.108 23.0548L115.107 23.2002ZM116.203 23.2061H116.057V26.5586H116.203H116.348V23.2061H116.203ZM116.203 26.5586V26.4132H116.187V26.5586V26.704H116.203V26.5586ZM116.187 26.5586L116.042 26.5544C115.977 28.8074 114.35 30.8688 111.7 32.3743C109.054 33.8776 105.415 34.8097 101.39 34.8097V34.9551V35.1005C105.456 35.1005 109.147 34.1595 111.844 32.6272C114.537 31.0971 116.263 28.9603 116.333 26.5628L116.187 26.5586ZM101.39 34.9551L101.39 34.8097C97.3244 34.8096 93.6504 33.858 90.998 32.3271C88.3418 30.794 86.736 28.6979 86.736 26.4131L86.5906 26.4131L86.4452 26.4131C86.4452 28.8458 88.1524 31.0206 90.8526 32.579C93.5567 34.1397 97.2827 35.1004 101.39 35.1005L101.39 34.9551ZM86.5906 26.4131H86.736C86.736 26.309 86.7406 26.2047 86.7474 26.0992L86.6023 26.0898L86.4572 26.0805C86.4501 26.1896 86.4452 26.3006 86.4452 26.4131H86.5906ZM86.6023 26.0898H86.7477V23.0703H86.6023H86.4569V26.0898H86.6023ZM86.6023 23.0703L86.6017 23.2157L87.7618 23.2206L87.7625 23.0752L87.7631 22.9298L86.6029 22.9249L86.6023 23.0703ZM87.7625 23.0752L87.8796 23.1614C90.0928 20.1549 95.2917 18.0166 101.39 18.0165L101.39 17.8711L101.39 17.7257C95.2453 17.7258 89.9359 19.8774 87.6453 22.989L87.7625 23.0752Z" fill="#2534D3"/>
<path d="M101.39 14.8066C105.466 14.8066 109.153 15.7599 111.818 17.2979C114.485 18.837 116.115 20.9523 116.115 23.2725C116.115 25.5926 114.485 27.7079 111.818 29.2471C109.153 30.785 105.466 31.7383 101.39 31.7383C97.3146 31.7382 93.6283 30.7849 90.9636 29.2471C88.2968 27.7079 86.6668 25.5926 86.6667 23.2725C86.6667 20.9523 88.2968 18.837 90.9636 17.2979C93.6283 15.76 97.3146 14.8067 101.39 14.8066Z" fill="#222222" stroke="#2534D3" stroke-width="0.15212"/>
<path d="M102.064 19.8242L100.788 20.5605C100.982 20.583 101.174 20.6146 101.363 20.6611C101.653 20.7306 101.93 20.8255 102.196 20.9404L103.13 20.4023L104.089 20.9561L103.159 21.4922C103.509 21.7611 103.734 22.0455 103.831 22.3467C103.964 22.7565 103.802 23.1727 103.346 23.5947C103.233 23.6962 103.128 23.7816 103.029 23.8506C102.927 23.9175 102.795 23.9975 102.634 24.0908L102.561 24.1318L108.201 23.9385L106.43 24.9609L100.826 25.1348L99.6395 24.4502L101.4 23.4336C101.474 23.391 101.55 23.3428 101.627 23.29C101.708 23.2353 101.777 23.1799 101.833 23.123C101.984 22.9709 102.054 22.8227 102.044 22.6787C102.033 22.5306 101.968 22.3934 101.849 22.2676C101.845 22.2635 101.841 22.2599 101.837 22.2559L98.8759 23.9658L97.9159 23.4121L100.878 21.7012C100.871 21.6991 100.864 21.6973 100.857 21.6953C100.636 21.6244 100.397 21.5862 100.141 21.5801C99.8875 21.572 99.631 21.6129 99.371 21.7021C99.2726 21.7346 99.1772 21.7746 99.0858 21.8232C98.9947 21.8678 98.9124 21.9116 98.8387 21.9541L97.078 22.9707L95.8866 22.2832L101.105 19.2695L102.064 19.8242Z" fill="#2534D3"/>
<path d="M137.196 37.335V63.6621L130.657 59.8867V33.5596L137.196 37.335Z" fill="#23264E" stroke="#E9E9E9" stroke-width="0.15212"/>
<path d="M143.863 33.7827V59.8765L137.295 63.6685V37.5747L143.863 33.7827Z" fill="#2534D3" stroke="#E9E9E9" stroke-width="0.12"/>
<path d="M130.591 33.582L137.262 29.7303L143.933 33.582L137.262 37.4338L130.591 33.582Z" fill="#C8D33E" stroke="#E9E9E9" stroke-width="0.123441" stroke-linejoin="bevel"/>
<path d="M128.21 51.3501V68.3657L121.642 64.5737V47.5581L128.21 51.3501Z" fill="#23264E" stroke="#E9E9E9" stroke-width="0.12"/>
<path d="M134.863 47.6226V64.6226L128.295 68.4146V51.4146L134.863 47.6226Z" fill="#2534D3" stroke="#E9E9E9" stroke-width="0.12"/>
<path d="M121.591 47.582L128.262 43.7303L134.933 47.582L128.262 51.4338L121.591 47.582Z" fill="#222222" stroke="#E9E9E9" stroke-width="0.123441" stroke-linejoin="bevel"/>
<path d="M119.196 64.3701V74.3418L112.657 70.5664V60.5947L119.196 64.3701Z" fill="#23264E" stroke="#E9E9E9" stroke-width="0.15212"/>
<path d="M125.863 60.6187V70.6226L119.295 74.4146V64.4106L125.863 60.6187Z" fill="#2534D3" stroke="#E9E9E9" stroke-width="0.12"/>
<path d="M112.591 60.582L119.262 56.7303L125.933 60.582L119.262 64.4338L112.591 60.582Z" fill="#222222" stroke="#E9E9E9" stroke-width="0.123441" stroke-linejoin="bevel"/>
<defs>
<linearGradient id="paint0_linear_3886_17436" x1="64.7815" y1="105.578" x2="119.107" y2="11.4827" gradientUnits="userSpaceOnUse">
<stop stop-color="#7A7A7A"/>
<stop offset="1" stop-color="#222222"/>
</linearGradient>
<linearGradient id="paint1_linear_3886_17436" x1="0.803605" y1="68.5366" x2="55.1293" y2="-25.5583" gradientUnits="userSpaceOnUse">
<stop stop-color="#7A7A7A"/>
<stop offset="1" stop-color="#222222"/>
</linearGradient>
<linearGradient id="paint2_linear_3886_17436" x1="31.8438" y1="89.0401" x2="118.246" y2="40.1422" gradientUnits="userSpaceOnUse">
<stop stop-color="#7A7A7A"/>
<stop offset="1" stop-color="#222222"/>
</linearGradient>
<linearGradient id="paint3_linear_3886_17436" x1="133.757" y1="83.4643" x2="79.4317" y2="-10.6306" gradientUnits="userSpaceOnUse">
<stop stop-color="#7A7A7A"/>
<stop offset="1" stop-color="#222222"/>
</linearGradient>
<linearGradient id="paint4_linear_3886_17436" x1="162.611" y1="70.1128" x2="108.285" y2="-23.9822" gradientUnits="userSpaceOnUse">
<stop stop-color="#7A7A7A"/>
<stop offset="1" stop-color="#222222"/>
</linearGradient>
</defs>
</svg>
