<svg width="328" height="72" viewBox="0 0 328 72" fill="none" xmlns="http://www.w3.org/2000/svg">
<mask id="path-1-inside-1_2004_9317" fill="white">
<path d="M0 8C0 3.58172 3.58172 0 8 0H320C324.418 0 328 3.58172 328 8V64C328 68.4183 324.418 72 320 72H7.99999C3.58171 72 0 68.4183 0 64V8Z"/>
</mask>
<path d="M0 8C0 3.58172 3.58172 0 8 0H320C324.418 0 328 3.58172 328 8V64C328 68.4183 324.418 72 320 72H7.99999C3.58171 72 0 68.4183 0 64V8Z" fill="url(#paint0_linear_2004_9317)"/>
<path d="M8 0.5H320V-0.5H8V0.5ZM327.5 8V64H328.5V8H327.5ZM320 71.5H7.99999V72.5H320V71.5ZM0.5 64V8H-0.5V64H0.5ZM7.99999 71.5C3.85786 71.5 0.5 68.1421 0.5 64H-0.5C-0.5 68.6944 3.30557 72.5 7.99999 72.5V71.5ZM327.5 64C327.5 68.1421 324.142 71.5 320 71.5V72.5C324.694 72.5 328.5 68.6944 328.5 64H327.5ZM320 0.5C324.142 0.5 327.5 3.85786 327.5 8H328.5C328.5 3.30558 324.694 -0.5 320 -0.5V0.5ZM8 -0.5C3.30558 -0.5 -0.5 3.30558 -0.5 8H0.5C0.5 3.85786 3.85786 0.5 8 0.5V-0.5Z" fill="#292929" mask="url(#path-1-inside-1_2004_9317)"/>
<path d="M10 36C10 24.9543 18.9543 16 30 16C41.0457 16 50 24.9543 50 36C50 47.0457 41.0457 56 30 56C18.9543 56 10 47.0457 10 36Z" fill="url(#paint1_linear_2004_9317)"/>
<path d="M25.0574 44V41.3556H18V38.8556L23.0995 28H26.1414L21.042 38.8556H25.0574V34.6889H27.7565V38.8556H29.2498V41.3556H27.7565V44H25.0574Z" fill="black"/>
<path d="M30.1861 44L34.5555 37.9333L30.2746 32H33.4161L36.1041 35.8333L38.7478 32H41.8894L37.6085 37.9333L42 44H38.8585L36.1041 40.0333L33.3276 44H30.1861Z" fill="black"/>
<path d="M58.84 32.5V23.86H60.142L63.13 29.98L66.118 23.86H67.42V32.5H66.07V26.962L63.418 32.5H62.842L60.196 26.962V32.5H58.84ZM70.9176 32.68C70.4496 32.68 70.0536 32.592 69.7296 32.416C69.4056 32.236 69.1596 31.998 68.9916 31.702C68.8276 31.406 68.7456 31.08 68.7456 30.724C68.7456 30.412 68.7976 30.132 68.9016 29.884C69.0056 29.632 69.1656 29.416 69.3816 29.236C69.5976 29.052 69.8776 28.902 70.2216 28.786C70.4816 28.702 70.7856 28.626 71.1336 28.558C71.4856 28.49 71.8656 28.428 72.2736 28.372C72.6856 28.312 73.1156 28.248 73.5636 28.18L73.0476 28.474C73.0516 28.026 72.9516 27.696 72.7476 27.484C72.5436 27.272 72.1996 27.166 71.7156 27.166C71.4236 27.166 71.1416 27.234 70.8696 27.37C70.5976 27.506 70.4076 27.74 70.2996 28.072L68.9796 27.658C69.1396 27.11 69.4436 26.67 69.8916 26.338C70.3436 26.006 70.9516 25.84 71.7156 25.84C72.2916 25.84 72.7976 25.934 73.2336 26.122C73.6736 26.31 73.9996 26.618 74.2116 27.046C74.3276 27.274 74.3976 27.508 74.4216 27.748C74.4456 27.984 74.4576 28.242 74.4576 28.522V32.5H73.1916V31.096L73.4016 31.324C73.1096 31.792 72.7676 32.136 72.3756 32.356C71.9876 32.572 71.5016 32.68 70.9176 32.68ZM71.2056 31.528C71.5336 31.528 71.8136 31.47 72.0456 31.354C72.2776 31.238 72.4616 31.096 72.5976 30.928C72.7376 30.76 72.8316 30.602 72.8796 30.454C72.9556 30.27 72.9976 30.06 73.0056 29.824C73.0176 29.584 73.0236 29.39 73.0236 29.242L73.4676 29.374C73.0316 29.442 72.6576 29.502 72.3456 29.554C72.0336 29.606 71.7656 29.656 71.5416 29.704C71.3176 29.748 71.1196 29.798 70.9476 29.854C70.7796 29.914 70.6376 29.984 70.5216 30.064C70.4056 30.144 70.3156 30.236 70.2516 30.34C70.1916 30.444 70.1616 30.566 70.1616 30.706C70.1616 30.866 70.2016 31.008 70.2816 31.132C70.3616 31.252 70.4776 31.348 70.6296 31.42C70.7856 31.492 70.9776 31.528 71.2056 31.528ZM76.0197 32.5V26.02H77.2977V27.598L77.1417 27.394C77.2217 27.178 77.3277 26.982 77.4597 26.806C77.5957 26.626 77.7577 26.478 77.9457 26.362C78.1057 26.254 78.2817 26.17 78.4737 26.11C78.6697 26.046 78.8697 26.008 79.0737 25.996C79.2777 25.98 79.4757 25.988 79.6677 26.02V27.37C79.4757 27.314 79.2537 27.296 79.0017 27.316C78.7537 27.336 78.5297 27.406 78.3297 27.526C78.1297 27.634 77.9657 27.772 77.8377 27.94C77.7137 28.108 77.6217 28.3 77.5617 28.516C77.5017 28.728 77.4717 28.958 77.4717 29.206V32.5H76.0197ZM83.3023 35.56C82.9423 35.56 82.5963 35.504 82.2643 35.392C81.9363 35.28 81.6403 35.118 81.3763 34.906C81.1123 34.698 80.8963 34.446 80.7283 34.15L82.0603 33.49C82.1843 33.726 82.3583 33.9 82.5823 34.012C82.8103 34.128 83.0523 34.186 83.3083 34.186C83.6083 34.186 83.8763 34.132 84.1123 34.024C84.3483 33.92 84.5303 33.764 84.6583 33.556C84.7903 33.352 84.8523 33.096 84.8443 32.788V30.946H85.0243V26.02H86.2903V32.812C86.2903 32.976 86.2823 33.132 86.2663 33.28C86.2543 33.432 86.2323 33.58 86.2003 33.724C86.1043 34.144 85.9203 34.488 85.6483 34.756C85.3763 35.028 85.0383 35.23 84.6343 35.362C84.2343 35.494 83.7903 35.56 83.3023 35.56ZM83.1763 32.68C82.5803 32.68 82.0603 32.53 81.6163 32.23C81.1723 31.93 80.8283 31.522 80.5843 31.006C80.3403 30.49 80.2183 29.908 80.2183 29.26C80.2183 28.604 80.3403 28.02 80.5843 27.508C80.8323 26.992 81.1823 26.586 81.6343 26.29C82.0863 25.99 82.6183 25.84 83.2303 25.84C83.8463 25.84 84.3623 25.99 84.7783 26.29C85.1983 26.586 85.5163 26.992 85.7323 27.508C85.9483 28.024 86.0563 28.608 86.0563 29.26C86.0563 29.904 85.9483 30.486 85.7323 31.006C85.5163 31.522 85.1943 31.93 84.7663 32.23C84.3383 32.53 83.8083 32.68 83.1763 32.68ZM83.3983 31.384C83.7863 31.384 84.0983 31.296 84.3343 31.12C84.5743 30.94 84.7483 30.69 84.8563 30.37C84.9683 30.05 85.0243 29.68 85.0243 29.26C85.0243 28.836 84.9683 28.466 84.8563 28.15C84.7483 27.83 84.5783 27.582 84.3463 27.406C84.1143 27.226 83.8143 27.136 83.4463 27.136C83.0583 27.136 82.7383 27.232 82.4863 27.424C82.2343 27.612 82.0483 27.868 81.9283 28.192C81.8083 28.512 81.7483 28.868 81.7483 29.26C81.7483 29.656 81.8063 30.016 81.9223 30.34C82.0423 30.66 82.2243 30.914 82.4683 31.102C82.7123 31.29 83.0223 31.384 83.3983 31.384ZM88.0928 25.036V23.71H89.5388V25.036H88.0928ZM88.0928 32.5V26.02H89.5388V32.5H88.0928ZM95.8181 32.5V29.38C95.8181 29.176 95.8041 28.95 95.7761 28.702C95.7481 28.454 95.6821 28.216 95.5781 27.988C95.4781 27.756 95.3261 27.566 95.1221 27.418C94.9221 27.27 94.6501 27.196 94.3061 27.196C94.1221 27.196 93.9401 27.226 93.7601 27.286C93.5801 27.346 93.4161 27.45 93.2681 27.598C93.1241 27.742 93.0081 27.942 92.9201 28.198C92.8321 28.45 92.7881 28.774 92.7881 29.17L91.9301 28.804C91.9301 28.252 92.0361 27.752 92.2481 27.304C92.4641 26.856 92.7801 26.5 93.1961 26.236C93.6121 25.968 94.1241 25.834 94.7321 25.834C95.2121 25.834 95.6081 25.914 95.9201 26.074C96.2321 26.234 96.4801 26.438 96.6641 26.686C96.8481 26.934 96.9841 27.198 97.0721 27.478C97.1601 27.758 97.2161 28.024 97.2401 28.276C97.2681 28.524 97.2821 28.726 97.2821 28.882V32.5H95.8181ZM91.3241 32.5V26.02H92.6141V28.03H92.7881V32.5H91.3241ZM103.326 32.5V25.216H100.53V23.86H107.568V25.216H104.772V32.5H103.326ZM107.93 32.5V26.02H109.208V27.598L109.052 27.394C109.132 27.178 109.238 26.982 109.37 26.806C109.506 26.626 109.668 26.478 109.856 26.362C110.016 26.254 110.192 26.17 110.384 26.11C110.58 26.046 110.78 26.008 110.984 25.996C111.188 25.98 111.386 25.988 111.578 26.02V27.37C111.386 27.314 111.164 27.296 110.912 27.316C110.664 27.336 110.44 27.406 110.24 27.526C110.04 27.634 109.876 27.772 109.748 27.94C109.624 28.108 109.532 28.3 109.472 28.516C109.412 28.728 109.382 28.958 109.382 29.206V32.5H107.93ZM114.382 32.68C113.914 32.68 113.518 32.592 113.194 32.416C112.87 32.236 112.624 31.998 112.456 31.702C112.292 31.406 112.21 31.08 112.21 30.724C112.21 30.412 112.262 30.132 112.366 29.884C112.47 29.632 112.63 29.416 112.846 29.236C113.062 29.052 113.342 28.902 113.686 28.786C113.946 28.702 114.25 28.626 114.598 28.558C114.95 28.49 115.33 28.428 115.738 28.372C116.15 28.312 116.58 28.248 117.028 28.18L116.512 28.474C116.516 28.026 116.416 27.696 116.212 27.484C116.008 27.272 115.664 27.166 115.18 27.166C114.888 27.166 114.606 27.234 114.334 27.37C114.062 27.506 113.872 27.74 113.764 28.072L112.444 27.658C112.604 27.11 112.908 26.67 113.356 26.338C113.808 26.006 114.416 25.84 115.18 25.84C115.756 25.84 116.262 25.934 116.698 26.122C117.138 26.31 117.464 26.618 117.676 27.046C117.792 27.274 117.862 27.508 117.886 27.748C117.91 27.984 117.922 28.242 117.922 28.522V32.5H116.656V31.096L116.866 31.324C116.574 31.792 116.232 32.136 115.84 32.356C115.452 32.572 114.966 32.68 114.382 32.68ZM114.67 31.528C114.998 31.528 115.278 31.47 115.51 31.354C115.742 31.238 115.926 31.096 116.062 30.928C116.202 30.76 116.296 30.602 116.344 30.454C116.42 30.27 116.462 30.06 116.47 29.824C116.482 29.584 116.488 29.39 116.488 29.242L116.932 29.374C116.496 29.442 116.122 29.502 115.81 29.554C115.498 29.606 115.23 29.656 115.006 29.704C114.782 29.748 114.584 29.798 114.412 29.854C114.244 29.914 114.102 29.984 113.986 30.064C113.87 30.144 113.78 30.236 113.716 30.34C113.656 30.444 113.626 30.566 113.626 30.706C113.626 30.866 113.666 31.008 113.746 31.132C113.826 31.252 113.942 31.348 114.094 31.42C114.25 31.492 114.442 31.528 114.67 31.528ZM122.083 32.68C121.487 32.68 120.967 32.53 120.523 32.23C120.079 31.93 119.735 31.522 119.491 31.006C119.247 30.49 119.125 29.908 119.125 29.26C119.125 28.604 119.247 28.02 119.491 27.508C119.739 26.992 120.089 26.586 120.541 26.29C120.993 25.99 121.525 25.84 122.137 25.84C122.753 25.84 123.269 25.99 123.685 26.29C124.105 26.586 124.423 26.992 124.639 27.508C124.855 28.024 124.963 28.608 124.963 29.26C124.963 29.904 124.855 30.486 124.639 31.006C124.423 31.522 124.101 31.93 123.673 32.23C123.245 32.53 122.715 32.68 122.083 32.68ZM122.305 31.384C122.693 31.384 123.005 31.296 123.241 31.12C123.481 30.94 123.655 30.69 123.763 30.37C123.875 30.05 123.931 29.68 123.931 29.26C123.931 28.836 123.875 28.466 123.763 28.15C123.655 27.83 123.485 27.582 123.253 27.406C123.021 27.226 122.721 27.136 122.353 27.136C121.965 27.136 121.645 27.232 121.393 27.424C121.141 27.612 120.955 27.868 120.835 28.192C120.715 28.512 120.655 28.868 120.655 29.26C120.655 29.656 120.713 30.016 120.829 30.34C120.949 30.66 121.131 30.914 121.375 31.102C121.619 31.29 121.929 31.384 122.305 31.384ZM123.931 32.5V27.952H123.751V23.86H125.209V32.5H123.931ZM127.011 25.036V23.71H128.457V25.036H127.011ZM127.011 32.5V26.02H128.457V32.5H127.011ZM134.736 32.5V29.38C134.736 29.176 134.722 28.95 134.694 28.702C134.666 28.454 134.6 28.216 134.496 27.988C134.396 27.756 134.244 27.566 134.04 27.418C133.84 27.27 133.568 27.196 133.224 27.196C133.04 27.196 132.858 27.226 132.678 27.286C132.498 27.346 132.334 27.45 132.186 27.598C132.042 27.742 131.926 27.942 131.838 28.198C131.75 28.45 131.706 28.774 131.706 29.17L130.848 28.804C130.848 28.252 130.954 27.752 131.166 27.304C131.382 26.856 131.698 26.5 132.114 26.236C132.53 25.968 133.042 25.834 133.65 25.834C134.13 25.834 134.526 25.914 134.838 26.074C135.15 26.234 135.398 26.438 135.582 26.686C135.766 26.934 135.902 27.198 135.99 27.478C136.078 27.758 136.134 28.024 136.158 28.276C136.186 28.524 136.2 28.726 136.2 28.882V32.5H134.736ZM130.242 32.5V26.02H131.532V28.03H131.706V32.5H130.242ZM140.49 35.56C140.13 35.56 139.784 35.504 139.452 35.392C139.124 35.28 138.828 35.118 138.564 34.906C138.3 34.698 138.084 34.446 137.916 34.15L139.248 33.49C139.372 33.726 139.546 33.9 139.77 34.012C139.998 34.128 140.24 34.186 140.496 34.186C140.796 34.186 141.064 34.132 141.3 34.024C141.536 33.92 141.718 33.764 141.846 33.556C141.978 33.352 142.04 33.096 142.032 32.788V30.946H142.212V26.02H143.478V32.812C143.478 32.976 143.47 33.132 143.454 33.28C143.442 33.432 143.42 33.58 143.388 33.724C143.292 34.144 143.108 34.488 142.836 34.756C142.564 35.028 142.226 35.23 141.822 35.362C141.422 35.494 140.978 35.56 140.49 35.56ZM140.364 32.68C139.768 32.68 139.248 32.53 138.804 32.23C138.36 31.93 138.016 31.522 137.772 31.006C137.528 30.49 137.406 29.908 137.406 29.26C137.406 28.604 137.528 28.02 137.772 27.508C138.02 26.992 138.37 26.586 138.822 26.29C139.274 25.99 139.806 25.84 140.418 25.84C141.034 25.84 141.55 25.99 141.966 26.29C142.386 26.586 142.704 26.992 142.92 27.508C143.136 28.024 143.244 28.608 143.244 29.26C143.244 29.904 143.136 30.486 142.92 31.006C142.704 31.522 142.382 31.93 141.954 32.23C141.526 32.53 140.996 32.68 140.364 32.68ZM140.586 31.384C140.974 31.384 141.286 31.296 141.522 31.12C141.762 30.94 141.936 30.69 142.044 30.37C142.156 30.05 142.212 29.68 142.212 29.26C142.212 28.836 142.156 28.466 142.044 28.15C141.936 27.83 141.766 27.582 141.534 27.406C141.302 27.226 141.002 27.136 140.634 27.136C140.246 27.136 139.926 27.232 139.674 27.424C139.422 27.612 139.236 27.868 139.116 28.192C138.996 28.512 138.936 28.868 138.936 29.26C138.936 29.656 138.994 30.016 139.11 30.34C139.23 30.66 139.412 30.914 139.656 31.102C139.9 31.29 140.21 31.384 140.586 31.384ZM147.563 32.5V23.86H152.765V25.306H149.009V27.46H152.045V28.9H149.009V32.5H147.563ZM155.422 32.68C154.954 32.68 154.558 32.592 154.234 32.416C153.91 32.236 153.664 31.998 153.496 31.702C153.332 31.406 153.25 31.08 153.25 30.724C153.25 30.412 153.302 30.132 153.406 29.884C153.51 29.632 153.67 29.416 153.886 29.236C154.102 29.052 154.382 28.902 154.726 28.786C154.986 28.702 155.29 28.626 155.638 28.558C155.99 28.49 156.37 28.428 156.778 28.372C157.19 28.312 157.62 28.248 158.068 28.18L157.552 28.474C157.556 28.026 157.456 27.696 157.252 27.484C157.048 27.272 156.704 27.166 156.22 27.166C155.928 27.166 155.646 27.234 155.374 27.37C155.102 27.506 154.912 27.74 154.804 28.072L153.484 27.658C153.644 27.11 153.948 26.67 154.396 26.338C154.848 26.006 155.456 25.84 156.22 25.84C156.796 25.84 157.302 25.934 157.738 26.122C158.178 26.31 158.504 26.618 158.716 27.046C158.832 27.274 158.902 27.508 158.926 27.748C158.95 27.984 158.962 28.242 158.962 28.522V32.5H157.696V31.096L157.906 31.324C157.614 31.792 157.272 32.136 156.88 32.356C156.492 32.572 156.006 32.68 155.422 32.68ZM155.71 31.528C156.038 31.528 156.318 31.47 156.55 31.354C156.782 31.238 156.966 31.096 157.102 30.928C157.242 30.76 157.336 30.602 157.384 30.454C157.46 30.27 157.502 30.06 157.51 29.824C157.522 29.584 157.528 29.39 157.528 29.242L157.972 29.374C157.536 29.442 157.162 29.502 156.85 29.554C156.538 29.606 156.27 29.656 156.046 29.704C155.822 29.748 155.624 29.798 155.452 29.854C155.284 29.914 155.142 29.984 155.026 30.064C154.91 30.144 154.82 30.236 154.756 30.34C154.696 30.444 154.666 30.566 154.666 30.706C154.666 30.866 154.706 31.008 154.786 31.132C154.866 31.252 154.982 31.348 155.134 31.42C155.29 31.492 155.482 31.528 155.71 31.528ZM163.338 32.68C162.67 32.68 162.1 32.532 161.628 32.236C161.156 31.936 160.794 31.528 160.542 31.012C160.294 30.496 160.168 29.912 160.164 29.26C160.168 28.596 160.298 28.008 160.554 27.496C160.814 26.98 161.182 26.576 161.658 26.284C162.134 25.988 162.7 25.84 163.356 25.84C164.092 25.84 164.714 26.026 165.222 26.398C165.734 26.766 166.068 27.27 166.224 27.91L164.784 28.3C164.672 27.952 164.486 27.682 164.226 27.49C163.966 27.294 163.67 27.196 163.338 27.196C162.962 27.196 162.652 27.286 162.408 27.466C162.164 27.642 161.984 27.886 161.868 28.198C161.752 28.51 161.694 28.864 161.694 29.26C161.694 29.876 161.832 30.374 162.108 30.754C162.384 31.134 162.794 31.324 163.338 31.324C163.722 31.324 164.024 31.236 164.244 31.06C164.468 30.884 164.636 30.63 164.748 30.298L166.224 30.628C166.024 31.288 165.674 31.796 165.174 32.152C164.674 32.504 164.062 32.68 163.338 32.68ZM167.37 25.036V23.71H168.816V25.036H167.37ZM167.37 32.5V26.02H168.816V32.5H167.37ZM170.733 32.5V23.68H172.179V32.5H170.733ZM174.097 25.036V23.71H175.543V25.036H174.097ZM174.097 32.5V26.02H175.543V32.5H174.097ZM181.138 32.5C180.71 32.58 180.29 32.614 179.878 32.602C179.47 32.594 179.104 32.52 178.78 32.38C178.456 32.236 178.21 32.01 178.042 31.702C177.894 31.422 177.816 31.136 177.808 30.844C177.8 30.552 177.796 30.222 177.796 29.854V24.22H179.236V29.77C179.236 30.03 179.238 30.258 179.242 30.454C179.25 30.65 179.292 30.81 179.368 30.934C179.512 31.174 179.742 31.308 180.058 31.336C180.374 31.364 180.734 31.348 181.138 31.288V32.5ZM176.62 27.154V26.02H181.138V27.154H176.62ZM183.208 35.38L184.456 31.954L184.48 32.962L181.654 26.02H183.16L185.164 31.156H184.78L186.73 26.02H188.176L184.564 35.38H183.208ZM194.509 34.426C194.041 33.882 193.641 33.266 193.309 32.578C192.977 31.894 192.725 31.176 192.553 30.424C192.381 29.672 192.301 28.924 192.313 28.18C192.301 27.436 192.381 26.688 192.553 25.936C192.725 25.18 192.977 24.46 193.309 23.776C193.641 23.092 194.041 22.478 194.509 21.934L195.577 22.726C195.097 23.306 194.713 23.892 194.425 24.484C194.141 25.076 193.937 25.68 193.813 26.296C193.689 26.908 193.625 27.536 193.621 28.18C193.625 28.824 193.689 29.454 193.813 30.07C193.941 30.682 194.147 31.286 194.431 31.882C194.715 32.474 195.097 33.056 195.577 33.628L194.509 34.426ZM196.91 32.5V23.86H198.212L201.2 29.98L204.188 23.86H205.49V32.5H204.14V26.962L201.488 32.5H200.912L198.266 26.962V32.5H196.91ZM209.252 32.5V25.216H206.456V23.86H213.494V25.216H210.698V32.5H209.252ZM214.453 32.5V23.86H219.655V25.306H215.899V27.46H218.935V28.9H215.899V32.5H214.453ZM221.455 34.426L220.387 33.628C220.867 33.056 221.249 32.474 221.533 31.882C221.817 31.286 222.021 30.682 222.145 30.07C222.273 29.454 222.339 28.824 222.343 28.18C222.339 27.536 222.275 26.908 222.151 26.296C222.027 25.68 221.821 25.076 221.533 24.484C221.249 23.892 220.867 23.306 220.387 22.726L221.455 21.934C221.923 22.478 222.323 23.092 222.655 23.776C222.987 24.46 223.239 25.18 223.411 25.936C223.583 26.688 223.663 27.436 223.651 28.18C223.663 28.924 223.583 29.672 223.411 30.424C223.239 31.176 222.987 31.894 222.655 32.578C222.323 33.266 221.923 33.882 221.455 34.426Z" fill="#F0F0F0"/>
<path d="M58.22 48.5L60.948 40.58H62.0205L64.7485 48.5H63.907L61.3165 41.031H61.6355L59.0615 48.5H58.22ZM59.4355 46.5805V45.8215H63.5275V46.5805H59.4355ZM65.8517 48.5V40.415H66.6602V48.5H65.8517ZM68.4191 48.5V40.415H69.2276V48.5H68.4191ZM73.3569 48.665C72.7666 48.665 72.2624 48.5312 71.8444 48.2635C71.4264 47.9958 71.1056 47.6255 70.8819 47.1525C70.6583 46.6795 70.5464 46.1368 70.5464 45.5245C70.5464 44.9012 70.6601 44.3548 70.8874 43.8855C71.1148 43.4162 71.4374 43.0513 71.8554 42.791C72.2771 42.527 72.7776 42.395 73.3569 42.395C73.9509 42.395 74.4569 42.5288 74.8749 42.7965C75.2966 43.0605 75.6174 43.429 75.8374 43.902C76.0611 44.3713 76.1729 44.9122 76.1729 45.5245C76.1729 46.1478 76.0611 46.696 75.8374 47.169C75.6138 47.6383 75.2911 48.005 74.8694 48.269C74.4478 48.533 73.9436 48.665 73.3569 48.665ZM73.3569 47.8895C74.0169 47.8895 74.5083 47.6713 74.8309 47.235C75.1536 46.795 75.3149 46.2248 75.3149 45.5245C75.3149 44.8058 75.1518 44.2338 74.8254 43.8085C74.5028 43.3832 74.0133 43.1705 73.3569 43.1705C72.9133 43.1705 72.5466 43.2713 72.2569 43.473C71.9709 43.671 71.7564 43.9478 71.6134 44.3035C71.4741 44.6555 71.4044 45.0625 71.4044 45.5245C71.4044 46.2395 71.5694 46.8133 71.8994 47.246C72.2294 47.675 72.7153 47.8895 73.3569 47.8895ZM78.4364 48.5L76.6214 42.5545L77.4299 42.56L78.8379 47.1745L80.2514 42.56H80.9884L82.4019 47.1745L83.8209 42.56H84.6239L82.8089 48.5H82.1049L80.6199 43.77L79.1404 48.5H78.4364ZM87.6164 48.6595C86.9197 48.6595 86.3459 48.5092 85.8949 48.2085C85.4475 47.9078 85.1725 47.4898 85.0699 46.9545L85.8949 46.817C85.9829 47.1543 86.1827 47.4238 86.4944 47.6255C86.8097 47.8235 87.1984 47.9225 87.6604 47.9225C88.1114 47.9225 88.467 47.829 88.7274 47.642C88.9877 47.4513 89.1179 47.1928 89.1179 46.8665C89.1179 46.6832 89.0757 46.5347 88.9914 46.421C88.9107 46.3037 88.7439 46.1955 88.4909 46.0965C88.2379 45.9975 87.8602 45.8802 87.3579 45.7445C86.8189 45.5978 86.3972 45.4512 86.0929 45.3045C85.7885 45.1578 85.5722 44.9892 85.4439 44.7985C85.3155 44.6042 85.2514 44.3677 85.2514 44.089C85.2514 43.7517 85.3467 43.4565 85.5374 43.2035C85.728 42.9468 85.992 42.7488 86.3294 42.6095C86.6667 42.4665 87.059 42.395 87.5064 42.395C87.9537 42.395 88.3534 42.4683 88.7054 42.615C89.061 42.758 89.347 42.9597 89.5634 43.22C89.7797 43.4803 89.908 43.7828 89.9484 44.1275L89.1234 44.276C89.0684 43.9277 88.8942 43.6527 88.6009 43.451C88.3112 43.2457 87.9427 43.1393 87.4954 43.132C87.0737 43.121 86.7309 43.2017 86.4669 43.374C86.2029 43.5427 86.0709 43.7682 86.0709 44.0505C86.0709 44.2082 86.1185 44.3438 86.2139 44.4575C86.3092 44.5675 86.4815 44.672 86.7309 44.771C86.9839 44.87 87.3432 44.9782 87.8089 45.0955C88.3552 45.2348 88.7842 45.3815 89.0959 45.5355C89.4075 45.6895 89.6294 45.871 89.7614 46.08C89.8934 46.289 89.9594 46.5475 89.9594 46.8555C89.9594 47.4165 89.7504 47.8583 89.3324 48.181C88.918 48.5 88.346 48.6595 87.6164 48.6595ZM95.8948 48.665C95.3155 48.665 94.8132 48.5367 94.3878 48.28C93.9662 48.0233 93.638 47.6622 93.4033 47.1965C93.1687 46.7308 93.0513 46.1845 93.0513 45.5575C93.0513 44.9085 93.1668 44.3475 93.3978 43.8745C93.6288 43.4015 93.9533 43.0367 94.3713 42.78C94.793 42.5233 95.2898 42.395 95.8618 42.395C96.4485 42.395 96.949 42.5307 97.3633 42.802C97.7777 43.0697 98.0912 43.4547 98.3038 43.957C98.5165 44.4593 98.6137 45.0588 98.5953 45.7555H97.7703V45.4695C97.7557 44.6995 97.5888 44.1183 97.2698 43.726C96.9545 43.3337 96.4925 43.1375 95.8838 43.1375C95.2458 43.1375 94.7563 43.3447 94.4153 43.759C94.078 44.1733 93.9093 44.7637 93.9093 45.53C93.9093 46.278 94.078 46.8592 94.4153 47.2735C94.7563 47.6842 95.2385 47.8895 95.8618 47.8895C96.2872 47.8895 96.6575 47.7923 96.9728 47.598C97.2918 47.4 97.543 47.1158 97.7263 46.7455L98.4798 47.037C98.2452 47.554 97.8987 47.9555 97.4403 48.2415C96.9857 48.5238 96.4705 48.665 95.8948 48.665ZM93.6233 45.7555V45.079H98.1608V45.7555H93.6233ZM102.12 48.665C101.567 48.665 101.094 48.5275 100.701 48.2525C100.309 47.9738 100.008 47.598 99.7994 47.125C99.5904 46.652 99.4859 46.1185 99.4859 45.5245C99.4859 44.9342 99.5886 44.4025 99.7939 43.9295C100.003 43.4565 100.302 43.0825 100.69 42.8075C101.079 42.5325 101.545 42.395 102.087 42.395C102.645 42.395 103.114 42.5307 103.495 42.802C103.877 43.0733 104.165 43.4455 104.359 43.9185C104.557 44.3878 104.656 44.9232 104.656 45.5245C104.656 46.1148 104.559 46.6483 104.364 47.125C104.17 47.598 103.884 47.9738 103.506 48.2525C103.129 48.5275 102.667 48.665 102.12 48.665ZM102.203 47.9115C102.625 47.9115 102.973 47.8088 103.248 47.6035C103.523 47.3982 103.728 47.1158 103.864 46.7565C104 46.3935 104.067 45.9828 104.067 45.5245C104.067 45.0588 104 44.6482 103.864 44.2925C103.728 43.9332 103.523 43.6527 103.248 43.451C102.977 43.2493 102.634 43.1485 102.219 43.1485C101.794 43.1485 101.442 43.253 101.163 43.462C100.885 43.671 100.678 43.9552 100.542 44.3145C100.41 44.6738 100.344 45.0772 100.344 45.5245C100.344 45.9755 100.412 46.3825 100.547 46.7455C100.687 47.1048 100.894 47.389 101.169 47.598C101.444 47.807 101.789 47.9115 102.203 47.9115ZM103.979 51.14V47.0315H104.067V42.56H104.793V51.14H103.979ZM108.608 48.6485C108.252 48.6485 107.941 48.5935 107.673 48.4835C107.409 48.3735 107.183 48.225 106.996 48.038C106.813 47.851 106.665 47.6383 106.551 47.4C106.437 47.158 106.355 46.9032 106.303 46.6355C106.252 46.3642 106.226 46.0947 106.226 45.827V42.56H107.04V45.5905C107.04 45.9168 107.072 46.2193 107.134 46.498C107.196 46.7767 107.295 47.0205 107.431 47.2295C107.57 47.4348 107.748 47.5943 107.964 47.708C108.184 47.8217 108.45 47.8785 108.762 47.8785C109.048 47.8785 109.299 47.829 109.515 47.73C109.735 47.631 109.919 47.4898 110.065 47.3065C110.216 47.1195 110.329 46.894 110.406 46.63C110.483 46.3623 110.522 46.0617 110.522 45.728L111.094 45.8545C111.094 46.4632 110.988 46.9747 110.775 47.389C110.562 47.8033 110.269 48.1168 109.895 48.3295C109.521 48.5422 109.092 48.6485 108.608 48.6485ZM110.604 48.5V47.037H110.522V42.56H111.33V48.5H110.604ZM112.978 41.4325V40.525H113.786V41.4325H112.978ZM112.978 48.5V42.56H113.786V48.5H112.978ZM118.669 48.5C118.335 48.5697 118.005 48.5972 117.679 48.5825C117.356 48.5678 117.067 48.4982 116.81 48.3735C116.557 48.2488 116.365 48.0545 116.233 47.7905C116.126 47.5705 116.068 47.3487 116.057 47.125C116.049 46.8977 116.046 46.6392 116.046 46.3495V40.91H116.849V46.3165C116.849 46.5658 116.85 46.7748 116.854 46.9435C116.861 47.1085 116.9 47.2552 116.97 47.3835C117.102 47.6292 117.311 47.7758 117.597 47.8235C117.886 47.8712 118.244 47.8602 118.669 47.7905V48.5ZM114.775 43.253V42.56H118.669V43.253H114.775ZM120.525 51.14L121.675 48.0215L121.691 48.9455L119.09 42.56H119.948L122.082 47.9005H121.73L123.699 42.56H124.524L121.334 51.14H120.525ZM130.915 48.5C130.581 48.5697 130.251 48.5972 129.925 48.5825C129.602 48.5678 129.313 48.4982 129.056 48.3735C128.803 48.2488 128.611 48.0545 128.479 47.7905C128.372 47.5705 128.314 47.3487 128.303 47.125C128.295 46.8977 128.292 46.6392 128.292 46.3495V40.91H129.095V46.3165C129.095 46.5658 129.096 46.7748 129.1 46.9435C129.107 47.1085 129.146 47.2552 129.216 47.3835C129.348 47.6292 129.557 47.7758 129.843 47.8235C130.132 47.8712 130.49 47.8602 130.915 47.7905V48.5ZM127.021 43.253V42.56H130.915V43.253H127.021ZM132.085 48.5V42.56H132.811V43.99L132.668 43.803C132.734 43.627 132.821 43.4657 132.927 43.319C133.033 43.1687 133.149 43.0458 133.273 42.9505C133.427 42.8148 133.607 42.7122 133.812 42.6425C134.018 42.5692 134.225 42.527 134.434 42.516C134.643 42.5013 134.834 42.516 135.006 42.56V43.319C134.79 43.264 134.553 43.2512 134.296 43.2805C134.04 43.3098 133.803 43.4125 133.587 43.5885C133.389 43.7425 133.24 43.9277 133.141 44.144C133.042 44.3567 132.976 44.584 132.943 44.826C132.91 45.0643 132.894 45.3008 132.894 45.5355V48.5H132.085ZM137.523 48.665C137.076 48.665 136.7 48.5843 136.396 48.423C136.095 48.2617 135.87 48.0472 135.719 47.7795C135.569 47.5118 135.494 47.2203 135.494 46.905C135.494 46.5823 135.558 46.3073 135.686 46.08C135.818 45.849 135.996 45.6602 136.22 45.5135C136.447 45.3668 136.709 45.255 137.006 45.178C137.307 45.1047 137.639 45.0405 138.002 44.9855C138.368 44.9268 138.726 44.8773 139.074 44.837C139.426 44.793 139.734 44.7508 139.998 44.7105L139.712 44.8865C139.723 44.2998 139.61 43.8653 139.371 43.583C139.133 43.3007 138.719 43.1595 138.128 43.1595C137.721 43.1595 137.377 43.2512 137.094 43.4345C136.816 43.6178 136.619 43.9075 136.506 44.3035L135.719 44.0725C135.855 43.5408 136.128 43.1283 136.539 42.835C136.949 42.5417 137.483 42.395 138.139 42.395C138.682 42.395 139.142 42.4977 139.52 42.703C139.901 42.9047 140.171 43.198 140.328 43.583C140.402 43.7553 140.449 43.9478 140.471 44.1605C140.493 44.3732 140.504 44.5895 140.504 44.8095V48.5H139.784V47.0095L139.993 47.0975C139.791 47.6072 139.478 47.9958 139.052 48.2635C138.627 48.5312 138.117 48.665 137.523 48.665ZM137.617 47.9665C137.994 47.9665 138.324 47.8987 138.607 47.763C138.889 47.6273 139.116 47.4422 139.289 47.2075C139.461 46.9692 139.573 46.7015 139.624 46.4045C139.668 46.2138 139.692 46.0048 139.696 45.7775C139.699 45.5465 139.701 45.3742 139.701 45.2605L140.009 45.42C139.734 45.4567 139.435 45.4933 139.113 45.53C138.794 45.5667 138.478 45.6088 138.167 45.6565C137.859 45.7042 137.58 45.761 137.331 45.827C137.162 45.8747 136.999 45.9425 136.841 46.0305C136.684 46.1148 136.553 46.2285 136.451 46.3715C136.352 46.5145 136.302 46.6923 136.302 46.905C136.302 47.0773 136.344 47.2442 136.429 47.4055C136.517 47.5668 136.656 47.7007 136.847 47.807C137.041 47.9133 137.298 47.9665 137.617 47.9665ZM144.241 48.665C143.687 48.665 143.214 48.5275 142.822 48.2525C142.429 47.9738 142.129 47.598 141.92 47.125C141.711 46.652 141.606 46.1185 141.606 45.5245C141.606 44.9342 141.709 44.4025 141.914 43.9295C142.123 43.4565 142.422 43.0825 142.811 42.8075C143.199 42.5325 143.665 42.395 144.208 42.395C144.765 42.395 145.234 42.5307 145.616 42.802C145.997 43.0733 146.285 43.4455 146.479 43.9185C146.677 44.3878 146.776 44.9232 146.776 45.5245C146.776 46.1148 146.679 46.6483 146.485 47.125C146.29 47.598 146.004 47.9738 145.627 48.2525C145.249 48.5275 144.787 48.665 144.241 48.665ZM144.323 47.9115C144.745 47.9115 145.093 47.8088 145.368 47.6035C145.643 47.3982 145.848 47.1158 145.984 46.7565C146.12 46.3935 146.188 45.9828 146.188 45.5245C146.188 45.0588 146.12 44.6482 145.984 44.2925C145.848 43.9332 145.643 43.6527 145.368 43.451C145.097 43.2493 144.754 43.1485 144.34 43.1485C143.914 43.1485 143.562 43.253 143.284 43.462C143.005 43.671 142.798 43.9552 142.662 44.3145C142.53 44.6738 142.464 45.0772 142.464 45.5245C142.464 45.9755 142.532 46.3825 142.668 46.7455C142.807 47.1048 143.014 47.389 143.289 47.598C143.564 47.807 143.909 47.9115 144.323 47.9115ZM146.188 48.5V44.0285H146.1V40.58H146.914V48.5H146.188ZM150.97 48.665C150.391 48.665 149.888 48.5367 149.463 48.28C149.041 48.0233 148.713 47.6622 148.479 47.1965C148.244 46.7308 148.127 46.1845 148.127 45.5575C148.127 44.9085 148.242 44.3475 148.473 43.8745C148.704 43.4015 149.029 43.0367 149.447 42.78C149.868 42.5233 150.365 42.395 150.937 42.395C151.524 42.395 152.024 42.5307 152.439 42.802C152.853 43.0697 153.166 43.4547 153.379 43.957C153.592 44.4593 153.689 45.0588 153.671 45.7555H152.846V45.4695C152.831 44.6995 152.664 44.1183 152.345 43.726C152.03 43.3337 151.568 43.1375 150.959 43.1375C150.321 43.1375 149.832 43.3447 149.491 43.759C149.153 44.1733 148.985 44.7637 148.985 45.53C148.985 46.278 149.153 46.8592 149.491 47.2735C149.832 47.6842 150.314 47.8895 150.937 47.8895C151.362 47.8895 151.733 47.7923 152.048 47.598C152.367 47.4 152.618 47.1158 152.802 46.7455L153.555 47.037C153.32 47.554 152.974 47.9555 152.516 48.2415C152.061 48.5238 151.546 48.665 150.97 48.665ZM148.699 45.7555V45.079H153.236V45.7555H148.699ZM154.891 48.5V42.56H155.617V43.99L155.474 43.803C155.54 43.627 155.626 43.4657 155.733 43.319C155.839 43.1687 155.954 43.0458 156.079 42.9505C156.233 42.8148 156.413 42.7122 156.618 42.6425C156.823 42.5692 157.031 42.527 157.24 42.516C157.449 42.5013 157.639 42.516 157.812 42.56V43.319C157.595 43.264 157.359 43.2512 157.102 43.2805C156.845 43.3098 156.609 43.4125 156.393 43.5885C156.195 43.7425 156.046 43.9277 155.947 44.144C155.848 44.3567 155.782 44.584 155.749 44.826C155.716 45.0643 155.7 45.3008 155.7 45.5355V48.5H154.891ZM160.857 48.6595C160.16 48.6595 159.586 48.5092 159.135 48.2085C158.688 47.9078 158.413 47.4898 158.31 46.9545L159.135 46.817C159.223 47.1543 159.423 47.4238 159.735 47.6255C160.05 47.8235 160.439 47.9225 160.901 47.9225C161.352 47.9225 161.707 47.829 161.968 47.642C162.228 47.4513 162.358 47.1928 162.358 46.8665C162.358 46.6832 162.316 46.5347 162.232 46.421C162.151 46.3037 161.984 46.1955 161.731 46.0965C161.478 45.9975 161.1 45.8802 160.598 45.7445C160.059 45.5978 159.637 45.4512 159.333 45.3045C159.029 45.1578 158.812 44.9892 158.684 44.7985C158.556 44.6042 158.492 44.3677 158.492 44.089C158.492 43.7517 158.587 43.4565 158.778 43.2035C158.968 42.9468 159.232 42.7488 159.57 42.6095C159.907 42.4665 160.299 42.395 160.747 42.395C161.194 42.395 161.594 42.4683 161.946 42.615C162.301 42.758 162.587 42.9597 162.804 43.22C163.02 43.4803 163.148 43.7828 163.189 44.1275L162.364 44.276C162.309 43.9277 162.134 43.6527 161.841 43.451C161.551 43.2457 161.183 43.1393 160.736 43.132C160.314 43.121 159.971 43.2017 159.707 43.374C159.443 43.5427 159.311 43.7682 159.311 44.0505C159.311 44.2082 159.359 44.3438 159.454 44.4575C159.549 44.5675 159.722 44.672 159.971 44.771C160.224 44.87 160.583 44.9782 161.049 45.0955C161.595 45.2348 162.024 45.3815 162.336 45.5355C162.648 45.6895 162.87 45.871 163.002 46.08C163.134 46.289 163.2 46.5475 163.2 46.8555C163.2 47.4165 162.991 47.8583 162.573 48.181C162.158 48.5 161.586 48.6595 160.857 48.6595ZM169.856 48.5C169.522 48.5697 169.192 48.5972 168.866 48.5825C168.543 48.5678 168.253 48.4982 167.997 48.3735C167.744 48.2488 167.551 48.0545 167.419 47.7905C167.313 47.5705 167.254 47.3487 167.243 47.125C167.236 46.8977 167.232 46.6392 167.232 46.3495V40.91H168.035V46.3165C168.035 46.5658 168.037 46.7748 168.041 46.9435C168.048 47.1085 168.086 47.2552 168.156 47.3835C168.288 47.6292 168.497 47.7758 168.783 47.8235C169.073 47.8712 169.43 47.8602 169.856 47.7905V48.5ZM165.962 43.253V42.56H169.856V43.253H165.962ZM173.292 48.665C172.701 48.665 172.197 48.5312 171.779 48.2635C171.361 47.9958 171.04 47.6255 170.817 47.1525C170.593 46.6795 170.481 46.1368 170.481 45.5245C170.481 44.9012 170.595 44.3548 170.822 43.8855C171.049 43.4162 171.372 43.0513 171.79 42.791C172.212 42.527 172.712 42.395 173.292 42.395C173.886 42.395 174.392 42.5288 174.81 42.7965C175.231 43.0605 175.552 43.429 175.772 43.902C175.996 44.3713 176.108 44.9122 176.108 45.5245C176.108 46.1478 175.996 46.696 175.772 47.169C175.548 47.6383 175.226 48.005 174.804 48.269C174.382 48.533 173.878 48.665 173.292 48.665ZM173.292 47.8895C173.952 47.8895 174.443 47.6713 174.766 47.235C175.088 46.795 175.25 46.2248 175.25 45.5245C175.25 44.8058 175.086 44.2338 174.76 43.8085C174.437 43.3832 173.948 43.1705 173.292 43.1705C172.848 43.1705 172.481 43.2713 172.192 43.473C171.906 43.671 171.691 43.9478 171.548 44.3035C171.409 44.6555 171.339 45.0625 171.339 45.5245C171.339 46.2395 171.504 46.8133 171.834 47.246C172.164 47.675 172.65 47.8895 173.292 47.8895ZM182.757 48.5C182.423 48.5697 182.093 48.5972 181.767 48.5825C181.444 48.5678 181.155 48.4982 180.898 48.3735C180.645 48.2488 180.452 48.0545 180.32 47.7905C180.214 47.5705 180.155 47.3487 180.144 47.125C180.137 46.8977 180.133 46.6392 180.133 46.3495V40.91H180.936V46.3165C180.936 46.5658 180.938 46.7748 180.942 46.9435C180.949 47.1085 180.988 47.2552 181.057 47.3835C181.189 47.6292 181.398 47.7758 181.684 47.8235C181.974 47.8712 182.332 47.8602 182.757 47.7905V48.5ZM178.863 43.253V42.56H182.757V43.253H178.863ZM185.627 48.665C185.179 48.665 184.804 48.5843 184.499 48.423C184.199 48.2617 183.973 48.0472 183.823 47.7795C183.672 47.5118 183.597 47.2203 183.597 46.905C183.597 46.5823 183.661 46.3073 183.79 46.08C183.922 45.849 184.1 45.6602 184.323 45.5135C184.551 45.3668 184.813 45.255 185.11 45.178C185.41 45.1047 185.742 45.0405 186.105 44.9855C186.472 44.9268 186.829 44.8773 187.178 44.837C187.53 44.793 187.838 44.7508 188.102 44.7105L187.816 44.8865C187.827 44.2998 187.713 43.8653 187.475 43.583C187.236 43.3007 186.822 43.1595 186.232 43.1595C185.825 43.1595 185.48 43.2512 185.198 43.4345C184.919 43.6178 184.723 43.9075 184.609 44.3035L183.823 44.0725C183.958 43.5408 184.232 43.1283 184.642 42.835C185.053 42.5417 185.586 42.395 186.243 42.395C186.785 42.395 187.246 42.4977 187.623 42.703C188.005 42.9047 188.274 43.198 188.432 43.583C188.505 43.7553 188.553 43.9478 188.575 44.1605C188.597 44.3732 188.608 44.5895 188.608 44.8095V48.5H187.887V47.0095L188.096 47.0975C187.895 47.6072 187.581 47.9958 187.156 48.2635C186.73 48.5312 186.221 48.665 185.627 48.665ZM185.72 47.9665C186.098 47.9665 186.428 47.8987 186.71 47.763C186.993 47.6273 187.22 47.4422 187.392 47.2075C187.565 46.9692 187.676 46.7015 187.728 46.4045C187.772 46.2138 187.796 46.0048 187.799 45.7775C187.803 45.5465 187.805 45.3742 187.805 45.2605L188.113 45.42C187.838 45.4567 187.539 45.4933 187.216 45.53C186.897 45.5667 186.582 45.6088 186.27 45.6565C185.962 45.7042 185.684 45.761 185.434 45.827C185.266 45.8747 185.102 45.9425 184.945 46.0305C184.787 46.1148 184.657 46.2285 184.554 46.3715C184.455 46.5145 184.406 46.6923 184.406 46.905C184.406 47.0773 184.448 47.2442 184.532 47.4055C184.62 47.5668 184.76 47.7007 184.95 47.807C185.145 47.9133 185.401 47.9665 185.72 47.9665ZM190.034 48.5L190.04 40.58H190.854V45.42L193.505 42.56H194.583L191.8 45.53L194.946 48.5H193.769L190.854 45.64V48.5H190.034ZM197.903 48.665C197.323 48.665 196.821 48.5367 196.396 48.28C195.974 48.0233 195.646 47.6622 195.411 47.1965C195.176 46.7308 195.059 46.1845 195.059 45.5575C195.059 44.9085 195.175 44.3475 195.406 43.8745C195.637 43.4015 195.961 43.0367 196.379 42.78C196.801 42.5233 197.298 42.395 197.87 42.395C198.456 42.395 198.957 42.5307 199.371 42.802C199.785 43.0697 200.099 43.4547 200.312 43.957C200.524 44.4593 200.621 45.0588 200.603 45.7555H199.778V45.4695C199.763 44.6995 199.597 44.1183 199.278 43.726C198.962 43.3337 198.5 43.1375 197.892 43.1375C197.254 43.1375 196.764 43.3447 196.423 43.759C196.086 44.1733 195.917 44.7637 195.917 45.53C195.917 46.278 196.086 46.8592 196.423 47.2735C196.764 47.6842 197.246 47.8895 197.87 47.8895C198.295 47.8895 198.665 47.7923 198.981 47.598C199.3 47.4 199.551 47.1158 199.734 46.7455L200.488 47.037C200.253 47.554 199.906 47.9555 199.448 48.2415C198.993 48.5238 198.478 48.665 197.903 48.665ZM195.631 45.7555V45.079H200.169V45.7555H195.631ZM206.297 48.6485C205.942 48.6485 205.63 48.5935 205.362 48.4835C205.098 48.3735 204.873 48.225 204.686 48.038C204.503 47.851 204.354 47.6383 204.24 47.4C204.127 47.158 204.044 46.9032 203.993 46.6355C203.942 46.3642 203.916 46.0947 203.916 45.827V42.56H204.73V45.5905C204.73 45.9168 204.761 46.2193 204.823 46.498C204.886 46.7767 204.985 47.0205 205.12 47.2295C205.26 47.4348 205.438 47.5943 205.654 47.708C205.874 47.8217 206.14 47.8785 206.451 47.8785C206.737 47.8785 206.989 47.829 207.205 47.73C207.425 47.631 207.608 47.4898 207.755 47.3065C207.905 47.1195 208.019 46.894 208.096 46.63C208.173 46.3623 208.211 46.0617 208.211 45.728L208.783 45.8545C208.783 46.4632 208.677 46.9747 208.464 47.389C208.252 47.8033 207.958 48.1168 207.584 48.3295C207.21 48.5422 206.781 48.6485 206.297 48.6485ZM208.294 48.5V47.037H208.211V42.56H209.02V48.5H208.294ZM213.225 48.665C212.678 48.665 212.216 48.5275 211.839 48.2525C211.461 47.9738 211.175 47.598 210.981 47.125C210.786 46.6483 210.689 46.1148 210.689 45.5245C210.689 44.9232 210.786 44.3878 210.981 43.9185C211.179 43.4455 211.468 43.0733 211.85 42.802C212.231 42.5307 212.7 42.395 213.258 42.395C213.8 42.395 214.266 42.5325 214.655 42.8075C215.043 43.0825 215.34 43.4565 215.546 43.9295C215.755 44.4025 215.859 44.9342 215.859 45.5245C215.859 46.1185 215.755 46.652 215.546 47.125C215.337 47.598 215.036 47.9738 214.644 48.2525C214.251 48.5275 213.778 48.665 213.225 48.665ZM210.552 51.14V42.56H211.278V47.0315H211.366V51.14H210.552ZM213.142 47.9115C213.556 47.9115 213.901 47.807 214.176 47.598C214.451 47.389 214.656 47.1048 214.792 46.7455C214.931 46.3825 215.001 45.9755 215.001 45.5245C215.001 45.0772 214.933 44.6738 214.798 44.3145C214.662 43.9552 214.455 43.671 214.176 43.462C213.901 43.253 213.551 43.1485 213.126 43.1485C212.711 43.1485 212.367 43.2493 212.092 43.451C211.82 43.6527 211.617 43.9332 211.481 44.2925C211.345 44.6482 211.278 45.0588 211.278 45.5245C211.278 45.9828 211.345 46.3935 211.481 46.7565C211.617 47.1158 211.822 47.3982 212.097 47.6035C212.372 47.8088 212.72 47.9115 213.142 47.9115ZM219.379 48.5V40.415H220.188V48.5H219.379ZM224.35 48.665C223.771 48.665 223.268 48.5367 222.843 48.28C222.421 48.0233 222.093 47.6622 221.858 47.1965C221.624 46.7308 221.506 46.1845 221.506 45.5575C221.506 44.9085 221.622 44.3475 221.853 43.8745C222.084 43.4015 222.408 43.0367 222.826 42.78C223.248 42.5233 223.745 42.395 224.317 42.395C224.904 42.395 225.404 42.5307 225.818 42.802C226.233 43.0697 226.546 43.4547 226.759 43.957C226.972 44.4593 227.069 45.0588 227.05 45.7555H226.225V45.4695C226.211 44.6995 226.044 44.1183 225.725 43.726C225.41 43.3337 224.948 43.1375 224.339 43.1375C223.701 43.1375 223.211 43.3447 222.87 43.759C222.533 44.1733 222.364 44.7637 222.364 45.53C222.364 46.278 222.533 46.8592 222.87 47.2735C223.211 47.6842 223.694 47.8895 224.317 47.8895C224.742 47.8895 225.113 47.7923 225.428 47.598C225.747 47.4 225.998 47.1158 226.181 46.7455L226.935 47.037C226.7 47.554 226.354 47.9555 225.895 48.2415C225.441 48.5238 224.926 48.665 224.35 48.665ZM222.078 45.7555V45.079H226.616V45.7555H222.078ZM229.662 48.5L227.506 42.56H228.326L230.08 47.444L231.824 42.56H232.654L230.498 48.5H229.662ZM235.941 48.665C235.361 48.665 234.859 48.5367 234.434 48.28C234.012 48.0233 233.684 47.6622 233.449 47.1965C233.215 46.7308 233.097 46.1845 233.097 45.5575C233.097 44.9085 233.213 44.3475 233.444 43.8745C233.675 43.4015 233.999 43.0367 234.417 42.78C234.839 42.5233 235.336 42.395 235.908 42.395C236.494 42.395 236.995 42.5307 237.409 42.802C237.824 43.0697 238.137 43.4547 238.35 43.957C238.562 44.4593 238.66 45.0588 238.641 45.7555H237.816V45.4695C237.802 44.6995 237.635 44.1183 237.316 43.726C237 43.3337 236.538 43.1375 235.93 43.1375C235.292 43.1375 234.802 43.3447 234.461 43.759C234.124 44.1733 233.955 44.7637 233.955 45.53C233.955 46.278 234.124 46.8592 234.461 47.2735C234.802 47.6842 235.284 47.8895 235.908 47.8895C236.333 47.8895 236.703 47.7923 237.019 47.598C237.338 47.4 237.589 47.1158 237.772 46.7455L238.526 47.037C238.291 47.554 237.945 47.9555 237.486 48.2415C237.032 48.5238 236.516 48.665 235.941 48.665ZM233.669 45.7555V45.079H238.207V45.7555H233.669ZM239.862 48.5V42.56H240.588V43.99L240.445 43.803C240.511 43.627 240.597 43.4657 240.703 43.319C240.81 43.1687 240.925 43.0458 241.05 42.9505C241.204 42.8148 241.383 42.7122 241.589 42.6425C241.794 42.5692 242.001 42.527 242.21 42.516C242.419 42.5013 242.61 42.516 242.782 42.56V43.319C242.566 43.264 242.329 43.2512 242.073 43.2805C241.816 43.3098 241.58 43.4125 241.363 43.5885C241.165 43.7425 241.017 43.9277 240.918 44.144C240.819 44.3567 240.753 44.584 240.72 44.826C240.687 45.0643 240.67 45.3008 240.67 45.5355V48.5H239.862ZM245.3 48.665C244.852 48.665 244.476 48.5843 244.172 48.423C243.871 48.2617 243.646 48.0472 243.496 47.7795C243.345 47.5118 243.27 47.2203 243.27 46.905C243.27 46.5823 243.334 46.3073 243.463 46.08C243.595 45.849 243.772 45.6602 243.996 45.5135C244.223 45.3668 244.486 45.255 244.783 45.178C245.083 45.1047 245.415 45.0405 245.778 44.9855C246.145 44.9268 246.502 44.8773 246.851 44.837C247.203 44.793 247.511 44.7508 247.775 44.7105L247.489 44.8865C247.5 44.2998 247.386 43.8653 247.148 43.583C246.909 43.3007 246.495 43.1595 245.905 43.1595C245.498 43.1595 245.153 43.2512 244.871 43.4345C244.592 43.6178 244.396 43.9075 244.282 44.3035L243.496 44.0725C243.631 43.5408 243.904 43.1283 244.315 42.835C244.726 42.5417 245.259 42.395 245.916 42.395C246.458 42.395 246.918 42.4977 247.296 42.703C247.677 42.9047 247.947 43.198 248.105 43.583C248.178 43.7553 248.226 43.9478 248.248 44.1605C248.27 44.3732 248.281 44.5895 248.281 44.8095V48.5H247.56V47.0095L247.769 47.0975C247.567 47.6072 247.254 47.9958 246.829 48.2635C246.403 48.5312 245.894 48.665 245.3 48.665ZM245.393 47.9665C245.771 47.9665 246.101 47.8987 246.383 47.763C246.665 47.6273 246.893 47.4422 247.065 47.2075C247.237 46.9692 247.349 46.7015 247.401 46.4045C247.445 46.2138 247.468 46.0048 247.472 45.7775C247.476 45.5465 247.478 45.3742 247.478 45.2605L247.786 45.42C247.511 45.4567 247.212 45.4933 246.889 45.53C246.57 45.5667 246.255 45.6088 245.943 45.6565C245.635 45.7042 245.356 45.761 245.107 45.827C244.938 45.8747 244.775 45.9425 244.618 46.0305C244.46 46.1148 244.33 46.2285 244.227 46.3715C244.128 46.5145 244.079 46.6923 244.079 46.905C244.079 47.0773 244.121 47.2442 244.205 47.4055C244.293 47.5668 244.432 47.7007 244.623 47.807C244.817 47.9133 245.074 47.9665 245.393 47.9665ZM252.072 51.305C251.768 51.305 251.467 51.2592 251.17 51.1675C250.877 51.0795 250.605 50.9383 250.356 50.744C250.107 50.5533 249.898 50.304 249.729 49.996L250.46 49.589C250.625 49.919 250.856 50.1555 251.153 50.2985C251.454 50.4452 251.76 50.5185 252.072 50.5185C252.501 50.5185 252.847 50.4378 253.111 50.2765C253.379 50.1188 253.573 49.8842 253.694 49.5725C253.815 49.2608 253.874 48.8722 253.87 48.4065V46.8225H253.964V42.56H254.684V48.4175C254.684 48.5862 254.679 48.7475 254.668 48.9015C254.661 49.0592 254.644 49.2132 254.618 49.3635C254.549 49.8072 254.404 50.172 254.184 50.458C253.968 50.744 253.682 50.9567 253.326 51.096C252.974 51.2353 252.556 51.305 252.072 51.305ZM252.017 48.665C251.463 48.665 250.99 48.5275 250.598 48.2525C250.206 47.9738 249.905 47.598 249.696 47.125C249.487 46.652 249.382 46.1185 249.382 45.5245C249.382 44.9342 249.485 44.4025 249.69 43.9295C249.899 43.4565 250.198 43.0825 250.587 42.8075C250.976 42.5325 251.441 42.395 251.984 42.395C252.541 42.395 253.011 42.5307 253.392 42.802C253.773 43.0733 254.061 43.4455 254.255 43.9185C254.453 44.3878 254.552 44.9232 254.552 45.5245C254.552 46.1148 254.455 46.6483 254.261 47.125C254.067 47.598 253.781 47.9738 253.403 48.2525C253.025 48.5275 252.563 48.665 252.017 48.665ZM252.099 47.9115C252.521 47.9115 252.869 47.8088 253.144 47.6035C253.419 47.3982 253.625 47.1158 253.76 46.7565C253.896 46.3935 253.964 45.9828 253.964 45.5245C253.964 45.0588 253.896 44.6482 253.76 44.2925C253.625 43.9332 253.419 43.6527 253.144 43.451C252.873 43.2493 252.53 43.1485 252.116 43.1485C251.691 43.1485 251.339 43.253 251.06 43.462C250.781 43.671 250.574 43.9552 250.438 44.3145C250.306 44.6738 250.24 45.0772 250.24 45.5245C250.24 45.9755 250.308 46.3825 250.444 46.7455C250.583 47.1048 250.79 47.389 251.065 47.598C251.34 47.807 251.685 47.9115 252.099 47.9115ZM258.736 48.665C258.156 48.665 257.654 48.5367 257.229 48.28C256.807 48.0233 256.479 47.6622 256.244 47.1965C256.009 46.7308 255.892 46.1845 255.892 45.5575C255.892 44.9085 256.008 44.3475 256.239 43.8745C256.47 43.4015 256.794 43.0367 257.212 42.78C257.634 42.5233 258.131 42.395 258.703 42.395C259.289 42.395 259.79 42.5307 260.204 42.802C260.618 43.0697 260.932 43.4547 261.145 43.957C261.357 44.4593 261.454 45.0588 261.436 45.7555H260.611V45.4695C260.596 44.6995 260.43 44.1183 260.111 43.726C259.795 43.3337 259.333 43.1375 258.725 43.1375C258.087 43.1375 257.597 43.3447 257.256 43.759C256.919 44.1733 256.75 44.7637 256.75 45.53C256.75 46.278 256.919 46.8592 257.256 47.2735C257.597 47.6842 258.079 47.8895 258.703 47.8895C259.128 47.8895 259.498 47.7923 259.814 47.598C260.133 47.4 260.384 47.1158 260.567 46.7455L261.321 47.037C261.086 47.554 260.739 47.9555 260.281 48.2415C259.826 48.5238 259.311 48.665 258.736 48.665ZM256.464 45.7555V45.079H261.002V45.7555H256.464ZM267.526 48.665C266.98 48.665 266.518 48.5275 266.14 48.2525C265.763 47.9738 265.477 47.598 265.282 47.125C265.088 46.6483 264.991 46.1148 264.991 45.5245C264.991 44.9232 265.088 44.3878 265.282 43.9185C265.48 43.4455 265.77 43.0733 266.151 42.802C266.533 42.5307 267.002 42.395 267.559 42.395C268.102 42.395 268.568 42.5325 268.956 42.8075C269.345 43.0825 269.642 43.4565 269.847 43.9295C270.056 44.4025 270.161 44.9342 270.161 45.5245C270.161 46.1185 270.056 46.652 269.847 47.125C269.638 47.598 269.338 47.9738 268.945 48.2525C268.553 48.5275 268.08 48.665 267.526 48.665ZM264.853 51.14V42.56H265.579V47.0315H265.667V51.14H264.853ZM267.444 47.9115C267.858 47.9115 268.203 47.807 268.478 47.598C268.753 47.389 268.958 47.1048 269.094 46.7455C269.233 46.3825 269.303 45.9755 269.303 45.5245C269.303 45.0772 269.235 44.6738 269.099 44.3145C268.964 43.9552 268.757 43.671 268.478 43.462C268.203 43.253 267.853 43.1485 267.427 43.1485C267.013 43.1485 266.668 43.2493 266.393 43.451C266.122 43.6527 265.919 43.9332 265.783 44.2925C265.647 44.6482 265.579 45.0588 265.579 45.5245C265.579 45.9828 265.647 46.3935 265.783 46.7565C265.919 47.1158 266.124 47.3982 266.399 47.6035C266.674 47.8088 267.022 47.9115 267.444 47.9115ZM273.849 48.665C273.259 48.665 272.755 48.5312 272.337 48.2635C271.919 47.9958 271.598 47.6255 271.374 47.1525C271.15 46.6795 271.039 46.1368 271.039 45.5245C271.039 44.9012 271.152 44.3548 271.38 43.8855C271.607 43.4162 271.93 43.0513 272.348 42.791C272.769 42.527 273.27 42.395 273.849 42.395C274.443 42.395 274.949 42.5288 275.367 42.7965C275.789 43.0605 276.11 43.429 276.33 43.902C276.553 44.3713 276.665 44.9122 276.665 45.5245C276.665 46.1478 276.553 46.696 276.33 47.169C276.106 47.6383 275.783 48.005 275.362 48.269C274.94 48.533 274.436 48.665 273.849 48.665ZM273.849 47.8895C274.509 47.8895 275 47.6713 275.323 47.235C275.646 46.795 275.807 46.2248 275.807 45.5245C275.807 44.8058 275.644 44.2338 275.318 43.8085C274.995 43.3832 274.505 43.1705 273.849 43.1705C273.405 43.1705 273.039 43.2713 272.749 43.473C272.463 43.671 272.249 43.9478 272.106 44.3035C271.966 44.6555 271.897 45.0625 271.897 45.5245C271.897 46.2395 272.062 46.8133 272.392 47.246C272.722 47.675 273.207 47.8895 273.849 47.8895ZM280.041 48.6595C279.345 48.6595 278.771 48.5092 278.32 48.2085C277.872 47.9078 277.597 47.4898 277.495 46.9545L278.32 46.817C278.408 47.1543 278.608 47.4238 278.919 47.6255C279.235 47.8235 279.623 47.9225 280.085 47.9225C280.536 47.9225 280.892 47.829 281.152 47.642C281.413 47.4513 281.543 47.1928 281.543 46.8665C281.543 46.6832 281.501 46.5347 281.416 46.421C281.336 46.3037 281.169 46.1955 280.916 46.0965C280.663 45.9975 280.285 45.8802 279.783 45.7445C279.244 45.5978 278.822 45.4512 278.518 45.3045C278.213 45.1578 277.997 44.9892 277.869 44.7985C277.74 44.6042 277.676 44.3677 277.676 44.089C277.676 43.7517 277.772 43.4565 277.962 43.2035C278.153 42.9468 278.417 42.7488 278.754 42.6095C279.092 42.4665 279.484 42.395 279.931 42.395C280.379 42.395 280.778 42.4683 281.13 42.615C281.486 42.758 281.772 42.9597 281.988 43.22C282.205 43.4803 282.333 43.7828 282.373 44.1275L281.548 44.276C281.493 43.9277 281.319 43.6527 281.026 43.451C280.736 43.2457 280.368 43.1393 279.92 43.132C279.499 43.121 279.156 43.2017 278.892 43.374C278.628 43.5427 278.496 43.7682 278.496 44.0505C278.496 44.2082 278.543 44.3438 278.639 44.4575C278.734 44.5675 278.906 44.672 279.156 44.771C279.409 44.87 279.768 44.9782 280.234 45.0955C280.78 45.2348 281.209 45.3815 281.521 45.5355C281.832 45.6895 282.054 45.871 282.186 46.08C282.318 46.289 282.384 46.5475 282.384 46.8555C282.384 47.4165 282.175 47.8583 281.757 48.181C281.343 48.5 280.771 48.6595 280.041 48.6595ZM283.714 41.4325V40.525H284.522V41.4325H283.714ZM283.714 48.5V42.56H284.522V48.5H283.714ZM289.405 48.5C289.072 48.5697 288.742 48.5972 288.415 48.5825C288.093 48.5678 287.803 48.4982 287.546 48.3735C287.293 48.2488 287.101 48.0545 286.969 47.7905C286.863 47.5705 286.804 47.3487 286.793 47.125C286.786 46.8977 286.782 46.6392 286.782 46.3495V40.91H287.585V46.3165C287.585 46.5658 287.587 46.7748 287.59 46.9435C287.598 47.1085 287.636 47.2552 287.706 47.3835C287.838 47.6292 288.047 47.7758 288.333 47.8235C288.623 47.8712 288.98 47.8602 289.405 47.7905V48.5ZM285.511 43.253V42.56H289.405V43.253H285.511ZM290.686 41.4325V40.525H291.494V41.4325H290.686ZM290.686 48.5V42.56H291.494V48.5H290.686ZM295.624 48.665C295.033 48.665 294.529 48.5312 294.111 48.2635C293.693 47.9958 293.372 47.6255 293.149 47.1525C292.925 46.6795 292.813 46.1368 292.813 45.5245C292.813 44.9012 292.927 44.3548 293.154 43.8855C293.381 43.4162 293.704 43.0513 294.122 42.791C294.544 42.527 295.044 42.395 295.624 42.395C296.218 42.395 296.724 42.5288 297.142 42.7965C297.563 43.0605 297.884 43.429 298.104 43.902C298.328 44.3713 298.44 44.9122 298.44 45.5245C298.44 46.1478 298.328 46.696 298.104 47.169C297.88 47.6383 297.558 48.005 297.136 48.269C296.714 48.533 296.21 48.665 295.624 48.665ZM295.624 47.8895C296.284 47.8895 296.775 47.6713 297.098 47.235C297.42 46.795 297.582 46.2248 297.582 45.5245C297.582 44.8058 297.418 44.2338 297.092 43.8085C296.769 43.3832 296.28 43.1705 295.624 43.1705C295.18 43.1705 294.813 43.2713 294.524 43.473C294.238 43.671 294.023 43.9478 293.88 44.3035C293.741 44.6555 293.671 45.0625 293.671 45.5245C293.671 46.2395 293.836 46.8133 294.166 47.246C294.496 47.675 294.982 47.8895 295.624 47.8895ZM303.943 48.5V45.4695C303.943 45.1395 303.912 44.837 303.849 44.562C303.787 44.2833 303.686 44.0413 303.547 43.836C303.411 43.627 303.233 43.4657 303.013 43.352C302.797 43.2383 302.533 43.1815 302.221 43.1815C301.935 43.1815 301.682 43.231 301.462 43.33C301.246 43.429 301.063 43.572 300.912 43.759C300.766 43.9423 300.654 44.166 300.577 44.43C300.5 44.694 300.461 44.9947 300.461 45.332L299.889 45.2055C299.889 44.5968 299.996 44.0853 300.208 43.671C300.421 43.2567 300.714 42.9432 301.088 42.7305C301.462 42.5178 301.891 42.4115 302.375 42.4115C302.731 42.4115 303.041 42.4665 303.305 42.5765C303.572 42.6865 303.798 42.835 303.981 43.022C304.168 43.209 304.319 43.4235 304.432 43.6655C304.546 43.9038 304.628 44.1587 304.68 44.43C304.731 44.6977 304.757 44.9653 304.757 45.233V48.5H303.943ZM299.647 48.5V42.56H300.379V44.023H300.461V48.5H299.647ZM308.401 48.6595C307.704 48.6595 307.13 48.5092 306.679 48.2085C306.232 47.9078 305.957 47.4898 305.854 46.9545L306.679 46.817C306.767 47.1543 306.967 47.4238 307.279 47.6255C307.594 47.8235 307.983 47.9225 308.445 47.9225C308.896 47.9225 309.251 47.829 309.512 47.642C309.772 47.4513 309.902 47.1928 309.902 46.8665C309.902 46.6832 309.86 46.5347 309.776 46.421C309.695 46.3037 309.528 46.1955 309.275 46.0965C309.022 45.9975 308.644 45.8802 308.142 45.7445C307.603 45.5978 307.181 45.4512 306.877 45.3045C306.573 45.1578 306.356 44.9892 306.228 44.7985C306.1 44.6042 306.036 44.3677 306.036 44.089C306.036 43.7517 306.131 43.4565 306.322 43.2035C306.512 42.9468 306.776 42.7488 307.114 42.6095C307.451 42.4665 307.843 42.395 308.291 42.395C308.738 42.395 309.138 42.4683 309.49 42.615C309.845 42.758 310.131 42.9597 310.348 43.22C310.564 43.4803 310.692 43.7828 310.733 44.1275L309.908 44.276C309.853 43.9277 309.678 43.6527 309.385 43.451C309.095 43.2457 308.727 43.1393 308.28 43.132C307.858 43.121 307.515 43.2017 307.251 43.374C306.987 43.5427 306.855 43.7682 306.855 44.0505C306.855 44.2082 306.903 44.3438 306.998 44.4575C307.093 44.5675 307.266 44.672 307.515 44.771C307.768 44.87 308.127 44.9782 308.593 45.0955C309.139 45.2348 309.568 45.3815 309.88 45.5355C310.192 45.6895 310.414 45.871 310.546 46.08C310.678 46.289 310.744 46.5475 310.744 46.8555C310.744 47.4165 310.535 47.8583 310.117 48.181C309.702 48.5 309.13 48.6595 308.401 48.6595ZM312.117 48.5V47.5595H313.058V48.5H312.117Z" fill="#F0F0F0"/>
<defs>
<linearGradient id="paint0_linear_2004_9317" x1="322.5" y1="68" x2="0.42118" y2="2.43118" gradientUnits="userSpaceOnUse">
<stop stop-color="#2E1042"/>
<stop offset="1" stop-color="#3D3400"/>
</linearGradient>
<linearGradient id="paint1_linear_2004_9317" x1="64.5" y1="-4.5" x2="10" y2="49.5" gradientUnits="userSpaceOnUse">
<stop stop-color="#FF85FF"/>
<stop offset="1" stop-color="#FFF099"/>
</linearGradient>
</defs>
</svg>
