<svg width="14" height="18" viewBox="0 0 14 18" fill="none" xmlns="http://www.w3.org/2000/svg">
<path fill-rule="evenodd" clip-rule="evenodd" d="M6.5 10.4C8.93005 10.4 10.9 8.43005 10.9 6C10.9 3.56995 8.93005 1.6 6.5 1.6C4.06995 1.6 2.1 3.56995 2.1 6C2.1 8.43005 4.06995 10.4 6.5 10.4ZM6.5 11.5C9.53757 11.5 12 9.03757 12 6C12 2.96243 9.53757 0.5 6.5 0.5C3.46243 0.5 1 2.96243 1 6C1 9.03757 3.46243 11.5 6.5 11.5Z" fill="#8F7900"/>
<path fill-rule="evenodd" clip-rule="evenodd" d="M7 12.5C7.27614 12.5 7.5 12.7239 7.5 13L7.5 17C7.5 17.2761 7.27614 17.5 7 17.5C6.72386 17.5 6.5 17.2761 6.5 17L6.5 13C6.5 12.7239 6.72386 12.5 7 12.5Z" fill="#8F7900"/>
<path fill-rule="evenodd" clip-rule="evenodd" d="M4.5498 3.9998C4.5498 3.75128 4.75128 3.5498 4.9998 3.5498H6.19981C7.11108 3.5498 7.8498 4.28853 7.8498 5.1998C7.8498 6.11107 7.11107 6.8498 6.1998 6.8498H6.19746L7.69613 8.16115C7.88317 8.3248 7.90212 8.6091 7.73846 8.79613C7.57481 8.98317 7.29051 9.00212 7.10348 8.83846L4.7503 6.77944C4.42135 6.49161 4.62492 5.9498 5.06202 5.9498H6.1998C6.61402 5.9498 6.9498 5.61402 6.9498 5.1998C6.9498 4.78559 6.61402 4.4498 6.19981 4.4498H4.9998C4.75128 4.4498 4.5498 4.24833 4.5498 3.9998Z" fill="#8F7900"/>
<path fill-rule="evenodd" clip-rule="evenodd" d="M4.5498 5.2C4.5498 4.95147 4.75128 4.75 4.9998 4.75H7.9998C8.24833 4.75 8.4498 4.95147 8.4498 5.2C8.4498 5.44853 8.24833 5.65 7.9998 5.65H4.9998C4.75128 5.65 4.5498 5.44853 4.5498 5.2Z" fill="#8F7900"/>
<path fill-rule="evenodd" clip-rule="evenodd" d="M4.5498 3.9998C4.5498 3.75128 4.75128 3.5498 4.9998 3.5498H7.9998C8.24833 3.5498 8.4498 3.75128 8.4498 3.9998C8.4498 4.24833 8.24833 4.4498 7.9998 4.4498H4.9998C4.75128 4.4498 4.5498 4.24833 4.5498 3.9998Z" fill="#8F7900"/>
<path fill-rule="evenodd" clip-rule="evenodd" d="M12.2187 14.0525C11.6851 14.9879 10.5068 16.1821 8.38475 16.4466C9.04977 15.4865 10.3194 14.3123 12.2187 14.0525ZM7.0404 16.803C7.58854 15.524 9.53224 13 13 13H13.6628L13.4807 13.6374C13.0964 14.9825 11.3587 17.5 7.49997 17.5H6.7417L7.0404 16.803Z" fill="#8F7900"/>
<path fill-rule="evenodd" clip-rule="evenodd" d="M1.78084 14.0525C2.31439 14.9879 3.49275 16.1821 5.61476 16.4466C4.94974 15.4865 3.6801 14.3123 1.78084 14.0525ZM6.95912 16.803C6.41097 15.524 4.46727 13 0.999543 13H0.336678L0.518781 13.6374C0.903099 14.9825 2.64078 17.5 6.49954 17.5H7.25781L6.95912 16.803Z" fill="#8F7900"/>
</svg>
