<svg width="24" height="24" viewBox="0 0 24 24" fill="none" xmlns="http://www.w3.org/2000/svg">
<path d="M0 3.42857C0 1.53502 1.53502 0 3.42857 0H20.5714C22.465 0 24 1.53502 24 3.42857V20.5714C24 22.465 22.465 24 20.5714 24H3.42857C1.53502 24 0 22.465 0 20.5714V3.42857Z" fill="#3D3400"/>
<path d="M10.1992 7.03227C9.97542 7.03227 9.794 7.2137 9.794 7.4375C9.794 7.6613 9.97542 7.84273 10.1992 7.84273H11.2798C11.5009 7.84273 11.6971 7.94892 11.8203 8.11306H10.1992C9.97542 8.11306 9.794 8.29449 9.794 8.5183C9.794 8.7421 9.97542 8.92353 10.1992 8.92353H11.8201C11.6969 9.08748 11.5007 9.19351 11.2798 9.19351H10.2553C9.86164 9.19351 9.67832 9.68141 9.97455 9.94061L12.0936 11.7948C12.2621 11.9422 12.5181 11.9251 12.6654 11.7567C12.8128 11.5882 12.7957 11.3322 12.6273 11.1849L11.2777 10.004H11.2798C11.9599 10.004 12.5333 9.5471 12.7097 8.92353H12.9008C13.1246 8.92353 13.306 8.7421 13.306 8.5183C13.306 8.29449 13.1246 8.11306 12.9008 8.11306H12.7098C12.6832 8.01881 12.6475 7.92837 12.6037 7.84273H12.9008C13.1246 7.84273 13.306 7.6613 13.306 7.4375C13.306 7.2137 13.1246 7.03227 12.9008 7.03227H10.1992Z" fill="#8F7900"/>
<path fill-rule="evenodd" clip-rule="evenodd" d="M11.5502 14.1913C14.2856 14.1913 16.503 11.9739 16.503 9.23849C16.503 6.50311 14.2856 4.28564 11.5502 4.28564C8.8148 4.28564 6.59733 6.50311 6.59733 9.23849C6.59733 11.9739 8.8148 14.1913 11.5502 14.1913ZM11.5502 13.2008C13.7385 13.2008 15.5125 11.4268 15.5125 9.23849C15.5125 7.05019 13.7385 5.27621 11.5502 5.27621C9.36187 5.27621 7.5879 7.05019 7.5879 9.23849C7.5879 11.4268 9.36187 13.2008 11.5502 13.2008Z" fill="#8F7900"/>
<path fill-rule="evenodd" clip-rule="evenodd" d="M12.0004 15.0918C12.2491 15.0918 12.4507 15.2934 12.4507 15.542V18.2181C13.2392 17.0384 14.8694 15.5421 17.4031 15.5421H18L17.836 16.1161C17.4899 17.3274 15.9251 19.5944 12.4502 19.5944H11.5498C8.07488 19.5944 6.51007 17.3274 6.16399 16.1161L6 15.5421H6.59692C9.1315 15.5421 10.762 17.0395 11.5502 18.2194V15.542C11.5502 15.2934 11.7518 15.0918 12.0004 15.0918ZM16.6995 16.4899C16.219 17.3323 15.1579 18.4077 13.247 18.6458C13.8459 17.7813 14.9892 16.7238 16.6995 16.4899ZM7.3005 16.4899C7.78097 17.3323 8.8421 18.4077 10.753 18.6458C10.1541 17.7813 9.01081 16.7238 7.3005 16.4899Z" fill="#8F7900"/>
</svg>
