<svg width="24" height="24" viewBox="0 0 24 24" fill="none" xmlns="http://www.w3.org/2000/svg">
<path fill-rule="evenodd" clip-rule="evenodd" d="M11.5 13.4C13.9301 13.4 15.9 11.4301 15.9 9C15.9 6.56995 13.9301 4.6 11.5 4.6C9.06995 4.6 7.1 6.56995 7.1 9C7.1 11.4301 9.06995 13.4 11.5 13.4ZM11.5 14.5C14.5376 14.5 17 12.0376 17 9C17 5.96243 14.5376 3.5 11.5 3.5C8.46243 3.5 6 5.96243 6 9C6 12.0376 8.46243 14.5 11.5 14.5Z" fill="#B89C00"/>
<path fill-rule="evenodd" clip-rule="evenodd" d="M12 15.5C12.2761 15.5 12.5 15.7239 12.5 16L12.5 20C12.5 20.2761 12.2761 20.5 12 20.5C11.7239 20.5 11.5 20.2761 11.5 20L11.5 16C11.5 15.7239 11.7239 15.5 12 15.5Z" fill="#B89C00"/>
<path fill-rule="evenodd" clip-rule="evenodd" d="M9.5498 6.9998C9.5498 6.75128 9.75128 6.5498 9.9998 6.5498H11.1998C12.1111 6.5498 12.8498 7.28853 12.8498 8.1998C12.8498 9.11107 12.1111 9.8498 11.1998 9.8498H11.1975L12.6961 11.1611C12.8832 11.3248 12.9021 11.6091 12.7385 11.7961C12.5748 11.9832 12.2905 12.0021 12.1035 11.8385L9.7503 9.77944C9.42135 9.49161 9.62492 8.9498 10.062 8.9498H11.1998C11.614 8.9498 11.9498 8.61402 11.9498 8.1998C11.9498 7.78559 11.614 7.4498 11.1998 7.4498H9.9998C9.75128 7.4498 9.5498 7.24833 9.5498 6.9998Z" fill="#B89C00"/>
<path fill-rule="evenodd" clip-rule="evenodd" d="M9.5498 8.2C9.5498 7.95147 9.75128 7.75 9.9998 7.75H12.9998C13.2483 7.75 13.4498 7.95147 13.4498 8.2C13.4498 8.44853 13.2483 8.65 12.9998 8.65H9.9998C9.75128 8.65 9.5498 8.44853 9.5498 8.2Z" fill="#B89C00"/>
<path fill-rule="evenodd" clip-rule="evenodd" d="M9.5498 6.9998C9.5498 6.75128 9.75128 6.5498 9.9998 6.5498H12.9998C13.2483 6.5498 13.4498 6.75128 13.4498 6.9998C13.4498 7.24833 13.2483 7.4498 12.9998 7.4498H9.9998C9.75128 7.4498 9.5498 7.24833 9.5498 6.9998Z" fill="#B89C00"/>
<path fill-rule="evenodd" clip-rule="evenodd" d="M17.2187 17.0525C16.6851 17.9879 15.5068 19.1821 13.3847 19.4466C14.0498 18.4865 15.3194 17.3123 17.2187 17.0525ZM12.0404 19.803C12.5885 18.524 14.5322 16 18 16H18.6628L18.4807 16.6374C18.0964 17.9825 16.3587 20.5 12.5 20.5H11.7417L12.0404 19.803Z" fill="#B89C00"/>
<path fill-rule="evenodd" clip-rule="evenodd" d="M6.78084 17.0525C7.31439 17.9879 8.49275 19.1821 10.6148 19.4466C9.94974 18.4865 8.6801 17.3123 6.78084 17.0525ZM11.9591 19.803C11.411 18.524 9.46727 16 5.99954 16H5.33668L5.51878 16.6374C5.9031 17.9825 7.64078 20.5 11.4995 20.5H12.2578L11.9591 19.803Z" fill="#B89C00"/>
</svg>
