<svg width="26" height="26" viewBox="0 0 26 26" fill="none" xmlns="http://www.w3.org/2000/svg">
<path d="M0.428711 4.42871C0.428711 2.21957 2.21957 0.428711 4.42871 0.428711H21.5716C23.7807 0.428711 25.5716 2.21957 25.5716 4.42871V21.5716C25.5716 23.7807 23.7807 25.5716 21.5716 25.5716H4.42871C2.21957 25.5716 0.428711 23.7807 0.428711 21.5716V4.42871Z" fill="#251F18"/>
<path fill-rule="evenodd" clip-rule="evenodd" d="M12.7939 12.8168C12.7617 12.8104 12.7167 12.8104 12.678 12.8168C10.8117 12.7589 9.40231 11.2916 9.40231 9.48316C9.39588 8.59504 9.7434 7.75841 10.3741 7.12772C11.0048 6.49703 11.8414 6.14307 12.736 6.14307C14.5766 6.14307 16.0761 7.64257 16.0761 9.48316C16.0761 11.2916 14.6667 12.7525 12.8647 12.8168H12.7939ZM11.0563 7.80346C10.6122 8.25395 10.3677 8.84603 10.3677 9.47672C10.3677 10.7638 11.3716 11.8064 12.6523 11.845C12.6909 11.8386 12.7746 11.8386 12.8582 11.845C14.1261 11.7871 15.1107 10.751 15.1107 9.47672C15.1107 8.17673 14.0424 7.10841 12.736 7.10841C12.0988 7.10841 11.5068 7.3594 11.0563 7.80346Z" fill="#7A6552"/>
<path d="M14.9499 18.9178L13.9717 17.9396C13.7851 17.7529 13.7851 17.444 13.9717 17.2574C14.1584 17.0707 14.4673 17.0707 14.6539 17.2574L15.291 17.8945L16.9064 16.2792C17.093 16.0925 17.4019 16.0925 17.5885 16.2792C17.7752 16.4658 17.7752 16.7747 17.5885 16.9613L15.6321 18.9178C15.5356 19.0143 15.4133 19.0594 15.291 19.0594C15.1687 19.0594 15.0465 19.0143 14.9499 18.9178Z" fill="#7A6552"/>
<path d="M7.85742 16.588C7.85742 17.4697 8.34653 18.2871 9.24108 18.8856C10.1807 19.5163 11.4228 19.8573 12.7356 19.8573C12.9995 19.8573 13.2119 19.6321 13.2119 19.3682C13.2119 19.1044 12.9931 18.8856 12.7292 18.8856C11.603 18.8856 10.554 18.6024 9.77524 18.0811C9.15742 17.6692 8.82277 17.1351 8.82277 16.588C8.82277 16.041 9.15742 15.5197 9.77524 15.1079C11.3777 14.0395 14.0807 14.0395 15.6831 15.1079C15.902 15.2559 16.2044 15.198 16.3525 14.9727C16.5005 14.7539 16.4361 14.4514 16.2173 14.3034C14.2931 13.0163 11.1653 13.0163 9.24108 14.3034C8.35297 14.8955 7.85742 15.7064 7.85742 16.588Z" fill="#7A6552"/>
</svg>
