<svg width="26" height="26" viewBox="0 0 26 26" fill="none" xmlns="http://www.w3.org/2000/svg">
<path d="M0.428711 4.42846C0.428711 2.21932 2.21957 0.428467 4.42871 0.428467H21.5716C23.7807 0.428467 25.5716 2.21933 25.5716 4.42847V21.5713C25.5716 23.7805 23.7807 25.5713 21.5716 25.5713H4.42871C2.21957 25.5713 0.428711 23.7805 0.428711 21.5713V4.42846Z" fill="#F7F5F3"/>
<path fill-rule="evenodd" clip-rule="evenodd" d="M12.7939 12.8166C12.7617 12.8101 12.7167 12.8101 12.678 12.8166C10.8117 12.7586 9.40231 11.2913 9.40231 9.48291C9.39588 8.5948 9.7434 7.75817 10.3741 7.12747C11.0048 6.49678 11.8414 6.14282 12.736 6.14282C14.5766 6.14282 16.0761 7.64232 16.0761 9.48291C16.0761 11.2913 14.6667 12.7522 12.8647 12.8166H12.7939ZM11.0563 7.80321C10.6122 8.25371 10.3677 8.84579 10.3677 9.47648C10.3677 10.7636 11.3716 11.8062 12.6523 11.8448C12.6909 11.8384 12.7746 11.8384 12.8582 11.8448C14.1261 11.7869 15.1107 10.7507 15.1107 9.47648C15.1107 8.17648 14.0424 7.10817 12.736 7.10817C12.0988 7.10817 11.5068 7.35916 11.0563 7.80321Z" fill="#937962"/>
<path d="M14.9499 18.9175L13.9717 17.9393C13.7851 17.7527 13.7851 17.4438 13.9717 17.2571C14.1584 17.0705 14.4673 17.0705 14.6539 17.2571L15.291 17.8943L16.9064 16.2789C17.093 16.0923 17.4019 16.0923 17.5885 16.2789C17.7752 16.4656 17.7752 16.7745 17.5885 16.9611L15.6321 18.9175C15.5356 19.0141 15.4133 19.0591 15.291 19.0591C15.1687 19.0591 15.0465 19.0141 14.9499 18.9175Z" fill="#937962"/>
<path d="M7.85742 16.5878C7.85742 17.4695 8.34653 18.2868 9.24108 18.8853C10.1807 19.516 11.4228 19.8571 12.7356 19.8571C12.9995 19.8571 13.2119 19.6319 13.2119 19.368C13.2119 19.1041 12.9931 18.8853 12.7292 18.8853C11.603 18.8853 10.554 18.6022 9.77524 18.0809C9.15742 17.669 8.82277 17.1348 8.82277 16.5878C8.82277 16.0408 9.15742 15.5195 9.77524 15.1076C11.3777 14.0393 14.0807 14.0393 15.6831 15.1076C15.902 15.2556 16.2044 15.1977 16.3525 14.9725C16.5005 14.7537 16.4361 14.4512 16.2173 14.3032C14.2931 13.016 11.1653 13.016 9.24108 14.3032C8.35297 14.8952 7.85742 15.7061 7.85742 16.5878Z" fill="#937962"/>
</svg>
