<svg width="118" height="71" viewBox="0 0 118 71" fill="none" xmlns="http://www.w3.org/2000/svg"><path d="M2.201 62h101.507c3.426 0 6.162-2.851 6.083-6.276-.353-15.378-.041-39.948.123-50.563.017-1.1-1.809-1.554-2.398-.624-3.172 5.012-9.541 12.949-20.016 17.318-7.5 3.128-16.5-7.3-26.5 4.692-6.921 8.3-25 0-32.5 7.82s-4.5 13.556-9 17.206-8.5 1.564-13 1.564c-2.91 0-5.146 3.522-6.071 6.708C.099 60.978 1.02 62 2.2 62" fill="#F6EFFB"/><rect x="48" y="45" width="68.444" height="25.667" rx="4" fill="#D1AFE9"/><rect opacity=".4" width="22" height="3" rx="1.5" transform="matrix(1 0 0 -1 75 61.616)" fill="#F6EFFB"/><rect width="34" height="3" rx="1.5" transform="matrix(1 0 0 -1 75 55.737)" fill="#F6EFFB"/><circle cx="62.902" cy="57.902" r="7.902" fill="#AC6CDA"/><rect x="9" y="12" width="68.444" height="25.667" rx="4" fill="#AC6CDA"/><rect opacity=".3" width="22" height="3" rx="1.5" transform="matrix(1 0 0 -1 36 28.616)" fill="#F6EFFB"/><rect width="34" height="3" rx="1.5" transform="matrix(1 0 0 -1 36 22.737)" fill="#D1AFE9"/><circle cx="23.902" cy="24.902" r="7.902" fill="#D1AFE9"/><path d="M42.73 0a3.75 3.75 0 0 0 2.73 2.73 3.75 3.75 0 0 0-2.73 2.73A3.75 3.75 0 0 0 40 2.73 3.75 3.75 0 0 0 42.73 0m-37 38a3.75 3.75 0 0 0 2.73 2.73 3.75 3.75 0 0 0-2.73 2.73A3.75 3.75 0 0 0 3 40.73 3.75 3.75 0 0 0 5.73 38" fill="#D1AFE9"/><path d="m114.73 38 .108.435a3 3 0 0 0 2.186 2.186l.436.109-.436.108a3 3 0 0 0-2.186 2.186l-.108.435-.109-.435a3 3 0 0 0-2.186-2.186L112 40.73l.435-.109a3 3 0 0 0 2.186-2.186z" fill="#AC6CDA"/><circle cx="107" cy="25" r="10" fill="#AC6CDA"/><path fill-rule="evenodd" clip-rule="evenodd" d="M106.5 19h1v6.5h2.5v1h-3.5z" fill="#D1AFE9"/></svg>