<svg width="15" height="13" viewBox="0 0 15 13" fill="none" xmlns="http://www.w3.org/2000/svg">
<rect x="0.679688" y="1.01904" width="1.44144" height="16.2576" transform="rotate(-45 0.679688 1.01904)" fill="#F50000"/>
<path fill-rule="evenodd" clip-rule="evenodd" d="M2.65181 3.01866C1.64426 3.51852 0.746962 4.17005 0 4.93802L1.47836 6.41639C2.19239 5.62022 3.10769 4.96965 4.15693 4.52378L2.65181 3.01866ZM5.64483 6.01167C4.58041 6.33888 3.60935 6.93194 2.78779 7.72581L4.08145 9.01947C4.98824 8.22861 6.10241 7.73911 7.31277 7.67962L5.64483 6.01167ZM11.724 8.25975L9.47379 6.00957C10.5234 6.33097 11.4823 6.91079 12.297 7.68675L11.724 8.25975ZM7.32347 3.85925L5.5398 2.07558C6.1664 1.96547 6.8145 1.90771 7.47794 1.90771C10.4955 1.90771 13.1958 3.10263 15 4.9837L13.5198 6.46394C12.1242 4.87874 9.93686 3.8579 7.47794 3.8579C7.42633 3.8579 7.37483 3.85835 7.32347 3.85925ZM7.64752 9.53889C8.37102 9.53889 9.05803 9.81364 9.67665 10.3071L8.37352 11.6102L8.3732 11.6105C7.88111 12.0869 7.76684 12.1976 7.65396 12.3096C7.62001 12.3433 7.5862 12.3771 7.54227 12.421L7.54159 12.4217L7.54153 12.4218C7.4891 12.3752 7.46549 12.3542 7.4422 12.3328C7.42313 12.3153 7.40427 12.2976 7.36996 12.2654C7.29377 12.1938 7.14138 12.0505 6.74117 11.6792L5.48217 10.4202C6.13551 9.85582 6.87047 9.53889 7.64752 9.53889Z" fill="#F50000"/>
</svg>
