<svg width="24" height="24" viewBox="0 0 24 24" fill="none" xmlns="http://www.w3.org/2000/svg">
<path fill-rule="evenodd" clip-rule="evenodd" d="M14.6729 19.282C14.2077 19.2462 13.6799 19.1567 13.1342 19.0225L11.6313 18.6647C7.50722 17.6896 6.15639 15.5068 7.12255 11.3917L7.99925 7.64338C8.19606 6.79352 8.42865 6.10468 8.71492 5.53215C10.2536 2.35636 13.1968 2.64263 15.2901 3.13465L16.7841 3.48354C18.8774 3.97556 20.2014 4.75386 20.9439 5.94366C21.6775 7.13346 21.7938 8.66321 21.3018 10.7565L20.4251 14.4959C19.6557 17.7701 18.0544 19.3178 15.4064 19.3178C15.1738 19.3178 14.9323 19.3088 14.6729 19.282ZM9.92261 6.11363C9.69002 6.59671 9.48426 7.19608 9.30535 7.94754L8.42865 11.6959C7.63247 15.0774 8.55389 16.5535 11.9354 17.3586L13.4383 17.7164C13.9214 17.8327 14.3777 17.9043 14.7892 17.9401C17.2225 18.1816 18.4302 17.1171 19.11 14.1918L19.9867 10.4524C20.3893 8.72583 20.3356 7.51813 19.7989 6.65038C19.2621 5.78263 18.2065 5.1922 16.471 4.78964L14.977 4.44075C14.2345 4.26183 13.5725 4.17237 13 4.17237C11.506 4.17237 10.5578 4.78964 9.92261 6.11363Z" fill="#404040"/>
<path fill-rule="evenodd" clip-rule="evenodd" d="M4.00849 16.8844L2.86342 13.3508C1.5931 9.41459 2.72923 7.19601 6.64753 5.92569L8.06098 5.46945C8.52616 5.32631 8.87505 5.22791 9.18816 5.17423C9.44759 5.12056 9.69807 5.21896 9.85015 5.42472C10.0022 5.63048 10.0291 5.89885 9.92172 6.13144C9.68913 6.60558 9.48337 7.20495 9.3134 7.95641L8.4367 11.7047C7.64052 15.0863 8.56194 16.5623 11.9435 17.3675L13.4464 17.7253C13.9295 17.8416 14.3857 17.9132 14.7972 17.949C15.0835 17.9758 15.3161 18.1726 15.3966 18.4499C15.4682 18.7273 15.3608 19.0135 15.1282 19.1745C14.5378 19.5771 13.7953 19.9171 12.856 20.2212L11.4425 20.6864C10.4137 21.0085 9.51916 21.1695 8.71403 21.1695C6.41493 21.1695 4.94781 19.7918 4.00849 16.8844ZM7.06798 7.20495C3.8743 8.23373 3.1139 9.73664 4.14268 12.9393L5.28775 16.4729C6.32547 19.6666 7.82838 20.4359 11.0221 19.4071L12.4355 18.942C12.4892 18.9241 12.5339 18.9062 12.5876 18.8883L11.6393 18.6646C7.51528 17.6895 6.16445 15.5067 7.1306 11.3916L8.0073 7.6433C8.06992 7.35703 8.14149 7.07971 8.222 6.82922L7.06798 7.20495Z" fill="#404040"/>
<path d="M16.7388 10.6492L12.4 9.54886C12.0422 9.4594 11.8275 9.09262 11.9169 8.73478C12.0064 8.37695 12.3732 8.16224 12.731 8.2517L17.0698 9.35205C17.4276 9.44151 17.6423 9.80829 17.5528 10.1661C17.4813 10.4613 17.2039 10.6671 16.9087 10.6671C16.8551 10.6671 16.8014 10.6581 16.7388 10.6492Z" fill="#404040"/>
<path d="M14.1174 13.6728L11.5142 13.0108C11.1563 12.9213 10.9416 12.5546 11.0311 12.1967C11.1205 11.8389 11.4873 11.6242 11.8452 11.7136L14.4484 12.3756C14.8062 12.4651 15.0209 12.8319 14.9315 13.1897C14.8599 13.4939 14.5915 13.6907 14.2874 13.6907C14.2337 13.6907 14.18 13.6817 14.1174 13.6728Z" fill="#404040"/>
</svg>
