<svg width="20" height="20" viewBox="0 0 20 20" fill="none" xmlns="http://www.w3.org/2000/svg">
<path fill-rule="evenodd" clip-rule="evenodd" d="M12.6734 17.2822C12.2082 17.2464 11.6804 17.157 11.1347 17.0228L9.63177 16.665C5.50771 15.6899 4.15688 13.5071 5.12304 9.39195L5.99973 5.64362C6.19654 4.79376 6.42914 4.10493 6.71541 3.53239C8.2541 0.356602 11.1973 0.64287 13.2906 1.13489L14.7846 1.48378C16.8779 1.97581 18.2019 2.7541 18.9444 3.9439C19.678 5.13371 19.7943 6.66345 19.3023 8.75679L18.4256 12.4962C17.6562 15.7704 16.0549 17.318 13.4069 17.318C13.1743 17.318 12.9328 17.3091 12.6734 17.2822ZM7.9231 4.11387C7.69051 4.59695 7.48475 5.19633 7.30583 5.94778L6.42914 9.69611C5.63295 13.0777 6.55438 14.5537 9.93593 15.3589L11.4388 15.7167C11.9219 15.833 12.3782 15.9046 12.7897 15.9403C15.2229 16.1819 16.4306 15.1173 17.1105 12.192L17.9872 8.45263C18.3898 6.72607 18.3361 5.51838 17.7994 4.65063C17.2626 3.78288 16.207 3.19245 14.4715 2.78988L12.9775 2.44099C12.235 2.26208 11.573 2.17262 11.0005 2.17262C9.50652 2.17262 8.55826 2.78988 7.9231 4.11387Z" fill="#F0F0F0"/>
<path fill-rule="evenodd" clip-rule="evenodd" d="M2.00898 14.8846L0.863904 11.351C-0.406412 7.41483 0.729716 5.19625 4.64801 3.92593L6.06146 3.46969C6.52665 3.32656 6.87554 3.22815 7.18865 3.17448C7.44808 3.1208 7.69856 3.21921 7.85064 3.42496C8.00272 3.63072 8.02956 3.8991 7.92221 4.13169C7.68962 4.60582 7.48386 5.20519 7.31389 5.95665L6.43719 9.70498C5.64101 13.0865 6.56243 14.5626 9.94398 15.3677L11.4469 15.7256C11.93 15.8419 12.3862 15.9134 12.7977 15.9492C13.084 15.976 13.3166 16.1728 13.3971 16.4502C13.4687 16.7275 13.3613 17.0138 13.1287 17.1748C12.5383 17.5774 11.7958 17.9173 10.8565 18.2215L9.44301 18.6866C8.41423 19.0087 7.51964 19.1697 6.71451 19.1697C4.41542 19.1697 2.9483 17.7921 2.00898 14.8846ZM5.06847 5.20519C1.87479 6.23397 1.11439 7.73688 2.14317 10.9395L3.28824 14.4731C4.32596 17.6668 5.82887 18.4362 9.02255 17.4074L10.436 16.9422C10.4897 16.9243 10.5344 16.9064 10.5881 16.8885L9.63982 16.6649C5.51577 15.6898 4.16494 13.507 5.13109 9.39187L6.00779 5.64354C6.07041 5.35728 6.14198 5.07995 6.22249 4.82947L5.06847 5.20519Z" fill="#F0F0F0"/>
<path d="M14.7393 8.64944L10.4005 7.5491C10.0427 7.45964 9.82796 7.09286 9.91742 6.73502C10.0069 6.37719 10.3737 6.16249 10.7315 6.25195L15.0702 7.35229C15.4281 7.44175 15.6428 7.80853 15.5533 8.16637C15.4818 8.46158 15.2044 8.66734 14.9092 8.66734C14.8555 8.66734 14.8019 8.65839 14.7393 8.64944Z" fill="#F0F0F0"/>
<path d="M12.1179 11.673L9.51465 11.011C9.15681 10.9216 8.94211 10.5548 9.03157 10.197C9.12103 9.83913 9.48781 9.62443 9.84564 9.71389L12.4489 10.3759C12.8067 10.4653 13.0214 10.8321 12.932 11.19C12.8604 11.4941 12.592 11.6909 12.2879 11.6909C12.2342 11.6909 12.1805 11.682 12.1179 11.673Z" fill="#F0F0F0"/>
</svg>
