<svg width="21" height="21" viewBox="0 0 21 21" fill="none" xmlns="http://www.w3.org/2000/svg">
<path fill-rule="evenodd" clip-rule="evenodd" d="M3.77679 16.3316C2.9995 16.0753 2.41012 15.5201 2.15387 14.8197C1.89762 14.1193 1.98304 13.3164 2.40158 12.616L3.48637 10.8051C3.72554 10.4037 3.93908 9.652 3.93908 9.18221V7.38846C3.93908 3.89492 6.77491 1.05908 10.2685 1.05908C13.762 1.05908 16.5978 3.89492 16.5978 7.38846V9.18221C16.5978 9.64346 16.8114 10.4037 17.0505 10.8051L18.1353 12.616C18.5368 13.2822 18.6051 14.0766 18.3403 14.8026C18.0755 15.5287 17.4947 16.0839 16.7601 16.3316C14.6674 17.0405 12.4722 17.3822 10.2685 17.3822C8.06471 17.3822 5.8695 17.032 3.77679 16.3316ZM5.21942 7.39666V9.19041C5.21942 9.88229 4.94609 10.8817 4.58734 11.471L3.50254 13.2904C3.28046 13.6577 3.22921 14.0506 3.35734 14.3923C3.48546 14.734 3.77588 14.9902 4.18588 15.1269C8.11504 16.4337 12.4371 16.4337 16.3663 15.1269C16.7336 15.0073 17.0155 14.734 17.1436 14.3752C17.2803 14.0165 17.2375 13.6235 17.0411 13.2904L15.9563 11.4796C15.5975 10.8902 15.3242 9.89083 15.3242 9.19895V7.4052C15.3157 4.61208 13.0521 2.34853 10.2675 2.34853C7.48296 2.34853 5.21942 4.61208 5.21942 7.39666Z" fill="#404040"/>
<path d="M17.375 4C17.375 6.20914 15.5841 8 13.375 8C11.1659 8 9.375 6.20914 9.375 4C9.375 1.79086 11.1659 0 13.375 0C15.5841 0 17.375 1.79086 17.375 4Z" fill="#CA7868"/>
<path fill-rule="evenodd" clip-rule="evenodd" d="M13.375 1.6C12.0495 1.6 10.975 2.67452 10.975 4C10.975 5.32548 12.0495 6.4 13.375 6.4C14.7005 6.4 15.775 5.32548 15.775 4C15.775 2.67452 14.7005 1.6 13.375 1.6ZM9.375 4C9.375 1.79086 11.1659 0 13.375 0C15.5841 0 17.375 1.79086 17.375 4C17.375 6.20914 15.5841 8 13.375 8C11.1659 8 9.375 6.20914 9.375 4Z" fill="white"/>
<path d="M7.79014 18.5354C7.14097 17.8863 6.76514 16.9894 6.76514 16.0754H8.04639C8.04639 16.6563 8.28555 17.22 8.69555 17.63C9.10555 18.04 9.6693 18.2792 10.2501 18.2792C11.4631 18.2792 12.4539 17.2884 12.4539 16.0754H13.7351C13.7351 17.9973 12.172 19.5604 10.2501 19.5604C9.33618 19.5604 8.4393 19.1846 7.79014 18.5354Z" fill="#404040"/>
</svg>
