<svg width="198" height="110" viewBox="0 0 198 110" fill="none" xmlns="http://www.w3.org/2000/svg">
<g clip-path="url(#clip0_2237_959)">
<path d="M0 8C0 3.58172 3.58172 0 8 0H190C194.418 0 198 3.58172 198 8V102C198 106.418 194.418 110 190 110H8C3.58172 110 0 106.418 0 102V8Z" fill="#D0D0D0" fill-opacity="0.4"/>
<path d="M9 10C9 7.79086 10.7909 6 13 6H208C210.209 6 212 7.79086 212 10V116C212 118.209 210.209 120 208 120H13C10.7909 120 9 118.209 9 116V10Z" fill="#DCE3E5"/>
<g opacity="0.8">
<rect width="193.903" height="15.669" transform="translate(9 6)" fill="black"/>
<path d="M19.9435 15.9621C19.5296 15.9621 19.177 15.872 18.8858 15.6919C18.5946 15.5099 18.3713 15.257 18.2162 14.9332C18.0629 14.6094 17.9862 14.2338 17.9862 13.8065C17.9862 13.3793 18.0629 13.0037 18.2162 12.6799C18.3713 12.3561 18.5946 12.1041 18.8858 11.924C19.177 11.742 19.5296 11.651 19.9435 11.651C20.3554 11.651 20.707 11.742 20.9982 11.924C21.2914 12.1041 21.5146 12.3561 21.6679 12.6799C21.8212 13.0037 21.8978 13.3793 21.8978 13.8065C21.8978 14.2338 21.8212 14.6094 21.6679 14.9332C21.5146 15.257 21.2914 15.5099 20.9982 15.6919C20.707 15.872 20.3554 15.9621 19.9435 15.9621ZM19.9435 15.3901C20.2366 15.394 20.48 15.3298 20.6735 15.1976C20.8689 15.0635 21.0155 14.8776 21.1132 14.64C21.2109 14.4005 21.2598 14.1227 21.2598 13.8065C21.2598 13.4904 21.2109 13.2145 21.1132 12.9788C21.0155 12.7412 20.8689 12.5563 20.6735 12.4241C20.48 12.2919 20.2366 12.2248 19.9435 12.2229C19.6503 12.2191 19.406 12.2833 19.2106 12.4155C19.0171 12.5477 18.8714 12.7335 18.7737 12.9731C18.676 13.2126 18.6262 13.4904 18.6243 13.8065C18.6224 14.1227 18.6703 14.3995 18.768 14.6371C18.8657 14.8728 19.0123 15.0567 19.2077 15.189C19.4051 15.3212 19.6503 15.3882 19.9435 15.3901ZM23.9283 15.9621C23.6313 15.9621 23.3822 15.8902 23.181 15.7465C22.9798 15.6009 22.8275 15.4045 22.724 15.1573C22.6206 14.9102 22.5688 14.6314 22.5688 14.321C22.5688 14.0106 22.6196 13.7318 22.7212 13.4846C22.8246 13.2375 22.976 13.043 23.1753 12.9012C23.3764 12.7575 23.6236 12.6856 23.9168 12.6856C24.208 12.6856 24.459 12.7575 24.6698 12.9012C24.8824 13.043 25.0463 13.2375 25.1612 13.4846C25.2762 13.7299 25.3337 14.0087 25.3337 14.321C25.3337 14.6314 25.2762 14.9111 25.1612 15.1602C25.0482 15.4074 24.8863 15.6028 24.6755 15.7465C24.4667 15.8902 24.2176 15.9621 23.9283 15.9621ZM22.4682 17.2554V12.7719H23.0028V15.005H23.0718V17.2554H22.4682ZM23.8449 15.4189C24.0365 15.4189 24.1946 15.37 24.3191 15.2723C24.4456 15.1746 24.5395 15.0433 24.6008 14.8786C24.664 14.7119 24.6956 14.526 24.6956 14.321C24.6956 14.1179 24.664 13.9339 24.6008 13.7692C24.5395 13.6044 24.4446 13.4731 24.3163 13.3754C24.1879 13.2777 24.0241 13.2288 23.8248 13.2288C23.637 13.2288 23.4818 13.2748 23.3592 13.3668C23.2385 13.4588 23.1484 13.5871 23.089 13.7519C23.0316 13.9167 23.0028 14.1064 23.0028 14.321C23.0028 14.5356 23.0316 14.7253 23.089 14.8901C23.1465 15.0548 23.2375 15.1842 23.3621 15.278C23.4866 15.3719 23.6476 15.4189 23.8449 15.4189ZM27.7444 15.8759C27.549 15.9142 27.3574 15.9305 27.1696 15.9247C26.9818 15.919 26.8142 15.8826 26.6667 15.8155C26.5191 15.7484 26.408 15.6431 26.3333 15.4994C26.2662 15.371 26.2298 15.2407 26.2241 15.1085C26.2202 14.9744 26.2183 14.823 26.2183 14.6544V11.9096H26.8219V14.6256C26.8219 14.7502 26.8228 14.8584 26.8247 14.9504C26.8286 15.0424 26.8487 15.12 26.8851 15.1832C26.9541 15.302 27.0633 15.37 27.2127 15.3873C27.3641 15.4026 27.5413 15.3959 27.7444 15.3671V15.8759ZM25.6234 13.2547V12.7719H27.7444V13.2547H25.6234ZM28.4563 12.2632V11.6797H29.057V12.2632H28.4563ZM28.4563 15.8759V12.7719H29.057V15.8759H28.4563ZM31.268 15.9621C30.9576 15.9621 30.6884 15.8921 30.4604 15.7523C30.2324 15.6124 30.0561 15.4198 29.9316 15.1746C29.809 14.9274 29.7477 14.6429 29.7477 14.321C29.7477 13.9972 29.8109 13.7126 29.9373 13.4674C30.0638 13.2202 30.241 13.0286 30.469 12.8926C30.6971 12.7546 30.9634 12.6856 31.268 12.6856C31.5784 12.6856 31.8476 12.7556 32.0756 12.8955C32.3037 13.0353 32.4799 13.2279 32.6045 13.4731C32.729 13.7184 32.7913 14.001 32.7913 14.321C32.7913 14.6448 32.7281 14.9303 32.6016 15.1775C32.4771 15.4227 32.3008 15.6153 32.0728 15.7551C31.8448 15.8931 31.5765 15.9621 31.268 15.9621ZM31.268 15.3959C31.565 15.3959 31.7863 15.2963 31.9319 15.097C32.0795 14.8958 32.1532 14.6371 32.1532 14.321C32.1532 13.9972 32.0785 13.7385 31.9291 13.545C31.7815 13.3496 31.5612 13.2518 31.268 13.2518C31.0668 13.2518 30.9011 13.2978 30.7708 13.3898C30.6405 13.4798 30.5438 13.6053 30.4805 13.7663C30.4173 13.9253 30.3857 14.1102 30.3857 14.321C30.3857 14.6467 30.4604 14.9073 30.6099 15.1027C30.7593 15.2982 30.9787 15.3959 31.268 15.3959ZM35.6014 15.8759V14.3497C35.6014 14.229 35.5909 14.1054 35.5698 13.979C35.5506 13.8506 35.5123 13.7318 35.4548 13.6226C35.3993 13.5134 35.3197 13.4252 35.2163 13.3582C35.1147 13.2911 34.9816 13.2576 34.8168 13.2576C34.7095 13.2576 34.6079 13.2758 34.5121 13.3122C34.4163 13.3467 34.332 13.4032 34.2592 13.4818C34.1883 13.5603 34.1318 13.6638 34.0896 13.7922C34.0494 13.9205 34.0293 14.0767 34.0293 14.2606L33.6557 14.1198C33.6557 13.8381 33.7084 13.59 33.8137 13.3754C33.9191 13.1589 34.0705 12.9903 34.2678 12.8696C34.4652 12.7489 34.7037 12.6885 34.9835 12.6885C35.1981 12.6885 35.3782 12.723 35.5238 12.792C35.6694 12.861 35.7873 12.952 35.8773 13.065C35.9693 13.1762 36.0392 13.2978 36.0871 13.43C36.135 13.5622 36.1676 13.6916 36.1848 13.818C36.2021 13.9445 36.2107 14.0556 36.2107 14.1514V15.8759H35.6014ZM33.42 15.8759V12.7719H33.9574V13.6686H34.0293V15.8759H33.42ZM38.1463 15.9592C37.7688 15.9592 37.4613 15.8759 37.2237 15.7092C36.9861 15.5425 36.8405 15.3077 36.7869 15.005L37.4019 14.9102C37.4402 15.0711 37.5284 15.1985 37.6663 15.2924C37.8062 15.3844 37.9796 15.4304 38.1865 15.4304C38.3743 15.4304 38.5209 15.3921 38.6263 15.3154C38.7336 15.2388 38.7872 15.1334 38.7872 14.9993C38.7872 14.9207 38.7681 14.8575 38.7297 14.8096C38.6933 14.7598 38.6157 14.7128 38.4969 14.6687C38.3781 14.6247 38.1971 14.5701 37.9537 14.5049C37.6874 14.4359 37.4757 14.3622 37.3186 14.2836C37.1634 14.2031 37.0522 14.1102 36.9852 14.0048C36.92 13.8975 36.8875 13.7682 36.8875 13.6168C36.8875 13.4291 36.9373 13.2652 37.0369 13.1254C37.1365 12.9855 37.2764 12.8772 37.4565 12.8006C37.6385 12.724 37.8512 12.6856 38.0946 12.6856C38.3322 12.6856 38.5439 12.723 38.7297 12.7977C38.9156 12.8725 39.066 12.9788 39.181 13.1168C39.2959 13.2528 39.3649 13.4128 39.3879 13.5967L38.7728 13.7088C38.7518 13.5594 38.6818 13.4415 38.563 13.3553C38.4442 13.2691 38.29 13.2221 38.1003 13.2145C37.9183 13.2068 37.7708 13.2375 37.6577 13.3064C37.5447 13.3735 37.4881 13.4664 37.4881 13.5852C37.4881 13.6542 37.5092 13.7126 37.5514 13.7605C37.5954 13.8084 37.6797 13.8544 37.8043 13.8985C37.9288 13.9426 38.1128 13.9953 38.3561 14.0566C38.6167 14.1236 38.8236 14.1984 38.9769 14.2807C39.1302 14.3612 39.2394 14.458 39.3045 14.571C39.3716 14.6822 39.4051 14.8172 39.4051 14.9763C39.4051 15.2828 39.293 15.5233 39.0689 15.6977C38.8466 15.872 38.5391 15.9592 38.1463 15.9592Z" fill="white"/>
<g opacity="0.3">
<path d="M49 14.5C49 13.6716 49.6716 13 50.5 13H67.5C68.3284 13 69 13.6716 69 14.5C69 15.3284 68.3284 16 67.5 16H50.5C49.6716 16 49 15.3284 49 14.5Z" fill="#ADADAD"/>
</g>
<g opacity="0.3">
<path d="M77 14.5C77 13.6716 77.6716 13 78.5 13H95.5C96.3284 13 97 13.6716 97 14.5C97 15.3284 96.3284 16 95.5 16H78.5C77.6716 16 77 15.3284 77 14.5Z" fill="#ADADAD"/>
</g>
<g opacity="0.3">
<path d="M104 14.5C104 13.6716 104.672 13 105.5 13H122.5C123.328 13 124 13.6716 124 14.5C124 15.3284 123.328 16 122.5 16H105.5C104.672 16 104 15.3284 104 14.5Z" fill="#ADADAD"/>
</g>
<g opacity="0.3">
<path d="M132 14.5C132 13.6716 132.672 13 133.5 13H150.5C151.328 13 152 13.6716 152 14.5C152 15.3284 151.328 16 150.5 16H133.5C132.672 16 132 15.3284 132 14.5Z" fill="#ADADAD"/>
</g>
</g>
<path d="M13 53.9957C13 53.4458 13.4458 53 13.9957 53H78.3901C78.9401 53 79.3859 53.4458 79.3859 53.9957V89.1803C79.3859 89.7303 78.9401 90.1761 78.3901 90.1761H13.9957C13.4458 90.1761 13 89.7303 13 89.1804V53.9957Z" fill="white"/>
<rect width="48" height="1" transform="translate(14 56)" fill="#F0F0F0"/>
<rect x="14" y="60" width="11" height="1" fill="#F0F0F0"/>
<rect x="28" y="60" width="11" height="1" fill="#F0F0F0"/>
<path opacity="0.25" d="M14.7704 85.6762C14.7704 85.2283 15.1335 84.8652 15.5814 84.8652H28.1218C28.5697 84.8652 28.9328 85.2283 28.9328 85.6762V85.8246C28.9328 86.2725 28.5697 86.6355 28.1218 86.6355H15.5814C15.1335 86.6355 14.7704 86.2725 14.7704 85.8246V85.6762Z" fill="url(#paint0_linear_2237_959)"/>
<path opacity="0.25" d="M25.3921 67.0881C25.3921 66.6403 25.7552 66.2772 26.203 66.2772H38.7435C39.1913 66.2772 39.5544 66.6403 39.5544 67.0881V67.2366C39.5544 67.6844 39.1913 68.0475 38.7435 68.0475H26.203C25.7552 68.0475 25.3921 67.6844 25.3921 67.2366V67.0881Z" fill="url(#paint1_linear_2237_959)"/>
<path opacity="0.25" d="M52.8316 67.0881C52.8316 66.6403 53.1947 66.2772 53.6425 66.2772H66.183C66.6309 66.2772 66.9939 66.6403 66.9939 67.0881V67.2366C66.9939 67.6844 66.6309 68.0475 66.183 68.0475H53.6425C53.1947 68.0475 52.8316 67.6844 52.8316 67.2366V67.0881Z" fill="url(#paint2_linear_2237_959)"/>
<path opacity="0.25" d="M43.0951 67.0881C43.0951 66.6403 43.4582 66.2772 43.906 66.2772H48.4802C48.928 66.2772 49.2911 66.6403 49.2911 67.0881V67.2366C49.2911 67.6844 48.928 68.0475 48.4802 68.0475H43.906C43.4582 68.0475 43.0951 67.6844 43.0951 67.2366V67.0881Z" fill="url(#paint3_linear_2237_959)"/>
<path opacity="0.25" d="M70.5344 67.0881C70.5344 66.6403 70.8975 66.2772 71.3453 66.2772H75.9195C76.3674 66.2772 76.7304 66.6403 76.7304 67.0881V67.2366C76.7304 67.6844 76.3674 68.0475 75.9195 68.0475H71.3453C70.8975 68.0475 70.5344 67.6844 70.5344 67.2366V67.0881Z" fill="url(#paint4_linear_2237_959)"/>
<path opacity="0.25" d="M25.3921 74.1692C25.3921 73.7214 25.7552 73.3583 26.203 73.3583H38.7435C39.1913 73.3583 39.5544 73.7214 39.5544 74.1692V74.3177C39.5544 74.7655 39.1913 75.1286 38.7435 75.1286H26.203C25.7552 75.1286 25.3921 74.7655 25.3921 74.3177V74.1692Z" fill="url(#paint5_linear_2237_959)"/>
<path opacity="0.25" d="M52.8316 74.1692C52.8316 73.7214 53.1947 73.3583 53.6425 73.3583H66.183C66.6309 73.3583 66.9939 73.7214 66.9939 74.1692V74.3177C66.9939 74.7655 66.6309 75.1286 66.183 75.1286H53.6425C53.1947 75.1286 52.8316 74.7655 52.8316 74.3177V74.1692Z" fill="url(#paint6_linear_2237_959)"/>
<path opacity="0.25" d="M43.0951 74.1692C43.0951 73.7214 43.4582 73.3583 43.906 73.3583H48.4802C48.928 73.3583 49.2911 73.7214 49.2911 74.1692V74.3177C49.2911 74.7655 48.928 75.1286 48.4802 75.1286H43.906C43.4582 75.1286 43.0951 74.7655 43.0951 74.3177V74.1692Z" fill="url(#paint7_linear_2237_959)"/>
<path opacity="0.25" d="M70.5344 74.1692C70.5344 73.7214 70.8975 73.3583 71.3453 73.3583H75.9195C76.3674 73.3583 76.7304 73.7214 76.7304 74.1692V74.3177C76.7304 74.7655 76.3674 75.1286 75.9195 75.1286H71.3453C70.8975 75.1286 70.5344 74.7655 70.5344 74.3177V74.1692Z" fill="url(#paint8_linear_2237_959)"/>
<path opacity="0.25" d="M14.7704 79.4801C14.7704 79.0323 15.1335 78.6692 15.5814 78.6692H41.399C41.8469 78.6692 42.2099 79.0323 42.2099 79.4801V82.284C42.2099 82.7319 41.8469 83.0949 41.399 83.0949H15.5814C15.1335 83.0949 14.7704 82.7319 14.7704 82.284V79.4801Z" fill="url(#paint9_linear_2237_959)"/>
<path d="M66.1088 83.2055C66.1088 82.6556 66.5546 82.2098 67.1046 82.2098H76.62C77.1699 82.2098 77.6157 82.6556 77.6157 83.2055V85.6398C77.6157 86.1897 77.1699 86.6355 76.62 86.6355H67.1046C66.5546 86.6355 66.1088 86.1897 66.1088 85.6398V83.2055Z" fill="#F0F0F0"/>
<circle cx="15.6541" cy="67.1619" r="0.885145" fill="#D9D9D9"/>
<circle cx="15.6541" cy="74.2431" r="0.885145" fill="#D9D9D9"/>
<rect x="18.3096" y="65.3916" width="3.54058" height="3.54058" fill="#D9D9D9"/>
<rect x="18.3096" y="72.4728" width="3.54058" height="3.54058" fill="#D9D9D9"/>
<path d="M82 28.9957C82 28.4458 82.4458 28 82.9957 28H199.004C199.554 28 200 28.4458 200 28.9957V119.004C200 119.554 199.554 120 199.004 120H82.9957C82.4458 120 82 119.554 82 119.004V28.9957Z" fill="white"/>
<path opacity="0.25" d="M85.2433 41.7856C85.2433 41.3378 85.6063 40.9747 86.0542 40.9747H100.651C101.099 40.9747 101.462 41.3378 101.462 41.7856V42.5965C101.462 43.0444 101.099 43.4075 100.651 43.4075H86.0542C85.6063 43.4075 85.2433 43.0444 85.2433 42.5965V41.7856Z" fill="url(#paint10_linear_2237_959)"/>
<path opacity="0.25" d="M85.2433 92.0634C85.2433 91.6155 85.6063 91.2525 86.0542 91.2525H100.651C101.099 91.2525 101.462 91.6155 101.462 92.0634V92.8743C101.462 93.3222 101.099 93.6852 100.651 93.6852H86.0542C85.6063 93.6852 85.2433 93.3222 85.2433 92.8743V92.0634Z" fill="url(#paint11_linear_2237_959)"/>
<path opacity="0.25" d="M85.2433 47.4621C85.2433 47.0142 85.6063 46.6512 86.0542 46.6512H100.651C101.099 46.6512 101.462 47.0142 101.462 47.4621V48.273C101.462 48.7209 101.099 49.0839 100.651 49.0839H86.0542C85.6063 49.0839 85.2433 48.7209 85.2433 48.273V47.4621Z" fill="url(#paint12_linear_2237_959)"/>
<path opacity="0.25" d="M85.2433 97.739C85.2433 97.2912 85.6063 96.9281 86.0542 96.9281H100.651C101.099 96.9281 101.462 97.2912 101.462 97.739V98.5499C101.462 98.9978 101.099 99.3609 100.651 99.3609H86.0542C85.6063 99.3609 85.2433 98.9978 85.2433 98.5499V97.739Z" fill="url(#paint13_linear_2237_959)"/>
<path opacity="0.25" d="M111.192 41.7856C111.192 41.3378 111.556 40.9747 112.003 40.9747H126.6C127.048 40.9747 127.411 41.3378 127.411 41.7856V42.5965C127.411 43.0444 127.048 43.4075 126.6 43.4075H112.003C111.556 43.4075 111.192 43.0444 111.192 42.5965V41.7856Z" fill="url(#paint14_linear_2237_959)"/>
<path opacity="0.25" d="M111.192 92.0634C111.192 91.6155 111.556 91.2525 112.003 91.2525H126.6C127.048 91.2525 127.411 91.6155 127.411 92.0634V92.8743C127.411 93.3222 127.048 93.6852 126.6 93.6852H112.003C111.556 93.6852 111.192 93.3222 111.192 92.8743V92.0634Z" fill="url(#paint15_linear_2237_959)"/>
<path opacity="0.25" d="M111.192 47.4621C111.192 47.0142 111.556 46.6512 112.003 46.6512H126.6C127.048 46.6512 127.411 47.0142 127.411 47.4621V48.273C127.411 48.7209 127.048 49.0839 126.6 49.0839H112.003C111.556 49.0839 111.192 48.7209 111.192 48.273V47.4621Z" fill="url(#paint16_linear_2237_959)"/>
<path opacity="0.25" d="M111.192 97.739C111.192 97.2912 111.556 96.9281 112.003 96.9281H126.6C127.048 96.9281 127.411 97.2912 127.411 97.739V98.5499C127.411 98.9978 127.048 99.3609 126.6 99.3609H112.003C111.556 99.3609 111.192 98.9978 111.192 98.5499V97.739Z" fill="url(#paint17_linear_2237_959)"/>
<path opacity="0.25" d="M137.142 41.7856C137.142 41.3378 137.505 40.9747 137.953 40.9747H152.549C152.997 40.9747 153.36 41.3378 153.36 41.7856V42.5965C153.36 43.0444 152.997 43.4075 152.549 43.4075H137.953C137.505 43.4075 137.142 43.0444 137.142 42.5965V41.7856Z" fill="url(#paint18_linear_2237_959)"/>
<path opacity="0.25" d="M137.142 92.0634C137.142 91.6155 137.505 91.2525 137.953 91.2525H152.549C152.997 91.2525 153.36 91.6155 153.36 92.0634V92.8743C153.36 93.3222 152.997 93.6852 152.549 93.6852H137.953C137.505 93.6852 137.142 93.3222 137.142 92.8743V92.0634Z" fill="url(#paint19_linear_2237_959)"/>
<path opacity="0.25" d="M137.142 47.4621C137.142 47.0142 137.505 46.6512 137.953 46.6512H152.549C152.997 46.6512 153.36 47.0142 153.36 47.4621V48.273C153.36 48.7209 152.997 49.0839 152.549 49.0839H137.953C137.505 49.0839 137.142 48.7209 137.142 48.273V47.4621Z" fill="url(#paint20_linear_2237_959)"/>
<path opacity="0.25" d="M163.091 41.7856C163.091 41.3378 163.454 40.9747 163.902 40.9747H178.499C178.946 40.9747 179.309 41.3378 179.309 41.7856V42.5965C179.309 43.0444 178.946 43.4075 178.499 43.4075H163.902C163.454 43.4075 163.091 43.0444 163.091 42.5965V41.7856Z" fill="url(#paint21_linear_2237_959)"/>
<path opacity="0.25" d="M163.091 92.0634C163.091 91.6155 163.454 91.2525 163.902 91.2525H178.499C178.946 91.2525 179.309 91.6155 179.309 92.0634V92.8743C179.309 93.3222 178.946 93.6852 178.499 93.6852H163.902C163.454 93.6852 163.091 93.3222 163.091 92.8743V92.0634Z" fill="url(#paint22_linear_2237_959)"/>
<path opacity="0.25" d="M163.091 47.4621C163.091 47.0142 163.454 46.6512 163.902 46.6512H178.499C178.946 46.6512 179.309 47.0142 179.309 47.4621V48.273C179.309 48.7209 178.946 49.0839 178.499 49.0839H163.902C163.454 49.0839 163.091 48.7209 163.091 48.273V47.4621Z" fill="url(#paint23_linear_2237_959)"/>
<path opacity="0.25" d="M85.2433 31.2442C85.2433 30.7964 85.6063 30.4333 86.0542 30.4333H135.52C135.968 30.4333 136.331 30.7964 136.331 31.2442V35.2988C136.331 35.7467 135.968 36.1098 135.52 36.1098H86.0542C85.6063 36.1098 85.2433 35.7467 85.2433 35.2988V31.2442Z" fill="#D9D9D9"/>
<path d="M85.2433 52.3277H193.096V87.1973H85.2433V52.3277Z" fill="#F0F0F0"/>
<path opacity="0.16" d="M139.738 57.2623L137.869 69.2117L174.719 69.145V57.2623H139.738Z" fill="#228B22"/>
<path opacity="0.16" d="M101.754 81.1612H136.067L136.934 75.2866L137.869 69.2785H101.754V81.1612Z" fill="#E04B00"/>
<path d="M101.751 81.1612H127.035H136.061L139.669 57.2623H174.783" stroke="url(#paint24_linear_2237_959)" stroke-width="0.267027"/>
<line opacity="0.48" x1="97.5565" y1="63.1327" x2="181.598" y2="63.1327" stroke="#D0D0D0" stroke-width="0.0667567" stroke-dasharray="0.23 0.23"/>
<path d="M101.751 80.8942C105.412 80.8942 111.504 80.8942 114.097 80.8942C117.337 80.8942 128.631 80.2549 139.913 69.4931C150.304 59.5815 158.45 57.419 164.031 57.3103C168.495 57.2233 170.202 57.2741 174.782 57.3103" stroke="#9E58EE" stroke-width="0.267027"/>
<path opacity="0.25" d="M187.419 31.2442C187.419 30.7964 187.782 30.4333 188.23 30.4333H192.284C192.732 30.4333 193.095 30.7964 193.095 31.2442V35.2988C193.095 35.7467 192.732 36.1098 192.284 36.1098H188.23C187.782 36.1098 187.419 35.7467 187.419 35.2988V31.2442Z" fill="#D9D9D9"/>
<path opacity="0.25" d="M180.12 31.2442C180.12 30.7964 180.483 30.4333 180.931 30.4333H184.985C185.433 30.4333 185.796 30.7964 185.796 31.2442V35.2988C185.796 35.7467 185.433 36.1098 184.985 36.1098H180.931C180.483 36.1098 180.12 35.7467 180.12 35.2988V31.2442Z" fill="#D9D9D9"/>
<g filter="url(#filter0_d_2237_959)">
<path d="M6 23.3011C6 23.1348 6.13482 23 6.30114 23H86.2544C86.4207 23 86.5556 23.1348 86.5556 23.3011V51.6989C86.5556 51.8652 86.4207 52 86.2544 52H6.30114C6.13483 52 6 51.8652 6 51.6989V23.3011Z" fill="white"/>
<rect x="8.04767" y="26.0715" width="11.2623" height="1.02384" fill="#F0F0F0"/>
<rect x="22.3815" y="26.0715" width="11.2623" height="1.02384" fill="#F0F0F0"/>
<path opacity="0.25" d="M28.5536 36.8724C28.5536 36.329 28.9941 35.8884 29.5376 35.8884H44.7548C45.2982 35.8884 45.7388 36.329 45.7388 36.8724V38.1266C45.7388 38.6701 45.2982 39.1107 44.7548 39.1107H29.5376C28.9941 39.1107 28.5536 38.6701 28.5536 38.1266V36.8724Z" fill="url(#paint25_linear_2237_959)"/>
<path opacity="0.25" d="M28.5536 42.2427C28.5536 41.6992 28.9941 41.2586 29.5376 41.2586H60.8659C61.4093 41.2586 61.8499 41.6992 61.8499 42.2427V45.645C61.8499 46.1884 61.4093 46.629 60.8659 46.629H29.5376C28.9941 46.629 28.5536 46.1884 28.5536 45.645V42.2427Z" fill="url(#paint26_linear_2237_959)"/>
<path opacity="0.25" d="M70.4465 42.2427C70.4465 41.6992 70.887 41.2586 71.4305 41.2586H83.4254C83.9689 41.2586 84.4094 41.6992 84.4094 42.2427V45.645C84.4094 46.1884 83.9689 46.629 83.4254 46.629H71.4305C70.887 46.629 70.4465 46.1884 70.4465 45.645V42.2427Z" fill="url(#paint27_linear_2237_959)"/>
<rect opacity="0.25" x="8.14874" y="32.667" width="16.1111" height="16.1111" rx="0.984016" fill="url(#paint28_linear_2237_959)"/>
<path opacity="0.4" d="M10.2988 43.4284L12.222 43.4284L15.3433 43.4284L16.0684 41.647L10.2988 41.647L10.2988 43.4284Z" fill="#E04B00"/>
<path opacity="0.4" d="M21.0418 38.424L19.2516 38.1853L17.4572 38.1405L16.2082 41.4079H21.0418V38.424Z" fill="#228B22"/>
</g>
<g filter="url(#filter1_d_2237_959)">
<path d="M13 93.0044C13 92.4497 13.4497 92 14.0044 92H78.9599C79.5146 92 79.9643 92.4497 79.9643 93.0044V115.996C79.9643 116.55 79.5146 117 78.9599 117H14.0044C13.4497 117 13 116.55 13 115.996V93.0044Z" fill="white"/>
<rect x="15.0174" y="94.0174" width="14.122" height="1.00871" fill="#F0F0F0"/>
<path opacity="0.25" d="M14.7859 98.9591C14.7859 98.4726 15.1803 98.0782 15.6668 98.0782H43.7127C44.1992 98.0782 44.5936 98.4726 44.5936 98.9591V102.005C44.5936 102.492 44.1992 102.886 43.7127 102.886H15.6668C15.1803 102.886 14.7859 102.492 14.7859 102.005V98.9591Z" fill="url(#paint29_linear_2237_959)"/>
<path opacity="0.25" d="M14.7859 105.72C14.7859 105.539 14.9324 105.393 15.1131 105.393H25.5301C25.7108 105.393 25.8573 105.539 25.8573 105.72V106.851C25.8573 107.032 25.7108 107.179 25.5301 107.179H15.1131C14.9324 107.179 14.7859 107.032 14.7859 106.851V105.72Z" fill="url(#paint30_linear_2237_959)"/>
<path opacity="0.25" d="M66.5716 105.72C66.5716 105.539 66.7181 105.393 66.8988 105.393H77.3158C77.4965 105.393 77.643 105.539 77.643 105.72V106.851C77.643 107.032 77.4965 107.179 77.3158 107.179H66.8988C66.7181 107.179 66.5716 107.032 66.5716 106.851V105.72Z" fill="url(#paint31_linear_2237_959)"/>
<path opacity="0.25" d="M14.7859 109.291C14.7859 109.111 14.9324 108.964 15.1131 108.964H31.423C31.6037 108.964 31.7502 109.111 31.7502 109.291V110.423C31.7502 110.603 31.6037 110.75 31.423 110.75H15.1131C14.9324 110.75 14.7859 110.603 14.7859 110.423V109.291Z" fill="url(#paint32_linear_2237_959)"/>
<path opacity="0.25" d="M60.3215 109.291C60.3215 109.111 60.468 108.964 60.6487 108.964H76.9586C77.1393 108.964 77.2858 109.111 77.2858 109.291V110.423C77.2858 110.603 77.1393 110.75 76.9586 110.75H60.6487C60.468 110.75 60.3215 110.603 60.3215 110.423V109.291Z" fill="url(#paint33_linear_2237_959)"/>
<path opacity="0.25" d="M47.8215 98.9591C47.8215 98.4726 48.2159 98.0782 48.7024 98.0782H76.7483C77.2348 98.0782 77.6292 98.4726 77.6292 98.9591V102.005C77.6292 102.492 77.2348 102.886 76.7483 102.886H48.7024C48.2159 102.886 47.8215 102.492 47.8215 102.005V98.9591Z" fill="url(#paint34_linear_2237_959)"/>
</g>
</g>
<defs>
<filter id="filter0_d_2237_959" x="1.90463" y="20.9523" width="88.7463" height="37.1907" filterUnits="userSpaceOnUse" color-interpolation-filters="sRGB">
<feFlood flood-opacity="0" result="BackgroundImageFix"/>
<feColorMatrix in="SourceAlpha" type="matrix" values="0 0 0 0 0 0 0 0 0 0 0 0 0 0 0 0 0 0 127 0" result="hardAlpha"/>
<feOffset dy="2.04769"/>
<feGaussianBlur stdDeviation="2.04769"/>
<feComposite in2="hardAlpha" operator="out"/>
<feColorMatrix type="matrix" values="0 0 0 0 0 0 0 0 0 0 0 0 0 0 0 0 0 0 0.25 0"/>
<feBlend mode="normal" in2="BackgroundImageFix" result="effect1_dropShadow_2237_959"/>
<feBlend mode="normal" in="SourceGraphic" in2="effect1_dropShadow_2237_959" result="shape"/>
</filter>
<filter id="filter1_d_2237_959" x="9.2963" y="90.1481" width="74.3717" height="32.4074" filterUnits="userSpaceOnUse" color-interpolation-filters="sRGB">
<feFlood flood-opacity="0" result="BackgroundImageFix"/>
<feColorMatrix in="SourceAlpha" type="matrix" values="0 0 0 0 0 0 0 0 0 0 0 0 0 0 0 0 0 0 127 0" result="hardAlpha"/>
<feOffset dy="1.85185"/>
<feGaussianBlur stdDeviation="1.85185"/>
<feComposite in2="hardAlpha" operator="out"/>
<feColorMatrix type="matrix" values="0 0 0 0 0 0 0 0 0 0 0 0 0 0 0 0 0 0 0.25 0"/>
<feBlend mode="normal" in2="BackgroundImageFix" result="effect1_dropShadow_2237_959"/>
<feBlend mode="normal" in="SourceGraphic" in2="effect1_dropShadow_2237_959" result="shape"/>
</filter>
<linearGradient id="paint0_linear_2237_959" x1="14.7704" y1="85.7504" x2="28.9328" y2="85.7504" gradientUnits="userSpaceOnUse">
<stop stop-color="#D9D9D9"/>
<stop offset="1" stop-color="#737373" stop-opacity="0"/>
</linearGradient>
<linearGradient id="paint1_linear_2237_959" x1="25.3921" y1="67.1623" x2="39.5544" y2="67.1623" gradientUnits="userSpaceOnUse">
<stop stop-color="#D9D9D9"/>
<stop offset="1" stop-color="#737373" stop-opacity="0"/>
</linearGradient>
<linearGradient id="paint2_linear_2237_959" x1="52.8316" y1="67.1623" x2="66.9939" y2="67.1623" gradientUnits="userSpaceOnUse">
<stop stop-color="#D9D9D9"/>
<stop offset="1" stop-color="#737373" stop-opacity="0"/>
</linearGradient>
<linearGradient id="paint3_linear_2237_959" x1="43.0951" y1="67.1623" x2="49.2911" y2="67.1623" gradientUnits="userSpaceOnUse">
<stop stop-color="#D9D9D9"/>
<stop offset="1" stop-color="#737373" stop-opacity="0"/>
</linearGradient>
<linearGradient id="paint4_linear_2237_959" x1="70.5344" y1="67.1623" x2="76.7304" y2="67.1623" gradientUnits="userSpaceOnUse">
<stop stop-color="#D9D9D9"/>
<stop offset="1" stop-color="#737373" stop-opacity="0"/>
</linearGradient>
<linearGradient id="paint5_linear_2237_959" x1="25.3921" y1="74.2435" x2="39.5544" y2="74.2435" gradientUnits="userSpaceOnUse">
<stop stop-color="#D9D9D9"/>
<stop offset="1" stop-color="#737373" stop-opacity="0"/>
</linearGradient>
<linearGradient id="paint6_linear_2237_959" x1="52.8316" y1="74.2435" x2="66.9939" y2="74.2435" gradientUnits="userSpaceOnUse">
<stop stop-color="#D9D9D9"/>
<stop offset="1" stop-color="#737373" stop-opacity="0"/>
</linearGradient>
<linearGradient id="paint7_linear_2237_959" x1="43.0951" y1="74.2435" x2="49.2911" y2="74.2435" gradientUnits="userSpaceOnUse">
<stop stop-color="#D9D9D9"/>
<stop offset="1" stop-color="#737373" stop-opacity="0"/>
</linearGradient>
<linearGradient id="paint8_linear_2237_959" x1="70.5344" y1="74.2435" x2="76.7304" y2="74.2435" gradientUnits="userSpaceOnUse">
<stop stop-color="#D9D9D9"/>
<stop offset="1" stop-color="#737373" stop-opacity="0"/>
</linearGradient>
<linearGradient id="paint9_linear_2237_959" x1="14.7704" y1="80.8821" x2="42.2099" y2="80.8821" gradientUnits="userSpaceOnUse">
<stop stop-color="#D9D9D9"/>
<stop offset="1" stop-color="#737373" stop-opacity="0"/>
</linearGradient>
<linearGradient id="paint10_linear_2237_959" x1="85.2433" y1="42.1911" x2="101.462" y2="42.1911" gradientUnits="userSpaceOnUse">
<stop stop-color="#D9D9D9"/>
<stop offset="1" stop-color="#737373" stop-opacity="0"/>
</linearGradient>
<linearGradient id="paint11_linear_2237_959" x1="85.2433" y1="92.4689" x2="101.462" y2="92.4689" gradientUnits="userSpaceOnUse">
<stop stop-color="#D9D9D9"/>
<stop offset="1" stop-color="#737373" stop-opacity="0"/>
</linearGradient>
<linearGradient id="paint12_linear_2237_959" x1="85.2433" y1="47.8676" x2="101.462" y2="47.8676" gradientUnits="userSpaceOnUse">
<stop stop-color="#D9D9D9"/>
<stop offset="1" stop-color="#737373" stop-opacity="0"/>
</linearGradient>
<linearGradient id="paint13_linear_2237_959" x1="85.2433" y1="98.1445" x2="101.462" y2="98.1445" gradientUnits="userSpaceOnUse">
<stop stop-color="#D9D9D9"/>
<stop offset="1" stop-color="#737373" stop-opacity="0"/>
</linearGradient>
<linearGradient id="paint14_linear_2237_959" x1="111.192" y1="42.1911" x2="127.411" y2="42.1911" gradientUnits="userSpaceOnUse">
<stop stop-color="#D9D9D9"/>
<stop offset="1" stop-color="#737373" stop-opacity="0"/>
</linearGradient>
<linearGradient id="paint15_linear_2237_959" x1="111.192" y1="92.4689" x2="127.411" y2="92.4689" gradientUnits="userSpaceOnUse">
<stop stop-color="#D9D9D9"/>
<stop offset="1" stop-color="#737373" stop-opacity="0"/>
</linearGradient>
<linearGradient id="paint16_linear_2237_959" x1="111.192" y1="47.8676" x2="127.411" y2="47.8676" gradientUnits="userSpaceOnUse">
<stop stop-color="#D9D9D9"/>
<stop offset="1" stop-color="#737373" stop-opacity="0"/>
</linearGradient>
<linearGradient id="paint17_linear_2237_959" x1="111.192" y1="98.1445" x2="127.411" y2="98.1445" gradientUnits="userSpaceOnUse">
<stop stop-color="#D9D9D9"/>
<stop offset="1" stop-color="#737373" stop-opacity="0"/>
</linearGradient>
<linearGradient id="paint18_linear_2237_959" x1="137.142" y1="42.1911" x2="153.36" y2="42.1911" gradientUnits="userSpaceOnUse">
<stop stop-color="#D9D9D9"/>
<stop offset="1" stop-color="#737373" stop-opacity="0"/>
</linearGradient>
<linearGradient id="paint19_linear_2237_959" x1="137.142" y1="92.4689" x2="153.36" y2="92.4689" gradientUnits="userSpaceOnUse">
<stop stop-color="#D9D9D9"/>
<stop offset="1" stop-color="#737373" stop-opacity="0"/>
</linearGradient>
<linearGradient id="paint20_linear_2237_959" x1="137.142" y1="47.8676" x2="153.36" y2="47.8676" gradientUnits="userSpaceOnUse">
<stop stop-color="#D9D9D9"/>
<stop offset="1" stop-color="#737373" stop-opacity="0"/>
</linearGradient>
<linearGradient id="paint21_linear_2237_959" x1="163.091" y1="42.1911" x2="179.309" y2="42.1911" gradientUnits="userSpaceOnUse">
<stop stop-color="#D9D9D9"/>
<stop offset="1" stop-color="#737373" stop-opacity="0"/>
</linearGradient>
<linearGradient id="paint22_linear_2237_959" x1="163.091" y1="92.4689" x2="179.309" y2="92.4689" gradientUnits="userSpaceOnUse">
<stop stop-color="#D9D9D9"/>
<stop offset="1" stop-color="#737373" stop-opacity="0"/>
</linearGradient>
<linearGradient id="paint23_linear_2237_959" x1="163.091" y1="47.8676" x2="179.309" y2="47.8676" gradientUnits="userSpaceOnUse">
<stop stop-color="#D9D9D9"/>
<stop offset="1" stop-color="#737373" stop-opacity="0"/>
</linearGradient>
<linearGradient id="paint24_linear_2237_959" x1="129.756" y1="69.7832" x2="129.99" y2="73.2839" gradientUnits="userSpaceOnUse">
<stop stop-color="#228B22"/>
<stop stop-color="#E04B00"/>
</linearGradient>
<linearGradient id="paint25_linear_2237_959" x1="28.5536" y1="37.4995" x2="45.7388" y2="37.4995" gradientUnits="userSpaceOnUse">
<stop stop-color="#D9D9D9"/>
<stop offset="1" stop-color="#737373" stop-opacity="0"/>
</linearGradient>
<linearGradient id="paint26_linear_2237_959" x1="28.5536" y1="43.9438" x2="61.8499" y2="43.9438" gradientUnits="userSpaceOnUse">
<stop stop-color="#D9D9D9"/>
<stop offset="1" stop-color="#737373" stop-opacity="0"/>
</linearGradient>
<linearGradient id="paint27_linear_2237_959" x1="70.4465" y1="43.9438" x2="84.4094" y2="43.9438" gradientUnits="userSpaceOnUse">
<stop stop-color="#D9D9D9"/>
<stop offset="1" stop-color="#737373" stop-opacity="0"/>
</linearGradient>
<linearGradient id="paint28_linear_2237_959" x1="8.14874" y1="40.7225" x2="24.2599" y2="40.7225" gradientUnits="userSpaceOnUse">
<stop stop-color="#D9D9D9"/>
</linearGradient>
<linearGradient id="paint29_linear_2237_959" x1="14.7859" y1="100.482" x2="44.5936" y2="100.482" gradientUnits="userSpaceOnUse">
<stop stop-color="#D9D9D9"/>
<stop offset="1" stop-color="#737373" stop-opacity="0"/>
</linearGradient>
<linearGradient id="paint30_linear_2237_959" x1="14.7859" y1="106.286" x2="25.8573" y2="106.286" gradientUnits="userSpaceOnUse">
<stop stop-color="#D9D9D9"/>
<stop offset="1" stop-color="#737373" stop-opacity="0"/>
</linearGradient>
<linearGradient id="paint31_linear_2237_959" x1="66.5716" y1="106.286" x2="77.643" y2="106.286" gradientUnits="userSpaceOnUse">
<stop stop-color="#D9D9D9"/>
<stop offset="1" stop-color="#737373" stop-opacity="0"/>
</linearGradient>
<linearGradient id="paint32_linear_2237_959" x1="14.7859" y1="109.857" x2="31.7502" y2="109.857" gradientUnits="userSpaceOnUse">
<stop stop-color="#D9D9D9"/>
<stop offset="1" stop-color="#737373" stop-opacity="0"/>
</linearGradient>
<linearGradient id="paint33_linear_2237_959" x1="60.3215" y1="109.857" x2="77.2858" y2="109.857" gradientUnits="userSpaceOnUse">
<stop stop-color="#D9D9D9"/>
<stop offset="1" stop-color="#737373" stop-opacity="0"/>
</linearGradient>
<linearGradient id="paint34_linear_2237_959" x1="47.8215" y1="100.482" x2="77.6292" y2="100.482" gradientUnits="userSpaceOnUse">
<stop stop-color="#D9D9D9"/>
<stop offset="1" stop-color="#737373" stop-opacity="0"/>
</linearGradient>
<clipPath id="clip0_2237_959">
<path d="M0 8C0 3.58172 3.58172 0 8 0H190C194.418 0 198 3.58172 198 8V102C198 106.418 194.418 110 190 110H8C3.58172 110 0 106.418 0 102V8Z" fill="white"/>
</clipPath>
</defs>
</svg>
