<svg width="20" height="20" viewBox="0 0 20 20" fill="none" xmlns="http://www.w3.org/2000/svg">
<path fill-rule="evenodd" clip-rule="evenodd" d="M4.12034 0.399902C3.7227 0.399902 3.40034 0.722257 3.40034 1.1199V12.3999H1.33179C0.658375 12.3999 0.353522 13.2419 0.870854 13.673L7.61941 19.2968C8.08836 19.6876 8.80034 19.3541 8.80034 18.7437V1.1199C8.80034 0.722264 8.47799 0.399902 8.08034 0.399902H4.12034ZM4.60034 12.8799V1.5999H7.60034V17.7189L2.65757 13.5999H3.88034C4.27799 13.5999 4.60034 13.2775 4.60034 12.8799Z" fill="#404040"/>
<path fill-rule="evenodd" clip-rule="evenodd" d="M15.8803 19.5999C16.278 19.5999 16.6003 19.2775 16.6003 18.8799V7.5999H18.6689C19.3423 7.5999 19.6472 6.75789 19.1298 6.32678L12.3813 0.702988C11.9123 0.312193 11.2003 0.645663 11.2003 1.25611V18.8799C11.2003 19.2775 11.5227 19.5999 11.9203 19.5999H15.8803ZM15.4003 7.1199V18.3999H12.4003V2.28093L17.3431 6.3999H16.1203C15.7227 6.3999 15.4003 6.72226 15.4003 7.1199Z" fill="#404040"/>
</svg>
