<svg width="28" height="28" viewBox="0 0 28 28" fill="none" xmlns="http://www.w3.org/2000/svg">
<path d="M0 4C0 1.79086 1.79086 0 4 0H24C26.2091 0 28 1.79086 28 4V24C28 26.2091 26.2091 28 24 28H4C1.79086 28 0 26.2091 0 24V4Z" fill="#F6EFFB"/>
<path fill-rule="evenodd" clip-rule="evenodd" d="M10.4 19.3333C9.12 19.3333 8.5 18.68 8.5 17.3467V16.6533C8.5 15.32 9.12 14.6667 10.4 14.6667H17.6C18.88 14.6667 19.5 15.32 19.5 16.6533V17.3467C19.5 18.68 18.88 19.3333 17.6 19.3333H10.4ZM9.5 16.6533V17.3467C9.5 18.1933 9.72667 18.3333 10.4 18.3333H17.6C18.2733 18.3333 18.5 18.1933 18.5 17.3467V16.6533C18.5 15.8067 18.2733 15.6667 17.6 15.6667H10.4C9.72667 15.6667 9.5 15.8067 9.5 16.6533Z" fill="#AC6CDA"/>
<path fill-rule="evenodd" clip-rule="evenodd" d="M11.7333 13.6667C10.4533 13.6667 9.83333 13.0133 9.83333 11.68V10.9867C9.83333 9.64667 10.4533 9 11.7333 9H16.2667C17.5467 9 18.1667 9.65333 18.1667 10.9867V11.68C18.1667 13.0133 17.5467 13.6667 16.2667 13.6667H11.7333ZM10.8333 10.9867V11.68C10.8333 12.5267 11.06 12.6667 11.7333 12.6667H16.2667C16.94 12.6667 17.1667 12.5267 17.1667 11.68V10.9867C17.1667 10.14 16.94 10 16.2667 10H11.7333C11.06 10 10.8333 10.14 10.8333 10.9867Z" fill="#AC6CDA"/>
<path d="M13.5 20.6667V19.0667C13.5 18.7934 13.7267 18.5667 14 18.5667C14.2733 18.5667 14.5 18.7934 14.5 19.0667V20.6667C14.5 20.9401 14.2733 21.1667 14 21.1667C13.7267 21.1667 13.5 20.9401 13.5 20.6667Z" fill="#AC6CDA"/>
<path d="M13.5 14.6667V13.3333C13.5 13.06 13.7267 12.8333 14 12.8333C14.2733 12.8333 14.5 13.06 14.5 13.3333V14.6667C14.5 14.94 14.2733 15.1667 14 15.1667C13.7267 15.1667 13.5 14.94 13.5 14.6667Z" fill="#AC6CDA"/>
<path d="M13.5 9.12668V7.33334C13.5 7.06001 13.7267 6.83334 14 6.83334C14.2733 6.83334 14.5 7.05334 14.5 7.33334V9.12668C14.5 9.40668 14.2733 9.62668 14 9.62668C13.7267 9.62668 13.5 9.40001 13.5 9.12668Z" fill="#AC6CDA"/>
</svg>
