<svg width="20" height="20" viewBox="0 0 20 20" fill="none" xmlns="http://www.w3.org/2000/svg">
<path d="M3.11621 14.4651V6.27907C3.11621 2.99721 4.11342 2 7.39528 2H12.6046C15.8864 2 16.8836 2.99721 16.8836 6.27907V13.7209C16.8836 13.84 16.8836 13.9516 16.8762 14.0707C16.8539 14.3758 16.5785 14.6139 16.2809 14.5916C15.9757 14.5693 15.7376 14.3014 15.7599 13.9963C15.7674 13.907 15.7674 13.8102 15.7674 13.7209V6.27907C15.7674 3.62233 15.2688 3.11628 12.6046 3.11628H7.39528C4.73109 3.11628 4.23249 3.62233 4.23249 6.27907V14.4651C4.23249 14.7702 3.97947 15.0233 3.67435 15.0233C3.36923 15.0233 3.11621 14.7702 3.11621 14.4651Z" fill="#404040"/>
<path fill-rule="evenodd" clip-rule="evenodd" d="M6.279 18C4.53761 18 3.11621 16.5786 3.11621 14.8372V14.3535C3.11621 12.8726 4.32179 11.6744 5.79528 11.6744H16.3255C16.6306 11.6744 16.8836 11.9274 16.8836 12.2326V14.8372C16.8836 16.5786 15.4623 18 13.7209 18H6.279ZM4.23249 14.3535V14.8372C4.23249 15.9684 5.14784 16.8837 6.279 16.8837H13.7209C14.852 16.8837 15.7674 15.9684 15.7674 14.8372V12.7907H5.79528C4.93202 12.7907 4.23249 13.4902 4.23249 14.3535Z" fill="#404040"/>
<path d="M7.02319 6.83721C6.71807 6.83721 6.46505 6.58418 6.46505 6.27907C6.46505 5.97395 6.71807 5.72093 7.02319 5.72093H12.9767C13.2818 5.72093 13.5348 5.97395 13.5348 6.27907C13.5348 6.58418 13.2818 6.83721 12.9767 6.83721H7.02319Z" fill="#404040"/>
<path d="M7.02319 9.44186C6.71807 9.44186 6.46505 9.18883 6.46505 8.88372C6.46505 8.5786 6.71807 8.32558 7.02319 8.32558H10.7441C11.0492 8.32558 11.3023 8.5786 11.3023 8.88372C11.3023 9.18883 11.0492 9.44186 10.7441 9.44186H7.02319Z" fill="#404040"/>
</svg>
