<svg width="17" height="20" viewBox="0 0 17 20" fill="none" xmlns="http://www.w3.org/2000/svg">
<path d="M0.139648 15.358V5.53478C0.139648 1.59655 1.3363 0.399902 5.27453 0.399902H11.5257C15.4639 0.399902 16.6606 1.59655 16.6606 5.53478V14.465C16.6606 14.6079 16.6606 14.7419 16.6516 14.8847C16.6249 15.2509 16.2944 15.5366 15.9372 15.5099C15.5711 15.4831 15.2853 15.1616 15.3121 14.7954C15.321 14.6883 15.321 14.5722 15.321 14.465V5.53478C15.321 2.34669 14.7227 1.73944 11.5257 1.73944H5.27453C2.07751 1.73944 1.47918 2.34669 1.47918 5.53478V15.358C1.47918 15.7242 1.17556 16.0278 0.809416 16.0278C0.443276 16.0278 0.139648 15.7242 0.139648 15.358Z" fill="#404040"/>
<path fill-rule="evenodd" clip-rule="evenodd" d="M3.935 19.5999C1.84532 19.5999 0.139648 17.8942 0.139648 15.8045V15.2241C0.139648 13.447 1.58635 12.0092 3.35453 12.0092H15.9908C16.3569 12.0092 16.6606 12.3128 16.6606 12.679V15.8045C16.6606 17.8942 14.9549 19.5999 12.8652 19.5999H3.935ZM1.47918 15.2241V15.8045C1.47918 17.1619 2.5776 18.2604 3.935 18.2604H12.8652C14.2226 18.2604 15.321 17.1619 15.321 15.8045V13.3487H3.35453C2.31862 13.3487 1.47918 14.1882 1.47918 15.2241Z" fill="#404040"/>
<path d="M4.82802 6.20455C4.46188 6.20455 4.15825 5.90092 4.15825 5.53478C4.15825 5.16864 4.46188 4.86502 4.82802 4.86502H11.9722C12.3383 4.86502 12.642 5.16864 12.642 5.53478C12.642 5.90092 12.3383 6.20455 11.9722 6.20455H4.82802Z" fill="#404040"/>
<path d="M4.82802 9.33013C4.46188 9.33013 4.15825 9.0265 4.15825 8.66037C4.15825 8.29423 4.46188 7.9906 4.82802 7.9906H9.29313C9.65927 7.9906 9.9629 8.29423 9.9629 8.66037C9.9629 9.0265 9.65927 9.33013 9.29313 9.33013H4.82802Z" fill="#404040"/>
</svg>
