<svg width="19" height="20" viewBox="0 0 19 20" fill="none" xmlns="http://www.w3.org/2000/svg">
<path fill-rule="evenodd" clip-rule="evenodd" d="M13.7367 3.94762H13.5277V3.89447C13.5277 2.42549 13.5277 0.597608 10.2308 0.597608H8.89538C5.59851 0.597608 5.59851 2.42549 5.59851 3.89447V3.94762H5.39024C3.5874 3.94762 2.34377 4.34825 1.59259 5.1829C0.724553 6.15109 0.749593 7.4448 0.841404 8.32118L1.46739 16.2587C1.65101 18.0031 2.36881 19.7976 6.22489 19.7976H12.9021C16.7582 19.7976 17.476 18.0031 17.6596 16.2503L18.2856 8.32953C18.3774 7.4448 18.4024 6.15109 17.5344 5.1829C16.7916 4.35659 15.5479 3.94762 13.7367 3.94762ZM12.2757 3.89447V3.94762H6.85049V3.89447C6.85049 2.4088 6.85049 1.84958 8.89538 1.84958H10.2308C12.2757 1.84958 12.2757 2.4088 12.2757 3.89447ZM2.51905 6.01755C2.11007 6.46826 1.97653 7.16102 2.08503 8.19598L2.21055 9.78761C3.74547 10.808 5.47631 11.4959 7.26801 11.8028V11.6583C7.26801 10.4815 7.5518 10.1977 8.72865 10.1977H10.398C11.5748 10.1977 11.8586 10.4815 11.8586 11.6583V11.7797C13.715 11.4536 15.3807 10.7706 16.9254 9.67871L17.0419 8.20433C17.1505 7.16102 17.0169 6.46826 16.6079 6.01755C16.1155 5.46668 15.1473 5.19124 13.7367 5.19124H5.39024C3.97969 5.19124 3.01149 5.46668 2.51905 6.01755ZM7.28572 13.0738C5.55442 12.8091 3.86784 12.2155 2.33245 11.3332L2.71102 16.1335C2.85291 17.4522 3.21181 18.5456 6.22489 18.5456H12.9021C15.9068 18.5456 16.2741 17.4522 16.416 16.1252L16.8004 11.2601C15.2757 12.1815 13.6392 12.7686 11.8407 13.0598C11.7684 13.8709 11.4035 14.7883 9.5633 14.7883C7.7215 14.7883 7.35761 13.8747 7.28572 13.0738ZM8.51999 12.518V11.4497H10.6066V12.5097C10.6066 13.4028 10.6066 13.5363 9.5633 13.5363C8.51999 13.5363 8.51999 13.3777 8.51999 12.518Z" fill="#404040"/>
</svg>
