<svg width="20" height="20" viewBox="0 0 20 20" fill="none" xmlns="http://www.w3.org/2000/svg">
<path fill-rule="evenodd" clip-rule="evenodd" d="M13.7814 4.95639H13.6072V4.9121C13.6072 3.68795 13.6072 2.16471 10.8598 2.16471H9.74696C6.99957 2.16471 6.99957 3.68795 6.99957 4.9121V4.95639H6.82602C5.32365 4.95639 4.28729 5.29025 3.6613 5.98579C2.93794 6.79262 2.95881 7.87071 3.03532 8.60102L3.55697 15.2156C3.70999 16.6693 4.30816 18.1647 7.52156 18.1647H13.0859C16.2993 18.1647 16.8975 16.6693 17.0505 15.2087L17.5721 8.60798C17.6486 7.87071 17.6695 6.79262 16.9461 5.98579C16.3271 5.2972 15.2908 4.95639 13.7814 4.95639ZM12.5639 4.9121V4.95639H8.04289V4.9121C8.04289 3.67404 8.04289 3.20803 9.74696 3.20803H10.8598C12.5639 3.20803 12.5639 3.67404 12.5639 4.9121ZM4.43335 6.68133C4.09254 7.05692 3.98125 7.63422 4.07167 8.49669L4.17628 9.82305C5.45538 10.6733 6.89774 11.2466 8.39083 11.5024V11.382C8.39083 10.4013 8.62731 10.1648 9.60802 10.1648H10.9991C11.9798 10.1648 12.2163 10.4013 12.2163 11.382V11.4831C13.7633 11.2114 15.1514 10.6422 16.4387 9.7323L16.5358 8.50365C16.6262 7.63422 16.5149 7.05692 16.1741 6.68133C15.7637 6.22227 14.9569 5.99274 13.7814 5.99274H6.82602C5.65055 5.99274 4.84372 6.22227 4.43335 6.68133ZM8.40558 12.5615C6.96283 12.341 5.55735 11.8463 4.27786 11.1111L4.59333 15.1113C4.71157 16.2102 5.01065 17.1214 7.52156 17.1214H13.0859C15.5898 17.1214 15.8959 16.2102 16.0141 15.1043L16.3345 11.0501C15.0639 11.8179 13.7001 12.3072 12.2014 12.5498C12.1411 13.2258 11.8371 13.9903 10.3036 13.9903C8.76873 13.9903 8.46549 13.2289 8.40558 12.5615ZM9.43414 12.0984V11.2081H11.173V12.0914C11.173 12.8357 11.173 12.947 10.3036 12.947C9.43414 12.947 9.43414 12.8148 9.43414 12.0984Z" fill="#404040"/>
</svg>
