<svg width="24" height="24" viewBox="0 0 24 24" fill="none" xmlns="http://www.w3.org/2000/svg">
<path d="M0 12C0 5.37258 5.37258 0 12 0C18.6274 0 24 5.37258 24 12C24 18.6274 18.6274 24 12 24C5.37258 24 0 18.6274 0 12Z" fill="#436AF5"/>
<path d="M11.9732 15.2026C11.5901 15.2026 11.2609 14.9811 11.1053 14.6638L12.4101 13.3588C12.7273 13.5144 12.9488 13.8437 12.9488 14.2268C12.9488 14.7656 12.5118 15.2026 11.9732 15.2026Z" fill="#ECF0FE"/>
<path d="M5.9873 13.67V14.7835C5.9873 16.0107 6.17285 16.8129 6.66964 17.3038L10.2369 13.7359C10.4045 13.1312 10.8774 12.6583 11.4819 12.4907L13.505 10.4673H9.18949C6.73548 10.4673 5.9873 11.2156 5.9873 13.67Z" fill="#ECF0FE"/>
<path d="M14.888 9.08445C14.8641 8.01887 14.463 6.85152 11.9731 6.85152C9.54903 6.85152 9.05224 8.01887 9.05224 9.77289V10.4733C8.74699 10.4733 8.46568 10.4913 8.21429 10.5212V9.77289C8.21429 8.15656 8.60334 6.01343 11.9731 6.01343C14.0919 6.01343 15.3249 6.79166 15.6422 8.33017L14.888 9.08445Z" fill="#ECF0FE"/>
<path d="M17.958 14.7835C17.958 17.2379 17.2099 17.9862 14.7559 17.9862H9.18944C8.68667 17.9862 8.24973 17.9563 7.88463 17.8844L10.4943 15.2744C10.8294 15.7353 11.3621 16.0346 11.9726 16.0346C12.9722 16.0346 13.7802 15.2265 13.7802 14.2268C13.7802 13.6161 13.481 13.0833 13.0201 12.7481L15.2886 10.4793C17.3176 10.593 17.958 11.4012 17.958 13.67V14.7835Z" fill="#ECF0FE"/>
<path d="M17.1685 6.15104L6.12548 17.202C5.94592 17.3815 5.94592 17.6749 6.12548 17.8545C6.21526 17.9383 6.32899 17.9862 6.44869 17.9862C6.5684 17.9862 6.68212 17.9383 6.7719 17.8485L17.8209 6.79758C18.0065 6.61798 18.0065 6.33064 17.8209 6.15104C17.6414 5.97145 17.3481 5.97145 17.1685 6.15104Z" fill="#ECF0FE"/>
</svg>
