<svg width="24" height="24" viewBox="0 0 24 24" fill="none" xmlns="http://www.w3.org/2000/svg">
<path d="M0 3.42857C0 1.53502 1.53502 0 3.42857 0H20.5714C22.465 0 24 1.53502 24 3.42857V20.5714C24 22.465 22.465 24 20.5714 24H3.42857C1.53502 24 0 22.465 0 20.5714V3.42857Z" fill="#030F3A"/>
<path d="M6.85742 16.7148L6.00015 10.6118" stroke="#436AF5" stroke-width="0.857143" stroke-linecap="round"/>
<path d="M13.2861 15.4287L11.1433 9.42871" stroke="#436AF5" stroke-width="0.857143"/>
<path d="M8.92041 9.41162H11.0337C11.2809 9.41162 11.469 9.61707 11.4624 9.85107L11.4478 9.95264L9.57666 16.8267C9.52588 17.0132 9.35594 17.1431 9.1626 17.1431H7.05029C6.80321 17.1431 6.61519 16.9375 6.62158 16.7036L6.63623 16.6021L8.50732 9.72705C8.5582 9.54086 8.72739 9.41181 8.92041 9.41162Z" stroke="#436AF5" stroke-width="0.857143"/>
<path d="M15.6392 7.28613H17.7622C18.0057 7.28613 18.1926 7.48587 18.1909 7.7168L18.1782 7.81738L16.2651 15.5488C16.2178 15.7401 16.0462 15.875 15.8491 15.875H13.7251C13.4817 15.8748 13.2945 15.6743 13.2964 15.4434L13.3091 15.3428L15.2231 7.61133C15.2706 7.42024 15.4422 7.28613 15.6392 7.28613Z" stroke="#436AF5" stroke-width="0.857143"/>
</svg>
