<svg width="12" height="12" viewBox="0 0 12 12" fill="none" xmlns="http://www.w3.org/2000/svg">
<path fill-rule="evenodd" clip-rule="evenodd" d="M4.41977 9.2669C4.5851 9.43671 4.83534 9.45905 5.03196 9.45905H7.49411C7.75329 9.45905 7.9499 9.38755 8.08843 9.2535C8.27164 9.06582 8.26717 8.82899 8.2627 8.6994V8.36426C9.75519 7.35884 10.6891 5.24523 9.71944 3.29248C9.21896 2.28706 8.25376 1.54082 7.13663 1.29505C5.96141 1.03588 4.75938 1.31293 3.84333 2.05023C2.92728 2.78754 2.39999 3.8868 2.39999 5.06202C2.39999 6.30427 3.14177 7.60908 4.26784 8.35979V8.75749C4.26337 8.89601 4.2589 9.10157 4.41977 9.2669ZM7.49411 8.78877H5.02749C5.00444 8.78877 4.98434 8.7873 4.96716 8.78605C4.95436 8.78512 4.94319 8.7843 4.93365 8.7843C4.93365 8.78207 4.93365 8.78095 4.93309 8.78039C4.93253 8.77983 4.93141 8.77983 4.92918 8.77983V8.17658C4.92918 8.0604 4.87109 7.95315 4.76831 7.8906C3.91929 7.37672 3.06134 6.30427 3.06134 5.06202C3.06134 4.08788 3.49478 3.18077 4.25443 2.56858C5.01408 1.95639 6.01056 1.7285 6.9847 1.94299C7.90522 2.14407 8.70061 2.75626 9.11172 3.58294C9.94733 5.25863 9.0715 7.08626 7.74882 7.88613C7.65051 7.94422 7.58795 8.05593 7.58795 8.17211V8.73515V8.77983C7.57008 8.7843 7.5388 8.78877 7.49411 8.78877ZM4.78265 10.7861C5.74785 10.5091 6.76221 10.5091 7.72741 10.7861C7.75869 10.7951 7.78997 10.7995 7.82125 10.7995C7.96871 10.7995 8.10277 10.7057 8.14298 10.5538C8.19214 10.375 8.08936 10.1873 7.91062 10.1382C6.82924 9.82987 5.68083 9.82987 4.59944 10.1382C4.4207 10.1918 4.31346 10.375 4.36708 10.5538C4.4207 10.7325 4.60391 10.8353 4.78265 10.7861Z" fill="#404040"/>
</svg>
