<svg width="20" height="21" viewBox="0 0 20 21" fill="none" xmlns="http://www.w3.org/2000/svg">
<path fill-rule="evenodd" clip-rule="evenodd" d="M12.6822 17.6405L10.4565 16.314C10.2257 16.1791 9.77908 16.1791 9.55576 16.314L7.32256 17.6405C6.00497 18.4274 5.23079 18.1126 4.88092 17.8578C4.5385 17.603 4.00253 16.951 4.3524 15.4522L4.88092 13.1515C4.94047 12.9117 4.82137 12.4995 4.64271 12.3196L2.7966 10.4611C1.87354 9.53181 1.94798 8.73743 2.07453 8.34773C2.20108 7.95803 2.60305 7.26857 3.88342 7.05124L6.25806 6.65405C6.48138 6.61658 6.80148 6.37677 6.89825 6.17443L8.21584 3.52899C8.81136 2.32244 9.59298 2.14258 10.0024 2.14258C10.4118 2.14258 11.1934 2.32244 11.789 3.52899L13.0991 6.16693C13.2033 6.36928 13.5234 6.60909 13.7467 6.64656L16.1214 7.04375C17.4092 7.26108 17.8112 7.95054 17.9303 8.34024C18.0494 8.72993 18.1238 9.52431 17.2082 10.4536L15.3621 12.3196C15.1834 12.4995 15.0718 12.9042 15.1239 13.1515L15.6524 15.4522C15.9948 16.951 15.4663 17.603 15.1239 17.8578C14.9378 17.9927 14.64 18.1426 14.2157 18.1426C13.8212 18.1426 13.315 18.0152 12.6822 17.6405ZM11.0222 15.3473L13.248 16.6737C13.8956 17.0634 14.305 17.0634 14.4614 16.951C14.6177 16.8386 14.7293 16.4414 14.5656 15.707L14.0371 13.4063C13.8956 12.7843 14.1264 11.9824 14.573 11.5252L16.4191 9.6667C16.7839 9.29949 16.9477 8.93977 16.8732 8.69246C16.7913 8.44515 16.4489 8.24281 15.9427 8.16038L13.5681 7.76319C12.9949 7.66576 12.3696 7.20113 12.1091 6.67654L10.7989 4.0386C10.5607 3.55897 10.2629 3.27419 10.0024 3.27419C9.74186 3.27419 9.4441 3.55897 9.21334 4.0386L7.89575 6.67654C7.6352 7.20113 7.00991 7.66576 6.43672 7.76319L4.06952 8.16038C3.56333 8.24281 3.22091 8.44515 3.13902 8.69246C3.05714 8.93977 3.22835 9.30698 3.59311 9.6667L5.43922 11.5252C5.88586 11.9749 6.11663 12.7843 5.97519 13.4063L5.44667 15.707C5.27545 16.4489 5.39456 16.8386 5.55088 16.951C5.70721 17.0634 6.10918 17.0559 6.76426 16.6737L8.99002 15.3473C9.27289 15.1749 9.63764 15.085 10.0024 15.085C10.3672 15.085 10.7319 15.1749 11.0222 15.3473Z" fill="#404040"/>
</svg>
