<svg width="26" height="26" viewBox="0 0 26 26" fill="none" xmlns="http://www.w3.org/2000/svg">
<path d="M0 4C0 1.79086 1.79086 0 4 0H21.1429C23.352 0 25.1429 1.79086 25.1429 4V21.1429C25.1429 23.352 23.352 25.1429 21.1429 25.1429H4C1.79086 25.1429 0 23.352 0 21.1429V4Z" fill="#FAF2F0"/>
<path d="M9.38262 13.6878C9.12109 13.6878 8.90421 13.4709 8.90421 13.2094C8.90421 12.9478 9.12109 12.731 9.38262 12.731H13.2099C13.4714 12.731 13.6883 12.9478 13.6883 13.2094C13.6883 13.4709 13.4714 13.6878 13.2099 13.6878H9.38262Z" fill="#CA7868"/>
<path d="M8.90421 15.7609C8.90421 16.0224 9.12109 16.2393 9.38262 16.2393H11.9341C12.1956 16.2393 12.4125 16.0224 12.4125 15.7609C12.4125 15.4993 12.1956 15.2825 11.9341 15.2825H9.38262C9.12109 15.2825 8.90421 15.4993 8.90421 15.7609Z" fill="#CA7868"/>
<path fill-rule="evenodd" clip-rule="evenodd" d="M5.71484 14.4851C5.71484 17.9488 7.19471 19.4286 10.6584 19.4286H14.4856C17.9493 19.4286 19.4291 17.9488 19.4291 14.4851V11.2958C19.4291 11.2086 19.4051 11.1264 19.3633 11.0556C19.3428 11.02 19.3178 10.987 19.2884 10.9577L14.1854 5.85467C14.175 5.84471 14.1642 5.83525 14.1531 5.82629C14.0699 5.7566 13.9632 5.71436 13.8477 5.71436H10.6584C7.19471 5.71436 5.71484 7.19422 5.71484 10.6579V14.4851ZM13.369 6.67117H10.6584C7.71777 6.67117 6.67165 7.71728 6.67165 10.6579V14.4851C6.67165 17.4257 7.71777 18.4718 10.6584 18.4718H14.4856C17.4262 18.4718 18.4723 17.4257 18.4723 14.4851V11.7741H16.3989C14.2173 11.7741 13.369 10.9258 13.369 8.74424V6.67117ZM16.3989 10.8173C14.7531 10.8173 14.3258 10.39 14.3258 8.74424V7.3473L17.7958 10.8173H16.3989Z" fill="#CA7868"/>
</svg>
