<svg width="26" height="26" viewBox="0 0 26 26" fill="none" xmlns="http://www.w3.org/2000/svg">
<path d="M0 4C0 1.79086 1.79086 0 4 0H21.1429C23.352 0 25.1429 1.79086 25.1429 4V21.1429C25.1429 23.352 23.352 25.1429 21.1429 25.1429H4C1.79086 25.1429 0 23.352 0 21.1429V4Z" fill="#3C1C16"/>
<path d="M9.38213 13.6878C9.1206 13.6878 8.90372 13.4709 8.90372 13.2094C8.90372 12.9478 9.1206 12.731 9.38213 12.731H13.2094C13.4709 12.731 13.6878 12.9478 13.6878 13.2094C13.6878 13.4709 13.4709 13.6878 13.2094 13.6878H9.38213Z" fill="#954535"/>
<path d="M8.90372 15.7609C8.90372 16.0224 9.1206 16.2393 9.38213 16.2393H11.9336C12.1952 16.2393 12.412 16.0224 12.412 15.7609C12.412 15.4993 12.1952 15.2825 11.9336 15.2825H9.38213C9.1206 15.2825 8.90372 15.4993 8.90372 15.7609Z" fill="#954535"/>
<path fill-rule="evenodd" clip-rule="evenodd" d="M5.71436 14.4851C5.71436 17.9488 7.19422 19.4286 10.6579 19.4286H14.4851C17.9488 19.4286 19.4286 17.9488 19.4286 14.4851V11.2958C19.4286 11.2086 19.4046 11.1264 19.3628 11.0556C19.3423 11.02 19.3173 10.987 19.2879 10.9577L14.1849 5.85467C14.1745 5.84471 14.1637 5.83525 14.1526 5.82629C14.0694 5.7566 13.9627 5.71436 13.8472 5.71436H10.6579C7.19422 5.71436 5.71436 7.19422 5.71436 10.6579V14.4851ZM13.3685 6.67117H10.6579C7.71728 6.67117 6.67117 7.71728 6.67117 10.6579V14.4851C6.67117 17.4257 7.71728 18.4718 10.6579 18.4718H14.4851C17.4257 18.4718 18.4718 17.4257 18.4718 14.4851V11.7741H16.3984C14.2168 11.7741 13.3685 10.9258 13.3685 8.74424V6.67117ZM16.3984 10.8173C14.7527 10.8173 14.3253 10.39 14.3253 8.74424V7.3473L17.7953 10.8173H16.3984Z" fill="#954535"/>
</svg>
