<svg width="20" height="20" viewBox="0 0 20 20" fill="none" xmlns="http://www.w3.org/2000/svg">
<path d="M2 7.76744V5.90698C2 3.74884 3.75628 2 5.90698 2H7.76744C8.07256 2 8.32558 2.25302 8.32558 2.55814C8.32558 2.86326 8.07256 3.11628 7.76744 3.11628H5.90698C4.36651 3.11628 3.11628 4.36651 3.11628 5.90698V7.76744C3.11628 8.07256 2.86326 8.32558 2.55814 8.32558C2.25302 8.32558 2 8.07256 2 7.76744Z" fill="#404040"/>
<path d="M16.8837 7.76744V5.90698C16.8837 4.36651 15.6335 3.11628 14.093 3.11628H12.2326C11.9274 3.11628 11.6744 2.86326 11.6744 2.55814C11.6744 2.25302 11.9274 2 12.2326 2H14.093C16.2437 2 18 3.74884 18 5.90698V7.76744C18 8.07256 17.747 8.32558 17.4419 8.32558C17.1367 8.32558 16.8837 8.07256 16.8837 7.76744Z" fill="#404040"/>
<path d="M12.9767 18C12.6716 18 12.4186 17.747 12.4186 17.4419C12.4186 17.1367 12.6716 16.8837 12.9767 16.8837H14.093C15.6335 16.8837 16.8837 15.6335 16.8837 14.093V12.9767C16.8837 12.6716 17.1367 12.4186 17.4419 12.4186C17.747 12.4186 18 12.6716 18 12.9767V14.093C18 16.2512 16.2437 18 14.093 18H12.9767Z" fill="#404040"/>
<path d="M5.90698 18C3.75628 18 2 16.2512 2 14.093V12.2326C2 11.9274 2.25302 11.6744 2.55814 11.6744C2.86326 11.6744 3.11628 11.9274 3.11628 12.2326V14.093C3.11628 15.6335 4.36651 16.8837 5.90698 16.8837H7.76744C8.07256 16.8837 8.32558 17.1367 8.32558 17.4419C8.32558 17.747 8.07256 18 7.76744 18H5.90698Z" fill="#404040"/>
<path fill-rule="evenodd" clip-rule="evenodd" d="M8.51163 14.6512C6.7107 14.6512 5.72093 13.6614 5.72093 11.8605V8.13953C5.72093 6.3386 6.7107 5.34884 8.51163 5.34884H11.4884C13.2893 5.34884 14.2791 6.3386 14.2791 8.13953V11.8605C14.2791 13.6614 13.2893 14.6512 11.4884 14.6512H8.51163ZM6.83721 8.13953V11.8605C6.83721 13.0363 7.33581 13.5349 8.51163 13.5349H11.4884C12.6642 13.5349 13.1628 13.0363 13.1628 11.8605V8.13953C13.1628 6.96372 12.6642 6.46512 11.4884 6.46512H8.51163C7.33581 6.46512 6.83721 6.96372 6.83721 8.13953Z" fill="#404040"/>
<path d="M4.7907 10.5581C4.48558 10.5581 4.23256 10.3051 4.23256 10C4.23256 9.69488 4.48558 9.44186 4.7907 9.44186H15.2093C15.5144 9.44186 15.7674 9.69488 15.7674 10C15.7674 10.3051 15.5144 10.5581 15.2093 10.5581H4.7907Z" fill="#404040"/>
</svg>
