<svg width="20" height="20" viewBox="0 0 20 20" fill="none" xmlns="http://www.w3.org/2000/svg">
<path d="M9.46633 10.7458V6.83972C9.46633 6.53468 9.7082 6.28171 9.99987 6.28171C10.2915 6.28171 10.5334 6.53468 10.5334 6.83972V10.7458C10.5334 11.0508 10.2915 11.3038 9.99987 11.3038C9.7082 11.3038 9.46633 11.0508 9.46633 10.7458Z" fill="#404040"/>
<path d="M9.49477 13.6921C9.43075 13.6177 9.38097 13.5358 9.33829 13.4465C9.30272 13.3573 9.28849 13.2605 9.28849 13.1638C9.28849 12.9704 9.36673 12.7769 9.49477 12.6356C9.75799 12.3603 10.2418 12.3603 10.505 12.6356C10.633 12.7769 10.7112 12.9704 10.7112 13.1638C10.7112 13.2605 10.6899 13.3573 10.6543 13.4465C10.6188 13.5358 10.569 13.6177 10.505 13.6921C10.3698 13.8334 10.1919 13.9078 9.99987 13.9078C9.8078 13.9078 9.62994 13.8334 9.49477 13.6921Z" fill="#404040"/>
<path fill-rule="evenodd" clip-rule="evenodd" d="M8.6128 17.6131L4.3872 15.0611C3.53354 14.5403 3 13.5805 3 12.5464V7.45734C3 6.42316 3.53354 5.46338 4.3872 4.94257L8.6128 2.39061C9.46646 1.8698 10.5264 1.8698 11.3872 2.39061L15.6128 4.94257C16.4665 5.46338 17 6.42316 17 7.45734V12.5464C17 13.5805 16.4665 14.5403 15.6128 15.0611L11.3872 17.6131C10.9604 17.8735 10.4766 18 10 18C9.52338 18 9.03963 17.8735 8.6128 17.6131ZM9.14634 3.35782L4.92074 5.90978C4.39431 6.2297 4.06707 6.81749 4.06707 7.45734V12.5464C4.06707 13.1788 4.39431 13.774 4.92074 14.0939L9.14634 16.6459C9.67276 16.9658 10.3272 16.9658 10.8465 16.6459L15.0721 14.0939C15.5986 13.774 15.9258 13.1862 15.9258 12.5464V7.45734C15.9258 6.82493 15.5986 6.2297 15.0721 5.90978L10.8465 3.35782C10.5904 3.20157 10.2917 3.11973 10 3.11973C9.70833 3.11973 9.40955 3.20157 9.14634 3.35782Z" fill="#404040"/>
</svg>
