<svg width="18" height="16" viewBox="0 0 18 16" fill="none" xmlns="http://www.w3.org/2000/svg">
<path fill-rule="evenodd" clip-rule="evenodd" d="M6.04137 7.99769C6.04137 6.37271 7.36392 5.0539 8.99348 5.0539C10.6231 5.0539 11.9456 6.37271 11.9456 7.99769C11.9456 9.62266 10.6231 10.9415 8.99348 10.9415C7.36392 10.9415 6.04137 9.62266 6.04137 7.99769ZM7.22221 7.99769C7.22221 8.9711 8.01732 9.76397 8.99348 9.76397C9.96964 9.76397 10.7648 8.9711 10.7648 7.99769C10.7648 7.02427 9.96964 6.23141 8.99348 6.23141C8.01732 6.23141 7.22221 7.02427 7.22221 7.99769Z" fill="#404040"/>
<path fill-rule="evenodd" clip-rule="evenodd" d="M11.0245 15.934C10.5365 15.8005 10.1271 15.4944 9.8673 15.0626L9.77284 14.9056C9.30837 14.1049 8.67072 14.1049 8.20625 14.9056L8.11966 15.0548C7.85987 15.4944 7.45051 15.8084 6.96243 15.934C6.46647 16.0674 5.95477 15.9968 5.5218 15.7377L4.16776 14.9606C3.68755 14.6858 3.34117 14.2384 3.1916 13.6967C3.0499 13.1551 3.12075 12.5977 3.39628 12.1188C3.62458 11.7185 3.68755 11.3574 3.55372 11.1297C3.4199 10.9021 3.08139 10.7686 2.61692 10.7686C1.46757 10.7686 0.530762 9.83446 0.530762 8.68834V7.30672C0.530762 6.1606 1.46757 5.22644 2.61692 5.22644C3.08139 5.22644 3.4199 5.09299 3.55372 4.86533C3.68755 4.63768 3.63245 4.27658 3.39628 3.87622C3.12075 3.39736 3.0499 2.83215 3.1916 2.29835C3.3333 1.75669 3.67968 1.30923 4.16776 1.03448L5.52967 0.257316C6.41924 -0.268642 7.59221 0.0375131 8.12753 0.940276L8.222 1.09728C8.68646 1.89799 9.32412 1.89799 9.78858 1.09728L9.87518 0.948126C10.4105 0.0375131 11.5835 -0.268642 12.4809 0.265166L13.835 1.04233C14.3152 1.31708 14.6615 1.76454 14.8111 2.3062C14.9528 2.84785 14.882 3.40521 14.6064 3.88407C14.3781 4.28443 14.3152 4.64553 14.449 4.87319C14.5828 5.10084 14.9213 5.23429 15.3858 5.23429C16.5351 5.23429 17.472 6.16845 17.472 7.31457V8.69619C17.472 9.84231 16.5351 10.7765 15.3858 10.7765C14.9213 10.7765 14.5828 10.9099 14.449 11.1376C14.3152 11.3652 14.3703 11.7263 14.6064 12.1267C14.882 12.6055 14.9607 13.1708 14.8111 13.7046C14.6694 14.2462 14.323 14.6937 13.835 14.9684L12.473 15.7456C12.1739 15.9104 11.8511 15.9968 11.5205 15.9968C11.3552 15.9968 11.1899 15.9732 11.0245 15.934ZM10.7962 14.309L10.8828 14.4582C10.9773 14.623 11.1348 14.7408 11.3237 14.7879C11.5126 14.835 11.7016 14.8114 11.859 14.7172L13.2209 13.9322C13.4256 13.8145 13.583 13.6182 13.646 13.3827C13.709 13.1472 13.6775 12.9039 13.5594 12.6997C13.1107 11.9304 13.0556 11.1376 13.402 10.5331C13.7484 9.92866 14.4647 9.58325 15.3622 9.58325C15.866 9.58325 16.2675 9.1829 16.2675 8.68049V7.29887C16.2675 6.80431 15.866 6.39611 15.3622 6.39611C14.4647 6.39611 13.7484 6.0507 13.402 5.44624C13.0556 4.84178 13.1107 4.04892 13.5594 3.27961C13.6775 3.07551 13.709 2.83215 13.646 2.59665C13.583 2.36115 13.4335 2.17274 13.2288 2.04714L11.8669 1.26998C11.5284 1.06588 11.0796 1.18363 10.875 1.52903L10.7884 1.67819C10.3397 2.45535 9.68624 2.89496 8.98561 2.89496C8.28497 2.89496 7.63157 2.45535 7.18285 1.67819L7.09626 1.52118C6.89945 1.19148 6.4586 1.07373 6.12009 1.26998L4.75819 2.05499C4.55351 2.17274 4.39606 2.369 4.33308 2.6045C4.2701 2.84 4.30159 3.08336 4.41968 3.28746C4.8684 4.05677 4.9235 4.84963 4.57712 5.45409C4.23074 6.05855 3.51436 6.40396 2.61692 6.40396C2.11309 6.40396 1.71161 6.80431 1.71161 7.30672V8.68834C1.71161 9.1829 2.11309 9.5911 2.61692 9.5911C3.51436 9.5911 4.23074 9.93651 4.57712 10.541C4.9235 11.1454 4.8684 11.9383 4.41968 12.7076C4.30159 12.9117 4.2701 13.1551 4.33308 13.3906C4.39606 13.6261 4.54563 13.8145 4.75031 13.9401L6.11222 14.7172C6.27754 14.8193 6.47435 14.8428 6.65541 14.7957C6.84434 14.7486 7.00179 14.623 7.10413 14.4582L7.19073 14.309C7.63945 13.5397 8.29285 13.0923 8.99348 13.0923C9.69411 13.0923 10.3475 13.5319 10.7962 14.309Z" fill="#404040"/>
</svg>
