<svg width="12" height="10" viewBox="0 0 12 10" fill="none" xmlns="http://www.w3.org/2000/svg">
<g id="Settings">
<g id="Vector">
<path fill-rule="evenodd" clip-rule="evenodd" d="M4.22433 4.99857C4.22433 4.02358 5.01786 3.23229 5.9956 3.23229C6.97336 3.23229 7.76686 4.02358 7.76686 4.99857C7.76686 5.97355 6.97336 6.76485 5.9956 6.76485C5.01786 6.76485 4.22433 5.97355 4.22433 4.99857ZM4.93284 4.99857C4.93284 5.58261 5.4099 6.05833 5.9956 6.05833C6.58129 6.05833 7.05838 5.58261 7.05838 4.99857C7.05838 4.41451 6.58129 3.9388 5.9956 3.9388C5.4099 3.9388 4.93284 4.41451 4.93284 4.99857Z" fill="#404040"/>
<path fill-rule="evenodd" clip-rule="evenodd" d="M7.2142 9.76035C6.9214 9.68025 6.67576 9.49659 6.51989 9.23751L6.46321 9.14331C6.18453 8.66289 5.80194 8.66289 5.52326 9.14331L5.47131 9.23283C5.31543 9.49659 5.06982 9.68499 4.77697 9.76035C4.47939 9.84039 4.17237 9.79803 3.91259 9.64257L3.10017 9.17631C2.81204 9.01143 2.60421 8.74299 2.51447 8.41797C2.42945 8.09301 2.47196 7.75857 2.63728 7.47123C2.77426 7.23105 2.81204 7.01439 2.73174 6.87777C2.65145 6.74121 2.44834 6.66111 2.16966 6.66111C1.48005 6.66111 0.917969 6.10063 0.917969 5.41295V4.58398C0.917969 3.89631 1.48005 3.33582 2.16966 3.33582C2.44834 3.33582 2.65145 3.25575 2.73174 3.11915C2.81204 2.98256 2.77898 2.7659 2.63728 2.52568C2.47196 2.23837 2.42945 1.89924 2.51447 1.57896C2.59949 1.25397 2.80732 0.985489 3.10017 0.820639L3.91731 0.354341C4.45105 0.0387661 5.15484 0.222459 5.47603 0.764117L5.53271 0.858319C5.81139 1.33875 6.19398 1.33875 6.47266 0.858319L6.52462 0.768827C6.8458 0.222459 7.5496 0.0387662 8.08804 0.359051L8.9005 0.825349C9.18862 0.990199 9.3964 1.25868 9.48616 1.58367C9.57118 1.90866 9.5287 2.24308 9.36334 2.53039C9.22636 2.77061 9.18862 2.98727 9.2689 3.12387C9.34918 3.26046 9.55228 3.34053 9.83098 3.34053C10.5206 3.34053 11.0827 3.90102 11.0827 4.58869V5.41767C11.0827 6.10534 10.5206 6.66585 9.83098 6.66585C9.55228 6.66585 9.34918 6.74589 9.2689 6.88251C9.18862 7.01907 9.22168 7.23573 9.36334 7.47597C9.5287 7.76325 9.57592 8.10243 9.48616 8.42271C9.40114 8.74767 9.1933 9.01617 8.9005 9.18099L8.0833 9.64731C7.90384 9.74619 7.71016 9.79803 7.5118 9.79803C7.41262 9.79803 7.31344 9.78387 7.2142 9.76035ZM7.07722 8.78535L7.12918 8.87487C7.18588 8.97375 7.28038 9.04443 7.39372 9.07269C7.50706 9.10095 7.62046 9.08679 7.7149 9.03027L8.53204 8.55927C8.65486 8.48865 8.7493 8.37087 8.7871 8.22957C8.8249 8.08827 8.806 7.94229 8.73514 7.81977C8.46592 7.35819 8.43286 6.88251 8.6407 6.51981C8.84854 6.15715 9.27832 5.9499 9.81682 5.9499C10.1191 5.9499 10.36 5.70969 10.36 5.40824V4.57927C10.36 4.28254 10.1191 4.03762 9.81682 4.03762C9.27832 4.03762 8.84854 3.83037 8.6407 3.4677C8.43286 3.10502 8.46592 2.6293 8.73514 2.16772C8.806 2.04526 8.8249 1.89924 8.7871 1.75794C8.7493 1.61664 8.6596 1.5036 8.53678 1.42824L7.71964 0.961939C7.51654 0.839479 7.24726 0.910129 7.1245 1.11737L7.07254 1.20687C6.80332 1.67316 6.41125 1.93693 5.99088 1.93693C5.57049 1.93693 5.17845 1.67316 4.90922 1.20687L4.85727 1.11266C4.73918 0.914839 4.47467 0.844189 4.27156 0.961939L3.45442 1.43295C3.33162 1.5036 3.23715 1.62135 3.19936 1.76265C3.16157 1.90395 3.18046 2.04997 3.25132 2.17243C3.52055 2.63401 3.55361 3.10973 3.34578 3.47241C3.13795 3.83508 2.70813 4.04233 2.16966 4.04233C1.86736 4.04233 1.62648 4.28254 1.62648 4.58398V5.41295C1.62648 5.70969 1.86736 5.95461 2.16966 5.95461C2.70813 5.95461 3.13795 6.16186 3.34578 6.52455C3.55361 6.88719 3.52055 7.36293 3.25132 7.82451C3.18046 7.94697 3.16157 8.09301 3.19936 8.23431C3.23715 8.37561 3.32689 8.48865 3.4497 8.56401L4.26684 9.03027C4.36603 9.09153 4.48412 9.10563 4.59276 9.07737C4.70611 9.04911 4.80058 8.97375 4.86199 8.87487L4.91395 8.78535C5.18318 8.32377 5.57522 8.05533 5.9956 8.05533C6.41598 8.05533 6.808 8.31909 7.07722 8.78535Z" fill="#404040"/>
</g>
</g>
</svg>
