<svg width="24" height="24" viewBox="0 0 24 24" fill="none" xmlns="http://www.w3.org/2000/svg">
<path fill-rule="evenodd" clip-rule="evenodd" d="M7.55312 18.1331C7.01731 18.0616 6.56187 17.7221 6.33861 17.2397L5.2134 14.7649C3.42736 13.4426 2.40039 11.4682 2.40039 9.32395C2.40039 5.50902 5.70456 2.3999 9.76781 2.3999C12.6344 2.3999 15.2509 3.97232 16.4387 6.41137C16.8941 7.31373 17.1352 8.29651 17.1352 9.32395C17.1352 13.0406 14.0007 16.0872 10.0893 16.2391L8.96409 17.5971C8.66047 17.9455 8.22288 18.151 7.76744 18.151C7.69599 18.151 7.62456 18.142 7.55312 18.1331ZM3.73992 9.31501C3.73992 11.0751 4.61507 12.7011 6.13321 13.7732C6.23144 13.8447 6.31181 13.934 6.35646 14.0412L7.55312 16.6768C7.59777 16.7751 7.68707 16.8019 7.73172 16.8019C7.77637 16.8109 7.86567 16.8019 7.92819 16.7304L9.24985 15.1402C9.37487 14.9883 9.56241 14.8989 9.76781 14.8989C13.0898 14.8989 15.7957 12.3973 15.7957 9.31501C15.7957 8.50199 15.6082 7.72469 15.242 7.00101C14.2776 5.00867 12.1254 3.7311 9.76781 3.7311C6.44577 3.7311 3.73992 6.23269 3.73992 9.31501Z" fill="#404040"/>
<path fill-rule="evenodd" clip-rule="evenodd" d="M15.0367 21.037L13.9115 19.688C11.7504 19.5986 9.71429 18.6069 8.41048 16.9987C8.20509 16.7486 8.21403 16.3913 8.41942 16.15L9.24992 15.1494C9.37495 14.9975 9.56248 14.9082 9.76788 14.9082C13.0899 14.9082 15.7958 12.4066 15.7958 9.32424C15.7958 8.51123 15.6082 7.73392 15.2421 7.01025C15.126 6.77796 15.1528 6.50101 15.3135 6.29552C15.4743 6.09003 15.7422 6.00067 15.9922 6.05428C19.2964 6.81369 21.6004 9.57439 21.6004 12.7729C21.6004 14.9171 20.5734 16.8916 18.7874 18.2138L17.6622 20.6886C17.43 21.1889 16.9746 21.5284 16.4298 21.591C16.3673 21.5999 16.2959 21.5999 16.2333 21.5999C15.769 21.5999 15.3403 21.3944 15.0367 21.037ZM14.233 18.3478C14.4294 18.3478 14.617 18.4372 14.7509 18.5891L16.0726 20.1793C16.1351 20.2597 16.2155 20.2687 16.2691 20.2598C16.3048 20.2598 16.403 20.2329 16.4566 20.1257L17.6532 17.4902C17.7068 17.383 17.7783 17.2846 17.8765 17.2221C19.3946 16.15 20.2698 14.524 20.2698 12.7639C20.2698 10.6197 18.9571 8.71673 16.9567 7.77864C17.0817 8.27895 17.1442 8.78818 17.1442 9.3153C17.1442 13.032 14.0097 16.0785 10.0983 16.2304L9.82146 16.552C10.9377 17.6867 12.5452 18.3478 14.233 18.3478Z" fill="#404040"/>
<path d="M7.53534 9.9853C7.1692 9.9853 6.86558 9.68153 6.86558 9.31523C6.86558 8.94892 7.1692 8.64516 7.53534 8.64516H12.0004C12.3666 8.64516 12.6702 8.94892 12.6702 9.31523C12.6702 9.68153 12.3666 9.9853 12.0004 9.9853H7.53534Z" fill="#404040"/>
</svg>
