<svg width="20" height="20" viewBox="0 0 20 20" fill="none" xmlns="http://www.w3.org/2000/svg">
<path fill-rule="evenodd" clip-rule="evenodd" d="M5.55263 16.1331C5.01682 16.0616 4.56138 15.7221 4.33812 15.2397L3.21291 12.7649C1.42687 11.4426 0.399902 9.46817 0.399902 7.32395C0.399902 3.50902 3.70408 0.399902 7.76732 0.399902C10.6339 0.399902 13.2505 1.97232 14.4382 4.41137C14.8936 5.31373 15.1347 6.29651 15.1347 7.32395C15.1347 11.0406 12.0002 14.0872 8.0888 14.2391L6.9636 15.5971C6.65998 15.9455 6.22239 16.151 5.76695 16.151C5.69551 16.151 5.62407 16.142 5.55263 16.1331ZM1.73943 7.31501C1.73943 9.07506 2.61459 10.7011 4.13272 11.7732C4.23095 11.8447 4.31132 11.934 4.35597 12.0412L5.55263 14.6768C5.59728 14.7751 5.68658 14.8019 5.73123 14.8019C5.77588 14.8109 5.86519 14.8019 5.9277 14.7304L7.24936 13.1402C7.37439 12.9883 7.56192 12.8989 7.76732 12.8989C11.0894 12.8989 13.7952 10.3973 13.7952 7.31501C13.7952 6.50199 13.6077 5.72469 13.2415 5.00101C12.2771 3.00867 10.1249 1.7311 7.76732 1.7311C4.44528 1.7311 1.73943 4.23269 1.73943 7.31501Z" fill="#F0F0F0"/>
<path fill-rule="evenodd" clip-rule="evenodd" d="M13.0362 19.037L11.911 17.688C9.74989 17.5986 7.7138 16.6069 6.40999 14.9987C6.2046 14.7486 6.21354 14.3913 6.41893 14.15L7.24944 13.1494C7.37446 12.9975 7.56199 12.9082 7.76739 12.9082C11.0894 12.9082 13.7953 10.4066 13.7953 7.32424C13.7953 6.51123 13.6077 5.73392 13.2416 5.01025C13.1255 4.77796 13.1523 4.50101 13.313 4.29552C13.4738 4.09003 13.7417 4.00067 13.9917 4.05428C17.2959 4.81369 19.5999 7.57439 19.5999 10.7729C19.5999 12.9171 18.5729 14.8916 16.7869 16.2138L15.6617 18.6886C15.4295 19.1889 14.9741 19.5284 14.4293 19.591C14.3668 19.5999 14.2954 19.5999 14.2329 19.5999C13.7685 19.5999 13.3398 19.3944 13.0362 19.037ZM12.2325 16.3478C12.429 16.3478 12.6165 16.4372 12.7504 16.5891L14.0721 18.1793C14.1346 18.2597 14.215 18.2687 14.2686 18.2598C14.3043 18.2598 14.4025 18.2329 14.4561 18.1257L15.6528 15.4902C15.7063 15.383 15.7778 15.2846 15.876 15.2221C17.3941 14.15 18.2693 12.524 18.2693 10.7639C18.2693 8.61969 16.9566 6.71673 14.9562 5.77864C15.0812 6.27895 15.1437 6.78818 15.1437 7.3153C15.1437 11.032 12.0092 14.0785 8.0978 14.2304L7.82097 14.552C8.93724 15.6867 10.5447 16.3478 12.2325 16.3478Z" fill="#F0F0F0"/>
<path d="M5.53485 7.9853C5.16872 7.9853 4.86509 7.68153 4.86509 7.31523C4.86509 6.94892 5.16872 6.64516 5.53485 6.64516H9.99995C10.3661 6.64516 10.6697 6.94892 10.6697 7.31523C10.6697 7.68153 10.3661 7.9853 9.99995 7.9853H5.53485Z" fill="#F0F0F0"/>
</svg>
