<svg width="20" height="20" viewBox="0 0 20 20" fill="none" xmlns="http://www.w3.org/2000/svg">
<path fill-rule="evenodd" clip-rule="evenodd" d="M6.4 15.3332C5.12 15.3332 4.5 14.6798 4.5 13.3465V12.6532C4.5 11.3198 5.12 10.6665 6.4 10.6665H13.6C14.88 10.6665 15.5 11.3198 15.5 12.6532V13.3465C15.5 14.6798 14.88 15.3332 13.6 15.3332H6.4ZM5.5 12.6532V13.3465C5.5 14.1932 5.72667 14.3332 6.4 14.3332H13.6C14.2733 14.3332 14.5 14.1932 14.5 13.3465V12.6532C14.5 11.8065 14.2733 11.6665 13.6 11.6665H6.4C5.72667 11.6665 5.5 11.8065 5.5 12.6532Z" fill="#AC6CDA"/>
<path fill-rule="evenodd" clip-rule="evenodd" d="M7.7335 9.66667C6.4535 9.66667 5.8335 9.01333 5.8335 7.68V6.98667C5.8335 5.64667 6.4535 5 7.7335 5H12.2668C13.5468 5 14.1668 5.65333 14.1668 6.98667V7.68C14.1668 9.01333 13.5468 9.66667 12.2668 9.66667H7.7335ZM6.8335 6.98667V7.68C6.8335 8.52667 7.06016 8.66667 7.7335 8.66667H12.2668C12.9402 8.66667 13.1668 8.52667 13.1668 7.68V6.98667C13.1668 6.14 12.9402 6 12.2668 6H7.7335C7.06016 6 6.8335 6.14 6.8335 6.98667Z" fill="#AC6CDA"/>
<path d="M9.5 16.6669V15.0669C9.5 14.7936 9.72667 14.5669 10 14.5669C10.2733 14.5669 10.5 14.7936 10.5 15.0669V16.6669C10.5 16.9402 10.2733 17.1669 10 17.1669C9.72667 17.1669 9.5 16.9402 9.5 16.6669Z" fill="#AC6CDA"/>
<path d="M9.5 10.6668V9.3335C9.5 9.06016 9.72667 8.8335 10 8.8335C10.2733 8.8335 10.5 9.06016 10.5 9.3335V10.6668C10.5 10.9402 10.2733 11.1668 10 11.1668C9.72667 11.1668 9.5 10.9402 9.5 10.6668Z" fill="#AC6CDA"/>
<path d="M9.5 5.12683V3.3335C9.5 3.06016 9.72667 2.8335 10 2.8335C10.2733 2.8335 10.5 3.0535 10.5 3.3335V5.12683C10.5 5.40683 10.2733 5.62683 10 5.62683C9.72667 5.62683 9.5 5.40016 9.5 5.12683Z" fill="#AC6CDA"/>
</svg>
