<svg width="20" height="20" viewBox="0 0 20 20" fill="none" xmlns="http://www.w3.org/2000/svg">
<path fill-rule="evenodd" clip-rule="evenodd" d="M14 4.1079H17.2V12.409H14V4.1079ZM15.2 5.31242V11.2045H16V5.31242H15.2Z" fill="#608080"/>
<path fill-rule="evenodd" clip-rule="evenodd" d="M16.1 2V4.14555H15.1V2H16.1Z" fill="#608080"/>
<path fill-rule="evenodd" clip-rule="evenodd" d="M16.1 12.0376V14.1832H15.1V12.0376H16.1Z" fill="#608080"/>
<path fill-rule="evenodd" clip-rule="evenodd" d="M8 5.91468H11.2V15.9021H8V5.91468ZM9.2 7.1192V14.6976H10V7.1192H9.2Z" fill="#608080"/>
<path fill-rule="evenodd" clip-rule="evenodd" d="M10.1 4.00753V6.15558H9.1V4.00753H10.1Z" fill="#608080"/>
<path fill-rule="evenodd" clip-rule="evenodd" d="M10.1 15.8519V18H9.1V15.8519H10.1Z" fill="#608080"/>
<path fill-rule="evenodd" clip-rule="evenodd" d="M2 11.4354H5.2V16.0715H2V11.4354ZM3.2 12.6399V14.867H4V12.6399H3.2Z" fill="#608080"/>
<path fill-rule="evenodd" clip-rule="evenodd" d="M4.1 9.42786V11.5734H3.1V9.42786H4.1Z" fill="#608080"/>
<path fill-rule="evenodd" clip-rule="evenodd" d="M4.1 15.8519V17.9975H3.1V15.8519H4.1Z" fill="#608080"/>
</svg>
