<svg width="24" height="24" viewBox="0 0 24 24" fill="none" xmlns="http://www.w3.org/2000/svg">
<path d="M7.62959 8.52177C7.45694 8.34912 7.45694 8.06335 7.62959 7.8907L9.7907 5.72959C9.96335 5.55693 10.2491 5.55693 10.4218 5.72959C10.5944 5.90224 10.5944 6.188 10.4218 6.36066L8.26066 8.52177C8.17135 8.60512 8.05824 8.65275 7.94512 8.65275C7.832 8.65275 7.71293 8.60512 7.62959 8.52177Z" fill="#CA7868"/>
<path d="M15.7372 8.52177L13.5761 6.36066C13.4034 6.188 13.4034 5.90224 13.5761 5.72959C13.7487 5.55693 14.0345 5.55693 14.2072 5.72959L16.3683 7.8907C16.5409 8.06335 16.5409 8.34912 16.3683 8.52177C16.2849 8.60512 16.1659 8.65275 16.0527 8.65275C15.9396 8.65275 15.8265 8.61107 15.7372 8.52177Z" fill="#CA7868"/>
<path fill-rule="evenodd" clip-rule="evenodd" d="M16.7629 11.1675H7.23731C6.82056 11.1735 6.34428 11.1735 5.99898 10.8282C5.72512 10.5603 5.6001 10.1435 5.6001 9.53033C5.6001 7.89312 6.79675 7.89312 7.36828 7.89312H16.6319C17.2034 7.89312 18.4001 7.89312 18.4001 9.53033C18.4001 10.1495 18.2751 10.5603 18.0012 10.8282C17.6916 11.1378 17.2749 11.1675 16.8879 11.1675C16.8462 11.1675 16.8046 11.1675 16.7629 11.1675ZM16.7688 10.2745C17.0367 10.2805 17.2868 10.2805 17.3701 10.1971C17.4118 10.1554 17.5011 10.0126 17.5011 9.53033C17.5011 8.85759 17.3344 8.78614 16.626 8.78614H7.36828C6.65982 8.78614 6.49312 8.85759 6.49312 9.53033C6.49312 10.0126 6.58838 10.1554 6.6241 10.1971C6.70745 10.2745 6.96345 10.2745 7.2254 10.2745H16.7688Z" fill="#CA7868"/>
<path d="M10.221 15.3043V13.1908C10.221 12.9467 10.4234 12.7443 10.6675 12.7443C10.9116 12.7443 11.1141 12.9467 11.1141 13.1908V15.3043C11.1141 15.5543 10.9116 15.7508 10.6675 15.7508C10.4234 15.7508 10.221 15.5484 10.221 15.3043Z" fill="#CA7868"/>
<path d="M12.9583 15.3043V13.1909C12.9583 12.9468 13.1607 12.7443 13.4048 12.7443C13.6489 12.7443 13.8513 12.9468 13.8513 13.1909V15.3043C13.8513 15.5544 13.6489 15.7509 13.4048 15.7509C13.1607 15.7509 12.9583 15.5484 12.9583 15.3043Z" fill="#CA7868"/>
<path d="M10.1311 18.4005C7.99979 18.4005 7.52351 17.1324 7.33895 16.031L6.49951 10.8813C6.45784 10.6372 6.62453 10.411 6.86863 10.3693C7.11272 10.3276 7.33895 10.4943 7.38063 10.7384L8.22007 15.8822C8.39272 16.936 8.74993 17.5075 10.1311 17.5075H13.7211C15.2511 17.5075 15.4238 16.9717 15.6203 15.9358L16.6204 10.7265C16.6681 10.4824 16.9003 10.3216 17.1443 10.3752C17.3884 10.4229 17.5432 10.655 17.4956 10.8991L16.4954 16.1084C16.2632 17.317 15.8763 18.4005 13.7211 18.4005H10.1311Z" fill="#CA7868"/>
</svg>
