<svg width="16" height="16" viewBox="0 0 16 16" fill="none" xmlns="http://www.w3.org/2000/svg">
<path d="M10.9827 15.2048C10.6779 15.2048 10.4252 14.9397 10.4252 14.62C10.4252 14.3003 10.6779 14.0352 10.9827 14.0352H11.726C13.6437 14.0352 14.885 12.733 14.885 10.7213V4.48346C14.885 2.47175 13.6437 1.1696 11.726 1.1696H4.2929C2.37516 1.1696 1.13384 2.47175 1.13384 4.48346V5.2632C1.13384 5.58289 0.881111 5.84799 0.576354 5.84799C0.271598 5.84799 0.018873 5.58289 0.018873 5.2632V4.48346C0.018873 1.80118 1.73591 0 4.2929 0H11.726C14.283 0 16 1.80118 16 4.48346V10.7213C16 13.4036 14.283 15.2048 11.726 15.2048H10.9827Z" fill="#404040"/>
<path d="M7.67508 14.1599C7.26626 10.8227 4.94713 8.3821 1.75834 7.95325C1.45358 7.91426 1.23803 7.61794 1.27519 7.29825C1.31236 6.97856 1.59481 6.75245 1.89957 6.79143C5.60125 7.29046 8.30689 10.1209 8.77517 14.004C8.81234 14.3236 8.59678 14.6199 8.29203 14.6589C8.27716 14.6667 8.24742 14.6667 8.22512 14.6667C7.9501 14.6667 7.71224 14.4484 7.67508 14.1599Z" fill="#404040"/>
<path d="M5.17734 14.9943C4.88745 12.6161 3.22987 10.8773 0.96278 10.5732C0.658023 10.5342 0.442457 10.2379 0.479622 9.91824C0.516788 9.59855 0.799254 9.37243 1.10401 9.41142C3.89142 9.78569 5.92064 11.9222 6.27743 14.8384C6.3146 15.158 6.09904 15.4543 5.79428 15.4933C5.77198 15.5011 5.74968 15.5011 5.72738 15.5011C5.45235 15.5011 5.2145 15.2828 5.17734 14.9943Z" fill="#404040"/>
<path d="M2.35302 15.4932C2.22666 14.4405 1.49079 13.6686 0.487324 13.536C0.182567 13.4971 -0.032999 13.2008 0.00416646 12.8811C0.0413319 12.5614 0.323798 12.3353 0.628554 12.3742C2.13004 12.577 3.2673 13.77 3.46056 15.345C3.49772 15.6647 3.28216 15.961 2.9774 16C2.9551 16 2.93281 16 2.90308 16C2.62805 16 2.39019 15.7817 2.35302 15.4932Z" fill="#404040"/>
</svg>
