<svg width="40" height="40" viewBox="0 0 40 40" fill="none" xmlns="http://www.w3.org/2000/svg">
<path fill-rule="evenodd" clip-rule="evenodd" d="M13.9785 28.7382C13.3701 28.3826 13.0225 27.6636 13.0225 26.7708V15.63C13.0225 13.6231 14.658 11.9875 16.6649 11.9875H24.2896C26.2965 11.9875 27.9321 13.6231 27.9321 15.63V26.7629C27.9321 27.6557 27.5844 28.3747 26.976 28.7303C26.3676 29.0858 25.5696 29.0463 24.7874 28.6117L20.9316 26.4705C20.7025 26.3441 20.2521 26.3441 20.023 26.4705L16.1672 28.6117C15.7405 28.8488 15.3059 28.9752 14.8951 28.9752C14.5632 28.9752 14.2551 28.8962 13.9785 28.7382ZM14.2155 15.63V26.7629C14.2155 27.229 14.3499 27.5767 14.5869 27.711C14.8239 27.8532 15.1953 27.8058 15.5983 27.5767L19.4541 25.4355C20.0388 25.1115 20.9237 25.1115 21.5084 25.4355L25.3642 27.5767C25.7672 27.8058 26.1385 27.8532 26.3755 27.711C26.6126 27.5688 26.7469 27.2211 26.7469 26.7629V15.63C26.7469 14.2789 25.6407 13.1727 24.2896 13.1727H16.6728V13.1727C15.3217 13.1727 14.2155 14.2789 14.2155 15.63Z" fill="#747E8B"/>
<path d="M13.9785 28.7382L13.8215 29.0068L13.8242 29.0083L13.9785 28.7382ZM24.7874 28.6117L24.9385 28.3398L24.9384 28.3398L24.7874 28.6117ZM20.9316 26.4705L21.0826 26.1985L21.0819 26.1981L20.9316 26.4705ZM20.023 26.4705L19.8727 26.1981L19.8719 26.1985L20.023 26.4705ZM16.1672 28.6117L16.0161 28.3398L16.0161 28.3398L16.1672 28.6117ZM14.5869 27.711L14.747 27.4441L14.7403 27.4403L14.5869 27.711ZM15.5983 27.5767L15.4472 27.3047L15.4445 27.3062L15.5983 27.5767ZM19.4541 25.4355L19.3033 25.1633L19.303 25.1635L19.4541 25.4355ZM21.5084 25.4355L21.6594 25.1635L21.6592 25.1633L21.5084 25.4355ZM25.3642 27.5767L25.518 27.3062L25.5152 27.3047L25.3642 27.5767ZM14.1355 28.4696C13.6494 28.1855 13.3336 27.5881 13.3336 26.7708H12.7113C12.7113 27.7391 13.0909 28.5798 13.8215 29.0068L14.1355 28.4696ZM13.3336 26.7708V15.63H12.7113V26.7708H13.3336ZM13.3336 15.63C13.3336 13.7949 14.8298 12.2987 16.6649 12.2987V11.6764C14.4862 11.6764 12.7113 13.4513 12.7113 15.63H13.3336ZM16.6649 12.2987H24.2896V11.6764H16.6649V12.2987ZM24.2896 12.2987C26.1247 12.2987 27.621 13.7949 27.621 15.63H28.2432C28.2432 13.4513 26.4684 11.6764 24.2896 11.6764V12.2987ZM27.621 15.63V26.7629H28.2432V15.63H27.621ZM27.621 26.7629C27.621 27.5802 27.3052 28.1776 26.8191 28.4617L27.133 28.9989C27.8637 28.5719 28.2432 27.7312 28.2432 26.7629H27.621ZM26.8191 28.4617C26.3303 28.7473 25.6527 28.7366 24.9385 28.3398L24.6363 28.8837C25.4865 29.3561 26.4049 29.4244 27.133 28.9989L26.8191 28.4617ZM24.9384 28.3398L21.0826 26.1985L20.7806 26.7425L24.6364 28.8837L24.9384 28.3398ZM21.0819 26.1981C20.9037 26.0998 20.6751 26.0646 20.4773 26.0646C20.2795 26.0646 20.0509 26.0998 19.8727 26.1981L20.1732 26.7429C20.2242 26.7148 20.3353 26.6868 20.4773 26.6868C20.6192 26.6868 20.7304 26.7148 20.7813 26.7429L21.0819 26.1981ZM19.8719 26.1985L16.0161 28.3398L16.3182 28.8837L20.174 26.7425L19.8719 26.1985ZM16.0161 28.3398C15.6254 28.5568 15.2425 28.6641 14.8951 28.6641V29.2863C15.3694 29.2863 15.8556 29.1407 16.3182 28.8837L16.0161 28.3398ZM14.8951 28.6641C14.6143 28.6641 14.3598 28.5977 14.1329 28.468L13.8242 29.0083C14.1503 29.1946 14.5121 29.2863 14.8951 29.2863V28.6641ZM13.9044 15.63V26.7629H14.5267V15.63H13.9044ZM13.9044 26.7629C13.9044 27.2567 14.0429 27.7604 14.4335 27.9817L14.7403 27.4403C14.6568 27.393 14.5267 27.2013 14.5267 26.7629H13.9044ZM14.4268 27.9778C14.8115 28.2086 15.318 28.094 15.752 27.8471L15.4445 27.3062C15.0726 27.5177 14.8364 27.4979 14.747 27.4442L14.4268 27.9778ZM15.7493 27.8487L19.6051 25.7074L19.303 25.1635L15.4472 27.3047L15.7493 27.8487ZM19.6048 25.7076C19.8422 25.5761 20.1555 25.5036 20.4812 25.5036C20.807 25.5036 21.1202 25.5761 21.3576 25.7076L21.6592 25.1633C21.3119 24.9709 20.8903 24.8814 20.4812 24.8814C20.0722 24.8814 19.6506 24.9709 19.3033 25.1633L19.6048 25.7076ZM21.3573 25.7074L25.2131 27.8487L25.5152 27.3047L21.6594 25.1635L21.3573 25.7074ZM25.2104 27.8471C25.6445 28.094 26.151 28.2086 26.5356 27.9778L26.2155 27.4442C26.1261 27.4979 25.8898 27.5177 25.518 27.3062L25.2104 27.8471ZM26.5356 27.9778C26.9173 27.7488 27.058 27.2538 27.058 26.7629H26.4358C26.4358 27.1884 26.3079 27.3888 26.2155 27.4442L26.5356 27.9778ZM27.058 26.7629V15.63H26.4358V26.7629H27.058ZM27.058 15.63C27.058 14.1071 25.8126 12.8616 24.2896 12.8616V13.4838C25.4689 13.4838 26.4358 14.4507 26.4358 15.63H27.058ZM24.2896 12.8616H16.6728V13.4838H24.2896V12.8616ZM16.6728 12.8616C15.1499 12.8616 13.9044 14.1071 13.9044 15.63H14.5267C14.5267 14.4507 15.4935 13.4838 16.6728 13.4838V12.8616Z" fill="#747E8B"/>
</svg>
