<svg width="198" height="110" viewBox="0 0 198 110" fill="none" xmlns="http://www.w3.org/2000/svg">
<g clip-path="url(#clip0_2237_1358)">
<path d="M0 8C0 3.58172 3.58172 0 8 0H190C194.418 0 198 3.58172 198 8V102C198 106.418 194.418 110 190 110H8C3.58172 110 0 106.418 0 102V8Z" fill="#D0D0D0" fill-opacity="0.4"/>
<g clip-path="url(#clip1_2237_1358)">
<path d="M7 10C7 7.79086 8.79086 6 11 6H206C208.209 6 210 7.79086 210 10V116C210 118.209 208.209 120 206 120H11C8.79087 120 7 118.209 7 116V10Z" fill="#DCE3E5"/>
<g opacity="0.8">
<rect width="193.903" height="15.669" transform="translate(7 6)" fill="black"/>
<path d="M17.0927 15.8759L15.8914 11.7372H16.5208L17.3916 14.8671L18.2625 11.7401L18.8948 11.7372L19.7656 14.8671L20.6365 11.7372H21.2688L20.0645 15.8759H19.4667L18.5786 12.7805L17.6905 15.8759H17.0927ZM22.3693 15.9621C22.1394 15.9621 21.9469 15.9199 21.7917 15.8356C21.6365 15.7494 21.5186 15.6363 21.4381 15.4965C21.3596 15.3547 21.3203 15.1995 21.3203 15.0309C21.3203 14.8738 21.3481 14.7358 21.4037 14.617C21.4592 14.4982 21.5416 14.3976 21.6508 14.3152C21.76 14.2309 21.8942 14.1629 22.0532 14.1112C22.1911 14.0709 22.3473 14.0355 22.5217 14.0048C22.696 13.9742 22.879 13.9454 23.0706 13.9186C23.2641 13.8918 23.4557 13.865 23.6454 13.8381L23.427 13.9589C23.4308 13.7155 23.3791 13.5354 23.2718 13.4185C23.1664 13.2997 22.9844 13.2403 22.7257 13.2403C22.5629 13.2403 22.4134 13.2787 22.2774 13.3553C22.1413 13.43 22.0465 13.5546 21.9928 13.7289L21.4324 13.5565C21.509 13.2902 21.6547 13.0784 21.8693 12.9213C22.0858 12.7642 22.3732 12.6856 22.7315 12.6856C23.0093 12.6856 23.2507 12.7335 23.4557 12.8293C23.6627 12.9232 23.814 13.0727 23.9098 13.2777C23.9597 13.3793 23.9903 13.4866 24.0018 13.5996C24.0133 13.7126 24.0191 13.8343 24.0191 13.9646V15.8759H23.4873V15.166L23.5908 15.2579C23.4624 15.4955 23.2986 15.6728 23.0994 15.7896C22.902 15.9046 22.6587 15.9621 22.3693 15.9621ZM22.4757 15.4706C22.6462 15.4706 22.7928 15.4409 22.9154 15.3815C23.038 15.3202 23.1367 15.2426 23.2114 15.1487C23.2862 15.0548 23.335 14.9571 23.358 14.8556C23.3906 14.7636 23.4088 14.6601 23.4126 14.5452C23.4184 14.4302 23.4212 14.3382 23.4212 14.2693L23.6167 14.3411C23.427 14.3698 23.2546 14.3957 23.0994 14.4187C22.9442 14.4417 22.8033 14.4647 22.6769 14.4877C22.5523 14.5088 22.4412 14.5346 22.3435 14.5653C22.2611 14.594 22.1873 14.6285 22.1222 14.6687C22.0589 14.709 22.0082 14.7578 21.9698 14.8153C21.9334 14.8728 21.9152 14.9427 21.9152 15.0251C21.9152 15.1056 21.9354 15.1803 21.9756 15.2493C22.0158 15.3164 22.0771 15.37 22.1595 15.4103C22.2419 15.4505 22.3473 15.4706 22.4757 15.4706ZM26.5415 15.8759C26.3461 15.9142 26.1545 15.9305 25.9667 15.9247C25.779 15.919 25.6113 15.8826 25.4638 15.8155C25.3162 15.7484 25.2051 15.6431 25.1304 15.4994C25.0633 15.371 25.0269 15.2407 25.0212 15.1085C25.0173 14.9744 25.0154 14.823 25.0154 14.6544V11.9096H25.619V14.6256C25.619 14.7502 25.6199 14.8584 25.6218 14.9504C25.6257 15.0424 25.6458 15.12 25.6822 15.1832C25.7512 15.302 25.8604 15.37 26.0098 15.3873C26.1612 15.4026 26.3384 15.3959 26.5415 15.3671V15.8759ZM24.4205 13.2547V12.7719H26.5415V13.2547H24.4205ZM28.3835 15.9621C28.0654 15.9621 27.7952 15.8912 27.573 15.7494C27.3507 15.6076 27.1802 15.4131 27.0614 15.166C26.9445 14.9188 26.8851 14.6381 26.8832 14.3239C26.8851 14.0039 26.9464 13.7213 27.0671 13.476C27.1878 13.2288 27.3603 13.0353 27.5845 12.8955C27.8086 12.7556 28.0778 12.6856 28.3921 12.6856C28.7312 12.6856 29.0205 12.77 29.26 12.9386C29.5015 13.1072 29.6605 13.3381 29.7371 13.6312L29.1393 13.8037C29.0799 13.6293 28.9822 13.4942 28.8462 13.3984C28.7121 13.3007 28.5578 13.2518 28.3835 13.2518C28.1861 13.2518 28.0242 13.2988 27.8977 13.3927C27.7713 13.4846 27.6774 13.6111 27.6161 13.772C27.5548 13.933 27.5231 14.1169 27.5212 14.3239C27.5231 14.6438 27.596 14.9025 27.7397 15.0999C27.8853 15.2972 28.0999 15.3959 28.3835 15.3959C28.577 15.3959 28.7331 15.3518 28.8519 15.2637C28.9726 15.1736 29.0646 15.0453 29.1278 14.8786L29.7371 15.0223C29.6356 15.325 29.4679 15.5578 29.2342 15.7207C29.0004 15.8816 28.7168 15.9621 28.3835 15.9621ZM32.5012 15.8759V14.3497C32.5012 14.229 32.4906 14.1054 32.4696 13.979C32.4504 13.8506 32.4121 13.7318 32.3546 13.6226C32.299 13.5134 32.2195 13.4252 32.116 13.3582C32.0145 13.2911 31.8813 13.2576 31.7166 13.2576C31.6093 13.2576 31.5077 13.2758 31.4119 13.3122C31.3161 13.3467 31.2318 13.4032 31.159 13.4818C31.0881 13.5603 31.0316 13.6638 30.9894 13.7922C30.9492 13.9205 30.9291 14.0767 30.9291 14.2606L30.5554 14.1198C30.5554 13.8381 30.6081 13.59 30.7135 13.3754C30.8189 13.1589 30.9703 12.9903 31.1676 12.8696C31.365 12.7489 31.6035 12.6885 31.8833 12.6885C32.0978 12.6885 32.278 12.723 32.4236 12.792C32.5692 12.861 32.687 12.952 32.7771 13.065C32.8691 13.1762 32.939 13.2978 32.9869 13.43C33.0348 13.5622 33.0674 13.6916 33.0846 13.818C33.1019 13.9445 33.1105 14.0556 33.1105 14.1514V15.8759H32.5012ZM30.3198 15.8759V11.7372H30.8572V13.9704H30.9291V15.8759H30.3198ZM33.9166 15.8759V11.651H34.5172V15.8759H33.9166ZM35.4378 12.2632V11.6797H36.0385V12.2632H35.4378ZM35.4378 15.8759V12.7719H36.0385V15.8759H35.4378ZM38.0885 15.9592C37.7111 15.9592 37.4035 15.8759 37.166 15.7092C36.9284 15.5425 36.7827 15.3077 36.7291 15.005L37.3441 14.9102C37.3825 15.0711 37.4706 15.1985 37.6086 15.2924C37.7484 15.3844 37.9218 15.4304 38.1288 15.4304C38.3165 15.4304 38.4631 15.3921 38.5685 15.3154C38.6758 15.2388 38.7294 15.1334 38.7294 14.9993C38.7294 14.9207 38.7103 14.8575 38.672 14.8096C38.6356 14.7598 38.558 14.7128 38.4392 14.6687C38.3204 14.6247 38.1393 14.5701 37.896 14.5049C37.6296 14.4359 37.4179 14.3622 37.2608 14.2836C37.1056 14.2031 36.9945 14.1102 36.9274 14.0048C36.8623 13.8975 36.8297 13.7682 36.8297 13.6168C36.8297 13.4291 36.8795 13.2652 36.9791 13.1254C37.0788 12.9855 37.2186 12.8772 37.3988 12.8006C37.5808 12.724 37.7935 12.6856 38.0368 12.6856C38.2744 12.6856 38.4861 12.723 38.672 12.7977C38.8578 12.8725 39.0082 12.9788 39.1232 13.1168C39.2382 13.2528 39.3071 13.4128 39.3301 13.5967L38.7151 13.7088C38.694 13.5594 38.6241 13.4415 38.5053 13.3553C38.3865 13.2691 38.2322 13.2221 38.0425 13.2145C37.8605 13.2068 37.713 13.2375 37.5999 13.3064C37.4869 13.3735 37.4304 13.4664 37.4304 13.5852C37.4304 13.6542 37.4514 13.7126 37.4936 13.7605C37.5377 13.8084 37.622 13.8544 37.7465 13.8985C37.8711 13.9426 38.055 13.9953 38.2983 14.0566C38.5589 14.1236 38.7659 14.1984 38.9191 14.2807C39.0724 14.3612 39.1816 14.458 39.2468 14.571C39.3138 14.6822 39.3474 14.8172 39.3474 14.9763C39.3474 15.2828 39.2353 15.5233 39.0111 15.6977C38.7888 15.872 38.4813 15.9592 38.0885 15.9592ZM41.7595 15.8759C41.564 15.9142 41.3724 15.9305 41.1847 15.9247C40.9969 15.919 40.8292 15.8826 40.6817 15.8155C40.5342 15.7484 40.423 15.6431 40.3483 15.4994C40.2812 15.371 40.2448 15.2407 40.2391 15.1085C40.2353 14.9744 40.2333 14.823 40.2333 14.6544V11.9096H40.8369V14.6256C40.8369 14.7502 40.8379 14.8584 40.8398 14.9504C40.8436 15.0424 40.8637 15.12 40.9001 15.1832C40.9691 15.302 41.0783 15.37 41.2278 15.3873C41.3791 15.4026 41.5564 15.3959 41.7595 15.3671V15.8759ZM39.6384 13.2547V12.7719H41.7595V13.2547H39.6384Z" fill="white"/>
<g opacity="0.3">
<path d="M54 14.5C54 13.6716 54.6716 13 55.5 13H72.5C73.3284 13 74 13.6716 74 14.5C74 15.3284 73.3284 16 72.5 16H55.5C54.6716 16 54 15.3284 54 14.5Z" fill="#ADADAD"/>
</g>
<g opacity="0.3">
<path d="M82 14.5C82 13.6716 82.6716 13 83.5 13H100.5C101.328 13 102 13.6716 102 14.5C102 15.3284 101.328 16 100.5 16H83.5C82.6716 16 82 15.3284 82 14.5Z" fill="#ADADAD"/>
</g>
<g opacity="0.3">
<path d="M111 14.5C111 13.6716 111.672 13 112.5 13H129.5C130.328 13 131 13.6716 131 14.5C131 15.3284 130.328 16 129.5 16H112.5C111.672 16 111 15.3284 111 14.5Z" fill="#ADADAD"/>
</g>
</g>
<g filter="url(#filter0_d_2237_1358)">
<mask id="path-7-inside-1_2237_1358" fill="white">
<path d="M7 22H198V38H7V22Z"/>
</mask>
<path d="M7 22H198V38H7V22Z" fill="white" shape-rendering="crispEdges"/>
<path d="M198 37.5H7V38.5H198V37.5Z" fill="#DCE3E5" mask="url(#path-7-inside-1_2237_1358)"/>
<path d="M14.986 32.529C14.676 32.529 14.396 32.476 14.146 32.37C13.898 32.262 13.693 32.109 13.531 31.911C13.371 31.711 13.267 31.474 13.219 31.2L13.873 31.101C13.939 31.365 14.077 31.571 14.287 31.719C14.497 31.865 14.742 31.938 15.022 31.938C15.196 31.938 15.356 31.911 15.502 31.857C15.648 31.801 15.765 31.722 15.853 31.62C15.943 31.516 15.988 31.392 15.988 31.248C15.988 31.17 15.974 31.101 15.946 31.041C15.92 30.981 15.883 30.929 15.835 30.885C15.789 30.839 15.732 30.8 15.664 30.768C15.598 30.734 15.525 30.705 15.445 30.681L14.338 30.354C14.23 30.322 14.12 30.281 14.008 30.231C13.896 30.179 13.793 30.112 13.699 30.03C13.607 29.946 13.532 29.843 13.474 29.721C13.416 29.597 13.387 29.447 13.387 29.271C13.387 29.005 13.455 28.78 13.591 28.596C13.729 28.41 13.915 28.27 14.149 28.176C14.383 28.08 14.645 28.032 14.935 28.032C15.227 28.036 15.488 28.088 15.718 28.188C15.95 28.288 16.142 28.432 16.294 28.62C16.448 28.806 16.554 29.032 16.612 29.298L15.94 29.412C15.91 29.25 15.846 29.111 15.748 28.995C15.65 28.877 15.53 28.787 15.388 28.725C15.246 28.661 15.092 28.628 14.926 28.626C14.766 28.622 14.619 28.646 14.485 28.698C14.353 28.75 14.247 28.823 14.167 28.917C14.089 29.011 14.05 29.119 14.05 29.241C14.05 29.361 14.085 29.458 14.155 29.532C14.225 29.606 14.311 29.665 14.413 29.709C14.517 29.751 14.62 29.786 14.722 29.814L15.52 30.039C15.62 30.067 15.733 30.105 15.859 30.153C15.987 30.199 16.11 30.264 16.228 30.348C16.348 30.432 16.447 30.544 16.525 30.684C16.603 30.822 16.642 30.996 16.642 31.206C16.642 31.424 16.598 31.616 16.51 31.782C16.422 31.946 16.301 32.084 16.147 32.196C15.995 32.306 15.819 32.389 15.619 32.445C15.419 32.501 15.208 32.529 14.986 32.529ZM17.9713 32.439L16.9813 29.196L17.6023 29.199L18.2803 31.422L18.9643 29.199H19.5043L20.1883 31.422L20.8663 29.199H21.4843L20.4943 32.439H19.9903L19.2343 30.093L18.4753 32.439H17.9713ZM22.0816 28.668V28.059H22.7086V28.668H22.0816ZM22.0816 32.439V29.199H22.7086V32.439H22.0816ZM25.8835 32.439V30.846C25.8835 30.72 25.8725 30.591 25.8505 30.459C25.8305 30.325 25.7905 30.201 25.7305 30.087C25.6725 29.973 25.5895 29.881 25.4815 29.811C25.3755 29.741 25.2365 29.706 25.0645 29.706C24.9525 29.706 24.8465 29.725 24.7465 29.763C24.6465 29.799 24.5585 29.858 24.4825 29.94C24.4085 30.022 24.3495 30.13 24.3055 30.264C24.2635 30.398 24.2425 30.561 24.2425 30.753L23.8525 30.606C23.8525 30.312 23.9075 30.053 24.0175 29.829C24.1275 29.603 24.2855 29.427 24.4915 29.301C24.6975 29.175 24.9465 29.112 25.2385 29.112C25.4625 29.112 25.6505 29.148 25.8025 29.22C25.9545 29.292 26.0775 29.387 26.1715 29.505C26.2675 29.621 26.3405 29.748 26.3905 29.886C26.4405 30.024 26.4745 30.159 26.4925 30.291C26.5105 30.423 26.5195 30.539 26.5195 30.639V32.439H25.8835ZM23.6065 32.439V29.199H24.1675V30.135H24.2425V32.439H23.6065ZM28.6359 33.969C28.4619 33.969 28.2929 33.942 28.1289 33.888C27.9669 33.834 27.8189 33.754 27.6849 33.648C27.5509 33.544 27.4399 33.415 27.3519 33.261L27.9309 32.967C28.0009 33.105 28.1009 33.206 28.2309 33.27C28.3609 33.334 28.4979 33.366 28.6419 33.366C28.8199 33.366 28.9719 33.334 29.0979 33.27C29.2239 33.208 29.3189 33.114 29.3829 32.988C29.4489 32.862 29.4809 32.706 29.4789 32.52V31.614H29.5539V29.199H30.1089V32.526C30.1089 32.612 30.1059 32.694 30.0999 32.772C30.0939 32.85 30.0829 32.928 30.0669 33.006C30.0209 33.224 29.9329 33.404 29.8029 33.546C29.6749 33.688 29.5109 33.794 29.3109 33.864C29.1129 33.934 28.8879 33.969 28.6359 33.969ZM28.5879 32.529C28.2859 32.529 28.0249 32.454 27.8049 32.304C27.5869 32.154 27.4179 31.95 27.2979 31.692C27.1799 31.432 27.1209 31.14 27.1209 30.816C27.1209 30.49 27.1809 30.199 27.3009 29.943C27.4209 29.685 27.5909 29.482 27.8109 29.334C28.0329 29.184 28.2959 29.109 28.5999 29.109C28.9059 29.109 29.1629 29.184 29.3709 29.334C29.5809 29.482 29.7389 29.685 29.8449 29.943C29.9529 30.201 30.0069 30.492 30.0069 30.816C30.0069 31.14 29.9529 31.431 29.8449 31.689C29.7369 31.947 29.5779 32.152 29.3679 32.304C29.1579 32.454 28.8979 32.529 28.5879 32.529ZM28.6749 31.962C28.8809 31.962 29.0489 31.913 29.1789 31.815C29.3089 31.717 29.4039 31.582 29.4639 31.41C29.5239 31.238 29.5539 31.04 29.5539 30.816C29.5539 30.592 29.5229 30.394 29.4609 30.222C29.4009 30.05 29.3069 29.916 29.1789 29.82C29.0529 29.724 28.8919 29.676 28.6959 29.676C28.4879 29.676 28.3169 29.727 28.1829 29.829C28.0489 29.931 27.9489 30.068 27.8829 30.24C27.8189 30.412 27.7869 30.604 27.7869 30.816C27.7869 31.03 27.8189 31.224 27.8829 31.398C27.9489 31.57 28.0469 31.707 28.1769 31.809C28.3089 31.911 28.4749 31.962 28.6749 31.962ZM34.0064 32.439C33.8024 32.479 33.6024 32.496 33.4064 32.49C33.2104 32.484 33.0354 32.446 32.8814 32.376C32.7274 32.306 32.6114 32.196 32.5334 32.046C32.4634 31.912 32.4254 31.776 32.4194 31.638C32.4154 31.498 32.4134 31.34 32.4134 31.164V28.299H33.0434V31.134C33.0434 31.264 33.0444 31.377 33.0464 31.473C33.0504 31.569 33.0714 31.65 33.1094 31.716C33.1814 31.84 33.2954 31.911 33.4514 31.929C33.6094 31.945 33.7944 31.938 34.0064 31.908V32.439ZM31.7924 29.703V29.199H34.0064V29.703H31.7924ZM34.6895 32.439V29.199H35.2475V29.985L35.1695 29.883C35.2095 29.779 35.2615 29.684 35.3255 29.598C35.3895 29.51 35.4635 29.438 35.5475 29.382C35.6295 29.322 35.7205 29.276 35.8205 29.244C35.9225 29.21 36.0265 29.19 36.1325 29.184C36.2385 29.176 36.3405 29.181 36.4385 29.199V29.787C36.3325 29.759 36.2145 29.751 36.0845 29.763C35.9565 29.775 35.8385 29.816 35.7305 29.886C35.6285 29.952 35.5475 30.032 35.4875 30.126C35.4295 30.22 35.3875 30.325 35.3615 30.441C35.3355 30.555 35.3225 30.676 35.3225 30.804V32.439H34.6895ZM37.8311 32.529C37.5911 32.529 37.3901 32.485 37.2281 32.397C37.0661 32.307 36.9431 32.189 36.8591 32.043C36.7771 31.895 36.7361 31.733 36.7361 31.557C36.7361 31.393 36.7651 31.249 36.8231 31.125C36.8811 31.001 36.9671 30.896 37.0811 30.81C37.1951 30.722 37.3351 30.651 37.5011 30.597C37.6451 30.555 37.8081 30.518 37.9901 30.486C38.1721 30.454 38.3631 30.424 38.5631 30.396C38.7651 30.368 38.9651 30.34 39.1631 30.312L38.9351 30.438C38.9391 30.184 38.8851 29.996 38.7731 29.874C38.6631 29.75 38.4731 29.688 38.2031 29.688C38.0331 29.688 37.8771 29.728 37.7351 29.808C37.5931 29.886 37.4941 30.016 37.4381 30.198L36.8531 30.018C36.9331 29.74 37.0851 29.519 37.3091 29.355C37.5351 29.191 37.8351 29.109 38.2091 29.109C38.4991 29.109 38.7511 29.159 38.9651 29.259C39.1811 29.357 39.3391 29.513 39.4391 29.727C39.4911 29.833 39.5231 29.945 39.5351 30.063C39.5471 30.181 39.5531 30.308 39.5531 30.444V32.439H38.9981V31.698L39.1061 31.794C38.9721 32.042 38.8011 32.227 38.5931 32.349C38.3871 32.469 38.1331 32.529 37.8311 32.529ZM37.9421 32.016C38.1201 32.016 38.2731 31.985 38.4011 31.923C38.5291 31.859 38.6321 31.778 38.7101 31.68C38.7881 31.582 38.8391 31.48 38.8631 31.374C38.8971 31.278 38.9161 31.17 38.9201 31.05C38.9261 30.93 38.9291 30.834 38.9291 30.762L39.1331 30.837C38.9351 30.867 38.7551 30.894 38.5931 30.918C38.4311 30.942 38.2841 30.966 38.1521 30.99C38.0221 31.012 37.9061 31.039 37.8041 31.071C37.7181 31.101 37.6411 31.137 37.5731 31.179C37.5071 31.221 37.4541 31.272 37.4141 31.332C37.3761 31.392 37.3571 31.465 37.3571 31.551C37.3571 31.635 37.3781 31.713 37.4201 31.785C37.4621 31.855 37.5261 31.911 37.6121 31.953C37.6981 31.995 37.8081 32.016 37.9421 32.016ZM41.6191 32.529C41.3171 32.529 41.0561 32.454 40.8361 32.304C40.6181 32.154 40.4491 31.95 40.3291 31.692C40.2111 31.432 40.1521 31.14 40.1521 30.816C40.1521 30.49 40.2121 30.199 40.3321 29.943C40.4521 29.685 40.6221 29.482 40.8421 29.334C41.0641 29.184 41.3271 29.109 41.6311 29.109C41.9371 29.109 42.1941 29.184 42.4021 29.334C42.6121 29.482 42.7701 29.685 42.8761 29.943C42.9841 30.201 43.0381 30.492 43.0381 30.816C43.0381 31.14 42.9841 31.431 42.8761 31.689C42.7681 31.947 42.6091 32.152 42.3991 32.304C42.1891 32.454 41.9291 32.529 41.6191 32.529ZM41.7061 31.962C41.9121 31.962 42.0801 31.913 42.2101 31.815C42.3401 31.717 42.4351 31.582 42.4951 31.41C42.5551 31.238 42.5851 31.04 42.5851 30.816C42.5851 30.592 42.5541 30.394 42.4921 30.222C42.4321 30.05 42.3381 29.916 42.2101 29.82C42.0841 29.724 41.9231 29.676 41.7271 29.676C41.5191 29.676 41.3481 29.727 41.2141 29.829C41.0801 29.931 40.9801 30.068 40.9141 30.24C40.8501 30.412 40.8181 30.604 40.8181 30.816C40.8181 31.03 40.8501 31.224 40.9141 31.398C40.9801 31.57 41.0781 31.707 41.2081 31.809C41.3401 31.911 41.5061 31.962 41.7061 31.962ZM42.5851 32.439V30.108H42.5131V28.119H43.1431V32.439H42.5851ZM45.4195 32.529C45.0975 32.529 44.8145 32.459 44.5705 32.319C44.3285 32.177 44.1395 31.98 44.0035 31.728C43.8695 31.474 43.8025 31.18 43.8025 30.846C43.8025 30.492 43.8685 30.185 44.0005 29.925C44.1345 29.665 44.3205 29.464 44.5585 29.322C44.7965 29.18 45.0735 29.109 45.3895 29.109C45.7195 29.109 46.0005 29.186 46.2325 29.34C46.4645 29.492 46.6375 29.709 46.7515 29.991C46.8675 30.273 46.9135 30.608 46.8895 30.996H46.2625V30.768C46.2585 30.392 46.1865 30.114 46.0465 29.934C45.9085 29.754 45.6975 29.664 45.4135 29.664C45.0995 29.664 44.8635 29.763 44.7055 29.961C44.5475 30.159 44.4685 30.445 44.4685 30.819C44.4685 31.175 44.5475 31.451 44.7055 31.647C44.8635 31.841 45.0915 31.938 45.3895 31.938C45.5855 31.938 45.7545 31.894 45.8965 31.806C46.0405 31.716 46.1525 31.588 46.2325 31.422L46.8475 31.617C46.7215 31.907 46.5305 32.132 46.2745 32.292C46.0185 32.45 45.7335 32.529 45.4195 32.529ZM44.2645 30.996V30.507H46.5775V30.996H44.2645Z" fill="#1F1F1F"/>
<path fill-rule="evenodd" clip-rule="evenodd" d="M54.8406 29.6745L53.204 31.3244C53.071 31.4585 52.8953 31.5268 52.7196 31.5268C52.5438 31.5268 52.3681 31.4585 52.2351 31.3244L50.5985 29.6745C50.5257 29.6011 50.5257 29.4796 50.5985 29.4063C50.6713 29.3329 50.7918 29.3329 50.8646 29.4063L52.5012 31.0561C52.6217 31.1776 52.8174 31.1776 52.9379 31.0561L54.5745 29.4063C54.6473 29.3329 54.7678 29.3329 54.8406 29.4063C54.9134 29.4796 54.9134 29.6011 54.8406 29.6745Z" fill="#404040"/>
<path fill-rule="evenodd" clip-rule="evenodd" d="M192.324 29.1073C192.16 29.1073 192.026 29.2409 192.026 29.4055C192.026 29.57 192.16 29.7036 192.324 29.7036C192.489 29.7036 192.623 29.57 192.623 29.4055C192.623 29.2409 192.489 29.1073 192.324 29.1073Z" fill="#404040"/>
<path fill-rule="evenodd" clip-rule="evenodd" d="M192.324 30.1409C192.16 30.1409 192.026 30.2744 192.026 30.439C192.026 30.6036 192.16 30.7372 192.324 30.7372C192.489 30.7372 192.623 30.6036 192.623 30.439C192.623 30.2744 192.489 30.1409 192.324 30.1409Z" fill="#404040"/>
<path fill-rule="evenodd" clip-rule="evenodd" d="M192.324 31.1744C192.16 31.1744 192.026 31.308 192.026 31.4726C192.026 31.6371 192.16 31.7707 192.324 31.7707C192.489 31.7707 192.623 31.6371 192.623 31.4726C192.623 31.308 192.489 31.1744 192.324 31.1744Z" fill="#404040"/>
</g>
<g filter="url(#filter1_d_2237_1358)">
<rect width="197" height="23.4061" transform="translate(10 69)" fill="white"/>
<g clip-path="url(#clip2_2237_1358)">
<mask id="path-16-inside-2_2237_1358" fill="white">
<path d="M15.703 80.703C15.703 77.3893 18.3893 74.703 21.703 74.703C25.0167 74.703 27.703 77.3893 27.703 80.703C27.703 84.0167 25.0167 86.703 21.703 86.703C18.3893 86.703 15.703 84.0167 15.703 80.703Z"/>
</mask>
<path d="M15.703 80.703C15.703 77.3893 18.3893 74.703 21.703 74.703C25.0167 74.703 27.703 77.3893 27.703 80.703C27.703 84.0167 25.0167 86.703 21.703 86.703C18.3893 86.703 15.703 84.0167 15.703 80.703Z" fill="white"/>
<path d="M26.1814 79.8517C26.0978 79.6126 25.8699 79.4409 25.6022 79.4409H25.5966C25.4226 79.4409 25.2657 79.5133 25.1541 79.6296C25.0424 79.5133 24.8855 79.4409 24.7117 79.4409H24.7061C24.5531 79.4409 24.4133 79.4969 24.3059 79.5896V79.5425C24.3023 79.4955 24.2636 79.4586 24.2159 79.4586H23.8054C23.7552 79.4586 23.7146 79.4992 23.7146 79.5496V81.7792C23.7146 81.8297 23.7552 81.8702 23.8054 81.8702H24.2159C24.2617 81.8702 24.2994 81.836 24.3053 81.7918L24.3052 80.1911C24.3052 80.1855 24.3053 80.1803 24.306 80.1751C24.3125 80.1037 24.3649 80.045 24.4476 80.0376H24.5233C24.5578 80.0407 24.587 80.0528 24.6099 80.0712C24.6457 80.0996 24.6656 80.1432 24.6656 80.1911L24.6671 81.7839C24.6671 81.8343 24.7079 81.8751 24.7579 81.8751H25.1685C25.2169 81.8751 25.2563 81.8364 25.2586 81.7883L25.2585 80.189C25.2583 80.1365 25.2826 80.089 25.3253 80.0608C25.3463 80.0473 25.3716 80.0382 25.4008 80.0355H25.4765C25.5653 80.0432 25.619 80.1106 25.6188 80.189L25.6204 81.7796C25.6204 81.8301 25.6611 81.8706 25.7111 81.8706H26.1218C26.1717 81.8706 26.2125 81.83 26.2125 81.7796V80.069C26.2125 79.9523 26.1994 79.9026 26.1814 79.8517ZM23.4018 79.4645H23.1669V79.0828C23.1669 79.0371 23.1298 79 23.0841 79C23.0786 79 23.0735 79.0008 23.0684 79.0017C22.8081 79.0732 22.8602 79.4338 22.385 79.4645H22.3388C22.3318 79.4645 22.3253 79.4654 22.3189 79.4668C22.2783 79.4758 22.2478 79.512 22.2478 79.5552V79.9658C22.2478 80.0158 22.2886 80.0566 22.3388 80.0566H22.5865L22.5862 81.7977C22.5862 81.8473 22.6263 81.8875 22.676 81.8875H23.0819C23.1314 81.8875 23.1715 81.8473 23.1715 81.7977L23.1717 80.0566H23.4017C23.4517 80.0566 23.4925 80.0158 23.4925 79.9658V79.5553C23.4926 79.5052 23.4518 79.4645 23.4018 79.4645Z" fill="#54C1F0"/>
<path d="M21.9245 79.4645H21.5139C21.4639 79.4645 21.4234 79.5052 21.4234 79.5552V80.4042C21.4224 80.4568 21.3799 80.4988 21.3272 80.4988H21.1553C21.102 80.4988 21.059 80.456 21.059 80.4027L21.0574 79.5552C21.0574 79.5052 21.0166 79.4645 20.9666 79.4645H20.556C20.5058 79.4645 20.4653 79.5052 20.4653 79.5552V80.4857C20.4653 80.8392 20.7173 81.0912 21.0709 81.0912C21.0709 81.0912 21.3363 81.0912 21.3444 81.0927C21.3923 81.0981 21.4295 81.1383 21.4295 81.1878C21.4295 81.2366 21.393 81.2766 21.3457 81.2826C21.3434 81.2829 21.3412 81.2835 21.3387 81.2839L20.7383 81.2861C20.6881 81.2861 20.6475 81.3268 20.6475 81.3768V81.7872C20.6475 81.8375 20.6881 81.878 20.7383 81.878H21.4096C21.7634 81.878 22.0152 81.6262 22.0152 81.2726V79.5553C22.0153 79.5052 21.9748 79.4645 21.9245 79.4645ZM17.9864 79.4644H17.089C17.0397 79.4644 16.9999 79.5043 16.9999 79.5534V79.9557L17.0001 79.958C17.0001 79.96 16.9999 79.9619 16.9999 79.9636V81.7844C16.9999 81.8339 17.037 81.8742 17.083 81.8753H17.5013C17.5513 81.8753 17.5921 81.8348 17.5921 81.7846L17.5936 81.1606H17.9865C18.3152 81.1606 18.5442 80.9325 18.5442 80.6025V80.0233C18.5442 79.6932 18.3151 79.4644 17.9864 79.4644ZM17.9503 80.4702C17.9503 80.5233 17.9072 80.5665 17.8541 80.5665L17.5936 80.5667V80.059H17.8541C17.9072 80.059 17.9503 80.1019 17.9503 80.1552V80.4702ZM19.5886 79.4667H19.0189C18.9685 79.4667 18.9278 79.505 18.9278 79.5519V79.7116L18.9279 79.7147L18.9278 79.7181V79.937C18.9278 79.9866 18.971 80.0271 19.0243 80.0271H19.5668C19.6097 80.0339 19.6437 80.0652 19.6485 80.114V80.1669C19.6437 80.2135 19.6101 80.2475 19.5691 80.2513H19.3005C18.9432 80.2513 18.6887 80.4887 18.6887 80.822V81.2994C18.6887 81.6308 18.9075 81.8666 19.2622 81.8666H20.0068C20.1404 81.8666 20.2488 81.7654 20.2488 81.6408V80.083C20.2488 79.7052 20.0541 79.4667 19.5886 79.4667ZM19.6539 81.2448C19.6539 81.2501 19.6532 81.2551 19.6524 81.2599C19.6514 81.2644 19.6501 81.2689 19.6485 81.2733C19.6358 81.3092 19.5998 81.3352 19.5572 81.3352H19.3862C19.333 81.3352 19.2895 81.2947 19.2895 81.2448V81.1674L19.2893 81.1645L19.2895 80.8939L19.2897 80.8933C19.2898 80.8437 19.3329 80.8035 19.3862 80.8035H19.5571C19.6106 80.8035 19.6539 80.8439 19.6539 80.8939L19.6539 81.2448Z" fill="#233266"/>
</g>
<path d="M21.703 86.203C18.6655 86.203 16.203 83.7406 16.203 80.703H15.203C15.203 84.2929 18.1132 87.203 21.703 87.203V86.203ZM27.203 80.703C27.203 83.7406 24.7406 86.203 21.703 86.203V87.203C25.2929 87.203 28.203 84.2929 28.203 80.703H27.203ZM21.703 75.203C24.7406 75.203 27.203 77.6655 27.203 80.703H28.203C28.203 77.1132 25.2929 74.203 21.703 74.203V75.203ZM21.703 74.203C18.1132 74.203 15.203 77.1132 15.203 80.703H16.203C16.203 77.6655 18.6655 75.203 21.703 75.203V74.203Z" fill="#DCE3E5" mask="url(#path-16-inside-2_2237_1358)"/>
<path d="M29.604 78.802C29.604 78.2771 30.0296 77.8515 30.5545 77.8515H60.4955C61.0205 77.8515 61.446 78.2771 61.446 78.802C61.446 79.327 61.0205 79.7525 60.4955 79.7525H30.5545C30.0296 79.7525 29.604 79.327 29.604 78.802Z" fill="#D0D0D0"/>
<path d="M158.999 78.802C158.999 78.2771 159.425 77.8515 159.95 77.8515H187.039C187.564 77.8515 187.99 78.2771 187.99 78.802C187.99 79.327 187.564 79.7525 187.039 79.7525H159.95C159.425 79.7525 158.999 79.327 158.999 78.802Z" fill="#F0F0F0"/>
<path d="M189.891 76.9373C189.891 76.3923 190.333 75.9505 190.878 75.9505H194.607C195.152 75.9505 195.594 76.3923 195.594 76.9373V80.6668C195.594 81.2118 195.152 81.6536 194.607 81.6536H190.878C190.333 81.6536 189.891 81.2118 189.891 80.6668V76.9373Z" fill="#FCEEEE"/>
<path fill-rule="evenodd" clip-rule="evenodd" d="M192.755 77.0555C192.903 77.0566 193.022 77.1773 193.02 77.3249L193.001 79.7824L194.055 78.7288C194.159 78.6244 194.328 78.6244 194.433 78.7288C194.537 78.8332 194.537 79.0025 194.433 79.1069L193.173 80.3671C192.929 80.6107 192.534 80.6107 192.29 80.3671L191.052 79.1285C190.947 79.0241 190.947 78.8548 191.052 78.7504C191.156 78.646 191.326 78.646 191.43 78.7504L192.466 79.7869L192.486 77.3207C192.487 77.1731 192.608 77.0543 192.755 77.0555Z" fill="#E04B00"/>
<path d="M29.604 84.5051C29.604 83.9801 30.0296 83.5546 30.5545 83.5546H60.4955C61.0205 83.5546 61.446 83.9801 61.446 84.5051C61.446 85.03 61.0205 85.4556 60.4955 85.4556H30.5545C30.0296 85.4556 29.604 85.03 29.604 84.5051Z" fill="#F0F0F0"/>
<path d="M159.475 84.5051C159.475 83.9801 159.9 83.5546 160.425 83.5546H194.643C195.168 83.5546 195.594 83.9801 195.594 84.5051C195.594 85.03 195.168 85.4556 194.643 85.4556H160.425C159.9 85.4556 159.475 85.03 159.475 84.5051Z" fill="#F0F0F0"/>
</g>
<rect width="193.903" height="22.8122" transform="translate(17 97)" fill="white"/>
<mask id="path-25-inside-3_2237_1358" fill="white">
<path d="M22.7031 108.406C22.7031 105.256 25.2564 102.703 28.4061 102.703C31.5558 102.703 34.1091 105.256 34.1091 108.406C34.1091 111.556 31.5558 114.109 28.4061 114.109C25.2564 114.109 22.7031 111.556 22.7031 108.406Z"/>
</mask>
<path d="M22.7031 108.406C22.7031 105.256 25.2564 102.703 28.4061 102.703C31.5558 102.703 34.1091 105.256 34.1091 108.406C34.1091 111.556 31.5558 114.109 28.4061 114.109C25.2564 114.109 22.7031 111.556 22.7031 108.406Z" fill="white"/>
<path d="M28.4061 113.609C25.5325 113.609 23.2031 111.28 23.2031 108.406H22.2031C22.2031 111.832 24.9803 114.609 28.4061 114.609V113.609ZM33.6091 108.406C33.6091 111.28 31.2797 113.609 28.4061 113.609V114.609C31.832 114.609 34.6091 111.832 34.6091 108.406H33.6091ZM28.4061 103.203C31.2797 103.203 33.6091 105.533 33.6091 108.406H34.6091C34.6091 104.98 31.832 102.203 28.4061 102.203V103.203ZM28.4061 102.203C24.9803 102.203 22.2031 104.98 22.2031 108.406H23.2031C23.2031 105.533 25.5325 103.203 28.4061 103.203V102.203Z" fill="#DCE3E5" mask="url(#path-25-inside-3_2237_1358)"/>
<path fill-rule="evenodd" clip-rule="evenodd" d="M27.7132 110.876H26.2375V109.764L25.3645 110.876V109.914L26.2375 108.721V105H27.4464L29.2143 107.938L29.8019 107.184V105.588H28.9501V105H30.3721V106.403L31.449 105V105.973L30.3721 107.402V110.876H28.9501L27.4464 108.454V107.321L29.2812 110.284H29.8019V108.156L29.2143 108.955L27.1105 105.588H26.8522V110.284H27.7132V110.876Z" fill="#3B2E7E"/>
<path fill-rule="evenodd" clip-rule="evenodd" d="M26.3216 111.427H26.8001V111.991H26.3216V111.427Z" fill="#3C2F7F"/>
<path fill-rule="evenodd" clip-rule="evenodd" d="M26.8001 111.427H27.6205V111.991H26.8001V111.427Z" fill="#E31E27"/>
<path fill-rule="evenodd" clip-rule="evenodd" d="M27.6205 111.427H28.7827V111.991H27.6205V111.427Z" fill="#E96F24"/>
<path fill-rule="evenodd" clip-rule="evenodd" d="M28.7827 111.427H30.2868V111.991H28.7827V111.427Z" fill="#F1B517"/>
<path d="M36.0102 106.505C36.0102 105.98 36.4357 105.555 36.9607 105.555H66.9016C67.4266 105.555 67.8521 105.98 67.8521 106.505C67.8521 107.03 67.4266 107.456 66.9016 107.456H36.9607C36.4357 107.456 36.0102 107.03 36.0102 106.505Z" fill="#D0D0D0"/>
<path d="M162.903 106.505C162.903 105.98 163.328 105.555 163.853 105.555H190.943C191.468 105.555 191.893 105.98 191.893 106.505C191.893 107.03 191.468 107.456 190.943 107.456H163.853C163.328 107.456 162.903 107.03 162.903 106.505Z" fill="#F0F0F0"/>
<path d="M193.794 104.64C193.794 104.095 194.236 103.654 194.781 103.654H198.511C199.056 103.654 199.497 104.095 199.497 104.64V108.37C199.497 108.915 199.056 109.357 198.511 109.357H194.781C194.236 109.357 193.794 108.915 193.794 108.37V104.64Z" fill="#EFFBEF"/>
<path fill-rule="evenodd" clip-rule="evenodd" d="M196.216 104.995C196.459 104.751 196.854 104.751 197.098 104.995L198.336 106.233C198.441 106.338 198.441 106.507 198.336 106.611C198.232 106.716 198.063 106.716 197.958 106.611L196.921 105.574L196.902 107.937C196.901 108.084 196.781 108.203 196.633 108.202C196.485 108.201 196.367 108.08 196.368 107.932L196.386 105.58L195.333 106.633C195.229 106.737 195.06 106.737 194.955 106.633C194.851 106.529 194.851 106.359 194.955 106.255L196.216 104.995Z" fill="#228B22"/>
<g filter="url(#filter2_d_2237_1358)">
<rect width="198" height="23.2941" transform="translate(16 41)" fill="white"/>
<mask id="path-32-inside-4_2237_1358" fill="white">
<path d="M21.8236 52.6471C21.8236 49.4308 24.4309 46.8235 27.6471 46.8235C30.8634 46.8235 33.4706 49.4308 33.4706 52.6471C33.4706 55.8633 30.8634 58.4706 27.6471 58.4706C24.4309 58.4706 21.8236 55.8633 21.8236 52.6471Z"/>
</mask>
<path d="M21.8236 52.6471C21.8236 49.4308 24.4309 46.8235 27.6471 46.8235C30.8634 46.8235 33.4706 49.4308 33.4706 52.6471C33.4706 55.8633 30.8634 58.4706 27.6471 58.4706C24.4309 58.4706 21.8236 55.8633 21.8236 52.6471Z" fill="white"/>
<path d="M27.6471 57.9706C24.707 57.9706 22.3236 55.5872 22.3236 52.6471H21.3236C21.3236 56.1395 24.1547 58.9706 27.6471 58.9706V57.9706ZM32.9706 52.6471C32.9706 55.5872 30.5872 57.9706 27.6471 57.9706V58.9706C31.1395 58.9706 33.9706 56.1395 33.9706 52.6471H32.9706ZM27.6471 47.3235C30.5872 47.3235 32.9706 49.707 32.9706 52.6471H33.9706C33.9706 49.1547 31.1395 46.3235 27.6471 46.3235V47.3235ZM27.6471 46.3235C24.1547 46.3235 21.3236 49.1547 21.3236 52.6471H22.3236C22.3236 49.707 24.707 47.3235 27.6471 47.3235V46.3235Z" fill="#DCE3E5" mask="url(#path-32-inside-4_2237_1358)"/>
<path fill-rule="evenodd" clip-rule="evenodd" d="M26.9396 55.1696H25.4327V54.034L24.5412 55.1696V54.1871L25.4327 52.9683V49.1692H26.6671L28.4723 52.1694L29.0724 51.399V49.7691H28.2026V49.1692H29.6546V50.602L30.7542 49.1692V50.1628L29.6546 51.6221V55.1696H28.2026L26.6671 52.6955V51.5393L28.5407 54.565H29.0724V52.3918L28.4723 53.2077L26.3241 49.7691H26.0604V54.565H26.9396V55.1696Z" fill="#3B2E7E"/>
<path fill-rule="evenodd" clip-rule="evenodd" d="M25.5185 55.7313H26.0072V56.308H25.5185V55.7313Z" fill="#3C2F7F"/>
<path fill-rule="evenodd" clip-rule="evenodd" d="M26.0072 55.7313H26.8449V56.308H26.0072V55.7313Z" fill="#E31E27"/>
<path fill-rule="evenodd" clip-rule="evenodd" d="M26.8449 55.7313H28.0317V56.308H26.8449V55.7313Z" fill="#E96F24"/>
<path fill-rule="evenodd" clip-rule="evenodd" d="M28.0317 55.7313H29.5675V56.308H28.0317V55.7313Z" fill="#F1B517"/>
<path d="M35.4118 50.7059C35.4118 50.1698 35.8464 49.7353 36.3824 49.7353H66.9559C67.492 49.7353 67.9265 50.1698 67.9265 50.7059C67.9265 51.2419 67.492 51.6765 66.9559 51.6765H36.3824C35.8464 51.6765 35.4118 51.2419 35.4118 50.7059Z" fill="#D0D0D0"/>
<path d="M164.985 50.7059C164.985 50.1698 165.42 49.7353 165.956 49.7353H193.618C194.154 49.7353 194.588 50.1698 194.588 50.7059C194.588 51.2419 194.154 51.6765 193.618 51.6765H165.956C165.42 51.6765 164.985 51.2419 164.985 50.7059Z" fill="#F0F0F0"/>
<path d="M196.529 48.8018C196.529 48.2453 196.981 47.7941 197.537 47.7941H201.345C201.902 47.7941 202.353 48.2453 202.353 48.8018V52.61C202.353 53.1665 201.902 53.6177 201.345 53.6177H197.537C196.981 53.6177 196.529 53.1665 196.529 52.61V48.8018Z" fill="#EFFBEF"/>
<path fill-rule="evenodd" clip-rule="evenodd" d="M199.002 49.1636C199.251 48.9148 199.654 48.9148 199.903 49.1636L201.167 50.4284C201.274 50.535 201.274 50.7078 201.167 50.8144C201.061 50.921 200.888 50.921 200.781 50.8144L199.722 49.7551L199.703 52.1677C199.702 52.3185 199.579 52.4397 199.428 52.4385C199.277 52.4374 199.156 52.3142 199.157 52.1634L199.176 49.7615L198.101 50.8365C197.994 50.9431 197.822 50.9431 197.715 50.8365C197.608 50.7299 197.608 50.557 197.715 50.4504L199.002 49.1636Z" fill="#228B22"/>
<path d="M35.4118 56.5294C35.4118 55.9934 35.8464 55.5588 36.3824 55.5588H66.9559C67.492 55.5588 67.9265 55.9934 67.9265 56.5294C67.9265 57.0655 67.492 57.5 66.9559 57.5H36.3824C35.8464 57.5 35.4118 57.0655 35.4118 56.5294Z" fill="#F0F0F0"/>
<path d="M165.471 56.5294C165.471 55.9934 165.905 55.5588 166.441 55.5588H201.382C201.918 55.5588 202.353 55.9934 202.353 56.5294C202.353 57.0655 201.918 57.5 201.382 57.5H166.441C165.905 57.5 165.471 57.0655 165.471 56.5294Z" fill="#F0F0F0"/>
<g clip-path="url(#clip3_2237_1358)">
<path d="M16 50.2206H16.9706C17.5066 50.2206 17.9412 50.6551 17.9412 51.1912V57.0147C17.9412 57.5507 17.5066 57.9853 16.9706 57.9853H16V50.2206Z" fill="#E04B00"/>
</g>
</g>
</g>
</g>
<defs>
<filter id="filter0_d_2237_1358" x="-1" y="16" width="207" height="32" filterUnits="userSpaceOnUse" color-interpolation-filters="sRGB">
<feFlood flood-opacity="0" result="BackgroundImageFix"/>
<feColorMatrix in="SourceAlpha" type="matrix" values="0 0 0 0 0 0 0 0 0 0 0 0 0 0 0 0 0 0 127 0" result="hardAlpha"/>
<feOffset dy="2"/>
<feGaussianBlur stdDeviation="4"/>
<feComposite in2="hardAlpha" operator="out"/>
<feColorMatrix type="matrix" values="0 0 0 0 0.862745 0 0 0 0 0.890196 0 0 0 0 0.898039 0 0 0 1 0"/>
<feBlend mode="normal" in2="BackgroundImageFix" result="effect1_dropShadow_2237_1358"/>
<feBlend mode="normal" in="SourceGraphic" in2="effect1_dropShadow_2237_1358" result="shape"/>
</filter>
<filter id="filter1_d_2237_1358" x="6" y="65" width="205" height="31.4061" filterUnits="userSpaceOnUse" color-interpolation-filters="sRGB">
<feFlood flood-opacity="0" result="BackgroundImageFix"/>
<feColorMatrix in="SourceAlpha" type="matrix" values="0 0 0 0 0 0 0 0 0 0 0 0 0 0 0 0 0 0 127 0" result="hardAlpha"/>
<feOffset/>
<feGaussianBlur stdDeviation="2"/>
<feComposite in2="hardAlpha" operator="out"/>
<feColorMatrix type="matrix" values="0 0 0 0 0 0 0 0 0 0 0 0 0 0 0 0 0 0 0.25 0"/>
<feBlend mode="normal" in2="BackgroundImageFix" result="effect1_dropShadow_2237_1358"/>
<feBlend mode="normal" in="SourceGraphic" in2="effect1_dropShadow_2237_1358" result="shape"/>
</filter>
<filter id="filter2_d_2237_1358" x="12" y="39" width="206" height="31.2941" filterUnits="userSpaceOnUse" color-interpolation-filters="sRGB">
<feFlood flood-opacity="0" result="BackgroundImageFix"/>
<feColorMatrix in="SourceAlpha" type="matrix" values="0 0 0 0 0 0 0 0 0 0 0 0 0 0 0 0 0 0 127 0" result="hardAlpha"/>
<feOffset dy="2"/>
<feGaussianBlur stdDeviation="2"/>
<feComposite in2="hardAlpha" operator="out"/>
<feColorMatrix type="matrix" values="0 0 0 0 0 0 0 0 0 0 0 0 0 0 0 0 0 0 0.25 0"/>
<feBlend mode="normal" in2="BackgroundImageFix" result="effect1_dropShadow_2237_1358"/>
<feBlend mode="normal" in="SourceGraphic" in2="effect1_dropShadow_2237_1358" result="shape"/>
</filter>
<clipPath id="clip0_2237_1358">
<path d="M0 8C0 3.58172 3.58172 0 8 0H190C194.418 0 198 3.58172 198 8V102C198 106.418 194.418 110 190 110H8C3.58172 110 0 106.418 0 102V8Z" fill="white"/>
</clipPath>
<clipPath id="clip1_2237_1358">
<path d="M7 10C7 7.79086 8.79086 6 11 6H206C208.209 6 210 7.79086 210 10V116C210 118.209 208.209 120 206 120H11C8.79087 120 7 118.209 7 116V10Z" fill="white"/>
</clipPath>
<clipPath id="clip2_2237_1358">
<path d="M15.703 80.703C15.703 77.3893 18.3893 74.703 21.703 74.703C25.0167 74.703 27.703 77.3893 27.703 80.703C27.703 84.0167 25.0167 86.703 21.703 86.703C18.3893 86.703 15.703 84.0167 15.703 80.703Z" fill="white"/>
</clipPath>
<clipPath id="clip3_2237_1358">
<rect width="1.94118" height="7.76471" fill="white" transform="translate(16 50.2206)"/>
</clipPath>
</defs>
</svg>
