<svg width="24" height="24" viewBox="0 0 24 24" fill="none" xmlns="http://www.w3.org/2000/svg">
<path d="M0 3.42857C0 1.53502 1.53502 0 3.42857 0H20.5714C22.465 0 24 1.53502 24 3.42857V20.5714C24 22.465 22.465 24 20.5714 24H3.42857C1.53502 24 0 22.465 0 20.5714V3.42857Z" fill="#ECF0FE"/>
<path d="M6.85645 16.714L5.99917 10.6111" stroke="#436AF5" stroke-width="0.857143" stroke-linecap="round"/>
<path d="M13.2852 15.4285L11.1423 9.42847" stroke="#436AF5" stroke-width="0.857143"/>
<path d="M9.1624 17.1427H7.04935C6.76685 17.1427 6.56163 16.8741 6.63582 16.6015L8.50683 9.72726C8.55761 9.5407 8.72701 9.41124 8.92036 9.41124H11.0334C11.3159 9.41124 11.5211 9.67978 11.4469 9.95236L9.57592 16.8266C9.52515 17.0132 9.35574 17.1427 9.1624 17.1427Z" stroke="#436AF5" stroke-width="0.857143"/>
<path d="M15.8487 15.8741H13.725C13.4466 15.8741 13.2421 15.6128 13.309 15.3425L15.2223 7.61112C15.2697 7.41985 15.4413 7.28551 15.6384 7.28551H17.762C18.0404 7.28551 18.2449 7.54679 18.1781 7.81703L16.2647 15.5485C16.2174 15.7397 16.0457 15.8741 15.8487 15.8741Z" stroke="#436AF5" stroke-width="0.857143"/>
</svg>
