<svg width="12" height="12" viewBox="0 0 12 12" fill="none" xmlns="http://www.w3.org/2000/svg">
<path d="M6.0962 7.53611C5.93714 7.53611 5.8082 7.66505 5.8082 7.82411C5.8082 7.98317 5.93714 8.11211 6.0962 8.11211H6.10772C6.26677 8.11211 6.39572 7.98317 6.39572 7.82411C6.39572 7.66505 6.26677 7.53611 6.10772 7.53611H6.0962Z" fill="#ADADAD"/>
<path d="M6.3842 3.79211C6.3842 3.63305 6.25525 3.50411 6.0962 3.50411C5.93714 3.50411 5.8082 3.63305 5.8082 3.79211V6.09611C5.8082 6.25517 5.93714 6.38411 6.0962 6.38411C6.25525 6.38411 6.3842 6.25517 6.3842 6.09611V3.79211Z" fill="#ADADAD"/>
<path fill-rule="evenodd" clip-rule="evenodd" d="M10.8002 6.00005C10.8002 3.36005 8.64019 1.20005 6.0002 1.20005C3.3602 1.20005 1.2002 3.36005 1.2002 6.00005C1.2002 8.64005 3.3602 10.8 6.0002 10.8C8.64019 10.8 10.8002 8.64005 10.8002 6.00005ZM10.1145 6.00005C10.1145 3.73876 8.26149 1.88576 6.0002 1.88576C3.7389 1.88576 1.88591 3.73876 1.88591 6.00005C1.88591 8.26134 3.7389 10.1143 6.0002 10.1143C8.26149 10.1143 10.1145 8.26134 10.1145 6.00005Z" fill="#ADADAD"/>
</svg>
