<svg width="10" height="10" viewBox="0 0 10 10" fill="none" xmlns="http://www.w3.org/2000/svg">
<path d="M5.0962 6.53586C4.93714 6.53586 4.8082 6.66481 4.8082 6.82386C4.8082 6.98292 4.93714 7.11186 5.0962 7.11186H5.10772C5.26677 7.11186 5.39572 6.98292 5.39572 6.82386C5.39572 6.66481 5.26677 6.53586 5.10772 6.53586H5.0962Z" fill="#ADADAD"/>
<path d="M5.3842 2.79186C5.3842 2.6328 5.25525 2.50386 5.0962 2.50386C4.93714 2.50386 4.8082 2.6328 4.8082 2.79186V5.09586C4.8082 5.25492 4.93714 5.38386 5.0962 5.38386C5.25525 5.38386 5.3842 5.25492 5.3842 5.09586V2.79186Z" fill="#ADADAD"/>
<path fill-rule="evenodd" clip-rule="evenodd" d="M9.8002 4.9998C9.8002 2.35981 7.64019 0.199804 5.0002 0.199804C2.3602 0.199804 0.200195 2.35981 0.200195 4.9998C0.200195 7.6398 2.3602 9.7998 5.0002 9.7998C7.64019 9.7998 9.8002 7.6398 9.8002 4.9998ZM9.11448 4.9998C9.11448 2.73851 7.26149 0.885519 5.0002 0.885519C2.7389 0.885519 0.88591 2.73851 0.88591 4.9998C0.88591 7.2611 2.7389 9.11409 5.0002 9.11409C7.26149 9.11409 9.11448 7.2611 9.11448 4.9998Z" fill="#ADADAD"/>
</svg>
