<svg width="165" height="36" viewBox="0 0 165 36" fill="none" xmlns="http://www.w3.org/2000/svg"><path fill-rule="evenodd" clip-rule="evenodd" d="M210.044 22.514 91.25-96.28l-2.798 2.798L207.246 25.312zM66.066-71.096 184.86 47.696l-2.798 2.798L63.268-68.299zm95.012 142.578 2.798-2.798L45.082-50.11l-2.798 2.798zm-1.401 1.399L40.883-45.913l-2.798 2.798L156.879 75.68zM36.684-41.7 155.478 77.097l-2.799 2.798L33.885-38.9zM151.282 81.294 32.488-37.501l-2.798 2.798L148.484 84.091zM28.293-33.304 147.087 85.49l-2.798 2.798L25.495-30.505zM142.888 89.68 24.094-29.114l-2.798 2.798L140.089 92.478zm37.773-37.77L61.867-66.884l-2.798 2.798L177.863 54.708zM57.671-62.696 176.467 56.098l-2.798 2.798L54.874-59.898zM172.27 60.289 53.477-58.505l-2.799 2.798L169.472 63.087zM49.277-54.308 168.071 64.486l-2.798 2.798L46.479-51.509zm37.774-37.775L205.845 26.711l-2.798 2.798L84.253-89.285zM201.649 30.91 82.856-87.884l-2.799 2.798L198.851 33.708zM78.66-83.688 197.454 35.105l-2.798 2.798L75.862-80.89zM193.255 39.307 74.461-79.487l-2.798 2.798L190.457 42.105zm-122.99-114.6L189.06 43.5l-2.799 2.798L67.467-72.496zm19.457 218.13 2.799-2.798L-26.273 21.245l-2.799 2.798zM-30.473 25.442 88.321 144.236l-2.798 2.799L-33.27 28.241zM84.126 148.434-34.668 29.64l-2.798 2.798L81.328 151.232zM-38.867 33.837 79.927 152.63l-2.798 2.798L-41.665 36.635zM75.73 156.828-43.062 38.034l-2.799 2.798L72.933 159.626zM-47.258 42.231 71.536 161.025l-2.798 2.799L-50.056 45.03zm160.763 76.82L-5.289.257l-2.798 2.798 118.794 118.794zM-9.485 4.454 109.31 123.248l-2.799 2.798L-12.283 7.252zM105.11 127.447-13.684 8.653l-2.798 2.798 118.794 118.794zM-17.879 12.851l118.794 118.794-2.798 2.798L-20.677 15.649zM96.716 135.842-22.078 17.048l-2.798 2.798L93.918 138.64zM19.898-24.927 138.692 93.867l-2.798 2.798L17.1-22.129zM134.493 98.064 15.699-20.729l-2.798 2.798 118.794 118.794zM11.5-16.532l118.794 118.794-2.798 2.798L8.702-13.734zm114.599 122.991L7.305-12.335 4.507-9.537 123.3 109.257zM3.105-8.121 121.9 110.675l-2.798 2.798L.307-5.322zm114.599 122.975L-1.09-3.94l-2.798 2.798 118.794 118.794z" fill="#F4F4F5"/></svg>