<svg width="150" height="32" viewBox="0 0 150 32" fill="none" xmlns="http://www.w3.org/2000/svg"><rect width="150" height="32" rx="4" fill="#D9D9D9"/><mask id="a" style="mask-type:alpha" maskUnits="userSpaceOnUse" x="0" y="0" width="150" height="32"><rect width="150" height="32" rx="4" fill="#fff"/></mask><g mask="url(#a)"><path fill-rule="evenodd" clip-rule="evenodd" d="M243.956 25.928 104.795-120.986l-3.278 3.46L240.678 29.389zM75.296-89.84 214.457 57.074l-3.278 3.46L72.019-86.38zM186.598 86.49l3.278-3.461L50.716-63.886l-3.279 3.46zm-1.644 1.73L45.794-58.695l-3.279 3.46L181.676 91.68zM40.877-53.469l139.16 146.915-3.278 3.46L37.599-50.008zM175.12 98.637 35.959-48.277l-3.278 3.46 139.161 146.915zM31.048-43.093l139.16 146.914-3.278 3.46L27.77-39.633zm134.239 152.087L26.127-37.92l-3.278 3.46 139.16 146.915zm44.25-46.71L70.377-84.63l-3.278 3.46 139.16 146.915zM65.461-79.45 204.622 67.463l-3.278 3.46L62.183-75.99zM199.708 72.647 60.548-74.267l-3.279 3.46L196.43 76.107zM55.63-69.077 194.79 77.837l-3.278 3.46L52.352-65.615zm44.248-46.718L239.04 31.12l-3.278 3.46-139.16-146.914zM234.125 36.313 94.964-110.601l-3.278 3.46L230.847 39.773zM90.048-105.413 229.21 41.501l-3.278 3.46-139.16-146.913zM224.29 46.697 85.129-100.216l-3.278 3.46L221.01 50.159zM80.215-95.03 219.376 51.883l-3.278 3.46L76.938-91.57zm22.792 269.766 3.278-3.46L-32.876 24.361l-3.278 3.46zM-37.796 29.551l139.161 146.914-3.278 3.461-139.16-146.914zm134.25 152.106L-42.708 34.742l-3.278 3.46 139.16 146.915zM-47.629 39.933l139.16 146.914-3.277 3.461-139.16-146.915zM86.618 192.037-52.542 45.123l-3.279 3.46L83.34 195.499zM-57.456 50.315l139.16 146.914-3.277 3.46L-60.734 53.775zm188.323 95.003L-8.294-1.596l-3.278 3.46L127.59 148.778zM-13.207 3.595l139.16 146.914-3.278 3.461L-16.485 7.055zm134.242 152.107L-18.125 8.788l-3.278 3.46 139.161 146.915zM-23.044 13.979l139.161 146.914-3.278 3.46-139.16-146.914zM111.2 166.083-27.961 19.169l-3.279 3.46 139.161 146.915zM21.212-32.741l139.161 146.914-3.278 3.461L17.935-29.28zm134.242 152.105L16.294-27.551l-3.279 3.461 139.161 146.914zM11.374-22.359l139.16 146.914-3.278 3.461L8.096-18.899zM145.62 129.745 6.461-17.169l-3.279 3.46 139.161 146.915zM1.541-11.941l139.161 146.914-3.278 3.461L-1.736-8.481zM135.79 140.127-3.372-6.787l-3.278 3.46 139.161 146.915z" fill="#F4F4F5"/></g></svg>